<svg xmlns="http://www.w3.org/2000/svg" width="256" height="256" viewBox="0 0 256 256"><path fill="#FF7BAC" d="M49.278 243.43c-3.307 0-6.174-1.12-8.293-3.24l-7.1-7.1c-3.33-3.33-5.114-7.705-5.02-12.316.086-4.253 1.784-8.34 4.657-11.212l21.288-21.288c-.657-18.184-12.487-22.516-13.003-22.695-1.694-.59-2.807-2.25-2.695-4.04.11-1.79 1.382-3.3 3.136-3.67l30.7-6.58 13.563-13.56c.79-.79 1.81-1.18 2.83-1.18.09 0 .18 0 .27.01 16.58-30.13 72.21-69.66 90.79-82.32.12-.14.24-.28.38-.4l.22-.2c.1-.11.19-.21.22-.24.15-.16.5-.48.95-.79l18.3-15.16c-.01-4.01 1.57-7.9 4.43-10.77 2.86-2.86 6.67-4.44 10.72-4.44s7.85 1.57 10.71 4.43c5.91 5.91 5.91 15.52 0 21.43-2.85 2.85-6.66 4.43-10.7 4.43-.2 0-.4-.01-.61-.01l-14.83 17.9c-.39.61-.84 1.07-.95 1.18-.08.08-.26.25-.48.43-.42.42-.92.73-1.45.92-.19.07-.38.14-.58.2-12.97 22.31-51.95 85.83-81.71 97.62l-10.68 10.68-.35 25.38c-.02 1.69-1.11 3.19-2.72 3.73-.42.14-.85.21-1.28.21-1.2 0-2.37-.55-3.14-1.53-.04-.06-5.23-6.44-11.84-6.44-2.39 0-4.71.82-7.06 2.5-.7.55-1.57.85-2.46.85-.48 0-.97-.09-1.45-.28-1.83-.72-2.87-2.66-2.45-4.59.28-1.33.44-2.86.44-4.28l-25.12 25.11 3.72 3.72.12-.03 10.16-10.16c1.72-1.71 3.94-2.66 6.26-2.66 2.21 0 4.29.87 5.88 2.45 1.68 1.69 2.55 3.9 2.45 6.24-.09 2.19-1.03 4.29-2.65 5.9L62.2 238.24c-2.515 2.516-7.9 5.19-12.923 5.19z"/><path fill="#333" d="M215.58 26.283c2.854 0 5.707 1.09 7.885 3.266 4.354 4.35 4.354 11.41 0 15.76-2.176 2.17-5.025 3.26-7.876 3.26-.78 0-1.55-.08-2.31-.24l-16.41 19.81c-.08.17-.36.53-.5.66-.08.07-.23.2-.31.26l-.17.16-.01-.01c-.23.12-.53.18-.88.18-.22 0-.47-.03-.73-.07-10.95 19.01-51.88 87.22-81.55 98.04l-12.43 12.43-.38 27s-6.28-7.96-14.98-7.96c-2.94 0-6.17.91-9.51 3.34L92.47 173l-.004-.004-17.03 29.21s1.98-9.06-1.708-12.55l-9.042 9.04-21.013 21.014c-.498.5-2.377 2.574-.682 4.27l6.5 6.498c1.49-.608 3.1-.845 3.65-1.396l10.57-10.566c.97-.97 2.21-1.482 3.42-1.482 1.1 0 2.18.416 3.05 1.287 1.84 1.85 1.65 4.64-.19 6.48l-10.62 10.62c-1.78 1.79-6.09 4.02-10.09 4.02-2.02 0-3.97-.57-5.46-2.06l-7.1-7.1c-5.52-5.52-4.62-13.61-.36-17.87l21.99-22c.14-.23.3-.48.49-.76-.1-22.73-15.75-27.84-15.75-27.84l31.86-6.82 14.4-14.39 1.85 1.84c13.19-30.31 76.02-74.36 92.25-85.38.02-.06.05-.13.08-.19l-.03-.03.33-.3c.03-.04.23-.25.27-.29.11-.1.31-.26.44-.33l20.09-16.64c-.56-3.42.47-7.05 3.11-9.69 2.18-2.18 5.03-3.26 7.89-3.26m0-8c-5.12 0-9.93 1.99-13.54 5.61-3.15 3.15-5.07 7.28-5.5 11.63l-16.81 13.92c-.59.42-1.04.83-1.3 1.09l-.1.1-.22.24-.04.04c-.11.1-.22.21-.32.31-8.54 5.83-27.84 19.38-46.7 35.12-21.55 17.99-36.29 33.61-43.92 46.54-1.25.36-2.44 1.04-3.43 2.03L71 147.69l-29.55 6.33c-3.597.77-6.36 3.846-6.48 7.52-.114 3.65 2.1 6.87 5.604 7.89 1.298.51 9.098 4.124 10.18 17.34l-20.02 20.02c-3.59 3.597-5.72 8.685-5.83 13.96-.11 5.71 2.09 11.12 6.2 15.23l7.1 7.1c2.885 2.883 6.73 4.41 11.12 4.41 6.454 0 12.69-3.3 15.75-6.36l10.62-10.62c2.32-2.323 3.68-5.363 3.81-8.56.14-3.47-1.14-6.75-3.62-9.23-2.35-2.34-5.44-3.63-8.71-3.63-.53 0-1.05.04-1.56.1l2.92-2.92c.883 1.54 2.28 2.79 4.04 3.47.944.37 1.92.55 2.89.55 1.77 0 3.503-.595 4.91-1.68 1.61-1.134 3.13-1.685 4.63-1.685 3.964 0 7.93 3.93 8.694 4.91 1.55 1.96 3.88 3.043 6.287 3.043.86 0 1.73-.14 2.57-.42 3.21-1.09 5.39-4.08 5.43-7.46l.34-23.76 8.957-8.95c13.97-5.85 30.277-21.594 49.758-48.04 14.17-19.23 26.45-39.494 32.46-49.763.7-.34 1.36-.796 1.95-1.355.25-.21.45-.4.585-.53l.07-.066c.28-.28.81-.855 1.333-1.63l13.5-16.31c4.63-.303 8.93-2.25 12.24-5.56 7.46-7.462 7.46-19.612 0-27.08-3.62-3.62-8.43-5.61-13.54-5.61z"/><path fill="#999" d="M43.813 237.36l-7.1-7.098c-5.52-5.52-4.626-13.61-.363-17.872L97 151.74c1.842-1.842 5.155-1.515 6.998.327 1.84 1.843 2.17 5.157.327 7l-60.65 60.647c-.497.5-2.376 2.574-.68 4.27l6.498 6.498c1.484-.608 3.096-.845 3.65-1.396l10.565-10.566c1.843-1.842 4.633-2.037 6.476-.196 1.84 1.842 1.646 4.634-.197 6.475l-10.614 10.61c-2.687 2.68-11.113 6.39-15.56 1.94z"/><path fill="#4D4D4D" d="M77.602 171.14L54.15 194.593c3.484.7 6.636 1.734 10.095 4.554l22.545-22.544c-.12-1.975.122-2.827.122-2.827l-9.31-2.636z"/><path fill="#FF7BAC" d="M187.262 54.458s-88.677 58.166-97.773 92.735l12.6 7.824 92.94-92.937m2.05 2.342s-52.15 94.626-86.71 103.725l-7.9-12.752 89.15-96.43"/><path fill="#ED1E79" d="M190.107 61.693s-44.232 93.16-80.358 102.193c-4.86 1.212-3.04 1.818-3.04 1.818l-12.73-14.556 95.82-94.005.3 4.55z"/><path fill="#F9EAEB" d="M196.07 69.07c.086-.056.234-.184.31-.256.132-.133.42-.49.494-.667l19.932-24.056-8.188-8.18-24.115 19.98c-.132.07-.332.23-.437.34-.034.04-.234.25-.265.29l-.32.3.03.03c-.73 1.36.75 5.19 3.98 8.42 3.23 3.23 7.06 4.71 8.42 3.98l.01.01.17-.16z"/><path fill="#808080" d="M207.095 55.8l9.71-11.71-8.187-8.186-5.8 4.81c1.635 4.516 3.32 10.108 4.277 15.085z"/><circle fill="#F9EAEB" cx="215.581" cy="37.433" r="11.15"/><path fill="#FF7BAC" d="M81.292 153.602l-38.207 8.187s16.628 5.43 15.72 29.99l25.67-28.63-3.183-9.55z"/><path fill="#ED1E79" d="M93.238 171.676l-17.8 30.534s4.582-20.954-13.16-11.402c-17.737 9.552 22.317-27.774 22.317-27.774l8.643 8.642z"/><path fill="#FF7BAC" d="M100.396 174.523l-.456 32.294s-11.23-14.24-24.49-4.617l17.81-30.545 6.227 3.78"/><path fill="#FF7BAC" d="M89.34 140.564l25.114 25.115-14.65 14.65-25.116-25.12z"/></svg>