<svg xmlns="http://www.w3.org/2000/svg" width="256" height="256" viewBox="0 0 256 256"><path fill="#FCEE21" d="M62.966 232.077c-.83 0-1.655-.258-2.352-.764-1.23-.896-1.848-2.412-1.59-3.913l12.07-70.335-51.12-49.824c-1.09-1.06-1.482-2.65-1.01-4.1.47-1.44 1.72-2.5 3.228-2.72l70.636-10.26 31.583-64c.68-1.36 2.07-2.23 3.59-2.23s2.92.87 3.59 2.23l31.59 64 70.64 10.27c1.51.22 2.76 1.28 3.23 2.73.47 1.45.08 3.04-1.01 4.1l-51.12 49.83 12.07 70.34c.26 1.5-.36 3.02-1.59 3.92-.69.51-1.52.77-2.35.77-.63 0-1.27-.15-1.86-.46L128 198.41l-63.17 33.21c-.585.307-1.224.46-1.86.46z"/><path fill="#F7931E" d="M127.998 27.923l32.515 65.888 72.72 10.57-52.624 51.29 12.42 72.41L128 193.9l-65.033 34.18 12.426-72.41-52.623-51.29 72.71-10.57 32.512-65.887m0-8c-3.045 0-5.827 1.73-7.174 4.46L90.173 86.5l-68.555 9.96c-3.014.438-5.517 2.55-6.458 5.445-.945 2.896-.16 6.076 2.02 8.2l49.61 48.355-11.714 68.266c-.515 3.002.72 6.035 3.182 7.825 1.394 1.02 3.044 1.53 4.704 1.53 1.273 0 2.55-.3 3.72-.92l61.31-32.22 61.314 32.23c1.17.62 2.45.92 3.723.92 1.66 0 3.31-.52 4.7-1.53 2.46-1.79 3.69-4.82 3.18-7.82l-11.71-68.27 49.61-48.35c2.18-2.13 2.96-5.31 2.02-8.2-.94-2.9-3.44-5.01-6.46-5.45l-68.55-9.96-30.65-62.12c-1.35-2.73-4.13-4.46-7.18-4.46z"/><path fill="#F5F5F5" d="M120.32 119.672c0 10.193-8.26 18.453-18.448 18.453-10.19 0-18.44-8.26-18.44-18.453 0-10.17 8.25-18.417 18.44-18.417 10.19 0 18.447 8.246 18.447 18.417z"/><path fill="#333" d="M114.842 119.242c0 7.08-5.726 12.81-12.798 12.81-7.063 0-12.806-5.73-12.806-12.81 0-7.062 5.743-12.784 12.806-12.784 7.073 0 12.798 5.722 12.798 12.784z"/><path fill="#F5F5F5" d="M172.57 119.672c0 10.193-8.248 18.453-18.44 18.453-10.187 0-18.437-8.26-18.437-18.453 0-10.17 8.25-18.417 18.438-18.417 10.2 0 18.44 8.246 18.44 18.417z"/><path fill="#333" d="M167.103 119.242c0 7.08-5.724 12.81-12.808 12.81-7.06 0-12.8-5.73-12.8-12.81 0-7.062 5.74-12.784 12.8-12.784 7.084 0 12.808 5.722 12.808 12.784z"/><path fill="#C1272D" d="M109.487 150.85c-.06.013.83.586 1.414.905.67.368 1.4.732 2.15 1.083 1.5.688 3.1 1.294 4.74 1.788 3.3.973 6.76 1.562 10.26 1.677 7.05.252 14.34-1.344 21.37-4.48l.15-.067c5.89-2.61 12.78.033 15.4 5.916 2.49 5.597.18 12.134-5.11 15.007-9.33 5.03-20.14 8.49-31.47 8.95-5.64.26-11.35-.24-16.95-1.45-2.81-.61-5.58-1.41-8.34-2.41-1.37-.52-2.74-1.07-4.12-1.7-1.48-.71-2.61-1.22-4.59-2.44-6.29-4.18-8.01-12.67-3.83-18.98 4.18-6.28 12.67-8.01 18.96-3.83z"/></svg>