<svg xmlns="http://www.w3.org/2000/svg" width="256" height="256" viewBox="0 0 256 256"><path fill="#9E005D" d="M136.233 211.79c-.153 0-.308-.008-.462-.025-1.77-.205-3.19-1.556-3.48-3.313l-7.4-44.204-7.4 44c-.32 1.916-1.97 3.134-3.91 3.134h-.03c-1.93 0-3.58-1.175-3.93-3.077l-5.93-32.4-23.89 31.83c-.77 1.032-1.97 1.622-3.2 1.622-.59 0-1.18-.117-1.74-.39-1.72-.835-2.61-2.767-2.12-4.616l16.65-62.85c.02-.22.05-.45.11-.68l4.49-18.55c-12.03 1.77-22.2 2.67-30.24 2.67-10.97 0-17.61-1.67-20.89-5.26-1.62-1.77-2.38-3.97-2.22-6.37V60.04c0-.133.01-.265.02-.397.41-4.13 4.15-11.938 15.32-11.938 10.66 0 26.13 7.342 46 21.833 1.89-2.324 4.59-3.585 7.74-3.585 4.55 0 9.32 2.546 13.15 4.592.77.41 1.7.904 2.48 1.285 2.92-2.697 9-4.09 18.16-4.154 1.19-.364 2.32-.542 3.43-.542 1.33 0 2.59.264 3.77.788 21.1-15.73 37.29-23.705 48.14-23.705 11.07 0 14.51 7.897 14.78 12.072.01.08.01.17.01.26v51.82c.67.91.75 1.91.75 2.37 0 .08 0 .18-.01.29.22.6.29 1.36.2 2-1.14 8.27-12.87 9.34-21.59 9.34-8.68 0-20.21-1.24-34.29-3.46-.05.16-.11.26-.18.42-.55 1.21-1.49 1.97-3.44 2.64L173.29 194c.44 1.77-.36 3.61-1.97 4.482-.6.33-1.26.486-1.91.486-1.08 0-2.15-.44-2.927-1.27l-14.98-16.02-11.572 27.644c-.62 1.5-2.09 2.457-3.68 2.457z"/><path fill="#333" d="M198.83 48.216c10.245 0 10.79 8.333 10.79 8.333v54.01c1 .11 1 .22 0 .33v1.48h.972c-.603 4.35-8.055 5.78-17.63 5.78-12.423 0-28.414-2.41-37.632-3.94-.27 2.42-.482 3.4-.482 3.4s-.257.56-4.665 1.44l19.208 75.92-19.19-20.56-13.96 33.35L124.9 140l-11.343 67.77-7.57-41.493L76.6 205.37l16.862-63.64c-.006.006-.076.012-.083.02l5.25-21.71c-1.12-.578-2.2-1.314-2.8-2.11-9.09 1.396-21.67 2.993-32.09 2.993-11.02 0-19.63-1.787-19.12-7.482v-53.4s.83-8.33 11.34-8.33c8.22 0 22.37 5.11 46.67 23.31.46-.77 1.4-1.5 1.84-2.09 1.27-2.16 3.12-2.96 5.23-2.96 5.96 0 13.96 6.44 16.74 6.44.48 0 .8-.19.93-.64 1.16-4.07 16.74-4.07 16.74-4.07 1.03-.36 1.95-.54 2.78-.54 1.55 0 2.8.61 3.93 1.67 25.35-19.24 39.78-24.58 47.98-24.58m0-8c-11.6 0-27.61 7.62-48.88 23.27-1.12-.26-2.16-.35-3.04-.35-1.31 0-2.67.19-4.05.56-1.62.04-4.6.17-7.68.56-2.2.28-6.6.83-10.21 2.9-.09-.04-.17-.09-.25-.13-4.23-2.25-9.49-5.06-15.04-5.06-3.04 0-5.78.84-8.05 2.43-19.51-13.91-34.5-20.69-45.68-20.69-13.02 0-18.68 9.3-19.3 15.55-.03.26-.04.53-.04.79v53.13c-.19 3.41.96 6.67 3.27 9.2 4.15 4.53 11.5 6.56 23.84 6.56 6.89 0 15.26-.64 24.97-1.9l-3.1 12.84c-.07.31-.13.61-.17.91l-16.56 62.53c-.98 3.7.8 7.58 4.24 9.25 1.12.55 2.31.81 3.49.81 2.45 0 4.84-1.12 6.4-3.19l18.4-24.47 4.29 23.31c.69 3.81 4.01 6.36 7.87 6.36h.06c3.88 0 7.19-2.64 7.83-6.47l3.46-20.54 3.46 20.69c.59 3.52 3.43 6.24 6.97 6.65.31.04.62.07.93.07 3.19 0 6.12-1.9 7.38-4.9l9.18-21.93 10.75 11.51c1.55 1.67 3.69 2.54 5.85 2.54 1.31 0 2.62-.31 3.83-.97 3.2-1.75 4.82-5.44 3.92-8.98l-17.46-69.01c.34-.26.65-.54.95-.85 13.12 1.99 23.97 2.99 32.32 2.99 5.88 0 23.8 0 25.55-12.69.14-1.01.09-2.02-.15-2.99-.03-.91-.25-2.01-.74-3.11V56.55c0-.174-.01-.348-.02-.52-.42-6.357-5.76-15.813-18.77-15.813z"/><path fill="#9E005D" d="M100.87 79.256s3.5-7.125 4.874-7.5.375 7.375.375 7.375l-5.25.13z"/><path fill="#ED1E79" d="M148.837 113.75l-20.255-1.842.09-.68-3.78.345-3.783-.344.08.67-20.26 1.84-24.33 91.63 29.36-39.09 7.56 41.49L124.87 140l11.34 67.77 13.96-33.354 19.2 20.554z"/><path fill="#9E005D" d="M150.12 119.048l-10.296-6.118-11.242-1.022.09-.68-3.78.345-2.758-.25-18.514-10.44-10.125 40.874c8.333-8.334 23.638-5.51 29.208 11.292l2.188-13.03 2.32 13.61c3.53-11.82 11.29-21.67 26.17-21.84l-3.25-12.75zm-55.38-7.238s-1.164 8.145 7.755 9.308c8.92 1.164.582-12.215.582-12.215l-9.114 2.714"/><path fill="#ED1E79" d="M45.62 114.38V60.04s2.26-27.534 60.818 17.45l.42 37.836"/><path fill="#9E005D" d="M108.312 115.882s-44.21-29.084-60.497-6.98c-16.287 22.105 60.497 6.98 60.497 6.98zM81.94 72.062s-11.633 16.288 3.88 20.94c15.51 4.655 20.165 9.696 20.165 9.696l.775-15.124s-15.512 1.164-16.675-4.266c-1.163-5.43-1.163-19.003-8.144-11.246z"/><path fill="#ED1E79" d="M210.62 111.38V56.55S208.327 29.015 149.77 74l-.405 38.08"/><path fill="#9E005D" d="M147.867 112.392s44.21-29.084 60.497-6.98c16.287 22.105-60.497 6.98-60.497 6.98zm26.37-24.248s16.87-11.052 1.357-15.706c-15.512-4.653-25.4 8.337-25.4 8.337l-.776 15.124s20.748-19.2 21.91-13.77c1.164 5.43 1.262 5.54 2.91 6.01zm-17.062-2.51s9.89 7.562 4.072 12.797c-5.817 5.24-8.726 10.18-8.726 10.18"/><path fill="#F42C8C" d="M104.24 73.418s2.91 3.49-.582 19.196c-3.49 15.706-2.348 22.228-8.165 23.39 0 0-4.183 9.117 33.76 5.695 24.78-2.24 24.97 6.1 27.865-5.16 2.937-11.41 5.29-51.28-12.74-44.88 0 0-15.707 0-16.87 4.07-1.163 4.07-18.032-12.8-23.268-2.33z"/><path fill="#9E005D" d="M127.508 75.746s4.072 1.454 5.817 14.25c0 0 3.78 3.2 2.617-4.07-1.163-7.272-4.944-13.962-8.434-10.18z"/></svg>