<svg xmlns="http://www.w3.org/2000/svg" width="256" height="256" viewBox="0 0 256 256"><path fill="#1A1A1A" d="M46.62 185.38h163v6h-163zm162.312 3.54c0 12.07-37.053 21.858-81.53 21.858-44.474 0-81.44-9.787-81.44-21.857 0-12.08 36.967-21.85 81.44-21.85 44.477 0 81.53 9.78 81.53 21.86z"/><path fill="#333" d="M209.027 183.253c0 12.072-37.148 21.86-81.625 21.86-44.475 0-81.35-8.89-81.35-20.96 0-12.075 36.875-22.76 81.35-22.76 44.477 0 81.625 9.78 81.625 21.86z"/><path fill="#1A1A1A" d="M175.076 176.248L185.574 61.38H69.232l10.496 114.87c0 .088-.04.355-.04.453 0 .374.09.68.173.68h.07c2.35 9 22.71 14.245 47.48 14.245s45.13-5.244 47.48-14.244h.03l.04.09c.08-.37.18-.653.18-1.03 0-.098-.04-.104-.04-.192z"/><path fill="#333" d="M107.43 166.312l-19.377.863L78.547 62.78l29.058-1.292zM185.574 61.02c0 8.72-26.047 15.792-58.172 15.792-32.127 0-58.17-7.073-58.17-15.793 0-8.73 26.043-15.8 58.17-15.8 32.125 0 58.172 7.06 58.172 15.79z"/><path fill="#D4145A" d="M177.332 151.997c-11.867 3.514-29.797 5.768-49.93 5.768s-38.06-2.254-49.926-5.768l2.252 24.602c0 .09-.04.18-.04.27 0 .37.09.22.173.59l.04-.09h.03c2.35 9 22.71 14.24 47.48 14.24s45.13-5.25 47.48-14.25h.03l.04.09c.08-.37.18-.48.18-.86 0-.09-.04-.06-.04-.14l2.26-24.48z"/><path fill="#9E005D" d="M177.332 151.997c-7.854 2.283-18.39 4.015-30.426 4.93l19.035 3.18-14.18 12.15 15.27 3.22-27.27 15.666c18.9-1.645 33.18-6.762 35.13-13.762h.03l.04-.12c.08-.36.18-.58.18-.94 0-.09-.04-.11-.04-.19l2.25-24.12z"/><path fill="#ED1E79" d="M87.395 154.37l-2.893 1.104 6.543 6.857-8.97 1.17 8.243 6.74-9.453 1.62 11.15 6.98-10.082 1.67c3.54 3.57 11.11 6.56 21.023 8.44l-7.912-5.92 7.88-3.01-10.18-5.34 10.18-1.16-10.18-6.73 10.663-2.09-10.662-6.04 9.605-2.2c-5.385-.53-10.436-1.21-14.955-2.04z"/></svg>