<svg xmlns="http://www.w3.org/2000/svg" width="256" height="256" viewBox="0 0 256 256"><path fill="#fff" d="M135.993 226.38c-31.552 0-48.042-8.095-56.53-15.532-3.602.993-7.864 1.944-10.977 1.944-1.333 0-2.422-.178-3.332-.54l-.763-.306-21.37-21.375-.13-.16c-.43-.53-4.18-5.42-2.97-13.06 1.28-8.1 7.59-15.88 18.74-23.13 7.94-5.16 14.42-11.09 19.26-17.63-.07-3.58-.08-6.88-.01-10.04.71-33.8 1.79-60.54 8.48-71.7 1.39-2.32 2.32-3.66 2.36-3.72l.47-.67.7-.43c.87-.54 21.51-13.26 49.09-13.26 7.08 0 14.05.86 20.76 2.55 2.05-2.22 4.83-4.35 8.42-6.47 3.68-2.16 7.67-3.25 11.86-3.25 5.05 0 8.6 1.62 8.98 1.81l.15.07.15.09c1.99 1.17 3.78 2.89 5.32 5.13l16.25 16.25.1.12c.79.92 18.72 22.74-15.43 58.89.01 4.9-.2 9.67-.63 14.22l-.05.51c-2.94 31.09-5.49 57.94 2.32 75.36l1 2.24-1.54 1.91c-6.11 7.56-22.03 20.23-60.05 20.23h-.6z"/><path fill="#333" d="M180.024 33.577c4.293 0 7.26 1.415 7.26 1.415 1.662.97 3.052 2.44 4.227 4.227l16.42 16.41s17.16 20.02-16.4 54.69c.06 5.03-.11 10.2-.6 15.43-2.98 31.52-5.68 59.39 2.6 77.88-8.08 9.99-26.12 18.74-56.94 18.74H136c-28.873 0-46.383-6.99-55.46-16.01-5.19 1.55-9.497 2.41-12.048 2.41-.794 0-1.42-.09-1.846-.26L46 187.89s-10.967-13.544 14.84-30.322c10.067-6.545 16.687-13.48 21.108-19.736-.096-3.715-.125-7.458-.046-11.21.658-31.345 1.696-59.373 7.91-69.73 1.338-2.24 2.21-3.494 2.21-3.494S112.238 40.75 138.99 40.75c7.04 0 14.537.878 22.234 3.092 1.646-2.424 4.524-4.95 8.97-7.56 3.54-2.08 6.978-2.705 9.83-2.705m6.232 35.67c.045-.085.094-.173.138-.258l-.192-.07c.017.11.035.21.054.32m-6.232-43.67c-4.912 0-9.584 1.28-13.885 3.8-3.04 1.78-5.57 3.61-7.64 5.51-6.34-1.43-12.88-2.15-19.52-2.15-28.72 0-50.31 13.3-51.21 13.86l-1.39.86-.94 1.34c-.11.15-1.08 1.55-2.52 3.96-7.2 11.98-8.32 39.26-9.04 73.66-.06 2.8-.07 5.7-.01 8.81-4.47 5.74-10.32 10.98-17.42 15.59-12.15 7.89-19.05 16.6-20.51 25.86-1.48 9.34 3.27 15.52 3.81 16.2l.26.32.29.3 20.64 20.64 1.16 1.16 1.52.61c1.39.55 2.96.82 4.81.82 2.93 0 6.62-.71 10-1.55 9.46 7.51 26.67 15.14 57.5 15.14h.59c39.68 0 56.6-13.6 63.16-21.71l3.09-3.82-2.01-4.48c-7.38-16.47-4.88-42.83-1.99-73.35l.04-.51c.4-4.18.62-8.55.65-13.02 35.12-38.05 15.36-62.03 14.49-63.05l-.2-.24-.22-.22-15.89-15.89c-1.83-2.58-3.97-4.6-6.38-6.01l-.29-.17-.3-.15c-.76-.37-4.89-2.2-10.7-2.2z"/><path fill="#75D9FC" d="M187.284 34.992s-8.22-3.92-17.093 1.29c-35.16 20.645 27.42 36.128 27.42 36.128s1.29-30.646-10.32-37.42zm-141.286 152.9s-10.967-13.545 14.84-30.323c25.803-16.78 29.03-36.13 30.32-40 1.29-3.87 34.84 23.87 34.84 23.87l-13.55 40.64-57.416 10.97-9.034-5.16z"/><path fill="#FBB03B" d="M79.346 205.145c8.697 9.602 26.47 17.236 56.647 17.236h.648-.06c30.82 0 48.87-8.75 56.95-18.74-8.28-18.48-5.59-46.36-2.6-77.88 3.6-37.94-9.44-72.88-9.44-72.88-44.53-27.59-89.46.52-89.46.52s-.87 1.26-2.21 3.5c-6.21 10.36-7.25 38.39-7.91 69.73-.64 30.22 5.73 59.86-2.55 78.53z"/><path fill="#EF9B2B" d="M172.875 153.055s-12.04-7.743-19.782 4.3c-7.74 12.04 3.437 52.47-34.41 49.033 0 0 29.248 18.923 55.053-7.746 0 0 20.646-42.147-.86-45.587z"/><path fill="#0071BC" d="M94.598 63.805s1.72 8.604.43 21.94l28.388-3.873-6.45-22.8-22.368 4.733zm90.104-1.935s3.23 11.4 2.8 25.162l-25.8-5.16 6.453-22.8 16.547 2.798z"/><path fill="#F7931E" d="M175.03 67.573c0 10.154-10.462 28.065-32.906 28.065-22.44 0-32.904-17.91-32.904-28.065 0-10.157 10.463-18.388 32.904-18.388 22.444 0 32.905 8.232 32.905 18.388z"/><path fill="#E57E17" d="M142.124 98.215c-22.846 0-35.482-18.12-35.482-30.642 0-10.14 9.317-20.972 35.482-20.972 26.164 0 35.485 10.84 35.485 20.98 0 12.52-12.64 30.64-35.49 30.64zm0-46.45c-18.707 0-30.322 6.063-30.322 15.81 0 8.607 9.158 25.484 30.322 25.484 21.163 0 30.323-16.88 30.323-25.49 0-9.75-11.62-15.81-30.323-15.81z"/><path fill="#F7931E" d="M98.473 96.07c0 18.643 1.29 43.65-9.46 38.917-2.174-.955-1.292-14.9-1.292-33.544 0-18.653 4.08-39.14 6.46-39.14s4.3 15.115 4.3 33.768z"/><path fill="#fff" d="M66.64 208.537c6.453 2.582 57.422-14.838 63.227-35.486 5.807-20.64 12.257-17.41 54.835-56.12 42.58-38.71 23.228-61.29 23.228-61.29L187.284 35s19.356 22.58-23.224 61.286c-42.58 38.71-49.032 35.488-54.84 56.13-5.804 20.643-56.772 38.064-63.222 35.483l20.642 20.64z"/></svg>