<svg xmlns="http://www.w3.org/2000/svg" xmlns:xlink="http://www.w3.org/1999/xlink" width="256" height="256" viewBox="0 0 256 256"><path fill="#333" d="M212.52 106.25v.02c-1.16-3.67-2.82-6.05-4.94-7.13-1-1.76-2.23-3.75-3.21-4.8-.62-.66-3.858-3.95-7.108-4.58-.35-.07-.76-.11-1.18-.11-.67 0-1.42.11-2.15.28-.91-.43-1.97-.7-3.14-.7-2.03 0-4.02.79-5.91 2.34-.51.42-1.09.84-1.7 1.29-1.66 1.21-3.38 2.47-4.56 4.3-1.83 2.85-1.69 6.2.37 9.18.158.24.81 1.21 1.78 2.56-.064.12-.122.23-.19.35l-.09.16c-.432.87-.97 1.89-1.63 2.9-.064.09-.12.19-.18.29-.4.7-.962 1.45-1.61 2.33l-.48.63-.6.68-.63.71-1.32 1.21-.02.02c-.894.64-1.73 1.22-2.42 1.46-.11.04-.224.08-.33.13-.65.29-1.48.44-2.522.46l-.24.01c-1.87 0-4.29-.74-6.8-2.08-.31-.17-.63-.35-.95-.54-.27-1.03-.87-1.97-1.74-2.66l-5.25-4.16c10.51-2.1 17.03-8.23 18.59-17.49 5.33-1.54 8.4-6.08 8.4-12.77 0-3.77-1.2-7.18-3.25-9.62 2.97-7.74 2.97-9.74 2.97-10.64 0-5.87-3.33-14.31-12.25-15.95-1.75-2.95-5.38-5.21-11.19-7.01-4.227-1.31-8.227-1.92-8.39-1.95-.13-.02-.25-.03-.38-.04-1.47-.11-2.94-.16-4.37-.16l.01-.048c-27.64 0-35.46 20.18-35.78 21.038-.71 1.93-.18 4.1 1.35 5.47.11.1.22.19.34.28.1 3.01.96 6.12 2.07 8.95-2.06 2.44-3.29 5.87-3.29 9.65 0 4.67 1.5 8.284 4.21 10.57-1.4.34-2.86.78-4.36 1.32-1.72.61-2.92 2.09-3.24 3.81-4.33.83-8 2.345-11.17 4.61-2.28 1.584-4.31 3.74-5.88 6.24-1.66 2.53-2.46 5.114-3.01 7.313-.01.06-.03.12-.04.18-.2.91-.31 1.76-.42 2.51l-.09.63c-.02.17-.04.34-.05.51-.04.897-.07 1.77-.1 2.61v.37c.03.84.06 1.64.12 2.41-1.83 1.08-3.6 2.73-3.99 5.237-.32 1.93-.99 7.08-.06 11.68l-.57-.37c-.83-.54-1.77-.8-2.71-.8-1 0-1.99.29-2.84.88l-28.99 20c-1.1.765-1.85 1.94-2.08 3.26-.23 1.32.08 2.68.86 3.77l2.15 3c.94 1.315 2.46 2.08 4.06 2.08.18 0 .36-.01.54-.03.6-.064 1.31-.11 2.05-.154 3.05-.2 6.74-.43 9.93-2.3 3.02-.21 5.93-.93 7.92-1.54.26.79.73 1.512 1.35 2.09 1.07.99 2.34 1.604 3.73 1.82.48.97 1.01 2.02 1.6 3.145.05.09.09.17.14.25.35.59.68 1.2 1.03 1.82.72 1.29 1.52 2.75 2.53 4.26.19.29.4.61.6.93.48.75.98 1.52 1.54 2.32l.12.17.32.42 2.16 2.82c.09.12.18.23.28.34l.55.61c.83.92 1.7 1.87 2.72 2.84.1.1.2.19.3.27l.77.65c.98.84 2.2 1.89 3.85 2.8 2.05 1.3 4.58 2.27 7.14 2.73 1.04.19 2.13.29 3.22.29 2.04 0 4.07-.33 5.87-.97 5.31-1.84 8.63-5.33 10.92-8.17 2.23-2.82 3.68-5.56 5.09-8.35l.05-.1c1.51-3.15 2.8-6.4 4.023-10.03 4.08-1.99 12.1-5.5 18.06-5.5 1.42 0 2.57.21 3.37.62.512.49.94 1.02 1.31 1.63.594 1.17 1.132 2.33 1.382 3.59l.06.27c.33 1.28.554 2.88.68 4.88.104 2.13.09 3.85-.026 5.41-.01.05.21.09.21.14-.17 3.65-1.11 7.21-1.11 10.35v.01c-1 .46-.41.9-.5 1.34-1.84 1.03-3.23 1.88-3.31 1.93-2.16 1.44-2.94 4.28-1.69 6.56.56 1.06 1.08 2.53 1.19 3.24-1.46 4.09.77 8.78 1.53 10.17.01.03.01.06.02.07.06.13.13.27.21.41.15.26.35.6.56.94.38.61.77 1.22.77 1.22.93 1.45 2.53 2.3 4.21 2.3.29 0 .58-.03.87-.08l34.63-6.13c1.32-.23 2.49-.99 3.25-2.09.76-1.1 1.04-2.47.79-3.78l-.71-3.61c-.34-1.77-1.62-3.22-3.33-3.78-.57-.19-1.23-.44-1.93-.71-2.45-.93-5.49-2.09-8.71-2.09-.44 0-.86.02-1.26.07-2.18-.82-4.4-1.33-6.27-1.65l.06-.33.03-.15c.6-3.59 1.34-8.05 1.56-13.08.15-2.32.15-4.9-.02-7.88v-.08c-.23-3.33-.65-6.08-1.31-8.64-.64-2.88-1.84-5.93-3.57-9.09l-.06-.13c-1.79-3.06-4.19-5.83-6.93-8-2.52-2.03-5.5-3.6-8.82-4.64-.98-.32-1.98-.58-3-.8.24-.54.47-1.09.71-1.64l.09-.22c.34-.92.63-1.87.9-2.82.18-.06.36-.14.53-.22.75-.37 1.38-.82 1.85-1.49 3.99 1.65 7.87 2.61 11.77 2.61h.31c3.33 0 6.59-.66 9.42-1.73 3.23-1.11 5.82-2.85 7.94-4.37.1-.08.21-.18.31-.27l.53-.46c.75-.63 1.54-1.3 2.29-2 .08-.07.15-.15.23-.22l.97-1.03c.43-.46.86-.91 1.28-1.35.11-.11.2-.22.3-.34l.35-.44c1.19-1.48 2.42-3.01 3.4-4.6.34-.5.65-.98.95-1.45.25-.05.51-.11.76-.19 2.63-.82 11.23-3.86 14.06-9.26 1.06-2.06 1.27-4.28.6-6.41zm-106.91 11.928v-.008l.07-.11c.21-.34.31-.41.35-.44.07-.05.14-.09.2-.14.32-.24.9-.52 1.67-.77l.38 2.67c.02.14.05.29.09.43-.9-.49-1.9-.81-2.97-.922.07-.26.15-.56.21-.71zm19.09 7.273v-.01l-.05.66c-.02.11-.08.34-.13.51-.07.26-.16.55-.23.88-.17.38-.32.73-.44 1.04-.11.25-.2.48-.29.67-.47.72-.91 1.43-1.31 2.13l-.86 1.02-.72.86-.06.06-.59.74-.17.16-.47.43-.05.05c-.58.55-1.09 1.03-1.51 1.44-.83.81-1.43 1.26-1.43 1.26-.96.93-1.66 2.2-1.66 3.54v.13c-2 2.77-4.26 7.11-4.26 12.04 0 2.77.62 5.46 1.64 7.79-.03.09-.02.18-.05.27-1.26 4.2-2.6 7.78-4.13 10.93-.87 1.69-1.79 3.41-2.72 4.54l-.08.1c-.17.23-.33.41-.49.58-.03-.02-.05-.05-.08-.07-.2-.18-.41-.35-.62-.52-.31-.31-.63-.67-.98-1.05l-.63-.69-.63-.83-1.01-1.35-1.36-2.11-.26-.4-.03-.05c-.6-.89-1.17-1.95-1.72-2.96-.33-.6-.66-1.22-1.01-1.82-1.86-3.68-3.01-6.1-3.72-7.8-.01-.03-.02-.06-.04-.09l-.01-.03c.2-1.72-.49-3.48-1.96-4.58-.95-.73-2.06-1.84-2.46-2.45-.04-.52-.14-1.03-.28-1.52l.18.03c1.18.19 2.22.28 3.18.28 2.2 0 4-.51 5.37-1.5 2.03-.1 4.39-.31 5.78-.72.86-.26 5.24-1.68 7.26-4.28.28-.36.89-1.14 1.37-3.09.48-.38.94-.83 1.34-1.36 1.04-1.38 2.1-3.8 1.26-7.47-.15-.66-.26-1.37-.39-2.12-.29-1.78-.6-3.61-1.42-5.3.49.15 1 .23 1.52.23l-.06.03c.38 0 .77-.04 1.15-.13l9.53-2.25.12.33c.09.24.18.52.3.81.07.3.14.57.2.81.04.16.1.38.12.5 0 .31.03.63.09.93.01.14-.02.51-.04.78zm19.132-85.29c1.284 0 2.616.05 4 .15 0 0 14.957 2.26 16.415 7.48.11.4.16.83.185 1.28.19-.01.37-.01.54-.01 8.9 0 10.44 8.46 10.44 11.23 0 1.99-2.15 7.66-3.52 11.06l.037.01-.41 1.18c2.41 1.03 4.17 4.22 4.17 8 0 7.47-4.58 8.35-7.81 8.35-.08 0-.15-.02-.23-.02-.04 14.65-12.71 17.29-20.39 17.68l-1.92 1.6c.92 1.29 1.7 2.83 2.51 4.39l8 6.32-.26 1.39c1.17.81 2.4 1.6 3.7 2.3 2.92 1.56 6.17 2.67 9.16 2.67.12 0 .23 0 .36-.01 1.54-.04 3.03-.28 4.41-.89 1.4-.5 2.68-1.41 3.92-2.31.59-.54 1.15-1.07 1.72-1.59.52-.6 1.05-1.17 1.56-1.74.93-1.27 1.86-2.42 2.56-3.67.77-1.17 1.4-2.34 1.93-3.4.57-1.03 1.01-1.97 1.34-2.77l.25-.56c-1.97-2.63-3.42-4.81-3.42-4.81-2.54-3.63 1.63-5.38 4.94-8.1 1.1-.91 2.01-1.21 2.73-1.21 1.45 0 2.16 1.21 2.16 1.21s2.13-.79 3.14-.79c.1 0 .18.01.25.02 1.32.26 3.48 2.11 4.41 3.09 1.17 1.24 3.57 5.8 3.57 5.8s.16-.09.42-.09c.62 0 1.85.55 3.04 4.31 1.69 5.33-11.42 9.4-11.42 9.4-.13.04-.26.06-.41.06-.43 0-.93-.19-1.48-.51l-.02.03c-.67 1.23-1.46 2.62-2.48 4.09-.92 1.49-2.18 3.03-3.48 4.65-.74.77-1.49 1.57-2.26 2.38-.84.77-1.75 1.53-2.66 2.3-1.98 1.42-4.17 2.91-6.73 3.78-2.42.93-5.12 1.43-7.72 1.43h-.26c-5.45 0-10.28-2.12-14.17-4.32-.32-.18-.61-.41-.91-.59l-.81 4.34-2.03-1.04-.03.25c-.57 2.23-1.09 4.53-1.83 6.55-.82 1.94-1.66 3.81-2.49 5.58-.45.77-.91 1.23-1.35 2.23h.3c.68 0 1.38.02 2.12.06 2.09.13 4.4.51 6.82 1.27 2.41.76 4.96 1.98 7.22 3.79 2.27 1.79 4.25 4.08 5.72 6.6 1.38 2.52 2.51 5.21 3.09 7.85.69 2.66 1.01 5.28 1.19 7.82.14 2.53.18 5.01.02 7.34-.2 4.71-.89 8.92-1.49 12.53-.36 1.8-.69 3.44-1 4.88.32.36.74.68 1.29.9 0 0 5.78.29 10.22 2.33l-.02.01c.61-.16 1.24-.24 1.88-.24 3.07 0 6.36 1.65 9.06 2.55l.7 3.61-34.63 6.06s-1.45-2.4-1.38-2.4l-.01.08s-2.17-3.98-1.15-6.27-1.6-7.11-1.6-7.11 2.16-1.42 4.85-2.79c.25-1.14.51-2.37.79-3.7.56-3.25 1.22-7.06 1.4-11.06.15-2.01.13-4.04.03-6.06-.12-2.02-.35-4.02-.83-5.86-.38-1.91-1.13-3.51-1.89-5.01-.78-1.33-1.7-2.41-2.73-3.3-1.74-1.11-3.94-1.56-6.34-1.56-8.02 0-18.39 5-22.18 6.98-1.08 3.46-2.47 7.32-4.41 11.39-1.23 2.44-2.54 4.96-4.53 7.47-1.96 2.44-4.53 5.15-8.69 6.59-1.3.46-2.77.69-4.21.69-.79 0-1.57-.07-2.32-.2-2.08-.38-4.02-1.17-5.48-2.12-1.65-.89-2.75-1.99-4.01-3.02-1.11-1.07-2.07-2.16-3.05-3.23l-2.5-3.2c-.74-1.07-1.4-2.13-2.07-3.16-1.36-2.05-2.34-4.04-3.41-5.85-1.23-2.4-2.29-4.53-3.14-6.33-.63.35-1.24.54-1.8.54-.52 0-1.01-.17-1.43-.56 0 0-.61-3.96-3.86-3.96-.05 0-.1.24-.16.25 0 0-5.37 2.37-10.25 2.37h-.03l.02-.26c-2.83 2.35-7.5 1.95-10.92 2.32l-2.14-3.06 28.96-20s2.29 1.47 2.22 1.52l.02-.02s3.65 2.75 3.68 5.25c.04 2.5 4.43 5.8 4.43 5.8s-.16.26-.45.69l.86 1.93c.86 2.07 2.24 4.9 3.93 8.26.93 1.58 1.82 3.43 2.96 5.15.56.86 1.13 1.76 1.72 2.67l1.91 2.53c.69.74 1.38 1.54 2.08 2.24.71.55 1.44 1.32 2.09 1.61.97.58 1.61.8 2.16.8.26 0 .5-.05.75-.13.86-.24 2.26-1.33 3.48-2.89 1.27-1.53 2.35-3.54 3.35-5.48 1.94-3.99 3.39-8.13 4.46-11.72.24-.78.45-1.53.66-2.26-1.19-1.86-1.93-4.42-1.93-7.25 0-5.49 2.78-9.96 6.27-10.23L120 140.9s.46-.44 1.28-1.24l1.492-1.41c.296-.27.606-.56.94-.87.25-.32.52-.65.8-1 .58-.69 1.2-1.44 1.865-2.23.45-.8.96-1.63 1.53-2.49.45-.85.7-1.71 1.17-2.6.12-.86.52-1.75.57-2.64.05-.88.19-1.78.02-2.69.04-.92-.35-1.84-.5-2.77-.4-.91-.59-1.85-1.12-2.7-.4-.88-.91-1.7-1.41-2.45-.06-.1-.13-.18-.2-.28l-13.18 3.11-1.11-7.64c-.94.04-1.88.11-2.82.26-2.37.33-4.65 1.1-6.12 2.22-.78.54-1.31 1.19-1.75 1.91-.49.68-.72 1.59-.96 2.49l-.22 1.46c-.02.53-.03 1.04-.04 1.54.07 1.05.09 2.05.29 3.03l.06.39c1.82-.29 3.05-.44 3.05-.44.29-.04.55-.06.8-.06 3.55 0 3.34 4.21 4.22 8.12.95 4.173-2.2 4.36-2.2 4.36s-.3 2.692-.83 3.38c-.83 1.06-3.46 2.16-4.75 2.55-1.63.49-6.79.59-6.79.59s.14 1.43-2.93 1.43c-.65 0-1.44-.07-2.4-.22-5.52-.88-3.27-14.44-3.27-14.44.16-1.13 2.01-2.11 4.47-2.92-.06-.38-.12-.77-.17-1.19-.24-1.32-.31-2.87-.36-4.5.03-.84.06-1.7.1-2.59.13-.91.23-1.84.44-2.8.49-1.91 1.13-3.96 2.37-5.84 1.18-1.88 2.77-3.61 4.56-4.85 3.6-2.58 7.52-3.59 10.91-4.06.97-.13 1.9-.22 2.8-.27l-.5-3.47c3.75-1.33 6.86-1.9 9.45-1.9 1.35 0 2.56.16 3.64.44-.69-1.93-1.08-4.19-1.084-6.85-.22.04-.46.07-.71.07-3.24 0-7.81-.864-7.81-8.35 0-3.93 1.9-7.22 4.46-8.11-1.84-3.65-4.624-10.43-2.492-14.692 0 0 .47-.713-.22-.713-.38 0-1.13.23-2.52.92 0 .01 6.6-17.77 31.09-17.77"/><path d="M191.582 206.102c-3.25-1.08-7.38-3.27-10.94-2.31h-.038v-.002l.02-.007c-4.434-2.04-10.21-2.338-10.21-2.338-.558-.23-.974-.545-1.29-.906.312-1.45.645-3.09 1.003-4.89.597-3.61 1.293-7.83 1.49-12.53.153-2.33.12-4.81-.02-7.34-.182-2.55-.497-5.17-1.187-7.82-.58-2.65-1.71-5.34-3.09-7.86-1.47-2.52-3.452-4.81-5.72-6.6-2.262-1.81-4.81-3.03-7.22-3.79-2.415-.77-4.727-1.14-6.814-1.28-3.644-.22-6.626.14-8.854.53l-2.453-3.6h-9.85c-1.16-1.59-2.68-2.55-4.34-2.55-3.64 0-6.59 4.59-6.59 10.25 0 2.79.72 5.33 1.89 7.18-.21.75-.44 1.53-.68 2.34-1.08 3.6-2.52 7.73-4.46 11.72-.99 1.94-2.08 3.95-3.34 5.48-1.22 1.56-2.61 2.65-3.47 2.89-.78.25-1.49.18-2.91-.67-.66-.29-1.38-1.05-2.09-1.61-.7-.7-1.39-1.5-2.08-2.24l-1.91-2.54-1.72-2.67c-1.13-1.71-2.03-3.58-2.96-5.16-1.69-3.36-3.07-6.19-3.93-8.26l-.84-1.9c.29-.45.46-.72.46-.72s-4.4-3.31-4.43-5.81c-.03-2.5-3.68-5.25-3.68-5.25l-.02.01c.07-.06-2.22-1.54-2.22-1.54l-28.94 20 2.14 2.99c3.41-.37 8.08-.1 10.92-2.45l-.03.02c4.89.01 10.27-2.13 10.27-2.13 3.38-.13 4.01 3.95 4.01 3.95.87.81 2 .69 3.22.03.85 1.8 1.91 3.93 3.14 6.31 1.06 1.8 2.05 3.79 3.41 5.84.68 1.02 1.33 2.09 2.08 3.15.81 1.05 1.64 2.14 2.48 3.23.98 1.07 1.94 2.16 3.05 3.23 1.26 1.03 2.35 2.12 4.01 3.02 1.45.94 3.4 1.73 5.48 2.11 2.11.38 4.51.23 6.53-.48 4.16-1.44 6.72-4.16 8.69-6.6 1.98-2.5 3.29-5.02 4.52-7.46 1.94-4.06 3.33-7.92 4.41-11.38 4.87-2.54 20.62-10.08 28.28-5.57 1.12.92 2.13 2.07 2.96 3.49.75 1.5 1.51 3.11 1.89 5.01.47 1.84.7 3.84.83 5.85.1 2.02.12 4.05-.03 6.06-.19 3.99-.84 7.81-1.4 11.05-.28 1.33-.54 2.56-.79 3.69-2.68 1.37-4.82 2.79-4.82 2.79s2.62 4.84 1.61 7.12c-1.01 2.28 1.16 6.3 1.16 6.3h.02c-.09.02 1.38 2.32 1.38 2.32l34.63-6.13-.7-3.61z"/><path fill="#F2C49C" d="M207.69 107.765c-1.69-5.332-3.46-4.213-3.46-4.213s-2.41-4.56-3.57-5.8c-.93-.98-3.09-2.837-4.41-3.09-.857-.17-3.4.77-3.4.77s-1.58-2.733-4.89-.012c-3.31 2.72-7.49 4.468-4.94 8.096h.025s1.45 2.187 3.425 4.812l-.243.55c-.334.8-.776 1.74-1.34 2.77-.53 1.05-1.154 2.22-1.924 3.4-.708 1.252-1.63 2.398-2.56 3.664-.503.566-1.028 1.144-1.554 1.738-.57.52-1.15 1.05-1.73 1.588-1.23.905-2.52 1.81-3.92 2.31-1.38.606-2.87.848-4.41.886-3.09.094-6.48-1.042-9.52-2.666-3.05-1.64-5.78-3.708-7.98-5.656-2.22-1.937-3.94-3.747-5.08-5.027l-1.29-1.49-.42-.505h-.02l.01-.03-7.16 5.44.53.7c.35.41.84 1.03 1.48 1.81 1.28 1.52 3.17 3.63 5.68 5.96s5.65 4.91 9.54 7.17c3.89 2.198 8.72 4.17 14.17 4.228 2.69.03 5.48-.38 7.98-1.34 2.56-.87 4.75-2.27 6.73-3.69.89-.77 1.82-1.53 2.66-2.3.78-.81 1.53-1.6 2.27-2.37 1.3-1.62 2.56-3.16 3.48-4.65 1.02-1.47 1.81-2.86 2.47-4.09l.01-.02c.74.434 1.39.623 1.9.453 0 .01 13.11-4.06 11.42-9.39zm-84.78 4.335l.05-.05v-.01l.002-.005c-.005 0-.017-.004-.035-.01l-.018.076zm1.79-10.23l-1.74-.35c-1.48-.27-3.58-.61-6.17-.8s-5.65-.27-9.09.21c-3.39.47-7.32 1.48-10.91 4.06-1.8 1.24-3.39 2.98-4.56 4.85-1.24 1.88-1.88 3.92-2.37 5.84-.2.96-.31 1.89-.44 2.8l-.11 2.59c.06 1.63.12 3.18.36 4.5.05.4.11.778.17 1.146-2.44.815-4.272 1.792-4.434 2.91 0 0-2.25 13.558 3.275 14.437 5.53.88 5.33-1.207 5.33-1.207s5.16-.1 6.79-.59c1.3-.39 3.92-1.49 4.75-2.556.54-.688.84-3.385.84-3.385s3.16-.185 2.21-4.36c-.94-4.178-.63-8.7-5.02-8.05h-.02s-1.24.15-3.06.437l-.06-.37c-.2-.98-.22-1.98-.29-3.03l.04-1.54.22-1.46c.24-.9.47-1.81.96-2.5.44-.72.97-1.37 1.75-1.91 1.47-1.13 3.75-1.89 6.12-2.23 2.37-.368 4.8-.348 6.88-.228 2.09.127 3.85.39 5.05.594 1.12.194 1.63.316 1.77.35l2.43-9.996-.66-.16z"/><path d="M155.833 118.877l-7.996-6.328c-.88-1.7-1.718-3.38-2.733-4.73-1.047-1.6-2.144-2.97-3.203-4.18-2.11-2.43-4.05-4.17-5.52-5.36-.68-.57-1.39-1.11-1.9-1.48l-.59-.41-3.77 5.07c-2.47-5.02-7.99-8.67-20.07-4.35l3.12 21.55 13.24-3.13c.06.08.12.16.18.25.5.75 1 1.57 1.41 2.45.52.85.72 1.79 1.11 2.7.15.94.54 1.86.5 2.78.18.91.03 1.82-.02 2.7-.04.89-.45 1.78-.57 2.64-.47.89-.72 1.75-1.17 2.61-.57.86-1.08 1.68-1.53 2.49-.66.79-1.29 1.55-1.87 2.24l-.8 1c-.33.3-.64.6-.94.87l-1.5 1.42c-.81.79-1.28 1.24-1.28 1.24l17.57 17.74 1.79-2.17 2.02-2.49c.39-.48.8-.99 1.23-1.53l1.25-1.94c.87-1.36 1.8-2.82 2.73-4.41.83-1.77 1.67-3.65 2.49-5.59.74-2.02 1.27-4.33 1.83-6.55l.03-.25 2.03 1.02 2.96-15.91zM133.88 96.4h-.01l.014.01.037-.05z" fill="#082031"/><path fill="#E2B593" d="M163.967 80.536c0 4.61.67 8.35 3.903 8.35s7.812-.865 7.812-8.35c0-4.614-2.623-8.356-5.854-8.356-3.24 0-5.86 3.742-5.86 8.356z"/><path fill="#C69C6D" d="M164.938 80.5c.014-1.29.28-2.76.914-4.012.32-.64.728-1.26 1.303-1.794.57-.523 1.388-.974 2.33-.984.357.033.285.003.62.072.274.057.507.138.69.228.4.176.73.428 1.03.685.568.534.28 1.153.6 1.794.64 1.28.21 2.66.21 4.04v.14c0 .9-.01 1.65-.92 1.66-.9.01-1.29-.72-1.29-1.62 0-.07.18-.14.18-.2.11-.92.12-1.91-.18-2.75-.28-.87-.8-1.42-.96-1.48-.09-.06-.33-.05-.66.17-.31.22-1.25.58-1.53 1-.55.89-1.62 1.87-1.62 3.07v.05c0 .53.09.92-.44.86-.5-.05-.238-.48-.238-.98l-.037.04v.01zm-14.265 23.187l-9.542 7.985-5.65-8.18"/><path fill="#E2B593" d="M125.226 80.536c0 4.61-.668 8.35-3.905 8.35-3.23 0-7.81-.865-7.81-8.35 0-4.614 2.63-8.356 5.86-8.356s5.86 3.742 5.86 8.356z"/><path fill="#C69C6D" d="M124.254 80.5c-.013-1.29-.28-2.76-.915-4.012-.32-.64-.73-1.26-1.3-1.794-.58-.523-1.39-.974-2.34-.984-.36.033-.29.003-.62.072-.28.057-.51.138-.69.228-.41.176-.73.428-1.03.685-.58.534-.76 1.153-1.08 1.794-.64 1.28-.68 2.66-.68 4.04v.14c0 .9.48 1.65 1.39 1.66.91.01 1.54-.72 1.55-1.62 0-.07-.07-.14-.07-.2-.1-.92-.05-1.91.24-2.75.27-.87.83-1.42.98-1.48.1-.06.35-.05.68.17.31.22.64.58.91 1 .55.89.87 1.87 1 3.07l.01.05c.05.53.53.92 1.06.86.5-.05.87-.48.87-.98l.03.04v.01z"/><path fill="#F2C49C" d="M167.645 88.785c0 16.41-15.77 17.827-22.805 17.827-8.007 0-22.803-1.417-22.803-17.827 0-16.415-1.698-37.484 22.803-37.484 24.74 0 22.805 21.07 22.805 37.49z"/><path fill="#333" d="M117.75 70.55l4.366 12.614 6.308-14.72m43.502 2.913l-4.152 11.807-6.31-14.72"/><path fill="#F5F5F5" d="M140.618 80.508c0 3.752-3.033 6.792-6.787 6.792-3.74 0-6.78-3.04-6.78-6.792 0-3.746 3.04-6.782 6.79-6.782 3.78 0 6.79 3.036 6.79 6.782h-.01z"/><circle fill="#333" cx="133.893" cy="80.349" r="4.712"/><path fill="#F5F5F5" d="M163.91 80.508c0 3.752-3.04 6.792-6.79 6.792s-6.79-3.04-6.79-6.792c0-3.746 3.04-6.782 6.79-6.782s6.79 3.036 6.79 6.782z"/><circle fill="#333" cx="157.182" cy="80.349" r="4.712"/><defs><path id="a" d="M147.62 78.38v12.707s-.422 2.185-3.576 3.153l.46-3.153-.546-12.82"/></defs><clipPath id="b"><use xlink:href="#a" overflow="visible"/></clipPath><path clip-path="url(#b)" fill="#FF585D" d="M144.62 92.38h3v3h-3v-3z"/><defs><path id="c" d="M147.62 78.38v12.707s-.422 2.185-3.576 3.153l.46-3.153-.546-12.82"/></defs><clipPath id="d"><use xlink:href="#c" overflow="visible"/></clipPath><path clip-path="url(#d)" fill="#FF595E" d="M144.62 91.38h3v1h-3v-1z"/><defs><path id="e" d="M147.62 78.38v12.707s-.422 2.185-3.576 3.153l.46-3.153-.546-12.82"/></defs><clipPath id="f"><use xlink:href="#e" overflow="visible"/></clipPath><path clip-path="url(#f)" fill="#FF5B5F" d="M144.62 88.38h3v3h-3v-3z"/><defs><path id="g" d="M147.62 78.38v12.707s-.422 2.185-3.576 3.153l.46-3.153-.546-12.82"/></defs><clipPath id="h"><use xlink:href="#g" overflow="visible"/></clipPath><path clip-path="url(#h)" fill="#FF5C60" d="M144.62 86.38h3v2h-3v-2z"/><defs><path id="i" d="M147.62 78.38v12.707s-.422 2.185-3.576 3.153l.46-3.153-.546-12.82"/></defs><clipPath id="j"><use xlink:href="#i" overflow="visible"/></clipPath><path clip-path="url(#j)" fill="#FF5E62" d="M144.62 83.38h3v3h-3v-3z"/><defs><path id="k" d="M147.62 78.38v12.707s-.422 2.185-3.576 3.153l.46-3.153-.546-12.82"/></defs><clipPath id="l"><use xlink:href="#k" overflow="visible"/></clipPath><path clip-path="url(#l)" fill="#FF5F63" d="M144.62 81.38h3v2h-3v-2z"/><defs><path id="m" d="M147.62 78.38v12.707s-.422 2.185-3.576 3.153l.46-3.153-.546-12.82"/></defs><clipPath id="n"><use xlink:href="#m" overflow="visible"/></clipPath><path clip-path="url(#n)" fill="#FF6064" d="M144.62 78.38h3v3h-3v-3z"/><path d="M141.91 92.834c-.825.262-1.275 1.138-1.016 1.958.21.663.823 1.085 1.485 1.085v-.008h-.02l-.01-.01c.16 0 .55-.02.7-.07 4.7-1.5 4.55-4.72 4.55-4.72V78.95c0-.86-.92-1.55-1.78-1.55s-1.78.694-1.78 1.557l.01 12.27c0 .32-.46 1.064-2.15 1.607zm11.684 2.446c-10.344 5.28-17.484.33-17.79.124-.69-.504-1.665-.35-2.17.348-.508.698-.35 1.67.343 2.178.237.172 4.094 2.9 10.21 2.9v-.01c3.087 0 6.753-.69 10.823-2.77.768-.39 1.073-1.32.678-2.09-.394-.77-1.33-1.07-2.094-.68zm21.81-34.99c0-2.82-1.595-11.563-10.967-11.22-.02-.45-.072-.884-.184-1.284-1.46-5.216-16.42-7.476-16.42-7.476-27.778-2.063-35.094 17.63-35.094 17.63 3.88-1.943 2.74-.203 2.74-.203-3.03 6.065 3.88 17.223 3.88 17.223l2.18-3.52.67-.083c.02.13.04.26.09.388.5 1.475 2.1 2.267 3.58 1.77l.47-.16 2.08-.697c.62-.27 1.43-.246 2.27-.416.83-.203 1.79-.035 2.73-.078.47-.026.94.092 1.41.144.47.062.93.132 1.38.202.87.233 1.73.37 2.41.63 1.42.43 2.21.847 2.27.862V74l-.04-.03c.74.43 1.7.17 2.12-.58.43-.74.18-1.69-.57-2.12.05.05-.96-.68-2.48-1.4-.75-.41-1.68-.72-2.67-1.14-.5-.18-1.04-.32-1.58-.48-.4-.11-.8-.232-1.21-.324 6.63-3.084 12.86-7.235 12.86-7.235l-7.12 7.27c10.31-.68 16.71-5.02 19.58-7.49.16 1.98.5 4.56 1.18 6.96-.39.01-.78.02-1.19.01-1.11-.06-2.27.27-3.43.42-.59.06-1.13.28-1.68.42-.54.17-1.08.31-1.59.48-.99.42-1.93.73-2.68 1.15-1.53.73-2.54 1.45-2.48 1.41h.02l.05.04c-.75.42-1.01 1.38-.58 2.12.42.75 1.38 1.01 2.12.58.06-.02.84-.44 2.26-.87.68-.26 1.54-.39 2.41-.63.45-.07.91-.14 1.38-.2.47-.05.94-.17 1.41-.15.94.05 1.89-.12 2.73.08.84.17 1.65.14 2.27.41l2.07.7.47.16c.12.04.25.07.38.09.7.13 1.37-.02 1.94-.35l3.91.73s4.61-10.81 4.61-13.72z" fill="#333"/></svg>