<?xml version="1.0" encoding="utf-8"?>
<!-- Generator: Adobe Illustrator 16.0.0, SVG Export Plug-In . SVG Version: 6.00 Build 0)  -->
<!DOCTYPE svg PUBLIC "-//W3C//DTD SVG 1.1//EN" "http://www.w3.org/Graphics/SVG/1.1/DTD/svg11.dtd">
<svg version="1.1" id="Layer_1" xmlns="http://www.w3.org/2000/svg" xmlns:xlink="http://www.w3.org/1999/xlink" x="0px" y="0px"
	 width="256px" height="256px" viewBox="0 0 256 256" enable-background="new 0 0 256 256" xml:space="preserve">
<path fill="#333333" d="M157.617,218.344c-0.842,0-1.641-0.426-2.104-1.15c-0.522-0.814-0.99-1.541-1.318-2.199
	c-0.063-0.088-0.119-0.18-0.174-0.276c-0.459-0.852-2.686-5.265-1.242-8.508c0.211-0.668-0.523-3.065-1.52-4.913
	c-0.615-1.14-0.26-2.563,0.82-3.275c0.08-0.054,1.764-1.16,4.027-2.383c0.166-0.779,0.34-1.609,0.52-2.47
	c0.563-3.26,1.189-6.92,1.368-10.739c0.13-1.75,0.14-3.58,0.03-5.83c-0.137-2.181-0.377-3.891-0.752-5.351
	c-0.012-0.05-0.022-0.09-0.03-0.14c-0.318-1.601-0.979-3.01-1.636-4.311c-0.553-0.939-1.219-1.75-2.03-2.48
	c-1.203-0.719-2.834-1.079-4.851-1.079c-6.979,0-16.289,4.3-20.115,6.22c-1.277,3.95-2.631,7.38-4.229,10.71
	c-1.428,2.82-2.76,5.33-4.82,7.94c-2.226,2.75-5.122,5.77-9.837,7.399c-1.524,0.54-3.267,0.82-5.025,0.82
	c-0.944,0-1.877-0.08-2.772-0.24c-2.278-0.42-4.514-1.28-6.312-2.43c-1.464-0.81-2.548-1.729-3.506-2.55
	c-0.268-0.23-0.536-0.461-0.812-0.69c-0.052-0.05-0.102-0.09-0.15-0.14c-0.957-0.92-1.793-1.84-2.602-2.73l-0.56-0.619
	c-0.05-0.061-0.097-0.111-0.142-0.171c0,0-2.518-3.29-2.538-3.319c-0.526-0.75-1.01-1.5-1.485-2.24c-0.21-0.33-0.41-0.65-0.63-0.971
	c-0.93-1.41-1.68-2.77-2.41-4.08c-0.35-0.649-0.7-1.27-1.06-1.879l-0.07-0.121c-0.85-1.659-1.6-3.129-2.24-4.449
	c-0.16,0.02-0.32,0.029-0.48,0.029c-1.18,0-2.26-0.42-3.13-1.229c-0.41-0.38-0.68-0.899-0.77-1.45c0,0-0.29-1.58-1.16-1.82
	c-1.46,0.53-5.65,1.91-9.81,2.08c-2.78,1.84-6.37,2.07-9.3,2.26c-0.75,0.051-1.48,0.101-2.16,0.171c-0.09,0.01-0.18,0.02-0.27,0.02
	c-0.8,0-1.55-0.39-2.03-1.04l-2.14-3c-0.39-0.55-0.55-1.229-0.43-1.89c0.11-0.66,0.49-1.25,1.04-1.63l28.93-19.9
	c0.43-0.3,0.93-0.439,1.42-0.439c0.47,0,0.94,0.13,1.36,0.399c1.08,0.69,1.82,1.171,2.33,1.58l0.06,0.04
	c0.78,0.58,4.63,3.66,4.67,7.21c0.09,0.69,1.76,2.57,3.44,3.841c0.89,0.67,1.21,1.829,0.85,2.84l0.34,0.76
	c0.75,1.81,1.93,4.279,3.84,8.07c0.34,0.58,0.67,1.189,1.02,1.819c0.58,1.06,1.17,2.149,1.84,3.149l1.69,2.621l1.78,2.359l0.7,0.76
	c0.38,0.42,0.76,0.83,1.14,1.221c0.22,0.18,0.44,0.38,0.67,0.57c0.25,0.219,0.63,0.56,0.78,0.64c0.09,0.04,0.16,0.079,0.25,0.13
	c0.68,0.41,0.91,0.449,0.92,0.449c0.28-0.129,1.23-0.789,2.22-2.06c1.19-1.44,2.21-3.38,3.09-5.079
	c1.58-3.24,2.99-6.951,4.29-11.301c0.12-0.41,0.24-0.811,0.35-1.21c-1.13-2.17-1.74-4.819-1.74-7.58c0-4.83,1.82-8.97,4.6-11.13
	c-0.14-0.32-0.21-0.66-0.2-1.01c0-0.67,0.28-1.301,0.76-1.771l1.27-1.229l1.52-1.44l0.81-0.75c0.22-0.28,0.45-0.569,0.69-0.86
	l1.75-2.1c0.43-0.75,0.91-1.54,1.43-2.33c0.16-0.31,0.28-0.63,0.42-0.96c0.14-0.36,0.31-0.76,0.51-1.18
	c0.07-0.36,0.17-0.7,0.25-1.01c0.1-0.36,0.2-0.73,0.22-0.96c0.01-0.22,0.03-0.44,0.04-0.66c0.04-0.56,0.08-1.05,0.01-1.41
	c-0.04-0.19-0.05-0.38-0.05-0.58c0.01-0.22-0.1-0.64-0.21-1.05c-0.08-0.3-0.15-0.6-0.21-0.9c-0.13-0.3-0.23-0.61-0.34-0.91
	c-0.17-0.48-0.31-0.89-0.5-1.19c-0.06-0.09-0.1-0.18-0.15-0.27c-0.14-0.3-0.29-0.6-0.48-0.93l-11.45,2.71
	c-0.19,0.04-0.39,0.06-0.58,0.06c-0.5,0-0.99-0.15-1.41-0.43c-0.58-0.39-0.97-1.01-1.07-1.71l-0.77-5.31l-0.3,0.05
	c-2.1,0.3-3.94,0.94-4.98,1.74c-0.03,0.02-0.06,0.05-0.1,0.07c-0.4,0.28-0.7,0.62-1.05,1.17l-0.08,0.12
	c-0.2,0.29-0.39,0.97-0.55,1.56l-0.17,1.16l-0.03,1.28l0.04,0.62l0.56-0.07c0.34-0.05,0.73-0.08,1.1-0.08c4.94,0,5.72,4.7,6.24,7.8
	c0.12,0.75,0.25,1.529,0.42,2.26c0.62,2.75-0.1,4.46-0.82,5.42c-0.48,0.641-1.03,1.07-1.57,1.359c-0.26,1.421-0.63,2.44-1.11,3.061
	c-1.62,2.08-5.82,3.36-6,3.42c-1.37,0.41-4.18,0.58-6.03,0.65c-0.95,0.97-2.43,1.46-4.4,1.46c-0.82,0-1.76-0.08-2.79-0.24
	c-1.54-0.25-2.86-1.08-3.82-2.42c-3.09-4.29-1.81-13.16-1.53-14.899c0.29-1.991,2.13-3.261,4.17-4.141
	c-0.16-1.21-0.21-2.52-0.27-3.96V121c0.03-0.84,0.07-1.71,0.11-2.6c0-0.09,0.01-0.17,0.02-0.257l0.09-0.65
	c0.1-0.74,0.21-1.5,0.38-2.32c0.53-2.1,1.26-4.46,2.73-6.694c1.36-2.17,3.23-4.15,5.23-5.53c3.26-2.35,7.19-3.82,11.99-4.49
	l0.29-0.04l-0.13-0.87c-0.17-1.18,0.51-2.31,1.63-2.71c3.82-1.36,7.28-2.05,10.3-2.05h0.34c-0.08-0.47-0.13-0.94-0.18-1.43
	c-5.59-0.61-8.64-4.37-8.64-10.76c0-3.73,1.45-7.11,3.74-9.07c-1.52-3.44-2.77-7.47-2.5-11.08c-0.43-0.09-0.84-0.29-1.19-0.6
	c-0.76-0.69-1.03-1.77-0.67-2.73c0.29-0.79,7.51-19.41,33.44-19.41c1.359,0,2.77,0.05,4.189,0.16c0.061,0,0.12,0.01,0.18,0.02
	c3.781,0.57,16.021,2.87,18.291,8.79c8.34,0.83,11.41,8.44,11.41,13.65c0,0.67,0,2.67-3.391,11.24c2.26,1.97,3.67,5.32,3.67,9.02
	c0,6.2-2.87,9.93-8.15,10.7c-0.99,10.46-8.449,16.69-21.27,17.72c0.359,0.65,0.71,1.32,1.05,1.97l7.57,5.99
	c0.66,0.53,1.01,1.35,0.94,2.19c0.739,0.48,1.439,0.89,2.129,1.26c2.9,1.55,5.66,2.37,7.971,2.37h0.279
	c1.391-0.03,2.521-0.25,3.48-0.67l0.17-0.07c1.03-0.37,2.051-1.07,3.17-1.89l1.54-1.41l1.4-1.57l0.53-0.72
	c0.68-0.9,1.319-1.75,1.789-2.6l0.09-0.15c0.74-1.12,1.341-2.27,1.781-3.15c0.359-0.66,0.67-1.27,0.949-1.88
	c-1.529-2.09-2.58-3.67-2.63-3.75c-3.44-4.89,0.97-8.1,3.61-10.02c0.609-0.44,1.25-0.91,1.82-1.38c1.43-1.18,2.879-1.77,4.31-1.77
	c1.12,0,2.069,0.36,2.81,0.87c0.82-0.24,1.75-0.45,2.49-0.45c0.26,0,0.5,0.02,0.73,0.07c2.569,0.49,5.609,3.69,5.74,3.83
	c0.979,1.04,2.389,3.47,3.279,5.09c1.8,0.56,3.25,2.53,4.311,5.89c0.469,1.48,0.319,3.03-0.44,4.49
	c-2.45,4.69-10.94,7.52-12.62,8.04c-0.33,0.11-0.73,0.18-1.141,0.18c-0.1,0-0.199-0.01-0.299-0.01c-0.451,0.77-0.98,1.61-1.58,2.49
	c-0.91,1.47-2.051,2.89-3.26,4.4l-0.361,0.44c-0.049,0.06-0.09,0.11-0.149,0.17l-2.26,2.38c-0.03,0.041-0.07,0.07-0.11,0.11
	c-0.72,0.66-1.48,1.3-2.21,1.92l-0.53,0.45c-0.05,0.04-0.109,0.08-0.16,0.12c-1.979,1.42-4.399,2.84-7.34,3.85
	c-2.56,0.979-5.52,1.33-8.57,1.33h-0.289c-4.35,0-8.7-1.01-13.23-3.26l-0.18,1.03c-0.141,0.77-0.641,1.47-1.35,1.819
	c-0.351,0.181-0.73,0.28-1.11,0.28c-0.101,0-0.2,0.01-0.3-0.01c-0.36,1.42-0.76,2.85-1.25,4.18l-0.041,0.109
	c-0.659,1.561-1.329,3.091-2.01,4.561c2,0.23,3.961,0.641,5.86,1.24c3.021,0.949,5.72,2.37,8.03,4.23
	c2.49,1.969,4.68,4.489,6.311,7.289c1.67,3.041,2.789,5.91,3.379,8.58c0.61,2.34,1.01,4.971,1.23,8.18
	c0.16,2.94,0.17,5.44,0.02,7.681c-0.199,4.84-0.93,9.239-1.52,12.771c-0.21,1.08-0.42,2.08-0.609,3.01
	c1.979,0.209,5.639,0.76,8.92,2.1c0.52-0.08,1.049-0.12,1.59-0.12c2.76,0,5.439,1.03,7.81,1.931c0.71,0.27,1.39,0.529,2.04,0.75
	c0.859,0.279,1.49,1.01,1.67,1.89l0.71,3.61c0.13,0.66-0.01,1.34-0.39,1.899c-0.381,0.56-0.971,0.931-1.631,1.05l-34.6,6.11
	c-0.14,0.021-0.279,0.03-0.43,0.03L157.617,218.344z"/>
<path fill="#333333" d="M143.832,40.156c1.284,0,2.616,0.05,4,0.152c0,0,14.957,2.262,16.415,7.476
	c0.11,0.397,0.16,0.83,0.185,1.275c0.189-0.01,0.369-0.01,0.539-0.01c8.9,0,10.44,8.46,10.44,11.23c0,1.99-2.149,7.66-3.521,11.06
	l0.041,0.01l-0.41,1.18c2.41,1.03,4.17,4.22,4.17,8c0,7.48-4.58,8.35-7.811,8.35c-0.08,0-0.15-0.02-0.23-0.02
	c-0.039,14.65-12.709,17.29-20.389,17.68l-1.921,1.6c0.921,1.29,1.7,2.83,2.511,4.39l8,6.32l-0.261,1.39c1.171,0.81,2.4,1.6,3.7,2.3
	c2.92,1.56,6.17,2.67,9.16,2.67c0.119,0,0.24,0,0.359-0.01c1.551-0.04,3.041-0.28,4.41-0.89c1.41-0.5,2.69-1.41,3.92-2.31
	c0.59-0.54,1.16-1.07,1.73-1.59c0.529-0.6,1.05-1.17,1.561-1.74c0.93-1.27,1.859-2.42,2.56-3.67c0.771-1.17,1.399-2.34,1.93-3.4
	c0.57-1.03,1.011-1.97,1.34-2.77l0.25-0.56c-1.97-2.63-3.42-4.81-3.42-4.81c-2.54-3.63,1.63-5.38,4.94-8.1
	c1.1-0.91,2.01-1.21,2.729-1.21c1.45,0,2.16,1.21,2.16,1.21s2.13-0.79,3.149-0.79c0.101,0,0.181,0.01,0.25,0.02
	c1.32,0.26,3.48,2.11,4.41,3.09c1.17,1.24,3.57,5.8,3.57,5.8s0.16-0.09,0.42-0.09c0.62,0,1.85,0.55,3.04,4.31
	c1.69,5.33-11.42,9.4-11.42,9.4c-0.13,0.04-0.26,0.06-0.409,0.06c-0.431,0-0.931-0.19-1.48-0.51l-0.02,0.03
	c-0.671,1.23-1.461,2.62-2.48,4.09c-0.92,1.49-2.18,3.03-3.48,4.65c-0.74,0.77-1.49,1.57-2.26,2.38c-0.84,0.77-1.75,1.53-2.66,2.301
	c-1.98,1.42-4.17,2.909-6.73,3.779c-2.42,0.93-5.119,1.43-7.719,1.43h-0.261c-5.45,0-10.28-2.119-14.17-4.319
	c-0.31-0.181-0.61-0.41-0.909-0.591l-0.811,4.341l-2.03-1.04l-0.03,0.25c-0.57,2.23-1.09,4.529-1.83,6.55
	c-0.819,1.94-1.66,3.81-2.49,5.58c-0.449,0.771-0.909,1.229-1.35,2.229h0.301c0.68,0,1.379,0.021,2.119,0.061
	c2.09,0.13,4.4,0.51,6.82,1.27c2.41,0.76,4.96,1.98,7.221,3.791c2.27,1.789,4.25,4.079,5.719,6.6c1.381,2.52,2.511,5.21,3.091,7.85
	c0.69,2.66,1.01,5.28,1.19,7.82c0.139,2.529,0.18,5.01,0.02,7.34c-0.2,4.71-0.891,8.92-1.49,12.529c-0.359,1.801-0.689,3.44-1,4.881
	c0.32,0.359,0.74,0.68,1.29,0.9c0,0,5.78,0.289,10.22,2.33l-0.02,0.01c0.609-0.16,1.24-0.24,1.88-0.24c3.069,0,6.36,1.65,9.06,2.55
	l0.7,3.61l-34.63,6.06c0,0-1.45-2.399-1.38-2.399l-0.011,0.08c0,0-2.17-3.98-1.149-6.271s-1.601-7.11-1.601-7.11
	s2.16-1.42,4.851-2.789c0.25-1.141,0.511-2.371,0.79-3.701c0.561-3.25,1.221-7.06,1.4-11.06c0.149-2.01,0.13-4.04,0.029-6.06
	c-0.119-2.021-0.35-4.021-0.83-5.86c-0.379-1.91-1.129-3.51-1.89-5.01c-0.771-1.33-1.7-2.41-2.729-3.3
	c-1.74-1.11-3.94-1.561-6.34-1.561c-8.021,0-18.391,5-22.181,6.98c-1.08,3.459-2.47,7.32-4.41,11.39c-1.23,2.44-2.54,4.96-4.53,7.47
	c-1.96,2.44-4.53,5.15-8.69,6.59c-1.3,0.461-2.77,0.69-4.21,0.69c-0.79,0-1.57-0.069-2.32-0.2c-2.08-0.38-4.02-1.17-5.48-2.119
	c-1.65-0.891-2.75-1.99-4.01-3.021c-1.11-1.07-2.07-2.16-3.05-3.229l-2.5-3.201c-0.74-1.069-1.4-2.129-2.07-3.16
	c-1.36-2.049-2.34-4.039-3.41-5.85c-1.23-2.4-2.29-4.529-3.14-6.33c-0.63,0.351-1.24,0.541-1.8,0.541c-0.52,0-1.01-0.171-1.43-0.561
	c0,0-0.61-3.96-3.86-3.96c-0.05,0-0.1,0.239-0.16,0.25c0,0-5.37,2.37-10.25,2.37h-0.03l0.02-0.26c-2.83,2.35-7.5,1.949-10.92,2.319
	l-2.14-3.06l28.96-20c0,0,2.29,1.47,2.22,1.529l0.02-0.02c0,0,3.65,2.75,3.68,5.25c0.04,2.5,4.43,5.8,4.43,5.8
	s-0.16,0.261-0.45,0.69l0.86,1.93c0.86,2.07,2.24,4.9,3.93,8.26c0.93,1.58,1.82,3.44,2.96,5.15c0.56,0.87,1.13,1.76,1.72,2.67
	l1.91,2.54c0.69,0.739,1.38,1.54,2.08,2.239c0.71,0.551,1.44,1.32,2.09,1.611c0.97,0.579,1.61,0.799,2.16,0.799
	c0.26,0,0.5-0.049,0.75-0.129c0.86-0.24,2.26-1.33,3.48-2.891c1.27-1.529,2.35-3.54,3.35-5.48c1.94-3.989,3.39-8.129,4.46-11.72
	c0.24-0.78,0.45-1.53,0.66-2.26c-1.19-1.86-1.93-4.42-1.93-7.25c0-5.49,2.78-9.96,6.27-10.229L120,140.9c0,0,0.46-0.44,1.28-1.24
	l1.492-1.41c0.296-0.27,0.606-0.561,0.94-0.87c0.25-0.319,0.52-0.649,0.8-1c0.58-0.69,1.2-1.44,1.865-2.229
	c0.45-0.801,0.96-1.631,1.53-2.49c0.45-0.85,0.7-1.71,1.17-2.6c0.12-0.86,0.521-1.75,0.569-2.641c0.051-0.88,0.19-1.78,0.021-2.69
	c0.04-0.92-0.351-1.84-0.5-2.77c-0.399-0.91-0.59-1.85-1.12-2.7c-0.4-0.88-0.91-1.7-1.41-2.45c-0.06-0.1-0.13-0.18-0.2-0.28
	l-13.18,3.11l-1.11-7.64c-0.94,0.04-1.88,0.11-2.82,0.26c-2.37,0.33-4.65,1.1-6.12,2.22c-0.78,0.54-1.31,1.19-1.75,1.91
	c-0.49,0.68-0.72,1.59-0.96,2.49l-0.22,1.46c-0.02,0.53-0.03,1.04-0.04,1.54c0.07,1.05,0.09,2.05,0.29,3.03l0.06,0.39
	c1.82-0.29,3.05-0.44,3.05-0.44c0.29-0.04,0.55-0.06,0.8-0.06c3.55,0,3.34,4.21,4.22,8.12c0.95,4.173-2.2,4.36-2.2,4.36
	s-0.3,2.692-0.83,3.38c-0.83,1.06-3.46,2.16-4.75,2.55c-1.63,0.49-6.79,0.59-6.79,0.59s0.14,1.431-2.93,1.431
	c-0.65,0-1.44-0.07-2.4-0.221c-5.52-0.88-3.27-14.439-3.27-14.439c0.16-1.13,2.01-2.11,4.47-2.92c-0.06-0.38-0.12-0.77-0.17-1.19
	c-0.24-1.32-0.31-2.87-0.36-4.5c0.03-0.84,0.06-1.7,0.1-2.59c0.13-0.91,0.23-1.84,0.44-2.8c0.49-1.91,1.13-3.96,2.37-5.84
	c1.18-1.88,2.77-3.61,4.56-4.85c3.6-2.58,7.52-3.59,10.91-4.06c0.97-0.13,1.9-0.22,2.8-0.27l-0.5-3.47c3.75-1.33,6.86-1.9,9.45-1.9
	c1.35,0,2.56,0.16,3.64,0.44c-0.69-1.93-1.08-4.19-1.084-6.85c-0.22,0.04-0.46,0.07-0.71,0.07c-3.24,0-7.81-0.867-7.81-8.35
	c0-3.93,1.9-7.22,4.46-8.11c-1.84-3.65-4.624-10.43-2.492-14.695c0,0,0.47-0.713-0.22-0.713c-0.38,0-1.13,0.23-2.52,0.92
	c0,0.01,6.6-17.77,31.09-17.77"/>
<path fill="#333333" d="M105.611,118.17l0.07-0.11c0.21-0.34,0.31-0.41,0.35-0.44c0.07-0.05,0.14-0.09,0.2-0.14
	c0.32-0.24,0.9-0.52,1.67-0.77l0.38,2.67c0.02,0.14,0.05,0.29,0.09,0.43c-0.9-0.49-1.9-0.81-2.97-0.922
	c0.07-0.26,0.15-0.56,0.21-0.71V118.17z"/>
<path fill="#333333" d="M212.521,106.269c-1.16-3.67-2.82-6.05-4.94-7.13c-1-1.76-2.229-3.75-3.21-4.8
	c-0.62-0.66-3.859-3.95-7.109-4.58c-0.351-0.07-0.761-0.11-1.181-0.11c-0.67,0-1.42,0.11-2.149,0.28c-0.91-0.43-1.971-0.7-3.141-0.7
	c-2.029,0-4.02,0.79-5.91,2.34c-0.51,0.42-1.09,0.84-1.699,1.29c-1.66,1.21-3.381,2.47-4.561,4.3c-1.83,2.85-1.689,6.2,0.37,9.18
	c0.159,0.24,0.81,1.21,1.78,2.56c-0.061,0.12-0.121,0.23-0.19,0.35l-0.09,0.16c-0.431,0.87-0.97,1.89-1.63,2.9
	c-0.061,0.09-0.12,0.19-0.18,0.29c-0.4,0.7-0.961,1.45-1.61,2.33l-0.48,0.63l-0.6,0.68l-0.63,0.71l-1.32,1.21l-0.02,0.02
	c-0.891,0.64-1.73,1.22-2.42,1.46c-0.11,0.04-0.221,0.08-0.33,0.13c-0.65,0.29-1.48,0.44-2.521,0.46l-0.239,0.01
	c-1.871,0-4.291-0.74-6.801-2.08c-0.311-0.17-0.63-0.35-0.949-0.54c-0.271-1.03-0.871-1.97-1.74-2.66l-5.25-4.16
	c10.51-2.1,17.029-8.23,18.59-17.49c5.33-1.54,8.4-6.08,8.4-12.77c0-3.77-1.201-7.18-3.25-9.62c2.969-7.74,2.969-9.74,2.969-10.64
	c0-5.87-3.33-14.31-12.25-15.95c-1.75-2.95-5.379-5.21-11.189-7.01c-4.23-1.31-8.23-1.92-8.391-1.95
	c-0.129-0.02-0.25-0.03-0.379-0.04c-1.471-0.11-2.94-0.16-4.371-0.16l0.011-0.047c-27.64,0-35.46,20.18-35.78,21.038
	c-0.71,1.93-0.18,4.1,1.35,5.47c0.11,0.1,0.22,0.19,0.34,0.28c0.1,3.01,0.96,6.12,2.07,8.95c-2.06,2.44-3.29,5.87-3.29,9.65
	c0,4.67,1.5,8.284,4.21,10.57c-1.4,0.34-2.86,0.78-4.36,1.32c-1.72,0.61-2.92,2.09-3.24,3.81c-4.33,0.83-8,2.345-11.17,4.61
	c-2.28,1.584-4.31,3.74-5.88,6.24c-1.66,2.53-2.46,5.114-3.01,7.313c-0.01,0.06-0.03,0.12-0.04,0.18c-0.2,0.91-0.31,1.76-0.42,2.51
	l-0.09,0.63c-0.02,0.17-0.04,0.34-0.05,0.51c-0.04,0.897-0.07,1.77-0.1,2.61v0.37c0.03,0.84,0.06,1.64,0.12,2.41
	c-1.83,1.08-3.6,2.73-3.99,5.237c-0.32,1.93-0.99,7.08-0.06,11.68l-0.57-0.369c-0.83-0.541-1.77-0.801-2.71-0.801
	c-1,0-1.99,0.29-2.84,0.881l-28.99,20c-1.1,0.764-1.85,1.939-2.08,3.26c-0.23,1.319,0.08,2.68,0.86,3.77l2.15,3
	c0.94,1.311,2.46,2.08,4.06,2.08c0.18,0,0.36-0.01,0.54-0.03c0.6-0.069,1.31-0.11,2.05-0.159c3.05-0.201,6.74-0.431,9.93-2.301
	c3.02-0.21,5.93-0.93,7.92-1.54c0.26,0.79,0.73,1.513,1.35,2.091c1.07,0.989,2.34,1.604,3.73,1.819c0.48,0.97,1.01,2.021,1.6,3.149
	c0.05,0.084,0.09,0.166,0.14,0.25c0.35,0.586,0.68,1.193,1.03,1.816c0.72,1.29,1.52,2.75,2.53,4.26c0.19,0.291,0.4,0.61,0.6,0.931
	c0.48,0.743,0.98,1.515,1.54,2.319l0.12,0.17l0.32,0.42l2.16,2.816c0.09,0.113,0.18,0.23,0.28,0.34l0.55,0.603
	c0.83,0.92,1.7,1.87,2.72,2.84c0.1,0.101,0.2,0.19,0.3,0.271l0.77,0.649c0.98,0.84,2.2,1.89,3.85,2.8
	c2.05,1.301,4.58,2.271,7.14,2.73c1.04,0.189,2.13,0.29,3.22,0.29c2.04,0,4.07-0.33,5.87-0.97c5.31-1.841,8.63-5.33,10.92-8.166
	c2.23-2.819,3.68-5.56,5.09-8.35l0.05-0.1c1.51-3.15,2.8-6.381,4.02-10.021c4.08-1.989,12.1-5.5,18.06-5.5
	c1.42,0,2.57,0.21,3.37,0.62c0.511,0.49,0.94,1.03,1.31,1.63c0.591,1.17,1.131,2.33,1.381,3.591l0.06,0.27
	c0.33,1.279,0.55,2.88,0.681,4.88c0.1,2.13,0.09,3.851-0.03,5.41c-0.011,0.05,0.21,0.09,0.21,0.14c-0.17,3.65-1.1,7.21-1.1,10.35
	v0.011c-1,0.46-0.41,0.899-0.5,1.34c-1.841,1.03-3.23,1.88-3.311,1.93c-2.16,1.431-2.93,4.28-1.689,6.56
	c0.56,1.051,1.08,2.521,1.189,3.24c-1.46,4.09,0.77,8.78,1.529,10.17c0.011,0.021,0.011,0.051,0.031,0.07
	c0.06,0.131,0.129,0.271,0.209,0.41c0.15,0.26,0.351,0.6,0.561,0.939c0.38,0.61,0.77,1.221,0.77,1.221c0.93,1.45,2.53,2.3,4.211,2.3
	c0.289,0,0.58-0.03,0.869-0.08l34.631-6.13c1.319-0.23,2.489-0.99,3.25-2.09c0.76-1.1,1.039-2.471,0.789-3.78l-0.709-3.61
	c-0.341-1.77-1.621-3.22-3.33-3.789c-0.57-0.19-1.23-0.44-1.931-0.711c-2.45-0.93-5.489-2.09-8.71-2.09
	c-0.43,0-0.85,0.021-1.26,0.07c-2.17-0.82-4.4-1.33-6.26-1.65l0.06-0.33l0.03-0.149c0.6-3.59,1.34-8.05,1.56-13.08
	c0.15-2.319,0.15-4.899-0.021-7.88v-0.08c-0.229-3.33-0.649-6.08-1.31-8.641c-0.64-2.879-1.84-5.93-3.569-9.09l-0.061-0.129
	c-1.79-3.061-4.189-5.83-6.93-8c-2.52-2.031-5.5-3.601-8.82-4.641c-0.98-0.32-1.98-0.58-3-0.8c0.24-0.54,0.471-1.091,0.71-1.64
	l0.091-0.221c0.34-0.92,0.629-1.869,0.899-2.82c0.18-0.06,0.36-0.14,0.53-0.22c0.75-0.37,1.38-0.819,1.85-1.489
	c3.99,1.649,7.87,2.609,11.77,2.609h0.311c3.33,0,6.59-0.66,9.42-1.73c3.23-1.109,5.82-2.85,7.939-4.369
	c0.101-0.08,0.211-0.18,0.311-0.271l0.53-0.46c0.75-0.63,1.54-1.3,2.29-2c0.08-0.07,0.15-0.15,0.229-0.22l0.97-1.021
	c0.431-0.459,0.86-0.91,1.28-1.35c0.11-0.109,0.2-0.221,0.3-0.34l0.351-0.44c1.19-1.479,2.42-3.01,3.399-4.6
	c0.34-0.5,0.65-0.98,0.95-1.45c0.25-0.05,0.511-0.11,0.761-0.19c2.629-0.82,11.229-3.86,14.06-9.26
	C212.98,110.619,213.191,108.399,212.521,106.269z M124.701,125.44l-0.05,0.66c-0.02,0.11-0.08,0.34-0.13,0.51
	c-0.07,0.26-0.16,0.55-0.23,0.88c-0.17,0.38-0.32,0.729-0.44,1.04c-0.11,0.25-0.2,0.479-0.29,0.67c-0.47,0.72-0.91,1.43-1.31,2.13
	l-0.86,1.02l-0.72,0.86l-0.06,0.06l-0.59,0.74l-0.17,0.16l-0.47,0.43l-0.05,0.051c-0.58,0.55-1.09,1.029-1.51,1.439
	c-0.83,0.811-1.43,1.26-1.43,1.26c-0.96,0.931-1.66,2.2-1.66,3.541v0.129c-2,2.771-4.26,7.11-4.26,12.041
	c0,2.77,0.62,5.459,1.64,7.789c-0.03,0.09-0.02,0.18-0.05,0.271c-1.26,4.2-2.6,7.771-4.13,10.924c-0.87,1.69-1.79,3.403-2.72,4.535
	l-0.08,0.101c-0.17,0.219-0.33,0.409-0.49,0.579c-0.03-0.02-0.05-0.05-0.08-0.069c-0.2-0.181-0.41-0.36-0.62-0.53
	c-0.31-0.31-0.63-0.67-0.98-1.05l-0.63-0.69l-0.63-0.83l-1.01-1.35l-1.36-2.11l-0.26-0.4l-0.03-0.05c-0.6-0.899-1.17-1.95-1.72-2.96
	c-0.33-0.6-0.66-1.22-1.01-1.82c-1.86-3.689-3.01-6.1-3.72-7.799c-0.01-0.031-0.02-0.061-0.04-0.091l-0.01-0.03
	c0.2-1.72-0.49-3.479-1.96-4.58c-0.95-0.729-2.06-1.84-2.46-2.449c-0.04-0.521-0.14-1.03-0.28-1.521l0.18,0.03
	c1.18,0.189,2.22,0.279,3.18,0.279c2.2,0,4-0.51,5.37-1.5c2.03-0.1,4.39-0.31,5.78-0.719c0.86-0.261,5.24-1.681,7.26-4.281
	c0.28-0.359,0.89-1.139,1.37-3.09c0.48-0.379,0.94-0.83,1.34-1.359c1.04-1.38,2.1-3.801,1.26-7.471
	c-0.15-0.659-0.26-1.369-0.39-2.119c-0.29-1.78-0.6-3.61-1.42-5.3c0.49,0.15,1,0.23,1.52,0.23l-0.06,0.031
	c0.38,0,0.77-0.04,1.15-0.13l9.53-2.25l0.12,0.33c0.09,0.24,0.18,0.52,0.3,0.81c0.07,0.3,0.14,0.57,0.2,0.81
	c0.04,0.16,0.1,0.38,0.12,0.5c0,0.31,0.03,0.63,0.09,0.93C124.751,124.803,124.721,125.17,124.701,125.44z"/>
<path fill="#F2C49C" d="M183.045,103.516c0,0,9.79,14.787,13.223,13.646c0,0,13.109-4.068,11.422-9.397
	c-1.69-5.332-3.461-4.213-3.461-4.213s-2.41-4.56-3.569-5.8c-0.931-0.98-3.091-2.837-4.41-3.09c-0.86-0.17-3.399,0.77-3.399,0.77
	s-1.58-2.733-4.891-0.012c-3.311,2.72-7.49,4.468-4.939,8.096H183.045z"/>
<path fill="#F2C49C" d="M144.512,109.89l0.413,0.505l1.29,1.49c1.145,1.28,2.866,3.09,5.08,5.027c2.2,1.948,4.926,4.017,7.975,5.656
	c3.041,1.624,6.431,2.76,9.521,2.666c1.544-0.038,3.032-0.28,4.41-0.886c1.405-0.5,2.687-1.405,3.92-2.31
	c0.584-0.538,1.159-1.068,1.728-1.588c0.526-0.594,1.049-1.172,1.553-1.738c0.93-1.266,1.852-2.412,2.56-3.663
	c0.771-1.18,1.392-2.35,1.924-3.4c0.563-1.03,1.005-1.97,1.341-2.77l1.092-2.48l10.066,4.29c0,0-0.494,1.02-1.354,2.83
	c-0.404,0.9-0.955,1.98-1.67,3.21c-0.67,1.23-1.459,2.62-2.476,4.09c-0.918,1.49-2.178,3.03-3.477,4.65
	c-0.738,0.771-1.49,1.56-2.263,2.37c-0.84,0.771-1.756,1.53-2.664,2.3c-1.979,1.42-4.17,2.82-6.729,3.69
	c-2.5,0.96-5.29,1.37-7.979,1.34c-5.451-0.06-10.28-2.03-14.17-4.229c-3.891-2.26-7.031-4.84-9.541-7.17s-4.399-4.44-5.689-5.96
	c-0.641-0.78-1.13-1.4-1.48-1.81l-0.529-0.7l7.16-5.44L144.512,109.89z"/>
<path fill="#082031" d="M155.833,118.877l-2.953,15.906l-9.313-4.708l1.068-20.06L155.833,118.877z"/>
<path fill="#F2C49C" d="M122.962,112.035c-0.04-0.01-0.54-0.137-1.8-0.357c-1.2-0.205-2.964-0.467-5.05-0.594
	c-2.082-0.12-4.514-0.14-6.883,0.227c-2.37,0.34-4.65,1.1-6.12,2.23c-0.78,0.54-1.31,1.19-1.75,1.91c-0.49,0.69-0.72,1.6-0.96,2.5
	l-0.22,1.46l-0.04,1.54c0.07,1.05,0.09,2.05,0.29,3.03c0.12,0.96,0.32,1.87,0.53,2.68c0.17,0.81,0.37,1.51,0.57,2.1l0.56,1.851
	l-10.38,3.46l-0.67-2.261c-0.23-0.709-0.47-1.6-0.69-2.66c-0.26-1.029-0.5-2.219-0.68-3.589c-0.24-1.32-0.3-2.87-0.36-4.5l0.11-2.59
	c0.13-0.91,0.24-1.84,0.44-2.8c0.49-1.92,1.13-3.96,2.37-5.84c1.17-1.87,2.76-3.61,4.56-4.85c3.59-2.58,7.52-3.59,10.91-4.06
	c3.44-0.48,6.5-0.4,9.09-0.21s4.69,0.53,6.17,0.8l1.74,0.35l0.66,0.16l-2.45,10.07L122.962,112.035z"/>
<path d="M130.37,152.34l-0.75,3.742c-0.509,2.34-1.288,5.654-2.45,9.605c-1.165,3.957-2.698,8.551-5.04,13.438
	c-1.233,2.438-2.544,4.962-4.527,7.467c-1.968,2.438-4.53,5.153-8.693,6.594c-2.026,0.715-4.422,0.864-6.536,0.482
	c-2.08-0.378-4.024-1.17-5.48-2.115c-1.655-0.894-2.75-1.984-4.01-3.018c-1.112-1.07-2.07-2.157-3.055-3.23
	c-0.84-1.092-1.67-2.177-2.48-3.229c-0.75-1.064-1.4-2.126-2.08-3.152c-1.36-2.048-2.35-4.038-3.41-5.847
	c-1.89-3.667-3.39-6.734-4.32-8.908c-0.97-2.16-1.52-3.398-1.52-3.398l10.4-4.406c0,0,0.52,1.162,1.41,3.197
	c0.86,2.07,2.24,4.9,3.93,8.26c0.93,1.58,1.83,3.451,2.96,5.16l1.72,2.67l1.91,2.541c0.69,0.74,1.38,1.539,2.08,2.24
	c0.71,0.56,1.43,1.319,2.09,1.609c1.42,0.85,2.13,0.92,2.91,0.67c0.86-0.24,2.25-1.33,3.47-2.891c1.26-1.529,2.35-3.539,3.34-5.479
	c1.94-3.989,3.38-8.12,4.46-11.72c1.08-3.6,1.82-6.68,2.3-8.82l0.69-3.34l10.61,1.92L130.37,152.34z"/>
<path d="M134.076,150.098c0,0,0.359-0.105,1.029-0.306c0.638-0.181,1.535-0.408,2.685-0.64c2.298-0.448,5.604-0.944,9.776-0.7
	c2.088,0.134,4.4,0.51,6.817,1.274c2.41,0.76,4.957,1.976,7.22,3.789c2.265,1.791,4.248,4.082,5.717,6.599
	c1.38,2.522,2.51,5.207,3.09,7.854c0.689,2.655,1.005,5.276,1.186,7.82c0.139,2.53,0.174,5.01,0.02,7.336
	c-0.198,4.706-0.893,8.92-1.49,12.53c-0.71,3.557-1.323,6.514-1.867,8.537c-0.502,2.039-0.792,3.209-0.792,3.209l-10.909-2.939
	l0.756-2.98c0.526-1.89,1.1-4.609,1.781-7.869c0.559-3.24,1.215-7.061,1.4-11.051c0.15-2.01,0.128-4.039,0.029-6.06
	c-0.125-2.01-0.355-4.01-0.828-5.851c-0.379-1.899-1.133-3.51-1.889-5.01c-0.832-1.43-1.846-2.58-2.971-3.5
	c-2.24-1.85-5.25-2.6-8.006-2.819c-2.785-0.181-5.275,0.14-6.95,0.47c-0.842,0.16-1.493,0.32-1.903,0.439l-0.57,0.17l-3.33-10.25
	V150.098z"/>
<path d="M61.23,164.877l-0.022,0.018c4.888,0.008,10.27-2.127,10.27-2.127c3.387-0.129,4.017,3.957,4.017,3.957
	c3.71,3.438,11.96-9.789,11.96-9.789s-4.394-3.305-4.428-5.806c-0.028-2.5-3.675-5.25-3.675-5.25l-0.015,0.013
	c0.07-0.061-2.22-1.539-2.22-1.539L48.16,164.33l2.148,2.993c3.416-0.37,8.084-0.099,10.92-2.447L61.23,164.877z"/>
<path d="M180.604,203.79l0.021-0.007c-4.436-2.04-10.214-2.338-10.214-2.338c-3.13-1.287-2-5.268-2-5.268
	c-1.931-4.664-14.94,3.928-14.94,3.928s2.62,4.834,1.61,7.121c-1.011,2.281,1.16,6.299,1.16,6.299l0.021-0.008
	c-0.091,0.028,1.379,2.325,1.379,2.325l34.631-6.13l-0.701-3.609c-3.25-1.082-7.379-3.271-10.939-2.313H180.604z"/>
<path fill="#F2C49C" d="M103.554,123.916c0,0-17.63,2.13-18.148,5.71c0,0-2.25,13.558,3.275,14.437
	c5.53,0.879,5.33-1.207,5.33-1.207s5.16-0.101,6.79-0.59c1.3-0.389,3.92-1.49,4.75-2.556c0.54-0.688,0.84-3.385,0.84-3.385
	s3.16-0.185,2.21-4.36c-0.94-4.178-0.63-8.7-5.02-8.05L103.554,123.916z"/>
<path d="M128.666,153.085c0,5.663-2.946,10.258-6.588,10.258c-3.64,0-6.59-4.595-6.59-10.258c0-5.658,2.95-10.253,6.59-10.253
	C125.72,142.832,128.666,147.427,128.666,153.085z"/>
<path d="M125.064,168.54c0,0,25.223-14.36,32.234-4.065l-3.84-10.67l-31.38,2.529L125.064,168.54L125.064,168.54z"/>
<polygon points="124.187,145.38 123.993,158.03 131.005,162.702 145.609,159.104 136.259,145.381 "/>
<path fill="#082031" d="M133.87,96.4c0,0,0.21,0.146,0.601,0.413c0.506,0.367,1.219,0.91,1.901,1.474
	c1.474,1.19,3.41,2.934,5.528,5.36c1.06,1.207,2.156,2.576,3.203,4.177c1.129,1.506,2.035,3.41,3.029,5.293
	c0.809,2.043,1.76,4.102,2.219,6.465c0.66,2.29,0.869,4.724,0.989,7.187c0.13,2.44-0.26,4.86-0.521,7.24
	c-0.559,2.22-1.09,4.53-1.829,6.55c-0.82,1.94-1.66,3.82-2.49,5.59c-0.931,1.591-1.86,3.051-2.729,4.41l-1.25,1.94
	c-0.431,0.54-0.84,1.05-1.23,1.53l-2.029,2.49l-1.791,2.17l-17.57-17.74c0,0,0.47-0.45,1.28-1.24l1.5-1.42
	c0.3-0.27,0.61-0.561,0.94-0.87l0.8-1c0.58-0.69,1.21-1.45,1.87-2.239c0.45-0.811,0.96-1.631,1.53-2.49
	c0.45-0.86,0.701-1.721,1.17-2.61c0.12-0.86,0.521-1.75,0.569-2.64c0.051-0.88,0.201-1.79,0.021-2.7c0.04-0.92-0.351-1.84-0.5-2.78
	c-0.39-0.91-0.59-1.85-1.11-2.7c-0.41-0.88-0.91-1.7-1.41-2.45c-1-1.5-2.03-2.71-2.74-3.45l-0.68-0.72
	c-0.09-0.12-0.4-0.36-0.35-0.32l11.12-14.96L133.87,96.4z"/>
<path fill="#E2B593" d="M163.967,80.536c0,4.61,0.67,8.35,3.903,8.35s7.812-0.865,7.812-8.35c0-4.614-2.623-8.356-5.854-8.356
	C166.589,72.18,163.967,75.922,163.967,80.536z"/>
<path fill="#C69C6D" d="M164.938,80.5c0.012-1.29,0.279-2.76,0.914-4.012c0.32-0.64,0.726-1.26,1.303-1.794
	c0.57-0.523,1.386-0.974,2.33-0.984c0.357,0.033,0.285,0.003,0.619,0.072c0.275,0.057,0.508,0.138,0.688,0.228
	c0.4,0.176,0.73,0.428,1.029,0.685c0.57,0.534,0.281,1.153,0.601,1.794c0.64,1.28,0.21,2.66,0.21,4.04v0.15
	c0,0.9-0.01,1.65-0.92,1.66c-0.9,0.01-1.29-0.72-1.29-1.62c0-0.07,0.181-0.14,0.181-0.2c0.109-0.92,0.119-1.91-0.181-2.75
	c-0.28-0.87-0.8-1.42-0.96-1.48c-0.09-0.06-0.33-0.05-0.66,0.17c-0.31,0.22-1.25,0.58-1.529,1c-0.551,0.89-1.621,1.87-1.621,3.07
	v0.05c0,0.53,0.091,0.92-0.439,0.86c-0.5-0.05-0.24-0.48-0.24-0.98L164.938,80.5z M150.673,103.687l-9.542,7.985l-5.65-8.18"/>
<path fill="#E2B593" d="M125.226,80.536c0,4.61-0.668,8.35-3.905,8.35c-3.23,0-7.81-0.865-7.81-8.35c0-4.614,2.63-8.356,5.86-8.356
	s5.86,3.742,5.86,8.356H125.226z"/>
<path fill="#C69C6D" d="M124.254,80.5c-0.013-1.29-0.28-2.76-0.915-4.012c-0.32-0.64-0.73-1.26-1.3-1.794
	c-0.58-0.523-1.39-0.974-2.34-0.984c-0.36,0.033-0.29,0.003-0.62,0.072c-0.28,0.057-0.51,0.138-0.69,0.228
	c-0.41,0.176-0.73,0.428-1.03,0.685c-0.58,0.534-0.76,1.153-1.08,1.794c-0.64,1.28-0.68,2.66-0.68,4.04v0.15
	c0,0.9,0.48,1.65,1.39,1.66c0.91,0.01,1.54-0.72,1.55-1.62c0-0.07-0.07-0.14-0.07-0.2c-0.1-0.92-0.05-1.91,0.24-2.75
	c0.27-0.87,0.83-1.42,0.98-1.48c0.1-0.06,0.35-0.05,0.68,0.17c0.31,0.22,0.64,0.58,0.91,1c0.55,0.89,0.87,1.87,1,3.07l0.01,0.05
	c0.05,0.53,0.53,0.92,1.06,0.86c0.5-0.05,0.87-0.48,0.87-0.98L124.254,80.5z"/>
<path fill="#F2C49C" d="M167.645,88.785c0,16.41-15.771,17.827-22.805,17.827c-8.007,0-22.803-1.417-22.803-17.827
	c0-16.415-1.698-37.484,22.803-37.484c24.74,0,22.805,21.07,22.805,37.49V88.785z"/>
<path fill="#333333" d="M117.75,70.55l4.366,12.614l6.308-14.72 M171.926,71.357l-4.152,11.807l-6.31-14.72"/>
<path fill="#F5F5F5" d="M140.618,80.508c0,3.752-3.033,6.792-6.787,6.792c-3.74,0-6.78-3.04-6.78-6.792
	c0-3.746,3.04-6.782,6.79-6.782c3.761,0,6.79,3.036,6.79,6.782H140.618z"/>
<circle fill="#333333" cx="133.893" cy="80.349" r="4.712"/>
<path fill="#F5F5F5" d="M163.91,80.508c0,3.752-3.04,6.792-6.79,6.792s-6.79-3.04-6.79-6.792c0-3.746,3.04-6.782,6.79-6.782
	S163.91,76.762,163.91,80.508z"/>
<circle fill="#333333" cx="157.182" cy="80.349" r="4.712"/>
<g>
	<defs>
		<path id="SVGID_1_" d="M147.62,78.38v12.707c0,0-0.422,2.185-3.576,3.153l0.46-3.153l-0.546-12.82"/>
	</defs>
	<clipPath id="SVGID_2_">
		<use xlink:href="#SVGID_1_"  overflow="visible"/>
	</clipPath>
	<path clip-path="url(#SVGID_2_)" fill="#FF585D" d="M144.62,92.38h3v3h-3V92.38z"/>
</g>
<g>
	<defs>
		<path id="SVGID_3_" d="M147.62,78.38v12.707c0,0-0.422,2.185-3.576,3.153l0.46-3.153l-0.546-12.82"/>
	</defs>
	<clipPath id="SVGID_4_">
		<use xlink:href="#SVGID_3_"  overflow="visible"/>
	</clipPath>
	<path clip-path="url(#SVGID_4_)" fill="#FF595E" d="M144.62,91.38h3v1h-3V91.38z"/>
</g>
<g>
	<defs>
		<path id="SVGID_5_" d="M147.62,78.38v12.707c0,0-0.422,2.185-3.576,3.153l0.46-3.153l-0.546-12.82"/>
	</defs>
	<clipPath id="SVGID_6_">
		<use xlink:href="#SVGID_5_"  overflow="visible"/>
	</clipPath>
	<path clip-path="url(#SVGID_6_)" fill="#FF5B5F" d="M144.62,88.38h3v3h-3V88.38z"/>
</g>
<g>
	<defs>
		<path id="SVGID_7_" d="M147.62,78.38v12.707c0,0-0.422,2.185-3.576,3.153l0.46-3.153l-0.546-12.82"/>
	</defs>
	<clipPath id="SVGID_8_">
		<use xlink:href="#SVGID_7_"  overflow="visible"/>
	</clipPath>
	<path clip-path="url(#SVGID_8_)" fill="#FF5C60" d="M144.62,86.38h3v2h-3V86.38z"/>
</g>
<g>
	<defs>
		<path id="SVGID_9_" d="M147.62,78.38v12.707c0,0-0.422,2.185-3.576,3.153l0.46-3.153l-0.546-12.82"/>
	</defs>
	<clipPath id="SVGID_10_">
		<use xlink:href="#SVGID_9_"  overflow="visible"/>
	</clipPath>
	<path clip-path="url(#SVGID_10_)" fill="#FF5E62" d="M144.62,83.38h3v3h-3V83.38z"/>
</g>
<g>
	<defs>
		<path id="SVGID_11_" d="M147.62,78.38v12.707c0,0-0.422,2.185-3.576,3.153l0.46-3.153l-0.546-12.82"/>
	</defs>
	<clipPath id="SVGID_12_">
		<use xlink:href="#SVGID_11_"  overflow="visible"/>
	</clipPath>
	<path clip-path="url(#SVGID_12_)" fill="#FF5F63" d="M144.62,81.38h3v2h-3V81.38z"/>
</g>
<g>
	<defs>
		<path id="SVGID_13_" d="M147.62,78.38v12.707c0,0-0.422,2.185-3.576,3.153l0.46-3.153l-0.546-12.82"/>
	</defs>
	<clipPath id="SVGID_14_">
		<use xlink:href="#SVGID_13_"  overflow="visible"/>
	</clipPath>
	<path clip-path="url(#SVGID_14_)" fill="#FF6064" d="M144.62,78.38h3v3h-3V78.38z"/>
</g>
<path fill="#333333" d="M142.38,95.877c-0.662,0-1.276-0.422-1.485-1.085c-0.261-0.82,0.189-1.696,1.014-1.958
	c1.695-0.543,2.15-1.287,2.152-1.607l-0.011-12.27c0-0.863,0.925-1.558,1.783-1.558c0.86,0,1.786,0.69,1.786,1.55v12.13v-0.01
	c0,0,0.15,3.22-4.551,4.72c-0.149,0.05-0.539,0.07-0.699,0.07L142.38,95.877z"/>
<path fill="#333333" d="M144.186,100.83c-6.115,0-9.972-2.728-10.209-2.9c-0.694-0.508-0.851-1.48-0.343-2.178
	c0.505-0.698,1.479-0.852,2.171-0.348c0.305,0.207,7.445,5.156,17.789-0.125c0.766-0.39,1.7-0.09,2.094,0.68s0.09,1.7-0.678,2.09
	c-4.07,2.08-7.736,2.77-10.824,2.77V100.83z"/>
<path fill="#333333" d="M161.578,58.745c0,0-6.792,8.243-21.348,9.216l7.121-7.27c0,0-15.771,10.509-23.861,10.509l-1.94,0.24
	l-2.18,3.52c0,0-6.913-11.158-3.882-17.223c0,0,1.133-1.74-2.748,0.203c0,0,7.316-19.693,35.094-17.63c0,0,14.96,2.26,16.42,7.476
	c1.109,3.987-2.67,10.96-2.67,10.96L161.578,58.745z"/>
<path fill="#333333" d="M159.639,57.127c0,0,0,11.158,3.877,15.524l7.274,1.36c0,0,4.614-10.81,4.614-13.729
	c0-2.91-1.698-12.13-11.891-11.16c-10.185,0.98-3.875,8.01-3.875,8.01V57.127z"/>
<path fill="#333333" d="M147.948,71.3c-0.054,0.044,0.952-0.68,2.479-1.403c0.747-0.414,1.684-0.727,2.674-1.146
	c0.51-0.17,1.049-0.31,1.59-0.48c0.55-0.14,1.09-0.36,1.68-0.42c1.16-0.15,2.311-0.48,3.43-0.42c1.131,0.03,2.19-0.11,3.09,0.09
	l3.041,0.55c1.529,0.28,2.549,1.75,2.27,3.29c-0.27,1.53-1.74,2.56-3.28,2.27c-0.13-0.02-0.26-0.05-0.38-0.09l-0.471-0.16
	l-2.069-0.7c-0.62-0.27-1.431-0.24-2.271-0.41c-0.84-0.2-1.789-0.03-2.729-0.08c-0.47-0.02-0.94,0.1-1.41,0.15
	c-0.47,0.06-0.93,0.13-1.38,0.2c-0.87,0.24-1.73,0.37-2.41,0.63c-1.42,0.43-2.199,0.85-2.26,0.87c-0.74,0.43-1.7,0.17-2.12-0.58
	c-0.43-0.74-0.17-1.7,0.58-2.12L147.948,71.3z"/>
<path fill="#333333" d="M140.91,74.002c-0.059-0.015-0.846-0.432-2.27-0.862c-0.679-0.26-1.535-0.397-2.41-0.63
	c-0.446-0.07-0.906-0.14-1.379-0.202c-0.467-0.052-0.937-0.17-1.412-0.144c-0.94,0.043-1.891-0.125-2.73,0.078
	c-0.84,0.17-1.65,0.145-2.27,0.416l-2.08,0.697l-0.47,0.16c-1.48,0.497-3.08-0.295-3.58-1.77c-0.5-1.482,0.29-3.08,1.77-3.583
	c0.12-0.044,0.27-0.078,0.4-0.103l3.03-0.55c0.9-0.21,1.97-0.07,3.08-0.1c1.13-0.07,2.271,0.27,3.431,0.42
	c0.58,0.06,1.119,0.27,1.67,0.42c0.539,0.16,1.08,0.3,1.58,0.48c0.989,0.42,1.92,0.73,2.67,1.14c1.52,0.72,2.529,1.45,2.479,1.4
	c0.75,0.43,1,1.38,0.569,2.12c-0.42,0.75-1.379,1.01-2.119,0.58L140.91,74.002z"/>
<path fill="#082031" d="M110.037,97.133l3.118,21.553l18.693-4.416C131.848,114.27,135.484,88.044,110.037,97.133L110.037,97.133z"
	/>
</svg>
