<svg xmlns="http://www.w3.org/2000/svg" xmlns:xlink="http://www.w3.org/1999/xlink" width="256" height="256" viewBox="0 0 256 256"><path d="M157.617 218.344c-.842 0-1.64-.426-2.104-1.15-.522-.815-.99-1.542-1.317-2.2-.063-.088-.12-.18-.174-.276-.46-.852-2.686-5.265-1.242-8.508.21-.668-.524-3.065-1.52-4.913-.615-1.14-.26-2.563.82-3.275.08-.054 1.764-1.16 4.027-2.383.167-.78.34-1.61.52-2.47.562-3.26 1.19-6.92 1.368-10.74.13-1.75.14-3.58.03-5.83-.137-2.18-.376-3.89-.752-5.35-.012-.05-.022-.09-.03-.14-.318-1.6-.98-3.01-1.636-4.31-.552-.94-1.218-1.75-2.03-2.48-1.203-.72-2.834-1.08-4.85-1.08-6.98 0-16.29 4.3-20.115 6.22-1.278 3.95-2.632 7.38-4.23 10.71-1.428 2.82-2.76 5.33-4.82 7.94-2.226 2.75-5.122 5.77-9.837 7.4-1.524.54-3.267.82-5.025.82-.944 0-1.877-.08-2.772-.24-2.278-.42-4.514-1.28-6.312-2.43-1.464-.81-2.548-1.73-3.506-2.55-.268-.23-.536-.46-.812-.69-.052-.05-.102-.09-.15-.14-.957-.92-1.793-1.84-2.602-2.73l-.56-.62c-.05-.06-.097-.11-.142-.17 0 0-2.518-3.29-2.538-3.32-.526-.75-1.01-1.5-1.485-2.24-.21-.33-.41-.65-.63-.97-.93-1.41-1.68-2.77-2.41-4.08-.35-.65-.7-1.27-1.06-1.88l-.07-.12c-.85-1.66-1.6-3.13-2.24-4.45-.16.02-.32.03-.48.03-1.18 0-2.26-.42-3.13-1.23-.41-.38-.68-.9-.77-1.45 0 0-.29-1.58-1.16-1.82-1.46.53-5.65 1.91-9.81 2.08-2.78 1.84-6.37 2.07-9.3 2.26-.75.05-1.48.1-2.16.17-.09.01-.18.02-.27.02-.8 0-1.55-.39-2.03-1.04l-2.14-3c-.39-.55-.55-1.23-.43-1.89.11-.66.49-1.25 1.04-1.63l28.93-19.9c.43-.3.93-.44 1.42-.44.47 0 .94.13 1.36.4 1.08.69 1.82 1.17 2.33 1.58l.06.04c.78.58 4.63 3.66 4.67 7.21.09.69 1.76 2.57 3.44 3.84.89.67 1.21 1.83.85 2.84l.34.76c.75 1.81 1.93 4.28 3.84 8.07.34.58.67 1.19 1.02 1.82.58 1.06 1.17 2.15 1.84 3.15l1.69 2.62 1.78 2.36.7.76c.38.42.76.83 1.14 1.22.22.18.44.38.67.57.25.22.63.56.78.64.09.04.16.08.25.13.68.41.91.45.92.45.28-.13 1.23-.79 2.22-2.06 1.19-1.44 2.21-3.38 3.09-5.08 1.58-3.24 2.99-6.95 4.29-11.3.12-.41.24-.81.35-1.21-1.13-2.17-1.74-4.82-1.74-7.58 0-4.83 1.82-8.97 4.6-11.13-.14-.32-.21-.66-.2-1.01 0-.67.28-1.3.76-1.77l1.27-1.23 1.52-1.44.81-.75c.22-.28.45-.57.69-.86l1.75-2.1c.43-.75.91-1.54 1.43-2.33.16-.31.28-.63.42-.96.14-.36.31-.76.51-1.18.07-.36.17-.7.25-1.01.1-.36.2-.73.22-.96.01-.22.03-.44.04-.66.04-.56.08-1.05.01-1.41-.04-.19-.05-.38-.05-.58.01-.22-.1-.64-.21-1.05-.08-.3-.15-.6-.21-.9-.13-.3-.23-.61-.34-.91-.17-.48-.31-.89-.5-1.19-.06-.09-.1-.18-.15-.27-.14-.3-.29-.6-.48-.93l-11.45 2.71c-.19.04-.39.06-.58.06-.5 0-.99-.15-1.41-.43-.58-.39-.97-1.01-1.07-1.71l-.77-5.31-.3.05c-2.1.3-3.94.94-4.98 1.74-.03.02-.06.05-.1.07-.4.28-.7.62-1.05 1.17l-.08.12c-.2.29-.39.97-.55 1.56l-.17 1.16-.03 1.28.04.62.56-.07c.34-.05.73-.08 1.1-.08 4.94 0 5.72 4.7 6.24 7.8.12.75.25 1.53.42 2.26.62 2.75-.1 4.46-.82 5.42-.48.64-1.03 1.07-1.57 1.36-.26 1.42-.63 2.44-1.11 3.06-1.62 2.08-5.82 3.36-6 3.42-1.37.41-4.18.58-6.03.65-.95.97-2.43 1.46-4.4 1.46-.82 0-1.76-.08-2.79-.24-1.54-.25-2.86-1.08-3.82-2.42-3.09-4.29-1.81-13.16-1.53-14.9.29-1.99 2.13-3.26 4.17-4.14-.16-1.21-.21-2.52-.27-3.96V121c.03-.84.07-1.71.11-2.6 0-.09.01-.17.02-.257l.09-.65c.1-.74.21-1.5.38-2.32.53-2.1 1.26-4.46 2.73-6.694 1.36-2.17 3.23-4.15 5.23-5.53 3.26-2.35 7.19-3.82 11.99-4.49l.29-.04-.13-.87c-.17-1.18.51-2.31 1.63-2.71 3.82-1.36 7.28-2.05 10.3-2.05h.34c-.08-.47-.13-.94-.18-1.43-5.59-.61-8.64-4.37-8.64-10.76 0-3.73 1.45-7.11 3.74-9.07-1.52-3.44-2.77-7.47-2.5-11.08-.43-.09-.84-.29-1.19-.6-.76-.69-1.03-1.77-.67-2.73.29-.79 7.51-19.41 33.44-19.41 1.36 0 2.77.05 4.19.16.06 0 .12.01.18.02 3.78.57 16.02 2.87 18.29 8.79 8.34.83 11.41 8.44 11.41 13.65 0 .67 0 2.67-3.39 11.24 2.26 1.97 3.67 5.32 3.67 9.02 0 6.2-2.87 9.93-8.15 10.7-.99 10.46-8.45 16.69-21.27 17.72.36.65.71 1.32 1.05 1.97l7.57 5.99c.66.53 1.01 1.35.94 2.19.74.48 1.44.89 2.13 1.26 2.9 1.55 5.66 2.37 7.97 2.37h.28c1.39-.03 2.52-.25 3.48-.67l.17-.07c1.03-.37 2.05-1.07 3.17-1.89l1.54-1.41 1.4-1.57.53-.72c.68-.9 1.32-1.75 1.79-2.6l.09-.15c.74-1.12 1.34-2.27 1.78-3.15.36-.66.67-1.27.95-1.88-1.53-2.09-2.58-3.67-2.63-3.75-3.44-4.89.97-8.1 3.61-10.02.61-.44 1.25-.91 1.82-1.38 1.43-1.18 2.88-1.77 4.31-1.77 1.12 0 2.07.36 2.81.87.82-.24 1.75-.45 2.49-.45.26 0 .5.02.73.07 2.57.49 5.61 3.69 5.74 3.83.98 1.04 2.39 3.47 3.28 5.09 1.8.56 3.25 2.53 4.31 5.89.47 1.48.32 3.03-.44 4.49-2.45 4.69-10.94 7.52-12.62 8.04-.33.11-.73.18-1.14.18-.1 0-.2-.01-.3-.01-.45.77-.98 1.61-1.58 2.49-.91 1.47-2.05 2.89-3.26 4.4l-.36.44c-.05.06-.09.11-.15.17l-2.26 2.38c-.03.04-.07.07-.11.11-.72.66-1.48 1.3-2.21 1.92l-.53.45c-.05.04-.11.08-.16.12-1.98 1.42-4.4 2.84-7.34 3.85-2.56.98-5.52 1.33-8.57 1.33h-.29c-4.35 0-8.7-1.01-13.23-3.26l-.18 1.03c-.14.77-.64 1.47-1.35 1.82-.35.18-.73.28-1.11.28-.1 0-.2.01-.3-.01-.36 1.42-.76 2.85-1.25 4.18l-.04.11c-.66 1.56-1.33 3.09-2.01 4.56 2 .23 3.96.64 5.86 1.24 3.02.95 5.72 2.37 8.03 4.23 2.49 1.97 4.68 4.49 6.31 7.29 1.67 3.04 2.79 5.91 3.38 8.58.61 2.34 1.01 4.97 1.23 8.18.16 2.94.17 5.44.02 7.68-.2 4.84-.93 9.24-1.52 12.77-.21 1.08-.42 2.08-.61 3.01 1.98.21 5.64.76 8.92 2.1.52-.08 1.05-.12 1.59-.12 2.76 0 5.44 1.03 7.81 1.93.71.27 1.39.53 2.04.75.86.28 1.49 1.01 1.67 1.89l.71 3.61c.13.66-.01 1.34-.39 1.9-.38.56-.97.93-1.63 1.05l-34.6 6.11c-.14.02-.28.03-.43.03zM143.832 40.156c1.284 0 2.616.05 4 .152 0 0 14.957 2.262 16.415 7.476.11.397.16.83.184 1.275.19-.01.37-.01.54-.01 8.9 0 10.44 8.46 10.44 11.23 0 1.99-2.15 7.66-3.52 11.06l.04.01-.41 1.18c2.41 1.03 4.17 4.22 4.17 8 0 7.48-4.58 8.35-7.81 8.35-.08 0-.15-.02-.23-.02-.04 14.65-12.71 17.29-20.39 17.68l-1.92 1.6c.92 1.29 1.7 2.83 2.51 4.39l8 6.32-.26 1.39c1.17.81 2.4 1.6 3.7 2.3 2.92 1.56 6.17 2.67 9.16 2.67.12 0 .24 0 .36-.01 1.55-.04 3.04-.28 4.41-.89 1.41-.5 2.69-1.41 3.92-2.31.59-.54 1.16-1.07 1.73-1.59.53-.6 1.05-1.17 1.56-1.74.93-1.27 1.86-2.42 2.56-3.67.77-1.17 1.4-2.34 1.93-3.4.57-1.03 1.01-1.97 1.34-2.77l.25-.56c-1.97-2.63-3.42-4.81-3.42-4.81-2.54-3.63 1.63-5.38 4.94-8.1 1.1-.91 2.01-1.21 2.73-1.21 1.45 0 2.16 1.21 2.16 1.21s2.13-.79 3.15-.79c.1 0 .18.01.25.02 1.32.26 3.48 2.11 4.41 3.09 1.17 1.24 3.57 5.8 3.57 5.8s.16-.09.42-.09c.62 0 1.85.55 3.04 4.31 1.69 5.33-11.42 9.4-11.42 9.4-.13.04-.26.06-.41.06-.43 0-.93-.19-1.48-.51l-.02.03c-.67 1.23-1.46 2.62-2.48 4.09-.92 1.49-2.18 3.03-3.48 4.65-.74.77-1.49 1.57-2.26 2.38-.84.77-1.75 1.53-2.66 2.3-1.98 1.42-4.17 2.91-6.73 3.78-2.42.93-5.12 1.43-7.72 1.43h-.26c-5.45 0-10.28-2.12-14.17-4.32-.31-.18-.61-.41-.91-.59l-.81 4.34-2.03-1.04-.03.25c-.57 2.23-1.09 4.53-1.83 6.55-.82 1.94-1.66 3.81-2.49 5.58-.45.77-.91 1.23-1.35 2.23h.3c.68 0 1.38.02 2.12.06 2.09.13 4.4.51 6.82 1.27 2.41.76 4.96 1.98 7.22 3.79 2.27 1.79 4.25 4.08 5.72 6.6 1.38 2.52 2.51 5.21 3.09 7.85.69 2.66 1.01 5.28 1.19 7.82.14 2.53.18 5.01.02 7.34-.2 4.71-.89 8.92-1.49 12.53-.36 1.8-.69 3.44-1 4.88.32.36.74.68 1.29.9 0 0 5.78.29 10.22 2.33l-.02.01c.61-.16 1.24-.24 1.88-.24 3.07 0 6.36 1.65 9.06 2.55l.7 3.61-34.63 6.06s-1.45-2.4-1.38-2.4l-.01.08s-2.17-3.98-1.15-6.27c1.02-2.29-1.6-7.11-1.6-7.11s2.16-1.42 4.85-2.79c.25-1.14.51-2.37.79-3.7.56-3.25 1.22-7.06 1.4-11.06.15-2.01.13-4.04.03-6.06-.12-2.02-.35-4.02-.83-5.86-.38-1.91-1.13-3.51-1.89-5.01-.77-1.33-1.7-2.41-2.73-3.3-1.74-1.11-3.94-1.56-6.34-1.56-8.02 0-18.39 5-22.18 6.98-1.08 3.46-2.47 7.32-4.41 11.39-1.23 2.44-2.54 4.96-4.53 7.47-1.96 2.44-4.53 5.15-8.69 6.59-1.3.46-2.77.69-4.21.69-.79 0-1.57-.07-2.32-.2-2.08-.38-4.02-1.17-5.48-2.12-1.65-.89-2.75-1.99-4.01-3.02-1.11-1.07-2.07-2.16-3.05-3.23l-2.5-3.2c-.74-1.07-1.4-2.13-2.07-3.16-1.36-2.05-2.34-4.04-3.41-5.85-1.23-2.4-2.29-4.53-3.14-6.33-.63.35-1.24.54-1.8.54-.52 0-1.01-.17-1.43-.56 0 0-.61-3.96-3.86-3.96-.05 0-.1.24-.16.25 0 0-5.37 2.37-10.25 2.37h-.03l.02-.26c-2.83 2.35-7.5 1.95-10.92 2.32l-2.14-3.06 28.96-20s2.29 1.47 2.22 1.53l.02-.02s3.65 2.75 3.68 5.25c.04 2.5 4.43 5.8 4.43 5.8s-.16.26-.45.69l.86 1.93c.86 2.07 2.24 4.9 3.93 8.26.93 1.58 1.82 3.44 2.96 5.15.56.87 1.13 1.76 1.72 2.67l1.91 2.54c.69.74 1.38 1.54 2.08 2.24.71.55 1.44 1.32 2.09 1.61.97.58 1.61.8 2.16.8.26 0 .5-.05.75-.13.86-.24 2.26-1.33 3.48-2.89 1.27-1.53 2.35-3.54 3.35-5.48 1.94-3.99 3.39-8.13 4.46-11.72.24-.78.45-1.53.66-2.26-1.19-1.86-1.93-4.42-1.93-7.25 0-5.49 2.78-9.96 6.27-10.23L120 140.9s.46-.44 1.28-1.24l1.492-1.41c.296-.27.606-.56.94-.87.25-.32.52-.65.8-1 .58-.69 1.2-1.44 1.865-2.23.45-.8.96-1.63 1.53-2.49.45-.85.7-1.71 1.17-2.6.12-.86.52-1.75.57-2.64.05-.88.19-1.78.02-2.69.04-.92-.35-1.84-.5-2.77-.4-.91-.59-1.85-1.12-2.7-.4-.88-.91-1.7-1.41-2.45-.06-.1-.13-.18-.2-.28l-13.18 3.11-1.11-7.64c-.94.04-1.88.11-2.82.26-2.37.33-4.65 1.1-6.12 2.22-.78.54-1.31 1.19-1.75 1.91-.49.68-.72 1.59-.96 2.49l-.22 1.46c-.02.53-.03 1.04-.04 1.54.07 1.05.09 2.05.29 3.03l.06.39c1.82-.29 3.05-.44 3.05-.44.29-.04.55-.06.8-.06 3.55 0 3.34 4.21 4.22 8.12.95 4.173-2.2 4.36-2.2 4.36s-.3 2.692-.83 3.38c-.83 1.06-3.46 2.16-4.75 2.55-1.63.49-6.79.59-6.79.59s.14 1.43-2.93 1.43c-.65 0-1.44-.07-2.4-.22-5.52-.88-3.27-14.44-3.27-14.44.16-1.13 2.01-2.11 4.47-2.92-.06-.38-.12-.77-.17-1.19-.24-1.32-.31-2.87-.36-4.5.03-.84.06-1.7.1-2.59.13-.91.23-1.84.44-2.8.49-1.91 1.13-3.96 2.37-5.84 1.18-1.88 2.77-3.61 4.56-4.85 3.6-2.58 7.52-3.59 10.91-4.06.97-.13 1.9-.22 2.8-.27l-.5-3.47c3.75-1.33 6.86-1.9 9.45-1.9 1.35 0 2.56.16 3.64.44-.69-1.93-1.08-4.19-1.084-6.85-.22.04-.46.07-.71.07-3.24 0-7.81-.867-7.81-8.35 0-3.93 1.9-7.22 4.46-8.11-1.84-3.65-4.624-10.43-2.492-14.695 0 0 .47-.713-.22-.713-.38 0-1.13.23-2.52.92 0 .01 6.6-17.77 31.09-17.77m0-5c-27.64 0-35.46 20.18-35.78 21.038-.71 1.93-.18 4.1 1.35 5.47.11.1.22.19.34.28.1 3.01.96 6.12 2.07 8.95-2.06 2.44-3.29 5.87-3.29 9.65 0 4.67 1.5 8.284 4.21 10.57-1.4.34-2.86.78-4.36 1.32-1.72.61-2.92 2.09-3.24 3.81-4.33.83-8 2.345-11.17 4.61-2.28 1.584-4.31 3.74-5.88 6.24-1.66 2.53-2.46 5.114-3.01 7.313-.01.06-.03.12-.04.18-.2.91-.31 1.76-.42 2.51l-.09.63c-.02.17-.04.34-.05.51-.04.897-.07 1.77-.1 2.61v.37c.03.84.06 1.64.12 2.41-1.83 1.08-3.6 2.73-3.99 5.237-.32 1.93-.99 7.08-.06 11.68l-.57-.37c-.83-.54-1.77-.8-2.71-.8-1 0-1.99.29-2.84.88l-28.99 20c-1.1.764-1.85 1.94-2.08 3.26-.23 1.32.08 2.68.86 3.77l2.15 3c.94 1.31 2.46 2.08 4.06 2.08.18 0 .36-.01.54-.03.6-.07 1.31-.11 2.05-.16 3.05-.2 6.74-.43 9.93-2.3 3.02-.21 5.93-.93 7.92-1.54.26.79.73 1.513 1.35 2.09 1.07.99 2.34 1.605 3.73 1.82.48.97 1.01 2.02 1.6 3.15.05.083.09.166.14.25.35.585.68 1.193 1.03 1.816.72 1.29 1.52 2.75 2.53 4.26.19.29.4.61.6.93.48.744.98 1.515 1.54 2.32l.12.17.32.42 2.16 2.816c.09.113.18.23.28.34l.55.602c.83.92 1.7 1.87 2.72 2.84.1.1.2.19.3.27l.77.65c.98.84 2.2 1.89 3.85 2.8 2.05 1.3 4.58 2.27 7.14 2.73 1.04.19 2.13.29 3.22.29 2.04 0 4.07-.33 5.87-.97 5.31-1.84 8.63-5.33 10.92-8.165 2.23-2.82 3.68-5.56 5.09-8.35l.05-.1c1.51-3.15 2.8-6.38 4.02-10.02 4.08-1.99 12.1-5.5 18.06-5.5 1.42 0 2.57.21 3.37.62.51.49.94 1.03 1.31 1.63.59 1.17 1.13 2.33 1.38 3.59l.06.27c.33 1.28.55 2.88.68 4.88.1 2.13.09 3.85-.03 5.41-.01.05.21.09.21.14-.17 3.65-1.1 7.21-1.1 10.35v.01c-1 .46-.41.9-.5 1.34-1.84 1.03-3.23 1.88-3.31 1.93-2.16 1.43-2.93 4.28-1.69 6.56.56 1.05 1.08 2.52 1.19 3.24-1.46 4.09.77 8.78 1.53 10.17.01.02.01.05.03.07.06.13.13.27.21.41.15.26.35.6.56.94.38.61.77 1.22.77 1.22.93 1.45 2.53 2.3 4.21 2.3.29 0 .58-.03.87-.08l34.63-6.13c1.32-.23 2.49-.99 3.25-2.09s1.04-2.47.79-3.78l-.71-3.61c-.34-1.77-1.62-3.22-3.33-3.79-.57-.19-1.23-.44-1.93-.71-2.45-.93-5.49-2.09-8.71-2.09-.43 0-.85.02-1.26.07-2.17-.82-4.4-1.33-6.26-1.65l.06-.33.03-.15c.6-3.59 1.34-8.05 1.56-13.08.15-2.32.15-4.9-.02-7.88v-.08c-.23-3.33-.65-6.08-1.31-8.64-.64-2.88-1.84-5.93-3.57-9.09l-.06-.13c-1.79-3.06-4.19-5.83-6.93-8-2.52-2.03-5.5-3.6-8.82-4.64-.98-.32-1.98-.58-3-.8.24-.54.47-1.09.71-1.64l.09-.22c.34-.92.63-1.87.9-2.82.18-.06.36-.14.53-.22.75-.37 1.38-.82 1.85-1.49 3.99 1.65 7.87 2.61 11.77 2.61h.31c3.33 0 6.59-.66 9.42-1.73 3.23-1.11 5.82-2.85 7.94-4.37.1-.08.21-.18.31-.27l.53-.46c.75-.63 1.54-1.3 2.29-2 .08-.07.15-.15.23-.22l.97-1.02c.43-.46.86-.91 1.28-1.35.11-.11.2-.22.3-.34l.35-.44c1.19-1.48 2.42-3.01 3.4-4.6.34-.5.65-.98.95-1.45.25-.05.51-.11.76-.19 2.63-.82 11.23-3.86 14.06-9.26 1.07-2.06 1.28-4.28.61-6.41-1.16-3.67-2.82-6.05-4.94-7.13-1-1.76-2.23-3.75-3.21-4.8-.62-.66-3.86-3.95-7.11-4.58-.35-.07-.76-.11-1.18-.11-.67 0-1.42.11-2.15.28-.91-.43-1.97-.7-3.14-.7-2.03 0-4.02.79-5.91 2.34-.51.42-1.09.84-1.7 1.29-1.66 1.21-3.38 2.47-4.56 4.3-1.83 2.85-1.69 6.2.37 9.18.16.24.81 1.21 1.78 2.56-.06.12-.12.23-.19.35l-.09.16c-.43.87-.97 1.89-1.63 2.9-.06.09-.12.19-.18.29-.4.7-.96 1.45-1.61 2.33l-.48.63-.6.68-.63.71-1.32 1.21-.02.02c-.89.64-1.73 1.22-2.42 1.46-.11.04-.22.08-.33.13-.65.29-1.48.44-2.52.46l-.24.01c-1.87 0-4.29-.74-6.8-2.08-.31-.17-.63-.35-.95-.54-.27-1.03-.87-1.97-1.74-2.66l-5.25-4.16c10.51-2.1 17.03-8.23 18.59-17.49 5.33-1.54 8.4-6.08 8.4-12.77 0-3.77-1.2-7.18-3.25-9.62 2.97-7.74 2.97-9.74 2.97-10.64 0-5.87-3.33-14.31-12.25-15.95-1.75-2.95-5.38-5.21-11.19-7.01-4.23-1.31-8.23-1.92-8.39-1.95-.13-.02-.25-.03-.38-.04-1.47-.11-2.94-.16-4.37-.16zm-38.3 83.048l.07-.11c.21-.34.31-.41.35-.44.07-.05.14-.09.2-.14.32-.24.9-.52 1.67-.77l.38 2.67c.02.14.05.29.09.43-.9-.49-1.9-.81-2.97-.922.07-.26.15-.56.21-.71zm7.62 5.49c.38 0 .77-.04 1.15-.13l9.53-2.25.12.33c.09.24.18.52.3.81.07.3.14.57.2.81.04.16.1.38.12.5 0 .31.03.63.09.93.01.143-.02.51-.04.78l-.05.66c-.02.11-.08.34-.13.51-.07.26-.16.55-.23.88-.17.38-.32.73-.44 1.04-.11.25-.2.48-.29.67-.47.72-.91 1.43-1.31 2.13l-.86 1.02-.72.86-.06.06-.59.74-.17.16-.47.43-.05.05c-.58.55-1.09 1.03-1.51 1.44-.83.81-1.43 1.26-1.43 1.26-.96.93-1.66 2.2-1.66 3.54v.13c-2 2.77-4.26 7.11-4.26 12.04 0 2.77.62 5.46 1.64 7.79-.03.09-.02.18-.05.27-1.26 4.2-2.6 7.77-4.13 10.924-.87 1.69-1.79 3.403-2.72 4.535l-.08.1c-.17.22-.33.41-.49.58-.03-.02-.05-.05-.08-.07-.2-.18-.41-.36-.62-.53-.31-.31-.63-.67-.98-1.05l-.63-.69-.63-.83-1.01-1.35-1.36-2.11-.26-.4-.03-.05c-.6-.9-1.17-1.95-1.72-2.96-.33-.6-.66-1.22-1.01-1.82-1.86-3.69-3.01-6.1-3.72-7.8-.01-.03-.02-.06-.04-.09l-.01-.03c.2-1.72-.49-3.48-1.96-4.58-.95-.73-2.06-1.84-2.46-2.45-.04-.52-.14-1.03-.28-1.52l.18.03c1.18.19 2.22.28 3.18.28 2.2 0 4-.51 5.37-1.5 2.03-.1 4.39-.31 5.78-.72.86-.26 5.24-1.68 7.26-4.28.28-.36.89-1.14 1.37-3.09.48-.38.94-.83 1.34-1.36 1.04-1.38 2.1-3.8 1.26-7.47-.15-.66-.26-1.37-.39-2.12-.29-1.78-.6-3.61-1.42-5.3.49.15 1 .23 1.52.23z" fill="#333"/><path fill="#F2C49C" d="M183.045 103.516s9.79 14.787 13.222 13.646c0 0 13.11-4.068 11.422-9.397-1.69-5.332-3.46-4.213-3.46-4.213s-2.41-4.56-3.57-5.8c-.93-.98-3.09-2.837-4.41-3.09-.86-.17-3.4.77-3.4.77s-1.58-2.733-4.89-.012c-3.31 2.72-7.49 4.468-4.94 8.096zm-38.533 6.374l.413.505 1.29 1.49c1.145 1.28 2.866 3.09 5.08 5.027 2.2 1.948 4.926 4.017 7.975 5.656 3.04 1.624 6.43 2.76 9.52 2.666 1.544-.038 3.032-.28 4.41-.886 1.405-.5 2.686-1.405 3.92-2.31.584-.538 1.16-1.068 1.727-1.588.527-.594 1.05-1.172 1.553-1.738.93-1.266 1.852-2.412 2.56-3.663.77-1.18 1.392-2.35 1.924-3.4.564-1.03 1.005-1.97 1.34-2.77l1.092-2.48 10.067 4.29s-.494 1.02-1.353 2.83c-.405.9-.956 1.98-1.67 3.21-.67 1.23-1.46 2.62-2.476 4.09-.918 1.49-2.178 3.03-3.477 4.65-.738.77-1.49 1.56-2.263 2.37-.84.77-1.756 1.53-2.663 2.3-1.98 1.42-4.17 2.82-6.73 3.69-2.5.96-5.29 1.37-7.98 1.34-5.45-.06-10.28-2.03-14.17-4.23-3.89-2.26-7.03-4.84-9.54-7.17-2.51-2.33-4.4-4.44-5.69-5.96-.64-.78-1.13-1.4-1.48-1.81l-.53-.7 7.16-5.44z"/><path fill="#082031" d="M155.833 118.877l-2.953 15.906-9.313-4.708 1.068-20.06z"/><path fill="#F2C49C" d="M122.962 112.035c-.04-.01-.54-.137-1.8-.357-1.2-.205-2.964-.467-5.05-.594-2.082-.12-4.514-.14-6.883.227-2.37.34-4.65 1.1-6.12 2.23-.78.54-1.31 1.19-1.75 1.91-.49.69-.72 1.6-.96 2.5l-.22 1.46-.04 1.54c.07 1.05.09 2.05.29 3.03.12.96.32 1.87.53 2.68.17.81.37 1.51.57 2.1l.56 1.85-10.38 3.46-.67-2.26c-.23-.71-.47-1.6-.69-2.66-.26-1.03-.5-2.22-.68-3.59-.24-1.32-.3-2.87-.36-4.5l.11-2.59c.13-.91.24-1.84.44-2.8.49-1.92 1.13-3.96 2.37-5.84 1.17-1.87 2.76-3.61 4.56-4.85 3.59-2.58 7.52-3.59 10.91-4.06 3.44-.48 6.5-.4 9.09-.21s4.69.53 6.17.8l1.74.35.66.16-2.45 10.07z"/><path d="M130.37 152.34l-.75 3.742c-.508 2.34-1.288 5.654-2.45 9.606-1.165 3.957-2.698 8.55-5.04 13.437-1.233 2.437-2.544 4.962-4.527 7.467-1.968 2.437-4.53 5.153-8.693 6.593-2.026.715-4.422.865-6.536.483-2.08-.378-4.024-1.17-5.48-2.115-1.655-.894-2.75-1.985-4.01-3.018-1.112-1.07-2.07-2.157-3.055-3.23-.84-1.092-1.67-2.177-2.48-3.23-.75-1.064-1.4-2.126-2.08-3.152-1.36-2.048-2.35-4.038-3.41-5.847-1.89-3.667-3.39-6.734-4.32-8.908-.97-2.16-1.52-3.398-1.52-3.398l10.4-4.407s.52 1.163 1.41 3.198c.86 2.07 2.24 4.9 3.93 8.26.93 1.58 1.83 3.45 2.96 5.16l1.72 2.67 1.91 2.54c.69.74 1.38 1.54 2.08 2.24.71.56 1.43 1.32 2.09 1.61 1.42.85 2.13.92 2.91.67.86-.24 2.25-1.33 3.47-2.89 1.26-1.53 2.35-3.54 3.34-5.48 1.94-3.99 3.38-8.12 4.46-11.72 1.08-3.6 1.82-6.68 2.3-8.82l.69-3.34 10.61 1.92zm3.706-2.243s.36-.105 1.03-.305c.637-.18 1.534-.408 2.684-.64 2.298-.448 5.604-.944 9.777-.7 2.088.134 4.4.51 6.817 1.274 2.41.76 4.957 1.976 7.22 3.79 2.264 1.79 4.247 4.082 5.716 6.598 1.38 2.523 2.51 5.207 3.09 7.854.69 2.655 1.005 5.276 1.185 7.82.14 2.53.175 5.01.02 7.336-.198 4.706-.893 8.92-1.49 12.53-.71 3.557-1.323 6.514-1.867 8.537-.502 2.04-.792 3.21-.792 3.21l-10.91-2.94.756-2.98c.527-1.89 1.1-4.61 1.782-7.87.558-3.24 1.214-7.06 1.4-11.05.15-2.01.128-4.04.03-6.06-.126-2.01-.356-4.01-.828-5.85-.38-1.9-1.133-3.51-1.89-5.01-.832-1.43-1.845-2.58-2.97-3.5-2.24-1.85-5.25-2.6-8.006-2.82-2.785-.18-5.275.14-6.95.47-.842.16-1.493.32-1.904.44l-.57.17-3.33-10.25zm-72.846 14.78l-.022.017c4.888.008 10.27-2.126 10.27-2.126 3.387-.13 4.017 3.957 4.017 3.957 3.71 3.437 11.96-9.79 11.96-9.79s-4.394-3.304-4.428-5.805c-.028-2.5-3.675-5.25-3.675-5.25l-.015.012c.07-.06-2.22-1.538-2.22-1.538L48.16 164.33l2.148 2.993c3.416-.37 8.084-.098 10.92-2.447zm119.373 38.913l.022-.007c-4.436-2.04-10.214-2.337-10.214-2.337-3.13-1.288-2-5.268-2-5.268-1.93-4.665-14.94 3.928-14.94 3.928s2.62 4.833 1.61 7.12c-1.01 2.282 1.16 6.3 1.16 6.3l.02-.008c-.09.028 1.38 2.325 1.38 2.325l34.63-6.13-.7-3.61c-3.25-1.082-7.38-3.27-10.94-2.313z"/><path fill="#F2C49C" d="M103.554 123.916s-17.63 2.13-18.148 5.71c0 0-2.25 13.557 3.275 14.436 5.53.88 5.33-1.207 5.33-1.207s5.16-.1 6.79-.59c1.3-.388 3.92-1.49 4.75-2.555.54-.688.84-3.385.84-3.385s3.16-.184 2.21-4.36c-.94-4.178-.63-8.7-5.02-8.05z"/><path d="M128.666 153.085c0 5.663-2.946 10.258-6.588 10.258-3.64 0-6.59-4.595-6.59-10.258 0-5.658 2.95-10.253 6.59-10.253 3.642 0 6.588 4.595 6.588 10.253zm-3.602 15.455s25.223-14.36 32.234-4.066l-3.84-10.67-31.38 2.53 2.986 12.205zm-.877-23.16l-.194 12.65 7.012 4.672 14.604-3.598-9.35-13.723z"/><path fill="#082031" d="M133.87 96.4s.21.146.6.413c.507.367 1.22.91 1.902 1.474 1.473 1.19 3.41 2.934 5.528 5.36 1.06 1.207 2.157 2.576 3.203 4.177 1.13 1.506 2.036 3.41 3.03 5.293.808 2.043 1.76 4.102 2.218 6.465.66 2.29.87 4.724.99 7.187.13 2.44-.26 4.86-.52 7.24-.56 2.22-1.09 4.53-1.83 6.55-.82 1.94-1.66 3.82-2.49 5.59-.93 1.59-1.86 3.05-2.73 4.41l-1.25 1.94c-.43.54-.84 1.05-1.23 1.53l-2.03 2.49-1.79 2.17-17.57-17.74s.47-.45 1.28-1.24l1.5-1.42c.3-.27.61-.56.94-.87l.8-1c.58-.69 1.21-1.45 1.87-2.24.45-.81.96-1.63 1.53-2.49.45-.86.7-1.72 1.17-2.61.12-.86.52-1.75.57-2.64.05-.88.2-1.79.02-2.7.04-.92-.35-1.84-.5-2.78-.39-.91-.59-1.85-1.11-2.7-.41-.88-.91-1.7-1.41-2.45-1-1.5-2.03-2.71-2.74-3.45l-.68-.72c-.09-.12-.4-.36-.35-.32l11.12-14.96z"/><path fill="#E2B593" d="M163.967 80.536c0 4.61.67 8.35 3.903 8.35s7.812-.865 7.812-8.35c0-4.614-2.623-8.356-5.855-8.356-3.238 0-5.86 3.742-5.86 8.356z"/><path fill="#C69C6D" d="M164.937 80.5c.012-1.29.28-2.76.915-4.012.32-.64.725-1.26 1.302-1.794.57-.523 1.386-.974 2.33-.984.358.033.285.003.62.072.275.057.507.138.687.228.4.176.73.428 1.03.685.57.534.28 1.153.6 1.794.64 1.28.21 2.66.21 4.04v.15c0 .9-.01 1.65-.92 1.66-.9.01-1.29-.72-1.29-1.62 0-.07.18-.14.18-.2.11-.92.12-1.91-.18-2.75-.28-.87-.8-1.42-.96-1.48-.09-.06-.33-.05-.66.17-.31.22-1.25.58-1.53 1-.55.89-1.62 1.87-1.62 3.07v.05c0 .53.09.92-.44.86-.5-.05-.24-.48-.24-.98zm-14.264 23.187l-9.542 7.985-5.65-8.18"/><path fill="#E2B593" d="M125.226 80.536c0 4.61-.668 8.35-3.905 8.35-3.23 0-7.81-.865-7.81-8.35 0-4.614 2.63-8.356 5.86-8.356s5.86 3.742 5.86 8.356z"/><path fill="#C69C6D" d="M124.254 80.5c-.013-1.29-.28-2.76-.915-4.012-.32-.64-.73-1.26-1.3-1.794-.58-.523-1.39-.974-2.34-.984-.36.033-.29.003-.62.072-.28.057-.51.138-.69.228-.41.176-.73.428-1.03.685-.58.534-.76 1.153-1.08 1.794-.64 1.28-.68 2.66-.68 4.04v.15c0 .9.48 1.65 1.39 1.66.91.01 1.54-.72 1.55-1.62 0-.07-.07-.14-.07-.2-.1-.92-.05-1.91.24-2.75.27-.87.83-1.42.98-1.48.1-.06.35-.05.68.17.31.22.64.58.91 1 .55.89.87 1.87 1 3.07l.01.05c.05.53.53.92 1.06.86.5-.05.87-.48.87-.98z"/><path fill="#F2C49C" d="M167.644 88.785c0 16.41-15.77 17.827-22.804 17.827-8.007 0-22.803-1.417-22.803-17.827 0-16.415-1.698-37.484 22.803-37.484 24.74 0 22.804 21.07 22.804 37.49z"/><path fill="#333" d="M117.75 70.55l4.366 12.614 6.308-14.72m43.502 2.913l-4.152 11.807-6.31-14.72"/><path fill="#F5F5F5" d="M140.618 80.508c0 3.752-3.033 6.792-6.787 6.792-3.74 0-6.78-3.04-6.78-6.792 0-3.746 3.04-6.782 6.79-6.782 3.76 0 6.79 3.036 6.79 6.782z"/><circle fill="#333" cx="133.893" cy="80.349" r="4.712"/><path fill="#F5F5F5" d="M163.91 80.508c0 3.752-3.04 6.792-6.79 6.792s-6.79-3.04-6.79-6.792c0-3.746 3.04-6.782 6.79-6.782s6.79 3.036 6.79 6.782z"/><circle fill="#333" cx="157.181" cy="80.349" r="4.712"/><defs><path id="a" d="M147.62 78.38v12.707s-.422 2.185-3.576 3.153l.46-3.153-.546-12.82"/></defs><clipPath id="b"><use xlink:href="#a" overflow="visible"/></clipPath><path fill="#FF585D" d="M144.62 92.38h3v3h-3z" clip-path="url(#b)"/><path fill="#FF595E" d="M144.62 91.38h3v1h-3z" clip-path="url(#b)"/><path fill="#FF5B5F" d="M144.62 88.38h3v3h-3z" clip-path="url(#b)"/><path fill="#FF5C60" d="M144.62 86.38h3v2h-3z" clip-path="url(#b)"/><path fill="#FF5E62" d="M144.62 83.38h3v3h-3z" clip-path="url(#b)"/><path fill="#FF5F63" d="M144.62 81.38h3v2h-3z" clip-path="url(#b)"/><path fill="#FF6064" d="M144.62 78.38h3v3h-3z" clip-path="url(#b)"/><path fill="#333" d="M142.38 95.877c-.662 0-1.277-.422-1.486-1.085-.26-.82.19-1.696 1.014-1.958 1.696-.543 2.15-1.287 2.152-1.607l-.01-12.27c0-.863.924-1.558 1.783-1.558.86 0 1.786.69 1.786 1.55v12.13-.01s.15 3.22-4.55 4.72c-.15.05-.54.07-.7.07zm1.806 4.953c-6.115 0-9.972-2.728-10.21-2.9-.694-.508-.85-1.48-.342-2.178.505-.698 1.48-.852 2.17-.348.305.207 7.446 5.156 17.79-.125.766-.39 1.7-.09 2.093.68.394.77.09 1.7-.677 2.09-4.07 2.08-7.736 2.77-10.824 2.77zm17.392-42.085s-6.792 8.243-21.347 9.216l7.12-7.27S131.58 71.2 123.49 71.2l-1.94.24-2.18 3.52s-6.913-11.158-3.882-17.223c0 0 1.133-1.74-2.748.203 0 0 7.316-19.693 35.094-17.63 0 0 14.96 2.26 16.42 7.476 1.11 3.987-2.67 10.96-2.67 10.96zm-1.94-1.618s0 11.158 3.878 15.524l7.274 1.36s4.614-10.81 4.614-13.73c0-2.91-1.698-12.13-11.89-11.16-10.185.98-3.876 8.01-3.876 8.01zM147.948 71.3c-.054.044.953-.68 2.48-1.403.747-.414 1.684-.727 2.673-1.146.51-.17 1.05-.31 1.59-.48.55-.14 1.09-.36 1.68-.42 1.16-.15 2.31-.48 3.43-.42 1.13.03 2.19-.11 3.09.09l3.04.55c1.53.28 2.55 1.75 2.27 3.29-.27 1.53-1.74 2.56-3.28 2.27-.13-.02-.26-.05-.38-.09l-.47-.16-2.07-.7c-.62-.27-1.43-.24-2.27-.41-.84-.2-1.79-.03-2.73-.08-.47-.02-.94.1-1.41.15-.47.06-.93.13-1.38.2-.87.24-1.73.37-2.41.63-1.42.43-2.2.85-2.26.87-.74.43-1.7.17-2.12-.58-.43-.74-.17-1.7.58-2.12zm-7.038 2.702c-.058-.015-.845-.432-2.27-.862-.678-.26-1.535-.397-2.41-.63-.446-.07-.906-.14-1.378-.202-.467-.052-.937-.17-1.413-.144-.94.043-1.89-.125-2.73.078-.84.17-1.65.145-2.27.416l-2.08.697-.47.16c-1.48.497-3.08-.295-3.58-1.77-.5-1.482.29-3.08 1.77-3.583.12-.044.27-.078.4-.103l3.03-.55c.9-.21 1.97-.07 3.08-.1 1.13-.07 2.27.27 3.43.42.58.06 1.12.27 1.67.42.54.16 1.08.3 1.58.48.99.42 1.92.73 2.67 1.14 1.52.72 2.53 1.45 2.48 1.4.75.43 1 1.38.57 2.12-.42.75-1.38 1.01-2.12.58z"/><path fill="#082031" d="M110.037 97.133l3.118 21.553 18.693-4.416s3.637-26.226-21.81-17.137z"/></svg>