<?xml version="1.0" encoding="utf-8"?>
<!-- Generator: Adobe Illustrator 16.0.0, SVG Export Plug-In . SVG Version: 6.00 Build 0)  -->
<!DOCTYPE svg PUBLIC "-//W3C//DTD SVG 1.1//EN" "http://www.w3.org/Graphics/SVG/1.1/DTD/svg11.dtd">
<svg version="1.1" id="Layer_1" xmlns="http://www.w3.org/2000/svg" xmlns:xlink="http://www.w3.org/1999/xlink" x="0px" y="0px"
	 width="256px" height="256px" viewBox="0 0 256 256" enable-background="new 0 0 256 256" xml:space="preserve">
<g>
	<path fill="#333333" d="M212.52,106.25l-0.006,0.004c0.002,0.005,0.004,0.01,0.006,0.016V106.25z"/>
	<path fill="#333333" d="M212.488,106.271l0.025-0.017c-1.16-3.66-2.816-6.036-4.934-7.114c-1-1.76-2.23-3.75-3.21-4.8
		c-0.62-0.66-3.858-3.95-7.108-4.58c-0.35-0.07-0.76-0.11-1.18-0.11c-0.67,0-1.42,0.11-2.15,0.28c-0.91-0.43-1.97-0.7-3.14-0.7
		c-2.03,0-4.021,0.79-5.91,2.34c-0.51,0.42-1.09,0.84-1.7,1.29c-1.66,1.21-3.38,2.47-4.56,4.3c-1.83,2.85-1.69,6.2,0.37,9.18
		c0.158,0.24,0.81,1.21,1.779,2.56c-0.063,0.12-0.121,0.23-0.189,0.35l-0.09,0.16c-0.432,0.87-0.971,1.89-1.631,2.9
		c-0.063,0.09-0.119,0.19-0.18,0.29c-0.399,0.7-0.962,1.45-1.609,2.33l-0.48,0.63l-0.6,0.68l-0.631,0.71l-1.319,1.21l-0.021,0.02
		c-0.894,0.64-1.729,1.22-2.42,1.46c-0.109,0.04-0.224,0.08-0.33,0.13c-0.649,0.29-1.479,0.44-2.521,0.46l-0.24,0.01
		c-1.869,0-4.29-0.74-6.8-2.08c-0.31-0.17-0.63-0.35-0.95-0.54c-0.27-1.03-0.869-1.97-1.74-2.66l-5.25-4.16
		c10.51-2.1,17.03-8.23,18.59-17.49c5.33-1.54,8.4-6.08,8.4-12.77c0-3.77-1.199-7.18-3.25-9.62c2.971-7.74,2.971-9.74,2.971-10.64
		c0-5.87-3.33-14.31-12.25-15.95c-1.75-2.95-5.381-5.21-11.19-7.01c-4.228-1.31-8.228-1.92-8.39-1.95
		c-0.131-0.02-0.25-0.03-0.381-0.04c-1.47-0.11-2.939-0.16-4.369-0.16l0.01-0.048c-27.64,0-35.46,20.18-35.78,21.038
		c-0.71,1.93-0.18,4.1,1.35,5.47c0.11,0.1,0.22,0.19,0.34,0.28c0.1,3.01,0.96,6.12,2.07,8.95c-2.06,2.44-3.29,5.87-3.29,9.65
		c0,4.67,1.5,8.284,4.21,10.57c-1.4,0.34-2.86,0.78-4.36,1.32c-1.72,0.61-2.92,2.09-3.24,3.81c-4.33,0.83-8,2.345-11.17,4.61
		c-2.28,1.584-4.31,3.74-5.88,6.24c-1.66,2.53-2.46,5.114-3.01,7.313c-0.01,0.06-0.03,0.12-0.04,0.18c-0.2,0.91-0.31,1.76-0.42,2.51
		l-0.09,0.63c-0.02,0.17-0.04,0.34-0.05,0.51c-0.04,0.897-0.07,1.77-0.1,2.61v0.37c0.03,0.84,0.06,1.64,0.12,2.41
		c-1.83,1.08-3.6,2.73-3.99,5.237c-0.32,1.93-0.99,7.08-0.06,11.68l-0.57-0.369c-0.83-0.541-1.77-0.801-2.71-0.801
		c-1,0-1.99,0.29-2.84,0.881l-28.99,20c-1.1,0.764-1.85,1.939-2.08,3.26c-0.23,1.319,0.08,2.68,0.86,3.77l2.15,3
		c0.94,1.314,2.46,2.08,4.06,2.08c0.18,0,0.36-0.01,0.54-0.03c0.6-0.063,1.31-0.11,2.05-0.153c3.05-0.2,6.74-0.431,9.93-2.301
		c3.02-0.21,5.93-0.93,7.92-1.539c0.26,0.789,0.73,1.512,1.35,2.09c1.07,0.989,2.34,1.604,3.73,1.819
		c0.48,0.97,1.01,2.021,1.6,3.146c0.05,0.09,0.09,0.17,0.14,0.25c0.35,0.59,0.68,1.199,1.03,1.82c0.72,1.289,1.52,2.75,2.53,4.26
		c0.19,0.289,0.4,0.609,0.6,0.93c0.48,0.75,0.98,1.52,1.54,2.32l0.12,0.17l0.32,0.42l2.16,2.82c0.09,0.119,0.18,0.229,0.28,0.34
		l0.55,0.609c0.83,0.92,1.7,1.87,2.72,2.84c0.1,0.101,0.2,0.19,0.3,0.271l0.77,0.649c0.98,0.84,2.2,1.891,3.85,2.801
		c2.05,1.3,4.58,2.27,7.14,2.729c1.04,0.19,2.13,0.29,3.22,0.29c2.04,0,4.07-0.33,5.87-0.97c5.31-1.84,8.63-5.33,10.92-8.17
		c2.23-2.82,3.68-5.56,5.09-8.351l0.05-0.1c1.51-3.15,2.8-6.4,4.023-10.03c4.08-1.989,12.1-5.5,18.06-5.5
		c1.42,0,2.57,0.21,3.37,0.62c0.513,0.49,0.94,1.02,1.31,1.63c0.595,1.171,1.133,2.33,1.383,3.591l0.06,0.27
		c0.33,1.279,0.554,2.88,0.681,4.88c0.104,2.13,0.261,3.893,0.145,5.452c-0.011,0.05,0.039,0.048,0.039,0.098
		c-0.17,3.65-1.11,7.21-1.11,10.35v0.011c-1,0.46-0.409,0.899-0.5,1.34c-1.84,1.03-3.229,1.88-3.31,1.931
		c-2.16,1.439-2.94,4.279-1.69,6.56c0.56,1.06,1.08,2.53,1.19,3.239c-1.46,4.09,0.77,8.78,1.529,10.17
		c0.011,0.031,0.011,0.061,0.021,0.07c0.06,0.131,0.13,0.271,0.21,0.41c0.15,0.26,0.35,0.6,0.561,0.94
		c0.379,0.61,0.77,1.22,0.77,1.22c0.93,1.45,2.53,2.3,4.21,2.3c0.29,0,0.58-0.03,0.87-0.08l34.63-6.13
		c1.32-0.23,2.49-0.99,3.25-2.09s1.04-2.47,0.79-3.78l-0.71-3.61c-0.34-1.77-1.62-3.219-3.33-3.779
		c-0.569-0.189-1.229-0.439-1.93-0.71c-2.45-0.931-5.49-2.09-8.71-2.09c-0.44,0-0.86,0.02-1.26,0.069
		c-2.181-0.819-4.4-1.33-6.271-1.649l0.06-0.33l0.03-0.149c0.601-3.591,1.34-8.051,1.56-13.08c0.15-2.32,0.15-4.9-0.02-7.881v-0.08
		c-0.23-3.33-0.65-6.08-1.311-8.64c-0.64-2.88-1.84-5.931-3.569-9.09l-0.06-0.13c-1.791-3.061-4.19-5.83-6.931-8
		c-2.521-2.03-5.5-3.601-8.819-4.641c-0.98-0.32-1.98-0.58-3-0.8c0.239-0.54,0.47-1.09,0.709-1.64l0.09-0.221
		c0.341-0.92,0.631-1.869,0.9-2.819c0.18-0.06,0.36-0.14,0.53-0.22c0.75-0.371,1.38-0.82,1.851-1.49
		c3.989,1.65,7.869,2.609,11.77,2.609h0.311c3.329,0,6.59-0.66,9.42-1.729c3.229-1.11,5.819-2.851,7.939-4.37
		c0.1-0.08,0.21-0.18,0.311-0.27l0.529-0.461c0.75-0.629,1.54-1.3,2.29-2c0.08-0.069,0.149-0.149,0.229-0.22l0.971-1.03
		c0.43-0.459,0.859-0.91,1.279-1.35c0.11-0.109,0.201-0.22,0.301-0.34l0.35-0.44c1.19-1.48,2.42-3.01,3.4-4.6
		c0.34-0.5,0.65-0.98,0.949-1.45c0.25-0.05,0.511-0.11,0.761-0.19c2.63-0.82,11.229-3.86,14.06-9.26
		C212.949,110.621,213.159,108.401,212.488,106.271z M159.289,122.551c2.92,1.56,6.17,2.67,9.16,2.67c0.119,0,0.23,0,0.359-0.01
		c1.541-0.04,3.03-0.28,4.41-0.89c1.4-0.5,2.68-1.41,3.92-2.31c0.59-0.54,1.15-1.07,1.721-1.59c0.52-0.6,1.05-1.17,1.56-1.74
		c0.931-1.27,1.86-2.42,2.56-3.67c0.33-0.501,0.622-0.999,0.904-1.491c-0.285,0.502-0.584,1.013-0.92,1.528
		c-0.708,1.252-1.63,2.398-2.561,3.664c-0.502,0.566-1.027,1.144-1.553,1.738c-0.57,0.52-1.15,1.05-1.73,1.588
		c-1.23,0.905-2.52,1.81-3.92,2.31c-1.381,0.606-2.87,0.848-4.41,0.886c-3.09,0.094-6.48-1.042-9.52-2.666
		c-1.294-0.696-2.515-1.477-3.677-2.285l0.005-0.026C156.765,121.064,157.992,121.853,159.289,122.551z M150.895,133.74
		l-0.025,0.221c-0.57,2.23-1.09,4.53-1.83,6.55c-0.82,1.94-1.66,3.811-2.49,5.58c-0.073,0.125-0.146,0.233-0.22,0.346
		c0.064-0.108,0.128-0.207,0.192-0.317c0.83-1.77,1.67-3.65,2.489-5.59c0.74-2.021,1.271-4.33,1.83-6.551l0.03-0.25L150.895,133.74z
		 M90.58,152.921c-0.95-0.729-2.06-1.84-2.46-2.45c-0.04-0.52-0.14-1.029-0.28-1.52l0.18,0.029c1.18,0.19,2.22,0.28,3.18,0.28
		c2.2,0,4-0.51,5.37-1.5c2.03-0.1,4.39-0.31,5.78-0.72c0.86-0.26,5.24-1.68,7.26-4.28c0.28-0.36,0.89-1.14,1.37-3.09
		c0.48-0.38,0.94-0.83,1.34-1.36c1.04-1.379,2.1-3.8,1.26-7.47c-0.15-0.659-0.26-1.37-0.39-2.12c-0.29-1.78-0.6-3.61-1.42-5.3
		c0.49,0.15,1,0.23,1.52,0.23l-0.06,0.03c0.38,0,0.77-0.04,1.15-0.13l9.53-2.25l0.12,0.33c0.09,0.24,0.18,0.52,0.3,0.81
		c0.07,0.3,0.14,0.57,0.2,0.81c0.04,0.16,0.1,0.38,0.12,0.5c0,0.31,0.03,0.63,0.09,0.93c0.01,0.14-0.021,0.51-0.04,0.78v-0.01v-0.01
		l-0.05,0.66c-0.02,0.11-0.08,0.34-0.13,0.51c-0.07,0.26-0.16,0.55-0.23,0.88c-0.17,0.38-0.32,0.73-0.44,1.04
		c-0.11,0.25-0.2,0.479-0.29,0.67c-0.47,0.72-0.91,1.43-1.31,2.13l-0.86,1.021l-0.72,0.859l-0.06,0.061l-0.59,0.739l-0.17,0.16
		l-0.47,0.431l-0.05,0.049c-0.58,0.551-1.09,1.031-1.51,1.44c-0.83,0.81-1.43,1.261-1.43,1.261c-0.96,0.93-1.66,2.199-1.66,3.539
		v0.131c-2,2.77-4.26,7.109-4.26,12.039c0,2.771,0.62,5.461,1.64,7.791c-0.03,0.09-0.02,0.18-0.05,0.27
		c-1.26,4.199-2.6,7.779-4.13,10.93c-0.87,1.69-1.79,3.41-2.72,4.54l-0.08,0.101c-0.17,0.229-0.33,0.41-0.49,0.58
		c-0.03-0.021-0.05-0.051-0.08-0.07c-0.2-0.18-0.41-0.35-0.62-0.52c-0.31-0.311-0.63-0.671-0.98-1.051l-0.63-0.689l-0.63-0.83
		l-1.01-1.351l-1.36-2.11l-0.26-0.399l-0.03-0.05c-0.6-0.891-1.17-1.95-1.72-2.96c-0.33-0.601-0.66-1.22-1.01-1.82
		c-1.86-3.68-3.01-6.101-3.72-7.8c-0.01-0.03-0.02-0.061-0.04-0.09l-0.01-0.03C92.74,155.781,92.05,154.021,90.58,152.921z
		 M171.925,71.359l0.005,0.001l-0.409,1.178c-0.003-0.001-0.006-0.002-0.009-0.003L171.925,71.359z M108.37,119.81
		c-0.9-0.49-1.9-0.81-2.97-0.922c0.07-0.26,0.15-0.56,0.21-0.71v-0.008l0.07-0.11c0.21-0.34,0.31-0.41,0.35-0.44
		c0.07-0.05,0.14-0.09,0.2-0.14c0.32-0.24,0.9-0.52,1.67-0.77l0.38,2.67C108.3,119.52,108.33,119.67,108.37,119.81z
		 M126.411,115.529c0.001,0.002,0.003,0.004,0.004,0.006l-13.159,3.105v-0.001L126.411,115.529z M117.972,72.431
		c-0.036,0.013-0.072,0.026-0.108,0.04c0.035-0.014,0.068-0.036,0.103-0.049C117.968,72.424,117.97,72.428,117.972,72.431z
		 M147.25,106.551c0.011,0,0.021-0.001,0.032-0.002c-0.008,0-0.016,0.001-0.023,0.001l-1.92,1.6
		c0.075,0.105,0.144,0.221,0.217,0.329c-0.073-0.109-0.147-0.218-0.222-0.324L147.25,106.551z M150.342,106.28
		c-0.014,0.001-0.026,0.003-0.039,0.004C150.315,106.283,150.328,106.281,150.342,106.28z M155.952,105.045
		c-0.24,0.079-0.479,0.155-0.721,0.227C155.472,105.2,155.712,105.124,155.952,105.045z M158.872,103.856
		c-0.893,0.444-1.813,0.819-2.746,1.133C157.059,104.674,157.98,104.3,158.872,103.856z M162.263,101.654
		c-0.244,0.205-0.493,0.402-0.748,0.59C161.769,102.055,162.019,101.859,162.263,101.654z M161.435,102.303
		c-0.243,0.178-0.489,0.348-0.741,0.512C160.944,102.651,161.191,102.48,161.435,102.303z M160.597,102.877
		c-0.252,0.162-0.507,0.316-0.766,0.464C160.09,103.194,160.345,103.039,160.597,102.877z M159.742,103.393
		c-0.275,0.156-0.554,0.304-0.836,0.445C159.188,103.697,159.467,103.549,159.742,103.393z M172.333,72.993
		c0.036,0.024,0.072,0.049,0.108,0.075C172.405,73.042,172.369,73.018,172.333,72.993z M145.59,40.195
		c0.645,0.021,1.301,0.056,1.97,0.101C146.891,40.25,146.234,40.216,145.59,40.195z M126.959,43.694
		c0.109-0.052,0.213-0.107,0.324-0.159C127.172,43.586,127.069,43.642,126.959,43.694z M127.891,43.268
		c0.333-0.148,0.668-0.295,1.015-0.435C128.558,42.972,128.225,43.121,127.891,43.268z M94.011,142.855c0,0,0.03-0.001,0.076-0.002
		c-0.006,0.147-0.076,0.573-0.638,0.913C94.055,143.358,94.011,142.855,94.011,142.855z M107.676,135.842
		c-0.006,0.004-0.012,0.009-0.018,0.013C107.664,135.851,107.67,135.846,107.676,135.842z M106.453,136.318
		c-0.038,0.322-0.332,2.701-0.826,3.342c-0.211,0.27-0.541,0.542-0.934,0.805c0.357-0.247,0.66-0.502,0.857-0.755
		c0.54-0.688,0.84-3.385,0.84-3.385S106.417,136.323,106.453,136.318z M121.771,142.776l0.051,0.052
		c-0.528,0.03-1.041,0.155-1.53,0.368C120.765,142.975,121.259,142.828,121.771,142.776z M155.847,118.858l-0.014,0.019
		l-7.996-6.328c-0.633-1.222-1.245-2.429-1.916-3.516c0.678,1.085,1.295,2.288,1.929,3.508L155.847,118.858z M153.448,105.735
		c0.172-0.039,0.345-0.08,0.518-0.123C153.793,105.655,153.62,105.696,153.448,105.735z M150.914,106.2
		c0.102-0.015,0.203-0.029,0.306-0.044C151.117,106.171,151.016,106.185,150.914,106.2z M151.718,106.074
		c0.133-0.022,0.266-0.044,0.4-0.069C151.983,106.03,151.851,106.052,151.718,106.074z M152.568,105.92
		c0.154-0.03,0.309-0.062,0.464-0.094C152.877,105.858,152.723,105.89,152.568,105.92z M154.926,105.358
		c-0.196,0.056-0.393,0.11-0.589,0.161C154.533,105.469,154.729,105.414,154.926,105.358z M162.295,101.627
		c1.563-1.323,2.897-2.99,3.842-5.092C165.192,98.637,163.859,100.306,162.295,101.627z M166.151,96.503
		c0.148-0.333,0.287-0.678,0.416-1.034C166.438,95.825,166.3,96.17,166.151,96.503z M167.879,88.891c-0.08,0-0.15-0.02-0.23-0.02
		c-0.004,1.499-0.146,2.865-0.396,4.123c0.249-1.256,0.384-2.629,0.389-4.125c0.077,0.004,0.148,0.017,0.229,0.017
		c3.233,0,7.812-0.865,7.812-8.35c0-0.113-0.009-0.223-0.012-0.335c0.003,0.115,0.02,0.224,0.02,0.34
		C175.689,88.011,171.109,88.891,167.879,88.891z M166.597,95.387c0.123-0.345,0.236-0.701,0.339-1.068
		C166.833,94.686,166.72,95.042,166.597,95.387z M166.963,94.22c0.103-0.374,0.194-0.76,0.274-1.157
		C167.157,93.46,167.065,93.846,166.963,94.22z M173.155,73.667c0.035,0.035,0.067,0.074,0.103,0.109
		C173.224,73.74,173.19,73.701,173.155,73.667z M173.807,74.421c0.042,0.056,0.086,0.107,0.127,0.165
		C173.894,74.528,173.849,74.477,173.807,74.421z M174.426,75.377c0.055,0.099,0.107,0.2,0.158,0.303
		C174.533,75.577,174.48,75.476,174.426,75.377z M174.954,76.505c0.046,0.119,0.085,0.243,0.128,0.365
		C175.04,76.748,175,76.624,174.954,76.505z M175.296,77.576c0.038,0.141,0.077,0.279,0.108,0.423
		C175.373,77.855,175.334,77.716,175.296,77.576z M175.573,78.951c0.022,0.163,0.037,0.328,0.053,0.493
		C175.61,79.278,175.595,79.113,175.573,78.951z M171.894,71.348l-0.027-0.008c1.364-3.4,3.503-9.047,3.503-11.029l0.035-0.021
		c0-1.233-0.306-3.6-1.433-5.843c1.128,2.243,1.44,4.608,1.44,5.844C175.412,62.281,173.263,67.948,171.894,71.348z M172.627,52.397
		c-0.174-0.208-0.353-0.415-0.547-0.611C172.275,51.982,172.452,52.189,172.627,52.397z M173.962,54.43
		c-0.154-0.307-0.325-0.611-0.512-0.91C173.637,53.819,173.808,54.123,173.962,54.43z M173.349,53.371
		c-0.164-0.252-0.337-0.502-0.526-0.744C173.012,52.869,173.184,53.118,173.349,53.371z M168.49,49.604
		c-0.231-0.075-0.462-0.151-0.709-0.212C168.028,49.453,168.259,49.529,168.49,49.604z M171.79,51.521
		c-0.186-0.171-0.373-0.342-0.577-0.5C171.418,51.18,171.604,51.35,171.79,51.521z M170.827,50.753
		c-0.198-0.138-0.397-0.275-0.613-0.4C170.43,50.478,170.629,50.615,170.827,50.753z M169.729,50.108
		c-0.213-0.106-0.427-0.213-0.656-0.305C169.303,49.895,169.516,50.001,169.729,50.108z M167.096,49.261
		c-0.25-0.044-0.499-0.089-0.764-0.118C166.597,49.171,166.846,49.216,167.096,49.261z M165.539,49.095
		c-0.354-0.015-0.701-0.038-1.08-0.025c0.18-0.008,0.352-0.009,0.514-0.009C165.172,49.061,165.348,49.087,165.539,49.095z
		 M143.911,40.125l-0.079,0.036c0.257,0,0.523,0.011,0.784,0.015c-6.221-0.093-11.321,0.941-15.465,2.563
		C133.138,41.167,137.998,40.125,143.911,40.125z M119.557,95.18c1.312,0,2.489,0.153,3.545,0.418
		c0.004,0.013,0.01,0.025,0.014,0.038c-3.136-0.812-7.342-0.564-13.008,1.454l-0.001-0.01
		C113.857,95.75,116.967,95.18,119.557,95.18z M89.836,126.692c0.001,0.008,0.002,0.016,0.003,0.024
		c-1.489,0.498-2.746,1.056-3.541,1.669C87.073,127.759,88.336,127.194,89.836,126.692z M108.535,193.217
		c-0.247,0.074-0.495,0.145-0.75,0.204C108.039,193.358,108.29,193.295,108.535,193.217z M78.682,166.724
		c-0.132,0.068-0.262,0.132-0.392,0.186c0.129-0.058,0.258-0.119,0.389-0.19C78.68,166.721,78.681,166.722,78.682,166.724z
		 M134.006,164.223c-0.196,0.079-0.395,0.158-0.587,0.237C133.612,164.381,133.809,164.302,134.006,164.223z M152.93,134.751
		l-0.027-0.014l0.803-4.313c0.01,0.005,0.02,0.011,0.028,0.017L152.93,134.751z M204.27,113.441c2.318-1.558,4.063-3.511,3.379-5.67
		l0.041-0.006c-1.689-5.332-3.459-4.213-3.459-4.213s-2.41-4.56-3.57-5.8c-0.93-0.98-3.09-2.837-4.41-3.09
		c-0.857-0.17-3.4,0.77-3.4,0.77s-1.58-2.733-4.89-0.012c-1.042,0.857-2.17,1.617-3.148,2.37c0.991-0.77,2.143-1.544,3.208-2.419
		c1.1-0.91,2.01-1.21,2.729-1.21c1.45,0,2.16,1.21,2.16,1.21s2.13-0.79,3.14-0.79c0.1,0,0.18,0.01,0.25,0.02
		c1.32,0.26,3.48,2.11,4.41,3.09c1.17,1.24,3.57,5.8,3.57,5.8s0.16-0.09,0.42-0.09c0.619,0,1.85,0.55,3.04,4.31
		C208.433,109.898,206.633,111.873,204.27,113.441z"/>
	<path fill="#333333" d="M191.499,206.059l0.003,0.016c0.026,0.009,0.054,0.019,0.08,0.027L191.499,206.059z"/>
</g>
<path fill="#333333" d="M212.52,106.25v0.02c-1.16-3.67-2.819-6.05-4.939-7.13c-1-1.76-2.23-3.75-3.21-4.8
	c-0.62-0.66-3.858-3.95-7.108-4.58c-0.35-0.07-0.76-0.11-1.18-0.11c-0.67,0-1.42,0.11-2.15,0.28c-0.91-0.43-1.97-0.7-3.14-0.7
	c-2.03,0-4.021,0.79-5.91,2.34c-0.51,0.42-1.09,0.84-1.7,1.29c-1.66,1.21-3.38,2.47-4.56,4.3c-1.83,2.85-1.69,6.2,0.37,9.18
	c0.158,0.24,0.81,1.21,1.779,2.56c-0.063,0.12-0.121,0.23-0.189,0.35l-0.09,0.16c-0.432,0.87-0.971,1.89-1.631,2.9
	c-0.063,0.09-0.119,0.19-0.18,0.29c-0.399,0.7-0.962,1.45-1.609,2.33l-0.48,0.63l-0.6,0.68l-0.631,0.71l-1.319,1.21l-0.021,0.02
	c-0.894,0.64-1.729,1.22-2.42,1.46c-0.109,0.04-0.224,0.08-0.33,0.13c-0.649,0.29-1.479,0.44-2.521,0.46l-0.24,0.01
	c-1.869,0-4.29-0.74-6.8-2.08c-0.31-0.17-0.63-0.35-0.95-0.54c-0.27-1.03-0.869-1.97-1.74-2.66l-5.25-4.16
	c10.51-2.1,17.03-8.23,18.59-17.49c5.33-1.54,8.4-6.08,8.4-12.77c0-3.77-1.199-7.18-3.25-9.62c2.971-7.74,2.971-9.74,2.971-10.64
	c0-5.87-3.33-14.31-12.25-15.95c-1.75-2.95-5.381-5.21-11.19-7.01c-4.228-1.31-8.228-1.92-8.39-1.95
	c-0.131-0.02-0.25-0.03-0.381-0.04c-1.47-0.11-2.939-0.16-4.369-0.16l0.01-0.048c-27.64,0-35.46,20.18-35.78,21.038
	c-0.71,1.93-0.18,4.1,1.35,5.47c0.11,0.1,0.22,0.19,0.34,0.28c0.1,3.01,0.96,6.12,2.07,8.95c-2.06,2.44-3.29,5.87-3.29,9.65
	c0,4.67,1.5,8.284,4.21,10.57c-1.4,0.34-2.86,0.78-4.36,1.32c-1.72,0.61-2.92,2.09-3.24,3.81c-4.33,0.83-8,2.345-11.17,4.61
	c-2.28,1.584-4.31,3.74-5.88,6.24c-1.66,2.53-2.46,5.114-3.01,7.313c-0.01,0.06-0.03,0.12-0.04,0.18c-0.2,0.91-0.31,1.76-0.42,2.51
	l-0.09,0.63c-0.02,0.17-0.04,0.34-0.05,0.51c-0.04,0.897-0.07,1.77-0.1,2.61v0.37c0.03,0.84,0.06,1.64,0.12,2.41
	c-1.83,1.08-3.6,2.73-3.99,5.237c-0.32,1.93-0.99,7.08-0.06,11.68l-0.57-0.369c-0.83-0.541-1.77-0.801-2.71-0.801
	c-1,0-1.99,0.29-2.84,0.881l-28.99,20c-1.1,0.764-1.85,1.939-2.08,3.26c-0.23,1.319,0.08,2.68,0.86,3.77l2.15,3
	c0.94,1.314,2.46,2.08,4.06,2.08c0.18,0,0.36-0.01,0.54-0.03c0.6-0.063,1.31-0.11,2.05-0.153c3.05-0.2,6.74-0.431,9.93-2.301
	c3.02-0.21,5.93-0.93,7.92-1.539c0.26,0.789,0.73,1.512,1.35,2.09c1.07,0.989,2.34,1.604,3.73,1.819c0.48,0.97,1.01,2.021,1.6,3.146
	c0.05,0.09,0.09,0.17,0.14,0.25c0.35,0.59,0.68,1.199,1.03,1.82c0.72,1.289,1.52,2.75,2.53,4.26c0.19,0.289,0.4,0.609,0.6,0.93
	c0.48,0.75,0.98,1.52,1.54,2.32l0.12,0.17l0.32,0.42l2.16,2.82c0.09,0.119,0.18,0.229,0.28,0.34l0.55,0.609
	c0.83,0.92,1.7,1.87,2.72,2.84c0.1,0.101,0.2,0.19,0.3,0.271l0.77,0.649c0.98,0.84,2.2,1.891,3.85,2.801
	c2.05,1.3,4.58,2.27,7.14,2.729c1.04,0.19,2.13,0.29,3.22,0.29c2.04,0,4.07-0.33,5.87-0.97c5.31-1.84,8.63-5.33,10.92-8.17
	c2.23-2.82,3.68-5.56,5.09-8.351l0.05-0.1c1.51-3.15,2.8-6.4,4.023-10.03c4.08-1.989,12.1-5.5,18.06-5.5c1.42,0,2.57,0.21,3.37,0.62
	c0.513,0.49,0.94,1.02,1.31,1.63c0.595,1.171,1.133,2.33,1.383,3.591l0.06,0.27c0.33,1.279,0.554,2.88,0.681,4.88
	c0.104,2.13,0.292,3.877,0.176,5.437c-0.011,0.05,0.008,0.063,0.008,0.113c-0.17,3.65-1.11,7.21-1.11,10.35v0.011
	c-1,0.46-0.409,0.899-0.5,1.34c-1.84,1.03-3.229,1.88-3.31,1.931c-2.16,1.439-2.94,4.279-1.69,6.56c0.56,1.06,1.08,2.53,1.19,3.239
	c-1.46,4.09,0.77,8.78,1.529,10.17c0.011,0.031,0.011,0.061,0.021,0.07c0.06,0.131,0.13,0.271,0.21,0.41
	c0.15,0.26,0.35,0.6,0.561,0.94c0.379,0.61,0.77,1.22,0.77,1.22c0.93,1.45,2.53,2.3,4.21,2.3c0.29,0,0.58-0.03,0.87-0.08l34.63-6.13
	c1.32-0.23,2.49-0.99,3.25-2.09s1.04-2.47,0.79-3.78l-0.71-3.61c-0.34-1.77-1.62-3.219-3.33-3.779
	c-0.569-0.189-1.229-0.439-1.93-0.71c-2.45-0.931-5.49-2.09-8.71-2.09c-0.44,0-0.86,0.02-1.26,0.069
	c-2.181-0.819-4.4-1.33-6.271-1.649l0.06-0.33l0.03-0.149c0.601-3.591,1.34-8.051,1.56-13.08c0.15-2.32,0.15-4.9-0.02-7.881v-0.08
	c-0.23-3.33-0.65-6.08-1.311-8.64c-0.64-2.88-1.84-5.931-3.569-9.09l-0.06-0.13c-1.791-3.061-4.19-5.83-6.931-8
	c-2.521-2.03-5.5-3.601-8.819-4.641c-0.98-0.32-1.98-0.58-3-0.8c0.239-0.54,0.47-1.09,0.709-1.64l0.09-0.221
	c0.341-0.92,0.631-1.869,0.9-2.819c0.18-0.06,0.36-0.14,0.53-0.22c0.75-0.371,1.38-0.82,1.851-1.49
	c3.989,1.65,7.869,2.609,11.77,2.609h0.311c3.329,0,6.59-0.66,9.42-1.729c3.229-1.11,5.819-2.851,7.939-4.37
	c0.1-0.08,0.21-0.18,0.311-0.27l0.529-0.461c0.75-0.629,1.54-1.3,2.29-2c0.08-0.069,0.149-0.149,0.229-0.22l0.971-1.03
	c0.43-0.459,0.859-0.91,1.279-1.35c0.11-0.109,0.201-0.22,0.301-0.34l0.35-0.44c1.19-1.48,2.42-3.01,3.4-4.6
	c0.34-0.5,0.65-0.98,0.949-1.45c0.25-0.05,0.511-0.11,0.761-0.19c2.63-0.82,11.229-3.86,14.06-9.26c1.061-2.06,1.271-4.28,0.6-6.41
	L212.52,106.25z M105.61,118.178v-0.008l0.07-0.11c0.21-0.34,0.31-0.41,0.35-0.44c0.07-0.05,0.14-0.09,0.2-0.14
	c0.32-0.24,0.9-0.52,1.67-0.77l0.38,2.67c0.02,0.14,0.05,0.29,0.09,0.43c-0.9-0.49-1.9-0.81-2.97-0.922
	C105.47,118.628,105.55,118.328,105.61,118.178z M124.7,125.451v-0.01l-0.05,0.66c-0.02,0.11-0.08,0.34-0.13,0.51
	c-0.07,0.26-0.16,0.55-0.23,0.88c-0.17,0.38-0.32,0.73-0.44,1.04c-0.11,0.25-0.2,0.479-0.29,0.67c-0.47,0.72-0.91,1.43-1.31,2.13
	l-0.86,1.021l-0.72,0.859l-0.06,0.061l-0.59,0.739l-0.17,0.16l-0.47,0.431l-0.05,0.049c-0.58,0.551-1.09,1.031-1.51,1.44
	c-0.83,0.81-1.43,1.261-1.43,1.261c-0.96,0.93-1.66,2.199-1.66,3.539v0.131c-2,2.77-4.26,7.109-4.26,12.039
	c0,2.771,0.62,5.461,1.64,7.791c-0.03,0.09-0.02,0.18-0.05,0.27c-1.26,4.199-2.6,7.779-4.13,10.93c-0.87,1.69-1.79,3.41-2.72,4.54
	l-0.08,0.101c-0.17,0.229-0.33,0.41-0.49,0.58c-0.03-0.021-0.05-0.051-0.08-0.07c-0.2-0.18-0.41-0.35-0.62-0.52
	c-0.31-0.311-0.63-0.671-0.98-1.051l-0.63-0.689l-0.63-0.83l-1.01-1.351l-1.36-2.11l-0.26-0.399l-0.03-0.05
	c-0.6-0.891-1.17-1.95-1.72-2.96c-0.33-0.601-0.66-1.22-1.01-1.82c-1.86-3.68-3.01-6.101-3.72-7.8c-0.01-0.03-0.02-0.061-0.04-0.09
	l-0.01-0.03c0.2-1.72-0.49-3.479-1.96-4.58c-0.95-0.729-2.06-1.84-2.46-2.45c-0.04-0.52-0.14-1.029-0.28-1.52l0.18,0.029
	c1.18,0.19,2.22,0.28,3.18,0.28c2.2,0,4-0.51,5.37-1.5c2.03-0.1,4.39-0.31,5.78-0.72c0.86-0.26,5.24-1.68,7.26-4.28
	c0.28-0.36,0.89-1.14,1.37-3.09c0.48-0.38,0.94-0.83,1.34-1.36c1.04-1.379,2.1-3.8,1.26-7.47c-0.15-0.659-0.26-1.37-0.39-2.12
	c-0.29-1.78-0.6-3.61-1.42-5.3c0.49,0.15,1,0.23,1.52,0.23l-0.06,0.03c0.38,0,0.77-0.04,1.15-0.13l9.53-2.25l0.12,0.33
	c0.09,0.24,0.18,0.52,0.3,0.81c0.07,0.3,0.14,0.57,0.2,0.81c0.04,0.16,0.1,0.38,0.12,0.5c0,0.31,0.03,0.63,0.09,0.93
	c0.01,0.14-0.021,0.51-0.04,0.78V125.451z M143.832,40.161c1.284,0,2.616,0.05,4,0.15c0,0,14.957,2.26,16.415,7.48
	c0.11,0.4,0.16,0.83,0.185,1.28c0.19-0.01,0.37-0.01,0.541-0.01c8.899,0,10.439,8.46,10.439,11.23c0,1.99-2.15,7.66-3.52,11.06
	l0.037,0.01l-0.41,1.18c2.41,1.03,4.17,4.22,4.17,8c0,7.47-4.58,8.35-7.811,8.35c-0.08,0-0.15-0.02-0.23-0.02
	c-0.039,14.65-12.709,17.29-20.39,17.68l-1.92,1.6c0.92,1.29,1.7,2.83,2.511,4.39l8,6.32l-0.261,1.39c1.17,0.81,2.4,1.6,3.7,2.3
	c2.92,1.56,6.17,2.67,9.16,2.67c0.119,0,0.23,0,0.359-0.01c1.541-0.04,3.03-0.28,4.41-0.89c1.4-0.5,2.68-1.41,3.92-2.31
	c0.59-0.54,1.15-1.07,1.721-1.59c0.52-0.6,1.05-1.17,1.56-1.74c0.931-1.27,1.86-2.42,2.56-3.67c0.771-1.17,1.4-2.34,1.931-3.4
	c0.569-1.03,1.01-1.97,1.34-2.77l0.25-0.56c-1.97-2.63-3.42-4.81-3.42-4.81c-2.54-3.63,1.63-5.38,4.94-8.1
	c1.1-0.91,2.01-1.21,2.729-1.21c1.45,0,2.16,1.21,2.16,1.21s2.13-0.79,3.14-0.79c0.1,0,0.18,0.01,0.25,0.02
	c1.32,0.26,3.48,2.11,4.41,3.09c1.17,1.24,3.57,5.8,3.57,5.8s0.16-0.09,0.42-0.09c0.619,0,1.85,0.55,3.04,4.31
	c1.69,5.33-11.421,9.4-11.421,9.4c-0.129,0.04-0.26,0.06-0.409,0.06c-0.431,0-0.931-0.19-1.479-0.51l-0.021,0.03
	c-0.67,1.23-1.46,2.62-2.479,4.09c-0.921,1.49-2.181,3.03-3.48,4.65c-0.74,0.77-1.49,1.57-2.26,2.38c-0.84,0.77-1.75,1.53-2.66,2.3
	c-1.98,1.42-4.17,2.91-6.73,3.779c-2.42,0.931-5.119,1.431-7.72,1.431h-0.261c-5.449,0-10.279-2.12-14.17-4.32
	c-0.319-0.18-0.609-0.41-0.909-0.59l-0.81,4.34l-2.031-1.04l-0.029,0.25c-0.57,2.23-1.09,4.53-1.83,6.55
	c-0.82,1.94-1.66,3.811-2.49,5.58c-0.449,0.771-0.91,1.23-1.35,2.23h0.3c0.681,0,1.38,0.02,2.12,0.06c2.09,0.13,4.4,0.51,6.82,1.27
	c2.41,0.761,4.959,1.98,7.22,3.791c2.271,1.789,4.25,4.08,5.72,6.6c1.38,2.52,2.51,5.21,3.09,7.85c0.69,2.66,1.01,5.28,1.19,7.82
	c0.14,2.53,0.18,5.01,0.021,7.34c-0.201,4.711-0.891,8.92-1.49,12.53c-0.36,1.8-0.69,3.44-1,4.88c0.319,0.36,0.74,0.68,1.289,0.9
	c0,0,5.78,0.289,10.221,2.33l-0.02,0.01c0.609-0.16,1.239-0.24,1.879-0.24c3.07,0,6.36,1.65,9.061,2.55l0.699,3.61l-34.629,6.061
	c0,0-1.45-2.4-1.381-2.4l-0.01,0.08c0,0-2.17-3.98-1.15-6.271c1.021-2.29-1.6-7.11-1.6-7.11s2.16-1.42,4.85-2.789
	c0.25-1.141,0.511-2.37,0.791-3.7c0.56-3.25,1.22-7.06,1.399-11.06c0.15-2.011,0.13-4.041,0.03-6.061
	c-0.12-2.02-0.35-4.02-0.83-5.859c-0.38-1.91-1.13-3.511-1.891-5.011c-0.779-1.33-1.699-2.41-2.729-3.3
	c-1.74-1.11-3.94-1.561-6.34-1.561c-8.021,0-18.39,5-22.18,6.98c-1.08,3.46-2.47,7.32-4.41,11.391
	c-1.23,2.439-2.54,4.959-4.53,7.469c-1.96,2.44-4.53,5.15-8.69,6.591c-1.3,0.46-2.77,0.69-4.21,0.69c-0.79,0-1.57-0.07-2.32-0.201
	c-2.08-0.379-4.021-1.17-5.48-2.119c-1.65-0.891-2.75-1.99-4.01-3.021c-1.11-1.069-2.07-2.159-3.05-3.229l-2.5-3.2
	c-0.74-1.07-1.4-2.13-2.07-3.16c-1.36-2.05-2.34-4.04-3.41-5.851c-1.229-2.399-2.29-4.529-3.14-6.33
	c-0.63,0.351-1.24,0.541-1.8,0.541c-0.52,0-1.01-0.17-1.43-0.561c0,0-0.61-3.96-3.86-3.96c-0.05,0-0.1,0.24-0.16,0.25
	c0,0-5.37,2.37-10.25,2.37h-0.03l0.02-0.26c-2.83,2.35-7.5,1.949-10.92,2.32l-2.14-3.061l28.96-20c0,0,2.29,1.471,2.22,1.52
	l0.02-0.02c0,0,3.65,2.75,3.68,5.25c0.04,2.5,4.43,5.8,4.43,5.8s-0.16,0.261-0.45,0.69l0.86,1.93c0.86,2.07,2.24,4.9,3.93,8.26
	c0.93,1.58,1.82,3.43,2.96,5.15c0.56,0.859,1.13,1.76,1.72,2.67l1.91,2.53c0.69,0.739,1.38,1.54,2.08,2.239
	c0.71,0.551,1.44,1.32,2.09,1.61c0.97,0.58,1.61,0.8,2.16,0.8c0.26,0,0.5-0.05,0.75-0.13c0.86-0.239,2.26-1.33,3.48-2.89
	c1.27-1.53,2.35-3.54,3.35-5.48c1.94-3.99,3.39-8.13,4.46-11.72c0.24-0.78,0.45-1.53,0.66-2.26c-1.19-1.86-1.93-4.42-1.93-7.25
	c0-5.49,2.78-9.96,6.27-10.229L120,140.9c0,0,0.46-0.44,1.28-1.24l1.492-1.41c0.296-0.27,0.606-0.561,0.94-0.87
	c0.25-0.319,0.52-0.649,0.8-1c0.58-0.69,1.2-1.44,1.865-2.229c0.45-0.801,0.96-1.631,1.53-2.49c0.45-0.85,0.7-1.71,1.17-2.6
	c0.12-0.86,0.521-1.75,0.569-2.641c0.051-0.88,0.19-1.78,0.021-2.69c0.04-0.92-0.351-1.84-0.5-2.77c-0.399-0.91-0.59-1.85-1.12-2.7
	c-0.4-0.88-0.91-1.7-1.41-2.45c-0.06-0.1-0.13-0.18-0.2-0.28l-13.18,3.11l-1.11-7.64c-0.94,0.04-1.88,0.11-2.82,0.26
	c-2.37,0.33-4.65,1.1-6.12,2.22c-0.78,0.54-1.31,1.19-1.75,1.91c-0.49,0.68-0.72,1.59-0.96,2.49l-0.22,1.46
	c-0.02,0.53-0.03,1.04-0.04,1.54c0.07,1.05,0.09,2.05,0.29,3.03l0.06,0.39c1.82-0.29,3.05-0.44,3.05-0.44
	c0.29-0.04,0.55-0.06,0.8-0.06c3.55,0,3.34,4.21,4.22,8.12c0.95,4.173-2.2,4.36-2.2,4.36s-0.3,2.692-0.83,3.38
	c-0.83,1.06-3.46,2.16-4.75,2.55c-1.63,0.49-6.79,0.59-6.79,0.59s0.14,1.431-2.93,1.431c-0.65,0-1.44-0.07-2.4-0.221
	c-5.52-0.88-3.27-14.439-3.27-14.439c0.16-1.13,2.01-2.11,4.47-2.92c-0.06-0.38-0.12-0.77-0.17-1.19c-0.24-1.32-0.31-2.87-0.36-4.5
	c0.03-0.84,0.06-1.7,0.1-2.59c0.13-0.91,0.23-1.84,0.44-2.8c0.49-1.91,1.13-3.96,2.37-5.84c1.18-1.88,2.77-3.61,4.56-4.85
	c3.6-2.58,7.52-3.59,10.91-4.06c0.97-0.13,1.9-0.22,2.8-0.27l-0.5-3.47c3.75-1.33,6.86-1.9,9.45-1.9c1.35,0,2.56,0.16,3.64,0.44
	c-0.69-1.93-1.08-4.19-1.084-6.85c-0.22,0.04-0.46,0.07-0.71,0.07c-3.24,0-7.81-0.864-7.81-8.35c0-3.93,1.9-7.22,4.46-8.11
	c-1.84-3.65-4.624-10.43-2.492-14.692c0,0,0.47-0.713-0.22-0.713c-0.38,0-1.13,0.23-2.52,0.92c0,0.01,6.6-17.77,31.09-17.77"/>
<path d="M191.582,206.102c-3.25-1.08-7.38-3.27-10.939-2.31h-0.039v-0.002l0.021-0.007c-4.435-2.04-10.21-2.338-10.21-2.338
	c-0.559-0.23-0.975-0.545-1.29-0.906c0.312-1.45,0.646-3.09,1.003-4.891c0.598-3.609,1.293-7.83,1.49-12.529
	c0.152-2.33,0.119-4.811-0.02-7.34c-0.183-2.551-0.498-5.17-1.188-7.82c-0.58-2.65-1.71-5.34-3.09-7.859
	c-1.471-2.521-3.452-4.811-5.721-6.601c-2.262-1.81-4.81-3.03-7.22-3.79c-2.415-0.77-4.728-1.141-6.813-1.279
	c-3.645-0.221-6.627,0.139-8.854,0.529l-2.453-3.6h-9.85c-1.16-1.59-2.68-2.551-4.34-2.551c-3.64,0-6.59,4.59-6.59,10.25
	c0,2.791,0.72,5.33,1.89,7.181c-0.21,0.75-0.44,1.53-0.68,2.34c-1.08,3.6-2.52,7.729-4.46,11.72c-0.99,1.94-2.08,3.95-3.34,5.48
	c-1.22,1.56-2.61,2.649-3.47,2.89c-0.78,0.25-1.49,0.181-2.91-0.67c-0.66-0.29-1.38-1.05-2.09-1.61c-0.7-0.699-1.39-1.5-2.08-2.24
	l-1.91-2.539l-1.72-2.67c-1.13-1.711-2.03-3.58-2.96-5.16c-1.69-3.36-3.07-6.19-3.93-8.26l-0.84-1.9
	c0.29-0.45,0.46-0.721,0.46-0.721s-4.4-3.31-4.43-5.81c-0.03-2.5-3.68-5.25-3.68-5.25l-0.02,0.011c0.07-0.061-2.22-1.541-2.22-1.541
	l-28.94,20l2.14,2.99c3.41-0.369,8.08-0.1,10.92-2.449l-0.03,0.02c4.89,0.01,10.27-2.13,10.27-2.13c3.38-0.13,4.01,3.95,4.01,3.95
	c0.87,0.81,2,0.689,3.22,0.029c0.85,1.801,1.91,3.93,3.14,6.311c1.06,1.8,2.05,3.789,3.41,5.84c0.68,1.02,1.33,2.09,2.08,3.15
	c0.81,1.049,1.64,2.14,2.48,3.229c0.98,1.069,1.94,2.16,3.05,3.229c1.26,1.03,2.35,2.121,4.01,3.021c1.45,0.94,3.4,1.729,5.48,2.11
	c2.11,0.38,4.51,0.229,6.53-0.48c4.16-1.439,6.72-4.16,8.69-6.6c1.98-2.5,3.29-5.021,4.52-7.461c1.94-4.06,3.33-7.92,4.41-11.379
	c4.871-2.541,20.621-10.08,28.28-5.57c1.12,0.92,2.13,2.07,2.96,3.49c0.75,1.5,1.51,3.109,1.891,5.01
	c0.47,1.84,0.699,3.84,0.83,5.85c0.1,2.02,0.119,4.051-0.03,6.061c-0.19,3.99-0.841,7.81-1.4,11.05c-0.28,1.33-0.54,2.56-0.79,3.69
	c-2.68,1.369-4.82,2.789-4.82,2.789s2.621,4.84,1.61,7.12c-1.01,2.28,1.16,6.3,1.16,6.3h0.021c-0.09,0.021,1.38,2.32,1.38,2.32
	l34.63-6.13l-0.7-3.61L191.582,206.102z"/>
<path fill="#F2C49C" d="M207.689,107.765c-1.689-5.332-3.459-4.213-3.459-4.213s-2.41-4.56-3.57-5.8
	c-0.93-0.98-3.09-2.837-4.41-3.09c-0.857-0.17-3.4,0.77-3.4,0.77s-1.58-2.733-4.89-0.012c-3.31,2.72-7.49,4.468-4.94,8.096h0.025
	c0,0,1.45,2.187,3.425,4.812l-0.243,0.55c-0.334,0.8-0.775,1.74-1.34,2.77c-0.529,1.05-1.154,2.22-1.924,3.4
	c-0.708,1.252-1.63,2.398-2.561,3.664c-0.502,0.566-1.027,1.144-1.553,1.738c-0.57,0.52-1.15,1.05-1.73,1.588
	c-1.23,0.905-2.52,1.81-3.92,2.31c-1.381,0.606-2.87,0.848-4.41,0.886c-3.09,0.094-6.48-1.042-9.52-2.666
	c-3.051-1.64-5.78-3.708-7.98-5.656c-2.221-1.937-3.939-3.747-5.08-5.027l-1.29-1.49l-0.42-0.505h-0.021l0.011-0.03l-7.16,5.44
	l0.53,0.7c0.35,0.41,0.84,1.03,1.479,1.81c1.28,1.52,3.17,3.63,5.681,5.96c2.51,2.33,5.649,4.91,9.539,7.169
	c3.891,2.199,8.721,4.17,14.17,4.229c2.69,0.03,5.48-0.38,7.98-1.34c2.561-0.87,4.75-2.27,6.73-3.689
	c0.89-0.771,1.819-1.531,2.66-2.301c0.779-0.81,1.529-1.6,2.27-2.37c1.3-1.62,2.56-3.16,3.48-4.65c1.02-1.47,1.81-2.86,2.469-4.09
	l0.011-0.02c0.739,0.434,1.39,0.623,1.899,0.453c0,0.01,13.11-4.06,11.42-9.39L207.689,107.765z M122.91,112.1l0.05-0.05v-0.01
	l0.002-0.005c-0.005,0-0.017-0.004-0.035-0.01L122.91,112.1L122.91,112.1z M124.7,101.87l-1.74-0.35c-1.48-0.27-3.58-0.61-6.17-0.8
	c-2.59-0.19-5.65-0.27-9.09,0.21c-3.39,0.47-7.32,1.48-10.91,4.06c-1.8,1.24-3.39,2.979-4.56,4.85c-1.24,1.88-1.88,3.92-2.37,5.84
	c-0.2,0.96-0.31,1.89-0.44,2.8l-0.11,2.59c0.06,1.63,0.12,3.18,0.36,4.5c0.05,0.4,0.11,0.778,0.17,1.146
	c-2.44,0.815-4.272,1.792-4.434,2.91c0,0-2.25,13.558,3.275,14.437c5.53,0.881,5.33-1.207,5.33-1.207s5.16-0.1,6.79-0.59
	c1.3-0.39,3.92-1.49,4.75-2.556c0.54-0.688,0.84-3.385,0.84-3.385s3.16-0.185,2.21-4.36c-0.94-4.178-0.63-8.7-5.02-8.05h-0.02
	c0,0-1.24,0.15-3.06,0.437l-0.06-0.37c-0.2-0.98-0.22-1.98-0.29-3.03l0.04-1.54l0.22-1.46c0.24-0.9,0.47-1.81,0.96-2.5
	c0.44-0.72,0.97-1.37,1.75-1.91c1.47-1.13,3.75-1.89,6.12-2.23c2.37-0.368,4.8-0.348,6.88-0.228c2.09,0.127,3.85,0.39,5.05,0.594
	c1.12,0.194,1.63,0.316,1.77,0.35l2.43-9.996l-0.66-0.16L124.7,101.87z"/>
<path fill="#082031" d="M155.833,118.877l-7.996-6.328c-0.88-1.7-1.718-3.38-2.733-4.73c-1.047-1.6-2.144-2.97-3.203-4.18
	c-2.109-2.43-4.049-4.17-5.52-5.36c-0.68-0.57-1.39-1.11-1.9-1.48l-0.59-0.41l-3.77,5.07c-2.47-5.02-7.99-8.67-20.07-4.35
	l3.12,21.55l13.24-3.13c0.06,0.08,0.12,0.16,0.18,0.25c0.5,0.75,1,1.57,1.41,2.45c0.521,0.85,0.72,1.79,1.11,2.7
	c0.149,0.94,0.539,1.86,0.5,2.78c0.18,0.91,0.029,1.82-0.021,2.7c-0.04,0.89-0.45,1.78-0.569,2.64
	c-0.471,0.891-0.721,1.75-1.17,2.61c-0.57,0.86-1.08,1.68-1.53,2.489c-0.66,0.791-1.29,1.551-1.87,2.24l-0.8,1
	c-0.33,0.301-0.64,0.601-0.94,0.87l-1.5,1.42c-0.81,0.79-1.28,1.24-1.28,1.24l17.57,17.74l1.79-2.17l2.02-2.49
	c0.391-0.479,0.801-0.99,1.23-1.53l1.25-1.939c0.87-1.36,1.8-2.82,2.73-4.41c0.83-1.77,1.67-3.65,2.489-5.59
	c0.74-2.021,1.271-4.33,1.83-6.551l0.03-0.25l2.029,1.021l2.961-15.91L155.833,118.877z M133.88,96.4h-0.01l0.014,0.01l0.037-0.05
	L133.88,96.4z"/>
<path fill="#E2B593" d="M163.967,80.536c0,4.61,0.67,8.35,3.903,8.35s7.812-0.865,7.812-8.35c0-4.614-2.623-8.356-5.854-8.356
	C166.588,72.18,163.968,75.922,163.967,80.536L163.967,80.536z"/>
<path fill="#C69C6D" d="M164.938,80.5c0.015-1.29,0.28-2.76,0.914-4.012c0.32-0.64,0.729-1.26,1.304-1.794
	c0.569-0.523,1.388-0.974,2.329-0.984c0.357,0.033,0.285,0.003,0.621,0.072c0.273,0.057,0.506,0.138,0.689,0.228
	c0.4,0.176,0.73,0.428,1.03,0.685c0.567,0.534,0.28,1.153,0.6,1.794c0.64,1.28,0.21,2.66,0.21,4.04v0.14c0,0.9-0.01,1.65-0.92,1.66
	c-0.9,0.01-1.29-0.72-1.29-1.62c0-0.07,0.181-0.14,0.181-0.2c0.109-0.92,0.119-1.91-0.181-2.75c-0.28-0.87-0.8-1.42-0.96-1.48
	c-0.09-0.06-0.33-0.05-0.66,0.17c-0.31,0.22-1.25,0.58-1.529,1c-0.551,0.89-1.62,1.87-1.62,3.07v0.05c0,0.53,0.09,0.92-0.44,0.86
	c-0.5-0.05-0.238-0.48-0.238-0.98l-0.037,0.04v0.01L164.938,80.5z M150.673,103.687l-9.542,7.985l-5.65-8.18"/>
<path fill="#E2B593" d="M125.226,80.536c0,4.61-0.668,8.35-3.905,8.35c-3.23,0-7.81-0.865-7.81-8.35c0-4.614,2.63-8.356,5.86-8.356
	s5.86,3.742,5.86,8.356H125.226z"/>
<path fill="#C69C6D" d="M124.254,80.5c-0.013-1.29-0.28-2.76-0.915-4.012c-0.32-0.64-0.73-1.26-1.3-1.794
	c-0.58-0.523-1.39-0.974-2.34-0.984c-0.36,0.033-0.29,0.003-0.62,0.072c-0.28,0.057-0.51,0.138-0.69,0.228
	c-0.41,0.176-0.73,0.428-1.03,0.685c-0.58,0.534-0.76,1.153-1.08,1.794c-0.64,1.28-0.68,2.66-0.68,4.04v0.14
	c0,0.9,0.48,1.65,1.39,1.66c0.91,0.01,1.54-0.72,1.55-1.62c0-0.07-0.07-0.14-0.07-0.2c-0.1-0.92-0.05-1.91,0.24-2.75
	c0.27-0.87,0.83-1.42,0.98-1.48c0.1-0.06,0.35-0.05,0.68,0.17c0.31,0.22,0.64,0.58,0.91,1c0.55,0.89,0.87,1.87,1,3.07l0.01,0.05
	c0.05,0.53,0.53,0.92,1.06,0.86c0.5-0.05,0.87-0.48,0.87-0.98l0.03,0.04v0.01L124.254,80.5z"/>
<path fill="#F2C49C" d="M167.645,88.785c0,16.41-15.77,17.827-22.805,17.827c-8.007,0-22.803-1.417-22.803-17.827
	c0-16.415-1.698-37.484,22.803-37.484c24.74,0,22.805,21.07,22.805,37.49V88.785z"/>
<path fill="#333333" d="M117.75,70.55l4.366,12.614l6.308-14.72 M171.926,71.357l-4.152,11.807l-6.31-14.72"/>
<path fill="#F5F5F5" d="M140.618,80.508c0,3.752-3.033,6.792-6.787,6.792c-3.74,0-6.78-3.04-6.78-6.792
	c0-3.746,3.04-6.782,6.79-6.782c3.78,0,6.79,3.036,6.79,6.782h-0.01H140.618z"/>
<circle fill="#333333" cx="133.893" cy="80.349" r="4.712"/>
<path fill="#F5F5F5" d="M163.91,80.508c0,3.752-3.04,6.792-6.79,6.792s-6.79-3.04-6.79-6.792c0-3.746,3.04-6.782,6.79-6.782
	S163.91,76.762,163.91,80.508z"/>
<circle fill="#333333" cx="157.182" cy="80.349" r="4.712"/>
<g>
	<defs>
		<path id="SVGID_1_" d="M147.62,78.38v12.707c0,0-0.422,2.185-3.576,3.153l0.46-3.153l-0.546-12.82"/>
	</defs>
	<clipPath id="SVGID_2_">
		<use xlink:href="#SVGID_1_"  overflow="visible"/>
	</clipPath>
	<path clip-path="url(#SVGID_2_)" fill="#FF585D" d="M144.62,92.38h3v3h-3V92.38z"/>
</g>
<g>
	<defs>
		<path id="SVGID_3_" d="M147.62,78.38v12.707c0,0-0.422,2.185-3.576,3.153l0.46-3.153l-0.546-12.82"/>
	</defs>
	<clipPath id="SVGID_4_">
		<use xlink:href="#SVGID_3_"  overflow="visible"/>
	</clipPath>
	<path clip-path="url(#SVGID_4_)" fill="#FF595E" d="M144.62,91.38h3v1h-3V91.38z"/>
</g>
<g>
	<defs>
		<path id="SVGID_5_" d="M147.62,78.38v12.707c0,0-0.422,2.185-3.576,3.153l0.46-3.153l-0.546-12.82"/>
	</defs>
	<clipPath id="SVGID_6_">
		<use xlink:href="#SVGID_5_"  overflow="visible"/>
	</clipPath>
	<path clip-path="url(#SVGID_6_)" fill="#FF5B5F" d="M144.62,88.38h3v3h-3V88.38z"/>
</g>
<g>
	<defs>
		<path id="SVGID_7_" d="M147.62,78.38v12.707c0,0-0.422,2.185-3.576,3.153l0.46-3.153l-0.546-12.82"/>
	</defs>
	<clipPath id="SVGID_8_">
		<use xlink:href="#SVGID_7_"  overflow="visible"/>
	</clipPath>
	<path clip-path="url(#SVGID_8_)" fill="#FF5C60" d="M144.62,86.38h3v2h-3V86.38z"/>
</g>
<g>
	<defs>
		<path id="SVGID_9_" d="M147.62,78.38v12.707c0,0-0.422,2.185-3.576,3.153l0.46-3.153l-0.546-12.82"/>
	</defs>
	<clipPath id="SVGID_10_">
		<use xlink:href="#SVGID_9_"  overflow="visible"/>
	</clipPath>
	<path clip-path="url(#SVGID_10_)" fill="#FF5E62" d="M144.62,83.38h3v3h-3V83.38z"/>
</g>
<g>
	<defs>
		<path id="SVGID_11_" d="M147.62,78.38v12.707c0,0-0.422,2.185-3.576,3.153l0.46-3.153l-0.546-12.82"/>
	</defs>
	<clipPath id="SVGID_12_">
		<use xlink:href="#SVGID_11_"  overflow="visible"/>
	</clipPath>
	<path clip-path="url(#SVGID_12_)" fill="#FF5F63" d="M144.62,81.38h3v2h-3V81.38z"/>
</g>
<g>
	<defs>
		<path id="SVGID_13_" d="M147.62,78.38v12.707c0,0-0.422,2.185-3.576,3.153l0.46-3.153l-0.546-12.82"/>
	</defs>
	<clipPath id="SVGID_14_">
		<use xlink:href="#SVGID_13_"  overflow="visible"/>
	</clipPath>
	<path clip-path="url(#SVGID_14_)" fill="#FF6064" d="M144.62,78.38h3v3h-3V78.38z"/>
</g>
<path fill="#333333" d="M141.91,92.834c-0.825,0.262-1.275,1.138-1.016,1.958c0.209,0.663,0.822,1.085,1.484,1.085v-0.008h-0.02
	l-0.01-0.01c0.159,0,0.549-0.02,0.699-0.07c4.7-1.5,4.551-4.72,4.551-4.72V78.95c0-0.86-0.92-1.55-1.781-1.55
	c-0.859,0-1.779,0.694-1.779,1.557l0.01,12.27c0,0.32-0.46,1.064-2.15,1.607H141.91z M153.594,95.28
	c-10.344,5.28-17.484,0.33-17.789,0.124c-0.69-0.504-1.666-0.35-2.171,0.348c-0.508,0.698-0.35,1.67,0.343,2.178
	c0.237,0.172,4.095,2.9,10.211,2.9v-0.01c3.086,0,6.752-0.69,10.822-2.77c0.768-0.39,1.073-1.32,0.678-2.09
	C155.294,95.19,154.357,94.89,153.594,95.28z M175.404,60.29c0-2.82-1.596-11.563-10.967-11.22c-0.021-0.45-0.072-0.884-0.185-1.284
	c-1.46-5.216-16.42-7.476-16.42-7.476c-27.778-2.063-35.094,17.63-35.094,17.63c3.88-1.943,2.74-0.203,2.74-0.203
	c-3.03,6.065,3.88,17.223,3.88,17.223l2.18-3.52l0.67-0.083c0.02,0.13,0.04,0.26,0.09,0.388c0.5,1.475,2.1,2.267,3.58,1.77
	l0.47-0.16l2.08-0.697c0.62-0.27,1.43-0.246,2.27-0.416c0.83-0.203,1.79-0.035,2.73-0.078c0.469-0.026,0.939,0.092,1.409,0.144
	c0.47,0.062,0.931,0.132,1.38,0.202c0.87,0.233,1.73,0.37,2.41,0.63c1.42,0.43,2.21,0.847,2.27,0.862V74l-0.039-0.03
	c0.74,0.43,1.699,0.17,2.119-0.58c0.431-0.74,0.181-1.69-0.569-2.12c0.05,0.05-0.96-0.68-2.479-1.4
	c-0.75-0.41-1.681-0.72-2.671-1.14c-0.5-0.18-1.04-0.32-1.579-0.48c-0.4-0.11-0.801-0.232-1.211-0.324
	c6.631-3.084,12.86-7.235,12.86-7.235l-7.12,7.27c10.311-0.68,16.71-5.02,19.58-7.49c0.16,1.98,0.5,4.56,1.18,6.96
	c-0.39,0.01-0.779,0.02-1.189,0.01c-1.11-0.06-2.271,0.27-3.43,0.42c-0.591,0.06-1.131,0.28-1.681,0.42
	c-0.54,0.17-1.08,0.31-1.59,0.479c-0.99,0.42-1.931,0.73-2.681,1.15c-1.529,0.73-2.539,1.45-2.479,1.41h0.021l0.05,0.04
	c-0.75,0.42-1.011,1.38-0.58,2.12c0.42,0.75,1.38,1.01,2.12,0.58c0.06-0.02,0.84-0.44,2.26-0.87c0.68-0.26,1.54-0.39,2.41-0.63
	c0.449-0.07,0.91-0.14,1.38-0.2c0.47-0.05,0.94-0.17,1.41-0.15c0.94,0.05,1.89-0.12,2.729,0.08c0.84,0.17,1.65,0.14,2.271,0.41
	l2.069,0.7l0.471,0.16c0.119,0.04,0.25,0.07,0.38,0.09c0.7,0.13,1.37-0.02,1.94-0.35l3.909,0.73c0,0,4.61-10.81,4.61-13.72
	L175.404,60.29z"/>
</svg>
