<svg xmlns="http://www.w3.org/2000/svg" width="256" height="256" viewBox="0 0 256 256"><path fill="#8C6239" d="M108.39 241.23c-1.522 0-3.055-.163-4.555-.48-11.82-2.497-19.41-14.15-16.917-25.98.092-.437.2-.875.32-1.3l.55-1.988.184-.292c.175-.48.448-1.27.763-2.344.626-2.11 1.502-5.5 2.14-9.73.763-4.872 2.042-17.302-2.5-27.988-.525-1.217-1.035-2.278-1.548-3.222l-.06-.117c-.145-.29-.31-.56-.475-.83-.137-.23-.273-.45-.406-.68l-.21-.36-.263-.37-.98-1.48c-1.468-2.27-2.316-3.79-3.213-5.4l-2.658-4.9c-3.216-6.15-6.036-11.94-8.412-17.28-2.225-4.99-4.062-9.58-5.31-13.29l-.21-.67c-.18-.57-.347-1.1-.497-1.59-7.916-15.54-23.21-53.83.825-81.33 17.966-20.56 47.613-24.87 69.32-24.87 18.766 0 35.22 3.34 40.91 5.71C186.09 25 186.442 37.88 185.86 44.39c12.23 4.11 18.01 17.91 17.37 30.57-.38 7.68-3.34 12.69-5.97 15.68 9.5 10.31 6.34 29.95 5.98 32.02-.64 5.39-2.34 10.157-5.05 14.17-2.16 3.976-17.98 30.606-53.13 30.606-2.91 0-5.93-.188-8.95-.556-.2-.02-5.38-.59-10.51-3.356-.31.316-.604.623-.88.915 2.04 4.75 3.648 9.75 4.79 14.88 1.59 7.09 2.41 14.58 2.448 22.26.027 5.28-.3 10.54-.975 15.65-.22 1.66-.47 3.22-.73 4.63 0 0-.41 1.93-.41 1.94-2.14 10.08-11.15 17.4-21.43 17.4z"/><path fill="#333" d="M134.28 18.77c18.442 0 34.192 3.246 39.37 5.403 11.634 4.846 7.76 23.268 7.76 23.268 12.606 1.94 18.417 15.52 17.82 27.35-.593 11.84-8.128 15.99-8.128 15.99 12.598 7.46 8.17 31.33 8.17 31.33-.615 5.31-2.297 9.45-4.52 12.68-1.646 3.1-16.268 28.69-49.71 28.69-2.698 0-5.524-.17-8.47-.52 0 0-6.462-.67-11.527-4.44-2.23 2.06-3.934 3.93-5.06 5.24 2.557 5.46 4.397 11.1 5.6 16.49 1.755 7.83 2.323 15.18 2.35 21.41.032 6.24-.452 11.41-.94 15.11-.246 1.86-.494 3.34-.697 4.42-.26 1.21-.395 1.86-.395 1.86-1.788 8.43-9.23 14.22-17.513 14.22-1.23 0-2.476-.13-3.726-.39-9.69-2.04-15.875-11.55-13.832-21.24.074-.35.162-.7.258-1.04l.387-1.39c.045-.15.027.03.254-.59.2-.53.5-1.4.85-2.58.7-2.36 1.61-5.92 2.26-10.26 1.36-8.64 1.38-20.39-2.77-30.14-.52-1.21-1.08-2.41-1.72-3.57-.29-.59-.65-1.13-.98-1.7l-.25-.42-.06-.11-.31-.43-.18-.27-.78-1.18c-1.42-2.2-2.24-3.67-3.15-5.3l-2.54-4.69c-3.21-6.14-6-11.88-8.27-16.99-2.27-5.09-4.03-9.53-5.17-12.93-.29-.94-.55-1.74-.77-2.47-7.79-15.18-22.37-51.48.11-77.2 16.12-18.5 43.3-23.54 66.29-23.54m0-8c-22.53 0-53.38 4.56-72.33 26.25-25.48 29.16-9.86 69-1.53 85.47.13.41.26.83.41 1.29l.19.58.03.08.03.08c1.29 3.82 3.17 8.54 5.45 13.64 2.41 5.41 5.27 11.28 8.49 17.44l.03.06.03.06 1.11 2.05c.48.88.96 1.77 1.44 2.66l.02.03.02.04.09.16c.89 1.6 1.81 3.24 3.33 5.59l.02.03.02.03.78 1.18.02.03.02.03.19.27.08.13.09.12.06.08.11.19c.15.25.29.49.44.74.13.2.28.45.32.54l.06.12.07.12c.45.83.91 1.78 1.39 2.9 2.87 6.76 3.7 16.38 2.22 25.76-.61 4.05-1.43 7.25-2.02 9.22-.26.89-.48 1.55-.63 1.98-.17.37-.32.76-.45 1.17l-.02.09-.02.09-.39 1.4c-.14.5-.27 1.02-.37 1.53-2.95 13.98 6.03 27.77 20.01 30.72 1.77.37 3.58.56 5.38.56 12.16 0 22.81-8.64 25.34-20.55.01-.04.14-.67.39-1.83l.02-.1.02-.1c.28-1.48.54-3.11.77-4.84.7-5.29 1.04-10.74 1.01-16.2-.03-7.96-.89-15.74-2.54-23.12-.64-2.88-1.42-5.72-2.34-8.51 2.33.63 4.07.85 4.61.91 3.17.39 6.33.58 9.39.58 36.92 0 53.87-27.68 56.55-32.52 2.99-4.48 4.87-9.74 5.59-15.65.59-3.33 3.2-20.97-4.83-32.64 2.39-3.56 4.52-8.59 4.86-15.45.67-13.25-5.05-27.61-17.16-33.39.23-9.18-2.5-20.5-13.34-25.01-7-2.91-24.26-6.01-42.45-6.01z"/><path fill="#E2AB74" d="M194.92 134.455s-16.536 33.574-58.347 28.482c0 0-18.18-1.885-17.453-17.12.73-15.237 48.723-23.717 48.723-23.717l27.076 12.355z"/><path fill="#FAC283" d="M91.478 213.152c.045-.148.027.027.254-.596.193-.53.496-1.406.842-2.586.7-2.363 1.604-5.928 2.256-10.26 1.355-8.64 1.375-20.39-2.77-30.148-.526-1.215-1.087-2.408-1.718-3.568-.297-.592-.656-1.13-.984-1.7l-.248-.425-.063-.12-.313-.43-.184-.28-.777-1.18c-1.426-2.21-2.238-3.67-3.15-5.31-.863-1.59-1.71-3.16-2.547-4.7-3.213-6.14-5.998-11.89-8.27-16.99-2.272-5.09-4.028-9.54-5.175-12.94-.56-1.8-1-3.14-1.27-4.34-.27-1.11-.41-1.7-.41-1.7-1.36-5.58 2.06-11.22 7.65-12.58 4-.98 8.02.5 10.48 3.46l3.34 4.03c.06.06.25.83 1.26 3.21 1.04 2.37 2.83 6.01 5.25 10.41 2.41 4.39 5.47 9.54 8.85 14.87.86 1.31 1.72 2.63 2.61 3.97.86 1.28 1.88 2.73 2.41 3.4l3.57 4.38c1.35 1.75 2.61 3.58 3.79 5.46 4.69 7.55 7.74 15.88 9.48 23.69 1.76 7.83 2.33 15.18 2.35 21.41.03 6.24-.45 11.41-.94 15.1-.24 1.85-.49 3.33-.7 4.42-.26 1.21-.39 1.85-.39 1.85-2.05 9.68-11.56 15.87-21.24 13.82-9.69-2.05-15.87-11.55-13.83-21.24.08-.35.16-.71.26-1.05l.39-1.4z"/><path fill="#fff" d="M119.12 215.414s-.97 10.564-5.09 12.51c-4.12 1.94-17.213-.15-18.424-5.24-1.207-5.092 2.674-12.115 2.674-12.115s5.573 8.68 20.84 4.84z"/><path fill="#FAC283" d="M103.845 141.896l14.545 23.824s21.938-30.31 54.9-19.506c0 0 23.273-.73 25.982-24.114 0 0 4.428-23.865-8.17-31.324 0 0 7.535-4.152 8.13-15.987.595-11.84-5.216-25.41-17.82-27.35 0 0 3.872-18.42-7.763-23.27-11.64-4.85-76.6-15.18-105.68 18.1-29.09 33.28 3.88 84.29 3.88 84.29l31.99 15.32z"/><path fill="#E2AB74" d="M176.497 99.678s-18.475-2.184-28.7-3.637c0 0 15.177-18.9 28.7 3.64zm-10.643-51.043s-18.287 3.396-28.477 5.045c0 0 8.776-22.604 28.477-5.045z"/><path fill="#8C6239" d="M164.62 128.97s1.557-24.498.822-49.01c-.342-12.248-1.077-24.48-2.5-33.522-.308-2.268-.603-4.33-1.026-6.133-.41-1.8-.634-3.413-1.08-4.65-.772-2.525-1.19-3.968-1.19-3.968l-.026-.106c-.146-.49.14-1.01.627-1.16.484-.14.99.12 1.156.59 0 0 .516 1.48 1.428 4.07.52 1.29.84 2.91 1.33 4.74.52 1.84.96 3.92 1.38 6.22 1.81 9.13 3.18 21.44 4.03 33.76 1.73 24.66 1.43 49.38 1.43 49.38-.02 1.6-1.6 2.9-3.21 2.88-1.61-.01-3.16-1.33-3.16-2.94V129zm-6 0s1.645-24.498.914-49.01c-.34-12.248-1.032-24.48-2.454-33.522-.307-2.268-.578-4.33-1.002-6.133-.412-1.8-.63-3.413-1.067-4.65-.77-2.525-1.18-3.968-1.18-3.968l-.02-.106c-.14-.49.15-1.01.63-1.16.48-.14.99.12 1.16.59l1.43 4.07c.51 1.29.84 2.91 1.33 4.74.51 1.84.96 3.92 1.38 6.22 1.81 9.13 3.19 21.44 4.03 33.76 1.73 24.66 1.43 49.38 1.43 49.38-.01 1.6-1.69 2.9-3.3 2.88-1.6-.01-3.24-1.33-3.24-2.94V129zm-12 0s1.828-24.498 1.092-49.01c-.338-12.248-.937-24.48-2.358-33.522-.303-2.268-.533-4.33-.96-6.133-.405-1.8.14-3.413-.306-4.65-.77-2.525-.47-3.968-.47-3.968v-.107c0-.492-.59-1.018-.102-1.165.484-.146.63.116.796.586 0 0 .334 1.48 1.244 4.07.514 1.29.743 2.91 1.24 4.74.51 1.84.912 3.93 1.326 6.22 1.81 9.13 3.164 21.44 4.004 33.76 1.73 24.66 1.42 49.38 1.42 49.38-.016 1.61-1.887 2.9-3.49 2.88-1.61-.01-3.438-1.33-3.438-2.94v-.12zm-11 0s1.512-24.498.78-49.01c-.343-12.248-1.104-24.48-2.522-33.522-.307-2.268-.613-4.33-1.04-6.133-.41-1.8-.64-3.413-1.084-4.65-.77-2.525-1.19-3.968-1.19-3.968l-.03-.106c-.146-.49.14-1.01.626-1.16.482-.14.992.12 1.154.59 0 0 .518 1.48 1.428 4.07.508 1.29.833 2.91 1.33 4.74.51 1.84.962 3.92 1.374 6.22 1.807 9.13 3.182 21.44 4.023 33.76 1.72 24.66 1.43 49.38 1.43 49.38-.02 1.6-1.56 2.9-3.17 2.88-1.61-.01-3.11-1.33-3.11-2.94V129zm-16.87-.712s1.755-5.62 3.67-14.428c1.894-8.773 3.853-20.63 4.54-32.6.29-5.982.342-11.975 0-17.57-.273-2.783-.336-5.513-.75-8.044-.412-2.533-.676-4.96-1.137-7.15l-1.393-5.957c-.398-1.78-1.037-3.24-1.41-4.49-.844-2.48-1.32-3.9-1.32-3.9l-.03-.1c-.163-.49.1-1.02.59-1.19.472-.16.985.09 1.163.55l1.51 3.93c.44 1.27 1.158 2.75 1.64 4.56.5 1.8 1.064 3.83 1.683 6.04.56 2.23.94 4.69 1.46 7.28.528 2.58.708 5.35 1.1 8.2.59 5.71.786 11.83.737 17.95-.207 12.24-2.57 24.41-4.135 33.46-1.572 9.01-4.048 15.03-4.048 15.03v.02c0 1.55-1.155 2.47-2.702 2.05-1.557-.42-2.05-2.01-1.63-3.56.004-.04.447-.09.46-.13z"/></svg>