<svg xmlns="http://www.w3.org/2000/svg" width="256" height="256" viewBox="0 0 256 256"><path fill="#fff" d="M116.995 208.614c-12.128 0-30.522-3.337-49.274-19.234-21.93-18.597-38.91-49.745-50.47-92.58-.28-1.044-.13-2.158.43-3.087.56-.93 1.46-1.596 2.51-1.846l.06-.015c38.16-32.567 79.31-43.862 81.05-44.33.34-.092.69-.137 1.04-.137.83 0 1.64.255 2.32.743l23.81 16.977 21.39-16.943c.72-.57 1.6-.864 2.49-.864.34 0 .68.043 1.02.13.19-.027.39-.042.59-.042.34 0 .69.044 1.03.135 1.77.48 43.9 11.97 82.35 45.22 1.29 1.12 1.73 2.93 1.09 4.52-.51 1.28-1.63 2.18-2.94 2.44-.32 1.34-.63 2.65-.93 3.95-.83 3.57-1.61 6.94-2.73 10.34-.28.86-.84 1.59-1.59 2.09-27.18 80.46-70.27 92.56-93.69 92.56-4.1 0-7.48-.39-9.76-.76-2.27.38-5.63.77-9.75.77z"/><path fill="#333" d="M152.327 51.298s.466.194 1.212.414l.39-.326S196.5 62.73 234.69 95.76c0 0-.57-.03-1.62-.075l.086.074s-.36-.02-1.02-.05l.202.05c-1.62 5.99-2.583 11.59-4.35 16.96-.247-.13-.505-.25-.77-.37-26.67 81.26-69.422 92.26-90.706 92.26-4.18 0-7.532-.43-9.772-.83-2.22.4-5.563.82-9.75.82-22.654 0-69.88-12.48-95.89-108.86l1.002-.24c38.12-32.84 80.218-44.13 80.218-44.13l26.255 18.73 23.747-18.81m-.02-8.05c-1.756 0-3.48.62-4.946 1.78L128.33 60.1l-21.36-15.23c-1.37-.978-2.996-1.487-4.644-1.487-.692 0-1.39.09-2.072.273-1.77.47-43.316 11.87-81.985 44.62-1.68.63-3.11 1.82-4.04 3.39-1.11 1.86-1.42 4.08-.85 6.17 11.77 43.63 29.19 75.454 51.75 94.59 19.67 16.68 39.06 20.18 51.86 20.18 4 0 7.35-.35 9.75-.718 3.09.47 6.44.716 9.76.716 11.78 0 29.71-3.008 48.23-17.33 20.38-15.77 36.82-41.628 48.89-76.89.88-.877 1.56-1.96 1.95-3.17 1.17-3.574 2.02-7.19 2.83-10.686.15-.648.3-1.304.46-1.963 1.42-.877 2.57-2.2 3.23-3.83 1.27-3.17.39-6.8-2.19-9.03-39.14-33.85-82.13-45.575-83.94-46.058-.68-.18-1.37-.27-2.06-.27h-.18c-.48-.092-.96-.14-1.44-.14z"/><path fill="#1A1A1A" d="M44.526 95.27s29.22-18.776 83.74-8.872c0 0 45.266-18.86 77.255 2.994s-68.11 80.933-80.49 77.71c-12.38-3.224-83.59-30.018-80.5-71.833z"/><linearGradient id="a" gradientUnits="userSpaceOnUse" x1="119.725" y1="182.766" x2="125.913" y2="106.445"><stop offset="0" stop-color="#C1272D"/><stop offset=".654" stop-color="#B1222B"/><stop offset="1" stop-color="#A8202A"/></linearGradient><path fill="url(#a)" d="M190.438 85.884s-7.818 53.944-62.818 55.336v-.06c0 .06-1.97.054-3 .065-1.027-.012 3-.006-3-.065v.06c-49-1.397-58.81-55.336-58.81-55.336L21.23 95.76c30.815 114.185 91.342 110.6 105.577 108.03 14.38 2.57 74.708 6.155 105.524-108.03l-41.89-9.876z"/><linearGradient id="b" gradientUnits="userSpaceOnUse" x1="127.519" y1="166.787" x2="126.745" y2="84.733"><stop offset="0" stop-color="#C1272D"/><stop offset="1" stop-color="#82272D"/></linearGradient><path fill="url(#b)" d="M190.438 85.884s-7.818 53.944-62.818 55.336v-.06c0 .06-1.97.054-3 .065-1.027-.012 3-.006-3-.065v.06c-49-1.397-58.81-55.336-58.81-55.336L21.23 95.76c1.62 6.003 3.636 11.616 5.414 16.99 8.14-4.007 26.24-9.002 43.533 12.43 23.076 28.607 29.34 51.937 57.35 48.978 27.998 2.958 34.18-20.37 57.267-48.98 17.246-21.376 35.09-16.46 43.204-12.457 1.766-5.36 2.852-10.96 4.472-16.96l-42.032-9.87z"/><linearGradient id="c" gradientUnits="userSpaceOnUse" x1="127.194" y1="31.909" x2="128.227" y2="93.806"><stop offset="0" stop-color="#C1272D"/><stop offset=".654" stop-color="#B1222B"/><stop offset="1" stop-color="#A8202A"/></linearGradient><path fill="url(#c)" d="M128.953 115.422c12.384-2.008 20.33-12.07 20.33-12.07 19.617-10.98 85.41-7.594 85.41-7.594-38.193-33.03-80.765-44.373-80.765-44.373L128.4 69.912l-26.077-18.526S60.018 62.73 21.826 95.76c0 0 67.593-3.387 87.197 7.594 0 0 7.43 10.02 19.814 12.027"/><linearGradient id="d" gradientUnits="userSpaceOnUse" x1="130.19" y1="115.231" x2="130.19" y2="115.231"><stop offset="0" stop-color="#C1272D"/><stop offset=".654" stop-color="#B1222B"/><stop offset="1" stop-color="#A8202A"/></linearGradient><path fill="url(#d)" d="M130.188 115.23"/><linearGradient id="e" gradientUnits="userSpaceOnUse" x1="184.195" y1="77.113" x2="108.993" y2="108.899"><stop offset="0" stop-color="#C1272D"/><stop offset="1" stop-color="#82272D"/></linearGradient><path fill="url(#e)" d="M152.827 50.923l-24.583 19.333.625 45.125c12-2 19.13-12.02 19.13-12.02 19.61-10.98 85.4-7.59 85.4-7.59-38.2-33.03-80.58-44.83-80.58-44.83z"/><linearGradient id="f" gradientUnits="userSpaceOnUse" x1="137.056" y1="278.385" x2="126.994" y2="164.607"><stop offset="0" stop-color="#fff"/><stop offset="1" stop-color="#fff" stop-opacity="0"/></linearGradient><path fill="url(#f)" d="M80.627 157.94c5.37 6.542 12.953 12.638 20.766 17.02 7.91 4.47 16.665 7.24 25.52 8.008 8.863.538 17.79-1.053 25.928-4.802 8.16-3.707 15.52-9.3 21.86-15.952 2.6-2.74 6.94-2.848 9.68-.24 2.75 2.61 2.86 6.94.24 9.68-.19.2-.42.417-.62.587-8.02 6.57-16.75 12.53-26.59 16.51-9.77 4.02-20.58 6.07-31.23 5.24-10.66-.55-20.94-3.81-30.3-8.39-4.72-2.27-9.2-4.94-13.48-7.9-4.4-2.97-8.31-6.01-12.54-9.95-2.95-2.75-3.12-7.38-.37-10.34 2.76-2.96 7.39-3.12 10.35-.37.23.22.45.45.64.69l.18.22z"/></svg>