<svg xmlns="http://www.w3.org/2000/svg" width="256" height="256" viewBox="0 0 256 256"><path fill="#E2AB74" d="M124.976 239.07c-14.48-.002-29.545-2.514-47.412-7.905-.477-.144-.934-.287-1.38-.43-1.84-.21-3.644-.53-5.366-.957-5.114-1.133-10.325-3.705-14.68-7.246-4.047-3.278-7.58-7.626-9.942-12.237-4.258-8.258-5.44-15.776-6.035-22.04-.38-4.817-.38-9.49.01-14.346.13-1.52.28-2.94.44-4.12l.3-1.92c.97-6.29 5.06-11.69 10.73-14.4.41-4.05 1.93-7.89 4.41-11.14.83-1.09 1.76-2.1 2.77-3.01l2.06-1.83c.65-.53 1.6-1.31 2.81-2.3 3.52-2.76 6.98-5.15 10.62-7.37 5.94-3.62 11.49-6.24 17.46-8.24 5.58-1.8 10.75-2.73 15.79-2.86-1.07-3.94-1.95-8.08-2.62-12.35-2.27-14.26-2.57-30-.89-48.09.5-5.25 1.18-10.46 2-15.52l.8-4.53c.22-1.04.32-1.61.33-1.63l.04-.19c2.04-10.11 11.07-17.52 21.47-17.52 1.45 0 2.91.14 4.34.43 5.74 1.15 10.69 4.47 13.94 9.35s4.4 10.73 3.25 16.47c-.16.8-.37 1.61-.62 2.41l-.34 1.06-.18.64.34-.7c.42-.83.64-1.28.65-1.29 3.25-6.52 9.78-10.57 17.06-10.57 2.96 0 5.81.67 8.47 1.99 9.39 4.68 13.23 16.13 8.57 25.53-.21.41-.42.8-.64 1.17l-.75 1.27-.07.1c-.06.1-.29.52-.94 1.77-.74 1.51-2.38 4.81-3.81 9-1.52 4.12-2.82 8.94-3.78 14.01-.4 2.16-.73 4.36-.98 6.56l.41-1.05 1.82-4.62.09.06c1.28-2.96 2.61-5.91 4-8.8 1.94-4.01 3.73-7.5 5.17-10.11l2.15-3.83c2.77-4.95 8.02-8.02 13.7-8.02 2.67 0 5.32.69 7.67 2 7.5 4.22 10.21 13.75 6.05 21.29l-.06.12-.09.14-2.06 3.54c-1.22 2.13-2.83 5.18-4.53 8.58-2.06 4.11-3.98 8.34-5.72 12.55-1.75 4.34-3.75 9.44-5.22 14.56l-.05.15c-.71 2.14-1.24 4.38-1.76 6.54l-.22.93c-.39 1.4-.62 2.81-.86 4.31-.14.91-.29 1.81-.47 2.7-.22 1.28-.31 2.53-.41 3.85-.06.84-.13 1.67-.22 2.49-.05 1.08-.02 2.14 0 3.18l.01.58c2.5 11.4 7.14 31.53 10.67 41.37 2.62 7.28.46 17.18-5.79 26.48-8.46 12.61-21.51 20.49-34.88 21.06-5.35.23-10.24.76-15.43 1.31-6.88.74-13.99 1.5-22.1 1.5H125zM78.61 197.512c.488.543.75.777 1.317.98l.125.046.122.052c.974.425 2.484.723 4.144.818.562.037 1.103.053 1.654.053 1.366 0 2.903-.1 4.57-.29 2.11-.25 4.336-.65 6.607-1.2l.13-.03c1.28-.26 2.61-.65 3.9-1.04.78-.23 1.54-.45 2.28-.65.68-.23 1.34-.44 1.98-.66 5.11-2.22 12.02-6.04 16.34-11.72 1.24-1.97 2.31-4.01 3.17-6.09.61-2.02.85-4.05.7-6.2-.79-1.85-1.87-4.34-3.55-7.2-.87-1.53-1.87-3.09-2.94-4.58l-.08-.11c-.54-.8-1.06-1.44-1.44-1.9l-.13-.16c-.22-.28-1.15-1.4-1.5-1.79l-.09-.08c-.87-.82-2.12-1.79-3.08-1.79-.05 0-.38.02-.38.02-1.08.03-3.34.6-6.14 2.1-.85.46-1.79 1.04-2.95 1.81-4.1 2.9-7.89 6.8-11.28 11.57l-.21.29-.25.25c-.57.56-5.67 5.54-10.15 7.54-1.28.58-2.58 1.04-3.9 1.39l-.02.1c-.29 1.39-.83 4.4-.98 7.95-.15 3.29.21 6.58.92 8.61l.03.1c.27.84.57 1.34.98 1.86z"/><path fill="#333" d="M128.65 20.93c1.17 0 2.36.117 3.552.356 9.71 1.946 16.004 11.4 14.053 21.117-.133.664-.31 1.33-.514 1.968 0 0-.11.37-.34 1.06l-1 3.41c-.82 3.01-1.97 7.41-3.08 12.76-2.21 10.66-4.38 25.23-3.69 38.99.14 3.18.45 6.29.91 9.26 1.9 10.43 5.56 17.14 7.18 19.73.23.33.46.64.69.95-.14-.51-.28-1.02-.41-1.55-.72-3.43-1.69-6.96-2.22-10.63-.42-3.68-1.21-7.4-1.28-11.18-.56-7.55-.34-15.15.44-22.22.8-7.07 2.09-13.62 3.65-19.15 1.47-5.56 3.22-10.1 4.53-13.35.68-1.6 1.26-2.92 1.82-4.02.44-.85.66-1.31.66-1.31 2.63-5.28 7.95-8.34 13.48-8.34 2.25 0 4.54.51 6.69 1.58 7.43 3.7 10.46 12.73 6.76 20.17-.15.31-.32.62-.5.92l-.21.36s-.16.29-.48.83c-.2.3-.61 1.07-1.17 2.16-1.06 2.15-2.62 5.4-4.05 9.56-1.52 4.12-2.89 9.11-3.93 14.56-1.02 5.46-1.64 11.38-1.64 17.33-.19 3 .27 5.95.35 8.9.11 1.71.36 3.4.62 5.06.4-1.69.84-3.38 1.35-5.02.03-.11.06-.21.1-.32.23-.83.49-1.69.75-2.56 1.51-5.03 3.29-9.85 5.05-14.37l.11-.26.4-1.02.01.01c1.96-4.86 3.96-9.31 5.79-13.11 2-4.13 3.75-7.52 5.07-9.91 1.35-2.41 2.13-3.79 2.13-3.79 2.14-3.82 6.11-5.98 10.21-5.98 1.94 0 3.9.48 5.71 1.5 5.64 3.16 7.64 10.29 4.48 15.92-.01.03-.04.06-.05.09l-.23.42-1.83 3.16c-1.17 2.05-2.79 5.1-4.64 8.79-1.85 3.7-3.88 8.07-5.84 12.82-1.91 4.75-3.9 9.86-5.36 15-.85 2.57-1.44 5.13-2.04 7.65-.71 2.54-.93 4.98-1.41 7.37-.41 2.39-.44 4.6-.69 6.75-.08 1.63-.01 3.14.01 4.57 2.39 10.87 7.22 31.99 10.9 42.25 5.09 14.15-13.08 41.16-37.08 42.2-12.83.56-23.58 2.81-37.37 2.81-12 0-26.3-1.71-46.26-7.74-.59-.18-1.15-.35-1.7-.53-1.72-.17-3.49-.47-5.29-.91-4.48-.98-9.2-3.31-13.07-6.45-3.89-3.15-6.94-7.12-8.91-10.96-4.01-7.77-5.06-14.85-5.61-20.59-.46-5.75-.25-10.37.01-13.65.14-1.64.29-2.94.42-3.88l.25-1.56.05-.29c.92-5.99 5.23-10.61 10.67-12.25-.01-.23.01-.47.01-.71-.03-.18-.06-.35-.08-.53 0 0 .03-.17.1-.44.22-3.44 1.42-6.85 3.67-9.8.69-.9 1.45-1.73 2.27-2.46l.81-.72 1.11-.99c.64-.53 1.59-1.3 2.79-2.28 2.38-1.86 5.76-4.37 10.18-7.05 4.41-2.68 9.87-5.59 16.66-7.87 4.48-1.44 9.83-2.66 15.67-2.66 1.41 0 2.85.07 4.31.23-1.89-5.63-3.23-11.44-4.13-17.18-2.8-17.53-2.03-34.5-.86-47.11.6-6.31 1.36-11.53 1.96-15.24.33-1.88.59-3.36.77-4.37.22-1.1.33-1.68.33-1.68l.02-.06c1.7-8.52 9.18-14.42 17.55-14.42M86 203.49c1.627 0 3.33-.122 5.037-.322 2.39-.28 4.77-.73 7.077-1.285 2.284-.47 4.495-1.24 6.528-1.77.79-.26 1.545-.52 2.283-.77 5.49-2.38 13.28-6.64 18.2-13.19 1.365-2.14 2.61-4.472 3.653-7.01.806-2.56 1.164-5.36.88-8.43l-.21-.57c-.81-1.9-1.98-4.65-3.83-7.79-.88-1.57-1.95-3.24-3.12-4.88-.6-.9-1.17-1.62-1.69-2.25-.27-.36-1.79-2.21-2.04-2.38-2.23-2.09-4.09-2.88-5.82-2.88-.16 0-.32.01-.48.02-1.88.05-4.77.88-7.92 2.57-1.12.61-2.23 1.31-3.32 2.04-3.51 2.48-7.92 6.426-12.27 12.555 0 0-5.03 4.97-8.97 6.74-1.69.76-3.58 1.35-5.55 1.62l-.08.29c-.13.53-.31 1.32-.546 2.31-.435 2.08-.93 5.19-1.08 8.69-.15 3.48.18 7.37 1.145 10.11.456 1.42 1.05 2.36 1.73 3.21.72.81 1.512 1.63 3.025 2.17 1.41.61 3.34 1.02 5.51 1.14.61.04 1.24.06 1.886.06m42.67-190.54c-12.24 0-22.884 8.68-25.374 20.67l-.027.12-.04.19c-.01.03-.11.58-.32 1.57l-.025.11-.016.11-.167.94c-.16.92-.37 2.08-.61 3.44l-.01.04-.01.04c-.84 5.14-1.52 10.45-2.03 15.77-1.71 18.45-1.41 34.52.92 49.12.43 2.75.94 5.44 1.54 8.07-3.86.46-7.81 1.35-11.94 2.68l-.05.02-.05.02c-6.26 2.107-12.06 4.84-18.27 8.62-3.78 2.297-7.36 4.78-10.95 7.59l-.05.05-.06.04c-1.22.99-2.18 1.77-2.83 2.31l-.12.1-.11.1-1.1.98-.81.72-.03.02-.02.027c-1.2 1.07-2.3 2.27-3.27 3.55-2.49 3.26-4.16 7.02-4.9 11.004-5.83 3.51-9.96 9.49-11.01 16.35l-.05.28-.24 1.54-.01.08-.01.08c-.18 1.27-.33 2.72-.46 4.32-.41 5.09-.41 9.97-.01 14.95v.11c.63 6.64 1.89 14.63 6.46 23.5 2.6 5.08 6.51 9.88 10.98 13.51 4.8 3.91 10.59 6.76 16.28 8.03 1.75.43 3.58.77 5.43.99.35.11.7.22 1.07.33 18.26 5.51 33.69 8.08 48.57 8.08 8.33 0 15.55-.77 22.53-1.52 5.12-.55 9.96-1.07 15.18-1.3 14.64-.63 28.86-9.17 38.03-22.83 6.95-10.35 9.28-21.59 6.23-30.06-3.53-9.82-8.36-31.02-10.45-40.49v-.2c-.02-.97-.04-1.88-.01-2.79.09-.86.15-1.69.22-2.49.09-1.21.18-2.35.36-3.43.19-.97.34-1.9.48-2.79.22-1.38.43-2.69.76-3.86l.04-.15.03-.15.19-.79c.52-2.18 1.01-4.24 1.67-6.22l.05-.16.05-.16c1.41-4.93 3.36-9.9 5.08-14.17 1.7-4.12 3.58-8.25 5.59-12.27 1.66-3.32 3.23-6.3 4.43-8.39l1.82-3.14.01-.03.02-.02.17-.31.18-.31c5.26-9.47 1.86-21.45-7.59-26.74-2.94-1.65-6.26-2.52-9.62-2.52-3.98 0-7.78 1.2-10.98 3.34 2.43-10.19-2.37-21.11-12.14-25.97-3.18-1.58-6.72-2.42-10.25-2.42-4.68 0-9.1 1.38-12.8 3.85-.6-3.57-1.94-7-4.01-10.1-3.84-5.77-9.69-9.69-16.49-11.06-1.68-.34-3.41-.51-5.12-.51zm-20.35 146.65c2.03-1.08 3.53-1.48 4.13-1.58.17.12.428.32.76.63.32.36.98 1.17 1.19 1.44l.12.16.1.12c.35.41.75.92 1.19 1.57l.07.11.077.1c.99 1.38 1.91 2.82 2.665 4.15l.03.07.04.07c1.368 2.32 2.317 4.42 3.03 6.08.03 1.36-.14 2.66-.51 3.95-.74 1.75-1.64 3.48-2.69 5.15-2.97 3.84-8.1 7.47-14.49 10.28-.55.18-1.11.37-1.69.56-.78.21-1.54.43-2.27.65-1.27.38-2.46.73-3.57.96l-.14.025-.14.03c-2.12.51-4.19.89-6.15 1.12-1.51.18-2.89.27-4.1.27-.473 0-.93-.015-1.35-.04h-.034l-.04-.01c-1.5-.08-2.45-.345-2.774-.49l-.15-.06c-.07-.11-.12-.225-.19-.43l-.034-.1-.04-.1c-.447-1.27-.837-3.964-.7-7.1.083-1.96.294-3.74.51-5.14.69-.25 1.37-.53 2.04-.83 5-2.25 10.3-7.34 11.31-8.34l.5-.5.41-.57c3.11-4.39 6.57-7.95 10.28-10.583 1.02-.675 1.84-1.185 2.59-1.596z"/><path fill="#FAC283" d="M62.295 141.59l1.113-.988c.643-.528 1.588-1.3 2.79-2.278 2.382-1.864 5.76-4.37 10.18-7.052 4.407-2.684 9.872-5.59 16.655-7.87 6.738-2.17 15.447-3.843 24.836-1.606 4.61 1.106 9.1 3.218 12.7 5.93 3.59 2.72 6.37 5.832 8.56 8.88 1.36 1.964 1.45 2.185 2.56 4.004.91 1.505 1.68 2.902 2.29 4.14 1.31 2.566 2.42 4.995 3.32 7.308 1.87 4.567 2.98 8.6 3.7 11.428.61 2.896.97 4.55.97 4.55 1.25 5.95-2.55 11.79-8.49 13.044-5.42 1.15-10.75-1.903-12.61-6.953l-.37-1.002s-.41-1.088-1.11-3c-.82-1.906-1.99-4.648-3.84-7.79-.89-1.57-1.95-3.24-3.13-4.884-.6-.89-1.18-1.62-1.7-2.24-.27-.35-1.8-2.21-2.04-2.38-2.44-2.28-4.44-3.01-6.3-2.85-1.89.05-4.77.88-7.92 2.57-3.14 1.72-6.27 4.01-8.85 6.24-2.58 2.21-4.65 4.33-5.99 5.78-.62.72-1.11 1.28-1.45 1.66-.22.3-.34.45-.34.45-6.05 7.92-17.36 9.43-25.27 3.39-7.91-6.04-9.43-17.35-3.39-25.27.69-.9 1.45-1.73 2.27-2.46l.81-.72zm83.445-97.218s-.116.365-.34 1.06c-.233.79-.57 1.944-1 3.41-.827 3.004-1.976 7.41-3.083 12.756-2.215 10.655-4.383 25.225-3.688 38.985.29 6.875 1.35 13.47 3.2 18.94.85 2.806 2.02 5.2 3.2 7.378 1.2 2.17 2.56 3.96 3.91 5.53 1.41 1.48 2.78 2.79 4.17 3.74 1.27 1.14 2.74 1.65 3.76 2.38 2.35 1.04 3.69 1.64 3.69 1.64l1.15.52c5.55 2.46 8.05 8.95 5.59 14.51-2.22 5-7.71 7.53-12.84 6.19 0 0-2.37-.62-6.47-1.99-1.99-.94-4.56-1.72-7.19-3.39-2.74-1.48-5.62-3.54-8.55-6.01-2.86-2.55-5.72-5.57-8.24-9.05-2.5-3.46-4.84-7.31-6.64-11.37-3.81-8.14-6.16-17.03-7.53-25.76-2.8-17.53-2.03-34.5-.86-47.1.6-6.31 1.35-11.54 1.96-15.25.32-1.88.59-3.36.76-4.37.22-1.09.33-1.67.33-1.67l.01-.06c1.95-9.7 11.4-16 21.11-14.05 9.71 1.95 16 11.4 14.05 21.12-.14.67-.31 1.33-.52 1.97zm34.064 17.392s-.164.284-.482.823c-.197.293-.613 1.072-1.176 2.153-1.063 2.152-2.623 5.397-4.05 9.553-1.517 4.117-2.89 9.114-3.93 14.564-1.02 5.457-1.638 11.383-1.638 17.333-.197 2.994.27 5.945.348 8.896.184 2.933.795 5.78 1.135 8.583.42 2.78 1.24 5.4 1.78 7.95.49 2.56 1.48 4.84 2.16 7.02.79 2.14 1.27 4.21 2.13 5.88.77 1.71 1.43 3.2 1.98 4.43 1.09 2.47 1.72 3.87 1.72 3.87l.43.99c2.46 5.56-.06 12.05-5.62 14.51-5.27 2.33-11.42.13-14.12-4.84 0 0-.86-1.62-2.39-4.45l-2.74-5.12c-1.14-1.94-1.97-4.37-3.1-6.91-1.03-2.59-2.39-5.29-3.26-8.39-.92-3.07-2.13-6.25-2.93-9.67-.72-3.44-1.69-6.96-2.22-10.63-.42-3.69-1.21-7.41-1.29-11.19-.56-7.55-.34-15.15.44-22.22.79-7.07 2.09-13.62 3.65-19.16 1.47-5.56 3.22-10.11 4.53-13.35.68-1.6 1.26-2.92 1.81-4.02l.66-1.32c3.7-7.44 12.73-10.46 20.17-6.77 7.43 3.7 10.46 12.72 6.76 20.16-.15.31-.32.62-.5.92l-.21.35zm30.54 19.956l-1.83 3.16c-1.17 2.05-2.794 5.1-4.644 8.793-1.848 3.698-3.88 8.07-5.842 12.82-1.912 4.75-3.896 9.858-5.363 14.993-.85 2.566-1.438 5.13-2.045 7.65-.713 2.534-.93 4.976-1.408 7.362-.414 2.387-.443 4.603-.693 6.75-.11 2.114.04 4.013.01 5.817.06 1.773.44 3.228.57 4.613.08 1.428.52 2.433.78 3.315l.8 2.788.55 1.94c1.67 5.83-1.69 11.9-7.51 13.57-5.68 1.64-11.61-1.55-13.45-7.11l-1.59-4.84c-.49-1.54-1.17-3.44-1.4-5.57-.3-2.12-.84-4.59-.99-7.17-.06-2.55-.26-5.38-.15-8.26.24-2.81.31-5.89.77-8.89.51-2.97.83-6.16 1.6-9.16.69-3.05 1.36-6.16 2.29-9.14 1.65-6.08 3.8-11.86 5.89-17.25 2.12-5.36 4.31-10.25 6.3-14.39 2-4.13 3.74-7.52 5.06-9.91l2.13-3.79c3.15-5.63 10.28-7.65 15.92-4.48 5.63 3.16 7.64 10.29 4.48 15.92l-.06.09-.24.42zM107.08 203.508s31.994-17.52 23.27-51.674l56.716-10.81s7.273 34.886 12.36 49.036c5.09 14.15-13.087 41.158-37.083 42.195-23.996 1.042-40.72 8.026-83.624-4.92-42.91-12.944 28.36-23.827 28.36-23.827z"/><path fill="#fff" d="M120.895 44.482s.97-10.566 5.09-12.51c4.118-1.94 17.21.147 18.422 5.24 1.21 5.092-2.668 12.12-2.668 12.12s-5.58-8.68-20.85-4.85zm38.785 9.942s12.6-.977 16.476 4.84c0 0 3.15-4.364 3.393-7.03.24-2.66-9.79-10.662-15.27-6.06-5.49 4.607-4.6 8.25-4.6 8.25zm36.84 22.78s8.243-1.46 10.425 4.605c0 0 3.873-4.61 2.42-7.76-1.455-3.15-7.514-6.78-11.875-4.12-4.364 2.66-.97 7.27-.97 7.27z"/><path fill="#E2AB74" d="M55.456 155.01s1.273-7.022 7.023-10.426c4.63-2.743 16.74-5.36 19.33 2.188 4.9 14.3 17.02 3.398 26.35 4.002 0 0-9.81 3.02-19.26 16.354 0 0-5.03 4.967-8.97 6.735-8.28 3.72-21.53 3.526-24.48-18.854z"/><path fill="#FAC283" d="M74.477 175.158l-.182.62c-.127.533-.31 1.318-.543 2.312-.432 2.074-.93 5.185-1.078 8.687-.152 3.478.182 7.364 1.146 10.107.457 1.42 1.05 2.36 1.73 3.208.718.806 1.513 1.624 3.026 2.167 1.414.61 3.34 1.02 5.512 1.14 2.162.14 4.545.01 6.92-.27 2.39-.29 4.77-.73 7.076-1.29 2.283-.47 4.494-1.24 6.527-1.78 4.07-1.35 7.49-2.53 9.87-3.54l3.75-1.49.42-.17c4.84-1.92 10.33.45 12.25 5.29 1.79 4.49-.13 9.53-4.28 11.77l-3.94 2.12c-2.47 1.39-6.16 3.2-10.69 5.3-2.36.94-4.79 2.11-7.62 3.06-2.77 1.02-5.8 1.98-9.11 2.79-3.31.79-6.88 1.46-10.8 1.69-3.9.25-8.19.08-12.7-1.05-4.48-.98-9.2-3.31-13.06-6.45-3.89-3.15-6.94-7.12-8.91-10.96-4.01-7.78-5.07-14.85-5.61-20.6-.46-5.76-.25-10.38.01-13.65.14-1.64.29-2.94.42-3.89l.25-1.56.05-.29c1.28-8.3 9.05-14 17.36-12.72 8.31 1.28 14.01 9.06 12.73 17.36-.1.67-.27 1.4-.46 2.03z"/><path fill="#fff" d="M46.48 176.335s.25-9.7 1.944-10.18c1.69-.487 10.81 3.16 16.553 2.067 0 0 3.08-1.104 1.383 9.564 0 0-.488 4.125-2.428 4.125-1.938 0-12.123-5.09-17.453-2.66 0 0 .15-2.03 0-2.91zm18.497-31.75s16.41-.045 16.41 7.25c0 2.85-1.867 7.63-6.305 6.86-4.543-.784-11.736-1.06-14.543-3.93-2.33-2.38.54-8.727 4.43-10.18z"/><path fill="#E2AB74" d="M128.53 123.497s9.45 1.272 23.27 21.087l-5.27-13.814s-10.183-13.452-9.095-37.996c0 0-13.27 10.91-8.905 30.723zm48.71-26.903s-7.68 19.387-7.65 25.2l7.67 22.79s-2.313-15.514 2.296-32.72c0 0 4.1-11.877-2.315-15.27zm-17.614 58.653s10.05 6.78 15.594 16.727c0 0-3.282-15.27-15.594-16.727zm-30.006 15.33s8.885 14.36 5.896 24.91c-2.986 10.54-34.985 6.18-34.985 6.18s31.28-8.73 29.09-31.09z"/></svg>