<svg xmlns="http://www.w3.org/2000/svg" width="256" height="256" viewBox="0 0 256 256"><path fill="#A67C52" d="M145.848 233.938c-1.197 0-2.36-.05-3.453-.15-2.658-.184-4.893-.662-6.095-.92l-.134-.03c-.74-.188-1.38-.347-2.037-.563-.37-.107-.6-.19-.6-.19-2.73-.867-5-2.786-6.34-5.384-1.32-2.56-1.58-5.46-.75-8.2-1.13-.37-1.86-.64-2.19-.78-3.5-1.42-6.22-4.1-7.68-7.58-1.46-3.47-1.49-7.3-.07-10.77.26-.65.57-1.27.92-1.87-3.28-1.59-5.78-4.34-7.05-7.77-.96-2.58-1.14-5.32-.55-7.95-2.58-1.25-4.27-2.58-4.92-3.13l-3.8-2.57c-.37-.25-.74-.5-1.11-.76l-.11-.08c-3.79-2.66-7.72-5.9-8.31-6.39-1.49-1.13-2.86-2.29-4.1-3.45l-31.8-15.65c-2.61-1.29-4.57-3.51-5.51-6.27-.94-2.75-.75-5.71.54-8.32 1.84-3.74 5.59-6.07 9.78-6.07 1.49 0 2.94.3 4.31.89l1.5.65c-3.28-2.48-6.59-5.01-9.84-7.55-5.48-4.27-6.47-12.22-2.19-17.71 1.88-2.4 4.49-4 7.4-4.6-1.73-4.3-1.22-9.38 1.79-13.33 2.6-3.4 6.54-5.34 10.81-5.34 3.01 0 5.86.97 8.25 2.79.36.29.67.55.95.81 4.66 4.31 9.46 8.59 14.11 12.74 2.38 2.13 4.77 4.25 7.14 6.39 1.03.89 2.06 1.8 3.1 2.71L89.51 81.1c-2.01-2.88-2.78-6.38-2.15-9.84.62-3.46 2.55-6.47 5.44-8.48 2.21-1.54 4.81-2.35 7.5-2.35 4.31 0 8.36 2.12 10.82 5.66.1.15.18.27.25.38l26.92 41.67c1.66-8.26 4.31-14.98 8.23-20.95 2.34-3.56 6.27-5.682 10.53-5.682 2.45 0 4.83.71 6.89 2.06 2.82 1.84 4.75 4.67 5.43 7.97.68 3.3.05 6.66-1.8 9.48l-.19.29c-2.35 3.39-4.15 8.23-5.19 14.01-.47 2.58-.79 5.39-.96 8.36 3.63 5.51 3.91 12.96 3.45 18.49 0 3.01-.54 5.28-1.2 8.15l-1.29 5.53c.76.03 1.52.05 2.28.05 2.3 0 4.62-.14 6.89-.41.53-.06 1.08-.1 1.63-.1.59 0 1.2.04 1.81.12l.2.01c5.812 0 9.142-1.23 10.67-2.69-3.54-4.7-6.188-8.29-8.26-11.19-3.49-4.82-5.67-8.08-5.76-8.22-4.3-6.47-2.54-15.23 3.92-19.52 2.31-1.54 5-2.35 7.77-2.35 4.59 0 8.91 2.24 11.552 5.99.1.15 2.41 3.45 5.61 8.58 3.3 5.2 7.43 12.21 11.32 19.19 4.21 7.57 7.91 14.69 10.42 20.05 1.358 2.9 2.41 5.34 3.21 7.47l.51 1.41c.29.87.51 1.75.58 2.09.25 1.09.34 1.74.36 1.86.02.19.038.39.05.59 3.02 9.28 5.978 25.85-5.96 36.9-6.5 6.02-15.73 9.07-27.42 9.07h-.01c-6.66 0-12.682-1.04-16.522-1.89-.44.34-.91.688-1.42 1.038-2 1.53-4.48 3-6.66 4.24l-.13.07-4.15 1.98-1.06.4c-1.1.42-2.25.85-3.45 1.24-4.59 1.44-9.71 2.22-14.45 2.22l.11-.137.018.02z"/><path fill="#333" d="M100.317 64.446c2.9 0 5.754 1.376 7.535 3.94.047.07.126.176.17.25l32.38 50.11c.063.09.113.19.17.29l.29.18c.18-2.49.452-4.99.858-7.5 1.234-7.46 3.452-15.18 8.16-22.35 1.646-2.52 4.393-3.88 7.19-3.88 1.614 0 3.247.45 4.7 1.4 3.978 2.6 5.084 7.92 2.483 11.9-.04.05-.1.15-.133.2-2.882 4.15-4.776 9.7-5.838 15.58-.534 2.94-.86 6.01-1.024 9.08-.02.38-.037.81-.053 1.2 3.67 4.53 3.98 11.67 3.5 17.1.02 2.55-.4 4.4-1.1 7.4-.01-.02-.01-.17-.02-.17-1.24 3.89-3.33 7.04-5.55 9.77 3.22.54 6.72.87 10.446.87 2.38 0 4.83-.14 7.38-.45.38-.05.77-.07 1.15-.07.49 0 .98.03 1.47.102.17 0 .27.01.27.01h.27c12.05 0 14.81-4.85 15.44-7.02-3.65-4.83-7.1-9.46-9.77-13.2-3.5-4.83-5.69-8.11-5.69-8.11-3.08-4.64-1.82-10.9 2.81-13.98 1.71-1.15 3.64-1.69 5.56-1.69 3.19 0 6.32 1.51 8.28 4.29 0 0 2.31 3.3 5.49 8.39 3.22 5.08 7.3 11.98 11.22 19.02 3.91 7.042 7.66 14.19 10.29 19.802 1.33 2.83 2.33 5.15 3.08 7.18.18.48.34.91.47 1.29.19.57.37 1.24.48 1.7.22.96.29 1.46.29 1.46.03.26.04.52.04.77 2.79 8.29 5.83 23.52-4.7 33.27-6.57 6.08-15.87 8-24.71 8-6.53 0-12.81-1.05-17.53-2.25-.76.65-1.65 1.39-2.75 2.14-1.71 1.32-3.9 2.644-6.29 4-1.25.602-2.54 1.21-3.85 1.842-1.37.51-2.75 1.062-4.17 1.52-4.48 1.4-9.2 2.02-13.22 2.02-1.11 0-2.16-.05-3.14-.14-2.28-.148-4.2-.55-5.58-.84-.69-.17-1.24-.31-1.76-.478-.38-.12-.58-.19-.58-.19-3.66-1.17-5.67-5.08-4.5-8.73.46-1.448 1.36-2.64 2.51-3.478-4.07-.93-6.45-1.83-7.06-2.08-5.15-2.1-7.63-7.98-5.54-13.14.87-2.15 2.41-3.82 4.28-4.9-3.07-1.05-4.87-1.86-5.12-1.98-5.06-2.32-7.28-8.31-4.95-13.37.18-.39.38-.75.6-1.11-4.81-1.43-7.66-4.05-7.66-4.05l-4.01-2.71c-.35-.23-.7-.48-1.05-.72l-.05-.04c-3.98-2.8-8.17-6.29-8.17-6.29-1.7-1.29-3.11-2.51-4.27-3.64L57.4 146.1c-3.417-1.68-4.827-5.81-3.14-9.224 1.2-2.437 3.64-3.847 6.19-3.847.913 0 1.84.18 2.73.56l28.5 12.36.723-.76c-3.96-2.94-7.9-5.9-11.862-8.82-7.2-5.5-14.48-10.91-21.62-16.48-3.75-2.93-4.42-8.34-1.49-12.1 1.7-2.17 4.24-3.31 6.8-3.31 1.8 0 3.62.56 5.16 1.71 7.27 5.42 14.4 11.01 21.61 16.52 4.34 3.42 8.71 6.82 13.05 10.24l.77-.82c-4.6-3.74-9.23-7.45-13.84-11.2-2.39-1.87-4.77-3.76-7.16-5.65-.1-.08-.2-.15-.28-.23-4.99-3.96-9.99-7.92-15.05-11.79-4.21-3.22-5.02-9.23-1.81-13.45 1.89-2.47 4.75-3.77 7.64-3.77 2.03 0 4.08.64 5.82 1.97.24.18.47.38.69.58 7.01 6.48 14.18 12.75 21.27 19.14 3.93 3.42 7.84 6.86 11.76 10.29 1.67-.36 3.32-1.15 4.3-2.77L92.81 78.83c-2.892-4.15-1.87-9.87 2.293-12.757 1.592-1.11 3.415-1.643 5.22-1.643m59.03 116.99c1.155 0 2.33-.02 3.52-.07-.18-.44-.34-.9-.48-1.37-10.187-.253-19.014-2.363-25.91-4.792-1.26.88-2.51 1.63-3.718 2.26 5.42 1.693 14.89 3.973 26.6 3.973m-59.034-125c-3.52 0-6.9 1.06-9.79 3.07-3.76 2.61-6.28 6.53-7.09 11.05-.71 3.96-.03 7.96 1.92 11.42l-.27-.22-.05-.04-.06-.04c-3.09-2.36-6.79-3.61-10.67-3.61-5.53 0-10.63 2.52-13.99 6.91-2.98 3.91-4.07 8.69-3.41 13.21-2.21 1.08-4.18 2.67-5.75 4.68-5.64 7.24-4.35 17.71 2.88 23.34.08.07.17.14.26.2-3.06 1.4-5.59 3.81-7.14 6.97-1.76 3.56-2.02 7.6-.74 11.37 1.28 3.77 3.96 6.81 7.53 8.57l31.29 15.39c1.2 1.09 2.5 2.18 3.9 3.25.81.66 4.7 3.86 8.51 6.54l.04.02.02.01.05.03c.4.27.79.54 1.17.8l3.62 2.44c.61.5 1.63 1.28 3.01 2.13-.11 2.4.26 4.81 1.12 7.13 1.17 3.17 3.16 5.88 5.74 7.91-1.37 4.15-1.19 8.6.52 12.67 1.77 4.19 4.98 7.5 9.08 9.39-.1 2.56.46 5.11 1.66 7.44 1.82 3.53 4.9 6.15 8.68 7.37.1.03.32.1.65.2.76.25 1.48.42 2.23.61l.14.03.13.03c1.3.27 3.69.79 6.61.99 1.2.11 2.47.16 3.78.16 5.13 0 10.68-.85 15.61-2.39l.03-.01.03-.01c1.3-.42 2.49-.87 3.65-1.31l.88-.33.33-.12.31-.15 1.6-.76 2.27-1.09.26-.12.25-.14c2.26-1.28 4.84-2.81 7.01-4.46 4.23.86 9.65 1.61 15.6 1.61 12.56 0 22.98-3.5 30.14-10.14 10.07-9.3 12.59-23.7 7.18-40.62l-.02-.29c-.04-.28-.15-1.05-.43-2.27-.09-.38-.34-1.41-.69-2.45l-.03-.09-.02-.09c-.14-.4-.31-.85-.49-1.34-.84-2.24-1.93-4.79-3.34-7.78-2.54-5.43-6.29-12.64-10.54-20.29-3.92-7.04-8.09-14.1-11.44-19.39-3.25-5.2-5.61-8.58-5.71-8.72-3.4-4.83-8.94-7.7-14.83-7.7-3.57 0-7.03 1.05-10 3.03-4.44 2.96-7.16 7.57-7.86 12.49l-.19-.35c.17-2.36.44-4.58.82-6.64.94-5.22 2.51-9.53 4.54-12.44l.08-.11.01-.01.17-.26c2.43-3.71 3.27-8.14 2.36-12.47-.9-4.34-3.45-8.07-7.16-10.5-2.71-1.77-5.85-2.7-9.07-2.7-5.62 0-10.81 2.8-13.89 7.5-2.68 4.08-4.8 8.46-6.44 13.37l-22-33.95c-.11-.18-.22-.34-.32-.48l.02.03-.04-.06-.04-.06c-3.21-4.62-8.48-7.38-14.1-7.38l-.06.03-.01.01zm68.4 85.86c.15-1.86.22-3.91.13-6.04.84 1.24 2.74 4.01 5.38 7.65 1.44 2.03 3.17 4.38 5.28 7.2-1.11.2-2.54.33-4.38.34-.69-.08-1.39-.12-2.07-.12-.71 0-1.43.04-2.13.13-1.2.14-2.42.25-3.64.31l.14-.59c.68-2.94 1.28-5.5 1.3-8.88l-.01.01z"/><path fill="#FAC283" d="M84.26 153.828s.574 4.86 9.844 11.9c0 0 4.998 4.172 9.265 7.05l4 2.702s17.04 15.67 38.24-8.66c0 0 23.39-15.14 11.93-36.88l-31.48-20.17-41.83 44.06.01-.002h.01zm62.07-8.358s5.656 8.173 13.07 4.173c0 0 6.084-22.327-6.303-28.11"/><path fill="#FAC283" d="M113.152 139.025c-7.303-6.12-14.776-12.036-22.178-18.052-7.5-5.88-14.917-11.877-22.497-17.667-4.213-3.213-5.02-9.23-1.812-13.444 3.22-4.21 9.237-5.02 13.457-1.8.232.184.467.384.683.58 7.005 6.48 14.178 12.757 21.27 19.14 7.185 6.254 14.3 12.608 21.583 18.753 3.446 2.904 3.886 8.055.98 11.504-2.903 3.43-8.036 3.87-11.486.98zm13.688-11.19l-34.036-48.99c-2.893-4.153-1.87-9.87 2.292-12.757 4.158-2.894 9.868-1.86 12.756 2.297.047.07.126.18.17.254l32.38 50.11c2.447 3.78 1.36 8.83-2.43 11.28-3.705 2.39-8.627 1.39-11.134-2.2h.002zm-18.37-9.725s12.22 2.434 10.38-8.58l6.385 16.328-16.765-7.75v.002z"/><path d="M123.39 121.11c5.42 1.12 10.85-6.11 10.85-6.11l-2.38-2.73c-6.107 7.007-11.092 4.987-11.092 4.987l.003.004.02.01-1.01-.38c-.46 1.31-4.44 2.77-4.44 2.77 3.24-1.15 8.05 1.45 8.05 1.45zm18.938 5.17s-.123-4.358-6.633-5.49c.036.073 2.166 4.36.16 11.62-.002 0-.004.002-.006.004-13.53 13.883-19.53 4.563-19.53 4.563 3.54-5.56-2.37-14.937-2.37-14.937 2.08 7.862-7.72 12.78-7.72 12.78l-.02-.002c15.49 12.51 17.59 22.08 17.59 22.08l4.87-2.324s5.39-13.096 7.23-19.298l6.41-8.995zm-6.635-5.49l.002.002-.002-.005zm-52.55-6.923s-1.15 1.114 3.28 2.708c0 0 8.283-2.78 8.28-12.222 0 0-6.534 12.06-11.56 9.514z" fill="#E2AB74"/><path fill="#FAC283" d="M102.452 152.563c-7.365-5.295-14.595-10.764-21.883-16.15-7.21-5.5-14.49-10.904-21.63-16.48-3.76-2.92-4.42-8.34-1.5-12.1 2.89-3.7 8.21-4.39 11.95-1.6 7.26 5.42 14.39 11.01 21.6 16.52 7.11 5.62 14.29 11.148 21.35 16.852 3.5 2.84 4.04 7.98 1.2 11.49-2.73 3.38-7.63 3.99-11.11 1.49l.02-.022zm2.116 16.777l-47.102-23.172c-3.417-1.678-4.827-5.81-3.144-9.225 1.626-3.31 5.568-4.73 8.922-3.28l48.17 20.856c4.14 1.78 6.04 6.6 4.253 10.72-1.8 4.14-6.6 6.04-10.74 4.25-.11-.06-.25-.12-.36-.17v.01z"/><path fill="#E2AB74" d="M77.76 131.488s8.284-2.78 8.28-12.223c0 0-6.536 12.063-11.558 9.512 0 0-1.154 1.116 3.278 2.71zm19.657 16.278s8.284-2.787 8.284-12.23c0 0-6.53 12.064-11.56 9.517 0 0-1.15 1.12 3.28 2.72v-.006zm6.916-54.832s8.74 2.003 12.59-7.924c0 0 3 6.107-4.96 9.323-7.953 3.222-7.63-1.4-7.63-1.4zm.37 1.368s10.557 2.45 14.405-7.486c0 0 3.002 6.108-4.958 9.328-7.957 3.217-9.448-1.842-9.447-1.842zm-19.85 63.828s9.083-4.503 7.858-11.346l2.64.063s-1.83 4.362-.69 6.9c0 0-4.72 4.84 2.92 12.23 0 0-4.97-2.44-6.3-4.91s-6.4-2.94-6.4-2.94h-.02v.003zm10.913 6.08s6.744 8.718 14.012-.8l3.328-1.893s2.4.155 5.1-2.365c2.704-2.522 4.584-2.8 4.42-6.934l2.883-2.1s4.97 6.23-5.85 12.18c-10.83 5.94-8.09 8.37-8.09 8.37s-9.97 2.24-15.81-6.48v.022z"/><path fill="#FAC283" d="M140.977 134.28c-.387-4.11-.42-7.575-.316-11.354.12-3.718.45-7.443 1.07-11.195 1.23-7.45 3.45-15.18 8.16-22.35 2.6-3.97 7.92-5.07 11.89-2.48 3.97 2.6 5.08 7.92 2.48 11.9-.04.05-.1.14-.14.19-2.88 4.15-4.78 9.69-5.84 15.57-.54 2.94-.87 5.98-1.03 9.06-.16 3-.15 6.33.06 8.99l.03.28c.35 4.52-3.04 8.47-7.57 8.81-4.47.34-8.37-2.97-8.81-7.41h.04v-.01z"/><path fill="#E2AB74" d="M130.484 149.436c-1.48 1.508-3.66 3.702-6.833 6.854-8.15 8.115-16.3 12.554-22.43 14.97.72.525 1.45 1.044 2.16 1.52l4 2.703s17.04 15.662 38.24-8.666c0 0 10.52-6.825 14-17.883-20.86 14.056-28 2.733-29.14.502h.02-.01zm-.18-.366s.064.137.18.363c6.16-6.275-.18-.365-.18-.365v.002z"/><path fill="#fff" d="M162.268 101.382s-2.644-2.648-5.09-1.913c0 0 .283-5.07 3.346-5.98 3.056-.92 4.61 1.51 4.61 1.51s-.264 3.23-2.866 6.37v.01z"/><path fill="#FAC283" d="M223.053 179.278c-.003-.222-.014-.445-.043-.67 0 0-.07-.503-.29-1.464-.11-.455-.29-1.125-.48-1.7-.14-.38-.29-.81-.47-1.29-.76-2.025-1.75-4.348-3.08-7.178-2.63-5.61-6.38-12.76-10.29-19.8-3.92-7.034-8.01-13.938-11.22-19.014-3.183-5.09-5.496-8.39-5.496-8.39l-.023-.043c-3.14-4.45-9.29-5.64-13.84-2.6-4.63 3.09-5.89 9.34-2.81 13.97 0 0 2.19 3.28 5.69 8.12 2.68 3.74 6.15 8.38 9.8 13.21-.63 2.18-3.43 7.09-15.71 7.01l-.15-.01c-.89-.14-1.8-.17-2.73-.05-22.89 2.78-39.62-8.31-39.99-8.55-4.55-3.15-10.81-2.03-13.99 2.52-3.19 4.55-2.08 10.84 2.48 14.03.8.56 17.44 11.98 42.02 12.59.15.47.31.93.49 1.38-20.22.8-34.73-5.52-35.11-5.7-5.05-2.29-11.02-.08-13.33 4.96-2.33 5.06-.11 11.04 4.95 13.36.25.11 2.05.93 5.13 1.98-1.87 1.08-3.41 2.75-4.29 4.9-2.1 5.16.38 11.04 5.53 13.13.61.24 2.97 1.14 7 2.06-1.15.84-2.05 2.03-2.52 3.48-1.17 3.65.85 7.56 4.5 8.73 0 0 .2.07.58.19.52.17 1.07.3 1.76.48 1.38.3 3.29.69 5.57.85 4.55.42 10.65-.11 16.36-1.89 1.41-.46 2.8-1.01 4.17-1.52 1.32-.63 2.61-1.24 3.86-1.84 2.39-1.35 4.58-2.68 6.29-4 1.11-.75 1.99-1.49 2.75-2.15 11.11 2.83 30.87 4.87 42.32-5.74 10.6-9.8 7.46-25.13 4.66-33.39z"/><path d="M170.727 183.502h.003zm9.643 4.492c6.17 1.116 24.308 4.195 31.095 3.127 3.8-.6 2.65-5.83 2.65-5.83l-31.727-.48c-4.767-.91-11.62-1.3-11.658-1.3 2.94 6.32 6.835 5.97 9.64 4.49zm37.134 16.69l-28.566-.12-.002.002.002-.003c-4.793.258-15.506.353-15.506.353 3.366 3.707 6.566 4.328 9.177 3.768 7.17 1.113 25.82 3.723 32.23 1.833 3.39-1.004 2.66-5.833 2.66-5.833z" fill="#E2AB74"/><path fill="#fff" d="M180.752 135.825s-4.618-5.66-1.844-9.112c2.775-3.44 7.844-7.802 10.08-5.84 2.238 1.958 3.896 3.583 3.896 3.583s-9.655 5.303-12.132 11.37z"/><path fill="#E2AB74" d="M169.51 212.82s-9.02 6.417-25.234 3.876c0 0 11.646 8.646 28.024.106l-2.79-3.984v.002zm-39.87-15.368s19.52 7.758 33.7 2.567c0 0 1.338 1.85 3.658 3.89 0 0-25.4 4.96-37.357-6.47v.01z"/><path fill="#fff" d="M125.366 167.9s-.956-9.8 5.897-12.334c0 0-7.73-5.418-9.55-.036-1.83 5.38-6.364 8.21 3.653 12.37zm1.684 12.968s-4.572-4.533-5.963-3.27c0 0-2.753 1.003-3.26 4.315-.522 3.355-1.74 5.73-.707 7.456 1.028 1.72 1.396 3.77 5.474 3.1 0 0-3.068-7.37 4.457-11.59v-.02zm2.645 20.994s-4.944 6.16-.29 10.563c0 0-7.514-.253-7.21-5.312.298-5.063 3.79-7.062 7.5-5.25zm6.88 16.81s-2.343 3.637-.095 6.6c0 0-4.157 1.73-4.826-3.064 0 0 .067-4.228 4.92-3.536z"/><path fill="#A67C52" d="M187.748 169.864s-1.912 11.194-2.928 22.534c-.31 2.83-.41 5.66-.57 8.31-.21 2.66-.03 5.11-.05 7.23-.09 2.15.39 3.81.47 5.04l.25 1.9.02.148c.052.4-.228.76-.628.81-.38.05-.73-.21-.81-.58 0 0-.142-.72-.4-1.98-.18-1.26-.79-3.068-.85-5.228-.12-2.16-.48-4.698-.44-7.4-.03-2.708-.12-5.6.01-8.47.25-11.5 1.41-22.978 1.41-22.978.12-1.26 1.24-2.18 2.51-2.07 1.26.13 2.18 1.25 2.06 2.51 0 .05-.01.12-.02.16l-.034.064zm2.69.256s-.45 2.724-.89 6.835c-.25 2.063-.48 4.473-.653 7.063-.25 2.588-.29 5.34-.39 8.11-.146 2.77.095 5.51.113 8.106-.02 1.306.255 2.514.35 3.69.146 1.175.275 2.28.396 3.306.053 1.06.45 1.9.624 2.72.217.81.41 1.5.566 2.08l.49 1.82.04.16c.103.39-.125.79-.51.9-.37.1-.757-.1-.886-.46l-.646-1.852c-.206-.58-.46-1.31-.75-2.13-.235-.84-.722-1.75-.85-2.8-.198-1.04-.413-2.18-.645-3.38-.192-1.2-.557-2.47-.63-3.79-.21-2.63-.643-5.46-.69-8.28-.1-2.82-.25-5.65-.182-8.3-.01-2.65.414-5.12.52-7.23.165-4.24.8-7.06.8-7.06v-.04c0-1.26.87-2.19 2.133-2.07 1.26.12 2 1.24 1.89 2.49 0 .05-.19.1-.2.16v-.048zm5.392.453s-1.204 11.638-1.645 23.353c-.17 2.924-.158 5.844-.184 8.584-.09 2.748.15 5.27.21 7.46.02 2.207.46 3.927.59 5.192l.29 1.965.02.133c.05.4-.23.77-.62.83-.38.055-.74-.2-.82-.57l-.44-2.012c-.23-1.283-.82-3.13-.97-5.342-.21-2.21-.63-4.803-.72-7.57-.15-2.77-.36-5.73-.39-8.69-.33-11.812.11-23.646.11-23.646.05-1.27 1.1-2.25 2.37-2.21 1.27.03 2.26 1.09 2.21 2.36v.16h-.02l.01.003zm5.372.594c0 .003-1.327 11.56-1.868 23.198-.188 2.91-.195 5.808-.247 8.53-.11 2.734.123 5.24.167 7.42-.004 2.19.446 3.9.566 5.156.18 1.24.275 1.96.275 1.96l.023.14c.06.4-.22.77-.63.83-.38.06-.73-.19-.82-.56l-.44-2c-.21-1.27-.8-3.11-.94-5.31-.188-2.2-.6-4.78-.67-7.53-.14-2.76-.32-5.7-.33-8.64-.23-11.75.34-23.52.34-23.52.062-1.26 1.13-2.24 2.392-2.19 1.27.06 2.25 1.13 2.19 2.39 0 .05 0 .12-.01.16h-.02.022zm7.915 1.517l-.73 1.756c-.44 1.1-1.066 2.67-1.72 4.65-.73 1.94-1.364 4.26-2.084 6.76-.73 2.48-1.18 5.21-1.813 7.91-.18 1.37-.353 2.73-.523 4.07-.14 1.35-.422 2.68-.422 3.97-.01 1.29-.016 2.53-.02 3.71.02 1.18-.074 2.31.04 3.33l1.073 6.79.027.15c.063.39-.21.77-.608.83-.378.06-.735-.19-.823-.552l-1.615-7c-.19-1.06-.19-2.23-.28-3.46-.09-1.23-.17-2.54-.25-3.88-.09-1.35.11-2.72.14-4.14.08-1.41.17-2.84.26-4.28.45-2.82.73-5.69 1.3-8.3.56-2.63 1.06-5.08 1.67-7.15.53-2.07 1.08-3.81 1.48-5.02.39-1.18.63-1.87.63-1.87.4-1.2 1.7-1.84 2.9-1.44 1.19.41 1.84 1.71 1.44 2.91l-.06.14-.03.07v.045h.01z"/><path fill="#ff0" d="M51.095 80.553s32.1-61.727 101.32-20.585l22.793-19.146s-28.72 9.162-28.157-19.838c0 0-48.29 30.52-59.73-9.922 0 0-14.98 44.66-36.35 31.285 0 0 3.91 32.97-20.68 37.855l20.83.35h-.02z"/><path fill="#333" d="M183.402 115.48c3.188 0 6.322 1.51 8.28 4.292 0 0 2.313 3.3 5.494 8.39 3.22 5.076 7.306 11.982 11.226 19.015 3.914 7.04 7.666 14.19 10.29 19.8 1.33 2.83 2.33 5.152 3.087 7.18.18.478.33.908.47 1.29.19.573.37 1.243.47 1.698.22.96.29 1.463.29 1.463.03.263.04.52.04.775 2.79 8.295 5.83 23.516-4.7 33.266-6.57 6.08-15.87 8-24.71 8-6.53 0-12.81-1.05-17.53-2.25-.76.65-1.65 1.39-2.76 2.14-1.71 1.32-3.9 2.64-6.29 4-1.25.6-2.54 1.21-3.86 1.84-1.37.51-2.75 1.06-4.17 1.51-4.48 1.4-9.2 2.03-13.22 2.03-1.11 0-2.16-.05-3.14-.14-2.28-.16-4.2-.55-5.58-.85-.69-.17-1.24-.31-1.76-.48l-.58-.18c-3.66-1.17-5.67-5.08-4.5-8.73.46-1.45 1.36-2.64 2.51-3.48-4.07-.93-6.45-1.83-7.06-2.08-5.16-2.1-7.64-7.99-5.54-13.14.88-2.15 2.42-3.82 4.28-4.9-3.07-1.05-4.87-1.86-5.12-1.98-5.06-2.32-7.27-8.31-4.95-13.37 1.7-3.69 5.35-5.86 9.17-5.86 1.4 0 2.81.29 4.16.9.36.16 13.22 5.77 31.58 5.77 1.15 0 2.32-.02 3.52-.07-.18-.45-.34-.91-.48-1.38-24.57-.61-41.21-12.03-42.01-12.59-4.56-3.19-5.67-9.48-2.48-14.03 1.96-2.8 5.09-4.3 8.27-4.3 1.98 0 3.97.58 5.72 1.79.32.22 13.57 9 32.6 9 2.38 0 4.85-.14 7.39-.45.39-.05.77-.07 1.15-.07.5 0 .99 0 1.47.07.18 0 .27-.03.27-.03h.28c12.05 0 14.81-4.81 15.44-6.97-3.65-4.83-7.1-9.44-9.77-13.18-3.5-4.83-5.69-8.1-5.69-8.1-3.08-4.64-1.82-10.89 2.81-13.97 1.71-1.14 3.65-1.68 5.56-1.68m0-3.02c-2.58 0-5.08.75-7.23 2.19-6 3.99-7.64 12.12-3.65 18.13.1.14 2.27 3.39 5.76 8.21 2.15 3 4.94 6.74 8.71 11.74-1.13 1.53-4.11 3.62-11.94 3.62h-.18c-.02 0-.06.03-.1.03-.58-.08-1.16-.09-1.73-.09-.51 0-1.02.04-1.51.1-2.32.28-4.68.43-7.03.43-18.05 0-30.8-8.41-30.93-8.49-2.16-1.5-4.73-2.3-7.4-2.3-4.27 0-8.28 2.08-10.73 5.58-4.14 5.9-2.69 14.07 3.21 18.21.18.12 1.3.89 3.25 2.01-4.42.58-8.31 3.39-10.2 7.5-1.46 3.17-1.59 6.73-.38 10 1.22 3.27 3.63 5.88 6.81 7.34.07.03.33.15.79.34-.59.82-1.08 1.72-1.47 2.67-1.32 3.24-1.3 6.79.06 10.01s3.88 5.72 7.12 7.04c.41.16 1.45.56 3.11 1.06-.11.26-.2.52-.29.79-.81 2.53-.59 5.23.63 7.59 1.22 2.36 3.28 4.1 5.8 4.91 0 0 .21.07.59.19.61.2 1.22.35 1.93.53l.05.01.05.01c1.18.26 3.37.73 5.96.9 1.07.1 2.21.15 3.38.15 4.64 0 9.65-.77 14.12-2.17 1.2-.39 2.33-.82 3.42-1.23l.91-.34.12-.05.11-.06 1.6-.77c.76-.37 1.52-.72 2.25-1.08l.1-.05.09-.06c2.15-1.23 4.61-2.68 6.56-4.18.65-.45 1.23-.89 1.76-1.31 3.75.86 9.92 1.98 16.76 1.98 11.44 0 20.44-2.97 26.74-8.81 11.59-10.73 8.61-26.96 5.65-35.98-.01-.22-.03-.43-.05-.64-.02-.11-.1-.71-.34-1.77-.06-.24-.27-1.13-.56-1.98l-.01-.04-.01-.03c-.15-.39-.3-.82-.49-1.3-.79-2.11-1.83-4.53-3.18-7.4-2.5-5.34-6.19-12.44-10.39-19.98-3.88-6.97-8-13.95-11.31-19.16-3.17-5.08-5.47-8.37-5.57-8.51-2.45-3.49-6.47-5.57-10.74-5.57l.02.08z"/></svg>