<svg xmlns="http://www.w3.org/2000/svg" width="256" height="256" viewBox="0 0 256 256"><path fill="#FAC283" d="M156.478 241.38c-20.21 0-39.242-10.523-45.15-14.178-.933-.344-1.896-.627-2.886-1.022-4.383-1.694-9.23-3.787-14.364-6.287-2.776-1.313-5.515-2.787-8.054-4.204-.87-.49-1.686-.97-2.57-1.55l-1.624-1.04-.48-.32-.4-.31c-1.682-1.1-3.36-2.35-4.97-3.72-6.42-5.29-11.84-12.89-14.82-20.81-3.252-8.32-3.69-16.27-3.48-21.46.2-5.01 1.07-9.9 2.59-14.52.163-.5.32-.95.476-1.38.808-4.12 1.94-7.97 3.366-11.46.124-.33.254-.65.39-.95 8.427-19.59 24.847-24.73 35.997-25.81l.01-3.76c.03-7.63.06-17.13-.24-24.98-.24-4.97-.35-10.03-.45-14.93-.12-5.93-.24-11.54-.59-16.05-.66-8.33-1.12-13.89-1.12-13.89-.58-5.89 1.2-11.71 5.01-16.34 3.81-4.62 9.18-7.48 15.13-8.07.73-.07 1.47-.11 2.2-.11 11.57 0 21.16 8.69 22.28 20.21.13 1.35.14 2.74.03 4.07.18 3.38 1.68 32.05 1.14 42.81-.25 6.11.36 13.58.89 20.16.17 2.09.33 4.11.46 6.03 5.33 1.01 9.52 2.33 11.45 2.99.79-.12 1.6-.2 2.42-.22.25-.01.51-.01.76-.01 7.34 0 14.46 2.46 19.38 6.64 9.59 1.03 17.29 5.56 22.36 13.19 1.96 1.59 3.42 3.59 4.32 5.95.82 2.12 1.66 5.6 2.35 9.81 1 6.08 8.86 59.95-21.59 85.14-8.41 6.95-18.6 10.31-30.27 10.31z"/><path fill="#333" d="M120.468 18.276c9.354 0 17.376 7.104 18.304 16.603.113 1.19.114 2.46.005 3.61 0 0 1.722 31.56 1.16 42.68-.382 9.47 1.133 21.33 1.555 29.8 8.22 1.23 14.535 3.56 14.937 3.71.86-.2 1.81-.33 2.83-.35.22-.01.44-.01.66-.01 6.4 0 13.23 2.17 17.69 6.51 10.95.77 17.34 6.19 21.06 12.07 1.52 1.11 2.79 2.61 3.58 4.64.68 1.75 1.45 4.9 2.13 9.02 3.22 19.64 4.06 61.51-20.2 81.57-8.54 7.06-18.25 9.57-27.73 9.57-19.62 0-38.23-10.74-43.39-13.97-1.02-.37-2.08-.78-3.17-1.21-4.27-1.65-9.04-3.75-14.1-6.21-2.56-1.21-5.1-2.59-7.86-4.13-.64-.36-1.4-.8-2.35-1.42l-1.19-.76-.45-.29-.22-.15-.11-.07-.39-.3-.07-.05c-1.6-1.04-3.14-2.18-4.64-3.46-6.05-4.98-10.98-12.02-13.67-19.17-2.8-7.16-3.46-14.2-3.23-19.89.23-5.75 1.35-10.28 2.39-13.44.18-.57.36-1.07.54-1.55.8-4.15 1.89-7.83 3.23-11.08.1-.27.2-.53.31-.78 8.53-19.83 25.98-23.42 36.34-23.68-.03-8.43.19-21.92-.23-32.65-.54-11.12-.39-22.79-1.04-31.14-.66-8.34-1.12-13.9-1.12-13.9-.99-10.11 6.44-19.1 16.55-20.09.61-.06 1.21-.09 1.81-.09m0-8c-.86 0-1.73.04-2.59.13-7.02.68-13.35 4.06-17.84 9.5-4.48 5.43-6.57 12.27-5.91 19.26.05.6.49 5.99 1.11 13.83.35 4.39.46 9.94.58 15.81.1 4.91.26 9.98.51 15.04.29 7.75.29 17.19.29 24.77v.25c-12 1.92-27.37 8.34-35.74 27.75-.16.36-.33.71-.47 1.06-1.48 3.63-2.67 7.61-3.52 11.85-.15.41-.29.8-.42 1.2-1.63 4.98-2.57 10.23-2.79 15.62-.32 7.97.97 15.94 3.75 23.07 3.21 8.52 9.04 16.69 16 22.44 1.67 1.41 3.41 2.72 5.19 3.88l.15.12.26.2.28.18.06.04.17.11.06.04.05.03.45.29 1.17.75c.94.62 1.83 1.15 2.77 1.68 2.59 1.44 5.39 2.97 8.29 4.35 5.21 2.53 10.13 4.7 14.63 6.44.85.34 1.71.67 2.57.99 6.53 3.99 26.04 14.74 46.91 14.74 12.63 0 23.67-3.84 32.82-11.41 12.21-10.1 20.01-25.53 23.2-45.87 3.03-19.31.86-36.62-.22-43.16-.52-3.17-1.39-7.58-2.57-10.62-1.09-2.82-2.79-5.24-5.06-7.21-5.53-8.05-13.68-12.95-23.74-14.32-5.56-4.3-13.19-6.81-21-6.81-.28 0-.56 0-.85.01-.65.01-1.3.06-1.94.13-1.8-.59-4.61-1.43-8.07-2.21l-.25-3.06c-.52-6.45-1.12-13.77-.88-19.68.54-10.75-.9-38.54-1.13-42.93.1-1.47.08-3-.06-4.48C145.29 20.44 134 10.2 120.35 10.2z"/><path fill="#E2AB74" d="M203.86 148.803s-1.227-27.333-27.843-28.054l-12.216-.33-7.33-5.71s-24.54-9.32-40.75-1.11l6.46 16.34 81.69 18.85z"/><path fill="#D39D6C" d="M112.756 116.665s-44.953-8.563-49.275 43.296c0 0 24.59 22 37.72 21.73 13.14-.27 21.57-41.41 21.57-41.41l-10.01-23.61z"/><path fill="#FAC283" d="M95.22 158.376c-.056.17.12-.16.08.324.026.368-.017.996-.062 1.83-.092 1.67-.235 4.174-.225 6.964.022 2.812.266 5.836.833 8.818.614 2.98 1.657 5.94 3.583 9.074.47.79 1.06 1.513 1.61 2.335l.02.04.01.02c.07.06-.57-.46-.29-.23l.09.09.19.19.39.36.52.48c.19.21.6.56 1.12.98 1.9 1.57 4.02 3.11 6.03 4.65 4.05 3.06 7.98 5.8 11.28 8.11 3.32 2.27 6.04 4.06 7.79 5.13l2.39 1.46 1.77 1.08c4.44 2.69 5.86 8.48 3.17 12.93-2.1 3.46-6.09 5.08-9.84 4.36l-1.39-.27c-.98-.18-2.13-.46-3.6-.84-2.86-.78-6.6-1.98-10.83-3.67-4.27-1.65-9.04-3.75-14.1-6.21-2.56-1.21-5.1-2.58-7.86-4.12-.64-.35-1.39-.8-2.35-1.41l-1.19-.77-.45-.29-.22-.14-.12-.07-.39-.29-.07-.05c-1.6-1.03-3.14-2.18-4.63-3.45-6.05-4.97-10.99-12.01-13.67-19.17-2.8-7.16-3.46-14.19-3.23-19.88.23-5.74 1.35-10.28 2.39-13.44.52-1.59 1.02-2.84 1.43-3.75.36-.79 2.36-8.96 2.3-8.8 2.91-8.01 10.17-4.96 18.18-2.06 8.01 2.91 12.15 11.76 9.24 19.76zm4.013 36.56L79.05 181.854s26.624-18.19 18.085-46.832c0 0 1.168-20.03 21.378-21.817 0 0 22.16.43 28.288 11.457 0 0 2.26-10.082 12.47-10.318 10.21-.24 21.77 5.08 23.14 15.988 0 0 15.96-2.907 19.86 7.227.68 1.75 1.46 4.9 2.14 9.02 3.22 19.64 4.07 61.51-20.19 81.57-29.35 24.27-72.51-5.31-72.51-5.31l-12.46-27.91z"/><path fill="#E2AB74" d="M142.304 133.48s-1.222 15.89-.203 24.732c0 0 19.3-12.563.21-24.733zm38.706 10.218s-2.804 19.666-4.464 28.408c0 0 19.13-11.027 4.463-28.408zm4.513 12.397s1.904 50.945-4.394 65.078c-2.67 5.983-11.38 3.45-11.38 3.45l6.79-52.517s7.56-12.316 8.98-16.01zm-37.513-7.75s2.73 47.03-1.68 61.853c-2.035 6.84-11.376 3.456-11.376 3.456l7.324-62.022s4.313.402 5.732-3.288z"/><path fill="#A67C52" d="M116.943 141.38s21.307-.65 42.5 1.423c10.597 1.006 21.165 1.992 28.99 3.763 1.966.415 3.748.605 5.316 1.09 1.56.47 2.95.657 4.05 1.136 2.2.842 3.46 1.26 3.46 1.26.41.154.62.59.46 1-.16.414-.6.6-1.01.466l-.09-.04s-1.23-.416-3.4-1.142c-1.05-.412-2.44-.67-3.98-1.063-1.54-.413-3.31-.77-5.26-1.093-7.76-1.434-18.28-2.47-28.82-3.06-21.11-1.205-42.23-.684-42.23-.684-1.39.035-2.54-.09-2.57-1.47-.04-1.376 1.06-1.585 2.44-1.585h.11zm-.137 5s21.308.355 42.505 2.42c10.6 1.022 21.17 2.503 29 4.278 1.96.4 3.75.848 5.32 1.332 1.57.463 2.95.788 4.05 1.264 2.21.838 3.47 1.32 3.47 1.32.42.157.63.626.47 1.038-.15.404-.59.61-1 .48l-.09-.038-3.4-1.137c-1.05-.41-2.43-.662-3.98-1.063-1.54-.41-3.31-.766-5.25-1.096-7.75-1.43-18.27-2.47-28.81-3.058-21.1-1.205-42.23-.687-42.23-.687-1.38.037-2.53-1.086-2.57-2.463-.03-1.387 1.07-2.592 2.45-2.592.04.003.08.003.11.003zm-.276 9s21.306.868 42.5 2.935c10.6 1.018 21.17 2.748 29 4.52 1.956.414 3.742.984 5.313 1.468 1.57.467 2.95.848 4.05 1.324 2.206.844 3.462 1.356 3.462 1.356.417.157.63.644.468 1.052-.155.404-.6.62-1.005.484l-.088-.03s-1.234-.41-3.398-1.14c-1.048-.41-2.436-.66-3.977-1.06-1.545-.41-3.31-.77-5.26-1.09-7.75-1.44-18.273-2.47-28.813-3.06-21.103-1.21-42.23-.69-42.23-.69-1.387.03-2.536-1.59-2.57-2.98-.037-1.39 1.06-3.11 2.444-3.11h.104zm-.267 13s21.305-.624 42.503 1.44c10.592 1.02 21.164 2.01 28.99 3.784 1.962.406 3.747.606 5.318 1.09 1.565.47 2.953.66 4.046 1.135 2.21.84 3.467 1.26 3.467 1.26.417.15.626.59.465 1-.15.4-.598.59-1.002.46l-.09-.05s-1.233-.41-3.396-1.14c-1.052-.41-2.44-.67-3.98-1.06-1.54-.42-3.31-.77-5.255-1.1-7.76-1.44-18.28-2.47-28.82-3.06-21.1-1.2-42.23-.68-42.23-.68-1.39.03-2.54-.11-2.57-1.49-.04-1.39 1.06-1.62 2.44-1.62h.11zm-1.017 13.2s5.218-1.25 13.02-2.39c7.83-1.14 18.35-2.144 28.9-2.037 5.273.104 10.544.42 15.454 1.058 2.442.41 4.827.62 7.038 1.14 2.22.52 4.328.9 6.235 1.44 1.892.58 3.628 1.12 5.17 1.58 1.54.46 2.805 1.12 3.883 1.53l3.35 1.39c.412.17.604.64.437 1.06-.167.4-.615.6-1.017.45l-.084-.03s-1.21-.44-3.324-1.22c-1.072-.35-2.313-.94-3.838-1.32-1.52-.39-3.23-.84-5.092-1.34-1.88-.44-3.963-.73-6.137-1.14-2.16-.42-4.51-.53-6.91-.83-4.81-.43-9.98-.53-15.14-.42-10.32.32-20.58 1.72-28.18 3.14-7.63 1.44-12.52 2.83-12.52 2.83-1.33.38-2.72-.4-3.09-1.73-.38-1.33.4-2.71 1.73-3.09.04-.01.07-.02.1-.02l.04-.01z"/><path fill="#FAC283" d="M104.62 127.448s-.033-2.03-.125-10.37c-.045-8.346.198-22.45-.23-33.576-.54-11.124-.394-22.792-1.045-31.14-.66-8.34-1.117-13.906-1.117-13.906-.99-10.107 6.438-19.102 16.55-20.09 10.11-.99 19.132 6.405 20.12 16.513.112 1.19.113 2.46.004 3.61 0 0 1.722 31.56 1.16 42.68-.448 11.12 1.725 25.57 1.664 33.91-.11 8.34-6.77 12.4-6.77 12.4.18 7.96-6.81 14.56-14.78 14.74-7.97.18-15.43-6.13-15.43-14.1v-.68z"/><path fill="#fff" d="M110.446 37.067s-.91-9.45 6.096-10.284c7.004-.838 17.564.83 17.297 12.11 0 0 .15 4.6-3.19 4.6-3.35 0-13.39-2.395-16.64-2.094-3.64.33-3.57-4.34-3.57-4.34z"/><path fill="#FAC283" d="M135.93 90.478s3.847 21.382 10.87 34.184l-22.173 2.802-2.5-40.117 13.804 3.13z"/></svg>