<svg xmlns="http://www.w3.org/2000/svg" width="256" height="256" viewBox="0 0 256 256"><path fill="#FAC283" d="M99.235 54.916s27.25-6.5 35 7.25 5.25 29 5.25 29"/><path fill="#D39D6C" d="M139.32 104.084s8.563-44.953-43.296-49.275c0 0-22 24.58-21.73 37.72.27 13.14 41.41 21.56 41.41 21.56l23.61-10.01h.006z"/><path fill="#FAC283" d="M97.61 86.55c-.17-.058.16.12-.325.08-.368.024-.996-.022-1.83-.064-1.67-.092-4.174-.234-6.964-.225-2.81.03-5.83.27-8.81.84-2.98.62-5.94 1.66-9.07 3.59-.79.47-1.51 1.07-2.33 1.61l-.04.03-.02.01c-.06.08.46-.57.23-.28l-.09.1-.19.2-.36.39-.48.53c-.21.2-.56.6-.98 1.13-1.57 1.9-3.11 4.03-4.65 6.04-3.06 4.06-5.8 7.99-8.11 11.29-2.27 3.32-4.06 6.04-5.13 7.79L47 122l-1.08 1.78c-2.69 4.44-8.48 5.86-12.93 3.17-3.46-2.1-5.08-6.08-4.36-9.83l.27-1.39c.18-.97.46-2.13.84-3.59.78-2.854 1.98-6.604 3.67-10.83 1.65-4.274 3.75-9.04 6.21-14.1 1.21-2.554 2.58-5.104 4.12-7.86.35-.64.8-1.39 1.41-2.34l.77-1.184.29-.45.15-.22.07-.11.29-.39.05-.07c1.03-1.6 2.18-3.14 3.45-4.63 4.98-6.05 12.02-10.98 19.17-13.67 7.16-2.81 14.19-3.46 19.88-3.23 5.75.23 10.28 1.35 13.44 2.39 1.59.52 2.84 1.02 3.75 1.43.79.36 8.97 2.37 8.8 2.31 8.01 2.91 4.96 10.17 2.06 18.17-2.91 8.01-11.76 12.15-19.76 9.25l.064-.05zm-36.56 4.01l13.08-20.18S92.32 97 120.964 88.462c0 0 20.03 1.168 21.817 21.378 0 0 7.74 18.948-3.29 25.076 0 0 10.77 7.543 11 17.75.24 10.206-13.92 19.69-24.83 21.06 0 0 15.58 14.44-4.4 26.3-1.75.69-4.9 1.46-9.02 2.14-19.64 3.222-64.34-2.368-84.4-26.628-24.27-29.35 5.31-72.51 5.31-72.51l27.91-12.462v-.005z"/><path fill="#E2AB74" d="M122.505 133.632s-15.89-1.222-24.732-.202c0 0 12.563 19.3 24.732.202zm-10.218 38.704s-19.666-2.802-28.408-4.462c0 0 11.02 19.13 28.4 4.462zm-12.397 4.516s-50.945 1.904-65.078-4.394c-5.983-2.667-3.45-11.374-3.45-11.374l52.517 6.79s12.31 7.56 16.01 8.978zm7.75-37.514s-47.03 2.73-61.853-1.68c-6.84-2.035-3.456-11.376-3.456-11.376l62.03 7.323s-.4 4.314 3.29 5.733z"/><path fill="#A67C52" d="M114.605 108.27s.65 21.31-1.423 42.502c-1.006 10.597-1.992 21.164-3.763 28.99-.42 1.965-.61 3.747-1.09 5.315-.47 1.57-.66 2.96-1.14 4.05-.84 2.21-1.26 3.47-1.26 3.47-.16.42-.59.63-1 .47-.42-.15-.6-.59-.47-1l.04-.09 1.14-3.39c.41-1.05.67-2.44 1.06-3.98.41-1.54.77-3.31 1.09-5.25 1.43-7.75 2.47-18.27 3.06-28.81 1.2-21.1.68-42.23.68-42.23-.04-1.38.09-2.53 1.47-2.56 1.37-.03 1.58 1.06 1.58 2.44v.11-.036zm-5-.136s-.355 21.308-2.42 42.505c-1.022 10.59-2.503 21.16-4.278 28.98-.4 1.96-.848 3.75-1.332 5.32-.463 1.56-.788 2.95-1.264 4.04-.83 2.2-1.32 3.46-1.32 3.46-.15.42-.62.63-1.03.46-.4-.15-.61-.6-.48-1l.04-.1 1.14-3.4c.41-1.05.67-2.44 1.07-3.98.41-1.54.77-3.31 1.1-5.26 1.43-7.76 2.47-18.27 3.06-28.82 1.21-21.1.69-42.23.69-42.23-.03-1.38 1.09-2.53 2.47-2.57 1.39-.03 2.59 1.06 2.59 2.44v.11zm-9-.276s-.868 21.306-2.935 42.5c-1.018 10.6-2.748 21.17-4.52 29-.414 1.956-.984 3.743-1.468 5.314-.467 1.57-.848 2.95-1.324 4.05-.844 2.206-1.356 3.462-1.356 3.462-.157.418-.644.63-1.052.47-.404-.156-.62-.602-.484-1.007l.03-.08s.41-1.23 1.14-3.4c.41-1.05.66-2.43 1.06-3.97.41-1.54.77-3.31 1.09-5.26 1.44-7.75 2.47-18.27 3.06-28.81 1.21-21.1.69-42.23.69-42.23-.03-1.39 1.59-2.53 2.98-2.57 1.39-.04 3.11 1.06 3.11 2.44v.11l-.02-.02zm-13-.267s.624 21.31-1.44 42.51c-1.02 10.59-2.01 21.17-3.784 28.99-.4 1.96-.6 3.75-1.09 5.32-.47 1.57-.66 2.96-1.13 4.05-.84 2.21-1.26 3.47-1.26 3.47-.15.41-.59.62-1 .46-.4-.15-.59-.6-.46-1l.05-.09s.41-1.24 1.14-3.4c.41-1.05.67-2.44 1.06-3.98.42-1.54.77-3.31 1.1-5.26 1.44-7.76 2.47-18.28 3.06-28.82 1.2-21.1.68-42.23.68-42.23-.03-1.39.11-2.54 1.49-2.57 1.39-.03 1.62 1.06 1.62 2.44v.11l-.03.02zm-13.2-1.01s1.25 5.22 2.39 13.02c1.14 7.83 2.144 18.35 2.037 28.9-.104 5.27-.42 10.55-1.058 15.46-.41 2.44-.62 4.83-1.14 7.04-.52 2.22-.9 4.33-1.44 6.24-.58 1.89-1.12 3.63-1.58 5.17-.46 1.54-1.12 2.81-1.53 3.89l-1.39 3.35c-.17.41-.64.61-1.06.44-.4-.16-.6-.61-.45-1.01l.03-.08s.44-1.21 1.22-3.32c.35-1.07.94-2.31 1.32-3.84.39-1.52.84-3.23 1.34-5.09.44-1.88.73-3.96 1.14-6.13.42-2.17.53-4.52.83-6.91.43-4.81.53-9.98.42-15.14-.32-10.32-1.72-20.58-3.14-28.18-1.44-7.63-2.83-12.52-2.83-12.52-.38-1.33.4-2.72 1.73-3.1 1.33-.38 2.71.39 3.09 1.73.01.04.02.07.02.1l.01.04.04-.05z"/><path fill="#FAC283" d="M128.537 96.546s2.03-.33 10.37-.422c8.346-.045 22.45.047 33.576-.38 11.124-.54 22.792-.47 31.14-1.12 8.34-.66 13.906-1.155 13.906-1.155 10.1-.99 19.1 6.42 20.09 16.53.99 10.11-6.41 19.12-16.52 20.1-1.19.11-2.46.11-3.61 0 0 0-31.56 1.72-42.68 1.15-11.12-.45-25.57 1.72-33.91 1.66-8.34-.11-12.4-6.78-12.4-6.78-7.96.18-14.56-6.51-14.74-14.48-.18-7.97 6.13-15.13 14.1-15.13h.68-.01z"/><path fill="#fff" d="M218.92 101.775s9.448-.91 10.282 6.096c.838 7.01-.83 17.57-12.11 17.3 0 0-4.6.15-4.6-3.19s2.396-13.39 2.095-16.63c-.33-3.65 4.34-3.57 4.34-3.57h-.008z"/><path fill="#FAC283" d="M165.507 127.26s-21.38 3.846-34.184 10.87l-2.803-22.174 40.117-2.502-3.13 13.805zm-26.187-23.176s8.563-44.953-43.296-49.275c0 0-22 24.58-21.73 37.72.27 13.14 41.41 21.56 41.41 21.56l23.61-10.01h.006zM97.61 86.55c-.17-.058.16.12-.325.08-.368.024-.996-.022-1.83-.064-1.67-.092-4.174-.234-6.964-.225-2.81.03-5.83.27-8.81.84-2.98.62-5.94 1.66-9.07 3.59-.79.47-1.51 1.07-2.33 1.61l-.04.03-.02.01c-.06.08.46-.57.23-.28l-.09.1-.19.2-.36.39-.48.53c-.21.2-.56.6-.98 1.13-1.57 1.9-3.11 4.03-4.65 6.04-3.06 4.06-5.8 7.99-8.11 11.29-2.27 3.32-4.06 6.04-5.13 7.79L47 122l-1.08 1.78c-2.69 4.44-8.48 5.86-12.93 3.17-3.46-2.1-5.08-6.08-4.36-9.83l.27-1.39c.18-.97.46-2.13.84-3.59.78-2.854 1.98-6.604 3.67-10.83 1.65-4.274 3.75-9.04 6.21-14.1 1.21-2.554 2.58-5.104 4.12-7.86.35-.64.8-1.39 1.41-2.34l.77-1.184.29-.45.15-.22.07-.11.29-.39.05-.07c1.03-1.6 2.18-3.14 3.45-4.63 4.98-6.05 12.02-10.98 19.17-13.67 7.16-2.81 14.19-3.46 19.88-3.23 5.75.23 10.28 1.35 13.44 2.39 1.59.52 2.84 1.02 3.75 1.43.79.36 8.97 2.37 8.8 2.31 8.01 2.91 4.96 10.17 2.06 18.17-2.91 8.01-11.76 12.15-19.76 9.25l.064-.05zm-36.56 4.01l13.08-20.18S92.32 97 120.964 88.462c0 0 20.03 1.168 21.817 21.378 0 0 7.74 18.948-3.29 25.076 0 0 11.43 6.877 11.67 17.084.24 10.206-14.59 20.355-25.5 21.727 0 0 15.59 14.44-4.39 26.3-1.75.69-4.9 1.46-9.02 2.14-19.64 3.22-64.34-2.37-84.4-26.63-24.27-29.35 5.31-72.51 5.31-72.51l27.91-12.46v-.006z"/><path fill="#E2AB74" d="M131.506 133.965s-15.89-1.222-24.732-.202c0 0 12.562 19.3 24.732.202zm-10.22 38.705s-19.665-2.803-28.407-4.463c0 0 11.02 19.13 28.4 4.462zm-12.396 4.515s-50.945 1.904-65.078-4.394c-5.983-2.66-3.45-11.37-3.45-11.37l52.517 6.79s12.31 7.56 16.01 8.98zm7.75-37.515s-47.03 2.73-61.853-1.68c-6.84-2.034-3.456-11.375-3.456-11.375l62.03 7.323s-.4 4.314 3.29 5.733z"/><path fill="#A67C52" d="M114.605 108.27s.65 21.31-1.423 42.502c-1.006 10.597-1.992 21.164-3.763 28.99-.42 1.965-.61 3.747-1.09 5.315-.47 1.57-.66 2.96-1.14 4.05-.84 2.21-1.26 3.47-1.26 3.47-.16.42-.59.63-1 .47-.42-.15-.6-.59-.47-1l.04-.09 1.14-3.39c.41-1.05.67-2.44 1.06-3.98.41-1.54.77-3.31 1.09-5.25 1.43-7.75 2.47-18.27 3.06-28.81 1.2-21.1.68-42.23.68-42.23-.04-1.38.09-2.53 1.47-2.56 1.37-.03 1.58 1.06 1.58 2.44v.11-.036zm-5-.136s-.355 21.308-2.42 42.505c-1.022 10.59-2.503 21.16-4.278 28.98-.4 1.96-.848 3.75-1.332 5.32-.463 1.56-.788 2.95-1.264 4.04-.83 2.2-1.32 3.46-1.32 3.46-.15.42-.62.63-1.03.46-.4-.15-.61-.6-.48-1l.04-.1 1.14-3.4c.41-1.05.67-2.44 1.07-3.98.41-1.54.77-3.31 1.1-5.26 1.43-7.76 2.47-18.27 3.06-28.82 1.21-21.1.69-42.23.69-42.23-.03-1.38 1.09-2.53 2.47-2.57 1.39-.03 2.59 1.06 2.59 2.44v.11zm-9-.276s-.868 21.306-2.935 42.5c-1.018 10.6-2.748 21.17-4.52 29-.414 1.956-.984 3.743-1.468 5.314-.467 1.57-.848 2.95-1.324 4.05-.844 2.206-1.356 3.462-1.356 3.462-.157.418-.644.63-1.052.47-.404-.156-.62-.602-.484-1.007l.03-.08s.41-1.23 1.14-3.4c.41-1.05.66-2.43 1.06-3.97.41-1.54.77-3.31 1.09-5.26 1.44-7.75 2.47-18.27 3.06-28.81 1.21-21.1.69-42.23.69-42.23-.03-1.39 1.59-2.53 2.98-2.57 1.39-.04 3.11 1.06 3.11 2.44v.11l-.02-.02zm-13-.267s.624 21.31-1.44 42.51c-1.02 10.59-2.01 21.17-3.784 28.99-.4 1.96-.6 3.75-1.09 5.32-.47 1.57-.66 2.96-1.13 4.05-.84 2.21-1.26 3.47-1.26 3.47-.15.41-.59.62-1 .46-.4-.15-.59-.6-.46-1l.05-.09s.41-1.24 1.14-3.4c.41-1.05.67-2.44 1.06-3.98.42-1.54.77-3.31 1.1-5.26 1.44-7.76 2.47-18.28 3.06-28.82 1.2-21.1.68-42.23.68-42.23-.03-1.39.11-2.54 1.49-2.57 1.39-.03 1.62 1.06 1.62 2.44v.11l-.03.02zm-13.2-1.01s1.25 5.22 2.39 13.02c1.14 7.83 2.144 18.35 2.037 28.9-.104 5.27-.42 10.55-1.058 15.46-.41 2.44-.62 4.83-1.14 7.04-.52 2.22-.9 4.33-1.44 6.24-.58 1.89-1.12 3.63-1.58 5.17-.46 1.54-1.12 2.81-1.53 3.89l-1.39 3.35c-.17.41-.64.61-1.06.44-.4-.16-.6-.61-.45-1.01l.03-.08s.44-1.21 1.22-3.32c.35-1.07.94-2.31 1.32-3.84.39-1.52.84-3.23 1.34-5.09.44-1.88.73-3.96 1.14-6.13.42-2.17.53-4.52.83-6.91.43-4.81.53-9.98.42-15.14-.32-10.32-1.72-20.58-3.14-28.18-1.44-7.63-2.83-12.52-2.83-12.52-.38-1.33.4-2.72 1.73-3.1 1.33-.38 2.71.39 3.09 1.73.01.04.02.07.02.1l.01.04.04-.05z"/><path fill="#FAC283" d="M128.537 96.546s-12.392-7.122-4.052-7.214c8.346-.045 35.54 3.094 46.667 2.667 11.124-.54 22.527-.96 32.333.66 8.34-.66 14.044.8 14.044.8 10.1-.99 19.1 6.42 20.09 16.53.99 10.11-6.41 19.12-16.52 20.1-1.19.11-2.46.11-3.61 0 0 0-31.56 1.72-42.68 1.15-11.12-.45-25.57 1.72-33.91 1.66-8.34-.11-12.4-6.77-12.4-6.77-7.96.18-14.56-6.51-14.74-14.48-.18-7.97 6.13-15.13 14.1-15.13h.68l-.01-.01zm36.97 30.714s-21.38 3.846-34.184 10.87l-2.803-22.174 40.117-2.502-3.13 13.805z"/><path fill="#E2AB74" d="M139.652 90.166s-26.667-15.25-42.167-14.5c0 0 16.75-5.5 25.25-1.75s17.084 9.708 17.084 9.708l-.17 6.542zm37.083 10.25s-13.25 16.5-1.25 27h8.75s-7.25-11.75-1-26.75c0 0-1.25-4-6.5-.25zm51.25 4.5s-4.75-8.75-15.5-3.5-6.035 24.506 4.607 23.753"/><path fill="#fff" d="M218.92 101.775s9.448-.91 10.282 6.096c.838 7.01-.83 17.57-12.11 17.3 0 0-4.6.15-4.6-3.19s2.396-13.39 2.095-16.63c-.33-3.65 4.34-3.57 4.34-3.57h-.008z"/><path fill="#333" d="M87.147 53.004c.72 0 1.424.015 2.107.043 4.396.176 8.073.872 10.976 1.655 2.076-.42 7.198-1.323 12.952-1.323 7.935 0 17.07 1.71 21.053 8.78 6.296 11.17 5.827 23.33 5.43 27.5l-.013.5-.036-.02-.01.09c9.94.78 21.822 1.8 29.23 1.8.83 0 1.606-.02 2.315-.04 5.24-.26 10.53-.48 15.7-.48 5.81 0 11.45.28 16.64 1.14 1.54-.12 2.98-.17 4.32-.17 5.93 0 9.73.97 9.73.97.61-.06 1.21-.09 1.81-.09 9.35 0 17.36 7.11 18.28 16.62.99 10.11-6.4 19.12-16.51 20.1-.59.05-1.2.08-1.81.08-.61 0-1.22-.03-1.79-.09 0 0-23.32 1.27-36.93 1.27-2.22 0-4.19-.04-5.75-.12-1.04-.05-2.11-.06-3.2-.06-9.32 0-20.2 1.38-27.83 1.67-.9.3-1.8.61-2.69.94-.48.4-1.01.77-1.6 1.09 0 0 11.43 6.88 11.67 17.09.1 4.2-2.35 8.38-6.03 11.95-5.07 5.13-12.86 8.94-19.46 9.77 0 0 15.59 14.44-4.39 26.3-1.75.69-4.9 1.46-9.02 2.14-3.28.54-7.26.83-11.72.83-22.17 0-55.97-7.26-72.68-27.46-21.54-26.05-.66-62.98 4.31-70.95.39-1.06.8-2.16 1.25-3.29 1.65-4.27 3.75-9.04 6.21-14.1 1.21-2.55 2.58-5.1 4.12-7.86.35-.64.8-1.39 1.41-2.34l.77-1.18.29-.45.15-.22.07-.11.29-.39.05-.07c1.03-1.6 2.18-3.14 3.45-4.63 4.98-6.05 12.02-10.98 19.17-13.67C75.68 53.8 81.88 53 87.15 53m0-8c-7.245 0-14.19 1.28-20.64 3.804-8.52 3.215-16.69 9.042-22.435 16-1.43 1.682-2.745 3.438-3.907 5.225l-.17.23-.168.22-.152.23-.008.01-.086.12-.055.08-.06.08-.29.45-.75 1.15-.02.02-.02.02c-.7 1.08-1.23 1.97-1.68 2.78-1.35 2.41-2.92 5.28-4.33 8.27-2.55 5.23-4.72 10.16-6.45 14.63-.36.88-.7 1.79-1.04 2.7-3.03 4.98-9.42 16.54-12.65 30.39-4.51 19.28-1.25 36.28 9.41 49.17 8.46 10.24 21.6 18.47 37.97 23.81 12.76 4.16 27.66 6.54 40.87 6.54 4.84 0 9.22-.32 13.01-.94 3.21-.53 7.66-1.41 10.66-2.59l.59-.24.55-.33c10.58-6.28 13.44-13.7 13.99-18.83.38-3.61-.25-6.91-1.31-9.76 4.76-2.16 9.25-5.18 12.73-8.68 5.64-5.5 8.54-11.66 8.39-17.83-.1-4.49-1.54-8.43-3.51-11.74 5.4-.44 10.95-.86 15.97-.86 1 0 1.95.02 2.84.05 1.61.08 3.66.12 6.11.12 12.67 0 33.12-1.06 36.81-1.25.62.04 1.26.06 1.91.06.87 0 1.73-.04 2.57-.12 7.03-.69 13.36-4.07 17.84-9.52 4.48-5.45 6.56-12.32 5.88-19.33-1.33-13.59-12.61-23.85-26.24-23.85-.42 0-.83.01-1.25.03-1.9-.36-5.53-.91-10.29-.91-1.32 0-2.65.04-3.98.12-4.87-.74-10.44-1.1-16.99-1.1-5.5 0-11.16.25-16.04.49-.58.02-1.24.03-1.97.03-5.29 0-13.27-.57-21.01-1.17-.24-6.67-1.67-15.84-6.62-24.63-3.31-5.87-10.85-12.86-28.02-12.86-5.1 0-9.69.61-12.71 1.14-3.53-.82-7.19-1.32-10.9-1.47-.8-.03-1.62-.05-2.43-.05z"/></svg>