<svg xmlns="http://www.w3.org/2000/svg" width="256" height="256" viewBox="0 0 256 256"><path fill="#FAC283" d="M141.368 241.724c-11.578 0-21.16-8.69-22.284-20.214-.128-1.35-.14-2.748-.033-4.07-.18-3.378-1.68-32.054-1.14-42.815.25-6.114-.36-13.578-.89-20.163-.17-2.095-.33-4.116-.46-6.03-5.33-1.016-9.52-2.334-11.45-2.992-.79.125-1.6.198-2.43.217-.24.006-.75.01-.75.01-7.34 0-14.46-2.463-19.38-6.644-9.59-1.027-17.29-5.562-22.36-13.186-1.96-1.594-3.41-3.595-4.32-5.956-.82-2.11-1.66-5.6-2.35-9.8-1-6.08-8.86-60.12 21.59-85.31 8.41-6.96 18.6-10.48 30.27-10.48 20.21 0 39.24 10.7 45.15 14.35.94.35 1.9.72 2.89 1.11 4.39 1.7 9.23 3.83 14.36 6.33 2.77 1.31 5.52 2.81 8.06 4.23.87.49 1.69.98 2.57 1.55l1.62 1.05.49.32.4.31c1.69 1.1 3.36 2.35 4.97 3.72 6.43 5.29 11.85 12.89 14.82 20.81 3.26 8.32 3.7 16.27 3.48 21.46-.2 5.01-1.07 9.9-2.59 14.53-.16.5-.32.95-.48 1.38-.81 4.12-1.94 7.97-3.36 11.46-.12.33-.25.65-.39.95-8.43 19.6-24.85 24.73-36 25.82l-.01 3.78c-.03 7.63-.06 17.12.24 24.96.24 4.98.35 10.03.45 14.93.12 5.94.24 11.55.59 16.06.66 8.33 1.12 13.89 1.12 13.89.58 5.89-1.2 11.72-5.01 16.34-3.81 4.62-9.18 7.48-15.13 8.07-.73.07-1.47.11-2.21.11z"/><path fill="#333" d="M105.36 18.276c19.614 0 38.23 10.735 43.384 13.963 1.02.37 2.078.77 3.17 1.21 4.264 1.64 9.035 3.74 14.094 6.21 2.553 1.2 5.1 2.58 7.856 4.12.64.36 1.393.8 2.347 1.41l1.19.76.45.29.22.14.12.07.39.29.07.05c1.6 1.03 3.14 2.18 4.64 3.45 6.05 4.97 10.98 12.01 13.67 19.17 2.8 7.15 3.46 14.19 3.23 19.88-.23 5.74-1.35 10.27-2.39 13.44-.18.56-.36 1.06-.54 1.54-.8 4.15-1.89 7.83-3.23 11.08-.1.27-.2.52-.31.77-8.53 19.83-25.98 23.42-36.34 23.68.03 8.43-.18 21.92.23 32.65.54 11.12.4 22.79 1.05 31.14.66 8.34 1.12 13.9 1.12 13.9.99 10.11-6.44 19.1-16.55 20.09-.61.06-1.21.09-1.81.09-9.35 0-17.37-7.1-18.3-16.6-.11-1.19-.11-2.47 0-3.61 0 0-1.72-31.56-1.16-42.68.39-9.47-1.13-21.34-1.55-29.81-8.22-1.24-14.53-3.57-14.94-3.72-.87.2-1.81.32-2.83.35-.22 0-.44.01-.66.01-6.4 0-13.23-2.17-17.69-6.51-10.94-.77-17.34-6.19-21.06-12.07-1.52-1.11-2.8-2.61-3.58-4.65-.68-1.76-1.46-4.9-2.14-9.02-3.23-19.63-4.07-61.5 20.19-81.56 8.54-7.07 18.25-9.57 27.73-9.57m0-8c-12.63 0-23.67 3.84-32.82 11.41C60.4 31.74 52.59 47.17 49.4 67.51c-3.024 19.31-.86 36.62.218 43.16.527 3.17 1.397 7.58 2.577 10.62 1.085 2.82 2.78 5.24 5.055 7.21 5.535 8.05 13.68 12.95 23.74 14.32 5.57 4.3 13.2 6.81 21 6.81.285 0 .57-.01.85-.01.65-.02 1.3-.06 1.947-.13 1.796.58 4.61 1.42 8.07 2.2l.243 3.06c.52 6.46 1.12 13.78.88 19.68-.534 10.75.9 38.54 1.136 42.93-.102 1.47-.082 3 .06 4.48 1.328 13.6 12.62 23.84 26.266 23.84.86 0 1.73-.047 2.59-.13 7.01-.685 13.35-4.06 17.83-9.5 4.48-5.43 6.57-12.27 5.91-19.26-.05-.6-.49-5.98-1.11-13.83-.35-4.39-.46-9.94-.58-15.81-.1-4.91-.06-9.98-.31-15.038-.3-7.745-.09-17.174-.09-24.75v-.278c12-1.91 27.17-8.34 35.54-27.757.16-.37.23-.716.364-1.063 1.474-3.63 2.62-7.61 3.47-11.84.143-.41.26-.8.39-1.2 1.632-4.98 2.56-10.233 2.774-15.62.326-7.97-.98-15.94-3.76-23.07-3.21-8.52-9.04-16.693-16.01-22.44-1.67-1.415-3.41-2.72-5.19-3.883l-.15-.12-.26-.2-.274-.18-.07-.04-.18-.12-.057-.04-.06-.03-.45-.29-1.17-.75c-.95-.62-1.83-1.15-2.77-1.68-2.6-1.45-5.4-2.98-8.3-4.35-5.2-2.53-10.12-4.7-14.63-6.45-.85-.34-1.71-.67-2.57-.99-6.53-3.99-26.04-14.74-46.91-14.74z"/><path fill="#E2AB74" d="M57.976 107.197s1.228 27.332 27.844 28.054l12.216.33 7.335 5.71s24.55 9.32 40.75 1.11l-6.46-16.34-81.68-18.86z"/><path fill="#D39D6C" d="M149.08 139.335s44.954 8.563 49.276-43.296c0 0-24.582-22-37.72-21.73-13.14.27-21.564 41.41-21.564 41.41l10.01 23.61z"/><path fill="#FAC283" d="M166.616 97.624c.057-.17-.12.16-.08-.324-.025-.368.02-.996.063-1.83.09-1.67.23-4.174.22-6.964-.02-2.812-.27-5.836-.83-8.818-.62-2.98-1.66-5.94-3.59-9.074-.47-.79-1.07-1.513-1.62-2.335l-.03-.04-.01-.02c-.08-.06.57.46.28.23l-.1-.09-.2-.19-.39-.36-.53-.48c-.2-.21-.61-.56-1.13-.98-1.9-1.57-4.03-3.11-6.04-4.65-4.06-3.06-7.99-5.8-11.29-8.11-3.33-2.27-6.04-4.06-7.8-5.13L131.16 47l-1.78-1.078c-4.44-2.69-5.86-8.48-3.17-12.93 2.1-3.454 6.088-5.074 9.84-4.36l1.39.27c.975.18 2.13.46 3.6.84 2.852.78 6.6 1.98 10.83 3.67 4.263 1.65 9.034 3.75 14.093 6.213 2.55 1.21 5.1 2.585 7.853 4.124.64.35 1.39.8 2.345 1.41l1.19.77.45.29.22.15.12.07.39.29.08.05c1.6 1.03 3.14 2.18 4.64 3.45 6.05 4.97 10.98 12.01 13.67 19.17 2.81 7.16 3.46 14.19 3.23 19.88-.23 5.74-1.35 10.28-2.39 13.44-.52 1.59-1.02 2.84-1.43 3.75-.36.79-2.36 8.96-2.3 8.8-2.91 8.01-10.17 4.96-18.17 2.06-8.01-2.91-12.15-11.76-9.24-19.76zm-4.012-36.56l20.182 13.082s-26.623 18.19-18.084 46.832c0 0-1.168 20.03-21.378 21.817 0 0-22.16-.43-28.288-11.457 0 0-2.253 10.08-12.46 10.317-10.206.24-21.766-5.08-23.138-15.987 0 0-15.956 2.907-19.86-7.227-.68-1.75-1.457-4.9-2.138-9.02-3.22-19.64-4.063-61.51 20.194-81.57 29.35-24.27 72.516 5.31 72.516 5.31l12.454 27.92z"/><path fill="#E2AB74" d="M119.534 122.52s1.222-15.89.203-24.732c0 0-19.3 12.563-.203 24.733zM80.83 112.302s2.802-19.666 4.462-28.408c0 0-19.13 11.027-4.463 28.408zm-4.516-12.397S74.41 48.96 80.708 34.827c2.667-5.983 11.374-3.45 11.374-3.45l-6.79 52.517s-7.56 12.316-8.978 16.01zm37.514 7.75s-2.73-47.03 1.68-61.853c2.035-6.84 11.376-3.456 11.376-3.456l-7.324 62.022s-4.313-.402-5.732 3.288z"/><path fill="#A67C52" d="M144.895 114.38s-21.307.772-42.5-1.302c-10.597-1.006-21.165-1.933-28.99-3.703-1.966-.415-3.748-.576-5.316-1.06-1.57-.47-2.96-.642-4.05-1.12-2.21-.843-3.47-1.254-3.47-1.254-.42-.15-.63-.58-.47-.99.15-.41.59-.6 1-.46l.09.05s1.23.42 3.39 1.14c1.05.42 2.44.67 3.98 1.07 1.54.42 3.31.77 5.25 1.1 7.75 1.44 18.27 2.47 28.81 3.06 21.1 1.21 42.23.69 42.23.69 1.38-.03 2.53-.03 2.56 1.35.03 1.38-1.06 1.47-2.44 1.47h-.11zm.135-5s-21.306-.233-42.503-2.3c-10.59-1.02-21.165-2.442-28.99-4.218-1.96-.4-3.75-.818-5.318-1.302-1.57-.463-2.95-.773-4.05-1.25l-3.47-1.313c-.42-.156-.63-.622-.47-1.034.15-.404.59-.61 1-.48l.09.04 3.4 1.137c1.05.41 2.43.663 3.98 1.063 1.54.41 3.31.766 5.25 1.096 7.75 1.43 18.26 2.47 28.81 3.05 21.1 1.2 42.23.68 42.23.68 1.38-.04 2.53.96 2.57 2.34.03 1.38-1.07 2.47-2.45 2.47H145zm.277-9s-21.305-.747-42.5-2.813c-10.6-1.018-21.17-2.688-29-4.46-1.956-.414-3.742-.955-5.313-1.438-1.57-.47-2.95-.84-4.05-1.31-2.206-.85-3.462-1.35-3.462-1.35-.417-.16-.63-.64-.468-1.05.155-.41.6-.62 1.005-.48l.08.03 3.4 1.13c1.05.41 2.43.66 3.97 1.06 1.54.41 3.31.77 5.26 1.09 7.75 1.43 18.27 2.47 28.81 3.06 21.1 1.2 42.23.68 42.23.68 1.39-.04 2.54 1.47 2.57 2.85.04 1.38-1.06 2.98-2.44 2.98h-.11zm.267-13s-21.305.745-42.503-1.317c-10.59-1.02-21.16-1.952-28.99-3.726-1.96-.406-3.74-.577-5.31-1.06-1.56-.47-2.95-.646-4.04-1.12-2.21-.844-3.46-1.26-3.46-1.26-.41-.155-.62-.59-.46-1.002.15-.406.6-.592 1-.462l.09.047s1.24.412 3.4 1.138c1.06.408 2.44.668 3.98 1.063 1.54.42 3.31.78 5.26 1.1 7.76 1.44 18.28 2.47 28.82 3.06 21.1 1.2 42.23.69 42.23.69 1.38-.03 2.53-.01 2.57 1.37.03 1.39-1.06 1.5-2.44 1.5h-.11zm1.016-12.96s-5.217 1.25-13.02 2.39c-7.828 1.14-18.348 2.144-28.9 2.037-5.272-.104-10.543-.42-15.453-1.058-2.442-.41-4.827-.62-7.038-1.14-2.22-.52-4.33-.9-6.24-1.44-1.89-.58-3.63-1.12-5.17-1.58-1.54-.46-2.81-1.12-3.89-1.53l-3.35-1.39c-.41-.17-.61-.64-.44-1.06.16-.4.61-.6 1.01-.45l.08.03s1.21.44 3.32 1.22c1.07.35 2.31.94 3.84 1.32 1.52.39 3.23.84 5.09 1.34 1.88.44 3.96.73 6.13 1.14 2.17.42 4.52.53 6.91.83 4.81.43 9.98.53 15.14.42 10.32-.32 20.58-1.72 28.18-3.14 7.63-1.44 12.52-2.83 12.52-2.83 1.33-.38 2.72.4 3.1 1.73.38 1.33-.39 2.71-1.73 3.09-.04.01-.07.02-.1.02l-.04.01z"/><path fill="#FAC283" d="M156.62 128.552s.33 2.03.422 10.37c.045 8.346-.048 22.45.38 33.576.54 11.124.47 22.792 1.12 31.14.66 8.34 1.155 13.906 1.155 13.906.99 10.106-6.42 19.102-16.533 20.09-10.11.99-19.12-6.405-20.108-16.513-.113-1.19-.11-2.46 0-3.61 0 0-1.72-31.56-1.158-42.68.448-11.12-1.724-25.57-1.663-33.91.11-8.34 6.774-12.4 6.774-12.4-.19-7.96 6.51-14.56 14.47-14.74 7.97-.18 15.13 6.13 15.13 14.1v.68z"/><path fill="#fff" d="M151.39 218.933s.91 9.45-6.095 10.284c-7.004.838-17.564-.83-17.298-12.11 0 0-.15-4.6 3.19-4.6 3.345 0 13.39 2.395 16.634 2.094 3.65-.33 3.57 4.34 3.57 4.34z"/><path fill="#FAC283" d="M125.907 165.522s-3.846-21.382-10.87-34.184l22.173-2.802 2.502 40.117-13.805-3.13z"/></svg>