<?xml version="1.0" encoding="utf-8"?>
<!-- Generator: Adobe Illustrator 16.0.0, SVG Export Plug-In . SVG Version: 6.00 Build 0)  -->
<!DOCTYPE svg PUBLIC "-//W3C//DTD SVG 1.1//EN" "http://www.w3.org/Graphics/SVG/1.1/DTD/svg11.dtd">
<svg version="1.1" id="Layer_1" xmlns="http://www.w3.org/2000/svg" xmlns:xlink="http://www.w3.org/1999/xlink" x="0px" y="0px"
	 width="256px" height="256px" viewBox="0 0 256 256" enable-background="new 0 0 256 256" xml:space="preserve">
<path fill="#FFFFFF" d="M195.87,150.002c0,0-30.82,51.428-68.835,51.428c-38.018,0-63.934-51.75-63.934-51.75S90.08,97.9,128,100.54
	c48.718,3.39,67.87,49.46,67.87,49.46V150.002z"/>
<path fill="#F2F2F2" d="M74.895,170.546c0,0,40.975-41.498,106.975,3.835l15.75-15.25c0,0-56.667-98.08-132.667-13.41l-3.27,9.61
	c0,0,5.154,14.06,13.212,15.229V170.546z"/>
<path fill="#0071BC" d="M159.715,148.714c0,17.345-14.066,31.41-31.413,31.41c-17.345,0-31.408-14.065-31.408-31.41
	c0-17.353,14.063-31.412,31.408-31.412S159.715,131.361,159.715,148.714z"/>
<path fill="#082031" d="M128.302,183.714c-19.3,0-34.997-15.698-34.997-35c0-19.306,15.698-35.002,34.997-35.002
	c19.3,0,35.003,15.696,35.003,35.002C163.305,168.016,147.604,183.714,128.302,183.714z M128.302,120.892
	c-15.34,0-27.818,12.48-27.818,27.822c0,15.341,12.477,27.82,27.818,27.82c15.343,0,27.822-12.479,27.822-27.82
	C156.124,133.371,143.645,120.892,128.302,120.892L128.302,120.892z M144.904,147.813c0,8.803-7.129,15.93-15.932,15.93
	c-8.796,0-15.93-7.126-15.93-15.928c0-8.801,7.134-15.929,15.93-15.929c8.801,0,15.932,7.128,15.932,15.929V147.813z"/>
<path fill="#FFFFFF" d="M142.607,131.885c0,5.69-4.616,10.29-10.306,10.29c-5.687,0-10.295-4.6-10.295-10.29
	c0-5.678,4.61-10.29,10.295-10.29C137.992,121.595,142.607,126.207,142.607,131.885z"/>
<path d="M61.684,155.316c0,0,0.557,0.916,1.623,2.345c0.982,1.44,2.63,3.399,4.498,5.68c1.047,1.08,2.145,2.25,3.258,3.521
	c1.063,1.31,2.465,2.449,3.832,3.689c1.396,1.21,2.75,2.561,4.273,3.75c1.584,1.131,3.197,2.26,4.81,3.391
	c1.626,1.109,3.067,2.479,4.847,3.319c1.71,0.94,3.352,1.921,4.934,2.9c1.6,0.95,3.11,1.94,4.6,2.76c1.54,0.75,3.02,1.41,4.33,2.16
	c5.3,2.819,8.58,5.771,8.58,5.771s-4.25-0.131-10.25-1.931c-1.52-0.399-3.1-1-4.79-1.569c-1.62-0.771-3.27-1.69-5.01-2.591
	c-1.73-0.899-3.52-1.85-5.3-2.89c-1.85-0.92-3.45-2.311-5.13-3.57c-1.65-1.31-3.28-2.619-4.9-3.91c-1.54-1.369-2.85-2.97-4.22-4.38
	c-1.33-1.47-2.72-2.76-3.67-4.329c-1.05-1.48-2-2.91-2.84-4.221c-0.79-1.37-1.29-2.77-1.84-3.91c-0.57-1.13-0.9-2.23-1.1-3.14
	c-0.53-1.761-0.57-2.8-0.57-2.8L61.684,155.316z"/>
<path d="M61.684,161.136c0,0,2.246,4.077,6.545,9.162c1.09,1.25,2.22,2.63,3.55,3.983c1.31,1.359,2.69,2.779,4.28,4.09
	c3.08,2.72,6.7,5.199,10.46,7.41c1.96,0.97,3.78,2.21,5.76,3.06c2,0.81,3.86,1.851,5.79,2.58c1.93,0.729,3.81,1.431,5.59,2.09
	c1.81,0.58,3.55,1.05,5.12,1.65c3.14,1.22,5.87,1.89,7.74,2.75c1.89,0.75,2.97,1.31,2.97,1.31s-1.17,0.2-3.21,0.311
	c-2.04,0.08-5.02,0.369-8.46-0.29c-1.74-0.22-3.6-0.61-5.57-1.011l-6.05-1.879c-2.1-0.65-4.17-1.66-6.3-2.58
	c-2.12-0.94-4.14-2.201-6.2-3.351c-3.97-2.601-7.74-5.5-10.78-8.739c-3.16-3.101-5.59-6.5-7.37-9.531
	c-1.69-3.109-2.78-5.84-3.3-7.819c-0.54-1.979-0.63-3.14-0.63-3.14L61.684,161.136z"/>
<path d="M198.363,155.503c0,0-1.523-2.522-4.434-6.63c-2.921-4.098-7.25-9.827-13.08-16.196
	c-5.851-6.334-13.19-13.383-22.371-19.354c-4.59-2.96-9.67-5.6-15.189-7.49c-2.74-0.988-5.63-1.66-8.54-2.203
	c-1.479-0.207-3.069-0.407-4.521-0.514c-1.33-0.02-2.919-0.18-4.379-0.078c-11.69,0.096-23.39,3.278-32.93,8.722
	c-9.57,5.48-16.91,12.803-22.25,19.604c-2,2.52-3.71,5-5.15,7.359c-0.51-0.024-1.06-0.067-1.64-0.084
	c-1.08-0.21-2.32-0.34-3.45-0.729c-1.09-0.479-2.38-0.74-3.28-1.479c-0.92-0.69-2.04-1.131-2.6-1.91
	c-1.33-1.431-2.22-2.391-2.22-2.391l1.52,2.96c0.37,0.99,1.33,1.72,2.14,2.771c0.8,1.08,2.03,1.75,3.15,2.649
	c1.16,0.81,2.49,1.37,3.71,1.96c0.15,0.04,0.29,0.09,0.43,0.141c-0.32,0.609-0.62,1.209-0.9,1.8c-0.37,0.04-0.79,0.08-1.29,0.09
	c-0.89,0.101-1.91-0.04-3.05-0.069c-1.07-0.211-2.31-0.341-3.44-0.74c-1.09-0.471-2.38-0.74-3.27-1.471
	c-0.92-0.689-2.04-1.13-2.6-1.91l-2.22-2.39l1.52,2.96c0.37,0.99,1.33,1.73,2.14,2.76c0.79,1.09,2.03,1.75,3.15,2.65
	c1.16,0.811,2.48,1.37,3.7,1.96c1.16,0.38,2.26,0.819,3.26,1.03c-0.01,0.02-0.02,0.039-0.02,0.06c-0.94,2.33-1.38,4.28-1.69,5.59
	l-0.4,2.05c0,0,2.6-2.08,6.31-5.529c1.83-1.75,3.91-3.86,6.15-6.271c2.2-2.439,4.6-5.17,7.43-7.87
	c5.69-5.369,12.89-10.74,21.13-14.3c4.01-1.99,8.36-3.44,12.86-4.47c4.45-1.25,9.16-1.96,13.99-2.09l0.9-0.11h0.07l0.53,0.07
	l2.12,0.09l2.86,0.25c2.14,0.34,4.31,0.75,6.449,1.45c4.27,1.4,8.65,3.15,12.711,5.49c8.18,4.64,15.529,10.43,21.689,15.7
	c6.119,5.351,11.13,10.16,14.58,13.601l5.4,5.43l0.5,0.51c0.92,0.91,2.369,1.13,3.52,0.431c1.359-0.82,1.8-2.58,0.98-3.94
	L198.363,155.503z"/>
<path d="M57.714,113.25c0,0,0.54-0.356,1.55-1.028c0.985-0.645,2.43-1.527,4.28-2.61c3.7-2.16,9.072-5.018,15.78-7.874
	c6.716-2.806,14.79-5.62,23.788-7.347c8.973-1.7,18.896-2.34,28.592-0.67c4.842,0.73,9.563,2.15,14.019,3.93
	c4.403,1.9,8.625,4.06,12.266,6.76c1.902,1.23,3.619,2.64,5.25,4.08c1.697,1.35,3.195,2.84,4.609,4.34
	c2.967,2.85,5.271,5.98,7.465,8.77c2.006,2.94,3.942,5.56,5.295,8.1c1.437,2.5,2.744,4.62,3.584,6.51l2.828,5.811
	c0.385,0.789,0.054,1.729-0.723,2.109c-0.755,0.37-1.656,0.08-2.061-0.64l-0.039-0.07l-3.073-5.479
	c-0.916-1.78-2.3-3.771-3.817-6.09c-1.44-2.381-3.438-4.75-5.496-7.44c-2.232-2.52-4.566-5.36-7.48-7.85
	c-1.395-1.32-2.859-2.62-4.495-3.77c-1.569-1.23-3.21-2.44-5.01-3.46c-3.444-2.28-7.364-3.98-11.386-5.46
	c-4.07-1.36-8.33-2.39-12.69-2.8c-8.7-1-17.58,0.06-25.66,2.06c-8.1,2.03-15.4,5.03-21.45,7.96c-6.05,2.99-10.87,5.91-14.13,8.06
	c-3.32,2.2-4.91,3.46-4.91,3.46l-0.1,0.08c-2.52,1.98-6.16,1.55-8.14-0.96c-1.99-2.51-1.56-6.15,0.95-8.14
	c0.12-0.09,0.26-0.19,0.38-0.28L57.714,113.25z"/>
<path fill="#42210B" d="M49.53,93.99c0,0,56.92-73.65,155.09,20.39l-2.5-29c0,0-74.26-43.74-117.336-27.745
	c0,0-32.773,16.964-35.254,36.357V93.99z"/>
</svg>
