<svg xmlns="http://www.w3.org/2000/svg" width="256" height="256" viewBox="0 0 256 256"><path fill="#FAC283" d="M201.084 99.235s6.5 27.25-7.25 35-29 5.25-29 5.25"/><path fill="#D39D6C" d="M151.916 139.32s44.953 8.563 49.275-43.296c0 0-24.58-22-37.72-21.73-13.14.27-21.56 41.41-21.56 41.41l10.01 23.61v.005z"/><path fill="#FAC283" d="M169.45 97.61c.058-.17-.12.16-.08-.325-.024-.368.022-.996.064-1.83.092-1.67.234-4.174.225-6.964-.03-2.81-.27-5.83-.84-8.81-.62-2.98-1.66-5.94-3.59-9.07-.47-.79-1.07-1.51-1.61-2.33l-.03-.04-.01-.02c-.08-.06.57.46.28.23l-.1-.09-.2-.19-.39-.36-.53-.48c-.2-.21-.6-.56-1.13-.98-1.9-1.57-4.03-3.11-6.04-4.65-4.06-3.06-7.99-5.8-11.29-8.11-3.32-2.27-6.04-4.06-7.79-5.13L134 47l-1.78-1.08c-4.44-2.69-5.86-8.48-3.17-12.93 2.1-3.46 6.08-5.08 9.83-4.36l1.39.27c.97.18 2.13.46 3.59.84 2.854.78 6.604 1.98 10.83 3.67 4.274 1.65 9.04 3.75 14.1 6.21 2.554 1.21 5.104 2.58 7.86 4.12.64.35 1.39.8 2.34 1.41l1.184.77.45.29.22.15.11.07.39.29.07.05c1.6 1.03 3.14 2.18 4.63 3.45 6.05 4.98 10.98 12.02 13.67 19.17 2.81 7.16 3.46 14.19 3.23 19.88-.23 5.75-1.35 10.28-2.39 13.44-.52 1.59-1.02 2.84-1.43 3.75-.36.79-2.37 8.97-2.31 8.8-2.91 8.01-10.17 4.96-18.17 2.06-8.01-2.91-12.15-11.76-9.25-19.76l.05.064zm-4.01-36.56l20.18 13.08S159 92.32 167.538 120.964c0 0-1.168 20.03-21.378 21.817 0 0-18.948 7.74-25.076-3.29 0 0-7.543 10.77-17.75 11-10.206.24-19.69-13.92-21.06-24.83 0 0-14.44 15.58-26.3-4.4-.69-1.75-1.46-4.9-2.14-9.02-3.222-19.64 2.368-64.34 26.628-84.4 29.35-24.27 72.51 5.31 72.51 5.31l12.462 27.91h.005z"/><path fill="#E2AB74" d="M122.368 122.505s1.222-15.89.202-24.732c0 0-19.3 12.563-.202 24.732zm-38.704-10.218s2.802-19.666 4.462-28.408c0 0-19.13 11.02-4.462 28.4zM79.148 99.89s-1.904-50.945 4.394-65.078c2.667-5.983 11.374-3.45 11.374-3.45l-6.79 52.517s-7.56 12.31-8.978 16.01zm37.514 7.75s-2.73-47.03 1.68-61.853c2.035-6.84 11.376-3.456 11.376-3.456l-7.323 62.03s-4.314-.4-5.733 3.29z"/><path fill="#A67C52" d="M147.73 114.605s-21.31.65-42.502-1.423c-10.597-1.006-21.164-1.992-28.99-3.763-1.965-.42-3.747-.61-5.315-1.09-1.57-.47-2.96-.66-4.05-1.14-2.21-.84-3.47-1.26-3.47-1.26-.42-.16-.63-.59-.47-1 .15-.42.59-.6 1-.47l.09.04 3.39 1.14c1.05.41 2.44.67 3.98 1.06 1.54.41 3.31.77 5.25 1.09 7.75 1.43 18.27 2.47 28.81 3.06 21.1 1.2 42.23.68 42.23.68 1.38-.04 2.53.09 2.56 1.47.03 1.37-1.06 1.58-2.44 1.58h-.11.036zm.136-5s-21.308-.355-42.505-2.42c-10.59-1.022-21.16-2.503-28.98-4.278-1.96-.4-3.75-.848-5.32-1.332-1.56-.463-2.95-.788-4.04-1.264-2.2-.83-3.46-1.32-3.46-1.32-.42-.15-.63-.62-.46-1.03.15-.4.6-.61 1-.48l.1.04 3.4 1.14c1.05.41 2.44.67 3.98 1.07 1.54.41 3.31.77 5.26 1.1 7.76 1.43 18.27 2.47 28.82 3.06 21.1 1.21 42.23.69 42.23.69 1.38-.03 2.53 1.09 2.57 2.47.03 1.39-1.06 2.59-2.44 2.59h-.11zm.276-9s-21.306-.868-42.5-2.935c-10.6-1.018-21.17-2.748-29-4.52-1.956-.414-3.743-.984-5.314-1.468-1.57-.467-2.95-.848-4.05-1.324-2.206-.844-3.462-1.356-3.462-1.356-.418-.157-.63-.644-.47-1.052.156-.404.602-.62 1.007-.484l.08.03s1.23.41 3.4 1.14c1.05.41 2.43.66 3.97 1.06 1.54.41 3.31.77 5.26 1.09 7.75 1.44 18.27 2.47 28.81 3.06 21.1 1.21 42.23.69 42.23.69 1.39-.03 2.53 1.59 2.57 2.98.04 1.39-1.06 3.11-2.44 3.11h-.11l.02-.02zm.267-13s-21.31.624-42.51-1.44c-10.59-1.02-21.17-2.01-28.99-3.784-1.96-.4-3.75-.6-5.32-1.09-1.57-.47-2.96-.66-4.05-1.13-2.21-.84-3.47-1.26-3.47-1.26-.41-.15-.62-.59-.46-1 .15-.4.6-.59 1-.46l.09.05s1.24.41 3.4 1.14c1.05.41 2.44.67 3.98 1.06 1.54.42 3.31.77 5.26 1.1 7.76 1.44 18.28 2.47 28.82 3.06 21.1 1.2 42.23.68 42.23.68 1.39-.03 2.54.11 2.57 1.49.03 1.39-1.06 1.62-2.44 1.62h-.11l-.02-.03zm1.01-13.2s-5.22 1.25-13.02 2.39c-7.83 1.14-18.35 2.144-28.9 2.037-5.27-.104-10.55-.42-15.46-1.058-2.44-.41-4.83-.62-7.04-1.14-2.22-.52-4.33-.9-6.24-1.44-1.89-.58-3.63-1.12-5.17-1.58-1.54-.46-2.81-1.12-3.89-1.53l-3.35-1.39c-.41-.17-.61-.64-.44-1.06.16-.4.61-.6 1.01-.45l.08.03s1.21.44 3.32 1.22c1.07.35 2.31.94 3.84 1.32 1.52.39 3.23.84 5.09 1.34 1.88.44 3.96.73 6.13 1.14 2.17.42 4.52.53 6.91.83 4.81.43 9.98.53 15.14.42 10.32-.32 20.58-1.72 28.18-3.14 7.63-1.44 12.52-2.83 12.52-2.83 1.33-.38 2.72.4 3.1 1.73.38 1.33-.39 2.71-1.73 3.09-.04.01-.07.02-.1.02l-.04.01.05.04z"/><path fill="#FAC283" d="M159.454 128.537s.33 2.03.422 10.37c.045 8.346-.047 22.45.38 33.576.54 11.123.47 22.79 1.12 31.14.66 8.34 1.155 13.906 1.155 13.906.99 10.1-6.42 19.1-16.53 20.09-10.11.99-19.12-6.41-20.1-16.52-.11-1.19-.11-2.46 0-3.61 0 0-1.72-31.56-1.15-42.68.45-11.12-1.72-25.57-1.66-33.91.11-8.34 6.78-12.4 6.78-12.4-.18-7.96 6.51-14.56 14.48-14.74 7.97-.18 15.13 6.13 15.13 14.1v.68-.01z"/><path fill="#fff" d="M154.225 218.92s.91 9.448-6.096 10.282c-7.01.838-17.57-.83-17.3-12.11 0 0-.15-4.6 3.19-4.6s13.39 2.396 16.63 2.095c3.65-.33 3.57 4.34 3.57 4.34v-.008z"/><path fill="#FAC283" d="M128.74 165.507s-3.846-21.38-10.87-34.184l22.174-2.803 2.502 40.117-13.805-3.13zm23.176-26.187s44.953 8.563 49.275-43.296c0 0-24.58-22-37.72-21.73-13.14.27-21.56 41.41-21.56 41.41l10.01 23.61v.005zm17.534-41.71c.058-.17-.12.16-.08-.325-.024-.368.022-.996.064-1.83.092-1.67.234-4.174.225-6.964-.03-2.81-.27-5.83-.84-8.81-.62-2.98-1.66-5.94-3.59-9.07-.47-.79-1.07-1.51-1.61-2.33l-.03-.04-.01-.02c-.08-.06.57.46.28.23l-.1-.09-.2-.19-.39-.36-.53-.48c-.2-.21-.6-.56-1.13-.98-1.9-1.57-4.03-3.11-6.04-4.65-4.06-3.06-7.99-5.8-11.29-8.11-3.32-2.27-6.04-4.06-7.79-5.13L134 47l-1.78-1.08c-4.44-2.69-5.86-8.48-3.17-12.93 2.1-3.46 6.08-5.08 9.83-4.36l1.39.27c.97.18 2.13.46 3.59.84 2.854.78 6.604 1.98 10.83 3.67 4.274 1.65 9.04 3.75 14.1 6.21 2.554 1.21 5.104 2.58 7.86 4.12.64.35 1.39.8 2.34 1.41l1.184.77.45.29.22.15.11.07.39.29.07.05c1.6 1.03 3.14 2.18 4.63 3.45 6.05 4.98 10.98 12.02 13.67 19.17 2.81 7.16 3.46 14.19 3.23 19.88-.23 5.75-1.35 10.28-2.39 13.44-.52 1.59-1.02 2.84-1.43 3.75-.36.79-2.37 8.97-2.31 8.8-2.91 8.01-10.17 4.96-18.17 2.06-8.01-2.91-12.15-11.76-9.25-19.76l.05.064zm-4.01-36.56l20.18 13.08S159 92.32 167.538 120.964c0 0-1.168 20.03-21.378 21.817 0 0-18.948 7.74-25.076-3.29 0 0-6.877 11.43-17.084 11.67-10.206.24-20.355-14.59-21.727-25.49 0 0-14.44 15.58-26.3-4.4-.69-1.75-1.46-4.9-2.14-9.02-3.22-19.64 2.37-64.34 26.63-84.4 29.35-24.27 72.51 5.31 72.51 5.31l12.46 27.91h.006z"/><path fill="#E2AB74" d="M122.035 131.505s1.222-15.89.202-24.73c0-.002-19.3 12.56-.202 24.73zM83.33 121.287s2.803-19.666 4.463-28.408c0 0-19.13 11.02-4.462 28.4zm-4.515-12.397S76.91 57.945 83.21 43.812c2.666-5.983 11.373-3.45 11.373-3.45l-6.79 52.517s-7.56 12.31-8.978 16.01zm37.515 7.75s-2.73-47.03 1.68-61.853c2.034-6.84 11.375-3.456 11.375-3.456l-7.323 62.03s-4.314-.4-5.733 3.29z"/><path fill="#A67C52" d="M147.73 114.605s-21.31.65-42.502-1.423c-10.597-1.006-21.164-1.992-28.99-3.763-1.965-.42-3.747-.61-5.315-1.09-1.57-.47-2.96-.66-4.05-1.14-2.21-.84-3.47-1.26-3.47-1.26-.42-.16-.63-.59-.47-1 .15-.42.59-.6 1-.47l.09.04 3.39 1.14c1.05.41 2.44.67 3.98 1.06 1.54.41 3.31.77 5.25 1.09 7.75 1.43 18.27 2.47 28.81 3.06 21.1 1.2 42.23.68 42.23.68 1.38-.04 2.53.09 2.56 1.47.03 1.37-1.06 1.58-2.44 1.58h-.11.036zm.136-5s-21.308-.355-42.505-2.42c-10.59-1.022-21.16-2.503-28.98-4.278-1.96-.4-3.75-.848-5.32-1.332-1.56-.463-2.95-.788-4.04-1.264-2.2-.83-3.46-1.32-3.46-1.32-.42-.15-.63-.62-.46-1.03.15-.4.6-.61 1-.48l.1.04 3.4 1.14c1.05.41 2.44.67 3.98 1.07 1.54.41 3.31.77 5.26 1.1 7.76 1.43 18.27 2.47 28.82 3.06 21.1 1.21 42.23.69 42.23.69 1.38-.03 2.53 1.09 2.57 2.47.03 1.39-1.06 2.59-2.44 2.59h-.11zm.276-9s-21.306-.868-42.5-2.935c-10.6-1.018-21.17-2.748-29-4.52-1.956-.414-3.743-.984-5.314-1.468-1.57-.467-2.95-.848-4.05-1.324-2.206-.844-3.462-1.356-3.462-1.356-.418-.157-.63-.644-.47-1.052.156-.404.602-.62 1.007-.484l.08.03s1.23.41 3.4 1.14c1.05.41 2.43.66 3.97 1.06 1.54.41 3.31.77 5.26 1.09 7.75 1.44 18.27 2.47 28.81 3.06 21.1 1.21 42.23.69 42.23.69 1.39-.03 2.53 1.59 2.57 2.98.04 1.39-1.06 3.11-2.44 3.11h-.11l.02-.02zm.267-13s-21.31.624-42.51-1.44c-10.59-1.02-21.17-2.01-28.99-3.784-1.96-.4-3.75-.6-5.32-1.09-1.57-.47-2.96-.66-4.05-1.13-2.21-.84-3.47-1.26-3.47-1.26-.41-.15-.62-.59-.46-1 .15-.4.6-.59 1-.46l.09.05s1.24.41 3.4 1.14c1.05.41 2.44.67 3.98 1.06 1.54.42 3.31.77 5.26 1.1 7.76 1.44 18.28 2.47 28.82 3.06 21.1 1.2 42.23.68 42.23.68 1.39-.03 2.54.11 2.57 1.49.03 1.39-1.06 1.62-2.44 1.62h-.11l-.02-.03zm1.01-13.2s-5.22 1.25-13.02 2.39c-7.83 1.14-18.35 2.144-28.9 2.037-5.27-.104-10.55-.42-15.46-1.058-2.44-.41-4.83-.62-7.04-1.14-2.22-.52-4.33-.9-6.24-1.44-1.89-.58-3.63-1.12-5.17-1.58-1.54-.46-2.81-1.12-3.89-1.53l-3.35-1.39c-.41-.17-.61-.64-.44-1.06.16-.4.61-.6 1.01-.45l.08.03s1.21.44 3.32 1.22c1.07.35 2.31.94 3.84 1.32 1.52.39 3.23.84 5.09 1.34 1.88.44 3.96.73 6.13 1.14 2.17.42 4.52.53 6.91.83 4.81.43 9.98.53 15.14.42 10.32-.32 20.58-1.72 28.18-3.14 7.63-1.44 12.52-2.83 12.52-2.83 1.33-.38 2.72.4 3.1 1.73.38 1.33-.39 2.71-1.73 3.09-.04.01-.07.02-.1.02l-.04.01.05.04z"/><path fill="#FAC283" d="M159.454 128.537s7.122-12.392 7.214-4.052c.045 8.346-3.094 35.54-2.667 46.666.54 11.13.96 22.53-.66 32.34.66 8.34-.8 14.05-.8 14.05.99 10.11-6.42 19.11-16.53 20.09-10.11.99-19.12-6.4-20.1-16.51-.11-1.19-.11-2.46 0-3.61 0 0-1.72-31.56-1.15-42.68.45-11.12-1.72-25.57-1.66-33.91.11-8.34 6.77-12.4 6.77-12.4-.18-7.96 6.51-14.56 14.48-14.74 7.97-.18 15.13 6.13 15.13 14.1v.68l.01-.01zm-30.714 36.97s-3.846-21.38-10.87-34.184l22.174-2.803 2.502 40.117-13.805-3.13z"/><path fill="#E2AB74" d="M165.834 139.65s15.25-26.665 14.5-42.165c0 0 5.5 16.75 1.75 25.25s-9.708 17.084-9.708 17.084l-6.542-.17zm-10.25 37.085s-16.5-13.25-27-1.25v8.75s11.75-7.25 26.75-1c0 0 4-1.25.25-6.5zm-4.5 51.25s8.75-4.75 3.5-15.5-24.506-6.035-23.753 4.607"/><path fill="#fff" d="M154.225 218.92s.91 9.448-6.096 10.282c-7.01.838-17.57-.83-17.3-12.11 0 0-.15-4.6 3.19-4.6s13.39 2.396 16.63 2.095c3.65-.33 3.57 4.34 3.57 4.34v-.008z"/><path fill="#333" d="M202.996 87.147c0 .72-.015 1.424-.043 2.107-.176 4.396-.872 8.073-1.655 10.976.42 2.076 1.323 7.198 1.323 12.952 0 7.935-1.71 17.07-8.78 21.053-11.17 6.295-23.33 5.826-27.5 5.43l-.5-.014.02-.03-.09-.01c-.78 9.95-1.8 21.83-1.8 29.23 0 .83.02 1.61.04 2.32.26 5.24.48 10.53.48 15.7 0 5.81-.28 11.45-1.14 16.64.12 1.54.17 2.98.17 4.32 0 5.93-.97 9.73-.97 9.73.06.61.09 1.21.09 1.81 0 9.35-7.11 17.36-16.62 18.28-10.11.99-19.12-6.4-20.1-16.51-.05-.59-.08-1.2-.08-1.81 0-.61.03-1.22.09-1.79 0 0-1.27-23.32-1.27-36.93 0-2.23.04-4.19.12-5.75.05-1.04.06-2.11.06-3.2 0-9.32-1.38-20.2-1.67-27.83-.3-.9-.61-1.8-.94-2.69-.4-.48-.77-1.01-1.09-1.6 0 0-6.88 11.43-17.09 11.67-4.2.1-8.38-2.35-11.95-6.03-5.13-5.07-8.94-12.86-9.77-19.46 0 0-14.44 15.59-26.3-4.39-.69-1.75-1.46-4.9-2.14-9.02-.54-3.28-.83-7.26-.83-11.71 0-22.18 7.26-55.97 27.46-72.68 26.05-21.54 62.98-.66 70.95 4.31 1.06.38 2.16.8 3.29 1.25 4.27 1.65 9.04 3.75 14.1 6.21 2.55 1.21 5.1 2.58 7.86 4.12.64.35 1.39.8 2.34 1.41l1.18.77.45.29.22.15.11.07.39.29.07.05c1.6 1.03 3.14 2.18 4.63 3.45 6.05 4.98 10.98 12.02 13.67 19.17 2.47 6.3 3.27 12.5 3.27 17.77m8 0c0-7.24-1.28-14.19-3.8-20.64-3.21-8.52-9.04-16.69-16-22.43-1.68-1.43-3.44-2.74-5.22-3.91l-.23-.17-.22-.17-.24-.15-.01-.01-.12-.08-.08-.05-.09-.06-.45-.29-1.15-.74-.03-.02-.03-.02c-1.08-.7-1.97-1.23-2.79-1.68-2.41-1.35-5.28-2.91-8.27-4.33-5.23-2.55-10.16-4.72-14.63-6.45-.88-.35-1.79-.7-2.7-1.04-4.97-3.03-16.54-9.41-30.39-12.65-19.28-4.5-36.28-1.24-49.17 9.42C65.18 30.2 56.94 43.33 51.6 59.7c-4.2 12.7-6.59 27.6-6.59 40.81 0 4.845.314 9.223.936 13.01.53 3.21 1.41 7.66 2.595 10.66l.24.598.33.55c6.28 10.573 13.71 13.442 18.83 13.99 3.62.38 6.92-.25 9.76-1.31 2.17 4.765 5.19 9.257 8.69 12.73 5.5 5.64 11.66 8.542 17.83 8.397 4.5-.103 8.43-1.542 11.74-3.51.44 5.406.87 10.95.87 15.975 0 1-.01 1.956-.05 2.843-.08 1.61-.12 3.666-.12 6.113 0 12.67 1.06 33.12 1.26 36.812-.04.624-.06 1.264-.06 1.91 0 .866.04 1.73.12 2.57.69 7.034 4.07 13.364 9.52 17.84 5.45 4.476 12.32 6.56 19.34 5.874 13.59-1.326 23.85-12.61 23.85-26.24 0-.41-.01-.827-.03-1.243.37-1.9.92-5.53.92-10.29 0-1.32-.04-2.65-.12-3.97.74-4.88 1.11-10.45 1.11-16.99 0-5.5-.25-11.16-.48-16.04-.02-.58-.03-1.24-.03-1.97 0-5.3.57-13.28 1.17-21.01 6.67-.25 15.84-1.68 24.63-6.63 5.87-3.31 12.86-10.86 12.86-28.03 0-5.1-.61-9.7-1.14-12.71.82-3.53 1.31-7.19 1.46-10.9.03-.8.05-1.62.05-2.43z"/></svg>