<svg xmlns="http://www.w3.org/2000/svg" xmlns:xlink="http://www.w3.org/1999/xlink" width="256" height="256" viewBox="0 0 256 256"><path fill="#fdb" d="M163.09 212.533c-3.53 0-6.142-.543-6.967-.738-32.275-4.78-48.055-21.688-55.612-35.046-6.35-11.24-8.07-21.76-8.53-26.2-22.56-14.72-35.79-43.44-31.6-69.13 3.19-19.55 15.79-33.19 34.55-37.43 4.95-1.12 9.81-1.69 14.46-1.69 30.43 0 45.32 24.07 49.78 32.93 1.09-.17 2.16-.26 3.21-.26 5.78 0 10.92 2.52 15.29 7.5 17.36 19.76 18.46 74.7 15.2 99.71-3.57 27.37-22 30.32-29.76 30.32z"/><path fill="#333" d="M109.383 46.308c34.77.002 47.51 33.58 47.51 33.58 1.924-.613 3.745-.904 5.473-.904 27.013 0 30.622 71.266 26.52 102.704-3.04 23.314-17.382 26.846-25.796 26.846-3.658 0-6.197-.668-6.197-.668-59.627-8.727-61.08-59.626-61.08-59.626-40.723-24.722-45.084-90.165 0-100.346 4.856-1.097 9.372-1.586 13.57-1.586m.236-8v8-8c-5 0-10.22.6-15.46 1.782-20.44 4.616-34.21 19.447-37.68 40.69-2.15 13.138-.05 27.67 5.94 40.918 5.79 12.807 14.66 23.51 25.81 31.168.76 5.493 2.88 15.425 8.78 25.854 7.98 14.11 24.58 31.96 58.34 37.01 1.19.27 4 .805 7.71.805 7.47 0 14.29-2.18 19.74-6.3 7.65-5.796 12.36-15.052 13.98-27.51 1.96-15.026 1.99-35.384.08-53.13-2.55-23.634-8.01-40.37-16.24-49.744-5.09-5.8-11.42-8.86-18.3-8.86-.3 0-.59.01-.89.02-1.99-3.62-4.93-8.45-9.23-13.24-11.41-12.72-26.63-19.45-42.63-19.45z"/><path fill="#fdb" d="M156.893 79.887s-15.998-42.174-61.08-31.993c-45.084 10.18-40.723 75.624 0 100.346 0 0 1.453 50.9 61.08 59.626 0 0 27.63 7.273 31.994-26.178 4.363-33.45 0-111.98-31.994-101.8z"/><path fill="#8C6239" d="M127.67 114.455c5.61-1.425 10.064-4.63 13.568-8.105 2.188-2.193 4.002-4.563 5.684-6.98 2.244 4.276 3.902 8.84 4.773 13.582.594 3.598.846 7.266.61 10.85-2.243-1.5-6-2.447-12.138-.283-12.36 4.36-24.234 16.72-13.21 31.99 10.302 14.26 30.17 28.06 32.212 11.28l.28-.04c-.02-.79-.12-1.58-.17-2.37.01-.54.07-1 .06-1.59-.02-.59-.16-1.03-.37-1.43-.11-.55-.26-1.1-.55-1.65-.38-.86-1.57-1.48-2.45-1.46-3.36.16-6.03.11-8.67-1.06-2.79-1.06-4.42-2.77-4.24-4.89.05-1.95 1.25-4.3 2.65-6.15 6.45-2.84 10.34-9.09 12.05-15.07 1.85-6.4 1.98-13.06.85-19.41-2.3-12.7-9.16-24.44-18.93-32.72-4.8-4.13-10.52-7.52-16.18-9.98-5.76-2.46-11.99-4.5-18.78-4.42-6.7-.09-14.15 3.29-17.66 9.21-1.93 2.78-3.09 5.91-3.6 9.06-.63 3.12-.65 6.32-.04 9.39 1.96-5.87 4.52-11.17 7.83-15.33 3.48-4.03 8.14-6.3 13.51-6.15 5.32.04 10.82 1.89 16 4.29 5.32 2.49 9.98 5.45 14.24 9.28 3.12 2.7 5.91 5.8 8.31 9.16-5.22 5.64-11.55 10.28-17.53 10.57-3.27.17-6.23-.87-8.97-2.81-2.65-1.84-5.39-4.98-6.79-7.55-.25-.44-.55-.9-.9-1.29-2.75-3.24-7.59-3.63-10.82-.89-3.22 2.75-3.62 7.59-.88 10.82l.04.04c3.92 4.62 7.95 7.67 13.15 10.19 5.07 2.4 11.38 3.32 16.98 1.86z"/><defs><path id="a" d="M118.354 181.688s-3.123 17.067 27.707 23.986c30.83 6.922 34.1 2.92 42.47-19.258 8.37-22.178-14.54-13.645-16.36-11.912-1.81 1.733-43.91 2.332-46.5-3.057"/></defs><linearGradient id="b" gradientUnits="userSpaceOnUse" x1="129.737" y1="175.309" x2="314.737" y2="245.809"><stop offset="0" stop-color="#f00" stop-opacity="0"/><stop offset="1" stop-color="#f00"/></linearGradient><use xlink:href="#a" overflow="visible" fill="url(#b)"/><clipPath id="c"><use xlink:href="#a" overflow="visible"/></clipPath><g clip-path="url(#c)"><linearGradient id="d" gradientUnits="userSpaceOnUse" x1="117.922" y1="179.287" x2="326.197" y2="258.657"><stop offset="0" stop-color="#f00" stop-opacity="0"/><stop offset="1" stop-color="#f00"/></linearGradient><path fill="url(#d)" d="M196.158 210.38l.46-2.38v2.38z"/></g><g clip-path="url(#c)"><linearGradient id="e" gradientUnits="userSpaceOnUse" x1="133.923" y1="166.572" x2="316.561" y2="236.172"><stop offset="0" stop-color="#f00" stop-opacity="0"/><stop offset="1" stop-color="#f00"/></linearGradient><path fill="url(#e)" d="M186.684 215.38l7.61-54h1.325v54z"/></g><path fill="#8C6239" d="M189.31 170.595c-1.28-1.41-3.257-2.396-5.1-2.59-1.862-.236-3.55.058-5.038.5-1.46.43-2.887 1.096-4.125 1.763l-3.225 1.73c-2.102 1.035-4.322 1.728-6.54 2.44-4.48 1.275-9.26 1.687-14.032 1.24-4.77-.418-9.537-1.57-14.137-3.258-4.63-1.67-9.205-3.365-14.52-4.546 3.118 4.56 7.708 7.51 12.57 9.564 4.907 2.002 10.095 3.47 15.468 4.138 5.37.687 10.95.43 16.33-.905 2.7-.65 5.27-1.76 7.73-3.02l3.46-2c.99-.56 1.88-1.01 2.85-1.35 1.98-.64 3.3-.52 4.13.33.98.89 1.62 3.03 1.72 5.19.17 4.44-.85 9.29-2.74 13.66-1.95 4.35-4.67 8.45-8.42 11.4-3.75 2.86-8.73 4.46-13.86 3.63 4.76 1.85 10.71 1.64 15.44-1.22 4.81-2.68 8.46-7.03 10.97-11.81 2.49-4.8 4.29-10.07 4.18-15.87-.14-2.84-.5-6.1-3.07-8.99z"/><path fill="#fdb" d="M156.893 79.887s-15.998-42.174-61.08-31.993c-45.084 10.18-40.723 75.624 0 100.346 0 0 1.453 50.9 61.08 59.626 0 0 27.63 7.273 31.994-26.178 4.363-33.45 0-111.98-31.994-101.8z"/><path fill="#8C6239" d="M127.67 114.455c5.61-1.425 10.064-4.63 13.568-8.105 2.188-2.193 4.002-4.563 5.684-6.98 2.244 4.276 3.902 8.84 4.773 13.582.594 3.598.846 7.266.61 10.85-2.243-1.5-6-2.447-12.138-.283-12.36 4.36-24.234 16.72-13.21 31.99 10.302 14.26 30.17 28.06 32.212 11.28l.28-.04c-.02-.79-.12-1.58-.17-2.37.01-.54.07-1 .06-1.59-.02-.59-.16-1.03-.37-1.43-.11-.55-.26-1.1-.55-1.65-.38-.86-1.57-1.48-2.45-1.46-3.36.16-6.03.11-8.67-1.06-2.79-1.06-4.42-2.77-4.24-4.89.05-1.95 1.25-4.3 2.65-6.15 6.45-2.84 10.34-9.09 12.05-15.07 1.85-6.4 1.98-13.06.85-19.41-2.3-12.7-9.16-24.44-18.93-32.72-4.8-4.13-10.52-7.52-16.18-9.98-5.76-2.46-11.99-4.5-18.78-4.42-6.7-.09-14.15 3.29-17.66 9.21-1.93 2.78-3.09 5.91-3.6 9.06-.63 3.12-.65 6.32-.04 9.39 1.96-5.87 4.52-11.17 7.83-15.33 3.48-4.03 8.14-6.3 13.51-6.15 5.32.04 10.82 1.89 16 4.29 5.32 2.49 9.98 5.45 14.24 9.28 3.12 2.7 5.91 5.8 8.31 9.16-5.22 5.64-11.55 10.28-17.53 10.57-3.27.17-6.23-.87-8.97-2.81-2.65-1.84-5.39-4.98-6.79-7.55-.25-.44-.55-.9-.9-1.29-2.75-3.24-7.59-3.63-10.82-.89-3.22 2.75-3.62 7.59-.88 10.82l.04.04c3.92 4.62 7.95 7.67 13.15 10.19 5.07 2.4 11.38 3.32 16.98 1.86z"/><defs><path id="f" d="M118.354 181.688s-3.123 17.067 27.707 23.986c30.83 6.922 34.1 2.92 42.47-19.258 8.37-22.178-14.54-13.645-16.36-11.912-1.81 1.733-43.91 2.332-46.5-3.057"/></defs><linearGradient id="g" gradientUnits="userSpaceOnUse" x1="129.737" y1="175.309" x2="314.737" y2="245.809"><stop offset="0" stop-color="#f00" stop-opacity="0"/><stop offset="1" stop-color="#f00"/></linearGradient><use xlink:href="#f" overflow="visible" fill="url(#g)"/><clipPath id="h"><use xlink:href="#f" overflow="visible"/></clipPath><g clip-path="url(#h)"><linearGradient id="i" gradientUnits="userSpaceOnUse" x1="117.922" y1="179.287" x2="326.197" y2="258.657"><stop offset="0" stop-color="#f00" stop-opacity="0"/><stop offset="1" stop-color="#f00"/></linearGradient><path fill="url(#i)" d="M196.158 210.38l.46-2.38v2.38z"/></g><g clip-path="url(#h)"><linearGradient id="j" gradientUnits="userSpaceOnUse" x1="133.923" y1="166.572" x2="316.561" y2="236.172"><stop offset="0" stop-color="#f00" stop-opacity="0"/><stop offset="1" stop-color="#f00"/></linearGradient><path fill="url(#j)" d="M186.684 215.38l7.61-54h1.325v54z"/></g><path fill="#8C6239" d="M189.31 170.595c-1.28-1.41-3.257-2.396-5.1-2.59-1.862-.236-3.55.058-5.038.5-1.46.43-2.887 1.096-4.125 1.763l-3.225 1.73c-2.102 1.035-4.322 1.728-6.54 2.44-4.48 1.275-9.26 1.687-14.032 1.24-4.77-.418-9.537-1.57-14.137-3.258-4.63-1.67-9.205-3.365-14.52-4.546 3.118 4.56 7.708 7.51 12.57 9.564 4.907 2.002 10.095 3.47 15.468 4.138 5.37.687 10.95.43 16.33-.905 2.7-.65 5.27-1.76 7.73-3.02l3.46-2c.99-.56 1.88-1.01 2.85-1.35 1.98-.64 3.3-.52 4.13.33.98.89 1.62 3.03 1.72 5.19.17 4.44-.85 9.29-2.74 13.66-1.95 4.35-4.67 8.45-8.42 11.4-3.75 2.86-8.73 4.46-13.86 3.63 4.76 1.85 10.71 1.64 15.44-1.22 4.81-2.68 8.46-7.03 10.97-11.81 2.49-4.8 4.29-10.07 4.18-15.87-.14-2.84-.5-6.1-3.07-8.99z"/></svg>