<svg xmlns="http://www.w3.org/2000/svg" width="256" height="256" viewBox="0 0 256 256"><path fill="#fff" d="M168.19 244.38c-11.626 0-20.042-4.343-21.73-5.237l-9.018-3.575c-9.618-3.696-20.9-9.423-22.067-10.013-3.612-1.632-6.973-3.395-10-5.19l-71.43-16.816c-9.73-2.29-15.792-12.09-13.51-21.83 1.943-8.24 9.215-14 17.686-14 1.09 0 2.19.1 3.27.29l37.8 6.98-4.22-1.86-35.02-15.74-15.87-7.29c-10.86-4.99-15.64-17.89-10.66-28.76 3.09-6.71 9.39-11.34 16.57-12.4-7.8-6.73-10.57-18.08-6.04-27.88 3.86-8.35 12.29-13.74 21.5-13.74 3.44 0 6.78.74 9.93 2.19.52.23 1.11.53 1.69.86l15.96 9.03 35.3 19.45 26.34 14.12c.96-.62 1.74-1.31 2.35-2.07L71.86 51.73c-4.51-4.094-7.15-9.7-7.443-15.786-.29-6.085 1.804-11.92 5.9-16.426 4.313-4.74 10.47-7.47 16.888-7.47 5.68 0 11.124 2.11 15.328 5.93.08.07.494.46.494.46l80.854 78.58c-.15-1.59-.27-3.17-.37-4.71v-.11c-.03-.95-.08-1.9-.13-2.85-.1-1.97-.2-4.02-.18-6.1.02-.97.02-1.88.03-2.79.01-1.99.01-4.06.2-6.17.07-.78.12-1.6.17-2.4.12-1.97.25-4.02.59-6.07.12-.81.23-1.64.34-2.46.22-1.71.46-3.48.86-5.21 1.03-5.05 2.02-8.873 2.99-11.582.86-2.645 1.35-4.164 1.35-4.17 2.92-8.935 11.17-14.93 20.55-14.93 2.27 0 4.52.36 6.69 1.066 11.33 3.69 17.54 15.91 13.85 27.24l-1.5 4.49-.05.127c-.58 1.4-1.23 4.05-1.78 6.46l-.04.15c-.19.68-.32 1.58-.46 2.55-.11.71-.21 1.44-.35 2.17-.2 1-.29 2.14-.39 3.35-.06.73-.11 1.46-.19 2.2-.14 1.16-.16 2.42-.19 3.76-.01.81-.02 1.62-.06 2.43-.04 1.23 0 2.56.05 3.98.03.84.06 1.69.07 2.53.32 7.06 1.34 13.93 2.22 18.84 9.65 8.42 13.52 22.82 15.07 33.7 7.1 30.16-16.1 56.96-19.32 60.45-18.36 34.06-40.4 41.44-55.69 41.44v-.01z"/><path fill="#333" d="M87.204 16.048c4.51 0 9.037 1.614 12.637 4.888.14.12.33.31.47.434l87.77 85.3c.17.16.31.335.47.502l.68.243c-.76-4.88-1.38-10.08-1.73-15.375-.1-2.944-.33-5.844-.31-8.778.07-2.937-.05-5.783.21-8.634.23-2.84.29-5.55.72-8.19.41-2.638.62-5.105 1.16-7.43.95-4.62 1.91-8.48 2.89-11.184.88-2.696 1.38-4.243 1.38-4.243 2.43-7.43 9.33-12.15 16.75-12.15 1.81 0 3.65.28 5.46.87 9.25 3.02 14.31 12.95 11.29 22.2l-.04.11-.54 1.65-.86 2.58c-.65 1.58-1.28 4.05-1.98 7.08-.4 1.49-.54 3.27-.87 5.06-.37 1.78-.41 3.82-.63 5.85-.25 2.03-.17 4.26-.27 6.44-.08 2.22.08 4.53.11 6.8.33 7.27 1.38 14.68 2.55 20.88 9.4 7.36 13.25 21.22 14.8 32.29 7.11 29.65-17.38 55.8-18.6 57.09v.01l-.05.05c-17.29 32.37-37.68 39.58-52.42 39.58-11.85 0-20.05-4.66-20.05-4.66l-9.26-3.56c-9.86-3.79-21.77-9.83-21.77-9.83-3.99-1.8-7.36-3.59-10.2-5.3L34.9 199.67c-7.605-1.79-12.314-9.4-10.53-17.01 1.534-6.51 7.37-10.9 13.79-10.9.84 0 1.69.08 2.545.23l62.57 11.56 1.103-1.87c-8.32-3.64-18.05-7.9-27.78-12.16L41.6 153.78l-15.84-7.274c-8.88-4.08-12.767-14.58-8.69-23.46 2.98-6.482 9.39-10.303 16.09-10.302 2.41 0 4.87.498 7.21 1.547l15.914 7.13c9.506 4.36 22.193 10.17 34.873 15.97l30.8 14.48 1.165-1.97c-9.405-4.59-21.117-10.31-32.837-16.02l-16.76-7.94c-.36-.14-.665-.29-.925-.44l-18.77-8.9-16.654-7.7c-9.86-4.56-14.155-16.25-9.595-26.11 3.32-7.19 10.44-11.42 17.87-11.42 2.77 0 5.58.59 8.25 1.83.47.22.96.47 1.41.72l15.98 9 35.33 19.48c9.92 5.32 19.83 10.64 28.28 15.17 3.16-1.48 6.08-3.82 7.3-7.51L74.54 48.77c-7.685-6.98-8.253-18.88-1.27-26.563 3.71-4.086 8.81-6.163 13.928-6.163m0-8c-7.543 0-14.778 3.2-19.85 8.784-4.81 5.298-7.275 12.155-6.933 19.307.342 7.16 3.45 13.75 8.75 18.56l50.046 45.46c-2.97-1.59-5.98-3.21-8.99-4.82L83.5 80.6l-8.538-4.704-15.95-8.987c-.663-.38-1.356-.73-2.005-1.02-3.663-1.69-7.556-2.55-11.57-2.55-10.757 0-20.62 6.3-25.127 16.06-4.29 9.26-3 19.69 2.47 27.51-5.65 2.49-10.34 6.98-13 12.77-5.91 12.88-.25 28.16 12.62 34.07l15.83 7.27.03.01.03.01 8.8 3.96-4.99-.92c-1.33-.24-2.67-.37-4-.37-10.335 0-19.21 7.01-21.58 17.06-2.786 11.89 4.61 23.84 16.488 26.63l70.84 16.66c2.99 1.75 6.274 3.43 9.78 5.02 1.56.78 12.752 6.39 22.36 10.08l8.786 3.38c2.474 1.29 11.27 5.38 23.394 5.38 16.316 0 39.73-7.47 58.98-42.9 2.1-2.33 8.004-9.28 13.023-18.98 7.79-15.04 10.18-30.37 6.94-44.34-2.27-15.79-7.4-27.55-15.3-35.01-.79-4.64-1.63-10.7-1.92-16.91-.01-.85-.03-1.7-.06-2.55-.04-1.33-.08-2.59-.05-3.71.04-.88.05-1.71.06-2.51.02-1.22.04-2.38.15-3.26l.01-.07.01-.07c.09-.82.15-1.58.21-2.33.09-1.08.17-2.1.31-2.78l.02-.07.02-.08c.16-.83.27-1.63.37-2.33.12-.8.24-1.62.36-2.06l.04-.16.04-.16c.29-1.25 1.06-4.55 1.59-5.84l.1-.25.09-.25c.56-1.65.87-2.6.87-2.6l.52-1.56.01-.01.04-.12.04-.12c4.37-13.43-2.99-27.91-16.41-32.29-2.58-.84-5.24-1.27-7.93-1.27-11.11 0-20.9 7.1-24.35 17.67-.01.04-.49 1.53-1.34 4.13-1.02 2.87-2.05 6.82-3.13 12.08-.43 1.88-.67 3.71-.9 5.48-.1.77-.21 1.57-.33 2.38-.37 2.23-.5 4.36-.63 6.43-.05.77-.09 1.55-.16 2.34-.2 2.27.01 4.41.01 6.48 0 .88.2 1.77.2 2.66v.1c0 1.28-.2 2.53-.15 3.75L106 15.58l-.12-.063-.095-.07-.127-.1-.442-.41c-4.94-4.48-11.33-6.95-18-6.95z"/><path fill="#FAC283" d="M91.958 202.62s3.377 9.46 25.145 19.27c0 0 11.913 6.046 21.776 9.836l9.26 3.56s41.27 23.48 72.47-34.915c0 0 39.83-41.02 6.95-79.24L155.33 95.3 91.95 202.623zm120.26-45.252s15.06 13.737 28.047 2.324c0 0 1.902-47.434-25.518-53.303"/><path fill="#FAC283" d="M142.92 159.745l-16.398-8.207c-9.887-4.823-23.066-11.26-36.25-17.688-13.252-6.28-26.512-12.567-36.453-17.276-10-4.625-16.66-7.7-16.66-7.7-9.86-4.564-14.16-16.256-9.6-26.116 4.55-9.86 16.25-14.157 26.11-9.594.47.212.96.465 1.4.714l15.98 9.005 35.33 19.478 35.54 19.07c9.74 5.11 16.23 8.5 16.23 8.5 8.19 4.3 11.35 14.42 7.07 22.61-4.25 8.1-14.19 11.27-22.33 7.21zm22.226-28.675l-90.6-82.298c-7.685-6.98-8.253-18.877-1.27-26.562 6.982-7.687 18.88-8.263 26.564-1.274.135.12.33.31.465.434l87.77 85.3c6.635 6.446 6.79 17.044.34 23.68-6.305 6.49-16.615 6.75-23.27.72zm-41.216-10.99s25.567-.75 16.83-21.935l20.267 29.718-37.097-7.782z"/><path fill="#E2AB74" d="M127.145 154.51s17.346-14.345 9.57-29.096c0 0 16.126 16.027 11.608 28.774 0 0 16.277 15.87 36.936-18.106 5.17-8.51-4.15 47.608-4.15 47.608l-8.65 6.873s-8.59-18.153-45.33-36.053zm20.993-41.805s14.995-4.335 23.98-21.157l7 6.667s-12.63 20.735-23.992 20.99c0 0-10.81-2.987-16.777.788 0 0 7.27-4.748 7.6-7.565l2.18.277zm40.232-6.075s1.848 18.963-5.846 45.194l12.867-30.986c.01 0 6.51-14.958-7.02-14.207zM79.15 127.152s15.286-9.38 10.937-28.258c0 0-7.516 27.123-18.736 24.344 0 0-1.79 2.747 7.8 3.914z"/><path fill="#FAC283" d="M127.74 191.73s-6.416-2.74-16.033-6.853c-9.582-4.19-22.367-9.788-35.145-15.384-12.715-5.723-25.438-11.44-34.98-15.732l-15.84-7.27c-8.878-4.07-12.765-14.57-8.692-23.45 4.057-8.82 14.465-12.71 23.303-8.75l15.914 7.13c9.508 4.36 22.195 10.17 34.875 15.97 12.623 5.93 25.244 11.87 34.715 16.32l15.72 7.55c8.34 4.01 11.85 14.01 7.847 22.35-3.898 8.11-13.493 11.64-21.685 8.15zm11.956 32.572l-104.834-24.66c-7.605-1.79-12.314-9.404-10.533-17.01 1.73-7.368 8.97-12.015 16.33-10.67l105.9 19.56c9.1 1.682 15.11 10.42 13.43 19.515-1.68 9.095-10.42 15.108-19.52 13.43-.25-.048-.55-.11-.79-.165z"/><path fill="#E2AB74" d="M68.688 160.95s15.285-9.376 10.938-28.253c0 0-7.52 27.116-18.736 24.342 0 0-1.792 2.75 7.798 3.91zm46.785 23.497s15.286-9.37 10.936-28.262c0 0-7.52 27.128-18.74 24.34 0 0-1.8 2.762 7.8 3.922zM104.083 71.63s18.412-.007 21.54-21.63c0 0 8.802 10.833-5.622 20.928-14.43 10.095-15.91.703-15.91.703zm1.38 2.575s22.235.03 25.36-21.59c0 0 8.8 10.827-5.63 20.92-14.423 10.102-19.73.67-19.73.67zm-11.01 139.842s16.76-16.277 11.157-29.397l5.295-1.082s-1.658 9.58 1.78 14.127c0 0-3.898 18.08 14.768 29.353 0 0-14.376-8.472-20.333-10.333-2.667-.834-12.667-2.668-12.667-2.668zm25.28 4.043s17.5 14.322 27.643-8.044l5.79-5.315s4.87-.79 9.112-7.07c4.236-6.28 7.88-7.7 5.646-15.88l4.807-5.51s12.81 10.16-6.1 27.04c-18.92 16.88 6.16 30.92 6.16 30.92s-47 2.17-53.05-16.12zm70.7-85.31"/><path fill="#FAC283" d="M196.35 137.35s-.472-1.456-1.282-4.006c-.756-2.47-1.71-5.92-2.72-10.087-1.99-8.332-4.097-19.55-4.855-31.217-.105-2.944-.336-5.844-.31-8.778.062-2.937-.056-5.783.204-8.634.23-2.84.283-5.55.72-8.19.407-2.638.616-5.105 1.153-7.43.947-4.62 1.904-8.48 2.883-11.184.88-2.696 1.38-4.243 1.38-4.243 3.017-9.24 12.95-14.29 22.198-11.28 9.25 3.02 14.31 12.95 11.29 22.21l-.04.11-.54 1.65-.86 2.58c-.65 1.58-1.27 4.05-1.98 7.08-.4 1.49-.54 3.27-.87 5.06-.36 1.78-.4 3.82-.62 5.85-.25 2.02-.17 4.26-.27 6.44-.08 2.22.09 4.53.11 6.8.42 9.2 1.98 18.61 3.5 25.54.78 3.46 1.51 6.32 2.05 8.23l.84 2.86.24.79c2.64 8.92-2.45 18.29-11.37 20.93-8.8 2.61-18.04-2.33-20.82-11.04z"/><path fill="#E2AB74" d="M182.354 172.592c-2.262 3.686-5.62 9.082-10.506 16.838-12.582 19.975-26.822 32.598-37.975 40.25 1.688.715 3.37 1.416 5.004 2.047l9.26 3.56s41.277 23.48 72.47-34.915c0 0 17.913-18.49 19.77-42.202-35.23 37.705-54.71 18.355-58.023 14.422zm-.527-.654s.19.25.527.653c-.735.96-.527-.65-.527-.65z"/><path fill="#fff" d="M223.806 61.884s-6.492-4.078-11.053-1.484c0 0-1.768-10.245 3.93-13.49 5.7-3.244 9.92.914 9.92.914s.964 6.584-2.797 14.06z"/><path fill="none" stroke="#333" stroke-width="8" stroke-linecap="round" stroke-miterlimit="10" d="M5.62 196.38s-2.454 36.794 76.742 36.864m-64.742 5.47s6.917 12.683 80.252 11.78"/></svg>