<svg xmlns="http://www.w3.org/2000/svg" width="256" height="256" viewBox="0 0 256 256"><path fill="#FAC283" d="M54.916 156.765s-6.5-27.25 7.25-35 29-5.25 29-5.25"/><path fill="#D39D6C" d="M104.083 116.68s-44.953-8.563-49.275 43.296c0 0 24.582 22 37.72 21.73 13.14-.27 21.564-41.41 21.564-41.41l-10.01-23.61v-.006z"/><path fill="#FAC283" d="M86.548 158.39c-.057.17.12-.16.08.325.025.368-.02.996-.063 1.83-.092 1.67-.235 4.174-.225 6.964.022 2.81.266 5.83.832 8.81.614 2.98 1.657 5.94 3.583 9.07.47.79 1.067 1.51 1.612 2.33l.026.04.01.02c.075.06-.57-.46-.287-.23l.1.09.2.19.39.36.53.48c.2.21.6.56 1.13.98 1.9 1.57 4.03 3.11 6.04 4.65 4.06 3.06 7.99 5.8 11.29 8.11 3.32 2.27 6.04 4.06 7.79 5.13l2.4 1.46 1.78 1.08c4.44 2.69 5.86 8.48 3.17 12.93-2.1 3.46-6.08 5.08-9.83 4.36l-1.39-.27c-.97-.18-2.13-.46-3.59-.84-2.85-.78-6.6-1.98-10.83-3.67-4.27-1.65-9.04-3.75-14.1-6.21-2.55-1.21-5.1-2.58-7.86-4.12-.64-.35-1.39-.8-2.34-1.41l-1.18-.77-.45-.29-.22-.15-.11-.07-.39-.29-.07-.05c-1.6-1.03-3.14-2.18-4.63-3.45-6.05-4.98-10.98-12.02-13.67-19.17-2.81-7.16-3.46-14.19-3.23-19.88.23-5.75 1.35-10.28 2.39-13.44.52-1.59 1.02-2.84 1.43-3.75.36-.79 2.37-8.97 2.31-8.8 2.91-8.01 10.17-4.96 18.17-2.06 8.01 2.91 12.15 11.76 9.25 19.76l-.048-.07zm4.013 36.56l-20.18-13.08S97 163.68 88.47 135.036c0 0 1.168-20.03 21.378-21.817 0 0 18.95-7.74 25.078 3.29 0 0 7.544-10.77 17.75-11 10.207-.24 19.69 13.92 21.06 24.83 0 0 14.44-15.58 26.3 4.39.69 1.75 1.46 4.9 2.14 9.02 3.223 19.64-2.367 64.34-26.627 84.4-29.35 24.27-72.52-5.31-72.52-5.31l-12.46-27.91h-.01z"/><path fill="#E2AB74" d="M133.632 133.494s-1.222 15.89-.202 24.732c0 0 19.3-12.562.202-24.732zm38.704 10.22s-2.802 19.665-4.462 28.407c0 0 19.13-11.02 4.462-28.4zm4.516 12.395s1.904 50.94-4.394 65.07c-2.667 5.98-11.374 3.45-11.374 3.45l6.79-52.52s7.56-12.32 8.978-16.01zm-37.514-7.75s2.73 47.03-1.68 61.85c-2.035 6.84-11.376 3.45-11.376 3.45l7.323-62.03s4.314.4 5.733-3.29z"/><path fill="#A67C52" d="M108.27 141.395s21.31-.65 42.502 1.424c10.597 1 21.164 1.99 28.99 3.76 1.965.41 3.747.6 5.315 1.09 1.57.47 2.96.66 4.05 1.13 2.21.84 3.47 1.26 3.47 1.26.42.15.63.59.47 1-.15.41-.59.6-1 .46l-.09-.04s-1.23-.42-3.39-1.15c-1.05-.41-2.44-.67-3.98-1.07-1.54-.42-3.31-.77-5.25-1.1-7.75-1.44-18.27-2.47-28.81-3.06-21.1-1.21-42.23-.69-42.23-.69-1.38.03-2.53-.09-2.56-1.47-.03-1.38 1.06-1.59 2.44-1.59h.11-.036zm-.137 5s21.308.355 42.505 2.42c10.59 1.022 21.164 2.504 28.99 4.278 1.96.4 3.75.848 5.317 1.332 1.565.463 2.95.788 4.047 1.264 2.207.83 3.465 1.32 3.465 1.32.42.15.628.62.466 1.03-.152.4-.597.61-1 .48l-.093-.04-3.397-1.14c-1.05-.41-2.438-.66-3.98-1.07-1.54-.41-3.31-.77-5.257-1.1-7.755-1.43-18.27-2.47-28.815-3.06-21.1-1.21-42.23-.69-42.23-.69-1.38.03-2.53-1.09-2.57-2.47-.03-1.39 1.07-2.59 2.45-2.59h.11zm-.275 9s21.306.868 42.5 2.936c10.6 1.02 21.17 2.75 29 4.52 1.956.42 3.743.99 5.314 1.47 1.57.47 2.95.85 4.05 1.33 2.206.85 3.462 1.36 3.462 1.36.418.16.63.65.47 1.05-.156.41-.602.62-1.007.49l-.08-.03s-1.23-.41-3.4-1.14c-1.05-.41-2.43-.66-3.97-1.06-1.54-.41-3.31-.77-5.26-1.09-7.75-1.44-18.27-2.47-28.81-3.06-21.1-1.21-42.23-.69-42.23-.69-1.39.03-2.53-1.59-2.57-2.98-.04-1.39 1.06-3.11 2.44-3.11h.11l-.02.02zm-.268 13s21.306-.624 42.503 1.44c10.592 1.02 21.164 2.01 28.99 3.784 1.962.4 3.747.6 5.318 1.09 1.57.47 2.96.66 4.05 1.13 2.21.84 3.47 1.26 3.47 1.26.41.15.62.59.46 1-.15.4-.6.59-1 .46l-.09-.05s-1.24-.41-3.4-1.14c-1.05-.41-2.44-.67-3.98-1.06-1.54-.42-3.31-.77-5.26-1.1-7.76-1.44-18.28-2.47-28.82-3.06-21.1-1.2-42.23-.68-42.23-.68-1.39.03-2.54-.11-2.57-1.49-.03-1.39 1.06-1.62 2.44-1.62h.11l.02.03zm-1.014 13.2s5.217-1.25 13.02-2.39c7.828-1.14 18.348-2.145 28.9-2.037 5.27.104 10.543.42 15.453 1.058 2.44.41 4.82.62 7.03 1.14 2.22.52 4.33.9 6.24 1.44 1.89.58 3.63 1.12 5.17 1.58 1.54.46 2.81 1.12 3.89 1.53l3.35 1.39c.41.17.61.64.44 1.06-.16.4-.61.6-1.01.45l-.08-.03s-1.21-.44-3.32-1.22c-1.07-.35-2.31-.94-3.84-1.32-1.52-.39-3.23-.84-5.09-1.34-1.88-.44-3.96-.73-6.13-1.14-2.17-.42-4.52-.53-6.91-.83-4.81-.43-9.98-.53-15.14-.42-10.32.32-20.58 1.72-28.18 3.14-7.63 1.44-12.52 2.83-12.52 2.83-1.33.38-2.72-.4-3.1-1.73-.38-1.33.39-2.71 1.73-3.09.04-.01.07-.02.1-.02l.04-.01-.05-.04z"/><path fill="#FAC283" d="M96.545 127.463s-.33-2.03-.422-10.37c-.045-8.346.047-22.45-.38-33.576-.54-11.124-.47-22.792-1.12-31.14-.66-8.34-1.155-13.906-1.155-13.906-.99-10.1 6.42-19.1 16.533-20.09 10.11-.99 19.13 6.41 20.11 16.52.12 1.19.11 2.46 0 3.61 0 0 1.72 31.56 1.16 42.68-.44 11.12 1.73 25.57 1.67 33.91-.11 8.34-6.77 12.4-6.77 12.4.18 7.96-6.51 14.56-14.48 14.74-7.97.18-15.13-6.13-15.13-14.1v-.68.01z"/><path fill="#fff" d="M101.775 37.08s-.91-9.448 6.095-10.282c7.004-.838 17.564.83 17.298 12.11 0 0 .15 4.6-3.19 4.6-3.345 0-13.39-2.396-16.634-2.095-3.65.33-3.57-4.34-3.57-4.34v.008z"/><path fill="#FAC283" d="M127.26 90.493s3.846 21.38 10.87 34.184l-22.174 2.803-2.502-40.117 13.805 3.13zm-23.177 26.187s-44.953-8.563-49.275 43.296c0 0 24.582 22 37.72 21.73 13.14-.27 21.564-41.41 21.564-41.41l-10.01-23.61v-.006zm-17.535 41.71c-.057.17.12-.16.08.325.025.368-.02.996-.063 1.83-.092 1.67-.235 4.174-.225 6.964.022 2.81.266 5.83.832 8.81.614 2.98 1.657 5.94 3.583 9.07.47.79 1.067 1.51 1.612 2.33l.026.04.01.02c.075.06-.57-.46-.287-.23l.1.09.2.19.39.36.53.48c.2.21.6.56 1.13.98 1.9 1.57 4.03 3.11 6.04 4.65 4.06 3.06 7.99 5.8 11.29 8.11 3.32 2.27 6.04 4.06 7.79 5.13l2.4 1.46 1.78 1.08c4.44 2.69 5.86 8.48 3.17 12.93-2.1 3.46-6.08 5.08-9.83 4.36l-1.39-.27c-.97-.18-2.13-.46-3.59-.84-2.85-.78-6.6-1.98-10.83-3.67-4.27-1.65-9.04-3.75-14.1-6.21-2.55-1.21-5.1-2.58-7.86-4.12-.64-.35-1.39-.8-2.34-1.41l-1.18-.77-.45-.29-.22-.15-.11-.07-.39-.29-.07-.05c-1.6-1.03-3.14-2.18-4.63-3.45-6.05-4.98-10.98-12.02-13.67-19.17-2.81-7.16-3.46-14.19-3.23-19.88.23-5.75 1.35-10.28 2.39-13.44.52-1.59 1.02-2.84 1.43-3.75.36-.79 2.37-8.97 2.31-8.8 2.91-8.01 10.17-4.96 18.17-2.06 8.01 2.91 12.15 11.76 9.25 19.76l-.048-.07zm4.013 36.56l-20.18-13.08S97 163.68 88.47 135.036c0 0 1.168-20.03 21.378-21.817 0 0 18.95-7.74 25.078 3.29 0 0 6.878-11.43 17.085-11.67 10.21-.24 20.36 14.59 21.73 25.5 0 0 14.44-15.59 26.3 4.39.69 1.75 1.46 4.9 2.14 9.02 3.22 19.64-2.37 64.34-26.63 84.4-29.35 24.27-72.51-5.31-72.51-5.31l-12.46-27.91h-.01z"/><path fill="#E2AB74" d="M133.965 124.494s-1.222 15.89-.202 24.732c0 0 19.3-12.562.202-24.732zm38.705 10.22s-2.803 19.665-4.463 28.407c0 0 19.13-11.02 4.462-28.4zm4.515 12.396s1.904 50.944-4.394 65.077c-2.66 5.983-11.37 3.45-11.37 3.45l6.79-52.517s7.56-12.316 8.98-16.01zm-37.515-7.75s2.73 47.03-1.68 61.853c-2.034 6.84-11.375 3.456-11.375 3.456l7.323-62.03s4.314.4 5.733-3.29z"/><path fill="#A67C52" d="M108.27 141.395s21.31-.65 42.502 1.424c10.597 1 21.164 1.99 28.99 3.76 1.965.41 3.747.6 5.315 1.09 1.57.47 2.96.66 4.05 1.13 2.21.84 3.47 1.26 3.47 1.26.42.15.63.59.47 1-.15.41-.59.6-1 .46l-.09-.04s-1.23-.42-3.39-1.15c-1.05-.41-2.44-.67-3.98-1.07-1.54-.42-3.31-.77-5.25-1.1-7.75-1.44-18.27-2.47-28.81-3.06-21.1-1.21-42.23-.69-42.23-.69-1.38.03-2.53-.09-2.56-1.47-.03-1.38 1.06-1.59 2.44-1.59h.11-.036zm-.137 5s21.308.355 42.505 2.42c10.59 1.022 21.164 2.504 28.99 4.278 1.96.4 3.75.848 5.317 1.332 1.565.463 2.95.788 4.047 1.264 2.207.83 3.465 1.32 3.465 1.32.42.15.628.62.466 1.03-.152.4-.597.61-1 .48l-.093-.04-3.397-1.14c-1.05-.41-2.438-.66-3.98-1.07-1.54-.41-3.31-.77-5.257-1.1-7.755-1.43-18.27-2.47-28.815-3.06-21.1-1.21-42.23-.69-42.23-.69-1.38.03-2.53-1.09-2.57-2.47-.03-1.39 1.07-2.59 2.45-2.59h.11zm-.275 9s21.306.868 42.5 2.936c10.6 1.02 21.17 2.75 29 4.52 1.956.42 3.743.99 5.314 1.47 1.57.47 2.95.85 4.05 1.33 2.206.85 3.462 1.36 3.462 1.36.418.16.63.65.47 1.05-.156.41-.602.62-1.007.49l-.08-.03s-1.23-.41-3.4-1.14c-1.05-.41-2.43-.66-3.97-1.06-1.54-.41-3.31-.77-5.26-1.09-7.75-1.44-18.27-2.47-28.81-3.06-21.1-1.21-42.23-.69-42.23-.69-1.39.03-2.53-1.59-2.57-2.98-.04-1.39 1.06-3.11 2.44-3.11h.11l-.02.02zm-.268 13s21.306-.624 42.503 1.44c10.592 1.02 21.164 2.01 28.99 3.784 1.962.4 3.747.6 5.318 1.09 1.57.47 2.96.66 4.05 1.13 2.21.84 3.47 1.26 3.47 1.26.41.15.62.59.46 1-.15.4-.6.59-1 .46l-.09-.05s-1.24-.41-3.4-1.14c-1.05-.41-2.44-.67-3.98-1.06-1.54-.42-3.31-.77-5.26-1.1-7.76-1.44-18.28-2.47-28.82-3.06-21.1-1.2-42.23-.68-42.23-.68-1.39.03-2.54-.11-2.57-1.49-.03-1.39 1.06-1.62 2.44-1.62h.11l.02.03zm-1.014 13.2s5.217-1.25 13.02-2.39c7.828-1.14 18.348-2.145 28.9-2.037 5.27.104 10.543.42 15.453 1.058 2.44.41 4.82.62 7.03 1.14 2.22.52 4.33.9 6.24 1.44 1.89.58 3.63 1.12 5.17 1.58 1.54.46 2.81 1.12 3.89 1.53l3.35 1.39c.41.17.61.64.44 1.06-.16.4-.61.6-1.01.45l-.08-.03s-1.21-.44-3.32-1.22c-1.07-.35-2.31-.94-3.84-1.32-1.52-.39-3.23-.84-5.09-1.34-1.88-.44-3.96-.73-6.13-1.14-2.17-.42-4.52-.53-6.91-.83-4.81-.43-9.98-.53-15.14-.42-10.32.32-20.58 1.72-28.18 3.14-7.63 1.44-12.52 2.83-12.52 2.83-1.33.38-2.72-.4-3.1-1.73-.38-1.33.39-2.71 1.73-3.09.04-.01.07-.02.1-.02l.04-.01-.05-.04z"/><path fill="#FAC283" d="M96.545 127.463s-7.122 12.392-7.213 4.052c-.045-8.346 3.094-35.54 2.667-46.667-.54-11.124-.96-22.527.66-32.333-.66-8.34.8-14.044.8-14.044-.99-10.1 6.42-19.1 16.53-20.09 10.11-.99 19.12 6.41 20.1 16.52.11 1.19.11 2.46 0 3.61 0 0 1.72 31.56 1.16 42.68-.45 11.12 1.72 25.57 1.66 33.91-.11 8.34-6.78 12.4-6.78 12.4.18 7.96-6.51 14.56-14.48 14.74-7.97.18-15.13-6.13-15.13-14.1v-.68l-.01.01zm30.715-36.97s3.846 21.38 10.87 34.184l-22.174 2.803-2.502-40.117 13.805 3.13z"/><path fill="#E2AB74" d="M90.166 116.348s-15.25 26.667-14.5 42.167c0 0-5.5-16.75-1.75-25.25s9.708-17.084 9.708-17.084l6.542.17zm10.25-37.083s16.5 13.25 27 1.25v-8.75s-11.75 7.25-26.75 1c0 0-4 1.25-.25 6.5zm4.5-51.25s-8.75 4.75-3.5 15.5 24.506 6.035 23.753-4.607"/><path fill="#fff" d="M101.775 37.08s-.91-9.448 6.095-10.282c7.004-.838 17.564.83 17.298 12.11 0 0 .15 4.6-3.19 4.6-3.345 0-13.39-2.396-16.634-2.095-3.65.33-3.57-4.34-3.57-4.34v.008z"/><path fill="#333" d="M53.004 168.854c0-.72.015-1.424.042-2.107.176-4.396.873-8.073 1.656-10.977-.42-2.076-1.324-7.198-1.323-12.95 0-7.937 1.71-17.07 8.78-21.055 11.17-6.296 23.33-5.827 27.5-5.43l.5.013-.02.036.09.01c.78-9.94 1.8-21.822 1.8-29.23 0-.83-.02-1.606-.04-2.315-.26-5.24-.48-10.53-.48-15.7 0-5.81.29-11.45 1.14-16.64-.12-1.54-.17-2.98-.17-4.32 0-5.93.97-9.73.97-9.73-.06-.61-.09-1.21-.09-1.81 0-9.35 7.12-17.36 16.62-18.28 10.11-.99 19.12 6.4 20.11 16.51.05.59.08 1.2.08 1.81 0 .61-.03 1.22-.09 1.79 0 0 1.27 23.32 1.27 36.93 0 2.22-.03 4.19-.11 5.75-.04 1.04-.06 2.11-.06 3.2 0 9.32 1.38 20.2 1.67 27.83.3.9.62 1.8.94 2.69.39.48.77 1.01 1.09 1.6 0 0 6.87-11.43 17.08-11.67 4.19-.1 8.38 2.35 11.95 6.03 5.13 5.07 8.94 12.86 9.77 19.46 0 0 14.44-15.59 26.3 4.39.69 1.75 1.46 4.9 2.14 9.02.54 3.28.83 7.27.83 11.72 0 22.18-7.26 55.98-27.46 72.68-26.05 21.54-62.98.66-70.95-4.31-1.06-.39-2.16-.8-3.29-1.25-4.27-1.65-9.04-3.75-14.1-6.21-2.55-1.21-5.1-2.58-7.86-4.12-.64-.35-1.39-.8-2.34-1.41l-1.18-.77-.45-.29-.22-.15-.11-.07-.39-.29-.07-.05c-1.6-1.03-3.14-2.18-4.63-3.45-6.05-4.98-10.98-12.02-13.67-19.17-2.47-6.31-3.27-12.5-3.27-17.78m-8 0c0 7.24 1.28 14.19 3.8 20.64 3.21 8.52 9.04 16.69 16 22.43 1.68 1.43 3.44 2.74 5.22 3.9l.23.17.22.17.23.15.02.01.12.08.08.05.08.05.45.29 1.14.75.03.02.02.01c1.08.69 1.97 1.23 2.79 1.68 2.41 1.35 5.28 2.91 8.27 4.33 5.23 2.54 10.16 4.71 14.64 6.44.88.35 1.79.7 2.7 1.04 4.97 3.03 16.54 9.42 30.39 12.65 19.28 4.5 36.28 1.24 49.17-9.41 10.24-8.46 18.47-21.6 23.81-37.97 4.16-12.76 6.55-27.66 6.55-40.87 0-4.85-.32-9.23-.94-13.01-.53-3.21-1.41-7.66-2.59-10.66l-.24-.59-.33-.55c-6.28-10.58-13.7-13.45-18.83-13.99-3.61-.39-6.91.24-9.76 1.3-2.17-4.76-5.19-9.26-8.69-12.73-5.5-5.64-11.66-8.54-17.83-8.4-4.49.1-8.43 1.54-11.74 3.51-.44-5.41-.86-10.96-.86-15.98 0-1 .02-1.96.05-2.84.08-1.61.12-3.67.12-6.12 0-12.67-1.06-33.12-1.26-36.81.04-.63.06-1.27.06-1.91 0-.87-.04-1.73-.12-2.57-.69-7.03-4.07-13.36-9.52-17.84-5.45-4.48-12.32-6.56-19.33-5.87-13.55 1.34-23.8 12.63-23.8 26.26 0 .41.01.83.03 1.24-.37 1.9-.92 5.53-.92 10.29 0 1.32.04 2.65.13 3.97-.74 4.87-1.11 10.44-1.11 16.98 0 5.49.25 11.16.49 16.04.02.58.03 1.24.03 1.97 0 5.3-.57 13.28-1.17 21.01-6.67.25-15.84 1.67-24.63 6.63-5.87 3.31-12.86 10.85-12.86 28.02 0 5.09.61 9.69 1.14 12.7-.83 3.53-1.32 7.19-1.47 10.9-.03.81-.05 1.62-.05 2.43z"/></svg>