<svg xmlns="http://www.w3.org/2000/svg" width="256" height="256" viewBox="0 0 256 256"><path fill="#DD629A" d="M128.518 211.098c-24.453 0-45.11-26.073-49.776-62.376-17.93-5.488-31.942-12.264-41.677-20.16l-.07-.05c-.136-.1-.265-.208-.385-.32-24.465-20.198-18.008-43.868-13.73-59.55l.588-2.17c3.83-14.27 25.625-21.504 64.778-21.504 15.255 0 27.202 1.144 27.703 1.192.76.075 1.49.367 2.09.843l9.96 7.872 9.96-7.872c.6-.473 1.32-.765 2.08-.842.52-.05 12.99-1.29 28.73-1.29 38.51 0 59.96 7.17 63.76 21.32l.59 2.17c4.37 16.04 10.98 40.27-15.06 60.73-1.08.87-2.96 2.37-5.61 4.36-2.19 1.68-4.76 3.57-7.61 5.59-.09.06-.17.12-.26.17-2.41 1.44-5.11 2.83-7.97 4.3-.93.47-1.87.96-2.84 1.46-3.81 2.24-8.03 3.69-12.49 5.23l-1.47.51c-.64.22-1.91.67-1.92.68-2.47 16.09-8.3 30.71-16.53 41.4-9.11 11.84-20.79 18.35-32.88 18.35z"/><path fill="#333" d="M168.772 48.87c24.212 0 55.78 3.017 59.896 18.35 4.247 15.822 12.01 39.002-13.074 58.714-.976.79-2.84 2.27-5.54 4.3-2.038 1.562-4.57 3.428-7.52 5.515-3.08 1.84-6.726 3.63-10.69 5.69-3.876 2.29-8.474 3.77-13.317 5.45-1.385.47-2.793.98-4.227 1.47-4.392 33.52-23.213 58.72-45.783 58.72-23.198 0-42.428-26.56-46.11-61.46-20.135-5.91-33.802-12.85-42.905-20.26l-.14-.11.028.01C15.552 105.8 23.143 83.1 27.33 67.5c4.174-15.547 36.577-18.54 60.915-18.54 15.236 0 27.316 1.174 27.316 1.174l12.44 9.84 12.44-9.834s12.62-1.27 28.34-1.27m0-8c-15.93 0-28.6 1.26-29.13 1.31-1.52.155-2.96.74-4.16 1.686l-7.48 5.91-7.48-5.91c-1.2-.954-2.66-1.54-4.18-1.688-.51-.05-12.64-1.21-28.09-1.21-41.77-.002-64.22 8-68.64 24.466-.19.705-.38 1.423-.58 2.156C14.77 83.23 7.64 109.38 34 131.2c.205.186.42.362.647.53 9.82 7.94 23.11 14.522 40.505 20.05 5.576 36.994 27.48 63.31 53.39 63.31 13.36 0 26.164-7.07 36.05-19.91 8.22-10.683 14.144-25.038 16.91-40.84l1.125-.39c4.42-1.523 8.986-3.098 13.12-5.51.927-.484 1.837-.952 2.727-1.41 2.917-1.5 5.67-2.916 8.19-4.423.18-.104.35-.216.52-.333 2.88-2.037 5.484-3.946 7.74-5.676 2.645-1.987 4.547-3.49 5.69-4.414 28.07-22.095 20.765-48.88 16.4-64.89-.2-.734-.4-1.453-.59-2.157-4.39-16.335-26.51-24.277-67.63-24.277z"/><path fill="#fdb" d="M127.484 155.277C251.23 136.6 235.457 92.51 228.668 67.22c-6.785-25.285-88.23-17.08-88.23-17.08l-12.954 10.24h1.033L115.56 50.14s-81.44-7.917-88.23 17.368c-6.786 25.285-22.558 69.24 101.19 87.912"/><path fill="#C1272D" d="M70.373 63.36l2.314 1.036 3.303 1.31c2.283.862 4.693 1.66 7.148 2.394 4.908 1.47 10.02 2.667 15.2 3.595 10.388 1.84 21.077 2.59 31.804 2.322 21.47-.53 43.014-5.206 63.654-13.09 13.305-5.072 28.19 1.592 33.273 14.885 5.07 13.3-1.6 28.192-14.9 33.265-.07.033-.14.057-.22.088l-.16.062c-25.54 9.322-52.94 14.975-80.82 15.247-13.93.136-27.93-1.032-41.8-3.7-6.93-1.345-13.83-3.05-20.7-5.226-3.44-1.083-6.87-2.274-10.33-3.64-1.73-.682-3.47-1.395-5.26-2.186l-2.73-1.25c-1.02-.498-1.73-.833-3.3-1.68-12.01-6.423-16.53-21.36-10.11-33.366C42.9 61.96 56.79 57.32 68.48 62.513l1.89.846z"/><path fill="#8C1821" d="M193.797 60.927c-20.64 7.884-42.186 12.56-63.654 13.09-10.727.268-21.416-.482-31.805-2.322-5.178-.928-10.29-2.126-15.2-3.595-2.454-.732-4.864-1.53-7.147-2.393l-3.3-1.31-2.31-1.038-1.88-.85c-.71-.32-1.45-.48-2.18-.73-5.04 9.5-7.94 20.17-7.94 31.52 0 6.85 1.09 13.46 3.02 19.73 2.37.87 4.75 1.76 7.11 2.5 6.87 2.17 13.77 3.88 20.7 5.22 13.87 2.67 27.88 3.83 41.8 3.7 25.6-.25 50.76-5.07 74.48-13.07 1.63-5.78 2.58-11.83 2.58-18.1 0-12.23-3.29-23.73-9.09-33.76-1.72.27-3.45.72-5.15 1.37z"/><path fill="#C69C6D" d="M39.36 125.287s10.942 4.137 27.564 8.604c4.172 1.09 8.662 2.27 13.47 3.28 4.753 1.2 9.853 2.06 15.095 2.96 5.21 1.09 10.7 1.51 16.2 2.32 5.55.23 11.15 1.11 16.79 1.07 5.61-.07 11.25.27 16.74-.25 2.76-.17 5.49-.34 8.19-.5 2.68-.28 5.31-.73 7.92-1.06 2.61-.35 5.18-.7 7.69-1.05 2.46-.57 4.87-1.12 7.23-1.67 4.73-1.01 9.23-2.01 13.21-3.49 4.07-1.31 7.8-2.52 11.11-3.59 3.15-1.43 5.96-2.63 8.31-3.6 4.67-1.96 7.46-2.99 7.46-2.99s-2.22 1.86-6.34 4.95c-2.04 1.57-4.57 3.43-7.52 5.52-3.08 1.84-6.73 3.63-10.69 5.7-3.88 2.3-8.48 3.77-13.32 5.46-2.42.84-4.91 1.77-7.5 2.52-2.63.55-5.32 1.12-8.06 1.7-2.75.52-5.52 1.29-8.39 1.6-2.87.24-5.77.5-8.7.75-5.86.77-11.83.42-17.78.3-5.95-.13-11.85-.99-17.66-1.59-5.72-1.17-11.41-1.96-16.77-3.4-5.36-1.4-10.51-2.83-15.29-4.51-4.83-1.5-9.22-3.44-13.3-5.07-4.07-1.67-7.67-3.54-10.88-5.08-3.18-1.65-5.9-3.15-8.09-4.47-4.41-2.6-6.76-4.34-6.76-4.34z"/><path fill="#fff" d="M70.635 73.04S67.64 91.107 81.752 97.995c10.5 5.116 69.988 12.565 96.717 0 9.22-4.336 9.05-10.607 9.64-22.855 0 0-73.33 22.233-117.48-2.1z"/><path fill="#FF7BAC" d="M175.27 133.36c0 40.696-20.922 73.686-46.752 73.686-25.832 0-46.756-32.99-46.756-73.686 0-40.7 23.86-18.425 49.69-18.425 25.833 0 43.818-22.275 43.818 18.425z"/><path fill="#DD629A" d="M152.89 111.05c8.263-.704 13.218 2.805 13.218 22.515 0 35.172-18.076 63.68-40.402 63.68-22.342 0-40.43-28.508-40.43-63.68 0-32.048 16.943-21.316 36.84-19.14.813 6.86 6.877 60.13.813 64.92-6.5 5.105-18.56-7.418-18.56-7.418 2.33 21.345 19.45 19.864 24.14 13.843 11.98-15.354 5.92-67.39 5.92-67.39h-.23c6.9 0 13.21-3.99 18.68-5.534-5.83.512-13.34 2.19-21.94 2.703-4.93-.28-8.93-1.43-8.93-1.43s.02.02.04.18c-21.94-3.66-40.31-16.54-40.31 19.16 0 40.7 20.92 73.62 46.75 73.62s46.75-33.01 46.75-73.71c0-28.1-8.57-26.21-22.38-22.34z"/></svg>