<?xml version="1.0" encoding="utf-8"?>
<!-- Generator: Adobe Illustrator 16.0.0, SVG Export Plug-In . SVG Version: 6.00 Build 0)  -->
<!DOCTYPE svg PUBLIC "-//W3C//DTD SVG 1.1//EN" "http://www.w3.org/Graphics/SVG/1.1/DTD/svg11.dtd">
<svg version="1.1" id="Layer_1" xmlns="http://www.w3.org/2000/svg" xmlns:xlink="http://www.w3.org/1999/xlink" x="0px" y="0px"
	 width="256px" height="256px" viewBox="0 0 256 256" enable-background="new 0 0 256 256" xml:space="preserve">
<path fill="#FFDDBB" d="M163.09,212.533c-3.529,0-6.142-0.543-6.967-0.738c-32.275-4.779-48.055-21.688-55.612-35.046
	c-6.35-11.24-8.07-21.76-8.53-26.2c-22.56-14.72-35.79-43.44-31.6-69.13c3.19-19.55,15.79-33.19,34.55-37.43
	c4.95-1.12,9.81-1.69,14.46-1.69c30.429,0,45.32,24.07,49.78,32.93c1.09-0.17,2.16-0.26,3.21-0.26c5.78,0,10.92,2.521,15.29,7.5
	c17.36,19.76,18.46,74.7,15.2,99.711c-3.57,27.369-22,30.319-29.76,30.319L163.09,212.533z"/>
<path fill="#333333" d="M109.383,46.308c34.77,0.002,47.51,33.58,47.51,33.58c1.924-0.613,3.746-0.904,5.474-0.904
	c27.013,0,30.622,71.266,26.521,102.704c-3.041,23.314-17.383,26.847-25.797,26.847c-3.658,0-6.197-0.668-6.197-0.668
	c-59.626-8.728-61.08-59.626-61.08-59.626c-40.723-24.722-45.084-90.165,0-100.346C100.669,46.797,105.185,46.308,109.383,46.308
	 M109.619,38.308v8V38.308c-5,0-10.22,0.6-15.46,1.782c-20.44,4.616-34.21,19.447-37.68,40.69c-2.15,13.138-0.05,27.67,5.94,40.918
	c5.79,12.807,14.66,23.51,25.81,31.168c0.76,5.493,2.88,15.425,8.78,25.854c7.98,14.11,24.58,31.96,58.341,37.011
	c1.189,0.27,4,0.805,7.709,0.805c7.471,0,14.291-2.18,19.74-6.301c7.65-5.795,12.36-15.051,13.98-27.51
	c1.96-15.025,1.99-35.384,0.08-53.13c-2.551-23.634-8.01-40.37-16.24-49.744c-5.09-5.8-11.42-8.86-18.301-8.86
	c-0.299,0-0.59,0.01-0.889,0.02c-1.99-3.62-4.931-8.45-9.23-13.24c-11.41-12.72-26.63-19.45-42.63-19.45L109.619,38.308z"/>
<path fill="#8C6239" d="M127.67,114.455c5.609-1.425,10.064-4.63,13.568-8.105c2.188-2.193,4.002-4.563,5.684-6.98
	c2.244,4.276,3.902,8.84,4.773,13.582c0.594,3.598,0.846,7.266,0.609,10.85c-2.242-1.5-6-2.447-12.138-0.283
	c-12.36,4.36-24.234,16.72-13.21,31.99c10.302,14.261,30.17,28.06,32.212,11.28l0.28-0.04c-0.02-0.79-0.12-1.58-0.17-2.37
	c0.01-0.54,0.07-1,0.06-1.59c-0.021-0.59-0.159-1.03-0.37-1.43c-0.109-0.551-0.26-1.101-0.55-1.65c-0.38-0.859-1.569-1.48-2.45-1.46
	c-3.359,0.16-6.029,0.11-8.67-1.06c-2.79-1.061-4.42-2.771-4.24-4.891c0.051-1.949,1.25-4.3,2.65-6.15
	c6.45-2.84,10.34-9.09,12.05-15.069c1.851-6.4,1.979-13.06,0.851-19.41c-2.301-12.7-9.16-24.44-18.93-32.72
	c-4.801-4.13-10.521-7.52-16.181-9.98c-5.76-2.46-11.99-4.5-18.78-4.42c-6.7-0.09-14.15,3.29-17.66,9.21
	c-1.93,2.78-3.09,5.91-3.6,9.06c-0.63,3.12-0.65,6.32-0.04,9.39c1.96-5.87,4.52-11.17,7.83-15.33c3.48-4.03,8.14-6.3,13.51-6.15
	c5.32,0.04,10.82,1.89,16,4.29c5.32,2.49,9.979,5.45,14.24,9.28c3.12,2.7,5.91,5.8,8.31,9.16c-5.22,5.64-11.55,10.28-17.53,10.57
	c-3.27,0.17-6.23-0.87-8.97-2.81c-2.65-1.84-5.39-4.98-6.79-7.55c-0.25-0.44-0.55-0.9-0.9-1.29c-2.75-3.24-7.59-3.63-10.82-0.89
	c-3.22,2.75-3.62,7.59-0.88,10.82l0.04,0.04c3.92,4.62,7.95,7.67,13.15,10.19c5.07,2.4,11.38,3.32,16.98,1.86L127.67,114.455z"/>
<g>
	
		<linearGradient id="a_1_" gradientUnits="userSpaceOnUse" x1="129.7373" y1="81.6934" x2="314.74" y2="11.1923" gradientTransform="matrix(1 0 0 -1 0 257)">
		<stop  offset="0" style="stop-color:#FF0000;stop-opacity:0"/>
		<stop  offset="1" style="stop-color:#FF0000"/>
	</linearGradient>
	<path id="a" fill="url(#a_1_)" d="M118.354,181.688c0,0-3.123,17.067,27.707,23.986c30.83,6.922,34.101,2.92,42.471-19.258
		c8.369-22.178-14.54-13.645-16.36-11.912c-1.81,1.732-43.91,2.332-46.5-3.057"/>
</g>
<g>
	<defs>
		<path id="SVGID_1_" d="M118.354,181.688c0,0-3.123,17.067,27.707,23.986c30.83,6.922,34.101,2.92,42.471-19.258
			c8.369-22.178-14.54-13.645-16.36-11.912c-1.81,1.732-43.91,2.332-46.5-3.057"/>
	</defs>
	<clipPath id="SVGID_2_">
		<use xlink:href="#SVGID_1_"  overflow="visible"/>
	</clipPath>
	<g clip-path="url(#SVGID_2_)">
		
			<linearGradient id="SVGID_3_" gradientUnits="userSpaceOnUse" x1="117.9219" y1="77.7124" x2="326.1968" y2="-1.6576" gradientTransform="matrix(1 0 0 -1 0 257)">
			<stop  offset="0" style="stop-color:#FF0000;stop-opacity:0"/>
			<stop  offset="1" style="stop-color:#FF0000"/>
		</linearGradient>
		<path fill="url(#SVGID_3_)" d="M196.158,210.38l0.46-2.38v2.38H196.158z"/>
	</g>
</g>
<g>
	<defs>
		<path id="SVGID_4_" d="M118.354,181.688c0,0-3.123,17.067,27.707,23.986c30.83,6.922,34.101,2.92,42.471-19.258
			c8.369-22.178-14.54-13.645-16.36-11.912c-1.81,1.732-43.91,2.332-46.5-3.057"/>
	</defs>
	<clipPath id="SVGID_5_">
		<use xlink:href="#SVGID_4_"  overflow="visible"/>
	</clipPath>
	<g clip-path="url(#SVGID_5_)">
		
			<linearGradient id="SVGID_6_" gradientUnits="userSpaceOnUse" x1="133.9229" y1="90.4287" x2="316.5609" y2="20.8287" gradientTransform="matrix(1 0 0 -1 0 257)">
			<stop  offset="0" style="stop-color:#FF0000;stop-opacity:0"/>
			<stop  offset="1" style="stop-color:#FF0000"/>
		</linearGradient>
		<path fill="url(#SVGID_6_)" d="M186.684,215.38l7.61-54h1.325v54H186.684z"/>
	</g>
</g>
<path fill="#8C6239" d="M189.311,170.595c-1.281-1.409-3.258-2.396-5.101-2.59c-1.862-0.235-3.55,0.058-5.038,0.5
	c-1.46,0.431-2.887,1.097-4.125,1.763l-3.225,1.73c-2.102,1.035-4.322,1.729-6.54,2.439c-4.48,1.275-9.261,1.688-14.032,1.24
	c-4.77-0.418-9.537-1.57-14.137-3.258c-4.631-1.67-9.205-3.365-14.521-4.546c3.118,4.56,7.708,7.51,12.57,9.563
	c4.907,2.002,10.095,3.471,15.468,4.139c5.37,0.688,10.95,0.43,16.33-0.905c2.7-0.649,5.27-1.76,7.73-3.021l3.459-2
	c0.99-0.56,1.881-1.01,2.851-1.35c1.979-0.64,3.3-0.52,4.13,0.33c0.98,0.891,1.62,3.03,1.721,5.189
	c0.17,4.44-0.851,9.291-2.74,13.66c-1.95,4.351-4.67,8.451-8.42,11.4c-3.75,2.86-8.73,4.46-13.86,3.63
	c4.76,1.851,10.71,1.64,15.44-1.22c4.81-2.68,8.459-7.03,10.97-11.811c2.489-4.799,4.29-10.069,4.18-15.869
	c-0.14-2.84-0.5-6.101-3.069-8.99L189.311,170.595z"/>
<path fill="#8C6239" d="M127.67,114.455c5.609-1.425,10.064-4.63,13.568-8.105c2.188-2.193,4.002-4.563,5.684-6.98
	c2.244,4.276,3.902,8.84,4.773,13.582c0.594,3.598,0.846,7.266,0.609,10.85c-2.242-1.5-6-2.447-12.138-0.283
	c-12.36,4.36-24.234,16.72-13.21,31.99c10.302,14.261,30.17,28.06,32.212,11.28l0.28-0.04c-0.02-0.79-0.12-1.58-0.17-2.37
	c0.01-0.54,0.07-1,0.06-1.59c-0.021-0.59-0.159-1.03-0.37-1.43c-0.109-0.551-0.26-1.101-0.55-1.65c-0.38-0.859-1.569-1.48-2.45-1.46
	c-3.359,0.16-6.029,0.11-8.67-1.06c-2.79-1.061-4.42-2.771-4.24-4.891c0.051-1.949,1.25-4.3,2.65-6.15
	c6.45-2.84,10.34-9.09,12.05-15.069c1.851-6.4,1.979-13.06,0.851-19.41c-2.301-12.7-9.16-24.44-18.93-32.72
	c-4.801-4.13-10.521-7.52-16.181-9.98c-5.76-2.46-11.99-4.5-18.78-4.42c-6.7-0.09-14.15,3.29-17.66,9.21
	c-1.93,2.78-3.09,5.91-3.6,9.06c-0.63,3.12-0.65,6.32-0.04,9.39c1.96-5.87,4.52-11.17,7.83-15.33c3.48-4.03,8.14-6.3,13.51-6.15
	c5.32,0.04,10.82,1.89,16,4.29c5.32,2.49,9.979,5.45,14.24,9.28c3.12,2.7,5.91,5.8,8.31,9.16c-5.22,5.64-11.55,10.28-17.53,10.57
	c-3.27,0.17-6.23-0.87-8.97-2.81c-2.65-1.84-5.39-4.98-6.79-7.55c-0.25-0.44-0.55-0.9-0.9-1.29c-2.75-3.24-7.59-3.63-10.82-0.89
	c-3.22,2.75-3.62,7.59-0.88,10.82l0.04,0.04c3.92,4.62,7.95,7.67,13.15,10.19c5.07,2.4,11.38,3.32,16.98,1.86L127.67,114.455z"/>
<g>
	<defs>
		<path id="SVGID_7_" d="M118.354,181.688c0,0-3.123,17.067,27.707,23.986c30.83,6.922,34.101,2.92,42.471-19.258
			c8.369-22.178-14.54-13.645-16.36-11.912c-1.81,1.732-43.91,2.332-46.5-3.057"/>
	</defs>
	<clipPath id="SVGID_8_">
		<use xlink:href="#SVGID_7_"  overflow="visible"/>
	</clipPath>
	<g clip-path="url(#SVGID_8_)">
		
			<linearGradient id="SVGID_9_" gradientUnits="userSpaceOnUse" x1="117.9219" y1="77.7124" x2="326.1968" y2="-1.6576" gradientTransform="matrix(1 0 0 -1 0 257)">
			<stop  offset="0" style="stop-color:#FF0000;stop-opacity:0"/>
			<stop  offset="1" style="stop-color:#FF0000"/>
		</linearGradient>
		<path fill="url(#SVGID_9_)" d="M196.158,210.38l0.46-2.38v2.38H196.158z"/>
	</g>
</g>
<g>
	<defs>
		<path id="SVGID_10_" d="M118.354,181.688c0,0-3.123,17.067,27.707,23.986c30.83,6.922,34.101,2.92,42.471-19.258
			c8.369-22.178-14.54-13.645-16.36-11.912c-1.81,1.732-43.91,2.332-46.5-3.057"/>
	</defs>
	<clipPath id="SVGID_11_">
		<use xlink:href="#SVGID_10_"  overflow="visible"/>
	</clipPath>
	<g clip-path="url(#SVGID_11_)">
		
			<linearGradient id="SVGID_12_" gradientUnits="userSpaceOnUse" x1="133.9229" y1="90.4287" x2="316.5609" y2="20.8287" gradientTransform="matrix(1 0 0 -1 0 257)">
			<stop  offset="0" style="stop-color:#FF0000;stop-opacity:0"/>
			<stop  offset="1" style="stop-color:#FF0000"/>
		</linearGradient>
		<path fill="url(#SVGID_12_)" d="M186.684,215.38l7.61-54h1.325v54H186.684z"/>
	</g>
</g>
<path fill="#8C6239" d="M189.311,170.595c-1.281-1.409-3.258-2.396-5.101-2.59c-1.862-0.235-3.55,0.058-5.038,0.5
	c-1.46,0.431-2.887,1.097-4.125,1.763l-3.225,1.73c-2.102,1.035-4.322,1.729-6.54,2.439c-4.48,1.275-9.261,1.688-14.032,1.24
	c-4.77-0.418-9.537-1.57-14.137-3.258c-4.631-1.67-9.205-3.365-14.521-4.546c3.118,4.56,7.708,7.51,12.57,9.563
	c4.907,2.002,10.095,3.471,15.468,4.139c5.37,0.688,10.95,0.43,16.33-0.905c2.7-0.649,5.27-1.76,7.73-3.021l3.459-2
	c0.99-0.56,1.881-1.01,2.851-1.35c1.979-0.64,3.3-0.52,4.13,0.33c0.98,0.891,1.62,3.03,1.721,5.189
	c0.17,4.44-0.851,9.291-2.74,13.66c-1.95,4.351-4.67,8.451-8.42,11.4c-3.75,2.86-8.73,4.46-13.86,3.63
	c4.76,1.851,10.71,1.64,15.44-1.22c4.81-2.68,8.459-7.03,10.97-11.811c2.489-4.799,4.29-10.069,4.18-15.869
	c-0.14-2.84-0.5-6.101-3.069-8.99L189.311,170.595z"/>
</svg>
