<?xml version="1.0" encoding="utf-8"?>
<!-- Generator: Adobe Illustrator 16.0.0, SVG Export Plug-In . SVG Version: 6.00 Build 0)  -->
<!DOCTYPE svg PUBLIC "-//W3C//DTD SVG 1.1//EN" "http://www.w3.org/Graphics/SVG/1.1/DTD/svg11.dtd">
<svg version="1.1" id="Layer_1" xmlns="http://www.w3.org/2000/svg" xmlns:xlink="http://www.w3.org/1999/xlink" x="0px" y="0px"
	 width="256px" height="256px" viewBox="0 0 256 256" enable-background="new 0 0 256 256" xml:space="preserve">
<g>
	<path fill="#FAC283" d="M201.084,99.235c0,0,6.5,27.25-7.25,35s-29,5.25-29,5.25"/>
	<path fill="#D39D6C" d="M151.916,139.319c0,0,44.953,8.564,49.275-43.295c0,0-24.582-22-37.72-21.73
		c-13.141,0.27-21.564,41.41-21.564,41.41l10.01,23.609L151.916,139.319z"/>
	<path fill="#FAC283" d="M169.451,97.609c0.057-0.17-0.12,0.16-0.08-0.324c-0.025-0.368,0.021-0.996,0.063-1.83
		c0.092-1.67,0.234-4.174,0.225-6.964c-0.022-2.812-0.266-5.836-0.832-8.818c-0.614-2.98-1.657-5.94-3.583-9.074
		c-0.47-0.79-1.067-1.513-1.612-2.335l-0.025-0.04l-0.011-0.02c-0.074-0.06,0.57,0.46,0.287,0.23l-0.1-0.09l-0.2-0.19l-0.39-0.36
		l-0.53-0.48c-0.2-0.21-0.6-0.56-1.13-0.98c-1.9-1.57-4.03-3.11-6.04-4.65c-4.06-3.06-7.99-5.8-11.29-8.11
		c-3.32-2.27-6.04-4.06-7.79-5.13l-2.399-1.46l-1.78-1.08c-4.44-2.69-5.86-8.48-3.171-12.93c2.101-3.46,6.081-5.08,9.831-4.36
		l1.39,0.27c0.97,0.18,2.13,0.46,3.59,0.84c2.851,0.78,6.601,1.98,10.83,3.67c4.271,1.65,9.04,3.75,14.1,6.21
		c2.551,1.21,5.101,2.58,7.86,4.12c0.64,0.35,1.39,0.8,2.34,1.41l1.181,0.77l0.449,0.29l0.221,0.15l0.109,0.07l0.391,0.29
		l0.069,0.05c1.601,1.03,3.141,2.18,4.63,3.45c6.051,4.98,10.98,12.02,13.671,19.17c2.81,7.16,3.46,14.19,3.229,19.88
		c-0.229,5.75-1.35,10.28-2.39,13.44c-0.521,1.59-1.021,2.84-1.431,3.75c-0.359,0.79-2.369,8.97-2.31,8.8
		c-2.91,8.01-10.17,4.96-18.17,2.06c-8.01-2.91-12.15-11.76-9.25-19.76L169.451,97.609z M165.439,61.049l20.182,13.082
		c0,0-26.623,18.19-18.084,46.832c0,0-1.168,20.03-21.378,21.817c0,0-18.947,7.732-25.075-3.295c0,0-7.543,10.764-17.75,11
		c-10.206,0.24-19.689-13.926-21.061-24.832c0,0-14.439,15.582-26.3-4.398c-0.69-1.75-1.46-4.9-2.14-9.02
		c-3.221-19.64,2.369-64.339,26.629-84.399c29.35-24.27,72.511,5.31,72.511,5.31l12.461,27.909L165.439,61.049z"/>
	<path fill="#E2AB74" d="M122.368,122.505c0,0,1.222-15.89,0.202-24.732C122.57,97.773,103.271,110.336,122.368,122.505
		L122.368,122.505z M83.664,112.287c0,0,2.802-19.666,4.462-28.408C88.126,83.879,68.996,94.906,83.664,112.287L83.664,112.287z
		 M79.148,99.89c0,0-1.904-50.945,4.394-65.078c2.667-5.983,11.374-3.45,11.374-3.45l-6.79,52.517
		C88.126,83.879,80.566,96.195,79.148,99.89L79.148,99.89z M116.662,107.64c0,0-2.73-47.03,1.68-61.853
		c2.035-6.84,11.376-3.456,11.376-3.456l-7.323,62.022C122.395,104.354,118.081,103.951,116.662,107.64L116.662,107.64z"/>
	<path fill="#A67C52" d="M147.729,114.605c0,0-21.308,0.65-42.501-1.423c-10.597-1.006-21.164-1.992-28.99-3.763
		c-1.965-0.415-3.747-0.605-5.315-1.09c-1.569-0.47-2.96-0.657-4.05-1.136c-2.21-0.842-3.471-1.26-3.471-1.26
		c-0.42-0.154-0.629-0.59-0.469-1c0.149-0.414,0.59-0.6,1-0.466l0.09,0.04c0,0,1.229,0.416,3.39,1.142
		c1.05,0.412,2.44,0.67,3.979,1.063c1.541,0.413,3.311,0.77,5.25,1.093c7.75,1.434,18.271,2.47,28.811,3.06
		c21.1,1.205,42.23,0.684,42.23,0.684c1.38-0.035,2.529,0.09,2.56,1.47c0.03,1.376-1.06,1.585-2.44,1.585h-0.109L147.729,114.605z
		 M147.866,109.605c0,0-21.308-0.355-42.505-2.42c-10.59-1.022-21.164-2.503-28.989-4.278c-1.96-0.4-3.75-0.848-5.318-1.332
		c-1.565-0.463-2.95-0.788-4.047-1.264c-2.207-0.838-3.465-1.32-3.465-1.32c-0.42-0.157-0.628-0.626-0.466-1.038
		c0.152-0.404,0.597-0.61,1-0.48l0.093,0.038l3.397,1.137c1.051,0.41,2.438,0.662,3.98,1.063c1.54,0.41,3.309,0.766,5.257,1.096
		c7.755,1.43,18.271,2.47,28.815,3.058c21.1,1.205,42.23,0.687,42.23,0.687c1.382-0.037,2.533,1.086,2.569,2.463
		c0.034,1.387-1.064,2.592-2.442,2.592C147.939,109.604,147.896,109.604,147.866,109.605L147.866,109.605z M148.142,100.605
		c0,0-21.306-0.868-42.501-2.935c-10.6-1.018-21.17-2.748-29-4.52c-1.955-0.414-3.742-0.984-5.313-1.468
		c-1.57-0.467-2.95-0.848-4.051-1.324c-2.205-0.844-3.461-1.356-3.461-1.356c-0.418-0.157-0.631-0.644-0.469-1.052
		c0.155-0.404,0.601-0.62,1.006-0.484l0.08,0.03c0,0,1.229,0.41,3.399,1.14c1.05,0.41,2.43,0.66,3.97,1.06
		c1.54,0.41,3.311,0.77,5.26,1.09c7.75,1.44,18.271,2.47,28.811,3.06c21.1,1.21,42.23,0.69,42.23,0.69
		c1.39-0.03,2.529,1.59,2.569,2.98c0.04,1.39-1.06,3.11-2.439,3.11h-0.11L148.142,100.605z M148.409,87.605
		c0,0-21.306,0.624-42.503-1.44c-10.592-1.02-21.164-2.01-28.99-3.784c-1.962-0.406-3.747-0.606-5.318-1.09
		c-1.564-0.47-2.953-0.66-4.046-1.135c-2.21-0.84-3.467-1.26-3.467-1.26c-0.41-0.15-0.62-0.59-0.46-1c0.15-0.4,0.6-0.59,1-0.46
		l0.09,0.05c0,0,1.24,0.41,3.4,1.14c1.05,0.41,2.439,0.67,3.979,1.06c1.54,0.42,3.31,0.77,5.261,1.1
		c7.76,1.44,18.279,2.47,28.819,3.06c21.101,1.2,42.23,0.68,42.23,0.68c1.39-0.03,2.54,0.11,2.57,1.49
		c0.029,1.39-1.061,1.62-2.44,1.62h-0.11L148.409,87.605z M149.424,74.405c0,0-5.217,1.25-13.02,2.39
		c-7.828,1.14-18.348,2.144-28.9,2.037c-5.271-0.104-10.543-0.42-15.453-1.058c-2.441-0.41-4.826-0.62-7.037-1.14
		c-2.221-0.52-4.33-0.9-6.24-1.44c-1.891-0.58-3.631-1.12-5.17-1.58c-1.541-0.46-2.811-1.12-3.891-1.53l-3.35-1.39
		c-0.41-0.17-0.61-0.64-0.44-1.06c0.16-0.4,0.61-0.6,1.011-0.45l0.079,0.03c0,0,1.21,0.44,3.32,1.22c1.069,0.35,2.31,0.94,3.84,1.32
		c1.521,0.39,3.229,0.84,5.09,1.34c1.88,0.44,3.96,0.73,6.13,1.14c2.17,0.42,4.521,0.53,6.91,0.83c4.811,0.43,9.98,0.53,15.141,0.42
		c10.319-0.32,20.58-1.72,28.18-3.14c7.63-1.44,12.521-2.83,12.521-2.83c1.33-0.38,2.72,0.4,3.1,1.73c0.38,1.33-0.39,2.71-1.73,3.09
		c-0.039,0.01-0.069,0.02-0.1,0.02l-0.04,0.01L149.424,74.405z"/>
	<path fill="#FAC283" d="M159.454,128.537c0,0,0.33,2.03,0.422,10.37c0.045,8.346-0.047,22.449,0.38,33.576
		c0.54,11.123,0.471,22.791,1.12,31.141c0.66,8.34,1.155,13.905,1.155,13.905c0.99,10.106-6.42,19.103-16.533,20.09
		c-10.109,0.99-19.12-6.405-20.107-16.513c-0.113-1.189-0.111-2.46,0-3.609c0,0-1.721-31.561-1.158-42.682
		c0.447-11.119-1.725-25.57-1.664-33.91c0.11-8.34,6.773-12.398,6.773-12.398c-0.18-7.96,6.511-14.561,14.48-14.741
		c7.97-0.18,15.13,6.13,15.13,14.1v0.68L159.454,128.537z"/>
	<path fill="#FFFFFF" d="M154.225,218.919c0,0,0.909,9.449-6.096,10.283c-7.004,0.838-17.563-0.83-17.298-12.109
		c0,0-0.149-4.601,3.19-4.601c3.345,0,13.39,2.396,16.634,2.095c3.65-0.33,3.57,4.34,3.57,4.34L154.225,218.919z"/>
	<path fill="#FAC283" d="M128.741,165.507c0,0-3.847-21.381-10.87-34.184l22.173-2.803l2.502,40.117L128.741,165.507
		L128.741,165.507z"/>
	<path fill="#FAC283" d="M151.916,139.319c0,0,44.953,8.564,49.275-43.295c0,0-24.582-22-37.72-21.73
		c-13.141,0.27-21.564,41.41-21.564,41.41l10.01,23.609L151.916,139.319z"/>
	<path fill="#FAC283" d="M169.451,97.609c0.057-0.17-0.12,0.16-0.08-0.324c-0.025-0.368,0.021-0.996,0.063-1.83
		c0.092-1.67,0.234-4.174,0.225-6.964c-0.022-2.812-0.266-5.836-0.832-8.818c-0.614-2.98-1.657-5.94-3.583-9.074
		c-0.47-0.79-1.067-1.513-1.612-2.335l-0.025-0.04l-0.011-0.02c-0.074-0.06,0.57,0.46,0.287,0.23l-0.1-0.09l-0.2-0.19l-0.39-0.36
		l-0.53-0.48c-0.2-0.21-0.6-0.56-1.13-0.98c-1.9-1.57-4.03-3.11-6.04-4.65c-4.06-3.06-7.99-5.8-11.29-8.11
		c-3.32-2.27-6.04-4.06-7.79-5.13l-2.399-1.46l-1.78-1.08c-4.44-2.69-5.86-8.48-3.171-12.93c2.101-3.46,6.081-5.08,9.831-4.36
		l1.39,0.27c0.97,0.18,2.13,0.46,3.59,0.84c2.851,0.78,6.601,1.98,10.83,3.67c4.271,1.65,9.04,3.75,14.1,6.21
		c2.551,1.21,5.101,2.58,7.86,4.12c0.64,0.35,1.39,0.8,2.34,1.41l1.181,0.77l0.449,0.29l0.221,0.15l0.109,0.07l0.391,0.29
		l0.069,0.05c1.601,1.03,3.141,2.18,4.63,3.45c6.051,4.98,10.98,12.02,13.671,19.17c2.81,7.16,3.46,14.19,3.229,19.88
		c-0.229,5.75-1.35,10.28-2.39,13.44c-0.521,1.59-1.021,2.84-1.431,3.75c-0.359,0.79-2.369,8.97-2.31,8.8
		c-2.91,8.01-10.17,4.96-18.17,2.06c-8.01-2.91-12.15-11.76-9.25-19.76L169.451,97.609z M165.439,61.049l20.182,13.082
		c0,0-26.623,18.19-18.084,46.832c0,0-1.168,20.03-21.378,21.817c0,0-18.947,7.732-25.075-3.295c0,0-6.877,11.43-17.084,11.666
		c-10.206,0.24-20.355-14.592-21.727-25.498c0,0-14.439,15.582-26.3-4.398c-0.69-1.75-1.46-4.9-2.14-9.02
		c-3.221-19.64,2.369-64.339,26.629-84.399c29.35-24.27,72.511,5.31,72.511,5.31l12.461,27.909L165.439,61.049z"/>
	<path fill="#E2AB74" d="M122.035,131.505c0,0,1.222-15.89,0.202-24.731C122.237,106.773,102.938,119.336,122.035,131.505
		L122.035,131.505z"/>
	<path fill="#E2AB74" d="M83.331,121.287c0,0,2.802-19.666,4.462-28.408C87.793,92.879,68.663,103.906,83.331,121.287
		L83.331,121.287z"/>
	<path fill="#E2AB74" d="M78.815,108.89c0,0-1.904-50.945,4.394-65.078c2.667-5.983,11.374-3.45,11.374-3.45l-6.79,52.517
		C87.793,92.879,80.233,105.195,78.815,108.89L78.815,108.89z"/>
	<path fill="#E2AB74" d="M116.329,116.64c0,0-2.73-47.03,1.68-61.853c2.035-6.84,11.376-3.456,11.376-3.456l-7.323,62.022
		C122.062,113.354,117.748,112.951,116.329,116.64L116.329,116.64z"/>
	<path fill="#A67C52" d="M147.729,114.605c0,0-21.308,0.65-42.501-1.423c-10.597-1.006-21.164-1.992-28.99-3.763
		c-1.965-0.415-3.747-0.605-5.315-1.09c-1.569-0.47-2.96-0.657-4.05-1.136c-2.21-0.842-3.471-1.26-3.471-1.26
		c-0.42-0.154-0.629-0.59-0.469-1c0.149-0.414,0.59-0.6,1-0.466l0.09,0.04c0,0,1.229,0.416,3.39,1.142
		c1.05,0.412,2.44,0.67,3.979,1.063c1.541,0.413,3.311,0.77,5.25,1.093c7.75,1.434,18.271,2.47,28.811,3.06
		c21.1,1.205,42.23,0.684,42.23,0.684c1.38-0.035,2.529,0.09,2.56,1.47c0.03,1.376-1.06,1.585-2.44,1.585h-0.109L147.729,114.605z
		 M147.866,109.605c0,0-21.308-0.355-42.505-2.42c-10.59-1.022-21.164-2.503-28.989-4.278c-1.96-0.4-3.75-0.848-5.318-1.332
		c-1.565-0.463-2.95-0.788-4.047-1.264c-2.207-0.838-3.465-1.32-3.465-1.32c-0.42-0.157-0.628-0.626-0.466-1.038
		c0.152-0.404,0.597-0.61,1-0.48l0.093,0.038l3.397,1.137c1.051,0.41,2.438,0.662,3.98,1.063c1.54,0.41,3.309,0.766,5.257,1.096
		c7.755,1.43,18.271,2.47,28.815,3.058c21.1,1.205,42.23,0.687,42.23,0.687c1.382-0.037,2.533,1.086,2.569,2.463
		c0.034,1.387-1.064,2.592-2.442,2.592C147.939,109.604,147.896,109.604,147.866,109.605L147.866,109.605z M148.142,100.605
		c0,0-21.306-0.868-42.501-2.935c-10.6-1.018-21.17-2.748-29-4.52c-1.955-0.414-3.742-0.984-5.313-1.468
		c-1.57-0.467-2.95-0.848-4.051-1.324c-2.205-0.844-3.461-1.356-3.461-1.356c-0.418-0.157-0.631-0.644-0.469-1.052
		c0.155-0.404,0.601-0.62,1.006-0.484l0.08,0.03c0,0,1.229,0.41,3.399,1.14c1.05,0.41,2.43,0.66,3.97,1.06
		c1.54,0.41,3.311,0.77,5.26,1.09c7.75,1.44,18.271,2.47,28.811,3.06c21.1,1.21,42.23,0.69,42.23,0.69
		c1.39-0.03,2.529,1.59,2.569,2.98c0.04,1.39-1.06,3.11-2.439,3.11h-0.11L148.142,100.605z M148.409,87.605
		c0,0-21.306,0.624-42.503-1.44c-10.592-1.02-21.164-2.01-28.99-3.784c-1.962-0.406-3.747-0.606-5.318-1.09
		c-1.564-0.47-2.953-0.66-4.046-1.135c-2.21-0.84-3.467-1.26-3.467-1.26c-0.41-0.15-0.62-0.59-0.46-1c0.15-0.4,0.6-0.59,1-0.46
		l0.09,0.05c0,0,1.24,0.41,3.4,1.14c1.05,0.41,2.439,0.67,3.979,1.06c1.54,0.42,3.31,0.77,5.261,1.1
		c7.76,1.44,18.279,2.47,28.819,3.06c21.101,1.2,42.23,0.68,42.23,0.68c1.39-0.03,2.54,0.11,2.57,1.49
		c0.029,1.39-1.061,1.62-2.44,1.62h-0.11L148.409,87.605z M149.424,74.405c0,0-5.217,1.25-13.02,2.39
		c-7.828,1.14-18.348,2.144-28.9,2.037c-5.271-0.104-10.543-0.42-15.453-1.058c-2.441-0.41-4.826-0.62-7.037-1.14
		c-2.221-0.52-4.33-0.9-6.24-1.44c-1.891-0.58-3.631-1.12-5.17-1.58c-1.541-0.46-2.811-1.12-3.891-1.53l-3.35-1.39
		c-0.41-0.17-0.61-0.64-0.44-1.06c0.16-0.4,0.61-0.6,1.011-0.45l0.079,0.03c0,0,1.21,0.44,3.32,1.22c1.069,0.35,2.31,0.94,3.84,1.32
		c1.521,0.39,3.229,0.84,5.09,1.34c1.88,0.44,3.96,0.73,6.13,1.14c2.17,0.42,4.521,0.53,6.91,0.83c4.811,0.43,9.98,0.53,15.141,0.42
		c10.319-0.32,20.58-1.72,28.18-3.14c7.63-1.44,12.521-2.83,12.521-2.83c1.33-0.38,2.72,0.4,3.1,1.73c0.38,1.33-0.39,2.71-1.73,3.09
		c-0.039,0.01-0.069,0.02-0.1,0.02l-0.04,0.01L149.424,74.405z"/>
	<path fill="#FAC283" d="M159.454,128.537c0,0,7.122-12.392,7.214-4.052c0.045,8.346-3.094,35.541-2.667,46.666
		c0.54,11.125,0.958,22.527-0.667,32.334c0.66,8.34-0.803,14.044-0.803,14.044c0.99,10.106-6.42,19.103-16.533,20.09
		c-10.109,0.99-19.12-6.405-20.107-16.513c-0.113-1.189-0.111-2.46,0-3.609c0,0-1.721-31.561-1.158-42.682
		c0.447-11.119-1.725-25.57-1.664-33.91c0.11-8.34,6.773-12.398,6.773-12.398c-0.18-7.96,6.511-14.561,14.48-14.741
		c7.97-0.18,15.13,6.13,15.13,14.1v0.68L159.454,128.537z"/>
	<path fill="#FAC283" d="M128.741,165.507c0,0-3.847-21.381-10.87-34.184l22.173-2.803l2.502,40.117L128.741,165.507
		L128.741,165.507z"/>
	<path fill="#E2AB74" d="M165.834,139.651c0,0,15.25-26.666,14.5-42.166c0,0,5.5,16.75,1.75,25.25s-9.708,17.084-9.708,17.084
		L165.834,139.651z"/>
	<path fill="#E2AB74" d="M155.584,176.735c0,0-16.5-13.25-27-1.25v8.75c0,0,11.75-7.25,26.75-1
		C155.334,183.235,159.334,181.985,155.584,176.735z"/>
	<path fill="#E2AB74" d="M151.084,227.985c0,0,8.75-4.75,3.5-15.5s-24.506-6.035-23.753,4.607"/>
	<path fill="#FFFFFF" d="M154.225,218.919c0,0,0.909,9.449-6.096,10.283c-7.004,0.838-17.563-0.83-17.298-12.109
		c0,0-0.149-4.601,3.19-4.601c3.345,0,13.39,2.396,16.634,2.095c3.65-0.33,3.57,4.34,3.57,4.34L154.225,218.919z"/>
	<path fill="#333333" d="M202.996,87.147c0,0.72-0.015,1.424-0.043,2.107c-0.176,4.396-0.872,8.073-1.655,10.976
		c0.421,2.076,1.323,7.198,1.323,12.952c0,7.935-1.718,17.069-8.787,21.053c-11.171,6.295-23.331,5.826-27.501,5.43l-0.499-0.014
		c0,0,0.015-0.023,0.021-0.035c-0.033-0.004-0.062-0.008-0.094-0.012c-0.786,9.943-1.8,21.824-1.8,29.232
		c0,0.83,0.013,1.605,0.04,2.314c0.254,5.234,0.481,10.529,0.48,15.693c0,5.809-0.287,11.449-1.147,16.641
		c0.122,1.536,0.171,2.981,0.171,4.319c0,5.927-0.974,9.725-0.974,9.725c0.06,0.608,0.089,1.211,0.089,1.81
		c0,9.35-7.117,17.353-16.622,18.28c-10.109,0.99-19.12-6.405-20.107-16.513c-0.057-0.592-0.084-1.204-0.084-1.812
		c0-0.613,0.028-1.221,0.084-1.798c0,0-1.271-23.316-1.271-36.928c0-2.225,0.034-4.191,0.113-5.754
		c0.042-1.041,0.061-2.111,0.061-3.203c0-9.324-1.382-20.207-1.67-27.832c-0.303-0.9-0.619-1.801-0.945-2.695
		c-0.396-0.486-0.767-1.012-1.094-1.6c0,0-6.877,11.43-17.084,11.666c-4.197,0.1-8.385-2.354-11.956-6.033
		c-5.136-5.072-8.94-12.863-9.771-19.465c0,0-14.439,15.582-26.3-4.398c-0.69-1.75-1.46-4.9-2.14-9.02
		c-0.538-3.283-0.83-7.264-0.83-11.716c0-22.177,7.255-55.976,27.459-72.683c26.051-21.542,62.979-0.661,70.951,4.305
		c1.058,0.384,2.154,0.8,3.289,1.253c4.271,1.65,9.04,3.75,14.1,6.21c2.551,1.21,5.101,2.58,7.86,4.12c0.64,0.35,1.39,0.8,2.34,1.41
		l1.181,0.77l0.449,0.29l0.221,0.15l0.109,0.07l0.391,0.29l0.069,0.05c1.601,1.03,3.141,2.18,4.63,3.45
		c6.051,4.98,10.98,12.02,13.671,19.17C202.195,75.674,202.996,81.873,202.996,87.147 M210.996,87.147L210.996,87.147
		c0-7.245-1.28-14.189-3.805-20.642c-3.216-8.52-9.043-16.689-16-22.433c-1.683-1.431-3.439-2.745-5.226-3.907l-0.229-0.171
		l-0.226-0.167l-0.236-0.152l-0.014-0.008l-0.126-0.086l-0.082-0.056l-0.083-0.054l-0.45-0.29l-1.145-0.748l-0.025-0.016
		l-0.025-0.017c-1.081-0.694-1.969-1.228-2.788-1.678c-2.417-1.347-5.285-2.913-8.27-4.331c-5.237-2.545-10.161-4.713-14.638-6.445
		c-0.883-0.352-1.789-0.7-2.703-1.04c-4.975-3.031-16.543-9.418-30.389-12.651c-19.279-4.501-36.282-1.246-49.173,9.414
		c-10.24,8.468-18.475,21.599-23.813,37.975c-4.161,12.763-6.547,27.66-6.547,40.873c0,4.846,0.314,9.224,0.936,13.011
		c0.529,3.211,1.408,7.66,2.593,10.662l0.235,0.596l0.327,0.551c6.277,10.574,13.703,13.443,18.828,13.988
		c3.612,0.383,6.913-0.246,9.756-1.307c2.166,4.766,5.186,9.258,8.685,12.73c5.498,5.641,11.659,8.543,17.824,8.398
		c4.494-0.104,8.43-1.543,11.739-3.512c0.438,5.406,0.866,10.951,0.866,15.975c0,1.002-0.018,1.957-0.053,2.844
		c-0.08,1.609-0.121,3.666-0.121,6.113c0,12.67,1.058,33.121,1.254,36.813c-0.044,0.627-0.066,1.267-0.066,1.912
		c0,0.867,0.04,1.732,0.12,2.57c0.688,7.035,4.067,13.365,9.52,17.842c5.45,4.476,12.316,6.562,19.332,5.874
		c13.591-1.327,23.842-12.608,23.842-26.242c0-0.412-0.01-0.827-0.029-1.243c0.366-1.896,0.914-5.529,0.914-10.291
		c0-1.315-0.042-2.647-0.126-3.972c0.742-4.873,1.103-10.443,1.103-16.988c0.001-5.496-0.251-11.16-0.488-16.041
		c-0.021-0.578-0.032-1.24-0.032-1.967c0-5.297,0.566-13.277,1.172-21.008c6.672-0.246,15.842-1.672,24.629-6.625
		c5.866-3.307,12.858-10.852,12.859-28.022c0-5.098-0.611-9.694-1.138-12.706c0.823-3.528,1.315-7.187,1.464-10.902
		C210.979,88.773,210.996,87.955,210.996,87.147L210.996,87.147z"/>
</g>
</svg>
