<svg xmlns="http://www.w3.org/2000/svg" width="256" height="256" viewBox="0 0 256 256"><path fill="#FAC283" d="M167.87 204.207c-7.456 0-15.246-.604-21.938-1.7-4.204-.694-7.69-1.53-9.82-2.355-2.355-.91-4.354-2.363-5.948-4.326-7.624-5.07-12.158-12.764-13.186-22.358-4.353-5.107-6.813-12.515-6.634-20.138.02-.82.092-1.632.217-2.427-.65-1.93-1.97-6.125-2.99-11.448-1.91-.134-3.93-.297-6.03-.467-5.75-.467-11.7-.95-17.16-.95-1.04 0-2.05.02-3.04.06-1.5.075-3.5.115-5.9.115-12.75 0-34.15-1.12-36.86-1.264-.59.04-1.21.07-1.84.07-.75 0-1.49-.04-2.21-.11-5.96-.59-11.33-3.46-15.13-8.09-3.79-4.63-5.56-10.46-4.98-16.41 1.13-11.55 10.7-20.25 22.27-20.25.73 0 1.47.03 2.2.1.01 0 5.55.45 13.83 1.11 4.51.35 10.12.47 16.06.59 4.9.1 9.95.21 14.97.45 5.92.23 12.74.25 17.36.25 2.62 0 5.17-.01 7.57-.02 1.31-.01 2.57-.01 3.78-.01 1.09-11.15 6.23-27.58 25.86-36.02.26-.12.57-.25.9-.37 3.49-1.43 7.35-2.56 11.46-3.37.43-.16.88-.32 1.37-.48 4.63-1.52 9.52-2.39 14.53-2.59.73-.03 1.49-.05 2.26-.05 6.76 0 13.23 1.19 19.25 3.54 7.87 2.95 15.48 8.37 20.8 14.85 1.32 1.54 2.57 3.21 3.67 4.91l.31.41 1.37 2.11c.57.88 1.06 1.69 1.55 2.56 1.42 2.54 2.92 5.28 4.25 8.1 2.48 5.09 4.62 9.93 6.33 14.36.38.95.75 1.91 1.1 2.85 5.24 8.47 27.01 47.43 3.86 75.42-16.76 20.26-46.9 23.29-63.37 23.29z"/><path fill="#333" d="M168.77 55.793c5.277 0 11.485.806 17.785 3.272 7.156 2.688 14.195 7.62 19.172 13.668 1.273 1.497 2.422 3.035 3.456 4.633l.05.072.295.383.073.12.15.22.29.45.77 1.19c.62.96 1.06 1.71 1.42 2.35 1.54 2.76 2.92 5.31 4.13 7.86 2.47 5.06 4.56 9.83 6.21 14.1.44 1.09.84 2.15 1.21 3.17 4.79 7.65 26.09 44.89 4.4 71.11-14.32 17.32-39.76 21.84-60.29 21.84-8.23 0-15.67-.72-21.29-1.64-4.12-.68-7.26-1.46-9.02-2.14-2.03-.78-3.53-2.05-4.64-3.58-5.88-3.72-11.3-10.12-12.07-21.06-4.49-4.61-6.65-11.76-6.5-18.35.02-1.02.15-1.96.35-2.83-.15-.4-2.48-6.72-3.71-14.94-7.54-.37-17.76-1.61-26.6-1.61-1.09 0-2.16.02-3.2.06-1.56.08-3.52.11-5.74.11-13.61 0-36.93-1.27-36.93-1.27-.57.06-1.17.08-1.77.08-.62 0-1.24-.03-1.84-.08-10.1-.99-17.5-10.01-16.51-20.12.93-9.5 8.94-16.64 18.29-16.64.6 0 1.2.03 1.81.09 0 0 5.56.46 13.9 1.12 8.35.65 20.02.51 31.14 1.05 5.48.21 11.67.26 17.55.26 4.94 0 9.66-.04 13.53-.04h1.58c.25-10.36 3.85-27.81 23.68-36.34.24-.11.5-.21.77-.31 3.25-1.33 6.93-2.43 11.08-3.22.48-.18.98-.36 1.54-.54 3.16-1.04 7.69-2.16 13.44-2.39.68-.02 1.38-.04 2.1-.04m0-8c-.81 0-1.62.02-2.43.05-5.38.22-10.63 1.15-15.6 2.78-.4.13-.8.27-1.21.42-4.23.85-8.21 2.03-11.84 3.51-.35.13-.69.13-1.06.3-19.42 8.37-25.84 23.54-27.76 35.54h-.27c-2.39 0-4.94.17-7.55.17-4.57 0-11.31.05-17.2-.18-5.05-.24-10.12-.31-15.03-.41-5.87-.12-11.43-.22-15.83-.56l-13.82-1.1c-.83-.08-1.68-.12-2.51-.12-13.63 0-24.92 10.26-26.25 23.86-.69 7.02 1.4 13.88 5.87 19.34 4.48 5.46 10.81 8.84 17.83 9.53.87.08 1.74.12 2.62.12.64 0 1.27-.02 1.89-.06 3.68.2 24.15 1.26 36.83 1.26 2.48 0 4.48-.04 6.11-.12.89-.03 1.84-.05 2.85-.05 5.29 0 11.16.47 16.84.93 1.04.08 2.06.17 3.05.24.78 3.46 1.62 6.27 2.2 8.07-.07.65-.11 1.3-.13 1.95-.19 8.12 2.32 16.07 6.8 21.85 1.37 10.07 6.27 18.21 14.32 23.74 1.96 2.27 4.39 3.97 7.22 5.06 3.03 1.18 7.44 2.05 10.6 2.57 4.88.8 12.76 1.75 22.59 1.75 12.79 0 24.51-1.6 34.82-4.78 13.45-4.14 24.09-10.85 31.63-19.96 10.71-12.96 13.95-30.06 9.35-49.46-3.28-13.84-9.66-25.33-12.69-30.27-.32-.86-.65-1.72-.99-2.57-1.74-4.51-3.91-9.43-6.44-14.63-1.37-2.91-2.9-5.7-4.35-8.3-.53-.95-1.06-1.83-1.68-2.79l-.75-1.18-.28-.43-.03-.05-.03-.05-.11-.17-.05-.07-.18-.28-.2-.26-.12-.16c-1.16-1.77-2.47-3.51-3.88-5.18-5.75-6.96-13.92-12.79-22.44-16-6.46-2.52-13.41-3.8-20.65-3.8z"/><path fill="#E2AB74" d="M148.803 198.023s-27.333-1.227-28.054-27.844l-.33-12.22-5.71-7.34s-9.32-24.55-1.11-40.75l16.34 6.46 18.85 81.68z"/><path fill="#D39D6C" d="M116.665 106.92s-8.563-44.954 43.296-49.276c0 0 22 24.582 21.73 37.72-.27 13.14-41.41 21.564-41.41 21.564l-23.61-10.01z"/><path fill="#FAC283" d="M158.376 89.384c.17-.057-.16.12.324.08.368.025.996-.02 1.83-.063 1.67-.09 4.174-.23 6.964-.22 2.812.02 5.836.27 8.818.83 2.98.62 5.94 1.66 9.074 3.59.79.47 1.513 1.07 2.335 1.62l.04.03.02.01c.06.08-.46-.57-.23-.28l.09.1.19.2.36.39.48.53c.21.2.56.61.98 1.13 1.57 1.9 3.11 4.03 4.65 6.04 3.06 4.06 5.8 7.99 8.11 11.29 2.27 3.33 4.06 6.04 5.13 7.8l1.46 2.39 1.08 1.78c2.69 4.44 8.48 5.86 12.93 3.17 3.46-2.1 5.08-6.08 4.36-9.84l-.27-1.39c-.18-.97-.46-2.13-.84-3.6-.78-2.85-1.98-6.6-3.67-10.83-1.65-4.26-3.75-9.03-6.21-14.09-1.21-2.55-2.58-5.1-4.12-7.85-.35-.64-.8-1.39-1.41-2.34l-.77-1.18-.29-.45-.14-.22-.07-.12-.29-.38-.05-.07c-1.03-1.6-2.18-3.13-3.45-4.63-4.97-6.05-12.01-10.98-19.17-13.67-7.16-2.8-14.19-3.46-19.88-3.23-5.74.23-10.28 1.35-13.44 2.39-1.59.52-2.84 1.02-3.75 1.44-.79.36-8.96 2.36-8.8 2.31-8.01 2.9-4.96 10.17-2.06 18.17 2.91 8.01 11.76 12.15 19.76 9.24zm36.56 4.012l-13.082-20.182s-18.19 26.623-46.832 18.084c0 0-20.03 1.168-21.818 21.378 0 0 .43 22.158 11.457 28.287 0 0-10.08 2.254-10.31 12.46-.24 10.206 5.08 21.767 15.99 23.138 0 0-2.91 15.96 7.23 19.87 1.76.68 4.9 1.46 9.02 2.14 19.65 3.22 61.52 4.07 81.58-20.19 24.28-29.35-5.3-72.51-5.3-72.51l-27.92-12.46z"/><path fill="#E2AB74" d="M133.48 136.467s15.89-1.223 24.732-.203c0 0-12.563 19.3-24.733.203zm10.218 38.705s19.666-2.803 28.408-4.463c0 0-11.027 19.12-28.408 4.46zm12.397 4.514s50.945 1.904 65.078-4.393c5.983-2.668 3.45-11.375 3.45-11.375l-52.517 6.79s-12.316 7.56-16.01 8.978zm-7.75-37.514s47.03 2.732 61.853-1.678c6.84-2.037 3.456-11.377 3.456-11.377l-62.022 7.325s.402 4.312-3.288 5.73z"/><path fill="#A67C52" d="M141.62 111.105s-.772 21.307 1.302 42.5c1.006 10.596 1.933 21.164 3.703 28.99.415 1.965.576 3.748 1.06 5.316.47 1.57.643 2.96 1.12 4.05.843 2.21 1.255 3.47 1.255 3.47.153.42.584.63.996.47.413-.15.598-.59.463-1l-.05-.09s-.42-1.23-1.14-3.39c-.41-1.05-.67-2.44-1.07-3.98-.42-1.54-.77-3.31-1.1-5.25-1.44-7.75-2.47-18.27-3.06-28.81-1.21-21.1-.69-42.23-.69-42.23.03-1.38.03-2.54-1.35-2.57-1.38-.03-1.47 1.06-1.47 2.44v.11zm5-.135s.233 21.306 2.3 42.503c1.02 10.592 2.442 21.166 4.218 28.992.4 1.957.817 3.75 1.302 5.316.463 1.57.773 2.95 1.25 4.05l1.313 3.47c.156.42.62.63 1.033.47.404-.15.61-.59.48-1l-.04-.09-1.138-3.4c-.41-1.05-.662-2.43-1.063-3.98-.41-1.54-.766-3.31-1.096-5.25-1.44-7.75-2.47-18.26-3.06-28.81-1.21-21.1-.69-42.23-.69-42.23.03-1.38-.97-2.53-2.35-2.57-1.39-.03-2.48 1.07-2.48 2.45v.11zm9-.277s.747 21.305 2.813 42.5c1.018 10.598 2.688 21.17 4.46 28.998.414 1.96.954 3.75 1.438 5.32.47 1.57.84 2.95 1.31 4.05.85 2.21 1.35 3.46 1.35 3.46.16.42.64.63 1.05.47.41-.15.62-.6.48-1l-.03-.08s-.4-1.23-1.13-3.4c-.41-1.04-.66-2.43-1.06-3.97-.41-1.54-.77-3.31-1.09-5.25-1.43-7.75-2.47-18.27-3.06-28.81-1.2-21.1-.68-42.23-.68-42.23.04-1.38-1.47-2.53-2.85-2.57-1.38-.03-2.98 1.06-2.98 2.45v.11zm13-.267s-.745 21.305 1.317 42.504c1.02 10.592 1.952 21.164 3.726 28.99.406 1.96.577 3.746 1.06 5.318.47 1.564.646 2.953 1.12 4.045.844 2.21 1.26 3.467 1.26 3.467.156.418.59.627 1.003.465.406-.15.592-.598.462-1.002l-.047-.09-1.13-3.395c-.41-1.053-.67-2.44-1.06-3.98-.41-1.54-.77-3.31-1.09-5.256-1.43-7.758-2.47-18.273-3.06-28.818-1.2-21.098-.68-42.23-.68-42.23.04-1.383.02-2.534-1.36-2.567-1.39-.033-1.49 1.062-1.49 2.44v.11zm12.96-1.016s-1.25 5.217-2.39 13.02c-1.14 7.828-2.144 18.348-2.037 28.898.104 5.273.42 10.545 1.058 15.455.41 2.44.62 4.826 1.14 7.037.52 2.22.9 4.328 1.44 6.236.58 1.89 1.12 3.627 1.58 5.17.46 1.54 1.12 2.805 1.53 3.883l1.39 3.35c.17.41.64.6 1.06.43.4-.17.6-.62.45-1.02l-.03-.09-1.22-3.33c-.35-1.07-.94-2.32-1.32-3.84-.39-1.52-.84-3.23-1.34-5.1-.44-1.88-.73-3.96-1.14-6.14-.42-2.17-.53-4.52-.83-6.91-.43-4.82-.53-9.98-.42-15.14.32-10.32 1.72-20.58 3.14-28.18 1.44-7.64 2.83-12.52 2.83-12.52.38-1.34-.4-2.72-1.73-3.1-1.33-.38-2.71.39-3.09 1.73-.01.03-.02.06-.02.09l-.01.03z"/><path fill="#FAC283" d="M127.448 99.38s-2.03-.33-10.37-.422c-8.346-.045-22.45.048-33.576-.38-11.124-.54-22.792-.47-31.14-1.12-8.34-.662-13.906-1.156-13.906-1.156-10.106-.99-19.102 6.42-20.09 16.534-.99 10.11 6.405 19.12 16.513 20.107 1.19.113 2.46.11 3.61 0 0 0 31.56 1.72 42.68 1.16 11.12-.45 25.57 1.723 33.91 1.662 8.34-.11 12.4-6.774 12.4-6.774 7.96.19 14.56-6.51 14.74-14.47.18-7.97-6.13-15.13-14.1-15.13h-.68z"/><path fill="#fff" d="M37.067 104.61s-9.45-.91-10.284 6.095c-.838 7.004.83 17.564 12.11 17.298 0 0 4.6.15 4.6-3.19 0-3.345-2.395-13.39-2.094-16.634.33-3.65-4.34-3.57-4.34-3.57z"/><path fill="#FAC283" d="M90.477 130.093s21.382 3.846 34.184 10.87l2.81-22.173-40.11-2.502 3.13 13.805z"/></svg>