<?xml version="1.0" encoding="utf-8"?>
<!-- Generator: Adobe Illustrator 16.0.0, SVG Export Plug-In . SVG Version: 6.00 Build 0)  -->
<!DOCTYPE svg PUBLIC "-//W3C//DTD SVG 1.1//EN" "http://www.w3.org/Graphics/SVG/1.1/DTD/svg11.dtd">
<svg version="1.1" id="Layer_1" xmlns="http://www.w3.org/2000/svg" xmlns:xlink="http://www.w3.org/1999/xlink" x="0px" y="0px"
	 width="256px" height="256px" viewBox="0 0 256 256" enable-background="new 0 0 256 256" xml:space="preserve">
<path fill="#FAC283" d="M159.779,200.918c0,0-27.25,6.5-35-7.25c-7.75-13.75-5.25-29-5.25-29"/>
<path fill="#D39D6C" d="M119.694,151.751c0,0-8.563,44.952,43.296,49.274c0,0,22-24.582,21.729-37.72
	c-0.27-13.14-41.41-21.563-41.41-21.563l-23.61,10.01L119.694,151.751z"/>
<path fill="#FAC283" d="M161.405,169.285c0.17,0.057-0.16-0.119,0.324-0.08c0.367-0.025,0.995,0.021,1.829,0.063
	c1.671,0.092,4.175,0.235,6.965,0.226c2.812-0.023,5.836-0.267,8.817-0.832c2.98-0.615,5.94-1.658,9.074-3.584
	c0.79-0.47,1.513-1.066,2.335-1.611l0.04-0.026l0.02-0.011c0.061-0.074-0.46,0.57-0.229,0.287l0.09-0.1l0.19-0.199l0.359-0.391
	l0.48-0.529c0.21-0.201,0.56-0.601,0.979-1.131c1.57-1.9,3.11-4.029,4.65-6.039c3.06-4.061,5.8-7.99,8.11-11.29
	c2.27-3.32,4.06-6.04,5.13-7.79l1.46-2.4l1.08-1.78c2.689-4.44,8.479-5.86,12.93-3.17c3.46,2.101,5.08,6.08,4.36,9.83l-0.271,1.391
	c-0.18,0.97-0.46,2.13-0.84,3.59c-0.78,2.85-1.98,6.6-3.67,10.83c-1.65,4.27-3.75,9.04-6.21,14.099
	c-1.21,2.551-2.58,5.101-4.12,7.861c-0.35,0.639-0.8,1.389-1.41,2.34l-0.77,1.18l-0.29,0.449l-0.15,0.221l-0.07,0.109l-0.29,0.391
	l-0.05,0.07c-1.029,1.6-2.18,3.14-3.45,4.629c-4.979,6.051-12.02,10.98-19.17,13.671c-7.159,2.81-14.189,3.46-19.88,3.229
	c-5.75-0.229-10.279-1.35-13.439-2.39c-1.59-0.521-2.84-1.021-3.75-1.431c-0.79-0.359-8.971-2.369-8.8-2.309
	c-8.011-2.91-4.961-10.171-2.061-18.171c2.91-8.01,11.76-12.149,19.76-9.25L161.405,169.285z M197.965,165.273l-13.082,20.182
	c0,0-18.189-26.623-46.832-18.084c0,0-20.03-1.168-21.817-21.377c0,0-7.732-18.948,3.295-25.076c0,0-10.764-7.543-11-17.75
	c-0.24-10.206,13.925-19.689,24.833-21.061c0,0-15.583-14.439,4.397-26.3c1.75-0.69,4.9-1.46,9.021-2.14
	c19.64-3.221,64.339,2.369,84.398,26.629c24.271,29.35-5.31,72.51-5.31,72.51l-27.909,12.461L197.965,165.273z"/>
<path fill="#E2AB74" d="M136.509,122.203c0,0,15.891,1.222,24.732,0.202C161.241,122.405,148.678,103.106,136.509,122.203
	L136.509,122.203z M146.728,83.499c0,0,19.665,2.802,28.407,4.462C175.135,87.96,164.108,68.831,146.728,83.499L146.728,83.499z
	 M159.124,78.983c0,0,50.945-1.904,65.078,4.394c5.983,2.667,3.45,11.374,3.45,11.374l-52.518-6.79
	C175.135,87.96,162.819,80.401,159.124,78.983L159.124,78.983z M151.374,116.497c0,0,47.03-2.73,61.854,1.68
	c6.84,2.035,3.455,11.376,3.455,11.376l-62.021-7.324C154.661,122.229,155.063,117.916,151.374,116.497L151.374,116.497z"/>
<path fill="#A67C52" d="M144.409,147.563c0,0-0.65-21.307,1.423-42.5c1.006-10.597,1.992-21.164,3.763-28.99
	c0.415-1.965,0.605-3.747,1.09-5.315c0.471-1.569,0.657-2.96,1.137-4.05c0.842-2.21,1.26-3.471,1.26-3.471
	c0.154-0.42,0.59-0.629,1-0.469c0.414,0.149,0.6,0.59,0.466,1l-0.04,0.09c0,0-0.416,1.229-1.142,3.39
	c-0.412,1.05-0.67,2.44-1.063,3.979c-0.413,1.541-0.77,3.311-1.093,5.25c-1.434,7.75-2.47,18.271-3.06,28.811
	c-1.205,21.1-0.685,42.23-0.685,42.23c0.035,1.38-0.09,2.53-1.47,2.561c-1.376,0.029-1.585-1.061-1.585-2.44v-0.11L144.409,147.563z
	 M149.409,147.701c0,0,0.354-21.308,2.42-42.505c1.021-10.59,2.503-21.164,4.278-28.989c0.399-1.96,0.848-3.75,1.332-5.318
	c0.463-1.565,0.788-2.95,1.264-4.047c0.838-2.207,1.32-3.465,1.32-3.465c0.156-0.42,0.626-0.628,1.038-0.466
	c0.403,0.152,0.609,0.597,0.479,1l-0.038,0.093l-1.137,3.397c-0.41,1.051-0.662,2.438-1.063,3.98
	c-0.41,1.54-0.766,3.309-1.096,5.257c-1.43,7.755-2.47,18.271-3.058,28.815c-1.205,21.1-0.688,42.23-0.688,42.23
	c0.037,1.382-1.086,2.534-2.463,2.57c-1.387,0.034-2.592-1.065-2.592-2.443C149.41,147.773,149.41,147.73,149.409,147.701
	L149.409,147.701z M158.409,147.976c0,0,0.868-21.305,2.935-42.5c1.019-10.6,2.748-21.17,4.521-29
	c0.414-1.955,0.983-3.742,1.468-5.313c0.467-1.57,0.848-2.95,1.324-4.051c0.844-2.205,1.355-3.461,1.355-3.461
	c0.157-0.418,0.645-0.631,1.053-0.469c0.403,0.155,0.619,0.601,0.483,1.006l-0.03,0.08c0,0-0.409,1.229-1.14,3.399
	c-0.41,1.05-0.66,2.43-1.06,3.97c-0.41,1.54-0.771,3.311-1.09,5.26c-1.44,7.75-2.471,18.271-3.061,28.811
	c-1.21,21.1-0.689,42.23-0.689,42.23c0.029,1.391-1.591,2.53-2.98,2.57s-3.11-1.061-3.11-2.44v-0.109L158.409,147.976z
	 M171.409,148.244c0,0-0.624-21.306,1.439-42.503c1.021-10.592,2.011-21.164,3.784-28.99c0.406-1.962,0.606-3.747,1.09-5.318
	c0.471-1.564,0.66-2.953,1.136-4.046c0.84-2.21,1.26-3.467,1.26-3.467c0.149-0.41,0.59-0.62,1-0.46c0.399,0.15,0.59,0.6,0.46,1
	l-0.05,0.09c0,0-0.41,1.24-1.141,3.4c-0.409,1.05-0.67,2.439-1.06,3.979c-0.42,1.54-0.771,3.31-1.1,5.261
	c-1.44,7.76-2.471,18.279-3.061,28.819c-1.2,21.101-0.68,42.23-0.68,42.23c0.029,1.391-0.11,2.54-1.49,2.57
	c-1.39,0.03-1.62-1.06-1.62-2.439v-0.11L171.409,148.244z M184.609,149.259c0,0-1.25-5.217-2.391-13.021
	c-1.14-7.828-2.144-18.347-2.037-28.9c0.104-5.271,0.42-10.543,1.059-15.453c0.41-2.441,0.62-4.826,1.14-7.037
	c0.521-2.221,0.9-4.33,1.44-6.24c0.58-1.891,1.12-3.631,1.58-5.17c0.46-1.541,1.12-2.811,1.529-3.891l1.391-3.35
	c0.17-0.41,0.64-0.61,1.06-0.44c0.4,0.16,0.601,0.61,0.45,1.011l-0.03,0.079c0,0-0.439,1.21-1.22,3.32
	c-0.35,1.069-0.94,2.31-1.32,3.84c-0.39,1.521-0.84,3.229-1.34,5.09c-0.439,1.88-0.729,3.96-1.14,6.13
	c-0.42,2.17-0.53,4.521-0.83,6.91c-0.43,4.811-0.53,9.98-0.42,15.141c0.319,10.319,1.72,20.58,3.14,28.18
	c1.44,7.63,2.83,12.52,2.83,12.52c0.38,1.33-0.4,2.72-1.729,3.101c-1.33,0.38-2.711-0.391-3.091-1.73c-0.01-0.04-0.02-0.07-0.02-0.1
	l-0.01-0.04L184.609,149.259z"/>
<path fill="#FAC283" d="M130.478,159.289c0,0-2.031,0.33-10.371,0.422c-8.346,0.045-22.45-0.047-33.576,0.379
	c-11.124,0.541-22.792,0.471-31.141,1.12c-8.34,0.66-13.905,1.155-13.905,1.155c-10.106,0.99-19.103-6.42-20.09-16.533
	c-0.99-10.109,6.405-19.12,16.513-20.107c1.189-0.113,2.46-0.111,3.609,0c0,0,31.561-1.721,42.681-1.158
	c11.12,0.447,25.57-1.725,33.91-1.664c8.34,0.11,12.4,6.774,12.4,6.774c7.96-0.18,14.561,6.51,14.74,14.479
	c0.18,7.971-6.13,15.131-14.1,15.131h-0.68L130.478,159.289z"/>
<path fill="#FFFFFF" d="M40.095,154.059c0,0-9.449,0.91-10.283-6.096c-0.838-7.004,0.83-17.563,12.109-17.297
	c0,0,4.601-0.15,4.601,3.189c0,3.346-2.396,13.391-2.095,16.634c0.33,3.65-4.34,3.57-4.34,3.57L40.095,154.059z"/>
<path fill="#FAC283" d="M93.507,128.576c0,0,21.381-3.847,34.184-10.871l2.803,22.173l-40.118,2.502L93.507,128.576L93.507,128.576z
	"/>
<path fill="#FAC283" d="M119.694,151.751c0,0-8.563,44.952,43.296,49.274c0,0,22-24.582,21.729-37.72
	c-0.27-13.14-41.41-21.563-41.41-21.563l-23.61,10.01L119.694,151.751z"/>
<path fill="#FAC283" d="M161.405,169.285c0.17,0.057-0.16-0.119,0.324-0.08c0.367-0.025,0.995,0.021,1.829,0.063
	c1.671,0.092,4.175,0.235,6.965,0.226c2.812-0.023,5.836-0.267,8.817-0.832c2.98-0.615,5.94-1.658,9.074-3.584
	c0.79-0.47,1.513-1.066,2.335-1.611l0.04-0.026l0.02-0.011c0.061-0.074-0.46,0.57-0.229,0.287l0.09-0.1l0.19-0.199l0.359-0.391
	l0.48-0.529c0.21-0.201,0.56-0.601,0.979-1.131c1.57-1.9,3.11-4.029,4.65-6.039c3.06-4.061,5.8-7.99,8.11-11.29
	c2.27-3.32,4.06-6.04,5.13-7.79l1.46-2.4l1.08-1.78c2.689-4.44,8.479-5.86,12.93-3.17c3.46,2.101,5.08,6.08,4.36,9.83l-0.271,1.391
	c-0.18,0.97-0.46,2.13-0.84,3.59c-0.78,2.85-1.98,6.6-3.67,10.83c-1.65,4.27-3.75,9.04-6.21,14.099
	c-1.21,2.551-2.58,5.101-4.12,7.861c-0.35,0.639-0.8,1.389-1.41,2.34l-0.77,1.18l-0.29,0.449l-0.15,0.221l-0.07,0.109l-0.29,0.391
	l-0.05,0.07c-1.029,1.6-2.18,3.14-3.45,4.629c-4.979,6.051-12.02,10.98-19.17,13.671c-7.159,2.81-14.189,3.46-19.88,3.229
	c-5.75-0.229-10.279-1.35-13.439-2.39c-1.59-0.521-2.84-1.021-3.75-1.431c-0.79-0.359-8.971-2.369-8.8-2.309
	c-8.011-2.91-4.961-10.171-2.061-18.171c2.91-8.01,11.76-12.149,19.76-9.25L161.405,169.285z M197.965,165.273l-13.082,20.182
	c0,0-18.189-26.623-46.832-18.084c0,0-20.03-1.168-21.817-21.377c0,0-7.732-18.948,3.295-25.076c0,0-11.431-6.877-11.667-17.084
	c-0.24-10.206,14.592-20.355,25.5-21.727c0,0-15.583-14.439,4.397-26.3c1.75-0.69,4.9-1.46,9.021-2.14
	c19.64-3.221,64.339,2.369,84.398,26.629c24.271,29.35-5.31,72.51-5.31,72.51l-27.909,12.461L197.965,165.273z"/>
<path fill="#E2AB74" d="M127.508,121.87c0,0,15.891,1.222,24.733,0.202C152.241,122.072,139.678,102.773,127.508,121.87
	L127.508,121.87z"/>
<path fill="#E2AB74" d="M137.728,83.166c0,0,19.665,2.802,28.407,4.462C166.135,87.627,155.108,68.498,137.728,83.166
	L137.728,83.166z"/>
<path fill="#E2AB74" d="M150.124,78.65c0,0,50.945-1.904,65.078,4.394c5.983,2.667,3.45,11.374,3.45,11.374l-52.518-6.79
	C166.135,87.627,153.819,80.068,150.124,78.65L150.124,78.65z"/>
<path fill="#E2AB74" d="M142.374,116.164c0,0,47.03-2.73,61.854,1.68c6.84,2.035,3.455,11.376,3.455,11.376l-62.021-7.324
	C145.661,121.896,146.063,117.583,142.374,116.164L142.374,116.164z"/>
<path fill="#A67C52" d="M144.409,147.563c0,0-0.65-21.307,1.423-42.5c1.006-10.597,1.992-21.164,3.763-28.99
	c0.415-1.965,0.605-3.747,1.09-5.315c0.471-1.569,0.657-2.96,1.137-4.05c0.842-2.21,1.26-3.471,1.26-3.471
	c0.154-0.42,0.59-0.629,1-0.469c0.414,0.149,0.6,0.59,0.466,1l-0.04,0.09c0,0-0.416,1.229-1.142,3.39
	c-0.412,1.05-0.67,2.44-1.063,3.979c-0.413,1.541-0.77,3.311-1.093,5.25c-1.434,7.75-2.47,18.271-3.06,28.811
	c-1.205,21.1-0.685,42.23-0.685,42.23c0.035,1.38-0.09,2.53-1.47,2.561c-1.376,0.029-1.585-1.061-1.585-2.44v-0.11L144.409,147.563z
	 M149.409,147.701c0,0,0.354-21.308,2.42-42.505c1.021-10.59,2.503-21.164,4.278-28.989c0.399-1.96,0.848-3.75,1.332-5.318
	c0.463-1.565,0.788-2.95,1.264-4.047c0.838-2.207,1.32-3.465,1.32-3.465c0.156-0.42,0.626-0.628,1.038-0.466
	c0.403,0.152,0.609,0.597,0.479,1l-0.038,0.093l-1.137,3.397c-0.41,1.051-0.662,2.438-1.063,3.98
	c-0.41,1.54-0.766,3.309-1.096,5.257c-1.43,7.755-2.47,18.271-3.058,28.815c-1.205,21.1-0.688,42.23-0.688,42.23
	c0.037,1.382-1.086,2.534-2.463,2.57c-1.387,0.034-2.592-1.065-2.592-2.443C149.41,147.773,149.41,147.73,149.409,147.701
	L149.409,147.701z M158.409,147.976c0,0,0.868-21.305,2.935-42.5c1.019-10.6,2.748-21.17,4.521-29
	c0.414-1.955,0.983-3.742,1.468-5.313c0.467-1.57,0.848-2.95,1.324-4.051c0.844-2.205,1.355-3.461,1.355-3.461
	c0.157-0.418,0.645-0.631,1.053-0.469c0.403,0.155,0.619,0.601,0.483,1.006l-0.03,0.08c0,0-0.409,1.229-1.14,3.399
	c-0.41,1.05-0.66,2.43-1.06,3.97c-0.41,1.54-0.771,3.311-1.09,5.26c-1.44,7.75-2.471,18.271-3.061,28.811
	c-1.21,21.1-0.689,42.23-0.689,42.23c0.029,1.391-1.591,2.53-2.98,2.57s-3.11-1.061-3.11-2.44v-0.109L158.409,147.976z
	 M171.409,148.244c0,0-0.624-21.306,1.439-42.503c1.021-10.592,2.011-21.164,3.784-28.99c0.406-1.962,0.606-3.747,1.09-5.318
	c0.471-1.564,0.66-2.953,1.136-4.046c0.84-2.21,1.26-3.467,1.26-3.467c0.149-0.41,0.59-0.62,1-0.46c0.399,0.15,0.59,0.6,0.46,1
	l-0.05,0.09c0,0-0.41,1.24-1.141,3.4c-0.409,1.05-0.67,2.439-1.06,3.979c-0.42,1.54-0.771,3.31-1.1,5.261
	c-1.44,7.76-2.471,18.279-3.061,28.819c-1.2,21.101-0.68,42.23-0.68,42.23c0.029,1.391-0.11,2.54-1.49,2.57
	c-1.39,0.03-1.62-1.06-1.62-2.439v-0.11L171.409,148.244z M184.609,149.259c0,0-1.25-5.217-2.391-13.021
	c-1.14-7.828-2.144-18.347-2.037-28.9c0.104-5.271,0.42-10.543,1.059-15.453c0.41-2.441,0.62-4.826,1.14-7.037
	c0.521-2.221,0.9-4.33,1.44-6.24c0.58-1.891,1.12-3.631,1.58-5.17c0.46-1.541,1.12-2.811,1.529-3.891l1.391-3.35
	c0.17-0.41,0.64-0.61,1.06-0.44c0.4,0.16,0.601,0.61,0.45,1.011l-0.03,0.079c0,0-0.439,1.21-1.22,3.32
	c-0.35,1.069-0.94,2.31-1.32,3.84c-0.39,1.521-0.84,3.229-1.34,5.09c-0.439,1.88-0.729,3.96-1.14,6.13
	c-0.42,2.17-0.53,4.521-0.83,6.91c-0.43,4.811-0.53,9.98-0.42,15.141c0.319,10.319,1.72,20.58,3.14,28.18
	c1.44,7.63,2.83,12.52,2.83,12.52c0.38,1.33-0.4,2.72-1.729,3.101c-1.33,0.38-2.711-0.391-3.091-1.73c-0.01-0.04-0.02-0.07-0.02-0.1
	l-0.01-0.04L184.609,149.259z"/>
<path fill="#FAC283" d="M130.478,159.289c0,0,12.392,7.121,4.052,7.213c-8.346,0.045-35.542-3.094-46.667-2.667
	c-11.124,0.54-22.527,0.958-32.333-0.667c-8.34,0.66-14.044-0.803-14.044-0.803c-10.106,0.99-19.103-6.42-20.09-16.533
	c-0.99-10.109,6.405-19.12,16.513-20.107c1.189-0.113,2.46-0.111,3.609,0c0,0,31.561-1.721,42.681-1.158
	c11.12,0.447,25.57-1.725,33.91-1.664c8.34,0.11,12.4,6.774,12.4,6.774c7.96-0.18,14.561,6.51,14.74,14.479
	c0.18,7.971-6.13,15.131-14.1,15.131h-0.68L130.478,159.289z"/>
<path fill="#FAC283" d="M93.507,128.576c0,0,21.381-3.847,34.184-10.871l2.803,22.173l-40.118,2.502L93.507,128.576L93.507,128.576z
	"/>
<path fill="#E2AB74" d="M119.362,165.668c0,0,26.667,15.25,42.167,14.5c0,0-16.75,5.5-25.25,1.75
	c-8.5-3.75-17.084-9.708-17.084-9.708L119.362,165.668z"/>
<path fill="#E2AB74" d="M82.279,155.419c0,0,13.25-16.5,1.25-27h-8.75c0,0,7.25,11.75,1,26.75
	C75.779,155.169,77.029,159.168,82.279,155.419z"/>
<path fill="#E2AB74" d="M31.029,150.918c0,0,4.75,8.75,15.5,3.5c10.75-5.249,6.035-24.506-4.607-23.752"/>
<path fill="#FFFFFF" d="M40.095,154.059c0,0-9.449,0.91-10.283-6.096c-0.838-7.004,0.83-17.563,12.109-17.297
	c0,0,4.601-0.15,4.601,3.189c0,3.346-2.396,13.391-2.095,16.634c0.33,3.65-4.34,3.57-4.34,3.57L40.095,154.059z"/>
<path fill="#333333" d="M171.867,202.83c-0.72,0-1.424-0.015-2.107-0.043c-4.396-0.176-8.073-0.872-10.976-1.655
	c-2.076,0.421-7.198,1.323-12.952,1.323c-7.935,0-17.068-1.718-21.053-8.787c-6.296-11.17-5.827-23.331-5.43-27.5l0.013-0.5
	c0,0,0.024,0.015,0.036,0.021c0.004-0.034,0.007-0.063,0.011-0.094c-9.942-0.787-21.823-1.801-29.232-1.801
	c-0.83,0-1.605,0.013-2.314,0.04c-5.234,0.255-10.529,0.481-15.692,0.481c-5.809,0-11.449-0.288-16.641-1.148
	c-1.536,0.122-2.981,0.171-4.319,0.171c-5.927,0-9.725-0.974-9.725-0.974c-0.608,0.06-1.211,0.089-1.81,0.089
	c-9.35,0-17.353-7.117-18.28-16.622c-0.99-10.109,6.405-19.12,16.513-20.107c0.592-0.057,1.204-0.084,1.812-0.084
	c0.613,0,1.221,0.028,1.798,0.084c0,0,23.316-1.271,36.928-1.271c2.225,0,4.191,0.034,5.753,0.113
	c1.042,0.042,2.111,0.061,3.204,0.061c9.324,0,20.207-1.382,27.832-1.67c0.9-0.303,1.801-0.619,2.695-0.945
	c0.486-0.396,1.011-0.767,1.6-1.094c0,0-11.431-6.877-11.667-17.084c-0.099-4.197,2.354-8.385,6.034-11.956
	c5.072-5.136,12.862-8.94,19.465-9.771c0,0-15.583-14.439,4.397-26.3c1.75-0.69,4.9-1.46,9.021-2.14
	c3.283-0.538,7.264-0.83,11.716-0.83c22.178,0,55.977,7.255,72.683,27.459c21.543,26.051,0.661,62.979-4.305,70.952
	c-0.385,1.058-0.8,2.154-1.253,3.289c-1.65,4.27-3.75,9.04-6.21,14.099c-1.21,2.551-2.58,5.101-4.12,7.861
	c-0.35,0.639-0.8,1.389-1.41,2.34l-0.77,1.18l-0.29,0.449l-0.15,0.221l-0.07,0.109l-0.29,0.391l-0.05,0.07
	c-1.029,1.6-2.18,3.14-3.45,4.629c-4.979,6.051-12.02,10.98-19.17,13.671C183.341,202.029,177.142,202.83,171.867,202.83
	 M171.867,210.83L171.867,210.83c7.245,0,14.189-1.279,20.642-3.805c8.52-3.216,16.689-9.043,22.433-16
	c1.432-1.683,2.745-3.439,3.907-5.225l0.171-0.23l0.168-0.225l0.151-0.237l0.009-0.013l0.086-0.127l0.056-0.082l0.054-0.083
	l0.29-0.45l0.747-1.145l0.017-0.025l0.017-0.025c0.693-1.081,1.228-1.969,1.678-2.788c1.347-2.417,2.913-5.284,4.33-8.27
	c2.546-5.237,4.714-10.161,6.445-14.638c0.352-0.883,0.7-1.788,1.039-2.703c3.031-4.974,9.419-16.542,12.651-30.388
	c4.501-19.279,1.246-36.282-9.414-49.173c-8.468-10.24-21.599-18.475-37.975-23.813c-12.763-4.161-27.66-6.547-40.873-6.547
	c-4.846,0-9.224,0.314-13.011,0.936c-3.211,0.529-7.66,1.408-10.661,2.593l-0.597,0.235l-0.551,0.327
	c-10.576,6.277-13.444,13.703-13.989,18.828c-0.384,3.612,0.246,6.913,1.306,9.756c-4.765,2.166-9.258,5.186-12.73,8.685
	c-5.64,5.498-8.543,11.659-8.398,17.824c0.104,4.494,1.544,8.43,3.513,11.739c-5.406,0.438-10.952,0.866-15.975,0.866
	c-1.002,0-1.958-0.018-2.844-0.053c-1.61-0.08-3.666-0.121-6.113-0.121c-12.671,0-33.121,1.058-36.813,1.254
	c-0.627-0.044-1.267-0.066-1.912-0.066c-0.867,0-1.732,0.04-2.57,0.12c-7.035,0.688-13.365,4.067-17.842,9.52
	c-4.476,5.45-6.562,12.316-5.874,19.332c1.327,13.591,12.608,23.842,26.242,23.842c0.412,0,0.827-0.01,1.243-0.029
	c1.896,0.366,5.529,0.914,10.291,0.914c1.315,0,2.647-0.042,3.972-0.126c4.872,0.742,10.442,1.104,16.988,1.104
	c5.496,0,11.159-0.252,16.04-0.488c0.579-0.021,1.241-0.033,1.967-0.033c5.298,0,13.277,0.566,21.009,1.172
	c0.246,6.672,1.672,15.842,6.624,24.629c3.307,5.867,10.852,12.859,28.023,12.859c5.099,0,9.694-0.611,12.706-1.137
	c3.528,0.822,7.187,1.314,10.902,1.463C170.241,210.813,171.06,210.83,171.867,210.83L171.867,210.83z"/>
</svg>
