<svg xmlns="http://www.w3.org/2000/svg" width="256" height="256" viewBox="0 0 256 256"><path fill="#8C6239" d="M121.723 241.38c-18.767 0-35.22-3.415-40.91-5.785-10.902-4.54-11.253-17.46-10.672-23.974-12.22-4.11-18-17.92-17.36-30.59.39-7.68 3.34-12.7 5.97-15.69-9.49-10.31-6.34-29.95-5.97-32.02.64-5.39 2.35-10.15 5.06-14.17 2.17-3.97 17.99-30.61 53.13-30.61 2.92 0 5.93.19 8.96.56.2.02 5.38.59 10.51 3.36.31-.32.61-.62.88-.91-2.04-4.75-3.64-9.74-4.79-14.88-1.59-7.09-2.41-14.58-2.45-22.26-.02-5.27.31-10.54.98-15.64.22-1.66.47-3.22.73-4.63 0 0 .41-1.92.41-1.93 2.14-10.09 11.15-17.4 21.43-17.4 1.52 0 3.06.16 4.56.48 11.81 2.48 19.4 14.14 16.91 25.97-.09.44-.2.88-.32 1.3l-.55 1.99-.18.3c-.17.48-.44 1.27-.76 2.34-.62 2.11-1.5 5.5-2.14 9.73-.76 4.87-2.04 17.3 2.5 27.99.53 1.22 1.04 2.28 1.55 3.22l.06.12c.15.28.31.55.48.82.14.23.27.45.41.69l.21.36.26.36.98 1.48c1.47 2.28 2.32 3.8 3.22 5.42l2.64 4.87c3.22 6.16 6.04 11.95 8.41 17.28 2.23 4.99 4.07 9.59 5.31 13.29 0 0 .56 1.76.71 2.25 7.92 15.54 23.21 53.91-.82 81.41-17.96 20.56-47.61 24.95-69.31 24.95l-.01.01z"/><path fill="#333" d="M147.61 18.77c1.23 0 2.477.128 3.727.393 9.69 2.047 15.875 11.553 13.832 21.24-.08.352-.17.706-.26 1.048l-.39 1.4c-.05.15-.03-.02-.26.6-.2.53-.5 1.41-.85 2.59-.7 2.36-1.61 5.93-2.26 10.26-1.36 8.64-1.38 20.39 2.77 30.15.52 1.22 1.08 2.41 1.72 3.57.29.6.65 1.13.98 1.71l.24.42.06.12.31.43.18.28.78 1.18c1.42 2.2 2.23 3.67 3.15 5.31.86 1.58 1.71 3.16 2.54 4.69 3.21 6.14 6 11.89 8.27 16.99 2.27 5.1 4.03 9.54 5.17 12.94.29.93.55 1.74.77 2.47 7.79 15.17 22.37 51.48-.11 77.2-16.14 18.47-43.32 23.51-66.31 23.51-18.44 0-34.19-3.24-39.37-5.4-11.63-4.85-7.76-23.27-7.76-23.27-12.61-1.94-18.42-15.52-17.82-27.35.59-11.83 8.13-15.99 8.13-15.99-12.6-7.46-8.17-31.33-8.17-31.33.61-5.31 2.29-9.44 4.52-12.67 1.64-3.1 16.27-28.69 49.71-28.69 2.7 0 5.52.17 8.47.53 0 0 6.46.67 11.52 4.44 2.23-2.06 3.93-3.92 5.06-5.24-2.56-5.46-4.4-11.09-5.6-16.49-1.76-7.83-2.33-15.18-2.35-21.41-.04-6.24.45-11.4.94-15.1.24-1.85.49-3.33.69-4.42l.39-1.85c1.79-8.42 9.23-14.21 17.51-14.21m0-8c-12.15 0-22.81 8.65-25.34 20.56-.01.04-.14.67-.39 1.83l-.02.11-.02.1c-.27 1.48-.53 3.1-.76 4.83-.7 5.29-1.04 10.73-1.01 16.2.03 7.96.89 15.74 2.54 23.12.64 2.88 1.42 5.72 2.34 8.5-2.33-.63-4.07-.85-4.61-.91-3.16-.39-6.32-.58-9.38-.58-36.91-.01-53.86 27.67-56.55 32.52-2.99 4.48-4.88 9.74-5.6 15.65-.58 3.34-3.2 20.97 4.83 32.65-2.39 3.56-4.52 8.59-4.86 15.45-.67 13.25 5.05 27.62 17.16 33.39-.22 9.18 2.5 20.5 13.34 25.01 7 2.92 24.26 6.02 42.45 6.02 22.54 0 53.38-4.55 72.33-26.24 25.48-29.16 9.87-69 1.54-85.47l-.4-1.29-.19-.59-.03-.08-.03-.07c-1.29-3.82-3.17-8.54-5.45-13.64-2.4-5.4-5.26-11.27-8.49-17.44l-.03-.05-.03-.05-1.11-2.03-1.44-2.66-.02-.03-.01-.03-.08-.14c-.9-1.6-1.82-3.25-3.35-5.62l-.02-.03-.02-.02-.78-1.18-.02-.03-.02-.02-.19-.27-.08-.12-.09-.12-.06-.08-.11-.19c-.15-.25-.29-.5-.44-.74-.12-.2-.27-.45-.32-.54l-.06-.12-.06-.12c-.45-.83-.91-1.78-1.39-2.9-2.86-6.75-3.69-16.37-2.22-25.75.61-4.05 1.43-7.25 2.02-9.22.26-.89.48-1.55.63-1.98.17-.37.32-.76.45-1.16l.02-.09.02-.09.39-1.39c.14-.49.27-1.01.37-1.52 2.95-13.99-6.03-27.77-20.01-30.73-1.76-.37-3.57-.56-5.37-.56z"/><path fill="#E2AB74" d="M61.083 121.545S77.618 87.97 119.43 93.062c0 0 18.18 1.885 17.452 17.12-.73 15.237-48.723 23.717-48.723 23.717l-27.08-12.36z"/><path fill="#FAC283" d="M164.524 42.848c-.045.148-.027-.027-.254.596-.193.53-.496 1.405-.842 2.586-.7 2.362-1.604 5.928-2.256 10.26-1.355 8.64-1.375 20.388 2.77 30.147.526 1.215 1.087 2.408 1.718 3.568.297.592.656 1.13.984 1.702l.248.424.063.12.313.43.184.28.777 1.18c1.42 2.21 2.23 3.67 3.15 5.31l2.54 4.69c3.21 6.14 6 11.89 8.27 16.99 2.27 5.09 4.03 9.54 5.17 12.94.57 1.8 1 3.14 1.28 4.34.27 1.11.41 1.7.41 1.7 1.36 5.58-2.06 11.22-7.65 12.58-4 .98-8.02-.5-10.48-3.46l-3.34-4.03c-.06-.06-.25-.83-1.26-3.21-1.04-2.37-2.83-6.01-5.25-10.41-2.41-4.39-5.47-9.54-8.85-14.87-.85-1.31-1.72-2.63-2.6-3.97-.86-1.28-1.88-2.73-2.41-3.4l-3.57-4.38c-1.36-1.75-2.61-3.58-3.79-5.46-4.69-7.55-7.74-15.88-9.48-23.69-1.76-7.83-2.33-15.18-2.35-21.41-.03-6.24.45-11.41.94-15.1.24-1.85.49-3.33.7-4.42l.39-1.85c2.05-9.68 11.56-15.88 21.24-13.82 9.69 2.05 15.87 11.55 13.83 21.24-.08.35-.16.71-.26 1.05l-.39 1.4z"/><path fill="#fff" d="M136.882 40.586s.97-10.564 5.09-12.51c4.12-1.942 17.213.15 18.424 5.24 1.207 5.09-2.674 12.114-2.674 12.114s-5.573-8.68-20.84-4.844z"/><path fill="#FAC283" d="M152.157 114.103L137.612 90.28s-21.938 30.308-54.9 19.506c0 0-23.273.73-25.982 24.114 0 0-4.428 23.865 8.17 31.324 0 0-7.535 4.152-8.13 15.987-.595 11.84 5.216 25.41 17.82 27.35 0 0-3.872 18.42 7.763 23.27 11.63 4.85 76.594 15.18 105.68-18.1 29.088-33.28-3.88-84.29-3.88-84.29l-31.996-15.32z"/><path fill="#E2AB74" d="M79.505 156.322s18.475 2.184 28.7 3.637c0 0-15.177 18.9-28.7-3.64zm10.642 51.043s18.287-3.396 28.477-5.045c0 0-8.775 22.604-28.477 5.045z"/><path fill="#8C6239" d="M91.62 127.03s-1.676 24.498-.942 49.01c.342 12.248 1.017 24.48 2.44 33.522.308 2.268.574 4.33.998 6.133.41 1.8.62 3.413 1.064 4.65.773 2.525 1.183 3.968 1.183 3.968l.023.106c.146.49-.14 1.01-.628 1.16-.484.14-.99-.12-1.157-.59 0 0-.51-1.48-1.42-4.07-.51-1.29-.83-2.91-1.33-4.74-.51-1.84-.96-3.92-1.37-6.22-1.8-9.13-3.18-21.44-4.02-33.76-1.72-24.66-1.43-49.38-1.43-49.38.02-1.6 1.72-2.9 3.33-2.88 1.61.01 3.28 1.33 3.28 2.94v.12zm6 0s-1.764 24.498-1.034 49.01c.34 12.248.972 24.48 2.394 33.522.307 2.268.55 4.33.973 6.133.412 1.8.615 3.413 1.053 4.65.775 2.525 1.175 3.968 1.175 3.968l.03.106c.15.49-.14 1.01-.63 1.16-.48.14-.99-.12-1.15-.59l-1.42-4.07c-.51-1.29-.83-2.91-1.33-4.74-.51-1.84-.96-3.92-1.37-6.22-1.8-9.13-3.18-21.44-4.02-33.76-1.72-24.66-1.43-49.38-1.43-49.38.02-1.6 1.81-2.9 3.42-2.88 1.61.01 3.37 1.33 3.37 2.94v.12zm12 0s-1.948 24.498-1.21 49.01c.337 12.248.875 24.48 2.297 33.522.303 2.268.504 4.33.93 6.133.406 1.8-.036 3.413.41 4.65.77 2.525.572 3.968.572 3.968v.106c0 .49.47 1.01-.02 1.16-.49.14-.69-.12-.86-.59 0 0-.37-1.48-1.28-4.07-.52-1.29-.76-2.91-1.26-4.74-.51-1.84-.92-3.92-1.34-6.22-1.81-9.13-3.17-21.44-4.01-33.76-1.73-24.66-1.42-49.38-1.42-49.38.01-1.6 2-2.9 3.61-2.88 1.61.01 3.55 1.33 3.55 2.94v.12zm11 0s-1.63 24.498-.9 49.01c.343 12.248 1.043 24.48 2.46 33.522.308 2.268.585 4.33 1.01 6.133.41 1.8.628 3.413 1.07 4.65.772 2.525 1.184 3.968 1.184 3.968l.027.106c.15.49-.14 1.01-.62 1.16-.48.14-.99-.12-1.15-.59l-1.43-4.07c-.5-1.29-.83-2.91-1.33-4.74-.51-1.84-.96-3.92-1.37-6.22-1.8-9.13-3.18-21.44-4.02-33.76-1.73-24.66-1.43-49.38-1.43-49.38.02-1.6 1.68-2.9 3.29-2.88 1.61.01 3.23 1.33 3.23 2.94v.12zm16.633.712s-1.756 5.62-3.672 14.428c-1.89 8.773-3.85 20.63-4.53 32.6-.29 5.982-.34 11.975 0 17.57.28 2.783.34 5.513.75 8.044.41 2.533.68 4.96 1.14 7.15l1.4 5.957c.4 1.78 1.04 3.24 1.41 4.49.85 2.48 1.32 3.9 1.32 3.9l.03.1c.17.49-.1 1.02-.59 1.19-.47.16-.98-.09-1.16-.55l-1.51-3.93c-.44-1.27-1.16-2.75-1.64-4.56-.5-1.8-1.06-3.83-1.68-6.04-.56-2.23-.94-4.69-1.46-7.28-.52-2.58-.7-5.35-1.1-8.2-.59-5.71-.78-11.83-.73-17.95.21-12.24 2.69-24.41 4.25-33.46 1.58-9.01 4.17-15.03 4.17-15.03v-.02c0-1.55 1.04-2.47 2.58-2.05 1.56.42 1.99 2.01 1.57 3.56 0 .04-.5.09-.52.13z"/></svg>