<svg xmlns="http://www.w3.org/2000/svg" xmlns:xlink="http://www.w3.org/1999/xlink" width="256" height="256" viewBox="0 0 256 256"><path fill="#fff" d="M195.87 150.002s-30.82 51.427-68.835 51.427c-38.018 0-63.934-51.75-63.934-51.75S90.08 97.9 128 100.54c48.718 3.39 67.87 49.46 67.87 49.46z"/><path fill="#F2F2F2" d="M74.895 170.546s40.975-41.498 106.975 3.835l15.75-15.25s-56.667-98.08-132.667-13.41l-3.27 9.61s5.154 14.06 13.212 15.23z"/><path fill="#0071BC" d="M159.715 148.714c0 17.344-14.067 31.41-31.413 31.41-17.345 0-31.408-14.066-31.408-31.41 0-17.353 14.063-31.412 31.408-31.412s31.413 14.06 31.413 31.412z"/><path fill="#082031" d="M128.302 183.714c-19.3 0-34.997-15.698-34.997-35 0-19.306 15.698-35.002 34.997-35.002 19.3 0 35.003 15.696 35.003 35.002 0 19.302-15.702 35-35.003 35zm0-62.822c-15.34 0-27.818 12.48-27.818 27.822 0 15.34 12.477 27.82 27.818 27.82 15.343 0 27.822-12.48 27.822-27.82 0-15.343-12.48-27.822-27.822-27.822zm16.603 26.92c0 8.803-7.13 15.93-15.932 15.93-8.796 0-15.93-7.126-15.93-15.928 0-8.8 7.134-15.928 15.93-15.928 8.8 0 15.932 7.128 15.932 15.928z"/><defs><path id="a" d="M154.333 138.616c0 11.517-11.96 20.864-26.705 20.864-14.742 0-26.696-9.348-26.696-20.864 0-11.52 11.954-20.867 26.696-20.867 14.746 0 26.705 9.34 26.705 20.86z"/></defs><clipPath><use xlink:href="#a" overflow="visible"/></clipPath><path fill="#fff" d="M142.607 131.885c0 5.69-4.616 10.29-10.305 10.29-5.687 0-10.295-4.6-10.295-10.29 0-5.678 4.61-10.29 10.295-10.29 5.69 0 10.305 4.612 10.305 10.29z"/><path d="M61.684 155.316s.557.916 1.623 2.345c.982 1.44 2.63 3.4 4.498 5.68 1.047 1.08 2.145 2.25 3.258 3.52 1.063 1.31 2.465 2.45 3.832 3.69 1.396 1.21 2.75 2.56 4.273 3.75 1.584 1.13 3.197 2.26 4.81 3.39 1.626 1.11 3.067 2.48 4.847 3.32 1.71.94 3.352 1.92 4.934 2.9 1.6.95 3.11 1.94 4.6 2.76 1.54.75 3.02 1.41 4.33 2.16 5.3 2.82 8.58 5.77 8.58 5.77s-4.25-.13-10.25-1.93c-1.52-.4-3.1-1-4.79-1.57-1.62-.77-3.27-1.69-5.01-2.59-1.73-.9-3.52-1.85-5.3-2.89-1.85-.92-3.45-2.31-5.13-3.57-1.65-1.31-3.28-2.62-4.9-3.91-1.54-1.37-2.85-2.97-4.22-4.38-1.33-1.47-2.72-2.76-3.67-4.33-1.05-1.48-2-2.91-2.84-4.22-.79-1.37-1.29-2.77-1.84-3.91-.57-1.13-.9-2.23-1.1-3.14-.53-1.76-.57-2.8-.57-2.8zm0 5.82s2.246 4.077 6.545 9.162c1.09 1.25 2.22 2.63 3.55 3.983 1.31 1.36 2.69 2.78 4.28 4.09 3.08 2.72 6.7 5.2 10.46 7.41 1.96.97 3.78 2.21 5.76 3.06 2 .81 3.86 1.85 5.79 2.58 1.93.73 3.81 1.43 5.59 2.09 1.81.58 3.55 1.05 5.12 1.65 3.14 1.22 5.87 1.89 7.74 2.75 1.89.75 2.97 1.31 2.97 1.31s-1.17.2-3.21.31c-2.04.08-5.02.37-8.46-.29-1.74-.22-3.6-.61-5.57-1.01l-6.05-1.88c-2.1-.65-4.17-1.66-6.3-2.58-2.12-.94-4.14-2.2-6.2-3.35-3.97-2.6-7.74-5.5-10.78-8.74-3.16-3.1-5.59-6.5-7.37-9.53-1.69-3.11-2.78-5.84-3.3-7.82-.54-1.98-.63-3.14-.63-3.14zm136.68-5.633s-1.524-2.523-4.435-6.63c-2.92-4.098-7.25-9.827-13.08-16.196-5.85-6.334-13.19-13.383-22.37-19.354-4.59-2.96-9.67-5.6-15.19-7.49-2.74-.988-5.63-1.66-8.54-2.203-1.48-.207-3.07-.407-4.52-.514-1.33-.02-2.92-.18-4.38-.078-11.69.096-23.39 3.278-32.93 8.722-9.57 5.48-16.91 12.803-22.25 19.603-2 2.52-3.71 5-5.15 7.36-.51-.025-1.06-.068-1.64-.084-1.08-.21-2.32-.34-3.45-.73-1.09-.48-2.38-.74-3.28-1.48-.92-.69-2.04-1.13-2.6-1.91-1.33-1.43-2.22-2.39-2.22-2.39l1.52 2.96c.37.99 1.33 1.72 2.14 2.77.8 1.08 2.03 1.75 3.15 2.65 1.16.81 2.49 1.37 3.71 1.96.15.04.29.09.43.14-.32.61-.62 1.21-.9 1.8-.37.04-.79.08-1.29.09-.89.1-1.91-.04-3.05-.07-1.07-.21-2.31-.34-3.44-.74-1.09-.47-2.38-.74-3.27-1.47-.92-.69-2.04-1.13-2.6-1.91l-2.22-2.39 1.52 2.96c.37.99 1.33 1.73 2.14 2.76.79 1.09 2.03 1.75 3.15 2.65 1.16.81 2.48 1.37 3.7 1.96 1.16.38 2.26.82 3.26 1.03-.01.02-.02.04-.02.06-.94 2.33-1.38 4.28-1.69 5.59l-.4 2.05s2.6-2.08 6.31-5.53c1.83-1.75 3.91-3.86 6.15-6.27 2.2-2.44 4.6-5.17 7.43-7.87 5.69-5.37 12.89-10.74 21.13-14.3 4.01-1.99 8.36-3.44 12.86-4.47 4.45-1.25 9.16-1.96 13.99-2.09l.9-.11h.07l.53.07 2.12.09 2.86.25c2.14.34 4.31.75 6.45 1.45 4.27 1.4 8.65 3.15 12.71 5.49 8.18 4.64 15.53 10.43 21.69 15.7 6.12 5.35 11.13 10.16 14.58 13.6l5.4 5.43.5.51c.92.91 2.37 1.13 3.52.43 1.36-.82 1.8-2.58.98-3.94zM57.714 113.25s.54-.356 1.55-1.028c.985-.645 2.43-1.527 4.28-2.61 3.7-2.16 9.072-5.018 15.78-7.874 6.716-2.806 14.79-5.62 23.788-7.347 8.973-1.7 18.896-2.34 28.592-.67 4.842.73 9.564 2.15 14.018 3.93 4.404 1.9 8.625 4.06 12.266 6.76 1.902 1.23 3.62 2.64 5.25 4.08 1.697 1.35 3.195 2.84 4.61 4.34 2.966 2.85 5.27 5.98 7.464 8.77 2.006 2.94 3.943 5.56 5.295 8.1 1.437 2.5 2.745 4.62 3.585 6.51l2.828 5.81c.385.79.053 1.73-.723 2.11-.755.37-1.657.08-2.06-.64l-.04-.07-3.073-5.48c-.916-1.78-2.3-3.77-3.818-6.09-1.44-2.38-3.438-4.75-5.496-7.44-2.232-2.52-4.566-5.36-7.48-7.85-1.394-1.32-2.86-2.62-4.495-3.77-1.57-1.23-3.21-2.44-5.01-3.46-3.444-2.28-7.364-3.98-11.386-5.46-4.07-1.36-8.33-2.39-12.69-2.8-8.7-1-17.58.06-25.66 2.06-8.1 2.03-15.4 5.03-21.45 7.96-6.05 2.99-10.87 5.91-14.13 8.06-3.32 2.2-4.91 3.46-4.91 3.46l-.1.08c-2.52 1.98-6.16 1.55-8.14-.96-1.99-2.51-1.56-6.15.95-8.14.12-.09.26-.19.38-.28z"/><path fill="#42210B" d="M49.53 93.99s56.92-73.65 155.09 20.39l-2.5-29S127.86 41.64 84.784 57.635c0 0-32.773 16.964-35.254 36.357z"/></svg>