<?xml version="1.0" encoding="utf-8"?>
<!-- Generator: Adobe Illustrator 16.0.0, SVG Export Plug-In . SVG Version: 6.00 Build 0)  -->
<!DOCTYPE svg PUBLIC "-//W3C//DTD SVG 1.1//EN" "http://www.w3.org/Graphics/SVG/1.1/DTD/svg11.dtd">
<svg version="1.1" id="Layer_1" xmlns="http://www.w3.org/2000/svg" xmlns:xlink="http://www.w3.org/1999/xlink" x="0px" y="0px"
	 width="256px" height="256px" viewBox="0 0 256 256" enable-background="new 0 0 256 256" xml:space="preserve">
<g>
	<path fill="#FAC283" d="M99.235,54.916c0,0,27.25-6.5,35,7.25s5.25,29,5.25,29"/>
	<path fill="#D39D6C" d="M139.32,104.084c0,0,8.563-44.953-43.296-49.275c0,0-22,24.582-21.73,37.72
		c0.27,13.141,41.41,21.564,41.41,21.564l23.61-10.01L139.32,104.084z"/>
	<path fill="#FAC283" d="M97.609,86.549c-0.17-0.057,0.16,0.12-0.324,0.08c-0.368,0.025-0.996-0.021-1.83-0.063
		c-1.67-0.092-4.174-0.234-6.964-0.225c-2.812,0.022-5.836,0.266-8.818,0.832c-2.98,0.614-5.94,1.657-9.074,3.583
		c-0.79,0.47-1.513,1.067-2.335,1.612l-0.04,0.025l-0.02,0.011c-0.06,0.074,0.46-0.57,0.23-0.287l-0.09,0.1l-0.19,0.2l-0.36,0.39
		l-0.48,0.53c-0.21,0.2-0.56,0.6-0.98,1.13c-1.57,1.9-3.11,4.03-4.65,6.04c-3.06,4.06-5.8,7.99-8.11,11.29
		c-2.27,3.32-4.06,6.04-5.13,7.79l-1.46,2.399l-1.08,1.78c-2.69,4.44-8.48,5.86-12.93,3.171c-3.46-2.101-5.08-6.081-4.36-9.831
		l0.27-1.39c0.18-0.97,0.46-2.13,0.84-3.59c0.78-2.851,1.98-6.601,3.67-10.83c1.65-4.271,3.75-9.04,6.21-14.1
		c1.21-2.551,2.58-5.101,4.12-7.86c0.35-0.64,0.8-1.39,1.41-2.34l0.77-1.181l0.29-0.449l0.15-0.221l0.07-0.109l0.29-0.391
		l0.05-0.069c1.03-1.601,2.18-3.141,3.45-4.63c4.98-6.051,12.02-10.98,19.17-13.671c7.16-2.81,14.19-3.46,19.88-3.229
		c5.75,0.229,10.28,1.35,13.44,2.39c1.59,0.521,2.84,1.021,3.75,1.431c0.79,0.359,8.97,2.369,8.8,2.31
		c8.01,2.91,4.96,10.17,2.06,18.17c-2.91,8.01-11.76,12.15-19.76,9.25L97.609,86.549z M61.049,90.561l13.082-20.182
		c0,0,18.19,26.623,46.832,18.084c0,0,20.03,1.168,21.817,21.378c0,0,7.732,18.947-3.295,25.075c0,0,10.764,7.543,11,17.75
		c0.24,10.206-13.925,19.689-24.832,21.061c0,0,15.582,14.439-4.398,26.3c-1.75,0.69-4.9,1.46-9.02,2.14
		c-19.64,3.221-64.339-2.369-84.399-26.629c-24.27-29.35,5.31-72.511,5.31-72.511l27.909-12.461L61.049,90.561z"/>
	<path fill="#E2AB74" d="M122.505,133.632c0,0-15.89-1.222-24.732-0.202C97.773,133.43,110.336,152.729,122.505,133.632
		L122.505,133.632z M112.287,172.336c0,0-19.666-2.802-28.408-4.462C83.879,167.874,94.906,187.004,112.287,172.336L112.287,172.336
		z M99.89,176.852c0,0-50.945,1.904-65.078-4.394c-5.983-2.667-3.45-11.374-3.45-11.374l52.517,6.79
		C83.879,167.874,96.195,175.434,99.89,176.852L99.89,176.852z M107.64,139.338c0,0-47.03,2.73-61.853-1.68
		c-6.84-2.035-3.456-11.376-3.456-11.376l62.022,7.323C104.354,133.605,103.951,137.919,107.64,139.338L107.64,139.338z"/>
	<path fill="#A67C52" d="M114.605,108.271c0,0,0.65,21.308-1.423,42.501c-1.006,10.597-1.992,21.164-3.763,28.99
		c-0.415,1.965-0.605,3.747-1.09,5.315c-0.47,1.569-0.657,2.96-1.136,4.05c-0.842,2.21-1.26,3.471-1.26,3.471
		c-0.154,0.42-0.59,0.629-1,0.469c-0.414-0.149-0.6-0.59-0.466-1l0.04-0.09c0,0,0.416-1.229,1.142-3.39
		c0.412-1.05,0.67-2.44,1.063-3.979c0.413-1.541,0.77-3.311,1.093-5.25c1.434-7.75,2.47-18.271,3.06-28.811
		c1.205-21.1,0.684-42.23,0.684-42.23c-0.035-1.38,0.09-2.529,1.47-2.56c1.376-0.03,1.585,1.06,1.585,2.44v0.109L114.605,108.271z
		 M109.605,108.134c0,0-0.355,21.308-2.42,42.505c-1.022,10.59-2.503,21.164-4.278,28.989c-0.4,1.96-0.848,3.75-1.332,5.318
		c-0.463,1.565-0.788,2.95-1.264,4.047c-0.838,2.207-1.32,3.465-1.32,3.465c-0.157,0.42-0.626,0.628-1.038,0.466
		c-0.404-0.152-0.61-0.597-0.48-1l0.038-0.093l1.137-3.397c0.41-1.051,0.662-2.438,1.063-3.98c0.41-1.54,0.766-3.309,1.096-5.257
		c1.43-7.755,2.47-18.271,3.058-28.815c1.205-21.1,0.687-42.23,0.687-42.23c-0.037-1.382,1.086-2.533,2.463-2.569
		c1.387-0.034,2.592,1.064,2.592,2.442C109.604,108.061,109.604,108.104,109.605,108.134L109.605,108.134z M100.605,107.858
		c0,0-0.868,21.306-2.935,42.501c-1.018,10.6-2.748,21.17-4.52,29c-0.414,1.955-0.984,3.742-1.468,5.313
		c-0.467,1.57-0.848,2.95-1.324,4.051c-0.844,2.205-1.356,3.461-1.356,3.461c-0.157,0.418-0.644,0.631-1.052,0.469
		c-0.404-0.155-0.62-0.601-0.484-1.006l0.03-0.08c0,0,0.41-1.229,1.14-3.399c0.41-1.05,0.66-2.43,1.06-3.97
		c0.41-1.54,0.77-3.311,1.09-5.26c1.44-7.75,2.47-18.271,3.06-28.811c1.21-21.1,0.69-42.23,0.69-42.23
		c-0.03-1.39,1.59-2.529,2.98-2.569c1.39-0.04,3.11,1.06,3.11,2.439v0.11L100.605,107.858z M87.605,107.591
		c0,0,0.624,21.306-1.44,42.503c-1.02,10.592-2.01,21.164-3.784,28.99c-0.406,1.962-0.606,3.747-1.09,5.318
		c-0.47,1.564-0.66,2.953-1.135,4.046c-0.84,2.21-1.26,3.467-1.26,3.467c-0.15,0.41-0.59,0.62-1,0.46c-0.4-0.15-0.59-0.6-0.46-1
		l0.05-0.09c0,0,0.41-1.24,1.14-3.4c0.41-1.05,0.67-2.439,1.06-3.979c0.42-1.54,0.77-3.31,1.1-5.261
		c1.44-7.76,2.47-18.279,3.06-28.819c1.2-21.101,0.68-42.23,0.68-42.23c-0.03-1.39,0.11-2.54,1.49-2.57
		c1.39-0.029,1.62,1.061,1.62,2.44v0.11L87.605,107.591z M74.405,106.576c0,0,1.25,5.217,2.39,13.02
		c1.14,7.828,2.144,18.348,2.037,28.9c-0.104,5.271-0.42,10.543-1.058,15.453c-0.41,2.441-0.62,4.826-1.14,7.037
		c-0.52,2.221-0.9,4.33-1.44,6.24c-0.58,1.891-1.12,3.631-1.58,5.17c-0.46,1.541-1.12,2.811-1.53,3.891l-1.39,3.35
		c-0.17,0.41-0.64,0.61-1.06,0.44c-0.4-0.16-0.6-0.61-0.45-1.011l0.03-0.079c0,0,0.44-1.21,1.22-3.32
		c0.35-1.069,0.94-2.31,1.32-3.84c0.39-1.521,0.84-3.229,1.34-5.09c0.44-1.88,0.73-3.96,1.14-6.13c0.42-2.17,0.53-4.521,0.83-6.91
		c0.43-4.811,0.53-9.98,0.42-15.141c-0.32-10.319-1.72-20.58-3.14-28.18c-1.44-7.63-2.83-12.521-2.83-12.521
		c-0.38-1.33,0.4-2.72,1.73-3.1c1.33-0.38,2.71,0.39,3.09,1.73c0.01,0.039,0.02,0.069,0.02,0.1l0.01,0.04L74.405,106.576z"/>
	<path fill="#FAC283" d="M128.537,96.546c0,0,2.03-0.33,10.37-0.422c8.346-0.045,22.45,0.047,33.576-0.38
		c11.124-0.54,22.792-0.471,31.141-1.12c8.34-0.66,13.905-1.155,13.905-1.155c10.106-0.99,19.103,6.42,20.09,16.533
		c0.99,10.109-6.405,19.12-16.513,20.107c-1.189,0.113-2.46,0.111-3.609,0c0,0-31.561,1.721-42.681,1.158
		c-11.12-0.447-25.57,1.725-33.91,1.664c-8.34-0.11-12.399-6.773-12.399-6.773c-7.96,0.18-14.561-6.511-14.741-14.48
		c-0.18-7.97,6.13-15.13,14.1-15.13h0.68L128.537,96.546z"/>
	<path fill="#FFFFFF" d="M218.919,101.775c0,0,9.449-0.909,10.283,6.096c0.838,7.004-0.83,17.563-12.109,17.298
		c0,0-4.601,0.149-4.601-3.19c0-3.345,2.396-13.39,2.095-16.634c-0.33-3.65,4.34-3.57,4.34-3.57L218.919,101.775z"/>
	<path fill="#FAC283" d="M165.507,127.259c0,0-21.381,3.847-34.184,10.87l-2.803-22.173l40.117-2.502L165.507,127.259
		L165.507,127.259z"/>
	<path fill="#FAC283" d="M139.32,104.084c0,0,8.563-44.953-43.296-49.275c0,0-22,24.582-21.73,37.72
		c0.27,13.141,41.41,21.564,41.41,21.564l23.61-10.01L139.32,104.084z"/>
	<path fill="#FAC283" d="M97.609,86.549c-0.17-0.057,0.16,0.12-0.324,0.08c-0.368,0.025-0.996-0.021-1.83-0.063
		c-1.67-0.092-4.174-0.234-6.964-0.225c-2.812,0.022-5.836,0.266-8.818,0.832c-2.98,0.614-5.94,1.657-9.074,3.583
		c-0.79,0.47-1.513,1.067-2.335,1.612l-0.04,0.025l-0.02,0.011c-0.06,0.074,0.46-0.57,0.23-0.287l-0.09,0.1l-0.19,0.2l-0.36,0.39
		l-0.48,0.53c-0.21,0.2-0.56,0.6-0.98,1.13c-1.57,1.9-3.11,4.03-4.65,6.04c-3.06,4.06-5.8,7.99-8.11,11.29
		c-2.27,3.32-4.06,6.04-5.13,7.79l-1.46,2.399l-1.08,1.78c-2.69,4.44-8.48,5.86-12.93,3.171c-3.46-2.101-5.08-6.081-4.36-9.831
		l0.27-1.39c0.18-0.97,0.46-2.13,0.84-3.59c0.78-2.851,1.98-6.601,3.67-10.83c1.65-4.271,3.75-9.04,6.21-14.1
		c1.21-2.551,2.58-5.101,4.12-7.86c0.35-0.64,0.8-1.39,1.41-2.34l0.77-1.181l0.29-0.449l0.15-0.221l0.07-0.109l0.29-0.391
		l0.05-0.069c1.03-1.601,2.18-3.141,3.45-4.63c4.98-6.051,12.02-10.98,19.17-13.671c7.16-2.81,14.19-3.46,19.88-3.229
		c5.75,0.229,10.28,1.35,13.44,2.39c1.59,0.521,2.84,1.021,3.75,1.431c0.79,0.359,8.97,2.369,8.8,2.31
		c8.01,2.91,4.96,10.17,2.06,18.17c-2.91,8.01-11.76,12.15-19.76,9.25L97.609,86.549z M61.049,90.561l13.082-20.182
		c0,0,18.19,26.623,46.832,18.084c0,0,20.03,1.168,21.817,21.378c0,0,7.732,18.947-3.295,25.075c0,0,11.431,6.877,11.667,17.084
		c0.24,10.206-14.592,20.355-25.499,21.727c0,0,15.582,14.439-4.398,26.3c-1.75,0.69-4.9,1.46-9.02,2.14
		c-19.64,3.221-64.339-2.369-84.399-26.629c-24.27-29.35,5.31-72.511,5.31-72.511l27.909-12.461L61.049,90.561z"/>
	<path fill="#E2AB74" d="M131.506,133.965c0,0-15.891-1.222-24.732-0.202C106.773,133.763,119.336,153.062,131.506,133.965
		L131.506,133.965z"/>
	<path fill="#E2AB74" d="M121.287,172.669c0,0-19.666-2.802-28.408-4.462C92.879,168.207,103.906,187.337,121.287,172.669
		L121.287,172.669z"/>
	<path fill="#E2AB74" d="M108.89,177.185c0,0-50.945,1.904-65.078-4.394c-5.983-2.667-3.45-11.374-3.45-11.374l52.517,6.79
		C92.879,168.207,105.195,175.767,108.89,177.185L108.89,177.185z"/>
	<path fill="#E2AB74" d="M116.64,139.671c0,0-47.03,2.73-61.853-1.68c-6.84-2.035-3.456-11.376-3.456-11.376l62.022,7.323
		C113.354,133.938,112.951,138.252,116.64,139.671L116.64,139.671z"/>
	<path fill="#A67C52" d="M114.605,108.271c0,0,0.65,21.308-1.423,42.501c-1.006,10.597-1.992,21.164-3.763,28.99
		c-0.415,1.965-0.605,3.747-1.09,5.315c-0.47,1.569-0.657,2.96-1.136,4.05c-0.842,2.21-1.26,3.471-1.26,3.471
		c-0.154,0.42-0.59,0.629-1,0.469c-0.414-0.149-0.6-0.59-0.466-1l0.04-0.09c0,0,0.416-1.229,1.142-3.39
		c0.412-1.05,0.67-2.44,1.063-3.979c0.413-1.541,0.77-3.311,1.093-5.25c1.434-7.75,2.47-18.271,3.06-28.811
		c1.205-21.1,0.684-42.23,0.684-42.23c-0.035-1.38,0.09-2.529,1.47-2.56c1.376-0.03,1.585,1.06,1.585,2.44v0.109L114.605,108.271z
		 M109.605,108.134c0,0-0.355,21.308-2.42,42.505c-1.022,10.59-2.503,21.164-4.278,28.989c-0.4,1.96-0.848,3.75-1.332,5.318
		c-0.463,1.565-0.788,2.95-1.264,4.047c-0.838,2.207-1.32,3.465-1.32,3.465c-0.157,0.42-0.626,0.628-1.038,0.466
		c-0.404-0.152-0.61-0.597-0.48-1l0.038-0.093l1.137-3.397c0.41-1.051,0.662-2.438,1.063-3.98c0.41-1.54,0.766-3.309,1.096-5.257
		c1.43-7.755,2.47-18.271,3.058-28.815c1.205-21.1,0.687-42.23,0.687-42.23c-0.037-1.382,1.086-2.533,2.463-2.569
		c1.387-0.034,2.592,1.064,2.592,2.442C109.604,108.061,109.604,108.104,109.605,108.134L109.605,108.134z M100.605,107.858
		c0,0-0.868,21.306-2.935,42.501c-1.018,10.6-2.748,21.17-4.52,29c-0.414,1.955-0.984,3.742-1.468,5.313
		c-0.467,1.57-0.848,2.95-1.324,4.051c-0.844,2.205-1.356,3.461-1.356,3.461c-0.157,0.418-0.644,0.631-1.052,0.469
		c-0.404-0.155-0.62-0.601-0.484-1.006l0.03-0.08c0,0,0.41-1.229,1.14-3.399c0.41-1.05,0.66-2.43,1.06-3.97
		c0.41-1.54,0.77-3.311,1.09-5.26c1.44-7.75,2.47-18.271,3.06-28.811c1.21-21.1,0.69-42.23,0.69-42.23
		c-0.03-1.39,1.59-2.529,2.98-2.569c1.39-0.04,3.11,1.06,3.11,2.439v0.11L100.605,107.858z M87.605,107.591
		c0,0,0.624,21.306-1.44,42.503c-1.02,10.592-2.01,21.164-3.784,28.99c-0.406,1.962-0.606,3.747-1.09,5.318
		c-0.47,1.564-0.66,2.953-1.135,4.046c-0.84,2.21-1.26,3.467-1.26,3.467c-0.15,0.41-0.59,0.62-1,0.46c-0.4-0.15-0.59-0.6-0.46-1
		l0.05-0.09c0,0,0.41-1.24,1.14-3.4c0.41-1.05,0.67-2.439,1.06-3.979c0.42-1.54,0.77-3.31,1.1-5.261
		c1.44-7.76,2.47-18.279,3.06-28.819c1.2-21.101,0.68-42.23,0.68-42.23c-0.03-1.39,0.11-2.54,1.49-2.57
		c1.39-0.029,1.62,1.061,1.62,2.44v0.11L87.605,107.591z M74.405,106.576c0,0,1.25,5.217,2.39,13.02
		c1.14,7.828,2.144,18.348,2.037,28.9c-0.104,5.271-0.42,10.543-1.058,15.453c-0.41,2.441-0.62,4.826-1.14,7.037
		c-0.52,2.221-0.9,4.33-1.44,6.24c-0.58,1.891-1.12,3.631-1.58,5.17c-0.46,1.541-1.12,2.811-1.53,3.891l-1.39,3.35
		c-0.17,0.41-0.64,0.61-1.06,0.44c-0.4-0.16-0.6-0.61-0.45-1.011l0.03-0.079c0,0,0.44-1.21,1.22-3.32
		c0.35-1.069,0.94-2.31,1.32-3.84c0.39-1.521,0.84-3.229,1.34-5.09c0.44-1.88,0.73-3.96,1.14-6.13c0.42-2.17,0.53-4.521,0.83-6.91
		c0.43-4.811,0.53-9.98,0.42-15.141c-0.32-10.319-1.72-20.58-3.14-28.18c-1.44-7.63-2.83-12.521-2.83-12.521
		c-0.38-1.33,0.4-2.72,1.73-3.1c1.33-0.38,2.71,0.39,3.09,1.73c0.01,0.039,0.02,0.069,0.02,0.1l0.01,0.04L74.405,106.576z"/>
	<path fill="#FAC283" d="M128.537,96.546c0,0-12.392-7.122-4.052-7.214c8.346-0.045,35.541,3.094,46.667,2.667
		c11.124-0.54,22.527-0.958,32.333,0.667c8.34-0.66,14.044,0.803,14.044,0.803c10.106-0.99,19.103,6.42,20.09,16.533
		c0.99,10.109-6.405,19.12-16.513,20.107c-1.189,0.113-2.46,0.111-3.609,0c0,0-31.561,1.721-42.681,1.158
		c-11.12-0.447-25.57,1.725-33.91,1.664c-8.34-0.11-12.399-6.773-12.399-6.773c-7.96,0.18-14.561-6.511-14.741-14.48
		c-0.18-7.97,6.13-15.13,14.1-15.13h0.68L128.537,96.546z"/>
	<path fill="#FAC283" d="M165.507,127.259c0,0-21.381,3.847-34.184,10.87l-2.803-22.173l40.117-2.502L165.507,127.259
		L165.507,127.259z"/>
	<path fill="#E2AB74" d="M139.652,90.166c0,0-26.667-15.25-42.167-14.5c0,0,16.75-5.5,25.25-1.75s17.084,9.708,17.084,9.708
		L139.652,90.166z"/>
	<path fill="#E2AB74" d="M176.735,100.416c0,0-13.25,16.5-1.25,27h8.75c0,0-7.25-11.75-1-26.75
		C183.235,100.666,181.985,96.666,176.735,100.416z"/>
	<path fill="#E2AB74" d="M227.985,104.916c0,0-4.75-8.75-15.5-3.5s-6.035,24.506,4.607,23.753"/>
	<path fill="#FFFFFF" d="M218.919,101.775c0,0,9.449-0.909,10.283,6.096c0.838,7.004-0.83,17.563-12.109,17.298
		c0,0-4.601,0.149-4.601-3.19c0-3.345,2.396-13.39,2.095-16.634c-0.33-3.65,4.34-3.57,4.34-3.57L218.919,101.775z"/>
	<path fill="#333333" d="M87.147,53.004c0.72,0,1.424,0.015,2.107,0.043c4.396,0.176,8.073,0.872,10.976,1.655
		c2.076-0.421,7.198-1.323,12.952-1.323c7.935,0,17.069,1.718,21.053,8.787c6.296,11.171,5.827,23.331,5.43,27.501l-0.013,0.499
		c0,0-0.024-0.015-0.036-0.021c-0.004,0.033-0.007,0.062-0.011,0.094c9.942,0.786,21.823,1.8,29.232,1.8
		c0.83,0,1.605-0.013,2.314-0.04c5.234-0.254,10.529-0.481,15.692-0.48c5.809,0,11.449,0.287,16.641,1.147
		c1.536-0.122,2.981-0.171,4.319-0.171c5.927,0,9.725,0.974,9.725,0.974c0.608-0.06,1.211-0.089,1.81-0.089
		c9.35,0,17.353,7.117,18.28,16.622c0.99,10.109-6.405,19.12-16.513,20.107c-0.592,0.057-1.204,0.084-1.812,0.084
		c-0.613,0-1.221-0.028-1.798-0.084c0,0-23.316,1.271-36.928,1.271c-2.225,0-4.191-0.034-5.753-0.113
		c-1.042-0.042-2.111-0.061-3.204-0.061c-9.324,0-20.207,1.382-27.832,1.67c-0.9,0.303-1.801,0.619-2.695,0.945
		c-0.486,0.396-1.011,0.767-1.6,1.094c0,0,11.431,6.877,11.667,17.084c0.099,4.197-2.354,8.385-6.034,11.956
		c-5.072,5.136-12.862,8.94-19.465,9.771c0,0,15.582,14.439-4.398,26.3c-1.75,0.69-4.9,1.46-9.02,2.14
		c-3.283,0.538-7.264,0.83-11.716,0.83c-22.177,0-55.976-7.255-72.683-27.459c-21.542-26.051-0.661-62.979,4.305-70.951
		c0.384-1.058,0.8-2.154,1.253-3.289c1.65-4.271,3.75-9.04,6.21-14.1c1.21-2.551,2.58-5.101,4.12-7.86c0.35-0.64,0.8-1.39,1.41-2.34
		l0.77-1.181l0.29-0.449l0.15-0.221l0.07-0.109l0.29-0.391l0.05-0.069c1.03-1.601,2.18-3.141,3.45-4.63
		c4.98-6.051,12.02-10.98,19.17-13.671C75.674,53.805,81.873,53.004,87.147,53.004 M87.147,45.004L87.147,45.004
		c-7.245,0-14.189,1.28-20.642,3.805c-8.52,3.216-16.689,9.043-22.433,16c-1.431,1.683-2.745,3.439-3.907,5.226l-0.171,0.229
		l-0.167,0.226l-0.152,0.236l-0.008,0.014l-0.086,0.126l-0.056,0.082l-0.054,0.083l-0.29,0.45l-0.748,1.145l-0.016,0.025
		l-0.017,0.025c-0.694,1.081-1.228,1.969-1.678,2.788c-1.347,2.417-2.913,5.285-4.331,8.27c-2.545,5.237-4.713,10.161-6.445,14.638
		c-0.352,0.883-0.7,1.789-1.04,2.703c-3.031,4.975-9.418,16.543-12.651,30.389c-4.501,19.279-1.246,36.282,9.414,49.173
		c8.468,10.24,21.599,18.475,37.975,23.813c12.763,4.161,27.66,6.547,40.873,6.547c4.846,0,9.224-0.314,13.011-0.936
		c3.211-0.529,7.66-1.408,10.662-2.593l0.596-0.235l0.551-0.327c10.575-6.277,13.443-13.703,13.988-18.828
		c0.384-3.612-0.246-6.913-1.306-9.756c4.765-2.166,9.258-5.186,12.73-8.685c5.64-5.498,8.543-11.659,8.398-17.824
		c-0.104-4.494-1.544-8.43-3.513-11.739c5.406-0.438,10.952-0.866,15.975-0.866c1.002,0,1.958,0.018,2.844,0.053
		c1.61,0.08,3.666,0.121,6.113,0.121c12.671,0,33.121-1.058,36.813-1.254c0.627,0.044,1.267,0.066,1.912,0.066
		c0.867,0,1.732-0.04,2.57-0.12c7.035-0.688,13.365-4.067,17.842-9.52c4.476-5.45,6.562-12.316,5.874-19.332
		c-1.327-13.591-12.608-23.842-26.242-23.842c-0.412,0-0.827,0.01-1.243,0.029c-1.896-0.366-5.529-0.914-10.291-0.914
		c-1.315,0-2.647,0.042-3.972,0.126c-4.872-0.742-10.442-1.103-16.988-1.103c-5.496-0.001-11.159,0.251-16.04,0.488
		c-0.579,0.021-1.241,0.032-1.967,0.032c-5.298,0-13.277-0.566-21.009-1.172c-0.246-6.672-1.672-15.842-6.624-24.629
		c-3.307-5.866-10.852-12.858-28.023-12.859c-5.098,0-9.694,0.611-12.706,1.138c-3.528-0.823-7.187-1.315-10.902-1.464
		C88.773,45.021,87.955,45.004,87.147,45.004L87.147,45.004z"/>
</g>
</svg>
