<svg xmlns="http://www.w3.org/2000/svg" width="256" height="256" viewBox="0 0 256 256"><path fill="#FAC283" d="M159.78 200.918s-27.25 6.5-35-7.25-5.25-29-5.25-29"/><path fill="#D39D6C" d="M119.694 151.75s-8.563 44.953 43.296 49.275c0 0 22-24.582 21.73-37.72-.27-13.14-41.41-21.563-41.41-21.563l-23.61 10.01h-.006z"/><path fill="#FAC283" d="M161.405 169.285c.17.057-.16-.12.324-.08.36-.025.99.02 1.82.063 1.67.092 4.17.235 6.96.226 2.81-.023 5.83-.267 8.81-.832 2.98-.615 5.94-1.658 9.07-3.584.79-.47 1.51-1.066 2.33-1.61l.04-.027.02-.01c.06-.07-.46.57-.23.29l.09-.1.19-.2.36-.39.48-.53c.21-.2.56-.6.98-1.13 1.57-1.9 3.11-4.03 4.65-6.04 3.06-4.06 5.8-7.99 8.11-11.29 2.27-3.32 4.06-6.04 5.13-7.79l1.46-2.4 1.08-1.78c2.69-4.44 8.48-5.86 12.93-3.17 3.46 2.1 5.08 6.08 4.36 9.83l-.27 1.39c-.18.97-.46 2.13-.84 3.59-.78 2.85-1.98 6.6-3.67 10.83-1.65 4.27-3.75 9.04-6.21 14.1-1.21 2.55-2.58 5.1-4.12 7.86-.35.64-.8 1.39-1.41 2.34l-.77 1.18-.29.45-.15.22-.07.11-.29.39-.05.07c-1.03 1.6-2.18 3.14-3.45 4.63-4.98 6.05-12.02 10.98-19.17 13.67-7.16 2.81-14.19 3.46-19.88 3.23-5.75-.23-10.28-1.35-13.44-2.39-1.59-.52-2.84-1.02-3.75-1.43-.79-.36-8.97-2.37-8.8-2.31-8.01-2.91-4.96-10.17-2.06-18.17 2.91-8.01 11.76-12.15 19.76-9.25l-.06.05zm36.56-4.012l-13.082 20.182s-18.19-26.623-46.832-18.084c0 0-20.03-1.16-21.81-21.37 0 0-7.73-18.95 3.3-25.07 0 0-10.76-7.54-11-17.75-.24-10.2 13.93-19.69 24.84-21.06 0 0-15.58-14.44 4.4-26.3 1.75-.69 4.9-1.46 9.02-2.14 19.64-3.22 64.34 2.37 84.4 26.63 24.27 29.35-5.31 72.51-5.31 72.51l-27.91 12.46.01.01z"/><path fill="#E2AB74" d="M136.51 122.203s15.89 1.222 24.73.202c0 0-12.562-19.3-24.73-.202zM146.727 83.5s19.665 2.8 28.407 4.46c0 0-11.027-19.13-28.407-4.46zm12.396-4.517s50.945-1.904 65.078 4.394c5.99 2.667 3.45 11.374 3.45 11.374l-52.51-6.79s-12.31-7.56-16.01-8.97zm-7.75 37.514s47.03-2.73 61.854 1.68c6.84 2.035 3.455 11.376 3.455 11.376l-62.02-7.324c-.002 0 .4-4.32-3.29-5.74z"/><path fill="#A67C52" d="M144.41 147.563s-.65-21.307 1.422-42.5c1.006-10.597 1.992-21.164 3.763-28.99.415-1.965.605-3.747 1.09-5.315.47-1.57.657-2.96 1.137-4.05.842-2.21 1.26-3.47 1.26-3.47.154-.42.59-.63 1-.47.414.15.6.59.466 1l-.04.09s-.416 1.23-1.142 3.39c-.412 1.05-.67 2.44-1.063 3.98-.413 1.54-.77 3.31-1.093 5.25-1.434 7.75-2.47 18.27-3.06 28.81-1.205 21.1-.685 42.23-.685 42.23.035 1.38-.09 2.53-1.47 2.56-1.376.03-1.585-1.06-1.585-2.44v-.11.035zm5 .138s.353-21.3 2.42-42.5c1.02-10.59 2.502-21.16 4.277-28.99.4-1.96.848-3.75 1.332-5.31.46-1.56.78-2.95 1.26-4.04l1.32-3.46c.15-.42.62-.62 1.04-.46.4.15.61.6.48 1l-.04.1-1.14 3.4c-.41 1.05-.66 2.44-1.07 3.98-.41 1.54-.77 3.31-1.1 5.26-1.43 7.76-2.47 18.27-3.06 28.82-1.21 21.1-.69 42.23-.69 42.23.03 1.38-1.09 2.54-2.47 2.57-1.39.04-2.59-1.06-2.59-2.44v-.11zm9 .28s.867-21.3 2.934-42.5c1.02-10.6 2.748-21.17 4.52-29 .415-1.95.984-3.74 1.47-5.31.466-1.57.847-2.95 1.323-4.05.844-2.2 1.355-3.46 1.355-3.46.157-.41.645-.63 1.053-.47.403.16.62.6.483 1.01l-.03.08s-.41 1.23-1.14 3.4c-.41 1.05-.66 2.43-1.06 3.97-.41 1.54-.77 3.31-1.09 5.26-1.44 7.75-2.47 18.27-3.06 28.81-1.21 21.1-.69 42.23-.69 42.23.03 1.39-1.59 2.53-2.98 2.57s-3.11-1.06-3.11-2.44v-.11l.02.02zm13 .27s-.625-21.3 1.438-42.5c1.02-10.59 2.01-21.16 3.784-28.99.406-1.96.606-3.74 1.09-5.31.47-1.56.66-2.95 1.136-4.04.84-2.21 1.26-3.46 1.26-3.46.15-.41.59-.62 1-.46.4.15.59.6.46 1l-.05.09s-.41 1.24-1.14 3.4c-.41 1.05-.67 2.44-1.06 3.98-.42 1.54-.772 3.31-1.1 5.26-1.44 7.76-2.472 18.28-3.062 28.82-1.2 21.1-.68 42.23-.68 42.23.03 1.39-.11 2.54-1.49 2.57-1.39.03-1.62-1.06-1.62-2.44v-.11l.033-.01zm13.2 1.02s-1.25-5.21-2.392-13.02c-1.14-7.83-2.144-18.35-2.037-28.9.11-5.27.42-10.54 1.06-15.45.41-2.44.62-4.82 1.14-7.03.52-2.22.9-4.33 1.44-6.24.58-1.89 1.12-3.63 1.58-5.17.46-1.54 1.12-2.81 1.53-3.89l1.39-3.35c.17-.41.64-.61 1.06-.44.4.16.6.61.45 1.01l-.03.08s-.44 1.21-1.22 3.32c-.35 1.07-.94 2.31-1.32 3.84-.39 1.52-.84 3.23-1.34 5.09-.44 1.88-.73 3.96-1.14 6.13-.42 2.17-.53 4.52-.83 6.91-.43 4.81-.53 9.98-.42 15.14.32 10.32 1.72 20.58 3.14 28.18 1.44 7.63 2.83 12.52 2.83 12.52.38 1.33-.4 2.72-1.73 3.1-1.33.38-2.71-.39-3.09-1.73-.01-.04-.02-.07-.02-.1l-.01-.04-.04.05z"/><path fill="#FAC283" d="M130.478 159.29s-2.03.33-10.37.42c-8.347.046-22.45-.046-33.577.38-11.12.54-22.79.47-31.14 1.12-8.34.66-13.9 1.155-13.9 1.155-10.1.99-19.1-6.42-20.09-16.533-.99-10.11 6.41-19.12 16.52-20.107 1.19-.113 2.46-.11 3.61 0 0 0 31.56-1.72 42.68-1.158 11.12.447 25.57-1.725 33.91-1.664 8.34.11 12.4 6.774 12.4 6.774 7.96-.18 14.56 6.51 14.74 14.48.18 7.97-6.13 15.13-14.1 15.13h-.68l.01.002z"/><path fill="#fff" d="M40.095 154.06s-9.45.91-10.283-6.097c-.838-7.004.83-17.563 12.11-17.297 0 0 4.6-.15 4.6 3.19 0 3.345-2.396 13.39-2.095 16.633.33 3.65-4.34 3.57-4.34 3.57h.008z"/><path fill="#FAC283" d="M93.507 128.576s21.38-3.847 34.184-10.87l2.81 22.172-40.12 2.502 3.13-13.804zm26.187 23.174s-8.563 44.953 43.296 49.275c0 0 22-24.582 21.73-37.72-.27-13.14-41.41-21.563-41.41-21.563l-23.61 10.01h-.006zm41.71 17.535c.17.057-.16-.12.325-.08.36-.025.99.02 1.82.063 1.67.092 4.17.235 6.96.226 2.81-.023 5.83-.267 8.81-.832 2.98-.615 5.94-1.658 9.07-3.584.79-.47 1.51-1.066 2.33-1.61l.04-.027.02-.01c.06-.07-.46.57-.23.29l.09-.1.19-.2.36-.39.48-.53c.21-.2.56-.6.98-1.13 1.57-1.9 3.11-4.03 4.65-6.04 3.06-4.06 5.8-7.99 8.11-11.29 2.27-3.32 4.06-6.04 5.13-7.79l1.46-2.4 1.08-1.78c2.69-4.44 8.48-5.86 12.93-3.17 3.46 2.1 5.08 6.08 4.36 9.83l-.27 1.39c-.18.97-.46 2.13-.84 3.59-.78 2.85-1.98 6.6-3.67 10.83-1.65 4.27-3.75 9.04-6.21 14.1-1.21 2.55-2.58 5.1-4.12 7.86-.35.64-.8 1.39-1.41 2.34l-.77 1.18-.29.45-.15.22-.07.11-.29.39-.05.07c-1.03 1.6-2.18 3.14-3.45 4.63-4.98 6.05-12.02 10.98-19.17 13.67-7.16 2.81-14.19 3.46-19.88 3.23-5.75-.23-10.28-1.35-13.44-2.39-1.59-.52-2.84-1.02-3.75-1.43-.79-.36-8.97-2.37-8.8-2.31-8.01-2.91-4.96-10.17-2.06-18.17 2.91-8.01 11.76-12.15 19.76-9.25l-.06.05zm36.56-4.012l-13.08 20.182s-18.19-26.623-46.833-18.084c0 0-20.03-1.16-21.81-21.37 0 0-7.73-18.95 3.3-25.07 0 0-11.43-6.87-11.66-17.08-.24-10.2 14.59-20.35 25.5-21.72 0 0-15.58-14.44 4.4-26.3 1.75-.69 4.9-1.46 9.02-2.14 19.64-3.22 64.34 2.37 84.4 26.63 24.27 29.35-5.31 72.51-5.31 72.51l-27.91 12.46.01.01z"/><path fill="#E2AB74" d="M127.508 121.87s15.89 1.222 24.733.202c0 0-12.56-19.3-24.73-.202zm10.22-38.704s19.665 2.802 28.407 4.462c0 0-11.027-19.13-28.407-4.462zm12.396-4.516s50.945-1.904 65.078 4.394c5.983 2.667 3.45 11.374 3.45 11.374l-52.518-6.79s-12.315-7.56-16.01-8.978zm-7.75 37.514s47.03-2.73 61.854 1.68c6.84 2.035 3.455 11.376 3.455 11.376l-62.02-7.324c-.002 0 .4-4.313-3.29-5.732z"/><path fill="#A67C52" d="M144.41 147.563s-.65-21.307 1.422-42.5c1.006-10.597 1.992-21.164 3.763-28.99.415-1.965.605-3.747 1.09-5.315.47-1.57.657-2.96 1.137-4.05.842-2.21 1.26-3.47 1.26-3.47.154-.42.59-.63 1-.47.414.15.6.59.466 1l-.04.09s-.416 1.23-1.142 3.39c-.412 1.05-.67 2.44-1.063 3.98-.413 1.54-.77 3.31-1.093 5.25-1.434 7.75-2.47 18.27-3.06 28.81-1.205 21.1-.685 42.23-.685 42.23.035 1.38-.09 2.53-1.47 2.56-1.376.03-1.585-1.06-1.585-2.44v-.11.035zm5 .138s.353-21.3 2.42-42.5c1.02-10.59 2.502-21.16 4.277-28.99.4-1.96.848-3.75 1.332-5.31.46-1.56.78-2.95 1.26-4.04l1.32-3.46c.15-.42.62-.62 1.04-.46.4.15.61.6.48 1l-.04.1-1.14 3.4c-.41 1.05-.66 2.44-1.07 3.98-.41 1.54-.77 3.31-1.1 5.26-1.43 7.76-2.47 18.27-3.06 28.82-1.21 21.1-.69 42.23-.69 42.23.03 1.38-1.09 2.54-2.47 2.57-1.39.04-2.59-1.06-2.59-2.44v-.11zm9 .28s.867-21.3 2.934-42.5c1.02-10.6 2.748-21.17 4.52-29 .415-1.95.984-3.74 1.47-5.31.466-1.57.847-2.95 1.323-4.05.844-2.2 1.355-3.46 1.355-3.46.157-.41.645-.63 1.053-.47.403.16.62.6.483 1.01l-.03.08s-.41 1.23-1.14 3.4c-.41 1.05-.66 2.43-1.06 3.97-.41 1.54-.77 3.31-1.09 5.26-1.44 7.75-2.47 18.27-3.06 28.81-1.21 21.1-.69 42.23-.69 42.23.03 1.39-1.59 2.53-2.98 2.57s-3.11-1.06-3.11-2.44v-.11l.02.02zm13 .27s-.625-21.3 1.438-42.5c1.02-10.59 2.01-21.16 3.784-28.99.406-1.96.606-3.74 1.09-5.31.47-1.56.66-2.95 1.136-4.04.84-2.21 1.26-3.46 1.26-3.46.15-.41.59-.62 1-.46.4.15.59.6.46 1l-.05.09s-.41 1.24-1.14 3.4c-.41 1.05-.67 2.44-1.06 3.98-.42 1.54-.772 3.31-1.1 5.26-1.44 7.76-2.472 18.28-3.062 28.82-1.2 21.1-.68 42.23-.68 42.23.03 1.39-.11 2.54-1.49 2.57-1.39.03-1.62-1.06-1.62-2.44v-.11l.033-.01zm13.2 1.02s-1.25-5.21-2.392-13.02c-1.14-7.83-2.144-18.35-2.037-28.9.11-5.27.42-10.54 1.06-15.45.41-2.44.62-4.82 1.14-7.03.52-2.22.9-4.33 1.44-6.24.58-1.89 1.12-3.63 1.58-5.17.46-1.54 1.12-2.81 1.53-3.89l1.39-3.35c.17-.41.64-.61 1.06-.44.4.16.6.61.45 1.01l-.03.08s-.44 1.21-1.22 3.32c-.35 1.07-.94 2.31-1.32 3.84-.39 1.52-.84 3.23-1.34 5.09-.44 1.88-.73 3.96-1.14 6.13-.42 2.17-.53 4.52-.83 6.91-.43 4.81-.53 9.98-.42 15.14.32 10.32 1.72 20.58 3.14 28.18 1.44 7.63 2.83 12.52 2.83 12.52.38 1.33-.4 2.72-1.73 3.1-1.33.38-2.71-.39-3.09-1.73-.01-.04-.02-.07-.02-.1l-.01-.04-.04.05z"/><path fill="#FAC283" d="M130.478 159.29s12.392 7.12 4.052 7.212c-8.346.045-35.542-3.094-46.667-2.667-11.124.54-22.527.958-32.333-.667-8.34.66-14.044-.803-14.044-.803-10.106.99-19.103-6.42-20.09-16.533-.99-10.11 6.405-19.12 16.513-20.107 1.18-.113 2.46-.11 3.6 0 0 0 31.56-1.72 42.68-1.158 11.12.447 25.57-1.725 33.91-1.664 8.34.11 12.4 6.774 12.4 6.774 7.96-.18 14.56 6.51 14.74 14.48.18 7.97-6.13 15.13-14.1 15.13h-.68l.01.002zm-36.97-30.714s21.38-3.847 34.183-10.87l2.81 22.172-40.12 2.502 3.13-13.804z"/><path fill="#E2AB74" d="M119.362 165.668s26.667 15.25 42.167 14.5c0 0-16.75 5.5-25.25 1.75s-17.09-9.708-17.09-9.708l.16-6.542zM82.28 155.42s13.25-16.5 1.25-27h-8.75s7.25 11.75 1 26.75c0 0 1.25 3.998 6.5.25zm-51.25-4.502s4.75 8.75 15.5 3.5 6.034-24.506-4.608-23.752"/><path fill="#fff" d="M40.095 154.06s-9.45.91-10.283-6.097c-.838-7.004.83-17.563 12.11-17.297 0 0 4.6-.15 4.6 3.19 0 3.345-2.396 13.39-2.095 16.633.33 3.65-4.34 3.57-4.34 3.57h.008z"/><path fill="#333" d="M171.867 202.83c-.72 0-1.424-.015-2.107-.043-4.396-.176-8.073-.872-10.976-1.655-2.076.42-7.198 1.323-12.952 1.323-7.935 0-17.068-1.718-21.053-8.787-6.3-11.17-5.83-23.33-5.43-27.5l.01-.5s.02.015.03.02l.01-.093c-9.94-.787-21.82-1.8-29.23-1.8-.83 0-1.61.012-2.32.04-5.24.254-10.53.48-15.69.48-5.81 0-11.45-.288-16.64-1.148-1.54.122-2.98.17-4.32.17-5.93 0-9.73-.973-9.73-.973-.61.06-1.21.09-1.81.09-9.35 0-17.36-7.118-18.28-16.623-.99-10.1 6.4-19.12 16.51-20.1.59-.05 1.2-.08 1.81-.08.61 0 1.22.03 1.8.09 0 0 23.31-1.27 36.92-1.27 2.22 0 4.19.04 5.75.11 1.04.04 2.11.06 3.2.06 9.32 0 20.2-1.38 27.83-1.67.9-.3 1.8-.62 2.69-.94.48-.39 1.01-.76 1.6-1.09 0 0-11.43-6.87-11.67-17.08-.1-4.2 2.35-8.38 6.03-11.96 5.07-5.13 12.86-8.94 19.46-9.77 0 0-15.58-14.44 4.4-26.3 1.75-.69 4.9-1.46 9.02-2.14 3.28-.54 7.26-.83 11.71-.83 22.18 0 55.98 7.26 72.68 27.46 21.54 26.05.66 62.98-4.31 70.95-.39 1.06-.8 2.15-1.25 3.29-1.65 4.27-3.75 9.04-6.21 14.1-1.21 2.55-2.58 5.1-4.12 7.86-.35.64-.8 1.39-1.41 2.34l-.77 1.18-.29.45-.15.22-.07.11-.29.39-.05.07c-1.03 1.6-2.18 3.14-3.45 4.63-4.98 6.05-12.02 10.98-19.17 13.67-6.3 2.47-12.5 3.27-17.78 3.27m0 8c7.24 0 14.19-1.28 20.64-3.8 8.52-3.21 16.69-9.04 22.43-16 1.43-1.68 2.75-3.44 3.91-5.22l.17-.23.17-.22.15-.24.01-.01.08-.13.05-.08.05-.08.29-.45.75-1.15.02-.02.02-.02c.69-1.08 1.22-1.97 1.67-2.79 1.35-2.41 2.91-5.28 4.33-8.27 2.55-5.23 4.71-10.16 6.45-14.63.35-.89.7-1.79 1.04-2.71 3.03-4.97 9.42-16.54 12.65-30.39 4.5-19.28 1.25-36.28-9.41-49.17-8.47-10.24-21.6-18.48-37.98-23.81-12.76-4.16-27.66-6.54-40.87-6.54-4.85 0-9.23.31-13.01.94-3.21.53-7.66 1.41-10.66 2.59l-.6.23-.55.33c-10.58 6.28-13.45 13.7-13.99 18.83-.39 3.61.24 6.91 1.3 9.76-4.77 2.17-9.26 5.19-12.73 8.69-5.64 5.5-8.54 11.66-8.4 17.82.1 4.5 1.54 8.43 3.51 11.74-5.41.44-10.96.87-15.98.87-1 0-1.95-.02-2.84-.05-1.61-.08-3.66-.12-6.11-.12-12.67 0-33.12 1.06-36.81 1.26-.63-.05-1.27-.07-1.91-.07-.87 0-1.73.04-2.57.12-7.04.69-13.37 4.07-17.84 9.52-4.48 5.45-6.57 12.32-5.88 19.34C14.72 160.25 26 170.5 39.63 170.5c.41 0 .83-.01 1.24-.03 1.9.363 5.53.91 10.29.91 1.32 0 2.65-.04 3.97-.124 4.88.74 10.45 1.103 16.99 1.103 5.5 0 11.16-.25 16.04-.49.58-.02 1.24-.04 1.97-.04 5.3 0 13.28.56 21.01 1.17.25 6.67 1.67 15.84 6.627 24.63 3.31 5.86 10.85 12.86 28.02 12.86 5.1 0 9.693-.61 12.71-1.14 3.52.82 7.18 1.31 10.9 1.46.8.03 1.62.05 2.42.05z"/></svg>