<?xml version="1.0" encoding="utf-8"?>
<!-- Generator: Adobe Illustrator 16.0.0, SVG Export Plug-In . SVG Version: 6.00 Build 0)  -->
<!DOCTYPE svg PUBLIC "-//W3C//DTD SVG 1.1//EN" "http://www.w3.org/Graphics/SVG/1.1/DTD/svg11.dtd">
<svg version="1.1" id="Layer_1" xmlns="http://www.w3.org/2000/svg" xmlns:xlink="http://www.w3.org/1999/xlink" x="0px" y="0px"
	 width="256px" height="256px" viewBox="0 0 256 256" enable-background="new 0 0 256 256" xml:space="preserve">
<path fill="#FFFFFF" d="M116.995,208.614c-12.128,0-30.522-3.337-49.274-19.234c-21.93-18.597-38.91-49.745-50.47-92.58
	c-0.28-1.044-0.13-2.158,0.43-3.087c0.56-0.93,1.46-1.596,2.51-1.846l0.06-0.015c38.16-32.567,79.31-43.862,81.05-44.33
	c0.34-0.092,0.69-0.137,1.04-0.137c0.83,0,1.64,0.255,2.32,0.743l23.81,16.977l21.39-16.943c0.72-0.57,1.6-0.864,2.49-0.864
	c0.34,0,0.68,0.043,1.02,0.13c0.189-0.027,0.39-0.042,0.59-0.042c0.34,0,0.689,0.044,1.03,0.135c1.77,0.48,43.899,11.97,82.35,45.22
	c1.29,1.12,1.729,2.93,1.091,4.52c-0.511,1.28-1.631,2.18-2.94,2.44c-0.32,1.34-0.63,2.65-0.931,3.95
	c-0.83,3.57-1.609,6.94-2.729,10.34c-0.28,0.86-0.84,1.59-1.59,2.09c-27.181,80.46-70.271,92.56-93.69,92.56
	c-4.1,0-7.479-0.39-9.76-0.76c-2.27,0.38-5.63,0.77-9.75,0.77L116.995,208.614z"/>
<path fill="#333333" d="M152.302,43.239c-1.756,0-3.479,0.62-4.946,1.78L128.33,60.1l-21.36-15.23
	c-1.37-0.978-2.996-1.487-4.644-1.487c-0.692,0-1.39,0.09-2.072,0.273c-1.77,0.47-43.316,11.87-81.985,44.62
	c-1.68,0.63-3.11,1.82-4.04,3.39c-1.11,1.86-1.42,4.08-0.85,6.17c11.77,43.63,29.19,75.454,51.75,94.59
	c19.67,16.68,39.06,20.18,51.86,20.18c4,0,7.35-0.35,9.75-0.717c3.09,0.469,6.44,0.715,9.76,0.715c11.78,0,29.71-3.008,48.229-17.33
	c20.381-15.77,36.82-41.627,48.891-76.89c0.88-0.877,1.561-1.96,1.949-3.17c1.171-3.574,2.021-7.19,2.83-10.686
	c0.15-0.648,0.301-1.304,0.461-1.963c1.42-0.877,2.57-2.2,3.229-3.83c1.271-3.17,0.39-6.8-2.19-9.03
	c-39.14-33.85-82.129-45.575-83.939-46.058c-0.68-0.18-1.37-0.27-2.061-0.27h-0.18c-0.479-0.092-0.96-0.14-1.439-0.14
	L152.302,43.239z"/>
<path fill="#1A1A1A" d="M44.526,95.27c0,0,29.22-18.776,83.74-8.872c0,0,45.266-18.86,77.255,2.994
	c31.988,21.854-68.11,80.933-80.49,77.709c-12.38-3.224-83.59-30.018-80.5-71.833L44.526,95.27z"/>
<linearGradient id="SVGID_1_" gradientUnits="userSpaceOnUse" x1="-444.2739" y1="308.2354" x2="-438.086" y2="384.5558" gradientTransform="matrix(1 0 0 -1 564 491)">
	<stop  offset="0" style="stop-color:#C1272D"/>
	<stop  offset="0.654" style="stop-color:#B1222B"/>
	<stop  offset="1" style="stop-color:#A8202A"/>
</linearGradient>
<path fill="url(#SVGID_1_)" d="M190.438,85.884c0,0-7.817,53.944-62.817,55.336v-0.06c0,0.06-1.97,0.054-3,0.064
	c-1.027-0.012,3-0.006-3-0.064v0.06c-49-1.396-58.81-55.336-58.81-55.336L21.23,95.76c30.815,114.186,91.342,110.6,105.577,108.03
	c14.38,2.569,74.708,6.155,105.524-108.03l-41.89-9.876H190.438z"/>
<linearGradient id="SVGID_2_" gradientUnits="userSpaceOnUse" x1="-436.4805" y1="324.2119" x2="-437.2545" y2="406.2659" gradientTransform="matrix(1 0 0 -1 564 491)">
	<stop  offset="0" style="stop-color:#C1272D"/>
	<stop  offset="1" style="stop-color:#82272D"/>
</linearGradient>
<path fill="url(#SVGID_2_)" d="M190.438,85.884c0,0-7.817,53.944-62.817,55.336v-0.06c0,0.06-1.97,0.054-3,0.064
	c-1.027-0.012,3-0.006-3-0.064v0.06c-49-1.396-58.81-55.336-58.81-55.336L21.23,95.76c1.62,6.003,3.636,11.616,5.414,16.99
	c8.14-4.007,26.24-9.002,43.533,12.43c23.076,28.607,29.34,51.937,57.35,48.978c27.999,2.958,34.18-20.37,57.267-48.98
	c17.246-21.376,35.09-16.46,43.204-12.457c1.766-5.36,2.852-10.96,4.472-16.96l-42.032-9.87V85.884z"/>
<linearGradient id="SVGID_3_" gradientUnits="userSpaceOnUse" x1="-436.8057" y1="459.0918" x2="-435.7726" y2="397.1938" gradientTransform="matrix(1 0 0 -1 564 491)">
	<stop  offset="0" style="stop-color:#C1272D"/>
	<stop  offset="0.654" style="stop-color:#B1222B"/>
	<stop  offset="1" style="stop-color:#A8202A"/>
</linearGradient>
<path fill="url(#SVGID_3_)" d="M128.953,115.422c12.384-2.008,20.33-12.07,20.33-12.07c19.617-10.98,85.41-7.594,85.41-7.594
	c-38.193-33.03-80.766-44.373-80.766-44.373L128.4,69.912l-26.077-18.526c0,0-42.305,11.344-80.497,44.374
	c0,0,67.593-3.387,87.197,7.594c0,0,7.43,10.02,19.814,12.027"/>
<linearGradient id="SVGID_4_" gradientUnits="userSpaceOnUse" x1="-433.8125" y1="375.7695" x2="-433.8125" y2="375.7695" gradientTransform="matrix(1 0 0 -1 564 491)">
	<stop  offset="0" style="stop-color:#C1272D"/>
	<stop  offset="0.654" style="stop-color:#B1222B"/>
	<stop  offset="1" style="stop-color:#A8202A"/>
</linearGradient>
<path fill="url(#SVGID_4_)" d="M130.188,115.23"/>
<linearGradient id="SVGID_5_" gradientUnits="userSpaceOnUse" x1="-379.8047" y1="413.8838" x2="-455.0053" y2="382.0984" gradientTransform="matrix(1 0 0 -1 564 491)">
	<stop  offset="0" style="stop-color:#C1272D"/>
	<stop  offset="1" style="stop-color:#82272D"/>
</linearGradient>
<path fill="url(#SVGID_5_)" d="M152.827,50.923l-24.583,19.333l0.625,45.125c12-2,19.13-12.02,19.13-12.02
	c19.61-10.98,85.399-7.59,85.399-7.59c-38.199-33.03-80.58-44.83-80.58-44.83L152.827,50.923z"/>
<linearGradient id="SVGID_6_" gradientUnits="userSpaceOnUse" x1="-426.9194" y1="212.6162" x2="-436.9816" y2="326.3955" gradientTransform="matrix(1 0 0 -1 564 491)">
	<stop  offset="0" style="stop-color:#FFFFFF"/>
	<stop  offset="1" style="stop-color:#FFFFFF;stop-opacity:0"/>
</linearGradient>
<path fill="url(#SVGID_6_)" d="M80.627,157.939c5.37,6.543,12.953,12.639,20.766,17.021c7.91,4.47,16.665,7.24,25.52,8.008
	c8.862,0.538,17.79-1.053,25.928-4.802c8.16-3.707,15.521-9.3,21.86-15.952c2.6-2.739,6.939-2.848,9.68-0.239
	c2.75,2.609,2.86,6.939,0.24,9.68c-0.189,0.199-0.42,0.416-0.62,0.587c-8.021,6.569-16.75,12.53-26.59,16.51
	c-9.771,4.021-20.58,6.069-31.23,5.24c-10.66-0.55-20.94-3.81-30.3-8.39c-4.72-2.271-9.2-4.94-13.48-7.9
	c-4.4-2.971-8.31-6.01-12.54-9.95c-2.95-2.75-3.12-7.38-0.37-10.34c2.76-2.96,7.39-3.12,10.35-0.37c0.23,0.22,0.45,0.45,0.64,0.689
	l0.18,0.221L80.627,157.939z"/>
</svg>
