<svg xmlns="http://www.w3.org/2000/svg" width="256" height="256" viewBox="0 0 256 256"><path fill="#8C6239" d="M125.93 200.83c-8.684 0-16.066-11.405-16.622-21.218-.204-3.596.377-6.435 1.273-8.64-3.73 1.72-7.4 2.59-10.94 2.59-9.28 0-15.14-5.83-17.83-9.347-3.79 1.874-7.52 2.823-11.1 2.823-12.12 0-18.01-10.552-18.25-11-.21-.397-.36-.825-.43-1.27-.21-1.305-5.13-31.92-.78-49.736.04-.25.1-.5.18-.745l.03-.085c.66-2.476 1.5-4.63 2.49-6.41.17-.29.32-.563.48-.835 5.62-12.35 17.88-33.607 37.48-38.85.29-.08.6-.124.9-.134.04 0 4.24-.14 10.45-.225l.88-.222c.1-.024.2-.045.29-.062l6.41-1.13c1.7-.35 3.37-.493 4.99-.63.76-.065 1.53-.13 2.29-.22 1.9-.243 3.8-.256 5.63-.27.67-.003 1.34-.008 2.01-.025.3-.02.68-.03 1.05-.03 1.43 0 2.8.1 4.12.21.8.06 1.59.12 2.39.16.11 0 .22.01.32.02 2.62.32 4.98.63 7.31 1.1 3.19.64 6.42 1.54 9.6 2.69 6.12.77 10.17 1.78 12.72 3.17 9.54 5.15 36.47 27.52 36.44 42.42 1.03 4.49 7.92 35.43 6.77 51.87-1.19 16.82-12.64 34.22-29.74 34.22-3.03 0-6.16-.55-9.3-1.63-2.52-.87-5.17-1.31-7.85-1.31-5.24 0-10.77 1.59-17.37 5.02l-4.53 2.5-1.61.94c-4.2 2.46-7.23 4.23-10.03 4.24H126z"/><path fill="#333" d="M126.775 59.17c2.124 0 4.242.276 6.334.366 2.39.296 4.75.597 7 1.054 3.42.69 6.61 1.644 9.45 2.686 5.27.648 9.49 1.543 11.76 2.772 11.07 5.984 34.95 27.766 34.32 39.314 0 0 7.98 34.208 6.78 51.19-1.03 14.564-10.65 30.506-25.76 30.506-2.52 0-5.19-.443-8.01-1.41-3.13-1.077-6.19-1.53-9.16-1.53-7.15 0-13.75 2.63-19.26 5.5l-4.58 2.53c-4.37 2.527-7.74 4.676-9.72 4.684h-.03c-5.74 0-12.14-8.735-12.63-17.445-.49-8.664 4.57-11.482 4.64-11.52-1.45-1.636-2.35-3.113-2.74-3.804-.11-.024-.23-.053-.34-.083-1.84 2.048-3.44 2.063-3.44 2.063-4.48 2.55-8.41 3.52-11.79 3.52-10.77 0-16.03-9.827-16.03-9.827l-.06-.376-.15.002c-.14 0-.27-.004-.41-.01-.92.537-1.57.545-1.57.545-4.07 2.276-7.64 3.144-10.73 3.144-9.89 0-14.75-8.91-14.75-8.91s-5.12-31.37-.75-48.52h-.02l.07-.21c.56-2.13 1.26-4.04 2.15-5.63.18-.33.36-.63.54-.94 5-10.99 16.65-31.92 34.99-36.83 0 0 4.33-.14 10.84-.23l1.34-.33c2.05-.36 4.22-.74 6.47-1.14 2.23-.47 4.6-.53 6.98-.8 2.38-.3 4.83-.21 7.27-.27.31-.01.63-.02.94-.02m-2.05 2.46c-.66 0-1.32-.01-1.97-.01-1.08 0-2.15.02-3.21.1 4.25.05 8.68.14 13.02.32-2.04-.12-4.1-.42-6.18-.42-.2 0-.39.01-.59.01-.36 0-.72.01-1.07.01m2.05-10.46c-.41 0-.81.01-1.22.02-.62.02-1.25.02-1.87.03-1.84.02-3.93.03-6.1.3-.68.08-1.38.14-2.13.21-1.64.14-3.5.3-5.41.69l-6.34 1.11c-.2.03-.39.08-.58.13l-.42.11c-5.98.09-9.89.22-10.06.22-.61.02-1.21.11-1.8.27-21.09 5.64-34.06 27.86-40.01 40.88-.14.24-.28.48-.42.73-1.15 2.06-2.08 4.42-2.83 7.19-.14.4-.24.81-.31 1.22-4.47 18.63.54 49.84.76 51.17.15.89.44 1.75.87 2.54 2.65 4.86 10.21 13.09 21.77 13.09 3.27 0 6.6-.66 9.97-1.96 4.1 4.31 10.52 8.48 18.96 8.48 1.87 0 3.75-.2 5.66-.61-.05.93-.04 1.89.01 2.89.67 11.8 9.63 25 20.62 25h.06c3.87-.01 7.29-2.02 12.03-4.79l1.6-.93 4.41-2.44c5.99-3.1 10.91-4.55 15.48-4.55 2.27 0 4.41.36 6.55 1.09 3.56 1.23 7.13 1.85 10.61 1.85 9.45 0 18.16-4.59 24.52-12.94 5.22-6.85 8.58-15.96 9.21-25 1.16-16.56-5.45-46.82-6.77-52.63-.21-7.28-5.24-16.15-14.99-26.38-7.48-7.85-16.94-15.52-23.54-19.09-2.93-1.59-7.3-2.72-13.69-3.56-3.24-1.14-6.51-2.05-9.76-2.7-2.46-.5-4.9-.81-7.6-1.15-.21-.02-.43-.04-.64-.05-.7-.03-1.45-.09-2.25-.15-1.33-.11-2.85-.23-4.43-.23z"/><path fill="#FAC283" d="M117.948 167.864s-5.14 2.802-4.646 11.52c.494 8.727 6.92 17.478 12.66 17.446 5.74-.02 23.05-17.963 42.716-11.185 19.666 6.77 32.564-12.102 33.762-29.094 1.19-16.98-6.787-51.19-6.787-51.19l-39.043-3.87-38.662 66.38z"/><path fill="#E2AB74" d="M120.663 155.883s-5.998 21.825 2.275 23.696c8.27 1.87 13.67-1.54 35.968-3.44 22.297-1.91 26.824-7.28 29.424-18.73 2.596-11.45 7.322-52.05 7.322-52.05l-36.62-26.26-40.6 77.58 2.23-.81zm-65.477-50.286s12.59-36.9 37.736-43.625c0 0 57.343-1.913 68.404 4.075 11.068 5.984 34.953 27.766 34.326 39.314 0 0-18.896 4.44-21.85 19.67-2.954 15.23-118.616-19.43-118.616-19.43z"/><path fill="#8C6239" d="M158.344 77.847s-.938-.814-2.555-1.768c-1.52-1.12-4.19-2.28-7.24-3.78l-5.25-1.82c-1.83-.76-3.89-1.14-6.01-1.55-2.13-.4-4.31-.91-6.55-1.28-2.28-.13-4.59-.26-6.9-.4-2.32-.04-4.64-.5-6.92-.14-2.28.18-4.53.38-6.7.56-2.18.18-4.29.37-6.28.54-1.96.43-3.82.85-5.52 1.24C91.57 71 87 72.02 87 72.02l-.11.03c-.508.117-1.004-.202-1.115-.7-.114-.492.19-.985.68-1.11 0 0 4.603-1.163 11.51-2.9 1.73-.436 3.6-.912 5.583-1.404 2.03-.233 4.174-.476 6.39-.726 2.23-.243 4.52-.496 6.86-.75 2.327-.416 4.73-.02 7.12-.034l7.15.24c2.333.31 4.62.775 6.85 1.15 2.23.37 4.386.72 6.34 1.452l5.58 1.78c3.323 1.52 6.12 2.644 7.985 3.92 1.95 1.12 2.82 1.843 2.82 1.843l.13.12c.803.67.912 1.87.242 2.67-.67.81-1.866.92-2.67.25-.008 0-.02-.01-.027-.01zm2.476-4.95l-.613-.533c-.36-.326-1.02-.802-1.828-1.395-1.66-1.16-4.17-2.64-7.37-4.12-3.23-1.39-7.12-2.76-11.45-3.69-2.15-.47-4.43-.8-6.73-1.12-2.33-.12-4.68-.51-7.05-.44-2.37.03-4.74-.11-7.07.16-2.33.23-4.64.25-6.84.68-2.2.35-4.33.7-6.35 1.03-2 .46-3.88.91-5.62 1.32-3.51.72-6.29 1.86-8.31 2.41-2 .62-3.14.98-3.14.98l-.07.01c-.5.15-1.02-.12-1.17-.62-.16-.49.11-1.01.59-1.17 0 0 1.15-.37 3.16-1.04 2.04-.59 4.84-1.78 8.4-2.57 1.76-.44 3.67-.92 5.69-1.43 2.05-.36 4.22-.75 6.47-1.14 2.24-.48 4.61-.53 6.99-.81 2.38-.31 4.83-.21 7.27-.27 2.44-.11 4.87.24 7.28.34 2.39.29 4.75.59 7 1.05 4.51.9 8.61 2.27 12.03 3.69 6.8 2.92 10.68 6.4 10.68 6.4.61.55.66 1.5.11 2.11-.55.6-1.47.66-2.09.13l-.04-.03z"/><path fill="#FAC283" d="M70.262 91.002s-4.844-5.586-12.844 8.742c-8.004 14.328-1.46 54.38-1.46 54.38s8.362 15.344 25.468 5.77c0 0 4.016.008 6.387-8.427 2.365-8.424 5.05-65.21-17.55-60.465z"/><path fill="#E2AB74" d="M86.125 158.983s-9.236 2.94-10.404-7.605c-.6-5.487 2.99-49.038 9.32-54.587 6.32-5.55 1.09 62.2 1.09 62.2z"/><path fill="#FAC283" d="M99.458 89.792s-5.27-6.168-14.068 9.727c-8.79 15.89-1.78 60.21-1.78 60.21s9.09 16.97 27.817 6.31c0 0 4.387 0 7.006-9.35 2.605-9.34 5.74-72.24-18.975-66.91z"/><path fill="#E2AB74" d="M116.727 164.263s-7.074 0-8.043-7.55c-.502-3.903.617-59.72 8.918-62.81 8.3-3.097-.875 70.36-.875 70.36z"/><path fill="#FAC283" d="M133.28 85.604s-5.483-6.844-15.157 10.908c-9.674 17.757-3.146 67.133-3.146 67.133s9.322 18.87 29.455 6.905c0 0 4.67-.02 7.643-10.452 2.97-10.424 7.603-80.538-18.794-74.494z"/><path fill="#E2AB74" d="M152.12 171.88s-10.937-6.716-13.142-14.5c-2.217-7.79.953-56.423 9.525-62.697 8.586-6.283 11 13.02 11 13.02l-7.384 64.178z"/><path fill="#FAC283" d="M163.377 88.38s-5.27-6.166-14.064 9.728c-8.79 15.893-1.785 60.22-1.785 60.22s9.096 16.96 27.818 6.3c0 0 4.39 0 7.006-9.347 2.613-9.34 5.744-72.23-18.975-66.9zm-84.263-7.53s2.426-6.066 6.545-4.126c4.11 1.946-4.61 11.64-6.55 4.125zm23.344 1.067s4.225-10.572 11.4-7.184c7.18 3.387-8.027 20.28-11.4 7.184z"/><path fill="#fff" d="M128.467 196.133s-4.757-3.78-4.513-7.418c.244-3.638 8.732-6.54 12.123-5.575 0 0 3.146 6.996 4.316 6.403l-11.926 6.59z"/><path fill="#8C6239" d="M156.1 84.703s-4.105-2.307-10.992-4.66c-6.807-2.41-16.28-4.685-25.943-5.17-4.816-.352-9.67-.164-14.168.316-2.273.12-4.414.6-6.465.95-2.06.3-3.973.77-5.715 1.29-3.54.84-6.375 1.91-8.35 2.69l-3.125 1.17-.086.03c-.484.17-1.016-.07-1.2-.56-.177-.47.06-1 .522-1.19 0 0 1.148-.48 3.158-1.29 2.006-.86 4.883-2.04 8.488-3 1.78-.58 3.727-1.12 5.84-1.5 2.096-.42 4.295-.96 6.623-1.16 4.627-.62 9.625-.95 14.607-.73 9.992.23 19.84 2.31 26.976 4.61 7.137 2.2 11.717 4.6 11.717 4.6l.043.02c.99.52 1.375 1.74.852 2.73-.516.99-1.736 1.37-2.725.85l-.057-.03zM136.234 72.38s-.957.08-2.55-.28c-1.583-.45-3.948-.65-6.813-1.12-1.41-.306-2.99-.21-4.64-.386-1.66-.088-3.39-.35-5.21-.264-1.81.026-3.69.086-5.59.107-1.91-.058-3.83.26-5.75.525-1.92.256-3.84.52-5.74.77-1.89.257-3.67.922-5.43 1.342-1.76.472-3.45.93-5.07 1.367-1.64.34-3.04 1.1-4.39 1.65l-8.94 3.84-.12.06c-.47.21-1.01-.02-1.22-.49-.2-.47.02-1 .48-1.21l9.05-4.1c1.37-.58 2.8-1.38 4.48-1.76 1.64-.48 3.38-.98 5.17-1.49 1.81-.46 3.63-1.18 5.57-1.48 1.94-.29 3.91-.59 5.88-.89 1.97-.31 3.94-.65 5.92-.62 1.97-.07 3.9-.13 5.77-.2 1.87-.12 3.68.18 5.4.23 1.71.15 3.35.14 4.82.43 2.98.43 5.46.82 7.2 1.29 1.77.37 2.67.68 2.67.68l.13.05c.79.28 1.21.71.94 1.5s-1.14.5-1.93.5h-.02zm18.196 16c-.006 0-4.568-2.233-11.963-4.21-7.346-2.05-17.445-3.888-27.636-3.983-5.08-.127-10.18.195-14.9.823-2.37.202-4.63.73-6.77 1.13-2.16.366-4.16.874-5.99 1.428-3.71.94-6.68 2.052-8.76 2.875l-3.27 1.24-.08.02c-.48.185-1.02-.06-1.2-.54-.17-.48.07-1.014.54-1.196 0 0 1.21-.476 3.33-1.305 2.11-.863 5.14-2.046 8.91-3.046 1.86-.593 3.9-1.144 6.1-1.54 2.19-.436 4.49-1.01 6.92-1.25 4.82-.698 10.03-1.12 15.23-1.043 10.42-.022 20.76 1.66 28.3 3.677 7.55 1.92 12.42 4.076 12.41 4.076l.03.014c.71.31 1.03 1.272.71 1.987-.31.707-1.14.844-1.84.844h-.02z"/><path fill="#E2AB74" d="M142.286 157.715s19.666 11.332 40.333-1.334c0 0 4 5-2.34 8.67s-23.34 7.67-23.34 7.67l-11.33-14.33-3.34-.66z"/></svg>