<svg xmlns="http://www.w3.org/2000/svg" width="256" height="256" viewBox="0 0 256 256"><path fill="#8C6239" d="M102.62 221.848c-8 0-13.056-.467-14.43-.467h-.197c-2.165 0-9.71-.8-15.9-7.97-7.856-9.1-10.187-25-6.928-47 1.85-12.47 1.087-33.07.352-52.93-.82-22.17-1.67-45.12.96-58.89 3.718-19.46 12.773-22.38 17.84-22.38 4.873 0 8.85 2.66 10.947 5.15 8.29 9.84 14.132 23.6 20.317 38.16 11.74 27.64 25.04 58.96 59.38 78.26 4 2.25 17.07 10.59 17.31 23.53.18 9.69-7.12 18.98-21.25 27.61-22.58 13.8-49.39 16.82-68.39 16.82v.12z"/><path fill="#333" d="M84.316 36.195c3.266 0 6.224 1.75 7.89 3.727 22.945 27.237 26.604 86.883 80.788 117.333 9.68 5.438 30.773 23.082-3.85 44.24-22.407 13.694-49.646 16.11-66.08 16.11-8.96 0-14.708-.72-14.708-.72s-.127.01-.363.01c-3.186 0-26.035-1.67-18.872-50.022 3.97-26.765-3.6-85.965 1.29-111.564 2.82-14.75 8.75-19.12 13.91-19.12m0-8c-5.25 0-10.2 2.44-13.94 6.86-3.63 4.3-6.26 10.61-7.82 18.74-2.71 14.21-1.89 36.34-1.02 59.76.73 19.68 1.49 40.03-.31 52.13-3.44 23.2-.79 40.05 7.86 50.07 7.29 8.45 16.32 9.11 18.92 9.12 1.8.19 7.32.71 15.08.71 19.15 0 46.88-3 70.25-17.29 15.43-9.43 23.15-19.9 22.94-31.1-.27-15.07-14.87-24.44-19.34-26.95-33.14-18.63-46.16-49.28-57.65-76.33-6.3-14.85-12.26-28.88-20.94-39.18-3.41-4.06-8.78-6.57-14-6.57z"/><path fill="#fdb" d="M92.205 39.922c22.946 27.237 26.605 86.883 80.79 117.333 9.678 5.438 30.772 23.082-3.85 44.24-34.625 21.16-80.79 15.392-80.79 15.392s-26.928 1.922-19.234-50.014c3.97-26.765-3.6-85.965 1.29-111.564 4.6-24.08 17.5-20.49 21.8-15.39z"/><linearGradient id="a" gradientUnits="userSpaceOnUse" x1="122.085" y1="170.716" x2="224.928" y2="292.445"><stop offset="0" stop-color="#f00" stop-opacity="0"/><stop offset="1" stop-color="#f00"/></linearGradient><path fill="url(#a)" d="M92.205 39.922c22.946 27.237 26.605 86.883 80.79 117.333 9.678 5.438 30.772 23.082-3.85 44.24-34.625 21.16-80.79 15.392-80.79 15.392s-26.928 1.922-19.234-50.014c3.97-26.765-3.6-85.965 1.29-111.564 4.6-24.08 17.5-20.49 21.8-15.39z"/><path fill="#8C6239" d="M83.182 202.397s24.282-16.313 42.483-2.274c18.202 14.043-16.915 4.714-16.915 4.714s-2.87-3.286 2.78-6.19c5.636-2.907-13.272.516-16.343 3.283-3.083 2.763-12.005.467-12.005.467z"/></svg>