<svg xmlns="http://www.w3.org/2000/svg" width="256" height="256" viewBox="0 0 256 256"><path fill="#FAC283" d="M88.132 204.38c-16.472 0-46.61-3.113-63.37-23.38-23.15-27.986-1.378-66.987 3.863-75.465.345-.935.713-1.92 1.11-2.91 1.695-4.385 3.83-9.242 6.33-14.374 1.31-2.77 2.807-5.51 4.226-8.06.49-.86.98-1.68 1.56-2.57L42.89 76l.317-.482.31-.4c1.094-1.684 2.348-3.363 3.713-4.97C52.51 63.72 60.112 58.3 68.04 55.323c5.96-2.335 12.435-3.528 19.19-3.528.773 0 1.53.016 2.263.046 5.01.2 9.898 1.07 14.523 2.59.495.17.947.32 1.375.48 4.12.81 7.97 1.94 11.46 3.37.33.13.64.26.95.39 19.6 8.43 24.73 24.85 25.82 36l3.78.02c2.4.01 4.95.02 7.57.02 4.61 0 11.44-.03 17.4-.26 4.98-.24 10.03-.34 14.93-.44 5.94-.12 11.55-.24 16.06-.59 8.33-.66 13.89-1.11 13.89-1.11.67-.06 1.41-.1 2.14-.1 11.57 0 21.14 8.71 22.27 20.25.59 5.96-1.18 11.78-4.98 16.41-3.8 4.63-9.17 7.5-15.12 8.08-.73.07-1.48.1-2.23.1-.62 0-1.24-.02-1.83-.07-2.71.15-24.12 1.27-36.87 1.27-2.4 0-4.39-.04-5.94-.12-.95-.03-1.97-.05-3.01-.05-5.45 0-11.4.48-17.15.95-2.1.17-4.12.33-6.03.47-1.02 5.34-2.34 9.52-2.99 11.45.13.8.2 1.61.22 2.43.18 7.62-2.28 15.03-6.63 20.14-1.03 9.59-5.56 17.29-13.19 22.36-1.59 1.96-3.59 3.42-5.96 4.33-2.11.82-5.6 1.74-9.81 2.44-6.69 1.1-14.48 1.79-21.93 1.79h-.01z"/><path fill="#333" d="M87.23 55.793c.717 0 1.42.015 2.1.042 5.747.23 10.278 1.354 13.44 2.39.563.186 1.066.365 1.543.542 4.152.796 7.828 1.894 11.08 3.228.272.1.527.206.773.315 19.83 8.532 23.424 25.98 23.68 36.345l1.58-.002c3.87 0 8.585.034 13.526.034 5.874 0 12.07-.048 17.546-.258 11.124-.54 22.792-.4 31.14-1.05 8.34-.66 13.906-1.12 13.906-1.12.606-.06 1.208-.09 1.806-.09 9.352 0 17.355 7.13 18.285 16.64.99 10.11-6.406 19.13-16.514 20.12-.6.06-1.22.08-1.84.08-.6 0-1.2-.03-1.77-.08 0 0-23.33 1.27-36.94 1.27-2.22 0-4.18-.03-5.74-.11-1.04-.05-2.11-.07-3.21-.07-8.83 0-19.06 1.24-26.59 1.61-1.23 8.22-3.56 14.53-3.71 14.93.2.87.33 1.81.35 2.83.16 6.59-2.01 13.74-6.5 18.35-.77 10.95-6.19 17.34-12.07 21.06-1.11 1.53-2.61 2.8-4.64 3.58-1.75.68-4.9 1.46-9.02 2.14-5.62.92-13.06 1.65-21.28 1.65-20.53 0-45.96-4.53-60.29-21.85-21.68-26.22-.39-63.47 4.4-71.11.38-1.02.78-2.08 1.21-3.17 1.65-4.27 3.75-9.04 6.22-14.1 1.21-2.55 2.58-5.1 4.12-7.85.36-.64.8-1.39 1.42-2.35l.77-1.18.29-.45.14-.22.08-.12.3-.38.05-.07c1.04-1.6 2.19-3.13 3.46-4.63 4.98-6.05 12.02-10.98 19.17-13.67 6.3-2.47 12.51-3.27 17.78-3.27m0-8c-7.23 0-14.18 1.28-20.64 3.8-8.52 3.21-16.7 9.03-22.44 16-1.41 1.66-2.72 3.41-3.88 5.18l-.12.16-.2.26-.18.28-.04.07-.11.17-.04.06-.03.05-.29.45-.75 1.16c-.61.95-1.15 1.83-1.67 2.77-1.45 2.6-2.98 5.4-4.35 8.3-2.53 5.2-4.7 10.13-6.44 14.63-.34.85-.67 1.71-.99 2.57-3.03 4.94-9.4 16.43-12.68 30.27-4.6 19.4-1.36 36.51 9.35 49.47 7.54 9.1 18.18 15.82 31.63 19.96 10.32 3.17 22.03 4.78 34.83 4.78 9.82 0 17.7-.95 22.58-1.75 3.17-.53 7.58-1.4 10.62-2.58 2.82-1.09 5.24-2.78 7.21-5.06 8.04-5.54 12.95-13.68 14.32-23.74 4.48-5.79 6.99-13.73 6.8-21.85-.02-.65-.06-1.3-.13-1.95.58-1.8 1.43-4.61 2.21-8.07.99-.08 2.01-.16 3.05-.25 5.67-.46 11.54-.94 16.83-.94 1 0 1.96.02 2.85.05 1.63.08 3.62.12 6.1.12 12.67 0 33.15-1.06 36.83-1.26.61.04 1.24.06 1.87.06.88 0 1.76-.04 2.61-.12 7.03-.69 13.36-4.07 17.84-9.53 4.48-5.45 6.56-12.32 5.87-19.33-1.33-13.6-12.61-23.86-26.24-23.86-.83 0-1.68.04-2.51.12-.59.05-5.98.49-13.83 1.11-4.39.34-9.94.46-15.82.58-4.9.1-9.98.21-15.03.45-5.88.22-12.63.11-17.2.11-2.61 0-5.16-.16-7.55-.16h-.27c-1.91-12-8.34-27.18-27.76-35.55-.36-.16-.71-.23-1.06-.36-3.63-1.48-7.61-2.62-11.84-3.47-.4-.14-.8-.26-1.19-.39-4.98-1.63-10.23-2.56-15.61-2.77-.8-.04-1.62-.04-2.43-.04z"/><path fill="#E2AB74" d="M107.197 198.023s27.332-1.228 28.054-27.844l.33-12.22 5.71-7.34s9.32-24.55 1.11-40.75l-16.34 6.46-18.86 81.68z"/><path fill="#D39D6C" d="M139.335 106.918s8.563-44.953-43.296-49.275c0 0-22 24.582-21.73 37.72.27 13.14 41.41 21.564 41.41 21.564l23.61-10.01z"/><path fill="#FAC283" d="M97.624 89.383c-.17-.057.16.12-.324.08-.368.025-.996-.02-1.83-.063-1.67-.092-4.174-.235-6.964-.225-2.812.022-5.836.266-8.818.832-2.98.614-5.94 1.657-9.074 3.583-.79.47-1.513 1.067-2.335 1.612l-.04.026-.02.01c-.06.075.46-.57.23-.287l-.09.1-.19.2-.36.39-.48.53c-.21.2-.56.6-.98 1.13-1.57 1.9-3.11 4.03-4.65 6.04-3.06 4.06-5.8 7.99-8.11 11.29-2.27 3.32-4.06 6.04-5.13 7.79l-1.46 2.4-1.08 1.78c-2.69 4.44-8.48 5.86-12.93 3.17-3.46-2.1-5.08-6.08-4.36-9.83l.27-1.39c.18-.97.46-2.13.84-3.59.78-2.85 1.98-6.6 3.67-10.83 1.65-4.27 3.75-9.04 6.21-14.1 1.21-2.55 2.58-5.1 4.12-7.86.35-.64.8-1.39 1.41-2.34l.77-1.18.29-.45.15-.22.07-.11.29-.39.05-.07c1.03-1.6 2.18-3.14 3.45-4.63 4.98-6.05 12.02-10.98 19.17-13.67 7.16-2.81 14.19-3.46 19.88-3.23 5.75.23 10.28 1.35 13.44 2.39 1.59.52 2.84 1.02 3.75 1.43.79.36 8.97 2.37 8.8 2.31 8.01 2.91 4.96 10.17 2.06 18.17-2.91 8.01-11.76 12.15-19.76 9.25zm-36.56 4.012l13.082-20.182s18.19 26.623 46.832 18.084c0 0 20.03 1.168 21.817 21.378 0 0-.43 22.16-11.457 28.288 0 0 10.08 2.253 10.317 12.46.24 10.206-5.08 21.766-15.987 23.138 0 0 2.907 15.96-7.227 19.86-1.75.69-4.9 1.46-9.02 2.14-19.64 3.22-61.51 4.07-81.57-20.19-24.27-29.35 5.31-72.51 5.31-72.51L61.07 93.4z"/><path fill="#E2AB74" d="M122.52 136.466s-15.89-1.222-24.732-.203c0 0 12.563 19.3 24.733.203zm-10.218 38.704s-19.666-2.802-28.408-4.462c0 0 11.027 19.13 28.408 4.463zm-12.397 4.516s-50.945 1.904-65.078-4.394c-5.983-2.667-3.45-11.374-3.45-11.374l52.517 6.79s12.316 7.56 16.01 8.978zm7.75-37.514s-47.03 2.73-61.853-1.68c-6.84-2.035-3.456-11.376-3.456-11.376l62.022 7.324s-.402 4.313 3.288 5.732z"/><path fill="#A67C52" d="M114.62 111.105s.65 21.307-1.423 42.5c-1.006 10.597-1.992 21.165-3.763 28.99-.415 1.966-.605 3.748-1.09 5.316-.47 1.57-.657 2.96-1.136 4.05-.842 2.21-1.26 3.47-1.26 3.47-.154.42-.59.63-1 .47-.414-.15-.6-.59-.466-1l.04-.09s.416-1.23 1.142-3.39c.412-1.05.67-2.44 1.063-3.98.413-1.54.77-3.31 1.093-5.25 1.434-7.75 2.47-18.27 3.06-28.81 1.205-21.1.684-42.23.684-42.23-.035-1.38.09-2.53 1.47-2.56 1.376-.03 1.585 1.06 1.585 2.44v.11zm-5-.137s-.355 21.307-2.42 42.504c-1.022 10.59-2.503 21.165-4.278 28.99-.4 1.96-.848 3.75-1.332 5.318-.463 1.566-.788 2.95-1.264 4.047-.838 2.207-1.32 3.465-1.32 3.465-.157.42-.626.628-1.038.466-.404-.152-.61-.597-.48-1l.038-.093 1.137-3.398c.41-1.05.662-2.437 1.063-3.98.41-1.54.766-3.308 1.096-5.257 1.43-7.754 2.47-18.27 3.058-28.815 1.205-21.1.687-42.23.687-42.23-.037-1.382 1.086-2.534 2.463-2.57 1.387-.034 2.592 1.065 2.592 2.443-.003.037-.003.08-.003.11zm-9-.275s-.868 21.305-2.935 42.5c-1.018 10.6-2.748 21.17-4.52 29-.414 1.956-.984 3.742-1.468 5.313-.467 1.57-.848 2.95-1.324 4.05-.844 2.206-1.356 3.462-1.356 3.462-.157.417-.644.63-1.052.468-.404-.155-.62-.6-.484-1.005l.03-.08s.41-1.23 1.14-3.4c.41-1.05.66-2.43 1.06-3.97.41-1.54.77-3.31 1.09-5.26 1.44-7.75 2.47-18.27 3.06-28.81 1.21-21.1.69-42.23.69-42.23-.03-1.39 1.59-2.53 2.98-2.57 1.39-.04 3.11 1.06 3.11 2.44v.11zm-13-.268s.624 21.305-1.44 42.503c-1.02 10.592-2.01 21.164-3.784 28.99-.406 1.962-.606 3.747-1.09 5.318-.47 1.565-.66 2.953-1.135 4.046-.84 2.21-1.26 3.467-1.26 3.467-.15.41-.59.62-1 .46-.4-.15-.59-.6-.46-1l.05-.09s.41-1.24 1.14-3.4c.41-1.05.67-2.44 1.06-3.98.42-1.54.77-3.31 1.1-5.26 1.44-7.76 2.47-18.28 3.06-28.82 1.2-21.1.68-42.23.68-42.23-.03-1.39.11-2.54 1.49-2.57 1.39-.03 1.62 1.06 1.62 2.44v.11zm-13.2-1.015s1.25 5.217 2.39 13.02c1.14 7.828 2.144 18.348 2.037 28.9-.104 5.272-.42 10.543-1.058 15.453-.41 2.442-.62 4.827-1.14 7.038-.52 2.22-.9 4.33-1.44 6.24-.58 1.89-1.12 3.63-1.58 5.17-.46 1.54-1.12 2.81-1.53 3.89l-1.39 3.35c-.17.41-.64.61-1.06.44-.4-.16-.6-.61-.45-1.01l.03-.08s.44-1.21 1.22-3.32c.35-1.07.94-2.31 1.32-3.84.39-1.52.84-3.23 1.34-5.09.44-1.88.73-3.96 1.14-6.13.42-2.17.53-4.52.83-6.91.43-4.81.53-9.98.42-15.14-.32-10.32-1.72-20.58-3.14-28.18-1.44-7.63-2.83-12.52-2.83-12.52-.38-1.33.4-2.72 1.73-3.1 1.33-.38 2.71.39 3.09 1.73.01.04.02.07.02.1l.01.04z"/><path fill="#FAC283" d="M128.552 99.38s2.03-.33 10.37-.422c8.346-.045 22.45.047 33.576-.38 11.124-.54 22.792-.47 31.14-1.12 8.34-.66 13.906-1.155 13.906-1.155 10.106-.99 19.102 6.42 20.09 16.533.99 10.11-6.405 19.12-16.513 20.108-1.19.113-2.46.11-3.61 0 0 0-31.56 1.72-42.68 1.158-11.12-.448-25.57 1.724-33.91 1.663-8.34-.11-12.4-6.773-12.4-6.773-7.96.18-14.56-6.51-14.74-14.48-.18-7.97 6.13-15.13 14.1-15.13h.68z"/><path fill="#fff" d="M218.933 104.61s9.45-.91 10.284 6.095c.838 7.004-.83 17.564-12.11 17.298 0 0-4.6.15-4.6-3.19 0-3.345 2.395-13.39 2.094-16.634-.33-3.65 4.34-3.57 4.34-3.57z"/><path fill="#FAC283" d="M165.522 130.093s-21.382 3.846-34.184 10.87l-2.803-22.173 40.117-2.502-3.13 13.805z"/></svg>