<svg xmlns="http://www.w3.org/2000/svg" width="256" height="256" viewBox="0 0 256 256"><path fill="#fff" d="M195.87 150.002s-30.82 51.428-68.835 51.428c-38.018 0-63.934-51.75-63.934-51.75S90.08 97.9 128 100.54c48.718 3.39 67.87 49.46 67.87 49.46v.002z"/><path fill="#F2F2F2" d="M74.895 170.546s40.975-41.498 106.975 3.835l15.75-15.25s-56.667-98.08-132.667-13.41l-3.27 9.61s5.154 14.06 13.212 15.23v-.01z"/><path fill="#0071BC" d="M159.715 148.714c0 17.345-14.066 31.41-31.413 31.41-17.345 0-31.408-14.065-31.408-31.41 0-17.353 14.063-31.412 31.408-31.412s31.413 14.06 31.413 31.412z"/><path fill="#082031" d="M128.302 183.714c-19.3 0-34.997-15.698-34.997-35 0-19.306 15.698-35.002 34.997-35.002 19.3 0 35.003 15.696 35.003 35.002 0 19.302-15.7 35-35.003 35zm0-62.822c-15.34 0-27.818 12.48-27.818 27.822 0 15.34 12.477 27.82 27.818 27.82 15.343 0 27.822-12.48 27.822-27.82 0-15.343-12.48-27.822-27.822-27.822zm16.602 26.92c0 8.805-7.13 15.93-15.932 15.93-8.797 0-15.93-7.124-15.93-15.927 0-8.8 7.133-15.93 15.93-15.93 8.8 0 15.932 7.13 15.932 15.93v-.002z"/><path fill="#fff" d="M142.607 131.885c0 5.69-4.616 10.29-10.307 10.29-5.68 0-10.29-4.6-10.29-10.29 0-5.678 4.61-10.29 10.3-10.29s10.31 4.612 10.31 10.29h-.013z"/><path d="M108.78 195.16c-1.57-.6-3.31-1.07-5.12-1.65-.32-.115-.657-.242-.982-.362 5.106 1.353 8.59 1.464 8.59 1.464s-3.28-2.95-8.58-5.77c-1.31-.75-2.79-1.41-4.33-2.16-1.49-.82-3-1.81-4.6-2.76-1.58-.98-3.223-1.96-4.933-2.9-1.78-.84-3.22-2.21-4.847-3.32-1.613-1.13-3.226-2.26-4.81-3.39-1.523-1.19-2.877-2.54-4.273-3.75-1.367-1.24-2.77-2.38-3.832-3.69-1.113-1.28-2.21-2.45-3.258-3.53-1.868-2.28-3.516-4.24-4.498-5.68-1.066-1.43-1.623-2.345-1.623-2.345l-.005.015-.03.04s.04 1.04.57 2.8c.2.91.53 2.01 1.1 3.14.55 1.14 1.05 2.54 1.84 3.91.84 1.31 1.79 2.74 2.84 4.22.95 1.57 2.34 2.86 3.67 4.33 1.37 1.41 2.68 3.01 4.22 4.38 1.62 1.29 3.25 2.6 4.9 3.91l.43.333c-1.83-1.275-3.57-2.615-5.17-4.022-1.59-1.31-2.97-2.73-4.28-4.09-1.33-1.354-2.46-2.733-3.55-3.983-4.3-5.085-6.55-9.162-6.55-9.162l-.01.015-.06.05s.09 1.16.63 3.14c.52 1.98 1.61 4.71 3.3 7.82 1.78 3.03 4.21 6.43 7.37 9.53 3.04 3.24 6.81 6.14 10.78 8.74 2.06 1.15 4.08 2.41 6.2 3.35 2.13.92 4.2 1.93 6.3 2.58l6.05 1.88c1.97.4 3.83.79 5.57 1.01 3.44.66 6.42.37 8.46.29 2.04-.12 3.21-.32 3.21-.32s-1.08-.56-2.97-1.31c-1.87-.862-4.6-1.532-7.74-2.752zm89.56-39.74l.007.056c-.17-.278-1.68-2.738-4.417-6.603-2.275-3.18-5.398-7.352-9.404-12.035l-.305-.627c-.84-1.89-2.15-4.01-3.59-6.51-1.35-2.54-3.29-5.16-5.3-8.1-2.2-2.79-4.5-5.92-7.47-8.77-1.41-1.5-2.91-2.99-4.61-4.34-1.63-1.44-3.35-2.85-5.25-4.08-3.64-2.7-7.87-4.86-12.27-6.76-4.45-1.78-9.18-3.2-14.02-3.93-9.7-1.67-19.62-1.03-28.6.67-8.99 1.73-17.07 4.55-23.78 7.35-6.71 2.86-12.08 5.72-15.78 7.88-1.85 1.09-3.29 1.97-4.28 2.61l-1.55 1.03.05.01-.02.07c-.12.09-.26.19-.38.28-2.51 1.99-2.94 5.63-.95 8.14 1.98 2.51 5.62 2.94 8.14.96l.1-.08s1.59-1.26 4.91-3.46c3.26-2.15 8.08-5.07 14.13-8.06 6.05-2.93 13.35-5.93 21.45-7.96 8.08-2 16.96-3.06 25.66-2.06 4.36.41 8.62 1.44 12.69 2.8 4.02 1.48 7.94 3.18 11.38 5.46 1.8 1.02 3.44 2.23 5.01 3.46 1.63 1.15 3.1 2.45 4.49 3.77 1.77 1.51 3.31 3.15 4.76 4.76-3.24-2.77-6.77-5.48-10.65-8-4.59-2.96-9.67-5.6-15.19-7.49-2.74-.99-5.63-1.66-8.54-2.2-1.48-.21-3.07-.41-4.52-.51-1.33-.02-2.92-.18-4.38-.08-11.69.1-23.39 3.28-32.93 8.73-9.57 5.48-16.91 12.81-22.25 19.61-2 2.52-3.71 5-5.15 7.36-.51-.02-1.06-.06-1.64-.08-1.08-.21-2.32-.34-3.45-.73-1.09-.48-2.38-.74-3.28-1.48-.92-.68-2.04-1.13-2.6-1.9-1.33-1.43-2.22-2.39-2.22-2.39l1.52 2.96c.37.99 1.33 1.72 2.14 2.77.8 1.08 2.03 1.75 3.15 2.65 1.16.81 2.49 1.37 3.71 1.96.15.04.29.09.43.14-.32.61-.62 1.21-.9 1.8-.37.04-.79.08-1.29.09-.89.1-1.91-.04-3.05-.07-1.07-.21-2.31-.34-3.44-.74-1.09-.47-2.38-.74-3.27-1.47-.92-.69-2.04-1.13-2.6-1.91l-2.22-2.39 1.52 2.96c.37.99 1.33 1.73 2.14 2.76.79 1.09 2.03 1.75 3.15 2.65 1.16.81 2.48 1.37 3.7 1.96 1.16.38 2.26.82 3.26 1.03-.01.02-.02.04-.02.06-.94 2.33-1.38 4.28-1.69 5.59l-.4 2.05s2.6-2.08 6.31-5.53c1.83-1.75 3.91-3.86 6.15-6.27 2.2-2.44 4.6-5.17 7.43-7.87 5.69-5.37 12.89-10.74 21.13-14.3 4.01-1.99 8.36-3.44 12.86-4.47 4.45-1.25 9.16-1.96 13.99-2.09l.9-.11h.07l.53.07 2.12.09 2.86.25c2.14.34 4.31.75 6.45 1.45 4.27 1.4 8.65 3.15 12.71 5.49 8.18 4.64 15.53 10.43 21.69 15.7 6.12 5.35 11.13 10.16 14.58 13.6l5.4 5.43.5.51c.92.91 2.37 1.13 3.52.43 1.36-.82 1.8-2.58.98-3.94z"/><path fill="#42210B" d="M49.53 93.99s56.92-73.65 155.09 20.39l-2.5-29S127.86 41.64 84.784 57.635c0 0-32.773 16.964-35.254 36.357v-.002z"/></svg>