<svg xmlns="http://www.w3.org/2000/svg" width="256" height="256" viewBox="0 0 256 256"><path fill="#A67C52" d="M145.848 233.938c-1.198 0-2.36-.05-3.454-.15-2.658-.185-4.892-.664-6.094-.922l-.134-.03c-.74-.187-1.38-.347-2.037-.564-.37-.108-.6-.19-.6-.19-2.73-.868-5-2.787-6.34-5.385-1.32-2.552-1.58-5.456-.75-8.197-1.13-.365-1.86-.648-2.19-.78-3.5-1.42-6.22-4.11-7.68-7.577s-1.49-7.294-.07-10.776c.26-.648.57-1.27.92-1.862-3.28-1.585-5.78-4.336-7.05-7.77-.96-2.58-1.14-5.32-.55-7.943-2.58-1.25-4.27-2.58-4.92-3.13l-3.8-2.564c-.37-.244-.74-.502-1.11-.762l-.11-.075c-3.79-2.66-7.72-5.9-8.31-6.39-1.49-1.13-2.86-2.29-4.1-3.45l-31.8-15.65c-2.61-1.29-4.57-3.51-5.51-6.27-.94-2.75-.75-5.71.54-8.32 1.84-3.74 5.59-6.07 9.78-6.07 1.49 0 2.94.3 4.31.89l1.5.65c-3.28-2.48-6.59-5.01-9.84-7.55-5.48-4.27-6.47-12.22-2.19-17.71 1.88-2.4 4.49-4 7.4-4.6-1.73-4.3-1.22-9.38 1.79-13.33 2.6-3.4 6.54-5.34 10.81-5.34 3.01 0 5.86.97 8.25 2.79.36.29.67.55.95.81 4.66 4.31 9.46 8.59 14.11 12.74 2.38 2.13 4.77 4.25 7.14 6.39 1.03.89 2.06 1.8 3.1 2.71l-18.3-26.43c-2.01-2.88-2.78-6.38-2.15-9.84.62-3.46 2.55-6.47 5.44-8.48 2.21-1.54 4.81-2.35 7.5-2.35 4.31 0 8.36 2.12 10.82 5.66.1.15.18.27.25.38l26.92 41.67c1.66-8.26 4.31-14.98 8.23-20.95 2.34-3.56 6.27-5.69 10.54-5.69 2.45 0 4.83.71 6.89 2.06 2.82 1.84 4.75 4.67 5.43 7.97.68 3.3.05 6.66-1.8 9.48l-.19.29c-2.35 3.39-4.15 8.23-5.19 14.01-.47 2.58-.79 5.39-.96 8.36 3.63 5.51 3.91 12.96 3.45 18.49 0 3.01-.54 5.28-1.2 8.15l-1.29 5.53c.76.03 1.52.05 2.28.05 2.3 0 4.62-.14 6.89-.41.53-.06 1.08-.1 1.63-.1.59 0 1.2.04 1.81.12l.2.01c5.81 0 9.14-1.23 10.67-2.69-3.54-4.7-6.19-8.29-8.26-11.19-3.49-4.82-5.67-8.08-5.76-8.22-4.3-6.47-2.54-15.23 3.92-19.52 2.31-1.54 5-2.35 7.77-2.35 4.59 0 8.91 2.24 11.55 5.99.1.15 2.41 3.45 5.61 8.58 3.3 5.2 7.43 12.21 11.32 19.19 4.21 7.57 7.91 14.69 10.42 20.05 1.36 2.9 2.41 5.34 3.21 7.47l.51 1.41c.29.87.51 1.75.58 2.09.25 1.09.34 1.74.36 1.86.02.19.04.39.05.59 3.02 9.28 5.98 25.85-5.96 36.9-6.5 6.02-15.73 9.07-27.42 9.07h-.01c-6.66 0-12.68-1.04-16.52-1.89-.44.34-.91.69-1.42 1.04-2 1.53-4.48 3-6.66 4.24l-.13.07-4.15 1.98-1.06.4c-1.1.42-2.25.85-3.45 1.24-4.59 1.44-9.71 2.22-14.45 2.22z"/><path fill="#333" d="M100.317 64.446c2.9 0 5.754 1.376 7.535 3.94.047.07.126.178.17.253l32.38 50.11c.063.09.113.19.17.29l.29.18c.18-2.49.452-4.99.858-7.5 1.236-7.46 3.454-15.18 8.16-22.35 1.65-2.52 4.394-3.88 7.193-3.88 1.614 0 3.248.45 4.7 1.4 3.977 2.6 5.084 7.92 2.484 11.9-.04.05-.1.15-.133.2-2.882 4.15-4.777 9.7-5.838 15.58-.534 2.94-.86 6.01-1.024 9.08-.02.38-.038.81-.053 1.2 3.67 4.53 3.98 11.67 3.5 17.1.02 2.55-.4 4.4-1.1 7.4-.01-.02-.01-.17-.02-.17-1.24 3.89-3.33 7.04-5.55 9.77 3.22.54 6.72.87 10.45.87 2.37 0 4.83-.14 7.37-.45.38-.05.77-.07 1.15-.07.49 0 .98.03 1.47.1.17 0 .27.01.27.01h.27c12.05 0 14.81-4.85 15.44-7.02-3.65-4.83-7.1-9.46-9.77-13.2-3.5-4.83-5.69-8.11-5.69-8.11-3.08-4.64-1.82-10.9 2.81-13.98 1.71-1.15 3.64-1.69 5.56-1.69 3.19 0 6.32 1.51 8.28 4.29 0 0 2.31 3.3 5.49 8.39 3.22 5.08 7.3 11.98 11.22 19.02 3.91 7.04 7.66 14.19 10.29 19.8 1.33 2.83 2.33 5.15 3.08 7.18.18.48.34.91.47 1.29.19.57.37 1.24.48 1.7.22.96.29 1.46.29 1.46.03.26.04.52.04.77 2.79 8.29 5.83 23.52-4.7 33.27-6.57 6.08-15.87 8-24.71 8-6.53 0-12.81-1.05-17.53-2.25-.76.65-1.65 1.39-2.75 2.14-1.71 1.32-3.9 2.64-6.29 4-1.25.6-2.54 1.21-3.85 1.84-1.37.51-2.75 1.06-4.17 1.52-4.48 1.4-9.2 2.02-13.22 2.02-1.11 0-2.16-.05-3.14-.14-2.28-.15-4.2-.55-5.58-.84-.69-.17-1.24-.31-1.76-.48-.38-.12-.58-.19-.58-.19-3.66-1.17-5.67-5.08-4.5-8.73.46-1.45 1.36-2.64 2.51-3.48-4.07-.93-6.45-1.83-7.06-2.08-5.15-2.1-7.63-7.98-5.54-13.14.87-2.15 2.41-3.82 4.28-4.9-3.07-1.05-4.87-1.86-5.12-1.98-5.06-2.32-7.28-8.31-4.95-13.37.18-.39.38-.75.6-1.11-4.81-1.43-7.66-4.05-7.66-4.05l-4.01-2.71c-.35-.23-.7-.48-1.05-.72l-.05-.04c-3.98-2.8-8.17-6.29-8.17-6.29-1.7-1.29-3.11-2.51-4.27-3.64L57.4 146.1c-3.417-1.68-4.827-5.81-3.14-9.224 1.2-2.436 3.64-3.847 6.19-3.847.913 0 1.84.18 2.73.56l28.5 12.36.723-.76c-3.96-2.94-7.9-5.89-11.862-8.81-7.2-5.5-14.48-10.91-21.62-16.48-3.75-2.93-4.42-8.34-1.49-12.1 1.7-2.17 4.24-3.31 6.8-3.31 1.8 0 3.62.56 5.16 1.71 7.27 5.42 14.4 11.01 21.61 16.52 4.34 3.42 8.71 6.82 13.05 10.24l.77-.81c-4.6-3.74-9.23-7.45-13.84-11.2-2.39-1.87-4.77-3.76-7.16-5.65-.1-.08-.2-.15-.28-.23-4.99-3.96-9.99-7.92-15.05-11.79-4.21-3.22-5.02-9.23-1.81-13.45 1.89-2.47 4.75-3.77 7.64-3.77 2.03 0 4.08.64 5.82 1.97.24.18.47.38.69.58 7.01 6.48 14.18 12.75 21.27 19.14 3.93 3.42 7.84 6.86 11.76 10.29 1.67-.36 3.32-1.15 4.3-2.77L92.81 78.83c-2.892-4.15-1.87-9.87 2.293-12.757 1.592-1.11 3.415-1.643 5.22-1.643m59.03 116.99c1.155 0 2.33-.02 3.52-.07-.18-.443-.34-.902-.48-1.37-10.19-.254-19.016-2.365-25.912-4.793-1.26.88-2.51 1.63-3.72 2.26 5.42 1.694 14.89 3.972 26.6 3.972m-59.03-125c-3.52 0-6.9 1.06-9.79 3.07-3.76 2.61-6.28 6.53-7.09 11.05-.71 3.96-.03 7.96 1.92 11.42l-.27-.22-.05-.04-.06-.04c-3.09-2.36-6.79-3.61-10.67-3.61-5.53 0-10.63 2.52-13.99 6.91-2.98 3.91-4.07 8.69-3.41 13.21-2.21 1.08-4.18 2.67-5.75 4.68-5.64 7.24-4.35 17.71 2.88 23.34.08.07.17.14.26.2-3.06 1.4-5.59 3.81-7.14 6.97-1.76 3.56-2.02 7.6-.74 11.37 1.28 3.77 3.96 6.81 7.53 8.57l31.29 15.39c1.2 1.09 2.5 2.18 3.9 3.25.81.66 4.7 3.86 8.51 6.54l.04.02.02.01.05.03c.4.27.79.54 1.17.8l3.62 2.44c.61.5 1.63 1.28 3.01 2.13-.11 2.4.26 4.81 1.12 7.13 1.17 3.17 3.16 5.88 5.74 7.91-1.37 4.15-1.19 8.6.52 12.67 1.77 4.19 4.98 7.5 9.08 9.39-.1 2.56.46 5.11 1.66 7.44 1.82 3.53 4.9 6.15 8.68 7.37.1.03.32.1.65.2.76.25 1.48.42 2.23.61l.14.03.13.03c1.3.27 3.69.79 6.61.99 1.2.11 2.47.16 3.78.16 5.13 0 10.68-.85 15.61-2.39l.03-.01.03-.01c1.3-.42 2.49-.87 3.65-1.31l.88-.33.33-.12.31-.15 1.6-.76 2.27-1.09.26-.12.25-.14c2.26-1.28 4.84-2.81 7.01-4.46 4.23.86 9.65 1.61 15.6 1.61 12.56 0 22.98-3.5 30.14-10.14 10.05-9.3 12.59-23.7 7.18-40.62l-.03-.29c-.04-.28-.15-1.05-.43-2.27-.09-.38-.34-1.41-.69-2.45l-.03-.09-.03-.09c-.14-.4-.31-.85-.49-1.34-.84-2.24-1.93-4.79-3.34-7.78-2.54-5.43-6.29-12.64-10.54-20.29-3.92-7.04-8.09-14.1-11.44-19.39-3.25-5.2-5.61-8.58-5.71-8.72-3.4-4.83-8.94-7.7-14.83-7.7-3.57 0-7.03 1.05-10 3.03-4.44 2.96-7.16 7.57-7.86 12.49l-.19-.35c.17-2.36.44-4.58.82-6.64.94-5.22 2.51-9.53 4.54-12.44l.08-.11.01-.01.17-.26c2.43-3.71 3.27-8.14 2.36-12.47-.9-4.34-3.45-8.07-7.16-10.5-2.71-1.77-5.85-2.7-9.07-2.7-5.62 0-10.81 2.8-13.89 7.5-2.68 4.08-4.8 8.46-6.44 13.37l-22-33.95c-.11-.18-.22-.34-.32-.48l.02.03-.04-.06-.04-.06c-3.21-4.62-8.48-7.38-14.1-7.38zm68.4 85.86c.15-1.86.22-3.91.13-6.04.84 1.24 2.74 4.01 5.38 7.65 1.44 2.03 3.17 4.38 5.27 7.2-1.11.2-2.54.33-4.38.34-.69-.08-1.39-.12-2.07-.12-.71 0-1.43.04-2.13.13-1.2.14-2.42.25-3.64.31l.14-.59c.68-2.94 1.28-5.5 1.3-8.88z"/><path fill="#FAC283" d="M84.26 153.828s.574 4.86 9.844 11.9c0 0 4.998 4.173 9.265 7.05l4 2.703s17.04 15.67 38.24-8.66c0 0 23.4-15.14 11.95-36.88l-31.48-20.17-41.83 44.06zm62.07-8.358s5.656 8.173 13.07 4.173c0 0 6.085-22.327-6.303-28.11"/><path fill="#FAC283" d="M113.152 139.026c-7.303-6.12-14.776-12.037-22.178-18.053-7.5-5.88-14.917-11.877-22.497-17.667-4.213-3.213-5.02-9.23-1.812-13.444 3.22-4.21 9.237-5.018 13.457-1.8.232.184.467.384.683.58 7.005 6.48 14.178 12.757 21.27 19.14 7.185 6.254 14.3 12.608 21.583 18.753 3.446 2.905 3.886 8.055.98 11.504-2.903 3.43-8.036 3.87-11.486.98zm13.688-11.19l-34.036-48.99c-2.893-4.154-1.87-9.87 2.292-12.758 4.158-2.894 9.868-1.86 12.756 2.297.047.07.126.18.17.254l32.38 50.11c2.448 3.78 1.36 8.83-2.43 11.28-3.705 2.39-8.627 1.4-11.132-2.2zm-18.37-9.726s12.22 2.434 10.38-8.58l6.385 16.328-16.765-7.75z"/><path fill="#E2AB74" d="M106.235 134.82s9.805-4.918 7.718-12.78c0 0 5.914 9.377 2.372 14.936 0 0 6 9.32 19.524-4.563 3.39-3.48-7.17 22.16-7.17 22.16l-4.86 2.325s-2.1-9.562-17.59-22.08zm14.533-17.563s4.985 2.02 11.093-4.986l2.38 2.73s-5.43 7.23-10.85 6.11c0 0-4.81-2.6-8.05-1.45 0 0 3.98-1.46 4.44-2.77l1.01.38zm14.926 3.53s3.66 7.188-2.86 18.807l9.494-13.313s-.123-4.36-6.634-5.49zm-49.27-4.212s8.282-2.78 8.28-12.222c0 0-6.535 12.06-11.56 9.514 0 0-1.15 1.114 3.28 2.708z"/><path fill="#FAC283" d="M102.452 152.563c-7.365-5.295-14.595-10.764-21.883-16.15-7.21-5.5-14.49-10.906-21.63-16.482-3.76-2.92-4.42-8.34-1.5-12.1 2.89-3.7 8.21-4.39 11.95-1.6 7.26 5.42 14.39 11.01 21.6 16.52 7.11 5.62 14.29 11.15 21.35 16.85 3.5 2.84 4.04 7.98 1.2 11.49-2.73 3.38-7.63 3.99-11.11 1.49zm2.116 16.777l-47.102-23.172c-3.417-1.678-4.827-5.81-3.144-9.225 1.626-3.31 5.568-4.728 8.922-3.28l48.17 20.857c4.14 1.793 6.04 6.6 4.253 10.735-1.8 4.14-6.6 6.04-10.74 4.255-.11-.056-.25-.12-.36-.17z"/><path fill="#E2AB74" d="M77.76 131.488s8.284-2.78 8.28-12.223c0 0-6.536 12.063-11.558 9.512 0 0-1.154 1.116 3.278 2.71zm19.657 16.278s8.284-2.787 8.284-12.23c0 0-6.53 12.062-11.56 9.515 0 0-1.15 1.12 3.28 2.72zm6.916-54.832s8.74 2.003 12.59-7.924c0 0 3 6.107-4.96 9.323-7.953 3.222-7.63-1.4-7.63-1.4zm.37 1.368s10.557 2.45 14.405-7.486c0 0 3.002 6.108-4.958 9.328-7.957 3.217-9.448-1.842-9.448-1.842zm-19.85 63.828s9.083-4.503 7.858-11.346l2.64.064s-1.83 4.363-.69 6.902c0 0-4.72 4.842 2.92 12.233 0 0-4.97-2.438-6.3-4.912-1.33-2.47-6.4-2.94-6.4-2.94zm10.913 6.08s6.744 8.718 14.012-.8l3.328-1.893s2.4.157 5.1-2.365c2.704-2.522 4.584-2.8 4.42-6.932l2.883-2.092s4.97 6.23-5.85 12.182c-10.83 5.948-8.09 8.374-8.09 8.374s-9.97 2.24-15.81-6.475zm42.907-32.8"/><path fill="#FAC283" d="M140.977 134.28c-.387-4.11-.42-7.575-.318-11.353.12-3.718.45-7.443 1.06-11.195 1.23-7.456 3.45-15.184 8.16-22.35 2.6-3.97 7.92-5.077 11.89-2.48 3.97 2.597 5.08 7.92 2.48 11.896-.04.05-.1.14-.14.192-2.88 4.15-4.78 9.69-5.84 15.566-.54 2.94-.87 5.98-1.03 9.055-.16 3-.15 6.33.06 8.99l.02.28c.35 4.52-3.04 8.47-7.57 8.81-4.47.34-8.37-2.97-8.81-7.41z"/><path fill="#E2AB74" d="M130.485 149.435c-1.48 1.508-3.66 3.703-6.833 6.855-8.157 8.115-16.303 12.554-22.436 14.97.72.525 1.443 1.044 2.153 1.52l4 2.702s17.04 15.662 38.24-8.666c0 0 10.52-6.826 14-17.883-20.86 14.055-28 2.734-29.14.502zm-.18-.365s.062.137.18.364c6.16-6.276-.18-.365-.18-.365z"/><path fill="#fff" d="M162.267 101.382s-2.643-2.648-5.09-1.913c0 0 .284-5.07 3.347-5.98 3.054-.92 4.61 1.51 4.61 1.51s-.264 3.23-2.867 6.37z"/><path fill="#FAC283" d="M164.436 180.02c-25.695 0-43.232-12.044-44.052-12.618-4.558-3.192-5.668-9.48-2.48-14.033 3.188-4.55 9.444-5.67 13.996-2.52.366.24 17.093 11.33 39.99 8.55 5.468-.67 10.547 3.27 11.213 8.8.667 5.52-3.27 10.54-8.8 11.21-3.402.41-6.698.59-9.867.59zm-5.08 21.57c-23.127 0-39.177-7.23-39.967-7.594-5.06-2.32-7.28-8.303-4.95-13.365 2.31-5.04 8.28-7.25 13.33-4.96.43.2 18.41 8.04 42.31 5.13 5.55-.66 10.55 3.28 11.21 8.8.66 5.53-3.27 10.55-8.8 11.22-4.58.55-8.98.79-13.15.79zm-3.938 16.803c-18.212 0-28.293-3.834-29.654-4.382-5.154-2.09-7.634-7.98-5.536-13.13 2.09-5.12 7.933-7.6 13.05-5.56.442.17 13.406 4.87 37.188 1.99 5.533-.67 10.55 3.28 11.215 8.8.67 5.53-3.27 10.55-8.79 11.22-6.46.78-12.29 1.09-17.46 1.09zm-16.06-3.22s.102.03.29.094c.17.044.412.106.72.19.792.17 1.98.448 3.495.555 3.01.32 7.177-.01 11.166-1.2.98-.347 1.97-.692 2.94-1.036l2.76-1.29c1.74-.993 3.36-1.93 4.66-2.934 1.36-.88 2.36-1.868 3.11-2.47l1.17-.978.45-.382c2.85-2.396 7.11-2.024 9.51.834 2.37 2.825 2.03 7.035-.75 9.446l-1.48 1.285c-.97.802-2.24 2.04-4.05 3.267-1.71 1.32-3.9 2.642-6.29 4-1.25.6-2.54 1.21-3.86 1.838-1.37.513-2.76 1.06-4.17 1.517-5.71 1.78-11.81 2.31-16.36 1.89-2.28-.16-4.19-.55-5.57-.85-.69-.18-1.24-.31-1.76-.48-.38-.12-.58-.19-.58-.19-3.65-1.17-5.67-5.08-4.5-8.73 1.17-3.65 5.07-5.67 8.73-4.49l.31.1zm52.326-95.4s2.313 3.3 5.495 8.39c3.21 5.075 7.3 11.982 11.22 19.014 3.91 7.04 7.66 14.19 10.29 19.8 1.33 2.83 2.32 5.152 3.08 7.177.18.48.33.91.47 1.29.19.575.37 1.245.48 1.7.22.96.29 1.463.29 1.463.4 3.123-1.82 5.982-4.94 6.375-3.13.4-5.99-1.82-6.38-4.943 0 0-.1.03-.17.1-.05.01-.04.13-.09.07l-.56-.8c-.75-1.12-2.24-3.13-3.98-5.43-3.59-4.7-8.36-10.98-13.15-17.25-4.8-6.32-9.58-12.66-13.04-17.5-3.5-4.84-5.69-8.12-5.69-8.12-3.08-4.64-1.82-10.89 2.81-13.98 4.55-3.04 10.7-1.85 13.84 2.6zm14.984 45.08l-15.987-13.427s-.12 8.13-15.9 8.035c0 0-10.8-.81-13.18 9.87 0 0-1.36 11.89 4.11 15.94 0 0-5.55.49-6.4 5.93-.85 5.44 1.17 12 6.91 13.52 0 0-2.7 8.33 2.45 11.13.88.49 2.51 1.14 4.67 1.79 10.27 3.13 32.6 6.57 45.06-4.98 15.08-13.95 2.33-39.14 2.33-39.14l-14.03-8.65z"/><path fill="#E2AB74" d="M170.726 183.502s8.592.48 13.245 1.652c0 0-8.09 9.423-13.24-1.652zm2.706 21.413s10.713-.095 15.506-.353c0 0-7.257 9.437-15.506.353zm6.308 3.305s27.104 4.655 35.104 2.296c3.397-1.003 2.66-5.833 2.66-5.833l-28.567-.12s-7.12 3.154-9.197 3.657zm-1.47-20.615s24.96 4.814 33.195 3.516c3.8-.6 2.65-5.83 2.65-5.83l-33.677-.51s-.09 2.35-2.167 2.83z"/><path fill="#fff" d="M180.752 135.825s-4.618-5.66-1.844-9.112c2.776-3.44 7.844-7.802 10.08-5.84 2.238 1.958 3.898 3.583 3.898 3.583s-9.657 5.303-12.134 11.37z"/><path fill="#E2AB74" d="M169.51 212.82s-9.022 6.417-25.235 3.876c0 0 11.647 8.648 28.025.108l-2.79-3.985zm-39.87-15.368s19.517 7.758 33.7 2.567c0 0 1.338 1.87 3.658 3.89 0 0-25.4 4.96-37.357-6.47z"/><path fill="#fff" d="M125.366 167.9s-.956-9.8 5.897-12.334c0 0-7.73-5.418-9.55-.036-1.83 5.38-6.364 8.21 3.653 12.37zm1.684 12.968s-4.572-4.533-5.963-3.27c0 0-2.753 1.004-3.26 4.317-.522 3.357-1.74 5.732-.707 7.456 1.028 1.73 1.396 3.77 5.474 3.1 0 0-3.068-7.37 4.457-11.59zm2.645 20.994s-4.944 6.162-.29 10.564c0 0-7.514-.253-7.21-5.312.298-5.064 3.79-7.063 7.5-5.252zm6.88 16.81s-2.343 3.637-.095 6.6c0 0-4.157 1.73-4.825-3.066 0 0 .066-4.226 4.92-3.533z"/><path fill="#A67C52" d="M187.748 169.864s-1.912 11.195-2.927 22.535c-.31 2.83-.41 5.66-.57 8.31-.21 2.66-.03 5.11-.05 7.23-.09 2.15.39 3.81.47 5.04l.25 1.9.02.15c.05.4-.23.76-.63.81-.38.05-.73-.21-.81-.58 0 0-.14-.72-.4-1.98-.18-1.26-.79-3.07-.85-5.23-.12-2.16-.48-4.7-.44-7.4-.03-2.71-.12-5.6.01-8.47.25-11.5 1.41-22.98 1.41-22.98.12-1.26 1.24-2.18 2.51-2.07 1.26.13 2.18 1.25 2.06 2.51 0 .05-.01.12-.02.16zm2.69.256s-.45 2.724-.89 6.835c-.25 2.063-.48 4.473-.653 7.063-.25 2.587-.29 5.34-.39 8.11-.146 2.77.095 5.51.113 8.107-.02 1.305.255 2.513.35 3.69.146 1.174.275 2.282.396 3.306.053 1.06.45 1.9.624 2.72.217.81.41 1.5.566 2.08l.49 1.82.04.16c.105.39-.123.79-.508.9-.372.1-.756-.1-.884-.46l-.646-1.85c-.206-.58-.46-1.31-.75-2.13-.235-.84-.722-1.75-.848-2.8-.2-1.04-.415-2.18-.646-3.38-.192-1.2-.557-2.47-.63-3.79-.21-2.63-.642-5.46-.69-8.28-.1-2.82-.252-5.65-.182-8.3-.01-2.65.414-5.12.52-7.23.164-4.24.798-7.06.798-7.06v-.04c0-1.26.87-2.19 2.133-2.07 1.26.12 2 1.24 1.89 2.49 0 .05-.19.1-.2.16zm5.392.453s-1.204 11.638-1.645 23.353c-.17 2.923-.158 5.844-.182 8.584-.09 2.748.15 5.27.21 7.46.01 2.207.46 3.927.59 5.192.18 1.253.287 1.965.287 1.965l.02.133c.058.4-.223.77-.62.83-.38.054-.733-.2-.82-.57 0 0-.155-.73-.432-2.012-.226-1.284-.813-3.13-.97-5.342-.208-2.21-.624-4.803-.717-7.57-.15-2.773-.36-5.733-.39-8.69-.33-11.812.11-23.648.11-23.648.05-1.265 1.1-2.25 2.37-2.21 1.27.036 2.26 1.098 2.21 2.364v.16zm5.372.594c0 .003-1.327 11.56-1.868 23.198-.188 2.91-.196 5.808-.247 8.53-.11 2.736.123 5.24.167 7.42-.004 2.192.446 3.9.566 5.158.18 1.24.276 1.952.276 1.952l.024.135c.06.402-.22.77-.622.825-.38.055-.733-.195-.813-.565 0 0-.155-.73-.434-2.004-.21-1.278-.8-3.118-.94-5.316-.19-2.2-.6-4.785-.67-7.532-.14-2.762-.32-5.706-.33-8.645-.23-11.752.34-23.52.34-23.52.06-1.26 1.13-2.24 2.39-2.188 1.27.057 2.25 1.13 2.19 2.39 0 .05 0 .117-.01.162zm7.915 1.516l-.73 1.756c-.44 1.1-1.067 2.67-1.72 4.65-.73 1.94-1.364 4.26-2.084 6.76-.73 2.48-1.18 5.21-1.813 7.91-.18 1.37-.353 2.73-.525 4.07-.138 1.35-.422 2.68-.422 3.97-.008 1.29-.014 2.53-.02 3.71.02 1.18-.073 2.31.04 3.33.646 4.07 1.075 6.79 1.075 6.79l.027.15c.065.39-.21.77-.608.83-.378.06-.736-.19-.824-.55l-1.615-7c-.19-1.06-.18-2.23-.28-3.46-.083-1.23-.163-2.54-.25-3.88-.083-1.35.11-2.72.148-4.14.085-1.41.17-2.84.26-4.28.452-2.82.73-5.69 1.306-8.3.564-2.63 1.06-5.08 1.673-7.15.53-2.07 1.082-3.81 1.48-5.02.395-1.18.628-1.87.628-1.87.4-1.2 1.7-1.84 2.9-1.44 1.197.41 1.84 1.71 1.44 2.91l-.055.14-.03.07z"/><path fill="#ff0" d="M51.095 80.553s32.1-61.727 101.32-20.585l22.793-19.146s-28.72 9.162-28.157-19.838c0 0-48.29 30.52-59.73-9.922 0 0-14.98 44.66-36.35 31.285 0 0 3.91 32.97-20.68 37.855l20.83.35z"/><path fill="#333" d="M183.403 115.48c3.188 0 6.322 1.51 8.28 4.292 0 0 2.313 3.3 5.495 8.39 3.22 5.076 7.304 11.983 11.224 19.015 3.915 7.04 7.666 14.19 10.292 19.8 1.33 2.83 2.327 5.152 3.085 7.177.18.48.33.91.47 1.29.19.575.37 1.245.48 1.7.22.96.29 1.463.29 1.463.03.262.04.52.04.776 2.79 8.295 5.83 23.516-4.7 33.266-6.57 6.08-15.87 8-24.71 8-6.53 0-12.81-1.05-17.53-2.25-.76.65-1.65 1.39-2.76 2.14-1.71 1.32-3.9 2.64-6.29 4-1.25.6-2.54 1.21-3.86 1.84-1.37.51-2.75 1.06-4.17 1.51-4.48 1.4-9.2 2.03-13.22 2.03-1.11 0-2.16-.05-3.14-.14-2.28-.16-4.2-.55-5.58-.85-.69-.17-1.24-.31-1.76-.48l-.58-.18c-3.66-1.17-5.67-5.08-4.5-8.73.46-1.45 1.36-2.64 2.51-3.48-4.07-.93-6.45-1.83-7.06-2.08-5.16-2.1-7.64-7.99-5.54-13.14.88-2.15 2.42-3.82 4.28-4.9-3.07-1.05-4.87-1.86-5.12-1.98-5.06-2.32-7.27-8.31-4.95-13.37 1.7-3.69 5.35-5.86 9.17-5.86 1.4 0 2.81.29 4.16.9.36.16 13.22 5.77 31.58 5.77 1.15 0 2.32-.02 3.52-.07-.18-.45-.34-.91-.48-1.38-24.57-.61-41.21-12.03-42.01-12.59-4.56-3.19-5.67-9.48-2.48-14.03 1.96-2.8 5.09-4.3 8.27-4.3 1.98 0 3.97.58 5.72 1.79.32.22 13.57 9 32.6 9 2.38 0 4.85-.14 7.39-.45.39-.05.77-.07 1.15-.07.5 0 .99 0 1.47.07.18 0 .27-.03.27-.03h.28c12.05 0 14.81-4.81 15.44-6.97-3.65-4.83-7.1-9.44-9.77-13.18-3.5-4.83-5.69-8.1-5.69-8.1-3.08-4.64-1.82-10.89 2.81-13.97 1.71-1.14 3.65-1.68 5.56-1.68m0-3c-2.58 0-5.08.75-7.23 2.19-6 3.99-7.64 12.12-3.65 18.13.1.14 2.27 3.39 5.76 8.21 2.15 3 4.94 6.74 8.71 11.74-1.13 1.53-4.11 3.62-11.94 3.62h-.18c-.02 0-.06.03-.1.03-.58-.08-1.16-.09-1.73-.09-.51 0-1.02.04-1.51.1-2.32.28-4.68.43-7.03.43-18.05 0-30.8-8.41-30.93-8.49-2.16-1.5-4.73-2.3-7.4-2.3-4.27 0-8.28 2.08-10.73 5.58-4.14 5.9-2.69 14.07 3.21 18.21.18.12 1.3.89 3.25 2.01-4.42.58-8.31 3.39-10.2 7.5-1.46 3.17-1.59 6.73-.38 10 1.22 3.27 3.63 5.88 6.81 7.34.07.03.33.15.79.34-.59.82-1.08 1.72-1.47 2.67-1.32 3.24-1.3 6.79.06 10.01 1.36 3.22 3.88 5.72 7.12 7.04.41.16 1.45.56 3.11 1.06-.11.26-.2.52-.29.79-.81 2.53-.59 5.23.63 7.59 1.22 2.36 3.28 4.1 5.8 4.91 0 0 .21.07.59.19.61.2 1.22.35 1.93.53l.05.01.05.01c1.18.26 3.37.73 5.96.9 1.07.1 2.21.15 3.38.15 4.64 0 9.65-.77 14.12-2.17 1.2-.39 2.33-.82 3.42-1.23l.91-.34.12-.05.11-.06 1.6-.77c.76-.37 1.52-.72 2.25-1.08l.1-.05.09-.06c2.15-1.23 4.61-2.68 6.56-4.18.65-.45 1.23-.89 1.76-1.31 3.75.86 9.92 1.98 16.76 1.98 11.44 0 20.44-2.97 26.74-8.81 11.59-10.73 8.61-26.96 5.65-35.98-.01-.22-.03-.43-.05-.64-.02-.11-.1-.71-.34-1.77-.06-.24-.27-1.13-.56-1.98l-.01-.04-.01-.03c-.15-.39-.3-.82-.49-1.3-.79-2.11-1.83-4.53-3.18-7.4-2.5-5.34-6.19-12.44-10.39-19.98-3.88-6.97-8-13.95-11.31-19.16-3.17-5.08-5.47-8.37-5.57-8.51-2.45-3.49-6.47-5.57-10.74-5.57z"/></svg>