<?xml version="1.0" encoding="utf-8"?>
<!-- Generator: Adobe Illustrator 16.0.0, SVG Export Plug-In . SVG Version: 6.00 Build 0)  -->
<!DOCTYPE svg PUBLIC "-//W3C//DTD SVG 1.1//EN" "http://www.w3.org/Graphics/SVG/1.1/DTD/svg11.dtd">
<svg version="1.1" id="Layer_1" xmlns="http://www.w3.org/2000/svg" xmlns:xlink="http://www.w3.org/1999/xlink" x="0px" y="0px"
	 width="256px" height="256px" viewBox="0 0 256 256" enable-background="new 0 0 256 256" xml:space="preserve">
<g>
	<path fill="#FAC283" d="M54.916,156.765c0,0-6.5-27.25,7.25-35s29-5.25,29-5.25"/>
	<path fill="#D39D6C" d="M104.083,116.68c0,0-44.953-8.563-49.275,43.296c0,0,24.582,22,37.72,21.73
		c13.14-0.271,21.564-41.41,21.564-41.41l-10.01-23.61L104.083,116.68z"/>
	<path fill="#FAC283" d="M86.548,158.391c-0.057,0.17,0.12-0.16,0.08,0.324c0.025,0.368-0.02,0.996-0.063,1.83
		c-0.092,1.67-0.235,4.174-0.225,6.964c0.022,2.813,0.266,5.836,0.832,8.818c0.614,2.979,1.657,5.939,3.583,9.074
		c0.47,0.789,1.067,1.513,1.612,2.335l0.026,0.04l0.01,0.02c0.075,0.06-0.57-0.46-0.287-0.23l0.1,0.091l0.2,0.189l0.39,0.36
		l0.53,0.479c0.2,0.21,0.6,0.561,1.13,0.98c1.9,1.57,4.03,3.11,6.04,4.649c4.06,3.061,7.99,5.801,11.29,8.11
		c3.32,2.271,6.04,4.061,7.79,5.13l2.4,1.46l1.78,1.08c4.44,2.69,5.86,8.48,3.171,12.931c-2.101,3.46-6.081,5.079-9.831,4.359
		l-1.39-0.27c-0.97-0.181-2.13-0.46-3.59-0.84c-2.85-0.78-6.6-1.98-10.83-3.671c-4.27-1.649-9.04-3.75-14.1-6.21
		c-2.55-1.21-5.1-2.58-7.86-4.119c-0.64-0.351-1.39-0.801-2.34-1.41l-1.18-0.771l-0.45-0.29l-0.22-0.149l-0.11-0.07l-0.39-0.29
		l-0.07-0.05c-1.6-1.03-3.14-2.181-4.63-3.45c-6.05-4.98-10.98-12.02-13.67-19.17c-2.81-7.16-3.46-14.19-3.23-19.88
		c0.23-5.75,1.35-10.28,2.39-13.44c0.52-1.59,1.02-2.84,1.43-3.75c0.36-0.79,2.37-8.97,2.31-8.8c2.91-8.01,10.17-4.96,18.17-2.06
		c8.01,2.909,12.15,11.76,9.25,19.76L86.548,158.391z M90.561,194.951l-20.182-13.082c0,0,26.623-18.19,18.084-46.832
		c0,0,1.168-20.03,21.378-21.817c0,0,18.948-7.732,25.076,3.295c0,0,7.543-10.764,17.75-11c10.206-0.24,19.689,13.925,21.061,24.832
		c0,0,14.439-15.582,26.3,4.397c0.69,1.75,1.46,4.9,2.14,9.021c3.221,19.64-2.369,64.339-26.629,84.399
		c-29.35,24.27-72.511-5.311-72.511-5.311l-12.461-27.908L90.561,194.951z"/>
	<path fill="#E2AB74" d="M133.632,133.494c0,0-1.222,15.891-0.202,24.732C133.43,158.227,152.729,145.664,133.632,133.494
		L133.632,133.494z M172.336,143.713c0,0-2.802,19.666-4.462,28.408C167.874,172.121,187.004,161.094,172.336,143.713
		L172.336,143.713z M176.852,156.109c0,0,1.904,50.945-4.394,65.078c-2.667,5.983-11.374,3.45-11.374,3.45l6.79-52.517
		c0,0,7.56-12.316,8.978-16.01V156.109z M139.338,148.36c0,0,2.73,47.029-1.68,61.853c-2.035,6.84-11.376,3.456-11.376,3.456
		l7.323-62.022C133.605,151.646,137.919,152.049,139.338,148.36L139.338,148.36z"/>
	<path fill="#A67C52" d="M108.271,141.395c0,0,21.308-0.649,42.501,1.424c10.597,1.006,21.164,1.991,28.99,3.762
		c1.965,0.416,3.747,0.605,5.315,1.09c1.569,0.471,2.96,0.658,4.05,1.137c2.21,0.842,3.471,1.26,3.471,1.26
		c0.42,0.154,0.629,0.59,0.469,1c-0.149,0.414-0.59,0.6-1,0.467l-0.09-0.041c0,0-1.229-0.416-3.39-1.142
		c-1.05-0.412-2.44-0.67-3.979-1.063c-1.541-0.412-3.311-0.77-5.25-1.092c-7.75-1.435-18.271-2.471-28.811-3.061
		c-21.1-1.205-42.23-0.684-42.23-0.684c-1.38,0.035-2.53-0.09-2.56-1.471c-0.03-1.376,1.06-1.585,2.44-1.585h0.11L108.271,141.395z
		 M108.133,146.395c0,0,21.308,0.355,42.505,2.42c10.59,1.022,21.164,2.504,28.989,4.278c1.96,0.399,3.75,0.848,5.318,1.332
		c1.565,0.463,2.95,0.788,4.047,1.264c2.207,0.839,3.465,1.32,3.465,1.32c0.42,0.157,0.628,0.626,0.466,1.038
		c-0.152,0.404-0.597,0.609-1,0.48l-0.093-0.039l-3.397-1.137c-1.051-0.41-2.438-0.662-3.98-1.063
		c-1.54-0.41-3.309-0.767-5.257-1.096c-7.755-1.431-18.271-2.471-28.815-3.059c-21.1-1.205-42.23-0.687-42.23-0.687
		c-1.382,0.037-2.534-1.086-2.57-2.463c-0.034-1.388,1.065-2.593,2.443-2.593C108.061,146.396,108.104,146.396,108.133,146.395
		L108.133,146.395z M107.858,155.395c0,0,21.306,0.868,42.501,2.936c10.6,1.018,21.17,2.748,29,4.52
		c1.955,0.414,3.742,0.984,5.313,1.469c1.57,0.467,2.95,0.848,4.051,1.323c2.205,0.845,3.461,1.356,3.461,1.356
		c0.418,0.156,0.631,0.644,0.469,1.052c-0.155,0.403-0.601,0.62-1.006,0.483l-0.08-0.029c0,0-1.229-0.41-3.399-1.141
		c-1.05-0.41-2.43-0.66-3.97-1.06c-1.54-0.41-3.311-0.771-5.26-1.09c-7.75-1.44-18.271-2.47-28.811-3.06
		c-21.1-1.21-42.23-0.69-42.23-0.69c-1.39,0.03-2.53-1.59-2.57-2.979c-0.04-1.391,1.06-3.11,2.44-3.11h0.11L107.858,155.395z
		 M107.59,168.395c0,0,21.306-0.624,42.503,1.44c10.592,1.02,21.164,2.01,28.99,3.784c1.962,0.405,3.747,0.605,5.318,1.09
		c1.564,0.47,2.953,0.66,4.046,1.135c2.21,0.84,3.467,1.26,3.467,1.26c0.41,0.15,0.62,0.59,0.46,1c-0.15,0.4-0.6,0.59-1,0.46
		l-0.09-0.05c0,0-1.24-0.41-3.4-1.141c-1.05-0.409-2.439-0.67-3.979-1.06c-1.54-0.42-3.31-0.771-5.261-1.1
		c-7.76-1.44-18.279-2.47-28.819-3.06c-21.101-1.2-42.23-0.681-42.23-0.681c-1.39,0.03-2.54-0.109-2.57-1.489
		c-0.03-1.391,1.06-1.62,2.44-1.62h0.11L107.59,168.395z M106.576,181.595c0,0,5.217-1.25,13.02-2.39
		c7.828-1.141,18.348-2.145,28.9-2.037c5.271,0.104,10.543,0.42,15.453,1.058c2.441,0.41,4.826,0.62,7.037,1.14
		c2.221,0.521,4.33,0.9,6.24,1.44c1.891,0.58,3.631,1.12,5.17,1.58c1.541,0.46,2.811,1.12,3.891,1.53l3.35,1.39
		c0.41,0.17,0.61,0.64,0.44,1.06c-0.16,0.4-0.61,0.601-1.011,0.45l-0.079-0.03c0,0-1.21-0.439-3.32-1.22
		c-1.069-0.35-2.31-0.94-3.84-1.319c-1.521-0.391-3.229-0.84-5.09-1.34c-1.88-0.44-3.96-0.73-6.13-1.141
		c-2.17-0.42-4.521-0.529-6.91-0.83c-4.811-0.43-9.98-0.529-15.141-0.42c-10.319,0.32-20.58,1.721-28.18,3.141
		c-7.63,1.439-12.52,2.83-12.52,2.83c-1.33,0.38-2.72-0.4-3.1-1.73c-0.38-1.33,0.39-2.71,1.73-3.09c0.04-0.01,0.07-0.021,0.1-0.021
		l0.04-0.01L106.576,181.595z"/>
	<path fill="#FAC283" d="M96.545,127.463c0,0-0.33-2.03-0.422-10.37c-0.045-8.346,0.047-22.45-0.38-33.576
		c-0.54-11.124-0.47-22.792-1.12-31.141c-0.66-8.34-1.155-13.905-1.155-13.905c-0.99-10.106,6.42-19.103,16.533-20.09
		c10.11-0.99,19.121,6.405,20.108,16.513c0.113,1.189,0.111,2.46,0,3.609c0,0,1.721,31.561,1.158,42.681
		c-0.447,11.12,1.725,25.57,1.664,33.91c-0.11,8.34-6.773,12.399-6.773,12.399c0.18,7.96-6.511,14.561-14.48,14.741
		c-7.97,0.18-15.13-6.131-15.13-14.101v-0.68L96.545,127.463z"/>
	<path fill="#FFFFFF" d="M101.775,37.081c0,0-0.91-9.449,6.095-10.283c7.004-0.838,17.564,0.83,17.298,12.109
		c0,0,0.15,4.601-3.19,4.601c-3.345,0-13.39-2.396-16.634-2.095c-3.65,0.33-3.57-4.34-3.57-4.34L101.775,37.081z"/>
	<path fill="#FAC283" d="M127.259,90.493c0,0,3.847,21.381,10.87,34.184l-22.173,2.803l-2.502-40.117L127.259,90.493L127.259,90.493
		z"/>
	<path fill="#FAC283" d="M104.083,116.68c0,0-44.953-8.563-49.275,43.296c0,0,24.582,22,37.72,21.73
		c13.14-0.271,21.564-41.41,21.564-41.41l-10.01-23.61L104.083,116.68z"/>
	<path fill="#FAC283" d="M86.548,158.391c-0.057,0.17,0.12-0.16,0.08,0.324c0.025,0.368-0.02,0.996-0.063,1.83
		c-0.092,1.67-0.235,4.174-0.225,6.964c0.022,2.813,0.266,5.836,0.832,8.818c0.614,2.979,1.657,5.939,3.583,9.074
		c0.47,0.789,1.067,1.513,1.612,2.335l0.026,0.04l0.01,0.02c0.075,0.06-0.57-0.46-0.287-0.23l0.1,0.091l0.2,0.189l0.39,0.36
		l0.53,0.479c0.2,0.21,0.6,0.561,1.13,0.98c1.9,1.57,4.03,3.11,6.04,4.649c4.06,3.061,7.99,5.801,11.29,8.11
		c3.32,2.271,6.04,4.061,7.79,5.13l2.4,1.46l1.78,1.08c4.44,2.69,5.86,8.48,3.171,12.931c-2.101,3.46-6.081,5.079-9.831,4.359
		l-1.39-0.27c-0.97-0.181-2.13-0.46-3.59-0.84c-2.85-0.78-6.6-1.98-10.83-3.671c-4.27-1.649-9.04-3.75-14.1-6.21
		c-2.55-1.21-5.1-2.58-7.86-4.119c-0.64-0.351-1.39-0.801-2.34-1.41l-1.18-0.771l-0.45-0.29l-0.22-0.149l-0.11-0.07l-0.39-0.29
		l-0.07-0.05c-1.6-1.03-3.14-2.181-4.63-3.45c-6.05-4.98-10.98-12.02-13.67-19.17c-2.81-7.16-3.46-14.19-3.23-19.88
		c0.23-5.75,1.35-10.28,2.39-13.44c0.52-1.59,1.02-2.84,1.43-3.75c0.36-0.79,2.37-8.97,2.31-8.8c2.91-8.01,10.17-4.96,18.17-2.06
		c8.01,2.909,12.15,11.76,9.25,19.76L86.548,158.391z M90.561,194.951l-20.182-13.082c0,0,26.623-18.19,18.084-46.832
		c0,0,1.168-20.03,21.378-21.817c0,0,18.948-7.732,25.076,3.295c0,0,6.877-11.431,17.084-11.667
		c10.206-0.24,20.355,14.592,21.727,25.499c0,0,14.439-15.582,26.3,4.397c0.69,1.75,1.46,4.9,2.14,9.021
		c3.221,19.64-2.369,64.339-26.629,84.399c-29.35,24.27-72.511-5.311-72.511-5.311l-12.461-27.908L90.561,194.951z"/>
	<path fill="#E2AB74" d="M133.965,124.494c0,0-1.222,15.891-0.202,24.732C133.763,149.227,153.062,136.664,133.965,124.494
		L133.965,124.494z"/>
	<path fill="#E2AB74" d="M172.669,134.713c0,0-2.802,19.666-4.462,28.408C168.207,163.121,187.337,152.094,172.669,134.713
		L172.669,134.713z"/>
	<path fill="#E2AB74" d="M177.185,147.109c0,0,1.904,50.945-4.394,65.078c-2.667,5.983-11.374,3.45-11.374,3.45l6.79-52.517
		c0,0,7.56-12.316,8.978-16.01V147.109z"/>
	<path fill="#E2AB74" d="M139.671,139.36c0,0,2.73,47.029-1.68,61.853c-2.035,6.84-11.376,3.456-11.376,3.456l7.323-62.022
		C133.938,142.646,138.252,143.049,139.671,139.36L139.671,139.36z"/>
	<path fill="#A67C52" d="M108.271,141.395c0,0,21.308-0.649,42.501,1.424c10.597,1.006,21.164,1.991,28.99,3.762
		c1.965,0.416,3.747,0.605,5.315,1.09c1.569,0.471,2.96,0.658,4.05,1.137c2.21,0.842,3.471,1.26,3.471,1.26
		c0.42,0.154,0.629,0.59,0.469,1c-0.149,0.414-0.59,0.6-1,0.467l-0.09-0.041c0,0-1.229-0.416-3.39-1.142
		c-1.05-0.412-2.44-0.67-3.979-1.063c-1.541-0.412-3.311-0.77-5.25-1.092c-7.75-1.435-18.271-2.471-28.811-3.061
		c-21.1-1.205-42.23-0.684-42.23-0.684c-1.38,0.035-2.53-0.09-2.56-1.471c-0.03-1.376,1.06-1.585,2.44-1.585h0.11L108.271,141.395z
		 M108.133,146.395c0,0,21.308,0.355,42.505,2.42c10.59,1.022,21.164,2.504,28.989,4.278c1.96,0.399,3.75,0.848,5.318,1.332
		c1.565,0.463,2.95,0.788,4.047,1.264c2.207,0.839,3.465,1.32,3.465,1.32c0.42,0.157,0.628,0.626,0.466,1.038
		c-0.152,0.404-0.597,0.609-1,0.48l-0.093-0.039l-3.397-1.137c-1.051-0.41-2.438-0.662-3.98-1.063
		c-1.54-0.41-3.309-0.767-5.257-1.096c-7.755-1.431-18.271-2.471-28.815-3.059c-21.1-1.205-42.23-0.687-42.23-0.687
		c-1.382,0.037-2.534-1.086-2.57-2.463c-0.034-1.388,1.065-2.593,2.443-2.593C108.061,146.396,108.104,146.396,108.133,146.395
		L108.133,146.395z M107.858,155.395c0,0,21.306,0.868,42.501,2.936c10.6,1.018,21.17,2.748,29,4.52
		c1.955,0.414,3.742,0.984,5.313,1.469c1.57,0.467,2.95,0.848,4.051,1.323c2.205,0.845,3.461,1.356,3.461,1.356
		c0.418,0.156,0.631,0.644,0.469,1.052c-0.155,0.403-0.601,0.62-1.006,0.483l-0.08-0.029c0,0-1.229-0.41-3.399-1.141
		c-1.05-0.41-2.43-0.66-3.97-1.06c-1.54-0.41-3.311-0.771-5.26-1.09c-7.75-1.44-18.271-2.47-28.811-3.06
		c-21.1-1.21-42.23-0.69-42.23-0.69c-1.39,0.03-2.53-1.59-2.57-2.979c-0.04-1.391,1.06-3.11,2.44-3.11h0.11L107.858,155.395z
		 M107.59,168.395c0,0,21.306-0.624,42.503,1.44c10.592,1.02,21.164,2.01,28.99,3.784c1.962,0.405,3.747,0.605,5.318,1.09
		c1.564,0.47,2.953,0.66,4.046,1.135c2.21,0.84,3.467,1.26,3.467,1.26c0.41,0.15,0.62,0.59,0.46,1c-0.15,0.4-0.6,0.59-1,0.46
		l-0.09-0.05c0,0-1.24-0.41-3.4-1.141c-1.05-0.409-2.439-0.67-3.979-1.06c-1.54-0.42-3.31-0.771-5.261-1.1
		c-7.76-1.44-18.279-2.47-28.819-3.06c-21.101-1.2-42.23-0.681-42.23-0.681c-1.39,0.03-2.54-0.109-2.57-1.489
		c-0.03-1.391,1.06-1.62,2.44-1.62h0.11L107.59,168.395z M106.576,181.595c0,0,5.217-1.25,13.02-2.39
		c7.828-1.141,18.348-2.145,28.9-2.037c5.271,0.104,10.543,0.42,15.453,1.058c2.441,0.41,4.826,0.62,7.037,1.14
		c2.221,0.521,4.33,0.9,6.24,1.44c1.891,0.58,3.631,1.12,5.17,1.58c1.541,0.46,2.811,1.12,3.891,1.53l3.35,1.39
		c0.41,0.17,0.61,0.64,0.44,1.06c-0.16,0.4-0.61,0.601-1.011,0.45l-0.079-0.03c0,0-1.21-0.439-3.32-1.22
		c-1.069-0.35-2.31-0.94-3.84-1.319c-1.521-0.391-3.229-0.84-5.09-1.34c-1.88-0.44-3.96-0.73-6.13-1.141
		c-2.17-0.42-4.521-0.529-6.91-0.83c-4.811-0.43-9.98-0.529-15.141-0.42c-10.319,0.32-20.58,1.721-28.18,3.141
		c-7.63,1.439-12.52,2.83-12.52,2.83c-1.33,0.38-2.72-0.4-3.1-1.73c-0.38-1.33,0.39-2.71,1.73-3.09c0.04-0.01,0.07-0.021,0.1-0.021
		l0.04-0.01L106.576,181.595z"/>
	<path fill="#FAC283" d="M96.545,127.463c0,0-7.122,12.392-7.213,4.052c-0.045-8.346,3.094-35.541,2.667-46.667
		c-0.54-11.124-0.958-22.527,0.667-32.333c-0.66-8.34,0.803-14.044,0.803-14.044c-0.99-10.106,6.42-19.103,16.533-20.09
		c10.11-0.99,19.121,6.405,20.108,16.513c0.113,1.189,0.111,2.46,0,3.609c0,0,1.721,31.561,1.158,42.681
		c-0.447,11.12,1.725,25.57,1.664,33.91c-0.11,8.34-6.773,12.399-6.773,12.399c0.18,7.96-6.511,14.561-14.48,14.741
		c-7.97,0.18-15.13-6.131-15.13-14.101v-0.68L96.545,127.463z"/>
	<path fill="#FAC283" d="M127.259,90.493c0,0,3.847,21.381,10.87,34.184l-22.173,2.803l-2.502-40.117L127.259,90.493L127.259,90.493
		z"/>
	<path fill="#E2AB74" d="M90.166,116.348c0,0-15.25,26.667-14.5,42.167c0,0-5.5-16.75-1.75-25.25s9.708-17.084,9.708-17.084
		L90.166,116.348z"/>
	<path fill="#E2AB74" d="M100.416,79.265c0,0,16.5,13.25,27,1.25v-8.75c0,0-11.75,7.25-26.75,1
		C100.666,72.765,96.666,74.015,100.416,79.265z"/>
	<path fill="#E2AB74" d="M104.916,28.015c0,0-8.75,4.75-3.5,15.5s24.506,6.035,23.753-4.607"/>
	<path fill="#FFFFFF" d="M101.775,37.081c0,0-0.91-9.449,6.095-10.283c7.004-0.838,17.564,0.83,17.298,12.109
		c0,0,0.15,4.601-3.19,4.601c-3.345,0-13.39-2.396-16.634-2.095c-3.65,0.33-3.57-4.34-3.57-4.34L101.775,37.081z"/>
	<path fill="#333333" d="M53.004,168.854c0-0.721,0.015-1.424,0.042-2.107c0.176-4.396,0.873-8.073,1.656-10.977
		c-0.421-2.076-1.324-7.198-1.323-12.951c0-7.936,1.718-17.069,8.787-21.054c11.171-6.296,23.332-5.827,27.501-5.43l0.499,0.013
		c0,0-0.014,0.024-0.021,0.036c0.034,0.004,0.062,0.007,0.094,0.011c0.787-9.942,1.8-21.823,1.8-29.232
		c0-0.83-0.013-1.605-0.04-2.314c-0.254-5.234-0.481-10.529-0.481-15.692c0-5.809,0.288-11.449,1.147-16.641
		c-0.122-1.536-0.171-2.981-0.171-4.319c0-5.927,0.974-9.725,0.974-9.725c-0.06-0.608-0.089-1.211-0.089-1.81
		c0-9.35,7.118-17.353,16.622-18.28c10.11-0.99,19.121,6.405,20.108,16.513c0.057,0.592,0.084,1.204,0.084,1.812
		c0,0.613-0.028,1.221-0.084,1.798c0,0,1.271,23.316,1.271,36.928c0,2.225-0.034,4.191-0.113,5.753
		c-0.042,1.042-0.061,2.111-0.061,3.204c0,9.324,1.382,20.207,1.67,27.832c0.303,0.9,0.619,1.801,0.945,2.695
		c0.396,0.486,0.767,1.011,1.094,1.6c0,0,6.877-11.431,17.084-11.667c4.197-0.099,8.385,2.354,11.956,6.034
		c5.136,5.072,8.94,12.862,9.771,19.465c0,0,14.439-15.582,26.3,4.397c0.69,1.75,1.46,4.9,2.14,9.021
		c0.538,3.283,0.83,7.265,0.83,11.716c0,22.178-7.255,55.977-27.459,72.684c-26.051,21.542-62.979,0.661-70.952-4.306
		c-1.058-0.384-2.154-0.8-3.289-1.253c-4.27-1.649-9.04-3.75-14.1-6.21c-2.55-1.21-5.1-2.58-7.86-4.119
		c-0.64-0.351-1.39-0.801-2.34-1.41l-1.18-0.771l-0.45-0.29l-0.22-0.149l-0.11-0.07l-0.39-0.29l-0.07-0.05
		c-1.6-1.03-3.14-2.181-4.63-3.45c-6.05-4.98-10.98-12.02-13.67-19.17C53.804,180.326,53.004,174.128,53.004,168.854
		 M45.004,168.853L45.004,168.853c0,7.245,1.28,14.189,3.804,20.643c3.216,8.52,9.043,16.688,16,22.433
		c1.683,1.431,3.439,2.744,5.226,3.907l0.229,0.171l0.226,0.167l0.237,0.152l0.013,0.008l0.126,0.086l0.082,0.056l0.083,0.054
		l0.45,0.29l1.145,0.748l0.025,0.016l0.025,0.017c1.082,0.694,1.969,1.228,2.789,1.678c2.417,1.348,5.285,2.913,8.27,4.331
		c5.237,2.545,10.161,4.713,14.638,6.444c0.883,0.353,1.789,0.7,2.703,1.04c4.974,3.03,16.542,9.418,30.389,12.65
		c19.279,4.501,36.282,1.246,49.173-9.413c10.24-8.468,18.475-21.6,23.813-37.976c4.161-12.763,6.547-27.66,6.547-40.873
		c0-4.846-0.314-9.223-0.936-13.01c-0.529-3.212-1.408-7.661-2.593-10.662l-0.235-0.597l-0.327-0.551
		c-6.277-10.575-13.703-13.443-18.828-13.988c-3.612-0.384-6.913,0.246-9.756,1.306c-2.166-4.765-5.186-9.258-8.685-12.73
		c-5.498-5.64-11.659-8.543-17.824-8.398c-4.494,0.104-8.43,1.544-11.739,3.513c-0.438-5.406-0.866-10.952-0.866-15.975
		c0-1.002,0.018-1.958,0.053-2.844c0.08-1.61,0.121-3.666,0.121-6.113c0-12.671-1.058-33.121-1.254-36.813
		c0.044-0.627,0.066-1.267,0.066-1.912c0-0.867-0.04-1.732-0.12-2.57c-0.688-7.035-4.067-13.365-9.52-17.842
		c-5.451-4.476-12.316-6.562-19.332-5.874C95.63,11.746,85.379,23.027,85.379,36.661c0,0.412,0.01,0.827,0.029,1.243
		c-0.366,1.896-0.914,5.529-0.914,10.291c0,1.315,0.042,2.647,0.126,3.972c-0.742,4.872-1.103,10.442-1.103,16.988
		c0,5.496,0.251,11.159,0.488,16.04c0.021,0.579,0.033,1.241,0.033,1.967c0,5.298-0.566,13.277-1.172,21.009
		c-6.672,0.246-15.841,1.672-24.629,6.624c-5.866,3.307-12.858,10.852-12.859,28.023c0,5.098,0.611,9.693,1.137,12.706
		c-0.823,3.528-1.315,7.187-1.463,10.901C45.021,167.228,45.004,168.045,45.004,168.853L45.004,168.853z"/>
</g>
</svg>
