<svg xmlns="http://www.w3.org/2000/svg" width="256" height="256" viewBox="0 0 256 256"><path fill="#3FA9F5" stroke="#333" stroke-miterlimit="10" d="M93.12 174.628c0 2.784-2.09 5.253-4.875 5.253H29.438c-2.786 0-5.32-2.46-5.32-5.25v-38.71c0-2.78 2.534-5.03 5.32-5.03h58.807c2.786 0 4.874 2.25 4.874 5.05v38.72-.02zm93 0c0 2.784-2.27 5.253-5.058 5.253h-58.807c-2.786 0-5.138-2.46-5.138-5.25v-38.71c0-2.78 2.352-5.03 5.138-5.03h58.807c2.787 0 5.057 2.25 5.057 5.05v38.72-.02z"/><path fill="#fff" d="M128.953 180.048l32-46.334 12.666 2.334-30.34 45.666m7 2l27.33-46 4.66 1.667-27 43.67m-123.33-6l32-46.33 12.66 2.34-30.34 45.67m7 2l27.33-46 4.66 1.67-27 43.67"/><path fill="#333" d="M233.953 70.51c-23.864-8.348-55.198 43.084-61.522 53.99-30.23-3.11-51.65 3.078-60.27 6.004l-14.53-.41c-7.51-2.46-22.5-6.512-43.14-6.443 5.94-7.17 10.03-17.13 13.14-26.47 4.67-14 11.34-6 11.34-6s1.34 7.34 16-2.66-6-18-6-18c-25.35-8.87-59.12 49.69-62.41 55.53-3.68.42-12.12 1.89-14.73 6.57 0 0-4.37 13.12 2.02 15.14 6.39 2.02 2.02 24.89 14.47 32.29 12.45 7.4 41.66 7.08 55.5 5.38 3.61-.44 6.73-1.34 11.1-9.41 3.61-6.66 3.79-22.02 6.19-27.57 1.81-2.17 4.96-4.22 8.93.16 2.35 5.67 2.55 20.81 6.13 27.42 4.38 8.07 7.49 8.97 11.1 9.42 13.84 1.7 43.05 2.02 55.5-5.38 12.45-7.4 8.07-30.27 14.47-32.28 6.39-2.02 2.01-15.13 2.01-15.13-.22-.39-.48-.75-.77-1.09 7.08-8.5 10.53-23.36 14.18-34.32 4.67-14 11.33-6 11.33-6s1.33 7.33 16-2.67-6-18-6-18zM91.53 151.1c-4.036 21.19-4.036 20.854-7.4 25.563-1.802 2.524-35.314 4.036-47.422-.336-12.107-4.37-11.435-29.26-11.435-29.26 1.008-14.8 69.42-12.57 66.257 4.034zm82.788 25.225c-12.11 4.373-45.63 2.858-47.43.337-3.37-4.708-3.37-4.372-7.4-25.563-3.16-16.61 65.25-18.84 66.26-4.04h.005s.673 24.89-11.435 29.26z"/></svg>