<svg xmlns="http://www.w3.org/2000/svg" width="256" height="256" viewBox="0 0 256 256"><path fill="#00A99D" d="M206.006 195.56c0 7.114-6.586 12.82-14.715 12.82H64.71c-8.126 0-14.716-5.706-14.716-12.82l15.457-75.442c0-8.13 5.29-14.734 11.81-14.734h101.5c6.52 0 11.81 6.604 11.81 14.734l15.45 75.44z"/><path fill="#C69C6D" d="M91.943 127.88s-.31-2.66-.7-7.32c-.04-2.368-.237-5.308-.116-8.63.063-1.66.13-3.433.203-5.296.13-1.865.39-3.813.594-5.864.508-4.088 1.262-8.518 2.484-13.142.6-2.316 1.365-4.673 2.133-7.088.92-2.385 1.79-4.836 3.05-7.232 2.32-4.824 5.23-9.814 9.69-14.104 2.19-2.148 4.77-4.137 7.82-5.648 1.41-.88 3.24-1.242 4.87-1.823.82-.32 1.75-.302 2.63-.452l1.34-.14.68-.06.33-.03.17-.01h.08c.3.02-.56-.03.7.03l1.98.23.99.11.5.06.72.19c.96.26 1.92.55 2.86.86l1.4.48c.4.19.76.39 1.13.59 3.06 1.51 5.64 3.5 7.83 5.65 4.45 4.29 7.36 9.28 9.68 14.11 1.26 2.4 2.12 4.85 3.05 7.23.76 2.42 1.53 4.77 2.13 7.09 1.22 4.63 1.98 9.06 2.48 13.14.21 2.05.47 4 .6 5.87.08 1.87.14 3.64.21 5.3.12 3.32-.08 6.94-.12 9.31-.38 4.74-.69 8.14-.69 8.14h-2.94s-.43-3.37-1.05-7.92c-.43-2.26-.85-5.38-1.46-8.49-.62-3.11-1.41-6.77-2.38-10.51-1-3.74-2.25-7.8-3.71-11.89-1.53-4.06-3.36-8.29-5.6-12.28-2.15-4.04-4.98-7.81-8.08-10.76-1.55-1.48-3.24-2.68-4.95-3.48l-.62-.34-.49-.13c-.32-.09-.63-.21-.94-.36l-.23-.11-.49-.05-.99-.1-1.98-.19c1.22.07.31.02.57.04l-.04.01-.08.01-.16.02-.32.04-.64.07c-.42.08-.86-.04-1.29.17l-1.28.4c-.43.09-.87.25-1.28.52-1.71.8-3.4 2-4.95 3.48-3.11 2.95-5.94 6.7-8.09 10.74-2.23 3.99-4.07 8.17-5.6 12.24-1.46 4.11-2.71 8.07-3.71 11.8-.96 3.75-1.76 7.22-2.38 10.34L96 120.75c-.62 4.63-1.054 7.27-1.054 7.27L92 127.953z"/><path fill="#A67C52" d="M90.81 93.54l.173-1.168c.11-.72.3-1.96.64-3.492.685-2.98 1.626-7.295 3.57-12.342 1.944-5.043 4.7-10.93 9.497-16.705 2.424-2.85 5.37-5.754 9.277-8.012 3.902-2.26 8.648-3.86 13.984-3.72.49.03.62.01 1.5.1.71.07 1.54.16 2.1.28 1.23.22 2.43.52 3.58.9 2.31.75 4.42 1.79 6.31 2.96 3.77 2.37 6.64 5.29 8.99 8.17 2.38 2.88 4.15 5.85 5.67 8.67 1.51 2.82 2.65 5.56 3.6 8.09 1.91 5.06 2.83 9.37 3.5 12.36.6 3 .81 4.73.81 4.73l-12.97 3.13s-.54-1.44-1.48-3.97c-.92-2.51-2.41-6.03-4.38-9.98-1.99-3.93-4.58-8.34-7.82-11.94-1.59-1.81-3.39-3.28-5.09-4.32-1.78-1.03-3.16-1.48-4.94-1.49-1.22-.04-2.96.32-4.62 1.27-1.68.96-3.5 2.36-5.1 4.12-3.26 3.5-5.91 7.87-7.94 11.77-1.99 3.94-3.53 7.44-4.47 9.94l-1.53 4.02-12.81-3.32z"/><circle fill="#FCEE21" cx="128.37" cy="162.502" r="7.729"/><circle fill="#C69C6D" cx="93.169" cy="126.075" r="7.358"/><circle fill="#C69C6D" cx="160.875" cy="126.075" r="7.359"/><path fill="#333" d="M127.32 48.085c.208 0 .42.002.63.008.49.026.612.004 1.5.094.704.07 1.538.154 2.093.275 1.225.212 2.426.52 3.574.894 2.307.753 4.416 1.79 6.303 2.962 3.77 2.365 6.635 5.29 8.99 8.166 2.38 2.88 4.143 5.852 5.664 8.67 1.508 2.822 2.648 5.56 3.592 8.088 1.908 5.057 2.824 9.37 3.496 12.352.602 3 .81 4.727.81 4.727l-2.26.55c.365 2.03.66 4.01.896 5.91.16 1.61.338 3.13.478 4.62h15.67c6.52 0 11.804 6.61 11.804 14.74l15.45 75.44c0 7.12-6.587 12.82-14.716 12.82H64.71c-8.126 0-14.716-5.7-14.716-12.82l15.456-75.44c0-8.13 5.284-14.73 11.806-14.73H91.45c.14-1.48.316-3.01.475-4.61.266-2.14.604-4.37 1.036-6.67l-2.15-.55.18-1.17c.11-.72.3-1.96.64-3.49.69-2.98 1.63-7.29 3.57-12.34 1.95-5.04 4.7-10.93 9.5-16.7 2.43-2.85 5.37-5.75 9.28-8.01 3.75-2.17 8.28-3.73 13.36-3.73m-23.7 48.77l-2.08-.54c-.64 2.04-1.23 4.03-1.75 5.96-.27 1.06-.53 2.09-.77 3.11h56.46c-.23-.96-.47-1.94-.72-2.92-.47-1.78-1.01-3.63-1.6-5.52l-2.14.51s-.54-1.44-1.48-3.97c-.92-2.51-2.41-6.03-4.38-9.98-1.99-3.92-4.58-8.34-7.82-11.93-1.59-1.81-3.39-3.28-5.09-4.32-1.78-1.02-3.16-1.47-4.94-1.49h-.18c-1.2 0-2.86.38-4.43 1.28-1.68.96-3.5 2.37-5.1 4.13-3.26 3.5-5.91 7.87-7.94 11.76-1.99 3.94-3.53 7.43-4.47 9.94-.96 2.55-1.52 4.02-1.52 4.02m23.7-56.77c-6.02 0-11.86 1.62-17.37 4.81-4.1 2.37-7.71 5.47-11.35 9.75l-.06.07c-5.86 7.06-8.98 14.19-10.8 18.94-2.05 5.3-3.1 9.9-3.79 12.94l-.11.49-.02.06c-.38 1.75-.61 3.18-.72 3.95l-.01.06-.18 1.25c-.26 1.78.09 3.51.9 4.99H77.3c-10.66 0-19.38 9.72-19.788 21.85L42.202 194c-.11.53-.17 1.07-.17 1.61 0 11.48 10.198 20.82 22.72 20.82H191.3c12.524 0 22.715-9.34 22.715-20.82 0-.54-.054-1.08-.162-1.604l-15.303-74.72c-.405-12.13-9.126-21.85-19.788-21.85h-7.39c.51-1.236.72-2.61.55-4.02-.024-.21-.265-2.132-.908-5.35-.013-.06-.024-.12-.04-.183l-.127-.563c-.677-3.02-1.7-7.586-3.688-12.85-1.27-3.4-2.55-6.28-4.02-9.036-1.51-2.79-3.6-6.42-6.56-9.996-3.45-4.21-6.92-7.35-10.91-9.847-2.61-1.62-5.32-2.89-8.07-3.79-1.54-.5-3.06-.88-4.55-1.15-.88-.18-1.8-.28-2.81-.38-.82-.08-1.26-.1-1.68-.12l-.19-.01-.23-.01h-.83zM116.8 86.61c2.22-4.24 4.47-7.598 6.68-9.967l.07-.07c.93-1.02 2.07-1.95 3.14-2.55l.05-.03c.218-.125.428-.186.53-.207h.026c.15 0 .27 0 .914.36 1.12.707 2.247 1.67 3.18 2.735l.06.07c2.224 2.47 4.454 5.91 6.63 10.2 1.587 3.19 3.06 6.53 4.016 9.13l.423 1.15H112l.65-1.7c.936-2.5 2.428-5.81 4.1-9.12z"/><path fill="#048C7F" d="M190.555 120.116c0-3.522-.994-6.755-2.647-9.292-.003.034-.01.063-.01.097-.085 1-.276 2.01-.425 3.14-.33 2.25-.593 4.83-1.334 7.72-1.1 5.83-3.4 12.7-6.9 20.08-3.57 7.34-8.72 15.13-15.98 21.83-3.52 3.5-7.87 6.21-12.36 8.9l-3.58 1.66-1.81.85-1.91.61c-1.28.4-2.56.86-3.87 1.23-1.33.25-2.67.51-4.03.76-1.34.34-2.73.36-4.13.44l-2.09.14-1.05.07c-.17 0-.05.01.05.01h-.06l-.29-.02-.58-.03c-1.55-.08-3.1-.16-4.66-.25-1.55-.1-2.74-.48-4.14-.69-5.45-1.11-11.29-3.21-16.38-6.55-10.45-6.4-18.97-16.71-24.78-28.53-1.61-2.89-2.63-6.08-3.94-9.15-.91-3.21-2.16-6.35-2.76-9.68-1.16-4.43-1.76-8.99-2.13-13.58-2.08 2.66-3.36 6.29-3.36 10.29l-.97 4.72c.53 3.57 1.73 6.99 2.6 10.48 1.29 3.37 2.29 6.85 3.92 10.07 2.83 6.62 6.75 12.73 11.26 18.24 4.43 5.6 9.89 10.29 15.74 14.15 5.88 3.95 12.35 6.54 19.23 8.06 1.71.31 3.58.79 5.15.91 1.56.11 3.11.23 4.65.34l.58.04.29.02.15.02c-.01 0 .63.02.43.01l1.25-.07 2.49-.16c1.65-.12 3.31-.17 4.9-.56l4.78-.94c1.55-.44 3.06-.97 4.56-1.45l2.25-.75 2.13-.98c1.4-.66 2.8-1.32 4.19-1.98 2.55-1.64 5.29-2.97 7.49-4.9 1.14-.91 2.28-1.81 3.4-2.7 1.08-.93 2.06-1.95 3.07-2.91 8.01-7.82 13.34-16.63 16.92-24.76 2.87-6.66 4.81-12.84 5.95-18.3l-1.34-6.56z"/></svg>