<svg xmlns="http://www.w3.org/2000/svg" width="256" height="256" viewBox="0 0 256 256"><path fill="#ED1E79" d="M102.498 231.38c-.42 0-.836-.017-1.25-.035-.275-.012-.55-.024-.82-.026-.277 0-.557-.03-.835-.07-9.443-.06-17.258-.38-23.23-.96h-.137c-.11 0-.246-.01-.367-.02h-.16c-.25.05-.55.09-.88.09-.22 0-.52-.02-.73-.06-11.25-1.88-15.15-3.72-15.46-7.29-.01-.12-.02-.23-.02-.35 0-.08 0-.18.01-.25 2.1-35.57 11.88-70.64 29.08-104.27-.05-.26-.08-.52-.08-.79v-9c0-.6.13-1.16.37-1.67-2.94-5.72-5.1-12.73-6.43-20.93-.04-.24-.06-.47-.05-.71-.02-1.03.36-2.02 1.06-2.78 3.72-4.03 7.5-14.44 7.52-28.63-.01-8.17-1.31-15.94-3.66-21.88-.24-.6-.33-1.24-.26-1.87-.01-.73.17-1.46.54-2.1.61-1.04 1.64-1.78 2.83-1.97l6.22-.96c.21-.03.41-.05.62-.05 1.87 0 3.53 1.31 3.91 3.2 0 0 .17.81.57 2.12 7.14 2.51 17.41 3.98 27.98 3.98 9.45 0 18.76-1.2 25.8-3.3.21-.35.41-.71.6-1.06.32-1.11.46-1.82.46-1.82.38-1.89 2.03-3.23 3.93-3.23.11 0 .23 0 .35.01l6.7.59c1.27.11 2.41.82 3.07 1.91.41.67.6 1.45.57 2.22-.01.29-.06.59-.13.88-.42 1.58-.84 2.57-1.18 3.36-.14.31-.27.62-.4.98-1.86 5.88-2.93 13.05-2.93 19.67 0 4.21.25 8.2.74 11.85 1.22 8.06 3.62 14.37 6.41 16.82 1.05.93 1.54 2.33 1.3 3.71-1.25 6.96-3.11 13.02-5.56 18.11 1.2.69 2.02 1.99 2.02 3.48v9c0 1.08-.43 2.06-1.13 2.78 16.45 33.53 25.73 67.82 27.59 102 .06 1.09-.33 2.17-1.09 2.96-.06.07-.13.13-.19.19-.51.57-1.19 1.09-2.02 1.55-2 1.1-5.32 2.35-14.81 3.19-.6.11-1.13.15-1.48.18l-.27.02c-.11.02-.22.03-.32.04l-2.32.17-1.48.09c-5.7.34-12.54.52-20.31.52-6.71 0-14.23-.13-22.37-.39h-.12c-6 .22-11.3.38-17.63.48v-.03c-.23.02-.47.03-.72.04l-3.93.07c-.31.01-.62.01-.93.02-.14 0-.3.01-.45.01-.25.01-.5.02-.75.02-.41 0-.79.02-1.17.03-.5.02-.99.04-1.48.04h-.77v-.01z"/><path fill="#333" d="M159.63 28.77l6.702.593c-.003.007-.006.013-.01.017h-.075c.017 0 .034.02.05.02.01 0 .02-.006.025-.02h.01c-.523 2-1.02 2.74-1.497 4.083-1.856 5.84-3.138 13.396-3.138 20.946 0 4.42.268 8.58.783 12.38 1.336 8.83 3.98 15.99 7.74 19.29-1.508 8.4-4.082 16.23-8.217 22.29h4.614v9h-2.997c8.324 16.28 26.738 55 29.467 105h-.095s-.095.4-1.147.98c-1.447.8-4.228 1.91-13.228 2.7 0 .07-1.31.14-2.11.2-.035 0 .116 0 .08.01l-.973.07-.532.04-.77.05-.997.06c-.142.01-.284.02-.428.02-5.225.32-11.805.51-20.088.51-6.59 0-14.25-.13-23.15-.42l.65.02h-.21.06c-6.37.23-11.55.39-17.55.48 0 .01-.57.01-.95.02-.57.01-.95.02-1.51.03-.49 0-.96.02-1.44.02-.56.01-1.11.03-1.65.03-.41.01-.82.04-1.22.05-.89 0-1.75.07-2.6.07h-.77c-.7 0-1.38-.06-2.06-.06-.24 0-.47-.06-.71-.06-10.44-.06-17.92-.44-23.28-.97l-.04-.01c-.07 0-.14.01-.2.01h-.04c-.11-.01-.22-.02-.33-.02h-.31c-.11 0-.22 0-.32-.02h-.02c-.12 0-.27.1-.38.1h-.07c-11.99-2-12.14-3.69-12.14-3.69v-.01c3-50.95 21.68-89.46 29.99-105.3h-.99v-9h1.94c-4.15-6.38-6.66-14.56-8.07-23.24l.02-.03-.02-.1c5.05-5.44 8.56-17.47 8.59-31.34-.01-9.02-1.52-17.22-3.94-23.35l.17-.01c-.06-.16-.11-.33-.17-.49l6.22-.96s.36 1.76 1.28 4.4c7.42 3.01 18.82 4.92 31.2 4.92 10.89 0 21.03-1.5 28.36-3.91.81-1.15 1.39-2.19 1.77-2.96.47-1.53.66-2.53.66-2.53m-33.47 28.6l-2.1-.17c.68.08 1.38.13 2.1.17m33.47-36.55c-3.79 0-7.1 2.67-7.85 6.45l-.08.33c-6.44 1.68-14.57 2.63-22.87 2.63-9.2 0-18.1-1.14-24.68-3.11-.83-3.68-4.1-6.21-7.78-6.21-.41 0-.83.03-1.25.09l-6.22.96c-2.41.37-4.51 1.82-5.72 3.93-.74 1.3-1.1 2.76-1.05 4.22-.04 1.08.15 2.17.56 3.2C84.8 38.7 86 45.95 86.01 53.64c-.02 13.02-3.36 22.56-6.46 25.9-1.4 1.51-2.15 3.48-2.13 5.5 0 .45.03.9.1 1.35 1.29 7.95 3.34 14.87 6.12 20.69-.07.42-.1.84-.1 1.27v8.98c-17.13 33.82-26.88 69.07-28.99 104.85-.01.16-.02.31-.02.47 0 .23.01.48.03.71.63 7.27 8.88 9.23 18.79 10.88.43.07.87.11 1.31.11h.07c.42 0 .8-.03 1.16-.08h.21c5.97.57 13.77.89 23.15.95.27.03.64.06 1.07.06.21 0 .43.01.65.02.47.02.94.04 1.42.04h.77c.6 0 1.16-.02 1.65-.04.33-.01.66-.03 1-.03.34 0 .64-.01.95-.03.1 0 .2-.01.3-.01.31 0 .64-.01.98-.02.23 0 .45-.01.68-.01.29 0 .58-.01.87-.02l.59-.01c.3 0 .56-.01.83-.02l.67-.01h.28c.23 0 .45-.01.67-.02v.01c6.37-.09 11.69-.26 17.72-.48h.01c8.12.26 15.63.39 22.34.39 7.84 0 14.76-.18 20.57-.53l.34-.02.1-.01 1.02-.06.52-.03.28-.02.36-.024.2-.02 1.03-.08c.15-.01.29-.03.44-.05l.1-.01c.42-.03.84-.07 1.16-.09.3-.03.587-.07.866-.12 9.85-.91 13.48-2.28 15.92-3.64 1.23-.68 2.18-1.43 2.9-2.2l.28-.28c1.51-1.6 2.3-3.74 2.18-5.94-1.853-34.05-10.943-68.18-27.033-101.57.38-.93.58-1.94.58-2.994v-9c0-1.59-.46-3.07-1.26-4.32 2.04-4.84 3.63-10.38 4.74-16.563.5-2.76-.49-5.58-2.59-7.43-1.25-1.1-3.726-5.37-5.1-14.42-.47-3.46-.706-7.25-.706-11.26 0-6.19.99-12.88 2.72-18.37.076-.2.17-.42.29-.7.37-.86.88-2.05 1.37-3.92.18-.68.26-1.38.26-2.07-.01-1.43-.4-2.86-1.16-4.12-1.32-2.17-3.6-3.59-6.14-3.81l-6.7-.59c-.23-.02-.47-.03-.703-.03z"/><path fill="#1BA5AF" d="M163.044 31.87c-7.092 3.8-20.007 6.324-34.205 6.324-14.21 0-27.12-2.524-34.21-6.323l.24 3.8 1.73 19.28 56.72 4.58 7.74-20.06 1.97-7.58z"/><path fill="#26B2C4" d="M161.717 108.826c4.31-6.108 6.96-14.13 8.504-22.733-5.59-4.912-8.52-16.877-8.52-31.683 0-9.45 2.01-18.614 4.64-24.854l-6.7-.688s-5.75 28.512-31.37 28.512h-.52c-25.62 0-31.37-28.51-31.37-28.51l-6.22.96c2.44 6.165 3.95 14.645 3.95 23.71 0 13.926-3.52 26.018-8.59 31.48 1.5 9.18 4.19 17.89 8.78 24.406 0 0 1.82 1.39.44 3.985-6.63 12.44-28.77 53.38-31.8 109.27 0 0 0 6.48 67.44 3.99l-4.7-.16c67.44 2.49 67.44-4.13 67.44-4.13-2.92-53.89-23.82-94.06-31.07-108.1-1.83-3.54-.3-5.43-.3-5.43z"/><path fill="#1BA5AF" d="M112.992 227.16c3.33-28.45 8.954-89.47-3.11-96.707-12.69-7.61-29.03 66.236-34.984 95.64 7.322.815 19.11 1.386 38.094 1.066zM179 226.08c-8.1-32.723-25.897-99.19-34.994-90.568-9.36 8.87-2.205 66.53 1.402 91.5 15.895.202 26.53-.244 33.59-.933z"/><path fill="#ED1E79" d="M91.62 108.38h75v9h-75z"/></svg>