<svg xmlns="http://www.w3.org/2000/svg" width="256" height="256" viewBox="0 0 256 256"><path fill="#FCEE21" d="M154.79 132.682c-10.6 0-20.386-4.855-26.79-13-6.407 8.145-16.193 13-26.793 13-18.838 0-34.164-15.326-34.164-34.164 0-16.042 10.976-29.687 26.402-33.248.09-.244.184-.49.283-.74.533-1.612 1.058-3.646 1.56-6.048.495-2.6.906-5.167 1.21-7.562.715-5.55 1.12-11.065 1.332-14.717.23-3.99.29-6.643.29-6.67.024-1.098.5-2.138 1.313-2.875.738-.67 1.696-1.036 2.686-1.036.1 0 .2.004.3.012l7.82.6c1.09.083 2.1.61 2.79 1.457.69.85 1 1.94.87 3.03-.02.12-.37 2.97-1.05 7.14-.63 3.85-1.66 9.67-3.03 15.49-.62 2.66-1.37 5.45-2.22 8.29-.96 3.01-1.86 5.42-2.78 7.44-.03.06-.06.13-.09.19-.16.31-.3.6-.44.89-.34.7-.69 1.42-1.15 2.14l-.2.3c.59 10.67 4.81 27.87 25.03 33.83 18.48-5.44 23.82-20 24.89-32.01-.34-.45-.65-.92-.98-1.41l-.47-.7c-.46-.71-.8-1.42-1.14-2.1-.15-.29-.29-.59-.46-.9l-.1-.19c-.92-2.03-1.82-4.44-2.76-7.37-.87-2.9-1.62-5.69-2.24-8.36-1.09-4.63-2.11-9.84-3.02-15.48-.68-4.18-1.03-7.03-1.05-7.15-.13-1.08.18-2.17.88-3.02.69-.84 1.7-1.37 2.79-1.45l7.82-.6c.1-.01.2-.01.31-.01.99 0 1.94.37 2.68 1.04.81.74 1.29 1.78 1.31 2.88 0 .03.06 2.68.29 6.67.21 3.66.62 9.18 1.33 14.71.3 2.37.71 4.94 1.22 7.65.49 2.32 1.01 4.36 1.55 5.98.06.14.11.28.17.43 16.07 2.96 27.9 16.99 27.9 33.55 0 18.84-15.32 34.16-34.16 34.16z"/><path fill="#333" d="M152.505 29.62s.06 2.69.297 6.815c.238 4.102.656 9.57 1.356 14.986.343 2.71.788 5.39 1.26 7.88.52 2.48 1.098 4.75 1.72 6.61.356.89.63 1.77.966 2.44l.125.23c15.03 1.71 26.72 14.45 26.72 29.94 0 16.66-13.51 30.17-30.17 30.17-11.68 0-21.78-6.65-26.79-16.37-5.02 9.72-15.12 16.37-26.8 16.37-16.66 0-30.17-13.5-30.17-30.16 0-14.98 10.93-27.38 25.24-29.73.07-.14.15-.29.23-.44.33-.66.61-1.55.96-2.44.62-1.86 1.2-4.13 1.72-6.6.47-2.49.92-5.17 1.26-7.88.7-5.41 1.12-10.88 1.36-14.98.23-4.12.29-6.81.29-6.81l7.82.6s-.36 2.85-1.03 7c-.68 4.17-1.68 9.71-2.97 15.21-.65 2.76-1.39 5.5-2.16 8.06-.82 2.56-1.68 4.92-2.59 6.93-.52 1-.91 1.91-1.42 2.71-.33.48-.61.91-.88 1.31.34 10.98 4.3 32.47 29.08 39.13 23.68-6.36 28.35-26.27 29.01-37.61-.23-.22-.49-.48-.79-.79-.43-.55-.86-1.23-1.39-2.03-.51-.79-.9-1.71-1.42-2.71-.91-2.01-1.78-4.37-2.59-6.93-.77-2.56-1.52-5.3-2.16-8.05-1.3-5.5-2.29-11.04-2.97-15.21-.67-4.14-1.02-6.99-1.02-6.99l7.83-.6m-50.39-8c-1.98 0-3.9.74-5.37 2.08-1.63 1.47-2.58 3.55-2.63 5.75 0 .02-.06 2.62-.28 6.53-.21 3.58-.61 9-1.31 14.42-.3 2.31-.69 4.77-1.18 7.34-.33 1.58-.68 3.01-1.03 4.22C74.22 66.71 63 81.4 63 98.55c0 21.044 17.12 38.164 38.163 38.164 10.22 0 19.77-4.04 26.79-11 7.02 6.96 16.56 11 26.79 11 21.04 0 38.16-17.12 38.16-38.16 0-17.673-12.06-32.76-28.78-36.97-.31-1.126-.62-2.413-.914-3.812-.49-2.594-.88-5.056-1.17-7.32-.7-5.43-1.1-10.85-1.31-14.444-.23-3.91-.29-6.5-.29-6.53-.05-2.195-1-4.275-2.63-5.75-1.48-1.337-3.39-2.07-5.37-2.07-.2 0-.41.01-.61.02l-7.82.6c-2.18.17-4.2 1.22-5.58 2.91-1.39 1.69-2.02 3.876-1.75 6.045.01.12.38 3.05 1.06 7.3.93 5.73 1.96 11.03 3.07 15.76.64 2.74 1.4 5.61 2.28 8.53l.04.13c.98 3.08 1.94 5.63 2.92 7.81.06.13.13.264.19.39.15.28.28.554.41.816.37.74.78 1.59 1.36 2.49.03.06.07.12.11.18l.39.58.18.26c-1.22 10.17-6.04 21.91-20.77 26.76-15.57-5.12-20.12-17.83-20.96-28.63.33-.6.61-1.17.86-1.69.13-.26.26-.53.4-.8l.18-.37c.98-2.17 1.94-4.73 2.93-7.82l.04-.14c.87-2.92 1.64-5.79 2.28-8.54 1.39-5.92 2.44-11.84 3.07-15.75.68-4.24 1.05-7.16 1.06-7.28.27-2.17-.36-4.36-1.75-6.05s-3.4-2.75-5.58-2.91l-7.83-.6c-.2-.01-.41-.02-.61-.02z"/><path fill="#C1272D" d="M109.943 30.22s-.353 2.847-1.023 6.994c-.674 4.167-1.673 9.708-2.967 15.21-.644 2.757-1.39 5.496-2.155 8.056-.815 2.556-1.676 4.923-2.59 6.93-.52 1-.908 1.915-1.415 2.71-.536.794-.962 1.48-1.394 2.03-1.06 1.073-1.68 1.636-1.68 1.636l-2.04-2.603s.32-.453.93-1.148c.26-.434.55-1.044.91-1.688.33-.667.6-1.555.96-2.44.62-1.862 1.2-4.132 1.72-6.604.47-2.496.92-5.172 1.26-7.88.7-5.416 1.12-10.885 1.36-14.986.23-4.125.29-6.814.29-6.814l7.82.598zm42.562-.6s.06 2.69.297 6.815c.238 4.102.656 9.57 1.356 14.986.343 2.71.788 5.39 1.26 7.88.52 2.48 1.098 4.75 1.72 6.61.356.89.63 1.77.966 2.44.354.65.642 1.26.91 1.69.603.7.93 1.15.93 1.15l-2.04 2.61s-.624-.56-1.68-1.63c-.433-.55-.86-1.23-1.395-2.03-.51-.79-.9-1.71-1.42-2.71-.91-2-1.78-4.37-2.59-6.93-.77-2.56-1.52-5.3-2.16-8.05-1.3-5.5-2.29-11.04-2.97-15.21-.68-4.14-1.03-6.99-1.03-6.99l7.82-.6zm4.59 38.846c.23 9.574-1.857 35.247-29.853 42.298 4.7 10.55 15.256 17.918 27.55 17.918 16.66 0 30.166-13.503 30.166-30.164 0-15.883-12.286-28.87-27.862-30.052zm-58.193 0c-.23 9.574 1.86 35.247 29.856 42.298-4.7 10.55-15.257 17.918-27.55 17.918-16.66 0-30.165-13.503-30.165-30.164 0-15.883 12.283-28.87 27.86-30.052z"/><path fill="#C1272D" stroke="#333" stroke-width="8" stroke-linejoin="round" stroke-miterlimit="10" d="M127.933 182.4c-13.225-.827-42.15-25-42.15-25 1.652 31.2 42.15 64.667 42.15 64.667S168.427 188.6 170.08 157.4c0 0-28.926 24.173-42.147 25z"/><path fill="#FCEE21" d="M92.29 77.752s-4.03-3.064-7.886 2.445c-3.855 5.512 1.237 9.712 4.96 8.818 6.888-1.653 4.99-9.508 2.926-11.263zm76.033 6.612s-4.03-3.064-7.887 2.445c-3.854 5.51 1.236 9.71 4.96 8.81 6.888-1.66 4.994-9.51 2.927-11.27zM76.83 106.507s1.24-7.58 6.198-6.473c4.96 1.102 5.923 6.888 3.306 10.193-2.617 3.308-9.64 2.758-9.504-3.72zm19.836 76.036s1.24-7.58 6.2-6.478c4.956 1.106 5.923 6.89 3.304 10.197-2.62 3.305-9.64 2.76-9.504-3.72zm16.53 16.53s1.24-7.58 6.195-6.478c4.96 1.105 5.93 6.89 3.31 10.193-2.62 3.31-9.64 2.76-9.5-3.716zm19.83 0s1.24-7.58 6.203-6.478c4.95 1.105 5.91 6.89 3.3 10.193-2.62 3.31-9.64 2.76-9.51-3.716zm13.224-16.53s1.243-7.58 6.2-6.478c4.958 1.106 5.925 6.89 3.305 10.197-2.617 3.305-9.64 2.76-9.504-3.72zm-2.56-69.345s5.386-5.48 8.798-1.72c3.417 3.767.868 9.048-3.18 10.24-4.042 1.19-9.464-3.306-5.617-8.52zm23.142-6.61s5.386-5.48 8.8-1.717c3.412 3.77.866 9.05-3.183 10.24-4.05 1.19-9.47-3.3-5.62-8.52zm-59.422 7.772c1.945-1.196 3.166-8.815-5.1-7.577-8.264 1.24-3.856 9.503 0 8.95 3.86-.545 4.237-.842 5.1-1.372z"/></svg>