<svg xmlns="http://www.w3.org/2000/svg" width="256" height="256" viewBox="0 0 256 256"><path fill="#FBB03B" d="M126.78 190.543c-17.185 0-32.51-.965-43.153-2.715-.363-.06-.898-.144-1.574-.25-23.1-3.608-29.347-6.067-31.62-8.65-13.762-15.64-5.063-30.547 2.612-43.698 2.368-4.058 4.81-8.243 6.667-12.45-.21-1.142-.463-2.58-.72-4.197l-.208-1.398c-.292-1.94-.623-4.14-.876-6.498l-.166-1.39c-.016-.135-.026-.274-.03-.417l-.008-.308c-.01-.435-.003-.79.012-1.147.087-1.62.317-2.95.725-4.226.83-2.73 2.44-5.4 4.52-7.47 1.01-1.01 2.16-1.93 3.42-2.74 1.18-.73 2.41-1.33 3.82-1.88 2.27-.85 4.67-1.41 7.37-1.7 1.25-.15 2.5-.21 3.93-.21.88 0 1.75.02 2.67.05 1.94.07 3.9.19 6.01.37 4.23.35 8.01.77 11.56 1.27 1.09.14 2.17.29 3.26.44-.08-.33-.17-.65-.24-.97-4.56-2.09-7.65-6.72-7.65-11.88 0-7.2 5.85-13.05 13.05-13.05s13.05 5.85 13.05 13.04c0 3.97-1.82 7.68-4.83 10.12 0 0 .01.01.01.02.14.59.32 1.16.54 1.71.02.03.03.07.05.11.24.66.53 1.31.86 1.94.22.42.45.82.7 1.21.9.12 1.79.25 2.67.35 1.8.22 3.71.44 5.54.6 1.83-.16 3.75-.39 5.55-.61.87-.11 1.76-.23 2.65-.36.29-.44.51-.82.68-1.15.36-.68.65-1.33.9-2 .02-.04.03-.09.05-.13.22-.54.4-1.11.53-1.69l.01-.04c-3-2.44-4.83-6.15-4.83-10.13 0-7.2 5.86-13.05 13.05-13.05s13.05 5.85 13.05 13.04c0 5.16-3.09 9.79-7.65 11.88l-.24.96c1.1-.16 2.2-.31 3.31-.45 3.5-.5 7.28-.91 11.51-1.27 2.12-.18 4.07-.3 5.96-.37.95-.03 1.82-.06 2.7-.06 1.43 0 2.68.06 3.94.21 2.7.29 5.09.85 7.33 1.68 1.44.56 2.67 1.16 3.79 1.85 1.32.85 2.48 1.78 3.49 2.79 2.07 2.06 3.68 4.73 4.52 7.51.4 1.24.62 2.56.71 4.13.02.39.03.74.02 1.15l-.01.33c0 .15-.01.3-.03.44l-.17 1.42c-.25 2.33-.58 4.54-.87 6.49l-.2 1.31c-.21 1.31-.42 2.52-.61 3.61 1.64 4.11 3.84 8.11 5.97 11.98 6.92 12.58 14.08 25.58 4.34 44.01-1.52 2.87-5.2 5.76-33.22 9.52l-1.24.17c-12.27 1.72-29.35 2.7-46.88 2.7h-.01z"/><path fill="#333" d="M147.28 69.458c4.998 0 9.048 4.05 9.048 9.047 0 4.34-3.06 7.965-7.14 8.842-.097.575-.207 1.173-.34 1.812-.1.43-.214.89-.338 1.35l-.14.5c-.09.31-.188.63-.29.95-.06.19-.118.37-.183.56-.158.46-.327.94-.516 1.41-.12.31-.26.62-.4.93h.01c-.13.3-.24.59-.39.89-.08.17-.18.35-.27.52 3.25-.49 6.56-1 9.92-1.43 3.74-.53 7.53-.93 11.34-1.25 1.91-.17 3.83-.29 5.77-.36.88-.03 1.72-.05 2.56-.05 1.12 0 2.25.04 3.5.18 2.11.23 4.26.66 6.37 1.46 1.06.4 2.11.89 3.1 1.5.99.63 1.93 1.37 2.76 2.21 1.69 1.67 2.9 3.76 3.53 5.85.33 1.04.48 2.1.54 3.18.02.27.02.55.01.86v.29l-.01.1v-.01l-.01.07-.03.27-.13 1.07c-.3 2.82-.72 5.4-1.06 7.69-.27 1.7-.54 3.24-.79 4.59 6.71 17.9 22.8 31.27 10.91 53.74-2.07 3.92-27.53 7.04-31.48 7.6-12.17 1.7-29.36 2.66-46.32 2.66-15.79 0-31.37-.83-42.5-2.66-3.92-.65-27.72-4.04-30.84-7.6-15.95-18.12 2.61-34.26 10.43-53.05-.29-1.52-.61-3.28-.93-5.28-.34-2.3-.75-4.88-1.06-7.7l-.13-1.07-.03-.27v-.07.01s0-.04-.01-.1l-.01-.29c0-.31 0-.59.01-.86.06-1.08.21-2.14.54-3.18.64-2.09 1.85-4.17 3.53-5.85.84-.84 1.77-1.58 2.76-2.21 1-.61 2.04-1.1 3.1-1.51 2.11-.79 4.26-1.22 6.37-1.46 1.24-.14 2.37-.19 3.49-.19.85 0 1.68.02 2.56.05 1.95.07 3.87.19 5.77.36 3.82.32 7.61.72 11.34 1.24 3.36.43 6.67.95 9.92 1.43-.09-.18-.19-.35-.27-.53-.3-.63-.57-1.26-.81-1.88-.18-.45-.34-.9-.49-1.35-.07-.19-.12-.37-.18-.56-.1-.33-.2-.65-.29-.98l-.13-.47c-.12-.47-.24-.92-.34-1.36-.13-.64-.24-1.24-.34-1.81-4.08-.88-7.14-4.51-7.14-8.85 0-5 4.05-9.05 9.05-9.05s9.05 4.05 9.05 9.05c0 3.65-2.17 6.79-5.28 8.22.04.26.08.53.14.82.03.2.07.41.11.62.09.45.19.91.32 1.4.17.72.4 1.5.72 2.29.29.79.65 1.62 1.08 2.43.42.82.93 1.63 1.49 2.39.17.23.35.45.54.66 1.48.22 2.95.43 4.39.6 2.08.25 4.09.49 6.03.65 1.94-.16 3.95-.4 6.03-.65 1.44-.18 2.91-.39 4.39-.61.18-.22.37-.44.54-.67.19-.26.36-.53.54-.79.34-.53.67-1.06.95-1.61.43-.81.79-1.64 1.08-2.43.32-.79.55-1.57.72-2.29.13-.49.23-.95.31-1.39.04-.21.08-.43.11-.62.05-.3.1-.57.13-.83-3.11-1.43-5.28-4.57-5.28-8.22 0-5.01 4.05-9.06 9.05-9.06m24.83 32.92h6.38c-1-.5-2.04-.75-3.11-.75-1.07 0-2.16.25-3.27.75m-93.2 0h6.38c-1.11-.5-2.2-.75-3.27-.75s-2.11.25-3.11.75m-13.27 15.8c.62-2.16 1.05-4.36 1.24-6.61.11-1.39.4-2.68.82-3.85-.43.98-.72 2.09-.82 3.32-.18 2.24-.62 4.63-1.23 7.14m81.6-56.65c-9.4 0-17.04 7.65-17.04 17.05 0 4.2 1.56 8.17 4.24 11.23l-.09.2-.63.08c-1.64.2-3.39.4-5.05.55-1.67-.16-3.42-.36-5.07-.56-.2-.03-.4-.05-.61-.08l-.09-.2c2.68-3.06 4.24-7.03 4.24-11.23 0-9.4-7.65-17.05-17.05-17.05S93.1 69.06 93.1 78.46c0 2.68.64 5.25 1.78 7.55-1.41-.15-2.86-.28-4.37-.41-2.17-.19-4.19-.31-6.15-.39h-.06c-.91-.026-1.84-.05-2.79-.05-1.59 0-2.98.074-4.4.234-3.015.33-5.73.96-8.277 1.914l-.07.022c-1.64.63-3.09 1.34-4.415 2.16-.04.026-.086.05-.127.08-1.5.96-2.88 2.07-4.1 3.29-2.55 2.53-4.46 5.69-5.51 9.12-.5 1.57-.79 3.25-.89 5.13v.08c-.02.46-.03.91-.02 1.38l.01.342c.01.25.03.5.05.74l.01.07.02.112.04.27.12.993c.26 2.42.6 4.65.89 6.62l.2 1.34.01.084c.18 1.11.35 2.14.51 3.05-1.7 3.65-3.86 7.36-5.96 10.96-4.05 6.95-8.25 14.14-9.8 21.87-1.92 9.62.65 18.53 7.64 26.48 3.08 3.5 9.41 6.12 34.01 9.96.66.11 1.19.19 1.54.25 10.85 1.79 26.41 2.77 43.8 2.77 17.71 0 35-1 47.44-2.74l1.22-.16c27.54-3.7 33.62-6.69 36.23-11.61 10.76-20.34 2.37-35.57-4.36-47.81-1.97-3.58-3.85-7-5.34-10.5.15-.85.29-1.68.42-2.5l.01-.08.2-1.3c.3-1.98.63-4.22.9-6.66l.06-.48.07-.54.04-.3.01-.07c.03-.25.05-.51.05-.77l.01-.31c0-.02 0-.04.01-.06.01-.47 0-.92-.02-1.38v-.05c-.1-1.87-.39-3.55-.88-5.13-1.05-3.43-2.96-6.6-5.53-9.15-1.19-1.19-2.57-2.3-4.08-3.27l-.12-.08c-1.33-.82-2.78-1.53-4.42-2.16l-.07-.03c-2.55-.95-5.26-1.58-8.3-1.92-1.39-.16-2.79-.23-4.37-.23-.96 0-1.88.03-2.78.06h-.07c-1.95.07-3.97.19-6.16.38-1.5.12-2.95.26-4.36.4 1.15-2.29 1.79-4.87 1.79-7.55 0-9.4-7.65-17.05-17.05-17.05z"/><path fill="#FCEE21" d="M204.582 176.285c-2.076 3.924-27.533 7.04-31.48 7.596-23.515 3.3-65.737 3.8-88.826 0-3.92-.64-27.715-4.04-30.84-7.59-19.16-21.77 11.51-40.68 13.48-64.79.48-5.86 3.915-10.11 8.745-10.11h106.7c4.83 0 8.27 4.26 8.75 10.12 1.97 24.11 27.68 37.95 13.49 64.79z"/><path fill="#D3C229" d="M85.368 124.807s2.13 26.61 40.98 29.27c38.852 2.662 53.165-18.93 44.706-29.27-4.79-5.854-10.112-18.095-36.723 2.66s-48.96-2.66-48.96-2.66z"/><path fill="#FBB03B" d="M61.71 108.762c0 .066.003.117.006.09l.007.07.033.27.127 1.067c.304 2.82.722 5.4 1.06 7.69.362 2.29.73 4.29 1.046 5.93 0 .03.01.06.01.09 1.5-4.71 2.59-9.09 2.91-13.02.37-4.62 3.32-7.51 6.92-8.54 1.37-.54 2.96-.89 4.65-1.04 3.2-.27 6.79-.06 10.43.2 3.65.24 7.38.6 11.13.93l11.21 1c1.85.16 3.69.32 5.51.44 1.81.16 3.61.29 5.38.4 1.77.08 3.51.21 5.22.27 1.71.05 3.38.06 5.02.02 1.63-.03 3.23-.1 4.79-.32.38-.04.77-.1 1.15-.17l.57-.1c.11-.02.14-.02.33-.07l.26-.08c.96-.34 1.58-.81 2.21-1.32 1.18-1.04 2.09-2.19 2.88-3.35.78-1.17 1.44-2.34 1.98-3.51 1.1-2.33 1.8-4.61 2.25-6.62.42-2 .66-3.74.74-4.94.07-.61.1-1.08.12-1.4l.05-.5-6 2.23-.04.37c-.02.24-.05.59-.11 1.04-.04.44-.12.98-.23 1.59-.08.6-.23 1.29-.43 2.01-.17.72-.4 1.5-.72 2.29-.29.8-.65 1.62-1.08 2.44-.42.82-.93 1.63-1.49 2.39-.56.74-1.23 1.46-1.76 1.83h-.01l-.05.01-.05.01-.12.01-.45.06c-.3.04-.61.08-.93.1-1.27.12-2.68.13-4.14.1-2.94-.06-6.15-.44-9.5-.85-1.68-.2-3.4-.44-5.15-.71-1.75-.23-3.53-.5-5.33-.78-3.6-.53-7.29-1.12-11.03-1.59-3.74-.53-7.53-.93-11.34-1.25-1.91-.17-3.83-.29-5.77-.36-2.05-.06-3.87-.11-6.05.13-2.11.23-4.26.66-6.37 1.46-1.06.4-2.11.89-3.1 1.5-.99.63-1.92 1.37-2.76 2.21-1.69 1.68-2.9 3.76-3.53 5.85-.34 1.04-.48 2.1-.54 3.18-.01.27-.02.55-.01.86l.01.29zm76.188-10.24l-.017.007-.23.05-.03.01.28-.08zm-.016.008c-.112.07-.218.126-.27.138-.03.01-.046.013-.032-.007-.085.04.21-.1.302-.13z"/><path fill="#D87A1D" d="M147.383 93.948c.663-1.685 1.134-3.312 1.465-4.79.42-2.002.662-3.737.748-4.937.07-.61.102-1.08.12-1.4l.008-.09-1.543.18-4.41 1.64-.04.37c-.02.24-.05.59-.11 1.04-.03.44-.11.99-.22 1.6-.03.2-.07.41-.11.62l4.11 5.78z"/><circle fill="#FBB03B" cx="147.281" cy="78.505" r="9.047"/><path fill="#D87A1D" d="M111.265 103.53c1.853.162 3.69.318 5.51.443 1.813.164 3.61.296 5.38.4 1.77.085 3.51.213 5.22.272 1.71.055 3.384.06 5.023.024 1.638-.03 3.238-.1 4.79-.32.388-.04.772-.11 1.153-.17l.57-.1c.12-.03.14-.02.33-.07l.27-.08c.97-.34 1.59-.81 2.22-1.32 1.19-1.04 2.1-2.19 2.89-3.36.78-1.17 1.45-2.34 1.99-3.51.15-.3.26-.6.39-.89-2.49 1.65-5.17 1.41-6.78 1.01-.17.27-.34.54-.53.79-.55.74-1.22 1.46-1.75 1.83l-.01.01-.04.01h-.05l-.11.01-.45.06c-.3.04-.6.08-.93.1-1.26.12-2.67.13-4.13.1-2.93-.06-6.14-.44-9.5-.85-1.68-.21-3.39-.44-5.14-.71-1.75-.24-3.53-.51-5.33-.78-.24-.04-.49-.08-.74-.11-2.16 2.68-5.47 5.4-6.96 6.57 2.27.2 4.53.4 6.77.6zm26.633-5.01l-.017.01-.23.057-.03.008c.04-.01.22-.057.28-.074zm-.016.01c-.112.07-.218.126-.27.138-.03.01-.046.013-.032-.007-.085.04.21-.1.302-.13z"/><path fill="#FBB03B" d="M195.71 108.466c.005-.315 0-.588-.012-.864-.058-1.084-.205-2.137-.537-3.185-.63-2.088-1.84-4.17-3.53-5.847-.83-.838-1.77-1.577-2.76-2.21-.99-.613-2.04-1.1-3.09-1.507-2.11-.793-4.26-1.224-6.37-1.457-2.18-.247-4-.193-6.05-.134-1.94.07-3.86.197-5.77.36-3.81.32-7.6.72-11.34 1.248-3.74.48-7.43 1.067-11.03 1.595-1.8.277-3.58.545-5.32.78-1.75.27-3.46.506-5.14.713-3.35.41-6.56.79-9.5.848-1.46.03-2.87.02-4.13-.1-.33-.02-.63-.058-.93-.1l-.45-.057-.11-.02-.05-.01c-.02-.01-.03-.01-.04-.01l-.01-.01c-.52-.37-1.2-1.09-1.75-1.83-.56-.76-1.07-1.58-1.49-2.4-.43-.82-.79-1.64-1.08-2.44-.32-.8-.55-1.57-.72-2.3-.19-.73-.34-1.41-.43-2.02-.11-.61-.19-1.16-.23-1.6-.06-.45-.09-.8-.11-1.04l-.04-.38-6-2.23.05.5c.02.32.05.79.12 1.4.09 1.2.33 2.94.75 4.94.45 2.01 1.15 4.29 2.25 6.62.54 1.16 1.2 2.34 1.99 3.5.79 1.16 1.7 2.31 2.89 3.35.63.5 1.25.97 2.21 1.31l.27.07c.19.05.22.04.34.07l.57.1c.38.07.76.13 1.15.17 1.55.21 3.15.28 4.79.31 1.64.04 3.31.03 5.02-.02 1.71-.06 3.45-.19 5.22-.27 1.77-.11 3.57-.24 5.38-.41 1.82-.13 3.66-.29 5.51-.45 3.7-.33 7.46-.66 11.21-1 3.75-.33 7.48-.69 11.13-.93 3.64-.26 7.23-.47 10.44-.2 1.69.15 3.28.5 4.65 1.03 3.6 1.03 6.54 3.92 6.92 8.54.32 3.92 1.41 8.3 2.91 13.01.01-.03.01-.06.02-.09.32-1.65.69-3.65 1.05-5.94.34-2.3.75-4.88 1.06-7.7.04-.36.08-.71.13-1.07l.03-.27.01-.07c0 .02.01-.03.01-.09v-.3zm-75.917-9.87l-.033-.008-.233-.058-.016-.008.29.074zm.038.065c.02.03 0 .02-.03.01-.05-.01-.15-.07-.27-.14.1.03.39.17.31.13z"/><path fill="#D87A1D" d="M110.028 93.948c-.666-1.685-1.135-3.312-1.466-4.79-.42-2.002-.663-3.737-.75-4.937-.07-.61-.1-1.08-.12-1.4l-.008-.09 1.542.18 4.416 1.64.044.37c.02.24.047.59.113 1.04.03.44.11.99.22 1.6.02.2.07.41.11.62l-4.11 5.78z"/><circle fill="#FBB03B" cx="110.129" cy="78.505" r="9.048"/></svg>