<svg xmlns="http://www.w3.org/2000/svg" width="256" height="256" viewBox="0 0 256 256"><path fill="#111" d="M97.21 219.38c-1.647 0-3.127-1.01-3.726-2.546-3.655-9.373-5.837-23.255-5.837-37.135 0-16.72 3.1-32.41 8.972-45.45v-3.9c-29.2 19.25-57.99 24.98-59.29 25.23-.26.05-.51.07-.76.07-1.75 0-3.33-1.15-3.84-2.87C6.69 64.39 36.65 46.27 37.94 45.54c.62-.346 1.296-.516 1.97-.516.99 0 1.97.366 2.73 1.073 7.87 7.32 19.274 11.04 33.902 11.04 16.983 0 32.058-5.12 32.208-5.17.425-.15.865-.22 1.3-.22.33 0 .66.04.98.12l6.685-2.57c2.106-1.723 5.107-3.45 8.67-3.45.16 0 .323.002.486.01.13.006.26.01.4.01.79 0 1.86-.07 3.1-.154 1.74-.114 3.71-.244 5.8-.244 3.65 0 8.74.34 12.74 3.03.34.09.67.23.98.42l5.16 3.1c2.77.84 17.53 5.08 33.95 5.08 14.99 0 26.57-3.52 34.42-10.44.44-.59 1.02-1.05 1.7-1.33.02-.01.04-.02.06-.02.5-.2 1.01-.3 1.52-.3 1.01 0 2 .38 2.75 1.09 5.23 3.61 28.48 24.89 4.38 106.66-.46 1.54-1.79 2.66-3.4 2.84-.14.01-.29.02-.44.02-.25 0-.5-.02-.74-.07-.25.05-.5.07-.75.07s-.5-.02-.76-.07c-1.29-.25-29.96-5.96-59.1-25.1v8.9c0 .55-.11 1.07-.31 1.55 4.15 11.64 6.32 24.99 6.32 38.83s-2.18 27.69-5.83 37.07c-.6 1.53-2.08 2.54-3.72 2.54H97.21zm46.636-121l3.988-30.98-27.24 28.826.347 2.155h22.91zM118.618 83.9l2.968-3.874-4.98-8.67 2.012 12.544z"/><path fill="#333" d="M226.682 49.03l-.012.015c-.003-.01.012-.016.012-.016m-.063 0s.02.01.04.01l-.03.04-.02-.01v-.05m-186.7 0c10.07 9.37 23.9 12.11 36.63 12.11 17.85 0 33.51-5.39 33.51-5.39l6.09 37.95 10.24-13.37-14.16-24.64 7.23-2.78.05.12c1.4-1.3 3.95-3.19 6.87-3.19h.3c.18 0 .37.01.58.01 2.1 0 5.41-.4 8.9-.4 4.2 0 8.64.58 11.48 3.12l.17-.23 5.56 3.34h-.02v.01l-37.04 39.2 1.2 7.47h29.83l6.01-46.67.01-.01c.44.14 17.06 5.41 35.61 5.41 13.22 0 27.43-2.68 37.46-11.8l.18-.24c2.13 1.11 27.93 19.09 3.33 102.56l-1.54-2.77.04 2.78s-33.05-6.38-63.86-28.8v16.52h-1.17c4.52 11.42 7.18 25.33 7.18 40.38 0 13.12-2.05 26.62-5.56 35.62H97.21c-3.51-9-5.563-22.57-5.563-35.69 0-16.95 3.366-32.47 8.972-44.57v-12.41c-30.87 22.53-64.05 28.94-64.05 28.94C11.13 65.26 39.91 49 39.91 49m186.75.01v.005h-.01v-.002m0 .004c.01 0 .01.003.01.006l-.01-.006m-186.75-8c-1.348 0-2.704.34-3.935 1.04-3.514 1.985-33.554 21.99-7.076 111.85 1.02 3.456 4.19 5.74 7.67 5.74.51 0 1.01-.048 1.53-.145 1.21-.24 25.55-5.08 52.33-20.62-4.44 12.18-6.77 26.12-6.77 40.8 0 14.35 2.29 28.77 6.11 38.59 1.2 3.07 4.16 5.09 7.46 5.09h67.86c3.3 0 6.26-2.02 7.45-5.1 3.82-9.814 6.1-24.215 6.1-38.525 0-13.812-2.11-27.18-6.14-38.965.08-.46.12-.936.12-1.418v-1.67c27.57 16.482 53.11 21.562 54.34 21.8.51.1 1.02.146 1.52.146.25 0 .5-.014.75-.036.25.02.5.034.75.034.29 0 .58-.01.88-.05 3.2-.35 5.88-2.59 6.79-5.69 10.69-36.27 13.53-65.3 8.46-86.31-3.75-15.52-10.91-22.24-14.18-24.6-1.43-1.25-3.25-1.94-5.12-1.97h-.19c-2.51 0-4.75 1.16-6.22 2.97-7.1 6.06-17.66 9.13-31.41 9.13-14.96 0-28.83-3.755-32.34-4.78l-4.72-2.83c-.42-.25-.85-.46-1.29-.63-3.66-2.282-8.43-3.4-14.49-3.4-2.23 0-4.36.14-6.07.255-1.12.073-2.18.143-2.84.143-.08 0-.15 0-.21-.006-.22-.01-.45-.014-.67-.014-4.41 0-8.05 1.914-10.67 3.935l-5.15 1.98c-.17-.01-.34-.01-.51-.01-.87 0-1.75.15-2.6.44-.13.05-14.7 4.95-30.9 4.95-13.59 0-24.08-3.35-31.18-9.96-1.52-1.42-3.48-2.15-5.46-2.15zm87.93 53.354l14.453-15.3-1.97 15.3h-12.48z"/><path fill="#111" d="M39.916 49.03s-28.784 16.268-3.338 102.624l37.128-62.996-33.79-39.63z"/><path fill="#FF7BAC" d="M41.584 54.868s-20.024 5.84-3.338 92.612"/><path fill="#111" d="M226.73 49.03s28.784 16.268 3.337 102.624l-37.125-62.996 33.787-39.63z"/><path fill="#FF7BAC" d="M225.06 54.868s20.027 5.84 3.34 92.612"/><path fill="#1A1A1A" d="M153.385 55.702s49.227 15.855 73.422-6.673l1.67 102.62s-47.56-9.18-81.764-44.22M110.05 55.75s-45.94 15.8-70.135-6.727L36.577 151.65s47.56-9.177 81.765-44.22"/><path fill="#111" d="M96.65 80.175l10.852 36.852s-10.71 9.037-15.716 11.823c-5.008 2.78-5.706-44.783 4.865-48.675zm70.608 0l-9.975 37.27s11.4 8.62 16.408 11.405c5.01 2.78 4.14-44.783-6.43-48.675z"/><path fill="#1A1A1A" d="M165.068 215.38c3.508-9 5.562-22.497 5.562-35.618 0-38.856-17.682-70.232-39.49-70.232-21.812 0-39.492 31.312-39.492 70.17 0 13.12 2.054 26.682 5.564 35.682h67.856zm-3.108-84l-8.575-76H110l-8.573 76z"/><path fill="#fff" d="M118.342 54.243s3.757-4.59 8.344-4.38c4.59.21 17.313-2.503 22.11 3.963l-20.65 25.655-9.804-25.23z"/><path fill="#ccc" d="M123.907 65.438l18.073-15.296-16.96 17.245z"/><path fill="#FF7BAC" d="M112.227 55.702l7.228-2.78 9.458 24.476-1.67 4.446z"/><path fill="#ccc" d="M124.462 50.142l5.56 10.01 1.95-1.39z"/><path fill="#FF7BAC" d="M147.823 52.366l-37.406 48.808 42.968-45.472z"/><path fill="#111" d="M128.913 103.54l28.366-38.656-31.71 37.266s4.45-4.45-3.9-12.794l-12.24 13.908"/><path fill="#fff" d="M100.543 102.424s21.146-10.01 39.32 1.67c18.173 11.68-4.955 5.282-4.955 5.282l-34.365-6.952zm62.145 0s-21.146-10.01-39.316 1.67c-18.175 11.68 4.957 5.282 4.957 5.282l34.35-6.952z"/><path fill="#FF7BAC" d="M100.62 102.38h64v37h-64z"/><path fill="#fdb" d="M100.62 116.38h64v13h-64z"/><path fill="#FF7BAC" d="M144.723 194.36c-1.648-4.052-3.938-11.29-10.078-7.26-.535.355-1.026.712-1.492 1.062.877-1.48 1.685-3.363 2.353-5.777 0 0 .784-3.65-3.57-4.01-4.353-.368-13.467-2.876-12.642 4.418.24 2.11.666 3.834 1.147 5.234-1.28-1.27-3.04-2.567-5.43-3.838 0 0-3.39-1.56-4.69 2.6-1.3 4.17-5.73 12.51 1.57 13.3.88.09 1.7.14 2.46.15-3.13 1.88-4.2 3.67-4.2 3.67s-1.57 9.05 12.88 9.89c0 0 3.74.01 3.18-4.33-.1-.8-.16-1.77-.25-2.81.8 3.24 2.64 4.36 2.64 4.36s5.46 9.11 12.25-3.65c0 0 1.82-4.69-2.35-6-.68-.22-1.47-.56-2.3-.94 1.48-.04 3.16-.22 5.17-.63 0 0 5.04-1.43 3.39-5.48z"/><circle fill="#fff" cx="123.218" cy="192.534" r="1.955"/><circle fill="#fff" cx="129.473" cy="192.534" r="1.956"/><path fill="#fff" d="M125.173 198.793c0 1.08-.875 1.95-1.957 1.95-1.08 0-1.953-.87-1.953-1.95 0-1.083.874-1.956 1.953-1.956 1.082 0 1.957.873 1.957 1.956zm6.257 0c0 1.08-.878 1.95-1.955 1.95-1.08 0-1.957-.87-1.957-1.95 0-1.083.878-1.956 1.957-1.956 1.077 0 1.955.873 1.955 1.956z"/><path fill="#FF7BAC" d="M170.63 179.762c0-7.483-.662-14.685-1.877-21.442-.12-.015-.232-.032-.356-.046 0 0-5.023.06-4.685 4.412.054.72.032 1.576-.015 2.488-.584-1.35-1.383-2.85-2.51-4.563 0 0-3.203-4.14-6.345-1.1-3.14 3.05-9 7.87-2.97 12.06.53.37 1.042.69 1.54.99-1.703-.26-3.75-.3-6.24-.02 0 0-3.676.63-2.39 4.81 1.29 4.18 2.363 13.57 8.824 10.08 1.865-1.01 3.305-2.05 4.427-3.02-.7 1.67-1.246 3.79-1.533 6.48 0 0-.18 3.73 4.173 3.38 2.46-.19 6.53.04 9.243-.99.465-4.41.714-8.97.714-13.5z"/><path fill="#fff" d="M160.447 178.334c1.003-.408 2.142.078 2.547 1.084.398.998-.085 2.14-1.085 2.536-1.01.405-2.15-.075-2.55-1.08-.4-1.004.08-2.14 1.08-2.54zm-2.337-5.807c1.003-.402 2.145.082 2.547 1.082.405.99-.08 2.14-1.083 2.54-1.006.4-2.145-.09-2.545-1.09-.41-1 .07-2.14 1.08-2.54z"/><path fill="#FF7BAC" d="M165.068 215.38c1.503-3.855 2.736-8.54 3.658-13.665-2.384-.878-4.605-.623-5.858 2.635-.76 1.98-1.177 3.707-1.396 5.172-.55-1.72-1.52-3.682-3.054-5.91 0 0-2.288-2.947-5.364.147-2.86 2.87-9.76 7.69-5.852 11.62h17.866z"/><path fill="#fff" d="M166.252 175.993c1.006-.4 2.14.084 2.544 1.088.404 1-.082 2.14-1.083 2.55-1.004.4-2.14-.08-2.542-1.08-.4-1 .08-2.14 1.09-2.54zm-2.332-5.803c1.003-.405 2.14.085 2.538 1.085.403 1-.077 2.143-1.077 2.543-1 .402-2.14-.082-2.54-1.088-.4-.996.08-2.134 1.09-2.54z"/></svg>