<svg xmlns="http://www.w3.org/2000/svg" width="256" height="256" viewBox="0 0 256 256"><path fill="#fff" d="M63.916 213.043c-17.647 0-25.787-11.9-27.742-18.47l-1.93-4.337c-2.117-4.762-4.12-10.783-4.394-11.616-.69-1.83-1.262-3.61-1.707-5.304L8.738 141.973c-3.238-5.23-1.62-12.123 3.61-15.37 1.77-1.093 3.793-1.67 5.86-1.67 3.682 0 7.126 1.805 9.213 4.827l1.71 2.48-1.89-4.98-3.08-8.308c-2.48-6.695.95-14.167 7.65-16.653 1.45-.54 2.97-.81 4.5-.81 1.66 0 3.27.32 4.76.91.82-4.77 4.09-8.99 8.95-10.77 1.55-.57 3.17-.86 4.82-.86 5.83 0 11.1 3.68 13.11 9.15.13.32.25.7.35 1.06l2.5 8.95 5.67 19.59 1.61 5.33-1.66-34.65c-.17-3.61 1.07-7.07 3.5-9.74 2.43-2.68 5.76-4.24 9.36-4.42.22-.01.44-.02.66-.02 7.23 0 13.16 5.65 13.5 12.88l.02.45.74 51.95c.45-.49.91-.98 1.4-1.46.36-.35.68-.66.99-.98.75-.75 1.53-1.52 2.42-2.27.28-.24.58-.51.88-.77.79-.7 1.61-1.42 2.55-2.09.31-.23.64-.48.96-.73.73-.56 1.48-1.14 2.32-1.66 2.2-1.46 3.99-2.51 5.4-3.18l1.95-.99c1.83-.92 3.85-1.41 5.87-1.41 4.89 0 9.31 2.71 11.53 7.06 3.23 6.35.69 14.14-5.66 17.37l-2.22 1.11-.13.05c-.65.27-2.11 1.18-2.66 1.53l-.14.08c-.2.11-.53.36-.86.61-.31.23-.64.47-.97.7-.35.23-.74.57-1.16.93-.3.25-.6.51-.92.76-.4.32-.82.72-1.27 1.15-.31.3-.62.6-.94.9-.38.36-.82.83-1.29 1.32-.29.31-.59.63-.89.94-2.13 2.33-4 4.81-5.38 6.76.16 5.49-2.21 11.54-7.05 18-8.57 13.76-26.06 15.33-29.8 15.5-5.41 1.6-10.5 2.41-15.14 2.41l-.06.09z"/><path fill="#333" d="M89.91 90.067c5.05 0 9.26 3.97 9.504 9.068.004.09.007.23.01.32l.886 61.984c.002.11-.01.23-.013.34l.157.33c1.475-2.02 3.114-4.11 4.887-6.13 1.02-1.1 1.98-2.22 3.04-3.26 1.08-1.03 2.05-2.09 3.17-3.02 1.1-.94 2.09-1.89 3.2-2.68 1.09-.8 2.05-1.61 3.08-2.25 2-1.32 3.72-2.36 5.04-2.98l2.02-1.02c1.3-.65 2.68-.97 4.05-.97 3.25 0 6.38 1.78 7.96 4.88 2.23 4.39.48 9.76-3.91 12l-.05.03-.78.39-1.23.62c-.8.33-1.91.99-3.24 1.83-.68.39-1.36.98-2.12 1.5-.77.51-1.51 1.23-2.32 1.87-.81.64-1.58 1.47-2.4 2.21-.82.77-1.59 1.65-2.39 2.48-2.48 2.72-4.76 5.75-6.56 8.39.73 6-2.85 12.21-6.26 16.73-8.07 13.17-26.2 13.65-27.11 13.65h-.04c-5.57 2-10.36 2.53-14.48 2.53-19.62 0-23.98-15.77-23.98-15.77s0 .04-2.04-4.55c-2.17-4.89-4.28-11.3-4.28-11.3-.78-2.07-1.35-3.91-1.75-5.55L12.17 139.9c-2.083-3.362-1.04-7.78 2.32-9.862 1.17-.728 2.47-1.07 3.75-1.07 2.294 0 4.54 1.1 5.92 3.1l18.27 26.55 1.06-.274L37.87 144c-2.504-6.602-5.013-13.207-6.893-18.16l-3.068-8.28c-1.72-4.64.64-9.792 5.28-11.514 1.02-.38 2.07-.56 3.1-.56 3.61 0 7.01 2.205 8.37 5.77l3.14 8.252c1.84 4.966 4.31 11.59 6.77 18.208l5.84 16.216 1.12-.29c-1.73-5.01-3.88-11.25-6.03-17.497-1.07-2.992-2.14-5.987-3.16-8.847-.08-.182-.14-.344-.18-.49-1.3-3.634-2.51-7.033-3.54-9.906l-3.21-8.722c-1.89-5.167.75-10.892 5.92-12.79 1.13-.417 2.29-.615 3.44-.615 4.06 0 7.87 2.5 9.35 6.53.09.245.17.51.24.76l2.5 8.948c1.54 5.353 3.61 12.49 5.67 19.63 1.65 5.454 3.29 10.904 4.69 15.56.86.313 1.79.52 2.73.52.86 0 1.73-.174 2.57-.597l-2.22-46.084c-.25-5.252 3.8-9.717 9.06-9.967.15-.004.3-.008.46-.008m0-8c-.28 0-.57.007-.85.02-4.67.224-8.98 2.255-12.13 5.72-3.15 3.465-4.76 7.95-4.54 12.624l.03.53-.29-1.04c-.14-.47-.29-.95-.45-1.38-2.59-7.03-9.36-11.75-16.85-11.75-2.12 0-4.21.37-6.2 1.11-4.8 1.76-8.39 5.37-10.28 9.73-.68-.08-1.36-.12-2.05-.12-2.01 0-3.98.36-5.88 1.06-8.77 3.26-13.26 13.04-10.01 21.8l.3.8c-.82-.13-1.65-.2-2.5-.2-2.81 0-5.57.78-7.96 2.26-7.1 4.42-9.3 13.78-4.9 20.88l19.1 30.84c.45 1.63 1 3.31 1.64 5.03.37 1.13 2.38 7.12 4.51 11.91l1.83 4.12c2.41 7.65 11.73 21.06 31.49 21.06 4.89 0 10.21-.82 15.82-2.44 5.03-.32 23.14-2.48 32.42-17.21 4.95-6.63 7.54-13 7.75-18.97 1.19-1.63 2.67-3.52 4.3-5.32.3-.31.6-.63.9-.93.4-.43.79-.84 1.1-1.14.34-.3.67-.62 1-.94.32-.31.71-.68.89-.83l.05-.04.05-.04c.34-.27.68-.56 1.01-.84.25-.21.6-.51.73-.6l.04-.04.04-.03c.38-.26.75-.53 1.1-.8.17-.12.39-.3.5-.37l.08-.05.14-.08c1.44-.9 1.94-1.16 2.11-1.24l.26-.11.22-.11 1.21-.6.73-.36.07-.03.1-.05c8.31-4.23 11.64-14.43 7.41-22.74-2.91-5.71-8.69-9.25-15.1-9.25-2.65 0-5.3.63-7.65 1.83l-1.91.98c-1.58.75-3.44 1.84-5.85 3.43-.97.61-1.81 1.25-2.55 1.82-.29.22-.59.45-.9.68-.73.53-1.39 1.07-2 1.59l-.61-42.82.1-.13.1-.13v-.02c0-.11-.11-.22-.11-.3-.45-9.36-8.24-16.69-17.6-16.69l.03-.07z"/><path fill="#FAC283" d="M31.52 161.383s-2.177 4.598 2.104 15.906c0 0 2.102 6.43 4.277 11.32l2.05 4.59s6.38 23.18 38.46 13.44c0 0 28.96-.43 30.87-25.9l-16.62-35.11-61.14 15.74zm59.278 26.863s.474 10.313 9.212 10.878c0 0 17.67-16.308 9.952-28.23"/><path fill="#FAC283" d="M65.127 164.277l-2.933-8.812-6.647-19.317c-2.497-6.996-4.995-13.997-6.87-19.243-1.92-5.235-3.205-8.722-3.205-8.722-1.896-5.167.753-10.892 5.918-12.79 5.163-1.9 10.892.75 12.787 5.915.092.245.177.51.247.76l2.5 8.948c1.547 5.353 3.613 12.49 5.676 19.63 2.148 7.11 4.292 14.223 5.9 19.558l2.77 8.858c1.396 4.474-1.093 9.23-5.563 10.63-4.42 1.378-9.118-1.046-10.58-5.415zm18.23-2.307l-2.972-61.924c-.253-5.252 3.805-9.717 9.058-9.967 5.254-.26 9.72 3.8 9.97 9.05.005.09.008.23.012.32l.885 61.98c.066 4.68-3.673 8.52-8.36 8.6-4.58.06-8.368-3.54-8.592-8.08v.02zm-10.825-18.7s9.427 8.89 13.884-1.826l-3.385 17.9-10.49-16.074z"/><path d="M61.353 156.753s.012 0 .02.002c0-.002 0-.004-.002-.006h-.01zm22.667-2.62c4.16 3.977 16.11 1.074 16.11 1.074l-.12-4.895c-9.242 2.806-16.165-1.013-16.165-1.013h.006l-.68-.88c-1.13.88-5.44-.02-5.44-.02 3.49.78 6.29 5.73 6.29 5.73zm16.408 7.4s-3.687 4.465-10.976 9.56c.006-.187-.2-.24-.67-.126-19.57 4.77-19.72-6.742-19.72-6.742 6.18-2.947 6.14-14.465 6.14-14.465-2.45 7.915-13.41 7.03-13.83 6.995 6.748 19.565 3.32 29.144 3.32 29.144l5.56.63s12.006-8.59 17.032-13.03l10.57-4.37s7.69-3.04 2.574-7.61zM68 123.563s-12.41 7.02-15.43 2.01c0 0-1.63.34 1.39 4.193h.002s8.834 2.117 14.037-6.203z" fill="#E2AB74"/><path fill="#FAC283" d="M48.235 170.297s-1.314-3.28-3.287-8.195l-7.077-18.098c-2.5-6.604-5.01-13.208-6.89-18.162l-3.06-8.28c-1.72-4.64.65-9.79 5.29-11.513 4.62-1.71 9.74.62 11.48 5.21l3.15 8.25 6.78 18.21 6.59 18.27 2.93 8.33c1.56 4.42-.77 9.26-5.19 10.81-4.29 1.51-9-.67-10.68-4.85l-.03.01zm-7.382 15.948l-28.714-46.38c-2.09-3.362-1.05-7.777 2.31-9.864 3.26-2.01 7.52-1.08 9.67 2.04l30.92 44.93c2.66 3.86 1.68 9.15-2.18 11.81-3.86 2.66-9.14 1.69-11.8-2.17-.07-.1-.16-.23-.23-.34l.02-.01z"/><path fill="#E2AB74" d="M38.11 138.125s8.833 2.115 14.037-6.2c0 0-12.405 7.017-15.428 2.007 0 0-1.63.35 1.39 4.2v-.007zm8.34 25.17s8.832 2.12 14.04-6.204c0 0-12.408 7.03-15.427 2.02 0 0-1.632.35 1.388 4.2zm36.326-44.483s6.598 6.59 15.462-.033c0 0-.727 7.03-9.51 5.48-8.783-1.56-5.952-5.45-5.952-5.45zm-.426 1.416s7.95 7.975 16.814 1.35c0 0-.725 7.03-9.51 5.477-8.782-1.55-7.305-6.827-7.304-6.827zm-54.028 46.14s11.832.173 14.524-6.532l2.285 1.508s-4.02 2.838-4.42 5.698c0 0-7.87 5.08-5.22 15.802 0 0-2.11-8.184-3.58-10.984-.65-1.254-3.58-5.49-3.58-5.49zm7.606 10.502s1.138 11.397 12.78 7.02l3.978.17s2.028 1.46 5.798.73c3.766-.73 5.58.063 7.71-3.666l3.695-.253s.95 8.23-11.87 7.5-8.87 13.28-8.87 13.28-17.61-16.05-13.23-24.77v-.01z"/><path fill="#FAC283" d="M92.285 175.393s.353-.688.976-1.894c.62-1.16 1.51-2.74 2.64-4.59 2.27-3.7 5.54-8.47 9.44-12.92 1.02-1.1 1.98-2.21 3.04-3.27 1.08-1.03 2.05-2.09 3.17-3.02 1.1-.94 2.09-1.89 3.2-2.68 1.09-.8 2.05-1.61 3.08-2.25 2-1.32 3.72-2.36 5.04-2.98 1.29-.65 2.02-1.03 2.02-1.03 4.39-2.23 9.76-.48 12 3.9 2.23 4.39.49 9.76-3.91 12l-.04.02-.78.39-1.23.61c-.79.33-1.9.99-3.24 1.82-.67.38-1.36.97-2.12 1.49-.76.5-1.51 1.22-2.32 1.87-.81.63-1.58 1.46-2.4 2.21-.82.76-1.59 1.65-2.4 2.47-3.14 3.44-5.95 7.38-7.89 10.4-.96 1.51-1.72 2.8-2.21 3.68l-.72 1.32-.19.37c-2.25 4.14-7.43 5.67-11.57 3.42-4.09-2.22-5.63-7.3-3.51-11.41l-.06.06z"/><path fill="#E2AB74" d="M74.65 183.003c-2.13.51-5.265 1.24-9.793 2.27-11.66 2.648-21.28 2.068-28.016.818.35.86.7 1.72 1.06 2.53l2.04 4.6s6.38 23.19 38.46 13.45c0 0 13.04-.2 22.2-8.03-26.12.9-26.17-13.02-25.94-15.6l-.01-.03zm.047-.42s-.022.156-.045.42c-.608.08.045-.42.045-.42z"/><path fill="#fff" d="M129.146 158.2s-.864-3.786-3.43-4.49c0 0 3.038-4.304 6.24-3.424 3.203.88 3.227 3.88 3.227 3.88s-2.01 2.703-6.037 4.034zm62.934-11.512c-4.64 0-9.73-.81-15.143-2.41-3.752-.18-21.225-1.747-29.795-15.504-4.844-6.465-7.21-12.513-7.05-18.003-1.378-1.95-3.255-4.43-5.38-6.76-.304-.31-.602-.62-.897-.94-.465-.49-.902-.96-1.32-1.35-.29-.26-.604-.56-.917-.87-.45-.43-.87-.83-1.22-1.11-.37-.29-.68-.55-.98-.81-.42-.35-.81-.68-1.1-.87-.4-.27-.72-.51-1.04-.74-.33-.24-.67-.49-.87-.61l-.15-.08c-.55-.34-2.02-1.25-2.67-1.53l-.13-.05-2.15-1.07c-6.43-3.26-8.97-11.06-5.74-17.41 2.22-4.35 6.63-7.06 11.53-7.06 2.01 0 4.04.49 5.84 1.41l1.96 1c1.4.66 3.2 1.72 5.48 3.22.75.47 1.5 1.04 2.228 1.6.32.25.65.5 1 .75.9.65 1.72 1.37 2.51 2.07l.91.79c.86.71 1.63 1.49 2.38 2.23.312.31.63.63.95.94.52.5.99 1 1.44 1.49l.74-52.07c0-.12.01-.26.01-.37.36-7.21 6.28-12.85 13.5-12.85.22 0 .44.01.66.02 3.61.17 6.93 1.74 9.36 4.41s3.67 6.13 3.5 9.74l-1.66 34.63 1.62-5.39 5.66-19.58 2.49-8.92c.1-.35.22-.74.36-1.1 1.988-5.43 7.26-9.11 13.09-9.11 1.64 0 3.26.29 4.82.86 4.85 1.78 8.12 6 8.94 10.77 1.488-.6 3.108-.92 4.76-.92 1.538 0 3.05.27 4.5.8 6.698 2.48 10.128 9.95 7.648 16.65l-3.07 8.28-1.9 5.01 1.7-2.47c2.09-3.03 5.53-4.83 9.21-4.83 2.06 0 4.09.57 5.85 1.66 5.23 3.25 6.85 10.14 3.61 15.37l-19.4 31.35c-.44 1.7-1.02 3.48-1.7 5.31-.278.83-2.278 6.85-4.398 11.61l-1.93 4.34c-1.95 6.56-10.09 18.46-27.74 18.46l.094.06z"/><path fill="#333" d="M166.092 23.712c.154 0 .31.004.465.01 5.252.252 9.31 4.717 9.057 9.97l-2.21 46.082c.84.423 1.708.597 2.57.597.938 0 1.865-.2 2.73-.52 1.403-4.65 3.05-10.1 4.696-15.56l5.677-19.62c1.498-5.37 2.5-8.95 2.5-8.95.067-.24.153-.51.246-.75 1.48-4.03 5.292-6.53 9.35-6.53 1.142 0 2.304.2 3.437.62 5.168 1.9 7.813 7.63 5.918 12.79l-3.205 8.73c-1.027 2.87-2.24 6.27-3.536 9.91-.04.15-.1.31-.175.49l-3.15 8.85c-2.15 6.25-4.3 12.49-6.02 17.5l1.13.29 5.85-16.21c2.46-6.62 4.93-13.24 6.77-18.21l3.15-8.25c1.36-3.56 4.76-5.77 8.38-5.77 1.03 0 2.08.18 3.11.56 4.64 1.72 7.01 6.87 5.29 11.51l-3.07 8.28c-1.88 4.96-4.39 11.56-6.89 18.17l-5.6 14.3 1.06.28 18.26-26.56c1.39-2 3.63-3.1 5.92-3.1 1.29 0 2.59.35 3.76 1.07 3.36 2.09 4.41 6.5 2.32 9.87l-19.73 31.87c-.4 1.64-.96 3.48-1.75 5.56 0 0-2.1 6.43-4.27 11.32l-2.04 4.59s-4.36 15.88-23.98 15.88c-4.12 0-8.92-.35-14.49-2.35h-.04c-.898 0-19.04-.66-27.11-13.82-3.41-4.52-7-10.89-6.27-16.89-1.8-2.64-4.07-5.68-6.56-8.4-.81-.82-1.57-1.72-2.4-2.48-.82-.75-1.59-1.58-2.4-2.21-.81-.65-1.55-1.37-2.318-1.87-.76-.52-1.44-1.11-2.12-1.49-1.34-.83-2.45-1.49-3.25-1.82l-1.23-.61-.79-.39-.06-.03c-4.39-2.23-6.14-7.6-3.91-11.99 1.58-3.09 4.71-4.87 7.96-4.87 1.36 0 2.74.31 4.04.97l2.02 1.02c1.32.62 3.05 1.66 5.04 2.97 1.03.64 1.99 1.45 3.08 2.25 1.11.79 2.1 1.74 3.2 2.68 1.11.93 2.09 1.99 3.17 3.02 1.06 1.04 2.02 2.16 3.03 3.25 1.778 2.02 3.41 4.1 4.89 6.12l.16-.33c-.01-.12-.022-.23-.022-.35l.89-61.98.02-.32c.24-5.1 4.45-9.07 9.5-9.07m0-8c-9.36 0-17.03 7.31-17.49 16.66-.01.14-.02.3-.02.44v.07l-.01.1-.61 42.82c-.6-.52-1.26-1.06-2-1.59-.31-.23-.61-.46-.9-.68-.74-.56-1.57-1.2-2.53-1.81-2.41-1.59-4.28-2.68-5.85-3.43-1.2-.61-1.88-.96-1.89-.96-2.39-1.21-5.04-1.84-7.68-1.84-6.4 0-12.18 3.54-15.09 9.25-4.23 8.32-.9 18.53 7.41 22.76l.08.04.08.04.73.37 1.24.62.25.13.26.11c.14.06.64.32 2.09 1.23l.14.08.09.05c.1.07.33.24.5.36.36.27.72.54 1.1.8l.06.05.06.04c.11.08.45.37.7.58.34.29.68.58 1.03.86l.05.04.05.04c.18.14.578.52.89.83.33.32.66.64 1 .95.31.29.7.7 1.1 1.13.3.32.6.64.9.95 1.63 1.79 3.11 3.69 4.3 5.32.21 5.98 2.8 12.34 7.74 18.98 9.28 14.72 27.38 16.89 32.42 17.21 5.62 1.62 10.94 2.44 15.83 2.44 19.77 0 29.09-13.4 31.5-21.06l1.84-4.12c2.13-4.79 4.14-10.78 4.51-11.91.64-1.71 1.19-3.4 1.64-5.03l19.1-30.84c4.4-7.1 2.2-16.46-4.9-20.87-2.41-1.49-5.16-2.27-7.98-2.27-.84 0-1.67.07-2.49.2l.302-.79c3.25-8.77-1.24-18.54-10-21.79-1.9-.71-3.88-1.06-5.89-1.06-.69 0-1.37.04-2.04.12-1.89-4.36-5.48-7.97-10.28-9.73-1.99-.73-4.08-1.1-6.2-1.1-7.49 0-14.25 4.72-16.84 11.74-.17.46-.33.95-.47 1.43-.14.48-.1.36-.29 1.02l.03-.53c.23-4.67-1.38-9.15-4.53-12.62-3.15-3.46-7.46-5.49-12.13-5.72-.28-.01-.56-.01-.84-.01l-.073-.1z"/><path fill="#FAC283" d="M224.48 95.028s2.18 4.597-2.104 15.907c0 0-2.103 6.432-4.276 11.322l-2.04 4.59s-6.376 23.192-38.462 13.452c0 0-28.96-.43-30.87-25.9l16.612-35.11 61.14 15.73zm-59.28 26.864s-.472 10.314-9.212 10.877c0 0-17.67-16.32-9.95-28.23"/><path fill="#FAC283" d="M190.87 97.923l2.935-8.812c1.814-5.26 4.23-12.29 6.65-19.31l6.865-19.24 3.21-8.72c1.9-5.16-.75-10.89-5.92-12.79-5.16-1.9-10.89.75-12.78 5.92-.09.25-.18.51-.24.76l-2.5 8.95-5.67 19.63-5.898 19.56-2.77 8.86c-1.39 4.47 1.1 9.23 5.568 10.63 4.42 1.38 9.12-1.04 10.58-5.41l-.03-.02zm-18.23-2.31l2.974-61.922c.255-5.25-3.805-9.71-9.057-9.96-5.254-.25-9.72 3.8-9.97 9.06-.007.09-.01.23-.013.32l-.885 61.99c-.07 4.69 3.67 8.54 8.36 8.61 4.58.07 8.36-3.53 8.59-8.07v-.02zm10.826-18.696s-9.427 8.888-13.883-1.83l3.385 17.902 10.498-16.08z"/><path d="M194.646 90.4s-11.35 1.074-13.85-6.995c0 0-.035 11.516 6.147 14.464 0 0-.145 11.51-19.713 6.74-.485-.12-.684-.06-.662.14-7.304-5.1-10.998-9.58-10.998-9.58-5.114 4.57 2.574 7.6 2.574 7.6l10.617 4.38c5.05 4.45 17.01 13.01 17.01 13.01l5.56-.64s-3.42-9.58 3.32-29.15v.01zm-22.666-2.62s2.8-4.94 6.29-5.73c0 0-4.3.91-5.43.02l-.68.88-.005-.005s-6.926 3.818-16.168 1.012l-.12 4.894s11.953 2.91 16.113-1.07zm31.45-28.564C200.404 64.23 188 57.208 188 57.208c5.204 8.32 14.04 6.202 14.04 6.202 3.015-3.85 1.39-4.194 1.39-4.194z" fill="#E2AB74"/><path fill="#FAC283" d="M207.766 103.942l3.284-8.196c1.933-4.933 4.507-11.517 7.08-18.097 2.503-6.61 5.01-13.21 6.892-18.17l3.067-8.28c1.71-4.64-.65-9.79-5.29-11.52-4.61-1.71-9.74.62-11.48 5.21l-3.15 8.25c-1.85 4.96-4.31 11.59-6.77 18.21l-6.59 18.27-2.93 8.33c-1.57 4.42.77 9.26 5.18 10.81 4.3 1.51 9-.66 10.68-4.85l.02.03zm7.38 15.948l28.714-46.378c2.086-3.365 1.043-7.778-2.317-9.864-3.263-2.017-7.52-1.088-9.674 2.03l-30.93 44.936c-2.66 3.862-1.68 9.145 2.18 11.798 3.85 2.66 9.14 1.69 11.79-2.17.07-.1.16-.23.22-.34l-.01-.012z"/><path fill="#E2AB74" d="M217.89 71.77s-8.833 2.116-14.036-6.2c0 0 12.405 7.017 15.43 2.006-.003 0 1.625.344-1.393 4.194zm-8.342 25.17s-8.83 2.12-14.04-6.205c0 0 12.41 7.024 15.43 2.008 0 0 1.63.347-1.39 4.197zm-36.323-44.483s-6.6 6.59-15.463-.032c0 0 .727 7.032 9.51 5.48 8.783-1.552 5.953-5.448 5.953-5.448zm.425 1.415s-7.952 7.976-16.814 1.35c0 0 .725 7.03 9.51 5.477 8.78-1.55 7.305-6.83 7.305-6.83zm54.03 46.142s-11.834.172-14.525-6.533l-2.284 1.51s4.03 2.84 4.43 5.7c0 0 7.87 5.08 5.23 15.8 0 0 2.12-8.18 3.58-10.98.66-1.25 3.58-5.49 3.58-5.49zm-7.61 10.5s-1.137 11.398-12.78 7.02l-3.978.17s-2.027 1.46-5.797.73c-3.767-.73-5.58.063-7.71-3.666l-3.696-.252s-.95 8.225 11.86 7.497c12.82-.73 8.87 13.277 8.87 13.277s17.61-16.056 13.22-24.776z"/><path fill="#FAC283" d="M163.715 109.038s-.354-.69-.977-1.894c-.62-1.155-1.51-2.732-2.64-4.587-2.27-3.696-5.54-8.467-9.45-12.918-1.02-1.1-1.98-2.22-3.04-3.26-1.08-1.03-2.05-2.09-3.17-3.02-1.1-.94-2.09-1.89-3.19-2.68-1.09-.8-2.05-1.61-3.08-2.25-2-1.32-3.72-2.36-5.04-2.97l-2.02-1.03c-4.39-2.23-9.76-.48-12 3.91-2.23 4.39-.49 9.76 3.91 11.99l.05.02.78.39 1.23.61c.79.33 1.9.99 3.24 1.82.67.38 1.362.97 2.122 1.49.76.5 1.51 1.22 2.32 1.87.81.63 1.58 1.46 2.4 2.21.818.76 1.59 1.65 2.39 2.47 3.14 3.44 5.95 7.37 7.89 10.4.96 1.51 1.72 2.8 2.21 3.68.45.84.72 1.32.72 1.32l.19.36c2.25 4.14 7.43 5.67 11.57 3.42 4.08-2.22 5.62-7.3 3.5-11.41l.085.05z"/><path fill="#E2AB74" d="M181.35 116.648c2.13.51 5.266 1.24 9.793 2.267 11.66 2.648 21.28 2.07 28.017.815-.35.86-.71 1.714-1.06 2.526l-2.05 4.59s-6.38 23.192-38.46 13.452c0 0-13.04-.207-22.2-8.036 26.12.887 26.17-13.02 25.94-15.614h.02zm-.047-.422s.022.158.047.422c.6.08-.05-.422-.05-.422h.003z"/><path fill="#fff" d="M126.853 91.845s.865-3.787 3.426-4.49c0 0-3.04-4.304-6.24-3.424-3.21.88-3.23 3.88-3.23 3.88s2.01 2.71 6.04 4.04z"/></svg>