<svg xmlns="http://www.w3.org/2000/svg" width="256" height="256" viewBox="0 0 256 256"><path fill="#0468A0" d="M129.508 224.924c-38.504 0-67.007-14.122-68.202-14.723-1.417-.71-2.28-2.19-2.196-3.78l4.23-81.19-49.387-26.79c-1.942-1.05-2.662-3.48-1.61-5.42L18.8 81.11c.506-.932 1.36-1.625 2.378-1.927.373-.11.756-.165 1.138-.165.077 0 .154.002.23.007 19.25-32.1 43.715-37.99 47.87-38.776 3.402-1.44 23.29-9.18 56.83-9.18 32.243 0 54.91 7.92 58.24 9.15 3.84.7 28.556 6.42 47.97 38.79.077-.01.153-.01.23-.01.382 0 .765.05 1.138.16 1.018.3 1.873.99 2.38 1.92L243.657 93c1.053 1.94.332 4.37-1.61 5.424l-49.382 26.792 4.228 81.19c.08 1.52-.708 2.95-2.032 3.694-1.07.608-26.75 14.81-65.35 14.81z"/><path fill="#333" d="M127.246 35.076c33.864 0 57.188 9.03 57.188 9.03s27.183 3.988 47.32 39.96l1.932-1.05 6.454 11.903-51.602 27.99 4.36 83.71s-25.396 14.29-63.39 14.29c-37.998 0-66.405-14.3-66.405-14.3l4.36-83.71L15.86 94.92l6.456-11.903 1.933 1.048c20.13-35.972 47.32-39.96 47.32-39.96s19.94-9.03 55.67-9.03m0-8c-33.09 0-53.43 7.46-58.01 9.334-5.65 1.18-29.84 7.93-49.12 38.91l-.08.02c-2.04.6-3.75 1.99-4.76 3.85L8.83 91.1c-2.11 3.886-.67 8.74 3.214 10.848l47.168 25.59-4.1 78.67c-.164 3.17 1.56 6.14 4.394 7.57 1.23.62 30.55 15.15 70 15.15 39.63 0 66.2-14.7 67.31-15.325 2.65-1.49 4.22-4.354 4.062-7.39l-4.1-78.67 47.164-25.59c3.883-2.105 5.323-6.96 3.217-10.844l-6.45-11.91c-1.01-1.87-2.73-3.26-4.76-3.86l-.08-.03c-19.51-31.35-44.04-37.89-49.31-38.96-4.43-1.6-27.34-9.29-59.33-9.29z"/><path fill="#0071BC" d="M71.57 44.107s-30.846 4.52-51.163 47.407l54.17 28.587-3.007-75.99z"/><path fill="#fff" d="M75.68 127.372L15.86 94.92l6.455-11.902 59.82 32.446z"/><path fill="#0071BC" d="M184.434 44.107s30.845 4.52 51.162 47.407L181.422 120.1l3.012-75.993z"/><path fill="#04577C" d="M76.086 64.42l-21.092 36.336 23.625 12.75M179.91 64.42l19.826 36.836-20 11.25"/><path fill="#fff" d="M180.324 127.372l-6.454-11.908 59.816-32.446 6.454 11.9z"/><path fill="#0071BC" d="M192.897 206.628s-25.395 14.296-63.39 14.296c-37.997 0-66.404-14.296-66.404-14.296l8.467-162.52s19.94-9.032 55.675-9.032c33.864 0 57.188 9.03 57.188 9.03l8.464 162.522z"/><path fill="#04577C" d="M161.86 48.338c0 3.897-14.784 10.44-33.013 10.44-18.23 0-33.01-6.543-33.01-10.44 0-3.435 11.473-6.29 26.674-6.927 2.06-.08 4.17-.12 6.34-.12 18.23 0 33.02 3.16 33.02 7.06z"/></svg>