<svg xmlns="http://www.w3.org/2000/svg" width="256" height="256" viewBox="0 0 256 256"><path fill="#93121C" d="M64.58 240.38c-13.83 0-25.96-12.524-25.96-26.804V40.35c0-13.31 10.917-22.97 25.96-22.97h125.67c14.35 0 24.37 9.446 24.37 22.97v173.226c0 14.78-10.933 26.805-24.37 26.805H64.58z"/><path fill="#333" d="M190.436 21.38c11.967 0 20.185 7.3 20.185 18.97v173.226c0 11.666-8.4 22.805-20.36 22.805H64.58c-11.96 0-21.96-11.13-21.96-22.8V40.35c0-11.67 10-18.97 21.96-18.97h126.04m-.37-8H64.58c-7.813 0-15.108 2.46-20.544 6.93-6.072 4.99-9.417 12.106-9.417 20.04v173.227c0 16.41 14 30.805 29.96 30.805h125.67c15.64 0 28.37-13.82 28.37-30.805V40.35c0-15.88-11.67-26.97-28.37-26.97z"/><path fill="#93121C" d="M211.62 213.576c0 11.666-9.403 21.805-21.37 21.805H64.58c-11.96 0-20.96-10.13-20.96-21.8V40.35c0-11.67 9-19.97 20.96-19.97h125.67c11.967 0 21.37 8.3 21.37 19.97v173.226z"/><path fill="#ccc" d="M131.646 153.63l13.99-2.64 33.262-130.07-49.105 25.5-52.46-25.02 33.448 129.59 14 2.64"/><path fill="#C1272D" d="M106.645 50.73l11.617 21.65h17.603-16.896 17.95l11.44-21.65-20.85-11.47zm51.048 155.59L135.865 72.38H118.97L97.145 206.286l-.05-.562 30.328 29.997 30.314-29.81z"/><path fill="#AF1C27" d="M146.904 140.09l-11.04-67.71H118.97l-1.09 8.23z"/><path fill="#F2F2F2" d="M77.096 20.92l34.177 40.72 16.723-21.815zm102.287 0l-35.387 41.686-16.242-22.78z"/><path fill="#ccc" d="M76.542 20.333l103.354.063-.5.583-51.23 19.68L77.334 21.5"/></svg>