<svg xmlns="http://www.w3.org/2000/svg" width="256" height="256" viewBox="0 0 256 256"><path fill="#42210B" d="M133.775 103.97s82.654-6.547 87.746 8c5.09 14.54-15.27 23.265-15.27 23.265l-61.8-15.27-10.66-15.996z"/><path fill="#603813" d="M206.498 138.29l-63.852-15.778-14.04-21.053 4.94-.4c.186-.02 18.895-1.48 38.835-1.48 42.93 0 50.17 6.51 51.88 11.41 4.74 13.53-8.96 23.51-16.86 26.9l-.89.38zm-60.262-20.878l59.7 14.75c3.493-1.73 16.433-8.955 12.84-19.234-.446-1.26-4.745-7.52-46.395-7.52-13.57 0-26.57.683-33.4 1.115l7.27 10.89z"/><path fill="#333" d="M128.26 87.97c6.29.84 11.31 7.24 14.432 12.51 7.363-.412 18.324-.886 29.693-.886 37.984 0 48.02 5.1 51.016 9.67 7.18 4.255 5.4 27.85 3.78 41.09 1.5.083 2.44.143 2.72.16l-.74 11.612c-.02-.002-.17-.01-.39-.02l-.32 2.577-76.71.362-.53-3.188c-12.66.674-25.51 1.802-37.37 3.604-12.19 1.86-23.48 2.57-33.6 2.57-32.4 0-52.97-7.28-54.08-7.69l3.96-10.94c.04.02.6.21 1.65.53 2.06-5.03 5.73-14.02 7.27-17.6 1.39-3.23 5.71-3.82 8.67-3.82 1.69 0 2.94.19 2.94.19l45.04-13.81c23.36-8.72 32.62-26.9 32.62-26.9m0-8c-2.96 0-5.72 1.65-7.1 4.33-.2.36-8.47 15.58-28.11 23l-43.3 13.26c-.61-.04-1.34-.07-2.13-.07-10.71 0-14.63 5.44-16.02 8.68-1.17 2.73-3.51 8.44-5.49 13.26-1.61.91-2.91 2.37-3.59 4.24l-3.96 10.94c-.72 2-.62 4.2.29 6.12.9 1.93 2.53 3.41 4.53 4.13 2.31.84 23.6 8.16 56.79 8.16 11.53 0 23.24-.89 34.81-2.65 9.02-1.38 19.28-2.44 30.58-3.18 1.48 1.76 3.69 2.85 6.12 2.85h.04l76.71-.36c4.02-.02 7.4-3.02 7.9-7.01l.02-.13c.43-.91.68-1.9.75-2.91l.74-11.62c.13-2.12-.58-4.21-1.98-5.8-.03-.03-.06-.07-.09-.1 2.79-28.59-1.74-37.77-6.77-41.69-3.21-3.9-8.4-6.63-16.14-8.5-9.31-2.25-22.56-3.35-40.51-3.35-9.39 0-18.49.32-25.52.66-5.21-7.25-11.1-11.35-17.56-12.21-.35-.05-.71-.07-1.06-.07z"/><path fill="#754C24" d="M146.258 107.605s-7.09-18.18-17.998-19.635c0 0-9.268 18.177-32.63 26.906L50.593 128.69s-9.43-1.458-11.61 3.634c-2.18 5.09-8.714 21.165-8.714 21.165s2.19 5.89 148.34 5.89h47.27s7.63-44.34-2.55-50.16c0 0-40.36 4.92-77.08-1.62z"/><path d="M80.2 168.03c-32.397 0-52.972-7.29-54.085-7.69l3.96-10.943c.335.12 33.874 11.888 81.98 4.566 50.207-7.643 115.097-3.623 117.83-3.447l-.738 11.614c-.664-.047-66.377-4.118-115.34 3.335-12.2 1.857-23.483 2.564-33.606 2.564zm69.874-12.8l1.637 9.82 76.72-.364 1.09-8.73"/><path fill="#42210B" d="M228.56 125.67c-.08-2.035-.237-3.987-.483-5.8-34.203 1.452-79.354 1.033-88.03-5.64.766-.667 1.54-1.35 2.324-2.06 1.42-1.28 3.25-2.847 5.13-4.35l-1.24-.216s-.86-2.22-2.45-5.167c-1.65 1.37-3.42 2.922-5.33 4.65-4.12 3.73-8.38 7.584-10.91 8.797-.34.166-.71.332-1.07.497-2.91-5.49-7.91-9.32-12.59-11.88-1.61 1.3-3.38 2.6-5.3 3.85 4.39 2.02 9.65 5.31 12.49 10.27-3.72 1.4-7.95 2.76-12.44 4.04-2.1-4.19-5.53-7.23-9.04-9.39-1.27.57-2.58 1.12-3.95 1.63l-3.54 1.09c3.69 1.53 8.21 4.12 10.75 8.26-13.45 3.49-28.25 6.18-38.63 7.02-10.33.84-16.57-.72-20.17-2.39-2.13.45-4.18 1.43-5.05 3.48l-.15.35c3.49 2.27 9.56 4.63 19.75 4.63 1.89 0 3.93.11 6.11-.07 18.35-1.5 49.71-8.22 65.37-15.71 1.59-.76 3.44-2 5.45-3.54.08.08.15.16.23.24 7.24 6.59 34.83 8.21 60.23 8.21 12.2 0 23.89-.37 32.59-.75z"/></svg>