<?xml version="1.0" encoding="utf-8"?>
<!-- Generator: Adobe Illustrator 16.0.0, SVG Export Plug-In . SVG Version: 6.00 Build 0)  -->
<!DOCTYPE svg PUBLIC "-//W3C//DTD SVG 1.1//EN" "http://www.w3.org/Graphics/SVG/1.1/DTD/svg11.dtd">
<svg version="1.1" id="Layer_1" xmlns="http://www.w3.org/2000/svg" xmlns:xlink="http://www.w3.org/1999/xlink" x="0px" y="0px"
	 width="256px" height="256px" viewBox="0 0 256 256" enable-background="new 0 0 256 256" xml:space="preserve">
<path fill="#42210B" d="M133.775,103.97c0,0,82.654-6.547,87.746,8c5.09,14.54-15.271,23.265-15.271,23.265l-61.8-15.27
	l-10.66-15.996L133.775,103.97z"/>
<path fill="#603813" d="M206.498,138.29l-63.852-15.778l-14.041-21.053l4.94-0.4c0.187-0.02,18.896-1.48,38.835-1.48
	c42.93,0,50.17,6.51,51.881,11.41c4.739,13.53-8.961,23.51-16.861,26.899l-0.889,0.381L206.498,138.29z M146.236,117.412
	l59.699,14.75c3.494-1.73,16.434-8.955,12.84-19.234c-0.445-1.26-4.744-7.52-46.395-7.52c-13.57,0-26.57,0.683-33.4,1.115
	l7.271,10.89L146.236,117.412z"/>
<path fill="#333333" d="M128.26,87.97c6.29,0.84,11.311,7.24,14.432,12.51c7.363-0.412,18.324-0.886,29.693-0.886
	c37.984,0,48.02,5.1,51.016,9.67c7.181,4.255,5.4,27.85,3.781,41.089c1.5,0.084,2.439,0.144,2.719,0.16l-0.739,11.612
	c-0.021-0.002-0.17-0.01-0.39-0.021l-0.32,2.578l-76.71,0.361l-0.53-3.188c-12.66,0.674-25.51,1.802-37.37,3.604
	c-12.19,1.859-23.48,2.57-33.6,2.57c-32.4,0-52.97-7.28-54.08-7.69l3.96-10.94c0.04,0.021,0.6,0.211,1.65,0.531
	c2.06-5.031,5.73-14.021,7.27-17.601c1.39-3.229,5.71-3.82,8.67-3.82c1.69,0,2.94,0.19,2.94,0.19l45.04-13.81
	c23.36-8.72,32.62-26.9,32.62-26.9 M128.311,79.991c-2.96,0-5.72,1.65-7.1,4.33c-0.2,0.36-8.47,15.58-28.11,23l-43.3,13.26
	c-0.61-0.04-1.34-0.07-2.13-0.07c-10.71,0-14.63,5.44-16.02,8.681c-1.17,2.729-3.51,8.439-5.49,13.26
	c-1.61,0.91-2.91,2.369-3.59,4.24l-3.96,10.939c-0.72,2-0.62,4.2,0.29,6.12c0.9,1.931,2.53,3.41,4.53,4.13
	c2.31,0.84,23.6,8.16,56.79,8.16c11.53,0,23.24-0.891,34.81-2.65c9.02-1.38,19.28-2.439,30.581-3.18
	c1.479,1.76,3.689,2.85,6.119,2.85h0.041l76.709-0.359c4.021-0.02,7.4-3.02,7.9-7.01l0.02-0.131c0.431-0.91,0.681-1.899,0.75-2.91
	l0.74-11.619c0.131-2.12-0.58-4.21-1.979-5.801c-0.03-0.029-0.06-0.069-0.091-0.1c2.791-28.59-1.739-37.77-6.77-41.69
	c-3.21-3.9-8.4-6.63-16.14-8.5c-9.31-2.25-22.56-3.35-40.511-3.35c-9.389,0-18.489,0.32-25.52,0.66
	c-5.21-7.25-11.1-11.35-17.561-12.21c-0.35-0.05-0.709-0.07-1.059-0.07L128.311,79.991z"/>
<path fill="#754C24" d="M146.258,107.605c0,0-7.09-18.18-17.998-19.635c0,0-9.268,18.177-32.63,26.906l-45.037,13.813
	c0,0-9.43-1.458-11.61,3.635c-2.18,5.09-8.714,21.165-8.714,21.165s2.19,5.89,148.34,5.89h47.27c0,0,7.63-44.34-2.55-50.16
	c0,0-40.36,4.92-77.08-1.62L146.258,107.605z"/>
<path d="M80.2,168.03c-32.397,0-52.972-7.29-54.085-7.69l3.96-10.943c0.335,0.121,33.874,11.889,81.98,4.566
	c50.207-7.643,115.097-3.623,117.83-3.447l-0.738,11.614c-0.664-0.047-66.377-4.118-115.339,3.335
	C101.607,167.322,90.324,168.029,80.2,168.03L80.2,168.03z"/>
<polyline points="150.074,155.23 151.711,165.05 228.432,164.686 229.521,155.956 "/>
<path fill="#42210B" d="M228.561,125.67c-0.08-2.035-0.237-3.987-0.483-5.8c-34.203,1.452-79.354,1.033-88.03-5.64
	c0.766-0.667,1.54-1.35,2.324-2.06c1.42-1.28,3.25-2.847,5.13-4.35l-1.239-0.216c0,0-0.861-2.22-2.451-5.167
	c-1.649,1.37-3.42,2.922-5.33,4.65c-4.119,3.73-8.379,7.584-10.91,8.797c-0.34,0.166-0.71,0.332-1.07,0.497
	c-2.91-5.49-7.91-9.32-12.59-11.88c-1.61,1.3-3.38,2.6-5.3,3.85c4.39,2.02,9.65,5.31,12.49,10.27c-3.72,1.4-7.95,2.76-12.44,4.04
	c-2.1-4.19-5.53-7.23-9.04-9.39c-1.27,0.57-2.58,1.12-3.95,1.63l-3.54,1.09c3.69,1.53,8.21,4.12,10.75,8.26
	c-13.45,3.49-28.25,6.181-38.63,7.021c-10.33,0.84-16.57-0.721-20.17-2.391c-2.13,0.45-4.18,1.43-5.05,3.48l-0.15,0.35
	c3.49,2.27,9.56,4.63,19.75,4.63c1.89,0,3.93,0.11,6.11-0.069c18.35-1.5,49.71-8.221,65.37-15.71c1.59-0.76,3.439-2,5.449-3.54
	c0.08,0.08,0.15,0.16,0.23,0.24c7.24,6.59,34.83,8.21,60.23,8.21c12.199,0,23.89-0.37,32.59-0.75L228.561,125.67z"/>
</svg>
