<?xml version="1.0" encoding="utf-8"?>
<!-- Generator: Adobe Illustrator 16.0.0, SVG Export Plug-In . SVG Version: 6.00 Build 0)  -->
<!DOCTYPE svg PUBLIC "-//W3C//DTD SVG 1.1//EN" "http://www.w3.org/Graphics/SVG/1.1/DTD/svg11.dtd">
<svg version="1.1" id="Layer_1" xmlns="http://www.w3.org/2000/svg" xmlns:xlink="http://www.w3.org/1999/xlink" x="0px" y="0px"
	 width="256px" height="256px" viewBox="0 0 256 256" enable-background="new 0 0 256 256" xml:space="preserve">
<path fill="#FFFFFF" d="M67.764,185.109c-0.664,0-1.324-0.164-1.918-0.489l-7.36-4.022L27.06,163.452
	c-1.59-0.87-2.366-2.67-1.99-4.37c-1.3-1.172-1.72-3.107-0.904-4.75l5.168-10.418c0.47-0.95,1.3-1.674,2.307-2.014
	c0.42-0.14,0.85-0.199,1.28-0.199c0.61,0,1.22,0.14,1.78,0.42l0.84,0.42c5.34-7.189,15.27-14.47,33.64-14.47
	c1.81,0,3.68,0.08,5.59,0.22c1.4-1.11,3.9-3.05,7.29-5.54l-0.71-1.4c-1-1.96-0.22-4.37,1.75-5.38l10.37-5.28
	c0.58-0.29,1.2-0.43,1.81-0.43c0.47,0,0.92,0.08,1.35,0.23c0.3-1.02,1-1.91,2.02-2.43l10.36-5.29c0.58-0.29,1.21-0.44,1.82-0.44
	c0.46,0,0.92,0.08,1.35,0.24c0.01-0.04,0.03-0.07,0.04-0.11c0.33-1.01,1.04-1.84,1.99-2.32l10.37-5.28c0.58-0.3,1.2-0.44,1.81-0.44
	c0.51,0,1.02,0.1,1.49,0.29c0.16-0.07,0.32-0.15,0.48-0.23c-1.03-7.15-1.76-17.07,1.29-20.89c1.391-1.72,3.961-3.32,13.32-3.32
	c5.141,0,20.42,0.88,24.2,3.72c3.681,2.76,6.16,13.78,6.931,21.61l0.159,0.1c4.28,2.52,8.71,5.13,13.4,7.2
	c0.61,0.27,1.229,0.53,1.85,0.78c7.351-1.29,22.851-4.5,31.03-9.73c0.23-0.15,0.48-0.27,0.74-0.37c0.34-0.13,2.15-0.78,4.16-0.78
	c3.68,0,6.35,2.23,6.81,5.69c0.5,3.71-3.58,16.22-7.21,26.36c2.75,7.54,8.32,25.2,5.63,38.06c0.09,0.33,0.14,0.67,0.14,1.021
	l0.051,11.629c0.01,0.881-0.271,1.7-0.75,2.36l0.02,1.521c0.01,1.069-0.4,2.09-1.15,2.84c-0.739,0.76-1.76,1.189-2.819,1.199
	l-25.91,0.23c-1.05,0-2.05-0.41-2.8-1.141c-0.75-0.739-1.15-1.76-1.16-2.819l-3.6,0.021v0.02c0,2.21-1.791,4.02-4,4.029l-46.59,0.4
	c-2.19,0-3.99-1.77-4.011-3.97l0.12-0.22l-3.51,0.02v0.24c0,1.061-0.52,2.08-1.27,2.84c-0.74,0.76-1.811,1.189-2.881,1.189
	l-37.84,0.33l-8.77,0.07c-2.19,0-3.99-1.77-4.01-3.96l-0.01-0.43l-7.25,0.04l-1.21,2.57c-0.47,1-1.33,1.76-2.37,2.1
	c-0.41,0.13-0.82,0.2-1.24,0.2L67.764,185.109z"/>
<path fill="#333333" d="M142.93,74.21c8.7,0,19.95,1.532,21.797,2.92c1.967,1.472,4.926,11.253,5.519,20.807
	c4.874,2.85,10.114,6.064,15.76,8.554c1.004,0.45,2.021,0.87,3.05,1.26c7.797-1.32,24.514-4.68,33.6-10.49c0,0,1.361-0.51,2.74-0.51
	c1.295,0,2.606,0.46,2.838,2.22c0.485,3.64-7.271,25.21-7.271,25.21s-0.146,0.09-0.41,0.2c2.15,5.58,9.595,26.54,5.681,39.53h0.522
	l0.054,11.63l-0.775,0.01l0.033,3.891l-8.728,0.08l-8.43,0.08l-8.729,0.069l-0.041-3.979l-11.64,0.06l0.03,4.04l-8.73,0.07
	l-29.09,0.25l-8.73,0.07l-0.039-4.201l-11.631,0.051l0.03,4.25l-8.73,0.08l-29.09,0.26l-8.73,0.07l-0.04-4.42l-13.75,0.06
	l-2.29,4.851l-7.36-4.021l-25.58-13.96l-5.85-3.2l1.23-2.61l-2.46-1.22l5.17-10.42l4.01,1.99c3.97-6.851,12.84-15.63,32.25-15.63
	c2.15,0,4.43,0.109,6.84,0.34c0,0,4.19-3.42,11.15-8.44l-2.26-4.439l10.36-5.28l1.55,3.04c1.57-1.04,3.2-2.12,4.9-3.21l-1.26-2.47
	l10.36-5.28l0.83,1.63c1.65-0.97,3.33-1.94,5.04-2.9l-0.7-1.37l10.37-5.28l0.6,1.19c1.9-0.95,3.83-1.89,5.77-2.79
	c0,0-2.91-17.09,0-20.72c1.06-1.32,5.21-1.82,10.19-1.82"/>
<path fill="#333333" d="M142.859,66.311c-8.93,0-13.69,1.4-16.44,4.83c-2.7,3.37-3.51,8.39-2.82,17.34
	c0.06,0.82,0.13,1.62,0.21,2.39c-0.39,0.12-0.78,0.28-1.15,0.48l-10.37,5.28c-0.9,0.45-1.69,1.07-2.35,1.81
	c-0.96,0.09-1.92,0.37-2.84,0.83l-10.3,5.23c-0.92,0.47-1.7,1.09-2.35,1.81c-0.96,0.1-1.93,0.37-2.84,0.84l-10.36,5.28
	c-3.38,1.72-5.01,5.5-4.14,9.03c-1.45,1.09-2.67,2.03-3.63,2.77c-1.48-0.08-2.92-0.12-4.33-0.12c-18.4,0-29.02,7.12-34.91,13.75
	c-0.44-0.07-0.89-0.11-1.34-0.11c-0.86,0-1.72,0.14-2.55,0.42c-2.01,0.681-3.67,2.13-4.61,4.03l-5.17,10.42
	c-1.29,2.6-1.04,5.55,0.4,7.84c0.15,2.68,1.64,5.21,4.15,6.58l5.85,3.189l25.58,13.951l7.35,4.02c1.18,0.65,2.51,0.98,3.83,0.98
	c0.84,0,1.67-0.131,2.48-0.391c2.1-0.68,3.82-2.2,4.76-4.189l0.13-0.281l1.57-0.129c1.32,2.609,4.03,4.27,7.14,4.27h0.07l8.72,0.05
	l29.09-0.19l8.72-0.039c2.12-0.021,4.149-0.86,5.64-2.381c0.051-0.049,0.1,0.031,0.15-0.02c1.46,1.51,3.5,2.59,5.77,2.59h0.07
	l8.721-0.199l29.09-0.311l8.719-0.109c2.291-0.021,4.351-1.011,5.801-2.57c0.05,0.06,0.1-0.021,0.16,0.039
	c1.49,1.471,3.51,2.171,5.609,2.171h0.07l8.721,0.05l8.43-0.01l8.72-0.04c2.12-0.021,4.149-0.86,5.64-2.37s2.311-3.551,2.291-5.67
	l-0.011-0.44c0.479-1.04,0.75-2.2,0.74-3.42l-0.05-11.63c0-0.33-0.021-0.66-0.061-0.98c2.37-12.85-2.25-29.029-5.449-38.089
	c7.639-21.56,7.119-25.41,6.92-26.89c-0.721-5.46-5.051-9.15-10.771-9.15c-2.649,0-4.94,0.8-5.58,1.04
	c-0.521,0.2-1.01,0.44-1.47,0.74c-5.25,3.35-15.77,6.66-28.43,8.96l-0.69-0.29c-3.931-1.73-7.75-3.91-11.45-6.08
	c-0.83-6.51-3.02-18.43-8.26-22.36c-1.58-1.18-4.141-2.44-12.061-3.5c-4.779-0.64-10.07-1.01-14.539-1.01L142.859,66.311z"/>
<polygon fill="#333333" points="40.459,151.161 67.51,162 75.3,165.12 67.73,181.175 60.37,177.154 34.8,163.189 28.95,159.996 
	34.28,148.686 "/>
<polygon fill="#333333" points="92.379,163.161 121.469,162.911 130.189,162.841 130.339,180.301 121.609,180.381 92.519,180.631 
	83.799,180.701 83.649,163.251 "/>
<polygon fill="#333333" points="150.549,162.671 179.639,162.421 188.369,162.352 188.52,179.811 179.789,179.891 150.699,180.141 
	141.969,180.211 141.818,162.761 "/>
<polygon fill="#333333" points="208.719,162.171 217.148,162.091 225.879,162.021 226.029,179.471 217.309,179.541 208.879,179.621 
	200.159,179.701 200.02,162.251 "/>
<path fill="#04659B" d="M33.844,155.66c0,0,3.998-26.904,42.174-23.27c0,0,26.176-21.448,56.72-35.631c0,0-2.913-17.086,0-20.725
	c2.906-3.63,29.085-1.09,31.99,1.093c2.906,2.18,8,22.544,4.363,33.45c-3.637,10.908-2.18,55.99-2.18,55.99l-95.988,5.09
	L33.844,155.66L33.844,155.66z"/>
<path fill="#1189CC" d="M58.813,162.689c0,0,5.326-21.09,25.203-21.569l3.633-10.183c0,0,34.41-16.724,54.77-25.204
	c0,0-2.42-5.336-0.97-7.52c11.119-16.676,25.56-0.096,44.55,8.276c8.45,3.733,17.81,5.824,28.17,2.636l9.45-1.454l-3.631,15.268
	c0,0,10.66,29.812,4.841,44.357l-24.97,1.45L67.529,170.93l-8.72-8.24H58.813z"/>
<path fill="#FFFFFF" d="M95.264,114.224L84.9,119.506l10.565,20.732l10.37-5.283L95.264,114.224z M110.81,106.297l-10.363,5.285
	l10.57,20.729l10.368-5.288L110.81,106.297z M126.36,98.37l-10.37,5.28l10.573,20.735l10.363-5.285L126.36,98.37z"/>
<path fill="#04659B" d="M178.18,168.023c0,0,11.271-43.629,41.814-45.084c0,0,12.598,30.17,4.842,44.35l-46.656,0.73V168.023z
	 M184.844,108.396c0,0,25.69-3.398,37.811-11.15c0,0,5.1-1.937,5.576,1.696c0.49,3.64-7.27,25.21-7.27,25.21
	s-3.641,2.183-8.48-1.212c-4.84-3.39-21.08-6.788-24.959-6.544c-3.881,0.242-5.83-5.09-2.67-8H184.844z M115.99,171.716
	l-12.385-26.84l-5.09,3.813c-0.547,1.537-1.88,4.123-4.768,5.258c-2.98,1.174-6.5,0.348-10.45-2.461
	c-0.782-0.551-3.157,0.091-5.937,2.473c-4.52,3.859-8.12,10.5-6.258,14.221l-5.205,2.59c-3.336-6.67,1.465-15.931,7.678-21.24
	c4.836-4.141,9.732-5.19,13.096-2.79c2.16,1.53,3.98,2.159,4.96,1.78c0.97-0.391,1.48-1.9,1.54-2.19l0.22-1.09l12.48-9.36
	l13.8,29.88l40.841-1.25c-4.66-8.09-14.621-25.46-17.98-31.89c-3.561-6.84-0.24-13.44,3.08-17.24l-9.6-12.51l4.619-3.55l12.84,16.75
	l-2.119,1.79c-0.271,0.24-6.86,5.91-3.65,12.06c4.29,8.21,20.14,35.601,20.3,35.88l2.45,4.221l-54.45,1.689L115.99,171.716z"/>
<path fill="#FFFFFF" d="M68.36,176.273l-40.61-20.166l5.168-10.416l38.154,18.937l155.684-0.752l0.053,11.632L68.36,176.273z"/>
</svg>
