<svg xmlns="http://www.w3.org/2000/svg" width="256" height="256" viewBox="0 0 256 256"><path fill="#ccc" d="M70.5 180.38c-12.57 0-22.424-9.75-22.476-22.215l-2.333-49.212L31 120.086c-.7.53-1.55.812-2.416.812-.24 0-.482-.02-.723-.066-1.1-.203-2.07-.86-2.66-1.813l-6.06-9.71c-.59-.95-.76-2.11-.46-3.2s1.05-1.99 2.05-2.5l20.5-10.39c.22-.11.44-.2.66-.27.57-1.52 2.03-2.6 3.75-2.6h.5c.14-.26.31-.51.5-.73v-.27c0-1.45.77-2.71 1.91-3.41 4.12-6.57 11.51-10.58 19.7-10.58H213.2c10.313 0 18.93 6.15 21.934 15.29 1.465.59 2.497 2.03 2.497 3.71v7c0 .31-.03.61-.1.91.07.38.11.78.11 1.18v1.03c0 1.74-.66 3.36-1.89 4.72l-2.32 48.94c-.06 12.46-9.91 22.21-22.48 22.21H70.5z"/><path fill="#333" d="M213.19 79.38c9.377 0 17.154 6.21 18.755 15h1.674v7h-.88c.55.618.87 1.317.87 2.09v1.035c0 1.14-.7 2.09-1.82 2.843l-2.41 50.72c0 10.536-8.27 18.313-18.48 18.313H70.5c-10.205 0-18.476-7.77-18.476-18.31l-2.688-56.68H46.21l-.24.15.93 1.49-18.315 13.88-6.066-9.7 20.5-10.38.93 1.49 1.67-1.04V94.4h3.86c.03-.15.04-.31.07-.46l.08-1.65s.14-.067.39-.18c.17-.527.36-1.04.58-1.546v-1.17h.56c3.13-6.05 9.58-10 17.05-10h144.96m-184.55 34.3l3.36-2.11-3.45-5.52-3.37 2.1 3.45 5.53M213.17 71.39H68.24c-9.303 0-17.734 4.45-22.657 11.79-1.157.94-2.046 2.197-2.537 3.64-1.655.562-3.067 1.652-4.035 3.07l-20.1 10.18c-2 1.016-3.49 2.827-4.09 4.992-.6 2.164-.26 4.48.93 6.387l6.07 9.7c1.19 1.9 3.13 3.22 5.34 3.62.48.08.97.13 1.45.13 1.73 0 3.43-.57 4.83-1.63l8.64-6.55 1.97 41.54c.11 14.65 11.7 26.11 26.48 26.11h140.42c14.78 0 26.37-11.45 26.48-26.11l2.26-47.59c1.28-1.84 1.97-3.96 1.97-6.18v-1.04c0-.38-.02-.76-.06-1.13.04-.32.06-.64.06-.97v-7c0-2.64-1.28-4.99-3.26-6.44-3.98-9.84-13.85-16.56-25.17-16.56z"/><path fill="#FCEE21" d="M229.397 158.066c0 10.537-8.267 18.314-18.476 18.314H70.5c-10.205 0-18.476-7.777-18.476-18.314l-2.86-60.323c0-10.532 8.537-18.362 19.073-18.362H213.19c10.536 0 19.073 7.83 19.073 18.37l-2.866 60.33z"/><path fill="#C9B81C" d="M49.64 92.27s19.47-9.157 41.4-5.978c21.935 3.176 58.056 1.618 69.5.666 11.446-.957 63.994-9.954 69.076 8.8 5.087 18.757-62.198 5.623-62.198 5.623H49.164l.476-9.11z"/><path fill="#f00" d="M233.62 104.505c0 3.14-5.275 4.876-10.103 4.876H57.907c-4.83 0-7.288-1.73-7.288-4.87v-1.03c0-3.14 2.45-5.09 7.28-5.09h165.61c4.82 0 10.1 1.95 10.1 5.09v1.04z"/><path fill="#ccc" d="M46.898 103.018L43.02 96.81l-20.5 10.387 6.066 9.7 18.314-13.88zm-18.26 10.668l-3.452-5.53 3.37-2.102 3.45 5.52-3.368 2.112z"/><path fill="#999" d="M42.74 103.553l-2.03-3.237 6.48-4.04 2.014 3.23z"/><path fill="#B3B3B3" d="M45.62 94.38h188v7h-188z"/><path fill="#ccc" d="M50.62 89.38h4v12h-4zm7 0h5v12h-5zm9 0h1v12h-1zm5 0h4v12h-4zm8 0h4v12h-4zm8 0h4v12h-4zm7 0h4v12h-4zm8 0h3v12h-3zm8 0h4v12h-4zm8 0h2v12h-2zm6 0h5v12h-5zm8 0h5v12h-5zm9 0h4v12h-4zm7 0h3v12h-3zm9 0h4v12h-4zm6 0h5v12h-5zm8 0h4v12h-4zm8 0h4v12h-4zm7 0h4v12h-4zm8 0h4v12h-4zm8 0h5v12h-5zm9 0h3v12h-3zm7 0h2v12h-2zm7 0h3v12h-3zm-107 0h2v12h-2z"/></svg>