<svg xmlns="http://www.w3.org/2000/svg" width="256" height="256" viewBox="0 0 256 256"><path fill="#065A7F" d="M176.624 227.826c-.218 0-.437-.018-.65-.055l-2.96-.49c-.068-.01-.137-.02-.203-.04-.67-.14-3.37-.73-3.67-.79-.99-.21-2.11-.44-3.02-.74l-.13-.04c-1.12-.33-2.39-.7-3.44-1.19l-1.42-.58c-.1-.04-.19-.08-.29-.13-.35-.18-.66-.35-.98-.54l-.51-.29c-2.41-1.47-3.69-3.63-3.8-6.44-.54-4.98-2.26-20.63-2.26-20.68-.22-3.06-.68-6.38-1.16-9.9-.16-1.22-.33-2.45-.5-3.7-.51-3.54-.93-7.19-1.38-11.06-.16-1.46-.34-2.94-.51-4.43-.64-5.73-1.4-11.54-2.07-16.47-.74-5.39-1.46-11.18-2.12-17.18-.33-3.08-.74-6.23-1.14-9.27-.34-2.62-.68-5.23-.98-7.83-.41-3.12-.76-6.28-1.08-9.36-4.51-2.03-9.31-3.06-14.32-3.06-4.47 0-9.06.8-13.66 2.38l-.02.19c-.34 3.24-.68 6.59-1.13 9.96-.29 2.52-.62 5.14-.96 7.76-.39 3.04-.79 6.18-1.12 9.26-.64 5.91-1.34 11.7-2.1 17.21-.61 4.56-1.4 10.56-2.05 16.43-.16 1.4-.32 2.77-.47 4.12-.46 3.99-.89 7.76-1.42 11.46-.16 1.23-.33 2.48-.5 3.72-.47 3.5-.92 6.79-1.14 9.83l-2.28 20.84-.03.21c-.01.09-.02.17-.02.25-.05.6-.14 1.59-.7 2.67-.7 1.44-1.94 2.36-2.77 2.97-.15.11-.3.2-.46.29l-.36.2c-.34.2-.68.39-1.07.57l-.19.09c-.43.17-.84.34-1.25.5l-.24.1c-1.07.48-2.38.85-3.54 1.18l-.1.03c-.91.31-2.03.53-3.02.74-.32.07-.62.13-.89.19l-2.94.62-.17.03-3.02.49c-.21.03-.43.05-.64.05l-4.22-.06c-.23 0-.47-.03-.7-.07l-2.98-.59c-.07-.02-.15-.03-.22-.05-.75-.19-1.69-.43-2.8-.71-.29-.08-.56-.15-.85-.22-1.01-.25-2.14-.53-3.06-.89l-.03-.01c-1.17-.39-2.49-.84-3.56-1.42l-1.41-.67c-.08-.04-.16-.08-.24-.13-.36-.21-.68-.41-1-.63l-.35-.23c-.17-.11-.34-.23-.49-.37-.78-.69-1.95-1.71-2.53-3.25-.45-1.1-.45-2.1-.46-2.71 0-.09.01-.19 0-.28-.01-.08-.01-.16-.01-.23l-.57-21.98c-.1-3.52.02-7.13.14-10.95l.12-3.87c.08-3.81.27-7.7.47-11.81.08-1.5.15-3.02.22-4.55.15-2.85.29-5.73.45-8.63 0-.05 0-.11.01-.17l.84-8.74c.52-5.67 1.15-11.7 1.89-17.92.42-4.45 1.13-8.93 1.82-13.26.24-1.53.49-3.07.72-4.59.7-4.71 1.52-9.34 2.31-13.82 0 0 .61-3.46.62-3.5l.97-4.6c1.94-9.26 3.78-18.02 5.9-25.62 2.4-9.11 4.51-16.28 6.26-21.27.28-.83.54-1.64.78-2.37.48-1.46.86-2.62 1.23-3.57.37-.96.51-1.5.51-1.5.47-1.8 2.1-3.02 3.89-3.02.14 0 .28.01.42.02.11-.03.22-.05.33-.06.37-.05 9.27-1.28 19.12-1.28 7.1 0 12.92.65 17.3 1.92 2.57.75 5.79 1.13 9.56 1.13 10.03 0 20.35-2.69 20.45-2.71.33-.08.68-.13 1.02-.13.1 0 .21.01.31.01l19.4 1.51.88.06c.25-.05.52-.08.79-.08.5 0 .98.1 1.44.27 1.13.14 2.15.77 2.8 1.71.65.96.86 2.16.56 3.28.35.99.75 2.21 1.22 3.65l.42 1.26c.83 2.4 1.78 5.47 2.89 9.32.34 1.22.69 2.44 1.05 3.7.72 2.49 1.53 5.32 2.28 8.29 2.12 7.66 3.97 16.62 5.93 26.1l.87 4.18.6 3.47c.78 4.45 1.58 9.04 2.28 13.71.23 1.59.48 3.18.73 4.78.67 4.27 1.36 8.7 1.78 13.18.71 6.12 1.34 12.16 1.85 17.85l.83 8.72c.01.06.01.12.01.19.11 2.23.44 8.6.44 8.6.06 1.5.13 2.96.2 4.41.2 4.18.39 8.12.47 12 .03 1.3.07 2.59.12 3.86.12 3.82.24 7.44.14 10.96l-.57 21.8c.13 2.9-.97 5.2-3.27 6.86l-.48.33c-.32.22-.64.44-1 .65-.09.06-.19.11-.29.15l-1.34.65c-1.04.57-2.31 1.01-3.44 1.4l-.09.03c-.88.35-1.95.62-2.91.87-.31.08-.61.15-.88.23l-2.85.73c-.06.01-.12.03-.19.04l-2.91.59c-.24.05-.48.07-.73.08 0 .01-4.2.08-4.22.08z"/><path fill="#0071BC" d="M197.557 178.614c-.115-5.185-.424-10.636-.678-16.287-.15-2.827-.3-5.694-.44-8.604-.28-2.884-.56-5.805-.83-8.744-.53-5.9-1.15-11.87-1.85-17.84-.56-6-1.62-11.89-2.48-17.74-.87-5.84-1.91-11.55-2.87-17.09-2.29-11.02-4.33-21.29-6.73-29.99-1.1-4.37-2.32-8.33-3.29-11.86-1.03-3.56-1.98-6.66-2.85-9.18-.84-2.55-1.47-4.52-1.97-5.81l-.09-.22.35-1.17-44.13 7.79-13.66-1.63v-.01L83.5 33.49l-.763 2c-.51 1.285-1.15 3.253-2.005 5.8-1.78 5.076-3.916 12.335-6.206 21.02-2.43 8.705-4.495 18.97-6.818 29.98-.97 5.535-2.03 11.254-2.9 17.09-.877 5.84-1.954 11.738-2.516 17.73-.708 5.967-1.344 11.946-1.877 17.835-.28 2.944-.562 5.866-.837 8.75-.152 2.905-.3 5.776-.445 8.604-.257 5.64-.573 11.1-.69 16.28-.136 5.18-.39 10.05-.26 14.62.236 9.09.436 16.67.57 21.98.057.66-.057 1.29.208 1.88.2.59.83 1.16 1.43 1.69.42.26.76.52 1.19.76.52.25 1.02.48 1.49.71.82.45 2.07.86 3.16 1.23.9.36 2.45.7 3.52.98 1.13.28 2.07.52 2.83.72l2.97.59 4.15.06 3.01-.49c.78-.17 1.74-.38 2.89-.62 1.09-.24 2.66-.51 3.59-.83 1.12-.32 2.4-.68 3.25-1.08.5-.2 1.01-.4 1.54-.62.45-.22.81-.44 1.24-.68.65-.48 1.33-.98 1.57-1.54.31-.56.25-1.15.36-1.77l2.27-20.69c.31-4.27 1.04-8.93 1.68-13.84.7-4.9 1.25-10.08 1.88-15.44.59-5.35 1.31-10.89 2.06-16.53.77-5.63 1.47-11.36 2.09-17.1.62-5.73 1.46-11.47 2.1-17.12.56-4.22.96-8.41 1.39-12.51 8.41-3.35 21.81-6.21 35.45.95.41 3.78.8 7.64 1.32 11.52.65 5.65 1.5 11.38 2.13 17.12.63 5.73 1.33 11.46 2.11 17.09.76 5.64 1.49 11.18 2.08 16.53.64 5.35 1.19 10.54 1.89 15.45.64 4.91 1.38 9.56 1.69 13.83.95 8.56 1.73 15.7 2.27 20.7.03 1.25.35 2.37 1.89 3.31.43.24.78.46 1.22.69l1.52.62c.83.39 2.09.75 3.18 1.07.92.32 2.46.6 3.53.83 1.13.24 2.07.44 2.83.61l2.95.49 4.16-.07 2.9-.59c.75-.19 1.67-.43 2.78-.71 1.05-.29 2.57-.63 3.45-.99 1.07-.37 2.29-.79 3.09-1.24.47-.23.96-.47 1.46-.71.43-.25.76-.5 1.16-.77 1.47-1.06 1.69-2.25 1.61-3.57.15-5.3.34-12.88.58-21.97.13-4.57-.12-9.44-.25-14.62z"/><path fill="#025F93" d="M64.896 78.042l-.68-4.1c29.52-4.92 41.602-40.81 41.72-41.172l3.95 1.293c-.515 1.574-12.96 38.638-44.99 43.98zm123.624.282c-34.422-2.147-43.358-44.587-43.444-45.018l4.07-.817c.085.39 8.406 39.74 39.634 41.69l-.26 4.14zm-55.43 26.77l-4.152-.052.78-70.09 4.155.046z"/><path fill="#fff" d="M138.284 105.078l-2.074-.023.038-3.637 2.074.024-.038 3.636zm.137-11.942l-2.07-.027.09-8.31 2.08.02-.08 8.31zm.19-16.618l-2.07-.022.09-8.31 2.08.026-.09 8.306zm.19-16.61l-2.07-.022.09-8.31 2.08.025-.09 8.31zm.18-16.614l-2.07-.026.1-8.306 2.08.027-.09 8.3z"/><path fill="#025F93" d="M132.62 81.184c-7 0-10.087-1.827-12.76-5.43-8.728-11.76-1.228-38.935-.88-40.08l3.676 1.2c-.08.266-6.792 26.32.688 36.405 1.877 2.52 3.275 3.75 9.275 3.75v4.15z"/><path fill="#065A7F" d="M116.064 40.263v.003l13.654 1.633 44.13-7.79-22.324-1.74s-19.728 5.19-32.19 1.56c-12.462-3.64-34.787-.53-34.787-.53v.29l31.517 6.55z"/><path fill="#333" d="M103.19 32.174c5.656 0 11.585.423 16.18 1.763 3.23.942 6.945 1.29 10.68 1.29 10.667 0 21.474-2.85 21.474-2.85l19.406 1.507 1.877.12s.04-.128.103-.128c.034 0 .08.042.128.17l.813.064-.35 1.16.09.22c.51 1.288 1.14 3.26 1.97 5.806.87 2.524 1.82 5.63 2.85 9.182.98 3.528 2.2 7.488 3.29 11.855 2.41 8.705 4.44 18.976 6.73 29.99.96 5.536 2.01 11.253 2.87 17.086.86 5.84 1.93 11.74 2.48 17.73.7 5.96 1.33 11.94 1.85 17.83l.83 8.74c.15 2.91.29 5.77.44 8.6.26 5.65.57 11.1.68 16.28.14 5.18.39 10.05.26 14.61-.24 9.09-.43 16.67-.58 21.97.09 1.32-.14 2.51-1.6 3.56-.4.26-.73.51-1.16.76-.51.24-.99.48-1.46.71-.8.45-2.03.86-3.09 1.23-.89.36-2.4.7-3.45.98l-2.77.71-2.9.59-4.15.06-2.95-.49c-.76-.17-1.7-.37-2.83-.62-1.07-.24-2.61-.52-3.52-.84-1.09-.32-2.35-.68-3.18-1.08l-1.52-.62c-.44-.22-.79-.45-1.22-.69-1.54-.94-1.86-2.05-1.89-3.31-.54-5-1.32-12.14-2.27-20.7-.31-4.27-1.04-8.93-1.68-13.84-.7-4.91-1.25-10.1-1.89-15.45-.59-5.36-1.31-10.9-2.08-16.54-.78-5.64-1.48-11.36-2.11-17.1-.62-5.73-1.47-11.46-2.12-17.12-.52-3.89-.91-7.74-1.31-11.53-6.22-3.26-12.39-4.44-18.06-4.44-6.76 0-12.81 1.67-17.38 3.49-.43 4.1-.83 8.29-1.39 12.51-.64 5.65-1.48 11.38-2.09 17.11-.62 5.73-1.32 11.46-2.09 17.09-.75 5.64-1.47 11.18-2.06 16.53-.63 5.35-1.18 10.54-1.88 15.44-.64 4.91-1.36 9.57-1.67 13.83l-2.27 20.69c-.1.63-.04 1.22-.35 1.77-.24.56-.91 1.07-1.56 1.54-.43.23-.79.46-1.24.68-.53.22-1.04.42-1.54.62-.85.4-2.13.75-3.25 1.07-.92.32-2.5.6-3.59.84-1.14.24-2.11.44-2.89.61l-3.01.49-4.15-.07-2.97-.59c-.76-.2-1.7-.44-2.83-.72-1.07-.28-2.62-.62-3.52-.99-1.08-.37-2.34-.79-3.15-1.24-.47-.23-.97-.47-1.49-.71-.43-.25-.77-.5-1.18-.77-.6-.53-1.23-1.09-1.43-1.69-.26-.59-.15-1.22-.2-1.88-.13-5.3-.33-12.89-.57-21.98-.13-4.57.13-9.44.26-14.62.12-5.19.44-10.64.69-16.29.15-2.83.29-5.7.45-8.61l.84-8.75c.54-5.89 1.17-11.87 1.88-17.83.56-5.99 1.64-11.89 2.51-17.73.87-5.83 1.93-11.55 2.9-17.09 2.33-11.01 4.38-21.27 6.81-29.98 2.29-8.68 4.41-15.94 6.19-21.02.85-2.54 1.44-4.51 1.96-5.8.5-1.3.67-2 .67-2l1.3.27v-.34c-.01.01 8.87-1.23 18.56-1.23m0-8c-9.87 0-18.82 1.2-19.63 1.31-.12-.01-.23-.01-.35-.01-3.62 0-6.83 2.36-7.65 6.05-.04.13-.15.49-.37 1.06-.42 1.06-.8 2.25-1.29 3.76-.23.71-.49 1.5-.77 2.35-1.8 5.08-3.93 12.32-6.36 21.53-2.15 7.71-3.99 16.51-5.95 25.82-.31 1.52-.64 3.05-.96 4.6-.02.09-.04.18-.05.27l-.6 3.36c-.8 4.5-1.62 9.16-2.33 13.92-.22 1.51-.47 3.03-.71 4.55-.69 4.36-1.4 8.87-1.84 13.51-.73 6.22-1.37 12.26-1.88 17.95l-.39 4.15-.43 4.57c-.01.11-.02.23-.02.34-.15 2.91-.3 5.78-.45 8.62-.07 1.57-.14 3.08-.22 4.58-.2 4.14-.39 8.06-.48 11.94-.03 1.27-.07 2.56-.11 3.82-.13 3.89-.25 7.56-.15 11.21l.22 8.44c.14 5.37.18 9.95.27 13.51.01.11-.06.22-.06.34v.1c0 .78.1 2.35.82 4.15.93 2.45 2.71 3.97 3.66 4.8.31.27.66.51 1 .73.09.06.19.11.27.17.31.2.73.49 1.26.79.16.09.33.17.49.25l.69.33c.22.11.43.2.64.3 1.33.71 2.77 1.2 4.06 1.63 1.13.43 2.36.74 3.46 1.01.27.07.53.13.76.19l.08.03c1.11.27 2.03.51 2.78.7.15.03.3.07.45.1 1.97.4 2.99.6 2.99.6.47.09.94-.08 1.42-.08l4.16-.15h.13c.43 0 .86.18 1.28.12l3.02-.39c.11-.02.22.02.34 0 .39-.08.84-.15 1.32-.25.48-.1 1-.2 1.57-.32.03 0 .06 0 .09-.01.25-.06.54-.11.83-.17 1.08-.22 2.29-.46 3.4-.83h.01c1.27-.36 2.69-.77 4-1.35l.16-.06c.42-.17.85-.34 1.3-.52.13-.05.27-.11.4-.17.56-.26 1-.52 1.33-.7l.29-.16c.32-.17.63-.36.92-.58 1.01-.74 2.84-2.09 3.97-4.39.91-1.77 1.04-3.34 1.11-4.12l.01-.08c.01-.09.03-.19.04-.29l.55-5.02c.48-4.36 1.06-9.66 1.72-15.66l.03-.3c.21-2.92.65-6.15 1.12-9.58.16-1.23.33-2.48.5-3.75.53-3.73.97-7.51 1.43-11.51.16-1.35.31-2.71.48-4.08l.01-.06c.5-4.54 1.13-9.58 2.04-16.34.75-5.52 1.46-11.35 2.11-17.3.33-3.03.73-6.15 1.12-9.17.33-2.56.67-5.21.97-7.82.34-2.56.62-5.09.88-7.56 3.37-.94 6.7-1.42 9.96-1.42 3.67 0 7.22.63 10.6 1.87.25 2.33.52 4.7.84 7.09.3 2.61.65 5.25.98 7.81.4 3.02.8 6.14 1.13 9.18.67 6.05 1.39 11.87 2.14 17.32.66 4.88 1.43 10.66 2.06 16.32l.01.06c.18 1.48.35 2.96.52 4.41.45 3.88.87 7.54 1.39 11.17.16 1.24.33 2.47.5 3.68.47 3.45.92 6.71 1.14 9.65l.02.29 2.23 20.41c.26 5.17 3.23 8.05 5.72 9.56l.27.15.31.18c.31.18.7.4 1.19.65.19.09.39.18.58.26l1.35.55c1.29.59 2.68 1 3.91 1.36l.06.02c1.12.37 2.33.62 3.41.84l.79.17.06.01.35.08 2.44.53c.14.03.28.06.41.08 1.96.32 2.97.27 2.97.27.43.07.87-.12 1.31-.12h.13l4.15.15c.49-.01.97.05 1.45-.05 0 0 .99-.14 2.93-.53.13-.02.26-.02.38-.06l1.47-.36 1.32-.33.15-.03c.24-.07.52-.14.81-.21 1.04-.27 2.21-.57 3.3-.99h.01c1.25-.44 2.65-.92 3.95-1.62l.42-.2.82-.4c.2-.09.4-.2.59-.31.53-.31.95-.6 1.26-.81l.26-.17.3-.21c2.37-1.71 5.11-4.85 4.93-10.13.09-3.28.2-7.41.32-12.2l.25-9.48c.1-3.63-.02-7.3-.14-11.19l-.12-3.85c-.09-3.9-.27-7.87-.48-12.07-.07-1.44-.14-2.9-.2-4.37l-.1-2.04c-.11-2.17-.23-4.37-.34-6.6l-.03-.37c-.18-1.86-.36-3.74-.54-5.63l-.29-3.1c-.51-5.65-1.13-11.69-1.86-17.91-.43-4.57-1.12-9.02-1.8-13.33-.25-1.58-.49-3.16-.72-4.73-.7-4.73-1.52-9.36-2.3-13.83l-.6-3.46c-.02-.09-.03-.17-.05-.26l-.84-4.05c-1.97-9.51-3.83-18.49-5.99-26.35-.75-3-1.57-5.83-2.29-8.33-.36-1.25-.71-2.46-1.03-3.62l-.02-.09c-1.12-3.89-2.09-7-2.95-9.51l-.4-1.22c-.33-1.02-.64-1.94-.91-2.77.15-1.82-.33-3.65-1.37-5.18-1.2-1.75-3.03-2.94-5.09-3.34-.78-.25-1.61-.38-2.45-.38-.32 0-.64.02-.96.06l-.45-.03-19.35-1.5c-.21-.02-.41-.02-.62-.02-.69 0-1.37.09-2.04.27-.09.03-9.98 2.59-19.43 2.59-3.39 0-6.23-.32-8.44-.97-4.75-1.38-10.94-2.08-18.43-2.08z"/></svg>