<?xml version="1.0" encoding="utf-8"?>
<!-- Generator: Adobe Illustrator 16.0.0, SVG Export Plug-In . SVG Version: 6.00 Build 0)  -->
<!DOCTYPE svg PUBLIC "-//W3C//DTD SVG 1.1//EN" "http://www.w3.org/Graphics/SVG/1.1/DTD/svg11.dtd">
<svg version="1.1" id="Layer_1" xmlns="http://www.w3.org/2000/svg" xmlns:xlink="http://www.w3.org/1999/xlink" x="0px" y="0px"
	 width="256px" height="256px" viewBox="0 0 256 256" enable-background="new 0 0 256 256" xml:space="preserve">
<path fill="#3FA9F5" stroke="#333333" stroke-miterlimit="10" d="M93.12,174.628c0,2.784-2.09,5.253-4.875,5.253H29.438
	c-2.786,0-5.32-2.46-5.32-5.25v-38.71c0-2.78,2.534-5.03,5.32-5.03h58.807c2.786,0,4.874,2.25,4.874,5.041v38.719L93.12,174.628z
	 M186.12,174.628c0,2.784-2.271,5.253-5.058,5.253h-58.807c-2.786,0-5.138-2.46-5.138-5.25v-38.71c0-2.78,2.352-5.03,5.138-5.03
	h58.807c2.787,0,5.057,2.25,5.057,5.041v38.719L186.12,174.628z"/>
<path fill="#FFFFFF" d="M128.953,180.048l32-46.334l12.666,2.334l-30.34,45.666 M150.279,183.714l27.33-46l4.66,1.667l-27,43.67
	 M31.939,177.051l32-46.33l12.66,2.34l-30.34,45.67 M53.259,180.73l27.33-46l4.66,1.67l-27,43.67"/>
<path fill="#333333" d="M233.953,70.511c-23.864-8.349-55.198,43.083-61.522,53.989c-30.234-3.11-51.65,3.078-60.272,6.004
	l-14.535-0.411c-7.509-2.458-22.498-6.511-43.143-6.442c5.94-7.176,10.024-17.133,13.139-26.479c4.666-14,11.333-6,11.333-6
	s1.333,7.333,16-2.667s-6-18-6-18c-25.344-8.87-59.114,49.695-62.403,55.528c-3.684,0.422-12.125,1.883-14.73,6.567
	c0,0-4.37,13.118,2.02,15.137c6.39,2.019,2.018,24.888,14.462,32.287c12.443,7.399,41.66,7.078,55.493,5.379
	c3.612-0.441,6.728-1.344,11.1-9.414c3.609-6.662,3.784-22.021,6.191-27.564c1.808-2.176,4.953-4.226,8.924,0.152
	c2.346,5.67,2.549,20.811,6.122,27.412c4.373,8.07,7.488,8.973,11.1,9.416c13.833,1.697,43.05,2.02,55.494-5.381
	c12.445-7.399,8.071-30.27,14.463-32.287c6.39-2.02,2.01-15.137,2.01-15.137c-0.216-0.388-0.473-0.752-0.762-1.097
	c7.08-8.499,10.529-23.364,14.182-34.322c4.666-14,11.334-6,11.334-6s1.332,7.33,16-2.67
	C254.619,78.511,233.953,70.511,233.953,70.511z M91.53,151.098c-4.036,21.19-4.036,20.854-7.4,25.563
	c-1.802,2.523-35.314,4.035-47.422-0.337c-12.107-4.37-11.435-29.261-11.435-29.261C26.281,132.264,94.693,134.493,91.53,151.098z
	 M174.318,176.323c-12.109,4.373-45.629,2.858-47.429,0.337c-3.37-4.708-3.37-4.372-7.4-25.563
	c-3.16-16.604,65.25-18.834,66.26-4.035h0.004C185.753,147.063,186.426,171.95,174.318,176.323z"/>
</svg>
