<svg xmlns="http://www.w3.org/2000/svg" width="256" height="256" viewBox="0 0 256 256"><path fill="#fff" d="M127.912 182.028c-32.022 0-63.29-11.57-68.807-21.405-.425-.616-.682-1.356-.7-2.155l-.046-2.18c-.17-1.25-.24-3.423-.24-3.705 0-.18.01-.347.02-.49l-5.64-61.52c-.17-1.76.85-3.418 2.49-4.077.48-.195.99-.29 1.49-.29 1.19 0 2.35.535 3.13 1.51l10.96 13.757 15.44-20.847c.68-.932 1.74-1.518 2.9-1.607.1-.01.2-.02.31-.02 1.04 0 2.05.41 2.81 1.15l13.59 13.4 15.19-18.28c.76-.92 1.89-1.45 3.07-1.45h.12c1.22.03 2.37.63 3.1 1.62l16.91 22.88 18.18-16.55c.74-.68 1.7-1.05 2.69-1.05.17 0 .35.01.53.03 1.17.16 2.21.83 2.84 1.83l11.94 18.89 16.5-16c.76-.74 1.77-1.12 2.78-1.12.58 0 1.17.13 1.72.39 1.51.72 2.41 2.31 2.26 3.97l-5.83 64.01v.05c.02.3.03.62.03.73 0 .55-.09 1.89-.24 2.85l-.05 2.12c-.02.83-.29 1.59-.74 2.22-5.64 9.81-36.83 21.32-68.77 21.32z"/><path fill="#333" d="M123.905 77.842l19.556 26.446 21.44-19.564 14.58 23.048 20.03-19.432-5.85 64.316c0 .125.06.707.06.844 0 .516-.12 1.94-.23 2.448l-.05 2.432h-.04c-3.24 7-31.31 19.647-65.46 19.647-34.16 0-62.22-12.647-65.46-19.647h-.04l-.05-2.432c-.11-.51-.23-2.847-.23-3.366 0-.135.05-.26.05-.384l-5.7-61.992 14.21 17.83 18.54-25.03 16.7 16.463 17.97-21.63m0-8c-2.37 0-4.63 1.05-6.15 2.88l-12.41 14.93-10.5-10.35c-1.5-1.48-3.52-2.31-5.61-2.31-.21 0-.41.01-.62.02-2.31.18-4.43 1.35-5.81 3.22L70.48 94.9l-7.72-9.69c-1.554-1.95-3.877-3.02-6.26-3.02-1 0-2.01.19-2.98.58-3.28 1.32-5.308 4.63-4.985 8.15l5.6 61.18c-.01.14-.01.3-.01.46 0 .02.04 2.27.24 3.98l.04 1.98c.03 1.61.54 3.1 1.39 4.34 4.45 7.43 17.53 12.85 25.17 15.49 14.26 4.92 30.93 7.64 46.93 7.64s32.67-2.71 46.93-7.64c7.71-2.66 20.94-8.16 25.28-15.68.78-1.2 1.25-2.62 1.28-4.15l.04-1.88c.17-1.214.24-2.594.24-3.19 0-.27-.01-.51-.03-.75l5.8-63.69c.302-3.33-1.5-6.5-4.52-7.94-1.1-.523-2.278-.78-3.447-.78-2.035 0-4.044.78-5.57 2.26l-12.95 12.6-9.31-14.726c-1.267-2-3.35-3.34-5.698-3.656-.357-.05-.714-.07-1.067-.07-1.98 0-3.91.73-5.39 2.09L144.6 92.37l-14.28-19.32c-1.46-1.98-3.75-3.17-6.206-3.24h-.226z"/><path fill="#FBB03B" d="M66.31 113.962l22.925-30.956 27.31 26.926-26.067 42.12zm118.793 2.718l-20.207-31.956-27.62 25.208 26.07 42.115z"/><path fill="#FCEE21" d="M199.507 88.34L160 126.655l-36.095-48.813-39.444 47.47L56.5 90.207l5.68 61.992c0 .12-.054.24-.054.38 0 .52.125 2.85.233 3.36l.05 2.43h.04c3.24 7 31.31 19.65 65.46 19.65s62.22-12.65 65.47-19.65h.04l.05-2.43c.11-.51.23-1.94.23-2.45 0-.14-.06-.72-.06-.85l5.85-64.32z"/><path fill="#0071BC" d="M125.08 165.262c-9.008 0-16.063-11.397-16.063-25.942 0-14.548 7.055-25.937 16.064-25.937 9.01 0 16.07 11.388 16.07 25.937 0 14.544-7.06 25.942-16.06 25.942z"/><path fill="#F7931E" d="M125.08 115.962c7.447 0 13.487 10.454 13.487 23.357 0 12.9-6.04 23.36-13.486 23.36-7.44 0-13.48-10.46-13.48-23.36 0-12.91 6.04-23.36 13.48-23.36m0-5.16c-10.45 0-18.64 12.53-18.64 28.52s8.19 28.52 18.65 28.52c10.46 0 18.65-12.53 18.65-28.52s-8.19-28.52-18.64-28.52z"/><path fill="#fff" d="M128.215 125.277c0 1.977-1.605 3.583-3.578 3.583-1.977 0-3.582-1.606-3.582-3.583s1.605-3.58 3.582-3.58c1.973 0 3.578 1.603 3.578 3.58z"/></svg>