<svg xmlns="http://www.w3.org/2000/svg" width="256" height="256" viewBox="0 0 256 256"><path fill="#3FA9F5" stroke="#333" stroke-miterlimit="10" d="M93.12 174.628c0 2.784-2.09 5.253-4.875 5.253H29.438c-2.786 0-5.32-2.46-5.32-5.25v-38.71c0-2.78 2.534-5.03 5.32-5.03h58.807c2.786 0 4.874 2.25 4.874 5.04v38.72zm93 0c0 2.784-2.27 5.253-5.058 5.253h-58.806c-2.786 0-5.138-2.46-5.138-5.25v-38.71c0-2.78 2.352-5.03 5.138-5.03h58.806c2.787 0 5.057 2.25 5.057 5.04v38.72z"/><path d="M128.953 180.048l32-46.334 12.666 2.334-30.34 45.666m7 2l27.33-46 4.66 1.667-27 43.67m-123.33-6l32-46.33 12.66 2.34-30.34 45.67m7 2l27.33-46 4.66 1.67-27 43.67" fill="#fff"/><path fill="#333" d="M101.956 131.592c-5.717-2.018-32.96-12.445-73.656-5.718 0 0-13.115.673-16.48 6.726 0 0-4.37 13.118 2.02 15.137 6.39 2.018 2.018 24.887 14.462 32.286 12.443 7.4 41.66 7.078 55.493 5.38 3.612-.442 6.728-1.345 11.1-9.415 4.373-8.072 3.7-28.926 8.072-29.598 4.37-.673 4.705-12.78-1.01-14.798zM91.53 151.098c-4.036 21.19-4.036 20.854-7.4 25.562-1.802 2.524-35.314 4.036-47.422-.337-12.107-4.37-11.435-29.26-11.435-29.26 1.008-14.8 69.42-12.57 66.257 4.035zm16.533-4.708c4.372.672 3.7 21.525 8.07 29.598 4.373 8.07 7.488 8.973 11.1 9.416 13.833 1.697 43.05 2.02 55.493-5.38 12.446-7.4 8.072-30.27 14.463-32.287 6.39-2.02 2.01-15.137 2.01-15.137-3.37-6.052-16.48-6.726-16.48-6.726-40.7-6.727-67.94 3.7-73.66 5.718-5.72 2.017-5.39 14.125-1.01 14.798zm77.69.673s.673 24.887-11.434 29.26c-12.11 4.373-45.63 2.858-47.43.337-3.37-4.708-3.37-4.372-7.4-25.562-3.16-16.605 65.25-18.834 66.26-4.035zM99.386 151.1s4.712-10.605 11.655-1.275l1.52-19.31-15.4-.435 2.23 21.02zm-73.1-24.596s36-65.333 62.667-56c0 0 20.667 8 6 18s-16 2.667-16 2.667-6.667-8-11.333 6-11.5 29.38-23.5 34.71m127.165-5.37s36-65.33 62.668-56c0 0 20.666 8 6 18-14.668 10-16 2.67-16 2.67s-6.668-8-11.334 6-9 34.38-21 39.71"/></svg>