<svg xmlns="http://www.w3.org/2000/svg" width="256" height="256" viewBox="0 0 256 256"><path fill="#A37148" d="M65.09 188.803c-22.437 0-36.49-5.35-40.64-15.47-.137-.332-.27-.69-.39-1.052-4.373-13.27 9.217-30.34 37.342-47.02.794-25.16 17.104-47.09 41.192-55.03 6.094-2.01 12.41-3.02 18.77-3.02 17.775 0 34.868 8.08 46.194 21.73 8.344-1.1 16.188-1.66 23.347-1.66 23.28 0 37.47 5.71 41.033 16.52.135.41.25.82.35 1.23.03.13.052.24.073.35.08.34.14.63.18.93.02.1.04.23.05.37.05.36.08.63.1.9l.03.4c.02.34.03.62.03.91v.35c-.01.39-.02.68-.04.97l-.03.4c-.03.32-.07.65-.12.97l-.04.28c-.06.4-.14.78-.22 1.17l-.04.18c-4.57 20.01-42.43 45.46-92.06 61.81-27.05 8.92-53.72 13.83-75.08 13.83z"/><path fill="#333" d="M121.364 71.198c17.407 0 33.928 8.19 44.485 22 9.05-1.29 17.48-1.935 25.05-1.935 20.19 0 34.2 4.592 37.23 13.77.1.304.18.61.26.92l.06.288c.04.22.09.44.12.66.02.11.03.23.04.34.02.21.05.42.06.63.01.12.01.24.02.35.01.22.01.43.01.65v.34c-.01.23-.02.46-.04.69l-.03.31c-.03.25-.06.51-.1.77-.01.08-.02.16-.04.24-.05.31-.11.61-.18.92-.01.03-.01.06-.02.09-4.15 18.21-40.87 42.99-89.43 58.99-27.57 9.09-53.76 13.63-73.83 13.63-19.61 0-33.39-4.33-36.94-12.98-.11-.26-.21-.52-.29-.78-3.9-11.81 11.35-28.33 37.51-43.46-.16-23.66 14.79-45.75 38.47-53.55 5.82-1.92 11.72-2.83 17.52-2.83m0-8c-6.79 0-13.52 1.09-20.02 3.23-24.96 8.2-42.1 30.56-43.8 56.47-29.03 17.61-42.23 35.5-37.25 50.61.14.45.31.91.5 1.36 4.8 11.71 20.13 17.92 44.32 17.92 21.77 0 48.88-4.98 76.33-14.02 43-14.17 88.96-39.68 94.71-64.77.02-.08.03-.16.05-.24.09-.4.17-.85.24-1.29l.05-.35c.06-.41.11-.8.14-1.19l.03-.4-.05-.06c.02-.4 0-.75 0-1.1v-.12c0-.16.06-.31.06-.46 0-.34.01-.68 0-1.02l.01-.06c-.01-.17-.01-.33-.02-.5-.03-.36-.07-.69-.11-1.03l-.01-.06c-.02-.17-.05-.35-.07-.52-.06-.35-.13-.7-.2-1.05-.04-.18-.07-.33-.11-.48-.14-.57-.28-1.08-.44-1.57-2.91-8.8-13.04-19.28-44.84-19.28-6.72 0-14 .48-21.72 1.42-12.07-13.52-29.61-21.48-47.83-21.48z"/><path fill="#DD9D5E" d="M228.14 105.032c6.032 18.31-33.915 47.93-89.22 66.147-55.303 18.22-105.027 18.15-111.06-.15-6.034-18.31 33.905-47.93 89.212-66.15 55.31-18.22 105.03-18.16 111.067.15z"/><path fill="#D68B47" d="M117.072 104.882c-55.307 18.224-95.246 47.84-89.21 66.15.694 2.117 2.04 3.967 3.854 5.606 5.73-10.116 17.67-19.51 42.408-18.557 51.955 2.02 100.154-37.59 100.154-37.59s63.223-17.14 26.514 21.68c19.813-13.27 30.7-26.94 27.346-37.12-6.036-18.3-55.755-18.37-111.066-.15z"/><path fill="#DD9D5E" d="M131.637 149.08c16.953-5.583 32.428-12.25 45.615-19.31.303-6.632-.51-13.416-2.705-20.088-9.676-29.368-41.336-45.337-70.7-35.658-29.37 9.678-45.333 41.333-35.66 70.698 2.06 6.237 5.153 11.826 8.958 16.743 16.394-1.89 35.074-5.983 54.492-12.384z"/><path fill="#ED1E79" d="M124.895 126.803c-20.443 6.738-39.992 11.504-57.635 14.54.29 1.124.56 2.263.926 3.38 2.06 6.236 5.154 11.825 8.96 16.742 16.394-1.89 35.073-5.982 54.49-12.384 16.954-5.58 32.43-12.25 45.616-19.31.303-6.63-.51-13.41-2.705-20.08-.268-.8-.61-1.56-.902-2.35-14.543 6.94-30.948 13.61-48.75 19.47z"/><path fill="#fff" d="M81.02 143.132c-.197.066-.38.175-.572.264-.04-.21-.063-.41-.127-.612-1.06-3.215-4.53-4.974-7.76-3.918-3.22 1.068-4.97 4.542-3.91 7.766.07.2.17.376.26.57-.21.037-.41.063-.61.127-3.22 1.05-4.97 4.53-3.91 7.75 1.06 3.23 4.54 4.97 7.76 3.91.2-.07.38-.17.57-.26.05.19.07.4.13.61 1.07 3.22 4.54 4.97 7.76 3.91 3.22-1.07 4.98-4.53 3.92-7.76-.07-.2-.17-.38-.26-.57.21-.04.42-.07.61-.13 3.22-1.06 4.98-4.54 3.91-7.76-1.05-3.22-4.53-4.98-7.75-3.92zm-2.926 13.118c-2.836.934-5.885-.604-6.822-3.432-.93-2.836.61-5.89 3.44-6.823 2.837-.93 5.888.604 6.82 3.442.93 2.83-.61 5.874-3.438 6.813z"/><path fill="#A37148" d="M137.566 166.5c-1.172 0-2.28-.717-2.72-1.877-.567-1.5.188-3.182 1.685-3.755.03-.002 4.26-1.618 10.78-4.34 1.5-.614 3.19.08 3.81 1.554.62 1.483-.08 3.188-1.55 3.81-6.65 2.775-10.95 4.422-10.95 4.422-.34.118-.68.187-1.03.187zm21.58-9c-1.114 0-2.18-.64-2.663-1.726-.65-1.474.014-3.19 1.48-3.844 3.333-1.474 6.886-3.103 10.536-4.837 1.42-.684 3.18-.08 3.87 1.385.69 1.45.07 3.18-1.39 3.872-3.7 1.753-7.3 3.396-10.66 4.896-.39.172-.79.254-1.19.254zm21.043-10.03c-1.05 0-2.07-.58-2.59-1.58-.74-1.428-.18-3.186 1.25-3.917 3.43-1.764 6.85-3.598 10.14-5.48 1.38-.786 3.16-.306 3.97 1.084.79 1.4.31 3.178-1.08 3.97-3.38 1.92-6.87 3.798-10.38 5.597-.43.22-.88.327-1.33.327zm20.22-11.6c-.94 0-1.87-.462-2.43-1.312-.88-1.34-.51-3.145.83-4.024 3.51-2.314 6.58-4.563 9.11-6.687 1.23-1.046 3.06-.876 4.09.356 1.03 1.228.87 3.063-.36 4.096-2.71 2.27-5.96 4.65-9.67 7.09-.5.32-1.04.47-1.6.47zm17.24-15.424c-.52 0-1.04-.14-1.52-.43-1.37-.834-1.8-2.623-.97-3.998 1-1.636 1.5-3.12 1.5-4.41 0-.602-.11-1.16-.34-1.718-.2-.5-.48-1.005-.84-1.503-.94-1.305-.63-3.123.68-4.053 1.31-.925 3.12-.625 4.06.678.61.868 1.12 1.77 1.49 2.69.5 1.25.75 2.562.75 3.906 0 2.375-.79 4.875-2.35 7.445-.55.897-1.51 1.393-2.49 1.393zm-9.31-17.21c-.34 0-.67-.06-1-.175-3.05-1.12-6.64-1.93-10.67-2.43-1.6-.19-2.74-1.64-2.54-3.24.2-1.59 1.68-2.74 3.23-2.53 4.48.56 8.51 1.47 11.96 2.74 1.51.56 2.28 2.23 1.73 3.73-.44 1.19-1.55 1.91-2.73 1.91zm-34.23-2.378c-1.45 0-2.71-1.087-2.88-2.57-.2-1.595.94-3.04 2.54-3.227 3.97-.46 7.87-.74 11.59-.79 1.6-.14 2.92 1.25 2.95 2.86.02 1.61-1.26 2.93-2.87 2.96-3.52.06-7.21.32-11 .76-.12.01-.24.02-.35.02z"/></svg>