<svg xmlns="http://www.w3.org/2000/svg" width="256" height="256" viewBox="0 0 256 256"><path fill="#fff" d="M131.584 233.38c-.572 0-1.146-.222-1.68-.47-1.232-.57-2.09-1.775-2.28-3.12l-.275-1.97-.32 1.998c-.2 1.243-.97 2.314-2.08 2.903-.59.31-1.23.47-1.87.47-.59 0-1.17-.13-1.71-.38L54.35 201.2c-1.042-.492-1.82-1.41-2.138-2.517-.318-1.107-.143-2.298.48-3.267.34-.532 34-53.552 18.19-83.86-2.578-4.95-4.35-10.253-5.3-15.853-2.943 3.753-7.333 5.68-11.585 5.68-6.49 0-13.767-4.39-15.4-14.195-.97-5.828-2.407-6.2-4.395-6.72-2.34-.607-6.694-1.74-7.318-8.584-.687-7.572 3.808-11.8 8.33-13.506-.004-.206-.006-.412-.006-.616 0-17.612 13.393-31.94 29.855-31.94 7.417 0 14.545 2.966 20.002 8.235 6.593-3.464 23.726-11.238 44.733-11.238 14.512 0 28.21 3.64 40.763 10.85 5.41-5.03 12.38-7.85 19.6-7.85 16.46 0 29.85 14.33 29.85 31.94v.38c1.02.32 2.21.8 3.38 1.53 4.18 2.58 6.22 6.92 5.74 12.21-.62 6.84-4.97 7.97-7.31 8.58-1.98.51-3.42.89-4.39 6.71-1.64 9.8-8.91 14.19-15.4 14.19-4.87 0-9.93-2.54-12.78-7.46-.92 6.06-2.77 11.79-5.54 17.11-15.79 30.3 17.84 82.81 18.18 83.33.62.96.81 2.15.5 3.25-.3 1.1-1.07 2.02-2.1 2.53l-65.95 32.2c-.69.58-1.59 1.02-2.55 1.02h-.17z"/><path fill="#333" d="M129.798 26.82c12.722 0 26.97 2.954 41.174 11.754l.175.258c4.725-5.538 11.492-9.01 19.01-9.01 14.272 0 25.848 12.51 25.848 27.94 0 1.66-.142 3.28-.397 4.86l1.186-1.11s9.178.835 8.34 10.01c-.834 9.167-9.17 0-11.67 15.01-1.22 7.3-6.38 10.853-11.457 10.853-5.365 0-10.64-3.97-11.068-11.687l.02-.022c-.27.01-.53.022-.8.022-1.46 0-2.88-.136-4.26-.384-.08 7.857-1.68 16.014-5.78 23.878-17.08 32.768 18.37 87.366 18.37 87.366l-66.76 32.5v.02l-.16.102-3.78-26.762-.19-2.576v-.03l-1.23 8.475-3.31 20.894-67.02-31.6s35.46-55.11 18.37-87.87c-4.17-8-5.72-16.31-5.68-24.29-1.21.19-2.44.29-3.7.29-.42 7.71-5.69 11.68-11.05 11.68-5.08 0-10.24-3.55-11.46-10.85-2.5-15.01-10.84-5.84-11.68-15.01-.83-9.17 8.34-10.01 8.34-10.01l.27.25c-.18-1.3-.27-2.64-.27-4 0-15.43 11.58-27.94 25.85-27.94 7.62 0 14.48 3.58 19.21 9.26.91-.56 20.19-12.26 45.52-12.26m1.97 202.25l-.01.12-.01-.1.02-.01M129.6 18.83v8-8c-20 0-35.86 6.42-44.044 10.43-5.86-4.78-13.044-7.43-20.55-7.43-18.06 0-32.83 15.08-33.79 34-5.22 2.966-9.05 8.64-8.35 16.43.88 9.65 7.725 11.43 10.3 12.1.17.044.38.097.55.146.21.43.59 1.42.91 3.36 1.72 10.32 9.677 17.53 19.35 17.53 3.123 0 6.31-.81 9.154-2.4 1.05 3.61 2.45 7.084 4.185 10.415 7.46 14.31 2.392 34.93-3.173 49.71-6.354 16.88-14.75 30.01-14.833 30.14-1.25 1.94-1.6 4.32-.97 6.53.63 2.22 2.19 4.05 4.27 5.03l67.02 31.6c1.08.51 2.25.77 3.41.77 1.29 0 2.57-.31 3.74-.93.17-.09.34-.19.51-.29.29.18.58.44.89.59 1.07.5 2.22.84 3.36.84h.17c1.73 0 3.34-.65 4.66-1.6l65.6-31.99c2.06-1 3.59-2.86 4.21-5.07s.25-4.58-1-6.51c-9.14-14.11-30.2-55.9-17.99-79.32 1.78-3.42 3.21-7 4.28-10.73 3.16 2.14 6.87 3.22 10.49 3.22 9.67 0 17.62-7.21 19.35-17.53.32-1.94.7-2.93.91-3.36.17-.05.37-.1.54-.14 2.58-.67 9.42-2.45 10.3-12.09.61-6.77-2.16-12.59-7.62-15.97-.52-.32-1.04-.6-1.56-.85-1.15-18.73-15.86-33.59-33.78-33.59-7.27 0-14.4 2.5-20.17 7.01-12.49-6.64-26.37-10.01-40.37-10.01z"/><path fill="#fff" d="M39.208 61.512s-9.173.835-8.34 10.01c.835 9.167 9.173 0 11.676 15.01 2.5 15.01 21.69 14.187 22.52-.834m151.728-24.186s9.178.835 8.34 10.01c-.834 9.167-9.17 0-11.67 15.01-2.505 15.01-21.69 14.187-22.525-.834"/><path fill="#FBB03B" d="M90.91 57.763c0 15.427-11.574 27.935-25.847 27.935-14.278 0-25.855-12.508-25.855-27.935 0-15.43 11.577-27.94 25.855-27.94 14.273 0 25.848 12.51 25.848 27.94zm125.094 0c0 15.427-11.575 27.935-25.847 27.935-14.278 0-25.856-12.508-25.856-27.935 0-15.43 11.58-27.94 25.86-27.94 14.27 0 25.85 12.51 25.85 27.94zm-45.032-19.19s26.236 37.855 9.15 70.62c-17.075 32.767 18.373 87.365 18.373 87.365l-67.02 32.622-4.276-29.442-1.03 8.55-3.1 20.893-67.03-31.6s35.46-55.11 18.37-87.87C57.35 76.94 84.24 39.1 84.24 39.1s43.557-27.273 86.73-.524z"/><path fill="#F7931E" d="M126.045 53.904l1.145 145.938 4.536 29.338 2.968-169.755-5.522-4.895"/><path fill="#fff" d="M125.94 75.688c0 3.224-2.618 5.837-5.835 5.837-3.226 0-5.84-2.613-5.84-5.837 0-3.22 2.614-5.835 5.84-5.835 3.217 0 5.836 2.615 5.836 5.835zm0 35.027c0 3.223-2.618 5.837-5.835 5.837-3.226 0-5.84-2.614-5.84-5.837 0-3.224 2.614-5.837 5.84-5.837 3.217 0 5.836 2.613 5.836 5.837zm0 35.025c0 3.222-2.618 5.838-5.835 5.838-3.226 0-5.84-2.616-5.84-5.84 0-3.22 2.614-5.836 5.84-5.836 3.217 0 5.836 2.618 5.836 5.837zm0 35.026c0 3.226-2.618 5.838-5.835 5.838-3.226 0-5.84-2.612-5.84-5.838 0-3.222 2.614-5.835 5.84-5.835 3.217 0 5.836 2.62 5.836 5.84z"/><path fill="#F7931E" d="M167.222 47.857c0 3.284-17.295 5.937-38.624 5.937-21.33 0-38.624-2.653-38.624-5.937 0-3.29 17.294-16.888 38.624-16.888 21.33 0 38.624 13.59 38.624 16.88z"/><path fill="#fff" d="M84.072 39.1l43.956 15.324S103.5 88.824 84.072 39.1zm88.152 0L128.34 54.426s24.456 34.397 43.884-15.326z"/></svg>