<svg xmlns="http://www.w3.org/2000/svg" width="256" height="256" viewBox="0 0 256 256"><path fill="#fff" d="M67.764 185.11c-.664 0-1.324-.164-1.918-.49l-7.36-4.022-31.426-17.146c-1.59-.87-2.366-2.67-1.99-4.37-1.3-1.172-1.72-3.107-.904-4.75l5.168-10.418c.47-.95 1.3-1.674 2.307-2.013.42-.14.85-.2 1.28-.2.61 0 1.22.14 1.78.42l.84.42c5.34-7.19 15.27-14.47 33.64-14.47 1.81 0 3.68.08 5.59.22 1.4-1.11 3.9-3.05 7.29-5.54l-.71-1.4c-1-1.96-.22-4.37 1.75-5.38l10.37-5.28c.58-.29 1.2-.43 1.81-.43.47 0 .92.08 1.35.23.3-1.02 1-1.91 2.02-2.43l10.36-5.29c.58-.29 1.21-.44 1.82-.44.46 0 .92.08 1.35.24.01-.04.03-.07.04-.11.33-1.01 1.04-1.84 1.99-2.32l10.37-5.28c.58-.3 1.2-.44 1.81-.44.51 0 1.02.1 1.49.29.16-.07.32-.15.48-.23-1.03-7.15-1.76-17.07 1.29-20.89 1.39-1.72 3.96-3.32 13.32-3.32 5.14 0 20.42.88 24.2 3.72 3.68 2.76 6.16 13.78 6.93 21.61l.16.1c4.28 2.52 8.71 5.13 13.4 7.2.61.27 1.23.53 1.85.78 7.35-1.29 22.85-4.5 31.03-9.73.23-.15.48-.27.74-.37.34-.13 2.15-.78 4.16-.78 3.68 0 6.35 2.23 6.81 5.69.5 3.71-3.58 16.22-7.21 26.36 2.75 7.54 8.32 25.2 5.63 38.06.09.33.14.67.14 1.02l.05 11.63c.01.88-.27 1.7-.75 2.36l.02 1.52c.01 1.07-.4 2.09-1.15 2.84-.74.76-1.76 1.19-2.82 1.2l-25.91.23c-1.05 0-2.05-.41-2.8-1.14-.75-.74-1.15-1.76-1.16-2.82l-3.6.02v.02c0 2.21-1.79 4.02-4 4.03l-46.59.4c-2.19 0-3.99-1.77-4.01-3.97l.12-.22-3.51.02v.24c0 1.06-.52 2.08-1.27 2.84-.74.76-1.81 1.19-2.88 1.19l-37.84.33-8.77.07c-2.19 0-3.99-1.77-4.01-3.96l-.01-.43-7.25.04-1.21 2.57c-.47 1-1.33 1.76-2.37 2.1-.41.13-.82.2-1.24.2z"/><path fill="#333" d="M142.93 74.21c8.7 0 19.95 1.532 21.797 2.92 1.966 1.472 4.926 11.253 5.518 20.807 4.874 2.85 10.114 6.064 15.76 8.554 1.004.45 2.02.87 3.05 1.26 7.796-1.32 24.513-4.68 33.6-10.49 0 0 1.36-.51 2.74-.51 1.294 0 2.606.46 2.837 2.22.486 3.64-7.27 25.21-7.27 25.21s-.146.09-.41.2c2.15 5.58 9.594 26.54 5.68 39.53h.523l.053 11.63-.775.01.033 3.89-8.727.08-8.43.08-8.73.07-.04-3.98-11.64.06.03 4.04-8.73.07-29.09.25-8.73.07-.04-4.2-11.63.05.03 4.25-8.73.08-29.09.26-8.73.07-.04-4.42-13.75.06-2.29 4.85-7.36-4.02-25.58-13.96-5.85-3.2 1.23-2.61-2.46-1.22 5.17-10.42 4.01 1.99c3.97-6.85 12.84-15.63 32.25-15.63 2.15 0 4.43.11 6.84.34 0 0 4.19-3.42 11.15-8.44l-2.26-4.44 10.36-5.28 1.55 3.04c1.57-1.04 3.2-2.12 4.9-3.21l-1.26-2.47 10.36-5.28.83 1.63c1.65-.97 3.33-1.94 5.04-2.9l-.7-1.37 10.37-5.28.6 1.19c1.9-.95 3.83-1.89 5.77-2.79 0 0-2.91-17.09 0-20.72 1.06-1.32 5.21-1.82 10.19-1.82m0-8c-8.93 0-13.69 1.4-16.44 4.83-2.7 3.37-3.51 8.39-2.82 17.34.06.82.13 1.62.21 2.39-.39.12-.78.28-1.15.48l-10.37 5.28c-.9.45-1.69 1.07-2.35 1.81-.96.09-1.92.37-2.84.83l-10.3 5.23c-.92.47-1.7 1.09-2.35 1.81-.96.1-1.93.37-2.84.84l-10.36 5.28c-3.38 1.72-5.01 5.5-4.14 9.03-1.45 1.09-2.67 2.03-3.63 2.77-1.48-.08-2.92-.12-4.33-.12-18.4 0-29.02 7.12-34.91 13.75-.44-.07-.89-.11-1.34-.11-.86 0-1.72.14-2.55.42-2.01.68-3.67 2.13-4.61 4.03l-5.17 10.42c-1.29 2.6-1.04 5.55.4 7.84.15 2.68 1.64 5.21 4.15 6.58l5.85 3.19 25.58 13.95 7.35 4.02c1.18.65 2.51.98 3.83.98.84 0 1.67-.13 2.48-.39 2.1-.68 3.82-2.2 4.76-4.19l.13-.28 1.57-.13c1.32 2.61 4.03 4.27 7.14 4.27h.07l8.72.05 29.09-.19 8.72-.04c2.12-.02 4.15-.86 5.64-2.38.05-.05.1.03.15-.02 1.46 1.51 3.5 2.59 5.77 2.59h.07l8.72-.2 29.09-.31 8.72-.11c2.29-.02 4.35-1.01 5.8-2.57.05.06.1-.02.16.04 1.49 1.47 3.51 2.17 5.61 2.17h.07l8.72.05 8.43-.01 8.72-.04c2.12-.02 4.15-.86 5.64-2.37s2.31-3.55 2.29-5.67l-.01-.44c.48-1.04.75-2.2.74-3.42l-.05-11.63c0-.33-.02-.66-.06-.98 2.37-12.85-2.25-29.03-5.45-38.09 7.64-21.56 7.12-25.41 6.92-26.89-.72-5.46-5.05-9.15-10.77-9.15-2.65 0-4.94.8-5.58 1.04-.52.2-1.01.44-1.47.74-5.25 3.35-15.77 6.66-28.43 8.96l-.69-.29c-3.93-1.73-7.75-3.91-11.45-6.08-.83-6.51-3.02-18.43-8.26-22.36-1.58-1.18-4.14-2.44-12.06-3.5-4.78-.64-10.07-1.01-14.54-1.01zm-102.4 84.85L67.51 162l7.79 3.12-7.57 16.055-7.36-4.02L34.8 163.19l-5.85-3.194 5.33-11.31zm51.92 12l29.09-.25 8.72-.07.15 17.46-8.73.08-29.09.25-8.72.07-.15-17.45zm58.17-.49l29.09-.25 8.73-.07.15 17.46-8.73.08-29.09.25-8.73.07-.15-17.45zm58.17-.5l8.43-.08 8.73-.07.15 17.45-8.72.07-8.43.08-8.72.08-.14-17.45z"/><path fill="#04659B" d="M33.844 155.66s3.998-26.904 42.174-23.27c0 0 26.176-21.447 56.72-35.63 0 0-2.913-17.086 0-20.725 2.907-3.63 29.085-1.09 31.99 1.093 2.907 2.18 8 22.544 4.364 33.45-3.637 10.908-2.18 55.99-2.18 55.99l-95.988 5.09-37.08-15.997z"/><path fill="#1189CC" d="M58.813 162.69s5.326-21.09 25.203-21.57l3.633-10.182s34.41-16.724 54.77-25.204c0 0-2.42-5.336-.97-7.52 11.12-16.676 25.56-.096 44.55 8.276 8.45 3.733 17.81 5.824 28.17 2.636l9.45-1.454-3.63 15.268s10.66 29.812 4.84 44.357l-24.97 1.45-132.33 2.183-8.72-8.24z"/><path fill="#fff" d="M95.264 114.224L84.9 119.506l10.565 20.732 10.37-5.283zm15.546-7.927l-10.363 5.285 10.57 20.728 10.368-5.287zm15.55-7.927l-10.37 5.28 10.573 20.735 10.363-5.285z"/><path fill="#04659B" d="M178.18 168.024s11.27-43.63 41.814-45.085c0 0 12.598 30.17 4.842 44.35l-46.656.73zm6.664-59.628s25.69-3.398 37.81-11.15c0 0 5.1-1.937 5.577 1.696.49 3.64-7.27 25.21-7.27 25.21s-3.64 2.183-8.48-1.212c-4.84-3.39-21.08-6.788-24.96-6.544-3.88.242-5.83-5.09-2.67-8zm-68.854 63.32l-12.385-26.84-5.09 3.814c-.547 1.536-1.88 4.123-4.768 5.257-2.98 1.174-6.5.348-10.45-2.46-.782-.552-3.157.09-5.937 2.472-4.52 3.86-8.12 10.5-6.258 14.22l-5.205 2.59c-3.336-6.67 1.465-15.93 7.678-21.24 4.836-4.14 9.732-5.19 13.096-2.79 2.16 1.53 3.98 2.16 4.96 1.78.97-.39 1.48-1.9 1.54-2.19l.22-1.09 12.48-9.36 13.8 29.88 40.84-1.25c-4.66-8.09-14.62-25.46-17.98-31.89-3.56-6.84-.24-13.44 3.08-17.24l-9.6-12.51 4.62-3.55 12.84 16.75-2.12 1.79c-.27.24-6.86 5.91-3.65 12.06 4.29 8.21 20.14 35.6 20.3 35.88l2.45 4.22-54.45 1.69z"/><path fill="#fff" d="M68.36 176.273l-40.61-20.165 5.168-10.416 38.154 18.936 155.684-.752.053 11.632z"/></svg>