<?xml version="1.0" encoding="utf-8"?>
<!-- Generator: Adobe Illustrator 16.0.0, SVG Export Plug-In . SVG Version: 6.00 Build 0)  -->
<!DOCTYPE svg PUBLIC "-//W3C//DTD SVG 1.1//EN" "http://www.w3.org/Graphics/SVG/1.1/DTD/svg11.dtd">
<svg version="1.1" id="Layer_1" xmlns="http://www.w3.org/2000/svg" xmlns:xlink="http://www.w3.org/1999/xlink" x="0px" y="0px"
	 width="256px" height="256px" viewBox="0 0 256 256" enable-background="new 0 0 256 256" xml:space="preserve">
<path fill="#333333" d="M34.447,182.38l-1.108-0.914c-1.92-1.584-2.75-3.8-2.28-6.077c0.84-4.02,5.39-9.09,32.8-18.869
	c12.48-4.461,24.94-8.141,28.24-9.11l45.719-39.15c21.98-23.15,40.551-34.88,55.17-34.88c11.771,0,17.16,7.48,18.641,9.99
	c2.109,2.12,5.87,8.57,10,48.76c2.16,21.061,3.391,41.551,3.4,41.75l0.26,4.391l-33.061-1.201l-3.539-32.199
	c-1.961-0.82-4.07-1.23-6.41-1.23c-22.58,0-52.87,36.87-53.17,37.24l-1.2,1.471h-93.5L34.447,182.38z"/>
<path fill="#333333" d="M193.007,77.39c11.462,0,15.452,8.487,15.452,8.487c7.75,6.787,12.6,88.253,12.6,88.253l-25.209-0.916
	l-3.4-30.926c-3.17-1.827-6.59-2.625-10.141-2.625c-24.77,0-56.27,38.717-56.27,38.717H35.88c-9.693-8,58.17-27.358,58.17-27.358
	l46.54-39.844C165.98,84.402,182.58,77.39,193,77.39"/>
<path fill="#333333" d="M193,69.39c-15.73,0-35.221,12.11-57.93,35.98l-44.9,38.45c-4.25,1.246-15.786,4.705-27.642,8.939
	c-27.85,9.938-34.06,15.524-35.373,21.813c-0.78,3.727,0.582,7.458,3.64,9.979l2.217,1.83h96.847l2.399-2.95
	c0.07-0.09,7.71-9.42,18.091-18.553c12.619-11.109,23.969-17.22,31.959-17.22c0.95,0,1.851,0.08,2.711,0.26l2.869,26.16l0.75,6.87
	l6.9,0.25l25.199,0.91l8.801,0.32l-0.52-8.791c-0.021-0.209-1.25-20.779-3.431-41.93c-1.29-12.52-2.649-22.82-4.06-30.62
	c-2.16-12.02-4.24-17.14-6.57-19.94c-2.88-4.89-10.05-11.78-22.01-11.78L193,69.39z"/>
<g>
	<defs>
		<path id="SVGID_1_" d="M94.057,151.02c0,0-67.865,19.36-58.172,27.36h90.168c0,0,41.197-50.638,66.41-36.093l3.396,30.926
			l25.199,0.916c0,0-4.85-81.47-12.609-88.26c0,0-14.54-30.93-67.86,25.3l-46.54,39.84L94.057,151.02z"/>
	</defs>
	<clipPath id="SVGID_2_">
		<use xlink:href="#SVGID_1_"  overflow="visible"/>
	</clipPath>
	<path clip-path="url(#SVGID_2_)" fill="#333333" d="M31.54,178.432l-0.03-5.822l93.34-0.476c8.44-8.304,71.066-68.634,102.242-61
		l-1.385,5.647c-29.535-7.26-96.924,59.64-97.598,60.32l-1.24,3.039l-95.33-1.689L31.54,178.432z"/>
</g>
<g>
	<defs>
		<path id="SVGID_3_" d="M94.057,151.02c0,0-67.865,19.36-58.172,27.36h90.168c0,0,41.197-50.638,66.41-36.093l3.396,30.926
			l25.199,0.916c0,0-4.85-81.47-12.609-88.26c0,0-14.54-30.93-67.86,25.3l-46.54,39.84L94.057,151.02z"/>
	</defs>
	<clipPath id="SVGID_4_">
		<use xlink:href="#SVGID_3_"  overflow="visible"/>
	</clipPath>
	<g clip-path="url(#SVGID_4_)">
		<path fill="#4D4D4D" d="M191.014,126.082c0,0,27.148-16.734,33.69-11.88c6.548,4.853,7.517,63.989,7.517,63.989l-38.529-2.664
			l-2.67-49.445H191.014z"/>
		<path fill="#333333" d="M193.922,122.2l10.426,8.97l-1.699,53.568l-19.635-0.73l-24.477-37.085l34.422-25.204L193.922,122.2z"/>
	</g>
</g>
<path fill="#C1272D" d="M94.057,151.02c0,0-67.865,19.36-58.172,27.36h90.168c0,0,41.197-50.638,66.41-36.093l3.396,30.926
	l25.199,0.916c0,0-4.85-81.47-12.609-88.26c0,0-14.54-30.93-67.86,25.3l-46.54,39.84L94.057,151.02z"/>
<path fill="#601920" d="M197.83,87.254c-0.182-2.15-3.346-6.125-6.336-7.108c-1.768-0.583-3.756-1.33-6.297-1.595
	c-10.348,2.89-24.797,11.75-44.602,32.63l-44.429,38.04c5.058,0.69,11.41,2.94,17.764,8.86c0,0,29.299-27.2,53.57-46.29
	c16.22-12.76,30.95-17.36,30.33-24.52L197.83,87.254z"/>
</svg>
