<?xml version="1.0" encoding="utf-8"?>
<!-- Generator: Adobe Illustrator 16.0.0, SVG Export Plug-In . SVG Version: 6.00 Build 0)  -->
<!DOCTYPE svg PUBLIC "-//W3C//DTD SVG 1.1//EN" "http://www.w3.org/Graphics/SVG/1.1/DTD/svg11.dtd">
<svg version="1.1" id="Layer_1" xmlns="http://www.w3.org/2000/svg" xmlns:xlink="http://www.w3.org/1999/xlink" x="0px" y="0px"
	 width="256px" height="256px" viewBox="0 0 256 256" enable-background="new 0 0 256 256" xml:space="preserve">
<path fill="#333333" d="M129.452,217.288c-55.37,0-70.596-17.755-72.783-34.255c-21.32-0.715-25.85-16.075-25.85-29.01
	c0-13.727,6.93-25.154,16.43-28.221c-0.5-3.555-0.96-8.492-0.73-13.822c-0.05,0-0.1,0-0.14-0.01c-1.93-0.22-3.42-1.79-3.54-3.72
	c-0.06-0.93-1.02-19.76,13.85-33.49c-1.33-0.26-2.44-1.17-2.95-2.44c-0.57-1.42-0.28-3.04,0.75-4.18
	c1.09-1.2,27.25-29.42,71.65-29.42c10.25,0,20.759,1.55,31.24,4.6c4.08,0.03,31.62,1.09,46.01,23.05c0.94,1.44,0.86,3.32-0.209,4.67
	l-0.021,0.03c5.54,6.99,10.45,18.16,8.43,35.14c-0.18,1.52-1.22,2.81-2.67,3.31c-0.351,0.12-0.7,0.19-1.06,0.22
	c1.3,5.11,2.22,10.96,1.709,16.41c9.091,3.48,15.531,14.63,15.531,27.91c0,12.601-4.311,27.5-24.221,28.931
	c-0.609,6.729-3.311,12.6-8.05,17.479c-10.87,11.19-32.22,16.87-63.46,16.87L129.452,217.288z"/>
<path fill="#333333" d="M126.175,42.71c9.412,0,19.668,1.34,30.673,4.6c0,0,0.119-0.002,0.35-0.002
	c3.32,0,29.406,0.666,42.89,21.244l-10.616-3.794c0,0,22,9.1,18.211,40.958l-8.341-8.34c0,0,8.351,17.444,6.07,30.342l-0.37,1.354
	c9.05,1.015,16.16,11.795,16.16,24.949c0,22.438-13.71,25.037-23.41,25.037c-0.23,0-0.46-0.014-0.68-0.025
	c0.92,31.84-46.6,34.255-67.62,34.255c-23.97,0-68.73-3.388-69.07-34.44c-0.67,0.135-1.38,0.211-2.14,0.211
	c-9.69,0-23.41-2.601-23.41-25.035c0-13.574,7.58-24.621,17.03-25.018c-0.92-4.685-3.87-22.85,3.35-34.664
	c0,0-6.07,6.067-8.35,13.652c0,0-1.51-24.277,21.25-36.41l-10.62-0.76c0,0,25.55-28.116,68.7-28.113"/>
<path fill="#333333" d="M126.231,34.711c-46.16,0-73.48,29.48-74.62,30.74c-2.06,2.27-2.64,5.51-1.5,8.36
	c0.19,0.48,0.42,0.93,0.69,1.35c-12.85,14.56-11.93,32.41-11.87,33.35c0.16,2.58,1.53,4.83,3.57,6.18
	c-0.01,3.11,0.19,6.04,0.46,8.64c-9.48,4.84-16.08,16.74-16.08,30.729c0,12.57,3.8,21.771,11.29,27.351
	c4.09,3.04,9.09,4.84,15.18,5.45c2.39,10.369,10.05,21.779,30.24,28.479c11.95,3.97,27.4,5.99,45.921,5.99
	c32.359,0,54.67-6.08,66.329-18.08c4.62-4.75,7.53-10.31,8.71-16.601c5.301-0.76,9.721-2.489,13.4-5.229
	c7.5-5.569,11.29-14.78,11.29-27.351c0-13.639-6.24-25.329-15.4-30.369c0.07-3.92-0.43-7.9-1.19-11.62
	c1.66-1.29,2.771-3.21,3.031-5.36c2.06-17.34-2.73-29.02-7.761-36.21c0.511-2.11,0.16-4.39-1.08-6.28
	c-6.62-10.1-16.829-17.56-29.54-21.6c-8.67-2.75-16.199-3.21-19.24-3.27c-10.67-3.05-21.369-4.6-31.83-4.6V34.711z"/>
<path fill="#F4D1B0" d="M186.063,154.021c0,13.83,2.008,25.037,11.701,25.037c9.699,0,23.412-2.601,23.412-25.037
	c0-13.824-7.857-25.035-17.553-25.035C193.927,128.986,186.063,140.196,186.063,154.021z"/>
<path fill="#C69C6D" d="M188.973,153.93c0.039-3.876,0.84-8.289,2.737-12.039c0.96-1.908,2.185-3.761,3.904-5.367
	c1.71-1.57,4.151-2.92,6.987-2.955c1.072,0.101,0.853,0,1.86,0.221c0.813,0.16,1.515,0.41,2.054,0.68
	c1.195,0.521,2.17,1.28,3.066,2.051c1.721,1.6,2.15,3.459,3.105,5.359c1.9,3.84,1.931,7.99,1.931,12.13v0.48
	c0,2.71-1.341,4.94-4.054,4.97c-2.715,0.03-4.539-2.141-4.573-4.859c0-0.201,0.22-0.41,0.229-0.601
	c0.311-2.729,0.18-5.71-0.709-8.22c-0.82-2.61-2.471-4.26-2.951-4.43c-0.289-0.15-1.06-0.131-2.029,0.529
	c-0.95,0.66-1.91,1.74-2.721,3.01c-1.66,2.641-2.64,5.62-3.02,9.2l-0.01,0.14c-0.17,1.59-1.59,2.75-3.19,2.58
	c-1.489-0.16-2.6-1.449-2.59-2.92L188.973,153.93z"/>
<path fill="#F4D1B0" d="M69.935,154.021c0,13.83-2.004,25.037-11.7,25.037c-9.696,0-23.41-2.601-23.41-25.037
	c0-13.824,7.854-25.035,17.552-25.035C62.075,128.986,69.935,140.196,69.935,154.021z"/>
<path fill="#C69C6D" d="M67.026,153.93c-0.04-3.876-0.84-8.289-2.736-12.039c-0.963-1.908-2.184-3.761-3.902-5.367
	c-1.71-1.57-4.154-2.92-6.988-2.955c-1.076,0.101-0.852,0-1.863,0.221c-0.813,0.16-1.512,0.41-2.05,0.68
	c-1.2,0.521-2.173,1.28-3.067,2.051c-1.725,1.6-2.03,3.459-2.992,5.359c-1.89,3.84-1.808,7.99-1.808,12.13v0.48
	c0,2.71,1.216,4.94,3.93,4.97c2.724,0.03,4.484-2.141,4.52-4.859c0-0.201-0.25-0.41-0.268-0.601c-0.297-2.729-0.18-5.71,0.708-8.22
	c0.828-2.61,2.467-4.26,2.946-4.43c0.29-0.15,1.048-0.131,2.025,0.529c0.95,0.66,1.91,1.74,2.72,3.01c1.67,2.641,2.65,5.62,3.02,9.2
	l0.02,0.14c0.17,1.59,1.6,2.75,3.19,2.58c1.5-0.16,2.61-1.449,2.61-2.92L67.026,153.93z"/>
<path fill="#FFDDBB" d="M197.077,178.746c1.217,32.115-46.533,34.542-67.625,34.542c-23.996,0-68.832-3.394-69.078-34.542
	c0-49.196-5.09-101.437,68.354-101.437c74.16,0,68.34,52.24,68.34,101.43L197.077,178.746z"/>
<path fill="#F5F5F5" d="M118.464,141.83c0,14.012-11.338,25.385-25.363,25.385c-14.01,0-25.37-11.373-25.37-25.386
	c0-14.01,11.36-25.37,25.38-25.37c14.03,0,25.37,11.36,25.37,25.37L118.464,141.83z"/>
<path fill="#333333" d="M109.124,141.83c0,8.859-7.174,16.029-16.023,16.029c-8.84,0-16.02-7.17-16.02-16.029
	c0-8.854,7.19-16.01,16.03-16.01c8.85,0,16.03,7.159,16.03,16.01H109.124z"/>
<path fill="#F5F5F5" d="M188.271,141.83c0,14.012-11.34,25.385-25.367,25.385c-14.014,0-25.369-11.373-25.369-25.386
	c0-14.01,11.355-25.37,25.369-25.37C176.934,116.459,188.271,127.819,188.271,141.83L188.271,141.83z"/>
<path fill="#333333" d="M178.93,141.83c0,8.859-7.173,16.029-16.023,16.029c-8.84,0-16.023-7.17-16.023-16.029
	c0-8.854,7.184-16.01,16.023-16.01c8.85,0,16.025,7.159,16.025,16.01H178.93z"/>
<path fill="#8C6239" d="M154.573,85.993c0,0-4.554,33.38-29.586,34.14c0,0,14.414-12.896,12.898-29.585
	c-1.518-16.69-12.898,18.205-36.414,24.272c0,0,7.59-15.175,7.59-22.755c0,0-19.72,32.62-37.93,36.405l-9.86,37.933l-9.17-36.254
	c0,0-5.24-22.154,3.11-35.808c0,0-6.07,6.07-8.35,13.66c0,0-1.51-24.27,21.25-36.41l-10.62-0.76c0,0,37.93-41.72,99.37-23.51
	c0,0,28.83-0.76,43.24,21.24l-10.621-3.79c0,0,22,9.1,18.201,40.96l-8.341-8.34c0,0,8.351,17.45,6.07,30.35l-9.851,35.649
	l-8.34-37.93c0,0-16.689-8.35-16.689-32.62c0,0-2.28,21.24-19.721,28.06c0.01,0.01,16.701-15.92,3.801-34.89L154.573,85.993z"/>
<path fill="#333333" d="M122.506,188.302c-3.682,0-6.693-1.026-9.004-3.067c-5.377-4.754-4.385-13.049-4.342-13.399
	c0.205-1.596,1.684-2.728,3.256-2.517c1.59,0.201,2.715,1.65,2.516,3.24c-0.004,0.051-0.63,5.631,2.436,8.33
	c2.05,1.791,5.525,2.08,10.324,0.851c1.568-0.421,3.14,0.55,3.533,2.1c0.398,1.55-0.545,3.13-2.102,3.53
	c-2.396,0.609-4.605,0.92-6.617,0.92V188.302z M134.95,188.298c-1.956,0-4.142-0.302-6.53-0.914
	c-1.56-0.397-2.498-1.978-2.105-3.534c0.398-1.563,1.994-2.506,3.535-2.104c3.224,0.82,7.5,1.365,9.61-0.684
	c2.181-2.121,1.733-6.646,1.382-8.207c-0.352-1.561,0.62-3.121,2.182-3.48c1.576-0.365,3.117,0.607,3.488,2.162
	c0.08,0.359,1.988,8.813-2.963,13.67C141.439,187.264,138.568,188.297,134.95,188.298L134.95,188.298z"/>
<path fill="#DBC79C" d="M133.617,192.2c0,0-7.752,5.817-15.752,5.817S138.947,214.259,133.617,192.2z"/>
<radialGradient id="SVGID_1_" cx="-8189.1523" cy="1520.4043" r="29.997" gradientTransform="matrix(0.21 0 0 -0.21 1848.3477 485.9384)" gradientUnits="userSpaceOnUse">
	<stop  offset="0" style="stop-color:#FF585D"/>
	<stop  offset="1" style="stop-color:#FF585D;stop-opacity:0"/>
</radialGradient>
<circle opacity="0.7" fill="url(#SVGID_1_)" enable-background="new    " cx="127.74" cy="166.428" r="6.303"/>
<path fill="#333333" d="M134.945,170.02c-1.391,0-2.625-1.004-2.86-2.43c-0.304-1.79-0.903-2.96-1.802-3.472
	c-1.2-0.681-3.002-0.248-3.385-0.106c-1.502,0.57-3.182-0.17-3.75-1.682c-0.572-1.498,0.174-3.182,1.68-3.75
	c0.463-0.188,4.59-1.665,8.352,0.486c1.705,0.982,3.898,3.093,4.641,7.569c0.267,1.583-0.805,3.084-2.391,3.345
	c-0.16,0.041-0.324,0.041-0.484,0.041V170.02z"/>
</svg>
