<svg xmlns="http://www.w3.org/2000/svg" width="256" height="256" viewBox="0 0 256 256"><path fill="#754C24" d="M51.485 233.38c-.914 0-1.8-.312-2.512-.886-1.91-1.54-2.764-3.72-2.346-5.984.676-3.663 4.24-8.25 25.55-16.938 8.89-3.624 17.54-6.588 20.883-7.706l27.79-46.42-17.37-122.228c-.193-1.353.318-2.71 1.355-3.6.735-.63 1.662-.963 2.605-.963.05 0 .098 0 .147.002 5.134-.77 39.78-5.822 63.884-5.822 13.88 0 21.83 1.573 25.38 5.162.08.028.16.058.23.09 1.54.653 2.5 2.212 2.42 3.882l-4.34 95.86c-.02.52-.14 1.02-.36 1.49l-1.23 2.66 2.12 1.54c1.59 1.15 2.1 3.27 1.23 5.02l-1.5 3.01c.96 1.07 1.61 2.05 1.99 2.69 1.94 1.99 5.35 8.06 9.03 43.85 1.94 18.85 3.04 37.2 3.05 37.38.07 1.12-.34 2.23-1.13 3.03-.75.77-1.78 1.2-2.86 1.2-.05 0-22.7-.85-22.7-.85-1.98-.08-3.61-1.59-3.82-3.57l-2.8-25.53c-1.64-.66-3.41-.98-5.35-.98-16.62 0-39.73 23.88-47.24 33.09-.76.93-1.9 1.47-3.1 1.47h-69z"/><path fill="#333" d="M171.472 26.836c12.304 0 21.882 1.326 23.357 5.234.03.088.05.175.08.263.4-.342.59-.544.59-.544l-4.34 95.86-2.61 5.64 4.77 3.47-2.83 5.66c2.62 2.06 3.69 4.32 3.69 4.32 6.94 6.07 11.28 78.98 11.28 78.98l-22.56-.85-3.04-27.72c-2.84-1.64-5.9-2.35-9.09-2.35-22.17 0-50.34 34.56-50.34 34.56H51.48c-8.676-7 44.243-24.19 44.243-24.19l29.28-48.91-17.568-123.63.157.04c2.038-.31 38.68-5.87 63.874-5.87m.148-8v8-8c-24 0-57.248 4.77-64.21 5.81-1.857.02-3.71.69-5.156 1.93-2.073 1.78-3.104 4.49-2.72 7.2L116.7 154.61l-26.31 43.94c-4.043 1.372-11.79 4.087-19.72 7.32-21.88 8.92-26.927 14.233-27.976 19.916-.682 3.697.726 7.37 3.768 9.823 1.422 1.14 3.195 1.77 5.023 1.77h68.967c2.404 0 4.68-1.08 6.2-2.95 9.988-12.22 30.805-31.62 44.14-31.62.58 0 1.138.03 1.674.11l2.503 22.82c.43 3.94 3.69 6.97 7.65 7.12l22.55.84h.3c2.14 0 4.21-.87 5.72-2.41 1.58-1.61 2.4-3.82 2.27-6.07-.01-.19-1.12-18.62-3.07-37.56-3.48-33.77-6.63-42.18-9.77-45.8-.15-.25-.33-.52-.52-.8l.37-.76c1.65-3.3.82-7.27-1.93-9.64.35-.85.55-1.76.59-2.69l4.34-95.87c.15-3.38-1.63-6.65-4.75-7.93-4.67-3.77-13.13-5.38-27.13-5.39z"/><path fill="#603813" d="M107.5 32.717s82.745-12.79 87.33-.647c4.586 12.14-40.834 23.24-40.834 23.24l-27.5-10.755L107.5 32.717z"/><path fill="#8C6239" d="M194.196 146.752s-1.068-2.265-3.692-4.326l2.83-5.658-4.773-3.47 2.61-5.64 4.34-95.87s-19.96 21.256-88.06.868l17.57 123.63-29.28 48.91S42.82 222.38 51.49 229.38h68.966s36.868-45.22 59.43-32.207l3.04 27.715 22.554.843c-.002 0-4.34-72.9-11.282-78.97z"/><path fill="#B3B3B3" d="M152.62 37.38h10v108h-10z"/><path fill="#ccc" d="M157.302 45.293l-7.718-6.34-22.002 22.342 12.065 9.914 17.655-25.92zm-18.99 21.74l-6.87-5.653 3.446-4.186 6.866 5.645-3.443 4.19z"/><path fill="#999" d="M152.15 47.794l-4.025-3.3 6.613-8.045 4.02 3.3z"/><path fill="#ccc" d="M152.62 41.38h17v5h-17zm0 10h17v5h-17zm0 12h17v4h-17zm0 9h17v7h-17zm0 12h17v3h-17zm0 8h17v8h-17zm0 14h17v3h-17zm0 8h17v5h-17zm0 9h17v7h-17zm0 13h17v6h-17z"/><path fill="#754C24" d="M188.995 142.843s-37.74 23.425-53.788 22.122c0 0-9.115 7.81 10.843 7.377 19.958-.43 46.416-26.898 46.416-26.898"/><path fill="#754C24" d="M126.53 141.11s3.465 19.95 35.14 9.106c0 0-18.648 1.733-17.785-5.204.863-6.94-16.055-12.14-17.356-3.902z"/></svg>