<svg xmlns="http://www.w3.org/2000/svg" xmlns:xlink="http://www.w3.org/1999/xlink" width="256" height="256" viewBox="0 0 256 256"><path d="M34.447 182.38l-1.108-.914c-1.92-1.584-2.75-3.8-2.28-6.077.84-4.02 5.39-9.09 32.8-18.87 12.48-4.46 24.94-8.14 28.24-9.11l45.72-39.15c21.98-23.15 40.55-34.88 55.17-34.88 11.77 0 17.16 7.48 18.64 9.99 2.11 2.12 5.87 8.57 10 48.76 2.16 21.06 3.39 41.55 3.4 41.75l.26 4.39-33.06-1.2-3.54-32.2c-1.96-.82-4.07-1.23-6.41-1.23-22.58 0-52.87 36.87-53.17 37.24l-1.2 1.47h-93.5zm158.56-104.99c11.462 0 15.452 8.487 15.452 8.487 7.75 6.787 12.6 88.253 12.6 88.253l-25.21-.916-3.4-30.926c-3.17-1.827-6.59-2.625-10.14-2.625-24.77 0-56.27 38.717-56.27 38.717H35.88c-9.693-8 58.17-27.358 58.17-27.358l46.54-39.844C165.98 84.402 182.58 77.39 193 77.39m0-8c-15.73 0-35.22 12.11-57.93 35.98l-44.9 38.45c-4.25 1.246-15.786 4.705-27.642 8.94-27.85 9.937-34.06 15.524-35.373 21.812-.78 3.727.582 7.458 3.64 9.98l2.217 1.83h96.847l2.4-2.95c.07-.09 7.71-9.42 18.09-18.553 12.62-11.11 23.97-17.22 31.96-17.22.95 0 1.85.08 2.71.26l2.87 26.16.75 6.87 6.9.25 25.2.91 8.8.32-.52-8.79c-.02-.21-1.25-20.78-3.43-41.93-1.29-12.52-2.65-22.82-4.06-30.62-2.16-12.02-4.24-17.14-6.57-19.94-2.88-4.89-10.05-11.78-22.01-11.78z" fill="#333"/><defs><path id="a" d="M94.057 151.02s-67.865 19.36-58.172 27.36h90.168s41.197-50.638 66.41-36.093l3.396 30.926 25.2.916s-4.85-81.47-12.61-88.26c0 0-14.54-30.93-67.86 25.3l-46.54 39.84z"/></defs><clipPath><use xlink:href="#a" overflow="visible"/></clipPath><defs><path id="b" d="M94.057 151.02s-67.865 19.36-58.172 27.36h90.168s41.197-50.638 66.41-36.093l3.396 30.926 25.2.916s-4.85-81.47-12.61-88.26c0 0-14.54-30.93-67.86 25.3l-46.54 39.84z"/></defs><clipPath id="c"><use xlink:href="#b" overflow="visible"/></clipPath><path fill="#333" d="M31.54 178.432l-.03-5.822 93.34-.476c8.44-8.304 71.066-68.634 102.242-61l-1.385 5.647c-29.535-7.26-96.924 59.64-97.598 60.32l-1.24 3.04-95.33-1.69z" clip-path="url(#c)"/><defs><path id="d" d="M94.057 151.02s-67.865 19.36-58.172 27.36h90.168s41.197-50.638 66.41-36.093l3.396 30.926 25.2.916s-4.85-81.47-12.61-88.26c0 0-14.54-30.93-67.86 25.3l-46.54 39.84z"/></defs><clipPath id="e"><use xlink:href="#d" overflow="visible"/></clipPath><g clip-path="url(#e)"><path fill="#4D4D4D" d="M191.014 126.082s27.148-16.734 33.69-11.88c6.548 4.853 7.517 63.99 7.517 63.99l-38.53-2.665-2.67-49.445z"/><path fill="#333" d="M193.922 122.2l10.426 8.97-1.7 53.568-19.634-.73-24.477-37.085 34.422-25.204z"/></g><path fill="#C1272D" d="M94.057 151.02s-67.865 19.36-58.172 27.36h90.168s41.197-50.638 66.41-36.093l3.396 30.926 25.2.916s-4.85-81.47-12.61-88.26c0 0-14.54-30.93-67.86 25.3l-46.54 39.84z"/><path fill="#601920" d="M197.83 87.254c-.182-2.15-3.346-6.125-6.336-7.108-1.768-.583-3.756-1.33-6.297-1.595-10.347 2.89-24.797 11.75-44.602 32.63l-44.428 38.04c5.058.69 11.41 2.94 17.764 8.86 0 0 29.3-27.2 53.57-46.29 16.22-12.76 30.95-17.36 30.33-24.52z"/></svg>