<?xml version="1.0" encoding="utf-8"?>
<!-- Generator: Adobe Illustrator 16.0.0, SVG Export Plug-In . SVG Version: 6.00 Build 0)  -->
<!DOCTYPE svg PUBLIC "-//W3C//DTD SVG 1.1//EN" "http://www.w3.org/Graphics/SVG/1.1/DTD/svg11.dtd">
<svg version="1.1" id="Layer_1" xmlns="http://www.w3.org/2000/svg" xmlns:xlink="http://www.w3.org/1999/xlink" x="0px" y="0px"
	 width="256px" height="256px" viewBox="0 0 256 256" enable-background="new 0 0 256 256" xml:space="preserve">
<path fill="#333333" d="M251.3,168.275c-1.79-3.609-6.649-5.569-8.69-6.25c-0.59-0.199-1.209-0.299-1.84-0.299
	c-0.189,0-0.375,0.01-0.56,0.02c-0.71-0.35-1.485-0.73-2.31-1.09l-0.061-0.03c-0.449-0.19-0.91-0.39-1.38-0.601
	c-0.956-0.42-1.944-0.85-2.989-1.25l-0.15-0.06c1.97-1.739,3.07-4.42,3.07-7.79c0-1.22-0.181-2.4-0.521-3.49
	c4.47-1.51,7.489-5.42,7.89-5.959c1.36-1.836,1.311-4.36-0.13-6.131c-0.979-1.199-2.42-1.85-3.89-1.85c-0.711,0-1.42,0.15-2.09,0.46
	c-0.23,0.101-0.43,0.19-0.61,0.26c-0.71-1.34-1.771-3.26-3.81-4.83c-1.811-1.39-3.721-2.097-5.69-2.097
	c-0.54,0-1.069,0.05-1.59,0.15c-2.57-1.64-5.681-2.49-9.16-2.49c-1.31,0-2.69,0.12-4.13,0.36c-1.439-0.24-2.82-0.36-4.131-0.36
	c-3.5,0-6.619,0.86-9.189,2.51c-0.55-0.12-1.1-0.18-1.67-0.18c-1.97,0-3.88,0.7-5.689,2.1c-2.041,1.57-3.11,3.49-3.815,4.83
	c-0.173-0.07-0.373-0.16-0.601-0.26c-0.67-0.311-1.379-0.46-2.09-0.46c-0.93,0-1.84,0.26-2.64,0.75c-0.569-1.15-1.17-2.28-1.81-3.36
	c-2.721-4.85-5.73-8.87-7.871-11.47c0.07-0.23,0.141-0.48,0.191-0.74c0.369-1.79-0.041-3.6-1.141-4.95l-0.07-0.09
	c3.33-1.53,6.721-4.09,8.141-8.36c1.85-5.55,1.43-21.29-5.99-31.58c-4.533-6.3-11.02-9.62-18.74-9.62c-0.939,0-1.91,0.05-2.891,0.15
	c-0.424-0.04-0.793-0.05-1.133-0.06c-0.229-0.01-0.479-0.02-0.779-0.04c-0.104-0.01-0.21-0.01-0.32-0.01h-0.199
	c-0.527,0.02-1.061,0.05-1.617,0.09c-0.949-0.09-1.89-0.14-2.81-0.14c-7.729,0-14.21,3.33-18.75,9.62
	c-0.36,0.51-0.71,1.03-1.04,1.561c-1.09-4.25-4.15-8.08-8.99-9.25c-3.05-4.271-10.36-6-14.86-6.68c-0.13-0.02-0.25-0.03-0.38-0.04
	c-1.11-0.08-2.21-0.13-3.28-0.13L98.58,59.1c-21.04,0-27.05,15.522-27.29,16.183c-0.69,1.84-0.23,3.9,1.15,5.274
	c0.12,1.74,0.55,3.63,1.3,5.66c-1.39,1.95-2.21,4.49-2.21,7.24c0,5.3,2.47,9.05,6.66,10.46c0.66,3.07,2.02,5.68,4.04,7.77
	c-2.63,3.24-5.2,8.35-6.88,16.42c-0.14,0.65-0.14,1.31-0.02,1.94c-0.16,0.27-0.31,0.54-0.46,0.801c-0.74,1.27-1.44,2.579-2.08,3.92
	c-0.7,1.34-1.26,2.649-1.78,3.89c-0.61,1.36-1.09,2.69-1.49,3.84c-0.53,1.42-0.9,2.58-1.18,3.64c-0.27,1.01-0.53,1.93-0.75,2.74
	c-0.03,0.1-0.05,0.21-0.07,0.311l-0.13,0.64c-1.71,1.58-3.77,3.85-4.11,6.5c-0.3,0.12-0.66,0.271-1.06,0.479
	c-0.09,0.03-0.24,0.07-0.36,0.11c-0.24,0.069-0.52,0.14-0.84,0.25l-0.35,0.069l-0.14-0.109c3.14-1.529,4.95-4.73,4.95-9.07
	c0-3.16-1.22-5.979-3.16-7.83c0.19-0.439,0.32-0.91,0.38-1.399c0.44-3.69-0.32-6.58-1.55-8.74c-0.09-0.75-0.35-1.479-0.79-2.14
	c-3.65-5.57-9.87-6.44-12.22-6.57c-2.34-0.64-4.69-0.96-7-0.96c-10.87,0-17.41,7.06-17.68,7.36c-0.88,0.97-1.33,2.22-1.3,3.48
	c-1.82,2.79-2.27,5.86-2.15,7.761c0.03,0.549,0.15,1.08,0.35,1.569c-1.73,1.84-2.81,4.511-2.81,7.49c0,4.85,2.25,8.26,6.06,9.54
	l0.01,0.029c-0.26,0.28-0.49,0.59-0.67,0.92c-0.19,0.07-0.38,0.15-0.57,0.23c-1.05,0.4-2.03,0.83-2.99,1.25
	c-0.47,0.2-0.93,0.4-1.38,0.59c-0.02,0.01-0.04,0.021-0.06,0.021c-0.82,0.36-1.6,0.739-2.31,1.09c-0.18-0.021-0.37-0.021-0.56-0.021
	c-0.63,0-1.25,0.101-1.84,0.301c-2.04,0.689-6.91,2.649-8.69,6.25c-0.82,1.649-0.95,3.5-0.36,5.209c0.84,2.461,2.02,3.871,3.21,4.66
	c0.68,1.101,1.28,1.92,1.79,2.431c0.76,0.78,2.78,2.61,5.1,3.01c0.28,0.05,0.61,0.08,0.94,0.08c0.32,0,0.66-0.03,1.03-0.09
	c0.54,0.159,1.13,0.25,1.77,0.25c1.15,0,2.91-0.32,4.72-1.87c0.22-0.189,0.49-0.4,0.78-0.62c0.42-0.319,0.89-0.68,1.36-1.101
	l3.93,6.711l0.06,0.09c0.02,0.82,0.02,1.73,0.02,2.689v0.061l0.01,1.77c-1.76,0.891-3.89,2.16-5.48,3.7
	c-0.36,0.351-0.66,0.75-0.9,1.17c-0.63,0.83-1,1.87-1,2.99v1c0,2.76,2.24,5,5,5h34c1.53,0,2.9-0.69,3.82-1.771
	c0.25,0.73,0.67,1.4,1.24,1.951c0.93,0.909,2.18,1.42,3.49,1.42h0.09l25.58-0.471c1.34-0.02,2.59-0.58,3.51-1.52
	c0.91,0.949,2.17,1.5,3.5,1.529l20.83,0.381c0.31,0.06,0.62,0.09,0.94,0.09h0.09l1.91-0.041l1.91,0.031h0.09
	c0.32,0,0.63-0.031,0.94-0.091l20.709-0.38c1.311-0.02,2.541-0.561,3.44-1.47c0.91,0.909,2.14,1.45,3.45,1.47l25.58,0.48h0.09
	c1.3,0,2.55-0.51,3.48-1.42c0.959-0.931,1.5-2.2,1.51-3.541l0.02-2.489c0.01-1.79-0.93-3.45-2.48-4.36
	c-0.279-0.16-0.569-0.34-0.869-0.51c-1.93-1.16-4.45-2.68-7.391-3.141c-1.46-0.909-3.01-1.689-4.26-2.279
	c0.07-0.52,0.061-1.061-0.04-1.58c-0.31-1.641-1.28-3.34-3.11-4.43l-0.97-12.09c0.8,0.549,1.72,0.819,2.66,0.819
	c0.931,0,1.87-0.271,2.729-0.8c1.03-0.65,1.74-1.65,2.061-2.77c1.54,1.27,3.391,1.859,4.189,2.109c0.711,0.221,1.451,0.34,2.19,0.34
	c0.32,0,0.649-0.02,0.97-0.07l0.48,0.25c0.22,0.11,0.439,0.23,0.65,0.341c0.92,0.54,1.84,0.88,2.59,1.149
	c0.25,0.101,0.51,0.19,0.75,0.291c1.05,0.449,2.08,0.689,2.899,0.879c0.28,0.061,0.56,0.131,0.841,0.2
	c0.139,0.04,0.289,0.08,0.439,0.101c1.05,0.189,2.141,0.33,3.23,0.41l-4.5,9.75l-0.031,0.049c-0.459,0.69-0.719,1.461-0.799,2.24
	c-0.24,1.5,0.16,3.051,1.229,4.17c0.819,0.871,1.87,1.405,2.97,1.551c0.62,0.369,1.37,0.77,2.25,1.156
	c-0.81,0.489-1.57,1.039-2.229,1.619c-1.601,0.834-2.69,2.51-2.69,4.44v1c0,2.76,2.24,5,5,5h35c2.77,0,5-2.24,5-5v-1
	c0-2.19-1.4-4.047-3.35-4.728c0.73-0.289,1.41-0.68,2.02-1.17c0.551-0.369,1-0.84,1.35-1.38c1.041-1.52,1.16-3.51,0.291-5.159
	l-1.271-4c1.261,0.689,2.41,0.859,3.25,0.859c0.64,0,1.229-0.09,1.771-0.25c0.369,0.061,0.709,0.09,1.039,0.09
	c0.341,0,0.67-0.029,0.98-0.09c2.29-0.391,4.311-2.23,5.07-3c0.505-0.52,1.104-1.33,1.79-2.439c1.18-0.791,2.37-2.201,3.21-4.66
	C252.24,171.775,252.109,169.926,251.3,168.275z M82.59,170.989l-0.6,11.39l-0.05,1.07c-1.59,1.09-2.45,2.68-2.74,4.189
	c-0.11,0.59-0.15,1.11-0.1,1.61c-1.24,0.58-2.76,1.351-4.2,2.25c-2.94,0.46-5.46,1.979-7.39,3.14c-0.29,0.18-0.58,0.36-0.86,0.521
	c-0.7,0.42-1.29,0.979-1.71,1.649c-0.57-0.949-1.44-1.699-2.49-2.1c-1.79-1.5-4.26-2.71-6.28-3.529l0.05-5.141l4.61-6.859
	c0.58-0.861,0.87-1.871,0.85-2.881c0.01-0.29-0.01-0.59-0.05-0.88c-0.02-0.33-0.08-0.66-0.17-0.99c1.14-0.079,2.28-0.22,3.38-0.409
	c0.14-0.03,0.29-0.061,0.44-0.101c0.27-0.08,0.55-0.14,0.83-0.2c0.83-0.189,1.85-0.43,2.9-0.88c0.24-0.101,0.5-0.19,0.75-0.29
	c0.75-0.27,1.67-0.609,2.59-1.15l0.67-0.35l0.45-0.24c0.32,0.051,0.65,0.07,0.97,0.07c0.74,0,1.48-0.109,2.19-0.34
	c1.1-0.35,4.19-1.33,5.75-3.87l-0.02-0.069c0.16-0.091,0.32-0.181,0.47-0.271L82.59,170.989z M120.51,103.6l-0.02-0.016
	c0.07-0.03,0.14-0.062,0.21-0.094c0.13,0.66,0.28,1.24,0.44,1.74c1.44,4.3,4.81,6.76,8.16,8.17c-0.09,0.1-0.159,0.19-0.229,0.27
	c-0.9,1.12-1.35,2.54-1.26,4.01c-0.08,0.1-0.16,0.21-0.24,0.31l-0.68,0.88c-0.07,0.1-0.14,0.19-0.21,0.29
	c-0.28,0.42-0.59,0.85-0.91,1.3c-0.77,1.09-1.65,2.32-2.47,3.73l-0.87,1.42l-0.06,0.1c-1.64-6.6-3.91-10.98-6.23-13.89
	C118.37,109.64,119.85,106.86,120.51,103.6z M136.561,178.639l-0.25,4.82c-1.59,1.09-2.451,2.68-2.74,4.189
	c-0.11,0.591-0.15,1.11-0.1,1.61c-1.24,0.58-2.761,1.351-4.201,2.25c-1.339,0.21-2.58,0.64-3.74,1.16
	c-1.16-0.521-2.4-0.95-3.74-1.149c-1.46-0.91-3.01-1.69-4.26-2.271c0.07-0.521,0.06-1.06-0.04-1.58c-0.26-1.41-1.04-2.89-2.44-3.97
	l-0.1-3.34v-0.08c-0.04-0.971-0.07-1.971-0.09-3.03c-0.04-2.101-0.09-4.26-0.33-6.54l-0.41-4.55c1.52,1.46,3.39,2.45,5.64,2.45
	c0.74,0,1.48-0.11,2.2-0.34c1.06-0.33,4-1.261,5.59-3.641c0.17,0.02,0.34,0.02,0.51,0.02l-0.04-0.069c0.58,0,1.371-0.08,2.24-0.38
	l-0.26,0.72c-0.74,2.03-0.1,4.3,1.59,5.64c0.91,0.721,2.01,1.09,3.11,1.09c0.579,0,1.159-0.1,1.71-0.299
	c0.16,0.109,0.33,0.229,0.51,0.35L136.561,178.639z"/>
<path fill="#333333" d="M168.861,156.783c0.035-0.33,0.105-0.738,0.238-1.244c-0.232-0.41-0.416-0.87-0.51-1.38
	c-0.183-1-0.093-2.56,1.37-4.351c0.347-0.43,0.667-0.869,0.979-1.3c0.303-0.42,0.61-0.84,0.935-1.239
	c-0.315-0.931-0.61-1.75-0.978-2.58c-0.479-1.181-0.894-2.17-1.387-3.131c-0.529-1.14-1.066-2.18-1.64-3.17
	c-1.3-2.38-2.899-4.869-4.62-7.21l2.24,11.521c0.39,0.439,0.628,1.02,0.628,1.66v0.52l0.144,0.48c0.271,0.91-0.005,1.859-0.646,2.49
	c-0.103,0.139-0.22,0.26-0.349,0.369l3.594,8.52V156.783z"/>
<polyline fill="#333333" points="105.93,112.29 106.13,111.46 105.82,111.54 105.93,112.29 "/>
<path fill="#333333" d="M42.2,195.8l0.78-0.095l0.3-10.59l-1.4,0.01c0.07,1.311,0.12,2.74,0.14,4.189l0.18,6.496"/>
<path fill="#333333" d="M213.87,195.811c0.05-1.78,0.11-4.03,0.17-6.307c-0.36,0.13-0.74,0.24-1.12,0.35l0.17,5.851l0.79,0.101"/>
<polyline fill="#333333" points="208.98,199.284 213.79,199.284 213.8,198.844 213.18,198.854 213.189,199.204 208.98,199.284 "/>
<path fill="#333333" d="M42.3,199.284h4.8l-4.21-0.08l0.01-0.351l-0.62-0.004c0.01,0.211,0.01,0.36,0.01,0.438"/>
<path fill="#333333" d="M134.311,140.874l0.229-0.444l0.11-0.21l-0.44,2.57l-0.37,1.04c-0.279,0.8-0.369,1.64-0.26,2.439
	l-0.04-0.029c-0.08-0.1-0.16-0.2-0.24-0.311c-0.229-0.279-0.47-0.6-0.72-0.939l0.66-1.53l0.449-1.03l0.66-1.539L134.311,140.874z"/>
<path fill="#333333" d="M168.71,147.299c0.08-0.33,0.14-0.68,0.149-1.02l0.211,0.539l-0.15,0.211l-0.21,0.289V147.299z"/>
<path fill="#333333" d="M188.6,149.809l-0.14-0.649c-0.021-0.101-0.04-0.2-0.069-0.29l-0.591-2.16c0.479,0.24,0.99,0.46,1.511,0.65
	c-0.261,0.84-0.431,1.74-0.5,2.67c-0.07-0.07-0.141-0.131-0.221-0.2L188.6,149.809z"/>
<path fill="#F7931E" d="M194.305,186.78c0,0,6.301,5.638,16.59,2.714c10.287-2.926,17.588,3.006,20.61-0.203l-4.087-6.57
	l-16.266-2.33H198.41l-4.34,6.58"/>
<path fill="#FFDDBB" d="M208.71,164.717l-0.302,0.27c-0.26,0.228-0.582,0.477-0.973,0.769c-0.802,0.563-1.945,1.34-3.459,1.994
	c-0.74,0.36-1.601,0.63-2.498,0.931c-0.92,0.229-1.89,0.5-2.93,0.6c-1.04,0.18-2.109,0.15-3.199,0.17
	c-1.091-0.061-2.19-0.18-3.271-0.381c-1.04-0.289-2.16-0.449-3.12-0.869c-0.96-0.4-2-0.69-2.84-1.19
	c-0.86-0.47-1.721-0.899-2.49-1.36l-2.05-1.409c-1.3-0.851-2.149-1.74-2.851-2.29c-0.68-0.57-1.06-0.9-1.06-0.9l5.55-5.689
	l0.811,0.76c0.539,0.449,1.229,1.26,2.189,1.949l1.53,1.171c0.55,0.37,1.16,0.7,1.78,1.09c0.609,0.43,1.3,0.601,1.96,0.94
	c0.659,0.35,1.38,0.439,2.069,0.689c0.7,0.16,1.41,0.27,2.11,0.35c0.69,0.01,1.38,0.101,2.04,0c0.66-0.02,1.29-0.18,1.891-0.289
	c0.59-0.181,1.159-0.311,1.649-0.53c1.021-0.37,1.8-0.86,2.31-1.171l0.51-0.35c0.07-0.039,0.211-0.17,0.19-0.16l4.38,4.86
	L208.71,164.717z M220.08,159.21c0,0,1.47,0.494,3.67,1.237c2.193,0.758,5.1,1.824,7.997,2.984c1.45,0.56,2.894,1.229,4.25,1.799
	c1.356,0.59,2.63,1.271,3.718,1.791c1.09,0.539,2.033,1.18,2.676,1.539c0.65,0.4,1.021,0.621,1.021,0.621l-4.67,6.439l-0.74-0.5
	c-0.5-0.311-1.101-0.801-2.03-1.33c-0.939-0.51-1.99-1.16-3.22-1.78c-1.24-0.6-2.51-1.3-3.88-1.909
	c-2.68-1.261-5.43-2.451-7.51-3.311l-3.461-1.4l2.201-6.149L220.08,159.21z M225.99,173.33l1.203,3.113l-4.883,1.134l-21.229-0.497
	l-1.72-0.92l0.59-1.415l8.29-4.104l12.53-0.07L225.99,173.33z"/>
<path fill="#FBB03B" d="M213.035,173.898c-4.936,0-9.578,0.664-13.639,1.836l5.237-19.012l17.65,0.75l4.862,18.409
	C222.979,174.622,218.169,173.898,213.035,173.898z"/>
<path fill="#0071BC" d="M219.408,158.891c0,0-4.104,3.537-9.557,2.688s-0.92-3.68-0.92-3.68"/>
<path fill="#FFDDBB" d="M222.33,179.965c0,0-0.057,1.227-0.137,3.066c-0.104,1.859-0.176,4.3-0.164,6.68l-0.08,9.609l-8.221,0.131
	l0.271-10.03c0.03-2.521,0.16-4.989,0.3-6.81c0.11-1.83,0.19-3.061,0.19-3.061l7.829,0.44L222.33,179.965z M212.587,179.673
	l0.56,19.63l-8.213,0.153l-0.181-19.638L212.587,179.673z"/>
<path fill="#FBB03B" d="M204.613,194.777c0,0-5.781,1.77-8.119,4.035l18.47,0.142l-0.462-2.97L204.613,194.777z"/>
<path fill="#F4E8D9" d="M195.62,198.688h18v1.692h-18V198.688z"/>
<path fill="#FFDDBB" d="M177.773,147.807c0,0,10.763,7.113,9.937,9.612c0,0-2.944,9.54-6.819,8.31
	c-3.881-1.229-3.068-2.52-3.068-2.52s-3.317-1.75-4.219-2.6c-0.715-0.67-2.065-2.25-2.254-3.211c-0.123-0.619,0.561-2.47,0.561-2.47
	s-1.99-1.149-0.016-3.55c1.975-2.41,3.24-5.45,5.879-3.6V147.807z M233.927,173.796c0,0,5.36-7.7,7.163-7.06
	c0,0,6.891,2.304,5.934,5.103c-0.959,2.79-1.879,2.181-1.879,2.181s-1.33,2.379-1.959,3.02c-0.5,0.51-1.668,1.46-2.373,1.58
	c-0.455,0.08-1.787-0.45-1.787-0.45s-0.863,1.42-2.584-0.05c-1.719-1.48-3.905-2.45-2.515-4.34V173.796z M163.197,115.904
	c0,0,0.13,0.117,0.373,0.346c0.244,0.236,0.604,0.584,1.062,1.03c0.87,0.876,2.07,2.126,3.415,3.698
	c2.717,3.125,6.03,7.549,8.742,12.39c0.699,1.192,1.35,2.42,1.93,3.659c0.631,1.211,1.16,2.451,1.67,3.66
	c0.541,1.188,0.961,2.385,1.36,3.521c0.42,1.13,0.78,2.207,1.04,3.233c0.279,1.017,0.54,1.951,0.76,2.775
	c0.18,0.842,0.32,1.575,0.45,2.182c0.239,1.211,0.38,1.9,0.38,1.9l-7.859,1.24l-0.32-1.641c-0.1-0.52-0.221-1.159-0.36-1.879
	l-0.64-2.41c-0.221-0.891-0.53-1.84-0.891-2.82c-0.34-1-0.699-2.05-1.17-3.109c-0.439-1.07-0.89-2.171-1.439-3.261
	c-0.521-1.11-1.08-2.2-1.7-3.28c-2.38-4.359-5.351-8.41-7.771-11.24c-1.199-1.44-2.26-2.57-3-3.33c-0.369-0.36-0.649-0.65-0.84-0.84
	l-0.32-0.3l5.091-5.56L163.197,115.904z"/>
<path fill="#FBB03B" d="M222.1,194.777c0,0,4.574,1.77,6.914,4.035l-16.205,0.142l0.461-2.97L222.1,194.777L222.1,194.777z"/>
<path fill="#F4E8D9" d="M210.62,198.688h20v1.692h-20V198.688z"/>
<path fill="#D3C1AF" d="M210.62,198.688h3v1.692h-3V198.688z"/>
<path fill="#FFDDBB" d="M51.66,159.855c-0.018-0.02,0.128,0.119,0.195,0.156l0.504,0.346c0.51,0.317,1.28,0.804,2.31,1.175
	c0.49,0.22,1.07,0.354,1.65,0.526c0.6,0.109,1.23,0.268,1.9,0.284c0.66,0.101,1.35,0.019,2.04,0.007c0.7-0.08,1.41-0.192,2.11-0.354
	c0.69-0.256,1.41-0.348,2.07-0.697s1.35-0.52,1.96-0.949c0.62-0.391,1.23-0.721,1.78-1.091l1.52-1.17c0.96-0.69,1.65-1.5,2.19-1.95
	l0.82-0.77l5.55,5.689l-1.06,0.9c-0.7,0.54-1.55,1.43-2.85,2.29l-2.05,1.399c-0.76,0.461-1.62,0.891-2.48,1.351
	c-0.84,0.5-1.88,0.79-2.84,1.19c-0.95,0.41-2.07,0.58-3.11,0.859c-1.07,0.19-2.18,0.32-3.26,0.37c-1.1-0.021-2.17,0.01-3.2-0.17
	c-1.04-0.101-2.02-0.37-2.93-0.61c-0.9-0.3-1.76-0.57-2.5-0.93c-1.52-0.66-2.66-1.439-3.46-2c-0.39-0.29-0.71-0.54-0.97-0.77
	l-0.3-0.271l4.37-4.86L51.66,159.855z M38.112,165.361c0,0-1.385,0.563-3.46,1.4c-2.076,0.856-4.826,2.051-7.51,3.313
	c-1.363,0.606-2.64,1.31-3.878,1.909c-1.228,0.621-2.272,1.271-3.216,1.781c-0.93,0.526-1.526,1.021-2.03,1.334
	c-0.475,0.319-0.75,0.5-0.75,0.5l-4.675-6.44c0,0,0.37-0.22,1.017-0.62c0.642-0.359,1.587-1.01,2.674-1.54
	c1.09-0.521,2.362-1.2,3.717-1.79c1.36-0.57,2.8-1.25,4.26-1.8c2.9-1.16,5.8-2.229,8-2.99l3.67-1.239l2.2,6.149L38.112,165.361z"/>
<path fill="#29ABE2" d="M54.288,170.782l3.114-9.771l-7.362-3.396 M30.502,170.782l-3.114-9.771l7.364-3.396"/>
<path fill="#FFDDBB" d="M30.008,173.33l-1.204,3.113l4.884,1.134l21.238-0.497l1.72-0.92l-0.587-1.415l-8.29-4.104l-12.54-0.07
	L30.008,173.33z"/>
<path fill="#29ABE2" d="M42.96,173.898c4.94,0,9.583,0.664,13.64,1.836l-5.238-19.012l-17.653,0.75l-4.86,18.409
	C33.019,174.622,37.829,173.898,42.96,173.898L42.96,173.898z"/>
<path fill="#0071BC" d="M36.59,158.891c0,0,4.105,3.537,9.558,2.688c5.45-0.85,0.92-3.68,0.92-3.68"/>
<path fill="#FFDDBB" d="M41.5,179.53l0.19,3.063c0.14,1.824,0.263,4.293,0.3,6.818c0.137,5.021,0.268,10.03,0.268,10.03
	l-8.214-0.121c0,0-0.038-4.799-0.073-9.609c0.02-2.38-0.06-4.82-0.16-6.67l-0.13-3.061l7.83-0.43L41.5,179.53z M51.246,179.82
	l-0.18,19.636l-8.216-0.154l0.56-19.63L51.246,179.82z"/>
<path fill="#082031" d="M51.385,194.777c0,0,5.78,1.77,8.12,4.035l-18.47,0.142l0.463-2.97L51.385,194.777z"/>
<path fill="#F4E8D9" d="M42.62,198.63h18v1.75h-18V198.63z"/>
<path fill="#F4D1B0" d="M53.358,148.055c0,2.815,0.407,5.094,2.38,5.094c1.972,0,4.76-0.529,4.76-5.1c0-2.82-1.595-5.09-3.57-5.09
	c-1.97,0-3.57,2.27-3.57,5.09V148.055z M29.734,148.055c0,2.815-0.41,5.094-2.38,5.094s-4.763-0.529-4.763-5.1
	c0-2.82,1.6-5.09,3.58-5.09s3.57,2.27,3.57,5.09L29.734,148.055z"/>
<path fill="#FFDDBB" d="M55.596,153.084c0.25,6.533-9.465,7.03-13.754,7.03c-4.883,0-14.003-0.693-14.053-7.028
	c0-10.01-1.04-20.637,13.9-20.637c15.08,0,13.9,10.619,13.9,20.63L55.596,153.084z"/>
<g opacity="0.44">
	<g>
		<defs>
			<path id="SVGID_1_" d="M41.695,149.535c0,0,1.552-0.592,1.85,1.185C43.545,150.72,41.25,151.756,41.695,149.535z"/>
		</defs>
		<clipPath id="SVGID_2_">
			<use xlink:href="#SVGID_1_"  overflow="visible"/>
		</clipPath>
		<path clip-path="url(#SVGID_2_)" fill="#FF6064" d="M42.62,149.486h2v1h-2V149.486z"/>
	</g>
	<g>
		<defs>
			<path id="SVGID_3_" d="M41.695,149.535c0,0,1.552-0.592,1.85,1.185C43.545,150.72,41.25,151.756,41.695,149.535z"/>
		</defs>
		<clipPath id="SVGID_4_">
			<use xlink:href="#SVGID_3_"  overflow="visible"/>
		</clipPath>
		<circle clip-path="url(#SVGID_4_)" fill="#FF6064" cx="42.591" cy="150.199" r="0.866"/>
	</g>
	<g>
		<defs>
			<path id="SVGID_5_" d="M41.695,149.535c0,0,1.552-0.592,1.85,1.185C43.545,150.72,41.25,151.756,41.695,149.535z"/>
		</defs>
		<clipPath id="SVGID_6_">
			<use xlink:href="#SVGID_5_"  overflow="visible"/>
		</clipPath>
		<circle clip-path="url(#SVGID_6_)" fill="#FF5F63" cx="42.59" cy="150.199" r="0.787"/>
	</g>
	<g>
		<defs>
			<path id="SVGID_7_" d="M41.695,149.535c0,0,1.552-0.592,1.85,1.185C43.545,150.72,41.25,151.756,41.695,149.535z"/>
		</defs>
		<clipPath id="SVGID_8_">
			<use xlink:href="#SVGID_7_"  overflow="visible"/>
		</clipPath>
		<circle clip-path="url(#SVGID_8_)" fill="#FF5E62" cx="42.591" cy="150.199" r="0.716"/>
	</g>
	<g>
		<defs>
			<path id="SVGID_9_" d="M41.695,149.535c0,0,1.552-0.592,1.85,1.185C43.545,150.72,41.25,151.756,41.695,149.535z"/>
		</defs>
		<clipPath id="SVGID_10_">
			<use xlink:href="#SVGID_9_"  overflow="visible"/>
		</clipPath>
		<path clip-path="url(#SVGID_10_)" fill="#FF5D61" d="M43.238,150.2c0,0.353-0.293,0.645-0.647,0.645
			c-0.35,0-0.64-0.293-0.64-0.646c0-0.354,0.29-0.65,0.65-0.65s0.65,0.29,0.65,0.641L43.238,150.2z"/>
	</g>
	<g>
		<defs>
			<path id="SVGID_11_" d="M41.695,149.535c0,0,1.552-0.592,1.85,1.185C43.545,150.72,41.25,151.756,41.695,149.535z"/>
		</defs>
		<clipPath id="SVGID_12_">
			<use xlink:href="#SVGID_11_"  overflow="visible"/>
		</clipPath>
		<circle clip-path="url(#SVGID_12_)" fill="#FF5C60" cx="42.59" cy="150.199" r="0.575"/>
	</g>
	<g>
		<defs>
			<path id="SVGID_13_" d="M41.695,149.535c0,0,1.552-0.592,1.85,1.185C43.545,150.72,41.25,151.756,41.695,149.535z"/>
		</defs>
		<clipPath id="SVGID_14_">
			<use xlink:href="#SVGID_13_"  overflow="visible"/>
		</clipPath>
		<path clip-path="url(#SVGID_14_)" fill="#FF5B5F" d="M43.094,150.2c0,0.282-0.22,0.504-0.504,0.504
			c-0.284,0-0.505-0.22-0.505-0.505c0-0.29,0.22-0.51,0.505-0.51c0.283,0,0.504,0.22,0.504,0.5V150.2z"/>
	</g>
	<g>
		<defs>
			<path id="SVGID_15_" d="M41.695,149.535c0,0,1.552-0.592,1.85,1.185C43.545,150.72,41.25,151.756,41.695,149.535z"/>
		</defs>
		<clipPath id="SVGID_16_">
			<use xlink:href="#SVGID_15_"  overflow="visible"/>
		</clipPath>
		<circle clip-path="url(#SVGID_16_)" fill="#FF595E" cx="42.591" cy="150.199" r="0.434"/>
	</g>
	<g>
		<defs>
			<path id="SVGID_17_" d="M41.695,149.535c0,0,1.552-0.592,1.85,1.185C43.545,150.72,41.25,151.756,41.695,149.535z"/>
		</defs>
		<clipPath id="SVGID_18_">
			<use xlink:href="#SVGID_17_"  overflow="visible"/>
		</clipPath>
		<circle clip-path="url(#SVGID_18_)" fill="#FF585D" cx="42.591" cy="150.199" r="0.354"/>
	</g>
	<g>
		<defs>
			<path id="SVGID_19_" d="M41.695,149.535c0,0,1.552-0.592,1.85,1.185C43.545,150.72,41.25,151.756,41.695,149.535z"/>
		</defs>
		<clipPath id="SVGID_20_">
			<use xlink:href="#SVGID_19_"  overflow="visible"/>
		</clipPath>
		<path clip-path="url(#SVGID_20_)" fill="#FF575C" d="M42.873,150.2c0,0.157-0.123,0.282-0.283,0.282
			c-0.16,0-0.284-0.125-0.284-0.283c0-0.16,0.123-0.29,0.284-0.29c0.16,0,0.283,0.12,0.283,0.28V150.2z"/>
	</g>
	<g>
		<defs>
			<path id="SVGID_21_" d="M41.695,149.535c0,0,1.552-0.592,1.85,1.185C43.545,150.72,41.25,151.756,41.695,149.535z"/>
		</defs>
		<clipPath id="SVGID_22_">
			<use xlink:href="#SVGID_21_"  overflow="visible"/>
		</clipPath>
		<path clip-path="url(#SVGID_22_)" fill="#FF565B" d="M42.804,150.2c0,0.122-0.09,0.21-0.213,0.21s-0.21-0.088-0.21-0.21
			c0-0.125,0.09-0.212,0.21-0.212c0.12,0,0.22,0.087,0.22,0.21L42.804,150.2z"/>
	</g>
	<g>
		<defs>
			<path id="SVGID_23_" d="M41.695,149.535c0,0,1.552-0.592,1.85,1.185C43.545,150.72,41.25,151.756,41.695,149.535z"/>
		</defs>
		<clipPath id="SVGID_24_">
			<use xlink:href="#SVGID_23_"  overflow="visible"/>
		</clipPath>
		<circle clip-path="url(#SVGID_24_)" fill="#FF555A" cx="42.591" cy="150.199" r="0.141"/>
	</g>
	<g>
		<defs>
			<path id="SVGID_25_" d="M41.695,149.535c0,0,1.552-0.592,1.85,1.185C43.545,150.72,41.25,151.756,41.695,149.535z"/>
		</defs>
		<clipPath id="SVGID_26_">
			<use xlink:href="#SVGID_25_"  overflow="visible"/>
		</clipPath>
		<path clip-path="url(#SVGID_26_)" fill="#FF5459" d="M42.66,150.2c0,0.034-0.035,0.069-0.07,0.069
			c-0.033,0-0.072-0.035-0.072-0.069c0-0.035,0.04-0.07,0.072-0.07C42.625,150.13,42.66,150.165,42.66,150.2z"/>
	</g>
</g>
<path fill="#333333" d="M43.544,151.286c-0.272,0-0.513-0.197-0.56-0.474c-0.063-0.371-0.19-0.617-0.38-0.727
	c-0.292-0.164-0.707-0.021-0.707-0.021c-0.3,0.115-0.62-0.039-0.73-0.328c-0.115-0.293,0.034-0.619,0.327-0.729
	c0.092-0.034,0.924-0.33,1.676,0.101c0.498,0.283,0.813,0.795,0.933,1.52c0.05,0.307-0.157,0.6-0.467,0.65
	C43.606,151.283,43.576,151.287,43.544,151.286L43.544,151.286z M41.01,155.003c-0.74,0-1.348-0.207-1.813-0.62
	c-1.085-0.956-0.885-2.627-0.876-2.699c0.05-0.311,0.38-0.511,0.64-0.49c0.31,0.039,0.53,0.322,0.49,0.63
	c0,0.016-0.13,1.159,0.51,1.72c0.43,0.37,1.14,0.43,2.13,0.177c0.3-0.071,0.61,0.105,0.69,0.41c0.08,0.304-0.1,0.61-0.4,0.688
	c-0.48,0.123-0.93,0.185-1.34,0.185H41.01z M43.544,155.003c-0.397,0-0.837-0.062-1.324-0.187c-0.302-0.077-0.485-0.385-0.408-0.688
	c0.077-0.311,0.386-0.49,0.686-0.42c0.666,0.17,1.544,0.28,1.983-0.15c0.46-0.449,0.36-1.399,0.29-1.689
	c-0.07-0.301,0.12-0.61,0.42-0.68c0.31-0.07,0.62,0.119,0.68,0.42c0.02,0.07,0.41,1.77-0.59,2.75c-0.42,0.41-1,0.619-1.73,0.619
	L43.544,155.003z"/>
<path fill="#DBC79C" d="M43.27,155.823c0,0-1.575,1.183-3.204,1.183C38.44,157.006,44.356,160.311,43.27,155.823L43.27,155.823z"/>
<path fill="#F5F5F5" d="M39.748,145.574c0,2.85-2.31,5.165-5.16,5.165c-2.853,0-5.16-2.32-5.16-5.171c0-2.85,2.307-5.159,5.16-5.159
	c2.85,0,5.16,2.31,5.16,5.149V145.574z"/>
<path fill="#333333" d="M37.847,145.574c0,1.804-1.46,3.264-3.257,3.264c-1.8,0-3.26-1.46-3.26-3.264c0-1.801,1.46-3.256,3.26-3.256
	C36.386,142.318,37.847,143.773,37.847,145.574z"/>
<path fill="#F5F5F5" d="M53.947,145.574c0,2.85-2.305,5.165-5.157,5.165c-2.853,0-5.163-2.32-5.163-5.171
	c0-2.85,2.31-5.159,5.163-5.159c2.852,0,5.157,2.31,5.157,5.149V145.574z"/>
<path fill="#333333" d="M52.05,145.574c0,1.804-1.46,3.264-3.26,3.264s-3.262-1.46-3.262-3.264c0-1.801,1.463-3.256,3.262-3.256
	C50.59,142.318,52.05,143.773,52.05,145.574z M46.953,134.217c0,0-0.928,6.79-6.02,6.943c0,0,2.932-2.622,2.624-6.016
	c-0.306-3.396-2.623,3.701-7.408,4.938c0,0,1.54-3.09,1.54-4.632c0,0-4.02,6.636-7.72,7.405l-2.01,7.717l-1.87-7.375
	c0,0-1.07-4.508,0.63-7.283c0,0-1.24,1.232-1.7,2.775c0,0-0.31-4.94,4.32-7.41l-2.16-0.16c0,0,7.71-8.49,20.21-4.79
	c0,0,5.86-0.16,8.79,4.319l-2.16-0.77c0,0,4.47,1.85,3.7,8.33l-1.7-1.7c0,0,1.7,3.55,1.23,6.17l-2.01,7.25l-1.7-7.72
	c0,0-3.39-1.7-3.39-6.641c0,0-0.47,4.32-4.02,5.711c0,0,3.39-3.24,0.77-7.101L46.953,134.217z"/>
<path fill="#FFDDBB" d="M139.993,122.688c0,0-0.41,0.424-0.89,1.014c-0.506,0.563-1.271,1.613-2.178,2.793
	c-0.826,1.275-1.914,2.668-2.85,4.344c-0.49,0.82-0.994,1.67-1.508,2.53c-0.502,0.87-0.936,1.8-1.41,2.71l-1.383,2.72
	c-0.396,0.93-0.787,1.84-1.166,2.73l-1.091,2.55c-0.35,0.81-0.576,1.62-0.84,2.34l-1.676,4.86l-7.596-2.36l1.875-5.25
	c0.3-0.78,0.55-1.649,0.95-2.53c0.39-0.88,0.8-1.8,1.22-2.76l1.31-2.949c0.51-0.98,1.02-1.971,1.54-2.961
	c0.53-0.99,1.02-1.99,1.58-2.939l1.7-2.771c1.06-1.82,2.29-3.39,3.239-4.8c1.07-1.36,1.891-2.47,2.641-3.3
	c0.73-0.85,1.07-1.19,1.07-1.19l5.479,5.18L139.993,122.688z M132.023,151.516c0,0-9.811-8.39-11.98-6.906c0,0-8.37,5.449-6.12,8.84
	c2.246,3.39,3.262,2.25,3.262,2.25s2.59,2.71,3.653,3.34c0.845,0.5,2.73,1.37,3.706,1.279c0.63-0.049,2.218-1.219,2.218-1.219
	s1.65,1.6,3.419-0.961c1.773-2.57,4.346-4.619,1.84-6.649L132.023,151.516z"/>
<path fill="#FFEDDC" d="M135.455,116.7c0,0-3.018-0.85-2.643,0.942c0.379,1.797,1.888,1.7,1.511,4.248
	c-0.375,2.55,2.075,2.832,3.21,3.115c1.133,0.283,3.964,2.924,3.869-1.13 M165.91,116.7c0,0,3.018-0.85,2.645,0.942
	c-0.375,1.797-1.887,1.7-1.511,4.248c0.377,2.55-2.077,2.832-3.21,3.115c-1.133,0.283-3.96,2.924-3.867-1.13"/>
<path fill="#ED1E79" d="M146.88,118.588c0,3.44-2.79,6.23-6.229,6.23c-3.438,0-6.23-2.79-6.23-6.23c0-3.438,2.793-6.23,6.23-6.23
	C144.09,112.358,146.88,115.15,146.88,118.588z M167.268,118.588c0,3.44-2.789,6.23-6.229,6.23s-6.229-2.79-6.229-6.23
	c0-3.438,2.789-6.23,6.229-6.23S167.268,115.15,167.268,118.588z"/>
<path fill="#FFDDBB" d="M160.695,146.21l4.06,50.005l-8.19,0.665l-3.682-50.04L160.695,146.21z M151.633,146.97l-0.646,7.79
	c-0.098,1.17-0.202,2.436-0.313,3.775c-0.095,1.338-0.265,2.757-0.31,4.204c-0.134,2.899-0.273,6-0.415,9.1l-1.131,24.79
	l-8.219-0.189l1.33-25.181c0.17-3.149,0.329-6.29,0.489-9.239c0.06-1.48,0.24-2.881,0.34-4.221c0.12-1.34,0.23-2.609,0.341-3.77
	l0.699-7.79l7.811,0.7L151.633,146.97z"/>
<path fill="#D4145A" d="M142.698,144.827l-7.997,21.825c0,0,2.439-1.26,3.949,0.09c1.521,1.35,2.74,2.156,8.201,0.449
	c5.469-1.709,7.899,0.811,7.899,0.811s5.771,2.425,8.96-1.17c3.189-3.596,6.68-0.016,6.68-0.016l-9.33-22.155"/>
<path fill="#333333" d="M108.088,144.203l0.353,16.178h-7.71c0,0-0.98-1.66-2.59-1.66c-1.37,0-2.12,1.44-2.12,1.44l-7.88,0.22
	l0.05-16.311"/>
<path fill="#082031" d="M106.24,145.634l0.472,2.105c0.168,0.64,0.28,1.54,0.443,2.52l0.523,3.33l0.614,3.94l0.384,4.3
	c0.27,2.979,0.554,6.16,0.837,9.33c0.35,3.18,0.264,6.34,0.407,9.319c0.09,2.971,0.174,5.66,0.244,8.041
	c0.142,4.75,0.238,7.84,0.238,7.84h-8.215c0,0-0.073-3.03-0.176-7.69l-0.18-7.92c-0.12-2.91-0.01-6.03-0.32-9.101
	c-0.25-3.08-0.5-6.149-0.74-9.039c-0.12-1.44-0.23-2.84-0.34-4.16c-0.18-1.271-0.36-2.471-0.53-3.58c-0.16-1.11-0.31-2.13-0.44-3.03
	c-0.14-0.91-0.21-1.68-0.38-2.36l-0.45-2.119l7.63-1.78L106.24,145.634z"/>
<path fill="#082031" d="M120.036,196.38h0.024c-2.84-2-6.89-3.563-6.89-3.563c-2.036-1.385-0.62-4.229-0.62-4.229
	c-0.682-3.608-11.223,0.455-11.223,0.455s1.108,4.526,0.045,6c-1.065,1.47-0.157,5.34-0.157,5.34h0.014
	c-0.08,0,0.66,1.127,0.66,1.127l25.58,0.47l0.02-2.489c-2.15-1.261-4.8-3.11-7.46-3.11L120.036,196.38z"/>
<path fill="#082031" d="M97.268,146.97l-0.645,7.79c-0.098,1.17-0.204,2.436-0.314,3.775c-0.1,1.338-0.27,2.757-0.31,4.204
	c-0.14,2.899-0.28,6-0.42,9.1l-1.13,24.79l-8.22-0.189l1.33-25.181l0.49-9.239c0.06-1.48,0.24-2.881,0.34-4.221
	c0.12-1.34,0.23-2.609,0.34-3.77l0.7-7.79l7.81,0.7L97.268,146.97z"/>
<path fill="#082031" d="M76.605,196.38h-0.02c2.84-2,6.89-3.563,6.89-3.563c2.035-1.385,0.62-4.229,0.62-4.229
	c0.68-3.608,11.222,0.455,11.222,0.455s-1.11,4.526-0.045,6c1.066,1.47,0.157,5.34,0.157,5.34h-0.02c0.07,0-0.67,1.127-0.67,1.127
	l-25.58,0.47l-0.02-2.489c2.15-1.261,4.79-3.11,7.46-3.11L76.605,196.38z"/>
<path fill="#FFDDBB" d="M123.528,145.54c0,0-10.76,7.115-9.935,9.612c0,0,2.943,9.547,6.82,8.318c3.878-1.22,3.066-2.51,3.066-2.51
	s3.31-1.74,4.22-2.59c0.71-0.67,2.06-2.24,2.25-3.2c0.119-0.62-0.561-2.47-0.561-2.47s1.99-1.141,0.01-3.551
	c-1.979-2.399-3.239-5.439-5.879-3.59L123.528,145.54z"/>
<path fill="#FFDDBB" d="M78.225,147.807c0,0-10.762,7.113-9.937,9.612c0,0,2.944,9.54,6.823,8.31c3.88-1.229,3.07-2.52,3.07-2.52
	s3.32-1.75,4.22-2.59c0.72-0.67,2.07-2.25,2.25-3.21c0.13-0.62-0.56-2.47-0.56-2.47s1.99-1.15,0.02-3.551
	c-1.97-2.41-3.24-5.449-5.87-3.6L78.225,147.807z"/>
<path fill="#FFDDBB" d="M22.073,173.796c0,0-5.36-7.7-7.163-7.06c0,0-6.892,2.304-5.933,5.103c0.958,2.79,1.878,2.181,1.878,2.181
	s1.326,2.379,1.958,3.02c0.5,0.51,1.67,1.46,2.372,1.58c0.455,0.08,1.786-0.45,1.786-0.45s0.87,1.42,2.59-0.05
	c1.72-1.48,3.91-2.45,2.52-4.34L22.073,173.796z"/>
<path fill="#FFDDBB" d="M97.886,121.46c0,0-0.107,0.106-0.313,0.302c-0.197,0.19-0.478,0.477-0.842,0.834
	c-0.74,0.764-1.8,1.89-3,3.324c-2.42,2.838-5.39,6.891-7.77,11.242c-0.62,1.074-1.18,2.173-1.69,3.277
	c-0.55,1.08-1.01,2.18-1.44,3.25c-0.47,1.05-0.83,2.1-1.16,3.1c-0.35,0.99-0.67,1.93-0.88,2.82c-0.23,0.88-0.45,1.689-0.64,2.41
	c-0.14,0.72-0.26,1.359-0.36,1.879c-0.2,1.041-0.32,1.631-0.32,1.631l-7.87-1.23l0.38-1.91l0.45-2.189l0.77-2.78
	c0.26-1.03,0.63-2.11,1.05-3.239c0.39-1.141,0.82-2.341,1.36-3.531c0.5-1.209,1.04-2.449,1.67-3.659c0.59-1.24,1.24-2.47,1.94-3.66
	c2.71-4.84,6.02-9.27,8.74-12.39c1.34-1.58,2.54-2.83,3.41-3.7c0.46-0.45,0.81-0.8,1.06-1.03c0.24-0.23,0.37-0.35,0.37-0.35
	l5.09,5.55L97.886,121.46z"/>
<path fill="#FFDDBB" d="M107.976,114.33l0.272,0.3c0.17,0.177,0.48,0.565,0.838,0.997c0.383,0.45,0.803,0.984,1.215,1.572
	c0.43,0.6,0.95,1.26,1.44,2.01l1.56,2.44c0.58,0.85,1.06,1.8,1.61,2.77c0.53,0.97,1.11,1.97,1.64,3c0.49,1.04,1,2.11,1.5,3.17
	c0.48,1.07,1.05,2.11,1.44,3.2l1.24,3.15l1.16,2.949l0.86,2.69l1.77,5.56l-7.69,2.01l-1.46-5.289l-0.71-2.57
	c-0.3-0.891-0.63-1.82-0.97-2.79c-0.33-0.97-0.68-1.97-1.04-2.99c-0.32-1.04-0.81-2.01-1.21-3.02l-1.27-2.99
	c-0.44-0.979-0.94-1.899-1.39-2.81c-0.46-0.9-0.87-1.81-1.35-2.59l-1.31-2.24c-0.41-0.69-0.84-1.27-1.19-1.81
	c-0.35-0.56-0.67-0.98-0.91-1.3c-0.26-0.34-0.41-0.58-0.6-0.79l-0.26-0.31l4.87-4.36L107.976,114.33z"/>
<polygon fill="#534741" points="111.204,149.945 86.284,149.718 91.947,109.381 105.537,109.381 "/>
<path fill="#534741" d="M91.947,111.18c0,0-7.926-0.143-11.703,17.98l10.947,7.926c0,0-0.51-13.024,4.16-11.89"/>
<path fill="#534741" d="M106.301,111.18c0,0,7.93-0.143,11.7,17.98l-10.94,7.926c0,0,0.52-13.024-4.15-11.89"/>
<path fill="#DBB99C" d="M103.84,110.47l-5.098,7.362l-5.662-7.93"/>
<path fill="#F4D1B0" d="M104.16,93.496c0,3.354,0.486,6.072,2.84,6.072c2.35,0,5.675-0.63,5.675-6.072
	c0-3.354-1.906-6.072-4.258-6.072C106.067,87.424,104.159,90.144,104.16,93.496L104.16,93.496z"/>
<path fill="#C69C6D" d="M104.866,93.473c0.008-0.938,0.202-2.008,0.662-2.918c0.234-0.463,0.53-0.914,0.95-1.303
	c0.415-0.38,1.006-0.708,1.692-0.718c0.262,0.024,0.208,0.003,0.452,0.053c0.2,0.042,0.367,0.1,0.498,0.167
	c0.293,0.127,0.527,0.31,0.746,0.498c0.416,0.39-0.212,0.84,0.02,1.303c0.46,0.93-0.266,1.936-0.266,2.94v0.116
	c0,0.66,0.407,1.2-0.25,1.21c-0.66,0.01-0.737-0.52-0.74-1.18c0-0.04,0.23-0.09,0.235-0.14c0.074-0.66,0.136-1.38-0.08-1.99
	c-0.202-0.63-0.556-1.03-0.673-1.07c-0.07-0.03-0.23-0.03-0.467,0.13c-0.232,0.16-0.78,0.42-0.977,0.73
	c-0.403,0.64-1.05,1.36-1.05,2.23v0.03c0,0.39-0.062,0.67-0.446,0.63c-0.363-0.03-0.308-0.35-0.306-0.7V93.473z"/>
<path fill="#F4D1B0" d="M85.058,93.496c0,3.354-0.488,6.072-2.84,6.072c-2.35,0-5.68-0.63-5.68-6.072
	c0-3.354,1.906-6.072,4.26-6.072C83.15,87.424,85.058,90.144,85.058,93.496z"/>
<path fill="#C69C6D" d="M84.35,93.473c-0.01-0.938-0.203-2.008-0.664-2.918c-0.23-0.463-0.53-0.914-0.946-1.303
	c-0.416-0.38-1.007-0.708-1.694-0.718c-0.262,0.024-0.208,0.003-0.45,0.053c-0.2,0.042-0.37,0.1-0.5,0.167
	c-0.29,0.127-0.526,0.31-0.745,0.498c-0.41,0.39-0.27,0.84-0.51,1.303c-0.46,0.93-0.22,1.936-0.22,2.94v0.116
	c0,0.66,0.08,1.2,0.74,1.21c0.66,0.01,0.98-0.52,0.99-1.18c0-0.04-0.11-0.09-0.12-0.14c-0.07-0.66-0.07-1.38,0.14-1.99
	c0.21-0.63,0.59-1.03,0.7-1.07c0.08-0.03,0.25-0.03,0.49,0.13c0.23,0.16,0.46,0.42,0.66,0.73c0.41,0.64,0.64,1.36,0.73,2.23
	l0.01,0.03c0.05,0.39,0.39,0.67,0.78,0.63c0.37-0.03,0.64-0.35,0.64-0.7L84.35,93.473z"/>
<path fill="#F4D1B0" d="M112.782,93.496c0,3.354,0.485,6.072,2.84,6.072c2.35,0,5.677-0.63,5.677-6.072
	c0-3.354-1.91-6.072-4.26-6.072s-4.26,2.72-4.26,6.072H112.782z"/>
<path fill="#C69C6D" d="M113.49,93.473c0.008-0.938,0.202-2.008,0.663-2.918c0.23-0.463,0.528-0.914,0.945-1.303
	c0.416-0.38,1.008-0.708,1.696-0.718c0.26,0.024,0.208,0.003,0.45,0.053c0.2,0.042,0.37,0.1,0.498,0.167
	c0.292,0.127,0.526,0.31,0.746,0.498c0.416,0.39,0.474,0.84,0.71,1.303c0.458,0.93,0.42,1.936,0.42,2.94v0.116
	c0,0.66-0.28,1.2-0.94,1.21c-0.66,0.01-1.078-0.52-1.087-1.18c0-0.04,0.07-0.09,0.08-0.14c0.08-0.66,0.05-1.38-0.17-1.99
	c-0.2-0.63-0.6-1.03-0.71-1.07c-0.07-0.03-0.25-0.03-0.49,0.13c-0.23,0.16-0.1,0.42-0.3,0.73c-0.4,0.64-0.37,1.36-0.37,2.23v0.03
	c0,0.39-0.75,0.67-1.13,0.63c-0.36-0.03-1-0.35-0.99-0.7L113.49,93.473z"/>
<path fill="#FFDDBB" d="M115.894,99.494c0,11.928-11.463,12.96-16.578,12.96c-5.82,0-16.577-1.032-16.577-12.96
	c0-11.932-1.24-27.25,16.57-27.25c17.98,0.002,16.58,15.32,16.58,27.25H115.894z"/>
<path fill="#FBB03B" d="M79.62,86.238l3.177,9.17l4.584-10.7 M119.011,86.824l-3.02,8.584l-4.58-10.7"/>
<path fill="#F5F5F5" d="M96.247,93.478c0,2.728-2.208,4.938-4.934,4.938s-4.937-2.21-4.937-4.938c0-2.724,2.21-4.93,4.937-4.93
	C94.039,88.548,96.247,90.754,96.247,93.478z"/>
<path fill="#333333" d="M94.784,93.36c0,1.896-1.53,3.43-3.427,3.43c-1.888,0-3.425-1.534-3.425-3.43
	c0-1.892,1.537-3.422,3.425-3.422C93.252,89.938,94.784,91.468,94.784,93.36z"/>
<path fill="#F5F5F5" d="M113.18,93.478c0,2.728-2.21,4.938-4.937,4.938c-2.73,0-4.938-2.21-4.938-4.938
	c0-2.724,2.21-4.93,4.938-4.93C110.97,88.548,113.179,90.754,113.18,93.478L113.18,93.478z"/>
<path fill="#333333" d="M111.713,93.36c0,1.896-1.532,3.43-3.427,3.43c-1.89,0-3.425-1.534-3.425-3.43
	c0-1.892,1.54-3.422,3.43-3.422c1.9,0,3.43,1.53,3.43,3.422H111.713z"/>
<g>
	<defs>
		<path id="SVGID_27_" d="M100.62,92.38v8.788c0,0,0.053,1.588-2.24,2.293l0.514-2.29l-0.667-9.09"/>
	</defs>
	<clipPath id="SVGID_28_">
		<use xlink:href="#SVGID_27_"  overflow="visible"/>
	</clipPath>
	<path clip-path="url(#SVGID_28_)" fill="#FF595E" d="M98.717,101.912h1.78v1.188h-1.78V101.912z"/>
</g>
<g>
	<defs>
		<path id="SVGID_29_" d="M100.62,92.38v8.788c0,0,0.053,1.588-2.24,2.293l0.514-2.29l-0.667-9.09"/>
	</defs>
	<clipPath id="SVGID_30_">
		<use xlink:href="#SVGID_29_"  overflow="visible"/>
	</clipPath>
	<path clip-path="url(#SVGID_30_)" fill="#FF5B5F" d="M98.717,100.133h1.78v1.78h-1.78V100.133z"/>
</g>
<g>
	<defs>
		<path id="SVGID_31_" d="M100.62,92.38v8.788c0,0,0.053,1.588-2.24,2.293l0.514-2.29l-0.667-9.09"/>
	</defs>
	<clipPath id="SVGID_32_">
		<use xlink:href="#SVGID_31_"  overflow="visible"/>
	</clipPath>
	<path clip-path="url(#SVGID_32_)" fill="#FF5C60" d="M98.717,99.54h1.78v0.593h-1.78V99.54z"/>
</g>
<g>
	<defs>
		<path id="SVGID_33_" d="M100.62,92.38v8.788c0,0,0.053,1.588-2.24,2.293l0.514-2.29l-0.667-9.09"/>
	</defs>
	<clipPath id="SVGID_34_">
		<use xlink:href="#SVGID_33_"  overflow="visible"/>
	</clipPath>
	<path clip-path="url(#SVGID_34_)" fill="#FF5D61" d="M98.717,97.762h1.78v1.78h-1.78V97.762z"/>
</g>
<g>
	<defs>
		<path id="SVGID_35_" d="M100.62,92.38v8.788c0,0,0.053,1.588-2.24,2.293l0.514-2.29l-0.667-9.09"/>
	</defs>
	<clipPath id="SVGID_36_">
		<use xlink:href="#SVGID_35_"  overflow="visible"/>
	</clipPath>
	<path clip-path="url(#SVGID_36_)" fill="#FF5E62" d="M98.62,95.486h2v2h-2V95.486z"/>
</g>
<g>
	<defs>
		<path id="SVGID_37_" d="M100.62,92.38v8.788c0,0,0.053,1.588-2.24,2.293l0.514-2.29l-0.667-9.09"/>
	</defs>
	<clipPath id="SVGID_38_">
		<use xlink:href="#SVGID_37_"  overflow="visible"/>
	</clipPath>
	<path clip-path="url(#SVGID_38_)" fill="#FF5F63" d="M98.717,94.203h1.78v1.186h-1.78V94.203z"/>
</g>
<g>
	<defs>
		<path id="SVGID_39_" d="M100.62,92.38v8.788c0,0,0.053,1.588-2.24,2.293l0.514-2.29l-0.667-9.09"/>
	</defs>
	<clipPath id="SVGID_40_">
		<use xlink:href="#SVGID_39_"  overflow="visible"/>
	</clipPath>
	<path clip-path="url(#SVGID_40_)" fill="#FF6064" d="M98.717,93.018h1.78v1.186h-1.78V93.018z M98.717,91.832h1.78v1.186h-1.78
		V91.832z"/>
</g>
<path fill="#333333" d="M97.526,104.65c-0.48,0-0.928-0.31-1.082-0.79c-0.188-0.595,0.143-1.23,0.74-1.423
	c1.23-0.395,1.562-0.936,1.565-1.168l-0.01-8.93c0-0.63,0.31-1.14,0.94-1.14c0.62,0,0.93,0.51,0.93,1.13v8.82
	c0,0,0.47,2.34-2.95,3.43c-0.12,0.03-0.04,0.05-0.15,0.05L97.526,104.65z M98.84,108.25c-4.448,0-7.25-1.984-7.42-2.107
	c-0.508-0.37-0.62-1.076-0.253-1.584c0.37-0.51,1.075-0.62,1.58-0.26c0.218,0.15,5.416,3.75,12.93-0.09
	c0.562-0.28,1.24-0.07,1.526,0.49c0.285,0.56,0.065,1.23-0.495,1.52c-2.958,1.51-5.623,2.021-7.868,2.021V108.25z"/>
<path fill="#FBB03B" d="M111.484,77.654c0,0-4.936,5.996-15.518,6.703l5.17-5.29c0,0-11.46,7.64-17.34,7.64l-1.413,0.176
	l-1.586,2.557c0,0-5.026-8.11-2.822-12.52c0,0,0.825-1.264-1.997,0.148c0,0,5.32-14.315,25.51-12.815c0,0,10.876,1.643,11.935,5.436
	c0.806,2.89-1.94,7.96-1.94,7.96L111.484,77.654z"/>
<path fill="#FBB03B" d="M110.07,76.48c0,0,0,8.113,2.824,11.285l5.287,0.988c0,0,3.36-7.865,3.36-9.982s-1.23-8.81-8.64-8.11
	c-7.4,0.71-2.82,5.82-2.82,5.82L110.07,76.48z"/>
<path fill="#F7931E" d="M101.572,86.783c-0.036,0.03,0.696-0.496,1.806-1.02c0.543-0.3,1.225-0.527,1.944-0.834
	c0.368-0.13,0.756-0.24,1.15-0.36c0.402-0.11,0.796-0.26,1.217-0.31c0.84-0.11,1.67-0.36,2.49-0.31c0.81,0.02,1.59-0.08,2.24,0.06
	l2.2,0.4c1.11,0.2,1.85,1.27,1.65,2.38c-0.21,1.11-1.27,1.85-2.39,1.65c-0.1-0.02-0.19-0.04-0.28-0.07l-0.35-0.12
	c0,0-0.61-0.2-1.51-0.51c-0.46-0.2-1.05-0.18-1.65-0.3c-0.62-0.15-1.31-0.03-1.99-0.06c-0.35-0.02-0.69,0.07-1.03,0.1l-1.01,0.14
	c-0.64,0.17-1.26,0.27-1.76,0.46c-1.04,0.31-1.61,0.62-1.65,0.63c-0.55,0.31-1.24,0.12-1.55-0.42c-0.32-0.54-0.13-1.23,0.41-1.54
	L101.572,86.783z M96.46,88.748c-0.045-0.012-0.616-0.315-1.65-0.627c-0.495-0.19-1.118-0.28-1.752-0.46l-1-0.14
	c-0.343-0.03-0.682-0.12-1.03-0.1c-0.683,0.03-1.37-0.09-1.98,0.06c-0.61,0.13-1.2,0.11-1.65,0.3l-1.51,0.51l-0.335,0.12
	c-1.074,0.36-2.24-0.21-2.6-1.28c-0.365-1.07,0.212-2.24,1.287-2.6c0.092-0.03,0.195-0.05,0.29-0.07l2.203-0.4
	c0.656-0.14,1.433-0.05,2.244-0.07c0.823-0.04,1.655,0.2,2.495,0.31c0.425,0.05,0.818,0.21,1.216,0.31
	c0.395,0.12,0.785,0.23,1.153,0.36c0.72,0.31,1.4,0.53,1.95,0.84c1.11,0.53,1.84,1.05,1.8,1.02c0.55,0.31,0.73,1,0.42,1.55
	c-0.31,0.54-1,0.73-1.54,0.42L96.46,88.748z"/>
<path fill="#754C24" d="M174.402,196.38h0.021c-2.84-2-6.893-3.563-6.893-3.563c-2.03-1.385-0.61-4.229-0.61-4.229
	c-0.68-3.608-11.22,0.455-11.22,0.455s1.109,4.526,0.05,6c-1.06,1.47-0.149,5.34-0.149,5.34h0.01c-0.07,0,0.67,1.127,0.67,1.127
	l25.59,0.47l0.02-2.489c-2.149-1.261-4.8-3.11-7.459-3.11L174.402,196.38z M130.971,196.38h-0.022c2.842-2,6.893-3.563,6.893-3.563
	c2.04-1.385,0.62-4.229,0.62-4.229c0.68-3.608,11.23,0.455,11.23,0.455s-1.11,4.526-0.041,6c1.07,1.47,0.16,5.34,0.16,5.34h-0.01
	c0.07,0-0.67,1.127-0.67,1.127l-25.58,0.47l-0.02-2.489c2.16-1.261,4.8-3.11,7.46-3.11L130.971,196.38z"/>
<path fill="#ED1E79" d="M163.303,144.393l-24.353,0.022l5.096-29.034h13.593L163.303,144.393z"/>
<path fill="#FFEDDC" d="M145.87,128.38h9.94c1.01,0,1.81-0.604,1.81-1.612V115.38h-14v11.388
	C143.62,127.775,144.859,128.381,145.87,128.38L145.87,128.38z"/>
<path fill="#F4D1B0" d="M153.62,116.135c0,1.875-1.3,3.115-2.5,3.115c-1.203,0-2.5-1.24-2.5-3.115v-6.797
	c0-1.877,1.297-3.398,2.5-3.398c1.2,0,2.5,1.52,2.5,3.398V116.135z"/>
<path fill="#D3BD8D" d="M164.346,93.473c0,3.297,0.48,5.97,2.793,5.97c2.311,0,5.58-0.622,5.58-5.97c0-3.3-1.869-5.97-4.189-5.97
	s-4.19,2.67-4.19,5.97H164.346z"/>
<path fill="#C69C6D" d="M165.042,93.45c0.01-0.924,0.2-1.977,0.653-2.87c0.226-0.455,0.517-0.9,0.928-1.283
	c0.41-0.373,0.993-0.694,1.667-0.7c0.257,0.02,0.204,0,0.446,0.05c0.193,0.04,0.361,0.1,0.486,0.162c0.285,0.12,0.52,0.3,0.731,0.48
	c0.41,0.38,0.741,0.83,0.97,1.28c0.454,0.91,0.694,1.9,0.694,2.89v0.11c0,0.64-0.55,1.17-1.197,1.18c-0.64,0.01-1.19-0.51-1.2-1.16
	v-0.14c0.07-0.65,0.01-1.36-0.199-1.96c-0.19-0.62-0.601-1.021-0.711-1.06c-0.069-0.04-0.26-0.03-0.49,0.12
	c-0.229,0.15,0.641,0.41,0.451,0.72c-0.391,0.63,0.369,1.33,0.369,2.19v0.03c0,0.38-1.479,0.65-1.859,0.61
	c-0.36-0.04-1.721-0.34-1.711-0.69L165.042,93.45z"/>
<path fill="#D3BD8D" d="M136.663,93.473c0,3.297-0.481,5.97-2.793,5.97s-5.58-0.622-5.58-5.97c0-3.3,1.87-5.97,4.185-5.97
	C134.787,87.503,136.663,90.173,136.663,93.473z"/>
<path fill="#C69C6D" d="M135.971,93.45c-0.015-0.924-0.205-1.977-0.656-2.87c-0.229-0.455-0.52-0.9-0.93-1.283
	c-0.41-0.373-0.99-0.694-1.67-0.702c-0.252,0.023-0.199,0.003-0.438,0.052c-0.196,0.04-0.364,0.1-0.49,0.162
	c-0.288,0.12-0.52,0.3-0.73,0.48c-0.412,0.38-0.13,0.83-0.359,1.28c-0.45,0.91-0.076,1.9-0.076,2.89v0.11
	c0,0.64-0.061,1.17,0.59,1.18s0.9-0.51,0.9-1.16c0-0.05-0.141-0.1-0.15-0.14c-0.07-0.65-0.09-1.36,0.13-1.96
	c0.2-0.62,0.57-1.021,0.681-1.06c0.069-0.04,0.24-0.03,0.479,0.12c0.229,0.15,0.45,0.41,0.649,0.72c0.4,0.63,0.631,1.33,0.721,2.19
	v0.03c0.04,0.38,0.38,0.65,0.76,0.61c0.36-0.04,0.62-0.34,0.62-0.69L135.971,93.45z"/>
<path fill="#FFDDBB" d="M166.977,99.367c0,11.73-11.271,12.742-16.301,12.742c-5.722,0-16.295-1.02-16.295-12.75
	s-1.21-26.79,16.301-26.79c17.689,0,16.299,15.06,16.299,26.79L166.977,99.367z"/>
<circle fill="#F48B73" cx="150.706" cy="107.949" r="2.659"/>
<path fill="#333333" d="M150.158,73.277c0,0,1.332,14.504-4.68,16.122c0,0-2.776-0.87-9.017-0.87l4.45-13.87l9.764-2.09l-0.518,0.69
	V73.277z M150.098,73.507c0,0,3.93,11.44-1.384,15.6c0,0,12.078-0.112,17.394-2.192C166.107,86.915,161.714,70.56,150.098,73.507
	L150.098,73.507z"/>
<circle fill="#F5F5F5" cx="142.811" cy="93.455" r="4.852"/>
<path fill="#333333" d="M146.223,93.34c0,1.86-1.504,3.365-3.367,3.365c-1.859,0-3.369-1.506-3.369-3.365
	c0-1.86,1.51-3.365,3.369-3.365C144.719,89.975,146.223,91.479,146.223,93.34z"/>
<circle fill="#F5F5F5" cx="159.453" cy="93.455" r="4.853"/>
<path fill="#333333" d="M162.865,93.34c0,1.86-1.504,3.365-3.366,3.365c-1.86,0-3.37-1.506-3.37-3.365c0-1.86,1.51-3.365,3.37-3.365
	s3.36,1.504,3.36,3.365H162.865z M134.67,88.068c0,0-1.386,13.002,3.236,22.252c0,0-9.94-0.39-12.022-6.633
	c-2.078-6.236-0.46-38.307,24.042-34.307h1.66c24.498-4,26.117,28.07,24.04,34.307c-2.082,6.244-12.024,7.16-12.024,7.16
	c4.625-9.25,1.584-24.42,1.584-24.42l-9.943-12.772l-9.708,0.385L134.67,88.068L134.67,88.068z M150.85,108.648
	c-3.453,0-6.16-1.83-6.16-4.166c0-0.627,0.508-1.133,1.134-1.133c0.625,0,1.133,0.5,1.133,1.13c0,0.89,1.665,1.9,3.896,1.9
	c2.229,0,3.899-1.01,3.899-1.9c0-0.63,0.51-1.14,1.13-1.14c0.631,0,1.141,0.5,1.141,1.13c0,2.33-2.701,4.16-6.16,4.16
	L150.85,108.648z"/>
<path fill="#FF7BAC" d="M131.111,86.36l-0.01-0.58c0.01-0.396-0.06-0.893,0.084-1.776c0.207-1.678,0.74-3.92,2.28-6.248
	c0.734-1.166,1.72-2.29,2.856-3.366c1.167-1.036,2.484-2.057,4.012-2.796c1.5-0.796,3.148-1.4,4.868-1.817
	c1.714-0.462,3.513-0.602,5.3-0.674c1.045,0.067,1.583,0.02,2.616,0.175c0.95,0.1,1.847,0.263,2.692,0.476
	c1.727,0.4,3.371,1.033,4.867,1.834c3.021,1.55,5.391,3.848,6.87,6.167c1.521,2.312,2.08,4.625,2.265,6.197
	c0.141,0.79,0.086,1.424,0.09,1.85c-0.002,0.425-0.004,0.65-0.004,0.65c-0.006,0.814-0.67,1.47-1.485,1.46
	c-0.735-0.007-1.341-0.552-1.442-1.26l-0.031-0.2c0,0-0.024-0.18-0.076-0.514c-0.051-0.332-0.092-0.82-0.266-1.422
	c-0.265-1.21-0.925-2.883-2.22-4.56c-0.626-0.856-1.46-1.666-2.39-2.452c-0.967-0.75-2.043-1.48-3.271-2.044
	c-1.202-0.607-2.54-1.03-3.93-1.35c-0.704-0.17-1.392-0.282-2.054-0.345c-0.564-0.12-1.66-0.086-2.232-0.133
	c-1.443,0.038-2.91,0.102-4.293,0.452c-1.4,0.306-2.73,0.757-3.93,1.366c-2.44,1.165-4.4,2.794-5.66,4.5
	c-1.28,1.667-1.96,3.407-2.21,4.513c-0.171,0.507-0.229,1.132-0.28,1.498l-0.08,0.58c-0.109,0.82-0.859,1.39-1.67,1.28
	c-0.75-0.1-1.279-0.73-1.29-1.45L131.111,86.36z"/>
<path fill="#ED1E79" d="M142.62,144.38h21v2h-21V144.38z"/>
<path fill="#FFEDDC" d="M138.95,144.132l-0.427,1.308c0,0,1.65-0.471,2.17,0c0.521,0.47,1.561,0.66,2.74,0
	c1.178-0.67,3.537-0.66,4.717,0.09s4.529-0.15,4.529-0.15s2.69-0.85,4.769,0.51c2.075,1.37,5.096-0.66,5.096-0.66
	s0.757-0.43,1.32,0.851l-0.562-1.899l-24.353-0.07V144.132z"/>
<path fill="#BA0952" d="M138.646,166.742c0.03,0.025,0.059,0.05,0.088,0.072c1.64-4.586,4.348-12.48,4.082-13.871
	c-0.375-1.979-1.98-1.51-3.68,3.398c-0.929,2.686-2.818,6.946-4.338,10.262c0.44-0.207,2.5-1.06,3.84,0.139H138.646z
	 M170.236,166.686c-1.549-2.856-8.329-15.154-9.582-14.399c-1.122,0.67,1.433,9.642,2.397,15.167
	c0.222-0.186,0.438-0.389,0.646-0.62C166.518,163.65,169.573,166.081,170.236,166.686z M150.938,153.7
	c-2.98,0.356-4.267,7.972-4.854,13.71c0.257-0.078,0.481-0.13,0.765-0.221c4.659-1.455,7.092,0.148,7.717,0.66
	C154.631,162.396,154.254,153.3,150.938,153.7z"/>
<path fill="#29ABE2" d="M28.52,176.38h28.127l-5.37,8H33.21L28.52,176.38z"/>
<path fill="#0071BC" d="M33.24,178.945c0,0,1.223,0.021,2.96,0.111c0.864,0.039,1.867,0.086,2.945,0.131
	c1.07,0.033,2.196,0.08,3.33,0.086l1.69-0.017c0.542-0.022,1.072-0.05,1.585-0.069c1.063-0.088,2.056-0.166,2.905-0.232
	c1.765-0.178,2.942-0.292,2.942-0.292s-0.928,0.836-2.607,1.56c-0.833,0.37-1.84,0.709-2.972,0.95
	c-0.572,0.093-1.192,0.24-1.78,0.275c-0.597,0.026-1.105,0.081-1.796,0.085c-1.21-0.047-2.42-0.152-3.534-0.377
	c-1.11-0.229-2.125-0.518-2.973-0.84c-1.698-0.631-2.696-1.371-2.696-1.371H33.24z M40.647,184.319l0.584-4.796l2.27-0.021
	l0.7,4.779L40.647,184.319z"/>
<path fill="#082031" d="M33.9,194.777c0,0-4.576,1.77-6.915,4.035l16.204,0.142l-0.47-2.97l-8.83-1.207H33.9z"/>
<path fill="#F4E8D9" d="M26.62,198.63h21v1.75h-21V198.63z"/>
<path fill="#D3C1AF" d="M42.62,198.63h5v1.75h-5V198.63z"/>
<path fill="#E29837" d="M224.402,134.518c0,0,2.06-4.119,5.885-1.178c3.822,2.94,2.205,8.53,9.561,5.146
	C239.848,138.486,230.58,150.989,224.402,134.518L224.402,134.518z M201.018,134.518c0,0-2.061-4.119-5.884-1.178
	c-3.825,2.94-2.207,8.53-9.56,5.146C185.574,138.486,194.841,150.989,201.018,134.518z"/>
<path fill="#F4D1B0" d="M224.38,150.918c0,2.79,0.404,5.061,2.37,5.061c1.96,0,4.732-0.524,4.732-5.061
	c0-2.8-1.59-5.066-3.549-5.066C225.971,145.852,224.38,148.119,224.38,150.918z"/>
<path fill="#C69C6D" d="M224.971,150.896c0.006-0.787,0.168-1.678,0.555-2.437c0.191-0.387,0.439-0.765,0.789-1.087
	c0.347-0.316,0.84-0.592,1.414-0.598c0.213,0.02,0.17,0,0.373,0.045c0.166,0.033,0.311,0.084,0.416,0.136
	c0.243,0.11,0.44,0.262,0.618,0.417c0.351,0.322,0.671,0.7,0.86,1.087c0.385,0.776,0.623,1.614,0.623,2.457v0.093
	c0,0.551-0.5,1-1.061,1.008c-0.55,0.006-1.029-0.434-1.039-0.982c0-0.04-0.021-0.08-0.021-0.117c0.06-0.555,0.01-1.16-0.181-1.665
	c-0.17-0.53-0.52-0.862-0.609-0.896c-0.061-0.032-0.23-0.025-0.42,0.107c-0.2,0.133-0.16,0.352-0.32,0.607
	c-0.34,0.535-0.38,1.138-0.38,1.859v0.03c0,0.322-0.569,0.558-0.89,0.524c-0.301-0.032-0.77-0.295-0.77-0.59H224.971z"/>
<path fill="#F4D1B0" d="M200.893,150.918c0,2.79-0.406,5.061-2.367,5.061c-1.965,0-4.736-0.524-4.736-5.061
	c0-2.8,1.59-5.066,3.55-5.066s3.55,2.268,3.55,5.066H200.893z"/>
<path fill="#C69C6D" d="M200.303,150.896c-0.008-0.787-0.17-1.678-0.555-2.437c-0.193-0.387-0.439-0.765-0.788-1.087
	c-0.346-0.316-0.84-0.592-1.412-0.598c-0.218,0.02-0.175,0-0.378,0.045c-0.166,0.033-0.307,0.084-0.414,0.136
	c-0.242,0.11-0.439,0.262-0.622,0.417c-0.346,0.322-0.68,0.7-0.88,1.087c-0.38,0.776-0.635,1.614-0.635,2.457v0.093
	c0,0.551,0.52,1,1.061,1.008c0.549,0.006,1.039-0.434,1.049-0.982c0-0.04,0.021-0.08,0.021-0.117c-0.06-0.555-0.01-1.16,0.17-1.665
	c0.17-0.53,0.521-0.862,0.61-0.896c0.06-0.032,0.22-0.025,0.41,0.107c0.189,0.133,1.14,0.352,1.3,0.607
	c0.329,0.535,1.36,1.138,1.36,1.859v0.03c0,0.322-0.431,0.558-0.101,0.524c0.3-0.032-0.22-0.295-0.22-0.59H200.303z"/>
<path fill="#F4D1B0" d="M218.797,160.38c0,2.761-1.521,5-3.396,5h-4.53c-1.876,0-3.397-2.239-3.397-5c0-2.762,1.521-5,3.396-5h4.529
	c1.871,0,3.391,2.238,3.391,5H218.797z"/>
<path fill="#FFDDBB" d="M226.605,155.916c0,5.516-9.412,6.984-13.674,6.984c-4.851,0-13.971-1.76-13.971-6.979
	c0-9.95-1.029-20.51,13.83-20.51c15.01,0,13.83,10.569,13.83,20.521L226.605,155.916z"/>
<g opacity="0.44">
	<g>
		<defs>
			<path id="SVGID_41_" d="M212.782,152.385c0,0,1.545-0.585,1.84,1.18C214.622,153.564,212.342,154.591,212.782,152.385z"/>
		</defs>
		<clipPath id="SVGID_42_">
			<use xlink:href="#SVGID_41_"  overflow="visible"/>
		</clipPath>
		<path clip-path="url(#SVGID_42_)" fill="#FF6064" d="M214.529,153.05c0,0.47-0.387,0.851-0.855,0.851
			c-0.468,0-0.857-0.381-0.857-0.851c0-0.478,0.391-0.86,0.857-0.86s0.857,0.383,0.857,0.86H214.529z"/>
	</g>
	<g>
		<defs>
			<path id="SVGID_43_" d="M212.782,152.385c0,0,1.545-0.585,1.84,1.18C214.622,153.564,212.342,154.591,212.782,152.385z"/>
		</defs>
		<clipPath id="SVGID_44_">
			<use xlink:href="#SVGID_43_"  overflow="visible"/>
		</clipPath>
		<path clip-path="url(#SVGID_44_)" fill="#FF5F63" d="M214.46,153.05c0,0.433-0.353,0.777-0.786,0.777
			c-0.435,0-0.787-0.345-0.787-0.778c0-0.439,0.354-0.79,0.787-0.79c0.432,0,0.787,0.351,0.787,0.78L214.46,153.05z"/>
	</g>
	<g>
		<defs>
			<path id="SVGID_45_" d="M212.782,152.385c0,0,1.545-0.585,1.84,1.18C214.622,153.564,212.342,154.591,212.782,152.385z"/>
		</defs>
		<clipPath id="SVGID_46_">
			<use xlink:href="#SVGID_45_"  overflow="visible"/>
		</clipPath>
		<path clip-path="url(#SVGID_46_)" fill="#FF5E62" d="M214.391,153.05c0,0.39-0.316,0.707-0.717,0.707
			c-0.396,0-0.716-0.317-0.716-0.708c0-0.4,0.317-0.72,0.716-0.72c0.4,0,0.717,0.319,0.717,0.71V153.05z"/>
	</g>
	<g>
		<defs>
			<path id="SVGID_47_" d="M212.782,152.385c0,0,1.545-0.585,1.84,1.18C214.622,153.564,212.342,154.591,212.782,152.385z"/>
		</defs>
		<clipPath id="SVGID_48_">
			<use xlink:href="#SVGID_47_"  overflow="visible"/>
		</clipPath>
		<path clip-path="url(#SVGID_48_)" fill="#FF5D61" d="M214.32,153.05c0,0.353-0.293,0.638-0.646,0.638s-0.646-0.285-0.646-0.64
			c0-0.353,0.293-0.646,0.646-0.646S214.32,152.695,214.32,153.05L214.32,153.05z"/>
	</g>
	<g>
		<defs>
			<path id="SVGID_49_" d="M212.782,152.385c0,0,1.545-0.585,1.84,1.18C214.622,153.564,212.342,154.591,212.782,152.385z"/>
		</defs>
		<clipPath id="SVGID_50_">
			<use xlink:href="#SVGID_49_"  overflow="visible"/>
		</clipPath>
		<path clip-path="url(#SVGID_50_)" fill="#FF5C60" d="M214.25,153.05c0,0.32-0.26,0.565-0.576,0.565s-0.576-0.246-0.576-0.566
			s0.26-0.58,0.576-0.58s0.577,0.25,0.577,0.57L214.25,153.05z"/>
	</g>
	<g>
		<defs>
			<path id="SVGID_51_" d="M212.782,152.385c0,0,1.545-0.585,1.84,1.18C214.622,153.564,212.342,154.591,212.782,152.385z"/>
		</defs>
		<clipPath id="SVGID_52_">
			<use xlink:href="#SVGID_51_"  overflow="visible"/>
		</clipPath>
		<path clip-path="url(#SVGID_52_)" fill="#FF5B5F" d="M214.18,153.05c0,0.273-0.229,0.494-0.506,0.494
			c-0.271,0-0.503-0.22-0.503-0.495c0-0.29,0.229-0.51,0.511-0.51c0.279,0,0.51,0.22,0.51,0.5L214.18,153.05z"/>
	</g>
	<g>
		<defs>
			<path id="SVGID_53_" d="M212.782,152.385c0,0,1.545-0.585,1.84,1.18C214.622,153.564,212.342,154.591,212.782,152.385z"/>
		</defs>
		<clipPath id="SVGID_54_">
			<use xlink:href="#SVGID_53_"  overflow="visible"/>
		</clipPath>
		<path clip-path="url(#SVGID_54_)" fill="#FF595E" d="M214.105,153.05c0,0.228-0.192,0.425-0.433,0.425
			c-0.239,0-0.435-0.195-0.435-0.426c0-0.24,0.193-0.439,0.435-0.439c0.24,0,0.433,0.189,0.433,0.43V153.05z"/>
	</g>
	<g>
		<defs>
			<path id="SVGID_55_" d="M212.782,152.385c0,0,1.545-0.585,1.84,1.18C214.622,153.564,212.342,154.591,212.782,152.385z"/>
		</defs>
		<clipPath id="SVGID_56_">
			<use xlink:href="#SVGID_55_"  overflow="visible"/>
		</clipPath>
		<circle clip-path="url(#SVGID_56_)" fill="#FF585D" cx="213.674" cy="153.049" r="0.354"/>
	</g>
	<g>
		<defs>
			<path id="SVGID_57_" d="M212.782,152.385c0,0,1.545-0.585,1.84,1.18C214.622,153.564,212.342,154.591,212.782,152.385z"/>
		</defs>
		<clipPath id="SVGID_58_">
			<use xlink:href="#SVGID_57_"  overflow="visible"/>
		</clipPath>
		<path clip-path="url(#SVGID_58_)" fill="#FF575C" d="M213.957,153.05c0,0.16-0.122,0.282-0.283,0.282
			c-0.16,0-0.281-0.122-0.281-0.283c0-0.16,0.123-0.29,0.281-0.29c0.16,0,0.283,0.12,0.283,0.28V153.05z"/>
	</g>
	<g>
		<defs>
			<path id="SVGID_59_" d="M212.782,152.385c0,0,1.545-0.585,1.84,1.18C214.622,153.564,212.342,154.591,212.782,152.385z"/>
		</defs>
		<clipPath id="SVGID_60_">
			<use xlink:href="#SVGID_59_"  overflow="visible"/>
		</clipPath>
		<path clip-path="url(#SVGID_60_)" fill="#FF565B" d="M213.887,153.05c0,0.114-0.098,0.21-0.213,0.21s-0.21-0.096-0.21-0.21
			c0-0.125,0.095-0.213,0.21-0.213S213.887,152.925,213.887,153.05L213.887,153.05z"/>
	</g>
	<g>
		<defs>
			<path id="SVGID_61_" d="M212.782,152.385c0,0,1.545-0.585,1.84,1.18C214.622,153.564,212.342,154.591,212.782,152.385z"/>
		</defs>
		<clipPath id="SVGID_62_">
			<use xlink:href="#SVGID_61_"  overflow="visible"/>
		</clipPath>
		<path clip-path="url(#SVGID_62_)" fill="#FF555A" d="M213.814,153.05c0,0.08-0.062,0.14-0.142,0.14s-0.142-0.06-0.142-0.14
			c0-0.082,0.07-0.14,0.15-0.14c0.079,0,0.139,0.058,0.139,0.14H213.814z"/>
	</g>
	<g>
		<defs>
			<path id="SVGID_63_" d="M212.782,152.385c0,0,1.545-0.585,1.84,1.18C214.622,153.564,212.342,154.591,212.782,152.385z"/>
		</defs>
		<clipPath id="SVGID_64_">
			<use xlink:href="#SVGID_63_"  overflow="visible"/>
		</clipPath>
		<path clip-path="url(#SVGID_64_)" fill="#FF5459" d="M213.744,153.05c0,0.034-0.026,0.07-0.07,0.07s-0.07-0.036-0.07-0.07
			c0-0.045,0.026-0.071,0.07-0.071s0.07,0.026,0.07,0.069V153.05z"/>
	</g>
</g>
<path fill="#333333" d="M214.622,154.132c-0.271,0-0.511-0.2-0.556-0.475c-0.066-0.37-0.19-0.61-0.381-0.72
	c-0.291-0.17-0.699-0.023-0.699-0.023c-0.303,0.113-0.625-0.038-0.732-0.328c-0.113-0.29,0.036-0.62,0.326-0.73
	c0.094-0.039,0.92-0.332,1.672,0.099c0.495,0.287,0.811,0.796,0.93,1.521c0.055,0.307-0.156,0.598-0.467,0.647
	C214.686,154.13,214.652,154.132,214.622,154.132z"/>
<path fill="#F4D1B0" d="M214.35,159.814c0,0-1.566,1.138-3.184,1.175c-0.05,0,4.264,3.28,3.186-1.181L214.35,159.814z"/>
<circle fill="#F48B73" cx="213.323" cy="157.313" r="1.863"/>
<path fill="#FFFFFF" d="M210.85,148.448c0,2.832-2.293,5.134-5.134,5.134c-2.834,0-5.13-2.302-5.13-5.134
	c0-2.834,2.296-5.134,5.13-5.134C208.557,143.314,210.85,145.615,210.85,148.448z M224.967,148.448c0,2.832-2.293,5.134-5.13,5.134
	c-2.836,0-5.13-2.302-5.13-5.134c0-2.834,2.294-5.134,5.13-5.134C222.674,143.314,224.967,145.615,224.967,148.448z"/>
<path fill="#333333" d="M208.96,148.448c0,1.79-1.45,3.243-3.244,3.243c-1.784,0-3.237-1.45-3.237-3.24s1.453-3.24,3.237-3.24
	c1.793,0,3.245,1.45,3.245,3.24L208.96,148.448z"/>
<circle fill="#333333" cx="219.838" cy="148.448" r="3.242"/>
<path fill="#FBB03B" d="M212.77,130.385c-17.892-3.514-16.049,15.467-16.049,15.467l2.189,4.795
	c-0.248-9.73,12.451-10.623,13.859-12.944c1.402,2.321,14.133,3.58,13.985,12.649l2.06-4.5
	C228.814,145.852,230.657,126.872,212.77,130.385z"/>
<path fill="#E8D5AF" d="M212.782,139.125c-0.108,0-0.216-0.03-0.313-0.09c-0.26-0.176-0.34-0.527-0.16-0.79l1.32-2.005l-2.62-1.133
	c-0.21-0.09-0.34-0.295-0.34-0.521s0.13-0.433,0.34-0.521l1.771-0.746l-1.7-1.043c-0.17-0.103-0.271-0.285-0.271-0.484
	s0.101-0.38,0.271-0.482l1.101-0.66c0.26-0.159,0.609-0.079,0.77,0.201c0.16,0.27,0.07,0.619-0.2,0.779l-0.3,0.18l1.84,1.131
	c0.18,0.109,0.279,0.319,0.27,0.529c-0.02,0.211-0.149,0.4-0.35,0.48l-1.57,0.66l2.021,0.869c0.149,0.07,0.271,0.201,0.31,0.36
	c0.051,0.16,0.021,0.341-0.07,0.479l-1.699,2.58c-0.11,0.16-0.29,0.261-0.48,0.261L212.782,139.125z"/>
<path fill="#333333" d="M212.104,157.827c-0.737,0-1.342-0.207-1.806-0.616c-1.077-0.95-0.88-2.62-0.87-2.689
	c0.037-0.311,0.354-0.511,0.629-0.49c0.31,0.039,0.529,0.32,0.493,0.63c-0.002,0.021-0.13,1.159,0.503,1.71
	c0.416,0.37,1.122,0.43,2.104,0.18c0.3-0.07,0.609,0.11,0.689,0.41c0.077,0.311-0.105,0.609-0.41,0.689
	c-0.481,0.131-0.924,0.19-1.332,0.19V157.827z M214.62,157.825c-0.396,0-0.834-0.06-1.313-0.185c-0.305-0.078-0.49-0.386-0.41-0.688
	c0.074-0.306,0.392-0.485,0.687-0.41c0.658,0.17,1.535,0.278,1.968-0.142c0.45-0.44,0.36-1.363,0.29-1.686
	c-0.069-0.302,0.12-0.605,0.431-0.678c0.289-0.074,0.609,0.117,0.68,0.423c0.02,0.07,0.4,1.771-0.59,2.743
	c-0.42,0.416-1,0.622-1.721,0.622H214.62z"/>
<path fill="#FCEE21" d="M199.496,175.359l-5.428,11.75c0,0,4.91-1.697,10.951,2.078c6.029,3.776,14.149-2.265,14.149-2.265
	s6.41-3.399,12.271,2.452l-4.301-13.492c0,0-14.07-6.189-27.65-0.523H199.496z"/>
<path fill="#333333" d="M149.691,104.65c-0.479,0-0.926-0.31-1.08-0.79c-0.189-0.595,0.141-1.23,0.736-1.423
	c1.233-0.395,1.564-0.936,1.566-1.168l-0.007-8.93c0-0.63,0.729-1.14,1.356-1.14c0.625,0,1.354,0.51,1.354,1.13v8.82
	c0,0,0.058,2.34-3.36,3.43c-0.112,0.03-0.452,0.05-0.565,0.05V104.65z"/>
<circle fill="#333333" cx="147.195" cy="119.645" r="1.334"/>
<circle fill="#333333" cx="154.904" cy="119.645" r="1.334"/>
<circle fill="#333333" cx="147.195" cy="123.797" r="1.334"/>
<circle fill="#333333" cx="154.904" cy="123.797" r="1.334"/>
</svg>
