<svg xmlns="http://www.w3.org/2000/svg" width="256" height="256" viewBox="0 0 256 256"><path fill="#fff" d="M128.73 236.078c-18.812 0-33.52-2.843-44.966-8.69-17.02-8.697-26.182-23.634-27.275-44.44-17.04-.61-25.67-10.346-25.67-28.957 0-11.58 4.98-21.72 12.54-26.33l-7.57-16.56L17 74.45l4.76-1.297c.712-.19 71.557-19.74 103.37-52.55l2.87-2.96 2.872 2.96c31.83 32.83 102.647 52.174 103.36 52.366l4.753 1.28-19.32 38.11-5.675 16.04c6.806 5 11.186 14.74 11.186 25.5 0 12.6-4.303 27.5-24.215 28.92-1.89 34.38-27.38 53.25-72.23 53.25z"/><path fill="#333" d="M128 23.38c32.967 34 105.19 53.443 105.19 53.443l-17.21 33.952-6.847 19.352c6.995 3.297 12.042 12.693 12.042 23.77 0 22.44-13.713 25.04-23.41 25.04-.236 0-.465-.01-.69-.023-.188 48.923-47.303 53.164-68.347 53.164-23.98 0-68.29-4.23-68.352-53.333-.67.135-1.38.235-2.144.235-9.695 0-23.41-2.553-23.41-24.99 0-12.002 5.924-21.937 13.83-24.372L39.87 110.38h.057l-17.12-33.37c.002 0 72.224-19.63 105.193-53.63m0-11.49l-5.743 5.922C91.22 49.818 21.41 69.1 20.707 69.292l-9.52 2.592 4.502 8.78 16.5 32.176.39.864 5.77 12.65c-7.06 5.916-11.55 16.174-11.55 27.636 0 12.58 3.8 21.77 11.3 27.34 3.96 2.94 8.78 4.71 14.64 5.37 2.04 20.29 12.03 35.5 29.17 44.26 12.02 6.15 27.32 9.13 46.78 9.13 18.12 0 33.44-3.05 45.55-9.07 17.9-8.9 28.31-24.22 30.4-44.55 5.21-.78 9.56-2.5 13.2-5.21 7.49-5.57 11.29-14.78 11.29-27.35 0-10.96-3.96-20.76-10.48-26.81l4.65-13.15 16.98-33.49 4.45-8.783-9.51-2.56c-.7-.19-70.5-19.29-101.53-51.286l-5.7-5.94z"/><path fill="#F4D1B0" d="M186.063 153.897c0 13.83 2.008 25.036 11.703 25.036 9.697 0 23.41-2.6 23.41-25.036 0-13.825-7.855-25.036-17.553-25.036-9.695 0-17.56 11.22-17.56 25.04z"/><path fill="#C69C6D" d="M188.97 153.804c.042-3.875.84-8.29 2.74-12.04.96-1.906 2.18-3.76 3.903-5.366 1.71-1.57 4.154-2.92 6.988-2.954 1.08.103.86.006 1.87.22.81.168 1.51.41 2.06.682 1.2.527 2.17 1.28 3.07 2.053 1.72 1.6 3.15 3.46 4.11 5.36 1.9 3.84 2.94 7.99 2.94 12.13v.48c0 2.71-2.34 4.94-5.05 4.98-2.71.03-5.04-2.15-5.07-4.86 0-.2-.03-.41-.01-.6.3-2.73.05-5.71-.84-8.22-.82-2.61-2.54-4.26-3.01-4.43-.29-.15-1.08-.13-2.06.53-.95.66-1.93 1.74-2.74 3.01-1.66 2.65-2.65 5.62-3.03 9.2l-.01.14c-.17 1.59-1.6 2.75-3.19 2.58-1.49-.16-2.6-1.44-2.6-2.92z"/><path fill="#F4D1B0" d="M69.936 153.897c0 13.83-2.004 25.036-11.703 25.036-9.695 0-23.41-2.6-23.41-25.036 0-13.825 7.857-25.036 17.553-25.036 9.696 0 17.56 11.22 17.56 25.04z"/><path fill="#C69C6D" d="M67.027 153.804c-.04-3.875-.842-8.29-2.738-12.04-.96-1.906-2.19-3.76-3.91-5.366-1.71-1.57-4.16-2.92-6.99-2.954-1.08.103-.86.006-1.87.22-.82.168-1.51.41-2.05.682-1.2.527-2.18 1.28-3.07 2.053-1.73 1.6-3.03 3.46-3.99 5.36-1.9 3.84-2.81 7.99-2.81 12.13v.48c0 2.71 2.22 4.94 4.93 4.98 2.71.03 4.98-2.15 5.01-4.86 0-.2 0-.41-.02-.6-.3-2.73-.06-5.71.83-8.22.82-2.61 2.53-4.26 3-4.43.29-.15 1.08-.13 2.05.53.94.66 1.92 1.74 2.73 3.01 1.66 2.65 2.65 5.62 3.03 9.2l.01.14c.17 1.59 1.6 2.75 3.19 2.58 1.5-.16 2.61-1.44 2.6-2.92z"/><path fill="#fdb" d="M197.078 178.62c0 49.198-47.264 53.446-68.35 53.446-23.996 0-68.354-4.248-68.354-53.445 0-49.19-5.09-112.34 68.354-112.34 74.168 0 68.35 63.15 68.35 112.35z"/><path fill="#A67C52" d="M47.53 123.97l13.09 37.808 18.907-44.11m130.395 8.726l-12.45 35.384-18.906-44.11"/><path fill="#F5F5F5" d="M113.447 153.818c0 11.244-9.104 20.356-20.348 20.356s-20.36-9.112-20.36-20.356c0-11.23 9.11-20.33 20.35-20.33s20.34 9.1 20.34 20.33z"/><path fill="#333" d="M107.41 153.345c0 7.804-6.318 14.125-14.125 14.125-7.797 0-14.127-6.32-14.127-14.125 0-7.8 6.33-14.117 14.127-14.117 7.807 0 14.125 6.317 14.125 14.117z"/><path fill="#F5F5F5" d="M183.254 153.818c0 11.244-9.105 20.356-20.348 20.356-11.244 0-20.355-9.112-20.355-20.356 0-11.23 9.12-20.33 20.36-20.33s20.35 9.1 20.35 20.33z"/><path fill="#333" d="M177.217 153.345c0 7.804-6.316 14.125-14.123 14.125-7.803 0-14.13-6.32-14.13-14.125 0-7.8 6.327-14.117 14.13-14.117 7.806 0 14.123 6.317 14.123 14.117zm-51.64 45.512c-1.23 0-2.38-.79-2.77-2.027-.487-1.527.358-3.163 1.89-3.65 8.006-2.55 7.697-7.12 7.684-7.32l-.02-35.23c0-1.607 2.52-2.91 4.14-2.91 1.61 0 4.13 1.303 4.13 2.91v34.902s-.09 9.105-12.94 13.188c-.29.092-1.81.137-2.1.137zm1.155 14.118c-17.717 0-28.842-7.867-29.53-8.368-1.296-.943-1.585-2.756-.64-4.055.938-1.295 2.748-1.592 4.057-.657.92.668 23.08 16.133 55.14-.23 1.44-.716 3.18-.164 3.91 1.27.73 1.426.16 3.18-1.27 3.91-11.93 6.092-22.67 8.13-31.68 8.13z"/><linearGradient id="a" gradientUnits="userSpaceOnUse" x1="1145.514" y1="732.981" x2="1145.514" y2="722.586" gradientTransform="matrix(7.466 0 0 7.466 -8424.73 -5257.445)"><stop offset="0" stop-color="#FF5459"/><stop offset=".789" stop-color="#FF6064" stop-opacity="0"/></linearGradient><path fill="url(#a)" d="M132.62 151.38v32.696s1.062 6.236-7.948 9.01l2.436-9.01-3.25-34.826"/><path fill="#0071BC" d="M49.484 128.53L22.81 76.824S95.03 57.38 128 23.38c32.967 34 105.19 53.443 105.19 53.443l-26.673 52.618"/><path fill="#4D4D4D" d="M42.87 116.63c12.005 17 45.073 36.108 84.892 36.108 39.816 0 73.553-19.357 85.56-36.357l-170.453.25z"/><path fill="#FBB03B" d="M146.645 53.99c-1.795 3.563-5.006 5.953-8.668 5.953-4.023 0-7.49-2.864-9.146-7.01-1.65 4.145-5.12 7.01-9.14 7.01-3.23 0-6.11-1.856-7.98-4.74-1.39 3.293-2.2 7.013-2.2 10.975 0 13.31 8.93 28.67 19.95 28.67s19.95-15.36 19.95-28.67c0-4.454-1.02-8.613-2.75-12.187z"/><path fill="#fff" d="M207.982 133.38H50.44l-10.57-23.374 176.36.06z"/></svg>