<svg xmlns="http://www.w3.org/2000/svg" width="256" height="256" viewBox="0 0 256 256"><path d="M129.885 231.602c-18.807 0-33.515-2.845-44.964-8.697-17.02-8.703-26.18-23.65-27.27-44.468-21.16-.793-25.66-16.104-25.66-29.004 0-11.29 4.8-21.347 12.07-26.112-5.58-11.88-10.41-26.64-7.68-38.49-.28.14-.59.29-.91.45-.56.29-1.18.42-1.78.42-.96 0-1.92-.35-2.67-1.02-1.22-1.1-1.65-2.83-1.07-4.37.21-.58 5.44-14.36 20.08-28.16C63.43 39.48 87.66 24.4 126.9 24.4c3.99 0 8.12.16 12.273.47.105.01.205.02.306.04 4.85.74 47.54 7.68 52.45 25.3.08.295.16.596.23.904 27.31 1.163 33.37 27.38 33.37 37.62 0 5-3.52 16.34-10.46 33.72-.04.27-.1.54-.19.81l-.12.36c7.07 4.89 11.61 14.74 11.61 25.81 0 12.6-4.3 27.494-24.21 28.92-1.89 34.38-27.39 53.246-72.23 53.246zM126.878 28.4c3.843 0 7.836.145 11.978.453 0 0 44.84 6.783 49.203 22.416.33 1.19.51 2.47.58 3.81.54-.02 1.07-.03 1.59-.03 26.67 0 31.27 25.37 31.27 33.66 0 5.96-6.46 22.98-10.55 33.17l.12.03-1.24 3.52c7.23 3.1 12.49 12.66 12.49 23.97 0 22.43-13.72 25.03-23.41 25.03-.24 0-.47-.02-.69-.03-.19 48.92-47.3 53.15-68.35 53.15-23.98 0-68.29-4.24-68.35-53.35-.67.13-1.39.21-2.15.21-9.69 0-23.41-2.6-23.41-25.04 0-11.78 5.7-21.65 13.39-24.32-5.52-10.95-13.85-31.25-7.47-44.03 0 0 1.4-2.14-.67-2.14-1.16 0-3.4.66-7.57 2.75 0 0 19.8-53.29 93.21-53.29m0-8c-40.55 0-65.68 15.67-79.63 28.82-15.31 14.45-20.86 29.07-21.09 29.69-1.14 3.08-.29 6.54 2.16 8.74.98.88 2.14 1.48 3.36 1.79-.69 10.65 2.93 22.45 7.39 32.61-6.85 5.96-11.09 16.01-11.09 27.38 0 12.57 3.8 21.77 11.29 27.35 3.97 2.95 8.79 4.73 14.65 5.39 2.04 20.3 12.02 35.52 29.17 44.29 12.03 6.15 27.33 9.13 46.78 9.13 18.13 0 33.45-3.05 45.56-9.07 17.91-8.9 28.32-24.21 30.4-44.55 5.21-.78 9.57-2.5 13.2-5.21 7.5-5.58 11.3-14.78 11.3-27.35 0-11.08-4.19-21.14-10.91-27.17 10.08-25.5 10.08-31.52 10.08-33.55 0-6.24-1.79-15.85-6.8-24.1-4.41-7.25-12.68-15.77-27.56-17.32-3.39-8.54-13.55-15.34-30.96-20.75-12.19-3.79-23.66-5.54-24.14-5.62-.2-.03-.4-.05-.6-.07-4.25-.31-8.48-.47-12.57-.47z" fill="#333"/><path fill="#F4D1B0" d="M187.223 149.433c0 13.83 2.004 25.036 11.7 25.036 9.7 0 23.413-2.6 23.413-25.04 0-13.83-7.86-25.04-17.553-25.04-9.697 0-17.56 11.21-17.56 25.03z"/><path fill="#C69C6D" d="M190.13 149.34c.042-3.876.845-8.29 2.74-12.04.962-1.907 2.18-3.76 3.9-5.367 1.712-1.57 4.155-2.92 6.99-2.954 1.07.1.85 0 1.862.22.81.16 1.512.41 2.05.68 1.2.52 2.17 1.28 3.07 2.05 1.72 1.6 2.562 3.46 3.52 5.36 1.9 3.84 2.355 7.99 2.355 12.13v.48c0 2.71-1.765 4.94-4.478 4.97-2.72.03-4.75-2.14-4.78-4.86 0-.2.1-.41.12-.6.3-2.73.12-5.71-.77-8.22-.83-2.61-2.5-4.26-2.98-4.43-.29-.15-1.07-.13-2.05.53-.95.66-1.92 1.74-2.73 3.01-1.66 2.64-2.65 5.62-3.02 9.2l-.01.14c-.18 1.59-1.61 2.75-3.2 2.58-1.5-.16-2.61-1.45-2.6-2.92z"/><path fill="#F4D1B0" d="M71.094 149.433c0 13.83-2.006 25.036-11.703 25.036-9.69 0-23.41-2.6-23.41-25.04 0-13.83 7.86-25.04 17.56-25.04S71.1 135.6 71.1 149.43z"/><path fill="#C69C6D" d="M68.184 149.34c-.037-3.876-.838-8.29-2.734-12.04-.96-1.907-2.186-3.76-3.906-5.367-1.707-1.57-4.152-2.92-6.984-2.954-1.072.1-.855 0-1.863.22-.814.16-1.512.41-2.053.68-1.195.52-2.166 1.28-3.064 2.05-1.723 1.6-1.608 3.46-2.573 5.36-1.893 3.84-1.386 7.99-1.386 12.13v.48c0 2.71.81 4.94 3.52 4.97 2.72.03 4.27-2.14 4.3-4.86 0-.2-.35-.41-.37-.6-.3-2.73-.23-5.71.66-8.22.83-2.61 2.45-4.26 2.92-4.43.29-.15 1.04-.13 2.02.53.95.66 1.9 1.74 2.71 3.01 1.67 2.64 2.64 5.62 3.02 9.2l.01.14c.18 1.59 1.6 2.75 3.19 2.58 1.5-.16 2.61-1.45 2.6-2.92z"/><path fill="#fdb" d="M198.236 174.156c0 49.197-47.262 53.445-68.352 53.445-23.996 0-68.35-4.24-68.35-53.44 0-49.19-5.092-112.34 68.35-112.34 74.17 0 68.352 63.15 68.352 112.35z"/><path fill="#333" d="M48.69 119.504l13.09 37.81L80.683 113.2m130.4 8.73l-12.45 35.383-18.908-44.11"/><path fill="#F5F5F5" d="M113.446 149.354c0 11.244-9.105 20.356-20.348 20.356s-20.354-9.112-20.354-20.356c0-11.23 9.11-20.33 20.354-20.33s20.348 9.098 20.348 20.33z"/><path fill="#333" d="M107.41 148.88c0 7.804-6.317 14.125-14.122 14.125-7.803 0-14.13-6.32-14.13-14.125 0-7.8 6.327-14.117 14.13-14.117 7.805 0 14.12 6.317 14.12 14.117z"/><path fill="#F5F5F5" d="M183.255 149.354c0 11.244-9.105 20.356-20.348 20.356s-20.357-9.112-20.357-20.356c0-11.23 9.115-20.33 20.357-20.33s20.348 9.098 20.348 20.33z"/><path fill="#333" d="M177.216 148.88c0 7.804-6.316 14.125-14.123 14.125-7.8 0-14.13-6.32-14.13-14.125 0-7.8 6.33-14.117 14.13-14.117 7.806 0 14.123 6.317 14.123 14.117zm-50.486 59.63c-17.718 0-28.84-7.867-29.528-8.368-1.295-.943-1.584-2.756-.643-4.055.93-1.295 2.74-1.592 4.05-.657.93.668 23.08 16.133 55.14-.23 1.43-.716 3.18-.164 3.91 1.27.73 1.426.16 3.18-1.27 3.91-11.93 6.092-22.67 8.13-31.68 8.13zm53.33-124.394s-20.354 24.723-63.98 27.632l21.323-21.814S90.14 121.44 65.897 121.44l-5.816.73-6.54 10.543S32.82 99.26 41.91 81.083c0 0 3.396-5.207-8.238.607 0 0 21.933-59.018 105.19-52.837 0 0 44.84 6.783 49.203 22.416 3.33 11.95-8 32.84-8 32.84zm-5.818-4.85s0 33.45 11.633 46.535l21.8 4.08s13.833-32.43 13.833-41.16c0-8.72-5.092-36.36-35.633-33.45-30.537 2.91-11.633 24-11.633 24zm-37.176 44.03s2.873-1.91 7.338-3.94c4.488-2.087 10.736-4.404 17.373-5.58 3.307-.612 6.69-1.007 9.9-1.03 3.195-.105 6.234.1 8.8.48 2.593.312 4.714.802 6.19 1.224 1.49.376 2.336.595 2.336.595 2.813.716 4.512 3.573 3.797 6.384-.725 2.81-3.58 4.51-6.393 3.79-.145-.04-.287-.08-.434-.13l-.457-.17s-.666-.24-1.824-.64c-1.154-.46-2.828-1.01-4.918-1.46-2.074-.51-4.563-.92-7.27-1.08-2.712-.24-5.653-.17-8.593.09-5.89.48-11.76 2.04-16.02 3.56-4.32 1.52-6.86 2.9-6.86 2.9-1.41.76-3.18.24-3.94-1.18-.72-1.33-.3-2.98.93-3.81l.06-.04zm-21.09 5.014s-2.544-1.382-6.866-2.9c-4.262-1.518-10.13-3.083-16.025-3.56-2.938-.268-5.883-.334-8.59-.097-2.71.158-5.2.567-7.27 1.08-2.093.447-3.77 1.003-4.923 1.46-1.156.4-1.82.636-1.82.636l-.453.15c-2.74.96-5.74-.48-6.7-3.22s.48-5.74 3.22-6.7c.14-.05.29-.1.43-.13 0 0 .85-.22 2.33-.6 1.47-.42 3.6-.91 6.19-1.23 2.57-.38 5.6-.59 8.8-.48 3.21.02 6.59.41 9.9 1.03 6.63 1.17 12.88 3.49 17.37 5.58 4.46 2.03 7.34 3.94 7.34 3.94l.04.03c1.33.89 1.7 2.7.81 4.03-.85 1.26-2.51 1.65-3.82.95z"/><linearGradient id="a" gradientUnits="userSpaceOnUse" x1="1145.119" y1="732.502" x2="1145.119" y2="722.162" gradientTransform="matrix(7.466 0 0 7.466 -8424.73 -5257.445)"><stop offset="0" stop-color="#FF5459"/><stop offset=".789" stop-color="#FF6064" stop-opacity="0"/></linearGradient><path fill="url(#a)" d="M129.62 148.38v32.23s1.18 6.237-7.83 9.01l2.497-9.01-3.34-34.593"/><path fill="#333" d="M123.004 194.393c-1.23 0-2.38-.79-2.77-2.027-.49-1.527.36-3.163 1.894-3.65 8.004-2.55 7.696-7.12 7.678-7.32l-.016-35.23c0-1.607 1.304-2.91 2.91-2.91 1.61 0 2.92 1.303 2.92 2.91v34.902s1.122 9.105-11.73 13.188c-.288.09-.595.137-.886.137z"/></svg>