<svg xmlns="http://www.w3.org/2000/svg" width="256" height="256" viewBox="0 0 256 256"><path d="M161.2 240.88c-.603 0-1.157-.212-1.59-.57-.435.357-.988.57-1.592.57H82.503c-.818 0-1.544-.392-2-1-.456.608-1.182 1-2 1h-38c-1.38 0-2.5-1.118-2.5-2.5v-4c0-.935.513-1.75 1.273-2.178.214-.438.555-.813.99-1.067 1.574-.915 3.178-1.25 4.73-1.572 1.82-.38 3.404-.71 4.974-1.93.082-.083.17-.16.264-.234 3.525-2.71 8.203-4.89 9.61-5.52.05-.1.167-.32.32-.75.36-1.01 1.313-1.66 2.352-1.66.15 0 .303.01.455.04l1.6-28.43c-.23-.15-.45-.32-.66-.49l-.18-.15c-.37-.31-.73-.65-1.05-1.01-.15-.18-.32-.33-.48-.47l-.08-.08c-.12-.1-.25-.2-.39-.29l-.1-.07c-.11-.07-.23-.14-.34-.2l-.12-.06c-.06-.03-.15-.07-.25-.1l-.09-.02c-.1-.03-.19-.05-.28-.07l-.11-.02c-.06-.01-.15-.01-.25-.02h-.03c-.17 0-.25.01-.34.01-.19.02-.3.04-.4.06l-.1.02c-.06.01-.15.04-.24.07l-.12.04c-.05.02-.16.06-.26.11-.19.08-.29.13-.39.18-.14.07-.24.13-.34.19 0 0-.01.01-.02.01-.44.27-.75.53-.9.66l-.1.09c-.48.47-1.12.71-1.75.71-.49 0-.98-.15-1.41-.44-.98-.68-1.35-1.95-.88-3.04l9.32-21.66-.29-.22c-.25-.2-.52-.4-.8-.6l-.08-.06c-1.27-1.01-2.33-1.98-3.31-3.05-1.33-1.44-2.47-3.03-3.36-4.72-1.13-2.16-1.86-4.35-2.16-6.53-.35-2.28-.31-4.7.12-6.98.37-2.35 1.18-4.51 1.85-6.13 1.47-3.33 3.38-6.44 5.88-9.58 1.81-2.28 3.86-4.53 6.1-6.69 1.51-1.45 3.06-2.84 4.62-4.13.33-.81 1.05-1.39 1.92-1.53l.06-.05c.44-.35.99-.54 1.55-.54.1 0 .2.01.3.02l.08.01c-4.01-.73-7.33-2.07-9.93-4.02.5 5.18.96 8.68.96 8.74.16 1.18-.54 2.31-1.68 2.7-.26.08-.53.13-.79.13-.88 0-1.72-.47-2.17-1.27l-3.31-5.85c-.2-.35-.31-.74-.32-1.14l-.63-16.35c-4.74-.98-7.32-4.61-7.32-10.44 0-2.26.52-4.39 1.49-6.18-.01-.03-.02-.06-.02-.09-.31-.54-.41-1.17-.28-1.78.26-1.2 6.49-28.84 27.21-29.86l.51-1.61c-.67-2.69-1.27-6.96.57-10.05.96-1.61 2.47-2.69 4.37-3.12 1-.22 2.19-.34 3.44-.34 2.76 0 9.64.61 14.13 6.21 3.43 4.28 4.43 10.25 3 17.75 7.65 8.6 10.48 20.45 10.6 20.97.15.64.05 1.31-.3 1.87l-.05.08c.95 1.78 1.47 3.9 1.47 6.13 0 5.6-2.39 9.19-6.78 10.32l-.63 16.46c-.01.4-.13.79-.32 1.14l-3.31 5.85c-.45.8-1.29 1.26-2.17 1.26-.16 0-.32-.01-.48-.05.35.36.7.73 1.05 1.11l.37.42c.97 1.1 1.96 2.23 2.87 3.5 1.1 1.42 2.11 2.85 3 4.25.99 1.45 1.93 2.96 2.76 4.42 1.36 2.21 2.57 4.5 3.74 6.72l1.04 1.96.87 1.77c.33-.53.68-1.08 1.05-1.62.9-1.4 1.93-2.97 3.13-4.49 1.04-1.45 2.21-2.91 3.56-4.46 1.84-2.22 3.86-4.31 5.67-6.09-4.19-1.56-8.31-4.29-9.91-9.09-2.43-7.3-1.31-40.99 11.15-58.28 5.43-7.54 12.35-11.36 20.54-11.36 1.27 0 2.59.1 3.92.28h1.92c1.33-.18 2.65-.28 3.92-.28 15.69 0 26.94 14.66 31.15 40.37.11-.01.22-.01.34-.01.23 0 .46.01.68.04 2.52.34 4.38 2.41 4.55 4.83.91-1.63 2.7-2.69 4.64-2.69.8 0 1.57.17 2.3.52 1.32.63 2.26 1.73 2.72 3.01.73 0 1.44.16 2.11.47 1.23.57 2.16 1.58 2.62 2.85.46 1.23.41 2.57-.12 3.77.98 0 1.92.32 2.71.9 2 1.49 2.42 4.34.92 6.35l-5.43 7.27c-.15.76-.41 1.54-.77 2.35-.15.75-.55 2.47-1.29 3.8-.25.45-.48.84-.69 1.18-.62 1.37-2.28 3.47-5.24 4.5-.16.54-.36 1.06-.55 1.58-.12.31-.24.62-.34.94l-.06.16c-.7 1.65-1.43 3.28-2.7 5.03-.02.03-.05.06-.07.09-1.23 1.54-3.21 3.74-6.19 5.01-1.95.9-4.23 1.38-6.55 1.38-.59 0-1.17-.03-1.73-.09-2.18-.24-4.39-.83-6.59-1.75-2.26-.95-4.24-2.08-6.04-3.26l3.18 16.11c.07.13.12.27.16.41l.78 2.74c.36 1.26-.32 2.58-1.55 3.03-.25.09-.5.14-.75.15-.09.16-.19.3-.31.43l-.1 2.84.9 2.58c.45 1.3-.24 2.72-1.54 3.18l-1.41.49 3.99 48.87c.51-.23 1.04-.4 1.57-.5.15-.03.3-.04.45-.04 1.04 0 1.99.64 2.35 1.65.08.21.18.57.29 1.02.09.35.27 1.1.43 1.51 1.26.85 5.51 3.73 8.95 6.23 3.53.09 6.8.77 9.52 1.99h.76c1.38 0 2.5 1.12 2.5 2.5v4c0 1.38-1.12 2.5-2.5 2.5h-39.4zm-50.534-13.238c1.566 1.213 3.148 1.543 4.966 1.92 1.552.324 3.157.658 4.73 1.574.15.087.29.19.416.303 2.486-.94 5.36-1.47 8.44-1.55 3.446-2.52 7.707-5.4 8.947-6.24.154-.4.34-1.15.427-1.5.114-.46.217-.84.296-1.05.367-1 1.313-1.64 2.345-1.64h.066l.99-48.07-2.13-.78c-1.3-.48-1.97-1.91-1.49-3.21l1.09-3-.13-3.67c-.66-.02-1.29-.3-1.75-.79-.62-.66-.84-1.6-.57-2.46l.58-1.88c.04-.15.1-.28.17-.42l2.35-13.33c-1.09 1.14-2.19 2.36-3.23 3.62-1.09 1.27-2.04 2.48-2.86 3.66l-.07.09c-.93 1.19-1.73 2.45-2.47 3.64l-.06.08c-.64.93-1.18 1.9-1.7 2.88.26.34.51.69.77 1.04.45.61.91 1.25 1.39 1.83 1.18 1.44 1.63 2.75 1.74 3.82 1.95 2 3.74 4.45 2.96 6.82-.95 3.09-4.59 13.31-10.81 13.31-.58 0-1.15-.09-1.71-.27-1.13-.36-2.08-.74-2.87-1.17-.8.42-1.75.81-2.88 1.16-.56.18-1.13.26-1.7.26-6.22 0-9.86-10.22-10.83-13.36-.65-1.98.53-4 2-5.71l-2.19-5.12-3.35-7.18c-.35-.67-.7-1.35-1.06-2.05-.56-1.1-1.14-2.21-1.73-3.31l1.66 9.24c.07.13.12.27.17.41l.6 1.88c.27.86.06 1.81-.56 2.47-.48.51-1.15.79-1.83.79-.2 0-.39-.02-.59-.07l-.29-.06c-.06.54-.28 1.02-.62 1.41l9.2 24.61c.36.96.09 2.05-.67 2.73-.47.42-1.07.64-1.67.64-.38 0-.77-.08-1.12-.26l-.06-.03c-.48-.22-1.22-.44-1.86-.44h-.15c-.06 0-.12.01-.19.02s-.11.02-.15.03l-.15.05-.18.09-.06.04c-1.27 1.1-2.7 2.18-5.05 2.48l1.24 27.52c.04-.01.08-.01.12-.02.16-.03.31-.05.47-.05 1.04 0 2 .66 2.36 1.67.14.41.26.63.33.74 1.42.64 6.08 2.82 9.59 5.52.1.07.19.15.27.24zm46.77.773c.484 0 .964.14 1.377.413.4.266.713.637.905 1.066.187-.418.487-.78.873-1.045l-2.71-36.45-.48 36.01h.04zm-78.57-1.886c.216.06.425.16.62.29.35.23.634.54.83.9.194-.36.477-.67.828-.9.135-.09.276-.16.423-.23l-1.177-31.2-1.525 31.13zm106.862-97.58c.438.1.813.14 1.1.17h.07c.14 0 .21-.01.288-.04l.293-.37c.15-.26.31-.6.49-1.01-.73.46-1.49.87-2.25 1.24zM94.33 116.22c.37.173.74.36 1.108.562.043.023.086.048.127.075l1.8 1.128c.08.05.155.102.227.16l1.703 1.342c.2.17.397.34.592.514-.074-.29-.094-.61-.05-.93.006-.05.485-3.68.986-9.02-3.205 2.46-7.487 4.03-12.74 4.65.693.01 1.4.07 2.1.18h1.934c.95 0 1.79.54 2.214 1.34zm-18.327-1.34v-.307c-.423-.06-.838-.125-1.246-.198.393.08.76.255 1.068.505h.178zm10.7-78.528c6.793 0 18.49 3.975 14.414 22.212 7.945 8.25 10.874 20.787 10.874 20.787l-.86 1.42c1.17 1.5 1.91 3.68 1.91 6.1 0 6.63-3.65 7.98-6.7 8.18l-.71 18.52-3.31 5.85s1.05-7.84 1.68-17.64c-3.17 8.38-12.3 10.29-18.49 10.67v4.96h.82c.29-.06.6-.12.84-.13.27-.03.57-.05.88-.05.6 0 1.26.06 1.93.18h2.16l.12.66c.67.26 1.34.58 2.01.94l1.81 1.13 1.7 1.35c1.13.96 2.23 2.04 3.29 3.2 1.03 1.17 2.14 2.4 3.08 3.73 1.02 1.31 2 2.68 2.9 4.1.96 1.4 1.87 2.85 2.7 4.31 1.78 2.89 3.27 5.86 4.75 8.63 1.04 2.13 2.02 4.14 2.89 5.97.23-.42.46-.83.7-1.26.77-1.41 1.61-2.89 2.59-4.33.94-1.47 1.94-2.97 3.06-4.41 1.07-1.49 2.23-2.93 3.45-4.32 2.37-2.84 4.98-5.43 7.48-7.81l1.25-1.1c-4.27-.9-10.62-3.16-12.47-8.7-2.75-8.25-.8-66.35 29.33-66.34 1.2 0 2.45.09 3.74.28h2.28c1.3-.19 2.54-.29 3.74-.28 18.77 0 26.6 22.56 29.17 41.55.5-.73 1.38-1.2 2.32-1.2.12 0 .24.01.36.03 1.49.21 2.55 1.58 2.36 3.06l-1.76 13.03c.28.18.58.25.88.25.21 0 .42-.04.62-.09.58-1.43 1.15-2.87 1.72-4.3 1.01-2.64 2.05-5.27 3.03-7.92.04-.08.07-.16.11-.25.49-1.02 1.5-1.61 2.57-1.61.41 0 .83.09 1.23.28 1.41.67 2.01 2.37 1.33 3.79-1.22 2.55-2.37 5.13-3.56 7.7-.71 1.61-1.42 3.22-2.14 4.83l.32.11c.69-1.49 1.38-2.98 2.06-4.47 1.16-2.42 2.28-4.86 3.46-7.27.45-.9 1.35-1.42 2.3-1.42.36 0 .73.08 1.08.24 1.28.59 1.84 2.11 1.25 3.39-1.13 2.44-2.32 4.85-3.48 7.27-.65 1.31-1.29 2.62-1.94 3.92l.3.11 5.85-7.09c.4-.49.99-.75 1.58-.75.43 0 .86.14 1.22.41.9.67 1.09 1.95.41 2.86l-5.79 7.75c-.08.7-.31 1.56-.81 2.6 0 0-.33 2.02-1.07 3.35-.7 1.25-.74 1.25-.74 1.25s-1.17 2.96-5.17 3.61v.01c0 1.07-.62 2.36-1.09 3.72-.59 1.41-1.26 2.94-2.42 4.54-1.24 1.56-2.88 3.28-5.22 4.27-1.77.81-3.74 1.18-5.56 1.18-.5 0-.98-.03-1.45-.08-2.18-.24-4.16-.84-5.91-1.57-3.5-1.48-6.36-3.46-8.91-5.36-.62-.47-1.22-1.01-1.8-1.49l4.55 23.1h.09l.78 2.75c-.43-.96-.94-1.18-1.31-1.18-.3 0-.51.14-.51.14s-.09.06-.25.16v2.14h-.6l-.17 4.97.03-.01 1.02 2.94-3.24 1.13 4.5 55.2c.29-.24.59-.43.91-.54 1.15-1.31 2.24-1.92 3.23-2.1.22.61.62 3.06 1.33 3.52 0 0 5.79 3.88 9.85 6.88h-.03c3.42 0 6.91.58 9.84 2h1.32v4H161.2l-.39-4h1.22c-.09-1.24-.13-2.53-.03-3.46.38.12.81.2 1.27.24l-4.32-58.05-.86.3-1.02-2.95.08-.03-.127-.34-.804 2.21-.04-.01-.5 1.34-.06-.02-.77 57.57c.16.01.31.01.47.01.79 0 1.5-.1 2.1-.28.1.93.06 2.22-.03 3.46h.74l-.13 4H82.5v-4h.445s-.7-2.98-.437-5.46c.482.16 1.046.31 1.66.44l-1.58-41.88c-.783.04-1.487.13-2.097.27l-.02.01c-.24.06-.46.12-.67.18l-.09.03c-.18.06-.36.12-.52.19l-.11.04c-.15.06-.29.13-.42.19-.03.02-.07.04-.11.05-.11.06-.21.11-.31.16l-.02.02-2 40.78c.71-.13 1.36-.31 1.9-.48.27 2.48-.44 5.47-.44 5.47h.83v4h-38v-4h1.03l-.01-1.09c2.97-1.72 6.66-.91 10.26-3.91h-.03c3.91-3 9.48-5.38 9.48-5.38.68-.46 1.06-1.41 1.28-2.02.85.16 1.76.65 2.73 1.67l1.91-33.99c-.59-.27-1.17-.6-1.71-1.03l-.07-.07c-.28-.24-.56-.49-.82-.78-.22-.25-.45-.47-.67-.67l-.1-.1c-.21-.18-.42-.34-.63-.48l-.15-.1c-.2-.13-.41-.25-.61-.35l-.15-.07c-.2-.09-.41-.17-.61-.23l-.12-.03c-.18-.05-.36-.08-.53-.11l-.14-.02c-.19-.02-.38-.03-.56-.04h-.18c-.18 0-.35.01-.52.03l-.17.02c-.17.03-.34.06-.5.09l-.13.04c-.15.04-.29.08-.44.13l-.1.03c-.16.06-.32.12-.47.18-.04.02-.07.03-.11.05-.15.07-.3.14-.44.22l-.08.04c-.15.08-.29.16-.43.24h-.01c-.59.36-1.03.72-1.27.93l.01-.01c-.13.11-.2.19-.2.19l10.13-23.57-.28-.17c-.7-.39-1.52-1.07-2.46-1.75-.93-.74-1.97-1.64-3.02-2.78s-2.11-2.53-3-4.2c-.88-1.68-1.6-3.62-1.88-5.69-.31-2.06-.27-4.2.1-6.18.32-2.02.98-3.88 1.71-5.63 1.53-3.47 3.51-6.44 5.53-8.98 2.02-2.54 4.07-4.69 5.88-6.45 1.82-1.75 3.4-3.11 4.54-4.06l.56-.44.1-.49h.51c.45-.36.7-.55.7-.55l.44.55h3.81v-5.04c-6.3-.52-14.03-2.62-16.98-10.2.64 9.63 1.65 17.27 1.65 17.27l-3.31-5.84-.71-18.49c-3.14-.08-7.24-1.18-7.24-8.2 0-2.46.76-4.65 1.96-6.16l-.43-.71h-.14l.07-.1-.33-.54s6.05-27.9 25.94-27.9c.22 0 .43.01.65.01l1.25-4.1c-.57-2.03-2.34-9.61 2.88-10.79.76-.17 1.76-.28 2.88-.28m89.6 90.5c.44-1.34.82-2.84 1.12-4.47h-3.57c-.09.68-.23 1.47-.43 2.29.91.72 1.88 1.46 2.89 2.18m-37.58-1.15c.37-.31.74-.61 1.1-.9-.27-.87-.47-1.7-.61-2.42h-1.43c.28 1.18.59 2.29.94 3.32m48.18 5.92c.7 0 1.14-.18 1.49-.34.4-.14.73-.61 1.14-1.11.38-.59.72-1.36 1.02-2.13.21-.79.46-1.46.59-2.19-.81-.41-1.61-.95-2.32-1.66-.04 0-.08.01-.12.01h-.01l-.05-.06c-2.83 2.5-6.71 3.85-9.55 4.55 1.48.9 3 1.69 4.47 2.23 1.14.44 2.21.64 3.07.72.1.01.19.01.28.01m-87.8 24.71h.12l.6 1.88s-.93-.23-1.8-.23c-.5 0-.98.08-1.24.31-.1.09-.2.16-.32.23v1.81H95.1l10.15 27.14-.147-.07c-.007 0-.01 0-.015-.01-.416-.19-1.6-.66-2.88-.66-.087 0-.173 0-.26.01h-.027c-.13.01-.27.02-.41.04l-.07.01c-.12.02-.24.04-.36.08-.03.01-.06.01-.1.02-.11.03-.22.07-.33.12-.03.01-.07.02-.1.04-.11.05-.22.11-.33.17l-.09.05c-.14.09-.27.18-.4.3-1.27 1.1-2.39 1.94-4.72 1.94-.39 0-.82-.02-1.3-.08l1.55 34.31c1.03-1.14 2-1.68 2.9-1.85.22.61.61 1.56 1.28 2.02 0 0 5.57 2.38 9.48 5.38h-.03c3.61 3 7.31 2.19 10.27 3.91l-.01 1.08h1.16c2.93-1.42 6.42-2 9.84-2h-.03c4.07-3 9.85-6.88 9.85-6.88.71-.46 1.11-2.91 1.33-3.52.78.14 1.61.54 2.49 1.33l1.11-53.64-3.8-1.39 1.07-2.94.21.06-.25-7.36c-.16-.02-.33-.03-.5-.03-.87 0-1.83.24-1.83.24l.59-1.88h.12l3.83-21.68c-.8.7-1.61 1.5-2.44 2.26-2.19 2.13-4.48 4.45-6.53 6.97-1.05 1.23-2.06 2.5-2.97 3.8-.97 1.26-1.81 2.57-2.61 3.84-.85 1.25-1.53 2.52-2.17 3.73-.16.28-.3.56-.45.84 1.04 1.14 2.03 2.73 3.21 4.17 1.13 1.38 1.31 2.45 1.14 3.24 2.07 1.98 3.5 3.87 3.12 5.02 0 0-3.58 11.59-8.43 11.59-.31 0-.63-.05-.95-.15-1.94-.62-3.02-1.24-3.62-1.79-.59.54-1.67 1.17-3.62 1.78-.32.11-.64.15-.95.15-4.86 0-8.44-11.59-8.44-11.59-.34-1.05.8-2.69 2.55-4.46l-2.82-6.61c-1-2.14-2.16-4.64-3.41-7.3-1.36-2.59-2.73-5.42-4.31-8.05-.75-1.36-1.55-2.66-2.37-3.9-.79-1.28-1.62-2.48-2.46-3.58-.2-.3-.41-.63-.62-.9l4.07 22.58M66.4 151l3.28-16.38c-1.57 2.15-2.99 4.51-3.91 6.89-.91 2.37-1.22 4.636-.84 6.327.15.87.5 1.63.9 2.34.17.28.37.55.57.81M86.7 31.35c-1.435 0-2.81.14-3.984.404-2.59.585-4.65 2.065-5.97 4.28-1.98 3.33-1.74 7.543-1.14 10.62-20.94 2.73-27.19 30.4-27.46 31.636-.17.753-.15 1.526.03 2.26-.837 1.91-1.28 4.068-1.28 6.316 0 6.214 2.69 10.57 7.39 12.333l.55 14.54c.03.8.253 1.58.647 2.27l3.31 5.84c.322.57.742 1.05 1.23 1.44-.695.79-1.36 1.59-2 2.39-2.635 3.3-4.66 6.6-6.19 10.07l-.044.1c-.72 1.72-1.59 4.03-2.01 6.69-.47 2.52-.51 5.19-.12 7.75.34 2.45 1.15 4.91 2.41 7.29 1 1.89 2.26 3.66 3.75 5.26.96 1.04 2.02 2.04 3.24 3.03l-8.54 19.86c-.96 2.23-.23 4.89 1.8 6.22.86.56 1.82.84 2.78.84 1.29 0 2.55-.51 3.51-1.5l.03-.03c.05-.05.25-.23.54-.4l.02-.02.15-.09.06-.04.14-.06.05-.02c.03-.02.07-.03.11-.05.04-.01.07-.02.11-.04l.09-.02.03-.01.07-.01h.08l.05.02h.01l.08.05.18.13.07.06c.12.11.21.2.28.27.35.4.74.77 1.18 1.15l-1.41 25.1c-1.17.49-2.15 1.42-2.67 2.65-2.06.96-6.06 2.97-9.21 5.4-.14.1-.26.21-.38.32-1.03.76-2.12 1.01-3.85 1.37-1.67.35-3.56.74-5.48 1.86-.65.37-1.19.88-1.6 1.47-1.17.92-1.91 2.34-1.91 3.93v4c0 2.77 2.24 5 5 5h38c.71 0 1.39-.14 2-.41.61.26 1.29.41 2 .41H158c.558 0 1.09-.09 1.59-.26.504.17 1.038.26 1.59.26h39.31c2.764 0 5-2.24 5-5v-4c0-2.76-2.236-5-5-5h-.246c-2.7-1.12-5.827-1.78-9.18-1.95-2.83-2.05-6.034-4.24-7.67-5.35-.055-.2-.104-.4-.138-.54-.118-.47-.218-.87-.36-1.27-.7-1.93-2.48-3.19-4.455-3.29l-3.6-44.14c2.34-1.06 3.52-3.73 2.66-6.2l-.74-2.14.03-.92c2.13-1.06 3.24-3.5 2.58-5.84l-.78-2.74c-.05-.17-.1-.34-.17-.5l-2.07-10.48c.5.24 1.01.47 1.54.7 2.44 1.02 4.89 1.66 7.3 1.94.66.07 1.33.11 2.01.11 2.65 0 5.27-.56 7.59-1.61 3.46-1.5 5.71-3.98 7.1-5.72l.15-.19c1.54-2.13 2.41-4.18 2.98-5.53.05-.11.09-.21.12-.32.1-.3.21-.59.32-.87.07-.19.15-.38.22-.57 2.78-1.29 4.58-3.38 5.45-5.22.24-.37.45-.74.65-1.1.84-1.5 1.3-3.28 1.52-4.28.29-.69.52-1.36.69-2.03l5.12-6.84c2.32-3.13 1.68-7.55-1.43-9.86-.4-.3-.82-.55-1.26-.76.02-.94-.13-1.88-.46-2.78-.69-1.9-2.08-3.41-3.92-4.26-.48-.23-.99-.4-1.5-.52-.76-1.24-1.88-2.28-3.29-2.95-1.07-.51-2.2-.77-3.38-.77-1.3 0-2.56.33-3.67.92-1.05-1.41-2.58-2.46-4.39-2.89C191.1 62.7 179.13 48 162.5 48c-1.34 0-2.715.097-4.1.286h-1.57c-1.39-.19-2.76-.29-4.1-.29h-.01c-8.92 0-16.72 4.286-22.57 12.39-13.15 18.24-14.11 52.7-11.5 60.54 1.26 3.77 4.017 6.86 8.01 9.076-1.11 1.17-2.24 2.42-3.33 3.72-1.37 1.58-2.56 3.07-3.64 4.57-.68.88-1.31 1.77-1.9 2.64-1.164-2.202-2.366-4.48-3.775-6.78-.835-1.472-1.786-2.99-2.823-4.52-.91-1.43-1.94-2.885-3.07-4.33-.67-.943-1.4-1.82-2.1-2.632.24-.267.46-.56.64-.888l3.31-5.85c.4-.69.62-1.48.65-2.27l.57-14.77c4.36-1.89 6.85-6.17 6.85-12.12 0-2.19-.43-4.31-1.23-6.19.22-.8.238-1.64.047-2.46-.12-.53-2.91-12.16-10.37-21.13 1.25-7.71 0-13.95-3.71-18.59-5.18-6.41-12.99-7.11-16.1-7.11zm10.556 83.616c.19-.082.38-.164.57-.25-.02.197-.04.387-.07.57l-.08-.052-.43-.268zm-29.5.703c-.03-.25-.06-.52-.09-.79.22.09.45.19.68.28-.2.17-.4.33-.6.51zm65.27 40c.25-.44.52-.87.8-1.29l.11-.17c.7-1.14 1.47-2.33 2.32-3.43l.07-.11-.67 3.78c-.06.14-.11.28-.15.42l-.59 1.88c-.12.37-.19.74-.218 1.12-.17-.25-.36-.5-.568-.75-.376-.46-.74-.96-1.125-1.48zm-31.62 7.35c.8-.26 1.53-.72 2.13-1.36.25-.28.47-.58.66-.9.39.9.74 1.73 1.05 2.46-1.02 1.45-1.9 3.29-1.79 5.3L101.39 163zm24.7 22.15c6.51 0 10.44-7.53 12.35-12.61.26.15.54.29.84.4l.44.16-.92 44.45c-1.03.56-1.87 1.48-2.3 2.65-.15.41-.26.83-.38 1.31-.033.13-.08.32-.133.52-1.656 1.12-4.85 3.31-7.67 5.34-2.59.13-5.045.56-7.27 1.26-1.74-.9-3.44-1.26-4.954-1.57-1.73-.36-2.82-.61-3.84-1.37-.12-.12-.25-.23-.39-.33-3.16-2.42-7.15-4.44-9.21-5.4-.54-1.27-1.56-2.22-2.78-2.69l-1.05-23.35c1.49-.53 2.63-1.33 3.61-2.14.17.04.36.1.52.17.7.35 1.46.52 2.22.52 1.21 0 2.4-.44 3.34-1.28 1.52-1.38 2.05-3.55 1.33-5.47l-3.2-8.55c2.23 4.07 5.57 7.95 10.25 7.95.83 0 1.65-.13 2.46-.38.77-.25 1.47-.51 2.12-.78.64.27 1.35.53 2.12.78.8.25 1.62.38 2.45.38z" fill="#333"/><path fill="#fdb" d="M168.74 159.41l5.918 72.49-11.266.9-5.4-72.53zm-12.93.652l-.958 71.604-11.3-.187 1.478-71.61z"/><path fill="#29ABE2" d="M173.88 225.534c.323-.493.64-.925.957-1.302 1.2-1.426 2.342-2.07 3.37-2.256.224.614.627 3.06 1.33 3.522 0 0 5.79 3.882 9.85 6.882h-.036c3.75 0 7.59.685 10.67 2.417l-.02 2.5-36.55.87s-1.05.213-.95.213h-.02s-.72-4.985-.45-7.466c2.88.874 8.41-.086 11.88-5.38z"/><path fill="#C7B299" d="M161.2 238.38h39.42v-4h-39.81z"/><path fill="#fff" d="M175.397 223.975s6.575 4.385 4.05 5.454c-2.533 1.07-7.994-.98-7.994-.98s1.717-4.19 3.944-4.48z"/><path fill="#29ABE2" d="M145.56 225.534c-.326-.493-.642-.925-.958-1.302-1.198-1.426-2.338-2.07-3.368-2.256-.227.614-.628 3.06-1.33 3.522 0 0-5.788 3.882-9.85 6.882h.035c-3.75 0-7.59.685-10.67 2.417l.03 2.5 36.55.87s1.05.213.95.213h.01s.72-4.985.45-7.466c-2.88.874-8.41-.086-11.88-5.38z"/><path fill="#C7B299" d="M158.02 238.38h-39.4v-4h39.53z"/><path fill="#fff" d="M144.042 223.975s-6.572 4.385-4.045 5.454c2.53 1.07 7.99-.98 7.99-.98s-1.72-4.19-3.945-4.48z"/><path fill="#0071BC" d="M157.023 154.38H141.92l.47 13.38 13.83 4.543.803-2.207.803 2.112 13.83-4.434.47-13.393z"/><path fill="#1A1A1A" d="M81.09 47.928s-3.307-9.93 2.728-11.294c6.04-1.36 26.485 1.167 14.412 30.964"/><path fill="#ED1E79" d="M79.34 52.407l1.75-5.45s5.455-4.48 9.74 2.532l-1.363 6.42"/><path fill="#1A1A1A" d="M69.15 56.238l-.518 9.347 32.718 3.637-11.686-15.837s-15.06-3.896-20.514 2.853z"/><path fill="#fdb" d="M122.2 155.368s-14.804 9.79-13.67 13.225c0 0 4.05 13.13 9.386 11.443 5.334-1.685 4.218-3.455 4.218-3.455s4.565-2.4 5.803-3.56c.98-.92 2.84-3.09 3.097-4.41.174-.85-.768-3.4-.768-3.4s2.737-1.57.022-4.89c-2.72-3.31-4.46-7.49-8.088-4.95zm-1.323 0s14.802 9.79 13.67 13.225c0 0-4.053 13.13-9.384 11.443-5.333-1.685-4.22-3.455-4.22-3.455s-4.562-2.4-5.805-3.56c-.98-.92-2.838-3.09-3.096-4.41-.172-.85.768-3.4.768-3.4s-2.735-1.57-.02-4.89c2.717-3.31 4.46-7.49 8.087-4.95z"/><path fill="#FBB03B" d="M130.947 76.196l1.945 46.185h49.08l1.36-31.38-7.01-26.29z"/><path fill="#fdb" d="M154.742 127.016s-.17.104-.488.29c-.304.194-.74.474-1.303.827-1.16.76-2.83 1.908-4.77 3.41-1.95 1.47-4.11 3.356-6.37 5.423-2.19 2.13-4.48 4.452-6.53 6.966-1.05 1.23-2.05 2.5-2.96 3.8-.97 1.26-1.81 2.57-2.6 3.847-.85 1.24-1.53 2.52-2.17 3.73-.68 1.19-1.28 2.34-1.73 3.44-.48 1.09-.92 2.09-1.31 2.97-.31.91-.59 1.7-.82 2.36l-.72 2.04-10.45-3.24.88-2.44c.28-.78.62-1.72 1.02-2.8.44-1.06 1-2.23 1.59-3.51.56-1.3 1.27-2.65 2.08-4.04.77-1.41 1.6-2.89 2.59-4.33.94-1.48 1.93-2.98 3.06-4.41 1.07-1.49 2.23-2.93 3.44-4.32 2.37-2.84 4.98-5.44 7.48-7.81 2.56-2.31 5-4.39 7.22-6.02 2.19-1.67 4.11-2.96 5.5-3.84l1.69-1.04.58-.34 5.14 9zm10.706-9.646s.507.513 1.386 1.414c.916.91 2.256 2.198 3.924 3.66 1.67 1.462 3.663 3.1 5.858 4.638 2.192 1.515 4.625 2.97 6.918 3.816 1.144.435 2.21.642 3.08.716.872.054 1.374-.144 1.77-.333.4-.14.724-.61 1.138-1.11.38-.59.72-1.36 1.017-2.13.22-.86.51-1.59.62-2.4.14-.76.29-1.42.34-2.03l.21-1.85 10.88 1.14-.38 2.4c-.09.75-.33 1.71-.59 2.8-.21 1.07-.69 2.36-1.16 3.73-.6 1.4-1.33 2.94-2.49 4.54-1.25 1.56-2.89 3.28-5.22 4.27-2.25 1.03-4.83 1.35-7.01 1.11-2.18-.24-4.16-.82-5.91-1.56-3.51-1.48-6.36-3.42-8.91-5.32-2.52-1.92-4.67-3.84-6.46-5.53-1.79-1.69-3.2-3.16-4.19-4.22-.98-1.09-1.55-1.71-1.55-1.71l6.69-6z"/><path fill="#FFEDDC" d="M173.792 157.097l-33.494.128 7.01-39.844h18.696zM151.49 129.38h10.325c1.047 0 .804-.46.804-1.508v-10.49h-12v10.49c0 1.048-.18 1.51.87 1.51z"/><path fill="#F4D1B0" d="M160.62 118.038c0 2.58-1.3 3.634-3.497 3.634-2.2 0-3.504-1.055-3.504-3.634v-9.35c0-2.58 1.3-4.675 3.5-4.675s3.49 2.094 3.49 4.675v9.35z"/><path fill="#D3BD8D" d="M176.303 86.866c0 4.535.656 8.21 3.838 8.21s7.68-.854 7.68-8.21c0-4.538-2.57-8.21-5.75-8.21s-5.76 3.672-5.76 8.21z"/><path fill="#C69C6D" d="M177.257 86.834c.015-1.27.274-2.72.898-3.95.315-.624.712-1.235 1.278-1.763.563-.51 1.363-.95 2.292-.96.354.03.28.01.615.07.266.06.494.14.67.23.393.18.71.42 1.003.67.57.53.68 1.14.992 1.77.627 1.26.613 2.62.613 3.98v.16c0 .89-.41 1.62-1.307 1.64-.89.01-1.47-.7-1.48-1.59 0-.06.08-.13.09-.19.1-.9.06-1.87-.23-2.7-.27-.85-.8-1.39-.96-1.45-.09-.05-.34-.04-.66.18-.31.22 1.11.57.84.99-.54.87.74 1.84.74 3.01v.05c0 .52-2.25.9-2.78.85-.49-.05-2.58-.47-2.58-.95z"/><path fill="#D3BD8D" d="M138.218 86.866c0 4.535-.658 8.21-3.837 8.21-3.18 0-7.67-.854-7.67-8.21 0-4.538 2.58-8.21 5.76-8.21 3.18 0 5.76 3.672 5.76 8.21z"/><path fill="#C69C6D" d="M137.263 86.834c-.016-1.27-.277-2.72-.898-3.95-.315-.624-.714-1.235-1.28-1.763-.56-.51-1.358-.95-2.292-.96-.347.03-.278.01-.606.07-.27.06-.5.14-.673.23-.396.18-.715.42-1.007.67-.563.53-.822 1.14-1.137 1.77-.623 1.26-.75 2.62-.75 3.98v.16c0 .89.553 1.62 1.443 1.64.893.01 1.555-.7 1.56-1.59 0-.06-.04-.13-.05-.19-.094-.9-.04-1.87.253-2.7.27-.85.82-1.39.976-1.45.094-.05.35-.04.67.18.313.22.63.57.896.99.548.87.873 1.84.994 3.01l.004.05c.057.52.52.9 1.043.85.49-.05.85-.47.85-.95z"/><path fill="#fdb" d="M179.916 94.973c0 16.135-15.5 17.528-22.416 17.528-7.872 0-22.418-1.39-22.418-17.52s-1.67-36.85 22.418-36.85c24.324 0 22.416 20.72 22.416 36.85z"/><path fill="#333" d="M155.032 101.98c-.66 0-1.273-.422-1.485-1.086-.26-.817.19-1.696 1.014-1.958 1.66-.524 2.1-1.252 2.1-1.563V85.32c0-.86 1.12-1.558 1.99-1.558.86 0 1.98.7 1.98 1.558v11.92-.003s-.04 3.192-4.69 4.67c-.15.047-.74.072-.89.072z"/><path fill="#F48B73" d="M160.125 106.778c0 2.02-1.64 3.656-3.657 3.656-2.02 0-3.66-1.638-3.66-3.656 0-2.023 1.64-3.658 3.66-3.658 2.018 0 3.657 1.635 3.657 3.658z"/><path fill="#F5F5F5" d="M153.354 86.84c0 3.687-2.99 6.676-6.678 6.676-3.685 0-6.672-2.99-6.672-6.675 0-3.68 2.987-6.67 6.672-6.67 3.69 0 6.678 2.99 6.678 6.67z"/><path fill="#0071BC" d="M151.372 86.683c0 2.558-2.07 4.63-4.636 4.63-2.556 0-4.633-2.072-4.633-4.63 0-2.562 2.077-4.63 4.633-4.63 2.567 0 4.636 2.068 4.636 4.63z"/><path fill="#F5F5F5" d="M176.245 86.84c0 3.687-2.985 6.676-6.67 6.676-3.693 0-6.68-2.99-6.68-6.675 0-3.68 2.986-6.67 6.68-6.67 3.685 0 6.67 2.99 6.67 6.67z"/><path fill="#0071BC" d="M174.265 86.683c0 2.558-2.07 4.63-4.63 4.63s-4.633-2.072-4.633-4.63c0-2.562 2.073-4.63 4.633-4.63s4.63 2.068 4.63 4.63z"/><path fill="#FCEE21" d="M135.477 79.432s-1.9 36.58 4.455 49.304c0 0-13.674-.708-16.537-9.29-2.86-8.585-.633-71.064 33.068-66.064h2.282c33.703-5 35.932 57.48 33.072 66.063-2.863 8.583-16.54 9.93-16.54 9.93 6.36-12.722 2.177-52.243 2.177-52.243L163.78 59.586l-13.357.54-14.946 19.306z"/><path fill="#333" d="M156.665 107.348c-4.534 0-8.084-2.344-8.084-5.337 0-.64.53-1.17 1.17-1.17.65 0 1.17.53 1.17 1.17 0 1.42 2.36 3.01 5.75 3.01s5.75-1.58 5.75-3c0-.64.53-1.17 1.17-1.17.65 0 1.17.53 1.17 1.17 0 3-3.55 5.34-8.08 5.34z"/><path fill="#FCEE21" d="M156.783 62.666S143.15 84.15 128.09 83.114l15.975-22.122 13.43-3.066-.712 4.74zm.837-.322s12.624 23.238 27.687 22.2l-14.172-23.55-13.516-2.87v4.22z"/><path fill="#005D91" d="M142.62 157.38h29v3h-29z"/><path fill="#FFEDDC" d="M140.298 156.55l-.586 1.797s2.27-.646 2.983 0c.716.648 2.145.91 3.77 0 1.62-.91 4.866-.905 6.486.134 1.63 1.04 6.24-.19 6.24-.19s3.7-1.17 6.56.71c2.86 1.89 7.01-.9 7.01-.9s1.04-.58 1.82 1.17l-.77-2.61-33.49-.09z"/><path fill="#fdb" d="M209.057 115.156s.938 1.605-.553 4.713c0 0-.315 2.02-1.055 3.35l-.71 1.25s-2.82 6.19-11.69 2.63c0 0-8.43-.96-8.35-8.24l5.48-9.63 16.87 5.91zm-17.5 6.17s-.39 2.92-2.883 2.862c0 0-4.622-5.07-2.13-8.264"/><path fill="#fdb" d="M199.435 115.156c1.106-2.605 2.277-5.174 3.415-7.755 1.188-2.56 2.334-5.14 3.557-7.69.675-1.41.074-3.11-1.337-3.79-1.416-.67-3.118-.08-3.79 1.34-.043.09-.073.17-.105.25-.975 2.65-2.017 5.28-3.025 7.92-1.057 2.62-2.077 5.25-3.17 7.86-.516 1.23.066 2.65 1.295 3.17 1.228.52 2.643-.06 3.16-1.28zm-5.12-1.106l2.374-17.52c.19-1.484-.87-2.853-2.36-3.057-1.49-.194-2.98.833-3.09 2.328 0 .03-.01.07-.01.1l-1.76 17.59c-.14 1.33.85 2.52 2.18 2.65 1.3.14 2.47-.79 2.64-2.07zm3.538-5.045s-2.893 2.292-3.897-.863l.52 5.162 3.377-4.3zm6.235 8.275c1.23-2.392 2.396-4.812 3.59-7.21 1.16-2.422 2.353-4.834 3.485-7.268.593-1.28.035-2.8-1.244-3.39-1.27-.588-2.76-.056-3.38 1.186-1.18 2.41-2.31 4.85-3.46 7.27-1.13 2.442-2.28 4.87-3.36 7.324-.54 1.223.01 2.648 1.23 3.188 1.17.524 2.55.028 3.13-1.1zm1.702 4.708l9.302-12.463c.673-.906.487-2.185-.414-2.857-.876-.655-2.11-.5-2.803.337l-9.89 12.002c-.847 1.028-.706 2.555.33 3.4 1.033.855 2.55.706 3.405-.323.025-.027.05-.066.07-.096z"/><path fill="#E2AB74" d="M191.68 116.584"/><path fill="#fdb" d="M191.457 117.652c-.45-1.133-.91-2.055-1.446-3.035-.53-.962-1.12-1.904-1.78-2.806-1.33-1.8-2.96-3.54-5.16-4.79-1.22-.69-3.05.23-3.75 1.45-.69 1.23-.54 3.29.68 3.97.02.01.05.03.07.03 1.3.73 2.84 1.42 3.92 2.83.54.7 1.18 1.22 1.63 2 .45.77.97 1.53 1.27 2.26l.08.02c.52 1.23 1.97 1.79 3.2 1.27 1.23-.51 1.83-1.94 1.34-3.17z"/><path fill="#fff" d="M181.405 111.848s.338-1.054 1.082-1.19c0 0-.755-1.3-1.688-1.13-.93.17-1.02 1.026-1.02 1.026s.5.817 1.61 1.294z"/><path fill="#FBB03B" d="M163.922 74.635c-.085.017 1.037-.254 2.374-.3.685.02 1.477-.025 2.3.095.83.057 1.7.2 2.547.403.858.14 1.68.412 2.445.66.77.218 1.474.475 2.05.75 1.163.495 1.937.832 1.937.832l-2.07-.366c-.604-.13-1.33-.22-2.104-.25-.77-.06-1.59-.14-2.4-.08-.81 0-1.61.05-2.35.18-.74.06-1.4.26-1.97.38-1.14.33-1.61.59-1.69.63-.81.29-1.7-.14-1.99-.95-.29-.82.13-1.7.94-1.99zm-13.07 2.725c-.058-.01-.765-.283-2.097-.565-1.313-.25-3.123-.522-4.96-.515-.922-.025-1.853-.018-2.712.087-.866.075-1.693.116-2.375.275-1.39.257-2.314.43-2.314.43l2.19-.9c.654-.303 1.458-.515 2.32-.775.857-.29 1.798-.495 2.75-.67 1.9-.405 3.864-.522 5.355-.548 1.47-.01 2.6.15 2.54.14.84.19 1.36 1.03 1.17 1.86-.2.84-1.03 1.36-1.87 1.17z"/><path fill="#fdb" d="M85.362 117.65s.067-.02.19-.064c.324-.11 1.093-.307 1.605-.343.946-.1 2.172-.05 3.382.253 1.24.287 2.46.807 3.7 1.48l1.8 1.13 1.7 1.343c1.13.95 2.23 2.03 3.29 3.19 1.02 1.17 2.14 2.4 3.08 3.73 1.02 1.3 2 2.67 2.89 4.09.95 1.4 1.86 2.85 2.69 4.31 1.77 2.89 3.26 5.86 4.74 8.63 1.36 2.79 2.63 5.4 3.68 7.65l3.32 7.53-10.1 4.2s-1.24-2.91-3.11-7.28c-1-2.14-2.16-4.63-3.41-7.3-1.36-2.59-2.73-5.42-4.31-8.05-.75-1.36-1.55-2.65-2.38-3.89-.79-1.28-1.62-2.46-2.45-3.55-.8-1.16-1.66-2.1-2.44-3.04-.79-.89-1.58-1.66-2.28-2.27l-1.01-.84-.85-.54c-.49-.27-.86-.42-1-.46-.16-.05-.06-.01.13-.05.13-.01.62-.12.75-.2.01-.01-.11.03-.09.02l-3.57-9.73zm-5.59 6.27s-.54.467-1.49 1.283c-.957.855-2.32 2.13-3.86 3.73-3.027 3.172-6.91 7.854-8.76 12.653-.908 2.372-1.22 4.634-.84 6.325.15.88.496 1.63.9 2.35.422.71.953 1.36 1.54 1.93.574.59 1.21 1.1 1.8 1.53.65.41 1.126.82 1.66 1.07.995.56 1.565.87 1.565.87l-5.092 9.69L65 164.02c-.695-.39-1.515-1.064-2.458-1.746-.93-.736-1.97-1.637-3.018-2.777-1.05-1.134-2.11-2.53-2.998-4.2-.88-1.673-1.602-3.62-1.887-5.69-.32-2.052-.28-4.194.1-6.176.31-2.02.97-3.87 1.7-5.63 1.52-3.46 3.5-6.44 5.52-8.97 2.02-2.54 4.06-4.69 5.88-6.45 1.81-1.75 3.39-3.12 4.54-4.06 1.18-.95 1.86-1.49 1.86-1.49l5.52 7.1zm-.158 36.187l-3.523 71.938-11.28-.553 4.04-71.916zm12.72-.365l3.234 71.79-11.296.473-2.71-71.807z"/><path fill="#FF9FCD" d="M65.083 157.097l34.186.128-7.16-40.844H73.04z"/><path fill="#F4D1B0" d="M85.62 118.038c0 2.58-1.303 2.403-3.5 2.403-2.203 0-3.5.18-3.5-2.4v-9.35c0-2.58 1.297-4.67 3.5-4.67 2.197 0 3.5 2.1 3.5 4.68v9.35zm15.902-31.172c0 4.535.658 8.21 3.838 8.21 3.184 0 7.678-.854 7.678-8.21 0-4.538-2.576-8.21-5.755-8.21-3.182 0-5.76 3.672-5.76 8.21z"/><path fill="#C69C6D" d="M102.476 86.834c.015-1.27.275-2.72.898-3.95.313-.624.714-1.235 1.278-1.763.565-.51 1.365-.95 2.292-.96.353.03.28.01.615.07.26.06.49.14.66.23.39.18.71.42 1 .67.57.53.57 1.14.88 1.77.62 1.26.5 2.62.5 3.98v.16c0 .89-.31 1.62-1.2 1.64-.9.01-1.43-.7-1.44-1.59 0-.06.1-.13.11-.19.1-.9.07-1.87-.22-2.7-.27-.85-.8-1.39-.96-1.45-.1-.05-.34-.04-.66.18-.31.22 0 .57-.27.99-.55.87-.37 1.84-.37 3.01v.05c0 .52-1.15.9-1.67.85-.49-.05-1.48-.47-1.48-.95z"/><path fill="#F4D1B0" d="M63.438 86.866c0 4.535-.66 8.21-3.84 8.21s-7.68-.854-7.68-8.21c0-4.538 2.58-8.21 5.76-8.21 3.18 0 5.76 3.672 5.76 8.21z"/><path fill="#C69C6D" d="M62.484 86.834c-.016-1.27-.277-2.72-.898-3.95-.317-.624-.717-1.235-1.28-1.763-.56-.51-1.36-.95-2.292-.96-.35.03-.28.01-.608.07-.268.06-.5.14-.673.23-.396.18-.713.42-1.008.67-.565.53-.93 1.14-1.25 1.77-.618 1.26-.855 2.62-.855 3.98v.16c0 .89.66 1.62 1.552 1.64.895.01 1.608-.7 1.617-1.59 0-.06-.02-.13-.02-.19-.11-.9-.04-1.87.26-2.7.27-.85.83-1.39.98-1.45.09-.05.36-.04.67.18.31.22.63.57.89.99.54.87.87 1.84.99 3.01v.05c.05.52.52.9 1.04.85.49-.05.85-.47.85-.95z"/><path fill="#fdb" d="M105.135 94.973c0 16.135-15.5 17.528-22.418 17.528-7.87 0-22.418-1.39-22.418-17.52s-1.67-36.85 22.41-36.85c24.33 0 22.42 20.72 22.42 36.85z"/><path fill="#333" d="M80.25 101.98c-.66 0-1.27-.422-1.483-1.086-.263-.817.19-1.696 1.01-1.958 1.655-.524 2.1-1.252 2.105-1.563l-.012-12.055c0-.86 1.01-1.558 1.874-1.558s1.876.7 1.876 1.558v11.92-.003s.062 3.192-4.583 4.67c-.155.05-.63.074-.787.074z"/><path fill="#F48B73" d="M85.344 106.778c0 2.02-1.638 3.656-3.657 3.656-2.02 0-3.658-1.638-3.658-3.656 0-2.023 1.64-3.658 3.65-3.658 2.02 0 3.65 1.635 3.65 3.658z"/><path fill="#F5F5F5" d="M78.57 86.84c0 3.687-2.988 6.676-6.672 6.676-3.688 0-6.676-2.99-6.676-6.675 0-3.68 2.987-6.67 6.676-6.67 3.684 0 6.67 2.99 6.67 6.67z"/><path fill="#333" d="M76.59 86.683c0 2.558-2.07 4.63-4.634 4.63-2.56 0-4.633-2.072-4.633-4.63 0-2.562 2.074-4.63 4.633-4.63 2.564 0 4.635 2.068 4.635 4.63z"/><circle fill="#F5F5F5" cx="94.791" cy="86.841" r="6.674"/><path fill="#333" d="M99.486 86.683c0 2.558-2.07 4.63-4.633 4.63-2.558 0-4.635-2.072-4.635-4.63 0-2.562 2.077-4.63 4.635-4.63 2.562 0 4.633 2.068 4.633 4.63zm-17.602 20.665c-4.534 0-8.086-2.344-8.086-5.337 0-.64.524-1.17 1.168-1.17.646 0 1.17.53 1.17 1.17 0 1.42 2.36 3.01 5.748 3.01 3.39 0 5.745-1.58 5.745-3 0-.64.52-1.17 1.16-1.17.64 0 1.16.53 1.16 1.17 0 3-3.55 5.34-8.08 5.34z"/><path fill="#1A1A1A" d="M82.002 59.55S68.37 81.032 53.31 79.996l15.974-22.122 13.432-3.063-.714 4.74zm.618-.32s12.73 23.236 27.795 22.196L96.19 57.876 82.62 55.01v4.22z"/><path fill="#ED1E79" d="M88.042 134.393c0 .592.49 1.072 1.093 1.072s1.095-.48 1.095-1.072c0-.59-.492-1.07-1.095-1.07-.602 0-1.093.48-1.093 1.07zm0 12.462c0 .593.49 1.074 1.093 1.074s1.095-.49 1.095-1.08c0-.59-.492-1.07-1.095-1.07-.602 0-1.093.48-1.093 1.07zm-12.718-12.462c0 .592.492 1.072 1.093 1.072.604 0 1.09-.48 1.09-1.072 0-.59-.486-1.07-1.09-1.07-.6 0-1.093.48-1.093 1.07zm0 12.462c0 .593.492 1.074 1.093 1.074.604 0 1.09-.49 1.09-1.08 0-.59-.486-1.07-1.09-1.07-.6 0-1.093.48-1.093 1.07zm19.682 10.65l11.226 30.02s-3.406-1.73-5.54.126c-2.13 1.86-3.835 2.97-11.51.62-7.67-2.35-11.08 1.12-11.08 1.12s-8.098 3.34-12.572-1.6c-4.48-4.94-9.38-.02-9.38-.02l13.107-30.48"/><path fill="#9E005D" d="M66.62 157.38h31v3h-31zm34.073 30.27c-.04.035-.08.067-.12.1-2.3-6.31-6.102-17.165-5.735-19.078.53-2.725 2.787-2.076 5.167 4.674 1.307 3.694 3.96 9.556 6.09 14.115-.623-.28-3.512-1.46-5.402.19zm-44.345-.077c2.173-3.93 11.692-20.848 13.453-19.81 1.58.923-2.01 13.263-3.36 20.864-.31-.255-.62-.534-.9-.853-3.95-4.375-8.24-1.032-9.18-.2zm27.097-17.863c4.188.492 5.984 10.967 6.817 18.857-.368-.105-.685-.178-1.08-.3-6.534-2.002-9.954.204-10.83.906-.093-7.498.435-20.012 5.093-19.464z"/><path fill="#333" d="M89.14 74.635c-.083.017 1.036-.254 2.376-.3.683.02 1.475-.025 2.298.095.832.057 1.7.2 2.546.403.862.14 1.683.412 2.448.66.77.218 1.47.475 2.048.75 1.163.495 1.938.832 1.938.832l-2.066-.366c-.61-.13-1.335-.22-2.112-.25-.77-.06-1.588-.14-2.404-.08-.813 0-1.617.05-2.357.18-.744.06-1.402.26-1.973.38-1.143.33-1.615.59-1.693.63-.82.29-1.7-.14-1.99-.95-.3-.82.13-1.7.94-1.99zM76.072 77.36c-.06-.01-.766-.283-2.1-.565-1.31-.25-3.12-.522-4.96-.515-.924-.025-1.85-.018-2.71.087-.866.075-1.69.116-2.373.275-1.4.257-2.32.43-2.32.43l2.19-.9c.66-.303 1.46-.515 2.31-.775.86-.29 1.8-.495 2.75-.67 1.9-.405 3.86-.522 5.35-.548 1.48-.01 2.6.15 2.55.14.84.19 1.36 1.03 1.16 1.86-.2.84-1.03 1.36-1.87 1.17z"/><path fill="#ED1E79" d="M93.948 225.534c.308-.493.616-.925.923-1.302 1.16-1.426 2.25-2.07 3.25-2.256.22.614.61 1.56 1.28 2.02 0 0 5.57 2.384 9.48 5.384h-.03c3.61 3 7.31 2.19 10.27 3.915l-.02 3.25-35.19-.75s-1.01-1.415-.92-1.415h-.01s-.7-2.985-.44-5.466c2.77.876 8.09 1.914 11.44-3.38z"/><path fill="#C7B299" d="M82.62 234.38h36v4h-36z"/><path fill="#fff" d="M95.275 223.787s6.46 4.572 4.027 5.642c-2.433 1.07-7.964-1.18-7.964-1.18s1.795-4.18 3.937-4.47z"/><path fill="#ED1E79" d="M66.683 225.534c-.31-.493-.618-.925-.922-1.302-1.15-1.426-2.25-2.07-3.24-2.256-.22.614-.6 1.56-1.28 2.02 0 0-5.57 2.384-9.48 5.384h.03c-3.61 3-7.3 2.19-10.26 3.915l.03 3.25 35.19-.75s1.02-1.415.92-1.415h.02s.7-2.985.44-5.466c-2.76.876-8.09 1.914-11.43-3.38z"/><path fill="#C7B299" d="M40.62 234.38h38v4h-38z"/><path fill="#fff" d="M65.37 223.757s-6.48 4.603-4.046 5.672c2.437 1.07 8.004-1.09 8.004-1.09s-1.82-4.29-3.96-4.59z"/><path fill="#1A1A1A" d="M61.815 77.335L60.32 91.293 53.05 79.35s6.725-31.05 29.307-27.674m19.573 25.66l2.792 13.957 7.27-11.942s-7.21-30.96-29.794-27.59m-1.25.16l.143 1.37 3.66-.05-.87-1.51s-1.85-.29-2.92.2zM58.69 82.9l1.177 30.665 3.31 5.843S58.892 87.27 62.4 71.69m44.4 11.205l-1.177 30.665-3.313 5.843s4.283-32.133.78-47.713"/><path fill="#FFEDDC" d="M147.307 117.478l-8.44 3.51s.654 9.73 6.232 11.552m20.64-15.062l8.31 3.507s-.13 9.863-5.72 11.684"/><path fill="#fff" d="M142.087 165.36l14.658 5.353-1.07 2.93-14.657-5.355zm29.68.003l1.02 2.948-14.71 5.1-1.02-2.95z"/><path fill="#FFEDDC" d="M99.27 156.55l.598 1.797s-2.316-.646-3.048 0c-.728.648-2.188.91-3.844 0s-4.97-.905-6.62.134c-1.655 1.04-6.36-.19-6.36-.19s-3.775-1.17-6.694.71c-2.914 1.89-7.15-.9-7.15-.9s-1.063-.58-1.858 1.17l.79-2.61 34.185-.09z"/></svg>