<?xml version="1.0" encoding="utf-8"?>
<!-- Generator: Adobe Illustrator 16.0.0, SVG Export Plug-In . SVG Version: 6.00 Build 0)  -->
<!DOCTYPE svg PUBLIC "-//W3C//DTD SVG 1.1//EN" "http://www.w3.org/Graphics/SVG/1.1/DTD/svg11.dtd">
<svg version="1.1" id="Layer_1" xmlns="http://www.w3.org/2000/svg" xmlns:xlink="http://www.w3.org/1999/xlink" x="0px" y="0px"
	 width="256px" height="256px" viewBox="0 0 256 256" enable-background="new 0 0 256 256" xml:space="preserve">
<path fill="#333333" d="M129.885,231.602c-18.807,0-33.515-2.845-44.964-8.696c-17.02-8.703-26.18-23.65-27.27-44.468
	c-21.16-0.793-25.66-16.104-25.66-29.004c0-11.291,4.8-21.348,12.07-26.113c-5.58-11.88-10.41-26.64-7.68-38.49
	c-0.28,0.14-0.59,0.29-0.91,0.45c-0.56,0.29-1.18,0.42-1.78,0.42c-0.96,0-1.92-0.35-2.67-1.02c-1.22-1.1-1.65-2.83-1.07-4.37
	c0.21-0.58,5.44-14.36,20.08-28.16C63.43,39.48,87.66,24.4,126.9,24.4c3.991,0,8.12,0.16,12.273,0.47
	c0.104,0.01,0.205,0.02,0.306,0.04c4.851,0.74,47.541,7.68,52.451,25.3c0.079,0.295,0.159,0.596,0.229,0.904
	c27.31,1.163,33.37,27.38,33.37,37.62c0,5-3.521,16.34-10.461,33.72c-0.039,0.27-0.1,0.54-0.189,0.81l-0.12,0.36
	c7.07,4.89,11.61,14.74,11.61,25.81c0,12.601-4.301,27.494-24.21,28.92c-1.89,34.381-27.39,53.246-72.229,53.246L129.885,231.602z"
	/>
<path fill="#333333" d="M126.878,28.4c3.843,0,7.836,0.145,11.978,0.453c0,0,44.84,6.783,49.203,22.416
	c0.33,1.19,0.51,2.47,0.58,3.81c0.541-0.02,1.07-0.03,1.59-0.03c26.67,0,31.271,25.37,31.271,33.66c0,5.96-6.46,22.98-10.55,33.17
	l0.119,0.03l-1.239,3.52c7.229,3.1,12.489,12.66,12.489,23.969c0,22.431-13.719,25.03-23.409,25.03c-0.24,0-0.47-0.02-0.69-0.03
	c-0.189,48.92-47.3,53.15-68.35,53.15c-23.98,0-68.29-4.24-68.35-53.35c-0.67,0.13-1.39,0.21-2.15,0.21
	c-9.69,0-23.41-2.601-23.41-25.04c0-11.78,5.7-21.65,13.39-24.32c-5.52-10.95-13.85-31.25-7.47-44.03c0,0,1.4-2.14-0.67-2.14
	c-1.16,0-3.4,0.66-7.57,2.75c0,0,19.8-53.29,93.21-53.29"/>
<path fill="#333333" d="M126.849,20.339c-40.55,0-65.68,15.67-79.63,28.82c-15.31,14.45-20.86,29.07-21.09,29.69
	c-1.14,3.08-0.29,6.54,2.16,8.74c0.98,0.88,2.14,1.48,3.36,1.79c-0.69,10.65,2.93,22.45,7.39,32.61
	c-6.85,5.96-11.09,16.01-11.09,27.38c0,12.57,3.8,21.77,11.29,27.35c3.97,2.95,8.79,4.73,14.65,5.391
	c2.04,20.3,12.02,35.52,29.17,44.289c12.03,6.15,27.33,9.131,46.78,9.131c18.13,0,33.45-3.051,45.56-9.07
	c17.91-8.9,28.32-24.21,30.4-44.55c5.21-0.78,9.57-2.5,13.2-5.21c7.5-5.58,11.3-14.78,11.3-27.35c0-11.08-4.189-21.141-10.91-27.171
	c10.08-25.5,10.08-31.52,10.08-33.55c0-6.24-1.789-15.85-6.8-24.1c-4.41-7.25-12.681-15.77-27.56-17.32
	c-3.391-8.54-13.551-15.34-30.961-20.75c-12.189-3.79-23.66-5.54-24.14-5.62c-0.2-0.03-0.399-0.05-0.6-0.07
	c-4.25-0.31-8.479-0.47-12.57-0.47L126.849,20.339z"/>
<path fill="#F4D1B0" d="M187.223,149.434c0,13.83,2.004,25.035,11.7,25.035c9.7,0,23.413-2.6,23.413-25.04
	c0-13.829-7.859-25.04-17.553-25.04c-9.697,0-17.561,11.21-17.561,25.03V149.434z"/>
<path fill="#C69C6D" d="M190.13,149.34c0.042-3.876,0.845-8.29,2.74-12.04c0.962-1.907,2.18-3.76,3.899-5.366
	c1.713-1.57,4.155-2.92,6.99-2.955c1.07,0.101,0.85,0,1.862,0.221c0.81,0.16,1.512,0.41,2.05,0.68c1.2,0.52,2.17,1.28,3.07,2.051
	c1.72,1.6,2.563,3.459,3.52,5.359c1.9,3.84,2.355,7.99,2.355,12.13v0.479c0,2.711-1.766,4.94-4.479,4.971
	c-2.72,0.029-4.75-2.141-4.779-4.86c0-0.2,0.1-0.409,0.119-0.6c0.301-2.729,0.121-5.71-0.77-8.22c-0.83-2.61-2.5-4.26-2.98-4.431
	c-0.289-0.149-1.069-0.13-2.049,0.53c-0.951,0.66-1.921,1.74-2.73,3.01c-1.66,2.641-2.65,5.62-3.02,9.2l-0.011,0.14
	c-0.18,1.59-1.61,2.75-3.2,2.58c-1.5-0.16-2.609-1.449-2.6-2.92L190.13,149.34z"/>
<path fill="#F4D1B0" d="M71.094,149.434c0,13.83-2.006,25.035-11.703,25.035c-9.69,0-23.41-2.6-23.41-25.04
	c0-13.829,7.86-25.04,17.56-25.04S71.1,135.6,71.1,149.43L71.094,149.434z"/>
<path fill="#C69C6D" d="M68.184,149.34c-0.037-3.876-0.838-8.29-2.734-12.04c-0.96-1.907-2.186-3.76-3.906-5.366
	c-1.707-1.57-4.152-2.92-6.984-2.955c-1.072,0.101-0.855,0-1.863,0.221c-0.814,0.16-1.512,0.41-2.053,0.68
	c-1.195,0.52-2.166,1.28-3.064,2.051c-1.723,1.6-1.608,3.459-2.573,5.359c-1.893,3.84-1.386,7.99-1.386,12.13v0.479
	c0,2.711,0.81,4.94,3.52,4.971c2.72,0.029,4.27-2.141,4.3-4.86c0-0.2-0.35-0.409-0.37-0.6c-0.3-2.729-0.23-5.71,0.66-8.22
	c0.83-2.61,2.45-4.26,2.92-4.431c0.29-0.149,1.04-0.13,2.02,0.53c0.95,0.66,1.9,1.74,2.71,3.01c1.67,2.641,2.64,5.62,3.02,9.2
	l0.01,0.14c0.18,1.59,1.6,2.75,3.19,2.58c1.5-0.16,2.61-1.449,2.6-2.92L68.184,149.34z"/>
<path fill="#FFDDBB" d="M198.236,174.156c0,49.197-47.262,53.445-68.353,53.445c-23.996,0-68.35-4.24-68.35-53.44
	c0-49.19-5.092-112.34,68.35-112.34c74.171,0,68.353,63.15,68.353,112.35V174.156z"/>
<path fill="#333333" d="M48.69,119.504l13.09,37.811L80.683,113.2 M211.083,121.93l-12.45,35.382l-18.908-44.109"/>
<path fill="#F5F5F5" d="M113.446,149.354c0,11.244-9.105,20.356-20.348,20.356c-11.243,0-20.354-9.112-20.354-20.356
	c0-11.229,9.11-20.33,20.354-20.33C104.342,129.023,113.446,138.122,113.446,149.354z"/>
<path fill="#333333" d="M107.41,148.88c0,7.804-6.317,14.125-14.122,14.125c-7.803,0-14.13-6.319-14.13-14.125
	c0-7.8,6.327-14.116,14.13-14.116c7.805,0,14.12,6.316,14.12,14.116H107.41z"/>
<path fill="#F5F5F5" d="M183.255,149.354c0,11.244-9.104,20.356-20.348,20.356s-20.357-9.112-20.357-20.356
	c0-11.229,9.115-20.33,20.357-20.33C174.148,129.023,183.255,138.122,183.255,149.354z"/>
<path fill="#333333" d="M177.216,148.88c0,7.804-6.315,14.125-14.123,14.125c-7.8,0-14.13-6.319-14.13-14.125
	c0-7.8,6.33-14.116,14.13-14.116C170.898,134.764,177.216,141.08,177.216,148.88z"/>
<path fill="#333333" d="M126.73,208.51c-17.718,0-28.84-7.867-29.528-8.367c-1.295-0.943-1.584-2.757-0.643-4.056
	c0.93-1.295,2.74-1.592,4.05-0.657c0.93,0.668,23.08,16.133,55.14-0.229c1.431-0.716,3.181-0.164,3.91,1.271
	c0.729,1.426,0.159,3.18-1.271,3.909c-11.93,6.093-22.67,8.13-31.68,8.13H126.73z"/>
<path fill="#333333" d="M180.061,84.116c0,0-20.354,24.723-63.98,27.632l21.322-21.814c0,0-47.262,31.506-71.505,31.506l-5.816,0.73
	l-6.54,10.543c0,0-20.721-33.453-11.631-51.63c0,0,3.396-5.207-8.238,0.607c0,0,21.933-59.018,105.189-52.837
	c0,0,44.841,6.783,49.203,22.416c3.33,11.95-8,32.84-8,32.84L180.061,84.116z"/>
<path fill="#333333" d="M174.242,79.266c0,0,0,33.45,11.633,46.535l21.8,4.08c0,0,13.833-32.43,13.833-41.16
	c0-8.72-5.092-36.36-35.633-33.45c-30.537,2.91-11.633,24-11.633,24V79.266z"/>
<path fill="#333333" d="M137.066,123.296c0,0,2.873-1.91,7.338-3.94c4.488-2.087,10.736-4.404,17.373-5.58
	c3.307-0.612,6.689-1.007,9.899-1.03c3.195-0.105,6.234,0.1,8.8,0.48c2.594,0.312,4.715,0.802,6.19,1.224
	c1.49,0.376,2.336,0.595,2.336,0.595c2.813,0.716,4.513,3.573,3.797,6.384c-0.725,2.81-3.579,4.51-6.393,3.79
	c-0.146-0.04-0.287-0.08-0.435-0.13l-0.457-0.17c0,0-0.666-0.24-1.824-0.64c-1.153-0.46-2.828-1.01-4.918-1.46
	c-2.073-0.51-4.563-0.92-7.27-1.08c-2.712-0.24-5.652-0.17-8.593,0.09c-5.89,0.48-11.761,2.04-16.021,3.56
	c-4.32,1.52-6.859,2.9-6.859,2.9c-1.41,0.76-3.18,0.24-3.94-1.18c-0.72-1.33-0.3-2.98,0.931-3.81l0.06-0.04L137.066,123.296z"/>
<path fill="#333333" d="M115.976,128.31c0,0-2.544-1.382-6.866-2.9c-4.262-1.518-10.13-3.083-16.025-3.56
	c-2.938-0.268-5.883-0.334-8.59-0.097c-2.71,0.158-5.2,0.567-7.27,1.08c-2.093,0.447-3.77,1.003-4.923,1.46
	c-1.156,0.4-1.82,0.636-1.82,0.636l-0.453,0.15c-2.74,0.96-5.74-0.48-6.7-3.22c-0.96-2.74,0.48-5.74,3.22-6.7
	c0.14-0.05,0.29-0.1,0.43-0.13c0,0,0.85-0.22,2.33-0.6c1.47-0.42,3.6-0.91,6.19-1.23c2.57-0.38,5.6-0.59,8.8-0.48
	c3.21,0.021,6.59,0.41,9.9,1.03c6.63,1.17,12.88,3.49,17.37,5.58c4.46,2.03,7.34,3.94,7.34,3.94l0.04,0.03
	c1.33,0.89,1.7,2.7,0.81,4.03c-0.85,1.26-2.51,1.649-3.82,0.95L115.976,128.31z"/>
<linearGradient id="SVGID_1_" gradientUnits="userSpaceOnUse" x1="991.4717" y1="-243.8311" x2="991.4717" y2="-233.491" gradientTransform="matrix(7.466 0 0 -7.466 -7277.0195 -1609.0283)">
	<stop  offset="0" style="stop-color:#FF5459"/>
	<stop  offset="0.789" style="stop-color:#FF6064;stop-opacity:0"/>
</linearGradient>
<path fill="url(#SVGID_1_)" d="M129.62,148.38v32.229c0,0,1.18,6.238-7.83,9.011l2.497-9.011l-3.34-34.592"/>
<path fill="#333333" d="M123.004,194.393c-1.23,0-2.38-0.789-2.77-2.026c-0.49-1.527,0.36-3.163,1.894-3.65
	c8.004-2.55,7.696-7.12,7.679-7.319l-0.017-35.23c0-1.607,1.304-2.91,2.91-2.91c1.61,0,2.92,1.303,2.92,2.91v34.902
	c0,0,1.122,9.104-11.73,13.188C123.602,194.346,123.295,194.393,123.004,194.393z"/>
</svg>
