<svg xmlns="http://www.w3.org/2000/svg" width="256" height="256" viewBox="0 0 256 256"><path fill="#1085C6" d="M162.438 180.814l-5.784-20.59-3.656-1.577c-2.39-5.65 2.484-10.924 5.02-17.81 4.72-12.816 6.08-21.012 6.08-21.012 2.02 2.02 4.066.69 4.066.69 6.75-2.698 8.132-17.918 5.437-23.316-1.85-3.71-3.98-.99-5.14 1.07 1.93-6.1 9.39-36.95 3.32-41-2.75-1.83-9.35-8.91-16.46-11.47-38.78-17.2-57.81-1.51-63.25 7.22-3.31 1.62-5.97 3.18-7.55 4.24C78.45 61.3 88.4 100 88.4 100s-3.29-8.22-5.99-2.82c-2.694 5.395-1.31 20.61 5.438 23.307 0 0 2.05 1.32 4.074-.703 0 0 1.353 8.163 6.076 20.976 2.537 6.88 7.407 12.123 5.02 17.77L99.36 160l-5.79 20.805c-8.768 5.055-29.717-4.432-33.18 25.568h135.24c-3.47-30-24.42-20.51-33.187-25.56z"/></svg>