<?xml version="1.0" encoding="utf-8"?>
<!-- Generator: Adobe Illustrator 16.0.0, SVG Export Plug-In . SVG Version: 6.00 Build 0)  -->
<!DOCTYPE svg PUBLIC "-//W3C//DTD SVG 1.1//EN" "http://www.w3.org/Graphics/SVG/1.1/DTD/svg11.dtd">
<svg version="1.1" id="Layer_1" xmlns="http://www.w3.org/2000/svg" xmlns:xlink="http://www.w3.org/1999/xlink" x="0px" y="0px"
	 width="256px" height="256px" viewBox="0 0 256 256" enable-background="new 0 0 256 256" xml:space="preserve">
<path fill="#333333" d="M175.262,226.27c-0.563,0-1.082-0.185-1.5-0.5c-0.418,0.315-0.938,0.5-1.5,0.5h-37
	c-1.38,0-2.5-1.117-2.5-2.5v-3c0-0.447,0.118-0.869,0.325-1.232l-0.007-0.875c-0.008-0.896,0.467-1.73,1.242-2.18
	c1.582-0.922,3.193-1.248,4.752-1.563c1.808-0.37,3.38-0.69,4.936-1.89c0.086-0.09,0.178-0.18,0.278-0.25
	c3.513-2.7,8.166-4.91,9.583-5.551c0.08-0.129,0.189-0.369,0.35-0.81c0.211-0.58,0.61-1.03,1.11-1.319
	c-0.16-0.32-0.25-0.681-0.271-1.061v-0.23l0.03-0.479c0.021-0.25,0.03-0.53,0.05-1.04l0.061-1.391c0.07-1.459,0.15-3.239,0.23-5.399
	l0.52-12.649c0.109-2.74,0.23-5.57,0.42-8.44c0.01-0.06,0.01-0.11,0.02-0.17l1.51-11.39l0.721-5.24c0.061-0.36,0.1-0.641,0.141-0.92
	c0.079-0.57,0.159-1.121,0.279-1.7c0,0,0.43-1.71,0.55-2.24l0.011-0.09h-1.561c-0.721,0-1.41-0.32-1.88-0.86
	c-0.479-0.55-0.69-1.27-0.591-1.99l3.601-25.59c-0.351,0.17-0.729,0.26-1.12,0.26H158c-0.68-0.01-1.33-0.29-1.796-0.79l-0.67-0.72
	c-1.171,1.17-2.28,2.34-3.3,3.51c-2.004,2.22-3.93,4.701-5.743,7.419l-0.07,0.101c-0.62,0.84-1.16,1.771-1.68,2.66
	c-0.171,0.31-0.351,0.6-0.53,0.899c-0.65,1.051-1.22,2.09-1.75,3.25l-0.061,0.121c-0.59,1.109-1.119,2.239-1.629,3.459
	c0.02,0.09,0.029,0.18,0.039,0.271c1.95,2,3.75,4.45,2.961,6.819c-0.951,3.08-4.59,13.311-10.811,13.311
	c-0.57,0-1.141-0.09-1.699-0.27c-1.121-0.36-2.07-0.74-2.871-1.17c-0.79,0.42-1.75,0.81-2.87,1.159
	c-0.56,0.181-1.13,0.271-1.7,0.271c-6.22,0-9.85-10.23-10.82-13.36c-0.77-2.33,1.02-4.771,2.97-6.78
	c0.02-0.229,0.06-0.459,0.12-0.689l-0.58-2c-0.1-0.41-0.31-0.91-0.55-1.49c-0.16-0.4-0.33-0.82-0.49-1.26
	c-0.13-0.32-0.26-0.65-0.39-0.99c-0.31-0.8-0.6-1.561-0.99-2.25c-0.27-0.51-0.51-1-0.76-1.5c-0.38-0.779-0.74-1.52-1.18-2.2
	c-0.3-0.46-0.6-0.96-0.91-1.47c-0.48-0.811-0.94-1.57-1.46-2.25c-0.32-0.41-0.65-0.86-0.98-1.31c-0.59-0.82-1.16-1.59-1.78-2.24
	c-0.04-0.04-0.07-0.09-0.11-0.13c-0.83-1.01-1.75-2-2.77-3.01l-1.68,1.78c-0.46,0.5-1.11,0.78-1.79,0.79h-0.03
	c-0.39,0-0.77-0.09-1.12-0.27l3.6,25.59c0.03,0.159,0.03,0.33,0.02,0.489l0.07,0.36c0.15,0.83-0.13,1.67-0.74,2.25
	c-0.47,0.44-1.09,0.681-1.72,0.681c-0.19,0-0.38-0.021-0.56-0.061l-1.08-0.25l0.18,8.41l1.53,17.08c0.32,2.89,0.38,5.77,0.44,8.56
	c0.03,1.48,0.06,2.931,0.13,4.36l0.21,7.38c2.53,0.86,3.19,2.76,3.36,3.67c0.1,0.511,0.03,1.04-0.19,1.521
	c0,0.01-0.86,2.119-0.12,2.859c1.17,0.53,5.53,2.561,9.06,5.12c3.84,0.29,7.37,2.351,10.25,4.03l0.38,0.21
	c0.78,0.45,1.25,1.28,1.24,2.18l-0.02,3.091c-0.01,1.369-1.13,2.479-2.5,2.479l-35.25-0.2c-0.54,0-1.07-0.18-1.5-0.51
	c-0.35-0.27-0.72-0.561-1.04-0.87c-0.28-0.24-0.51-0.54-0.66-0.88c-0.11-0.23-0.19-0.48-0.21-0.76c-0.45-2.271-1.14-7.24,0.69-9.78
	c0.36-0.75,0.16-4.09-0.47-6.96c-0.2-0.93,0.14-1.87,0.84-2.45c0,0-0.13-6.24-0.21-9.271c-0.05-1.369-0.07-2.84-0.09-4.33
	c-0.03-2.68-0.07-5.459-0.34-8.1l-1.2-14.77c-0.34-0.4-0.71-0.67-0.95-0.67c-0.08,0-0.16,0.039-0.25,0.09
	c-0.08,0.92-0.14,1.84-0.17,2.75l-1.57,34.57c0.52,0.58,0.75,1.399,0.57,2.199c-0.63,2.87-0.84,6.211-0.44,7.021
	c1.82,2.489,1.1,7.51,0.64,9.76c-0.02,0.181-0.06,0.351-0.12,0.51c-0.15,0.46-0.43,0.851-0.8,1.14c-0.31,0.301-0.65,0.57-0.98,0.82
	c-0.43,0.33-0.95,0.51-1.5,0.521l-35.21,0.27c-1.37,0-2.48-1.1-2.5-2.479l-0.02-3.09c-0.01-0.891,0.46-1.73,1.24-2.181l0.38-0.22
	c2.88-1.68,6.41-3.74,10.24-4.03c3.53-2.56,7.89-4.59,9.06-5.12c0.74-0.74-0.11-2.859-0.12-2.88c-0.21-0.46-0.28-1-0.18-1.5
	c0.22-1.189,1.01-3.03,3.69-3.78l1.74-32.67c0.03-0.56,0.06-1.129,0.11-1.699c-0.02-0.131-0.03-0.271-0.03-0.41l0.01-3.33
	l-1.38-0.811c-0.7-0.379-1.4-0.89-2.14-1.43c-0.29-0.21-0.59-0.43-0.91-0.66c-1.29-0.899-2.64-2.17-3.8-3.279
	c-0.04-0.041-0.09-0.08-0.13-0.131l-1.85-2.05c-0.06-0.069-0.12-0.14-0.17-0.22l-0.3-0.41c-0.5-0.699-1.02-1.41-1.51-2.18
	c-0.03-0.04-0.05-0.08-0.08-0.13c-0.92-1.601-2.21-4.08-2.83-7.021c-1.12-4.57-0.66-10.05,1.33-15.34c0.8-2.06,1.76-4.06,2.93-6.08
	c0.01-0.14,0.03-0.28,0.06-0.42c2.84-13.63,7.75-20.34,12-23.64c-5.04-3.01-7.94-7.84-8.51-14.23c-5.14-0.84-7.94-4.55-7.94-10.67
	c0-3.47,1.23-6.62,3.25-8.62c-1.63-3.57-2.99-7.78-2.7-11.53c-0.43-0.08-0.84-0.28-1.18-0.59c-0.76-0.68-1.03-1.77-0.67-2.73
	c0.3-0.79,7.51-19.41,33.44-19.41c1.36,0,2.77,0.06,4.18,0.16c0.06,0.01,0.12,0.01,0.19,0.02c3.79,0.57,16.03,2.87,18.29,8.79
	c8.34,0.83,11.42,8.45,11.42,13.66c0,0.67,0,2.67-3.4,11.24c2.26,1.97,3.67,5.31,3.67,9.01c0,6.2-2.87,9.93-8.15,10.7
	c-0.57,6.12-3.36,10.8-8.19,13.83c3.85,1.69,8.45,4.81,13.64,10.35c0.9,0.97,0.9,2.47,0,3.43l-0.65,0.69
	c1.41,1.29,2.67,2.56,3.83,3.85c1.02,1.01,1.87,2.1,2.7,3.15c0.36,0.45,0.71,0.89,1.07,1.33c0.88,1.08,1.59,2.16,2.28,3.21
	c0.33,0.5,0.66,1,0.99,1.48c0.75,1.11,1.33,2.19,1.89,3.22c0.27,0.49,0.52,0.97,0.79,1.44c0.7,1.17,1.22,2.369,1.67,3.42
	c0.13,0.3,0.261,0.59,0.39,0.869c0.69-1.3,1.4-2.5,2.17-3.649l0.57-0.9c0.73-1.15,1.48-2.33,2.4-3.51c2.27-3.15,4.72-6.1,7.24-8.7
	c1.32-1.41,2.72-2.8,4.18-4.15l-1.67-1.77c-0.91-0.96-0.92-2.47-0.01-3.43c5.15-5.5,9.72-8.61,13.539-10.31
	c-4.909-3.02-7.739-7.68-8.34-13.77c-7.629-0.66-8.819-6.96-8.819-10.8c0-4.12,1.739-7.73,4.39-9.56
	c-3.18-8.1-3.18-10.03-3.18-10.69c0-5.21,3.07-12.83,11.41-13.65c2.26-5.92,14.51-8.22,18.289-8.79c0.061-0.01,0.131-0.01,0.19-0.02
	c1.421-0.1,2.82-0.16,4.181-0.16c25.93,0,33.149,18.62,33.439,19.41c0.359,0.96,0.09,2.05-0.67,2.73c-0.34,0.31-0.75,0.51-1.18,0.6
	c0.279,3.59-0.971,7.62-2.5,11.06c2.31,1.94,3.75,5.29,3.75,9.08c0,6.39-3.061,10.16-8.65,10.77c-0.58,6.19-3.359,10.92-8.16,13.93
	c4.07,3.22,8.76,9.93,11.66,23.84c0.2,0.96-0.18,1.96-0.98,2.53l-0.219,0.16c0.93,2.01,1.67,3.96,2.26,5.919
	c1.479,4.851,1.859,10.021,1.049,14.53c-0.699,4.261-2.539,8.58-5.18,12.12c-1.02,1.45-2.09,2.62-3.189,3.78
	c-0.03,0.04-0.07,0.08-0.11,0.11c-0.3,0.279-0.59,0.56-0.86,0.83c-0.649,0.629-1.26,1.219-1.879,1.699l-1.531,1.21l0.801,10.79
	c1.1,15.01,2.21,30.02,2.21,30.02c0.05,0.681-0.181,1.361-0.64,1.861c-0.061,0.06-0.121,0.129-0.19,0.189
	c0.149,0.4,0.25,0.62,0.319,0.74c1.421,0.64,6.07,2.85,9.58,5.539c0.101,0.08,0.19,0.16,0.281,0.25
	c1.549,1.201,3.129,1.521,4.939,1.881c1.561,0.32,3.17,0.64,4.75,1.56c0.77,0.45,1.25,1.29,1.24,2.19v0.029
	c0.66,0.45,1.1,1.211,1.1,2.07v3c0,1.38-1.12,2.5-2.5,2.5h-39L175.262,226.27z"/>
<path fill="#333333" d="M172.17,212.26c0.48,0,0.955,0.141,1.366,0.407c0.353,0.229,0.637,0.542,0.832,0.903
	c0.194-0.36,0.478-0.67,0.83-0.9c0.409-0.27,0.887-0.41,1.368-0.41c0.057,0,0.113,0.004,0.17,0.008l-0.16-5.644
	c-0.396-0.45-0.623-1.026-0.631-1.632l-0.478-40.057c-0.114,0.09-0.237,0.205-0.362,0.344c-0.242,3.18-0.793,10.34-0.793,10.34
	c-0.013,4.949-0.104,9.9-0.187,14.279c-0.042,2.25-0.08,4.36-0.104,6.25l-0.11,6.791c-0.011,0.55-0.021,0.699-0.03,0.83l-0.01,0.22
	c0,0.069,0,0.14-0.01,0.21c-0.11,1.02-0.76,1.84-1.68,2.199l-0.16,5.851c0.06-0.01,0.119-0.01,0.17-0.01L172.17,212.26z"/>
<path fill="#333333" d="M66.254,132.693c-0.863,2.416-1.102,4.654-0.664,6.273l0.02,0.08l0.746-6.622
	c-0.035,0.091-0.07,0.181-0.102,0.271V132.693z"/>
<path fill="#333333" d="M82.23,31.824c1.283,0,2.617,0.05,4,0.15c0,0,14.96,2.26,16.415,7.477c0.11,0.4,0.16,0.83,0.184,1.28
	c0.18,0,0.36-0.01,0.54-0.01c8.89,0,10.43,8.46,10.43,11.23c0,1.99-2.16,7.67-3.52,11.07l0.04,0.02l-0.42,1.18
	c2.41,1.04,4.17,4.23,4.17,8c0,7.49-4.58,8.36-7.81,8.36c-0.08,0-0.16-0.01-0.23-0.02c-0.04,10.94-7.11,15.18-13.89,16.79l0.01,0.12
	h0.22c4,0,10.77,1.89,19.65,11.35l-2.42,2.57c1.93,1.65,3.85,3.45,5.6,5.41c1.35,1.35,2.45,2.91,3.65,4.36
	c1.18,1.46,2.12,3.06,3.14,4.53c1.01,1.49,1.74,3.06,2.56,4.48c0.85,1.42,1.39,2.87,1.98,4.17c0.52,1.271,1.11,2.4,1.44,3.47
	l0.34,0.24l0.66-0.439c0.15-0.101,0.301-0.18,0.44-0.271c0.38-0.76,0.8-1.56,1.28-2.399c0.649-1.271,1.41-2.61,2.319-3.961
	c0.88-1.369,1.761-2.85,2.851-4.25c2.07-2.87,4.449-5.81,7.06-8.51c1.92-2.04,3.931-3.97,5.96-5.74l-3.439-3.63
	c8.879-9.46,15.619-11.35,19.619-11.35h0.23l-0.061-0.11c-6.799-1.61-14.029-5.87-14.029-16.87v-0.1c0,0.13-0.59,0.2-1.02,0.2
	c-3.23,0-7.671-0.87-7.671-8.35c0-4.21,2.19-7.69,5.03-8.26l-0.21-0.69c-1.351-3.36-3.61-9.27-3.61-11.31
	c0-2.77,1.53-11.229,10.43-11.229c0.181,0,0.36,0.01,0.541,0.01c0.02-0.44,0.069-0.87,0.18-1.27c1.47-5.22,16.42-7.48,16.42-7.48
	c1.391-0.1,2.72-0.15,4-0.15c24.49,0,31.1,17.78,31.1,17.78c-1.39-0.69-2.14-0.92-2.52-0.92c-0.689,0-0.221,0.72-0.221,0.72
	c2.131,4.27-0.649,11.05-2.5,14.7c2.57,0.89,4.471,4.18,4.471,8.11c0,7.479-4.57,8.35-7.811,8.35c-0.26,0-0.49-0.03-0.72-0.08
	c-0.01,9.85-5.351,14.29-11.36,16.26c3.051,0.83,10.69,4.85,14.791,24.52l-1.92,1.39c1.17,2.3,2.229,4.77,3.029,7.429
	c1.28,4.201,1.77,8.94,0.98,13.371c-0.721,4.439-2.66,8.31-4.721,11.069c-1,1.42-2.07,2.57-3,3.56
	c-0.979,0.92-1.82,1.791-2.56,2.371l-2.351,1.859l-0.289-0.4c0.039,0.57,0.09,1.131,0.119,1.711l0.811,11.01l2.199,30.029
	l-2.92,0.061l0.101,3.65c0.729-0.621,1.44-0.95,2.101-1.07c0.209,0.609,0.6,1.609,1.279,2.07c0,0,5.57,2.43,9.48,5.43h-0.041
	c3.611,3,7.301,2.15,10.261,3.87l-0.011,2.13h1.121v3h-39v-3h1.799c0,0-0.699-3.53-0.439-6.01c0.75,0.24,1.7,0.449,2.75,0.52
	l-0.29-10.33l-0.59,0.02l-0.36-29.529l-0.129-10.87c0-0.55-0.011-1.08-0.021-1.62c-0.49-0.4-1.14-0.75-1.97-0.75
	c-1.65,0-2.82,1.43-3.311,2.16l-0.029,0.391c-0.261,3.449-0.551,7.119-0.83,10.789c-0.021,7.5-0.221,14.99-0.291,20.601l-0.119,6.79
	c-0.021,0.82-0.03,0.6-0.041,1.039c-0.02,0.111-0.109,0.15-0.25,0.15c-0.389,0-1.079-0.34-1.029-0.34h-0.35l-0.33,11.51
	c1.05-0.07,2-0.279,2.76-0.52c0.26,2.48-0.439,6.01-0.439,6.01h0.529v3h-37v-3h0.34l-0.02-2.13c2.959-1.72,6.65-0.87,10.26-3.87
	h-0.04c3.91-3,9.479-5.42,9.479-5.42c0.67-0.46,1.061-1.45,1.28-2.07c0.66,0.131,1.36,0.461,2.091,1.08l0.129-4.58h-0.01
	c0.051,0-0.63,0.33-1,0.33c-0.14,0-0.23-0.05-0.24-0.17c0.021-0.449,0.041-0.689,0.07-1.529c0.07-1.681,0.17-3.881,0.29-6.771
	s0.25-6.149,0.399-9.771c0.16-3.609,0.271-7.41,0.531-11.25c0.51-3.89,1.029-7.75,1.5-11.399l0.709-5.229
	c0.141-0.841,0.211-1.61,0.391-2.431c0.21-0.84,0.41-1.649,0.6-2.43l0.061-2.931l-4.12,0.021l4.47-31.78
	c-2.63,1.73-4.47,3.61-4.47,3.61l-2.4-2.56c-1.8,1.68-3.59,3.5-5.271,5.42c-2.219,2.47-4.219,5.11-5.939,7.68
	c-0.92,1.25-1.619,2.56-2.35,3.77c-0.75,1.2-1.37,2.37-1.881,3.49c-0.889,1.689-1.549,3.2-2.029,4.42
	c0.189,0.58,0.199,1.08,0.109,1.5c2.061,1.99,3.5,3.87,3.121,5.03c0,0-3.58,11.6-8.44,11.6c-0.31,0-0.63-0.05-0.95-0.149
	c-1.949-0.61-3.029-1.24-3.62-1.79c-0.6,0.55-1.68,1.18-3.63,1.79c-0.32,0.109-0.64,0.149-0.95,0.149c-4.86,0-8.43-11.59-8.43-11.59
	c-0.38-1.16,1.05-3.04,3.12-5.03c-0.1-0.459-0.08-1.02,0.19-1.689l-0.05-0.16c-0.2-0.68-0.44-1.5-0.71-2.439
	c-0.23-0.961-0.74-1.94-1.15-3.07c-0.46-1.1-0.86-2.36-1.53-3.551c-0.65-1.209-1.21-2.56-2.01-3.819c-0.82-1.25-1.54-2.63-2.49-3.89
	c-0.97-1.24-1.83-2.6-2.94-3.76c-1.49-1.79-3.13-3.43-4.8-4.95l-3.4,3.6c0,0-1.84-1.88-4.47-3.61l4.47,31.79l-0.51-0.08l0.51,0.47
	l0.1,0.561l-1.65-0.391H95.4l0.24,11.11l0.39,4.31c0.37,4.101,0.76,8.48,1.15,12.851c0.48,4.39,0.36,8.729,0.566,12.82
	c0.1,3.21,0.19,6.489,0.27,9.329c1.76,0.111,3.08,0.681,3.34,2.07c0,0-1.94,4.18,0.86,6.08c0,0,5.57,2.43,9.48,5.43h-0.03
	c3.66,0,7.3,2.221,10.26,3.951l-0.024,3.09l-35.19-0.271c0,0-1.02-0.771-0.92-0.771h-0.02c0,0-1.25-6.029,0.213-8.06
	c1.47-2.021-0.06-8.96-0.06-8.96s0.35-0.13,0.93-0.33c-0.065-3.16-0.15-7-0.24-10.92c-0.16-3.99-0.01-8.41-0.45-12.63
	c-0.34-4.229-0.69-8.521-1.02-12.49c-0.08-0.979-0.16-1.96-0.23-2.92c-0.437-0.68-1.64-2.271-3.384-2.271
	c-1.35,0-2.26,0.94-2.67,1.471c-0.1,1.23-0.22,2.5-0.26,3.79c-0.18,4-0.37,8.26-0.57,12.53L77,203.561
	c0.443,0.156,0.7,0.25,0.7,0.25s-1.524,6.93-0.06,8.959c1.47,2.021,0.215,8.058,0.215,8.058h-0.02c0.1,0-0.914,0.771-0.914,0.771
	l-35.19,0.26l-0.03-3.101c2.97-1.729,6.61-3.95,10.27-3.95h-0.03c3.91-3,9.48-5.43,9.48-5.43c2.8-1.906,0.85-6.08,0.85-6.08
	c0.28-1.46,1.72-2.017,3.62-2.08c0.33-6.25,0.75-14.119,1.17-21.99c0.23-4.33,0.46-8.649,0.68-12.709c0.03-0.761,0.09-1.5,0.15-2.23
	h-0.08l0.02-5.051l-0.11,0.221c0,0-0.92-0.55-2.53-1.506c-0.81-0.44-1.75-1.19-2.84-1.96c-1.09-0.761-2.27-1.851-3.51-3.04
	l-1.84-2.1c-0.57-0.801-1.17-1.621-1.75-2.5c-1.05-1.851-2.06-3.951-2.55-6.291c-1.15-4.709-0.35-9.77,1.22-13.959
	c0.94-2.42,2.09-4.65,3.34-6.69l-0.25-0.18c3.86-18.51,11.48-23.21,15.16-24.4c-6.13-1.91-11.68-6.31-11.72-16.31h-0.02
	c-3.23,0-7.8-0.87-7.8-8.36c0-3.63,1.63-6.71,3.9-7.87c-1.83-3.59-4.8-10.58-2.61-14.94c0,0,0.47-0.72-0.22-0.72
	c-0.39,0-1.13,0.22-2.53,0.92c0,0,6.61-17.78,31.1-17.78"/>
<path fill="#333333" d="M67.9,146.48l0.003-1.246c-0.273-0.051-0.447-0.068-0.447-0.068l0.132-0.13l-0.132-0.022l1.684-14.977
	l-3.267-2.37c-0.77,1.351-1.444,2.743-1.964,4.149c-1.03,2.86-1.33,5.594-0.74,7.793c0.22,1.134,0.76,2.134,1.28,3.101
	c0.33,0.463,0.66,0.914,0.97,1.353c0.39,0.418,0.76,0.82,1.12,1.211c0.46,0.42,0.9,0.826,1.34,1.199"/>
<path fill="#333333" d="M191.398,144.003c0.271-0.767,0.5-1.569,0.65-2.418c0.49-2.556,0.28-5.526-0.609-8.554
	c-0.391-1.381-0.91-2.75-1.51-4.09l-0.591,0.43l2.07,14.63"/>
<path fill="#333333" d="M82.23,26.83C54.583,26.82,46.77,47,46.45,47.86c-0.716,1.924-0.182,4.09,1.347,5.462
	c0.11,0.098,0.22,0.19,0.336,0.277c0.1,3.21,1.072,6.54,2.31,9.54c-1.79,2.4-2.836,5.61-2.836,9.05c0,6.59,2.98,11.09,8.177,12.7
	c0.83,5.14,3.15,9.35,6.81,12.43c-3.965,4.1-8.02,11.07-10.483,22.9l-0.02,0.12c-1.12,1.98-2.06,3.95-2.83,5.96
	c-2.16,5.77-2.66,11.74-1.43,16.86c0.7,3.239,2.1,5.92,3.09,7.659c0.05,0.091,0.11,0.171,0.16,0.261
	c0.54,0.819,1.07,1.56,1.58,2.271l0.29,0.409c0.11,0.15,0.23,0.29,0.35,0.431l0.82,0.899l1.04,1.15c0.08,0.09,0.17,0.17,0.26,0.26
	c1.23,1.17,2.66,2.51,4.1,3.521c0.3,0.209,0.59,0.42,0.87,0.619c0.8,0.58,1.55,1.131,2.38,1.59c0.04,0.021,0.08,0.041,0.11,0.061
	v1.9c0,0.16,0.01,0.33,0.02,0.489c-0.03,0.48-0.07,0.99-0.09,1.511l-0.38,7.14l-0.29,5.53l-0.39,7.319l-0.58,11.05
	c-2.81,1.49-3.55,4.051-3.73,5.03c-0.2,1.07-0.12,2.03,0.37,3c0.02,0.06,0.05,0.11,0.07,0.181c-1.83,0.879-4.89,2.459-7.63,4.369
	c-4.13,0.51-7.81,2.67-10.59,4.291l-0.37,0.219c-1.55,0.91-2.5,2.57-2.48,4.371l0.03,3.09c0.03,2.75,2.26,4.959,5,4.959h0.04
	l35.17-0.25c1.08-0.01,2.13-0.369,3-1.029c0.29-0.221,0.68-0.53,1.09-0.91c0.29-0.24,0.55-0.51,0.78-0.811
	c0.25,0.33,0.55,0.631,0.87,0.891c0.37,0.34,0.74,0.62,1.01,0.83c0.86,0.65,1.91,1.02,3,1.02l35.19,0.26h0.04
	c2.74,0,4.98-2.209,5-4.959l0.02-3.09c0.02-1.791-0.93-3.461-2.48-4.36l-0.37-0.22c-2.78-1.631-6.47-3.78-10.59-4.301
	c-2.74-1.91-5.8-3.49-7.63-4.369c0.02-0.08,0.04-0.131,0.05-0.141c0.44-0.949,0.58-2.01,0.38-3.04c-0.17-0.93-0.85-3.31-3.35-4.83
	l-0.17-5.8v-0.1c-0.07-1.381-0.1-2.791-0.13-4.291c-0.06-2.829-0.12-5.75-0.45-8.779l-0.59-6.641l-0.55-6.159l-0.2-2.171
	l-0.18-1.979l-0.12-5.54c0.93-0.18,1.81-0.619,2.52-1.29c1.22-1.159,1.77-2.85,1.48-4.5l-0.02-0.13c0-0.22-0.02-0.43-0.05-0.65
	l-3.21-22.799c0.66-0.24,1.26-0.62,1.76-1.12c0.29,0.32,0.57,0.65,0.84,0.97l0.23,0.26c0.51,0.53,1.03,1.24,1.57,1.99
	c0.34,0.46,0.68,0.92,1.03,1.369c0.44,0.57,0.86,1.271,1.3,2c0.3,0.5,0.61,1.011,0.96,1.541c0.36,0.55,0.68,1.22,1.03,1.93
	c0.25,0.5,0.5,1.02,0.79,1.55l0.04,0.06c0.31,0.541,0.56,1.211,0.84,1.92c0.13,0.341,0.26,0.67,0.39,1
	c0.18,0.48,0.36,0.92,0.52,1.301c0.17,0.42,0.37,0.89,0.42,1.109l0.06,0.211l0.28,0.959c-1.83,2.03-3.87,5.101-2.79,8.48
	c1.41,4.561,5.51,15.09,13.2,15.09c0.83,0,1.66-0.13,2.46-0.38c0.77-0.239,1.47-0.5,2.12-0.78c0.65,0.28,1.35,0.541,2.12,0.78
	c0.811,0.25,1.631,0.38,2.461,0.38c7.699,0,11.789-10.52,13.209-15.09c1.021-3.21-0.76-6.13-2.51-8.16
	c0.301-0.67,0.62-1.31,0.961-1.949l0.119-0.24c0.49-1.061,1-2.01,1.57-2.92c0.02-0.03,0.04-0.061,0.061-0.101
	c0.18-0.3,0.359-0.61,0.539-0.92c0.51-0.88,1-1.71,1.541-2.44l0.139-0.189c1.75-2.62,3.601-5.01,5.5-7.11l0.051-0.06
	c0.51-0.58,1.029-1.16,1.58-1.74c0.189,0.1,0.38,0.18,0.58,0.26l-3.2,22.8c-0.21,1.43,0.22,2.89,1.18,3.979
	c0.601,0.69,1.38,1.2,2.24,1.47c-0.101,0.521-0.16,0.99-0.22,1.42l-0.12,0.791l-0.021,0.129l-0.189,1.36l-0.53,3.87l-1.01,7.66
	l-0.5,3.76c-0.021,0.1-0.03,0.21-0.03,0.32c-0.199,2.9-0.311,5.75-0.42,8.5l-0.12,2.859l-0.2,4.9c-0.07,1.73-0.14,3.359-0.199,4.891
	c-0.09,2.159-0.17,3.93-0.23,5.39l-0.061,1.37c-0.02,0.529-0.029,0.789-0.049,1.02c-0.011,0.17-0.021,0.33-0.021,0.51
	c-0.011,0.15-0.011,0.311,0,0.461l0.01,0.119c-0.25,0.33-0.45,0.69-0.62,1.08c-2.05,0.98-6.029,3.01-9.18,5.43
	c-0.141,0.11-0.27,0.221-0.4,0.34c-1.01,0.74-2.08,0.98-3.789,1.33c-1.681,0.341-3.58,0.721-5.521,1.851
	c-1.55,0.91-2.49,2.569-2.479,4.37l0.01,0.32c-0.211,0.55-0.32,1.149-0.32,1.77v3c0,2.76,2.23,5,5,5h37c0.52,0,1.02-0.08,1.5-0.23
	c0.47,0.15,0.97,0.23,1.5,0.23h39c2.76,0,5-2.24,5-5v-3c0-1.26-0.471-2.42-1.25-3.3c-0.311-1.31-1.15-2.46-2.35-3.15
	c-1.94-1.13-3.84-1.51-5.521-1.85c-1.71-0.351-2.79-0.591-3.8-1.33c-0.12-0.12-0.25-0.229-0.381-0.33
	c-2.719-2.09-6.059-3.89-8.239-4.97c0.12-0.51,0.17-1.04,0.13-1.57l-2.199-30.029c-0.23-3.16-0.471-6.311-0.691-9.33l-0.01-0.141
	l0.49-0.391c0.721-0.56,1.381-1.189,2.07-1.859c0.26-0.26,0.54-0.529,0.83-0.8c0.08-0.07,0.15-0.15,0.23-0.229
	c1.1-1.171,2.27-2.451,3.409-4.051c2.841-3.84,4.83-8.52,5.601-13.17c1.109-6.26,0-11.97-1.131-15.67
	c-0.47-1.55-1.029-3.09-1.689-4.66c0.689-1.09,0.96-2.42,0.68-3.73c-2.51-12.03-6.41-19.04-10.23-23.12
	c3.461-3.02,5.681-7.09,6.521-12.01c5.65-1.4,8.91-6.01,8.91-12.91c0-3.78-1.229-7.21-3.3-9.65c1.119-2.82,1.98-5.93,2.07-8.94
	c0.119-0.08,0.229-0.18,0.34-0.27c1.529-1.38,2.06-3.54,1.35-5.47c-0.32-0.86-8.14-21.03-35.779-21.03
	c-1.42,0-2.891,0.05-4.371,0.16c-0.119,0.01-0.25,0.03-0.379,0.04c-4.92,0.75-15.891,3.03-19.551,8.98
	c-4.109,0.77-7.47,3.08-9.67,6.69c-2.42,3.98-2.609,8.09-2.609,9.25c0,0.87,0,2.78,2.709,9.95c-2.42,2.46-3.93,6.18-3.93,10.31
	c0,7.02,3.34,11.66,9.1,12.98c0.811,4.51,2.83,8.28,5.951,11.2c-3.25,1.96-6.86,4.84-10.761,8.99c-1.8,1.91-1.8,4.89-0.021,6.82
	c-0.85,0.83-1.67,1.67-2.479,2.52c-2.569,2.66-5.069,5.67-7.44,8.96c-0.969,1.25-1.77,2.51-2.469,3.63l-0.371,0.58l-0.149-0.27
	c-0.25-0.44-0.49-0.89-0.74-1.35c-0.56-1.04-1.2-2.22-2.01-3.41l-0.03-0.05c-0.33-0.46-0.64-0.94-0.95-1.42
	c-0.69-1.05-1.48-2.24-2.41-3.4l-0.04-0.04c-0.35-0.42-0.69-0.85-1.02-1.28c-0.82-1.04-1.75-2.22-2.85-3.32
	c-0.72-0.81-1.49-1.6-2.3-2.4c0.85-1.81,0.56-4.03-0.88-5.56c-3.94-4.2-7.59-7.09-10.88-9.06c3.09-2.95,5.08-6.77,5.85-11.34
	c5.34-1.54,8.41-6.08,8.41-12.77c0-3.77-1.21-7.18-3.25-9.62c2.97-7.74,2.97-9.74,2.97-10.64c0-5.87-3.33-14.32-12.25-15.95
	c-1.75-2.95-5.38-5.21-11.19-7.02c-4.24-1.32-8.23-1.93-8.4-1.95c-0.13-0.02-0.25-0.03-0.38-0.04c-1.47-0.11-2.94-0.17-4.37-0.17
	L82.23,26.83z"/>
<path fill="#FFDDBB" d="M189.706,195.367l0.649,22.976l-10.937,0.31l-0.649-22.977L189.706,195.367z"/>
<path fill="#29B9CC" d="M188.002,210.836c0.311-0.493,0.615-0.925,0.922-1.302c1.152-1.425,2.248-2.07,3.242-2.257
	c0.221,0.615,0.607,1.91,1.279,2.371c0,0,5.57,2.731,9.48,5.731h-0.029c3.605,3,7.297,1.84,10.263,3.565l-0.03,3.074l-35.189,0.014
	c0,0-1.021-0.653-0.92-0.653H177c0,0-0.693-3.835-0.434-6.315C179.336,215.941,184.656,216.13,188.002,210.836L188.002,210.836z"/>
<path fill="#C7B299" d="M175.62,221.38h39v3h-39V221.38z"/>
<path fill="#FFFFFF" d="M189.46,209.275c0,0,6.333,4.386,3.897,5.455c-2.437,1.07-7.693-0.97-7.693-0.97s1.654-4.19,3.797-4.479
	L189.46,209.275z"/>
<path fill="#FFDDBB" d="M169.318,218.652l-10.934-0.311l0.646-22.978l10.949,0.312L169.318,218.652z M183.254,102.965
	c0,0,0.2,0.188,0.584,0.535c0.348,0.33,0.86,0.82,1.514,1.443c1.267,1.248,3.019,3.053,4.971,5.37
	c3.859,4.626,8.81,11.27,11.367,19.76c1.281,4.198,1.771,8.933,0.98,13.362c-0.727,4.437-2.663,8.311-4.72,11.072
	c-1.005,1.42-2.07,2.567-3.007,3.563c-0.985,0.923-1.819,1.797-2.565,2.373l-2.344,1.855l-6.4-8.869l1.732-1.361
	c0.571-0.42,1.11-1.029,1.825-1.649c0.636-0.67,1.365-1.43,1.998-2.31c1.33-1.76,2.429-3.95,2.881-6.521
	c0.494-2.56,0.281-5.53-0.61-8.56c-1.715-6.1-5.81-12-9.147-16.01c-1.681-2.04-3.203-3.64-4.277-4.72
	c-0.54-0.52-0.96-0.94-1.248-1.22l-0.418-0.39l6.88-7.75L183.254,102.965z"/>
<path fill="#F2C49C" d="M129.01,137.555c0,0-14.804,9.793-13.67,13.226c0,0,4.052,13.13,9.386,11.444
	c5.333-1.688,4.215-3.457,4.215-3.457s4.566-2.4,5.811-3.565c0.979-0.927,2.837-3.091,3.098-4.41
	c0.159-0.854-0.781-3.397-0.781-3.397s2.74-1.572,0.021-4.887c-2.72-3.318-4.46-7.496-8.09-4.953H129.01z"/>
<path fill="#FFDDBB" d="M127.69,137.555c0,0,14.802,9.793,13.667,13.226c0,0-4.053,13.13-9.385,11.444
	c-5.333-1.688-4.221-3.457-4.221-3.457s-4.562-2.4-5.804-3.565c-0.98-0.927-2.838-3.091-3.098-4.41
	c-0.17-0.854,0.77-3.397,0.77-3.397s-2.737-1.572-0.02-4.887C122.317,139.189,124.058,135.012,127.69,137.555z"/>
<path fill="#8C6239" d="M95.3,142.54l0.49,22.84H85.175c0,0-1.354-2.883-3.57-2.883c-1.882,0-2.92,1.68-2.92,1.68l-10.842,0.156
	l0.068-22.224"/>
<path fill="#8C6239" d="M92.766,143.917l0.646,2.896c0.23,0.894,0.385,2.125,0.61,3.475c0.212,1.365,0.453,2.906,0.72,4.584
	l0.84,5.43c0.173,1.881,0.348,3.86,0.534,5.91c0.366,4.1,0.76,8.48,1.15,12.85c0.48,4.381,0.36,8.73,0.563,12.82
	c0.12,4.09,0.23,8.62,0.33,11.9c0.19,6.539,0.32,11.619,0.32,11.619h-11.3c0,0-0.1-4.979-0.25-11.399
	c-0.07-3.21-0.16-7.3-0.25-11.31c-0.16-3.99-0.01-8.49-0.45-12.711c-0.35-4.229-0.69-8.56-1.02-12.529
	c-0.16-1.98-0.32-3.95-0.47-5.77c-0.26-1.75-0.5-3.421-0.73-4.94l-0.61-4.171c-0.19-1.239-0.3-2.31-0.53-3.239l-0.63-2.91l10.5-2.45
	L92.766,143.917z"/>
<path fill="#8C6239" d="M111.746,215.38h0.03c-3.91-3-9.48-5.729-9.48-5.729c-2.802-1.904-0.856-6.233-0.856-6.233
	c-0.933-4.965-15.43,0.42-15.43,0.42s1.522,7.197,0.06,9.226c-1.467,2.021-0.218,8.32-0.218,8.32h0.02
	c-0.098,0,0.92,0.471,0.92,0.471l35.19,0.112l0.025-2.864c-2.965-1.729-6.603-3.72-10.26-3.72L111.746,215.38z"/>
<path fill="#8C6239" d="M80.422,145.755l-0.886,10.718c-0.136,1.606-0.28,3.35-0.434,5.189c-0.128,1.842-0.365,3.793-0.427,5.783
	c-0.18,4-0.373,8.261-0.57,12.529c-0.774,17.051-1.55,34.103-1.55,34.103l-11.3-0.25l1.837-34.63c0.23-4.328,0.46-8.653,0.68-12.713
	c0.082-2.035,0.33-3.955,0.474-5.801c0.163-1.841,0.324-3.58,0.467-5.188c0.584-6.428,0.97-10.71,0.97-10.71L80.422,145.755
	L80.422,145.755z"/>
<path fill="#8C6239" d="M52,215.38h-0.03c3.905-3,9.48-5.729,9.48-5.729c2.8-1.904,0.854-6.233,0.854-6.233
	c0.93-4.965,15.434,0.42,15.434,0.42s-1.526,7.197-0.063,9.226c1.47,2.021,0.215,8.32,0.215,8.32h-0.018
	c0.1,0-0.916,0.471-0.916,0.471l-35.19,0.112l-0.028-2.864c2.964-1.729,6.6-3.72,10.262-3.72V215.38z"/>
<path fill="#F2C49C" d="M80.917,110.967c0,0-0.658,0.537-1.808,1.48c-1.17,0.998-2.83,2.476-4.7,4.352
	c-3.68,3.71-8.38,9.24-10.51,15.02c-1.02,2.861-1.33,5.591-0.73,7.791c0.22,1.13,0.76,2.13,1.28,3.1c0.33,0.46,0.66,0.91,0.97,1.35
	c0.39,0.41,0.76,0.82,1.12,1.211c0.81,0.729,1.54,1.439,2.34,1.97c0.8,0.53,1.42,1.06,2.07,1.39l1.94,1.12l-5.17,9.64
	c0,0-0.92-0.55-2.54-1.51c-0.81-0.439-1.75-1.189-2.85-1.96c-1.09-0.771-2.27-1.86-3.51-3.05l-1.85-2.051
	c-0.58-0.799-1.18-1.619-1.76-2.51c-1.06-1.85-2.06-3.949-2.56-6.3c-1.16-4.71-0.35-9.77,1.22-13.96c1.62-4.21,3.89-7.83,6.22-10.92
	c2.35-3.08,4.75-5.69,6.89-7.81c2.14-2.12,4.02-3.76,5.38-4.9c0.69-0.57,1.24-1.01,1.61-1.31l0.61-0.48l6.28,8.24L80.917,110.967z
	 M90.083,100.004c0,0,0.232,0.076,0.667,0.222c0.51,0.168,1.152,0.413,1.933,0.724c1.566,0.643,3.757,1.59,6.236,2.982
	c2.5,1.347,5.28,3.148,8.11,5.297c2.8,2.17,5.66,4.69,8.2,7.53c1.35,1.34,2.45,2.91,3.65,4.35c1.18,1.45,2.12,3.06,3.14,4.52
	c1,1.48,1.74,3.051,2.56,4.48c0.84,1.41,1.39,2.859,1.97,4.16c0.54,1.319,1.16,2.489,1.48,3.6c0.36,1.1,0.68,2.061,0.94,2.85
	c0.52,1.58,0.811,2.48,0.811,2.48l-10.561,2.8l-0.62-2.12c-0.2-0.68-0.44-1.5-0.71-2.439c-0.23-0.971-0.74-1.94-1.15-3.07
	c-0.46-1.11-0.86-2.36-1.53-3.561c-0.65-1.209-1.21-2.56-2.01-3.819c-0.82-1.25-1.54-2.64-2.5-3.89c-0.97-1.24-1.83-2.6-2.94-3.76
	c-2.05-2.47-4.4-4.68-6.72-6.62c-2.34-1.91-4.66-3.54-6.76-4.76c-2.06-1.27-3.88-2.12-5.12-2.69l-1.39-0.58l-0.52-0.2l2.8-8.54
	L90.083,100.004z"/>
<path fill="#00A99D" d="M88.29,98.275c0,0,8.96-5.258,23.762,10.515L99.59,122.033c0,0-7.598-7.79-14.022-6.23"/>
<polygon fill="#00A99D" points="99.588,150.514 67.456,145.473 73.103,95.381 91.797,95.381 "/>
<path fill="#00A99D" d="M74.246,96.44c0,0-12.047-0.112-17.24,24.814l15.062,10.904c0,0-0.718-17.916,5.71-16.355"/>
<path fill="#C69C6D" d="M89.46,95.548l-7.01,10.128l-7.787-10.908"/>
<path fill="#E2B593" d="M102.365,72.2c0,4.612,0.67,8.353,3.905,8.353s7.81-0.867,7.81-8.354c0-4.62-2.622-8.36-5.856-8.36
	c-3.236,0-5.86,3.74-5.86,8.35L102.365,72.2z"/>
<path fill="#C69C6D" d="M103.338,72.167c0.008-1.29,0.275-2.762,0.91-4.015c0.32-0.637,0.727-1.256,1.305-1.792
	c0.572-0.524,1.385-0.974,2.327-0.987c0.362,0.035,0.29,0.003,0.623,0.073c0.272,0.058,0.505,0.14,0.684,0.23
	c0.405,0.175,0.727,0.426,1.024,0.685c0.58,0.54,0.58,1.16,0.9,1.8c0.64,1.28,0.51,2.67,0.51,4.05v0.16c0,0.91-0.31,1.65-1.22,1.66
	c-0.9,0.01-1.44-0.71-1.45-1.62c0-0.06,0.1-0.13,0.11-0.2c0.1-0.91,0.08-1.9-0.22-2.74c-0.27-0.87-0.82-1.42-0.98-1.47
	c-0.1-0.05-0.35-0.04-0.67,0.18c-0.31,0.22-0.46,0.58-0.73,1.01c-0.55,0.88-0.83,1.88-0.83,3.07v0.05c0,0.54-0.71,0.92-1.23,0.87
	c-0.5-0.05-1.05-0.48-1.04-0.98L103.338,72.167z"/>
<path fill="#E2B593" d="M64.32,72.2c0,4.612-0.67,8.353-3.905,8.353c-3.232,0-7.808-0.867-7.808-8.354c0-4.62,2.622-8.36,5.856-8.36
	c3.236,0,5.858,3.74,5.858,8.35L64.32,72.2z"/>
<path fill="#C69C6D" d="M63.348,72.167c-0.008-1.29-0.275-2.762-0.91-4.015c-0.32-0.637-0.727-1.256-1.305-1.792
	c-0.572-0.524-1.385-0.974-2.33-0.987c-0.36,0.035-0.286,0.003-0.622,0.073c-0.27,0.058-0.5,0.14-0.68,0.23
	c-0.4,0.175-0.72,0.426-1.02,0.685c-0.57,0.54-0.3,1.16-0.62,1.8c-0.63,1.28-0.23,2.67-0.23,4.05v0.16c0,0.91,0.03,1.65,0.94,1.66
	c0.91,0.01,1.31-0.71,1.32-1.62c0-0.06-0.17-0.13-0.17-0.2c-0.1-0.91-0.11-1.9,0.19-2.74c0.28-0.87,0.8-1.42,0.96-1.47
	c0.1-0.05,0.34-0.04,0.67,0.18c0.32,0.22,0.23,0.58,0.51,1.01c0.55,0.88,0.61,1.88,0.61,3.07v0.05c0,0.54,0.94,0.92,1.46,0.87
	c0.5-0.05,1.28-0.48,1.27-0.98L63.348,72.167z"/>
<path fill="#F2C49C" d="M106.042,80.45c0,16.407-15.77,17.826-22.804,17.826c-8.007,0-22.803-1.42-22.803-17.827
	c0-16.42-1.7-37.49,22.803-37.49c24.745,0,22.804,21.07,22.804,37.48V80.45z"/>
<path fill="#333333" d="M56.148,62.215l4.37,12.613l6.305-14.717 M110.327,63.031l-4.155,11.81l-6.308-14.71"/>
<path fill="#F5F5F5" d="M79.02,72.174c0,3.75-3.04,6.792-6.79,6.792s-6.79-3.04-6.79-6.792c0-3.747,3.04-6.783,6.79-6.783
	s6.79,3.04,6.79,6.79V72.174z"/>
<path fill="#333333" d="M77.003,72.013c0,2.606-2.104,4.718-4.71,4.718c-2.602,0-4.714-2.11-4.714-4.71s2.11-4.7,4.71-4.7
	s4.71,2.1,4.71,4.7L77.003,72.013z"/>
<path fill="#F5F5F5" d="M102.31,72.174c0,3.75-3.042,6.792-6.79,6.792c-3.753,0-6.79-3.04-6.79-6.792
	c0-3.747,3.037-6.783,6.79-6.783c3.748,0,6.79,3.04,6.79,6.79V72.174z"/>
<path fill="#333333" d="M100.294,72.013c0,2.606-2.11,4.718-4.715,4.718s-4.72-2.11-4.72-4.71s2.11-4.7,4.71-4.7
	s4.71,2.11,4.71,4.71L100.294,72.013z"/>
<g>
	<defs>
		<path id="SVGID_1_" d="M86.62,71.38v11.372c0,0-0.724,2.184-3.876,3.153l0.31-3.153l-0.318-12.155"/>
	</defs>
	<clipPath id="SVGID_2_">
		<use xlink:href="#SVGID_1_"  overflow="visible"/>
	</clipPath>
	<path clip-path="url(#SVGID_2_)" fill="#FF585D" d="M82.62,71.38h4v15h-4V71.38z"/>
</g>
<g>
	<defs>
		<path id="SVGID_3_" d="M86.62,71.38v11.372c0,0-0.724,2.184-3.876,3.153l0.31-3.153l-0.318-12.155"/>
	</defs>
	<clipPath id="SVGID_4_">
		<use xlink:href="#SVGID_3_"  overflow="visible"/>
	</clipPath>
	<path clip-path="url(#SVGID_4_)" fill="#FF595E" d="M82.62,84.38h4v2h-4V84.38z"/>
</g>
<g>
	<defs>
		<path id="SVGID_5_" d="M86.62,71.38v11.372c0,0-0.724,2.184-3.876,3.153l0.31-3.153l-0.318-12.155"/>
	</defs>
	<clipPath id="SVGID_6_">
		<use xlink:href="#SVGID_5_"  overflow="visible"/>
	</clipPath>
	<path clip-path="url(#SVGID_6_)" fill="#FF5B5F" d="M82.62,82.38h4v2h-4V82.38z"/>
</g>
<g>
	<defs>
		<path id="SVGID_7_" d="M86.62,71.38v11.372c0,0-0.724,2.184-3.876,3.153l0.31-3.153l-0.318-12.155"/>
	</defs>
	<clipPath id="SVGID_8_">
		<use xlink:href="#SVGID_7_"  overflow="visible"/>
	</clipPath>
	<path clip-path="url(#SVGID_8_)" fill="#FF5D61" d="M82.62,79.38h4v3h-4V79.38z"/>
</g>
<g>
	<defs>
		<path id="SVGID_9_" d="M86.62,71.38v11.372c0,0-0.724,2.184-3.876,3.153l0.31-3.153l-0.318-12.155"/>
	</defs>
	<clipPath id="SVGID_10_">
		<use xlink:href="#SVGID_9_"  overflow="visible"/>
	</clipPath>
	<path clip-path="url(#SVGID_10_)" fill="#FF5E62" d="M82.62,75.38h4v4h-4V75.38z"/>
</g>
<g>
	<defs>
		<path id="SVGID_11_" d="M86.62,71.38v11.372c0,0-0.724,2.184-3.876,3.153l0.31-3.153l-0.318-12.155"/>
	</defs>
	<clipPath id="SVGID_12_">
		<use xlink:href="#SVGID_11_"  overflow="visible"/>
	</clipPath>
	<path clip-path="url(#SVGID_12_)" fill="#FF6064" d="M82.62,72.38h4v3h-4V72.38z M82.62,71.38h4v1h-4V71.38z"/>
</g>
<path fill="#333333" d="M80.78,87.54c-0.664,0-1.278-0.423-1.49-1.085c-0.257-0.82,0.194-1.693,1.017-1.957
	c1.696-0.542,2.15-1.287,2.155-1.606l-0.01-12.272c0-0.858,1.22-1.558,2.082-1.558c0.86,0,2.086,0.7,2.086,1.558v12.133v-0.004
	c0,0-0.14,3.22-4.844,4.72C81.621,87.509,80.933,87.539,80.78,87.54L80.78,87.54z"/>
<path fill="#333333" d="M82.584,92.494c-6.116,0-9.97-2.73-10.21-2.9c-0.694-0.507-0.847-1.479-0.342-2.177
	c0.505-0.692,1.48-0.853,2.168-0.347c0.303,0.207,7.45,5.153,17.79-0.124c0.766-0.386,1.7-0.087,2.095,0.68
	c0.39,0.767,0.088,1.7-0.677,2.093c-4.07,2.07-7.737,2.771-10.824,2.771V92.494z"/>
<path fill="#333333" d="M99.977,50.41c0,0-6.793,8.247-21.346,9.218l7.12-7.278c0,0-15.771,10.51-23.861,10.51l-1.94,0.243
	l-2.183,3.517c0,0-6.915-11.16-3.88-17.223c0,0,1.132-1.737-2.75,0.204c0,0,7.316-19.69,35.092-17.62c0,0,14.96,2.26,16.41,7.48
	c1.11,3.99-2.67,10.96-2.67,10.96L99.977,50.41z"/>
<path fill="#333333" d="M98.034,48.792c0,0,0,11.16,3.884,15.524l7.27,1.36c0,0,4.617-10.82,4.617-13.732
	c0-2.912-1.698-12.13-11.887-11.157C91.728,41.755,98.034,48.792,98.034,48.792z"/>
<path fill="#333333" d="M86.344,62.966c-0.05,0.042,0.96-0.682,2.48-1.403c0.75-0.414,1.686-0.726,2.675-1.147
	c0.5-0.177,1.03-0.32,1.58-0.486c0.54-0.144,1.08-0.358,1.66-0.424c1.16-0.146,2.31-0.485,3.44-0.42
	c1.11,0.027,2.18-0.108,3.08,0.093c1.82,0.32,3.03,0.54,3.03,0.54c1.53,0.28,2.55,1.75,2.27,3.28c-0.28,1.53-1.75,2.55-3.29,2.27
	c-0.13-0.03-0.26-0.06-0.39-0.1l-0.47-0.17l-2.09-0.7c-0.62-0.27-1.43-0.24-2.27-0.41c-0.84-0.21-1.79-0.04-2.72-0.08
	c-0.48-0.03-0.95,0.09-1.42,0.14c-0.47,0.07-0.93,0.13-1.38,0.2c-0.88,0.23-1.73,0.37-2.41,0.63c-1.43,0.43-2.21,0.84-2.27,0.86
	c-0.75,0.43-1.7,0.17-2.13-0.58c-0.43-0.75-0.17-1.7,0.58-2.12L86.344,62.966z"/>
<path fill="#333333" d="M79.31,65.666c-0.063-0.015-0.848-0.432-2.266-0.86c-0.684-0.263-1.54-0.4-2.413-0.634l-1.38-0.202
	c-0.46-0.047-0.93-0.167-1.4-0.142c-0.94,0.042-1.89-0.125-2.73,0.08c-0.84,0.17-1.65,0.143-2.27,0.414l-2.08,0.7l-0.46,0.16
	c-1.47,0.496-3.07-0.3-3.57-1.77c-0.5-1.48,0.29-3.083,1.77-3.585c0.13-0.042,0.27-0.075,0.4-0.1c0,0,1.21-0.222,3.03-0.55
	c0.9-0.2,1.97-0.065,3.09-0.093c1.13-0.063,2.28,0.275,3.44,0.42c0.59,0.066,1.13,0.28,1.68,0.425c0.55,0.16,1.08,0.3,1.59,0.48
	c0.99,0.42,1.93,0.73,2.68,1.14c1.53,0.72,2.53,1.44,2.48,1.4c0.75,0.42,1.01,1.37,0.58,2.12s-1.38,1.01-2.12,0.58L79.31,65.666z"/>
<path fill="#00A99D" d="M82.888,141.994l10.37,2.726l6.33,5.876l0.1,0.864l-1.658-0.08H73.784c-0.292-5-6.328-5.907-6.328-5.907
	l2.628-2.762l12.804-0.71V141.994z"/>
<path fill="#754C24" d="M162.279,142.54l-0.484,22.84h10.617c0,0,1.352-2.883,3.566-2.883c1.879,0,2.92,1.68,2.92,1.68l10.846,0.156
	l-0.068-22.224"/>
<path fill="#754C24" d="M175.066,147.156c0,0-0.267,0.914-0.738,2.516c-0.17,1.463-0.48,3.502-0.86,5.926
	c-0.1,0.604-0.2,1.23-0.306,1.883c-0.092,0.683-0.105,1.502-0.162,2.281c-0.109,1.582-0.234,3.25-0.359,4.975
	c-0.261,3.447-0.545,7.115-0.828,10.787c-0.016,7.496-0.22,14.988-0.289,20.603c-0.051,2.808-0.09,5.144-0.119,6.784
	c-0.018,0.816-0.029,0.91-0.039,1.348c-0.047,0.442-1.348,0.124-1.276,0.124h-11.31c0.07,0-1.221,0.308-1.24-0.142
	c0.02-0.45,0.04-0.844,0.07-1.686c0.07-1.684,0.17-3.96,0.279-6.85c0.11-2.891,0.25-6.189,0.4-9.807
	c0.15-3.609,0.27-7.43,0.529-11.279c0.511-3.891,1.021-7.76,1.5-11.41c0.24-1.82,0.48-3.57,0.711-5.23
	c0.14-0.84,0.21-1.619,0.39-2.439c0.21-0.859,0.42-1.68,0.601-2.471c0.81-3.149,1.479-5.76,2-7.549l1.01-2.41l10,4.02
	L175.066,147.156z M187.904,144.816l1.025,9.26c0.279,2.787,0.729,6,0.93,9.525c0.26,3.517,0.529,7.26,0.81,11.006l2.2,30.031
	l-14.439,0.322l-0.361-29.529l-0.129-10.861c0.02-3.449-0.24-6.729-0.351-9.52c-0.28-5.58-0.46-9.31-0.46-9.31l10.74-0.91
	L187.904,144.816z"/>
<path fill="#FFDDBB" d="M170.88,108.313l-0.517,0.273c-0.318,0.184-0.785,0.448-1.381,0.786c-1.229,0.733-3.002,1.82-5.031,3.288
	c-4.1,2.877-9.25,7.24-13.62,12.242c-2.22,2.465-4.22,5.112-5.94,7.678c-0.92,1.246-1.619,2.559-2.35,3.77
	c-0.75,1.195-1.359,2.375-1.88,3.487c-1.149,2.174-1.91,4.065-2.41,5.399c-0.53,1.324-0.83,2.078-0.83,2.078l-10.25-3.819
	l1.05-2.407c0.65-1.54,1.62-3.72,3.03-6.205c0.66-1.27,1.42-2.609,2.33-3.967c0.89-1.37,1.771-2.85,2.86-4.246
	c2.07-2.875,4.459-5.81,7.07-8.507c5.149-5.48,11.029-10.122,15.719-13.177c2.33-1.555,4.371-2.72,5.83-3.52
	c0.771-0.403,1.371-0.716,1.78-0.927l0.62-0.31l3.96,8.08L170.88,108.313z"/>
<path fill="#29B9CC" d="M169.293,98.275c0,0-8.957-5.258-23.758,10.515L158,122.033c0,0,7.592-7.79,14.018-6.23"/>
<polygon fill="#29B9CC" points="157.992,150.514 192.271,150.533 184.482,95.381 165.79,95.381 "/>
<path fill="#29B9CC" d="M184.482,96.523c0,0,10.901-0.195,16.098,24.73l-15.063,10.904c0,0,0.719-17.916-5.707-16.355"/>
<path fill="#DBB99C" d="M168.125,95.548l7.012,10.128l7.79-10.908"/>
<path fill="#29B9CC" d="M160.736,210.836c-0.307-0.493-0.617-0.925-0.922-1.302c-1.154-1.425-2.25-2.07-3.242-2.257
	c-0.221,0.615-0.605,1.91-1.283,2.371c0,0-5.57,2.731-9.48,5.731h0.03c-3.61,3-7.3,1.84-10.271,3.565l0.021,3.074l35.19,0.014
	c0,0,1.01-0.653,0.92-0.653h0.01c0,0,0.7-3.835,0.43-6.315c-2.77,0.877-8.09,1.065-11.439-4.229L160.736,210.836z"/>
<path fill="#C7B299" d="M135.62,221.38h37v3h-37V221.38z"/>
<path fill="#FFFFFF" d="M159.275,209.275c0,0-6.326,4.386-3.894,5.455c2.433,1.07,7.69-0.97,7.69-0.97s-1.654-4.19-3.797-4.479
	V209.275z M167.488,97.236l1.686,12.596l5.963-4.156l-6.479-9.998L167.488,97.236z M181.37,97.236l-1.683,12.596l-5.965-4.156
	l6.479-9.998L181.37,97.236z"/>
<path fill="#F4D1B0" d="M193.96,72.2c0,4.612,0.67,8.353,3.905,8.353c3.236,0,7.813-0.867,7.813-8.354c0-4.62-2.623-8.36-5.859-8.36
	c-3.234,0-5.857,3.74-5.857,8.35L193.96,72.2z"/>
<path fill="#C69C6D" d="M194.934,72.167c0.01-1.29,0.28-2.762,0.908-4.015c0.322-0.637,0.73-1.256,1.305-1.792
	c0.572-0.524,1.386-0.974,2.332-0.987c0.351,0.035,0.28,0.003,0.621,0.073c0.27,0.058,0.5,0.14,0.68,0.23
	c0.4,0.175,0.72,0.426,1.02,0.685c0.57,0.54,1.28,1.16,1.6,1.8c0.631,1.28,1.201,2.67,1.201,4.05v0.16c0,0.91-1.021,1.65-1.92,1.66
	c-0.91,0.01-1.801-0.71-1.811-1.62c0-0.06-0.07-0.13-0.061-0.2c0.09-0.91-0.02-1.9-0.32-2.74c-0.279-0.87-0.859-1.42-1.02-1.47
	c-0.1-0.05-0.369-0.04-0.689,0.18c-0.32,0.22-0.65,0.58-0.93,1.01c-0.551,0.88-0.881,1.88-1.011,3.07l-0.01,0.05
	c-0.06,0.54-0.54,0.92-1.07,0.87c-0.5-0.05-0.87-0.48-0.87-0.98L194.934,72.167z"/>
<path fill="#F4D1B0" d="M154.287,72.2c0,4.612-0.67,8.353-3.904,8.353c-3.236,0-7.813-0.867-7.813-8.354
	c0-4.62,2.623-8.36,5.859-8.36c3.234,0,5.857,3.74,5.857,8.35V72.2z"/>
<path fill="#C69C6D" d="M153.314,72.167c-0.01-1.29-0.28-2.762-0.908-4.015c-0.324-0.637-0.73-1.256-1.307-1.792
	c-0.58-0.524-1.391-0.974-2.33-0.987c-0.36,0.035-0.291,0.003-0.631,0.073c-0.279,0.058-0.51,0.14-0.689,0.23
	c-0.4,0.175-0.73,0.426-1.03,0.685c-0.58,0.54-0.79,1.16-1.11,1.8c-0.629,1.28-0.709,2.67-0.709,4.05v0.16
	c0,0.91,0.52,1.65,1.42,1.66c0.91,0.01,1.549-0.71,1.56-1.62c0-0.06-0.06-0.13-0.07-0.2c-0.1-0.91-0.04-1.9,0.25-2.74
	c0.271-0.87,0.83-1.42,0.979-1.47c0.091-0.05,0.351-0.04,0.681,0.18c0.31,0.22,0.64,0.58,0.91,1.01c0.55,0.88,0.88,1.88,1,3.07
	l0.01,0.05c0.06,0.54,0.53,0.92,1.06,0.87c0.5-0.05,0.871-0.48,0.871-0.98L153.314,72.167z"/>
<path fill="#FFDDBB" d="M151.543,80.45c0,16.407,15.77,17.826,22.807,17.826c8.004,0,22.797-1.42,22.797-17.827
	c0-16.42,1.703-37.49-22.797-37.49c-24.744,0-22.807,21.07-22.807,37.48V80.45z"/>
<path fill="#754C24" d="M201.438,62.215l-4.369,12.613l-6.307-14.717"/>
<path fill="#F5F5F5" d="M178.57,72.174c0,3.75,3.033,6.792,6.787,6.792c3.748,0,6.789-3.04,6.789-6.792
	c0-3.747-3.041-6.783-6.789-6.783c-3.754,0-6.787,3.04-6.787,6.79V72.174z"/>
<path fill="#333333" d="M180.582,72.013c0,2.606,2.104,4.718,4.71,4.718c2.601,0,4.714-2.11,4.714-4.71s-2.113-4.7-4.713-4.7
	c-2.607,0-4.71,2.11-4.71,4.71L180.582,72.013z"/>
<path fill="#F5F5F5" d="M155.277,72.174c0,3.75,3.039,6.792,6.789,6.792s6.793-3.04,6.793-6.792c0-3.747-3.051-6.783-6.801-6.783
	s-6.789,3.04-6.789,6.79L155.277,72.174z"/>
<path fill="#333333" d="M157.29,72.013c0,2.606,2.112,4.718,4.716,4.718c2.602,0,4.715-2.11,4.715-4.71s-2.109-4.7-4.71-4.7
	c-2.6,0-4.71,2.11-4.71,4.71L157.29,72.013z"/>
<g>
	<defs>
		<path id="SVGID_13_" d="M172.62,71.38v11.372c0,0-0.104,2.184,3.05,3.153l-0.73-3.153l0.945-12.155"/>
	</defs>
	<clipPath id="SVGID_14_">
		<use xlink:href="#SVGID_13_"  overflow="visible"/>
	</clipPath>
	<path clip-path="url(#SVGID_14_)" fill="#FF595E" d="M173.262,83.39h2v2h-2V83.39z"/>
</g>
<g>
	<defs>
		<path id="SVGID_15_" d="M172.62,71.38v11.372c0,0-0.104,2.184,3.05,3.153l-0.73-3.153l0.945-12.155"/>
	</defs>
	<clipPath id="SVGID_16_">
		<use xlink:href="#SVGID_15_"  overflow="visible"/>
	</clipPath>
	<path clip-path="url(#SVGID_16_)" fill="#FF5B5F" d="M173.262,81.39h2v2h-2V81.39z"/>
</g>
<g>
	<defs>
		<path id="SVGID_17_" d="M172.62,71.38v11.372c0,0-0.104,2.184,3.05,3.153l-0.73-3.153l0.945-12.155"/>
	</defs>
	<clipPath id="SVGID_18_">
		<use xlink:href="#SVGID_17_"  overflow="visible"/>
	</clipPath>
	<path clip-path="url(#SVGID_18_)" fill="#FF5C60" d="M173.262,80.39h2v1h-2V80.39z"/>
</g>
<g>
	<defs>
		<path id="SVGID_19_" d="M172.62,71.38v11.372c0,0-0.104,2.184,3.05,3.153l-0.73-3.153l0.945-12.155"/>
	</defs>
	<clipPath id="SVGID_20_">
		<use xlink:href="#SVGID_19_"  overflow="visible"/>
	</clipPath>
	<path clip-path="url(#SVGID_20_)" fill="#FF5D61" d="M173.262,78.39h2v2h-2V78.39z"/>
</g>
<g>
	<defs>
		<path id="SVGID_21_" d="M172.62,71.38v11.372c0,0-0.104,2.184,3.05,3.153l-0.73-3.153l0.945-12.155"/>
	</defs>
	<clipPath id="SVGID_22_">
		<use xlink:href="#SVGID_21_"  overflow="visible"/>
	</clipPath>
	<path clip-path="url(#SVGID_22_)" fill="#FF5E62" d="M173.62,75.38h2v4h-2V75.38z"/>
</g>
<g>
	<defs>
		<path id="SVGID_23_" d="M172.62,71.38v11.372c0,0-0.104,2.184,3.05,3.153l-0.73-3.153l0.945-12.155"/>
	</defs>
	<clipPath id="SVGID_24_">
		<use xlink:href="#SVGID_23_"  overflow="visible"/>
	</clipPath>
	<path clip-path="url(#SVGID_24_)" fill="#FF5F63" d="M173.262,73.39h2v1h-2V73.39z"/>
</g>
<g>
	<defs>
		<path id="SVGID_25_" d="M172.62,71.38v11.372c0,0-0.104,2.184,3.05,3.153l-0.73-3.153l0.945-12.155"/>
	</defs>
	<clipPath id="SVGID_26_">
		<use xlink:href="#SVGID_25_"  overflow="visible"/>
	</clipPath>
	<path clip-path="url(#SVGID_26_)" fill="#FF6064" d="M173.262,71.39h2v2h-2V71.39z M173.262,69.39h2v2h-2V69.39z"/>
</g>
<path fill="#333333" d="M177.6,87.54c-0.154,0-0.315-0.022-0.47-0.07c-4.774-1.52-4.319-4.817-4.302-4.955l-0.018-11.896
	c0-0.86,0.541-1.56,1.402-1.56c0.863,0,1.405,0.7,1.405,1.56v12.13c0,0.46,0.6,1.2,2.3,1.74c0.82,0.26,1.35,1.14,1.09,1.95
	c-0.21,0.66-0.746,1.08-1.408,1.08V87.54z M175.002,92.494c-3.09,0-6.754-0.694-10.822-2.775c-0.768-0.4-1.072-1.33-0.682-2.1
	c0.398-0.77,1.336-1.07,2.1-0.68c10.435,5.33,17.711,0.18,17.78,0.12c0.694-0.51,1.67-0.36,2.177,0.34
	c0.504,0.69,0.354,1.67-0.344,2.17c-0.23,0.17-4.09,2.9-10.199,2.9L175.002,92.494z"/>
<path fill="#754C24" d="M157.609,50.41c0,0,6.789,8.247,21.344,9.218l-7.113-7.278c0,0,15.768,10.51,23.855,10.51l1.943,0.243
	l2.18,3.517c0,0,6.914-11.16,3.885-17.222c0,0-1.137-1.738,2.746,0.204c0,0-7.32-19.69-35.1-17.627c0,0-14.961,2.26-16.42,7.477
	c-1.111,3.986,2.67,10.957,2.67,10.957L157.609,50.41z"/>
<path fill="#754C24" d="M159.55,48.792c0,0,0,11.16-3.88,15.524l-7.273,1.36c0,0-4.614-10.82-4.614-13.732
	c0-2.912,1.7-12.13,11.89-11.157c10.188,0.968,3.88,8.005,3.88,8.005H159.55z"/>
<path fill="#754C24" d="M176.73,62.966c-0.053,0.042,0.953-0.682,2.479-1.403c0.745-0.414,1.687-0.726,2.67-1.147
	c0.511-0.177,1.046-0.32,1.587-0.486c0.547-0.144,1.088-0.358,1.674-0.424c1.16-0.146,2.301-0.485,3.44-0.42
	c1.12,0.027,2.181-0.108,3.08,0.093c1.819,0.32,3.04,0.54,3.04,0.54c1.54,0.28,2.561,1.75,2.279,3.28
	c-0.27,1.53-1.75,2.55-3.279,2.27c-0.131-0.03-0.26-0.06-0.381-0.1l-0.479-0.17l-2.069-0.7c-0.621-0.27-1.431-0.24-2.271-0.41
	c-0.84-0.21-1.78-0.04-2.729-0.08c-0.471-0.03-0.931,0.09-1.4,0.14l-1.38,0.2c-0.87,0.23-1.729,0.37-2.41,0.63
	c-1.42,0.43-2.2,0.84-2.271,0.86c-0.74,0.43-1.689,0.17-2.119-0.58s-0.17-1.7,0.58-2.12L176.73,62.966z"/>
<polyline fill="#754C24" points="147.006,61.954 150.879,74.828 157.18,60.111 "/>
<path fill="#754C24" d="M169.697,65.667c-0.063-0.016-0.848-0.433-2.268-0.862c-0.691-0.262-1.551-0.398-2.421-0.633l-1.38-0.202
	c-0.47-0.047-0.939-0.167-1.41-0.142c-0.939,0.042-1.89-0.125-2.73,0.08c-0.84,0.17-1.649,0.143-2.27,0.414l-2.08,0.7l-0.459,0.16
	c-1.48,0.496-3.08-0.3-3.58-1.777c-0.5-1.473,0.289-3.08,1.77-3.578c0.119-0.042,0.27-0.08,0.39-0.1c0,0,1.21-0.222,3.03-0.55
	c0.9-0.2,1.96-0.065,3.08-0.093c1.13-0.063,2.27,0.275,3.43,0.42c0.58,0.066,1.12,0.28,1.67,0.425c0.54,0.16,1.07,0.3,1.58,0.48
	c0.99,0.42,1.93,0.73,2.67,1.14c1.53,0.72,2.53,1.44,2.48,1.4c0.75,0.42,1.01,1.37,0.58,2.12s-1.381,1.01-2.12,0.58L169.697,65.667z
	"/>
</svg>
