<svg xmlns="http://www.w3.org/2000/svg" width="256" height="256" viewBox="0 0 256 256"><path fill="#333" d="M129.885 231.602c-18.807 0-33.515-2.845-44.964-8.694-17.02-8.703-26.18-23.65-27.27-44.47-21.16-.793-25.66-16.104-25.66-29.004 0-11.29 4.8-21.348 12.07-26.11-5.58-11.88-10.41-26.64-7.68-38.49-.28.14-.59.29-.91.45-.56.29-1.18.42-1.78.42-.96 0-1.92-.35-2.67-1.02-1.22-1.1-1.65-2.83-1.07-4.37.21-.58 5.44-14.36 20.08-28.16C63.43 39.48 87.66 24.4 126.9 24.4c3.99 0 8.12.16 12.273.47.104.01.205.02.306.04 4.85.74 47.54 7.68 52.45 25.3.08.295.16.596.23.904 27.31 1.163 33.37 27.38 33.37 37.62 0 5-3.53 16.34-10.48 33.72-.04.27-.1.54-.19.81l-.12.36c7.07 4.89 11.61 14.74 11.61 25.81 0 12.6-4.3 27.494-24.21 28.92-1.89 34.38-27.39 53.246-72.23 53.246l-.05.002h.02zM126.878 28.4c3.843 0 7.836.145 11.978.453 0 0 44.84 6.783 49.203 22.416.33 1.19.51 2.47.58 3.81.54-.02 1.07-.03 1.59-.03 26.67 0 31.27 25.37 31.27 33.66 0 5.96-6.46 22.98-10.55 33.17l.12.03-1.24 3.52c7.23 3.1 12.49 12.66 12.49 23.96 0 22.43-13.72 25.03-23.41 25.03-.24 0-.47-.03-.69-.03-.19 48.92-47.3 53.15-68.35 53.15-23.98 0-68.29-4.24-68.35-53.35-.67.11-1.39.19-2.15.19-9.69 0-23.41-2.6-23.41-25.04 0-11.78 5.7-21.65 13.39-24.32C43.83 114.08 35.5 93.78 41.88 81c0 0 1.4-2.14-.67-2.14-1.16 0-3.4.66-7.57 2.75 0 0 19.8-53.29 93.21-53.29"/><path fill="#333" d="M126.85 20.34c-40.55 0-65.68 15.67-79.63 28.82-15.31 14.45-20.86 29.07-21.09 29.69-1.14 3.08-.29 6.54 2.16 8.74.98.88 2.14 1.48 3.36 1.79-.69 10.65 2.93 22.45 7.39 32.61-6.85 5.96-11.09 16.01-11.09 27.38 0 12.57 3.8 21.77 11.29 27.35 3.97 2.95 8.79 4.73 14.65 5.39 2.04 20.3 12.02 35.52 29.17 44.29 12.03 6.15 27.33 9.13 46.78 9.13 18.13 0 33.45-3.05 45.56-9.07 17.91-8.896 28.32-24.21 30.4-44.55 5.21-.78 9.57-2.5 13.2-5.21 7.5-5.58 11.3-14.78 11.3-27.35 0-11.08-4.19-21.14-10.91-27.17 10.08-25.5 10.08-31.52 10.08-33.55 0-6.24-1.79-15.85-6.8-24.1-4.41-7.25-12.682-15.77-27.56-17.32-3.394-8.54-13.552-15.34-30.962-20.75-12.19-3.79-23.66-5.54-24.14-5.62-.2-.03-.4-.05-.6-.07-4.25-.31-8.48-.47-12.57-.47l.01.04h.002z"/><path fill="#F4D1B0" d="M187.223 149.434c0 13.83 2.004 25.035 11.7 25.035 9.7 0 23.413-2.6 23.413-25.04 0-13.83-7.86-25.04-17.553-25.04-9.697 0-17.56 11.21-17.56 25.03v.01z"/><path fill="#C69C6D" d="M190.13 149.34c.042-3.876.845-8.29 2.74-12.04.962-1.907 2.18-3.76 3.9-5.366 1.712-1.57 4.152-2.92 6.99-2.955 1.07.1.85 0 1.86.22.81.16 1.51.41 2.05.68 1.2.52 2.17 1.28 3.07 2.05 1.72 1.6 2.562 3.46 3.52 5.36 1.9 3.84 2.354 7.99 2.354 12.13v.48c0 2.71-1.768 4.94-4.48 4.97-2.72.03-4.75-2.14-4.777-4.86 0-.2.1-.41.12-.6.3-2.73.12-5.71-.77-8.22-.83-2.61-2.5-4.26-2.98-4.43-.29-.15-1.07-.13-2.05.53-.95.66-1.92 1.74-2.73 3.01-1.66 2.64-2.65 5.62-3.02 9.2l-.01.14c-.182 1.59-1.61 2.75-3.2 2.58-1.5-.16-2.61-1.45-2.6-2.92l.013.04z"/><path fill="#F4D1B0" d="M71.094 149.434c0 13.83-2.006 25.035-11.703 25.035-9.69 0-23.41-2.6-23.41-25.04 0-13.83 7.86-25.04 17.56-25.04S71.1 135.6 71.1 149.43l-.006.004z"/><path fill="#C69C6D" d="M68.184 149.34c-.037-3.876-.838-8.29-2.734-12.04-.96-1.907-2.186-3.76-3.906-5.366-1.707-1.57-4.152-2.92-6.984-2.955-1.072.1-.855 0-1.863.22-.814.16-1.512.41-2.053.68-1.195.52-2.166 1.28-3.064 2.05-1.723 1.6-1.608 3.46-2.573 5.36-1.893 3.84-1.386 7.99-1.386 12.13v.48c0 2.71.81 4.94 3.52 4.97 2.72.03 4.27-2.14 4.3-4.86 0-.2-.35-.41-.37-.6-.3-2.73-.23-5.71.66-8.22.83-2.61 2.45-4.26 2.92-4.43.29-.15 1.04-.13 2.02.53.95.66 1.9 1.74 2.71 3.01 1.67 2.64 2.64 5.62 3.02 9.2l.01.14c.18 1.59 1.6 2.75 3.19 2.58 1.5-.16 2.61-1.45 2.6-2.92l-.01.04z"/><path fill="#fdb" d="M198.236 174.156c0 49.197-47.262 53.445-68.354 53.445-23.996 0-68.35-4.24-68.35-53.44 0-49.19-5.092-112.34 68.35-112.34 74.17 0 68.354 63.15 68.354 112.35v-.01z"/><path fill="#333" d="M48.69 119.504l13.09 37.81L80.683 113.2m130.4 8.73l-12.45 35.383-18.908-44.11"/><path fill="#F5F5F5" d="M113.446 149.354c0 11.244-9.105 20.356-20.348 20.356-11.243 0-20.354-9.112-20.354-20.356 0-11.23 9.11-20.33 20.354-20.33s20.348 9.098 20.348 20.33z"/><path fill="#333" d="M107.41 148.88c0 7.804-6.317 14.125-14.122 14.125-7.803 0-14.13-6.32-14.13-14.125 0-7.8 6.327-14.116 14.13-14.116 7.805 0 14.12 6.316 14.12 14.116h.002z"/><path fill="#F5F5F5" d="M183.255 149.354c0 11.244-9.104 20.356-20.348 20.356s-20.357-9.112-20.357-20.356c0-11.23 9.115-20.33 20.357-20.33 11.24 0 20.348 9.098 20.348 20.33z"/><path d="M163.093 134.764c-7.8 0-14.13 6.316-14.13 14.116 0 7.806 6.33 14.125 14.13 14.125 7.808 0 14.123-6.32 14.123-14.125 0-7.8-6.318-14.116-14.123-14.116zM155.75 195.2c-32.06 16.362-54.21.897-55.14.23-1.31-.936-3.12-.64-4.05.656-.942 1.3-.653 3.114.642 4.056.688.5 11.81 8.367 29.528 8.367h-.01c9.005-.01 19.738-2.05 31.66-8.13 1.42-.73 2-2.49 1.28-3.91-.73-1.44-2.48-1.99-3.91-1.28zm-29.03 13.314h-.02.02zm61.924-153.427c-.065-1.34-.247-2.625-.58-3.818-4.36-15.64-49.2-22.42-49.2-22.42-83.257-6.18-105.19 52.84-105.19 52.84 11.634-5.82 8.24-.61 8.24-.61-9.09 18.17 11.63 51.63 11.63 51.63l6.54-10.55 3.223-.41c.01.03.012.06.022.09.96 2.74 3.96 4.18 6.7 3.22l.45-.15s.66-.24 1.82-.64c1.15-.46 2.83-1.01 4.92-1.46 2.07-.51 4.56-.92 7.27-1.08 2.7-.24 5.65-.17 8.59.1 5.89.47 11.76 2.04 16.02 3.56 4.2 1.47 6.72 2.82 6.85 2.89l-.03-.03c1.31.69 2.97.31 3.82-.95.89-1.33.52-3.14-.81-4.03l-.04-.03s-2.88-1.91-7.34-3.94c-4.49-2.09-10.74-4.41-17.37-5.58l-.07-.01c21.54-9.33 43.26-23.81 43.26-23.81l-21.32 21.81c30.86-2.06 50.06-15.03 58.66-22.44.57 6.74 1.8 15.8 4.42 23.75-2.27-.27-4.82-.41-7.49-.32-3.21.02-6.59.41-9.9 1.03-6.64 1.17-12.88 3.49-17.37 5.58-4.47 2.03-7.34 3.94-7.34 3.94v-.01H137l.02-.03-.06.04c-1.23.83-1.65 2.48-.93 3.81.76 1.42 2.53 1.94 3.94 1.18 0 0 2.54-1.38 6.86-2.9 4.26-1.52 10.14-3.08 16.03-3.56 2.94-.26 5.88-.33 8.59-.09 2.71.16 5.2.57 7.27 1.08 2.09.45 3.76 1 4.92 1.46l1.334.46c.28.36.57.72.87 1.05l21.8 4.08s13.83-32.43 13.83-41.16c-.003-8.45-4.784-34.66-32.867-33.63zm-72.668 73.223l-.013-.007.006.006z" fill="#333"/><linearGradient id="a" gradientUnits="userSpaceOnUse" x1="216.022" y1="-315.489" x2="216.022" y2="-305.149" gradientTransform="matrix(7.466 0 0 -7.466 -1487.503 -2144.024)"><stop offset="0" stop-color="#FF5459"/><stop offset=".789" stop-color="#FF6064" stop-opacity="0"/></linearGradient><path fill="url(#a)" d="M129.62 148.38v32.23s1.18 6.237-7.83 9.01l2.497-9.01-3.34-34.593"/><path fill="#333" d="M123.004 194.393c-1.23 0-2.38-.79-2.77-2.024-.49-1.53.36-3.17 1.894-3.65 8.004-2.55 7.696-7.12 7.68-7.32l-.018-35.23c0-1.61 1.304-2.91 2.91-2.91 1.61 0 2.92 1.3 2.92 2.91v34.9s1.122 9.1-11.73 13.19c-.288.08-.595.13-.886.13z"/></svg>