<svg xmlns="http://www.w3.org/2000/svg" width="256" height="256" viewBox="0 0 256 256"><path fill="#754C24" d="M60.805 164.38c-11.647 0-19.9-1.007-25.968-2.927-.04-.013-.08-.08-.12-.093-1.613-.567-3.677-1.47-5.435-3.238-1.39-1.28-2.258-3.235-2.335-5.257-.066-1.732.457-3.478 1.478-4.59 1.254-1.457 2.687-1.895 4.263-2.895h.003c.17 0 .33.105.5.08 3.21-1.4 8.09-2.303 15.1-3.004.3-.055 1.03-.14 2.09-.335-.07-10.82 6.37-16.68 10.48-18.56 22.19-15.3 33.24-20.04 33.7-20.24.34-.14.7-.23 1.07-.28.91-.11 1.83-.17 2.75-.17 10.58 0 21.86 7.32 33.56 21.75 14.38-4.93 26.04-11.53 29.96-14.84 13.13-11.1 34.56-17.04 35.47-17.28.19-.05.38-.09.57-.11 2.95-.36 5.74-.54 8.3-.54 14.26 0 18.68 5.5 20.02 9.46.4.49.77 1.04 1.11 1.62.58 1.02 2.3 4.54 1.2 9.39l.53 33.43c.03 1.69-1.01 3.22-2.59 3.81-6.01 2.26-16.27 3.4-30.51 3.4-6.18 0-10.66-.23-10.85-.23-.31-.02-.62-.07-.91-.16l-24.79-1.72c-7.84 2.08-15.92 3.93-24.04 5.52-13.49 2.67-26.82 4.79-39.59 6.08-10.84 1.08-22.26 1.97-34.9 1.97h-.05z"/><path fill="#333" d="M206.21 95.83c9.87 0 15.404 2.9 16.415 7.422.3.305.756.824 1.25 1.67.77 1.344 1.443 3.938.646 6.92l.54 33.948c-6.98 2.617-19.89 3.142-29.1 3.142-6.14 0-10.64-.233-10.64-.233l.01-.1-26.3-1.83c-7.94 2.12-16.15 4.01-24.42 5.62-13.24 2.62-26.61 4.64-39.22 5.92-12.67 1.26-24.38 1.7-34.56 1.84-10.17-.01-18.68-.71-24.76-2.64-1.51-.53-2.89-1.2-3.99-2.33-1.21-1.04-1.44-3.4-.65-4.19 1.35-1.61 2.37-1.63 2.35-1.63.02 0-.05.22-.15.42 2.15-1.3 6.62-2.5 15.24-3.35 0 0 2.24-.38 5.78-1.04-1.97-14.27 8.18-18.35 8.18-18.35 22.32-15.42 33.31-20.07 33.31-20.07.75-.1 1.5-.14 2.25-.14 11.99 0 23.77 11.59 32.16 22.43 15.83-5.09 29.28-12.53 33.94-16.47 12.61-10.67 33.94-16.48 33.94-16.48 2.85-.35 5.46-.52 7.81-.52m0-8c-2.71 0-5.67.19-8.78.57-.38.05-.76.12-1.13.22-.94.26-23.2 6.42-37 18.09-3.34 2.83-13.51 8.6-26.08 13.2-11.88-13.97-23.58-21.05-34.85-21.05-1.08 0-2.18.07-3.24.2-.73.09-1.45.28-2.13.57-.47.2-11.81 5.07-34.16 20.47-4.56 2.25-11.12 8.23-12.28 18.6-6.49.71-11.15 1.7-14.53 3.09-.07.02-.14.03-.21.05l-.06.02c-2.39.54-4.51 1.86-6.31 3.94-1.71 1.89-2.59 4.43-2.48 7.21.12 3.08 1.41 5.96 3.56 7.97 2.34 2.32 5.04 3.45 6.88 4.1.08.03.16.16.25.18 6.47 2.05 15.1 3.11 27.17 3.11h.11c12.76 0 24.29-.89 35.24-1.98 12.91-1.31 26.36-3.39 39.99-6.09 7.95-1.55 15.9-3.4 23.63-5.43l23.77 1.64c.44.1.89.15 1.34.18.19.01 4.78.24 11.06.24 14.72 0 25.46-1.23 31.92-3.65 3.16-1.19 5.24-4.24 5.19-7.62l-.52-33c.8-4.11.19-8.42-1.72-11.73l-.02-.05c-.33-.56-.68-1.09-1.04-1.59-1.86-4.6-7.34-11.48-23.54-11.48z"/><path fill="#9E005D" d="M62.8 127.09s-10.32 4.154-8.14 18.7l52.354-8.725L93.2 115.612l-30.4 11.48z"/><path fill="#42210B" d="M155.186 146.515l31.453 2.183 2.9-13.45z"/><path fill="#C69C6D" d="M34.297 155.24s27.39 8.965 107.865-7.513c85.576-17.526 100.828-56.835 56.236-51.383 0 0-21.336 5.82-33.938 16.48-7.63 6.454-38.775 22.296-65.44 21.814"/><path fill="#8C6239" d="M224.447 107.25s-13.076 20.725-38.168 29.815l-.98 11.633s28.11 1.455 39.75-2.908"/><path fill="#C69C6D" d="M34.297 155.24s-11.266-6.18 14.543-8.726c0 0 51.992-9.45 50.9-10.54"/><path fill="#ED1E79" d="M90.656 151.606l-.72 3.37c27.038-2.9 52.714-7.25 52.714-7.25s-23.268-43.63-46.54-40.72c0 0-10.987 4.66-33.312 20.085 9.65 2.87 21.067 9.47 27.858 24.52z"/><path fill="#754C24" d="M224.307 112.595c-1.068 3.284-3.637 6.47-6.96 9.24-3.358 2.762-7.42 5.313-11.958 7.762-9.12 4.843-20.18 9.34-32.31 13.095-12.12 3.822-25.24 7.126-38.49 9.715-13.25 2.625-26.61 4.646-39.23 5.92-12.67 1.262-24.39 1.703-34.56 1.843-10.17-.005-18.68-.712-24.77-2.636-1.51-.53-2.9-1.193-4-2.33-1.21-1.042-1.44-3.285-.65-4.08 1.35-1.604 2.37-1.443 2.35-1.518.08-.02-.65.903-.65 2.176.04.625.33.676.98 1.008.67.31 1.77.64 3.06.918 5.28 1.173 13.67 1.144 23.58.894 9.93-.244 21.68-.833 34.01-2.198 12.39-1.385 25.55-3.527 38.57-6.257 13.02-2.77 25.94-6.01 37.83-9.67 11.85-3.738 22.78-7.665 31.54-12.086 8.79-4.34 15.1-9.43 17.97-13.49 2.86-4.12 1.46-8.09 1.61-8.01-.05.04.72.53 1.6 2.04.84 1.46 1.58 4.38.43 7.67"/></svg>