<svg xmlns="http://www.w3.org/2000/svg" xmlns:xlink="http://www.w3.org/1999/xlink" width="256" height="256" viewBox="0 0 256 256"><path fill="#333" d="M175.262 226.27c-.563 0-1.082-.185-1.5-.5-.418.315-.938.5-1.5.5h-37c-1.38 0-2.5-1.117-2.5-2.5v-3c0-.444.118-.87.325-1.23l-.007-.874c-.008-.896.467-1.73 1.242-2.18 1.582-.925 3.193-1.25 4.752-1.564 1.808-.37 3.38-.68 4.936-1.89.086-.09.178-.18.278-.25 3.513-2.7 8.166-4.91 9.583-5.55.08-.13.19-.37.35-.81.23-.58.61-1.03 1.11-1.32-.16-.32-.25-.68-.27-1.06v-.23l.03-.48c.02-.25.03-.53.05-1.04l.06-1.39c.07-1.46.15-3.24.23-5.4l.52-12.65c.11-2.74.23-5.56.42-8.43.01-.06.01-.11.02-.17l1.51-11.39.73-5.24c.07-.36.1-.64.15-.92.08-.57.16-1.12.28-1.7 0 0 .43-1.71.55-2.24l.01-.09h-1.56c-.72 0-1.41-.32-1.88-.86-.48-.55-.69-1.27-.59-1.98l3.6-25.59c-.35.17-.73.26-1.12.26H158c-.68-.01-1.33-.29-1.796-.79l-.67-.72c-1.17 1.17-2.28 2.34-3.3 3.51-2.004 2.22-3.93 4.7-5.743 7.42l-.07.102c-.62.84-1.16 1.77-1.68 2.66-.17.31-.35.6-.53.9-.65 1.05-1.22 2.09-1.75 3.25l-.06.12c-.59 1.108-1.12 2.24-1.63 3.46.02.09.03.18.04.27 1.95 2 3.75 4.45 2.96 6.82-.95 3.08-4.59 13.31-10.81 13.31-.57 0-1.14-.09-1.7-.27-1.12-.36-2.07-.74-2.87-1.17-.79.42-1.75.81-2.87 1.16-.56.18-1.13.27-1.7.27-6.22 0-9.85-10.23-10.82-13.36-.77-2.33 1.02-4.77 2.97-6.77.02-.23.06-.46.12-.69l-.58-2c-.1-.41-.31-.91-.55-1.49-.16-.4-.33-.82-.49-1.26-.13-.32-.26-.65-.39-.99-.31-.8-.6-1.56-.99-2.25-.27-.51-.51-1-.76-1.5-.38-.78-.74-1.52-1.18-2.2-.3-.46-.6-.96-.91-1.47-.48-.81-.94-1.57-1.46-2.25-.32-.41-.65-.86-.98-1.31-.59-.82-1.16-1.59-1.78-2.24-.04-.04-.07-.09-.11-.13-.83-1.01-1.75-2-2.77-3.01l-1.68 1.78c-.46.5-1.11.78-1.79.79h-.03c-.39 0-.77-.09-1.12-.27l3.6 25.59c.03.16.03.33.02.49l.07.36c.15.83-.13 1.67-.74 2.25-.47.438-1.09.68-1.72.68-.19 0-.38-.02-.56-.06l-1.08-.25.18 8.41 1.53 17.078c.32 2.89.38 5.77.44 8.56.03 1.48.06 2.93.13 4.36l.21 7.38c2.53.86 3.19 2.76 3.36 3.67.1.51.03 1.04-.19 1.52 0 .01-.86 2.12-.12 2.86 1.17.53 5.53 2.56 9.06 5.12 3.84.29 7.37 2.35 10.25 4.03l.38.21c.78.45 1.25 1.28 1.24 2.18l-.02 3.09c-.01 1.37-1.13 2.48-2.5 2.48l-35.25-.2c-.54 0-1.07-.18-1.5-.51-.35-.27-.72-.56-1.04-.87-.28-.24-.51-.54-.66-.88-.11-.23-.19-.48-.21-.76-.45-2.27-1.14-7.24.69-9.78.36-.75.16-4.09-.47-6.96-.2-.93.14-1.87.84-2.45 0 0-.13-6.24-.21-9.27-.05-1.37-.07-2.84-.09-4.33-.03-2.68-.07-5.46-.34-8.1l-1.2-14.77c-.34-.4-.71-.67-.95-.67-.08 0-.16.04-.25.09-.08.92-.14 1.84-.17 2.75l-1.57 34.57c.52.58.75 1.4.57 2.2-.63 2.87-.84 6.21-.44 7.02 1.82 2.49 1.1 7.51.64 9.76-.02.18-.06.35-.12.51-.15.47-.43.86-.8 1.15-.31.3-.65.57-.98.82-.43.33-.95.51-1.5.52l-35.21.27c-1.37 0-2.48-1.1-2.5-2.48l-.02-3.09c-.01-.89.46-1.73 1.24-2.18l.38-.22c2.88-1.68 6.41-3.74 10.24-4.03 3.53-2.56 7.89-4.59 9.06-5.12.74-.74-.11-2.86-.12-2.88-.21-.46-.28-1-.18-1.5.22-1.19 1.01-3.03 3.69-3.78l1.74-32.67c.03-.56.06-1.13.11-1.7-.02-.13-.03-.27-.03-.41l.01-3.33-1.38-.81c-.7-.38-1.4-.89-2.14-1.43-.29-.21-.59-.43-.91-.66-1.29-.9-2.64-2.17-3.8-3.28-.04-.04-.09-.08-.13-.13l-1.85-2.05c-.06-.07-.12-.14-.17-.22l-.3-.41c-.5-.7-1.02-1.41-1.51-2.18-.03-.04-.05-.08-.08-.13-.92-1.6-2.21-4.08-2.83-7.02-1.12-4.56-.66-10.05 1.33-15.34.8-2.06 1.76-4.06 2.93-6.08.01-.14.03-.28.06-.42 2.84-13.63 7.75-20.34 12-23.64-5.04-3.01-7.94-7.84-8.51-14.23-5.14-.84-7.94-4.55-7.94-10.67 0-3.47 1.23-6.62 3.25-8.62-1.63-3.57-2.99-7.78-2.7-11.53-.43-.08-.84-.28-1.18-.59-.76-.68-1.03-1.77-.67-2.73.3-.79 7.51-19.41 33.44-19.41 1.36 0 2.77.06 4.18.16.06.01.12.01.19.02 3.79.57 16.03 2.87 18.29 8.79 8.34.83 11.42 8.45 11.42 13.66 0 .67 0 2.67-3.4 11.24 2.26 1.97 3.67 5.31 3.67 9.01 0 6.2-2.87 9.93-8.15 10.7-.57 6.12-3.36 10.8-8.19 13.83 3.85 1.69 8.45 4.81 13.64 10.35.9.97.9 2.47 0 3.43l-.65.69c1.41 1.29 2.67 2.56 3.83 3.85 1.02 1.01 1.87 2.1 2.7 3.15.36.45.71.89 1.07 1.33.88 1.08 1.59 2.16 2.28 3.21.33.5.66 1 .99 1.48.75 1.11 1.33 2.19 1.89 3.22.27.49.52.97.79 1.438.7 1.17 1.22 2.37 1.67 3.42.13.3.26.59.39.87.69-1.3 1.4-2.5 2.17-3.65l.57-.9c.73-1.15 1.48-2.33 2.4-3.51 2.27-3.15 4.72-6.1 7.24-8.7 1.32-1.41 2.72-2.8 4.18-4.15l-1.67-1.77c-.91-.96-.92-2.47-.01-3.43 5.15-5.5 9.72-8.61 13.54-10.31-4.91-3.02-7.74-7.68-8.34-13.77-7.63-.66-8.82-6.96-8.82-10.8 0-4.12 1.74-7.73 4.39-9.56-3.18-8.1-3.18-10.03-3.18-10.69 0-5.21 3.07-12.83 11.41-13.65 2.26-5.92 14.51-8.22 18.29-8.79.06-.01.13-.01.19-.02 1.42-.1 2.82-.16 4.18-.16 25.93 0 33.15 18.62 33.44 19.41.36.96.09 2.05-.67 2.73-.34.31-.75.51-1.18.6.28 3.59-.97 7.62-2.5 11.06 2.31 1.94 3.75 5.29 3.75 9.08 0 6.39-3.06 10.16-8.65 10.77-.58 6.19-3.36 10.92-8.16 13.93 4.07 3.22 8.76 9.93 11.66 23.84.2.96-.18 1.96-.98 2.53l-.22.16c.93 2.01 1.67 3.96 2.26 5.92 1.48 4.85 1.86 10.02 1.05 14.53-.7 4.26-2.54 8.58-5.18 12.12-1.02 1.45-2.09 2.62-3.19 3.78-.03.04-.07.08-.11.11-.3.28-.59.56-.86.83-.65.63-1.26 1.22-1.88 1.7l-1.53 1.21.8 10.79c1.1 15.01 2.21 30.02 2.21 30.02.05.68-.18 1.36-.64 1.86-.06.06-.12.13-.19.19.15.398.25.62.32.738 1.42.64 6.07 2.85 9.58 5.54.1.08.19.16.28.25 1.55 1.2 3.13 1.52 4.94 1.88 1.56.32 3.17.64 4.75 1.56.77.45 1.25 1.29 1.24 2.19v.03c.66.45 1.1 1.21 1.1 2.07v3c0 1.38-1.12 2.5-2.5 2.5h-39l-.19.06v-.038zm-3.092-14.01c.48 0 .955.14 1.366.407.353.23.637.542.832.903.194-.36.478-.67.83-.9.41-.27.887-.41 1.368-.41.057 0 .113.004.17.008l-.16-5.644c-.396-.45-.623-1.026-.63-1.632l-.48-40.057c-.112.09-.235.205-.36.344-.242 3.18-.793 10.34-.793 10.34-.014 4.93-.104 9.9-.188 14.27-.042 2.25-.08 4.36-.104 6.25l-.11 6.79c-.01.55-.02.7-.03.83l-.01.22c0 .07 0 .14-.01.21-.11 1.02-.76 1.84-1.68 2.2l-.16 5.85c.06-.01.12-.01.17-.01l-.02.02v.01zM66.254 132.693c-.863 2.416-1.102 4.654-.664 6.27l.02.08.746-6.62c-.035.09-.07.18-.102.27zM82.23 31.823c1.283 0 2.617.05 4 .15 0 0 14.96 2.26 16.415 7.478.11.4.16.83.184 1.28.18 0 .36-.01.54-.01 8.89 0 10.43 8.46 10.43 11.23 0 1.99-2.16 7.67-3.52 11.07l.04.02-.42 1.18c2.41 1.04 4.17 4.23 4.17 8 0 7.49-4.58 8.36-7.81 8.36-.08 0-.16-.01-.23-.02-.04 10.94-7.11 15.18-13.89 16.79l.01.12h.22c4 0 10.77 1.89 19.65 11.36l-2.42 2.57c1.93 1.65 3.85 3.45 5.6 5.41 1.35 1.35 2.45 2.91 3.65 4.36 1.18 1.46 2.12 3.06 3.14 4.53 1.01 1.49 1.74 3.06 2.56 4.48.85 1.42 1.39 2.87 1.98 4.17.52 1.28 1.11 2.4 1.44 3.47l.34.24.66-.43c.15-.1.3-.18.44-.27.38-.76.8-1.56 1.28-2.4.64-1.27 1.41-2.61 2.31-3.96.88-1.37 1.76-2.85 2.85-4.25 2.07-2.87 4.45-5.81 7.06-8.51 1.92-2.04 3.93-3.97 5.96-5.74l-3.44-3.63c8.88-9.46 15.62-11.35 19.62-11.35h.23l-.07-.11c-6.8-1.61-14.03-5.87-14.03-16.87v-.1c0 .13-.59.2-1.02.2-3.23 0-7.67-.87-7.67-8.35 0-4.21 2.19-7.69 5.03-8.26l-.21-.69c-1.35-3.36-3.61-9.27-3.61-11.31 0-2.77 1.53-11.23 10.43-11.23.18 0 .36.01.54.01.02-.44.07-.87.18-1.27 1.47-5.22 16.42-7.48 16.42-7.48 1.39-.1 2.72-.15 4-.15 24.49 0 31.1 17.78 31.1 17.78-1.39-.69-2.14-.92-2.52-.92-.69 0-.22.72-.22.72 2.13 4.27-.65 11.05-2.5 14.7 2.57.89 4.47 4.18 4.47 8.11 0 7.48-4.57 8.35-7.81 8.35-.26 0-.49-.03-.72-.08-.01 9.85-5.35 14.29-11.36 16.26 3.05.83 10.69 4.85 14.79 24.52l-1.92 1.39c1.17 2.3 2.23 4.77 3.03 7.43 1.28 4.2 1.77 8.94.98 13.37-.72 4.44-2.66 8.31-4.72 11.07-1 1.42-2.07 2.57-3 3.56-.98.92-1.82 1.79-2.57 2.37l-2.35 1.86-.29-.4c.04.57.09 1.13.12 1.71l.81 11.01 2.2 30.03-2.92.06.1 3.65c.73-.62 1.44-.95 2.1-1.07.21.61.6 1.61 1.28 2.07 0 0 5.57 2.43 9.48 5.43h-.04c3.6 3 7.3 2.15 10.26 3.87l-.01 2.13h1.12v3h-39v-3h1.8s-.7-3.53-.44-6.01c.75.24 1.7.45 2.75.52l-.29-10.33-.59.02-.36-29.53-.13-10.85c0-.55-.01-1.08-.02-1.62-.49-.4-1.15-.75-1.97-.75-1.65 0-2.82 1.43-3.31 2.16l-.05.39c-.26 3.45-.55 7.12-.83 10.79-.02 7.5-.22 14.99-.29 20.6l-.12 6.79c-.02.82-.03.6-.04 1.04-.02.11-.11.15-.25.15-.39 0-1.08-.34-1.03-.34h-.35l-.33 11.51c1.05-.07 2-.28 2.76-.52.26 2.48-.44 6.01-.44 6.01h.53v3h-37v-3h.34l-.02-2.13c2.95-1.72 6.64-.87 10.26-3.87h-.04c3.91-3 9.47-5.42 9.47-5.42.67-.46 1.06-1.45 1.28-2.07.66.13 1.35.46 2.09 1.08l.13-4.58h-.01c.05 0-.63.33-1 .33-.14 0-.23-.05-.24-.17.02-.45.04-.69.07-1.53.06-1.68.17-3.88.29-6.77.12-2.89.25-6.15.4-9.77.16-3.61.27-7.41.52-11.25.51-3.89 1.02-7.75 1.5-11.4l.71-5.23c.14-.84.21-1.61.39-2.43.21-.84.41-1.65.6-2.43l.06-2.93-4.12.02 4.47-31.78c-2.63 1.73-4.47 3.61-4.47 3.61l-2.4-2.56c-1.8 1.68-3.59 3.5-5.27 5.42-2.23 2.47-4.23 5.11-5.94 7.68-.92 1.25-1.62 2.56-2.35 3.77-.75 1.2-1.37 2.37-1.88 3.49-.9 1.69-1.56 3.2-2.03 4.42.19.58.2 1.08.11 1.5 2.06 1.99 3.5 3.87 3.11 5.03 0 0-3.58 11.6-8.44 11.6-.31 0-.63-.05-.95-.15-1.95-.61-3.03-1.24-3.62-1.79-.6.55-1.68 1.18-3.63 1.79-.32.11-.64.15-.95.15-4.86 0-8.43-11.59-8.43-11.59-.38-1.16 1.05-3.04 3.12-5.03-.1-.46-.08-1.02.19-1.69l-.05-.16c-.2-.68-.44-1.5-.71-2.44-.23-.96-.74-1.94-1.15-3.07-.46-1.1-.86-2.36-1.53-3.55-.65-1.21-1.21-2.56-2.01-3.82-.82-1.25-1.54-2.63-2.49-3.89-.97-1.24-1.83-2.6-2.94-3.76-1.49-1.79-3.13-3.43-4.8-4.95l-3.4 3.6s-1.84-1.88-4.47-3.61l4.47 31.79-.51-.08.51.47.1.56-1.65-.39h-2.5l.24 11.11.39 4.31c.37 4.1.76 8.48 1.15 12.85.48 4.39.36 8.73.56 12.82.1 3.21.19 6.49.27 9.33 1.76.11 3.08.68 3.34 2.07 0 0-1.94 4.18.86 6.08 0 0 5.57 2.43 9.48 5.43h-.03c3.66 0 7.3 2.22 10.26 3.95l-.03 3.09-35.19-.27s-1.02-.77-.92-.77h-.02s-1.25-6.03.21-8.06c1.47-2.02-.06-8.96-.06-8.96s.35-.13.93-.33c-.07-3.16-.15-7-.24-10.92-.16-3.99-.01-8.41-.45-12.63-.34-4.23-.69-8.52-1.02-12.49-.08-.98-.16-1.96-.23-2.92-.44-.68-1.64-2.27-3.39-2.27-1.35 0-2.26.94-2.67 1.47-.1 1.23-.22 2.5-.26 3.79-.18 4-.37 8.26-.57 12.53l-1 23.43.7.25s-1.53 6.93-.06 8.96c1.47 2.02.21 8.06.21 8.06h-.02c.1 0-.92.77-.92.77l-35.19.26-.03-3.1c2.97-1.73 6.61-3.95 10.27-3.95h-.03c3.91-3 9.48-5.43 9.48-5.43 2.8-1.9.85-6.08.85-6.08.28-1.46 1.72-2.01 3.62-2.08.33-6.25.75-14.12 1.17-21.99.23-4.33.46-8.65.68-12.71.03-.76.09-1.5.15-2.23h-.08l.02-5.05-.11.22s-.92-.55-2.53-1.5c-.81-.44-1.75-1.19-2.84-1.96-1.09-.76-2.27-1.85-3.51-3.04l-1.84-2.1c-.57-.8-1.17-1.62-1.75-2.5-1.05-1.85-2.06-3.95-2.55-6.29-1.15-4.71-.35-9.77 1.22-13.96.94-2.42 2.09-4.65 3.34-6.69l-.25-.18c3.86-18.51 11.48-23.21 15.16-24.4-6.13-1.91-11.68-6.31-11.72-16.31h-.02c-3.23 0-7.8-.87-7.8-8.36 0-3.63 1.63-6.71 3.9-7.87-1.83-3.59-4.8-10.58-2.61-14.94 0 0 .47-.72-.22-.72-.39 0-1.13.22-2.53.92 0 0 6.61-17.78 31.1-17.78M67.9 146.48l.003-1.246c-.273-.05-.447-.068-.447-.068l.132-.13-.132-.022 1.684-14.977-3.267-2.37c-.77 1.35-1.444 2.743-1.964 4.15-1.03 2.86-1.33 5.593-.74 7.792.22 1.13.76 2.13 1.28 3.1.33.46.66.91.97 1.35l1.12 1.21c.46.42.9.82 1.34 1.2M191.39 144c.27-.766.5-1.57.65-2.416.49-2.557.28-5.525-.61-8.554-.39-1.38-.91-2.75-1.51-4.09l-.59.43L191.4 144"/><path fill="#333" d="M82.23 26.83C54.583 26.82 46.77 47 46.45 47.86c-.716 1.924-.182 4.09 1.347 5.462.11.098.22.19.336.277.1 3.21 1.072 6.54 2.31 9.54-1.79 2.4-2.836 5.61-2.836 9.05 0 6.59 2.98 11.09 8.177 12.7.83 5.14 3.15 9.35 6.81 12.43-3.965 4.1-8.02 11.07-10.483 22.9l-.02.12c-1.12 1.98-2.06 3.95-2.83 5.96-2.16 5.77-2.66 11.74-1.43 16.86.7 3.22 2.1 5.92 3.09 7.64.05.09.11.17.16.26.54.82 1.07 1.56 1.58 2.27l.29.41c.11.15.23.29.35.43l.82.9 1.04 1.15c.08.09.17.17.26.26 1.23 1.17 2.66 2.51 4.1 3.52.3.21.59.42.87.62.8.58 1.55 1.13 2.38 1.59.04.02.08.04.11.06v1.9c0 .16.01.33.02.49-.03.47-.07.99-.09 1.51l-.38 7.14-.29 5.53-.39 7.32-.58 11.05c-2.81 1.49-3.55 4.05-3.73 5.03-.2 1.06-.12 2.03.37 3 .02.06.05.11.07.18-1.83.88-4.89 2.46-7.63 4.37-4.13.51-7.81 2.67-10.59 4.29l-.37.22c-1.55.91-2.5 2.57-2.48 4.37l.03 3.09c.03 2.75 2.26 4.96 5 4.96h.04l35.17-.25c1.08-.01 2.13-.37 3-1.03.29-.22.68-.53 1.09-.91.29-.24.55-.51.78-.81.25.33.55.63.87.89.37.34.74.62 1.01.83.86.65 1.91 1.02 3 1.02l35.19.26h.04c2.74 0 4.98-2.21 5-4.96l.02-3.09c.02-1.79-.93-3.46-2.48-4.36l-.37-.22c-2.78-1.63-6.47-3.78-10.59-4.3-2.74-1.91-5.8-3.49-7.63-4.37.02-.08.04-.13.05-.14.44-.95.58-2.01.38-3.04-.17-.93-.85-3.31-3.35-4.83l-.17-5.8v-.1c-.07-1.38-.1-2.79-.13-4.29-.06-2.83-.12-5.75-.45-8.78l-.59-6.64-.55-6.16-.2-2.17-.18-1.98-.12-5.54c.93-.18 1.81-.62 2.52-1.29 1.22-1.16 1.77-2.85 1.48-4.5l-.02-.13c0-.22-.02-.43-.05-.65l-3.21-22.8c.66-.24 1.26-.62 1.76-1.12.29.32.57.65.84.97l.23.26c.51.53 1.03 1.24 1.57 1.99.34.46.68.92 1.03 1.37.44.57.86 1.27 1.3 2 .3.5.61 1.01.96 1.54.36.55.68 1.22 1.03 1.93.25.5.5 1.02.79 1.55l.04.06c.31.54.56 1.21.84 1.92.13.34.26.67.39 1 .18.48.36.92.52 1.3.17.42.37.89.42 1.11l.06.21.28.96c-1.83 2.03-3.87 5.1-2.79 8.48 1.41 4.56 5.51 15.09 13.2 15.09.83 0 1.66-.13 2.46-.38.77-.24 1.47-.5 2.12-.78.65.28 1.35.54 2.12.78.82.25 1.65.38 2.48.38 7.7 0 11.79-10.52 13.21-15.09 1.03-3.21-.76-6.13-2.51-8.16.3-.67.62-1.31.96-1.95l.12-.24c.49-1.06 1-2.01 1.57-2.92.02-.03.04-.06.06-.1.18-.3.36-.61.54-.92.51-.88 1-1.71 1.54-2.44l.14-.19c1.75-2.62 3.61-5.01 5.5-7.11l.05-.06c.51-.58 1.03-1.16 1.58-1.74.19.1.4.18.58.26l-3.18 22.8c-.21 1.43.22 2.89 1.18 3.98.6.69 1.38 1.2 2.24 1.47-.1.52-.16.99-.22 1.42l-.12.79-.02.13-.19 1.36-.53 3.87-1.01 7.66-.5 3.76c-.02.1-.03.21-.03.32-.2 2.9-.31 5.75-.42 8.5l-.12 2.86-.2 4.9c-.07 1.73-.14 3.36-.2 4.89-.09 2.16-.17 3.93-.23 5.39l-.06 1.37c-.02.53-.03.79-.05 1.02-.01.17-.02.33-.02.51-.01.15-.01.31 0 .46l.01.12c-.25.33-.45.69-.62 1.08-2.05.98-6.03 3.01-9.18 5.43-.14.11-.27.22-.4.34-1.01.74-2.08.98-3.79 1.33-1.68.34-3.58.72-5.52 1.85-1.55.91-2.49 2.57-2.48 4.37l.01.32c-.21.55-.32 1.15-.32 1.77v3c0 2.76 2.23 5 5 5h37c.52 0 1.02-.08 1.5-.23.47.15.97.23 1.5.23h39c2.76 0 5-2.24 5-5v-3c0-1.26-.47-2.42-1.25-3.3-.31-1.31-1.15-2.46-2.35-3.15-1.94-1.13-3.84-1.51-5.52-1.85-1.71-.35-2.79-.59-3.8-1.33-.12-.12-.25-.23-.38-.33-2.72-2.09-6.06-3.89-8.24-4.97.12-.51.17-1.04.13-1.57l-2.2-30.03c-.23-3.16-.47-6.31-.69-9.33l-.01-.14.49-.39c.72-.56 1.38-1.19 2.07-1.86.26-.26.54-.53.83-.8.08-.07.15-.15.23-.23 1.1-1.17 2.27-2.45 3.41-4.05 2.84-3.84 4.83-8.52 5.6-13.17 1.11-6.26 0-11.97-1.13-15.67-.47-1.55-1.03-3.09-1.69-4.66.69-1.09.96-2.42.68-3.73-2.51-12.03-6.41-19.04-10.23-23.12 3.46-3.02 5.68-7.09 6.52-12.01 5.65-1.4 8.91-6.01 8.91-12.91 0-3.78-1.23-7.21-3.3-9.65 1.12-2.82 1.98-5.93 2.07-8.94.12-.08.23-.18.34-.27 1.53-1.38 2.06-3.54 1.35-5.47-.32-.86-8.14-21.03-35.78-21.03-1.42 0-2.89.05-4.37.16-.12.01-.25.03-.38.04-4.92.75-15.89 3.03-19.55 8.98-4.11.77-7.47 3.08-9.67 6.69-2.42 3.98-2.61 8.09-2.61 9.25 0 .87 0 2.78 2.71 9.95-2.42 2.46-3.93 6.18-3.93 10.31 0 7.02 3.34 11.66 9.1 12.98.81 4.51 2.83 8.28 5.95 11.2-3.25 1.96-6.86 4.84-10.76 8.99-1.8 1.91-1.8 4.89-.02 6.82-.85.83-1.67 1.67-2.48 2.52-2.57 2.66-5.07 5.67-7.44 8.96-.97 1.25-1.77 2.51-2.47 3.63l-.37.58-.15-.27c-.25-.44-.49-.89-.74-1.35-.56-1.04-1.2-2.22-2.01-3.41l-.03-.05c-.33-.46-.64-.94-.95-1.42-.69-1.05-1.48-2.24-2.41-3.4l-.04-.04c-.35-.42-.69-.85-1.02-1.28-.82-1.04-1.75-2.22-2.85-3.32-.72-.81-1.49-1.6-2.3-2.4.85-1.81.56-4.03-.88-5.56-3.94-4.2-7.59-7.09-10.88-9.06 3.09-2.95 5.08-6.77 5.85-11.34 5.34-1.54 8.41-6.08 8.41-12.77 0-3.77-1.21-7.18-3.25-9.62 2.97-7.74 2.97-9.74 2.97-10.64 0-5.87-3.33-14.32-12.25-15.95-1.75-2.95-5.38-5.21-11.19-7.02-4.24-1.32-8.23-1.93-8.4-1.95-.13-.02-.25-.03-.38-.04-1.47-.11-2.94-.17-4.37-.17l-.04.16-.01.01h-.02z"/><path fill="#fdb" d="M189.706 195.367l.65 22.976-10.94.31-.65-22.977 10.94-.31z"/><path fill="#29B9CC" d="M188.002 210.836c.31-.493.615-.925.922-1.302 1.152-1.425 2.248-2.07 3.242-2.257.22.615.607 1.91 1.28 2.37 0 0 5.57 2.73 9.48 5.73h-.03c3.604 3 7.297 1.84 10.263 3.562l-.03 3.06-35.19.01s-1.02-.66-.92-.66H177s-.693-3.84-.434-6.32c2.77.87 8.09 1.06 11.436-4.23v.03z"/><path fill="#C7B299" d="M175.62 221.38h39v3h-39v-3z"/><path fill="#fff" d="M189.46 209.275s6.333 4.386 3.897 5.455c-2.438 1.07-7.693-.97-7.693-.97s1.654-4.19 3.797-4.48v-.005z"/><path fill="#fdb" d="M169.318 218.652l-10.937-.31.65-22.98 10.95.312-.67 22.978h.01zm13.936-115.687s.2.188.584.535c.348.33.86.82 1.514 1.443 1.27 1.248 3.02 3.053 4.97 5.37 3.86 4.626 8.81 11.27 11.368 19.76 1.28 4.198 1.77 8.933.98 13.362-.727 4.437-2.663 8.31-4.72 11.07-1.005 1.42-2.07 2.566-3.007 3.56-.985.92-1.82 1.792-2.565 2.372l-2.344 1.85-6.4-8.87 1.732-1.36c.57-.42 1.11-1.027 1.825-1.647.64-.67 1.37-1.44 2-2.31 1.33-1.77 2.43-3.96 2.88-6.53.5-2.56.28-5.53-.61-8.56-1.71-6.1-5.81-12-9.14-16.01-1.68-2.04-3.2-3.64-4.27-4.72-.54-.52-.96-.94-1.25-1.22l-.42-.39 6.88-7.75.01.02h-.01v.025z"/><path fill="#F2C49C" d="M129.01 137.555s-14.804 9.793-13.67 13.23c0 0 4.052 13.13 9.386 11.448 5.333-1.69 4.215-3.45 4.215-3.45s4.57-2.4 5.82-3.56c.98-.92 2.84-3.09 3.1-4.41.16-.85-.78-3.39-.78-3.39s2.74-1.57.03-4.88c-2.72-3.32-4.46-7.49-8.09-4.95h.01l-.01-.038h-.01z"/><path fill="#fdb" d="M127.69 137.555s14.802 9.793 13.667 13.23c0 0-4.053 13.13-9.385 11.448-5.333-1.69-4.22-3.45-4.22-3.45s-4.566-2.4-5.808-3.56c-.98-.92-2.838-3.09-3.098-4.41-.17-.85.77-3.39.77-3.39s-2.74-1.57-.02-4.88c2.71-3.32 4.45-7.49 8.09-4.95l.004-.038z"/><path fill="#8C6239" d="M95.3 142.54l.49 22.84H85.175s-1.354-2.883-3.57-2.883c-1.882 0-2.92 1.68-2.92 1.68l-10.842.156.068-22.224"/><path fill="#8C6239" d="M111.747 215.385v-.005h.03c-3.91-3-9.48-5.73-9.48-5.73-2.803-1.9-.857-6.23-.857-6.23-.26-1.387-1.583-1.965-3.35-2.08-.082-2.9-.168-6.31-.26-9.46-.204-4.09-.084-8.44-.564-12.818-.39-4.37-.784-8.75-1.15-12.85-.186-2.05-.36-4.03-.534-5.91l-.84-5.43c-.267-1.682-.508-3.22-.72-4.58-.225-1.354-.38-2.58-.61-3.48l-.646-2.895-.007-.008-.02.06-10.5 2.45.63 2.91c.23.93.34 2 .53 3.22l.61 4.17c.23 1.52.47 3.19.73 4.94.15 1.82.31 3.79.47 5.77.33 3.97.67 8.3 1.02 12.53.44 4.22.29 8.72.45 12.71l.24 10.83c-.58.19-.91.32-.91.32s1.52 7.19.06 9.22c-1.47 2.02-.22 8.32-.22 8.32h.02c-.1 0 .92.47.92.47l35.19.11.02-2.86c-2.97-1.73-6.61-3.72-10.26-3.72v.01zm-43.034-59.89c-.143 1.61-.304 3.346-.467 5.19-.144 1.844-.392 3.764-.474 5.8-.22 4.06-.45 8.384-.68 12.712l-1.174 22.132c-1.898.06-3.34.63-3.614 2.09 0 0 1.946 4.32-.854 6.22 0 0-5.575 2.73-9.48 5.73H52c-3.662 0-7.298 1.99-10.262 3.72l.028 2.86 35.19-.11s1.016-.47.916-.47h.018s1.255-6.3-.215-8.32c-1.463-2.03.063-9.23.063-9.23s-.26-.1-.706-.25l1.073-23.62c.197-4.27.39-8.53.57-12.53.062-1.99.3-3.94.427-5.78.154-1.84.298-3.59.434-5.19l.886-10.72-10.74-.97s-.385 4.28-.97 10.71v.01z"/><path fill="#F2C49C" d="M80.917 110.967s-.658.537-1.808 1.48c-1.17.998-2.83 2.476-4.7 4.352-3.68 3.71-8.38 9.24-10.51 15.02-1.02 2.86-1.33 5.59-.73 7.79.22 1.13.76 2.13 1.28 3.1.33.46.66.91.97 1.35.39.41.76.82 1.12 1.21.81.73 1.54 1.44 2.34 1.97.8.53 1.42 1.06 2.07 1.39l1.94 1.12-5.17 9.64s-.92-.55-2.54-1.51c-.81-.44-1.75-1.19-2.85-1.96-1.09-.77-2.27-1.86-3.51-3.05l-1.85-2.05c-.58-.8-1.18-1.62-1.76-2.51-1.06-1.85-2.06-3.95-2.56-6.3-1.16-4.71-.35-9.77 1.22-13.96 1.62-4.21 3.89-7.83 6.22-10.92 2.35-3.08 4.75-5.69 6.89-7.81 2.14-2.12 4.02-3.76 5.38-4.9.69-.57 1.24-1.01 1.61-1.31l.61-.48 6.28 8.24.05.09zm9.166-10.963s.232.076.667.222c.51.168 1.152.413 1.933.724 1.566.643 3.757 1.59 6.236 2.982 2.5 1.347 5.28 3.148 8.11 5.297 2.8 2.17 5.66 4.69 8.2 7.53 1.35 1.34 2.45 2.91 3.65 4.35 1.18 1.45 2.12 3.06 3.14 4.52 1 1.48 1.74 3.05 2.56 4.48.84 1.41 1.39 2.85 1.97 4.16.54 1.31 1.16 2.47 1.48 3.6.36 1.1.68 2.06.94 2.85.52 1.58.81 2.48.81 2.48l-10.56 2.8-.62-2.12c-.2-.68-.44-1.5-.71-2.44-.23-.97-.74-1.94-1.15-3.07-.46-1.11-.86-2.36-1.53-3.56-.65-1.21-1.21-2.56-2.01-3.82-.82-1.25-1.54-2.64-2.5-3.89-.97-1.24-1.83-2.6-2.94-3.76-2.05-2.47-4.4-4.68-6.72-6.62-2.34-1.91-4.66-3.54-6.76-4.76-2.06-1.27-3.88-2.12-5.12-2.69l-1.39-.58-.52-.2 2.8-8.54.03.05z"/><path fill="#00A99D" d="M99.59 122.033l12.462-13.243c-9.113-9.71-16.007-11.447-19.964-11.35l-.29-2.06H73.102l-.14 1.246c-3.24.76-11.796 4.653-15.958 24.627l12.186 8.822-1.735 15.396 32.132 5.04-4.542-32.14c2.67 1.75 4.545 3.67 4.545 3.67z"/><path fill="#C69C6D" d="M89.46 95.548l-7.01 10.128-7.787-10.908"/><path fill="#E2B593" d="M102.365 72.2c0 4.612.67 8.353 3.905 8.353s7.81-.867 7.81-8.354c0-4.62-2.622-8.36-5.856-8.36-3.236 0-5.86 3.74-5.86 8.35v.01z"/><path fill="#C69C6D" d="M103.338 72.167c.008-1.29.275-2.762.91-4.015.32-.637.727-1.256 1.305-1.792.572-.524 1.385-.974 2.327-.987.362.035.29.003.623.073.272.058.505.14.684.23.405.173.727.424 1.024.683.58.54.58 1.16.9 1.8.64 1.28.51 2.67.51 4.05v.16c0 .91-.31 1.65-1.22 1.66-.9.01-1.44-.71-1.45-1.62 0-.06.1-.13.11-.2.1-.91.08-1.9-.22-2.74-.27-.87-.82-1.42-.98-1.47-.1-.05-.35-.04-.67.18-.31.22-.46.58-.73 1.01-.55.88-.83 1.88-.83 3.07v.05c0 .54-.71.92-1.23.87-.5-.05-1.05-.48-1.04-.98l-.02-.03v-.01z"/><path fill="#E2B593" d="M64.32 72.2c0 4.612-.67 8.353-3.905 8.353-3.232 0-7.808-.867-7.808-8.354 0-4.62 2.622-8.36 5.856-8.36 3.236 0 5.858 3.74 5.858 8.35v.01z"/><path fill="#C69C6D" d="M63.348 72.167c-.008-1.29-.275-2.762-.91-4.015-.32-.637-.727-1.256-1.305-1.792-.572-.524-1.385-.974-2.33-.987-.36.035-.286.003-.622.073-.27.058-.5.14-.68.23-.4.173-.72.424-1.02.683-.57.54-.3 1.16-.62 1.8-.63 1.28-.23 2.67-.23 4.05v.16c0 .91.03 1.65.94 1.66.91.01 1.31-.71 1.32-1.62 0-.06-.17-.13-.17-.2-.1-.91-.11-1.9.19-2.74.28-.87.8-1.42.96-1.47.1-.05.34-.04.67.18.32.22.23.58.51 1.01.55.88.61 1.88.61 3.07v.05c0 .54.94.92 1.46.87.5-.05 1.28-.48 1.27-.98l-.04-.03v-.01z"/><path fill="#F2C49C" d="M106.042 80.45c0 16.407-15.77 17.826-22.804 17.826-8.007 0-22.803-1.42-22.803-17.827 0-16.42-1.7-37.49 22.803-37.49 24.745 0 22.804 21.07 22.804 37.48v.01z"/><path fill="#333" d="M56.148 62.215l4.37 12.613 6.305-14.717m43.504 2.92l-4.155 11.81-6.308-14.71"/><path fill="#F5F5F5" d="M79.02 72.174c0 3.75-3.04 6.792-6.79 6.792s-6.79-3.04-6.79-6.792c0-3.747 3.04-6.783 6.79-6.783s6.79 3.04 6.79 6.79z"/><path fill="#333" d="M77.003 72.013c0 2.606-2.104 4.718-4.71 4.718-2.602 0-4.714-2.11-4.714-4.71s2.11-4.7 4.71-4.7 4.71 2.1 4.71 4.7z"/><path fill="#F5F5F5" d="M102.31 72.174c0 3.75-3.042 6.792-6.79 6.792-3.753 0-6.79-3.04-6.79-6.792 0-3.747 3.037-6.783 6.79-6.783 3.748 0 6.79 3.04 6.79 6.79z"/><path fill="#333" d="M100.294 72.013c0 2.606-2.11 4.718-4.715 4.718s-4.72-2.11-4.72-4.71 2.11-4.7 4.71-4.7 4.71 2.11 4.71 4.71l.01-.01z"/><defs><path id="a" d="M86.62 71.38v11.372s-.724 2.184-3.876 3.153l.31-3.153-.318-12.155"/></defs><clipPath id="b"><use xlink:href="#a" overflow="visible"/></clipPath><path clip-path="url(#b)" fill="#FF585D" d="M82.62 71.38h4v15h-4v-15z"/><defs><path id="c" d="M86.62 71.38v11.372s-.724 2.184-3.876 3.153l.31-3.153-.318-12.155"/></defs><clipPath id="d"><use xlink:href="#c" overflow="visible"/></clipPath><path clip-path="url(#d)" fill="#FF595E" d="M82.62 84.38h4v2h-4v-2z"/><defs><path id="e" d="M86.62 71.38v11.372s-.724 2.184-3.876 3.153l.31-3.153-.318-12.155"/></defs><clipPath id="f"><use xlink:href="#e" overflow="visible"/></clipPath><path clip-path="url(#f)" fill="#FF5B5F" d="M82.62 82.38h4v2h-4v-2z"/><defs><path id="g" d="M86.62 71.38v11.372s-.724 2.184-3.876 3.153l.31-3.153-.318-12.155"/></defs><clipPath id="h"><use xlink:href="#g" overflow="visible"/></clipPath><path clip-path="url(#h)" fill="#FF5D61" d="M82.62 79.38h4v3h-4v-3z"/><defs><path id="i" d="M86.62 71.38v11.372s-.724 2.184-3.876 3.153l.31-3.153-.318-12.155"/></defs><clipPath id="j"><use xlink:href="#i" overflow="visible"/></clipPath><path clip-path="url(#j)" fill="#FF5E62" d="M82.62 75.38h4v4h-4v-4z"/><defs><path id="k" d="M86.62 71.38v11.372s-.724 2.184-3.876 3.153l.31-3.153-.318-12.155"/></defs><clipPath id="l"><use xlink:href="#k" overflow="visible"/></clipPath><path clip-path="url(#l)" fill="#FF6064" d="M82.62 72.38h4v3h-4v-3zm0-1h4v1h-4v-1z"/><path fill="#333" d="M80.307 84.498c-.823.264-1.274 1.137-1.017 1.957.212.662.826 1.085 1.49 1.085.153 0 .84-.03.996-.07 4.704-1.5 4.844-4.72 4.844-4.72V70.62c0-.858-1.226-1.558-2.086-1.558-.862 0-2.082.7-2.082 1.558l.01 12.272c-.005.32-.46 1.064-2.155 1.606zm11.683 2.448c-10.34 5.277-17.487.33-17.79.124-.688-.506-1.663-.345-2.168.347-.505.697-.352 1.67.342 2.177.24.17 4.094 2.9 10.21 2.9v-.005c3.087 0 6.754-.7 10.824-2.78.765-.4 1.067-1.33.677-2.1-.395-.77-1.33-1.07-2.095-.68v.01zm21.815-35.002c0-2.823-1.597-11.575-10.983-11.217-.022-.443-.073-.872-.183-1.266-1.45-5.22-16.41-7.48-16.41-7.48-27.78-2.07-35.1 17.62-35.1 17.62 3.88-1.94 2.75-.2 2.75-.2-3.04 6.07 3.88 17.23 3.88 17.23l2.18-3.51.7-.08c.02.13.04.27.09.4.5 1.47 2.1 2.27 3.57 1.77l.46-.16 2.08-.7c.62-.27 1.43-.24 2.27-.41.84-.2 1.79-.04 2.73-.08.47-.02.94.1 1.4.14l1.38.21c.87.24 1.73.37 2.41.64 1.42.43 2.2.85 2.26.86v-.01l.05-.01c.74.43 1.69.17 2.12-.58s.17-1.7-.58-2.12c.05.04-.95-.68-2.48-1.4-.75-.41-1.69-.72-2.68-1.14-.51-.18-1.04-.32-1.59-.48-.42-.11-.84-.25-1.28-.34 6.64-3.09 12.87-7.24 12.87-7.24l-7.12 7.27c10.31-.69 16.71-5.02 19.57-7.49.16 1.97.5 4.54 1.17 6.94-.4.01-.8.02-1.2.01-1.13-.07-2.28.27-3.44.42-.58.07-1.12.28-1.66.42-.55.17-1.08.31-1.58.49-.99.42-1.93.74-2.68 1.15-1.52.72-2.53 1.45-2.48 1.4h-.01l-.04-.02c-.75.42-1.01 1.37-.58 2.12s1.38 1.01 2.13.58c.06-.02.84-.43 2.27-.86.68-.26 1.53-.4 2.41-.63.45-.07.91-.13 1.38-.2.47-.05.94-.17 1.42-.14.93.04 1.88-.13 2.72.08.84.17 1.65.14 2.27.41l2.09.7.47.17c.13.04.26.07.39.1.68.13 1.35-.02 1.91-.34l4 .75s4.61-10.82 4.61-13.73l.06-.04z"/><path fill="#00A99D" d="M82.888 141.994l10.37 2.726 6.33 5.876.1.864-1.658-.08H73.784c-.292-5-6.328-5.907-6.328-5.907l2.628-2.762 12.804-.71z"/><path fill="#754C24" d="M162.28 142.54l-.485 22.84h10.617s1.352-2.883 3.566-2.883c1.88 0 2.92 1.68 2.92 1.68l10.846.156-.068-22.224"/><path fill="#754C24" d="M175.066 147.156l-.738 2.516c-.17 1.463-.48 3.502-.86 5.926-.1.604-.2 1.23-.306 1.883-.092.69-.105 1.53-.162 2.32-.11 1.58-.234 3.25-.36 4.98-.26 3.45-.544 7.12-.827 10.79-.016 7.5-.22 14.99-.29 20.61-.05 2.81-.09 5.14-.118 6.78-.018.82-.03.91-.04 1.35-.046.44-1.347.13-1.272.13h-11.31c.07 0-1.22.31-1.24-.14.03-.45.04-.84.07-1.68.07-1.68.17-3.96.28-6.85.11-2.89.25-6.19.4-9.8s.27-7.43.527-11.28c.51-3.89 1.02-7.76 1.5-11.41.24-1.82.48-3.57.71-5.23.14-.84.21-1.62.39-2.43.21-.86.42-1.68.602-2.47.81-3.15 1.48-5.76 2-7.55l1.01-2.41 10 4.03.04.03v-.04l-.005-.01v-.02zm12.838-2.34l1.025 9.26c.27 2.787.69 6 .93 9.525.26 3.52.52 7.26.81 11.01l2.2 30.03-14.44.33-.36-29.53-.13-10.86c.02-3.45-.24-6.72-.35-9.52-.28-5.58-.46-9.31-.46-9.31l10.74-.91.02-.01v-.01h.01z"/><path fill="#fdb" d="M170.88 108.313l-.517.273c-.318.184-.785.448-1.38.786-1.23.733-3.003 1.82-5.032 3.288-4.1 2.877-9.25 7.24-13.62 12.242-2.22 2.465-4.22 5.112-5.94 7.678-.92 1.246-1.6 2.56-2.35 3.77-.75 1.195-1.35 2.375-1.88 3.487-1.14 2.174-1.91 4.065-2.41 5.4-.53 1.323-.83 2.077-.83 2.077l-10.25-3.82 1.05-2.406c.65-1.54 1.62-3.72 3.03-6.205.66-1.27 1.42-2.61 2.33-3.967.89-1.37 1.78-2.85 2.86-4.246 2.07-2.875 4.46-5.81 7.07-8.507 5.15-5.48 11.03-10.122 15.72-13.177 2.33-1.555 4.37-2.72 5.83-3.52.77-.403 1.37-.716 1.78-.927l.62-.31 3.96 8.08h-.04z"/><path fill="#29B9CC" d="M200.58 121.253c-4.832-23.167-14.583-24.63-15.936-24.723l-.162-1.15H165.79l-.29 2.06c-3.957-.097-10.85 1.637-19.965 11.35L158 122.034s1.87-1.917 4.538-3.658l-4.546 32.138 34.28.02-2.98-21.105 11.288-8.18z"/><path fill="#DBB99C" d="M168.125 95.548l7.012 10.128 7.79-10.908"/><path fill="#29B9CC" d="M160.736 210.836c-.307-.493-.617-.925-.922-1.302-1.154-1.425-2.25-2.07-3.242-2.257-.22.615-.605 1.91-1.283 2.37 0 0-5.57 2.73-9.48 5.73h.03c-3.61 3-7.3 1.84-10.28 3.562l.02 3.06 35.19.01s1.01-.66.92-.66h.01s.7-3.84.43-6.32c-2.77.87-8.09 1.06-11.44-4.23h.03l.01.03z"/><path fill="#C7B299" d="M135.62 221.38h37v3h-37v-3z"/><path fill="#fff" d="M159.275 209.275s-6.326 4.386-3.896 5.455c2.43 1.07 7.68-.97 7.68-.97s-1.65-4.19-3.8-4.48v-.005h-.01.01zm8.213-112.04l1.686 12.597 5.963-4.156-6.48-9.998-1.17 1.558zm13.882 0l-1.683 12.597-5.965-4.156 6.48-9.998 1.168 1.557z"/><path fill="#F4D1B0" d="M193.96 72.2c0 4.612.67 8.353 3.905 8.353 3.236 0 7.813-.867 7.813-8.354 0-4.62-2.623-8.36-5.86-8.36-3.23 0-5.853 3.74-5.853 8.35l-.005.01z"/><path fill="#C69C6D" d="M194.934 72.167c.01-1.29.28-2.762.908-4.015.322-.637.73-1.256 1.305-1.792.572-.524 1.39-.974 2.332-.987.35.035.28.003.62.073.27.058.5.14.68.23.4.173.72.424 1.02.683.57.54 1.28 1.16 1.6 1.8.63 1.28 1.2 2.67 1.2 4.05v.16c0 .91-1.02 1.65-1.92 1.66-.91.01-1.8-.71-1.81-1.62 0-.06-.07-.13-.06-.2.09-.91-.02-1.9-.32-2.74-.28-.87-.86-1.42-1.02-1.47-.1-.05-.37-.04-.69.18-.32.22-.65.58-.93 1.01-.55.88-.88 1.88-1.01 3.07l-.01.05c-.06.54-.54.92-1.07.87-.5-.05-.87-.48-.87-.98l.04-.03v-.01z"/><path fill="#F4D1B0" d="M154.287 72.2c0 4.612-.67 8.353-3.904 8.353-3.236 0-7.813-.867-7.813-8.354 0-4.62 2.623-8.36 5.86-8.36 3.23 0 5.853 3.74 5.853 8.35l.004.01z"/><path fill="#C69C6D" d="M153.314 72.167c-.01-1.29-.28-2.762-.908-4.015-.324-.637-.73-1.256-1.307-1.792-.58-.524-1.4-.974-2.33-.987-.36.035-.32.003-.65.073-.28.058-.51.14-.69.23-.4.173-.73.424-1.03.683-.58.54-.79 1.16-1.11 1.8-.63 1.28-.71 2.67-.71 4.05v.16c0 .91.52 1.65 1.42 1.66.91.01 1.55-.71 1.56-1.62 0-.06-.06-.13-.07-.2-.1-.91-.04-1.9.25-2.74.27-.87.83-1.42.98-1.47.09-.05.35-.04.68.18.31.22.64.58.91 1.01.55.88.88 1.88 1 3.07l.01.05c.06.54.53.92 1.06.87.5-.05.87-.48.87-.98l.04-.03.01-.01h.01z"/><path fill="#fdb" d="M151.543 80.45c0 16.407 15.77 17.826 22.807 17.826 8.004 0 22.797-1.42 22.797-17.827 0-16.42 1.703-37.49-22.797-37.49-24.744 0-22.807 21.07-22.807 37.48v.01z"/><path fill="#F5F5F5" d="M178.57 72.174c0 3.75 3.033 6.792 6.787 6.792 3.748 0 6.79-3.04 6.79-6.792 0-3.747-3.042-6.783-6.79-6.783-3.754 0-6.787 3.04-6.787 6.79z"/><path fill="#333" d="M180.582 72.013c0 2.606 2.104 4.718 4.71 4.718 2.6 0 4.714-2.11 4.714-4.71s-2.113-4.7-4.713-4.7c-2.607 0-4.71 2.11-4.71 4.71v-.01z"/><path fill="#F5F5F5" d="M155.277 72.174c0 3.75 3.04 6.792 6.79 6.792s6.792-3.04 6.792-6.792c0-3.747-3.07-6.783-6.82-6.783s-6.79 3.04-6.79 6.79h.02z"/><path fill="#333" d="M157.29 72.013c0 2.606 2.112 4.718 4.716 4.718 2.602 0 4.715-2.11 4.715-4.71s-2.1-4.7-4.71-4.7c-2.6 0-4.71 2.11-4.71 4.71l-.01-.01z"/><defs><path id="m" d="M172.62 71.38v11.372s-.104 2.184 3.05 3.153l-.73-3.153.945-12.155"/></defs><clipPath id="n"><use xlink:href="#m" overflow="visible"/></clipPath><path clip-path="url(#n)" fill="#FF595E" d="M173.262 83.39h2v2h-2v-2z"/><defs><path id="o" d="M172.62 71.38v11.372s-.104 2.184 3.05 3.153l-.73-3.153.945-12.155"/></defs><clipPath id="p"><use xlink:href="#o" overflow="visible"/></clipPath><path clip-path="url(#p)" fill="#FF5B5F" d="M173.262 81.39h2v2h-2v-2z"/><defs><path id="q" d="M172.62 71.38v11.372s-.104 2.184 3.05 3.153l-.73-3.153.945-12.155"/></defs><clipPath id="r"><use xlink:href="#q" overflow="visible"/></clipPath><path clip-path="url(#r)" fill="#FF5C60" d="M173.262 80.39h2v1h-2v-1z"/><defs><path id="s" d="M172.62 71.38v11.372s-.104 2.184 3.05 3.153l-.73-3.153.945-12.155"/></defs><clipPath id="t"><use xlink:href="#s" overflow="visible"/></clipPath><path clip-path="url(#t)" fill="#FF5D61" d="M173.262 78.39h2v2h-2v-2z"/><defs><path id="u" d="M172.62 71.38v11.372s-.104 2.184 3.05 3.153l-.73-3.153.945-12.155"/></defs><clipPath id="v"><use xlink:href="#u" overflow="visible"/></clipPath><path clip-path="url(#v)" fill="#FF5E62" d="M173.62 75.38h2v4h-2v-4z"/><defs><path id="w" d="M172.62 71.38v11.372s-.104 2.184 3.05 3.153l-.73-3.153.945-12.155"/></defs><clipPath id="x"><use xlink:href="#w" overflow="visible"/></clipPath><path clip-path="url(#x)" fill="#FF5F63" d="M173.262 73.39h2v1h-2v-1z"/><defs><path id="y" d="M172.62 71.38v11.372s-.104 2.184 3.05 3.153l-.73-3.153.945-12.155"/></defs><clipPath id="z"><use xlink:href="#y" overflow="visible"/></clipPath><path clip-path="url(#z)" fill="#FF6064" d="M173.262 71.39h2v2h-2v-2zm0-2h2v2h-2v-2z"/><path fill="#333" d="M177.6 87.54c-.154 0-.313-.022-.47-.07-4.774-1.52-4.32-4.817-4.302-4.955l-.018-11.896c0-.86.54-1.56 1.4-1.56.862 0 1.404.7 1.404 1.56v12.13c0 .46.6 1.2 2.3 1.74.82.26 1.35 1.14 1.09 1.95-.21.66-.746 1.08-1.405 1.08v.02zm-2.598 4.954c-3.09 0-6.754-.694-10.822-2.775-.768-.4-1.072-1.33-.682-2.1.398-.77 1.336-1.07 2.1-.68 10.438 5.33 17.71.18 17.78.12.694-.51 1.67-.36 2.177.34.504.69.354 1.67-.344 2.17-.23.17-4.09 2.9-10.18 2.9l-.01.02h-.01z"/><path d="M206.45 49.6v.002l.02.01c-.007-.005-.013-.008-.02-.01zm-35.1-17.625s-14.98 2.26-16.432 7.477c-.11.396-.162.828-.186 1.273-9.354-.334-10.95 8.4-10.95 11.22 0 2.035 2.254 7.933 3.61 11.3l3.484 11.583 4.192-9.79.05-.017 2.08-.7c.62-.27 1.43-.24 2.27-.41.83-.2 1.79-.04 2.73-.08.47-.02.93.1 1.41.14l1.38.2c.87.24 1.72.38 2.44.64 1.36.41 2.132.81 2.25.86l-.04-.01c.74.43 1.69.17 2.12-.58.43-.75.17-1.7-.58-2.12.05.04-.95-.68-2.48-1.4-.74-.41-1.68-.72-2.67-1.14-.51-.18-1.04-.32-1.58-.48-.55-.14-1.09-.36-1.67-.42-1.16-.14-2.3-.48-3.43-.42-.393.01-.773 0-1.146 0 .67-2.39 1.01-4.96 1.177-6.94 2.86 2.48 9.25 6.81 19.57 7.49l-7.12-7.27s6.24 4.16 12.88 7.25c-.43.1-.85.23-1.26.34-.55.17-1.08.31-1.59.49-.99.42-1.93.74-2.67 1.15-1.39.66-2.33 1.3-2.45 1.38h.01l-.05.02c-.71.43-.96 1.36-.54 2.1.43.75 1.38 1.01 2.12.58.07-.02.85-.43 2.27-.86.68-.26 1.54-.4 2.41-.63l1.38-.2c.47-.05.93-.17 1.4-.14.95.04 1.89-.13 2.73.08.84.17 1.65.14 2.27.41l2.07.7.02.01 4.21 9.82 2.96-8.54c1.09-1.85 6.43-11.44 3.7-16.9.01 0-1.13-1.73 2.73.2-.02-.03-7.35-19.69-35.1-17.63z" fill="#754C24"/></svg>