<svg xmlns="http://www.w3.org/2000/svg" width="256" height="256" viewBox="0 0 256 256"><path fill="#333" d="M129.092 213.45c-26.738 0-68.396-9.392-72.71-34.255-21.374-.68-25.92-16.063-25.92-29.012 0-12.51 5.85-23.37 14.326-27.383-.065-1.43-.12-3.38-.102-5.73-3.584 2.22-7.237 3.34-10.925 3.34-13.85 0-22.09-15.78-22.44-16.45-.64-1.25-.57-2.76.18-3.95.74-1.16 2.02-1.86 3.39-1.86.04 0 .08.12.11.12.38.01.73.14 1.09.14h.01c10.52 0 10.79-3.84 11.45-12.82.59-7.91 1.32-17.82 11.14-25.38 5.23-4.02 10.46-6.09 15.52-6.09 4.05 0 7.95 1.3 11.46 3.83 10.56-10.2 24.74-15.37 42.18-15.37 6.36 0 13.23.7 20.45 2.07 7.23-1.37 14.1-2.07 20.45-2.07 17.31 0 31.4 5.09 41.95 15.13 3.43-2.38 7.22-3.62 11.14-3.62 5.07 0 10.29 2.04 15.53 6.07 9.79 7.53 9.58 16.94 9.43 23.82-.18 8.47-.28 12.73 14.76 14.2 1.31.13 2.48.9 3.12 2.06.63 1.16.65 2.55.05 3.73-.35.68-8.58 16.45-22.44 16.45-3.5 0-6.96-.99-10.36-2.98.01 2.57-.06 4.64-.14 6.05 7.83 4.47 13.06 14.9 13.06 26.73 0 12.64-4.33 27.61-24.43 28.94-4.39 28.04-52.35 34.33-71.29 34.33l-.03-.04zm-21.256-166.9c6.158 0 12.953.675 20.447 2.148 7.494-1.473 14.285-2.146 20.443-2.146 19.656 0 32.836 6.87 41.653 16.542 2.67-2.59 6.5-5.038 11.43-5.038 3.73 0 8.1 1.41 13.08 5.236 18.91 14.543-6.78 35.59 26.22 38.836 0 0-7.31 14.283-18.88 14.283-4.36 0-9.32-2.02-14.72-7.59.75 9.56.1 16.34.1 16.34l-.31.68c7.74 2.61 13.5 12.53 13.5 24.36 0 22.44-13.72 25.04-23.41 25.04-.24 0-.47-.01-.7-.02-.33 27.04-46.61 34.26-67.62 34.26-23.97 0-68.96-8.7-69.08-34.44-.67.15-1.38.21-2.15.21-9.7 0-23.41-2.6-23.41-25.03 0-12.41 6.33-22.71 14.64-24.68l-.16-.34s-.68-7.08.15-16.99c-5.64 6.07-10.81 8.25-15.34 8.25-11.57 0-18.88-14.27-18.88-14.27.41.01.81.01 1.2.01 25.94 0 6.4-24.52 25.03-38.85 4.97-3.82 9.34-5.23 13.08-5.23 5.11 0 9.04 2.63 11.73 5.33C74.7 53.61 87.95 46.6 107.8 46.6"/><path fill="#333" d="M107.8 38.6c-17.29 0-31.597 4.82-42.64 14.343-3.446-1.872-7.16-2.84-11.01-2.84-5.97 0-12.015 2.32-17.964 6.895-11.24 8.645-12.11 20.41-12.69 28.19-.22 3.05-.48 6.5-1.29 7.717-.396.59-2.25 1.28-6.165 1.28-.32 0-.64 0-.98-.01-.07-.004-.14-.005-.22-.005-2.74 0-5.3 1.4-6.76 3.73-1.51 2.39-1.64 5.395-.35 7.91.98 1.91 10 18.63 26 18.63.78 0 1.56-.04 2.33-.12-5.92 6.094-9.63 15.512-9.63 25.9 0 12.57 3.8 21.77 11.29 27.35 4.14 3.08 9.21 4.886 15.4 5.474 2.6 8.97 10.32 19.05 29.63 26.35 15.77 5.96 34.26 8.09 46.31 8.09 11.5 0 29.17-1.97 44.31-7.48 20-7.28 27.77-17.8 30.28-27.14 5.5-.73 10.07-2.48 13.85-5.3 7.49-5.58 11.29-14.78 11.29-27.35 0-10.4-3.72-19.882-9.7-25.99 1.04.146 2.08.22 3.13.22 16.01 0 25.03-16.73 26-18.64 1.21-2.356 1.17-5.156-.1-7.48-1.27-2.32-3.6-3.87-6.23-4.125-8.48-.84-10.25-2.77-10.51-3.15-.76-1.08-.69-4.08-.63-6.99.16-7.29.4-18.32-10.99-27.08-5.94-4.57-11.99-6.89-17.95-6.89-3.71 0-7.31.91-10.67 2.66-11.02-9.41-25.25-14.17-42.42-14.17-6.38 0-13.25.67-20.44 2-7.2-1.33-14.07-2-20.45-2h-.02z"/><path fill="#E29837" d="M185.81 69.11s10.18-20.36 29.085-5.82c18.908 14.544-6.774 35.59 26.226 38.837 0 0-24.77 48.424-55.31-33.017zm-115.617 0s-10.18-20.36-29.088-5.82C22.2 77.835 42.62 102.88 14.88 102.128c0 0 24.772 48.424 55.313-33.016v-.002z"/><path fill="#F4D1B0" d="M185.7 150.184c0 13.83 2.01 25.036 11.704 25.036 9.693 0 23.408-2.6 23.408-25.036 0-13.824-7.854-25.036-17.554-25.036-9.697 0-17.56 11.21-17.558 25.036z"/><path fill="#C69C6D" d="M188.61 150.09c.04-3.875.84-8.29 2.74-12.04.954-1.905 2.18-3.76 3.9-5.366 1.71-1.57 4.15-2.92 6.983-2.953 1.076.11.854.01 1.863.22.814.17 1.514.41 2.053.68 1.2.53 2.17 1.28 3.07 2.06 1.72 1.61 1.83 3.46 2.79 5.37 1.9 3.85 1.62 7.99 1.62 12.14v.48c0 2.72-1.02 4.94-3.74 4.98-2.71.04-4.37-2.14-4.41-4.85 0-.19.3-.41.32-.6.3-2.73.21-5.71-.68-8.22-.82-2.61-2.45-4.25-2.93-4.42-.28-.14-1.05-.12-2.03.54-.95.66-1.9 1.74-2.72 3.01-1.66 2.65-2.64 5.62-3.02 9.2l-.01.14c-.17 1.6-1.59 2.76-3.19 2.59-1.5-.16-2.61-1.43-2.6-2.92l-.02-.03z"/><path fill="#F4D1B0" d="M69.574 150.184c0 13.83-2.004 25.036-11.703 25.036-9.69 0-23.41-2.6-23.41-25.036 0-13.824 7.86-25.036 17.56-25.036s17.56 11.21 17.56 25.036z"/><path fill="#C69C6D" d="M66.666 150.09c-.04-3.875-.84-8.29-2.74-12.04-.96-1.905-2.18-3.76-3.9-5.366-1.713-1.57-4.152-2.92-6.988-2.953-1.074.11-.852.01-1.865.22-.813.17-1.51.41-2.05.68-1.198.53-2.17 1.28-3.067 2.06-1.72 1.61-2.346 3.46-3.307 5.37-1.9 3.85-2.13 7.99-2.13 12.14v.48c0 2.72 1.53 4.94 4.25 4.98 2.71.04 4.64-2.14 4.67-4.85 0-.19-.16-.41-.18-.6-.31-2.73-.15-5.71.75-8.22.82-2.61 2.48-4.25 2.96-4.42.29-.14 1.06-.12 2.03.54.95.66 1.91 1.74 2.73 3.01 1.66 2.65 2.64 5.62 3.02 9.2l.01.14c.17 1.6 1.6 2.76 3.19 2.59 1.5-.16 2.61-1.43 2.6-2.92l.01-.03z"/><path fill="#fdb" d="M196.715 174.907c0 27.27-46.535 34.542-67.623 34.542-23.996 0-69.078-8.73-69.078-34.56 0-49.2-5.092-101.44 68.35-101.44 74.17 0 68.35 52.24 68.35 101.43v.02z"/><path fill="#FBB03B" d="M128.283 48.698c-88.438-17.38-79.338 76.45-79.338 76.45l10.824 23.704c-1.22-48.11 61.56-52.514 68.51-63.99 6.95 11.476 69.88 17.695 69.16 62.535l10.18-22.25s9.1-93.83-79.34-76.45z"/><path fill="#E8D5AF" d="M128.363 92.013c-.55 0-1.107-.15-1.596-.475-1.34-.88-1.715-2.688-.834-4.03l6.456-9.833-12.82-5.533c-1.07-.46-1.76-1.517-1.76-2.68 0-1.166.7-2.216 1.77-2.672l8.58-3.612-8.25-5.038c-.87-.535-1.4-1.476-1.4-2.494 0-1.017.54-1.962 1.41-2.483l5.46-3.272c1.36-.82 3.16-.38 3.98 1 .82 1.38.38 3.17-1 3.99l-1.33.81 8.98 5.49c.93.57 1.46 1.62 1.38 2.7-.09 1.09-.77 2.04-1.77 2.47l-7.54 3.17 9.74 4.21c.79.34 1.39 1.01 1.63 1.84.25.83.12 1.72-.35 2.43l-8.36 12.73c-.55.85-1.48 1.31-2.43 1.31l.04-.02z"/><radialGradient id="a" cx="-752.297" cy="238.516" r="29.981" gradientTransform="matrix(.723 0 0 -.723 630.793 346.036)" gradientUnits="userSpaceOnUse"><stop offset="0" stop-color="#FF585D"/><stop offset="1" stop-color="#FF585D" stop-opacity="0"/></radialGradient><circle opacity=".7" fill="url(#a)" enable-background="new" cx="86.637" cy="173.589" r="21.697"/><radialGradient id="b" cx="-637.305" cy="238.516" r="29.981" gradientTransform="matrix(.723 0 0 -.723 630.793 346.036)" gradientUnits="userSpaceOnUse"><stop offset="0" stop-color="#FF585D"/><stop offset="1" stop-color="#FF585D" stop-opacity="0"/></radialGradient><circle opacity=".7" fill="url(#b)" enable-background="new" cx="169.811" cy="173.589" r="21.697"/><path fill="#DBC79C" d="M133.613 194.18s-7.752 5.622-15.75 5.815c-.24.006 21.08 16.24 15.75-5.815z"/><path fill="#F48B73" d="M137.74 181.816c0 5.084-4.127 9.21-9.21 9.21-5.082 0-9.21-4.126-9.21-9.21s4.128-9.21 9.21-9.21c5.083 0 9.21 4.126 9.21 9.21z"/><path fill="#333" d="M122.505 184.463c-3.684 0-6.693-1.025-9.008-3.066-5.37-4.756-4.383-13.05-4.336-13.4.21-1.596 1.68-2.73 3.26-2.516 1.59.21 2.72 1.66 2.52 3.25-.01.06-.63 5.64 2.44 8.33 2.05 1.79 5.52 2.08 10.32.86 1.58-.42 3.14.55 3.54 2.11.4 1.56-.54 3.14-2.1 3.54-2.39.61-4.6.92-6.61.92h-.02zm12.443-.003c-1.957 0-4.14-.303-6.53-.915-1.555-.398-2.5-1.98-2.1-3.534.396-1.56 1.992-2.5 3.534-2.1 3.22.82 7.5 1.37 9.61-.68 2.18-2.12 1.74-6.64 1.38-8.2-.35-1.56.62-3.12 2.19-3.48 1.58-.35 3.118.61 3.49 2.16.08.36 1.99 8.82-2.962 13.67-2.1 2.07-4.97 3.09-8.59 3.09l-.022-.01z"/><radialGradient id="c" cx="-8178.561" cy="1543.436" r="29.996" gradientTransform="matrix(.21 0 0 -.21 1848.348 485.938)" gradientUnits="userSpaceOnUse"><stop offset="0" stop-color="#FF585D"/><stop offset="1" stop-color="#FF585D" stop-opacity="0"/></radialGradient><circle opacity=".7" fill="url(#c)" enable-background="new" cx="129.966" cy="161.589" r="6.302"/><path fill="#333" d="M134.943 166.184c-1.395 0-2.625-1.007-2.862-2.43-.29-1.79-.89-2.96-1.8-3.474-1.2-.68-2.99-.248-3.38-.106-1.48.57-3.18-.17-3.74-1.682-.57-1.498.18-3.182 1.68-3.75.46-.188 4.61-1.665 8.36.486 1.71.982 3.9 3.092 4.64 7.57.28 1.582-.8 3.083-2.39 3.344-.16.03-.32.04-.48.04h-.02z"/><path fill="#fff" d="M118.797 137.99c0 14.013-11.338 25.386-25.363 25.386-14.018 0-25.37-11.373-25.37-25.386 0-14.002 11.353-25.368 25.37-25.368 14.025 0 25.363 11.366 25.363 25.368zm69.805 0c0 14.013-11.338 25.386-25.363 25.386-14.02 0-25.38-11.373-25.38-25.386 0-14.002 11.35-25.368 25.37-25.368 14.02 0 25.36 11.366 25.36 25.368h.01z"/><path fill="#333" d="M109.46 137.99c0 8.86-7.177 16.03-16.026 16.03-8.84 0-16.023-7.17-16.023-16.03 0-8.85 7.19-16.007 16.03-16.007 8.85 0 16.03 7.156 16.03 16.007h-.01zm69.804 0c0 8.86-7.174 16.03-16.024 16.03-8.84 0-16.03-7.17-16.03-16.03 0-8.85 7.19-16.007 16.02-16.007 8.85 0 16.02 7.156 16.02 16.007h.014z"/></svg>