<svg xmlns="http://www.w3.org/2000/svg" width="256" height="256" viewBox="0 0 256 256"><path fill="#333" d="M217.682 102.53c-.4-.3-.82-.55-1.26-.76.02-.94-.13-1.88-.46-2.78-.69-1.9-2.08-3.41-3.92-4.26-.48-.23-.99-.4-1.5-.52-.76-1.24-1.88-2.28-3.29-2.95-1.07-.51-2.2-.77-3.38-.77-1.302 0-2.562.33-3.67.92-1.052-1.41-2.58-2.46-4.392-2.89C191.1 62.7 179.13 48 162.5 48c-1.34 0-2.715.097-4.1.286h-1.57c-1.39-.19-2.76-.29-4.1-.29h-.01c-8.92 0-16.72 4.286-22.57 12.39-13.15 18.24-14.11 52.7-11.5 60.54 1.26 3.77 4.017 6.86 8.01 9.076-1.11 1.17-2.24 2.42-3.33 3.72-1.37 1.58-2.56 3.07-3.64 4.57-.68.88-1.31 1.77-1.9 2.64-1.164-2.2-2.366-4.48-3.775-6.78-.835-1.472-1.786-2.99-2.823-4.52-.91-1.43-1.94-2.885-3.07-4.33-.67-.943-1.4-1.82-2.1-2.632.24-.267.46-.56.64-.888l3.31-5.85c.4-.69.62-1.48.65-2.27l.57-14.77c4.36-1.89 6.85-6.17 6.85-12.12 0-2.19-.43-4.31-1.23-6.19.22-.8.238-1.64.047-2.46-.12-.53-2.91-12.16-10.37-21.13 1.25-7.71 0-13.95-3.71-18.59-5.18-6.41-12.99-7.11-16.1-7.11l.02.058c-1.44 0-2.81.14-3.99.404-2.59.585-4.65 2.065-5.97 4.28-1.98 3.33-1.74 7.543-1.14 10.62-20.94 2.73-27.19 30.4-27.46 31.636-.17.753-.15 1.526.03 2.26-.84 1.91-1.28 4.068-1.28 6.316 0 6.214 2.69 10.57 7.39 12.333l.55 14.54c.03.8.25 1.58.64 2.27l3.31 5.84c.32.57.74 1.05 1.23 1.44-.7.79-1.36 1.59-2 2.39-2.64 3.29-4.66 6.6-6.19 10.07l-.05.1c-.72 1.72-1.59 4.03-2.01 6.69-.47 2.52-.51 5.18-.12 7.75.34 2.45 1.15 4.91 2.41 7.29 1 1.89 2.26 3.66 3.75 5.26.96 1.04 2.02 2.04 3.24 3.03l-8.54 19.85c-.96 2.23-.23 4.89 1.8 6.22.86.56 1.82.84 2.78.84 1.29 0 2.55-.51 3.51-1.5l.03-.03c.05-.05.25-.23.54-.4l.02-.02.15-.09.06-.04.14-.07.05-.02c.03-.02.07-.03.11-.05.04-.01.07-.02.11-.04l.09-.02.03-.01.07-.02h.08l.05.02h.01l.08.05.18.13.07.06c.12.11.21.2.28.27.35.4.74.77 1.18 1.15l-1.41 25.1c-1.17.49-2.15 1.42-2.67 2.65-2.06.96-6.06 2.97-9.21 5.4-.14.1-.26.21-.38.32-1.03.76-2.12 1.01-3.85 1.37-1.67.35-3.56.74-5.48 1.86-.65.36-1.19.88-1.6 1.47-1.17.92-1.91 2.34-1.91 3.93v4c0 2.77 2.24 5 5 5h38c.71 0 1.39-.14 2-.41.61.26 1.29.41 2 .41H158c.56 0 1.09-.09 1.59-.26.504.17 1.038.26 1.59.26h39.31c2.766 0 5-2.24 5-5v-4c0-2.76-2.234-5-5-5h-.244c-2.7-1.12-5.827-1.78-9.18-1.95-2.83-2.05-6.036-4.24-7.67-5.35-.057-.2-.105-.4-.14-.54-.117-.47-.218-.87-.36-1.28-.698-1.93-2.478-3.19-4.454-3.29l-3.6-44.14c2.34-1.06 3.52-3.73 2.66-6.2l-.74-2.14.03-.92c2.13-1.06 3.24-3.5 2.58-5.84l-.78-2.74c-.05-.17-.1-.34-.17-.5l-2.07-10.48c.5.24 1.01.47 1.54.7 2.44 1.02 4.89 1.66 7.3 1.94.66.07 1.33.11 2.01.11 2.65 0 5.272-.56 7.59-1.61 3.46-1.5 5.71-3.98 7.102-5.72l.15-.19c1.54-2.13 2.41-4.18 2.978-5.53.05-.11.09-.21.12-.32.1-.3.21-.59.32-.87.07-.19.15-.38.22-.57 2.78-1.29 4.58-3.38 5.45-5.22.24-.37.45-.74.65-1.1.84-1.5 1.3-3.28 1.52-4.28.29-.69.52-1.36.69-2.03l5.12-6.84c2.32-3.13 1.68-7.55-1.43-9.86v.02zm-83.856 51.85l.11-.17c.7-1.142 1.47-2.33 2.32-3.43l.07-.11-.67 3.78c-.064.14-.11.278-.15.42l-.59 1.88c-.12.37-.19.74-.22 1.12-.172-.25-.36-.5-.568-.75-.37-.452-.73-.942-1.11-1.452l-.02-.03.02.03c.25-.44.52-.87.8-1.29l.008.002zm-32.42 8.64c.8-.26 1.53-.72 2.13-1.36.25-.28.47-.58.66-.9.39.9.74 1.73 1.05 2.46-1.02 1.45-1.9 3.29-1.79 5.3L101.39 163l.016.02zm37.41 54.548c-1.03.56-1.87 1.48-2.3 2.65-.15.41-.26.83-.38 1.31-.033.13-.08.32-.135.52-1.65 1.12-4.85 3.312-7.67 5.34-2.59.132-5.04.563-7.27 1.26-1.74-.897-3.44-1.26-4.95-1.567-1.73-.36-2.82-.61-3.84-1.37-.12-.12-.25-.22-.39-.33-3.16-2.42-7.15-4.44-9.21-5.39-.54-1.27-1.56-2.22-2.78-2.69l-1.05-23.35c1.49-.53 2.63-1.33 3.61-2.14.17.04.36.1.52.17.7.35 1.46.52 2.22.52 1.21 0 2.4-.44 3.34-1.28 1.52-1.38 2.05-3.55 1.33-5.47l-3.2-8.55c2.23 4.07 5.57 7.95 10.25 7.95.83 0 1.65-.13 2.46-.38.77-.25 1.47-.51 2.12-.78.64.27 1.35.53 2.12.78.8.25 1.62.38 2.45.38l.05.03c6.51 0 10.44-7.53 12.35-12.61.26.15.54.29.84.4l.44.16-.92 44.45zm-.026-91.798c.37-.31.74-.61 1.1-.9-.27-.87-.47-1.7-.607-2.42h-1.43c.28 1.18.59 2.29.94 3.32M66.4 151l3.28-16.38c-1.57 2.15-2.99 4.51-3.91 6.89-.91 2.37-1.22 4.637-.84 6.327.15.87.5 1.63.9 2.34.17.28.37.55.57.81"/><path fill="#fdb" d="M168.74 159.41l5.918 72.49-11.266.9-5.4-72.53 10.748-.86zm-12.93.653l-.958 71.604-11.3-.188 1.478-71.61 10.78.19z"/><path fill="#29ABE2" d="M173.88 225.534c.323-.493.64-.925.957-1.302 1.2-1.426 2.343-2.07 3.37-2.256.225.612.627 3.06 1.33 3.52 0 0 5.79 3.883 9.85 6.883h-.035c3.75 0 7.59.68 10.67 2.41l-.02 2.5-36.55.87s-1.052.21-.95.21h-.02s-.722-4.99-.452-7.48c2.88.87 8.41-.09 11.88-5.38h-.03v.01z"/><path fill="#C7B299" d="M161.2 238.38h39.42v-4h-39.81l.39 4z"/><path fill="#fff" d="M175.396 223.975s6.576 4.385 4.05 5.455c-2.532 1.07-7.993-.98-7.993-.98s1.717-4.19 3.943-4.48v.005z"/><path fill="#29ABE2" d="M145.56 225.534c-.325-.493-.642-.925-.958-1.302-1.197-1.426-2.338-2.07-3.367-2.256-.228.612-.63 3.06-1.33 3.52 0 0-5.787 3.883-9.85 6.883h.034c-3.75 0-7.59.68-10.67 2.41l.03 2.5 36.55.87s1.05.21.95.21h.01s.72-4.99.45-7.48c-2.88.87-8.41-.09-11.88-5.38h.02v.01z"/><path fill="#C7B299" d="M158.02 238.38h-39.4v-4h39.53l-.13 4z"/><path fill="#fff" d="M144.042 223.975s-6.57 4.385-4.045 5.455c2.53 1.07 7.99-.98 7.99-.98s-1.72-4.19-3.945-4.48v.005z"/><path fill="#0071BC" d="M157.023 154.38H141.92l.47 13.38 13.83 4.543.804-2.207.804 2.112 13.83-4.435.47-13.394h-15.105z"/><path fill="#1A1A1A" d="M81.09 47.928s-3.307-9.93 2.728-11.294c6.04-1.36 26.485 1.167 14.412 30.964"/><path fill="#ED1E79" d="M79.34 52.407l1.75-5.45s5.455-4.48 9.74 2.532l-1.363 6.42"/><path fill="#1A1A1A" d="M69.15 56.238l-.518 9.347 32.718 3.637-11.686-15.837s-15.06-3.896-20.514 2.853z"/><path fill="#FBB03B" d="M130.947 76.196l1.945 46.185h49.08l1.36-31.38-7.01-26.29-45.376 11.49z"/><path fill="#D3BD8D" d="M176.303 86.866c0 4.535.656 8.21 3.838 8.21 3.19 0 7.68-.854 7.68-8.21 0-4.538-2.56-8.21-5.75-8.21-3.18 0-5.76 3.672-5.76 8.21z"/><path fill="#C69C6D" d="M177.257 86.834c.015-1.27.274-2.72.897-3.95.316-.624.713-1.235 1.28-1.763.562-.51 1.36-.95 2.29-.96.354.03.28.01.614.07.26.06.49.14.67.23.39.18.71.42 1 .67.57.53.68 1.14.99 1.77.63 1.26.61 2.62.61 3.98v.16c0 .89-.41 1.62-1.31 1.64-.89.01-1.47-.7-1.48-1.59 0-.06.08-.13.09-.19.1-.9.06-1.87-.23-2.7-.27-.85-.8-1.39-.96-1.45-.09-.05-.34-.04-.66.18-.31.22 1.11.57.84.99-.54.87.74 1.84.74 3.01v.05c0 .52-2.25.9-2.78.85-.49-.05-2.58-.47-2.58-.95l-.04-.04h.02z"/><path fill="#D3BD8D" d="M138.218 86.866c0 4.535-.657 8.21-3.837 8.21s-7.67-.854-7.67-8.21c0-4.538 2.58-8.21 5.76-8.21s5.76 3.672 5.76 8.21h-.01z"/><path fill="#C69C6D" d="M137.264 86.834c-.017-1.27-.277-2.72-.897-3.95-.315-.624-.716-1.235-1.28-1.763-.56-.51-1.357-.95-2.292-.96-.35.03-.276.01-.604.07-.28.06-.5.14-.68.23-.4.18-.72.42-1.01.67-.57.53-.82 1.14-1.14 1.77-.63 1.26-.75 2.62-.75 3.98v.16c0 .89.55 1.62 1.44 1.64.89.01 1.55-.7 1.56-1.59 0-.06-.04-.13-.05-.19-.1-.9-.04-1.87.25-2.7.27-.85.82-1.39.97-1.45.09-.05.35-.04.67.18.31.22.63.57.89.99.54.87.87 1.84.99 3.01v.05c.05.52.52.9 1.04.85.49-.05.85-.47.85-.95v-.04h.05z"/><path fill="#005D91" d="M142.62 157.38h29v3h-29v-3z"/><path fill="#FFEDDC" d="M168.952 132.417c4.973-2.325 5.096-11.432 5.096-11.432l-8-3.376-.044-.23H147.31l-.02.1-8.423 3.5s.622 9.22 5.803 11.39l-4.958 25.97s2.27-.65 2.983 0c.716.64 2.145.91 3.77 0 1.62-.91 4.866-.91 6.486.13 1.63 1.05 6.24-.18 6.24-.18s3.7-1.17 6.56.71c2.86 1.89 7.03-.9 7.03-.9s1.04-.58 1.82 1.17l-5.64-26.87z"/><path fill="#E2AB74" d="M191.68 116.584"/><path fill="#fff" d="M181.404 111.848s.34-1.054 1.082-1.19c0 0-.754-1.3-1.688-1.13-.93.17-1.02 1.026-1.02 1.026s.5.817 1.61 1.294h.016z"/><path d="M131.428 163.564c.17-.788-.01-1.862-1.14-3.243-2.72-3.31-4.46-7.49-8.09-4.95h.002s-.244.16-.662.45l-.662-.44v.01c-.77-.54-1.454-.76-2.083-.76l-.686-1.55c-1.05-2.25-2.32-4.86-3.68-7.65-1.48-2.77-2.97-5.74-4.74-8.63-.83-1.46-1.74-2.91-2.69-4.31-.89-1.42-1.87-2.79-2.89-4.09-.94-1.33-2.06-2.56-3.08-3.73-1.06-1.16-2.16-2.24-3.29-3.19l-1.7-1.34-1.8-1.13c-1.24-.67-2.46-1.19-3.7-1.48-1.21-.3-2.436-.35-3.382-.25-.512.04-1.28.24-1.605.35-.123.05-.19.07-.19.07l-.003-.01-.05-.05 3.57 9.73c-.02.01.1-.03.09-.02-.13.08-.62.19-.75.2-.19.04-.29 0-.13.05.14.04.51.19 1 .46l.85.54 1.01.84c.7.61 1.49 1.38 2.28 2.27.78.94 1.64 1.88 2.44 3.04.83 1.09 1.66 2.27 2.45 3.55.83 1.24 1.63 2.53 2.38 3.89 1.58 2.64 2.95 5.47 4.31 8.06 1.25 2.67 2.41 5.16 3.41 7.3l2.84 6.65c-1.74 1.77-2.875 3.4-2.53 4.45 0 0 4.05 13.13 9.387 11.44 1.946-.61 3.027-1.24 3.624-1.79.597.55 1.678 1.17 3.624 1.79 5.33 1.69 9.384-11.44 9.384-11.44.383-1.16-1.052-3.04-3.118-5.03zm-51.668-39.63l.003-.006-.005.004zm-7.38-5.61c-1.15.94-2.73 2.31-4.54 4.06-1.82 1.76-3.86 3.91-5.88 6.45-2.02 2.53-4 5.51-5.52 8.97-.73 1.76-1.39 3.61-1.7 5.63-.38 1.98-.42 4.123-.1 6.174.284 2.07 1.006 4.018 1.886 5.69.888 1.67 1.948 3.066 2.998 4.2 1.048 1.14 2.088 2.04 3.018 2.775.943.684 1.763 1.356 2.458 1.746l2.195 1.33 1.49-2.84-3.874 68.98 11.28.55 3.53-71.94-9.42-.47 2.1-3.98-1.56-.87c-.53-.25-1.01-.66-1.66-1.07-.59-.43-1.22-.94-1.8-1.53-.58-.57-1.12-1.22-1.54-1.93-.4-.72-.75-1.47-.9-2.35-.38-1.7-.07-3.96.84-6.33 1.85-4.8 5.74-9.48 8.76-12.65 1.54-1.6 2.91-2.88 3.86-3.73l1.48-1.27-5.52-7.1s-.68.54-1.86 1.49zm9.182 41.874l2.71 71.807 11.296-.473-3.234-71.79zM79.77 123.92l-.007.008.01-.008z" fill="#fdb"/><path fill="#FF9FCD" d="M65.083 157.098l34.186.127-7.16-40.844H73.04l-7.957 40.73z"/><path fill="#F4D1B0" d="M85.62 118.038c0 2.58-1.303 2.403-3.5 2.403-2.203 0-3.5.18-3.5-2.4v-9.35c0-2.58 1.297-4.67 3.5-4.67 2.197 0 3.5 2.1 3.5 4.68v9.35-.01zm15.902-31.172c0 4.535.658 8.21 3.838 8.21 3.184 0 7.678-.854 7.678-8.21 0-4.538-2.576-8.21-5.755-8.21-3.182 0-5.76 3.672-5.76 8.21z"/><path fill="#C69C6D" d="M102.476 86.834c.015-1.27.275-2.72.898-3.95.313-.624.714-1.235 1.278-1.763.565-.51 1.365-.95 2.292-.96.353.03.28.01.615.07.26.06.49.14.66.23.39.18.71.42 1 .67.57.53.57 1.14.88 1.77.62 1.26.5 2.62.5 3.98v.16c0 .89-.31 1.62-1.2 1.64-.9.01-1.43-.7-1.44-1.59 0-.06.1-.13.11-.19.1-.9.07-1.87-.22-2.7-.27-.85-.8-1.39-.96-1.45-.1-.05-.34-.04-.66.18-.31.22 0 .57-.27.99-.55.87-.37 1.84-.37 3.01v.05c0 .52-1.15.9-1.67.85-.49-.05-1.48-.47-1.48-.95l.03-.04z"/><path fill="#F4D1B0" d="M63.438 86.866c0 4.535-.66 8.21-3.84 8.21-3.18 0-7.68-.854-7.68-8.21 0-4.538 2.58-8.21 5.76-8.21 3.18 0 5.76 3.672 5.76 8.21z"/><path fill="#C69C6D" d="M62.484 86.834c-.016-1.27-.277-2.72-.898-3.95-.317-.624-.717-1.235-1.28-1.763-.56-.51-1.36-.95-2.292-.96-.35.03-.28.01-.608.07-.268.06-.5.14-.673.23-.396.18-.713.42-1.008.67-.565.53-.93 1.14-1.25 1.77-.618 1.26-.855 2.62-.855 3.98v.16c0 .89.66 1.62 1.552 1.64.895.01 1.608-.7 1.617-1.59 0-.06-.02-.13-.02-.19-.11-.9-.04-1.87.26-2.7.27-.85.83-1.39.98-1.45.09-.05.36-.04.67.18.31.22.63.57.89.99.54.87.87 1.84.99 3.01v.05c.05.52.52.9 1.04.85.49-.05.85-.47.85-.95l.03-.04z"/><path fill="#fdb" d="M105.135 94.973c0 16.135-15.5 17.528-22.418 17.528-7.87 0-22.418-1.39-22.418-17.52s-1.67-36.85 22.41-36.85c24.33 0 22.42 20.72 22.42 36.85z"/><path fill="#333" d="M80.25 101.98c-.66 0-1.27-.422-1.483-1.086-.263-.817.19-1.696 1.01-1.958 1.655-.524 2.1-1.252 2.105-1.563l-.012-12.055c0-.86 1.01-1.558 1.874-1.558.864 0 1.876.7 1.876 1.558v11.92-.003s.062 3.192-4.583 4.67c-.155.05-.63.074-.787.075z"/><path fill="#F48B73" d="M85.344 106.778c0 2.02-1.638 3.656-3.657 3.656-2.02 0-3.658-1.638-3.658-3.656 0-2.023 1.64-3.658 3.65-3.658 2.02 0 3.65 1.635 3.65 3.658h.01z"/><path fill="#F5F5F5" d="M78.57 86.84c0 3.687-2.988 6.676-6.672 6.676-3.688 0-6.676-2.99-6.676-6.675 0-3.68 2.987-6.67 6.676-6.67 3.684 0 6.67 2.99 6.67 6.67h.002z"/><path fill="#333" d="M76.59 86.683c0 2.558-2.07 4.63-4.634 4.63-2.56 0-4.633-2.072-4.633-4.63 0-2.562 2.074-4.63 4.633-4.63 2.564 0 4.635 2.068 4.634 4.63z"/><circle fill="#F5F5F5" cx="94.791" cy="86.841" r="6.674"/><path fill="#333" d="M99.486 86.683c0 2.558-2.07 4.63-4.633 4.63-2.558 0-4.635-2.072-4.635-4.63 0-2.562 2.077-4.63 4.635-4.63 2.562 0 4.633 2.068 4.633 4.63zm-17.602 20.665c-4.534 0-8.086-2.344-8.086-5.337 0-.64.524-1.17 1.168-1.17.646 0 1.17.53 1.17 1.17 0 1.42 2.36 3.01 5.748 3.01 3.39 0 5.745-1.58 5.745-3 0-.64.52-1.17 1.16-1.17s1.16.53 1.16 1.17c0 3-3.55 5.34-8.08 5.34l.01-.01z"/><path fill="#ED1E79" d="M88.042 134.393c0 .592.49 1.072 1.093 1.072s1.095-.48 1.095-1.072c0-.59-.492-1.07-1.095-1.07-.602 0-1.093.48-1.093 1.07zm0 12.462c0 .593.49 1.073 1.093 1.073s1.095-.49 1.095-1.08c0-.6-.492-1.07-1.095-1.07-.602 0-1.093.47-1.093 1.07v.007zm-12.718-12.462c0 .592.492 1.072 1.093 1.072.604 0 1.09-.48 1.09-1.072 0-.59-.486-1.07-1.09-1.07-.6 0-1.093.48-1.093 1.07zm0 12.462c0 .593.492 1.073 1.093 1.073.604 0 1.09-.49 1.09-1.08 0-.6-.486-1.07-1.09-1.07-.6 0-1.093.47-1.093 1.07v.007zm19.682 10.65l11.226 30.02s-3.406-1.73-5.54.126c-2.13 1.86-3.835 2.98-11.51.64-7.67-2.35-11.08 1.12-11.08 1.12s-8.098 3.34-12.572-1.6c-4.48-4.94-9.38-.02-9.38-.02l13.107-30.48"/><path fill="#9E005D" d="M66.62 157.38h31v3h-31v-3zm34.073 30.27c-.04.035-.08.065-.12.1-2.3-6.31-6.102-17.165-5.735-19.078.53-2.725 2.787-2.076 5.167 4.674 1.307 3.694 3.96 9.558 6.09 14.115-.623-.27-3.512-1.46-5.402.19zm-44.345-.077c2.173-3.93 11.692-20.85 13.453-19.81 1.58.922-2.01 13.262-3.36 20.862-.31-.255-.62-.534-.9-.854-3.95-4.37-8.24-1.02-9.18-.19h-.01zm27.097-17.863c4.188.492 5.984 10.967 6.817 18.856-.368-.104-.685-.178-1.08-.3-6.534-2-9.954.203-10.83.905-.093-7.49.435-20 5.093-19.46z"/><path fill="#333" d="M89.14 74.635c-.083.017 1.036-.254 2.376-.3.683.02 1.475-.025 2.298.095.832.057 1.7.2 2.546.403.862.14 1.683.412 2.448.66.77.218 1.47.475 2.048.75 1.163.495 1.938.832 1.938.832l-2.066-.366c-.61-.13-1.335-.22-2.112-.25-.77-.06-1.588-.14-2.404-.08-.813 0-1.617.05-2.357.18-.744.06-1.402.26-1.973.38-1.143.33-1.615.59-1.693.63-.82.29-1.7-.14-1.99-.95-.3-.82.13-1.7.94-1.99zM76.072 77.36c-.06-.01-.766-.283-2.1-.565-1.31-.25-3.12-.522-4.96-.515-.924-.025-1.85-.02-2.71.087-.866.075-1.69.116-2.373.275-1.4.257-2.32.43-2.32.43l2.19-.9c.66-.303 1.46-.515 2.31-.775.86-.29 1.8-.495 2.75-.67 1.9-.405 3.86-.522 5.35-.548 1.48-.01 2.6.15 2.55.14.84.19 1.36 1.03 1.16 1.86-.2.84-1.03 1.36-1.87 1.17l.02.01z"/><path fill="#ED1E79" d="M93.948 225.534c.308-.493.616-.925.923-1.302 1.16-1.426 2.25-2.07 3.25-2.256.22.612.61 1.56 1.28 2.02 0 0 5.57 2.384 9.48 5.384h-.03c3.61 3 7.31 2.19 10.27 3.915l-.02 3.25-35.19-.75s-1.01-1.415-.92-1.415h-.01s-.7-2.985-.44-5.466c2.77.876 8.09 1.914 11.44-3.38h-.03z"/><path fill="#C7B299" d="M82.62 234.38h36v4h-36v-4z"/><path fill="#fff" d="M95.275 223.787s6.46 4.572 4.027 5.643c-2.433 1.07-7.964-1.18-7.964-1.18s1.795-4.182 3.937-4.47v.007z"/><path fill="#ED1E79" d="M66.683 225.534c-.31-.493-.618-.925-.922-1.302-1.15-1.426-2.25-2.07-3.24-2.256-.22.612-.6 1.56-1.28 2.02 0 0-5.57 2.384-9.48 5.384h.03c-3.61 3-7.3 2.19-10.26 3.915l.03 3.25 35.19-.75s1.02-1.415.92-1.415h.02s.7-2.985.44-5.466c-2.76.876-8.09 1.914-11.43-3.38h-.01z"/><path fill="#C7B299" d="M40.62 234.38h38v4h-38v-4z"/><path fill="#fff" d="M65.37 223.757s-6.48 4.603-4.046 5.673c2.437 1.07 8.004-1.09 8.004-1.09s-1.82-4.29-3.96-4.59l.002.007z"/><path fill="#1A1A1A" d="M83.148 51.66c-.27-.015-.586-.018-.916.002C59.752 48.422 53.05 79.35 53.05 79.35l.333.546-.072.1c.05.003.09 0 .14.003l5.48 9 .95 24.56 3.31 5.84s-2.57-19.28-2.1-35.21l.62-5.78c11.38-4.82 20.55-19.27 20.55-19.27l.13-1.03.25 1.1s8.5 15.49 19.81 20.6l2.03 10.13c-.15 14.46-2.14 29.44-2.14 29.44l3.32-5.85.98-25.35 5.39-8.86s-7.02-30.05-28.84-27.69z"/><path fill="#fff" d="M142.087 165.36l14.658 5.353-1.07 2.93-14.657-5.354 1.07-2.93zm29.68.003l1.02 2.947-14.71 5.1-1.02-2.95 14.71-5.097z"/><path fill="#FFEDDC" d="M99.27 156.55l.598 1.798s-2.316-.646-3.048 0c-.728.647-2.188.91-3.844 0-1.656-.91-4.97-.906-6.62.133-1.655 1.06-6.36-.18-6.36-.18s-3.775-1.17-6.694.71c-2.914 1.89-7.15-.89-7.15-.89s-1.063-.58-1.858 1.17l.79-2.61 34.185-.09v-.03z"/><path fill="#F4D1B0" d="M160.62 118.038c0 2.58-1.3 3.634-3.497 3.634-2.2 0-3.504-1.055-3.504-3.634v-9.35c0-2.58 1.3-4.675 3.5-4.675 2.18 0 3.49 2.094 3.49 4.675v9.35h.01z"/><path fill="#fdb" d="M179.916 94.973c0 16.135-15.5 17.528-22.416 17.528-7.872 0-22.418-1.39-22.418-17.52s-1.67-36.85 22.418-36.85c24.324 0 22.416 20.72 22.416 36.85z"/><path fill="#333" d="M155.032 101.98c-.66 0-1.273-.422-1.485-1.086-.26-.817.19-1.696 1.014-1.958 1.66-.524 2.11-1.252 2.11-1.563V85.32c0-.86 1.12-1.558 1.99-1.558.86 0 1.98.7 1.98 1.558v11.92-.003s-.04 3.19-4.69 4.67c-.15.047-.74.072-.89.072h-.02z"/><path fill="#F48B73" d="M160.125 106.778c0 2.02-1.64 3.656-3.657 3.656-2.02 0-3.66-1.638-3.66-3.656 0-2.023 1.64-3.658 3.66-3.658 2.018 0 3.657 1.635 3.657 3.658z"/><path fill="#F5F5F5" d="M153.354 86.84c0 3.687-2.99 6.676-6.678 6.676-3.685 0-6.672-2.99-6.672-6.675 0-3.68 2.987-6.67 6.672-6.67 3.69 0 6.678 2.99 6.678 6.67z"/><path fill="#0071BC" d="M151.372 86.683c0 2.558-2.07 4.63-4.636 4.63-2.557 0-4.633-2.072-4.633-4.63 0-2.562 2.076-4.63 4.633-4.63 2.567 0 4.636 2.068 4.636 4.63z"/><path fill="#F5F5F5" d="M176.245 86.84c0 3.687-2.985 6.676-6.67 6.676-3.693 0-6.68-2.99-6.68-6.675 0-3.68 2.984-6.67 6.68-6.67 3.685 0 6.67 2.99 6.67 6.67z"/><path fill="#0071BC" d="M174.266 86.683c0 2.558-2.07 4.63-4.63 4.63S165 89.24 165 86.683c0-2.562 2.073-4.63 4.633-4.63s4.63 2.068 4.63 4.63h.003z"/><path fill="#333" d="M156.665 107.348c-4.534 0-8.084-2.344-8.084-5.337 0-.64.53-1.17 1.17-1.17.65 0 1.17.53 1.17 1.17 0 1.42 2.36 3.01 5.75 3.01s5.75-1.58 5.75-3c0-.64.53-1.17 1.17-1.17.65 0 1.17.53 1.17 1.17 0 3-3.55 5.34-8.06 5.34l-.01-.01h-.01z"/><path fill="#FCEE21" d="M158.745 53.38h-2.282c-33.7-5-35.928 57.48-33.068 66.066 2.863 8.582 16.537 9.29 16.537 9.29-5.343-10.7-4.85-38.256-4.56-46.76 11.905-4.342 21.41-19.31 21.41-19.31l.423-2.812.414-.017v2.505s8.74 16.088 20.36 20.888c.88 11.59 2.1 36.53-2.71 46.15 0 0 13.68-1.34 16.54-9.93 2.86-8.59.63-71.07-33.07-66.07z"/><path d="M149.07 118.32l-1.69 1.04c-1.39.88-3.31 2.17-5.5 3.84-2.22 1.63-4.66 3.71-7.22 6.02-2.5 2.37-5.11 4.97-7.48 7.81-1.21 1.39-2.37 2.83-3.44 4.32-1.13 1.43-2.12 2.93-3.06 4.41-.99 1.44-1.82 2.92-2.59 4.33-.81 1.39-1.52 2.74-2.08 4.04-.59 1.28-1.15 2.45-1.59 3.51-.4 1.08-.74 2.02-1.02 2.8l-.88 2.44 10.45 3.24.72-2.04c.23-.66.51-1.45.82-2.36.39-.88.83-1.88 1.31-2.97.45-1.1 1.05-2.25 1.73-3.44.64-1.21 1.32-2.49 2.17-3.73.79-1.277 1.632-2.587 2.6-3.847.91-1.3 1.91-2.57 2.962-3.8 2.05-2.515 4.34-4.837 6.53-6.967 2.26-2.067 4.42-3.953 6.37-5.423 1.94-1.502 3.61-2.65 4.77-3.41.563-.353 1-.633 1.303-.827.318-.186.488-.29.488-.29h.01l.04-.036-5.142-9-.58.34zm65.608-11.652c-.876-.655-2.11-.5-2.803.337l-5.837 7.083-.296-.104c.646-1.306 1.288-2.613 1.936-3.914 1.16-2.422 2.354-4.834 3.485-7.268.593-1.28.035-2.8-1.244-3.39-1.28-.588-2.76-.056-3.38 1.186-1.18 2.41-2.32 4.85-3.46 7.27l-2.07 4.46-.3-.107c.71-1.6 1.42-3.21 2.13-4.82 1.18-2.56 2.33-5.14 3.56-7.69.67-1.41.07-3.11-1.34-3.79-1.41-.67-3.11-.08-3.79 1.34-.04.09-.07.17-.1.25-.97 2.65-2.01 5.28-3.02 7.92-.58 1.43-1.14 2.86-1.71 4.28-.5.14-1.05.16-1.53-.15l1.76-13.03c.18-1.48-.88-2.85-2.36-3.05-1.49-.19-2.98.84-3.1 2.33 0 .03-.01.07-.01.1l-1.76 17.59c-.01.07 0 .13 0 .19-.38-.63-.78-1.26-1.23-1.87-1.33-1.8-2.96-3.54-5.16-4.79-1.22-.69-3.05.23-3.75 1.45-.69 1.23-.54 3.29.68 3.97.02.01.05.03.07.03 1.3.73 2.84 1.42 3.92 2.83.54.7 1.18 1.22 1.63 2 .07.13.15.25.22.38-.35 3.02 2.83 6.52 2.83 6.52h.12c.71.71 1.52 1.25 2.33 1.66-.13.73-.38 1.42-.58 2.2-.3.77-.64 1.54-1.02 2.13-.42.5-.74.97-1.14 1.11-.4.19-.9.39-1.77.34-.87-.07-1.94-.28-3.08-.72-2.29-.85-4.73-2.3-6.92-3.81-2.2-1.53-4.19-3.17-5.86-4.63s-3.01-2.75-3.93-3.66l-1.39-1.41-.04.04-6.69 6s.57.62 1.55 1.71c.99 1.06 2.4 2.53 4.19 4.22 1.79 1.69 3.94 3.61 6.46 5.53 2.55 1.9 5.4 3.84 8.91 5.32 1.75.75 3.73 1.32 5.91 1.56 2.18.25 4.76-.08 7.01-1.11 2.33-.99 3.97-2.7 5.22-4.27 1.16-1.6 1.89-3.14 2.49-4.54.47-1.37.95-2.66 1.16-3.73v-.02c3.76-.65 5.11-3.6 5.11-3.6l.71-1.25c.74-1.33 1.05-3.35 1.05-3.35.49-1.03.72-1.89.8-2.59l5.78-7.75c.67-.9.49-2.18-.41-2.85zm-16.824 2.336l-.002.002.002-.002z" fill="#fdb"/><path fill="#FBB03B" d="M163.922 74.635c-.085.017 1.037-.254 2.374-.3.685.02 1.478-.025 2.3.095.83.057 1.7.2 2.547.403.858.14 1.68.412 2.445.66.77.218 1.475.475 2.05.75 1.163.495 1.94.832 1.94.832l-2.07-.366c-.605-.13-1.33-.22-2.105-.25-.77-.06-1.59-.14-2.4-.08-.81 0-1.61.05-2.35.18-.74.06-1.4.26-1.97.38-1.14.33-1.61.59-1.69.63-.81.29-1.7-.14-1.99-.95-.29-.82.13-1.7.94-1.99h-.02zm-13.07 2.725c-.058-.01-.765-.283-2.097-.565-1.313-.25-3.123-.522-4.96-.515-.922-.025-1.854-.02-2.712.087-.866.075-1.692.116-2.375.275-1.39.257-2.313.43-2.313.43l2.19-.9c.653-.303 1.457-.515 2.32-.775.854-.29 1.797-.495 2.75-.67 1.9-.405 3.862-.522 5.353-.548 1.47-.01 2.6.15 2.54.14.84.19 1.36 1.03 1.17 1.86-.2.84-1.03 1.36-1.87 1.17l.004.01z"/></svg>