<?xml version="1.0" encoding="utf-8"?>
<!-- Generator: Adobe Illustrator 16.0.0, SVG Export Plug-In . SVG Version: 6.00 Build 0)  -->
<!DOCTYPE svg PUBLIC "-//W3C//DTD SVG 1.1//EN" "http://www.w3.org/Graphics/SVG/1.1/DTD/svg11.dtd">
<svg version="1.1" id="Layer_1" xmlns="http://www.w3.org/2000/svg" xmlns:xlink="http://www.w3.org/1999/xlink" x="0px" y="0px"
	 width="256px" height="256px" viewBox="0 0 256 256" enable-background="new 0 0 256 256" xml:space="preserve">
<path fill="#333333" d="M173.104,225.24c-0.584-0.006-1.146-0.215-1.594-0.59c-0.35-0.299-0.717-0.606-1.027-0.95
	c-0.316-0.293-0.559-0.67-0.688-1.097c-0.044-0.133-0.076-0.269-0.095-0.41c-0.45-2.237-1.18-7.237,0.67-9.793
	c0.35-0.729,0.14-4.109-0.48-6.909c-0.14-0.61-0.029-1.23,0.25-1.75l-1.959-26.63l-0.061-0.021c-0.2-0.08-0.32-0.12-0.45-0.159
	c-0.229-0.07-0.37-0.111-0.53-0.15h-0.02l-1.21,26.66c0.521,0.59,0.739,1.41,0.569,2.209c-0.629,2.791-0.84,6.051-0.439,6.841
	c1.82,2.5,1.09,7.5,0.641,9.739c-0.021,0.131-0.051,0.261-0.091,0.391c-0.13,0.43-0.36,0.8-0.659,1.1c-0.301,0.34-0.65,0.66-1,0.98
	c-0.461,0.41-1.051,0.64-1.66,0.65l-35.21,0.239c-1.37,0-2.49-1.1-2.5-2.479l-0.03-3.221c-0.01-0.89,0.46-1.729,1.24-2.18l0.36-0.21
	c2.88-1.68,6.41-3.75,10.25-4.04c3.52-2.54,7.859-4.52,9.061-5.04c0.74-0.76-0.131-2.95-0.141-2.97c-0.21-0.46-0.27-0.99-0.18-1.48
	c0.18-0.97,0.9-2.979,3.699-3.77l1.16-21.79c-1.649-0.46-2.779-1.351-3.799-2.261c-0.021-0.01-0.041-0.029-0.061-0.039l-0.15-0.08
	l-0.16-0.051c-0.039-0.01-0.08-0.02-0.119-0.02c-0.11-0.01-0.181-0.01-0.24-0.02h-0.2c-0.8,0-1.74,0.35-2.04,0.49
	c-0.34,0.159-0.7,0.229-1.061,0.229c-0.609,0-1.219-0.22-1.689-0.65c-0.75-0.68-1.02-1.729-0.68-2.68l9.22-25.79
	c-0.149,0.05-0.3,0.1-0.399,0.141c-0.311,0.129-0.631,0.189-0.951,0.189c-0.649,0-1.289-0.25-1.77-0.73
	c-0.71-0.709-0.93-1.779-0.55-2.72l0.55-1.34l3.99-23.05c-1.17,0.34-2.36,0.75-3.52,1.29c-0.051,0.02-0.091,0.04-0.141,0.06
	c-0.79,0.32-1.58,0.74-2.43,1.19c-0.48,0.26-0.971,0.51-1.461,0.76l-0.569,0.34c-1.06,0.64-2.16,1.29-3.17,1.98
	c-0.44,0.34-0.88,0.66-1.33,0.97c-0.78,0.55-1.51,1.07-2.069,1.63l-0.111,0.1l-0.369,0.331c-0.971,0.85-1.87,1.64-2.561,2.479
	c-0.039,0.05-0.08,0.09-0.119,0.14c-0.84,0.881-1.711,1.83-2.32,2.79l-0.07,0.101l-0.48,0.67c-0.43,0.59-0.84,1.149-1.119,1.66
	c1.229,1.689,1.49,3.16,1.38,4.319c0.93,0.761,1.51,1.261,1.54,1.28c4.64,3.76,1.279,8.061-0.73,10.63
	c-0.47,0.601-0.949,1.22-1.38,1.83c-1.76,2.54-3.7,3.069-5.02,3.069c-0.59,0-1.12-0.109-1.58-0.26c-1.22,0.771-2.23,1.181-3.01,1.25
	c-0.12,0.01-0.25,0.01-0.39,0.01c-0.49,0-1.04-0.069-1.65-0.219c-0.84,0.469-1.87,0.899-3.1,1.289c-0.56,0.17-1.13,0.26-1.71,0.26
	c-6.22,0-9.86-10.229-10.82-13.359c-0.12-0.359-0.18-0.78-0.17-1.23c-0.13-1.619,0.42-3.359,1.64-5.189
	c-0.11-0.29-0.24-0.61-0.38-0.96c-0.13-0.32-0.26-0.64-0.39-0.97c-0.17-0.4-0.33-0.82-0.49-1.25c-0.25-0.67-0.48-1.301-0.8-1.86
	c-0.28-0.521-0.51-0.99-0.75-1.47c-0.35-0.7-0.71-1.42-1.1-2.101c-0.29-0.45-0.58-0.909-0.87-1.37c-0.44-0.699-0.89-1.43-1.36-2.11
	c-0.36-0.44-0.71-0.9-1.05-1.36c-0.53-0.71-1.04-1.38-1.58-1.96c-0.65-0.73-1.31-1.43-1.99-2.11l-2.26,2.41
	c-0.46,0.49-1.11,0.78-1.79,0.79h-0.03c-0.36,0-0.72-0.08-1.05-0.23l3.53,25.25c0.04,0.261,0.03,0.511-0.01,0.761
	c0.01,0.04,0.12,0.979,0.12,0.979c0.08,0.7-0.14,1.4-0.6,1.931c-0.47,0.53-1.13,0.84-1.83,0.86l-1.68,0.039l0.18,8.08
	c0.05,0.6,0.11,1.15,0.17,1.71c0.07,0.671,0.13,1.351,0.2,2.11l1.15,12.85c0.32,2.891,0.38,5.78,0.44,8.57
	c0.03,1.48,0.06,2.939,0.13,4.37l0.21,7.26c2.52,0.87,3.18,2.79,3.35,3.72c0.1,0.521,0.03,1.051-0.19,1.53
	c0,0.011-0.86,2.06-0.12,2.81c1.2,0.521,5.54,2.5,9.07,5.051c3.76,0.289,7.23,2.33,10.05,3.99l0.56,0.33
	c0.77,0.449,1.25,1.279,1.24,2.18l-0.03,3.16c-0.02,1.369-1.13,2.479-2.5,2.479l-35.22-0.31c-0.58-0.01-1.15-0.221-1.6-0.601
	c-0.37-0.31-0.74-0.62-1.05-0.97c-0.24-0.23-0.44-0.51-0.57-0.82c-0.11-0.229-0.18-0.47-0.21-0.729c-0.45-2.271-1.14-7.19,0.69-9.72
	c0.36-0.74,0.15-4.061-0.48-6.91c-0.21-0.93,0.14-1.87,0.84-2.461l-0.21-9.35c-0.06-1.39-0.08-2.859-0.1-4.359
	c-0.03-2.641-0.07-5.371-0.34-7.98l-1.24-15.24c-0.28-0.25-0.61-0.449-0.9-0.449c-0.04,0-0.12,0.039-0.23,0.119
	c-0.09,1.01-0.17,2.041-0.2,3.061l-1.57,34.6c0.52,0.59,0.75,1.4,0.57,2.2c-0.62,2.79-0.83,6.05-0.44,6.83
	c1.81,2.489,1.1,7.47,0.65,9.71c-0.02,0.16-0.05,0.311-0.1,0.45c-0.13,0.409-0.35,0.77-0.64,1.05c-0.3,0.35-0.65,0.67-1.01,0.99
	c-0.45,0.42-1.05,0.65-1.66,0.65l-35.21,0.25c-1.37,0-2.49-1.111-2.5-2.48l-0.02-3.221c0-0.899,0.47-1.729,1.24-2.18l0.35-0.199
	c2.89-1.69,6.42-3.761,10.27-4.051c3.52-2.54,7.86-4.52,9.07-5.04c0.75-0.77-0.13-2.95-0.14-2.97c-0.2-0.46-0.27-0.99-0.17-1.49
	c0.18-0.96,0.9-2.97,3.7-3.77l1.8-32.54c0.02-0.591,0.06-1.181,0.11-1.771c-0.03-0.13-0.04-0.27-0.04-0.42l0.01-3.25
	c-0.39-0.23-0.86-0.51-1.42-0.84c-0.64-0.34-1.36-0.859-2.12-1.42c-0.29-0.21-0.58-0.43-0.9-0.641
	c-1.17-0.819-2.36-1.899-3.79-3.279c-0.04-0.04-0.08-0.08-0.12-0.13l-1.85-2.06c-0.06-0.07-0.12-0.141-0.17-0.211l-0.18-0.25
	c-0.54-0.74-1.09-1.51-1.64-2.35c-0.03-0.04-0.05-0.08-0.08-0.12c-0.92-1.62-2.22-4.11-2.83-7.021c-1.13-4.58-0.66-10.06,1.33-15.35
	c0.79-2.05,1.75-4.05,2.93-6.08c0-0.14,0.02-0.28,0.05-0.42c2.96-14.2,8.43-20.39,13.05-23.05c-5.67-2.94-8.93-7.94-9.56-14.73
	c-5.59-0.61-8.65-4.38-8.65-10.77c0-3.73,1.46-7.11,3.75-9.07c-1.53-3.44-2.78-7.48-2.5-11.08c-0.43-0.09-0.84-0.29-1.19-0.6
	c-0.77-0.69-1.03-1.77-0.68-2.73c0.29-0.79,7.51-19.41,33.44-19.41c1.36,0,2.77,0.05,4.18,0.16c0.06,0,0.13,0.01,0.19,0.02
	c3.78,0.57,16.03,2.86,18.29,8.79c8.34,0.82,11.41,8.44,11.41,13.65c0,0.67,0,2.67-3.4,11.24c2.26,1.97,3.68,5.32,3.68,9.01
	c0,6.2-2.87,9.93-8.15,10.7c-0.57,6.12-3.36,10.8-8.19,13.83c3.85,1.69,8.45,4.81,13.64,10.34c0.91,0.96,0.91,2.46,0,3.42
	l-0.03,0.03c0.97,0.9,1.91,1.82,2.81,2.77c0.91,0.91,1.74,1.94,2.55,2.93c0.37,0.45,0.74,0.91,1.11,1.35
	c0.03,0.04,0.06,0.07,0.09,0.11c0.79,1.04,1.5,2.08,2.19,3.09c0.32,0.46,0.62,0.92,0.94,1.37c0.03,0.03,0.05,0.07,0.07,0.1
	c0.66,1.05,1.22,2.07,1.77,3.07c0.23,0.43,0.47,0.85,0.7,1.27c0.54-0.88,1.18-1.74,1.8-2.58l0.39-0.54c1.08-1.6,2.44-3.07,3.62-4.3
	c1.26-1.44,2.69-2.67,4.08-3.86l0.23-0.2c1.07-1,2.22-1.79,3.32-2.56c0.5-0.34,0.99-0.68,1.479-1.05l0.101-0.06
	c0.47-0.32,0.949-0.62,1.42-0.91c-1.311-1.33-2.24-2.84-2.811-4.53c-2.44-7.31-1.37-40.99,11.04-58.2
	c5.29-7.35,12.03-11.08,20-11.08c1.49,0,3.03,0.14,4.601,0.4h1.85c1.6-0.28,3.18-0.42,4.699-0.42
	c20.611,0,27.871,24.78,30.371,39.65c0.319-0.06,0.64-0.09,0.979-0.09c0.229,0,0.45,0.02,0.681,0.05
	c2.529,0.35,4.389,2.42,4.549,4.84c0.931-1.64,2.721-2.69,4.641-2.69c0.8,0,1.58,0.17,2.3,0.52c1.32,0.63,2.261,1.73,2.72,3.01
	c0.73,0.01,1.44,0.16,2.11,0.47c2.5,1.16,3.601,4.12,2.5,6.62c0.979,0.01,1.92,0.32,2.7,0.91c2,1.49,2.4,4.34,0.91,6.35l-5.44,7.28
	c-0.159,0.74-0.43,1.54-0.81,2.37c-0.16,0.73-0.59,2.45-1.33,3.78c-0.301,0.53-0.6,1.08-0.971,1.52c-0.76,1.31-2.449,3.17-5.17,4.12
	c-0.189,0.83-0.47,1.68-0.77,2.54c-0.02,0.06-0.04,0.12-0.061,0.17c-0.119,0.29-0.229,0.58-0.35,0.88
	c-0.49,1.24-1.05,2.65-2.141,4.16c-0.02,0.03-0.039,0.06-0.069,0.09c-1.239,1.55-3.229,3.76-6.181,5.02
	c-1.989,0.91-4.289,1.4-6.6,1.4c-0.57,0-1.13-0.03-1.67-0.091c-2.3-0.26-4.52-0.829-6.59-1.689c-2.311-0.98-4.34-2.11-6.029-3.19
	l3.279,17.09c0.03,0.101,0.061,0.19,0.08,0.29l0.529,2.28c0.25,1.1-0.25,2.2-1.199,2.74c-0.04,0.229-0.109,0.449-0.21,0.65
	l10.37,24.629c0.47,1.11,0.08,2.4-0.93,3.061c-0.42,0.279-0.9,0.42-1.371,0.42c-0.66,0-1.319-0.26-1.799-0.76
	c-0.211-0.221-0.461-0.5-0.66-0.85l-0.121-0.091l0.041-0.069c-0.021-0.041-0.041-0.07-0.051-0.11l-0.08,0.13
	c-0.08-0.05-0.359-0.21-0.359-0.21c-0.07-0.04-0.16-0.08-0.25-0.12c0,0-0.27-0.109-0.35-0.141l-0.11-0.039
	c-0.07-0.021-0.15-0.04-0.229-0.061l0.52-2.449l-0.62,2.42c-0.08-0.021-0.17-0.03-0.271-0.051c-0.18-0.02-0.27-0.02-0.359-0.02
	c-0.18,0-0.27,0.01-0.36,0.02c-0.149,0.03-0.239,0.051-0.33,0.07l-0.13,0.04c-0.02,0-0.12,0.05-0.22,0.09
	c-0.2,0.091-0.31,0.16-0.431,0.229c0,0-0.1,0.061-0.1,0.07c-0.109,0.07-0.24,0.17-0.38,0.291l-0.06,0.049
	c-0.17,0.15-0.32,0.301-0.48,0.48c-0.29,0.32-0.609,0.641-0.971,0.95c0,0-0.01,0-0.01,0.01l1.871,23.14
	c3.139,0.721,3.92,2.891,4.109,3.92c0.1,0.521,0.029,1.051-0.2,1.53c0,0.011-0.86,2.06-0.12,2.81c1.211,0.531,5.551,2.5,9.07,5.051
	c3.76,0.29,7.221,2.32,10.05,3.98l0.57,0.33c0.78,0.449,1.25,1.279,1.239,2.18l-0.029,3.16c-0.01,1.369-1.13,2.479-2.5,2.479
	l-35.21-0.31L173.104,225.24z"/>
<path fill="#333333" d="M55.923,134.22c-0.68,1.998-0.923,3.87-0.697,5.363L55.923,134.22L55.923,134.22z"/>
<path fill="#333333" d="M194.564,115.488c0.517,0.125,0.953,0.185,1.278,0.213h0.063c0.146,0,0.218-0.01,0.297-0.04
	c0.07-0.08,0.137-0.17,0.212-0.26l0.08-0.1c0.187-0.31,0.394-0.75,0.616-1.31c-0.819,0.57-1.68,1.07-2.547,1.51V115.488z"/>
<path fill="#333333" d="M71.973,33.098c1.282,0,2.617,0.05,3.998,0.15c0,0,14.96,2.26,16.42,7.478c0.11,0.397,0.17,0.83,0.19,1.275
	c0.19,0,0.37-0.01,0.54-0.01c8.9,0,10.43,8.47,10.43,11.23c0,1.99-2.15,7.67-3.52,11.07l0.04,0.01l-0.41,1.18
	c2.42,1.04,4.17,4.22,4.17,8c0,7.49-4.57,8.35-7.81,8.35c-0.08,0-0.15-0.01-0.23-0.01c-0.03,10.89-7.04,15.15-13.79,16.77l0.02,0.14
	h0.14c4,0,10.78,1.89,19.66,11.35l-1.79,1.91c1.58,1.34,3.12,2.79,4.58,4.33c1.31,1.3,2.4,2.81,3.58,4.19
	c1.11,1.44,2.07,2.95,3.06,4.37c0.91,1.46,1.67,2.95,2.46,4.33c0.82,1.37,1.29,2.78,1.88,4.02l0.07,0.17l1.71-3.109
	c0.68-1.35,1.67-2.63,2.69-4.02c0.97-1.43,2.16-2.76,3.45-4.09c1.22-1.41,2.67-2.63,4.13-3.88c1.419-1.33,3.07-2.3,4.63-3.47
	c1.459-0.98,2.979-1.79,4.47-2.65c-2.16-1.32-4.021-3.05-4.88-5.64c-2.73-8.2-0.82-66.01,28.68-66c1.4,0,2.859,0.13,4.391,0.4h2.279
	c1.57-0.28,3.061-0.42,4.49-0.42c18.66,0,26.25,23.22,28.6,42.37l0.01-0.36c0.01-0.03,0.01-0.07,0.01-0.09
	c0.101-1.37,1.371-2.35,2.721-2.35c0.12,0,0.25,0.01,0.37,0.02c1.489,0.21,2.56,1.57,2.36,3.06L204,96.19
	c0.279,0.176,0.583,0.24,0.883,0.24c0.21,0,0.42-0.03,0.62-0.083c0.574-1.433,1.14-2.87,1.72-4.3c1.01-2.64,2.055-5.27,3.026-7.92
	c0.03-0.08,0.06-0.164,0.101-0.25c0.479-1.02,1.5-1.61,2.56-1.61c0.409,0,0.829,0.09,1.22,0.28c1.41,0.67,2.01,2.37,1.34,3.786
	c-1.23,2.55-2.369,5.13-3.55,7.696c-0.72,1.61-1.44,3.21-2.149,4.83l0.31,0.11c0.68-1.5,1.37-2.979,2.06-4.479
	c1.15-2.42,2.28-4.86,3.461-7.271c0.439-0.9,1.35-1.43,2.289-1.43c0.36,0,0.73,0.08,1.08,0.24c1.27,0.59,1.83,2.11,1.24,3.39
	c-1.141,2.43-2.33,4.85-3.48,7.27c-0.649,1.3-1.299,2.61-1.939,3.92l0.29,0.11l5.84-7.09c0.399-0.49,0.99-0.75,1.58-0.75
	c0.42,0,0.851,0.13,1.22,0.41c0.9,0.67,1.07,1.95,0.391,2.85l-5.801,7.75c-0.08,0.7-0.34,1.56-0.84,2.59c0,0-0.38,2.02-1.119,3.35
	c-0.701,1.25-0.83,1.25-0.83,1.25s-1.381,2.96-5.381,3.61c0,1.06-0.42,2.36-0.88,3.73c-0.6,1.4-1.06,2.94-2.22,4.54
	c-1.25,1.56-2.891,3.29-5.221,4.28c-1.789,0.82-3.779,1.21-5.619,1.21c-0.471,0-0.94-0.03-1.391-0.08
	c-2.18-0.25-4.16-0.79-5.91-1.52c-3.5-1.49-6.359-3.35-8.91-5.25c-0.579-0.44-1.149-0.73-1.689-1.17l4.51,23.469h0.03l0.521,2.281
	c-0.311-0.701-0.221-1.351-1.221-1.49v3.199h-0.93l11.24,26.7c0,0-0.311-0.319-0.311-0.43c0-0.05-0.01-0.11-0.09-0.181
	c0-0.01,0.11-0.01,0.11-0.01c-0.07-0.07-0.16-0.14-0.261-0.21l-0.06-0.04l-0.28-0.199l-0.09-0.061c-0.09-0.061-0.18-0.12-0.279-0.18
	c-0.041-0.03-0.08-0.061-0.131-0.08c-0.109-0.07-0.22-0.131-0.34-0.2l-0.16-0.09c-0.119-0.07-0.24-0.13-0.369-0.19l-0.17-0.08
	c-0.121-0.05-0.24-0.1-0.371-0.14c-0.069-0.021-0.129-0.05-0.199-0.069c-0.12-0.041-0.24-0.08-0.37-0.111
	c-0.05-0.02-0.11-0.029-0.16-0.039c-0.16-0.04-0.319-0.061-0.479-0.09c-0.061-0.01-0.121-0.021-0.181-0.021
	c-0.17-0.021-0.34-0.03-0.51-0.03h-0.17c-0.19,0.01-0.37,0.021-0.56,0.041l-0.131,0.029c-0.18,0.03-0.359,0.07-0.55,0.12l-0.1,0.03
	c-0.2,0.07-0.41,0.149-0.61,0.24l-0.13,0.06c-0.2,0.1-0.41,0.22-0.61,0.35c-0.05,0.03-0.09,0.06-0.13,0.091
	c-0.21,0.14-0.42,0.31-0.63,0.489l-0.1,0.091c-0.23,0.199-0.45,0.42-0.67,0.67c-0.26,0.289-0.53,0.549-0.811,0.779
	c-0.029,0.02-0.05,0.051-0.08,0.07v0.01c-0.26,0.221-0.539,0.42-0.82,0.59l2.15,26.551h0.051c2.049,0,3.639,0.59,3.93,2.129
	c0,0-1.95,4.131,0.85,6.041c0,0,5.58,2.34,9.48,5.34h-0.03c3.659,0,7.3,2.279,10.271,4.01l-0.031,3.15l-35.189-0.301
	c0,0-1.02-0.859-0.92-0.859h-0.02c0,0-1.25-5.99,0.209-8.01c1.461-2.031-0.06-8.92-0.06-8.92l0.399-0.15l-2.149-29.2
	c-0.19-0.14-0.44-0.31-0.76-0.479c-0.07-0.031-0.13-0.07-0.2-0.11c-0.05-0.021-0.109-0.05-0.16-0.07
	c-0.119-0.06-0.24-0.11-0.369-0.17l-0.131-0.05c-0.15-0.061-0.32-0.12-0.49-0.18l-0.1-0.03c-0.21-0.06-0.42-0.13-0.65-0.181h-0.029
	c-0.74-0.18-1.61-0.289-2.6-0.289c-0.07,0-0.141,0.01-0.211,0.01c-0.039,0-0.09,0.01-0.13,0.01c-0.11,2.37-0.22,4.8-0.329,7.22
	c-0.391,8.53-0.781,17.08-1.07,23.48c0.43,0.149,0.689,0.31,0.689,0.31s-1.52,6.76-0.061,8.79c1.471,2.021,0.211,8.011,0.211,8.011
	h-0.02c0.1,0-0.921,0.92-0.921,0.92l-35.18,0.25l-0.03-3.221c2.971-1.73,6.6-3.949,10.26-3.949h-0.029
	c3.91-3,9.479-5.351,9.479-5.351c2.8-1.899,0.86-6.16,0.86-6.16c0.279-1.46,1.73-2.01,3.63-2.06c0.34-6.221,0.75-14.03,1.16-21.84
	l0.229-4.301h-0.13c-2.271,0-3.38-0.84-4.62-1.949c-0.119-0.11-0.25-0.2-0.38-0.291c-0.04-0.029-0.09-0.049-0.13-0.069
	c-0.1-0.06-0.189-0.11-0.29-0.149l-0.14-0.061c-0.1-0.04-0.2-0.08-0.301-0.11c-0.039-0.02-0.09-0.03-0.129-0.04
	c-0.11-0.029-0.221-0.06-0.33-0.07l-0.121-0.02c-0.119-0.02-0.279-0.029-0.399-0.04h-0.12c-0.08-0.01-0.16-0.01-0.24-0.01
	c-1.58,0-3.109,0.729-3.109,0.729l9.9-27.709v-0.9c0,0.01-0.051,0.01-0.131,0.01c-0.32,0-1.189-0.09-1.52-0.4
	c-0.2-0.18-0.5-0.25-0.83-0.25c-0.86,0-1.91,0.431-1.91,0.431l0.58-1.421h0.04l4.75-27.439c-2.31,0.74-5.011,1.26-7.729,2.54
	c-1.41,0.56-2.73,1.37-4.15,2.06c-1.33,0.8-2.711,1.6-4.01,2.49c-1.23,0.96-2.601,1.78-3.681,2.85c-1.149,1.01-2.3,1.98-3.21,3.09
	c-0.99,1.04-1.91,2.069-2.609,3.17c-0.75,1.05-1.53,2.021-1.991,3.05l-0.53,0.98c0.22,0.289,0.44,0.57,0.67,0.85
	c1.61,1.971,1.3,3.32,0.78,4.1c1.68,1.32,2.811,2.291,2.811,2.291c3.449,2.789-0.101,5.619-2.531,9.149c-1.08,1.569-2.13,2-2.97,2
	c-1.04,0-1.74-0.681-1.74-0.681s-2.19,1.611-3.05,1.681c-0.06,0-0.12,0.01-0.19,0.01c-0.56,0-1.3-0.19-2.05-0.46
	c-0.62,0.51-1.67,1.07-3.44,1.63c-0.32,0.101-0.64,0.15-0.95,0.15c-4.86,0-8.43-11.601-8.43-11.601c-0.06-0.17-0.07-0.359-0.05-0.56
	c-0.19-1.47,0.65-3.11,1.88-4.649l-0.12-0.41c-0.22-0.92-0.67-1.86-1.07-2.94c-0.46-1.04-0.79-2.26-1.44-3.39
	c-0.62-1.15-1.19-2.41-1.9-3.641c-0.77-1.189-1.51-2.46-2.37-3.68c-0.94-1.15-1.77-2.43-2.81-3.53c-1.23-1.39-2.54-2.71-3.89-3.93
	l-3.98,4.24c0,0-1.8-1.83-4.39-3.54l4.39,31.41l-0.95-0.131l0.95,0.94l0.1,0.851l-1.65,0.029h-2.5l0.24,10.71
	c0.12,1.341,0.24,2.47,0.37,3.89c0.36,4.101,0.76,8.48,1.15,12.851c0.47,4.38,0.35,8.74,0.56,12.83l0.27,9.21
	c1.76,0.1,3.08,0.73,3.34,2.109c0,0-1.94,4.141,0.86,6.041c0,0,5.57,2.35,9.48,5.35h-0.04c3.66,0,7.3,2.279,10.26,4.01l-0.03,3.16
	l-35.2-0.32c0,0-1.01-0.859-0.92-0.859h-0.03c0,0-1.25-5.99,0.22-8.01c1.46-2.03-0.06-8.92-0.06-8.92s0.35-0.131,0.93-0.341
	l-0.24-10.989c-0.17-4-0.01-8.33-0.45-12.561l-1-12.35l-0.29-3.58c-0.48-0.631-1.66-1.9-3.33-1.9c-1.34,0-2.23,1-2.65,1.58
	c-0.12,1.3-0.24,2.65-0.28,4.02c-0.19,4-0.38,8.28-0.57,12.551l-1.05,23.5c0.44,0.16,0.69,0.32,0.69,0.32s-1.52,6.77-0.06,8.799
	c1.46,2.021,0.21,8.011,0.21,8.011h-0.02c0.1,0-0.92,0.93-0.92,0.93l-35.19,0.24l-0.03-3.22c2.96-1.73,6.6-3.94,10.26-3.94h-0.03
	c3.91-3,9.48-5.34,9.48-5.34c2.8-1.899,0.85-6.16,0.85-6.16c0.27-1.46,1.72-2.01,3.63-2.06l1.16-21.84l0.67-12.711
	c0.03-0.789,0.09-1.56,0.16-2.31h-0.09l0.02-4.96l-0.11,0.22c0,0-0.92-0.55-2.54-1.51c-0.81-0.44-1.75-1.19-2.84-1.96
	c-1.09-0.77-2.27-1.85-3.51-3.05c-0.6-0.66-1.22-1.341-1.85-2.05c-0.58-0.801-1.18-1.621-1.76-2.5c-1.06-1.851-2.06-3.95-2.55-6.301
	c-1.16-4.71-0.36-9.76,1.22-13.949c0.93-2.42,2.08-4.641,3.34-6.69l-0.25-0.18c3.79-18.17,11.64-22.06,15.62-22.83l0.15-1.39
	c-6.41-1.84-12.35-6.21-12.36-16.59c-0.23,0.05-0.46,0.08-0.72,0.08c-3.23,0-7.81-0.87-7.81-8.35c0-3.93,1.91-7.22,4.48-8.11
	c-1.84-3.65-4.63-10.43-2.49-14.69c0,0,0.47-0.72-0.22-0.72c-0.39,0-1.13,0.22-2.53,0.92c0,0,6.61-17.78,31.09-17.78"/>
<path fill="#333333" d="M184.85,113.469c0.439-1.42,0.799-3.59,1.1-4.59h-6.891c0.23,0,0.461,0.17,0.711,0.4
	c1.459,1.29,3.189,2.83,5.069,4.19"/>
<path fill="#333333" d="M195.898,118.209c0.701,0,1.141-0.17,1.49-0.34c0.4-0.14,0.721-0.61,1.141-1.11
	c0.38-0.6,0.72-1.37,1.01-2.13c0.21-0.79,0.46-1.47,0.58-2.19c-0.811-0.41-1.61-0.96-2.32-1.67h-0.13c0,0-0.09-0.1-0.229-0.27
	c-2.681,2.57-6.471,3.98-9.4,4.74c1.48,0.9,3.01,1.7,4.49,2.24c1.14,0.44,2.209,0.64,3.07,0.72c0.1,0,0.189,0.01,0.279,0.01"/>
<path fill="#333333" d="M58.1,147.77V146.7c-1-0.05-0.94-0.08-0.94-0.08l-0.06-0.45v-0.29l-0.19-0.069l1.89-14.521l-3.21-2.32
	c-0.77,1.356-1.438,2.75-1.957,4.154c-1.027,2.86-1.317,5.601-0.72,7.8c0.22,1.131,0.79,2.131,1.31,3.1
	c0.34,0.461,0.72,0.916,1.034,1.351c0.39,0.415,0.886,0.819,1.24,1.21c0.47,0.42,0.58,0.82,1.58,1.2"/>
<path fill="#333333" d="M71.98,28.1C44.333,28.096,36.52,48.276,36.2,49.136c-0.714,1.925-0.18,4.09,1.35,5.462
	c0.108,0.098,0.22,0.19,0.335,0.276c0.096,3.013,0.954,6.122,2.07,8.948c-2.067,2.44-3.3,5.873-3.3,9.653
	c0,6.897,3.26,11.5,8.907,12.902c0.902,5.328,3.415,9.64,7.37,12.712c-4.252,3.72-8.572,10.41-11.073,22.42l-0.03,0.12
	c-1.13,1.99-2.06,3.96-2.83,5.97c-2.17,5.74-2.67,11.709-1.43,16.85c0.68,3.22,2.09,5.91,3.08,7.66c0.05,0.08,0.1,0.17,0.15,0.25
	c0.58,0.89,1.15,1.68,1.7,2.449l0.18,0.25c0.1,0.141,0.21,0.28,0.33,0.41l1.86,2.061c0.08,0.08,0.16,0.17,0.24,0.25
	c1.51,1.449,2.79,2.609,4.09,3.52c0.29,0.2,0.58,0.41,0.85,0.61c0.8,0.58,1.56,1.14,2.39,1.6l0.11,0.06v1.82
	c0,0.17,0.01,0.34,0.03,0.51c-0.04,0.49-0.07,1.021-0.1,1.57l-0.11,1.94l-0.58,10.729L51,194.9l-0.184,3.439
	c-2.81,1.48-3.56,4.051-3.744,5.03c-0.2,1.05-0.118,2.01,0.35,2.979c0.03,0.07,0.06,0.16,0.09,0.26
	c-1.85,0.86-4.91,2.41-7.647,4.311c-4.14,0.52-7.84,2.68-10.63,4.311l-0.35,0.199c-1.546,0.9-2.49,2.561-2.48,4.35L26.428,223
	c0.02,2.75,2.25,4.96,5,4.96h0.03l35.19-0.248c1.23-0.01,2.41-0.47,3.32-1.295c0.3-0.276,0.69-0.63,1.08-1.067
	c0.17-0.16,0.33-0.34,0.472-0.529c0.2,0.27,0.434,0.52,0.69,0.74c0.365,0.379,0.72,0.68,0.99,0.909c0.89,0.75,2.02,1.171,3.19,1.181
	l35.19,0.31h0.046c2.74,0,4.972-2.21,5-4.95l0.03-3.16c0.02-1.8-0.93-3.466-2.48-4.369l-0.56-0.326
	c-2.74-1.601-6.36-3.73-10.41-4.24c-2.73-1.891-5.78-3.434-7.63-4.305c0.017-0.032,0.02-0.06,0.03-0.069
	c0.448-0.95,0.58-2.021,0.39-3.05c-0.33-1.75-1.38-3.62-3.36-4.84l-0.17-5.711l-0.002-0.1c-0.065-1.38-0.095-2.79-0.13-4.29
	c-0.055-2.83-0.12-5.75-0.45-8.79l-0.1-1.17l-0.985-11.6c-0.07-0.764-0.14-1.447-0.21-2.12l-0.16-1.606l-0.13-5.55
	c1.09-0.205,2.09-0.771,2.83-1.616c0.93-1.053,1.36-2.449,1.21-3.85l-0.08-0.71c0.02-0.36,0.02-0.72-0.04-1.086l-3.14-22.52
	c0.69-0.26,1.32-0.68,1.84-1.23l0.44-0.47l0.05,0.06l0.12,0.13c0.45,0.47,0.91,1.08,1.4,1.73c0.33,0.44,0.67,0.9,1.05,1.36
	c0.42,0.6,0.82,1.25,1.25,1.93c0.29,0.451,0.57,0.9,0.85,1.34c0.35,0.611,0.67,1.25,1,1.921c0.25,0.5,0.5,0.979,0.75,1.46
	c0.02,0.04,0.05,0.09,0.07,0.13c0.22,0.38,0.42,0.92,0.63,1.49c0.16,0.42,0.32,0.85,0.52,1.31c0.1,0.26,0.2,0.51,0.3,0.75
	c-1.02,1.87-1.48,3.71-1.36,5.5c0,0.668,0.09,1.311,0.28,1.916c1.41,4.561,5.5,15.1,13.21,15.1c0.83,0,1.66-0.129,2.46-0.379
	c1.02-0.32,1.92-0.67,2.72-1.051c0.45,0.07,0.87,0.1,1.27,0.1c0.21,0,0.42-0.01,0.61-0.023c0.43-0.029,1.42-0.109,3.18-1.07
	c0.37,0.061,0.77,0.096,1.19,0.096c1.57,0,4.569-0.541,7.069-4.16c0.381-0.551,0.82-1.12,1.28-1.71c1.271-1.63,2.58-3.3,3.21-5.39
	c0.98-3.25-0.07-6.431-2.88-8.73c-0.09-0.08-0.31-0.26-0.63-0.53c-0.08-0.94-0.35-1.979-0.91-3.09l0.18-0.24l0.5-0.69
	c0.051-0.069,0.09-0.139,0.141-0.209c0.5-0.78,1.26-1.62,2.02-2.41c0.08-0.09,0.16-0.18,0.24-0.28c0.551-0.67,1.38-1.399,2.27-2.18
	l0.381-0.33l0.21-0.19c0.42-0.42,1.079-0.88,1.77-1.369c0.431-0.311,0.88-0.631,1.341-0.991c0.93-0.63,1.93-1.23,2.979-1.85
	l0.489-0.3c0.49-0.24,0.961-0.49,1.431-0.74c0.601-0.32,1.181-0.62,1.71-0.87l-3.189,18.469l-0.451,1.091
	c-0.779,1.88-0.379,4.069,1.08,5.489c0.41,0.4,0.881,0.73,1.391,0.961l-8.061,22.56c-0.689,1.931-0.189,4.12,1.351,5.47
	c0.94,0.83,2.11,1.26,3.3,1.26c0.74,0,1.49-0.17,2.189-0.529c0.211-0.09,0.5-0.18,0.721-0.221c0.59,0.5,1.37,1.101,2.37,1.61
	l-0.011,0.19l-0.459,8.65l-0.51,9.56c-2.811,1.479-3.561,4.05-3.74,5.04c-0.2,1.05-0.121,2.01,0.35,2.97
	c0.029,0.08,0.061,0.17,0.09,0.261c-1.85,0.869-4.91,2.409-7.65,4.31c-4.129,0.52-7.819,2.67-10.609,4.3l-0.36,0.21
	c-1.55,0.899-2.49,2.569-2.48,4.36l0.03,3.22c0.02,2.75,2.26,4.96,5,4.96h0.03l35.181-0.25c1.229-0.01,2.41-0.471,3.319-1.3
	c0.3-0.271,0.69-0.63,1.08-1.06c0.17-0.171,0.33-0.351,0.479-0.541c0.201,0.271,0.431,0.51,0.69,0.73c0.37,0.39,0.729,0.689,1,0.92
	c0.89,0.75,2.021,1.17,3.181,1.18l35.189,0.311h0.04c2.74,0,4.97-2.2,5-4.95l0.03-3.149c0.01-1.791-0.93-3.461-2.49-4.371
	l-0.561-0.33c-2.729-1.6-6.35-3.72-10.399-4.239c-2.72-1.88-5.771-3.431-7.62-4.3c0.01-0.03,0.02-0.061,0.03-0.07
	c0.45-0.95,0.579-2.02,0.39-3.051c-0.38-2.02-1.68-4.119-4.21-5.289l-1.649-20.33c0.09-0.09,0.18-0.19,0.26-0.28
	c0.08-0.08,0.17-0.17,0.279-0.271l0.07-0.06c0.04-0.03,0.08-0.069,0.13-0.1l0.011-0.011l0.09-0.06c0.02-0.01,0.039-0.01,0.05-0.021
	l0.08,0.011h0.02l0.11,0.03l0.061,0.02c0.02,0,0.049,0.02,0.09,0.03l0.1,0.04l0.061,0.029c0.189,0.25,0.399,0.5,0.629,0.74
	c0.971,1.01,2.28,1.53,3.601,1.53c0.95,0,1.909-0.271,2.75-0.83c2.01-1.32,2.79-3.89,1.85-6.11l-9.819-23.32
	c0.939-1.159,1.35-2.719,0.99-4.279l-0.531-2.28c-0.029-0.12-0.06-0.239-0.1-0.36l-2.24-11.68c0.51,0.24,1.041,0.48,1.58,0.711
	c2.311,0.969,4.76,1.6,7.301,1.889c0.629,0.07,1.289,0.111,1.949,0.111c2.641,0,5.28-0.561,7.641-1.631
	c3.439-1.49,5.699-3.98,7.1-5.73c0.051-0.06,0.1-0.13,0.141-0.19c1.279-1.77,1.92-3.4,2.439-4.71c0.109-0.28,0.221-0.55,0.33-0.82
	c0.05-0.11,0.09-0.22,0.13-0.34c0.17-0.5,0.34-1,0.49-1.5c2.84-1.34,4.43-3.41,5.14-4.56c0.48-0.61,0.83-1.24,1.1-1.72
	c0.82-1.47,1.301-3.23,1.531-4.2c0.31-0.71,0.56-1.4,0.729-2.08l5.13-6.85c2.33-3.14,1.689-7.55-1.4-9.86
	c-0.399-0.3-0.83-0.56-1.279-0.76c0.06-2.91-1.561-5.73-4.36-7.03c-0.5-0.23-1.01-0.4-1.521-0.52c-0.77-1.24-1.879-2.29-3.289-2.96
	c-1.051-0.5-2.221-0.77-3.381-0.77c-1.31,0-2.56,0.33-3.68,0.92c-1.18-1.58-2.96-2.71-5.061-3.03
	c-4.629-25.31-16.27-39.65-32.479-39.65c-1.6,0-3.25,0.14-4.92,0.42h-1.43c-1.64-0.27-3.25-0.4-4.82-0.4
	c-8.7,0-16.319,4.19-22.04,12.13c-13.1,18.17-14.01,52.61-11.39,60.46c0.37,1.13,0.88,2.19,1.521,3.18
	c-0.25,0.18-0.511,0.35-0.761,0.53c-1.11,0.77-2.37,1.64-3.56,2.74l-0.2,0.16c-1.44,1.24-2.93,2.51-4.3,4.07
	c-1.19,1.23-2.54,2.71-3.73,4.42c-0.19-0.32-0.38-0.65-0.59-0.97c-0.04-0.08-0.09-0.15-0.14-0.22c-0.31-0.44-0.61-0.89-0.92-1.34
	c-0.7-1.04-1.43-2.12-2.27-3.21c-0.05-0.07-0.11-0.14-0.17-0.21c-0.36-0.42-0.72-0.86-1.07-1.3c-0.79-0.98-1.69-2.08-2.73-3.13
	c-0.49-0.51-0.99-1.02-1.51-1.52c0.4-1.6,0-3.35-1.2-4.63c-3.94-4.2-7.59-7.09-10.88-9.06c3.1-2.95,5.08-6.77,5.86-11.34
	c5.34-1.54,8.4-6.07,8.4-12.77c0-3.76-1.21-7.18-3.26-9.62c2.98-7.74,2.98-9.74,2.98-10.63c0-5.87-3.33-14.31-12.25-15.95
	c-1.75-2.95-5.38-5.21-11.19-7.01c-4.23-1.32-8.23-1.93-8.39-1.95c-0.13-0.02-0.25-0.03-0.38-0.04c-1.48-0.12-2.95-0.17-4.38-0.17
	L71.98,28.1z"/>
<path fill="#1A1A1A" d="M139.354,62.484l1.951,45.897h49.075l1.36-31.09L184.73,51L139.354,62.484z"/>
<path fill="#FFDDBB" d="M161.9,114.225l-0.578,0.092c-0.348,0.067-0.855,0.164-1.506,0.287c-1.365,0.264-3.344,0.753-5.68,1.445
	c-2.316,0.74-5.035,1.64-7.771,2.93c-1.412,0.56-2.736,1.36-4.154,2.06c-1.338,0.8-2.718,1.6-4.017,2.49
	c-1.23,0.96-2.604,1.78-3.684,2.85c-1.15,1.01-2.295,1.98-3.203,3.09c-0.994,1.04-1.912,2.07-2.61,3.17
	c-0.752,1.061-1.53,2.021-1.997,3.061c-0.53,0.99-1.02,1.9-1.46,2.71l-0.83,2.229l-0.74,1.93l-10.45-3.239l0.99-2.57
	c0.32-0.819,0.71-1.8,1.16-2.94c0.59-1.069,1.25-2.279,1.97-3.59c0.67-1.359,1.67-2.64,2.69-4.029c0.97-1.43,2.16-2.771,3.45-4.1
	c1.22-1.42,2.67-2.65,4.14-3.9c1.42-1.33,3.07-2.34,4.63-3.5c1.601-1.08,3.271-2.03,4.91-2.98c1.69-0.82,3.31-1.75,4.95-2.41
	c3.24-1.47,6.39-2.49,9.08-3.32c2.72-0.78,5.01-1.31,6.66-1.62c0.799-0.16,1.51-0.27,2-0.35l0.67-0.1l1.42,10.27L161.9,114.225z
	 M174.468,103.945l1.384,1.417c0.916,0.91,2.256,2.198,3.924,3.66c1.67,1.46,3.66,3.098,5.857,4.637
	c2.189,1.51,4.62,2.97,6.917,3.81c1.14,0.43,2.21,0.64,3.078,0.71c0.873,0.05,1.377-0.15,1.771-0.34
	c0.399-0.15,0.727-0.61,1.14-1.12c0.38-0.6,0.718-1.37,1.014-2.13c0.23-0.87,0.511-1.6,0.622-2.4c0.15-0.77,0.301-1.42,0.346-2.03
	l0.215-1.85l10.881,1.13l-0.373,2.4c-0.09,0.75-0.326,1.71-0.588,2.8c-0.211,1.06-0.684,2.36-1.15,3.72
	c-0.596,1.4-1.324,2.94-2.488,4.54c-1.246,1.56-2.884,3.27-5.218,4.27c-2.25,1.03-4.823,1.351-7.01,1.1
	c-2.183-0.25-4.16-0.83-5.91-1.56c-3.503-1.49-6.364-3.43-8.91-5.33c-2.521-1.92-4.673-3.84-6.464-5.53
	c-1.785-1.7-3.197-3.17-4.18-4.22c-0.98-1.09-1.547-1.71-1.547-1.71l6.69-6.01V103.945z M130.438,143.936
	c0,0-13.496-11.541-16.482-9.5c0,0-11.508,7.506-8.42,12.17c3.096,4.666,4.49,3.104,4.49,3.104s3.564,3.728,5.027,4.601
	c1.158,0.689,3.754,1.879,5.098,1.767c0.865-0.07,3.053-1.677,3.053-1.677s2.27,2.201,4.7-1.319c2.44-3.521,5.98-6.351,2.535-9.14
	V143.936z M179.229,145.984l5.58,68.785l-11.267,0.916l-5.065-68.83L179.229,145.984z M166.758,147.03l-0.888,10.717
	c-0.136,1.606-0.278,3.351-0.433,5.192c-0.127,1.84-0.365,3.789-0.424,5.779c-0.185,4-0.377,8.26-0.57,12.53
	c-0.778,17.05-1.553,34.101-1.553,34.101l-11.3-0.25l1.841-34.631l0.68-12.71c0.08-2.04,0.33-3.96,0.479-5.81
	c0.17-1.84,0.32-3.58,0.47-5.19c0.59-6.43,0.971-10.71,0.971-10.71l10.74,0.971L166.758,147.03z"/>
<path fill="#FBB03B" d="M154.467,144.083l-10.996,30.021c0,0,3.342-1.73,5.43,0.125s3.76,2.967,11.272,0.617
	c7.521-2.35,10.86,1.113,10.86,1.113s7.938,3.33,12.32-1.609c4.39-4.951,9.189-0.021,9.189-0.021l-12.845-30.479"/>
<path fill="#0071BC" d="M85.046,143.176l0.485,22.205H74.92c0,0-1.353-2.24-3.57-2.24c-1.883,0-2.92,2-2.92,2l-10.84,0.32
	l0.062-22.46"/>
<path fill="#0071BC" d="M82.508,145.191l0.65,2.896c0.23,0.895,0.382,2.124,0.608,3.475c0.21,1.365,0.455,2.905,0.717,4.584
	c0.26,1.677,0.545,3.496,0.843,5.422c0.17,1.88,0.35,3.859,0.533,5.91c0.36,4.1,0.76,8.476,1.15,12.847
	c0.47,4.38,0.35,8.729,0.56,12.819c0.12,4.09,0.24,7.983,0.33,11.256l0.32,10.979h-11.3l-0.25-10.769
	c-0.07-3.204-0.16-6.979-0.25-10.992c-0.17-4-0.02-8.34-0.46-12.561l-1.02-12.449c-0.16-1.99-0.32-3.92-0.47-5.73
	c-0.26-1.75-0.5-3.4-0.73-4.93c-0.22-1.53-0.43-2.93-0.6-4.17c-0.2-1.25-0.3-2.311-0.54-3.25l-0.62-2.9l10.49-2.449L82.508,145.191z
	"/>
<path fill="#0071BC" d="M101.485,215.38h0.032c-3.908-3-9.478-5.093-9.478-5.093c-2.81-1.906-0.86-5.915-0.86-5.915
	c-0.94-4.965-15.44,0.58-15.44,0.58s1.52,6.64,0.06,8.666c-1.47,2.022-0.22,7.763-0.22,7.763h0.01c-0.1,0,0.92,1.11,0.92,1.11
	l35.19,0.44l0.03-3.341c-2.96-1.729-6.61-4.19-10.27-4.19L101.485,215.38z"/>
<path fill="#0071BC" d="M70.17,147.03c0,0-0.36,4.288-0.89,10.717c-0.137,1.606-0.283,3.351-0.433,5.192
	c-0.13,1.84-0.366,3.789-0.427,5.779c-0.186,4-0.375,8.26-0.57,12.53L66.3,215.35L55,215.1l1.838-34.631
	c0.232-4.33,0.462-8.66,0.678-12.71c0.082-2.04,0.33-3.96,0.474-5.81c0.17-1.84,0.323-3.58,0.47-5.19
	c0.578-6.43,0.966-10.71,0.966-10.71l10.746,0.96L70.17,147.03z"/>
<path fill="#0071BC" d="M41.742,215.38h-0.028c3.905-3,9.478-5.093,9.478-5.093c2.803-1.906,0.854-5.915,0.854-5.915
	c0.937-4.965,15.433,0.58,15.433,0.58s-1.53,6.64-0.07,8.666c1.47,2.022,0.21,7.763,0.21,7.763h-0.02c0.09,0-0.92,1.11-0.92,1.11
	l-35.19,0.44l-0.03-3.341c2.96-1.729,6.6-4.19,10.26-4.19L41.742,215.38z"/>
<path fill="#F2C49C" d="M118.75,132.598c0,0-14.803,9.791-13.667,13.227c0,0,4.05,13.13,9.384,11.443
	c5.336-1.686,4.218-3.457,4.218-3.457s4.565-2.399,5.807-3.56c0.98-0.92,2.84-3.09,3.098-4.41c0.17-0.85-0.77-3.399-0.77-3.399
	s2.739-1.57,0.02-4.891c-2.718-3.31-4.458-7.49-8.09-4.949V132.598z"/>
<path fill="#F2C49C" d="M70.66,112.24l-1.808,1.483c-1.168,0.997-2.826,2.475-4.692,4.352c-3.68,3.71-8.374,9.248-10.51,15.028
	c-1.02,2.859-1.326,5.594-0.73,7.793c0.222,1.135,0.762,2.135,1.283,3.1c0.336,0.464,0.66,0.916,0.975,1.354
	c0.388,0.418,0.764,0.82,1.122,1.211c0.815,0.736,1.544,1.442,2.344,1.977c0.8,0.536,1.42,1.064,2.072,1.395l1.938,1.127
	l-5.167,9.641c0,0-0.92-0.551-2.536-1.51c-0.81-0.44-1.75-1.19-2.84-1.961c-1.09-0.77-2.26-1.85-3.5-3.049l-1.85-2.051
	c-0.57-0.8-1.18-1.62-1.75-2.5c-1.05-1.85-2.06-3.949-2.55-6.3c-1.15-4.71-0.36-9.761,1.22-13.96c1.62-4.21,3.9-7.83,6.23-10.92
	c2.35-3.08,4.75-5.69,6.89-7.81c2.15-2.12,4.03-3.76,5.38-4.9l1.61-1.31l0.62-0.47l6.28,8.24L70.66,112.24z"/>
<path fill="#F2C49C" d="M79.463,101.178c0,0,0.23,0.053,0.666,0.162c0.52,0.12,1.16,0.313,1.94,0.56c1.57,0.517,3.76,1.28,6.24,2.5
	c1.26,0.557,2.55,1.323,3.94,2.073c1.33,0.85,2.79,1.67,4.16,2.713c2.83,1.974,5.6,4.433,8.15,7.112c1.31,1.3,2.39,2.803,3.58,4.185
	c1.1,1.44,2.06,2.947,3.05,4.368c0.91,1.47,1.67,2.95,2.45,4.331c0.82,1.369,1.29,2.779,1.88,4.029c0.53,1.27,1.1,2.41,1.41,3.471
	l0.9,2.729l0.77,2.38l-10.58,2.779l-0.6-2.02c-0.19-0.65-0.41-1.43-0.67-2.33c-0.22-0.92-0.67-1.859-1.07-2.939
	c-0.46-1.04-0.8-2.26-1.44-3.391c-0.61-1.149-1.19-2.41-1.9-3.649c-0.78-1.181-1.52-2.46-2.37-3.68c-0.94-1.14-1.77-2.43-2.82-3.53
	c-2-2.26-4.2-4.38-6.48-6.09c-1.1-0.91-2.29-1.61-3.35-2.37c-1.14-0.65-2.17-1.34-3.2-1.82c-2.01-1.08-3.77-1.76-4.98-2.21
	c-0.57-0.19-1.01-0.34-1.32-0.44l-0.51-0.14l2.08-8.74L79.463,101.178z"/>
<path fill="#082031" d="M78.035,99.55c0,0,8.957-5.258,23.76,10.515L89.33,123.307c0,0-7.597-7.79-14.022-6.23"/>
<polygon fill="#082031" points="89.33,151.15 57.2,145.79 62.846,95.38 81.542,95.38 "/>
<path fill="#082031" d="M64.796,99.55c0,0-12.853-1.947-18.046,22.98l15.06,10.903c0,0-0.716-17.917,5.71-16.354"/>
<path fill="#C69C6D" d="M79.203,96.823l-7.01,10.128l-7.79-10.9"/>
<path fill="#E2B593" d="M92.108,73.475c0,4.613,0.67,8.353,3.903,8.353c3.24,0,7.82-0.866,7.82-8.353c0-4.613-2.62-8.353-5.86-8.353
	c-3.23,0-5.86,3.74-5.86,8.353H92.108z"/>
<path fill="#C69C6D" d="M93.08,73.442c0.013-1.29,0.28-2.762,0.91-4.015c0.32-0.637,0.73-1.256,1.305-1.792
	c0.57-0.524,1.388-0.974,2.332-0.987c0.358,0.034,0.283,0.003,0.62,0.073c0.273,0.06,0.503,0.14,0.683,0.23
	c0.403,0.18,0.726,0.43,1.028,0.69c0.57,0.54,0.706,1.16,1.026,1.79c0.634,1.28,0.635,2.67,0.635,4.05v0.16
	c0,0.91-0.44,1.65-1.35,1.66c-0.91,0.01-1.52-0.71-1.52-1.62c0-0.06,0.07-0.13,0.07-0.2c0.1-0.91,0.06-1.9-0.24-2.74
	c-0.28-0.87-0.83-1.42-0.99-1.47c-0.1-0.05-0.35-0.04-0.68,0.18c-0.32,0.22-0.84,0.58-1.11,1.01c-0.56,0.88-1.21,1.88-1.21,3.07
	v0.05c0,0.54-0.34,0.92-0.87,0.87c-0.5-0.05-0.67-0.48-0.67-0.98L93.08,73.442z"/>
<path fill="#E2B593" d="M53.365,73.475c0,4.613-0.67,8.353-3.9,8.353c-3.234,0-7.814-0.866-7.814-8.353
	c0-4.613,2.63-8.353,5.86-8.353c3.24,0,5.86,3.74,5.86,8.353H53.365z"/>
<path fill="#C69C6D" d="M52.396,73.442c-0.012-1.29-0.28-2.762-0.913-4.015c-0.317-0.637-0.727-1.256-1.304-1.792
	c-0.57-0.524-1.39-0.974-2.33-0.987c-0.36,0.034-0.29,0.003-0.63,0.073c-0.27,0.06-0.5,0.14-0.69,0.23
	c-0.4,0.18-0.73,0.43-1.03,0.69c-0.57,0.54-0.82,1.16-1.15,1.79c-0.64,1.28-0.75,2.67-0.75,4.05v0.16c0,0.91,0.55,1.65,1.46,1.66
	c0.91,0.01,1.57-0.71,1.58-1.62c0-0.06-0.05-0.13-0.06-0.2c-0.1-0.91-0.04-1.9,0.26-2.74c0.27-0.87,0.83-1.42,0.98-1.47
	c0.1-0.05,0.35-0.04,0.68,0.18c0.32,0.22,0.64,0.58,0.91,1.01c0.55,0.88,0.88,1.88,1,3.07v0.05c0.06,0.54,0.53,0.92,1.06,0.87
	c0.5-0.05,0.87-0.48,0.87-0.98L52.396,73.442z"/>
<path fill="#F2C49C" d="M95.785,81.725c0,16.408-15.768,17.827-22.802,17.827c-8.006,0-22.805-1.42-22.805-17.827
	c0-16.412-1.698-37.48,22.805-37.48C97.723,44.243,95.785,65.313,95.785,81.725z"/>
<path fill="#333333" d="M45.892,63.49l4.368,12.614l6.305-14.718 M100.067,64.296l-4.15,11.808l-6.31-14.718"/>
<path fill="#F5F5F5" d="M68.762,73.45c0,3.75-3.038,6.79-6.79,6.79c-3.748,0-6.787-3.04-6.787-6.79c0-3.747,3.04-6.784,6.788-6.784
	C65.723,66.666,68.763,69.703,68.762,73.45L68.762,73.45z"/>
<path fill="#333333" d="M66.748,73.288c0,2.607-2.106,4.718-4.712,4.718c-2.603,0-4.712-2.11-4.712-4.718
	c0-2.602,2.11-4.707,4.712-4.707c2.606,0,4.712,2.11,4.712,4.71V73.288z"/>
<path fill="#F5F5F5" d="M92.05,73.45c0,3.75-3.04,6.79-6.786,6.79c-3.75,0-6.793-3.04-6.793-6.79c0-3.747,3.05-6.784,6.8-6.784
	s6.79,3.037,6.79,6.783L92.05,73.45z"/>
<path fill="#333333" d="M90.035,73.288c0,2.607-2.106,4.718-4.714,4.718c-2.6,0-4.71-2.11-4.71-4.718c0-2.602,2.11-4.707,4.71-4.707
	c2.61,0,4.72,2.11,4.72,4.71L90.035,73.288z"/>
<path fill="#333333" d="M72.327,93.77c-6.116,0-9.97-2.73-10.21-2.9c-0.695-0.507-0.85-1.48-0.34-2.177
	c0.503-0.693,1.475-0.852,2.168-0.347c0.3,0.207,7.45,5.154,17.786-0.124c0.77-0.386,1.71-0.087,2.1,0.68s0.09,1.7-0.68,2.093
	c-4.06,2.076-7.73,2.775-10.82,2.775H72.327z"/>
<path fill="#333333" d="M89.72,51.684c0,0-6.792,8.247-21.346,9.22l7.114-7.28c0,0-15.767,10.51-23.855,10.51l-1.94,0.243
	l-2.183,3.517c0,0-6.914-11.16-3.884-17.223c0,0,1.136-1.73-2.745,0.21c0,0,7.32-19.69,35.09-17.62c0,0,14.96,2.26,16.42,7.48
	c1.12,3.99-2.67,10.96-2.67,10.96L89.72,51.684z"/>
<path fill="#333333" d="M87.78,50.067c0,0,0,11.16,3.877,15.525l7.272,1.36c0,0,4.61-10.82,4.61-13.732
	c0-2.912-1.7-12.13-11.89-11.157c-10.19,0.968-3.88,8.004-3.88,8.004H87.78z"/>
<path fill="#333333" d="M76.087,64.24c-0.053,0.043,0.957-0.68,2.48-1.4c0.75-0.415,1.686-0.727,2.677-1.148
	c0.503-0.178,1.04-0.32,1.585-0.486c0.54-0.144,1.08-0.358,1.67-0.424c1.15-0.146,2.3-0.485,3.43-0.42
	c1.12,0.027,2.18-0.108,3.08,0.093c1.82,0.327,3.03,0.548,3.03,0.548c1.53,0.278,2.55,1.748,2.27,3.28
	c-0.28,1.534-1.75,2.554-3.29,2.275c-0.13-0.023-0.26-0.058-0.39-0.097l-0.48-0.16l-2.08-0.7c-0.62-0.27-1.43-0.24-2.27-0.41
	c-0.85-0.2-1.8-0.04-2.74-0.08c-0.47-0.02-0.94,0.1-1.41,0.14l-1.38,0.2c-0.87,0.24-1.73,0.37-2.41,0.63
	c-1.42,0.43-2.21,0.85-2.27,0.87c-0.75,0.43-1.7,0.17-2.13-0.58c-0.43-0.74-0.17-1.69,0.58-2.12L76.087,64.24z"/>
<path fill="#333333" d="M69.053,66.943c-0.062-0.016-0.846-0.433-2.267-0.863c-0.68-0.262-1.54-0.397-2.412-0.632l-1.38-0.202
	c-0.467-0.047-0.937-0.167-1.41-0.142c-0.943,0.042-1.885-0.125-2.73,0.08c-0.836,0.17-1.646,0.143-2.27,0.414l-2.078,0.7
	l-0.457,0.16c-1.48,0.496-3.09-0.3-3.59-1.772c-0.5-1.478,0.29-3.082,1.77-3.583c0.12-0.042,0.27-0.075,0.39-0.1
	c0,0,1.21-0.222,3.03-0.55c0.9-0.2,1.97-0.065,3.08-0.093c1.13-0.063,2.27,0.275,3.43,0.42c0.58,0.066,1.12,0.28,1.67,0.425
	c0.54,0.166,1.07,0.308,1.58,0.486c0.98,0.43,1.92,0.74,2.67,1.15c1.52,0.72,2.53,1.45,2.48,1.4c0.75,0.43,1,1.38,0.58,2.13
	c-0.43,0.75-1.38,1.01-2.12,0.58L69.053,66.943z"/>
<path fill="#754C24" d="M198.078,215.38h0.029c-3.903-3-9.479-5.093-9.479-5.093c-2.798-1.906-0.853-5.915-0.853-5.915
	c-0.935-4.965-15.435,0.58-15.435,0.58s1.53,6.64,0.07,8.666c-1.46,2.022-0.21,7.763-0.21,7.763h0.02c-0.09,0,0.92,1.11,0.92,1.11
	l35.19,0.44l0.03-3.341c-2.961-1.729-6.6-4.19-10.26-4.19L198.078,215.38z M138.334,215.38h-0.029c3.907-3,9.479-5.093,9.479-5.093
	c2.8-1.906,0.853-5.915,0.853-5.915c0.934-4.965,15.434,0.58,15.434,0.58s-1.52,6.64-0.049,8.666c1.47,2.022,0.22,7.763,0.22,7.763
	h-0.021c0.1,0-0.92,1.11-0.92,1.11l-35.18,0.44l-0.02-3.341c2.969-1.729,6.6-4.19,10.26-4.19L138.334,215.38z"/>
<path fill="#F7931E" d="M182.811,143.386l-33.5-0.016l7.01-39.99h18.697L182.811,143.386z"/>
<path fill="#FFEDDC" d="M160.505,116.38h10.327c1.046,0,1.787-0.883,1.787-1.93v-11.07h-13.801l-0.09,11.542
	c0,1.047,0.73,1.46,1.771,1.46L160.505,116.38z"/>
<path fill="#F4D1B0" d="M168.62,104.615c0,2.58-1.3,2.404-3.5,2.404c-2.203,0-3.5,0.17-3.5-2.41v-9.35c0-2.58,1.297-4.68,3.5-4.68
	c2.2,0,3.5,2.09,3.5,4.67v9.35V104.615z"/>
<path fill="#D3BD8D" d="M184.713,73.442c0,4.535,0.66,8.21,3.84,8.21s7.672-0.854,7.672-8.21c0-4.537-2.572-8.21-5.75-8.21
	C187.29,65.232,184.713,68.905,184.713,73.442z"/>
<path fill="#C69C6D" d="M185.664,73.412c0.018-1.27,0.277-2.72,0.9-3.95c0.313-0.624,0.715-1.235,1.279-1.763
	c0.563-0.52,1.36-0.96,2.29-0.97c0.354,0.03,0.28,0,0.616,0.07c0.264,0.05,0.494,0.14,0.666,0.22c0.396,0.17,0.714,0.42,1.005,0.67
	c0.58,0.52,0.479,1.13,0.8,1.76c0.631,1.25,0.41,2.62,0.41,3.98v0.15c0,0.89-0.21,1.62-1.1,1.63c-0.891,0.01-1.37-0.71-1.381-1.6
	c0-0.07,0.131-0.14,0.131-0.2c0.1-0.9,0.09-1.88-0.211-2.7c-0.26-0.85-0.789-1.4-0.939-1.45c-0.09-0.05-0.34-0.04-0.66,0.17
	c-0.31,0.21-0.6,0.57-0.859,0.98c-0.541,0.87-0.961,1.84-0.961,3.01v0.05c0,0.521-0.549,0.9-1.069,0.84
	c-0.49-0.05-0.88-0.47-0.88-0.96L185.664,73.412z"/>
<path fill="#D3BD8D" d="M146.627,73.442c0,4.535-0.656,8.21-3.838,8.21c-3.18,0-7.68-0.854-7.68-8.21c0-4.537,2.57-8.21,5.75-8.21
	s5.76,3.673,5.76,8.21H146.627z"/>
<path fill="#C69C6D" d="M145.673,73.412c-0.016-1.27-0.274-2.72-0.896-3.95c-0.317-0.624-0.715-1.235-1.283-1.763
	c-0.559-0.52-1.357-0.96-2.29-0.97c-0.351,0.03-0.28,0-0.606,0.07c-0.269,0.05-0.5,0.14-0.675,0.22
	c-0.394,0.17-0.716,0.42-1.007,0.67c-0.566,0.52-0.523,1.13-0.843,1.76c-0.62,1.25-0.453,2.62-0.453,3.98v0.15
	c0,0.89,0.256,1.62,1.146,1.63c0.896,0.01,1.406-0.71,1.416-1.6c0-0.07-0.111-0.14-0.121-0.2c-0.1-0.9-0.08-1.88,0.221-2.7
	c0.27-0.85,0.8-1.4,0.96-1.45c0.1-0.05,0.35-0.04,0.67,0.17c0.319,0.21,0.63,0.57,0.89,0.98c0.551,0.87,0.87,1.84,0.99,3.01
	l0.01,0.05c0.061,0.521,0.52,0.9,1.051,0.84c0.5-0.05,0.859-0.47,0.859-0.96L145.673,73.412z"/>
<path fill="#FFDDBB" d="M188.326,81.55c0,16.134-15.502,17.527-22.418,17.527c-7.874,0-22.418-1.394-22.418-17.528
	c0-16.134-1.67-36.85,22.418-36.85C190.236,44.699,188.326,65.409,188.326,81.55L188.326,81.55z"/>
<path fill="#F48B73" d="M168.532,93.355c0,2.02-1.638,3.656-3.655,3.656c-2.02,0-3.656-1.63-3.656-3.65s1.635-3.66,3.656-3.66
	c2.02,0,3.655,1.64,3.655,3.66V93.355z"/>
<circle fill="#F5F5F5" cx="155.085" cy="73.418" r="6.675"/>
<path fill="#333333" d="M159.779,73.26c0,2.558-2.069,4.63-4.629,4.63c-2.561,0-4.637-2.072-4.637-4.63
	c0-2.562,2.076-4.63,4.635-4.63C157.709,68.63,159.779,70.698,159.779,73.26L159.779,73.26z"/>
<circle fill="#F5F5F5" cx="177.982" cy="73.418" r="6.675"/>
<path fill="#333333" d="M182.673,73.26c0,2.558-2.067,4.63-4.63,4.63s-4.634-2.072-4.634-4.63c0-2.562,2.069-4.63,4.63-4.63
	s4.63,2.068,4.63,4.63H182.673z"/>
<path fill="#333333" d="M143.887,66.01c0,0-1.904,36.58,4.453,49.303c0,0-13.673-0.497-16.535-9.08
	c-2.859-8.585-0.633-71.853,33.068-65.853h2.284c33.702-6,35.93,57.268,33.067,65.852c-2.863,8.584-16.537,9.822-16.537,9.822
	c6.36-12.72,2.174-52.293,2.174-52.293l-13.67-17.57l-13.351,0.53l-14.95,19.29L143.887,66.01z"/>
<path fill="#333333" d="M165.073,93.924c-4.532,0-8.084-2.344-8.084-5.337c0-0.647,0.52-1.17,1.159-1.17
	c0.641,0,1.17,0.523,1.17,1.17c0,1.42,2.361,3,5.74,3c3.381,0,5.74-1.58,5.74-3c0-0.647,0.52-1.17,1.17-1.17
	c0.641,0,1.17,0.523,1.17,1.17c0,2.993-3.55,5.337-8.08,5.337H165.073z"/>
<path fill="#333333" d="M166.064,49.062c0,0-14.506,21.666-29.566,20.63l15.977-22.124l13.431-3.066L166.064,49.062L166.064,49.062z
	"/>
<path fill="#333333" d="M166.154,48.794c0,0,12.83,23.364,27.891,22.327L180.04,47.57l-14.149-2.88l0.268,4.106L166.154,48.794z"/>
<path fill="#F7931E" d="M153.62,143.38h29v4h-29V143.38z"/>
<path fill="#FFEDDC" d="M149.311,143.126l-0.584,1.798c0,0,2.271-0.646,2.987,0c0.713,0.648,2.144,0.91,3.765,0
	c1.621-0.908,4.86-0.904,6.49,0.135c1.62,1.037,6.23-0.195,6.23-0.195s3.699-1.17,6.55,0.71c2.86,1.885,7.01-0.905,7.01-0.905
	s1.04-0.584,1.82,1.166l-0.78-2.611l-33.5-0.097H149.311z"/>
<path fill="#F7931E" d="M148.9,174.23c0.035,0.033,0.074,0.065,0.115,0.1c2.254-6.311,5.979-17.166,5.617-19.08
	c-0.517-2.725-2.729-2.075-5.064,4.675c-1.279,3.694-3.879,9.556-5.969,14.115c0.609-0.285,3.439-1.46,5.299,0.19H148.9z
	 M192.354,174.15c-2.136-3.931-11.463-20.848-13.183-19.811c-1.54,0.924,1.97,13.264,3.3,20.864c0.311-0.254,0.61-0.533,0.891-0.853
	c3.88-4.371,8.08-1.031,9-0.201H192.354z M165.8,156.287c-4.102,0.493-5.866,10.968-6.68,18.857c0.358-0.105,0.668-0.178,1.053-0.3
	c6.408-2.002,9.761,0.204,10.612,0.906c0.096-7.49-0.424-20.01-4.984-19.46L165.8,156.287z"/>
<path fill="#FFDDBB" d="M218.07,101.733c0,0,0.943,1.605-0.551,4.713c0,0-0.314,2.023-1.06,3.352l-0.696,1.25
	c0,0-2.814,6.194-11.689,2.63c0,0-8.428-0.954-8.35-8.235l5.479-9.623l16.864,5.913H218.07z M200.573,107.903
	c0,0-0.392,2.92-2.884,2.862c0,0-4.631-5.068-2.141-8.264"/>
<path fill="#FFDDBB" d="M208.453,101.733c1.104-2.605,2.273-5.174,3.418-7.755c1.189-2.566,2.33-5.148,3.561-7.698
	c0.68-1.417,0.08-3.114-1.341-3.788c-1.409-0.673-3.11-0.08-3.79,1.333c-0.039,0.084-0.07,0.167-0.1,0.25
	c-0.971,2.652-2.02,5.277-3.02,7.92c-1.051,2.618-2.07,5.25-3.17,7.855c-0.511,1.232,0.069,2.65,1.299,3.165
	c1.23,0.52,2.65-0.057,3.17-1.282H208.453z M203.333,100.625l2.37-17.517c0.199-1.486-0.865-2.854-2.354-3.058
	c-1.49-0.194-2.98,0.833-3.091,2.328c0,0.025-0.01,0.065-0.01,0.093l-1.75,17.59c-0.13,1.33,0.851,2.52,2.181,2.65
	c1.299,0.14,2.479-0.79,2.649-2.08L203.333,100.625z M206.87,95.582c0,0-2.896,2.292-3.899-0.863l0.52,5.16l3.38-4.3V95.582z
	 M213.105,103.858c1.227-2.393,2.396-4.813,3.59-7.21c1.158-2.423,2.35-4.834,3.481-7.27c0.593-1.278,0.036-2.798-1.237-3.39
	c-1.271-0.587-2.76-0.055-3.381,1.187c-1.18,2.41-2.31,4.85-3.47,7.27c-1.13,2.44-2.271,4.87-3.36,7.323
	c-0.549,1.223,0,2.65,1.23,3.188c1.17,0.525,2.54,0.03,3.13-1.098H213.105z M214.805,108.565l9.301-12.463
	c0.674-0.906,0.487-2.185-0.41-2.856c-0.881-0.656-2.108-0.5-2.805,0.337l-9.891,12c-0.846,1.03-0.7,2.556,0.332,3.403
	c1.029,0.853,2.55,0.705,3.406-0.325l0.068-0.09L214.805,108.565z"/>
<path fill="#E2AB74" d="M200.695,103.16"/>
<path fill="#FFDDBB" d="M200.473,104.23c-0.449-1.134-0.91-2.056-1.443-3.036c-0.532-0.962-1.127-1.903-1.789-2.807
	c-1.33-1.804-2.963-3.545-5.167-4.8c-1.229-0.69-3.056,0.224-3.75,1.448c-0.698,1.225-0.556,3.286,0.675,3.97l0.061,0.032
	c1.303,0.73,2.844,1.416,3.916,2.822c0.534,0.7,1.176,1.21,1.631,2c0.442,0.77,0.961,1.53,1.26,2.25l0.074,0.02
	c0.51,1.23,1.959,1.78,3.189,1.27c1.221-0.52,1.82-1.94,1.33-3.18L200.473,104.23z"/>
<path fill="#FFFFFF" d="M190.422,98.424c0,0,0.34-1.054,1.08-1.19c0,0-0.754-1.298-1.686-1.13c-0.932,0.17-1.012,1.027-1.012,1.027
	s0.508,0.82,1.617,1.3V98.424z"/>
<path fill="#082031" d="M72.632,143.27l10.37,2.728l6.33,5.875l0.095,0.728l-1.653-0.221H63.53c-0.296-5-6.33-5.77-6.33-5.77
	l2.627-2.69L72.632,143.27L72.632,143.27z"/>
<path fill="#333333" d="M172.33,61.21c-0.083,0.018,1.037-0.253,2.374-0.3c0.687,0.02,1.476-0.024,2.3,0.096
	c0.832,0.058,1.7,0.2,2.548,0.403c0.86,0.14,1.683,0.41,2.443,0.66c0.772,0.21,1.476,0.47,2.053,0.74
	c1.162,0.49,1.938,0.83,1.938,0.83l-2.07-0.37c-0.607-0.13-1.33-0.22-2.107-0.25c-0.771-0.06-1.591-0.14-2.408-0.08
	c-0.81,0-1.609,0.06-2.35,0.18c-0.74,0.06-1.4,0.27-1.97,0.38c-1.14,0.33-1.61,0.6-1.69,0.63c-0.81,0.29-1.699-0.14-1.99-0.95
	c-0.289-0.81,0.131-1.7,0.94-1.99L172.33,61.21z M159.264,63.938c-0.061-0.012-0.771-0.284-2.101-0.566
	c-1.312-0.252-3.124-0.523-4.96-0.516c-0.922-0.024-1.85-0.018-2.71,0.088c-0.87,0.075-1.693,0.115-2.375,0.274
	c-1.39,0.257-2.316,0.43-2.316,0.43s0.878-0.357,2.192-0.9c0.652-0.303,1.457-0.515,2.316-0.775c0.859-0.29,1.801-0.495,2.752-0.67
	c1.9-0.404,3.863-0.521,5.354-0.547c1.479-0.003,2.604,0.16,2.546,0.147c0.838,0.19,1.362,1.03,1.166,1.867
	c-0.199,0.84-1.029,1.36-1.87,1.168H159.264z M70.653,88.818c-0.66,0-1.273-0.425-1.485-1.087c-0.26-0.82,0.192-1.69,1.013-1.95
	c1.7-0.54,2.16-1.29,2.16-1.6l-0.01-12.28c0-0.85,0.79-1.55,1.65-1.55s1.65,0.7,1.65,1.56v12.13c0,0,0.3,3.23-4.4,4.72
	c-0.15,0.05-0.4,0.07-0.56,0.07L70.653,88.818z M164.34,88.818c-0.66,0-1.273-0.425-1.484-1.087c-0.26-0.82,0.191-1.69,1.013-1.95
	c1.696-0.54,2.151-1.29,2.155-1.6l-0.01-12.27c0-0.85,0.441-1.55,1.303-1.55c0.86,0,1.304,0.7,1.304,1.56v12.13
	c0,0,0.64,3.23-4.063,4.72c-0.16,0.05-0.062,0.07-0.216,0.07L164.34,88.818z"/>
</svg>
