<?xml version="1.0" encoding="utf-8"?>
<!-- Generator: Adobe Illustrator 16.0.0, SVG Export Plug-In . SVG Version: 6.00 Build 0)  -->
<!DOCTYPE svg PUBLIC "-//W3C//DTD SVG 1.1//EN" "http://www.w3.org/Graphics/SVG/1.1/DTD/svg11.dtd">
<svg version="1.1" id="Layer_1" xmlns="http://www.w3.org/2000/svg" xmlns:xlink="http://www.w3.org/1999/xlink" x="0px" y="0px"
	 width="256px" height="256px" viewBox="0 0 256 256" enable-background="new 0 0 256 256" xml:space="preserve">
<path fill="#333333" d="M127.676,226.563c-21.315,0-37.71-3.713-49.57-11.28c-0.044,0.748-0.297,1.483-0.754,2.114
	c-0.76,1.051-1.97,1.655-3.24,1.655c-0.192,0-0.386-0.014-0.58-0.042c-1.802-0.264-44.236-6.785-53.633-34.976
	c-5.89-17.654-4.87-82.204,23.69-121.824c15.9-22.077,37.51-33.268,64.21-33.268c5.45,0,11.18,0.482,17.04,1.434h6.3
	c5.851-0.953,11.59-1.435,17.041-1.435c26.699,0,48.299,11.2,64.209,33.27c28.561,39.63,29.57,104.17,23.69,121.82
	c-9.399,28.189-51.84,34.689-53.64,34.949c-0.19,0.03-0.391,0.051-0.58,0.051c-1.271,0-2.48-0.6-3.24-1.65
	c-0.689-0.949-0.92-2.15-0.65-3.27c-12.22,8.199-29.26,12.46-50.32,12.46L127.676,226.563z"/>
<path fill="#333333" d="M148.195,32.947c86.775,0,92.338,125.145,84.109,149.822c-8.726,26.179-50.418,32.258-50.418,32.258
	c2.537-5.076,4.52-10.563,6.059-16.26c-14.432,21.438-44.586,23.795-60.27,23.795c-17.348,0-45.332-2.226-59.51-22.043
	c1.656,4.99,3.617,9.875,5.945,14.532c0,0-41.69-6.104-50.41-32.282c-8.22-24.68-2.68-149.834,84.11-149.822
	c5.27,0,10.84,0.462,16.72,1.434h6.96c5.89-0.97,11.45-1.43,16.72-1.43"/>
<path fill="#333333" d="M107.801,25.381c-14.66,0-28.07,3.1-39.86,9.64c-10.52,5.84-19.8,14.16-27.58,24.96
	c-29.8,41.34-30.5,106.61-24.24,125.39c10.16,30.49,54.94,37.35,56.84,37.63c0.39,0.06,0.78,0.069,1.16,0.069
	c2.09,0,4.09-0.819,5.58-2.27c4.47,2.41,9.45,4.381,14.91,5.891c9.42,2.609,20.24,3.879,33.08,3.879
	c19.45,0,35.661-3.549,48.071-10.399c1.529,1.83,3.779,2.87,6.139,2.87c0.381,0,0.771-0.03,1.16-0.08
	c1.9-0.279,46.69-7.141,56.86-37.641c6.261-18.77,5.56-84.079-24.239-125.419c-7.781-10.8-17.061-19.23-27.58-25.07
	c-11.791-6.54-25.201-9.86-39.871-9.86c-5.569,0-11.41,0.49-17.359,1.44h-5.67c-5.95-0.95-11.79-1-17.36-1h-0.01L107.801,25.381z"/>
<path fill="#D3BD8D" d="M185.014,144.393c0,13.83,2.004,25.037,11.7,25.037c9.702,0,23.415-2.601,23.415-25.041
	c0-13.83-7.859-25.04-17.561-25.04c-9.699,0-17.56,11.209-17.56,25.03L185.014,144.393z"/>
<path fill="#C69C6D" d="M187.922,144.3c0.04-3.876,0.842-8.29,2.738-12.04c0.963-1.908,2.18-3.76,3.902-5.368
	c1.709-1.57,4.153-2.92,6.985-2.954c1.074,0.103,0.854,0.006,1.865,0.22c0.813,0.168,1.512,0.41,2.05,0.682
	c1.2,0.527,2.174,1.28,3.07,2.053c1.72,1.607,1.667,3.46,2.626,5.368c1.899,3.851,1.45,7.99,1.45,12.14v0.48
	c0,2.721-0.87,4.94-3.58,4.98c-2.721,0.039-4.301-2.141-4.34-4.851c0-0.19,0.33-0.409,0.35-0.6c0.3-2.729,0.23-5.71-0.66-8.22
	c-0.83-2.61-2.449-4.25-2.93-4.42c-0.29-0.141-1.04-0.121-2.02,0.539c-0.951,0.66-1.91,1.74-2.721,3.01
	c-1.67,2.65-2.641,5.621-3.02,9.201l-0.01,0.14c-0.171,1.6-1.601,2.76-3.201,2.59c-1.5-0.16-2.609-1.44-2.6-2.92L187.922,144.3z"/>
<path fill="#D3BD8D" d="M68.887,144.393c0,13.83-2.006,25.037-11.703,25.037c-9.697,0-23.41-2.601-23.41-25.041
	c0-13.83,7.855-25.04,17.555-25.04c9.69,0,17.55,11.209,17.55,25.03L68.887,144.393z"/>
<path fill="#C69C6D" d="M65.977,144.3c-0.04-3.876-0.84-8.29-2.738-12.04c-0.97-1.908-2.19-3.76-3.91-5.368
	c-1.71-1.57-4.15-2.92-6.99-2.954c-1.08,0.103-0.86,0.006-1.86,0.22c-0.82,0.168-1.52,0.41-2.06,0.682
	c-1.2,0.527-2.17,1.28-3.07,2.053c-1.72,1.607-2.51,3.46-3.47,5.368c-1.9,3.851-2.29,7.99-2.29,12.14v0.48
	c0,2.721,1.69,4.94,4.41,4.98c2.71,0.039,4.72-2.141,4.75-4.851c0-0.19-0.13-0.409-0.15-0.6c-0.3-2.729-0.13-5.71,0.77-8.22
	c0.82-2.61,2.49-4.25,2.97-4.42c0.29-0.141,1.06-0.121,2.04,0.539c0.94,0.66,1.91,1.74,2.73,3.01c1.66,2.65,2.64,5.621,3.02,9.201
	l0.01,0.14c0.17,1.6,1.6,2.76,3.19,2.59c1.49-0.16,2.61-1.44,2.6-2.92L65.977,144.3z"/>
<path fill="#FFDDBB" d="M196.029,169.116c0,49.196-47.264,53.444-68.354,53.444c-23.996,0-68.352-4.24-68.352-53.439
	c0-49.2-5.09-112.35,68.352-112.35c74.171,0,68.354,63.15,68.354,112.35V169.116z"/>
<path fill="#F48B73" d="M139.15,205.111c0,6.158-4.99,11.152-11.15,11.152c-6.155,0-11.15-4.994-11.15-11.152
	c0-6.159,4.995-11.153,11.15-11.153C134.16,193.958,139.15,198.953,139.15,205.111z"/>
<path fill="#333333" d="M125.494,59.688c0,0,5.58,60.83-19.633,67.62c0,0-11.63-3.638-37.81-3.638l18.67-58.165l40.97-8.734
	l-2.18,2.92L125.494,59.688z"/>
<path fill="#333333" d="M125.252,60.66c0,0,16.488,47.986-5.818,65.436c0,0,50.66-0.482,72.96-9.207
	C192.395,116.879,173.971,48.289,125.252,60.66L125.252,60.66z"/>
<path fill="#333333" d="M60.537,121.734c0,0-5.813,54.53,13.574,93.318c0,0-41.69-6.104-50.41-32.282
	c-8.72-26.177-1.94-165.39,100.83-148.39h6.96c102.771-17,109.56,122.213,100.829,148.39c-8.719,26.179-50.42,32.258-50.42,32.258
	c19.391-38.782,6.631-101.299,6.631-101.299l-41.68-53.02l-40.721,1.916l-45.56,59.11H60.537z"/>
<path fill="#333333" d="M128,206.2c-13.456,0-23.997-6.865-23.997-15.63c0-1.61,1.303-2.91,2.91-2.91c1.605,0,2.906,1.3,2.906,2.91
	c0,5.229,8.49,9.815,18.18,9.815c9.69,0,18.181-4.585,18.181-9.817c0-1.609,1.299-2.909,2.899-2.909s2.909,1.3,2.909,2.909
	c0,8.761-10.539,15.631-24,15.631L128,206.2z"/>
<path fill="#FF7BAC" d="M45.635,114.76c0,0-0.04-0.854-0.11-2.45c-0.04-1.57-0.02-4.648,0.39-7.853
	c0.88-6.59,3.156-16.304,9.57-25.982c6.27-9.654,16.127-19.34,28.803-25.86c12.617-6.576,27.63-10.23,42.662-10.385
	c2.188,0.073,3.319,0.033,5.491,0.2c1.994,0.106,3.916,0.278,5.744,0.51c3.73,0.434,7.414,1.087,11.025,1.965
	c7.25,1.677,14.109,4.413,20.42,7.674c12.62,6.6,22.65,16.11,28.82,25.87c6.35,9.72,8.68,19.41,9.54,26
	c0.42,3.34,0.409,5.97,0.38,7.75c-0.061,1.78-0.1,2.73-0.1,2.73c-0.121,3.41-3.131,6.08-6.551,5.96c-3.21-0.12-6.1-2.67-6.1-5.82
	v-0.14c0,0-0.02-3.06-1.2-8.14c-1.18-5.07-3.86-12.08-9.271-19.16c-5.35-7.09-13.51-14.01-23.719-18.9
	c-5.091-2.46-10.671-4.33-16.49-5.66c-2.91-0.67-5.871-1.17-8.881-1.48c-1.539-0.18-3.01-0.29-4.41-0.35
	c-1.209-0.12-3.489-0.08-4.689-0.13c-12.2-0.15-24.38,2.56-34.53,7.57C82.29,73.67,73.92,80.4,68.66,87.6
	c-5.34,7.125-8.14,14.11-9.31,19.18c-0.57,2.676-0.94,4.27-1.11,5.886c-0.15,1.59-0.24,2.44-0.24,2.44
	c-0.35,3.4-3.39,5.884-6.79,5.53c-3.1-0.32-5.43-2.875-5.55-5.9L45.635,114.76z"/>
<radialGradient id="SVGID_1_" cx="-753.8853" cy="235.4609" r="29.9807" gradientTransform="matrix(0.723 0 0 -0.723 630.7935 346.0358)" gradientUnits="userSpaceOnUse">
	<stop  offset="0" style="stop-color:#FF585D"/>
	<stop  offset="1" style="stop-color:#FF585D;stop-opacity:0"/>
</radialGradient>
<circle opacity="0.7" fill="url(#SVGID_1_)" enable-background="new    " cx="85.488" cy="175.798" r="21.697"/>
<radialGradient id="SVGID_2_" cx="-638.8926" cy="235.4609" r="29.981" gradientTransform="matrix(0.723 0 0 -0.723 630.7935 346.0358)" gradientUnits="userSpaceOnUse">
	<stop  offset="0" style="stop-color:#FF585D"/>
	<stop  offset="1" style="stop-color:#FF585D;stop-opacity:0"/>
</radialGradient>
<circle opacity="0.7" fill="url(#SVGID_2_)" enable-background="new    " cx="168.662" cy="175.798" r="21.697"/>
<linearGradient id="SVGID_3_" gradientUnits="userSpaceOnUse" x1="991.4629" y1="-243.189" x2="991.4629" y2="-232.735" gradientTransform="matrix(7.466 0 0 -7.466 -7277.0195 -1609.0283)">
	<stop  offset="0" style="stop-color:#FF5459"/>
	<stop  offset="0.789" style="stop-color:#FF6064;stop-opacity:0"/>
</linearGradient>
<path fill="url(#SVGID_3_)" d="M129.62,142.38v33.19c0,0,1.04,6.236-7.97,9.01l2.424-9.01l-3.232-35.072"/>
<path fill="#333333" d="M122.41,189.354c-1.23,0-2.38-0.791-2.77-2.027c-0.49-1.527,0.356-3.163,1.892-3.65
	c8.002-2.55,7.698-7.119,7.678-7.32l-0.015-35.229c0-1.606,2.104-2.91,3.713-2.91c1.605,0,3.712,1.304,3.712,2.91v34.901
	c0,0,0.325,9.105-12.527,13.188C123.805,189.307,122.701,189.354,122.41,189.354z"/>
<path fill="#F5F5F5" d="M113.447,144.313c0,11.244-9.105,20.356-20.348,20.356c-11.24,0-20.36-9.12-20.36-20.36
	c0-11.229,9.11-20.33,20.35-20.33c11.24,0,20.34,9.1,20.34,20.33L113.447,144.313z"/>
<path fill="#333333" d="M107.41,143.84c0,7.805-6.318,14.125-14.12,14.125c-7.802,0-14.132-6.32-14.132-14.125
	c0-7.8,6.33-14.117,14.133-14.117C101.101,129.723,107.411,136.04,107.41,143.84L107.41,143.84z"/>
<path fill="#F5F5F5" d="M183.256,144.313c0,11.244-9.105,20.356-20.348,20.356c-11.244,0-20.355-9.12-20.355-20.36
	c0-11.229,9.11-20.33,20.355-20.33c11.242,0,20.348,9.1,20.348,20.33V144.313z"/>
<path fill="#333333" d="M177.215,143.84c0,7.805-6.313,14.125-14.119,14.125c-7.801,0-14.129-6.32-14.129-14.125
	c0-7.8,6.328-14.117,14.127-14.117C170.902,129.723,177.214,136.04,177.215,143.84L177.215,143.84z"/>
</svg>
