<?xml version="1.0" encoding="utf-8"?>
<!-- Generator: Adobe Illustrator 16.0.0, SVG Export Plug-In . SVG Version: 6.00 Build 0)  -->
<!DOCTYPE svg PUBLIC "-//W3C//DTD SVG 1.1//EN" "http://www.w3.org/Graphics/SVG/1.1/DTD/svg11.dtd">
<svg version="1.1" id="Layer_1" xmlns="http://www.w3.org/2000/svg" xmlns:xlink="http://www.w3.org/1999/xlink" x="0px" y="0px"
	 width="256px" height="256px" viewBox="0 0 256 256" enable-background="new 0 0 256 256" xml:space="preserve">
<path fill="#333333" d="M147.514,234.146c-7.178,0-11.178-1.353-14.888-2.961c0.013,0.621-0.206,1.23-0.623,1.703
	c-0.478,0.54-1.16,0.84-1.876,0.84c-0.055,0-0.107,0-0.163-0.01l-3.665-0.24c-1.2-0.08-2.18-1-2.32-2.189
	c-0.12-0.939-0.21-1.82-0.28-2.641c-0.08,0.82-0.17,1.701-0.29,2.631c-0.15,1.189-1.12,2.109-2.32,2.189l-3.67,0.24h-0.17
	c-0.72,0-1.4-0.311-1.88-0.85c-0.42-0.48-0.64-1.09-0.62-1.711c-3.71,1.61-7.71,2.961-14.89,2.961c-0.85,0-1.74-0.021-2.69-0.061
	c-3.44-0.14-7.04-0.68-7.66-3.609c-0.62-2.891,2.58-5.181,5.44-6.61l5.08-3.351c0.15-0.1,0.32-0.189,0.5-0.25
	c2.17-1.689,4.24-3.09,6.16-4.189l1.11-46.221l-0.8-0.299c-0.63-0.23-1.13-0.701-1.41-1.311c-0.28-0.6-0.3-1.29-0.07-1.91l0.98-2.63
	l0.78-10.67c0.03-0.399,0.15-0.78,0.34-1.101c0.12-0.539,0.26-0.92,0.4-1.26c0.09-0.24,0.2-0.52,0.33-0.96
	c1.01-3.2,1.63-6.729,1.82-10.319c-2.06,1.47-4.49,3.02-7.41,4.25c-1.99,0.83-4.02,1.369-6.07,1.6c-0.52,0.061-1.05,0.09-1.58,0.09
	c-2.14,0-4.26-0.449-6.12-1.3c-1.97-0.851-3.47-2.149-4.58-3.34c-0.52,0.09-1.03,0.13-1.52,0.13c-1.98,0-3.14-0.7-3.45-0.91
	c-0.76-0.529-1.17-1.43-1.06-2.35l0.66-5.561c-2.13-1.04-3.43-2.71-3.96-3.8l-0.6-1.06c-0.69-1.23-1.05-2.8-1.19-3.52
	c-0.32-0.71-0.54-1.41-0.69-2.1l-4.91-6.58c-1.43-1.93-1.03-4.66,0.88-6.1c0.67-0.5,1.45-0.79,2.27-0.86
	c-0.84-2.33,0.23-4.96,2.5-6.021c0.6-0.28,1.22-0.43,1.86-0.45c0.46-1.16,1.33-2.15,2.54-2.73c0.69-0.33,1.43-0.5,2.19-0.5
	c1.62,0,3.14,0.78,4.08,2.05c0.4-2.03,2.06-3.68,4.23-3.98c0.23-0.03,0.45-0.04,0.66-0.04h0.1c1.5-9.01,4.94-22.16,12.69-30.02
	c-14.6-21.27-5.29-46.51-4.88-47.61c0.1-0.26,0.24-0.5,0.41-0.71c1.5-1.81,3.07-2.18,4.12-2.18c2.47,0,8.96,0,16.99,43.88h0.07
	c1.16,0,2.21,0.22,3.16,0.66h0.88c1.03-0.45,2.13-0.67,3.36-0.67c0.1,0,0.2,0,0.3,0.01c1.32-7.17,3.26-16.67,5.581-24.95
	c3.75-13.35,7.17-19.05,11.43-19.05c1.05,0,2.619,0.37,4.119,2.17c0.181,0.21,0.32,0.45,0.41,0.71c0.42,1.11,9.811,26.62-5.07,47.96
	c7.551,7.89,10.931,20.87,12.41,29.79h0.101c0.22,0,0.44,0.01,0.66,0.04c2.18,0.3,3.85,1.95,4.25,3.99
	c0.92-1.25,2.45-2.04,4.079-2.04c0.761,0,1.49,0.16,2.181,0.49c1.2,0.57,2.08,1.57,2.54,2.72c0.641,0.021,1.26,0.17,1.85,0.44
	c2.291,1.06,3.351,3.69,2.51,6.02c0.82,0.061,1.601,0.35,2.271,0.85c1.91,1.43,2.31,4.17,0.89,6.09l-4.92,6.59
	c-0.14,0.69-0.369,1.38-0.68,2.09c-0.141,0.72-0.5,2.28-1.18,3.51l-0.61,1.09c-0.25,0.48-1.14,2.03-2.979,3.23l0.729,6.11
	c0.13,1.12-0.5,2.18-1.54,2.61c-0.27,0.109-1.71,0.649-3.99,0.649c-0.52,0-1.05-0.03-1.58-0.09c-1.09,1.159-2.58,2.46-4.59,3.319
	c-1.81,0.83-3.93,1.28-6.07,1.28c-0.529,0-1.06-0.03-1.58-0.09c-2.059-0.229-4.1-0.771-6.069-1.59c-3.44-1.46-6.19-3.34-8.44-5
	c0.17,3.89,0.811,7.76,1.83,11c0.15,0.489,0.26,0.771,0.351,1.01c0.079,0.19,0.159,0.4,0.239,0.65c0.36,0.46,0.561,1.02,0.551,1.61
	c-0.01,0.189-0.04,0.39-0.08,0.569l0.4,10.101c0,0.119,0,0.229-0.011,0.35l0.8,2.07c0.24,0.619,0.221,1.31-0.05,1.91
	c-0.21,0.469-0.55,0.859-0.979,1.119l0.189,1.521c0.27,2.22,0.58,4.729,0.79,7.38l3.421,37.9c2.02,1.129,4.199,2.6,6.51,4.39
	c0.18,0.06,0.34,0.149,0.5,0.25l5.08,3.34c2.859,1.431,6.06,3.729,5.439,6.61c-0.62,2.93-4.221,3.47-7.66,3.609
	c-0.949,0.04-1.84,0.061-2.689,0.061L147.514,234.146z"/>
<path fill="#333333" d="M121.972,216.395c0.6,0.476,1.352,1.459,1.727,3.933c0.3-2.022,0.86-3.05,1.38-3.616l-2.61-31.6
	l-0.51,31.289L121.972,216.395z"/>
<path fill="#333333" d="M95.53,131.087h0.007c0.14-0.013,0.313-0.032,0.512-0.065c-0.23-0.104-0.45-0.211-0.67-0.323l0.14,0.39
	L95.53,131.087z"/>
<path fill="#333333" d="M143.16,18.207c0.73,0,1.462,0.402,2.191,1.278c0,0,10.051,26.54-6.041,47.36
	c8.121,7.093,12.105,20.888,13.736,33.076c0.457-0.65,1.252-1.07,2.09-1.07c0.108,0,0.219,0.01,0.327,0.02
	c1.356,0.19,2.326,1.43,2.144,2.79l-1.604,11.86c0.256,0.16,0.53,0.22,0.804,0.22c0.192,0,0.383-0.03,0.565-0.08
	c0.521-1.3,1.04-2.61,1.563-3.91c0.918-2.4,1.867-4.79,2.752-7.2c0.03-0.07,0.061-0.15,0.099-0.22c0.442-0.93,1.37-1.47,2.335-1.47
	c0.38,0,0.76,0.08,1.12,0.25c1.29,0.62,1.829,2.16,1.22,3.45c-1.109,2.32-2.15,4.68-3.23,7.01c-0.64,1.47-1.299,2.93-1.949,4.4
	l0.289,0.1c0.631-1.35,1.261-2.71,1.881-4.07c1.061-2.2,2.08-4.42,3.16-6.62c0.41-0.81,1.229-1.29,2.09-1.29
	c0.33,0,0.66,0.07,0.98,0.22c1.159,0.54,1.67,1.92,1.129,3.09c-1.029,2.21-2.109,4.41-3.17,6.61l-1.77,3.57l0.27,0.1l5.32-6.45
	c0.37-0.45,0.9-0.68,1.439-0.68c0.391,0,0.781,0.12,1.111,0.37c0.819,0.62,0.989,1.77,0.379,2.6l-5.27,7.07
	c-0.07,0.63-0.27,1.41-0.721,2.34c0,0-0.279,1.85-0.959,3.06l-0.641,1.14c0,0-0.93,2.04-3.43,2.96c0.02,0.13,0.029,0.261,0.029,0.41
	l0.891,7.44c0,0-1.13,0.47-3.04,0.47c-0.739,0-1.601-0.07-2.56-0.271c-1.11,1.37-2.561,2.83-4.59,3.7
	c-1.61,0.74-3.41,1.08-5.08,1.08c-0.44,0-0.881-0.021-1.301-0.069c-1.979-0.23-3.789-0.75-5.38-1.42
	c-3.18-1.351-5.79-3.111-8.11-4.841c-1.25-0.96-2.399-1.899-3.459-2.819c-0.101,0.119-0.23,0.239-0.371,0.319
	c-0.029,1.3-0.039,2.601,0.021,3.97c0.12,4.61,0.88,8.98,1.97,12.44c0.381,1.28,0.61,1.45,0.76,2.45h0.15l0.43,10.84l-0.84,0.5
	l0.041,0.37l0.739-0.28l1.021,2.65l-1.4,0.539c0.029,0.261,0.061,0.531,0.1,0.801c0.33,2.89,0.82,6.23,1.101,9.88
	c0.329,3.64,0.68,7.521,1.03,11.399l2.5,27.871c1.74,0.879,4.33,2.42,7.68,5.06l0.33,0.11l5.199,3.43c0,0,10.281,5.09-1.06,5.561
	c-0.909,0.039-1.771,0.06-2.58,0.06c-9.34,0-12.78-2.38-18.21-4.66l0.83,4.25l-3.66-0.24c0,0-1.41-11.58,0.71-12.76l0.02-0.011
	c0.14-0.189,0.31-0.389,0.49-0.59l-2.23-27.029l-0.92-11.27c-0.2-2.931-0.54-5.701-0.83-8.19l-1.16,0.45l-1.02-2.65l0.15-0.05
	l-0.14-0.41l-0.25,0.739l0.02,0.08l-0.38,1.16l-0.04,0.41l-0.56,1.23l-0.09-0.311l-0.74,45.561c0.31,0.3,0.55,0.59,0.76,0.88
	l0.02,0.01c2.13,1.19,0.71,12.761,0.71,12.761l-3.66,0.239l0.83-4.25c-5.43,2.29-8.87,4.67-18.21,4.67c-0.81,0-1.67-0.01-2.58-0.05
	c-11.34-0.47-1.06-5.561-1.06-5.561l5.2-3.42l0.32-0.1c3.2-2.51,5.69-4.029,7.43-4.92l1.19-49.439l-2.46-0.92l0.99-2.66l1.55,0.58
	l0.01-0.271l-1.43-0.74l0.8-10.899l0.72-0.021l0.35-0.33h10.61l-2.85-0.05l-7.59-0.109l-0.17,0.159h-0.85
	c0.15-1,0.39-1.18,0.76-2.45c1.1-3.459,1.86-7.59,1.97-12.199c0.05-1.28,0.06-2.561,0.03-3.811c-0.02-0.05-0.05-0.1-0.07-0.15
	c-0.86,0.74-1.78,1.49-2.77,2.24c-2.31,1.73-4.92,3.5-8.11,4.851c-1.59,0.67-3.39,1.19-5.37,1.42c-0.42,0.05-0.85,0.069-1.3,0.069
	c-1.66,0-3.46-0.33-5.08-1.069c-2.1-0.91-3.59-2.45-4.72-3.86c-0.96,0.32-1.77,0.43-2.41,0.43c-1.35,0-2.02-0.47-2.02-0.47
	l0.88-7.44c0.08,0.121,0.19,0.211,0.3,0.301l-0.09-0.38v-0.011c-3.42-0.59-4.65-3.279-4.65-3.279l-0.64-1.13
	c-0.67-1.21-0.96-3.05-0.96-3.05c-0.45-0.93-0.64-1.71-0.72-2.34l-5.27-7.07c-0.61-0.83-0.44-1.98,0.38-2.6
	c0.33-0.25,0.72-0.37,1.11-0.37c0.54,0,1.07,0.24,1.44,0.68l5.32,6.46l0.26-0.1c-0.59-1.19-1.18-2.39-1.77-3.57
	c-1.06-2.21-2.14-4.4-3.17-6.62c-0.54-1.17-0.04-2.55,1.13-3.09c0.31-0.15,0.65-0.22,0.98-0.22c0.86,0,1.68,0.48,2.08,1.3
	c1.07,2.19,2.1,4.41,3.15,6.61c0.62,1.36,1.25,2.72,1.88,4.07L83,116l-1.95-4.39c-1.08-2.33-2.12-4.684-3.236-7.01
	c-0.61-1.283-0.07-2.83,1.22-3.444c0.36-0.17,0.74-0.25,1.11-0.25c0.97,0,1.9,0.54,2.34,1.47c0.034,0.07,0.07,0.15,0.09,0.224
	c0.887,2.41,1.837,4.802,2.75,7.21c0.53,1.3,1.047,2.61,1.568,3.912c0.19,0.05,0.38,0.08,0.57,0.08c0.28,0,0.55-0.07,0.8-0.22
	l-1.6-11.86c-0.18-1.35,0.79-2.59,2.15-2.772c0.1-0.02,0.21-0.02,0.316-0.02c0.81,0,1.58,0.396,2.043,1.01
	c1.66-12.313,5.72-26.21,14.02-33.21c-15.83-20.8-5.86-47.07-5.86-47.07c0.73-0.88,1.47-1.282,2.2-1.282
	c6.43,0,12.62,31.08,14.93,44.03c0.7-0.04,1.41-0.14,2.14-0.14c0.82,0,1.67,0.13,2.54,0.66h2.08c0.96-0.52,1.88-0.67,2.78-0.67
	c0.81,0,1.6,0.12,2.36,0.17c2.31-12.939,8.51-44.17,14.94-44.17"/>
<path fill="#333333" d="M139.182,129.798c0.389-1.159,0.709-2.86,0.979-3.86h-5.841c1.41,1,3.061,2.576,4.871,3.864"/>
<path fill="#333333" d="M105.331,129.732c1.78-1.271,3.4-2.8,4.78-3.8h-5.93c0.34,1,0.72,2.65,1.15,3.791"/>
<path fill="#333333" d="M93.961,126.872c-0.04,0-0.07-0.003-0.11-0.004c-0.64,0.64-1.37,1.14-2.1,1.51c0.02,0.1,0.05,0.2,0.07,0.3
	l0.25-0.14l1.42,3.896l-0.1,0.1c0.29,0.359,0.55,0.68,0.85,0.79c0.32,0.149,0.71,0.31,1.34,0.31c0.09,0,0.18,0,0.27-0.01
	c0.79-0.066,1.77-0.25,2.81-0.65c1.51-0.55,3.07-1.396,4.57-2.34c-2.59-0.475-6.42-1.529-9.18-3.84l-0.06,0.07h-0.01"/>
<path fill="#333333" d="M148.871,133.627c0.59,0,0.96-0.134,1.27-0.27c-0.32-0.291-0.64-0.59-0.97-0.92l1.42-3.9
	c0,0,0.72-0.15,1.81-0.33c-0.629-0.35-1.239-0.79-1.789-1.34c-0.041,0-0.07,0.01-0.11,0.01h-0.01l-0.05-0.06
	c-2.57,2.27-6.09,3.5-8.68,4.14c1.34,0.811,2.719,1.54,4.049,2.03c1.041,0.39,2.01,0.579,2.801,0.649
	c0.1,0.002,0.189,0.01,0.27,0.01"/>
<polyline fill="#333333" points="115.961,137.117 115.921,137.107 115.961,137.117 "/>
<path fill="#333333" d="M133.4,152.887c0.031,0.021,0.061,0.03,0.07,0.04h-0.07V152.887"/>
<path fill="#333333" d="M133.521,152.927c0,0,0,0.011-0.01,0.011c-0.011,0-0.021-0.006-0.031-0.011H133.521"/>
<path fill="#333333" d="M143.32,13.25c-5.739,0-9.609,5.85-13.829,20.88c-2.14,7.65-3.96,16.31-5.27,23.25
	c-0.69,0.11-1.35,0.28-1.98,0.52c-0.51-0.19-1.04-0.34-1.58-0.45c-1.31-6.93-3.13-15.6-5.29-23.27c-4.21-14.97-8.08-20.8-13.82-20.8
	c-1.58,0-3.91,0.53-6.04,3.08c-0.35,0.43-0.63,0.91-0.83,1.43c-0.43,1.12-9.7,26.27,4.05,48.24c-6.57,7.55-9.95,18.53-11.7,28.1
	c-1.45,0.43-2.7,1.28-3.63,2.39c-1-0.47-2.1-0.73-3.23-0.73c-1.14,0-2.23,0.25-3.26,0.73c-1.31,0.62-2.35,1.57-3.09,2.7
	c-0.44,0.11-0.86,0.266-1.28,0.46c-2.63,1.22-4.19,3.81-4.25,6.53c-0.34,0.17-0.67,0.37-0.98,0.61c-3.02,2.26-3.65,6.56-1.41,9.58
	l4.61,6.18c0.15,0.58,0.35,1.17,0.6,1.75c0.2,0.98,0.62,2.6,1.4,3.99l0.57,1.005c0.65,1.31,1.82,2.79,3.5,3.96l-0.49,3.94
	c-0.22,1.84,0.59,3.649,2.11,4.7c0.59,0.41,2.24,1.355,4.87,1.355c0.2,0,0.39,0,0.59-0.02c1.17,1.1,2.65,2.21,4.52,3.02
	c2.18,0.98,4.63,1.51,7.11,1.51c0.62,0,1.25-0.029,1.85-0.1c2.29-0.26,4.56-0.85,6.75-1.77c1.2-0.511,2.33-1.07,3.38-1.65
	c-0.29,1.6-0.66,3.14-1.12,4.59l-0.03,0.11c-0.1,0.329-0.17,0.52-0.27,0.76c-0.13,0.33-0.28,0.729-0.42,1.271
	c-0.27,0.549-0.44,1.17-0.49,1.81l-0.76,10.319l-0.86,2.301c-0.46,1.25-0.41,2.619,0.14,3.83c0.42,0.91,1.09,1.67,1.93,2.18
	l-1.04,43.16c-1.58,0.98-3.25,2.14-4.97,3.46c-0.21,0.101-0.4,0.21-0.59,0.33l-4.96,3.26c-5.08,2.59-7.38,5.8-6.64,9.3
	c1.11,5.221,7.57,5.49,10,5.59c0.96,0.041,1.9,0.061,2.79,0.061c6.15,0,10.19-0.971,13.54-2.21c0.03,0.04,0.06,0.069,0.1,0.11
	c0.95,1.08,2.32,1.699,3.75,1.699c0.11,0,0.22,0,0.33-0.01l3.67-0.24c0.89-0.06,1.73-0.35,2.43-0.82
	c0.71,0.471,1.54,0.761,2.44,0.82l3.659,0.24c0.111,0.01,0.221,0.01,0.33,0.01c1.431,0,2.801-0.609,3.75-1.689
	c0.041-0.03,0.07-0.07,0.101-0.11c3.351,1.25,7.39,2.22,13.54,2.22c0.891,0,1.83-0.02,2.79-0.06c2.43-0.101,8.89-0.37,10-5.59
	c0.739-3.5-1.55-6.71-6.64-9.3l-4.961-3.261c-0.189-0.13-0.39-0.239-0.6-0.34c-1.88-1.45-3.689-2.7-5.41-3.729l-2.279-25.25
	l-1.021-11.36c-0.21-2.69-0.521-5.22-0.8-7.46l-0.03-0.27c0.25-0.32,0.47-0.67,0.63-1.051c0.54-1.21,0.57-2.59,0.1-3.83
	l-0.629-1.609v-0.01l-0.391-9.791c0.04-0.229,0.061-0.47,0.07-0.709c0.029-1.03-0.26-2.03-0.811-2.881l-0.14-0.35
	c-0.09-0.24-0.16-0.43-0.26-0.76l-0.03-0.101c-0.51-1.59-0.91-3.36-1.21-5.2c1.351,0.801,2.83,1.57,4.45,2.26
	c2.21,0.931,4.48,1.521,6.77,1.781c0.61,0.069,1.24,0.109,1.86,0.109c2.479,0,4.94-0.52,7.11-1.5c1.879-0.82,3.359-1.93,4.51-3.02
	c0.21,0.01,0.41,0.01,0.619,0.01c2.681,0,4.461-0.641,4.941-0.84c2.079-0.851,3.329-2.98,3.059-5.221l-0.559-4.689
	c1.43-1.24,2.209-2.551,2.529-3.17l0.58-1.04c0.79-1.41,1.21-3.02,1.41-4.01c0.25-0.58,0.449-1.16,0.6-1.75l4.6-6.17
	c2.25-3.04,1.621-7.33-1.39-9.59c-0.31-0.23-0.64-0.44-0.979-0.61c-0.051-2.71-1.61-5.3-4.23-6.52c-0.43-0.19-0.859-0.35-1.3-0.46
	c-0.74-1.13-1.78-2.08-3.08-2.7c-1.04-0.49-2.13-0.74-3.271-0.74c-1.129,0-2.229,0.26-3.219,0.72c-0.941-1.13-2.221-1.99-3.711-2.42
	c-1.72-9.43-5.029-20.26-11.41-27.81c14.041-22.04,4.68-47.48,4.25-48.61c-0.199-0.52-0.479-1-0.83-1.43
	c-2.119-2.54-4.449-3.07-6.029-3.07L143.32,13.25z"/>
<path fill="#333333" d="M109.941,155.41c-1.38,0-2.5-1.12-2.5-2.5s1.12-2.5,2.5-2.5h0.26c1.38,0,2.5,1.12,2.5,2.5s-1.12,2.5-2.5,2.5
	H109.941z"/>
<polyline fill="#333333" points="110.201,152.91 109.941,152.91 110.201,152.91 "/>
<path fill="#333333" d="M110.201,148.41h-0.26c-2.76,0-5,2.24-5,5s2.24,5,5,5h0.25c2.76,0,5-2.24,5-5s-2.24-5-5-5H110.201z"/>
<path fill="#ED1E79" d="M150.415,128.49c0,0,13.019-2.782,12.94,1.951c-0.067,4.129-6.869,3.61-6.869,3.61s-4.771-1.308-4.832-1.483
	c-0.057-0.18-1.297-3.85-1.297-3.85"/>
<path fill="#ED1E79" d="M145.96,222.609l5.2,3.425c0,0,10.279,5.087-1.063,5.557c-11.345,0.479-14.891-2.12-20.798-4.6l0.827,4.26
	l-3.665-0.24c0,0-1.417-11.579,0.71-12.76c2.128-1.181,18.788,4.37,18.788,4.37V222.609z M101.438,222.609l-5.2,3.425
	c0,0-10.28,5.087,1.063,5.557c11.35,0.479,14.9-2.12,20.8-4.6l-0.83,4.26l3.67-0.24c0,0,1.42-11.579-0.71-12.76
	s-18.79,4.37-18.79,4.37L101.438,222.609z"/>
<path d="M97.773,83.246l1.773,42.135h44.67l1.237-28.66l-6.38-23.92L97.773,83.246z"/>
<path fill="#FFDDBB" d="M112.32,129.973c0,0-3-11.592,7.432-7.592h4.87c8.625-4,6.144,7.66,6.144,7.66"/>
<path fill="#FFDDBB" d="M121.052,126.085c0,0-0.513,0.564-1.408,1.56c-0.895,0.957-2.18,2.296-3.804,3.837
	c-1.628,1.541-3.59,3.291-5.883,5.035c-2.317,1.729-4.922,3.5-8.11,4.85c-1.592,0.666-3.393,1.193-5.377,1.418
	c-1.99,0.223-4.334-0.068-6.38-1.004c-2.125-0.91-3.615-2.471-4.75-3.891c-1.06-1.459-1.724-2.85-2.264-4.13
	c-0.426-1.239-0.857-2.409-1.048-3.39c-0.24-0.99-0.452-1.86-0.536-2.54l-0.34-2.18c-0.424-2.71,1.437-5.26,4.153-5.68
	c2.718-0.42,5.265,1.44,5.688,4.16c0.01,0.06,0.015,0.11,0.023,0.17l0.04,0.34l0.196,1.69c0.042,0.56,0.177,1.16,0.313,1.86
	c0.103,0.73,0.357,1.4,0.566,2.19c0.28,0.689,0.58,1.391,0.93,1.939c0.38,0.461,0.68,0.881,1.04,1.021c0.36,0.17,0.82,0.36,1.62,0.3
	c0.79-0.06,1.76-0.25,2.8-0.649c2.09-0.771,4.3-2.091,6.3-3.47c2-1.4,3.82-2.891,5.33-4.221c1.52-1.33,2.74-2.5,3.58-3.33
	c0.8-0.82,1.26-1.28,1.26-1.28l0.13-0.13c1.58-1.61,4.17-1.64,5.78-0.06c1.58,1.54,1.64,4.05,0.18,5.67L121.052,126.085z
	 M132.152,158.68l1.16,9.612c0.33,2.89,0.814,6.229,1.097,9.88c0.319,3.637,0.68,7.516,1.021,11.393l2.799,31.037l-10.259,0.711
	l-2.53-30.701l-0.93-11.27c-0.25-3.595-0.71-6.97-1.02-9.853c-0.65-5.78-1.09-9.63-1.09-9.63l9.74-1.19L132.152,158.68z
	 M120.4,159.486l-1,61.277l-10.285-0.207l1.476-61.263L120.4,159.486z M129.177,120.618c0,0,0.46,0.468,1.261,1.288
	c0.832,0.83,2.056,2.002,3.572,3.332c1.518,1.33,3.332,2.82,5.33,4.22c1.996,1.38,4.207,2.704,6.297,3.474
	c1.039,0.399,2.012,0.59,2.801,0.649c0.797,0.06,1.254-0.13,1.612-0.3c0.364-0.131,0.66-0.551,1.036-1.01
	c0.346-0.541,0.652-1.24,0.926-1.94c0.209-0.79,0.469-1.45,0.569-2.18c0.14-0.7,0.271-1.29,0.319-1.85l0.201-1.68l0.039-0.31
	c0.32-2.73,2.801-4.68,5.53-4.36c2.729,0.32,4.69,2.8,4.37,5.53l-0.02,0.19l-0.34,2.19c-0.08,0.69-0.291,1.55-0.531,2.55
	c-0.189,0.979-0.619,2.149-1.049,3.39c-0.541,1.28-1.201,2.67-2.261,4.131c-1.13,1.42-2.62,2.979-4.75,3.899
	c-2.04,0.94-4.39,1.229-6.38,1.01c-1.98-0.229-3.779-0.75-5.38-1.42c-3.181-1.351-5.79-3.12-8.101-4.851
	c-2.299-1.739-4.26-3.489-5.879-5.029c-1.63-1.54-2.91-2.88-3.8-3.84c-0.89-1-1.41-1.56-1.41-1.56c-1.52-1.67-1.38-4.26,0.29-5.77
	c1.63-1.47,4.13-1.39,5.65,0.17l0.14,0.14L129.177,120.618z"/>
<path fill="#F4D1B0" d="M123.62,121.225c0,2.35-0.5,3.312-2.5,3.312c-2.003,0-2.5-0.962-2.5-3.312v-8.507
	c0-2.35,0.497-4.255,2.5-4.255c2,0,2.5,1.905,2.5,4.255V121.225z"/>
<path fill="#D3BD8D" d="M139.055,92.855c0,4.125,0.6,7.47,3.494,7.47s6.98-0.772,6.98-7.47c0-4.13-2.35-7.473-5.24-7.473
	c-2.9,0-5.25,3.344-5.25,7.473H139.055z"/>
<path fill="#C69C6D" d="M139.924,92.828c0.014-1.16,0.25-2.476,0.82-3.595c0.283-0.568,0.646-1.125,1.16-1.604
	c0.514-0.47,1.24-0.87,2.086-0.89c0.322,0.03,0.255,0,0.56,0.06c0.24,0.05,0.448,0.12,0.608,0.2c0.359,0.15,0.65,0.38,0.916,0.61
	c0.518,0.48,0.66,1.03,0.947,1.6c0.569,1.14,0.6,2.38,0.6,3.62v0.14c0,0.81-0.42,1.47-1.23,1.48c-0.81,0.01-1.359-0.64-1.369-1.45
	c0-0.06,0.06-0.12,0.069-0.18c0.091-0.82,0.05-1.71-0.22-2.46c-0.24-0.79-0.73-1.27-0.87-1.33c-0.08-0.05-0.31-0.04-0.61,0.16
	c-0.279,0.19,0.42,0.52,0.18,0.9c-0.489,0.79,0.08,1.67,0.08,2.74v0.04c0,0.47-1.459,0.82-1.939,0.77
	c-0.449-0.05-1.76-0.43-1.76-0.87L139.924,92.828z"/>
<path fill="#D3BD8D" d="M104.394,92.855c0,4.125-0.602,7.47-3.498,7.47c-2.893,0-6.985-0.772-6.985-7.47
	c0-4.13,2.35-7.473,5.24-7.473c2.9,0,5.25,3.344,5.25,7.473H104.394z"/>
<path fill="#C69C6D" d="M103.524,92.828c-0.014-1.16-0.252-2.476-0.818-3.595c-0.287-0.568-0.65-1.125-1.165-1.604
	c-0.51-0.47-1.23-0.87-2.08-0.89c-0.32,0.03-0.25,0-0.55,0.06c-0.24,0.05-0.45,0.12-0.61,0.2c-0.36,0.15-0.65,0.38-0.92,0.61
	c-0.51,0.48-0.76,1.03-1.05,1.6c-0.56,1.14-0.7,2.38-0.7,3.62v0.14c0,0.81,0.53,1.47,1.33,1.48c0.82,0.01,1.42-0.64,1.44-1.45
	c0-0.06-0.03-0.12-0.04-0.18c-0.09-0.82-0.04-1.71,0.23-2.46c0.25-0.79,0.75-1.27,0.89-1.33c0.09-0.05,0.33-0.04,0.62,0.16
	c0.29,0.19,0.58,0.52,0.82,0.9c0.5,0.79,0.79,1.67,0.91,2.74v0.04c0.05,0.47,0.47,0.82,0.95,0.77c0.45-0.05,0.78-0.43,0.78-0.87
	L103.524,92.828z"/>
<path fill="#FFDDBB" d="M142.342,100.232c0,14.688-14.106,15.956-20.402,15.956c-7.163,0-20.4-1.268-20.4-15.956
	c0-14.685-1.522-33.536,20.4-33.536C144.082,66.696,142.342,85.546,142.342,100.232z"/>
<path fill="#333333" d="M119.695,106.61c-0.6,0-1.158-0.386-1.352-0.987c-0.238-0.747,0.174-1.544,0.923-1.782
	c1.505-0.47,1.908-1.14,1.91-1.42l-0.005-10.97c0-0.78,0.44-1.42,1.23-1.42s1.23,0.64,1.23,1.42v10.85c0,0,0.54,2.91-3.69,4.25
	c-0.14,0.05-0.09,0.07-0.23,0.07L119.695,106.61z"/>
<circle fill="#D4145A" cx="121.001" cy="110.979" r="3.329"/>
<path fill="#F5F5F5" d="M118.165,92.833c0,3.353-2.718,6.074-6.073,6.074c-3.356,0-6.076-2.72-6.076-6.074
	c0-3.357,2.72-6.072,6.076-6.072c3.355,0,6.073,2.72,6.073,6.08V92.833z"/>
<path fill="#333333" d="M116.363,92.688c0,2.33-1.883,4.217-4.215,4.217c-2.33,0-4.217-1.89-4.217-4.217s1.89-4.216,4.22-4.216
	s4.22,1.888,4.22,4.216H116.363z"/>
<path fill="#F5F5F5" d="M139.005,92.833c0,3.353-2.722,6.074-6.075,6.074c-3.355,0-6.076-2.72-6.076-6.074
	c0-3.357,2.72-6.072,6.076-6.072c3.354,0,6.075,2.72,6.075,6.08V92.833z"/>
<circle fill="#333333" cx="132.982" cy="92.688" r="4.218"/>
<path fill="#1A1A1A" d="M101.898,86.09c0,0-1.734,33.295,4.053,44.873c0,0-12.44-0.642-15.05-8.458
	c-2.6-7.81-0.57-65.124,30.1-60.124h2.08c30.67-5,32.7,52.32,30.101,60.13c-2.601,7.82-15.051,9.04-15.051,9.04
	c5.79-11.58,1.98-47.55,1.98-47.55l-12.45-15.97l-12.15,0.5l-13.61,17.56L101.898,86.09z"/>
<path fill="#333333" d="M121.18,111.5c-4.124,0-7.357-2.138-7.357-4.862c0-0.586,0.477-1.065,1.065-1.065
	c0.586,0,1.063,0.479,1.063,1.065c0,1.293,2.15,2.734,5.23,2.734c3.09,0,5.23-1.44,5.23-2.734c0-0.586,0.48-1.065,1.07-1.065
	s1.06,0.479,1.06,1.065c0,2.724-3.23,4.862-7.35,4.862H121.18z"/>
<path fill="#1A1A1A" d="M121.29,70.83c0,0-12.408,19.556-26.117,18.61l14.54-20.135l12.226-2.79L121.29,70.83L121.29,70.83z"/>
<path fill="#1A1A1A" d="M121.62,70.536c0,0,11.706,21.15,25.414,20.207l-13.009-21.438l-12.406-2.61L121.62,70.536L121.62,70.536z"
	/>
<path fill="#FFDDBB" d="M168.865,118.605c0,0,0.855,1.46-0.504,4.285c0,0-0.28,1.843-0.95,3.054l-0.64,1.137
	c0,0-2.561,5.64-10.641,2.399c0,0-7.67-0.869-7.6-7.489l4.99-8.76l15.35,5.39L168.865,118.605z M152.939,124.22
	c0,0-0.357,2.657-2.627,2.606c0,0-4.205-4.616-1.939-7.523"/>
<path fill="#FFDDBB" d="M160.107,118.603c1.006-2.372,2.072-4.708,3.11-7.056c1.08-2.333,2.12-4.686,3.234-7.008
	c0.612-1.29,0.067-2.84-1.22-3.45c-1.285-0.61-2.834-0.07-3.446,1.21c-0.04,0.07-0.068,0.15-0.099,0.22
	c-0.885,2.41-1.834,4.8-2.752,7.2c-0.961,2.38-1.89,4.78-2.884,7.15c-0.47,1.12,0.06,2.41,1.181,2.88
	c1.119,0.47,2.406-0.05,2.875-1.17V118.603z M155.45,117.593l2.157-15.94c0.184-1.354-0.787-2.597-2.144-2.784
	c-1.353-0.18-2.71,0.75-2.81,2.12l-0.004,0.08l-1.596,16c-0.123,1.2,0.77,2.29,1.981,2.41c1.185,0.12,2.257-0.73,2.415-1.89
	L155.45,117.593z M158.67,113.006c0,0-2.636,2.084-3.55-0.79l0.476,4.7L158.67,113.006L158.67,113.006z M164.343,120.538
	c1.12-2.177,2.185-4.382,3.271-6.563c1.056-2.207,2.14-4.402,3.17-6.614c0.54-1.16,0.033-2.54-1.131-3.08
	c-1.151-0.53-2.51-0.05-3.069,1.08c-1.073,2.2-2.101,4.42-3.149,6.62c-1.022,2.23-2.07,4.44-3.058,6.67
	c-0.493,1.12,0.008,2.41,1.12,2.91c1.07,0.48,2.318,0.03,2.847-1V120.538z M165.893,124.824l8.465-11.346
	c0.613-0.827,0.443-1.986-0.375-2.6c-0.797-0.595-1.92-0.454-2.551,0.307l-9.002,10.923c-0.77,0.935-0.64,2.323,0.303,3.095
	c0.939,0.775,2.319,0.644,3.1-0.295C165.852,124.882,165.872,124.848,165.893,124.824L165.893,124.824z"/>
<path fill="#E2AB74" d="M153.05,119.906"/>
<path fill="#FFDDBB" d="M152.848,120.878c-0.41-1.034-0.828-1.873-1.314-2.765c-0.485-0.876-1.025-1.73-1.629-2.555
	c-1.209-1.64-2.695-3.225-4.702-4.367c-1.117-0.63-2.78,0.21-3.415,1.32c-0.633,1.12-0.5,2.99,0.615,3.62
	c0.015,0.01,0.041,0.03,0.055,0.03c1.186,0.66,2.59,1.29,3.564,2.57c0.486,0.64,1.068,1.11,1.483,1.82
	c0.404,0.7,0.875,1.4,1.147,2.05l0.063,0.02c0.474,1.13,1.788,1.63,2.913,1.16c1.109-0.47,1.66-1.76,1.21-2.88L152.848,120.878z"/>
<path fill="#D4145A" d="M143.7,115.596c0,0,0.308-0.96,0.981-1.086c0,0-0.687-1.185-1.533-1.028
	c-0.849,0.154-0.918,0.934-0.918,0.934S142.689,115.16,143.7,115.596z"/>
<path fill="#333333" d="M127.787,81.724c-0.078,0.013,0.943-0.233,2.16-0.274c0.623,0.017,1.342-0.022,2.094,0.086
	c0.76,0.053,1.55,0.182,2.32,0.365c0.779,0.13,1.529,0.38,2.229,0.61c0.71,0.2,1.341,0.43,1.87,0.68l1.77,0.76l-1.879-0.33
	c-0.551-0.11-1.211-0.19-1.92-0.22c-0.701-0.05-1.44-0.12-2.19-0.07c-0.74,0-1.47,0.06-2.14,0.17c-0.681,0.06-1.281,0.25-1.791,0.35
	c-1.039,0.31-1.47,0.55-1.539,0.58c-0.74,0.27-1.55-0.12-1.811-0.85c-0.26-0.74,0.12-1.55,0.86-1.81L127.787,81.724z
	 M115.892,84.207c-0.052-0.01-0.696-0.257-1.91-0.517c-1.196-0.23-2.843-0.477-4.516-0.47c-0.838-0.02-1.68-0.012-2.466,0.08
	c-0.79,0.07-1.54,0.105-2.16,0.25l-2.11,0.393l1.996-0.82c0.595-0.276,1.326-0.468,2.11-0.706c0.782-0.262,1.636-0.45,2.502-0.607
	c1.733-0.37,3.518-0.477,4.878-0.5c1.34-0.003,2.364,0.145,2.312,0.134c0.765,0.177,1.238,0.94,1.063,1.7
	c-0.17,0.763-0.93,1.238-1.69,1.063H115.892z"/>
<path fill="#DDB99B" d="M121.347,126.586l-0.93,4.123l2.305,0.13L121.347,126.586z"/>
<path fill="#FFDDBB" d="M75.274,118.605c0,0-0.855,1.46,0.504,4.285c0,0,0.286,1.843,0.96,3.054l0.638,1.137
	c0,0,2.56,5.64,10.64,2.399c0,0,7.67-0.869,7.597-7.489l-4.986-8.76l-15.353,5.39V118.605z M91.202,124.22
	c0,0,0.357,2.657,2.625,2.606c0,0,4.207-4.616,1.938-7.523"/>
<path fill="#FFDDBB" d="M84.033,118.603c-1.005-2.372-2.073-4.708-3.11-7.056c-1.08-2.333-2.122-4.686-3.236-7.008
	c-0.612-1.29-0.067-2.84,1.22-3.45c1.286-0.61,2.835-0.07,3.447,1.21c0.038,0.07,0.07,0.15,0.096,0.22
	c0.886,2.41,1.836,4.8,2.752,7.2c0.96,2.38,1.89,4.78,2.884,7.15c0.47,1.12-0.058,2.41-1.177,2.88c-1.12,0.47-2.41-0.05-2.88-1.17
	L84.033,118.603z M88.69,117.593l-2.157-15.94c-0.183-1.354,0.788-2.597,2.143-2.784c1.353-0.18,2.71,0.75,2.808,2.12
	c0,0.02,0.003,0.05,0.005,0.08l1.59,16c0.12,1.2-0.78,2.29-1.99,2.41c-1.18,0.12-2.26-0.73-2.41-1.89L88.69,117.593z
	 M85.472,113.006c0,0,2.634,2.084,3.548-0.79l-0.473,4.7L85.472,113.006z M79.798,120.538c-1.12-2.177-2.184-4.382-3.27-6.563
	c-1.054-2.207-2.14-4.402-3.17-6.614c-0.54-1.16-0.032-2.54,1.13-3.08c1.152-0.53,2.51-0.05,3.067,1.08
	c1.075,2.2,2.103,4.42,3.153,6.62c1.02,2.23,2.068,4.44,3.057,6.67c0.494,1.12-0.008,2.41-1.12,2.91c-1.07,0.48-2.318,0.03-2.847-1
	V120.538z M78.25,124.824l-8.467-11.346c-0.612-0.827-0.443-1.986,0.376-2.6c0.79-0.595,1.91-0.454,2.55,0.307l9,10.923
	c0.77,0.935,0.64,2.323-0.31,3.095c-0.94,0.775-2.32,0.644-3.1-0.295c-0.02-0.026-0.04-0.06-0.06-0.084H78.25z"/>
<path fill="#E2AB74" d="M91.092,119.906"/>
<path fill="#FFDDBB" d="M91.295,120.878c0.41-1.034,0.827-1.873,1.313-2.765c0.485-0.876,1.026-1.73,1.63-2.555
	c1.21-1.64,2.694-3.225,4.703-4.367c1.12-0.63,2.78,0.21,3.42,1.32c0.63,1.12,0.5,2.99-0.61,3.62c-0.01,0.01-0.04,0.03-0.05,0.03
	c-1.18,0.66-2.59,1.29-3.56,2.57c-0.48,0.64-1.06,1.11-1.48,1.82c-0.4,0.7-0.87,1.4-1.14,2.05l-0.06,0.02
	c-0.47,1.13-1.78,1.63-2.91,1.16c-1.11-0.47-1.66-1.76-1.21-2.88L91.295,120.878z"/>
<path fill="#D4145A" d="M100.442,115.596c0,0-0.31-0.96-0.983-1.086c0,0,0.68-1.185,1.53-1.028c0.85,0.154,0.92,0.934,0.92,0.934
	s-0.46,0.744-1.47,1.18H100.442z"/>
<path fill="#333333" d="M132.33,150.186c-1.094-3.455-1.855-7.701-1.971-12.311c-0.066-1.645-0.049-3.09,0.009-4.68
	c-0.5,2.24-2.412,4.01-4.706,4.01c-1.85,0-3.44-1.055-4.254-2.65c-0.815,1.598-2.403,2.721-4.253,2.721
	c-1.917,0-3.558-1.166-4.345-2.858c0.024,1.257,0.02,2.534-0.03,3.817c-0.116,4.607-0.878,8.492-1.972,11.947
	c-1.01,3.459-1.01,2.199-1.01,2.199h23.546c0,0,0,1.26-1.013-2.189L132.33,150.186z M121.51,152.38l-11.683,0.82l-0.8,10.909
	l11.82,6.211l0.662-1.86l0.66,1.994l11.49-6.733l-0.44-11.34L121.51,152.38z"/>
<path fill="#FF7BAC" d="M108.91,163.896l12.368,4.608l-0.99,2.66l-12.37-4.601L108.91,163.896z M133.605,163.633l1.018,2.653
	l-12.097,4.645l-1.018-2.651L133.605,163.633z"/>
<polygon fill="#333333" points="124.798,125.96 121.048,122.24 124.765,118.57 "/>
<polygon fill="#333333" points="117.618,125.926 121.338,122.242 117.584,118.542 "/>
<path fill="#333333" d="M123.62,122.926c0,0.756-0.936,1.37-2.5,1.37c-1.565,0-2.5-0.614-2.5-1.37v-1.275
	c0-0.75,0.935-1.37,2.5-1.37c1.564,0,2.5,0.62,2.5,1.37v1.28V122.926z"/>
<path fill="#FFDDBB" d="M112.073,216.348c0,0-4.253,1.061-12.054,7.561c0,0-4.26,4.02,6.38,2.602c0,0,20.2-2.244,12.99-9.216
	 M135.318,216.348c0,0,4.25,1.061,12.051,7.561c0,0,4.25,4.02-6.381,2.602c0,0-20.209-2.244-13-9.216"/>
<path fill="#FF7BAC" d="M99.192,19.485c0,0-11.698,30.842,10.28,52.112l7.8-3.9C117.272,67.697,108.055,8.852,99.192,19.485z"/>
<path fill="#ED1E79" d="M101.674,32.07c0,0-4.786,20.74,10.457,36.69l2.31-1.24c0,0-9.04-47.503-12.76-35.45H101.674z"/>
<path fill="#FF7BAC" d="M145.354,19.485c0,0,11.697,30.842-10.278,52.112l-7.8-3.9C127.275,67.697,136.49,8.852,145.354,19.485z"/>
<path fill="#ED1E79" d="M142.872,32.07c0,0,4.785,20.74-10.457,36.69l-2.306-1.24C130.109,67.52,139.15,20.017,142.872,32.07z"/>
<path fill="#FF7BAC" d="M81.82,130.441l-0.885,7.442c0,0,4.077,2.837,12.407-5.493l-1.42-3.9c0.002,0-8.15,4.787-10.1,1.951H81.82z
	 M163.355,130.441l0.887,7.442c0,0-6.914,2.837-15.244-5.493l1.417-3.9C150.415,128.49,161.404,133.277,163.355,130.441z"/>
<path fill="#ED1E79" d="M99.905,82.943c-0.153,0-0.308-0.024-0.46-0.077c-0.74-0.254-1.137-1.057-0.884-1.802
	c0.06-0.146,5.24-14.734,22.53-15.78c0.85-0.07,1.46,0.546,1.5,1.328c0.05,0.78-0.55,1.454-1.33,1.5
	c-15.35,0.934-19.83,13.348-20.01,13.875c-0.2,0.584-0.75,0.956-1.34,0.956H99.905z M143.855,82.943
	c-0.588,0-1.141-0.372-1.34-0.957c-0.185-0.527-4.66-12.94-20.014-13.875c-0.78-0.04-1.376-0.72-1.33-1.5
	c0.044-0.78,0.638-1.4,1.502-1.32c17.292,1.05,22.473,15.64,22.521,15.78c0.253,0.75-0.144,1.55-0.881,1.81
	c-0.152,0.06-0.307,0.08-0.461,0.08L143.855,82.943z"/>
<path fill="#DDB99B" d="M113.683,131.285c-1.686-0.576-0.49-5.098-0.49-5.098s-2.834,7.18-0.353,7.887 M130.3,131.594
	c0.62-1.24,0.043-4.875,0.043-4.875s2.261,6.641-0.222,7.35"/>
<path fill="#333333" d="M125.662,127.13c-1.85,0-3.44,1.103-4.254,2.7c-0.815-1.597-2.403-2.7-4.253-2.7
	c-2.678,0-4.845,2.28-4.845,5.084c0,2.806,2.167,5.082,4.845,5.082c1.85,0,3.438-1.101,4.253-2.698
	c0.815,1.599,2.405,2.698,4.254,2.698c2.675,0,4.843-2.276,4.843-5.082C130.505,129.41,128.337,127.131,125.662,127.13
	L125.662,127.13z"/>
<path fill="#FFDDBB" d="M116.208,135.773c-0.172,0-0.368-0.088-0.512-0.229c-0.11-0.14-0.197-0.31-0.197-0.507
	c0-0.174,0.08-0.37,0.19-0.482c0.25-0.285,0.77-0.285,1.02,0c0.11,0.112,0.2,0.311,0.2,0.482c0,0.195-0.09,0.367-0.2,0.507
	c-0.14,0.144-0.34,0.229-0.51,0.229H116.208z M116.632,151.624c-0.397-0.054-0.65-0.426-0.596-0.793
	c0.06-0.39,0.427-0.649,0.794-0.59c0.397,0.06,0.655,0.43,0.595,0.8c-0.055,0.37-0.34,0.63-0.682,0.63c-0.053,0-0.08-0.03-0.11-0.03
	L116.632,151.624z M117.285,146.35c-0.397,0-0.68-0.41-0.653-0.781c0.03-0.399,0.37-0.689,0.767-0.659c0.36,0,0.68,0.35,0.65,0.739
	c-0.03,0.391-0.34,0.69-0.71,0.69h-0.06L117.285,146.35z M116.69,140.459c-0.028-0.4,0.254-0.83,0.65-0.83
	c0.4-0.061,0.74,0.391,0.767,0.79c0.028,0.37-0.285,0.87-0.682,0.87h-0.027c-0.368,0-0.68-0.471-0.708-0.84V140.459z
	 M115.752,156.919c-0.167,0-0.367-0.06-0.48-0.2c-0.142-0.15-0.228-0.31-0.228-0.51c0-0.17,0.086-0.34,0.227-0.48
	c0.26-0.289,0.74-0.289,1,0c0.14,0.141,0.2,0.311,0.2,0.48c0,0.2-0.06,0.359-0.2,0.51c-0.14,0.141-0.31,0.19-0.51,0.19
	L115.752,156.919z M127.38,135.759c-0.198,0-0.37-0.09-0.51-0.229c-0.114-0.11-0.2-0.311-0.2-0.51c0-0.181,0.086-0.371,0.2-0.48
	c0.254-0.26,0.736-0.29,1.022,0c0.112,0.141,0.197,0.311,0.197,0.48c0,0.189-0.09,0.369-0.23,0.51
	C127.739,135.669,127.549,135.759,127.38,135.759L127.38,135.759z M125.62,151c-0.054-0.396,0.227-0.82,0.6-0.876
	c0.396-0.06,0.764,0.313,0.818,0.68c0.06,0.397-0.223,0.908-0.594,0.908h-0.113c-0.34,0-0.65-0.37-0.71-0.71L125.62,151z
	 M125.084,145.598c-0.027-0.396,0.283-0.787,0.65-0.787c0.4-0.02,0.74,0.36,0.767,0.73c0.03,0.4-0.28,0.811-0.68,0.811h-0.02
	c-0.39,0-0.68-0.381-0.71-0.75L125.084,145.598z M125.819,141.297c-0.4,0-0.69-0.636-0.63-1.003c0.02-0.396,0.37-0.802,0.76-0.74
	c0.4,0.025,0.68,0.548,0.62,0.94c-0.03,0.37-0.34,0.803-0.71,0.803h-0.06H125.819z M127.259,156.76c-0.17,0-0.37-0.085-0.49-0.199
	c-0.14-0.141-0.2-0.313-0.2-0.511c0-0.17,0.05-0.37,0.19-0.513c0.25-0.255,0.77-0.255,1.02,0.027c0.11,0.115,0.19,0.315,0.19,0.485
	c0,0.197-0.09,0.368-0.23,0.511c-0.12,0.114-0.31,0.199-0.51,0.199H127.259z"/>
<path fill="#333333" d="M111.067,152.598l-1.24,1.329l1.24,1.728l21.978-1.152l-1.15-1.95L111.067,152.598z"/>
</svg>
