<svg xmlns="http://www.w3.org/2000/svg" width="256" height="256" viewBox="0 0 256 256"><path fill="#333" d="M177.12 106.95c-.31-.23-.64-.44-.98-.61-.05-2.71-1.6-5.3-4.228-6.52-.43-.19-.85-.35-1.29-.46-.74-1.13-1.78-2.08-3.08-2.7-1.04-.49-2.13-.74-3.27-.74-1.13 0-2.23.26-3.22.72-.94-1.13-2.22-1.99-3.71-2.42-1.72-9.43-5.03-20.26-11.41-27.81 14.04-22.04 4.68-47.48 4.25-48.61-.2-.52-.47-1-.83-1.43-2.12-2.54-4.45-3.07-6.03-3.07l.05-.07-.02.02c-5.74 0-9.61 5.85-13.83 20.88-2.14 7.65-3.96 16.31-5.27 23.25-.69.11-1.35.28-1.98.52-.51-.19-1.04-.34-1.58-.45-1.31-6.93-3.13-15.6-5.29-23.27-4.21-14.97-8.08-20.8-13.82-20.8-1.58 0-3.91.53-6.04 3.08-.35.43-.63.91-.83 1.43-.43 1.12-9.7 26.27 4.05 48.24-6.57 7.55-9.95 18.53-11.7 28.1-1.45.43-2.7 1.28-3.63 2.39-1-.47-2.1-.73-3.23-.73-1.14 0-2.23.25-3.26.73-1.31.62-2.35 1.57-3.09 2.7-.44.11-.86.266-1.28.46-2.63 1.22-4.19 3.81-4.25 6.53-.34.17-.67.37-.98.61-3.02 2.26-3.65 6.56-1.41 9.58l4.61 6.18c.15.58.35 1.17.6 1.75.2.98.62 2.6 1.4 3.99l.57 1.005c.65 1.31 1.82 2.79 3.5 3.96l-.49 3.94c-.22 1.84.59 3.65 2.11 4.7.59.41 2.24 1.354 4.87 1.354.2 0 .39 0 .59-.03 1.17 1.1 2.65 2.21 4.52 3.02 2.18.98 4.63 1.51 7.11 1.51.62 0 1.25-.03 1.85-.1 2.29-.26 4.56-.86 6.75-1.78 1.2-.51 2.33-1.07 3.38-1.65-.29 1.6-.66 3.14-1.12 4.59l-.03.11c-.1.33-.17.52-.27.76-.13.33-.28.73-.42 1.27-.27.55-.44 1.17-.49 1.81l-.76 10.32-.86 2.3c-.46 1.25-.41 2.62.14 3.83.42.91 1.09 1.67 1.93 2.18l-1.04 43.16c-1.58.98-3.25 2.14-4.97 3.46-.21.1-.4.21-.59.33l-4.96 3.26c-5.08 2.59-7.38 5.8-6.64 9.3 1.11 5.22 7.57 5.49 10 5.59.96.04 1.9.06 2.79.06 6.15 0 10.19-.97 13.54-2.21.03.04.06.07.1.11.95 1.08 2.32 1.7 3.75 1.7.11 0 .22 0 .33-.01l3.67-.24c.89-.06 1.73-.35 2.43-.82.71.47 1.54.76 2.44.82l3.66.24c.11.01.22.01.33.01 1.43 0 2.8-.61 3.75-1.69.04-.03.07-.07.1-.11 3.36 1.25 7.39 2.22 13.54 2.22.9 0 1.83-.02 2.79-.06 2.43-.1 8.89-.37 10-5.59.74-3.5-1.55-6.71-6.64-9.3l-4.96-3.26c-.19-.13-.39-.24-.6-.34-1.88-1.45-3.69-2.7-5.41-3.73l-2.28-25.25-1.02-11.36c-.212-2.69-.522-5.22-.802-7.46l-.03-.27c.25-.32.47-.67.63-1.05.54-1.21.57-2.59.102-3.83l-.63-1.61v-.01l-.39-9.79c.04-.23.06-.47.068-.71.03-1.03-.26-2.03-.81-2.88l-.14-.35c-.09-.24-.16-.43-.26-.76l-.03-.1c-.51-1.59-.91-3.36-1.21-5.2 1.35.8 2.83 1.57 4.45 2.26 2.21.93 4.48 1.52 6.77 1.78.61.07 1.24.11 1.86.11 2.48 0 4.94-.52 7.11-1.5 1.88-.82 3.36-1.93 4.51-3.02.21.01.41.01.62.01 2.68 0 4.46-.64 4.94-.84 2.08-.85 3.33-2.98 3.06-5.22l-.56-4.69c1.43-1.24 2.21-2.55 2.528-3.17l.58-1.04c.79-1.41 1.21-3.02 1.41-4.01.25-.58.45-1.16.6-1.75l4.6-6.17c2.253-3.04 1.623-7.33-1.387-9.59z"/><path fill="#ED1E79" d="M150.415 128.49s13.02-2.782 12.94 1.95c-.067 4.13-6.87 3.61-6.87 3.61s-4.77-1.31-4.83-1.482c-.058-.18-1.298-3.85-1.298-3.85"/><path fill="#ED1E79" d="M145.96 222.61l5.2 3.424s10.28 5.087-1.063 5.557c-11.347.48-14.89-2.12-20.8-4.6l.82 4.26-3.67-.24s-1.42-11.56.71-12.76c2.13-1.18 18.79 4.37 18.79 4.37v-.01h.012zm-44.522 0l-5.2 3.424s-10.28 5.087 1.063 5.557c11.35.48 14.9-2.12 20.8-4.6l-.83 4.26 3.67-.24s1.42-11.56-.71-12.76-18.79 4.37-18.79 4.37v-.01z"/><path d="M97.773 83.246l1.773 42.135h44.67l1.237-28.66-6.38-23.92-41.3 10.45z"/><path fill="#fdb" d="M112.32 129.973s-3-11.592 7.432-7.592h4.87c8.625-4 6.144 7.66 6.144 7.66"/><path fill="#fdb" d="M121.052 126.085s-.513.564-1.408 1.56c-.895.957-2.18 2.296-3.804 3.837-1.628 1.54-3.59 3.29-5.883 5.035-2.317 1.73-4.922 3.5-8.11 4.85-1.592.666-3.393 1.193-5.377 1.418-1.99.223-4.334-.068-6.38-1.004-2.125-.91-3.615-2.47-4.75-3.89-1.06-1.46-1.724-2.85-2.264-4.13-.426-1.24-.857-2.41-1.048-3.39-.24-.99-.452-1.86-.536-2.54l-.34-2.18c-.424-2.71 1.437-5.26 4.153-5.68 2.718-.42 5.265 1.44 5.688 4.16.01.06.015.11.023.17l.04.34.196 1.69c.042.56.177 1.16.313 1.86.103.73.357 1.4.566 2.19.28.69.58 1.39.93 1.94.38.46.68.88 1.04 1.02.36.17.82.36 1.62.3.79-.06 1.76-.25 2.8-.65 2.09-.77 4.3-2.09 6.3-3.47 2-1.4 3.82-2.89 5.33-4.22 1.52-1.33 2.74-2.5 3.58-3.33.8-.82 1.26-1.28 1.26-1.28l.13-.13c1.58-1.61 4.17-1.64 5.78-.06 1.58 1.54 1.64 4.05.18 5.67l-.02-.08zm11.1 32.595l1.16 9.612c.33 2.89.813 6.23 1.097 9.88.31 3.637.68 7.516 1.02 11.393l2.8 31.037-10.26.71-2.53-30.7-.93-11.27c-.25-3.595-.71-6.97-1.02-9.853-.65-5.78-1.09-9.63-1.09-9.63l9.74-1.19.01.01zm-11.752.806l-1 61.276-10.285-.206 1.476-61.264 9.81.194zm8.777-38.868s.46.468 1.26 1.288c.833.83 2.06 2.002 3.573 3.332 1.518 1.33 3.332 2.82 5.33 4.22 1.996 1.38 4.207 2.704 6.297 3.474 1.04.4 2.012.59 2.8.65.798.06 1.255-.13 1.613-.3.364-.132.66-.552 1.036-1.01.346-.542.652-1.24.926-1.94.21-.79.47-1.45.57-2.18.14-.7.27-1.29.318-1.85l.2-1.68.04-.31c.32-2.73 2.8-4.68 5.53-4.36 2.73.32 4.687 2.8 4.37 5.53l-.023.19-.34 2.19c-.08.69-.29 1.55-.53 2.55-.19.98-.62 2.148-1.05 3.39-.54 1.28-1.2 2.67-2.26 4.13-1.13 1.42-2.62 2.98-4.75 3.9-2.04.94-4.39 1.23-6.38 1.01-1.98-.23-3.78-.75-5.38-1.42-3.182-1.352-5.79-3.12-8.102-4.852-2.3-1.74-4.26-3.49-5.88-5.03-1.63-1.54-2.91-2.88-3.8-3.84-.89-1-1.41-1.56-1.41-1.56-1.52-1.67-1.38-4.26.29-5.77 1.63-1.47 4.13-1.39 5.65.17l.14.14-.038-.062z"/><path fill="#F4D1B0" d="M123.62 121.225c0 2.35-.5 3.312-2.5 3.312-2.003 0-2.5-.962-2.5-3.312v-8.507c0-2.35.497-4.255 2.5-4.255 2 0 2.5 1.905 2.5 4.255v8.507z"/><path fill="#D3BD8D" d="M139.055 92.855c0 4.125.6 7.47 3.494 7.47s6.98-.772 6.98-7.47c0-4.13-2.35-7.473-5.24-7.473-2.9 0-5.25 3.344-5.25 7.473h.01z"/><path fill="#C69C6D" d="M139.924 92.828c.014-1.16.25-2.476.82-3.595.283-.568.646-1.125 1.16-1.604.514-.47 1.24-.87 2.086-.89.322.03.255 0 .56.06.24.05.448.12.608.2.36.15.65.38.916.61.518.48.66 1.03.947 1.6.57 1.14.6 2.38.6 3.62v.14c0 .81-.42 1.47-1.23 1.48-.81.01-1.35-.64-1.35-1.45 0-.06.07-.12.07-.18.09-.82.05-1.71-.22-2.46-.24-.79-.73-1.27-.87-1.33-.08-.05-.31-.04-.61.16-.28.19.42.52.18.9-.48.79.08 1.67.08 2.74v.04c0 .47-1.46.82-1.94.77-.44-.05-1.76-.43-1.76-.87l-.02.05h-.02z"/><path fill="#D3BD8D" d="M104.394 92.855c0 4.125-.602 7.47-3.498 7.47-2.893 0-6.985-.772-6.985-7.47 0-4.13 2.35-7.473 5.24-7.473 2.9 0 5.25 3.344 5.25 7.473z"/><path fill="#C69C6D" d="M103.524 92.828c-.014-1.16-.252-2.476-.818-3.595-.287-.568-.65-1.125-1.165-1.604-.51-.47-1.23-.87-2.08-.89-.32.03-.25 0-.55.06-.24.05-.45.12-.61.2-.36.15-.65.38-.92.61-.51.48-.76 1.03-1.05 1.6-.56 1.14-.7 2.38-.7 3.62v.14c0 .81.53 1.47 1.33 1.48.82.01 1.42-.64 1.44-1.45 0-.06-.03-.12-.04-.18-.09-.82-.04-1.71.23-2.46.25-.79.75-1.27.89-1.33.09-.05.33-.04.62.16.29.19.58.52.82.9.5.79.79 1.67.91 2.74v.04c.05.47.47.82.95.77.45-.05.78-.43.78-.87l-.03.05z"/><path fill="#fdb" d="M142.342 100.232c0 14.688-14.106 15.956-20.402 15.956-7.163 0-20.4-1.268-20.4-15.956 0-14.685-1.522-33.536 20.4-33.536 22.142 0 20.402 18.85 20.402 33.536z"/><path fill="#333" d="M119.695 106.61c-.6 0-1.158-.386-1.352-.987-.238-.747.174-1.544.923-1.782 1.505-.47 1.908-1.14 1.91-1.42l-.005-10.97c0-.78.44-1.42 1.23-1.42s1.23.64 1.23 1.42v10.85s.54 2.91-3.69 4.25c-.14.05-.09.07-.23.07l-.01-.01z"/><circle fill="#D4145A" cx="121.001" cy="110.979" r="3.329"/><path fill="#F5F5F5" d="M118.165 92.833c0 3.353-2.718 6.074-6.073 6.074-3.356 0-6.076-2.72-6.076-6.074 0-3.357 2.72-6.072 6.076-6.072 3.355 0 6.073 2.72 6.073 6.08z"/><path fill="#333" d="M116.363 92.688c0 2.33-1.883 4.217-4.215 4.217-2.33 0-4.217-1.89-4.217-4.217s1.89-4.216 4.22-4.216 4.22 1.888 4.22 4.216z"/><path fill="#F5F5F5" d="M139.005 92.833c0 3.353-2.722 6.074-6.075 6.074s-6.076-2.72-6.076-6.074c0-3.357 2.72-6.072 6.076-6.072 3.354 0 6.075 2.72 6.075 6.08z"/><circle fill="#333" cx="132.982" cy="92.688" r="4.218"/><path fill="#1A1A1A" d="M101.898 86.09s-1.734 33.295 4.053 44.873c0 0-12.44-.642-15.05-8.458-2.6-7.81-.57-65.124 30.1-60.124h2.08c30.67-5 32.7 52.32 30.11 60.13-2.6 7.82-15.05 9.04-15.05 9.04 5.79-11.58 1.98-47.55 1.98-47.55l-12.45-15.97-12.15.5-13.61 17.56h-.01z"/><path fill="#333" d="M121.18 111.5c-4.124 0-7.357-2.138-7.357-4.862 0-.586.477-1.063 1.065-1.063.586 0 1.063.48 1.063 1.063 0 1.293 2.15 2.734 5.23 2.734 3.09 0 5.23-1.44 5.23-2.734 0-.586.48-1.063 1.07-1.063s1.06.48 1.06 1.063c0 2.726-3.23 4.862-7.35 4.862h-.01z"/><path fill="#1A1A1A" d="M121.29 70.83s-12.408 19.556-26.117 18.61l14.54-20.135 12.226-2.79-.65 4.315zm.33-.294s11.706 21.15 25.414 20.207l-13.01-21.438-12.405-2.61v3.84z"/><path fill="#fdb" d="M168.865 118.605s.855 1.46-.504 4.285c0 0-.28 1.843-.95 3.054l-.64 1.137s-2.56 5.64-10.64 2.4c0 0-7.67-.87-7.6-7.49l4.99-8.76 15.35 5.39v-.01zm-15.926 5.615s-.36 2.657-2.65 2.606c0 0-4.21-4.616-1.94-7.523"/><path fill="#fdb" d="M160.107 118.603c1.006-2.372 2.072-4.708 3.11-7.056 1.08-2.333 2.12-4.686 3.232-7.008.62-1.29.06-2.84-1.22-3.45-1.28-.61-2.83-.07-3.44 1.21-.04.07-.07.15-.11.22-.88 2.41-1.83 4.8-2.75 7.2-.96 2.38-1.89 4.78-2.88 7.15-.47 1.12.06 2.41 1.18 2.88 1.12.47 2.41-.05 2.88-1.17v.02h-.01zm-4.657-1.01l2.157-15.94c.184-1.354-.787-2.597-2.146-2.784-1.35-.18-2.71.75-2.81 2.12v.08l-1.6 16c-.13 1.2.77 2.29 1.98 2.41 1.18.12 2.26-.73 2.41-1.89h.02zm3.22-4.587s-2.636 2.084-3.55-.79l.476 4.7 3.074-3.91zm5.673 7.532c1.12-2.177 2.185-4.382 3.27-6.563 1.06-2.207 2.14-4.402 3.17-6.614.54-1.16.034-2.54-1.13-3.08-1.15-.53-2.51-.05-3.07 1.08-1.068 2.2-2.1 4.42-3.145 6.62-1.022 2.23-2.07 4.44-3.06 6.67-.493 1.12.01 2.41 1.12 2.91 1.068.48 2.316.03 2.848-1v-.02h-.003zm1.55 4.286l8.465-11.346c.613-.827.443-1.986-.375-2.6-.797-.595-1.92-.454-2.55.307l-9.003 10.923c-.77.935-.64 2.323.303 3.095.94.775 2.32.644 3.1-.295.02-.026.04-.06.06-.084z"/><path fill="#E2AB74" d="M153.05 119.906"/><path fill="#fdb" d="M152.848 120.878c-.41-1.034-.828-1.873-1.313-2.765-.485-.876-1.025-1.73-1.63-2.555-1.21-1.64-2.694-3.225-4.7-4.367-1.118-.63-2.78.21-3.416 1.32-.65 1.12-.5 2.99.6 3.62.01.01.04.03.05.03 1.18.66 2.59 1.29 3.56 2.57.48.64 1.06 1.11 1.48 1.82.4.7.87 1.4 1.14 2.05l.06.02c.47 1.13 1.78 1.63 2.91 1.16 1.11-.47 1.66-1.76 1.21-2.88l.01-.02h.02z"/><path fill="#D4145A" d="M143.7 115.596s.308-.96.98-1.086c0 0-.688-1.185-1.532-1.028-.85.154-.918.934-.918.934s.46.744 1.47 1.18z"/><path fill="#333" d="M127.787 81.724c-.078.013.943-.233 2.16-.274.623.017 1.342-.022 2.094.086.76.053 1.55.182 2.32.365.78.13 1.53.38 2.23.61.71.2 1.34.43 1.87.68l1.77.76-1.88-.33c-.55-.11-1.21-.19-1.92-.22-.7-.05-1.44-.12-2.19-.07-.74 0-1.47.06-2.14.17-.68.06-1.28.25-1.79.35-1.04.31-1.47.55-1.54.58-.74.27-1.55-.12-1.81-.85-.26-.74.12-1.55.86-1.81l-.03-.04zm-11.895 2.483c-.052-.01-.696-.257-1.91-.517-1.196-.23-2.843-.477-4.516-.47-.838-.02-1.68-.012-2.466.08-.79.07-1.54.105-2.16.25l-2.11.393 1.996-.82c.595-.276 1.326-.468 2.11-.706.782-.262 1.636-.45 2.502-.607 1.733-.37 3.518-.477 4.878-.5 1.34-.003 2.364.145 2.312.134.765.177 1.238.94 1.063 1.7-.17.763-.93 1.238-1.69 1.063z"/><path fill="#DDB99B" d="M121.347 126.586l-.93 4.123 2.305.13-1.375-4.26z"/><path fill="#fdb" d="M75.274 118.605s-.855 1.46.504 4.285c0 0 .286 1.843.96 3.054l.638 1.137s2.56 5.64 10.64 2.4c0 0 7.67-.87 7.597-7.49l-4.986-8.76-15.353 5.39v-.01zm15.928 5.615s.357 2.657 2.625 2.606c0 0 4.207-4.616 1.938-7.523"/><path fill="#fdb" d="M84.033 118.603c-1.005-2.372-2.073-4.708-3.11-7.056-1.08-2.333-2.122-4.686-3.236-7.008-.612-1.29-.067-2.84 1.22-3.45 1.286-.61 2.835-.07 3.447 1.21.038.07.07.15.096.22.886 2.41 1.836 4.8 2.752 7.2.96 2.38 1.89 4.78 2.884 7.15.47 1.12-.058 2.41-1.177 2.88-1.12.47-2.41-.05-2.88-1.17v.02zm4.657-1.01l-2.157-15.94c-.183-1.354.788-2.597 2.143-2.784 1.353-.18 2.71.75 2.808 2.12 0 .02.003.05.005.08l1.59 16c.12 1.2-.78 2.29-1.99 2.41-1.18.12-2.26-.73-2.41-1.89h.01zm-3.218-4.587s2.634 2.084 3.548-.79l-.473 4.7-3.075-3.91zm-5.674 7.532c-1.12-2.177-2.184-4.382-3.27-6.563-1.054-2.207-2.14-4.402-3.17-6.614-.54-1.16-.032-2.54 1.13-3.08 1.152-.53 2.51-.05 3.067 1.08 1.075 2.2 2.103 4.42 3.153 6.62 1.02 2.23 2.068 4.44 3.057 6.67.494 1.12-.008 2.41-1.12 2.91-1.07.48-2.318.03-2.847-1v-.02zm-1.548 4.286l-8.467-11.346c-.612-.827-.443-1.986.376-2.6.79-.595 1.91-.454 2.55.307l9 10.923c.77.935.64 2.323-.31 3.095-.94.775-2.32.644-3.1-.295-.02-.026-.04-.06-.06-.084h.01z"/><path fill="#E2AB74" d="M91.092 119.906"/><path fill="#fdb" d="M91.295 120.878c.41-1.034.827-1.873 1.313-2.765.485-.876 1.026-1.73 1.63-2.555 1.21-1.64 2.694-3.225 4.703-4.367 1.12-.63 2.78.21 3.42 1.32.63 1.12.5 2.99-.61 3.62-.01.01-.04.03-.05.03-1.18.66-2.59 1.29-3.56 2.57-.48.64-1.06 1.11-1.48 1.82-.4.7-.87 1.4-1.14 2.05l-.06.02c-.47 1.13-1.78 1.63-2.91 1.16-1.11-.47-1.66-1.76-1.21-2.88l-.04-.02z"/><path fill="#D4145A" d="M100.442 115.596s-.31-.96-.983-1.086c0 0 .68-1.185 1.53-1.028.85.154.92.934.92.934s-.46.744-1.47 1.18z"/><path fill="#333" d="M132.33 150.186c-1.094-3.455-1.855-7.7-1.97-12.31-.067-1.646-.05-3.09.008-4.68-.5 2.24-2.412 4.01-4.706 4.01-1.85 0-3.44-1.056-4.254-2.65-.815 1.6-2.403 2.72-4.253 2.72-1.917 0-3.558-1.166-4.345-2.856.024 1.25.02 2.53-.03 3.81-.116 4.6-.878 8.49-1.972 11.94-1.01 3.46-1.01 2.2-1.01 2.2h23.546s0 1.26-1.013-2.19v-.01.016zm-10.82 2.194l-11.683.82-.8 10.91 11.82 6.21.662-1.86.66 1.994 11.49-6.733-.44-11.34h-11.71z"/><path fill="#FF7BAC" d="M108.91 163.896l12.368 4.606-.99 2.66-12.37-4.6.992-2.666zm24.695-.263l1.018 2.653-12.097 4.646-1.018-2.65 12.098-4.64v-.01z"/><path fill="#333" d="M122.793 123.97l2.005 1.99-.033-7.39-2.035 2.01c-.413-.184-.952-.298-1.61-.298-.607 0-1.116.095-1.515.253l-2.02-1.992.033 7.384 1.927-1.91c.408.174.936.28 1.575.28.693 0 1.253-.126 1.673-.326z"/><path fill="#fdb" d="M112.073 216.348s-4.253 1.06-12.054 7.56c0 0-4.26 4.02 6.38 2.605 0 0 20.2-2.24 12.99-9.21m15.92-.94s4.25 1.06 12.05 7.56c0 0 4.25 4.02-6.38 2.61 0 0-20.21-2.24-13-9.21"/><path fill="#FF7BAC" d="M99.192 19.485s-11.698 30.842 10.28 52.112l7.8-3.9s-9.217-58.845-18.08-48.212z"/><path fill="#ED1E79" d="M101.674 32.07s-4.786 20.74 10.457 36.69l2.31-1.24s-9.04-47.503-12.76-35.45z"/><path fill="#FF7BAC" d="M145.354 19.485s11.697 30.842-10.276 52.112l-7.8-3.9s9.212-58.845 18.076-48.212z"/><path fill="#ED1E79" d="M142.872 32.07s4.785 20.74-10.457 36.69l-2.306-1.24s9.02-47.503 12.76-35.45z"/><path fill="#FF7BAC" d="M81.82 130.44l-.885 7.44s4.077 2.838 12.407-5.49l-1.42-3.9c.002 0-8.15 4.787-10.1 1.95h-.002zm81.535 0l.887 7.44s-6.914 2.838-15.244-5.49l1.417-3.9s10.99 4.787 12.94 1.95z"/><path fill="#ED1E79" d="M99.905 82.943c-.153 0-.308-.024-.46-.077-.74-.254-1.137-1.057-.884-1.802.06-.146 5.24-14.734 22.53-15.78.85-.07 1.46.546 1.5 1.328.05.78-.55 1.454-1.33 1.5-15.35.934-19.83 13.348-20.01 13.875-.2.584-.75.956-1.34.956zm43.95 0c-.588 0-1.14-.372-1.34-.957-.187-.527-4.66-12.94-20.016-13.875-.78-.04-1.37-.72-1.33-1.5.05-.78.64-1.4 1.51-1.32 17.29 1.05 22.48 15.64 22.52 15.78.26.75-.14 1.55-.88 1.81-.15.06-.31.08-.47.08v-.01h-.01z"/><path fill="#DDB99B" d="M113.683 131.285c-1.686-.576-.49-5.098-.49-5.098s-2.834 7.18-.353 7.887m17.46-2.48c.62-1.24.043-4.875.043-4.875s2.26 6.64-.222 7.35"/><path fill="#333" d="M125.662 127.13c-1.85 0-3.44 1.103-4.254 2.7-.815-1.597-2.403-2.7-4.253-2.7-2.678 0-4.845 2.28-4.845 5.084 0 2.806 2.167 5.082 4.845 5.082 1.85 0 3.438-1.1 4.253-2.698.815 1.6 2.405 2.698 4.254 2.698 2.675 0 4.843-2.276 4.843-5.082 0-2.804-2.168-5.083-4.843-5.084z"/><path fill="#fdb" d="M116.208 135.773c-.172 0-.368-.088-.512-.23-.11-.14-.197-.31-.197-.506 0-.174.08-.37.19-.482.25-.285.77-.285 1.02 0 .11.112.2.31.2.482 0 .195-.09.367-.2.507-.14.144-.34.23-.51.23zm.424 15.85c-.397-.053-.65-.425-.596-.792.06-.39.427-.64.794-.59.397.06.655.43.595.8-.055.37-.34.63-.682.63-.053 0-.08-.03-.11-.03v-.01zm.653-5.273c-.397 0-.68-.41-.653-.78.03-.4.37-.69.767-.66.36 0 .68.35.65.74-.03.39-.34.69-.71.69h-.06v.01zm-.595-5.89c-.028-.4.254-.83.65-.83.4-.062.74.39.767.79.028.37-.285.87-.682.87h-.027c-.368 0-.68-.472-.708-.84v.01zm-.938 16.46c-.167 0-.367-.06-.48-.2-.142-.15-.228-.31-.228-.51 0-.17.086-.34.227-.48.26-.29.74-.29 1 0 .14.14.2.31.2.48 0 .2-.06.358-.2.51-.14.14-.31.19-.51.19v.01zm11.628-21.16c-.198 0-.37-.09-.51-.23-.114-.11-.2-.31-.2-.51 0-.18.086-.37.2-.48.254-.26.736-.29 1.022 0 .112.14.197.31.197.48 0 .19-.09.37-.23.51-.12.14-.31.23-.48.23zM125.62 151c-.054-.396.227-.82.6-.876.396-.06.764.313.818.68.06.397-.223.908-.594.908h-.113c-.34 0-.65-.37-.71-.71V151zm-.536-5.402c-.027-.396.283-.787.65-.787.4-.02.74.36.767.73.03.4-.28.82-.68.82h-.02c-.39 0-.68-.38-.71-.75v-.01zm.735-4.3c-.4 0-.69-.637-.63-1.004.02-.396.37-.802.76-.74.4.025.68.548.62.94-.03.37-.34.803-.71.803h-.06.02zm1.44 15.462c-.17 0-.37-.085-.49-.2-.14-.14-.2-.312-.2-.51 0-.17.05-.37.19-.513.25-.255.77-.255 1.02.027.11.113.19.313.19.483 0 .19-.09.36-.23.51-.12.11-.31.2-.51.2l.03.003z"/><path fill="#333" d="M111.067 152.598l-1.24 1.33 1.24 1.73 21.978-1.153-1.15-1.95-20.828.043z"/></svg>