<svg xmlns="http://www.w3.org/2000/svg" width="256" height="256" viewBox="0 0 256 256"><path fill="#333" d="M127.676 226.563c-21.315 0-37.71-3.713-49.57-11.28-.044.75-.297 1.483-.754 2.114-.76 1.05-1.97 1.655-3.24 1.655-.192 0-.386-.014-.58-.042-1.802-.264-44.236-6.785-53.633-34.976-5.89-17.654-4.87-82.204 23.69-121.824 15.9-22.077 37.51-33.268 64.21-33.268 5.45 0 11.18.482 17.04 1.434h6.3c5.85-.953 11.59-1.435 17.04-1.435 26.7 0 48.3 11.2 64.21 33.27 28.56 39.63 29.57 104.17 23.69 121.82-9.4 28.19-51.84 34.69-53.64 34.95-.19.03-.4.05-.58.05-1.28 0-2.48-.6-3.24-1.65-.69-.93-.92-2.15-.65-3.27-12.22 8.2-29.26 12.46-50.32 12.46h.02zm20.52-193.616c86.774 0 92.337 125.145 84.11 149.822-8.73 26.17-50.42 32.25-50.42 32.25 2.535-5.08 4.52-10.57 6.06-16.28-14.433 21.44-44.587 23.79-60.27 23.79-17.35 0-45.335-2.23-59.51-22.05 1.653 4.99 3.614 9.87 5.942 14.53 0 0-41.69-6.11-50.41-32.28-8.22-24.68-2.68-149.84 84.11-149.83 5.27 0 10.84.46 16.72 1.43h6.96c5.89-.97 11.44-1.43 16.72-1.43"/><path fill="#333" d="M107.8 25.38c-14.66 0-28.07 3.1-39.86 9.64-10.52 5.84-19.8 14.16-27.58 24.96-29.8 41.34-30.5 106.61-24.24 125.39 10.16 30.49 54.94 37.35 56.84 37.63.39.06.78.07 1.16.07 2.09 0 4.09-.82 5.58-2.27 4.47 2.41 9.45 4.38 14.91 5.89 9.42 2.61 20.24 3.88 33.08 3.88 19.45 0 35.662-3.55 48.072-10.4 1.53 1.83 3.78 2.87 6.14 2.87.38 0 .77-.03 1.16-.08 1.9-.278 46.69-7.14 56.86-37.64 6.26-18.77 5.56-84.08-24.24-125.42-7.78-10.8-17.06-19.23-27.58-25.07-11.79-6.54-25.2-9.86-39.87-9.86-5.57 0-11.41.49-17.36 1.44h-5.67c-5.95-.95-11.79-1-17.36-1h-.01l-.03-.03h-.002z"/><path fill="#D3BD8D" d="M185.014 144.393c0 13.83 2.004 25.037 11.7 25.037 9.702 0 23.415-2.6 23.415-25.04 0-13.83-7.86-25.04-17.57-25.04-9.7 0-17.56 11.208-17.56 25.03v.013h.01z"/><path fill="#C69C6D" d="M187.922 144.3c.04-3.876.842-8.29 2.738-12.04.963-1.908 2.18-3.76 3.902-5.368 1.71-1.57 4.15-2.92 6.983-2.954 1.074.103.854.006 1.865.22.82.168 1.52.41 2.05.682 1.2.527 2.18 1.28 3.07 2.053 1.72 1.607 1.67 3.46 2.63 5.368 1.9 3.86 1.45 7.99 1.45 12.14v.48c0 2.73-.87 4.94-3.58 4.98-2.72.04-4.3-2.14-4.34-4.85 0-.19.33-.41.35-.6.3-2.73.23-5.71-.66-8.22-.83-2.61-2.45-4.25-2.93-4.42-.29-.14-1.04-.12-2.02.54-.95.66-1.91 1.74-2.72 3.01-1.67 2.65-2.642 5.62-3.02 9.2l-.01.14c-.17 1.6-1.602 2.76-3.202 2.59-1.5-.16-2.61-1.44-2.6-2.92l.05-.03h-.006z"/><path fill="#D3BD8D" d="M68.887 144.393c0 13.83-2.006 25.037-11.703 25.037s-23.41-2.6-23.41-25.04c0-13.83 7.855-25.04 17.555-25.04 9.69 0 17.55 11.208 17.55 25.03v.013z"/><path fill="#C69C6D" d="M65.977 144.3c-.04-3.876-.84-8.29-2.738-12.04-.97-1.908-2.19-3.76-3.91-5.368-1.71-1.57-4.15-2.92-6.99-2.954-1.08.103-.86.006-1.86.22-.82.168-1.52.41-2.06.682-1.2.527-2.17 1.28-3.07 2.053-1.72 1.607-2.51 3.46-3.47 5.368-1.9 3.86-2.29 7.99-2.29 12.14v.48c0 2.73 1.69 4.94 4.41 4.98 2.71.04 4.72-2.14 4.75-4.85 0-.19-.13-.41-.15-.6-.3-2.73-.13-5.71.77-8.22.82-2.61 2.49-4.25 2.97-4.42.29-.14 1.06-.12 2.04.54.94.66 1.91 1.74 2.73 3.01 1.66 2.65 2.64 5.62 3.02 9.2l.01.14c.17 1.6 1.6 2.76 3.19 2.59 1.49-.16 2.61-1.44 2.6-2.92l.04-.03z"/><path fill="#fdb" d="M196.03 169.116c0 49.196-47.265 53.444-68.355 53.444-23.996 0-68.352-4.24-68.352-53.44s-5.09-112.35 68.352-112.35c74.17 0 68.354 63.15 68.354 112.35v-.004z"/><path fill="#F48B73" d="M139.15 205.11c0 6.16-4.99 11.15-11.15 11.15-6.155 0-11.15-4.99-11.15-11.148 0-6.15 4.995-11.15 11.15-11.15 6.16 0 11.15 5 11.15 11.16v-.013z"/><path d="M131.49 34.38h-6.96C21.76 17.38 14.98 156.593 23.7 182.77c8.72 26.18 50.41 32.282 50.41 32.282-19.386-38.788-13.573-93.318-13.573-93.318h.004v.002h.03l13.89-18.01-6.4 19.944c26.18 0 37.81 3.638 37.81 3.638 22.33-6.012 20.51-54.38 19.8-65.39 2.4 7.672 13.94 48.402-6.22 64.177 0 0 46.31-.44 69.87-8.105 2.44 14.723 8.96 64.326-7.39 97.037 0 0 41.7-6.077 50.42-32.258 8.73-26.18 1.95-165.39-100.83-148.39zM128 206.2h-.023.022zm21.08-18.542c-1.602 0-2.9 1.3-2.9 2.91 0 5.23-8.49 9.815-18.18 9.815s-18.18-4.584-18.18-9.813c0-1.61-1.302-2.91-2.907-2.91-1.607 0-2.91 1.3-2.91 2.91 0 8.76 10.53 15.622 23.974 15.63l-.008-.002c13.46 0 24-6.87 24-15.63 0-1.61-1.29-2.91-2.89-2.91z" fill="#333"/><path fill="#FF7BAC" d="M45.635 114.76s-.04-.854-.11-2.45c-.04-1.57-.02-4.648.39-7.853.88-6.59 3.156-16.304 9.57-25.982 6.27-9.654 16.127-19.34 28.803-25.86 12.617-6.576 27.63-10.23 42.662-10.385 2.188.073 3.32.033 5.49.2 1.995.106 3.917.278 5.745.51 3.73.434 7.414 1.087 11.023 1.965 7.25 1.677 14.11 4.413 20.42 7.674 12.62 6.6 22.64 16.11 28.82 25.87 6.35 9.72 8.68 19.41 9.54 26 .42 3.34.41 5.97.38 7.75-.06 1.78-.11 2.72-.11 2.72-.12 3.41-3.13 6.08-6.55 5.96-3.21-.12-6.1-2.67-6.1-5.82v-.14s-.02-3.06-1.2-8.14c-1.18-5.07-3.86-12.08-9.27-19.16-5.35-7.09-13.51-14.01-23.72-18.9-5.09-2.46-10.67-4.33-16.49-5.66-2.91-.67-5.87-1.17-8.88-1.48-1.54-.18-3.01-.29-4.41-.35-1.21-.12-3.49-.08-4.69-.13-12.2-.15-24.38 2.56-34.53 7.57-10.13 5-18.5 11.73-23.76 18.93-5.34 7.12-8.14 14.11-9.31 19.18-.57 2.67-.94 4.27-1.11 5.88-.15 1.59-.24 2.44-.24 2.44-.35 3.4-3.39 5.88-6.79 5.53-3.1-.32-5.43-2.88-5.55-5.9l-.03.02.007.01z"/><radialGradient id="a" cx="-1085.875" cy="-504.51" r="29.98" gradientTransform="matrix(.723 0 0 -.723 870.822 -188.963)" gradientUnits="userSpaceOnUse"><stop offset="0" stop-color="#FF585D"/><stop offset="1" stop-color="#FF585D" stop-opacity="0"/></radialGradient><circle opacity=".7" fill="url(#a)" enable-background="new" cx="85.488" cy="175.798" r="21.697"/><radialGradient id="b" cx="-970.883" cy="-504.51" r="29.98" gradientTransform="matrix(.723 0 0 -.723 870.822 -188.963)" gradientUnits="userSpaceOnUse"><stop offset="0" stop-color="#FF585D"/><stop offset="1" stop-color="#FF585D" stop-opacity="0"/></radialGradient><circle opacity=".7" fill="url(#b)" enable-background="new" cx="168.662" cy="175.798" r="21.697"/><linearGradient id="c" gradientUnits="userSpaceOnUse" x1="216.014" y1="-314.848" x2="216.014" y2="-304.394" gradientTransform="matrix(7.466 0 0 -7.466 -1487.503 -2144.024)"><stop offset="0" stop-color="#FF5459"/><stop offset=".789" stop-color="#FF6064" stop-opacity="0"/></linearGradient><path fill="url(#c)" d="M129.62 142.38v33.19s1.04 6.236-7.97 9.01l2.424-9.01-3.232-35.072"/><path fill="#333" d="M122.41 189.354c-1.23 0-2.38-.79-2.77-2.025-.49-1.53.356-3.17 1.892-3.65 8.002-2.55 7.698-7.12 7.678-7.32l-.015-35.23c0-1.61 2.104-2.91 3.713-2.91 1.605 0 3.712 1.3 3.712 2.91v34.9s.325 9.1-12.527 13.18c-.288.09-1.392.13-1.683.13v.02-.01z"/><path fill="#F5F5F5" d="M113.447 144.313c0 11.244-9.105 20.356-20.348 20.356-11.24 0-20.36-9.12-20.36-20.36 0-11.23 9.11-20.33 20.35-20.33 11.24 0 20.34 9.1 20.34 20.33h.01z"/><path fill="#333" d="M107.41 143.84c0 7.805-6.318 14.125-14.12 14.125s-14.132-6.32-14.132-14.125c0-7.8 6.33-14.117 14.133-14.117 7.81 0 14.12 6.317 14.12 14.117z"/><path fill="#F5F5F5" d="M183.256 144.313c0 11.244-9.105 20.356-20.348 20.356-11.244 0-20.355-9.12-20.355-20.36 0-11.23 9.11-20.33 20.355-20.33 11.242 0 20.348 9.1 20.348 20.33z"/><path fill="#333" d="M177.215 143.84c0 7.805-6.313 14.125-14.12 14.125-7.8 0-14.128-6.32-14.128-14.125 0-7.8 6.328-14.117 14.127-14.117 7.808 0 14.12 6.317 14.12 14.117z"/></svg>