<svg xmlns="http://www.w3.org/2000/svg" width="256" height="256" viewBox="0 0 256 256"><path d="M129.452 217.288c-55.37 0-70.596-17.755-72.783-34.255-21.32-.714-25.85-16.075-25.85-29.01 0-13.726 6.93-25.154 16.43-28.22-.5-3.555-.96-8.492-.73-13.822-.05 0-.1 0-.14-.01-1.93-.22-3.42-1.79-3.54-3.72-.06-.93-1.02-19.76 13.85-33.49-1.33-.26-2.44-1.17-2.95-2.44-.57-1.42-.28-3.04.75-4.18 1.09-1.2 27.25-29.42 71.65-29.42 10.25 0 20.76 1.55 31.24 4.6 4.08.03 31.62 1.09 46.01 23.05.94 1.44.86 3.32-.21 4.67l-.02.03c5.54 6.99 10.45 18.16 8.43 35.14-.18 1.52-1.22 2.81-2.67 3.31-.35.12-.7.19-1.06.22 1.3 5.11 2.22 10.96 1.71 16.41 9.09 3.48 15.53 14.63 15.53 27.91 0 12.6-4.31 27.5-24.22 28.93-.61 6.73-3.31 12.6-8.05 17.48-10.87 11.19-32.22 16.87-63.46 16.87zM126.175 42.71c9.412 0 19.668 1.34 30.672 4.6 0 0 .12-.002.35-.002 3.32 0 29.407.666 42.89 21.244l-10.616-3.794s22 9.1 18.21 40.958l-8.34-8.34s8.35 17.444 6.07 30.342l-.37 1.354c9.05 1.015 16.16 11.795 16.16 24.95 0 22.437-13.71 25.036-23.41 25.036-.23 0-.46-.013-.68-.025.92 31.84-46.6 34.255-67.62 34.255-23.97 0-68.73-3.387-69.07-34.44-.67.134-1.38.21-2.14.21-9.69 0-23.41-2.6-23.41-25.035 0-13.574 7.58-24.62 17.03-25.017-.92-4.685-3.87-22.85 3.35-34.664 0 0-6.07 6.067-8.35 13.652 0 0-1.51-24.277 21.25-36.41l-10.62-.76s25.55-28.116 68.7-28.113m0-8c-46.16 0-73.48 29.48-74.62 30.74-2.06 2.27-2.64 5.51-1.5 8.36.19.48.42.93.69 1.35-12.85 14.56-11.93 32.41-11.87 33.35.16 2.58 1.53 4.83 3.57 6.18-.01 3.11.19 6.04.46 8.64-9.48 4.84-16.08 16.74-16.08 30.73 0 12.57 3.8 21.77 11.29 27.35 4.09 3.04 9.09 4.84 15.18 5.45 2.39 10.37 10.05 21.78 30.24 28.48 11.95 3.97 27.4 5.99 45.92 5.99 32.36 0 54.67-6.08 66.33-18.08 4.62-4.75 7.53-10.31 8.71-16.6 5.3-.76 9.72-2.49 13.4-5.23 7.5-5.57 11.29-14.78 11.29-27.35 0-13.64-6.24-25.33-15.4-30.37.07-3.92-.43-7.9-1.19-11.62 1.66-1.29 2.77-3.21 3.03-5.36 2.06-17.34-2.73-29.02-7.76-36.21.51-2.11.16-4.39-1.08-6.28-6.62-10.1-16.83-17.56-29.54-21.6-8.67-2.75-16.2-3.21-19.24-3.27-10.67-3.05-21.37-4.6-31.83-4.6z" fill="#333"/><path fill="#F4D1B0" d="M186.063 154.022c0 13.83 2.008 25.036 11.7 25.036 9.7 0 23.413-2.6 23.413-25.036 0-13.825-7.857-25.036-17.553-25.036-9.696 0-17.56 11.21-17.56 25.036z"/><path fill="#C69C6D" d="M188.972 153.93c.04-3.876.84-8.29 2.738-12.04.96-1.907 2.184-3.76 3.904-5.367 1.71-1.57 4.152-2.92 6.988-2.954 1.072.1.852 0 1.86.22.814.16 1.515.41 2.054.68 1.195.52 2.17 1.28 3.066 2.05 1.72 1.6 2.15 3.46 3.106 5.36 1.9 3.84 1.93 7.99 1.93 12.13v.48c0 2.71-1.34 4.94-4.053 4.97-2.715.03-4.54-2.14-4.574-4.86 0-.2.22-.41.23-.6.31-2.73.18-5.71-.71-8.22-.82-2.61-2.47-4.26-2.95-4.43-.29-.15-1.06-.13-2.03.53-.95.66-1.91 1.74-2.72 3.01-1.66 2.64-2.64 5.62-3.02 9.2l-.01.14c-.17 1.59-1.59 2.75-3.19 2.58-1.49-.16-2.6-1.45-2.59-2.92z"/><path fill="#F4D1B0" d="M69.935 154.022c0 13.83-2.004 25.036-11.7 25.036s-23.41-2.6-23.41-25.036c0-13.825 7.854-25.036 17.552-25.036s17.558 11.21 17.558 25.036z"/><path fill="#C69C6D" d="M67.026 153.93c-.04-3.876-.84-8.29-2.736-12.04-.963-1.907-2.184-3.76-3.902-5.367-1.71-1.57-4.154-2.92-6.988-2.954-1.076.1-.852 0-1.863.22-.813.16-1.512.41-2.05.68-1.2.52-2.173 1.28-3.067 2.05-1.725 1.6-2.03 3.46-2.992 5.36-1.89 3.84-1.808 7.99-1.808 12.13v.48c0 2.71 1.216 4.94 3.93 4.97 2.724.03 4.484-2.14 4.52-4.86 0-.2-.25-.41-.268-.6-.297-2.73-.18-5.71.708-8.22.828-2.61 2.467-4.26 2.946-4.43.29-.15 1.048-.13 2.025.53.95.66 1.91 1.74 2.72 3.01 1.67 2.64 2.65 5.62 3.02 9.2l.02.14c.17 1.59 1.6 2.75 3.19 2.58 1.5-.16 2.61-1.45 2.61-2.92z"/><path fill="#fdb" d="M197.077 178.746c1.217 32.115-46.533 34.542-67.625 34.542-23.996 0-68.832-3.393-69.078-34.542 0-49.196-5.09-101.437 68.355-101.437 74.16 0 68.34 52.24 68.34 101.43z"/><path fill="#F5F5F5" d="M118.464 141.83c0 14.012-11.338 25.385-25.363 25.385-14.01 0-25.37-11.373-25.37-25.386 0-14.01 11.36-25.37 25.38-25.37 14.03 0 25.37 11.36 25.37 25.37z"/><path fill="#333" d="M109.124 141.83c0 8.86-7.174 16.03-16.023 16.03-8.84 0-16.02-7.17-16.02-16.03 0-8.853 7.19-16.01 16.03-16.01 8.85 0 16.03 7.158 16.03 16.01z"/><path fill="#F5F5F5" d="M188.272 141.83c0 14.012-11.34 25.385-25.367 25.385-14.014 0-25.37-11.373-25.37-25.386 0-14.01 11.356-25.37 25.37-25.37 14.028 0 25.367 11.36 25.367 25.37z"/><path fill="#333" d="M178.93 141.83c0 8.86-7.173 16.03-16.024 16.03-8.84 0-16.023-7.17-16.023-16.03 0-8.853 7.184-16.01 16.023-16.01 8.85 0 16.025 7.158 16.025 16.01z"/><path fill="#8C6239" d="M154.573 85.993s-4.553 33.38-29.586 34.14c0 0 14.414-12.896 12.898-29.585-1.518-16.69-12.898 18.205-36.414 24.272 0 0 7.59-15.175 7.59-22.755 0 0-19.72 32.62-37.93 36.405l-9.86 37.932-9.17-36.254s-5.24-22.154 3.11-35.807c0 0-6.07 6.07-8.35 13.66 0 0-1.51-24.27 21.25-36.41l-10.62-.76s37.93-41.72 99.37-23.51c0 0 28.83-.76 43.24 21.24l-10.62-3.79s22 9.1 18.2 40.96l-8.34-8.34s8.35 17.45 6.07 30.35l-9.85 35.65-8.34-37.93s-16.69-8.35-16.69-32.62c0 0-2.28 21.24-19.72 28.06.01.01 16.7-15.92 3.8-34.89z"/><path fill="#333" d="M122.506 188.302c-3.682 0-6.693-1.026-9.004-3.067-5.377-4.755-4.385-13.05-4.342-13.4.205-1.596 1.684-2.728 3.256-2.516 1.59.2 2.715 1.65 2.516 3.24-.004.05-.63 5.63 2.436 8.33 2.05 1.79 5.525 2.08 10.324.85 1.568-.42 3.14.55 3.533 2.1.398 1.55-.545 3.13-2.102 3.53-2.396.61-4.605.92-6.617.92zm12.444-.004c-1.956 0-4.142-.302-6.53-.914-1.56-.398-2.498-1.978-2.105-3.534.398-1.563 1.994-2.506 3.535-2.104 3.223.82 7.5 1.365 9.61-.684 2.18-2.12 1.733-6.645 1.382-8.207-.352-1.56.62-3.12 2.182-3.48 1.576-.365 3.117.607 3.488 2.162.08.36 1.988 8.813-2.963 13.67-2.11 2.056-4.98 3.09-8.6 3.09z"/><path fill="#DBC79C" d="M133.617 192.2s-7.752 5.817-15.752 5.817 21.082 16.242 15.752-5.817z"/><radialGradient id="a" cx="-8856.891" cy="-2269.713" r="29.997" gradientTransform="matrix(.21 0 0 .21 1988.572 643.294)" gradientUnits="userSpaceOnUse"><stop offset="0" stop-color="#FF585D"/><stop offset="1" stop-color="#FF585D" stop-opacity="0"/></radialGradient><circle opacity=".7" fill="url(#a)" cx="127.74" cy="166.428" r="6.303"/><path fill="#333" d="M134.945 170.02c-1.39 0-2.625-1.005-2.86-2.43-.304-1.79-.903-2.96-1.802-3.472-1.2-.68-3.002-.248-3.385-.106-1.502.57-3.182-.17-3.75-1.682-.572-1.498.174-3.182 1.68-3.75.463-.188 4.59-1.665 8.352.486 1.705.983 3.898 3.093 4.64 7.57.267 1.583-.804 3.084-2.39 3.345-.16.04-.325.04-.485.04z"/></svg>