<?xml version="1.0" encoding="utf-8"?>
<!-- Generator: Adobe Illustrator 16.0.0, SVG Export Plug-In . SVG Version: 6.00 Build 0)  -->
<!DOCTYPE svg PUBLIC "-//W3C//DTD SVG 1.1//EN" "http://www.w3.org/Graphics/SVG/1.1/DTD/svg11.dtd">
<svg version="1.1" id="Layer_1" xmlns="http://www.w3.org/2000/svg" xmlns:xlink="http://www.w3.org/1999/xlink" x="0px" y="0px"
	 width="256px" height="256px" viewBox="0 0 256 256" enable-background="new 0 0 256 256" xml:space="preserve">
<path fill="#FFFFFF" d="M128.73,236.078c-18.813,0-33.521-2.844-44.966-8.689c-17.02-8.697-26.182-23.635-27.275-44.44
	c-17.04-0.61-25.67-10.347-25.67-28.957c0-11.58,4.98-21.72,12.54-26.33l-7.57-16.56L17,74.45l4.76-1.297
	c0.712-0.19,71.557-19.74,103.37-52.55l2.87-2.96l2.872,2.96c31.83,32.83,102.647,52.174,103.36,52.366l4.752,1.28l-19.319,38.11
	l-5.675,16.04c6.806,5,11.186,14.74,11.186,25.5c0,12.601-4.303,27.5-24.215,28.92c-1.89,34.381-27.38,53.25-72.23,53.25V236.078z"
	/>
<path fill="#333333" d="M128,11.89l-5.743,5.922C91.22,49.818,21.41,69.1,20.707,69.292l-9.52,2.592l4.502,8.78l16.5,32.176
	l0.39,0.864l5.77,12.65c-7.06,5.916-11.55,16.173-11.55,27.636c0,12.58,3.8,21.77,11.3,27.34c3.96,2.939,8.78,4.71,14.64,5.37
	c2.04,20.29,12.03,35.5,29.17,44.26c12.02,6.149,27.32,9.13,46.78,9.13c18.119,0,33.439-3.05,45.55-9.07
	c17.899-8.899,28.31-24.22,30.399-44.55c5.211-0.78,9.561-2.5,13.2-5.21c7.49-5.57,11.29-14.779,11.29-27.35
	c0-10.96-3.96-20.76-10.48-26.81l4.65-13.15l16.98-33.49l4.449-8.783l-9.51-2.56c-0.699-0.19-70.5-19.29-101.529-51.286l-5.7-5.94
	L128,11.89z"/>
<path fill="#F4D1B0" d="M186.063,153.896c0,13.83,2.008,25.037,11.703,25.037c9.697,0,23.41-2.601,23.41-25.037
	c0-13.824-7.854-25.035-17.553-25.035c-9.695,0-17.561,11.22-17.561,25.039V153.896z"/>
<path fill="#C69C6D" d="M188.97,153.805c0.042-3.875,0.841-8.291,2.74-12.041c0.96-1.906,2.181-3.76,3.903-5.365
	c1.71-1.57,4.154-2.92,6.988-2.955c1.08,0.104,0.859,0.007,1.869,0.221c0.811,0.168,1.51,0.41,2.061,0.682
	c1.199,0.527,2.17,1.28,3.07,2.053c1.72,1.601,3.149,3.461,4.109,5.36c1.9,3.841,2.939,7.99,2.939,12.13v0.48
	c0,2.71-2.34,4.939-5.049,4.98c-2.711,0.029-5.041-2.15-5.07-4.86c0-0.2-0.03-0.41-0.01-0.601c0.3-2.729,0.05-5.709-0.84-8.22
	c-0.82-2.61-2.541-4.26-3.011-4.43c-0.29-0.15-1.08-0.13-2.06,0.53c-0.95,0.66-1.93,1.739-2.74,3.01
	c-1.66,2.65-2.65,5.619-3.03,9.199l-0.01,0.141c-0.17,1.59-1.601,2.75-3.19,2.58c-1.49-0.16-2.6-1.44-2.6-2.92L188.97,153.805z"/>
<path fill="#F4D1B0" d="M69.936,153.896c0,13.83-2.004,25.037-11.703,25.037c-9.695,0-23.41-2.601-23.41-25.037
	c0-13.824,7.857-25.035,17.553-25.035c9.696,0,17.56,11.22,17.56,25.039V153.896z"/>
<path fill="#C69C6D" d="M67.027,153.805c-0.04-3.875-0.842-8.291-2.738-12.041c-0.96-1.906-2.19-3.76-3.91-5.365
	c-1.71-1.57-4.16-2.92-6.99-2.955c-1.08,0.104-0.86,0.007-1.87,0.221c-0.82,0.168-1.51,0.41-2.05,0.682
	c-1.2,0.527-2.18,1.28-3.07,2.053c-1.73,1.601-3.03,3.461-3.99,5.36c-1.9,3.841-2.81,7.99-2.81,12.13v0.48
	c0,2.71,2.22,4.939,4.93,4.98c2.71,0.029,4.98-2.15,5.01-4.86c0-0.2,0-0.41-0.02-0.601c-0.3-2.729-0.06-5.709,0.83-8.22
	c0.82-2.61,2.53-4.26,3-4.43c0.29-0.15,1.08-0.13,2.05,0.53c0.94,0.66,1.92,1.739,2.73,3.01c1.66,2.65,2.65,5.619,3.03,9.199
	l0.01,0.141c0.17,1.59,1.6,2.75,3.19,2.58c1.5-0.16,2.61-1.44,2.6-2.92L67.027,153.805z"/>
<path fill="#FFDDBB" d="M197.078,178.62c0,49.198-47.264,53.446-68.35,53.446c-23.997,0-68.354-4.248-68.354-53.445
	c0-49.189-5.09-112.34,68.354-112.34c74.168,0,68.35,63.15,68.35,112.35V178.62z"/>
<path fill="#A67C52" d="M47.53,123.97l13.09,37.808l18.907-44.109 M209.922,126.394l-12.449,35.383l-18.906-44.109"/>
<path fill="#F5F5F5" d="M113.447,153.818c0,11.244-9.104,20.355-20.348,20.355c-11.244,0-20.36-9.111-20.36-20.355
	c0-11.23,9.11-20.33,20.35-20.33c11.24,0,20.34,9.1,20.34,20.33H113.447z"/>
<path fill="#333333" d="M107.41,153.345c0,7.804-6.318,14.125-14.125,14.125c-7.797,0-14.127-6.319-14.127-14.125
	c0-7.8,6.33-14.116,14.127-14.116C101.092,139.229,107.41,145.545,107.41,153.345z"/>
<path fill="#F5F5F5" d="M183.254,153.818c0,11.244-9.105,20.355-20.348,20.355c-11.244,0-20.355-9.111-20.355-20.355
	c0-11.23,9.12-20.33,20.36-20.33c11.239,0,20.35,9.1,20.35,20.33H183.254z"/>
<path fill="#333333" d="M177.217,153.345c0,7.804-6.316,14.125-14.123,14.125c-7.803,0-14.13-6.319-14.13-14.125
	c0-7.8,6.327-14.116,14.13-14.116C170.9,139.229,177.217,145.545,177.217,153.345z M125.577,198.857c-1.23,0-2.38-0.791-2.77-2.027
	c-0.487-1.527,0.358-3.163,1.89-3.65c8.006-2.55,7.697-7.119,7.684-7.32l-0.02-35.229c0-1.606,2.52-2.91,4.14-2.91
	c1.61,0,4.13,1.304,4.13,2.91v34.902c0,0-0.09,9.104-12.94,13.188c-0.29,0.092-1.81,0.137-2.1,0.137H125.577z M126.732,212.975
	c-17.717,0-28.842-7.867-29.53-8.367c-1.296-0.943-1.585-2.756-0.64-4.056c0.938-1.295,2.748-1.592,4.057-0.657
	c0.92,0.668,23.08,16.133,55.14-0.229c1.44-0.716,3.181-0.164,3.91,1.271c0.729,1.426,0.16,3.18-1.271,3.91
	c-11.93,6.092-22.67,8.129-31.68,8.129H126.732z"/>
<linearGradient id="SVGID_1_" gradientUnits="userSpaceOnUse" x1="349.9219" y1="-88.2554" x2="349.9219" y2="-77.8604" gradientTransform="matrix(7.466 0 0 -7.466 -2484.2515 -443.9204)">
	<stop  offset="0" style="stop-color:#FF5459"/>
	<stop  offset="0.789" style="stop-color:#FF6064;stop-opacity:0"/>
</linearGradient>
<path fill="url(#SVGID_1_)" d="M132.62,151.38v32.696c0,0,1.062,6.236-7.948,9.01l2.436-9.01l-3.25-34.826"/>
<path fill="#0071BC" d="M49.484,128.53L22.81,76.824c0,0,72.22-19.444,105.19-53.444c32.967,34,105.189,53.443,105.189,53.443
	l-26.672,52.618"/>
<path fill="#4D4D4D" d="M42.87,116.63c12.005,17,45.073,36.108,84.892,36.108c39.816,0,73.553-19.357,85.561-36.357L42.87,116.63
	L42.87,116.63z"/>
<path fill="#FBB03B" d="M146.645,53.99c-1.795,3.563-5.006,5.953-8.668,5.953c-4.022,0-7.49-2.864-9.146-7.01
	c-1.65,4.145-5.12,7.01-9.14,7.01c-3.23,0-6.11-1.856-7.98-4.74c-1.39,3.293-2.2,7.013-2.2,10.975c0,13.31,8.93,28.67,19.95,28.67
	c11.02,0,19.95-15.36,19.95-28.67c0-4.454-1.021-8.613-2.75-12.187L146.645,53.99z"/>
<path fill="#FFFFFF" d="M207.982,133.38H50.44l-10.57-23.374l176.36,0.06L207.982,133.38z"/>
</svg>
