<svg xmlns="http://www.w3.org/2000/svg" width="256" height="256" viewBox="0 0 256 256"><path d="M173.103 225.24c-.584-.005-1.146-.214-1.593-.59-.35-.298-.717-.606-1.028-.95-.316-.293-.558-.67-.688-1.097-.044-.132-.076-.268-.095-.41-.45-2.237-1.18-7.237.67-9.792.35-.73.14-4.11-.48-6.91-.14-.61-.03-1.23.25-1.75l-1.96-26.63-.06-.02c-.2-.08-.32-.12-.45-.16-.23-.07-.37-.11-.53-.15h-.02l-1.21 26.66c.52.59.74 1.41.57 2.21-.63 2.79-.84 6.05-.44 6.84 1.82 2.5 1.09 7.5.64 9.74-.02.13-.05.26-.09.39-.13.43-.36.8-.66 1.1-.3.34-.65.66-1 .98-.46.41-1.05.64-1.66.65l-35.21.24c-1.37 0-2.49-1.1-2.5-2.48l-.03-3.22c-.01-.89.46-1.73 1.24-2.18l.36-.21c2.88-1.68 6.41-3.75 10.25-4.04 3.52-2.54 7.86-4.52 9.06-5.04.74-.76-.13-2.95-.14-2.97-.21-.46-.27-.99-.18-1.48.18-.97.9-2.98 3.7-3.77l1.16-21.79c-1.65-.46-2.78-1.35-3.8-2.26-.02-.01-.04-.03-.06-.04l-.15-.08-.16-.05c-.04-.01-.08-.02-.12-.02-.11-.01-.18-.01-.24-.02h-.2c-.8 0-1.74.35-2.04.49-.34.16-.7.23-1.06.23-.61 0-1.22-.22-1.69-.65-.75-.68-1.02-1.73-.68-2.68l9.22-25.79c-.15.05-.3.1-.4.14-.31.13-.63.19-.95.19-.65 0-1.29-.25-1.77-.73-.71-.71-.93-1.78-.55-2.72l.55-1.34 3.99-23.05c-1.17.34-2.36.75-3.52 1.29-.05.02-.09.04-.14.06-.79.32-1.58.74-2.43 1.19-.48.26-.97.51-1.46.76l-.57.34c-1.06.64-2.16 1.29-3.17 1.98-.44.34-.88.66-1.33.97-.78.55-1.51 1.07-2.07 1.63l-.11.1-.37.33c-.97.85-1.87 1.64-2.56 2.48-.04.05-.08.09-.12.14-.84.88-1.71 1.83-2.32 2.79l-.07.1-.48.67c-.43.59-.84 1.15-1.12 1.66 1.23 1.69 1.49 3.16 1.38 4.32.93.76 1.51 1.26 1.54 1.28 4.64 3.76 1.28 8.06-.73 10.63-.47.6-.95 1.22-1.38 1.83-1.76 2.54-3.7 3.07-5.02 3.07-.59 0-1.12-.11-1.58-.26-1.22.77-2.23 1.18-3.01 1.25-.12.01-.25.01-.39.01-.49 0-1.04-.07-1.65-.22-.84.47-1.87.9-3.1 1.29-.56.17-1.13.26-1.71.26-6.22 0-9.86-10.23-10.82-13.36-.12-.36-.18-.78-.17-1.23-.13-1.62.42-3.36 1.64-5.19-.11-.29-.24-.61-.38-.96-.13-.32-.26-.64-.39-.97-.17-.4-.33-.82-.49-1.25-.25-.67-.48-1.3-.8-1.86-.28-.52-.51-.99-.75-1.47-.35-.7-.71-1.42-1.1-2.1-.29-.45-.58-.91-.87-1.37-.44-.7-.89-1.43-1.36-2.11-.36-.44-.71-.9-1.05-1.36-.53-.71-1.04-1.38-1.58-1.96-.65-.73-1.31-1.43-1.99-2.11l-2.26 2.41c-.46.49-1.11.78-1.79.79h-.03c-.36 0-.72-.08-1.05-.23l3.53 25.25c.04.26.03.51-.01.76.01.04.12.98.12.98.08.7-.14 1.4-.6 1.93-.47.53-1.13.84-1.83.86l-1.68.04.18 8.08c.05.6.11 1.15.17 1.71.07.67.13 1.35.2 2.11l1.15 12.85c.32 2.89.38 5.78.44 8.57.03 1.48.06 2.94.13 4.37l.21 7.26c2.52.87 3.18 2.79 3.35 3.72.1.52.03 1.05-.19 1.53 0 .01-.86 2.06-.12 2.81 1.2.52 5.54 2.5 9.07 5.05 3.76.29 7.23 2.33 10.05 3.99l.56.33c.77.45 1.25 1.28 1.24 2.18l-.03 3.16c-.02 1.37-1.13 2.48-2.5 2.48l-35.22-.31c-.58-.01-1.15-.22-1.6-.6-.37-.31-.74-.62-1.05-.97-.24-.23-.44-.51-.57-.82-.11-.23-.18-.47-.21-.73-.45-2.27-1.14-7.19.69-9.72.36-.74.15-4.06-.48-6.91-.21-.93.14-1.87.84-2.46l-.21-9.35c-.06-1.39-.08-2.86-.1-4.36-.03-2.64-.07-5.37-.34-7.98l-1.24-15.24c-.28-.25-.61-.45-.9-.45-.04 0-.12.04-.23.12-.09 1.01-.17 2.04-.2 3.06l-1.57 34.6c.52.59.75 1.4.57 2.2-.62 2.79-.83 6.05-.44 6.83 1.81 2.49 1.1 7.47.65 9.71-.02.16-.05.31-.1.45-.13.41-.35.77-.64 1.05-.3.35-.65.67-1.01.99-.45.42-1.05.65-1.66.65l-35.21.25c-1.37 0-2.49-1.11-2.5-2.48l-.02-3.22c0-.9.47-1.73 1.24-2.18l.35-.2c2.89-1.69 6.42-3.76 10.27-4.05 3.52-2.54 7.86-4.52 9.07-5.04.75-.77-.13-2.95-.14-2.97-.2-.46-.27-.99-.17-1.49.18-.96.9-2.97 3.7-3.77l1.8-32.54c.02-.59.06-1.18.11-1.77-.03-.13-.04-.27-.04-.42l.01-3.25c-.39-.23-.86-.51-1.42-.84-.64-.34-1.36-.86-2.12-1.42-.29-.21-.58-.43-.9-.64-1.17-.82-2.36-1.9-3.79-3.28-.04-.04-.08-.08-.12-.13l-1.85-2.06c-.06-.07-.12-.14-.17-.21l-.18-.25c-.54-.74-1.09-1.51-1.64-2.35-.03-.04-.05-.08-.08-.12-.92-1.62-2.22-4.11-2.83-7.02-1.13-4.58-.66-10.06 1.33-15.35.79-2.05 1.75-4.05 2.93-6.08 0-.14.02-.28.05-.42 2.96-14.2 8.43-20.39 13.05-23.05-5.67-2.94-8.93-7.94-9.56-14.73-5.59-.61-8.65-4.38-8.65-10.77 0-3.73 1.46-7.11 3.75-9.07-1.53-3.44-2.78-7.48-2.5-11.08-.43-.09-.84-.29-1.19-.6-.77-.69-1.03-1.77-.68-2.73.29-.79 7.51-19.41 33.44-19.41 1.36 0 2.77.05 4.18.16.06 0 .13.01.19.02 3.78.57 16.03 2.86 18.29 8.79 8.34.82 11.41 8.44 11.41 13.65 0 .67 0 2.67-3.4 11.24 2.26 1.97 3.68 5.32 3.68 9.01 0 6.2-2.87 9.93-8.15 10.7-.57 6.12-3.36 10.8-8.19 13.83 3.85 1.69 8.45 4.81 13.64 10.34.91.96.91 2.46 0 3.42l-.03.03c.97.9 1.91 1.82 2.81 2.77.91.91 1.74 1.94 2.55 2.93.37.45.74.91 1.11 1.35.03.04.06.07.09.11.79 1.04 1.5 2.08 2.19 3.09.32.46.62.92.94 1.37.03.03.05.07.07.1.66 1.05 1.22 2.07 1.77 3.07.23.43.47.85.7 1.27.54-.88 1.18-1.74 1.8-2.58l.39-.54c1.08-1.6 2.44-3.07 3.62-4.3 1.26-1.44 2.69-2.67 4.08-3.86l.23-.2c1.07-1 2.22-1.79 3.32-2.56.5-.34.99-.68 1.48-1.05l.1-.06c.47-.32.95-.62 1.42-.91-1.31-1.33-2.24-2.84-2.81-4.53-2.44-7.31-1.37-40.99 11.04-58.2 5.29-7.35 12.03-11.08 20-11.08 1.49 0 3.03.14 4.6.4h1.85c1.6-.28 3.18-.42 4.7-.42 20.61 0 27.87 24.78 30.37 39.65.32-.06.64-.09.98-.09.23 0 .45.02.68.05 2.53.35 4.39 2.42 4.55 4.84.93-1.64 2.72-2.69 4.64-2.69.8 0 1.58.17 2.3.52 1.32.63 2.26 1.73 2.72 3.01.73.01 1.44.16 2.11.47 2.5 1.16 3.6 4.12 2.5 6.62.98.01 1.92.32 2.7.91 2 1.49 2.4 4.34.91 6.35l-5.44 7.28c-.16.74-.43 1.54-.81 2.37-.16.73-.59 2.45-1.33 3.78-.3.53-.6 1.08-.97 1.52-.76 1.31-2.45 3.17-5.17 4.12-.19.83-.47 1.68-.77 2.54-.02.06-.04.12-.06.17-.12.29-.23.58-.35.88-.49 1.24-1.05 2.65-2.14 4.16-.02.03-.04.06-.07.09-1.24 1.55-3.23 3.76-6.18 5.02-1.99.91-4.29 1.4-6.6 1.4-.57 0-1.13-.03-1.67-.09-2.3-.26-4.52-.83-6.59-1.69-2.31-.98-4.34-2.11-6.03-3.19l3.28 17.09c.03.1.06.19.08.29l.53 2.28c.25 1.1-.25 2.2-1.2 2.74-.04.23-.11.45-.21.65l10.37 24.63c.47 1.11.08 2.4-.93 3.06-.42.28-.9.42-1.37.42-.66 0-1.32-.26-1.8-.76-.21-.22-.46-.5-.66-.85l-.12-.09.04-.07c-.02-.04-.04-.07-.05-.11l-.08.13c-.08-.05-.36-.21-.36-.21-.07-.04-.16-.08-.25-.12 0 0-.27-.11-.35-.14l-.11-.04c-.07-.02-.15-.04-.23-.06l.52-2.45-.62 2.42c-.08-.02-.17-.03-.27-.05-.18-.02-.27-.02-.36-.02-.18 0-.27.01-.36.02-.15.03-.24.05-.33.07l-.13.04c-.02 0-.12.05-.22.09-.2.09-.31.16-.43.23 0 0-.1.06-.1.07-.11.07-.24.17-.38.29l-.06.05c-.17.15-.32.3-.48.48-.29.32-.61.64-.97.95 0 0-.01 0-.01.01l1.87 23.14c3.14.72 3.92 2.89 4.11 3.92.1.52.03 1.05-.2 1.53 0 .01-.86 2.06-.12 2.81 1.21.53 5.55 2.5 9.07 5.05 3.76.29 7.22 2.32 10.05 3.98l.57.33c.78.45 1.25 1.28 1.24 2.18l-.03 3.16c-.01 1.37-1.13 2.48-2.5 2.48l-35.21-.31zm-117.18-91.02c-.68 1.998-.923 3.87-.697 5.363l.698-5.364zm138.642-18.732c.516.125.952.185 1.278.213h.063c.146 0 .218-.01.297-.04.07-.08.137-.17.212-.26l.08-.1c.187-.31.394-.75.617-1.31-.82.57-1.68 1.07-2.547 1.51zM71.973 33.098c1.282 0 2.617.05 3.998.15 0 0 14.96 2.26 16.42 7.478.11.397.17.83.19 1.275.19 0 .37-.01.54-.01 8.9 0 10.43 8.47 10.43 11.23 0 1.99-2.15 7.67-3.52 11.07l.04.01-.41 1.18c2.42 1.04 4.17 4.22 4.17 8 0 7.49-4.57 8.35-7.81 8.35-.08 0-.15-.01-.23-.01-.03 10.89-7.04 15.15-13.79 16.77l.02.14h.14c4 0 10.78 1.89 19.66 11.35l-1.79 1.91c1.58 1.34 3.12 2.79 4.58 4.33 1.31 1.3 2.4 2.81 3.58 4.19 1.11 1.44 2.07 2.95 3.06 4.37.91 1.46 1.67 2.95 2.46 4.33.82 1.37 1.29 2.78 1.88 4.02l.07.17 1.71-3.11c.68-1.35 1.67-2.63 2.69-4.02.97-1.43 2.16-2.76 3.45-4.09 1.22-1.41 2.67-2.63 4.13-3.88 1.42-1.33 3.07-2.3 4.63-3.47 1.46-.98 2.98-1.79 4.47-2.65-2.16-1.32-4.02-3.05-4.88-5.64-2.73-8.2-.82-66.01 28.68-66 1.4 0 2.86.13 4.39.4h2.28c1.57-.28 3.06-.42 4.49-.42 18.66 0 26.25 23.22 28.6 42.37l.01-.36c.01-.03.01-.07.01-.09.1-1.37 1.37-2.35 2.72-2.35.12 0 .25.01.37.02 1.49.21 2.56 1.57 2.36 3.06L204 96.19c.28.176.583.24.883.24.21 0 .42-.03.62-.083.574-1.433 1.14-2.87 1.72-4.3 1.01-2.64 2.054-5.27 3.026-7.92.03-.08.06-.164.1-.25.48-1.02 1.5-1.61 2.56-1.61.41 0 .83.09 1.22.28 1.41.67 2.01 2.37 1.34 3.786-1.23 2.55-2.37 5.13-3.55 7.696-.72 1.61-1.44 3.21-2.15 4.83l.31.11c.68-1.5 1.37-2.98 2.06-4.48 1.15-2.42 2.28-4.86 3.46-7.27.44-.9 1.35-1.43 2.29-1.43.36 0 .73.08 1.08.24 1.27.59 1.83 2.11 1.24 3.39-1.14 2.43-2.33 4.85-3.48 7.27-.65 1.3-1.3 2.61-1.94 3.92l.29.11 5.84-7.09c.4-.49.99-.75 1.58-.75.42 0 .85.13 1.22.41.9.67 1.07 1.95.39 2.85l-5.8 7.75c-.08.7-.34 1.56-.84 2.59 0 0-.38 2.02-1.12 3.35-.7 1.25-.83 1.25-.83 1.25s-1.38 2.96-5.38 3.61c0 1.06-.42 2.36-.88 3.73-.6 1.4-1.06 2.94-2.22 4.54-1.25 1.56-2.89 3.29-5.22 4.28-1.79.82-3.78 1.21-5.62 1.21-.47 0-.94-.03-1.39-.08-2.18-.25-4.16-.79-5.91-1.52-3.5-1.49-6.36-3.35-8.91-5.25-.58-.44-1.15-.73-1.69-1.17l4.51 23.47h.03l.52 2.28c-.31-.7-.22-1.35-1.22-1.49v3.2h-.93l11.24 26.7s-.31-.32-.31-.43c0-.05-.01-.11-.09-.18 0-.01.11-.01.11-.01-.07-.07-.16-.14-.26-.21l-.06-.04-.28-.2-.09-.06c-.09-.06-.18-.12-.28-.18-.04-.03-.08-.06-.13-.08-.11-.07-.22-.13-.34-.2l-.16-.09c-.12-.07-.24-.13-.37-.19l-.17-.08c-.12-.05-.24-.1-.37-.14-.07-.02-.13-.05-.2-.07-.12-.04-.24-.08-.37-.11-.05-.02-.11-.03-.16-.04-.16-.04-.32-.06-.48-.09-.06-.01-.12-.02-.18-.02-.17-.02-.34-.03-.51-.03h-.17c-.19.01-.37.02-.56.04l-.13.03c-.18.03-.36.07-.55.12l-.1.03c-.2.07-.41.15-.61.24l-.13.06c-.2.1-.41.22-.61.35-.05.03-.09.06-.13.09-.21.14-.42.31-.63.49l-.1.09c-.23.2-.45.42-.67.67-.26.29-.53.55-.81.78-.03.02-.05.05-.08.07v.01c-.26.22-.54.42-.82.59l2.15 26.55h.05c2.05 0 3.64.59 3.93 2.13 0 0-1.95 4.13.85 6.04 0 0 5.58 2.34 9.48 5.34h-.03c3.66 0 7.3 2.28 10.27 4.01l-.03 3.15-35.19-.3s-1.02-.86-.92-.86h-.02s-1.25-5.99.21-8.01c1.46-2.03-.06-8.92-.06-8.92l.4-.15-2.15-29.2c-.19-.14-.44-.31-.76-.48-.07-.03-.13-.07-.2-.11-.05-.02-.11-.05-.16-.07-.12-.06-.24-.11-.37-.17l-.13-.05c-.15-.06-.32-.12-.49-.18l-.1-.03c-.21-.06-.42-.13-.65-.18h-.03c-.74-.18-1.61-.29-2.6-.29-.07 0-.14.01-.21.01-.04 0-.09.01-.13.01-.11 2.37-.22 4.8-.33 7.22-.39 8.53-.78 17.08-1.07 23.48.43.15.69.31.69.31s-1.52 6.76-.06 8.79c1.47 2.02.21 8.01.21 8.01h-.02c.1 0-.92.92-.92.92l-35.18.25-.03-3.22c2.97-1.73 6.6-3.95 10.26-3.95h-.03c3.91-3 9.48-5.35 9.48-5.35 2.8-1.9.86-6.16.86-6.16.28-1.46 1.73-2.01 3.63-2.06.34-6.22.75-14.03 1.16-21.84l.23-4.3h-.13c-2.27 0-3.38-.84-4.62-1.95-.12-.11-.25-.2-.38-.29-.04-.03-.09-.05-.13-.07-.1-.06-.19-.11-.29-.15l-.14-.06c-.1-.04-.2-.08-.3-.11-.04-.02-.09-.03-.13-.04-.11-.03-.22-.06-.33-.07l-.12-.02c-.12-.02-.28-.03-.4-.04h-.12c-.08-.01-.16-.01-.24-.01-1.58 0-3.11.73-3.11.73l9.9-27.71v-.9c0 .01-.05.01-.13.01-.32 0-1.19-.09-1.52-.4-.2-.18-.5-.25-.83-.25-.86 0-1.91.43-1.91.43l.58-1.42h.04l4.75-27.44c-2.31.74-5.01 1.26-7.73 2.54-1.41.56-2.73 1.37-4.15 2.06-1.33.8-2.71 1.6-4.01 2.49-1.23.96-2.6 1.78-3.68 2.85-1.15 1.01-2.3 1.98-3.21 3.09-.99 1.04-1.91 2.07-2.61 3.17-.75 1.05-1.53 2.02-1.99 3.05l-.53.98c.22.29.44.57.67.85 1.61 1.97 1.3 3.32.78 4.1 1.68 1.32 2.81 2.29 2.81 2.29 3.45 2.79-.1 5.62-2.53 9.15-1.08 1.57-2.13 2-2.97 2-1.04 0-1.74-.68-1.74-.68s-2.19 1.61-3.05 1.68c-.06 0-.12.01-.19.01-.56 0-1.3-.19-2.05-.46-.62.51-1.67 1.07-3.44 1.63-.32.1-.64.15-.95.15-4.86 0-8.43-11.6-8.43-11.6-.06-.17-.07-.36-.05-.56-.19-1.47.65-3.11 1.88-4.65l-.12-.41c-.22-.92-.67-1.86-1.07-2.94-.46-1.04-.79-2.26-1.44-3.39-.62-1.15-1.19-2.41-1.9-3.64-.77-1.19-1.51-2.46-2.37-3.68-.94-1.15-1.77-2.43-2.81-3.53-1.23-1.39-2.54-2.71-3.89-3.93l-3.98 4.24s-1.8-1.83-4.39-3.54l4.39 31.41-.95-.13.95.94.1.85-1.65.03h-2.5l.24 10.71c.12 1.34.24 2.47.37 3.89.36 4.1.76 8.48 1.15 12.85.47 4.38.35 8.74.56 12.83l.27 9.21c1.76.1 3.08.73 3.34 2.11 0 0-1.94 4.14.86 6.04 0 0 5.57 2.35 9.48 5.35h-.04c3.66 0 7.3 2.28 10.26 4.01l-.03 3.16-35.2-.32s-1.01-.86-.92-.86h-.03s-1.25-5.99.22-8.01c1.46-2.03-.06-8.92-.06-8.92s.35-.13.93-.34l-.24-10.99c-.17-4-.01-8.33-.45-12.56l-1-12.35-.29-3.58c-.48-.63-1.66-1.9-3.33-1.9-1.34 0-2.23 1-2.65 1.58-.12 1.3-.24 2.65-.28 4.02-.19 4-.38 8.28-.57 12.55l-1.05 23.5c.44.16.69.32.69.32s-1.52 6.77-.06 8.8c1.46 2.02.21 8.01.21 8.01h-.02c.1 0-.92.93-.92.93l-35.19.24-.03-3.22c2.96-1.73 6.6-3.94 10.26-3.94h-.03c3.91-3 9.48-5.34 9.48-5.34 2.8-1.9.85-6.16.85-6.16.27-1.46 1.72-2.01 3.63-2.06l1.16-21.84.67-12.71c.03-.79.09-1.56.16-2.31h-.09l.02-4.96-.11.22s-.92-.55-2.54-1.51c-.81-.44-1.75-1.19-2.84-1.96-1.09-.77-2.27-1.85-3.51-3.05-.6-.66-1.22-1.34-1.85-2.05-.58-.8-1.18-1.62-1.76-2.5-1.06-1.85-2.06-3.95-2.55-6.3-1.16-4.71-.36-9.76 1.22-13.95.93-2.42 2.08-4.64 3.34-6.69l-.25-.18c3.79-18.17 11.64-22.06 15.62-22.83l.15-1.39c-6.41-1.84-12.35-6.21-12.36-16.59-.23.05-.46.08-.72.08-3.23 0-7.81-.87-7.81-8.35 0-3.93 1.91-7.22 4.48-8.11-1.84-3.65-4.63-10.43-2.49-14.69 0 0 .47-.72-.22-.72-.39 0-1.13.22-2.53.92 0 0 6.61-17.78 31.09-17.78m112.88 80.36c.44-1.42.8-3.59 1.1-4.59h-6.89c.23 0 .46.17.71.4 1.46 1.29 3.19 2.83 5.07 4.19m11.06 4.74c.7 0 1.14-.17 1.49-.34.4-.14.72-.61 1.14-1.11.38-.6.72-1.37 1.01-2.13.21-.79.46-1.47.58-2.19-.81-.41-1.61-.96-2.32-1.67h-.13s-.09-.1-.23-.27c-2.68 2.57-6.47 3.98-9.4 4.74 1.48.9 3.01 1.7 4.49 2.24 1.14.44 2.21.64 3.07.72.1 0 .19.01.28.01M58.1 147.77v-1.07c-1-.05-.94-.08-.94-.08l-.06-.45v-.29l-.19-.07 1.89-14.52-3.21-2.32c-.77 1.356-1.438 2.75-1.957 4.154-1.027 2.86-1.317 5.6-.72 7.8.22 1.13.79 2.13 1.31 3.1.34.46.72.915 1.034 1.35.39.415.886.82 1.24 1.21.47.42.58.82 1.58 1.2M71.98 28.1c-27.647-.004-35.46 20.176-35.78 21.036-.714 1.925-.18 4.09 1.35 5.462.108.098.22.19.335.276.096 3.013.954 6.122 2.07 8.948-2.067 2.44-3.3 5.873-3.3 9.653 0 6.897 3.26 11.5 8.907 12.902.902 5.328 3.415 9.64 7.37 12.712-4.252 3.72-8.572 10.41-11.073 22.42l-.03.12c-1.13 1.99-2.06 3.96-2.83 5.97-2.17 5.74-2.67 11.71-1.43 16.85.68 3.22 2.09 5.91 3.08 7.66.05.08.1.17.15.25.58.89 1.15 1.68 1.7 2.45l.18.25c.1.14.21.28.33.41l1.86 2.06c.08.08.16.17.24.25 1.51 1.45 2.79 2.61 4.09 3.52.29.2.58.41.85.61.8.58 1.56 1.14 2.39 1.6l.11.06v1.82c0 .17.01.34.03.51-.04.49-.07 1.02-.1 1.57l-.11 1.94-.58 10.73L51 194.9l-.184 3.44c-2.81 1.48-3.56 4.05-3.744 5.03-.2 1.05-.118 2.01.35 2.98.03.07.06.16.09.26-1.85.86-4.91 2.41-7.647 4.31-4.14.52-7.84 2.68-10.63 4.31l-.35.2c-1.546.9-2.49 2.56-2.48 4.35l.023 3.22c.02 2.75 2.25 4.96 5 4.96h.03l35.19-.248c1.23-.01 2.41-.47 3.32-1.295.3-.277.69-.63 1.08-1.067.17-.16.33-.34.472-.53.2.27.434.52.69.74.365.38.72.68.99.91.89.75 2.02 1.17 3.19 1.18l35.19.31h.046c2.74 0 4.972-2.21 5-4.95l.03-3.16c.02-1.8-.93-3.466-2.48-4.37l-.56-.326c-2.74-1.6-6.36-3.73-10.41-4.24-2.73-1.89-5.78-3.434-7.63-4.304.017-.033.02-.06.03-.07.448-.95.58-2.02.39-3.05-.33-1.75-1.38-3.62-3.36-4.84l-.17-5.71-.002-.1c-.065-1.38-.095-2.79-.13-4.29-.055-2.83-.12-5.75-.45-8.79l-.1-1.17-.985-11.6c-.07-.764-.14-1.447-.21-2.12l-.16-1.606-.13-5.55c1.09-.205 2.09-.77 2.83-1.616.93-1.053 1.36-2.45 1.21-3.85l-.08-.71c.02-.36.02-.72-.04-1.086l-3.14-22.52c.69-.26 1.32-.68 1.84-1.23l.44-.47.05.06.12.13c.45.47.91 1.08 1.4 1.73.33.44.67.9 1.05 1.36.42.6.82 1.25 1.25 1.93.29.45.57.9.85 1.34.35.61.67 1.25 1 1.92.25.5.5.98.75 1.46.02.04.05.09.07.13.22.38.42.92.63 1.49.16.42.32.85.52 1.31.1.26.2.51.3.75-1.02 1.87-1.48 3.71-1.36 5.5 0 .668.09 1.31.28 1.916 1.41 4.56 5.5 15.1 13.21 15.1.83 0 1.66-.13 2.46-.38 1.02-.32 1.92-.67 2.72-1.05.45.07.87.1 1.27.1.21 0 .42-.01.61-.024.43-.03 1.42-.11 3.18-1.07.37.06.77.095 1.19.095 1.57 0 4.57-.54 7.07-4.16.38-.55.82-1.12 1.28-1.71 1.27-1.63 2.58-3.3 3.21-5.39.98-3.25-.07-6.43-2.88-8.73-.09-.08-.31-.26-.63-.53-.08-.94-.35-1.98-.91-3.09l.18-.24.5-.69c.05-.07.09-.14.14-.21.5-.78 1.26-1.62 2.02-2.41.08-.09.16-.18.24-.28.55-.67 1.38-1.4 2.27-2.18l.38-.33.21-.19c.42-.42 1.08-.88 1.77-1.37.43-.31.88-.63 1.34-.99.93-.63 1.93-1.23 2.98-1.85l.49-.3c.49-.24.96-.49 1.43-.74.6-.32 1.18-.62 1.71-.87l-3.19 18.47-.45 1.09c-.78 1.88-.38 4.07 1.08 5.49.41.4.88.73 1.39.96l-8.06 22.56c-.69 1.93-.19 4.12 1.35 5.47.94.83 2.11 1.26 3.3 1.26.74 0 1.49-.17 2.19-.53.21-.09.5-.18.72-.22.59.5 1.37 1.1 2.37 1.61l-.01.19-.46 8.65-.51 9.56c-2.81 1.48-3.56 4.05-3.74 5.04-.2 1.05-.12 2.01.35 2.97.03.08.06.17.09.26-1.85.87-4.91 2.41-7.65 4.31-4.13.52-7.82 2.67-10.61 4.3l-.36.21c-1.55.9-2.49 2.57-2.48 4.36l.03 3.22c.02 2.75 2.26 4.96 5 4.96h.03l35.18-.25c1.23-.01 2.41-.47 3.32-1.3.3-.27.69-.63 1.08-1.06.17-.17.33-.35.48-.54.2.27.43.51.69.73.37.39.73.69 1 .92.89.75 2.02 1.17 3.18 1.18l35.19.31h.04c2.74 0 4.97-2.2 5-4.95l.03-3.15c.01-1.79-.93-3.46-2.49-4.37l-.56-.33c-2.73-1.6-6.35-3.72-10.4-4.24-2.72-1.88-5.77-3.43-7.62-4.3.01-.03.02-.06.03-.07.45-.95.58-2.02.39-3.05-.38-2.02-1.68-4.12-4.21-5.29l-1.65-20.33c.09-.09.18-.19.26-.28.08-.08.17-.17.28-.27l.07-.06c.04-.03.08-.07.13-.1l.01-.01.09-.06c.02-.01.04-.01.05-.02l.08.01h.02l.11.03.06.02c.02 0 .05.02.09.03l.1.04.06.03c.19.25.4.5.63.74.97 1.01 2.28 1.53 3.6 1.53.95 0 1.91-.27 2.75-.83 2.01-1.32 2.79-3.89 1.85-6.11l-9.82-23.32c.94-1.16 1.35-2.72.99-4.28l-.53-2.28c-.03-.12-.06-.24-.1-.36l-2.24-11.68c.51.24 1.04.48 1.58.71 2.31.97 4.76 1.6 7.3 1.89.63.07 1.29.11 1.95.11 2.64 0 5.28-.56 7.64-1.63 3.44-1.49 5.7-3.98 7.1-5.73.05-.06.1-.13.14-.19 1.28-1.77 1.92-3.4 2.44-4.71.11-.28.22-.55.33-.82.05-.11.09-.22.13-.34.17-.5.34-1 .49-1.5 2.84-1.34 4.43-3.41 5.14-4.56.48-.61.83-1.24 1.1-1.72.82-1.47 1.3-3.23 1.53-4.2.31-.71.56-1.4.73-2.08l5.13-6.85c2.33-3.14 1.69-7.55-1.4-9.86-.4-.3-.83-.56-1.28-.76.06-2.91-1.56-5.73-4.36-7.03-.5-.23-1.01-.4-1.52-.52-.77-1.24-1.88-2.29-3.29-2.96-1.05-.5-2.22-.77-3.38-.77-1.31 0-2.56.33-3.68.92-1.18-1.58-2.96-2.71-5.06-3.03-4.63-25.31-16.27-39.65-32.48-39.65-1.6 0-3.25.14-4.92.42h-1.43c-1.64-.27-3.25-.4-4.82-.4-8.7 0-16.32 4.19-22.04 12.13-13.1 18.17-14.01 52.61-11.39 60.46.37 1.13.88 2.19 1.52 3.18-.25.18-.51.35-.76.53-1.11.77-2.37 1.64-3.56 2.74l-.2.16c-1.44 1.24-2.93 2.51-4.3 4.07-1.19 1.23-2.54 2.71-3.73 4.42-.19-.32-.38-.65-.59-.97-.04-.08-.09-.15-.14-.22-.31-.44-.61-.89-.92-1.34-.7-1.04-1.43-2.12-2.27-3.21-.05-.07-.11-.14-.17-.21-.36-.42-.72-.86-1.07-1.3-.79-.98-1.69-2.08-2.73-3.13-.49-.51-.99-1.02-1.51-1.52.4-1.6 0-3.35-1.2-4.63-3.94-4.2-7.59-7.09-10.88-9.06 3.1-2.95 5.08-6.77 5.86-11.34 5.34-1.54 8.4-6.07 8.4-12.77 0-3.76-1.21-7.18-3.26-9.62 2.98-7.74 2.98-9.74 2.98-10.63 0-5.87-3.33-14.31-12.25-15.95-1.75-2.95-5.38-5.21-11.19-7.01-4.23-1.32-8.23-1.93-8.39-1.95-.13-.02-.25-.03-.38-.04-1.48-.12-2.95-.17-4.38-.17z" fill="#333"/><path fill="#1A1A1A" d="M139.354 62.484l1.95 45.897h49.076l1.36-31.09L184.73 51z"/><path fill="#fdb" d="M161.9 114.225l-.578.092c-.348.067-.855.164-1.506.287-1.365.264-3.344.753-5.68 1.445-2.316.74-5.034 1.64-7.77 2.93-1.412.56-2.736 1.36-4.154 2.06-1.338.8-2.718 1.6-4.017 2.49-1.23.96-2.603 1.78-3.683 2.85-1.15 1.01-2.295 1.98-3.204 3.09-.993 1.04-1.912 2.07-2.61 3.17-.752 1.06-1.53 2.02-1.997 3.06-.53.99-1.02 1.9-1.46 2.71l-.83 2.23-.74 1.93-10.45-3.24.99-2.57c.32-.82.71-1.8 1.16-2.94.59-1.07 1.25-2.28 1.97-3.59.67-1.36 1.67-2.64 2.69-4.03.97-1.43 2.16-2.77 3.45-4.1 1.22-1.42 2.67-2.65 4.14-3.9 1.42-1.33 3.07-2.34 4.63-3.5 1.6-1.08 3.27-2.03 4.91-2.98 1.69-.82 3.31-1.75 4.95-2.41 3.24-1.47 6.39-2.49 9.08-3.32 2.72-.78 5.01-1.31 6.66-1.62.8-.16 1.51-.27 2-.35l.67-.1 1.42 10.27zm12.568-10.28l1.384 1.417c.915.91 2.256 2.198 3.924 3.66 1.67 1.46 3.66 3.098 5.857 4.637 2.19 1.51 4.62 2.97 6.917 3.81 1.14.43 2.21.64 3.078.71.873.05 1.377-.15 1.77-.34.4-.15.727-.61 1.14-1.12.38-.6.718-1.37 1.014-2.13.23-.87.51-1.6.622-2.4.15-.77.3-1.42.346-2.03l.215-1.85 10.88 1.13-.373 2.4c-.09.75-.326 1.71-.588 2.8-.21 1.06-.684 2.36-1.15 3.72-.596 1.4-1.325 2.94-2.488 4.54-1.247 1.56-2.884 3.27-5.218 4.27-2.25 1.03-4.824 1.35-7.01 1.1-2.182-.25-4.16-.83-5.91-1.56-3.503-1.49-6.364-3.43-8.91-5.33-2.52-1.92-4.673-3.84-6.464-5.53-1.785-1.7-3.198-3.17-4.18-4.22-.98-1.09-1.546-1.71-1.546-1.71l6.69-6.01zm-44.03 39.99s-13.496-11.54-16.483-9.5c0 0-11.508 7.506-8.42 12.17 3.096 4.666 4.49 3.105 4.49 3.105s3.564 3.728 5.027 4.6c1.158.69 3.754 1.88 5.098 1.767.865-.07 3.053-1.676 3.053-1.676s2.27 2.2 4.7-1.32c2.44-3.52 5.98-6.35 2.534-9.14zm48.79 2.05l5.58 68.785-11.266.915-5.065-68.83zm-12.47 1.045l-.888 10.717c-.135 1.607-.278 3.35-.433 5.192-.126 1.84-.365 3.79-.424 5.78-.184 4-.376 8.26-.57 12.53-.778 17.05-1.552 34.1-1.552 34.1l-11.3-.25 1.84-34.63.68-12.71c.08-2.04.33-3.96.48-5.81.17-1.84.32-3.58.47-5.19.59-6.43.97-10.71.97-10.71l10.74.97z"/><path fill="#FBB03B" d="M154.467 144.083l-10.997 30.02s3.342-1.73 5.43.125c2.088 1.856 3.76 2.967 11.273.618 7.52-2.35 10.86 1.113 10.86 1.113s7.937 3.33 12.32-1.61c4.39-4.95 9.19-.02 9.19-.02l-12.845-30.48"/><path fill="#333" d="M85.046 143.176l.485 22.205H74.92s-1.353-2.24-3.57-2.24c-1.883 0-2.92 2-2.92 2l-10.84.32.062-22.46"/><path fill="#0071BC" d="M82.508 145.192l.65 2.896c.23.894.382 2.124.608 3.475.21 1.365.455 2.905.717 4.583.26 1.677.545 3.496.843 5.422.17 1.88.35 3.86.533 5.91.36 4.1.76 8.476 1.15 12.847.47 4.38.35 8.73.56 12.82.12 4.09.24 7.983.33 11.255l.32 10.98h-11.3l-.25-10.768c-.07-3.205-.16-6.98-.25-10.993-.17-4-.02-8.34-.46-12.56l-1.02-12.45c-.16-1.99-.32-3.92-.47-5.73-.26-1.75-.5-3.4-.73-4.93-.22-1.53-.43-2.93-.6-4.17-.2-1.25-.3-2.31-.54-3.25l-.62-2.9 10.49-2.45zm18.977 70.188h.032c-3.908-3-9.478-5.093-9.478-5.093-2.81-1.906-.86-5.915-.86-5.915-.94-4.965-15.44.58-15.44.58s1.52 6.64.06 8.666c-1.47 2.022-.22 7.763-.22 7.763h.01c-.1 0 .92 1.11.92 1.11l35.19.44.03-3.34c-2.96-1.73-6.61-4.19-10.27-4.19zM70.17 147.03s-.36 4.288-.89 10.717c-.137 1.607-.283 3.35-.433 5.192-.13 1.84-.366 3.79-.427 5.78-.186 4-.375 8.26-.57 12.53l-1.55 34.1-11.3-.25 1.838-34.63c.232-4.33.462-8.66.678-12.71.082-2.04.33-3.96.474-5.81.17-1.84.323-3.58.47-5.19.578-6.43.966-10.71.966-10.71l10.746.96zm-28.428 68.35h-.028c3.905-3 9.478-5.093 9.478-5.093 2.803-1.906.854-5.915.854-5.915.937-4.965 15.433.58 15.433.58s-1.53 6.64-.07 8.666c1.47 2.022.21 7.763.21 7.763h-.02c.09 0-.92 1.11-.92 1.11l-35.19.44-.03-3.34c2.96-1.73 6.6-4.19 10.26-4.19z"/><path fill="#F2C49C" d="M118.75 132.598s-14.803 9.79-13.667 13.226c0 0 4.05 13.13 9.384 11.444 5.336-1.686 4.218-3.457 4.218-3.457s4.565-2.4 5.807-3.56c.98-.92 2.84-3.09 3.098-4.41.17-.85-.77-3.4-.77-3.4s2.738-1.57.02-4.89c-2.718-3.31-4.458-7.49-8.09-4.95zM70.66 112.24l-1.808 1.483c-1.168.997-2.826 2.475-4.692 4.352-3.68 3.71-8.374 9.248-10.51 15.028-1.02 2.86-1.326 5.594-.73 7.793.222 1.135.762 2.135 1.283 3.1.336.464.66.916.975 1.354.388.417.764.82 1.122 1.21.815.737 1.544 1.443 2.344 1.977.8.536 1.42 1.064 2.072 1.395l1.938 1.127-5.167 9.64s-.92-.55-2.536-1.51c-.81-.44-1.75-1.19-2.84-1.96-1.09-.77-2.26-1.85-3.5-3.05l-1.85-2.05c-.57-.8-1.18-1.62-1.75-2.5-1.05-1.85-2.06-3.95-2.55-6.3-1.15-4.71-.36-9.76 1.22-13.96 1.62-4.21 3.9-7.83 6.23-10.92 2.35-3.08 4.75-5.69 6.89-7.81 2.15-2.12 4.03-3.76 5.38-4.9l1.61-1.31.62-.47 6.28 8.24zm8.803-11.062s.23.053.666.162c.52.12 1.16.313 1.94.56 1.57.517 3.76 1.28 6.24 2.5 1.26.557 2.55 1.323 3.94 2.073 1.33.85 2.79 1.67 4.16 2.713 2.83 1.974 5.6 4.433 8.15 7.112 1.31 1.3 2.39 2.803 3.58 4.185 1.1 1.44 2.06 2.947 3.05 4.368.91 1.47 1.67 2.95 2.45 4.33.82 1.37 1.29 2.78 1.88 4.03.53 1.27 1.1 2.41 1.41 3.47l.9 2.73.77 2.38-10.58 2.78-.6-2.02c-.19-.65-.41-1.43-.67-2.33-.22-.92-.67-1.86-1.07-2.94-.46-1.04-.8-2.26-1.44-3.39-.61-1.15-1.19-2.41-1.9-3.65-.78-1.18-1.52-2.46-2.37-3.68-.94-1.14-1.77-2.43-2.82-3.53-2-2.26-4.2-4.38-6.48-6.09-1.1-.91-2.29-1.61-3.35-2.37-1.14-.65-2.17-1.34-3.2-1.82-2.01-1.08-3.77-1.76-4.98-2.21-.57-.19-1.01-.34-1.32-.44l-.51-.14 2.08-8.74z"/><path fill="#082031" d="M78.035 99.55s8.957-5.258 23.76 10.515L89.33 123.307s-7.597-7.79-14.022-6.23M89.33 151.15l-32.13-5.36 5.646-50.41h18.696zm-24.534-51.6s-12.853-1.947-18.046 22.98l15.06 10.904s-.716-17.917 5.71-16.355"/><path fill="#C69C6D" d="M79.203 96.823l-7.01 10.128-7.79-10.9"/><path fill="#E2B593" d="M92.108 73.475c0 4.613.67 8.353 3.903 8.353 3.24 0 7.82-.866 7.82-8.353 0-4.613-2.62-8.353-5.86-8.353-3.23 0-5.86 3.74-5.86 8.353z"/><path fill="#C69C6D" d="M93.08 73.442c.013-1.29.28-2.762.91-4.015.32-.637.73-1.256 1.305-1.792.57-.524 1.388-.974 2.332-.987.358.034.283.003.62.073.273.06.503.14.683.23.403.18.726.43 1.028.69.57.54.706 1.16 1.026 1.79.634 1.28.635 2.67.635 4.05v.16c0 .91-.44 1.65-1.35 1.66-.91.01-1.52-.71-1.52-1.62 0-.06.07-.13.07-.2.1-.91.06-1.9-.24-2.74-.28-.87-.83-1.42-.99-1.47-.1-.05-.35-.04-.68.18-.32.22-.84.58-1.11 1.01-.56.88-1.21 1.88-1.21 3.07v.05c0 .54-.34.92-.87.87-.5-.05-.67-.48-.67-.98z"/><path fill="#E2B593" d="M53.365 73.475c0 4.613-.67 8.353-3.9 8.353-3.234 0-7.814-.866-7.814-8.353 0-4.613 2.63-8.353 5.86-8.353 3.24 0 5.86 3.74 5.86 8.353z"/><path fill="#C69C6D" d="M52.396 73.442c-.012-1.29-.28-2.762-.913-4.015-.317-.637-.727-1.256-1.304-1.792-.57-.524-1.39-.974-2.33-.987-.36.034-.29.003-.63.073-.27.06-.5.14-.69.23-.4.18-.73.43-1.03.69-.57.54-.82 1.16-1.15 1.79-.64 1.28-.75 2.67-.75 4.05v.16c0 .91.55 1.65 1.46 1.66.91.01 1.57-.71 1.58-1.62 0-.06-.05-.13-.06-.2-.1-.91-.04-1.9.26-2.74.27-.87.83-1.42.98-1.47.1-.05.35-.04.68.18.32.22.64.58.91 1.01.55.88.88 1.88 1 3.07v.05c.06.54.53.92 1.06.87.5-.05.87-.48.87-.98z"/><path fill="#F2C49C" d="M95.785 81.725c0 16.408-15.768 17.827-22.802 17.827-8.006 0-22.805-1.42-22.805-17.827 0-16.412-1.698-37.48 22.805-37.48 24.74-.002 22.802 21.068 22.802 37.48z"/><path fill="#333" d="M45.892 63.49l4.368 12.614 6.305-14.718m43.502 2.91l-4.15 11.808-6.31-14.718"/><path fill="#F5F5F5" d="M68.762 73.45c0 3.75-3.038 6.79-6.79 6.79-3.748 0-6.787-3.04-6.787-6.79 0-3.747 3.04-6.784 6.788-6.784 3.75 0 6.79 3.037 6.79 6.783z"/><path fill="#333" d="M66.748 73.288c0 2.607-2.106 4.718-4.712 4.718-2.603 0-4.712-2.11-4.712-4.718 0-2.602 2.11-4.707 4.712-4.707 2.606 0 4.712 2.11 4.712 4.71z"/><path fill="#F5F5F5" d="M92.05 73.45c0 3.75-3.04 6.79-6.786 6.79-3.75 0-6.793-3.04-6.793-6.79 0-3.747 3.05-6.784 6.8-6.784s6.79 3.037 6.79 6.783z"/><path fill="#333" d="M90.035 73.288c0 2.607-2.106 4.718-4.714 4.718-2.6 0-4.71-2.11-4.71-4.718 0-2.602 2.11-4.707 4.71-4.707 2.61 0 4.72 2.11 4.72 4.71zM72.327 93.77c-6.116 0-9.97-2.73-10.21-2.9-.695-.507-.85-1.48-.34-2.177.503-.693 1.475-.852 2.168-.347.3.207 7.45 5.154 17.786-.124.77-.386 1.71-.087 2.1.68s.09 1.7-.68 2.093c-4.06 2.076-7.73 2.775-10.82 2.775zM89.72 51.684s-6.792 8.247-21.346 9.22l7.114-7.28s-15.767 10.51-23.855 10.51l-1.94.243-2.183 3.517s-6.914-11.16-3.884-17.223c0 0 1.136-1.73-2.745.21 0 0 7.32-19.69 35.09-17.62 0 0 14.96 2.26 16.42 7.48 1.12 3.99-2.67 10.96-2.67 10.96zm-1.94-1.617s0 11.16 3.877 15.525l7.272 1.36s4.61-10.82 4.61-13.732c0-2.912-1.7-12.13-11.89-11.157-10.19.968-3.88 8.004-3.88 8.004zM76.087 64.24c-.053.043.957-.68 2.48-1.4.75-.415 1.686-.727 2.677-1.148.503-.178 1.04-.32 1.585-.486.54-.144 1.08-.358 1.67-.424 1.15-.146 2.3-.485 3.43-.42 1.12.027 2.18-.108 3.08.093 1.82.327 3.03.548 3.03.548 1.53.278 2.55 1.748 2.27 3.28-.28 1.534-1.75 2.554-3.29 2.275-.13-.023-.26-.058-.39-.097l-.48-.16-2.08-.7c-.62-.27-1.43-.24-2.27-.41-.85-.2-1.8-.04-2.74-.08-.47-.02-.94.1-1.41.14l-1.38.2c-.87.24-1.73.37-2.41.63-1.42.43-2.21.85-2.27.87-.75.43-1.7.17-2.13-.58-.43-.74-.17-1.69.58-2.12zm-7.034 2.703c-.062-.016-.846-.433-2.267-.863-.68-.262-1.54-.397-2.412-.632l-1.38-.202c-.467-.047-.937-.167-1.41-.142-.943.042-1.885-.125-2.73.08-.836.17-1.646.143-2.27.414l-2.078.7-.457.16c-1.48.496-3.09-.3-3.59-1.772-.5-1.478.29-3.082 1.77-3.583.12-.042.27-.075.39-.1 0 0 1.21-.222 3.03-.55.9-.2 1.97-.065 3.08-.093 1.13-.063 2.27.275 3.43.42.58.066 1.12.28 1.67.425.54.166 1.07.308 1.58.486.98.43 1.92.74 2.67 1.15 1.52.72 2.53 1.45 2.48 1.4.75.43 1 1.38.58 2.13-.43.75-1.38 1.01-2.12.58z"/><path fill="#754C24" d="M198.078 215.38h.03c-3.904-3-9.48-5.093-9.48-5.093-2.798-1.906-.852-5.915-.852-5.915-.935-4.965-15.435.58-15.435.58s1.53 6.64.07 8.666c-1.46 2.022-.21 7.763-.21 7.763h.02c-.09 0 .92 1.11.92 1.11l35.19.44.03-3.34c-2.96-1.73-6.6-4.19-10.26-4.19zm-59.744 0h-.03c3.908-3 9.48-5.093 9.48-5.093 2.8-1.906.853-5.915.853-5.915.933-4.965 15.434.58 15.434.58s-1.52 6.64-.05 8.666c1.47 2.022.22 7.763.22 7.763h-.02c.1 0-.92 1.11-.92 1.11l-35.18.44-.02-3.34c2.97-1.73 6.6-4.19 10.26-4.19z"/><path fill="#F7931E" d="M182.81 143.386l-33.5-.016 7.01-39.99h18.697z"/><path fill="#FFEDDC" d="M160.505 116.38h10.327c1.046 0 1.787-.883 1.787-1.93v-11.07h-13.8l-.09 11.542c0 1.047.73 1.46 1.77 1.46z"/><path fill="#F4D1B0" d="M168.62 104.615c0 2.58-1.3 2.404-3.5 2.404-2.203 0-3.5.17-3.5-2.41v-9.35c0-2.58 1.297-4.68 3.5-4.68 2.2 0 3.5 2.09 3.5 4.67v9.35z"/><path fill="#D3BD8D" d="M184.713 73.442c0 4.535.66 8.21 3.84 8.21 3.18 0 7.672-.854 7.672-8.21 0-4.537-2.572-8.21-5.75-8.21-3.185 0-5.762 3.673-5.762 8.21z"/><path fill="#C69C6D" d="M185.664 73.412c.018-1.27.278-2.72.9-3.95.314-.624.715-1.235 1.28-1.763.563-.52 1.36-.96 2.29-.97.355.03.28 0 .616.07.263.05.494.14.666.22.396.17.714.42 1.005.67.58.52.48 1.13.8 1.76.63 1.25.41 2.62.41 3.98v.15c0 .89-.21 1.62-1.1 1.63-.89.01-1.37-.71-1.38-1.6 0-.07.13-.14.13-.2.1-.9.09-1.88-.21-2.7-.26-.85-.79-1.4-.94-1.45-.09-.05-.34-.04-.66.17-.31.21-.6.57-.86.98-.54.87-.96 1.84-.96 3.01v.05c0 .52-.55.9-1.07.84-.49-.05-.88-.47-.88-.96z"/><path fill="#D3BD8D" d="M146.627 73.442c0 4.535-.657 8.21-3.838 8.21-3.18 0-7.68-.854-7.68-8.21 0-4.537 2.57-8.21 5.75-8.21s5.76 3.673 5.76 8.21z"/><path fill="#C69C6D" d="M145.673 73.412c-.016-1.27-.275-2.72-.896-3.95-.317-.624-.714-1.235-1.283-1.763-.558-.52-1.358-.96-2.29-.97-.35.03-.28 0-.607.07-.268.05-.5.14-.674.22-.394.17-.716.42-1.007.67-.567.52-.524 1.13-.843 1.76-.62 1.25-.453 2.62-.453 3.98v.15c0 .89.256 1.62 1.146 1.63.896.01 1.406-.71 1.415-1.6 0-.07-.11-.14-.12-.2-.1-.9-.08-1.88.22-2.7.27-.85.8-1.4.96-1.45.1-.05.35-.04.67.17.32.21.63.57.89.98.55.87.87 1.84.99 3.01l.01.05c.06.52.52.9 1.05.84.5-.05.86-.47.86-.96z"/><path fill="#fdb" d="M188.326 81.55c0 16.134-15.502 17.527-22.418 17.527-7.874 0-22.418-1.394-22.418-17.528s-1.67-36.85 22.418-36.85c24.328 0 22.418 20.71 22.418 36.85z"/><path fill="#F48B73" d="M168.532 93.355c0 2.02-1.637 3.656-3.655 3.656-2.02 0-3.657-1.63-3.657-3.65s1.636-3.66 3.657-3.66c2.02 0 3.655 1.64 3.655 3.66z"/><circle fill="#F5F5F5" cx="155.085" cy="73.418" r="6.675"/><path fill="#333" d="M159.78 73.26c0 2.558-2.07 4.63-4.63 4.63s-4.636-2.072-4.636-4.63c0-2.562 2.076-4.63 4.635-4.63 2.56 0 4.63 2.068 4.63 4.63z"/><circle fill="#F5F5F5" cx="177.982" cy="73.418" r="6.675"/><path fill="#333" d="M182.673 73.26c0 2.558-2.067 4.63-4.63 4.63-2.562 0-4.634-2.072-4.634-4.63 0-2.562 2.07-4.63 4.63-4.63s4.63 2.068 4.63 4.63zm-38.786-7.25s-1.905 36.58 4.453 49.303c0 0-13.673-.497-16.535-9.08-2.86-8.585-.633-71.853 33.068-65.853h2.284c33.702-6 35.93 57.268 33.068 65.852-2.863 8.584-16.537 9.822-16.537 9.822 6.36-12.72 2.173-52.293 2.173-52.293l-13.67-17.57-13.35.53-14.95 19.29zm21.186 27.914c-4.532 0-8.084-2.344-8.084-5.337 0-.647.52-1.17 1.16-1.17.64 0 1.17.523 1.17 1.17 0 1.42 2.36 3 5.74 3s5.74-1.58 5.74-3c0-.647.52-1.17 1.17-1.17.64 0 1.17.523 1.17 1.17 0 2.993-3.55 5.337-8.08 5.337zm.992-44.862s-14.506 21.666-29.567 20.63l15.977-22.124 13.43-3.066.16 4.56zm.09-.268s12.83 23.364 27.89 22.327L180.04 47.57l-14.15-2.88.268 4.106z"/><path fill="#F7931E" d="M153.62 143.38h29v4h-29z"/><path fill="#FFEDDC" d="M149.31 143.126l-.583 1.798s2.27-.646 2.987 0c.713.648 2.143.91 3.765 0 1.62-.908 4.86-.904 6.49.134 1.62 1.037 6.23-.195 6.23-.195s3.7-1.17 6.55.71c2.86 1.885 7.01-.905 7.01-.905s1.04-.584 1.82 1.166l-.78-2.612-33.5-.096z"/><path fill="#F7931E" d="M148.9 174.23c.036.034.074.066.115.1 2.255-6.31 5.98-17.166 5.618-19.08-.517-2.724-2.728-2.075-5.064 4.675-1.28 3.694-3.88 9.556-5.97 14.115.61-.285 3.44-1.46 5.3.19zm43.453-.08c-2.135-3.93-11.462-20.847-13.182-19.81-1.54.923 1.97 13.264 3.3 20.864.31-.254.61-.533.89-.853 3.88-4.37 8.08-1.03 9-.2zM165.8 156.287c-4.102.493-5.867 10.968-6.68 18.858.358-.106.668-.178 1.053-.3 6.408-2.002 9.76.204 10.612.906.096-7.49-.424-20.01-4.984-19.46z"/><path fill="#fdb" d="M218.07 101.733s.944 1.605-.55 4.713c0 0-.315 2.023-1.06 3.352l-.696 1.25s-2.815 6.194-11.69 2.63c0 0-8.427-.954-8.35-8.235l5.48-9.623 16.865 5.913zm-17.497 6.17s-.392 2.92-2.884 2.862c0 0-4.63-5.068-2.14-8.264"/><path fill="#fdb" d="M208.453 101.733c1.103-2.605 2.273-5.174 3.418-7.755 1.19-2.566 2.33-5.148 3.56-7.698.68-1.417.08-3.114-1.34-3.788-1.41-.673-3.11-.08-3.79 1.333-.04.084-.07.167-.1.25-.97 2.652-2.02 5.277-3.02 7.92-1.05 2.618-2.07 5.25-3.17 7.855-.51 1.232.07 2.65 1.3 3.165 1.23.52 2.65-.057 3.17-1.282zm-5.12-1.108l2.37-17.517c.2-1.486-.865-2.854-2.354-3.058-1.49-.194-2.98.833-3.09 2.328 0 .025-.01.065-.01.093l-1.75 17.59c-.13 1.33.85 2.52 2.18 2.65 1.3.14 2.48-.79 2.65-2.08zm3.537-5.043s-2.896 2.292-3.9-.863l.52 5.16 3.38-4.3zm6.235 8.276c1.227-2.393 2.397-4.813 3.59-7.21 1.158-2.423 2.35-4.834 3.482-7.27.593-1.278.036-2.798-1.238-3.39-1.27-.587-2.76-.055-3.38 1.187-1.18 2.41-2.31 4.85-3.47 7.27-1.13 2.44-2.27 4.87-3.36 7.323-.55 1.223 0 2.65 1.23 3.188 1.17.525 2.54.03 3.13-1.098zm1.7 4.707l9.3-12.463c.674-.906.488-2.185-.41-2.856-.88-.656-2.108-.5-2.805.337l-9.89 12c-.845 1.03-.7 2.556.332 3.403 1.03.853 2.55.705 3.406-.325l.068-.09z"/><path fill="#E2AB74" d="M200.696 103.16"/><path fill="#fdb" d="M200.473 104.23c-.45-1.134-.91-2.056-1.443-3.036-.533-.962-1.128-1.903-1.79-2.807-1.33-1.804-2.962-3.545-5.167-4.8-1.23-.69-3.055.224-3.75 1.448-.698 1.225-.555 3.286.675 3.97l.06.032c1.303.73 2.844 1.416 3.917 2.822.534.7 1.175 1.21 1.63 2 .443.77.962 1.53 1.26 2.25l.074.02c.51 1.23 1.96 1.78 3.19 1.27 1.22-.52 1.82-1.94 1.33-3.18z"/><path fill="#fff" d="M190.422 98.424s.34-1.054 1.08-1.19c0 0-.754-1.298-1.685-1.13-.932.17-1.012 1.027-1.012 1.027s.508.82 1.617 1.3z"/><path fill="#082031" d="M72.632 143.27l10.37 2.727 6.33 5.875.095.727-1.653-.22H63.53c-.296-5-6.33-5.77-6.33-5.77l2.627-2.69 12.805-.65z"/><path fill="#333" d="M172.33 61.21c-.083.018 1.037-.253 2.374-.3.686.02 1.476-.024 2.3.096.832.058 1.7.2 2.548.403.86.14 1.682.41 2.443.66.773.21 1.475.47 2.053.74 1.162.49 1.938.83 1.938.83l-2.07-.37c-.607-.13-1.33-.22-2.108-.25-.77-.06-1.59-.14-2.407-.08-.81 0-1.61.06-2.35.18-.74.06-1.4.27-1.97.38-1.14.33-1.61.6-1.69.63-.81.29-1.7-.14-1.99-.95-.29-.81.13-1.7.94-1.99zm-13.067 2.728c-.06-.012-.77-.284-2.1-.566-1.312-.252-3.124-.523-4.96-.516-.922-.024-1.85-.018-2.71.088-.87.075-1.693.115-2.375.274-1.39.257-2.316.43-2.316.43s.878-.357 2.192-.9c.653-.303 1.457-.515 2.316-.775.86-.29 1.802-.495 2.753-.67 1.9-.404 3.863-.522 5.354-.547 1.48-.003 2.604.16 2.546.147.838.19 1.362 1.03 1.166 1.867-.2.84-1.03 1.36-1.87 1.168zm-88.61 24.88c-.66 0-1.273-.425-1.485-1.087-.26-.82.192-1.69 1.013-1.95 1.7-.54 2.16-1.29 2.16-1.6l-.01-12.28c0-.85.79-1.55 1.65-1.55.86 0 1.65.7 1.65 1.56v12.13s.3 3.23-4.4 4.72c-.15.05-.4.07-.56.07zm93.687 0c-.66 0-1.274-.425-1.485-1.087-.26-.82.192-1.69 1.013-1.95 1.697-.54 2.152-1.29 2.155-1.6l-.01-12.27c0-.85.442-1.55 1.304-1.55.86 0 1.303.7 1.303 1.56v12.13s.64 3.23-4.063 4.72c-.16.05-.062.07-.216.07z"/></svg>