<?xml version="1.0" encoding="utf-8"?>
<!-- Generator: Adobe Illustrator 16.0.0, SVG Export Plug-In . SVG Version: 6.00 Build 0)  -->
<!DOCTYPE svg PUBLIC "-//W3C//DTD SVG 1.1//EN" "http://www.w3.org/Graphics/SVG/1.1/DTD/svg11.dtd">
<svg version="1.1" id="Layer_1" xmlns="http://www.w3.org/2000/svg" xmlns:xlink="http://www.w3.org/1999/xlink" x="0px" y="0px"
	 width="256px" height="256px" viewBox="0 0 256 256" enable-background="new 0 0 256 256" xml:space="preserve">
<path fill="#333333" d="M129.092,213.45c-26.738,0-68.396-9.392-72.71-34.255c-21.374-0.68-25.92-16.063-25.92-29.012
	c0-12.511,5.85-23.371,14.326-27.383c-0.065-1.43-0.12-3.38-0.102-5.73c-3.584,2.22-7.237,3.34-10.925,3.34
	c-13.85,0-22.09-15.78-22.44-16.45c-0.64-1.25-0.57-2.76,0.18-3.95c0.74-1.16,2.02-1.86,3.39-1.86c0.04,0,0.08,0.12,0.11,0.12
	c0.38,0.01,0.73,0.14,1.09,0.14h0.01c10.52,0,10.79-3.84,11.45-12.82c0.59-7.91,1.32-17.82,11.14-25.38
	c5.23-4.02,10.46-6.09,15.52-6.09c4.05,0,7.95,1.3,11.46,3.83c10.56-10.2,24.74-15.37,42.18-15.37c6.36,0,13.23,0.7,20.45,2.07
	c7.221-1.37,14.1-2.07,20.45-2.07c17.31,0,31.399,5.09,41.95,15.13c3.43-2.38,7.22-3.62,11.14-3.62c5.07,0,10.29,2.04,15.521,6.07
	c9.789,7.53,9.58,16.94,9.43,23.82c-0.18,8.47-0.28,12.73,14.76,14.2c1.311,0.13,2.48,0.9,3.12,2.06c0.63,1.16,0.649,2.55,0.05,3.73
	c-0.35,0.68-8.58,16.45-22.439,16.45c-3.5,0-6.961-0.99-10.36-2.98c0.011,2.57-0.06,4.64-0.14,6.05
	c7.83,4.47,13.06,14.899,13.06,26.729c0,12.641-4.33,27.61-24.43,28.94c-4.39,28.04-52.351,34.33-71.29,34.33L129.092,213.45z"/>
<path fill="#333333" d="M107.836,46.55c6.158,0,12.953,0.675,20.447,2.148c7.494-1.473,14.285-2.146,20.443-2.146
	c19.656,0,32.836,6.87,41.653,16.542c2.679-2.59,6.507-5.038,11.433-5.038c3.737,0,8.107,1.41,13.08,5.236
	c18.91,14.543-6.773,35.59,26.227,38.836c0,0-7.311,14.283-18.881,14.283c-4.359,0-9.319-2.02-14.719-7.59
	c0.75,9.56,0.1,16.34,0.1,16.34l-0.311,0.68c7.74,2.61,13.5,12.53,13.5,24.36c0,22.439-13.72,25.04-23.41,25.04
	c-0.239,0-0.469-0.011-0.699-0.021c-0.33,27.04-46.61,34.26-67.62,34.26c-23.97,0-68.96-8.699-69.08-34.439
	c-0.67,0.141-1.38,0.21-2.15,0.21c-9.7,0-23.41-2.601-23.41-25.03c0-12.41,6.33-22.71,14.64-24.689l-0.16-0.34
	c0,0-0.68-7.08,0.15-16.99c-5.64,6.07-10.81,8.25-15.34,8.25c-11.57,0-18.88-14.27-18.88-14.27c0.41,0.01,0.81,0.01,1.2,0.01
	c25.94,0,6.4-24.52,25.03-38.85c4.97-3.82,9.34-5.23,13.08-5.23c5.11,0,9.04,2.63,11.73,5.33C74.7,53.61,87.95,46.6,107.8,46.6"/>
<path fill="#333333" d="M107.8,38.6c-17.29,0-31.597,4.82-42.64,14.343c-3.446-1.872-7.16-2.84-11.01-2.84
	c-5.97,0-12.015,2.32-17.964,6.895c-11.24,8.645-12.11,20.41-12.69,28.19c-0.22,3.05-0.48,6.5-1.29,7.717
	c-0.396,0.59-2.25,1.28-6.165,1.28c-0.32,0-0.64,0-0.98-0.01c-0.07-0.004-0.14-0.005-0.22-0.005c-2.74,0-5.3,1.4-6.76,3.73
	c-1.51,2.39-1.64,5.395-0.35,7.91c0.98,1.91,10,18.63,26,18.63c0.78,0,1.56-0.04,2.33-0.12c-5.92,6.094-9.63,15.512-9.63,25.9
	c0,12.57,3.8,21.771,11.29,27.351c4.14,3.08,9.21,4.885,15.4,5.473c2.6,8.971,10.32,19.05,29.63,26.35
	c15.77,5.961,34.26,8.09,46.31,8.09c11.5,0,29.17-1.969,44.301-7.479c20-7.28,27.77-17.8,30.279-27.14
	c5.5-0.73,10.07-2.48,13.851-5.301c7.489-5.58,11.29-14.779,11.29-27.35c0-10.4-3.721-19.882-9.7-25.99
	c1.04,0.146,2.08,0.22,3.13,0.22c16.01,0,25.03-16.73,26-18.64c1.21-2.356,1.17-5.156-0.1-7.48c-1.271-2.32-3.601-3.87-6.23-4.125
	c-8.48-0.833-10.25-2.77-10.51-3.146c-0.76-1.08-0.689-4.08-0.63-6.99c0.159-7.29,0.399-18.315-10.99-27.076
	c-5.94-4.57-11.99-6.89-17.95-6.89c-3.71,0-7.31,0.91-10.67,2.664c-11.02-9.405-25.25-14.165-42.42-14.166
	c-6.38,0-13.25,0.674-20.44,2.003c-7.2-1.323-14.07-2-20.45-2L107.8,38.6z"/>
<path fill="#E29837" d="M185.811,69.11c0,0,10.18-20.36,29.084-5.82c18.908,14.544-6.774,35.59,26.226,38.837
	C241.12,102.127,216.35,150.551,185.811,69.11L185.811,69.11z M70.193,69.11c0,0-10.18-20.36-29.088-5.82
	C22.2,77.835,42.62,102.88,14.88,102.128c0,0,24.772,48.424,55.313-33.016V69.11z"/>
<path fill="#F4D1B0" d="M185.7,150.184c0,13.83,2.01,25.036,11.704,25.036c9.693,0,23.408-2.6,23.408-25.036
	c0-13.824-7.854-25.036-17.554-25.036C193.561,125.148,185.699,136.357,185.7,150.184L185.7,150.184z"/>
<path fill="#C69C6D" d="M188.609,150.09c0.041-3.875,0.841-8.29,2.74-12.04c0.955-1.905,2.18-3.76,3.9-5.366
	c1.71-1.569,4.152-2.92,6.984-2.953c1.076,0.103,0.854,0.006,1.863,0.22c0.814,0.168,1.514,0.409,2.053,0.68
	c1.201,0.528,2.17,1.28,3.07,2.054c1.721,1.607,1.83,3.461,2.791,5.367c1.899,3.85,1.619,7.99,1.619,12.141v0.479
	c0,2.72-1.02,4.94-3.74,4.979c-2.709,0.041-4.369-2.14-4.41-4.85c0-0.189,0.301-0.41,0.32-0.6c0.301-2.73,0.211-5.71-0.68-8.221
	c-0.82-2.609-2.45-4.25-2.93-4.42c-0.28-0.14-1.041-0.119-2.021,0.541c-0.95,0.659-1.899,1.739-2.72,3.01
	c-1.66,2.649-2.641,5.619-3.02,9.199l-0.011,0.141c-0.17,1.6-1.59,2.76-3.19,2.59c-1.5-0.16-2.609-1.439-2.6-2.92L188.609,150.09z"
	/>
<path fill="#F4D1B0" d="M69.574,150.184c0,13.83-2.004,25.036-11.703,25.036c-9.69,0-23.41-2.6-23.41-25.036
	c0-13.824,7.86-25.036,17.56-25.036s17.56,11.209,17.56,25.036H69.574z"/>
<path fill="#C69C6D" d="M66.666,150.09c-0.04-3.875-0.84-8.29-2.74-12.04c-0.96-1.905-2.18-3.76-3.9-5.366
	c-1.713-1.569-4.152-2.92-6.988-2.953c-1.074,0.103-0.852,0.006-1.865,0.22c-0.813,0.168-1.51,0.409-2.05,0.68
	c-1.198,0.528-2.17,1.28-3.067,2.054c-1.72,1.607-2.346,3.461-3.307,5.367c-1.9,3.85-2.13,7.99-2.13,12.141v0.479
	c0,2.72,1.53,4.94,4.25,4.979c2.71,0.041,4.64-2.14,4.67-4.85c0-0.189-0.16-0.41-0.18-0.6c-0.31-2.73-0.15-5.71,0.75-8.221
	c0.82-2.609,2.48-4.25,2.96-4.42c0.29-0.14,1.06-0.119,2.03,0.541c0.95,0.659,1.91,1.739,2.73,3.01
	c1.66,2.649,2.64,5.619,3.02,9.199l0.01,0.141c0.17,1.6,1.6,2.76,3.19,2.59c1.5-0.16,2.61-1.439,2.6-2.92L66.666,150.09z"/>
<path fill="#FFDDBB" d="M196.715,174.907c0,27.27-46.535,34.542-67.623,34.542c-23.996,0-69.078-8.73-69.078-34.551
	c0-49.199-5.092-101.439,68.35-101.439c74.17,0,68.35,52.24,68.35,101.43L196.715,174.907z"/>
<path fill="#FBB03B" d="M128.283,48.698c-88.438-17.38-79.338,76.45-79.338,76.45l10.824,23.704
	c-1.22-48.109,61.56-52.514,68.51-63.99c6.95,11.476,69.88,17.695,69.161,62.535l10.18-22.249c0,0,9.1-93.83-79.34-76.45H128.283z"
	/>
<path fill="#E8D5AF" d="M128.363,92.013c-0.55,0-1.107-0.15-1.596-0.475c-1.34-0.88-1.715-2.688-0.834-4.03l6.456-9.833
	l-12.813-5.533c-1.068-0.46-1.762-1.517-1.756-2.68c0-1.166,0.7-2.216,1.77-2.672l8.58-3.612l-8.25-5.038
	c-0.87-0.535-1.4-1.476-1.4-2.494c0-1.017,0.54-1.962,1.41-2.483l5.46-3.272c1.36-0.82,3.16-0.38,3.98,1c0.82,1.38,0.38,3.17-1,3.99
	l-1.33,0.81l8.98,5.49c0.93,0.57,1.459,1.62,1.379,2.7c-0.09,1.09-0.77,2.04-1.77,2.47l-7.54,3.17l9.74,4.21
	c0.79,0.34,1.39,1.01,1.63,1.84c0.25,0.83,0.12,1.72-0.35,2.43l-8.36,12.73c-0.55,0.85-1.479,1.31-2.43,1.31L128.363,92.013z"/>
<radialGradient id="SVGID_1_" cx="-752.2969" cy="238.5156" r="29.9807" gradientTransform="matrix(0.723 0 0 -0.723 630.7935 346.0358)" gradientUnits="userSpaceOnUse">
	<stop  offset="0" style="stop-color:#FF585D"/>
	<stop  offset="1" style="stop-color:#FF585D;stop-opacity:0"/>
</radialGradient>
<circle opacity="0.7" fill="url(#SVGID_1_)" enable-background="new    " cx="86.637" cy="173.589" r="21.697"/>
<radialGradient id="SVGID_2_" cx="-637.3052" cy="238.5156" r="29.9808" gradientTransform="matrix(0.723 0 0 -0.723 630.7935 346.0358)" gradientUnits="userSpaceOnUse">
	<stop  offset="0" style="stop-color:#FF585D"/>
	<stop  offset="1" style="stop-color:#FF585D;stop-opacity:0"/>
</radialGradient>
<circle opacity="0.7" fill="url(#SVGID_2_)" enable-background="new    " cx="169.811" cy="173.589" r="21.697"/>
<path fill="#DBC79C" d="M133.613,194.18c0,0-7.752,5.622-15.75,5.815C117.624,200.001,138.943,216.234,133.613,194.18
	L133.613,194.18z"/>
<path fill="#F48B73" d="M137.74,181.816c0,5.084-4.127,9.211-9.211,9.211c-5.081,0-9.208-4.127-9.208-9.211s4.127-9.209,9.208-9.209
	C133.613,172.607,137.74,176.732,137.74,181.816z"/>
<path fill="#333333" d="M122.505,184.463c-3.684,0-6.693-1.025-9.008-3.066c-5.37-4.756-4.383-13.051-4.336-13.4
	c0.21-1.596,1.68-2.729,3.26-2.516c1.59,0.205,2.72,1.652,2.52,3.242c-0.01,0.057-0.63,5.635,2.44,8.329
	c2.05,1.792,5.52,2.08,10.32,0.855c1.58-0.421,3.14,0.55,3.54,2.104c0.399,1.56-0.54,3.14-2.101,3.54c-2.39,0.61-4.6,0.92-6.61,0.92
	L122.505,184.463z M134.948,184.46c-1.957,0-4.14-0.303-6.53-0.915c-1.555-0.398-2.5-1.979-2.1-3.534
	c0.396-1.56,1.992-2.5,3.534-2.1c3.219,0.819,7.5,1.37,9.609-0.681c2.18-2.119,1.74-6.64,1.38-8.199
	c-0.35-1.561,0.62-3.12,2.19-3.48c1.58-0.359,3.119,0.61,3.49,2.16c0.08,0.36,1.99,8.82-2.961,13.67c-2.1,2.061-4.97,3.09-8.59,3.09
	L134.948,184.46z"/>
<radialGradient id="SVGID_3_" cx="-8178.561" cy="1543.4355" r="29.9962" gradientTransform="matrix(0.21 0 0 -0.21 1848.3477 485.9384)" gradientUnits="userSpaceOnUse">
	<stop  offset="0" style="stop-color:#FF585D"/>
	<stop  offset="1" style="stop-color:#FF585D;stop-opacity:0"/>
</radialGradient>
<circle opacity="0.7" fill="url(#SVGID_3_)" enable-background="new    " cx="129.966" cy="161.589" r="6.302"/>
<path fill="#333333" d="M134.943,166.184c-1.395,0-2.625-1.007-2.862-2.431c-0.29-1.79-0.899-2.96-1.8-3.473
	c-1.2-0.681-2.99-0.248-3.38-0.106c-1.48,0.57-3.18-0.17-3.74-1.682c-0.57-1.498,0.18-3.182,1.68-3.75
	c0.46-0.188,4.601-1.665,8.36,0.486c1.71,0.982,3.9,3.092,4.64,7.569c0.271,1.583-0.8,3.084-2.39,3.345
	c-0.16,0.03-0.32,0.041-0.48,0.041H134.943z"/>
<path fill="#FFFFFF" d="M118.797,137.99c0,14.013-11.338,25.386-25.363,25.386c-14.018,0-25.37-11.373-25.37-25.386
	c0-14.002,11.353-25.368,25.37-25.368C107.459,112.622,118.797,123.988,118.797,137.99z M188.602,137.99
	c0,14.013-11.338,25.386-25.363,25.386c-14.02,0-25.379-11.373-25.379-25.386c0-14.002,11.35-25.368,25.369-25.368
	c14.021,0,25.36,11.366,25.36,25.368H188.602z"/>
<path fill="#333333" d="M109.46,137.99c0,8.859-7.177,16.029-16.026,16.029c-8.84,0-16.023-7.17-16.023-16.029
	c0-8.85,7.19-16.007,16.03-16.007c8.85,0,16.03,7.156,16.03,16.007H109.46z M179.264,137.99c0,8.859-7.174,16.029-16.024,16.029
	c-8.841,0-16.03-7.17-16.03-16.029c0-8.85,7.189-16.007,16.02-16.007c8.851,0,16.021,7.156,16.021,16.007H179.264z"/>
</svg>
