<svg xmlns="http://www.w3.org/2000/svg" width="256" height="256" viewBox="0 0 256 256"><path fill="#333" d="M34.447 182.38l-1.108-.914c-1.92-1.584-2.75-3.8-2.28-6.077.84-4.02 5.39-9.09 32.8-18.87 12.48-4.46 24.94-8.14 28.24-9.11l45.7-39.15c21.98-23.15 40.55-34.88 55.17-34.88 11.77 0 17.16 7.48 18.64 9.99 2.11 2.12 5.87 8.57 10 48.76 2.16 21.06 3.39 41.55 3.4 41.75l.26 4.39-33.06-1.2-3.54-32.2c-1.96-.82-4.07-1.23-6.41-1.23-22.58 0-52.87 36.87-53.17 37.24l-1.2 1.47H34.4l.04.02.007.01zm158.56-104.99c11.462 0 15.452 8.487 15.452 8.487 7.75 6.787 12.6 88.253 12.6 88.253l-25.21-.916-3.4-30.926c-3.17-1.827-6.59-2.625-10.14-2.625-24.77 0-56.27 38.717-56.27 38.717H35.88c-9.693-8 58.17-27.358 58.17-27.358l46.54-39.844C165.98 84.402 182.58 77.39 193 77.39"/><path fill="#333" d="M193 69.39c-15.73 0-35.22 12.11-57.93 35.98l-44.9 38.45c-4.25 1.246-15.786 4.705-27.642 8.938-27.85 9.938-34.06 15.524-35.373 21.813-.78 3.73.582 7.46 3.64 9.98l2.217 1.83h96.847l2.39-2.95c.06-.09 7.71-9.42 18.09-18.55 12.61-11.11 23.97-17.22 31.96-17.22.95 0 1.85.08 2.71.26l2.87 26.16.75 6.87 6.9.25 25.18.91 8.8.32-.52-8.79c-.03-.21-1.25-20.78-3.44-41.93-1.29-12.52-2.65-22.82-4.06-30.62-2.16-12.02-4.24-17.14-6.57-19.94-2.88-4.89-10.05-11.78-22.01-11.78l.05.03.03-.01h.01z"/><path fill="#C1272D" d="M94.057 151.02s-67.865 19.36-58.172 27.36h90.168s41.197-50.638 66.41-36.093l3.396 30.926 25.18.916s-4.85-81.47-12.61-88.26c0 0-14.54-30.93-67.86 25.3l-46.54 39.84.01.01h.01z"/><path fill="#601920" d="M197.83 87.254c-.182-2.15-3.346-6.125-6.336-7.108-1.768-.583-3.756-1.33-6.297-1.595-10.348 2.89-24.797 11.75-44.602 32.63l-44.43 38.04c5.056.69 11.41 2.94 17.762 8.86 0 0 29.29-27.2 53.57-46.29 16.22-12.76 30.95-17.36 30.33-24.52v-.01h.002z"/><path fill="#4D4D4D" d="M204.348 131.17l-1.342 42.303 18.053.656s-2.02-33.91-5.54-59.8c-6.73 1.96-15.08 6.34-20.09 9.17l8.91 7.67z"/><path d="M215.05 111.052h.003zm.78 5.644c-.262-1.924-.512-3.81-.78-5.644-32.99 5.805-82.74 53.744-90.2 61.08l-86.784.443c-1.11.824-1.958 1.62-2.49 2.376L33.5 175l-.5 4 1.5 4.833 94.5-2L145 164l29.334-20.5 8-2.667 5.5 2.667 5.334 32 10-1.333 1.18-42.997-7.137-7.665c6.62-3.39 12.96-5.843 18.62-6.81z" fill="#333"/></svg>