<svg xmlns="http://www.w3.org/2000/svg" width="256" height="256" viewBox="0 0 256 256"><path fill="#333" d="M173.104 225.24c-.584-.006-1.146-.215-1.594-.59-.35-.3-.717-.606-1.027-.95-.314-.293-.56-.67-.688-1.097-.044-.135-.076-.27-.095-.41-.45-2.237-1.18-7.237.67-9.793.35-.73.14-4.11-.48-6.91-.14-.61-.03-1.23.25-1.75l-1.96-26.63-.06-.02c-.2-.08-.32-.12-.45-.16-.23-.07-.37-.11-.53-.15h-.02l-1.21 26.66c.52.59.74 1.41.57 2.21-.63 2.79-.84 6.05-.44 6.84 1.82 2.5 1.09 7.5.64 9.74-.02.13-.05.26-.09.39-.13.43-.36.8-.66 1.1-.3.34-.65.66-1 .98-.46.41-1.05.64-1.66.65l-35.21.24c-1.37 0-2.49-1.1-2.5-2.48l-.03-3.22c-.01-.89.46-1.73 1.24-2.18l.36-.21c2.88-1.68 6.41-3.75 10.25-4.04 3.523-2.54 7.86-4.523 9.064-5.04.74-.76-.13-2.95-.14-2.97-.21-.46-.27-.99-.18-1.48.18-.97.9-2.98 3.696-3.77l1.16-21.79c-1.65-.46-2.78-1.35-3.8-2.26-.02-.01-.04-.03-.06-.04l-.15-.08-.16-.05c-.04-.01-.08-.023-.12-.023-.11-.01-.18-.01-.24-.02h-.2c-.8 0-1.738.35-2.04.49-.34.156-.698.228-1.06.228-.61 0-1.22-.22-1.69-.65-.75-.68-1.02-1.73-.68-2.68l9.22-25.79c-.14.05-.3.1-.39.14-.31.13-.63.19-.95.19-.648 0-1.29-.25-1.77-.73-.71-.71-.93-1.78-.55-2.72l.55-1.34 3.99-23.05c-1.17.34-2.36.75-3.52 1.29-.05.02-.09.04-.14.06-.79.32-1.58.74-2.43 1.19-.48.26-.97.51-1.46.76l-.57.34c-1.06.64-2.16 1.29-3.17 1.98-.44.34-.88.66-1.33.97-.78.55-1.51 1.07-2.07 1.63l-.11.1-.37.33c-.97.85-1.87 1.64-2.56 2.48-.04.05-.08.09-.12.14-.84.88-1.71 1.83-2.32 2.79l-.07.1-.47.67c-.43.59-.84 1.15-1.12 1.66 1.23 1.69 1.49 3.16 1.38 4.32.93.76 1.51 1.26 1.54 1.28 4.64 3.76 1.28 8.06-.73 10.63-.47.6-.95 1.22-1.38 1.83-1.76 2.54-3.7 3.07-5.02 3.07-.59 0-1.12-.11-1.58-.26-1.22.77-2.23 1.18-3.01 1.25-.12.01-.25.01-.39.01-.49 0-1.04-.07-1.65-.22-.84.47-1.87.9-3.1 1.29-.56.17-1.13.26-1.71.26-6.22 0-9.86-10.23-10.82-13.36-.12-.36-.18-.78-.17-1.23-.13-1.62.42-3.36 1.64-5.19-.11-.29-.24-.61-.38-.96-.13-.32-.26-.64-.39-.97-.17-.4-.33-.82-.49-1.25-.25-.67-.48-1.3-.8-1.86-.28-.52-.51-.99-.75-1.47-.35-.7-.71-1.42-1.1-2.1-.29-.45-.58-.91-.87-1.37-.44-.7-.89-1.43-1.36-2.11-.36-.44-.71-.9-1.05-1.36-.53-.71-1.04-1.38-1.58-1.96-.65-.73-1.31-1.43-1.99-2.11l-2.26 2.41c-.46.49-1.11.78-1.79.79h-.03c-.36 0-.72-.08-1.05-.23l3.53 25.25c.04.26.03.51-.01.76.01.04.12.98.12.98.08.7-.14 1.4-.6 1.93-.47.53-1.13.84-1.83.86l-1.68.04.18 8.08c.05.6.11 1.15.17 1.71.07.67.13 1.35.2 2.11l1.15 12.85c.32 2.89.38 5.78.44 8.57.03 1.477.06 2.94.13 4.37l.21 7.26c2.52.87 3.18 2.79 3.35 3.72.1.52.03 1.05-.19 1.53 0 .01-.86 2.06-.12 2.81 1.2.52 5.54 2.5 9.07 5.05 3.76.29 7.23 2.33 10.05 3.99l.56.33c.77.45 1.25 1.28 1.24 2.18l-.03 3.16c-.02 1.37-1.13 2.48-2.5 2.48l-35.22-.314c-.58-.01-1.15-.22-1.6-.6-.37-.31-.74-.62-1.05-.97-.24-.22-.44-.51-.57-.82-.11-.22-.18-.47-.21-.72-.45-2.27-1.14-7.19.69-9.72.36-.74.15-4.06-.48-6.91-.21-.93.14-1.87.84-2.46l-.21-9.35c-.06-1.39-.08-2.86-.1-4.36-.03-2.64-.07-5.37-.34-7.98l-1.24-15.24c-.28-.25-.61-.45-.9-.45-.04 0-.12.05-.23.12-.09 1.01-.17 2.04-.2 3.06l-1.57 34.6c.52.59.75 1.4.57 2.2-.62 2.79-.83 6.05-.44 6.83 1.81 2.49 1.1 7.47.65 9.71-.02.16-.05.32-.1.45-.13.41-.35.77-.64 1.05-.3.35-.65.67-1.01.99-.45.42-1.05.65-1.66.65l-35.21.25c-1.37 0-2.49-1.11-2.5-2.48l-.02-3.22c0-.9.47-1.73 1.24-2.18l.35-.2c2.89-1.69 6.42-3.76 10.27-4.05 3.52-2.54 7.86-4.52 9.07-5.04.75-.77-.13-2.95-.14-2.97-.2-.46-.27-.99-.17-1.49.18-.96.9-2.97 3.7-3.77l1.8-32.54c.02-.59.06-1.18.11-1.77-.03-.13-.04-.27-.04-.42l.01-3.25c-.39-.23-.86-.51-1.42-.84-.64-.34-1.36-.86-2.12-1.42-.29-.21-.58-.43-.9-.64-1.17-.82-2.36-1.9-3.79-3.28-.04-.04-.08-.08-.12-.13l-1.85-2.06c-.06-.07-.12-.14-.17-.21l-.18-.25c-.54-.74-1.09-1.51-1.64-2.35-.03-.04-.05-.08-.08-.12-.92-1.62-2.22-4.11-2.83-7.02-1.13-4.58-.66-10.06 1.33-15.35.79-2.05 1.75-4.05 2.93-6.08 0-.14.02-.28.05-.42 2.96-14.2 8.43-20.39 13.05-23.05-5.67-2.94-8.93-7.94-9.56-14.73-5.59-.61-8.65-4.38-8.65-10.77 0-3.73 1.46-7.11 3.75-9.07-1.53-3.44-2.78-7.48-2.5-11.08-.43-.09-.84-.29-1.19-.6-.77-.69-1.03-1.77-.68-2.73.29-.79 7.51-19.41 33.44-19.41 1.36 0 2.77.05 4.18.16.06 0 .13.01.19.02 3.78.57 16.03 2.86 18.29 8.79 8.34.82 11.41 8.44 11.41 13.65 0 .67 0 2.67-3.4 11.24 2.26 1.97 3.68 5.32 3.68 9.01 0 6.2-2.87 9.93-8.15 10.7-.57 6.12-3.36 10.8-8.19 13.83 3.85 1.69 8.45 4.81 13.64 10.34.91.96.91 2.46 0 3.42l-.03.03c.97.9 1.91 1.82 2.81 2.77.91.91 1.74 1.94 2.55 2.93.37.45.74.91 1.11 1.35.03.04.06.07.09.11.79 1.04 1.5 2.08 2.19 3.09.32.46.62.92.94 1.37.03.03.05.07.07.1.66 1.05 1.22 2.07 1.77 3.07.23.43.47.85.7 1.27.54-.88 1.18-1.74 1.8-2.58l.39-.54c1.08-1.6 2.44-3.07 3.62-4.3 1.26-1.44 2.69-2.67 4.08-3.86l.23-.2c1.07-1 2.22-1.79 3.32-2.56.5-.34.99-.68 1.48-1.05l.1-.06c.47-.32.95-.62 1.42-.91-1.31-1.33-2.24-2.84-2.81-4.53-2.44-7.31-1.37-40.99 11.04-58.2 5.29-7.35 12.03-11.08 20-11.08 1.49 0 3.03.14 4.6.4h1.85c1.6-.28 3.18-.42 4.7-.42 20.61 0 27.87 24.78 30.37 39.65.32-.06.64-.09.98-.09.23 0 .45.02.68.05 2.53.35 4.39 2.42 4.55 4.84.93-1.64 2.72-2.69 4.64-2.69.8 0 1.58.17 2.3.52 1.32.63 2.26 1.73 2.72 3.01.73.01 1.44.16 2.11.47 2.5 1.16 3.6 4.12 2.5 6.62.98.01 1.92.32 2.7.91 2 1.49 2.4 4.34.91 6.35l-5.44 7.28c-.16.74-.43 1.54-.81 2.37-.16.73-.59 2.45-1.33 3.78-.3.53-.6 1.08-.97 1.52-.76 1.31-2.45 3.17-5.17 4.12-.19.83-.47 1.68-.77 2.54-.02.06-.04.12-.06.17-.12.29-.23.58-.352.88-.49 1.24-1.05 2.65-2.14 4.16-.02.03-.04.06-.07.09-1.24 1.55-3.23 3.76-6.18 5.02-1.99.91-4.29 1.4-6.6 1.4-.57 0-1.13-.03-1.67-.09-2.3-.26-4.52-.83-6.59-1.69-2.31-.98-4.34-2.11-6.03-3.19l3.28 17.09c.03.1.06.19.08.29l.53 2.28c.25 1.1-.25 2.2-1.2 2.74-.04.23-.11.45-.21.65l10.37 24.63c.47 1.11.08 2.4-.93 3.06-.42.28-.9.42-1.37.42-.66 0-1.32-.26-1.8-.76-.21-.22-.46-.5-.66-.85l-.12-.09.04-.07c-.02-.04-.04-.07-.05-.11l-.08.13c-.08-.05-.36-.21-.36-.21-.07-.04-.16-.08-.25-.12l-.35-.14-.11-.04c-.07-.02-.15-.04-.23-.06l.52-2.45-.62 2.42c-.08-.02-.17-.03-.27-.05-.18-.02-.27-.02-.36-.02-.18 0-.27.01-.36.02-.15.03-.24.05-.33.07l-.13.04c-.02 0-.12.05-.22.09-.2.09-.31.16-.43.23l-.1.06c-.11.07-.24.17-.38.29l-.06.05c-.17.15-.32.3-.48.48-.29.32-.61.64-.97.95 0 0-.01 0-.01.01l1.87 23.14c3.14.72 3.92 2.89 4.108 3.92.1.52.03 1.05-.2 1.53 0 .01-.86 2.06-.12 2.81 1.21.53 5.55 2.5 9.07 5.05 3.76.29 7.22 2.32 10.05 3.98l.57.33c.78.45 1.25 1.28 1.24 2.18l-.03 3.16c-.01 1.37-1.13 2.48-2.5 2.48l-35.21-.31.03-.11-.022.02zm-117.18-91.02c-.68 1.998-.924 3.87-.698 5.363l.698-5.363zm138.64-18.732c.517.125.953.185 1.276.213h.07c.15 0 .22-.01.3-.04.07-.08.14-.17.21-.26l.08-.1c.19-.31.4-.75.62-1.31-.82.57-1.68 1.07-2.54 1.51v-.01h-.016zm-122.59-82.39c1.28 0 2.616.05 3.997.15 0 0 14.96 2.26 16.42 7.478.11.397.17.83.19 1.275.19 0 .37-.01.54-.01 8.9 0 10.43 8.47 10.43 11.23 0 1.99-2.15 7.67-3.52 11.07l.04.01-.41 1.18c2.42 1.04 4.17 4.22 4.17 8 0 7.49-4.57 8.35-7.81 8.35-.08 0-.15-.01-.23-.01-.03 10.89-7.04 15.15-13.79 16.77l.02.14h.14c4 0 10.78 1.89 19.66 11.35l-1.79 1.91c1.58 1.34 3.12 2.79 4.58 4.33 1.31 1.3 2.4 2.81 3.58 4.19 1.11 1.44 2.07 2.95 3.06 4.37.91 1.46 1.67 2.95 2.46 4.33.82 1.37 1.29 2.78 1.88 4.02l.07.17 1.71-3.1c.68-1.35 1.67-2.63 2.69-4.02.97-1.43 2.16-2.76 3.45-4.09 1.22-1.41 2.67-2.63 4.13-3.88 1.42-1.33 3.07-2.3 4.63-3.47 1.46-.98 2.98-1.79 4.47-2.65-2.16-1.32-4.02-3.05-4.88-5.64-2.73-8.2-.82-66.01 28.68-66 1.4 0 2.86.13 4.4.4h2.28c1.57-.28 3.06-.42 4.49-.42 18.66 0 26.25 23.22 28.6 42.37l.01-.36c.01-.03.01-.07.01-.09.11-1.37 1.37-2.35 2.72-2.35.12 0 .25.01.37.02 1.49.21 2.56 1.57 2.36 3.06L204 96.19c.28.176.583.24.883.24.21 0 .42-.03.62-.083.574-1.433 1.14-2.87 1.72-4.3 1.01-2.64 2.055-5.27 3.026-7.92.03-.08.06-.164.1-.25.48-1.02 1.5-1.61 2.56-1.61.41 0 .83.09 1.22.28 1.41.67 2.01 2.37 1.34 3.786-1.23 2.55-2.37 5.13-3.55 7.696-.72 1.61-1.44 3.21-2.15 4.83l.31.11c.68-1.5 1.37-2.98 2.06-4.48 1.15-2.42 2.28-4.86 3.46-7.27.44-.9 1.35-1.43 2.29-1.43.36 0 .73.08 1.08.24 1.27.59 1.83 2.11 1.24 3.39-1.14 2.43-2.33 4.85-3.48 7.27-.65 1.3-1.3 2.61-1.94 3.92l.29.11 5.84-7.09c.4-.49.99-.75 1.58-.75.42 0 .85.13 1.22.41.9.67 1.07 1.95.39 2.85l-5.8 7.75c-.08.7-.34 1.56-.84 2.59 0 0-.38 2.02-1.12 3.35-.7 1.25-.83 1.25-.83 1.25s-1.38 2.96-5.38 3.61c0 1.06-.42 2.36-.88 3.73-.6 1.4-1.06 2.94-2.22 4.54-1.25 1.56-2.89 3.29-5.22 4.28-1.79.82-3.78 1.21-5.62 1.21-.47 0-.94-.03-1.39-.08-2.18-.25-4.16-.79-5.91-1.52-3.5-1.49-6.36-3.35-8.91-5.25-.58-.44-1.15-.73-1.69-1.17l4.51 23.46h.03l.52 2.28c-.31-.7-.22-1.36-1.22-1.49v3.2h-.93l11.24 26.7s-.31-.32-.31-.44c0-.05-.01-.11-.09-.18 0-.01.11-.01.11-.01-.07-.07-.16-.15-.26-.21l-.06-.04-.28-.2-.09-.06c-.09-.07-.18-.13-.28-.19-.04-.03-.08-.06-.13-.08-.11-.07-.22-.13-.34-.2l-.16-.09c-.12-.07-.24-.13-.37-.19l-.17-.08c-.12-.05-.24-.1-.37-.14-.07-.02-.13-.05-.2-.07-.12-.04-.24-.08-.37-.11-.05-.02-.11-.03-.16-.04-.16-.04-.32-.06-.48-.09-.06-.01-.12-.02-.18-.02-.17-.02-.34-.03-.51-.03h-.17c-.19.01-.37.02-.56.04l-.13.03c-.18.03-.36.07-.55.12l-.1.03c-.2.07-.41.15-.61.24l-.13.06c-.2.1-.41.22-.61.35-.05.03-.09.06-.13.09-.21.14-.42.31-.63.49l-.1.09c-.23.2-.45.42-.67.67-.26.29-.53.55-.81.78-.03.02-.05.05-.08.07v.01c-.26.22-.54.42-.82.59l2.15 26.55h.05c2.05 0 3.64.59 3.93 2.13 0 0-1.95 4.13.85 6.04 0 0 5.58 2.34 9.48 5.34h-.03c3.66 0 7.3 2.28 10.27 4.01l-.03 3.15-35.19-.3s-1.02-.86-.92-.86h-.02s-1.25-5.99.21-8.01c1.46-2.03-.06-8.92-.06-8.92l.4-.15-2.15-29.2c-.19-.14-.44-.31-.76-.48-.07-.03-.13-.07-.2-.11-.05-.02-.11-.05-.16-.07-.12-.06-.24-.11-.37-.17l-.13-.05c-.15-.06-.32-.12-.49-.18l-.1-.03c-.21-.06-.42-.13-.65-.18h-.03c-.74-.18-1.61-.29-2.6-.29-.07 0-.14.01-.21.01-.04 0-.09.01-.13.01-.11 2.37-.22 4.8-.33 7.22-.39 8.53-.78 17.08-1.07 23.48.43.15.69.31.69.31s-1.52 6.76-.06 8.79c1.47 2.02.21 8.01.21 8.01h-.02c.1 0-.92.92-.92.92l-35.18.25-.03-3.22c2.97-1.73 6.6-3.95 10.26-3.95h-.03c3.91-3 9.48-5.35 9.48-5.35 2.8-1.9.86-6.16.86-6.16.27-1.46 1.73-2.01 3.63-2.06.34-6.23.75-14.03 1.16-21.84l.22-4.31h-.13c-2.28 0-3.38-.84-4.62-1.95-.12-.11-.25-.2-.38-.29-.04-.03-.09-.05-.13-.07-.1-.06-.19-.11-.29-.15l-.14-.06c-.11-.04-.22-.08-.32-.11-.04-.02-.09-.03-.13-.04-.11-.03-.22-.06-.33-.07l-.12-.02c-.12-.02-.28-.03-.4-.04h-.12c-.08-.01-.16-.01-.24-.01-1.58 0-3.11.72-3.11.72l9.9-27.71v-.9c0 .01-.05.01-.13.01-.32 0-1.19-.09-1.53-.4-.21-.18-.5-.25-.83-.25-.86 0-1.91.43-1.91.43l.58-1.42h.03l4.75-27.44c-2.31.74-5.01 1.26-7.73 2.54-1.41.56-2.73 1.37-4.15 2.06-1.33.8-2.71 1.6-4.01 2.49-1.23.96-2.6 1.78-3.68 2.85-1.15 1.01-2.3 1.98-3.21 3.09-.99 1.04-1.91 2.07-2.61 3.17-.75 1.05-1.53 2.02-1.99 3.05l-.53.98c.22.29.44.57.67.85 1.61 1.97 1.3 3.32.78 4.1 1.68 1.32 2.81 2.29 2.81 2.29 3.45 2.79-.11 5.62-2.53 9.15-1.08 1.57-2.13 2-2.97 2-1.04 0-1.74-.68-1.74-.68s-2.19 1.61-3.05 1.68c-.06 0-.12.01-.19.01-.56 0-1.3-.19-2.05-.46-.62.51-1.67 1.07-3.44 1.63-.32.1-.64.15-.95.15-4.86 0-8.43-11.6-8.43-11.6-.06-.17-.07-.36-.05-.56-.19-1.47.65-3.11 1.88-4.65l-.12-.41c-.22-.92-.67-1.86-1.07-2.94-.46-1.04-.79-2.26-1.44-3.39-.62-1.15-1.19-2.41-1.9-3.64-.77-1.19-1.51-2.46-2.37-3.68-.94-1.15-1.77-2.43-2.81-3.53-1.23-1.39-2.54-2.71-3.89-3.93l-3.98 4.24s-1.8-1.83-4.39-3.54l4.39 31.41-.95-.14.95.94.1.85-1.65.03h-2.5l.24 10.71c.12 1.34.24 2.47.37 3.89.36 4.1.76 8.48 1.15 12.85.47 4.38.35 8.74.56 12.83l.27 9.21c1.76.1 3.08.73 3.34 2.11 0 0-1.94 4.14.86 6.04 0 0 5.57 2.35 9.48 5.35h-.04c3.66 0 7.3 2.28 10.26 4.01l-.03 3.16-35.2-.32s-1.01-.86-.92-.86h-.03s-1.25-5.99.22-8.01c1.46-2.03-.06-8.92-.06-8.92l.93-.34-.24-10.99c-.17-4-.01-8.33-.45-12.56l-1-12.35-.29-3.58c-.48-.63-1.66-1.9-3.33-1.9-1.34 0-2.23 1-2.65 1.58-.12 1.3-.24 2.65-.28 4.02-.19 4-.38 8.28-.57 12.55l-1.05 23.5c.44.16.69.32.69.32s-1.52 6.77-.06 8.8c1.46 2.02.21 8.01.21 8.01h-.02c.1 0-.92.93-.92.93l-35.19.24-.03-3.22c2.96-1.73 6.6-3.94 10.26-3.94h-.03c3.91-3 9.48-5.34 9.48-5.34 2.8-1.9.85-6.16.85-6.16.27-1.46 1.72-2.01 3.63-2.06l1.16-21.84.67-12.71c.03-.79.09-1.56.16-2.31h-.09l.02-4.96-.11.22s-.92-.55-2.54-1.51c-.81-.44-1.75-1.19-2.84-1.96-1.09-.77-2.27-1.85-3.51-3.05-.6-.66-1.22-1.34-1.85-2.05-.58-.8-1.18-1.62-1.76-2.5-1.06-1.85-2.06-3.95-2.55-6.3-1.16-4.71-.36-9.76 1.22-13.95.93-2.42 2.08-4.64 3.34-6.69l-.25-.18c3.79-18.17 11.64-22.06 15.62-22.83l.15-1.39c-6.41-1.84-12.35-6.21-12.36-16.59-.23.05-.46.08-.72.08-3.23 0-7.81-.87-7.81-8.35 0-3.93 1.91-7.22 4.48-8.11-1.84-3.65-4.63-10.43-2.49-14.69 0 0 .47-.72-.22-.72-.39 0-1.13.22-2.53.92 0 0 6.61-17.78 31.09-17.78m112.88 80.36c.44-1.42.8-3.59 1.1-4.59h-6.89c.23 0 .46.17.71.4 1.46 1.29 3.19 2.83 5.07 4.19m11.05 4.74c.7 0 1.14-.17 1.49-.34.4-.14.72-.61 1.14-1.11.38-.6.72-1.37 1.01-2.13.21-.79.46-1.47.58-2.19-.81-.41-1.61-.96-2.32-1.67h-.13s-.09-.1-.23-.28c-2.68 2.57-6.47 3.98-9.4 4.74 1.48.9 3.01 1.7 4.49 2.24 1.14.44 2.21.64 3.07.72.1 0 .19.01.28.01M58.1 147.77v-1.07c-1-.05-.94-.08-.94-.08l-.06-.45v-.29l-.19-.07 1.89-14.52-3.21-2.32c-.77 1.356-1.438 2.75-1.957 4.154-1.027 2.86-1.317 5.6-.72 7.8.22 1.13.79 2.13 1.31 3.1.34.46.72.916 1.034 1.35.39.418.886.82 1.24 1.21.47.42.58.82 1.58 1.2"/><path fill="#333" d="M71.98 28.1c-27.647-.004-35.46 20.176-35.78 21.036-.714 1.925-.18 4.09 1.35 5.462.108.098.22.19.335.276.096 3.013.954 6.122 2.07 8.948-2.067 2.44-3.3 5.873-3.3 9.653 0 6.897 3.26 11.5 8.907 12.902.902 5.328 3.415 9.64 7.37 12.712-4.252 3.72-8.572 10.41-11.073 22.42l-.03.12c-1.13 1.99-2.06 3.96-2.83 5.97-2.17 5.74-2.67 11.7-1.43 16.85.68 3.22 2.09 5.91 3.08 7.66.05.08.1.17.15.25.58.89 1.15 1.68 1.7 2.43l.18.25c.1.14.21.27.33.41l1.86 2.06c.08.08.16.17.24.25 1.51 1.45 2.79 2.61 4.09 3.52.29.2.58.41.85.61.8.58 1.56 1.14 2.39 1.6l.11.06v1.82c0 .17.01.34.03.51-.04.49-.07 1.02-.1 1.57l-.11 1.94-.58 10.73L51 194.9l-.184 3.44c-2.81 1.48-3.56 4.05-3.744 5.03-.2 1.05-.118 2.01.35 2.977.03.07.06.16.09.26-1.85.86-4.91 2.41-7.647 4.31-4.14.52-7.84 2.68-10.63 4.313l-.35.2c-1.546.9-2.49 2.56-2.48 4.35l.023 3.22c.02 2.75 2.25 4.96 5 4.96h.03l35.19-.24c1.23-.01 2.41-.47 3.32-1.288.3-.27.69-.63 1.08-1.06.17-.16.33-.34.472-.53.2.27.434.52.69.74.365.38.72.68.99.91.89.75 2.02 1.17 3.19 1.18l35.19.31h.046c2.74 0 4.972-2.21 5-4.95l.03-3.16c.02-1.8-.93-3.46-2.48-4.36l-.56-.32c-2.74-1.6-6.36-3.73-10.41-4.24-2.73-1.89-5.78-3.43-7.63-4.3.017-.03.02-.06.03-.06.448-.95.58-2.02.39-3.05-.33-1.75-1.38-3.62-3.36-4.84l-.17-5.71-.002-.1c-.065-1.38-.095-2.79-.13-4.29-.055-2.83-.12-5.75-.45-8.79l-.1-1.17L90.8 167c-.07-.766-.14-1.45-.21-2.12l-.16-1.608-.13-5.55c1.09-.204 2.09-.77 2.83-1.616.93-1.053 1.36-2.45 1.21-3.85l-.08-.71c.02-.36.02-.72-.04-1.086l-3.14-22.52c.69-.26 1.32-.68 1.84-1.23l.44-.47.05.06.12.13c.45.47.91 1.08 1.4 1.73.33.44.67.9 1.05 1.36.42.6.82 1.25 1.25 1.93.29.45.57.9.85 1.34.35.61.67 1.25 1 1.92.25.5.5.98.75 1.46.02.04.05.09.07.13.22.38.42.92.63 1.49.16.42.32.85.52 1.31.1.26.2.51.3.75-1.02 1.87-1.48 3.71-1.36 5.5 0 .67.09 1.313.28 1.918 1.41 4.56 5.5 15.1 13.21 15.1.83 0 1.66-.13 2.46-.38 1.02-.32 1.92-.67 2.72-1.05.45.07.87.1 1.27.1.21 0 .42-.01.61-.02.43-.03 1.42-.11 3.18-1.07.37.06.77.097 1.19.097 1.57 0 4.56-.54 7.06-4.16.38-.55.82-1.12 1.28-1.71 1.27-1.63 2.58-3.3 3.21-5.39.98-3.25-.07-6.43-2.88-8.73-.09-.08-.31-.26-.63-.53-.08-.94-.35-1.98-.91-3.09l.18-.24.5-.69c.05-.07.09-.14.14-.21.5-.78 1.26-1.62 2.02-2.41.08-.09.16-.18.24-.28.555-.67 1.38-1.396 2.273-2.18l.383-.33.21-.187c.42-.42 1.08-.88 1.77-1.37.43-.31.88-.63 1.34-.99.93-.63 1.93-1.23 2.98-1.85l.49-.3c.49-.24.96-.49 1.43-.74.6-.32 1.18-.62 1.71-.87l-3.19 18.467-.45 1.09c-.78 1.88-.38 4.07 1.08 5.49.41.4.88.73 1.39.96l-8.06 22.56c-.69 1.93-.19 4.12 1.35 5.47.94.83 2.11 1.26 3.3 1.26.74 0 1.49-.17 2.19-.53.21-.09.5-.18.72-.22.59.5 1.37 1.102 2.37 1.61l-.01.19-.46 8.65-.51 9.56c-2.81 1.47-3.56 4.05-3.74 5.04-.2 1.05-.12 2.01.35 2.97.03.08.062.17.09.26-1.85.87-4.91 2.41-7.65 4.31-4.128.523-7.818 2.67-10.606 4.3l-.36.212c-1.55.9-2.49 2.57-2.48 4.36l.03 3.22c.02 2.75 2.26 4.96 5 4.96h.03l35.18-.25c1.23-.01 2.41-.47 3.32-1.3.3-.272.69-.63 1.08-1.06.17-.17.33-.352.48-.54.2.27.43.51.69.728.37.39.727.68 1 .92.89.75 2.02 1.17 3.18 1.18l35.19.31h.04c2.736 0 4.97-2.2 5-4.95l.03-3.146c.01-1.79-.934-3.47-2.49-4.37l-.564-.33c-2.73-1.61-6.35-3.72-10.4-4.24-2.72-1.88-5.77-3.43-7.62-4.3.01-.03.02-.07.03-.07.45-.95.58-2.02.39-3.05-.38-2.03-1.68-4.12-4.21-5.29l-1.646-20.33c.09-.09.18-.19.26-.28.08-.08.17-.17.28-.27l.07-.06c.04-.03.08-.07.13-.11l.01-.01.09-.06c.02-.02.04-.02.05-.03l.08.01h.02l.11.03.06.02c.02 0 .05.02.09.03l.1.04.065.03c.19.25.4.5.64.74.97 1.01 2.28 1.53 3.6 1.53.95 0 1.91-.27 2.75-.83 2.01-1.32 2.79-3.89 1.85-6.11l-9.82-23.32c.94-1.16 1.35-2.72.99-4.28l-.53-2.28c-.03-.12-.06-.24-.1-.36l-2.24-11.68c.51.24 1.04.48 1.58.71 2.31.97 4.76 1.6 7.3 1.89.63.07 1.29.11 1.95.11 2.64 0 5.28-.56 7.64-1.63 3.44-1.49 5.7-3.98 7.1-5.73.062-.06.102-.13.15-.19 1.28-1.77 1.92-3.4 2.44-4.71.11-.28.22-.55.33-.82.05-.11.09-.22.13-.34.17-.5.34-1 .49-1.5 2.84-1.34 4.43-3.41 5.14-4.56.48-.61.83-1.24 1.1-1.72.82-1.47 1.3-3.23 1.53-4.2.312-.71.562-1.4.73-2.08l5.13-6.85c2.33-3.14 1.69-7.55-1.4-9.86-.398-.3-.83-.56-1.28-.76.062-2.91-1.56-5.73-4.358-7.03-.5-.23-1.01-.4-1.52-.52-.772-1.24-1.88-2.29-3.29-2.96-1.05-.5-2.22-.77-3.38-.77-1.31 0-2.56.33-3.682.92-1.18-1.58-2.96-2.71-5.06-3.03-4.63-25.31-16.27-39.65-32.48-39.65-1.6 0-3.25.14-4.92.42h-1.43c-1.64-.27-3.25-.4-4.82-.4-8.7 0-16.31 4.19-22.04 12.13-13.1 18.17-14.01 52.61-11.39 60.46.37 1.13.88 2.19 1.53 3.18-.25.18-.51.35-.76.53-1.11.77-2.37 1.64-3.56 2.74l-.2.16c-1.44 1.24-2.93 2.51-4.3 4.07-1.19 1.23-2.54 2.71-3.73 4.42-.19-.32-.38-.65-.59-.97-.04-.08-.09-.15-.14-.22-.31-.44-.61-.89-.92-1.34-.7-1.04-1.43-2.12-2.27-3.21-.05-.07-.11-.14-.17-.21-.36-.42-.72-.86-1.07-1.3-.79-.98-1.69-2.08-2.73-3.13-.49-.51-.99-1.02-1.51-1.52.4-1.6 0-3.35-1.2-4.63-3.94-4.2-7.59-7.09-10.88-9.06 3.1-2.95 5.08-6.77 5.86-11.34 5.34-1.54 8.4-6.07 8.4-12.77 0-3.76-1.21-7.18-3.26-9.62 2.98-7.74 2.98-9.74 2.98-10.63 0-5.87-3.33-14.31-12.25-15.95-1.75-2.95-5.38-5.21-11.19-7.01-4.23-1.32-8.23-1.93-8.39-1.95-.13-.02-.25-.03-.38-.04-1.48-.12-2.95-.17-4.38-.17l.1.09h-.025z"/><path fill="#1A1A1A" d="M139.354 62.484l1.95 45.897h49.076l1.36-31.09L184.73 51l-45.376 11.484z"/><path fill="#fdb" d="M161.9 114.225l-.578.092c-.348.067-.855.164-1.506.287-1.365.264-3.344.753-5.68 1.445-2.316.74-5.035 1.64-7.77 2.93-1.415.56-2.74 1.36-4.157 2.06-1.33.8-2.71 1.6-4.01 2.49-1.23.96-2.61 1.78-3.69 2.85-1.15 1.01-2.29 1.98-3.2 3.09-.99 1.04-1.91 2.07-2.61 3.17-.75 1.06-1.53 2.02-1.99 3.06-.53.99-1.02 1.9-1.46 2.71l-.83 2.23-.74 1.93-10.45-3.24.99-2.57c.32-.82.71-1.8 1.16-2.94.59-1.07 1.25-2.28 1.97-3.59.67-1.36 1.67-2.64 2.69-4.03.97-1.43 2.16-2.77 3.45-4.1 1.22-1.42 2.67-2.65 4.14-3.9 1.42-1.33 3.07-2.34 4.63-3.5 1.6-1.08 3.27-2.03 4.91-2.98 1.69-.82 3.31-1.75 4.95-2.41 3.24-1.47 6.39-2.49 9.08-3.32 2.72-.78 5.01-1.31 6.66-1.62.8-.16 1.51-.27 2-.35l.67-.1 1.42 10.27-.04.03h-.02zm12.568-10.28l1.384 1.417c.916.91 2.256 2.198 3.924 3.66 1.67 1.46 3.66 3.098 5.857 4.637 2.19 1.51 4.62 2.97 6.917 3.81 1.14.43 2.21.64 3.078.71.873.05 1.377-.15 1.77-.34.4-.15.73-.61 1.14-1.12.38-.6.72-1.37 1.018-2.13.23-.87.51-1.6.62-2.4.15-.77.302-1.42.35-2.03l.22-1.85 10.88 1.13-.37 2.4c-.09.75-.32 1.71-.59 2.8-.21 1.06-.682 2.36-1.15 3.72-.59 1.4-1.32 2.94-2.49 4.54-1.24 1.56-2.88 3.27-5.22 4.27-2.25 1.03-4.82 1.35-7.01 1.1-2.18-.25-4.16-.83-5.91-1.56-3.5-1.49-6.36-3.43-8.91-5.33-2.52-1.92-4.67-3.84-6.46-5.53-1.78-1.7-3.19-3.17-4.18-4.22-.98-1.09-1.54-1.71-1.54-1.71l6.688-6.01v.03h-.015zm-44.03 39.99s-13.496-11.54-16.48-9.5c0 0-11.51 7.507-8.42 12.17 3.096 4.667 4.49 3.105 4.49 3.105s3.564 3.728 5.027 4.6c1.158.69 3.754 1.88 5.098 1.77.87-.07 3.06-1.68 3.06-1.68s2.27 2.213 4.7-1.31c2.44-3.52 5.98-6.35 2.54-9.14l-.015-.014zm48.79 2.05l5.58 68.784-11.266.89-5.065-68.83 10.752-.87v.01zm-12.47 1.045l-.888 10.717c-.136 1.606-.278 3.35-.433 5.192-.127 1.84-.365 3.77-.424 5.77-.187 4-.38 8.26-.57 12.53-.778 17.05-1.553 34.1-1.553 34.1l-11.3-.25 1.84-34.63.68-12.71c.08-2.04.33-3.96.48-5.81.17-1.84.32-3.58.47-5.19.59-6.44.97-10.71.97-10.71l10.74.97-.014.01.002.01z"/><path fill="#FBB03B" d="M154.467 144.083l-10.996 30.02s3.35-1.73 5.43.126c2.08 1.85 3.78 2.96 11.3.61s10.86 1.11 10.86 1.11 7.94 3.33 12.32-1.61c4.39-4.95 9.19-.03 9.19-.03l-12.84-30.48"/><path fill="#0071BC" d="M101.46 215.4l.02-.02h.037c-3.908-3-9.478-5.094-9.478-5.094-2.81-1.906-.86-5.915-.86-5.915-.27-1.38-1.58-1.94-3.34-2.04-.08-2.79-.18-5.92-.27-9.18-.21-4.09-.09-8.44-.56-12.82-.39-4.37-.79-8.74-1.15-12.84-.13-1.42-.25-2.79-.38-4.13l-.44-20.17-27.39-.18-.07 22.46h.08c-.06.75-.12 1.52-.15 2.3-.22 4.05-.45 8.38-.68 12.71l-1.16 21.85c-1.91.05-3.36.6-3.64 2.06 0 0 1.95 4.01-.86 5.92 0 0-5.57 2.1-9.48 5.1h.03l-.02.02c-3.66 0-7.3 2.46-10.26 4.19l.03 3.34 35.19-.44s1.01-1.11.92-1.11h.02s1.26-5.74-.21-7.76c-1.46-2.02.07-8.66.07-8.66s-.26-.1-.7-.25l1.06-23.46c.19-4.27.38-8.53.57-12.53.04-1.36.16-2.69.28-3.99.41-.58 1.31-1.58 2.65-1.58 1.63 0 2.79 1.22 3.29 1.86l.29 3.61 1.02 12.45c.44 4.22.29 8.56.46 12.56.09 4.01.18 7.79.25 10.99v.01c-.59.21-.93.34-.93.34s1.52 6.64.06 8.67c-1.47 2.03-.22 7.77-.22 7.77h.01c-.1 0 .92 1.11.92 1.11l35.19.44.03-3.34c-2.96-1.73-6.61-4.19-10.27-4.19z"/><path d="M126.84 137.56c-2.718-3.31-4.458-7.488-8.09-4.948v-.014s-1.11.734-2.693 1.867c-.177-.402-.358-.813-.538-1.244-.59-1.25-1.06-2.66-1.88-4.02-.78-1.39-1.54-2.87-2.45-4.34-.99-1.42-1.95-2.93-3.05-4.37-1.19-1.38-2.27-2.88-3.58-4.18-2.55-2.68-5.32-5.14-8.15-7.11-1.37-1.04-2.83-1.86-4.16-2.71-1.39-.75-2.68-1.51-3.94-2.07-2.48-1.22-4.67-1.98-6.24-2.5-.78-.24-1.42-.44-1.94-.56l-.67-.16-.01.01v.01l-.07.04L77.3 110l.51.14c.31.1.75.25 1.32.44 1.21.45 2.97 1.13 4.98 2.21 1.03.48 2.06 1.17 3.2 1.82 1.06.76 2.25 1.46 3.35 2.37 2.28 1.71 4.48 3.83 6.48 6.09 1.05 1.1 1.88 2.39 2.82 3.53.85 1.22 1.59 2.5 2.37 3.68.71 1.24 1.29 2.5 1.9 3.65.64 1.13.98 2.35 1.44 3.39.4 1.08.85 2.02 1.07 2.94l.45 1.57c-1.51 1.603-2.44 3.063-2.12 4.024 0 0 4.05 13.13 9.38 11.44 5.33-1.685 4.22-3.456 4.22-3.456s4.56-2.39 5.8-3.56c.98-.92 2.84-3.09 3.095-4.41.17-.85-.77-3.39-.77-3.39s2.74-1.57.02-4.89zm-63.05-33.128l-1.61 1.31c-1.35 1.14-3.23 2.78-5.38 4.9-2.14 2.12-4.54 4.73-6.89 7.81-2.33 3.09-4.61 6.71-6.23 10.92-1.58 4.2-2.37 9.25-1.22 13.96.49 2.35 1.5 4.45 2.55 6.3.57.88 1.18 1.7 1.75 2.5l1.85 2.05c1.24 1.2 2.41 2.28 3.5 3.05 1.09.77 2.03 1.52 2.84 1.96 1.617.96 2.537 1.51 2.537 1.51l5.167-9.64-1.938-1.126c-.652-.334-1.272-.86-2.072-1.396-.8-.537-1.53-1.243-2.344-1.98-.358-.39-.734-.792-1.122-1.21l-.975-1.354c-.52-.965-1.06-1.965-1.283-3.1-.596-2.2-.29-4.934.73-7.793 2.136-5.78 6.83-11.318 10.51-15.028 1.866-1.877 3.524-3.355 4.692-4.352l1.808-1.483.03-.038-6.28-8.24-.62.47z" fill="#F2C49C"/><path fill="#082031" d="M89.33 123.307l12.465-13.242c-8.98-9.57-15.805-11.395-19.788-11.352l-.465-3.333H62.846l-.484 4.32c-3.982.775-11.828 4.666-15.612 22.83l12.076 8.743L57.2 145.79l32.13 5.36-4.384-31.396c2.582 1.714 4.384 3.553 4.384 3.553z"/><path fill="#C69C6D" d="M79.203 96.823l-7.01 10.128-7.79-10.9"/><path fill="#E2B593" d="M92.108 73.475c0 4.613.67 8.353 3.903 8.353 3.24 0 7.82-.866 7.82-8.353 0-4.613-2.62-8.353-5.86-8.353-3.23 0-5.86 3.74-5.86 8.353z"/><path fill="#C69C6D" d="M93.08 73.442c.013-1.29.28-2.762.91-4.015.32-.637.73-1.256 1.305-1.792.57-.524 1.388-.974 2.332-.987.358.034.283.003.62.073.273.07.503.14.683.23.403.18.726.43 1.028.69.57.54.706 1.16 1.026 1.79.634 1.28.635 2.67.635 4.05v.16c0 .91-.44 1.65-1.35 1.66-.91.01-1.52-.71-1.52-1.62 0-.06.07-.13.07-.2.1-.91.06-1.9-.24-2.74-.28-.87-.83-1.42-.99-1.47-.1-.05-.35-.04-.68.18-.32.22-.84.58-1.11 1.01-.56.88-1.21 1.88-1.21 3.07v.05c0 .54-.34.92-.87.87-.5-.05-.67-.48-.67-.98l.03-.02z"/><path fill="#E2B593" d="M53.365 73.475c0 4.613-.67 8.353-3.9 8.353-3.234 0-7.814-.866-7.814-8.353 0-4.613 2.63-8.353 5.86-8.353 3.24 0 5.86 3.74 5.86 8.353z"/><path fill="#C69C6D" d="M52.396 73.442c-.012-1.29-.28-2.762-.913-4.015-.317-.637-.727-1.256-1.304-1.792-.57-.524-1.39-.974-2.33-.987-.36.034-.29.003-.63.073-.27.07-.5.14-.69.23-.4.18-.73.43-1.03.69-.57.54-.82 1.16-1.15 1.79-.64 1.28-.75 2.67-.75 4.05v.16c0 .91.55 1.65 1.46 1.66.91.01 1.57-.71 1.58-1.62 0-.06-.05-.13-.06-.2-.1-.91-.04-1.9.26-2.74.27-.87.83-1.42.98-1.47.1-.05.35-.04.68.18.32.22.64.58.91 1.01.55.88.88 1.88 1 3.07v.05c.06.54.53.92 1.06.87.5-.05.87-.48.87-.98l.05-.02z"/><path fill="#F2C49C" d="M95.785 81.725c0 16.408-15.768 17.827-22.802 17.827-8.006 0-22.805-1.42-22.805-17.827 0-16.412-1.698-37.48 22.805-37.48 24.74-.002 22.802 21.068 22.802 37.48z"/><path fill="#333" d="M45.892 63.49l4.368 12.614 6.305-14.718m43.502 2.91l-4.15 11.808-6.31-14.718"/><path fill="#F5F5F5" d="M68.762 73.45c0 3.75-3.038 6.79-6.79 6.79-3.748 0-6.787-3.04-6.787-6.79 0-3.747 3.04-6.784 6.788-6.784 3.75 0 6.79 3.037 6.79 6.784z"/><path fill="#333" d="M66.748 73.288c0 2.607-2.106 4.718-4.712 4.718-2.603 0-4.712-2.11-4.712-4.718 0-2.602 2.11-4.707 4.712-4.707 2.606 0 4.712 2.11 4.712 4.71z"/><path fill="#F5F5F5" d="M92.05 73.45c0 3.75-3.04 6.79-6.786 6.79-3.75 0-6.793-3.04-6.793-6.79 0-3.747 3.05-6.784 6.8-6.784s6.79 3.037 6.79 6.783h-.01z"/><path d="M85.32 68.58c-2.6 0-4.71 2.106-4.71 4.708 0 2.608 2.11 4.718 4.71 4.718 2.61 0 4.715-2.11 4.715-4.718l.006.003c0-2.6-2.11-4.71-4.72-4.71zm-3.59 19.642c-10.335 5.278-17.485.33-17.785.124-.693-.505-1.665-.346-2.168.347-.51.697-.355 1.67.34 2.177.24.17 4.094 2.9 10.21 2.9h.004c3.09 0 6.76-.7 10.82-2.775.77-.393 1.07-1.326.68-2.093s-1.33-1.066-2.1-.68zm21.81-35.002c0-2.82-1.597-11.563-10.964-11.218-.023-.44-.074-.868-.185-1.26-1.46-5.22-16.42-7.48-16.42-7.48-27.77-2.07-35.09 17.62-35.09 17.62 3.89-1.94 2.75-.21 2.75-.21-3.03 6.063 3.89 17.223 3.89 17.223l2.19-3.517.68-.085c.03.132.05.264.09.394.5 1.472 2.11 2.268 3.59 1.772l.46-.16 2.08-.7c.63-.28 1.44-.25 2.27-.42.85-.21 1.79-.04 2.73-.08.47-.03.94.09 1.41.14l1.38.2c.87.23 1.73.37 2.41.63 1.42.43 2.21.85 2.27.86v.01h-.03c.74.43 1.69.17 2.12-.58.42-.75.17-1.7-.58-2.13.05.05-.96-.68-2.48-1.4-.75-.41-1.69-.72-2.67-1.15-.51-.18-1.04-.32-1.58-.49-.41-.11-.82-.24-1.23-.34 6.64-3.09 12.89-7.25 12.89-7.25l-7.12 7.28c10.31-.69 16.71-5.02 19.57-7.49.17 1.97.51 4.54 1.18 6.94-.39.01-.78.02-1.19.01-1.13-.07-2.28.27-3.43.42-.59.06-1.13.28-1.67.42-.55.16-1.08.31-1.59.48-.99.42-1.93.73-2.68 1.15-1.52.72-2.53 1.44-2.48 1.4h-.01l-.04.01c-.75.43-1.01 1.38-.58 2.12.43.75 1.38 1.01 2.13.58.06-.02.85-.44 2.27-.87.68-.26 1.54-.39 2.41-.63l1.38-.2c.47-.04.94-.16 1.41-.14.94.04 1.89-.12 2.74.08.84.17 1.65.14 2.27.41l2.08.7.48.16c.13.04.26.07.39.1.69.12 1.36-.03 1.93-.35l3.99.74s4.61-10.82 4.61-13.73z" fill="#333"/><path fill="#754C24" d="M198.078 215.38h.03c-3.904-3-9.48-5.093-9.48-5.093-2.798-1.906-.853-5.915-.853-5.915-.937-4.965-15.437.58-15.437.58s1.53 6.64.07 8.666c-1.46 2.022-.21 7.763-.21 7.763h.02c-.09 0 .92 1.11.92 1.11l35.19.44.02-3.34c-2.96-1.73-6.6-4.19-10.26-4.19l-.02-.02h.01zm-59.744 0h-.03c3.908-3 9.48-5.093 9.48-5.093 2.8-1.906.853-5.915.853-5.915.934-4.965 15.434.58 15.434.58s-1.52 6.64-.02 8.666c1.47 2.022.22 7.763.22 7.763h-.02c.1 0-.92 1.11-.92 1.11l-35.18.44-.02-3.34c2.97-1.73 6.6-4.19 10.26-4.19l-.03-.02h-.02z"/><path fill="#F7931E" d="M182.81 143.386l-33.5-.016 7.01-39.99h18.698l7.793 40.006z"/><path fill="#FFEDDC" d="M160.505 116.38h10.327c1.046 0 1.787-.883 1.787-1.93v-11.07H158.8l-.09 11.542c0 1.047.73 1.46 1.77 1.46v-.002h.026z"/><path fill="#F4D1B0" d="M168.62 104.615c0 2.58-1.3 2.404-3.5 2.404-2.203 0-3.5.17-3.5-2.41v-9.35c0-2.58 1.297-4.68 3.5-4.68 2.2 0 3.5 2.09 3.5 4.67v9.36z"/><path fill="#D3BD8D" d="M184.713 73.442c0 4.535.66 8.21 3.84 8.21s7.672-.854 7.672-8.21c0-4.537-2.572-8.21-5.75-8.21-3.185 0-5.762 3.673-5.762 8.21z"/><path fill="#C69C6D" d="M185.664 73.412c.018-1.27.277-2.72.9-3.95.313-.624.715-1.235 1.28-1.763.562-.53 1.36-.96 2.29-.97.352.03.28 0 .613.07.26.05.49.14.66.22.39.17.71.42 1 .67.58.52.48 1.13.8 1.76.63 1.25.41 2.62.41 3.97v.15c0 .89-.21 1.62-1.1 1.63-.89.01-1.37-.71-1.38-1.6 0-.07.13-.14.13-.2.1-.9.09-1.88-.21-2.7-.26-.85-.79-1.4-.94-1.45-.09-.05-.34-.04-.66.17-.31.21-.6.57-.86.98-.54.87-.96 1.84-.96 3.01v.05c0 .52-.55.9-1.07.84-.49-.05-.88-.47-.88-.96l-.04.06h.017v.01z"/><path fill="#D3BD8D" d="M146.627 73.442c0 4.535-.656 8.21-3.838 8.21-3.18 0-7.68-.854-7.68-8.21 0-4.537 2.57-8.21 5.75-8.21s5.76 3.673 5.76 8.21z"/><path fill="#C69C6D" d="M145.673 73.412c-.016-1.27-.274-2.72-.896-3.95-.317-.624-.715-1.235-1.283-1.763-.56-.53-1.357-.96-2.29-.97-.35.03-.28 0-.606.07-.27.05-.5.14-.675.22-.394.17-.716.42-1.007.67-.566.52-.523 1.13-.843 1.76-.62 1.25-.453 2.62-.453 3.97v.15c0 .89.256 1.62 1.146 1.63.896.01 1.406-.71 1.416-1.6 0-.07-.11-.14-.12-.2-.1-.9-.08-1.88.22-2.7.27-.85.8-1.4.96-1.45.1-.05.35-.04.67.17s.63.57.89.98c.55.87.87 1.84.99 3.01l.01.05c.06.52.523.9 1.05.84.5-.05.86-.47.86-.96l-.04.06v.01z"/><path fill="#fdb" d="M188.326 81.55c0 16.134-15.502 17.527-22.418 17.527-7.874 0-22.418-1.394-22.418-17.528 0-16.14-1.67-36.85 22.418-36.85 24.328 0 22.418 20.71 22.418 36.85z"/><path fill="#F48B73" d="M168.532 93.355c0 2.02-1.638 3.656-3.655 3.656-2.02 0-3.656-1.63-3.656-3.65s1.65-3.66 3.66-3.66 3.66 1.64 3.66 3.66z"/><circle fill="#F5F5F5" cx="155.085" cy="73.418" r="6.675"/><path fill="#333" d="M159.78 73.26c0 2.558-2.07 4.63-4.63 4.63s-4.637-2.072-4.637-4.63c0-2.562 2.074-4.63 4.635-4.63 2.56 0 4.63 2.068 4.63 4.63z"/><circle fill="#F5F5F5" cx="177.982" cy="73.418" r="6.675"/><path d="M178.04 68.63c-2.57 0-4.63 2.068-4.63 4.63 0 2.558 2.07 4.63 4.633 4.63s4.63-2.072 4.63-4.63h-.004c0-2.562-2.06-4.63-4.63-4.63zm-10.883-28.25h-2.284c-33.7-6-35.928 57.268-33.068 65.853 2.862 8.583 16.535 9.08 16.535 9.08-5.344-10.693-4.85-38.232-4.558-46.75 12.133-4.352 22.28-19.5 22.28-19.5h.004l-.092-2.626h.03l.155 2.358-.01-.002s8.72 15.87 20.22 20.865c.88 11.517 2.14 36.72-2.69 46.395 0 0 13.67-1.238 16.53-9.822 2.86-8.58.63-71.85-33.07-65.85zm-2.097 53.544h.014-.035.02zm6.89-6.507c-.65 0-1.17.523-1.17 1.17 0 1.42-2.36 3-5.74 3s-5.74-1.58-5.74-3c0-.647-.53-1.17-1.17-1.17-.62 0-1.14.523-1.14 1.17 0 2.99 3.542 5.33 8.066 5.336 4.52-.006 8.063-2.347 8.063-5.336 0-.647-.53-1.17-1.17-1.17z" fill="#333"/><path fill="#F7931E" d="M153.62 143.38h29v4h-29v-4z"/><path fill="#FFEDDC" d="M149.31 143.126l-.583 1.798s2.27-.646 2.987 0c.713.648 2.144.91 3.765 0 1.62-.908 4.86-.904 6.49.135 1.62 1.03 6.23-.2 6.23-.2s3.68-1.17 6.55.71c2.86 1.88 7.01-.91 7.01-.91s1.04-.59 1.82 1.16l-.78-2.61-33.5-.1h.01v.01z"/><path fill="#F7931E" d="M148.9 174.23c.035.03.074.063.115.1 2.254-6.31 5.98-17.166 5.615-19.08-.51-2.725-2.72-2.075-5.06 4.675-1.28 3.694-3.88 9.556-5.97 14.115.61-.285 3.44-1.46 5.3.19zm43.454-.08c-2.136-3.93-11.463-20.85-13.183-19.81-1.54.92 1.97 13.263 3.3 20.86.32-.253.61-.532.9-.853 3.88-4.37 8.08-1.03 9-.2h-.01v.003zM165.8 156.287c-4.102.493-5.866 10.968-6.68 18.857.358-.105.668-.18 1.053-.3 6.408-2.004 9.76.202 10.612.904.096-7.49-.424-20.01-4.984-19.46v-.01.01z"/><path fill="#fdb" d="M218.07 101.733s.943 1.605-.55 4.713c0 0-.315 2.02-1.06 3.352l-.697 1.25s-2.814 6.194-11.69 2.63c0 0-8.427-.954-8.35-8.235l5.48-9.623 16.86 5.913h.007zm-17.497 6.17s-.392 2.92-2.884 2.862c0 0-4.65-5.068-2.15-8.264"/><path fill="#fdb" d="M208.453 101.733c1.104-2.605 2.273-5.174 3.418-7.755 1.19-2.566 2.33-5.148 3.57-7.698.68-1.417.08-3.114-1.34-3.788-1.41-.673-3.11-.08-3.79 1.333-.04.084-.07.167-.1.25-.97 2.652-2.02 5.277-3.02 7.92-1.05 2.618-2.07 5.25-3.17 7.855-.51 1.232.07 2.65 1.3 3.165 1.23.52 2.65-.057 3.17-1.282h-.03zm-5.12-1.108l2.37-17.517c.2-1.486-.865-2.854-2.354-3.058-1.49-.194-2.98.833-3.11 2.328 0 .025-.02.065-.02.093l-1.75 17.59c-.13 1.33.85 2.52 2.18 2.65 1.3.14 2.48-.79 2.65-2.08h.02zm3.537-5.043s-2.896 2.292-3.9-.863l.52 5.16 3.38-4.3zm6.235 8.276c1.227-2.393 2.396-4.813 3.59-7.21 1.158-2.423 2.35-4.834 3.48-7.27.594-1.278.035-2.798-1.236-3.39-1.28-.587-2.76-.055-3.4 1.187-1.18 2.41-2.32 4.85-3.48 7.27-1.13 2.44-2.27 4.87-3.36 7.323-.55 1.223 0 2.65 1.23 3.188 1.17.525 2.54.03 3.13-1.098h.03zm1.7 4.707l9.3-12.463c.677-.906.488-2.185-.41-2.856-.88-.656-2.105-.5-2.804.337l-9.89 12c-.84 1.03-.7 2.556.34 3.403 1.03.853 2.55.705 3.41-.325l.07-.09h-.01z"/><path fill="#E2AB74" d="M200.695 103.16"/><path fill="#fdb" d="M200.473 104.23c-.45-1.134-.91-2.056-1.44-3.036-.53-.962-1.12-1.903-1.79-2.807-1.33-1.804-2.96-3.545-5.16-4.8-1.23-.69-3.05.224-3.75 1.448-.7 1.225-.55 3.286.68 3.97l.06.032c1.3.73 2.84 1.416 3.91 2.822.53.7 1.17 1.21 1.63 2 .44.77.96 1.53 1.26 2.25l.07.02c.51 1.23 1.96 1.78 3.19 1.27 1.22-.52 1.82-1.94 1.33-3.18l.01.01h.02-.02z"/><path fill="#fff" d="M190.422 98.424s.34-1.054 1.08-1.19c0 0-.754-1.298-1.686-1.13-.934.17-1.012 1.027-1.012 1.027s.508.82 1.615 1.3z"/><path fill="#082031" d="M72.632 143.27l10.37 2.73 6.33 5.874.095.73-1.653-.223H63.53c-.296-5-6.33-5.77-6.33-5.77l2.627-2.69 12.805-.65z"/><path fill="#333" d="M172.33 61.21c-.083.018 1.037-.253 2.374-.3.687.02 1.476-.024 2.3.096.832.058 1.7.2 2.548.403.86.14 1.683.41 2.443.66.772.21 1.476.47 2.053.74 1.162.49 1.938.83 1.938.83l-2.07-.37c-.607-.13-1.33-.22-2.107-.25-.78-.06-1.6-.14-2.41-.08-.81 0-1.61.06-2.35.18-.74.06-1.4.27-1.97.38-1.14.33-1.61.6-1.69.63-.81.29-1.7-.14-1.99-.95-.29-.81.13-1.7.94-1.99l-.01.02zm-13.066 2.728c-.06-.012-.77-.284-2.1-.566-1.313-.252-3.125-.523-4.96-.516-.923-.024-1.85-.018-2.71.088-.87.075-1.694.115-2.376.274-1.39.257-2.316.43-2.316.43s.878-.357 2.192-.9c.652-.303 1.457-.515 2.316-.775.86-.29 1.8-.495 2.752-.67 1.9-.404 3.86-.52 5.354-.547 1.48-.003 2.604.16 2.546.147.838.19 1.362 1.03 1.166 1.867-.2.84-1.03 1.36-1.87 1.168h.006zm-88.61 24.88c-.66 0-1.274-.425-1.486-1.087-.26-.82.192-1.69 1.013-1.95 1.7-.54 2.16-1.29 2.16-1.6l-.01-12.28c0-.85.79-1.55 1.65-1.55s1.65.7 1.65 1.56v12.13s.3 3.23-4.4 4.72c-.15.05-.4.07-.56.07l-.01-.01zm93.686 0c-.66 0-1.273-.425-1.484-1.087-.26-.82.19-1.69 1.015-1.95 1.69-.54 2.15-1.29 2.15-1.6l-.01-12.27c0-.85.44-1.55 1.3-1.55.86 0 1.3.7 1.3 1.56v12.13s.64 3.23-4.07 4.72c-.16.05-.06.07-.22.07v-.02h.02z"/></svg>