<?xml version="1.0" encoding="utf-8"?>
<!-- Generator: Adobe Illustrator 16.0.0, SVG Export Plug-In . SVG Version: 6.00 Build 0)  -->
<!DOCTYPE svg PUBLIC "-//W3C//DTD SVG 1.1//EN" "http://www.w3.org/Graphics/SVG/1.1/DTD/svg11.dtd">
<svg version="1.1" id="Layer_1" xmlns="http://www.w3.org/2000/svg" xmlns:xlink="http://www.w3.org/1999/xlink" x="0px" y="0px"
	 width="256px" height="256px" viewBox="0 0 256 256" enable-background="new 0 0 256 256" xml:space="preserve">
<path fill="#333333" d="M217.682,102.529c-0.4-0.3-0.82-0.55-1.261-0.76c0.021-0.94-0.13-1.88-0.46-2.78
	c-0.689-1.9-2.08-3.41-3.92-4.26c-0.48-0.23-0.99-0.4-1.5-0.52c-0.76-1.24-1.88-2.28-3.29-2.95c-1.069-0.51-2.2-0.77-3.38-0.77
	c-1.301,0-2.561,0.33-3.67,0.92c-1.051-1.41-2.58-2.46-4.391-2.89C191.1,62.7,179.13,48,162.5,48c-1.34,0-2.715,0.097-4.1,0.286
	h-1.57c-1.391-0.19-2.76-0.29-4.1-0.29h-0.01c-8.921,0-16.721,4.286-22.57,12.39c-13.15,18.24-14.11,52.7-11.5,60.54
	c1.26,3.77,4.017,6.86,8.01,9.076c-1.11,1.17-2.24,2.42-3.33,3.721c-1.37,1.579-2.56,3.069-3.64,4.569
	c-0.68,0.88-1.31,1.771-1.9,2.64c-1.164-2.201-2.366-4.479-3.775-6.779c-0.835-1.473-1.786-2.99-2.823-4.521
	c-0.91-1.43-1.94-2.885-3.07-4.33c-0.67-0.943-1.4-1.82-2.1-2.632c0.24-0.267,0.46-0.56,0.64-0.888l3.31-5.85
	c0.4-0.69,0.62-1.48,0.65-2.27l0.57-14.77c4.36-1.89,6.85-6.17,6.85-12.12c0-2.19-0.43-4.31-1.23-6.19
	c0.22-0.8,0.238-1.64,0.047-2.46c-0.12-0.53-2.91-12.16-10.37-21.13c1.25-7.71,0-13.95-3.71-18.59c-5.18-6.41-12.99-7.11-16.1-7.11
	L86.7,31.35c-1.435,0-2.81,0.14-3.984,0.404c-2.59,0.585-4.65,2.065-5.97,4.28c-1.98,3.33-1.74,7.543-1.14,10.62
	c-20.94,2.73-27.19,30.4-27.46,31.636c-0.17,0.753-0.15,1.526,0.03,2.26c-0.837,1.91-1.28,4.068-1.28,6.316
	c0,6.214,2.69,10.57,7.39,12.333l0.55,14.54c0.03,0.8,0.253,1.58,0.647,2.27l3.31,5.84c0.322,0.57,0.742,1.05,1.23,1.44
	c-0.695,0.79-1.36,1.59-2,2.39c-2.635,3.299-4.66,6.6-6.19,10.07l-0.044,0.101c-0.72,1.719-1.59,4.029-2.01,6.689
	c-0.47,2.52-0.51,5.189-0.12,7.75c0.34,2.45,1.15,4.91,2.41,7.29c1,1.89,2.26,3.66,3.75,5.26c0.96,1.04,2.02,2.04,3.24,3.03
	l-8.54,19.859c-0.96,2.23-0.23,4.891,1.8,6.221c0.86,0.56,1.82,0.84,2.78,0.84c1.29,0,2.55-0.51,3.51-1.5l0.03-0.03
	c0.05-0.05,0.25-0.229,0.54-0.399l0.02-0.021l0.15-0.09l0.06-0.04l0.14-0.061l0.05-0.02c0.03-0.02,0.07-0.029,0.11-0.05
	c0.04-0.011,0.07-0.021,0.11-0.04l0.09-0.02l0.03-0.011l0.07-0.01h0.08l0.05,0.021h0.01l0.08,0.049l0.18,0.131l0.07,0.06
	c0.12,0.11,0.21,0.2,0.28,0.271c0.35,0.4,0.74,0.77,1.18,1.15l-1.41,25.1c-1.17,0.49-2.15,1.42-2.67,2.65
	c-2.06,0.959-6.06,2.969-9.21,5.399c-0.14,0.101-0.26,0.21-0.38,0.319c-1.03,0.761-2.12,1.011-3.85,1.371
	c-1.67,0.35-3.56,0.739-5.48,1.859c-0.65,0.37-1.19,0.88-1.6,1.471c-1.17,0.92-1.91,2.34-1.91,3.93v4c0,2.77,2.24,5,5,5h38
	c0.71,0,1.39-0.141,2-0.41c0.61,0.26,1.29,0.41,2,0.41H158c0.559,0,1.09-0.09,1.59-0.26c0.504,0.17,1.038,0.26,1.59,0.26h39.311
	c2.764,0,5-2.24,5-5v-4c0-2.76-2.236-5-5-5h-0.246c-2.7-1.12-5.827-1.78-9.18-1.95c-2.83-2.05-6.035-4.24-7.67-5.351
	c-0.056-0.199-0.104-0.399-0.139-0.539c-0.117-0.471-0.218-0.871-0.359-1.271c-0.701-1.93-2.48-3.19-4.455-3.29l-3.601-44.14
	c2.341-1.06,3.521-3.73,2.66-6.2l-0.74-2.141l0.03-0.92c2.13-1.06,3.24-3.5,2.58-5.84l-0.78-2.74c-0.05-0.17-0.1-0.34-0.17-0.5
	l-2.069-10.479c0.5,0.24,1.01,0.47,1.539,0.7c2.44,1.02,4.891,1.66,7.301,1.939c0.66,0.07,1.33,0.11,2.01,0.11
	c2.65,0,5.27-0.56,7.59-1.61c3.46-1.5,5.71-3.979,7.1-5.72l0.15-0.19c1.54-2.129,2.41-4.18,2.98-5.529
	c0.049-0.11,0.09-0.21,0.119-0.32c0.101-0.3,0.211-0.59,0.32-0.869c0.07-0.19,0.15-0.381,0.221-0.57
	c2.779-1.291,4.579-3.38,5.449-5.22c0.24-0.37,0.45-0.74,0.65-1.1c0.84-1.5,1.3-3.28,1.52-4.28c0.29-0.69,0.52-1.36,0.69-2.03
	l5.12-6.84C221.432,109.259,220.791,104.839,217.682,102.529z M133.826,154.379l0.109-0.17c0.701-1.141,1.471-2.33,2.32-3.43
	l0.07-0.11l-0.67,3.78c-0.061,0.14-0.11,0.279-0.15,0.42l-0.59,1.88c-0.12,0.37-0.189,0.74-0.218,1.12
	c-0.171-0.25-0.36-0.5-0.568-0.75c-0.369-0.451-0.726-0.941-1.104-1.451c0,0-0.001,0-0.001,0.001l-0.021-0.03
	c0.007,0.01,0.015,0.019,0.021,0.029C133.276,155.228,133.546,154.799,133.826,154.379z M101.406,163.02
	c0.8-0.261,1.53-0.721,2.13-1.36c0.25-0.28,0.47-0.58,0.66-0.9c0.39,0.9,0.74,1.73,1.05,2.46c-1.02,1.45-1.9,3.29-1.79,5.301
	L101.39,163L101.406,163.02z M138.816,217.568c-1.03,0.561-1.871,1.48-2.301,2.65c-0.149,0.41-0.26,0.83-0.379,1.311
	c-0.033,0.13-0.08,0.32-0.134,0.52c-1.655,1.12-4.851,3.311-7.67,5.34c-2.59,0.131-5.045,0.561-7.27,1.26
	c-1.74-0.899-3.44-1.26-4.954-1.569c-1.73-0.36-2.82-0.61-3.84-1.37c-0.12-0.12-0.25-0.23-0.39-0.33c-3.16-2.42-7.15-4.439-9.21-5.4
	c-0.54-1.27-1.56-2.22-2.78-2.689l-1.05-23.35c1.49-0.53,2.63-1.33,3.61-2.141c0.17,0.04,0.36,0.1,0.52,0.17
	c0.7,0.35,1.46,0.521,2.22,0.521c1.21,0,2.4-0.44,3.34-1.28c1.52-1.38,2.05-3.55,1.33-5.47l-3.2-8.55
	c2.23,4.069,5.57,7.949,10.25,7.949c0.83,0,1.65-0.13,2.46-0.38c0.77-0.25,1.47-0.51,2.12-0.78c0.64,0.271,1.35,0.53,2.12,0.78
	c0.8,0.25,1.62,0.38,2.45,0.38l0.047,0.03c6.51,0,10.44-7.53,12.35-12.61c0.26,0.15,0.54,0.291,0.84,0.4l0.44,0.16L138.816,217.568z
	"/>
<path fill="#333333" d="M138.791,125.771c0.37-0.31,0.74-0.61,1.1-0.9c-0.27-0.87-0.47-1.7-0.609-2.42h-1.43
	C138.131,123.631,138.441,124.741,138.791,125.771"/>
<path fill="#333333" d="M66.4,151l3.28-16.38c-1.57,2.149-2.99,4.51-3.91,6.89c-0.91,2.37-1.22,4.637-0.84,6.327
	c0.15,0.87,0.5,1.63,0.9,2.34c0.17,0.28,0.37,0.55,0.57,0.81"/>
<path fill="#FFDDBB" d="M168.74,159.41l5.918,72.49l-11.266,0.899l-5.4-72.53L168.74,159.41z M155.811,160.063l-0.959,71.604
	l-11.3-0.188l1.478-71.609L155.811,160.063z"/>
<path fill="#29ABE2" d="M173.88,225.534c0.323-0.493,0.64-0.925,0.957-1.302c1.2-1.426,2.343-2.07,3.37-2.256
	c0.225,0.613,0.627,3.06,1.33,3.521c0,0,5.79,3.882,9.85,6.882h-0.035c3.75,0,7.59,0.685,10.67,2.417l-0.021,2.5l-36.55,0.87
	c0,0-1.051,0.213-0.95,0.213h-0.021c0,0-0.719-4.985-0.449-7.466c2.88,0.874,8.41-0.086,11.88-5.38H173.88z"/>
<path fill="#C7B299" d="M161.2,238.38h39.42v-4h-39.81L161.2,238.38z"/>
<path fill="#FFFFFF" d="M175.396,223.975c0,0,6.576,4.385,4.051,5.455c-2.533,1.069-7.994-0.98-7.994-0.98s1.717-4.19,3.943-4.48
	V223.975z"/>
<path fill="#29ABE2" d="M145.561,225.534c-0.326-0.493-0.643-0.925-0.959-1.302c-1.197-1.426-2.338-2.07-3.367-2.256
	c-0.228,0.613-0.629,3.06-1.33,3.521c0,0-5.788,3.882-9.85,6.882h0.034c-3.75,0-7.59,0.685-10.67,2.417l0.03,2.5l36.55,0.87
	c0,0,1.05,0.213,0.95,0.213h0.01c0,0,0.721-4.985,0.45-7.466c-2.88,0.874-8.41-0.086-11.88-5.38H145.561z"/>
<path fill="#C7B299" d="M158.02,238.38H118.62v-4h39.53L158.02,238.38z"/>
<path fill="#FFFFFF" d="M144.042,223.975c0,0-6.571,4.385-4.045,5.455c2.53,1.069,7.989-0.98,7.989-0.98s-1.719-4.19-3.944-4.48
	V223.975z"/>
<path fill="#0071BC" d="M157.023,154.38H141.92l0.471,13.38l13.83,4.543l0.803-2.207l0.803,2.112l13.83-4.435l0.47-13.393
	L157.023,154.38z"/>
<path fill="#1A1A1A" d="M81.09,47.928c0,0-3.307-9.93,2.728-11.294c6.04-1.36,26.485,1.167,14.412,30.964"/>
<path fill="#ED1E79" d="M79.34,52.407l1.75-5.45c0,0,5.455-4.48,9.74,2.532l-1.363,6.42"/>
<path fill="#1A1A1A" d="M69.15,56.238l-0.518,9.347l32.718,3.637L89.664,53.385C89.664,53.385,74.604,49.489,69.15,56.238z"/>
<path fill="#FFDDBB" d="M122.2,155.368c0,0-14.804,9.79-13.67,13.225c0,0,4.05,13.13,9.386,11.443
	c5.334-1.685,4.218-3.455,4.218-3.455s4.565-2.399,5.803-3.56c0.98-0.92,2.84-3.09,3.097-4.41c0.174-0.851-0.769-3.4-0.769-3.4
	s2.737-1.57,0.022-4.891c-2.72-3.31-4.46-7.489-8.088-4.949V155.368z"/>
<path fill="#FFDDBB" d="M120.877,155.368c0,0,14.803,9.79,13.67,13.225c0,0-4.053,13.13-9.384,11.443
	c-5.333-1.685-4.22-3.455-4.22-3.455s-4.562-2.399-5.805-3.56c-0.98-0.92-2.838-3.09-3.096-4.41c-0.172-0.851,0.768-3.4,0.768-3.4
	s-2.735-1.57-0.02-4.891c2.717-3.31,4.46-7.489,8.087-4.949V155.368z"/>
<path fill="#FBB03B" d="M130.947,76.196l1.945,46.185h49.08l1.359-31.38l-7.01-26.29L130.947,76.196z"/>
<path fill="#FFDDBB" d="M154.742,127.016c0,0-0.17,0.104-0.488,0.29c-0.304,0.194-0.74,0.474-1.303,0.827
	c-1.16,0.76-2.83,1.908-4.77,3.41c-1.951,1.471-4.111,3.355-6.371,5.423c-2.189,2.13-4.479,4.452-6.529,6.966
	c-1.051,1.23-2.051,2.5-2.961,3.801c-0.969,1.26-1.809,2.569-2.6,3.847c-0.85,1.239-1.53,2.521-2.17,3.729
	c-0.68,1.19-1.28,2.34-1.73,3.44c-0.48,1.09-0.92,2.09-1.31,2.97c-0.31,0.91-0.59,1.7-0.82,2.36l-0.72,2.04l-10.45-3.24l0.88-2.439
	c0.28-0.78,0.62-1.721,1.02-2.801c0.44-1.06,1-2.229,1.59-3.51c0.56-1.3,1.27-2.65,2.08-4.04c0.77-1.409,1.6-2.89,2.59-4.33
	c0.94-1.479,1.93-2.979,3.06-4.409c1.07-1.49,2.23-2.931,3.44-4.32c2.37-2.84,4.98-5.44,7.48-7.811c2.56-2.31,5-4.39,7.22-6.02
	c2.189-1.67,4.11-2.96,5.5-3.84l1.689-1.04l0.58-0.34l5.141,9L154.742,127.016z"/>
<path fill="#FFDDBB" d="M165.448,117.37c0,0,0.507,0.513,1.386,1.414c0.916,0.91,2.256,2.198,3.924,3.66
	c1.67,1.462,3.663,3.1,5.858,4.638c2.192,1.516,4.625,2.97,6.918,3.816c1.144,0.435,2.21,0.642,3.079,0.716
	c0.873,0.054,1.375-0.145,1.771-0.333c0.4-0.141,0.724-0.61,1.138-1.11c0.381-0.59,0.721-1.36,1.018-2.13
	c0.22-0.86,0.51-1.59,0.62-2.4c0.14-0.76,0.29-1.42,0.34-2.03l0.21-1.85l10.88,1.14l-0.38,2.4c-0.09,0.75-0.33,1.71-0.59,2.8
	c-0.21,1.07-0.689,2.36-1.16,3.73c-0.6,1.399-1.33,2.94-2.49,4.54c-1.25,1.561-2.89,3.279-5.22,4.27
	c-2.25,1.03-4.83,1.351-7.011,1.11c-2.18-0.24-4.159-0.819-5.909-1.56c-3.511-1.48-6.36-3.42-8.91-5.32
	c-2.521-1.92-4.67-3.84-6.46-5.53c-1.79-1.69-3.2-3.16-4.189-4.22c-0.98-1.09-1.551-1.71-1.551-1.71l6.69-6L165.448,117.37z"/>
<polygon fill="#FFEDDC" points="173.792,157.098 140.298,157.225 147.309,117.381 166.004,117.381 "/>
<path fill="#FFEDDC" d="M151.49,129.38h10.324c1.047,0,0.805-0.46,0.805-1.508v-10.49h-12v10.49c0,1.048-0.18,1.51,0.869,1.51
	L151.49,129.38z"/>
<path fill="#F4D1B0" d="M160.62,118.038c0,2.58-1.3,3.634-3.497,3.634c-2.2,0-3.504-1.055-3.504-3.634v-9.35
	c0-2.58,1.3-4.675,3.5-4.675c2.199,0,3.49,2.094,3.49,4.675v9.35H160.62z"/>
<path fill="#D3BD8D" d="M176.303,86.866c0,4.535,0.656,8.21,3.838,8.21s7.68-0.854,7.68-8.21c0-4.538-2.569-8.21-5.75-8.21
	c-3.18,0-5.76,3.672-5.76,8.21H176.303z"/>
<path fill="#C69C6D" d="M177.257,86.834c0.015-1.27,0.274-2.72,0.897-3.95c0.316-0.624,0.713-1.235,1.279-1.763
	c0.563-0.51,1.362-0.95,2.291-0.96c0.354,0.03,0.28,0.01,0.615,0.07c0.266,0.06,0.494,0.14,0.67,0.23
	c0.393,0.18,0.711,0.42,1.004,0.67c0.569,0.53,0.68,1.14,0.991,1.77c0.627,1.26,0.613,2.62,0.613,3.98v0.16
	c0,0.89-0.41,1.62-1.308,1.64c-0.89,0.01-1.47-0.7-1.479-1.59c0-0.06,0.08-0.13,0.09-0.19c0.101-0.9,0.06-1.87-0.229-2.7
	c-0.271-0.85-0.801-1.39-0.961-1.45c-0.09-0.05-0.34-0.04-0.66,0.18c-0.309,0.22,1.111,0.57,0.841,0.99
	c-0.54,0.87,0.739,1.84,0.739,3.01v0.05c0,0.52-2.25,0.9-2.779,0.85c-0.49-0.05-2.58-0.47-2.58-0.95L177.257,86.834z"/>
<path fill="#D3BD8D" d="M138.218,86.866c0,4.535-0.657,8.21-3.837,8.21s-7.67-0.854-7.67-8.21c0-4.538,2.58-8.21,5.76-8.21
	s5.76,3.672,5.76,8.21H138.218z"/>
<path fill="#C69C6D" d="M137.264,86.834c-0.017-1.27-0.277-2.72-0.898-3.95c-0.315-0.624-0.715-1.235-1.28-1.763
	c-0.56-0.51-1.358-0.95-2.292-0.96c-0.348,0.03-0.277,0.01-0.605,0.07c-0.271,0.06-0.5,0.14-0.674,0.23
	c-0.396,0.18-0.715,0.42-1.007,0.67c-0.563,0.53-0.821,1.14-1.137,1.77c-0.623,1.26-0.75,2.62-0.75,3.98v0.16
	c0,0.89,0.553,1.62,1.442,1.64c0.894,0.01,1.556-0.7,1.561-1.59c0-0.06-0.04-0.13-0.051-0.19c-0.094-0.9-0.039-1.87,0.254-2.7
	c0.27-0.85,0.82-1.39,0.976-1.45c0.095-0.05,0.351-0.04,0.671,0.18c0.313,0.22,0.629,0.57,0.896,0.99
	c0.548,0.87,0.873,1.84,0.993,3.01l0.005,0.05c0.057,0.52,0.52,0.9,1.043,0.85c0.489-0.05,0.85-0.47,0.85-0.95L137.264,86.834z"/>
<path fill="#FFDDBB" d="M179.916,94.973c0,16.135-15.5,17.528-22.416,17.528c-7.872,0-22.418-1.39-22.418-17.52
	s-1.67-36.85,22.418-36.85c24.324,0,22.416,20.72,22.416,36.85V94.973z"/>
<path fill="#333333" d="M155.032,101.98c-0.66,0-1.273-0.422-1.485-1.086c-0.26-0.817,0.189-1.696,1.014-1.958
	c1.66-0.524,2.101-1.252,2.101-1.563V85.32c0-0.86,1.12-1.558,1.989-1.558c0.861,0,1.98,0.7,1.98,1.558v11.92v-0.003
	c0,0-0.04,3.192-4.689,4.67c-0.15,0.047-0.74,0.072-0.891,0.072L155.032,101.98z"/>
<path fill="#F48B73" d="M160.125,106.778c0,2.02-1.641,3.656-3.657,3.656c-2.02,0-3.659-1.638-3.659-3.656
	c0-2.023,1.64-3.658,3.659-3.658C158.486,103.12,160.125,104.755,160.125,106.778z"/>
<path fill="#F5F5F5" d="M153.354,86.84c0,3.687-2.99,6.676-6.678,6.676c-3.685,0-6.672-2.99-6.672-6.675
	c0-3.68,2.987-6.67,6.672-6.67C150.366,80.171,153.354,83.161,153.354,86.84L153.354,86.84z"/>
<path fill="#0071BC" d="M151.372,86.683c0,2.558-2.07,4.63-4.636,4.63c-2.557,0-4.633-2.072-4.633-4.63
	c0-2.562,2.076-4.63,4.633-4.63C149.303,82.053,151.372,84.121,151.372,86.683z"/>
<path fill="#F5F5F5" d="M176.245,86.84c0,3.687-2.985,6.676-6.67,6.676c-3.693,0-6.681-2.99-6.681-6.675
	c0-3.68,2.986-6.67,6.681-6.67C173.26,80.171,176.245,83.161,176.245,86.84L176.245,86.84z"/>
<path fill="#0071BC" d="M174.266,86.683c0,2.558-2.07,4.63-4.631,4.63c-2.56,0-4.633-2.072-4.633-4.63
	c0-2.562,2.073-4.63,4.633-4.63C172.195,82.053,174.266,84.121,174.266,86.683z"/>
<path fill="#FCEE21" d="M135.477,79.432c0,0-1.899,36.58,4.455,49.304c0,0-13.674-0.708-16.537-9.291
	c-2.86-8.585-0.633-71.064,33.068-66.064h2.282c33.703-5,35.932,57.48,33.071,66.063c-2.862,8.583-16.539,9.93-16.539,9.93
	c6.359-12.722,2.177-52.243,2.177-52.243l-13.675-17.546l-13.356,0.54L135.477,79.432z"/>
<path fill="#333333" d="M156.665,107.348c-4.534,0-8.084-2.344-8.084-5.337c0-0.64,0.53-1.17,1.17-1.17c0.649,0,1.17,0.53,1.17,1.17
	c0,1.42,2.36,3.01,5.75,3.01s5.75-1.58,5.75-3c0-0.64,0.53-1.17,1.17-1.17c0.65,0,1.17,0.53,1.17,1.17c0,3-3.55,5.34-8.079,5.34
	L156.665,107.348z"/>
<path fill="#FCEE21" d="M156.783,62.666c0,0-13.633,21.484-28.693,20.448l15.975-22.122l13.431-3.066L156.783,62.666L156.783,62.666
	z M157.62,62.344c0,0,12.624,23.238,27.687,22.2l-14.172-23.55l-13.516-2.87L157.62,62.344L157.62,62.344z"/>
<path fill="#005D91" d="M142.62,157.38h29v3h-29V157.38z"/>
<path fill="#FFEDDC" d="M140.298,156.55l-0.586,1.798c0,0,2.271-0.646,2.983,0c0.716,0.647,2.145,0.909,3.77,0
	c1.62-0.91,4.866-0.906,6.486,0.133c1.63,1.041,6.24-0.189,6.24-0.189s3.699-1.17,6.56,0.71c2.86,1.89,7.011-0.899,7.011-0.899
	s1.039-0.58,1.819,1.17l-0.771-2.61l-33.49-0.09L140.298,156.55z"/>
<path fill="#FFDDBB" d="M209.057,115.156c0,0,0.938,1.604-0.553,4.713c0,0-0.314,2.02-1.055,3.35l-0.71,1.25
	c0,0-2.82,6.19-11.69,2.63c0,0-8.43-0.96-8.35-8.24l5.48-9.63l16.869,5.91L209.057,115.156z M191.557,121.326
	c0,0-0.39,2.92-2.883,2.862c0,0-4.621-5.07-2.13-8.264"/>
<path fill="#FFDDBB" d="M199.436,115.156c1.105-2.605,2.276-5.174,3.414-7.755c1.188-2.56,2.334-5.14,3.558-7.69
	c0.675-1.41,0.073-3.11-1.337-3.79c-1.416-0.67-3.118-0.08-3.791,1.34c-0.043,0.09-0.072,0.17-0.104,0.25
	c-0.975,2.65-2.017,5.28-3.024,7.92c-1.058,2.62-2.077,5.25-3.17,7.86c-0.517,1.23,0.065,2.65,1.295,3.17
	c1.228,0.52,2.643-0.06,3.16-1.28V115.156z M194.314,114.05l2.375-17.52c0.189-1.484-0.871-2.854-2.36-3.057
	c-1.49-0.194-2.979,0.833-3.091,2.328c0,0.03-0.01,0.07-0.01,0.1l-1.76,17.59c-0.14,1.33,0.85,2.52,2.18,2.65
	c1.301,0.14,2.471-0.79,2.641-2.07L194.314,114.05z M197.854,109.005c0,0-2.894,2.292-3.897-0.863l0.521,5.162L197.854,109.005
	L197.854,109.005z M204.088,117.28c1.23-2.392,2.396-4.813,3.59-7.21c1.16-2.422,2.354-4.834,3.485-7.268
	c0.593-1.28,0.035-2.8-1.244-3.39c-1.271-0.588-2.76-0.056-3.38,1.186c-1.18,2.41-2.311,4.85-3.46,7.27
	c-1.13,2.442-2.28,4.87-3.36,7.324c-0.539,1.223,0.01,2.648,1.23,3.188c1.17,0.524,2.55,0.028,3.13-1.1H204.088z M205.79,121.988
	l9.302-12.463c0.674-0.906,0.487-2.185-0.414-2.857c-0.876-0.655-2.109-0.5-2.803,0.337l-9.891,12.002
	c-0.846,1.028-0.705,2.555,0.33,3.4c1.033,0.855,2.551,0.706,3.406-0.323C205.745,122.057,205.77,122.018,205.79,121.988
	L205.79,121.988z"/>
<path fill="#E2AB74" d="M191.68,116.584"/>
<path fill="#FFDDBB" d="M191.457,117.652c-0.45-1.133-0.91-2.055-1.445-3.035c-0.531-0.962-1.121-1.904-1.781-2.806
	c-1.33-1.8-2.959-3.54-5.16-4.79c-1.219-0.69-3.049,0.23-3.75,1.45c-0.689,1.23-0.539,3.29,0.681,3.97
	c0.021,0.01,0.05,0.03,0.069,0.03c1.301,0.73,2.841,1.42,3.921,2.83c0.54,0.7,1.18,1.22,1.63,2c0.449,0.77,0.97,1.53,1.27,2.26
	l0.08,0.02c0.521,1.23,1.971,1.79,3.2,1.27c1.229-0.51,1.83-1.94,1.341-3.17L191.457,117.652z"/>
<path fill="#FFFFFF" d="M181.404,111.848c0,0,0.339-1.054,1.082-1.19c0,0-0.754-1.3-1.688-1.13c-0.93,0.17-1.02,1.026-1.02,1.026
	s0.5,0.817,1.609,1.294H181.404z"/>
<path fill="#FBB03B" d="M163.922,74.635c-0.085,0.017,1.037-0.254,2.374-0.3c0.685,0.02,1.478-0.025,2.3,0.095
	c0.83,0.057,1.7,0.2,2.547,0.403c0.858,0.14,1.68,0.412,2.445,0.66c0.77,0.218,1.475,0.475,2.051,0.75
	c1.162,0.495,1.937,0.832,1.937,0.832l-2.07-0.366c-0.604-0.13-1.33-0.22-2.104-0.25c-0.77-0.06-1.59-0.14-2.399-0.08
	c-0.81,0-1.61,0.05-2.351,0.18c-0.739,0.06-1.399,0.26-1.969,0.38c-1.141,0.33-1.611,0.59-1.69,0.63c-0.81,0.29-1.7-0.14-1.99-0.95
	c-0.29-0.82,0.13-1.7,0.94-1.99L163.922,74.635z M150.852,77.36c-0.058-0.01-0.765-0.283-2.097-0.565
	c-1.313-0.25-3.123-0.522-4.96-0.515c-0.922-0.025-1.854-0.018-2.712,0.087c-0.866,0.075-1.692,0.116-2.375,0.275
	c-1.39,0.257-2.313,0.43-2.313,0.43l2.189-0.9c0.654-0.303,1.458-0.515,2.32-0.775c0.856-0.29,1.798-0.495,2.75-0.67
	c1.9-0.405,3.863-0.522,5.354-0.548c1.47-0.01,2.601,0.15,2.54,0.14c0.84,0.19,1.36,1.03,1.17,1.86
	c-0.199,0.84-1.029,1.36-1.869,1.17L150.852,77.36z"/>
<path fill="#FFDDBB" d="M85.362,117.65c0,0,0.067-0.02,0.19-0.064c0.324-0.11,1.093-0.307,1.605-0.343
	c0.946-0.1,2.172-0.05,3.382,0.253c1.24,0.287,2.46,0.807,3.7,1.48l1.8,1.13l1.7,1.343c1.13,0.95,2.23,2.03,3.29,3.19
	c1.02,1.17,2.14,2.4,3.08,3.73c1.02,1.3,2,2.67,2.89,4.09c0.95,1.4,1.86,2.85,2.69,4.311c1.77,2.89,3.26,5.859,4.74,8.629
	c1.36,2.791,2.63,5.4,3.68,7.65l3.32,7.53l-10.1,4.2c0,0-1.24-2.91-3.11-7.28c-1-2.14-2.16-4.63-3.41-7.3
	c-1.36-2.59-2.73-5.42-4.31-8.051c-0.75-1.359-1.55-2.649-2.38-3.89c-0.79-1.28-1.62-2.46-2.45-3.55c-0.8-1.16-1.66-2.1-2.44-3.04
	c-0.79-0.89-1.58-1.66-2.28-2.271l-1.01-0.84l-0.85-0.54c-0.49-0.27-0.86-0.42-1-0.46c-0.16-0.05-0.06-0.01,0.13-0.05
	c0.13-0.01,0.62-0.12,0.75-0.2c0.01-0.01-0.11,0.03-0.09,0.02l-3.57-9.73L85.362,117.65z"/>
<path fill="#FFDDBB" d="M79.772,123.92c0,0-0.54,0.467-1.49,1.283c-0.957,0.855-2.32,2.13-3.86,3.73
	c-3.027,3.172-6.91,7.854-8.76,12.652c-0.908,2.372-1.22,4.634-0.84,6.325c0.15,0.88,0.496,1.63,0.9,2.35
	c0.422,0.71,0.953,1.36,1.54,1.931c0.574,0.59,1.21,1.1,1.8,1.529c0.65,0.41,1.126,0.82,1.66,1.07
	c0.995,0.561,1.565,0.87,1.565,0.87l-5.092,9.69L65,164.02c-0.695-0.39-1.515-1.063-2.458-1.746c-0.93-0.735-1.97-1.637-3.018-2.776
	c-1.05-1.134-2.11-2.53-2.998-4.2c-0.88-1.673-1.602-3.62-1.887-5.689c-0.32-2.053-0.28-4.194,0.1-6.176
	c0.31-2.021,0.97-3.871,1.7-5.631c1.52-3.46,3.5-6.439,5.52-8.97c2.02-2.54,4.06-4.69,5.88-6.45c1.81-1.75,3.39-3.12,4.54-4.06
	c1.18-0.95,1.86-1.49,1.86-1.49l5.52,7.1L79.772,123.92z"/>
<polygon fill="#FFDDBB" points="79.614,160.107 76.091,232.045 64.811,231.492 68.851,159.576 "/>
<polygon fill="#FFDDBB" points="92.334,159.742 95.568,231.532 84.272,232.005 81.562,160.198 "/>
<path fill="#FF9FCD" d="M65.083,157.098l34.186,0.127l-7.16-40.844H73.04L65.083,157.098z"/>
<path fill="#F4D1B0" d="M85.62,118.038c0,2.58-1.303,2.403-3.5,2.403c-2.203,0-3.5,0.18-3.5-2.4v-9.35c0-2.58,1.297-4.67,3.5-4.67
	c2.197,0,3.5,2.1,3.5,4.68v9.35V118.038z M101.522,86.866c0,4.535,0.658,8.21,3.838,8.21c3.184,0,7.678-0.854,7.678-8.21
	c0-4.538-2.576-8.21-5.755-8.21C104.101,78.656,101.523,82.328,101.522,86.866L101.522,86.866z"/>
<path fill="#C69C6D" d="M102.476,86.834c0.015-1.27,0.275-2.72,0.898-3.95c0.313-0.624,0.714-1.235,1.278-1.763
	c0.565-0.51,1.365-0.95,2.292-0.96c0.353,0.03,0.28,0.01,0.615,0.07c0.26,0.06,0.49,0.14,0.66,0.23c0.39,0.18,0.71,0.42,1,0.67
	c0.57,0.53,0.57,1.14,0.88,1.77c0.62,1.26,0.5,2.62,0.5,3.98v0.16c0,0.89-0.31,1.62-1.2,1.64c-0.9,0.01-1.43-0.7-1.44-1.59
	c0-0.06,0.1-0.13,0.11-0.19c0.1-0.9,0.07-1.87-0.22-2.7c-0.27-0.85-0.8-1.39-0.96-1.45c-0.1-0.05-0.34-0.04-0.66,0.18
	c-0.31,0.22,0,0.57-0.27,0.99c-0.55,0.87-0.37,1.84-0.37,3.01v0.05c0,0.52-1.15,0.9-1.67,0.85c-0.49-0.05-1.48-0.47-1.48-0.95
	L102.476,86.834z"/>
<path fill="#F4D1B0" d="M63.438,86.866c0,4.535-0.66,8.21-3.84,8.21c-3.18,0-7.68-0.854-7.68-8.21c0-4.538,2.58-8.21,5.76-8.21
	C60.858,78.656,63.438,82.328,63.438,86.866z"/>
<path fill="#C69C6D" d="M62.484,86.834c-0.016-1.27-0.277-2.72-0.898-3.95c-0.317-0.624-0.717-1.235-1.28-1.763
	c-0.56-0.51-1.36-0.95-2.292-0.96c-0.35,0.03-0.28,0.01-0.608,0.07c-0.268,0.06-0.5,0.14-0.673,0.23
	c-0.396,0.18-0.713,0.42-1.008,0.67c-0.565,0.53-0.93,1.14-1.25,1.77c-0.618,1.26-0.855,2.62-0.855,3.98v0.16
	c0,0.89,0.66,1.62,1.552,1.64c0.895,0.01,1.608-0.7,1.617-1.59c0-0.06-0.02-0.13-0.02-0.19c-0.11-0.9-0.04-1.87,0.26-2.7
	c0.27-0.85,0.83-1.39,0.98-1.45c0.09-0.05,0.36-0.04,0.67,0.18c0.31,0.22,0.63,0.57,0.89,0.99c0.54,0.87,0.87,1.84,0.99,3.01v0.05
	c0.05,0.52,0.52,0.9,1.04,0.85c0.49-0.05,0.85-0.47,0.85-0.95L62.484,86.834z"/>
<path fill="#FFDDBB" d="M105.135,94.973c0,16.135-15.5,17.528-22.418,17.528c-7.87,0-22.418-1.39-22.418-17.52
	s-1.67-36.85,22.41-36.85c24.33,0,22.42,20.72,22.42,36.85L105.135,94.973z"/>
<path fill="#333333" d="M80.25,101.98c-0.66,0-1.27-0.422-1.483-1.086c-0.263-0.817,0.19-1.696,1.01-1.958
	c1.655-0.524,2.1-1.252,2.105-1.563L81.87,85.318c0-0.86,1.01-1.558,1.874-1.558c0.864,0,1.876,0.7,1.876,1.558v11.92v-0.003
	c0,0,0.062,3.192-4.583,4.67C80.882,101.955,80.407,101.979,80.25,101.98L80.25,101.98z"/>
<path fill="#F48B73" d="M85.344,106.778c0,2.02-1.638,3.656-3.657,3.656c-2.02,0-3.658-1.638-3.658-3.656
	c0-2.023,1.64-3.658,3.65-3.658c2.02,0,3.65,1.635,3.65,3.658H85.344z"/>
<path fill="#F5F5F5" d="M78.57,86.84c0,3.687-2.988,6.676-6.672,6.676c-3.688,0-6.676-2.99-6.676-6.675
	c0-3.68,2.987-6.67,6.676-6.67c3.684,0,6.67,2.99,6.67,6.67L78.57,86.84z"/>
<path fill="#333333" d="M76.59,86.683c0,2.558-2.07,4.63-4.634,4.63c-2.56,0-4.633-2.072-4.633-4.63c0-2.562,2.074-4.63,4.633-4.63
	C74.52,82.053,76.591,84.121,76.59,86.683L76.59,86.683z"/>
<circle fill="#F5F5F5" cx="94.791" cy="86.841" r="6.674"/>
<path fill="#333333" d="M99.486,86.683c0,2.558-2.07,4.63-4.633,4.63c-2.558,0-4.635-2.072-4.635-4.63
	c0-2.562,2.077-4.63,4.635-4.63C97.415,82.053,99.486,84.121,99.486,86.683z M81.884,107.348c-4.534,0-8.086-2.344-8.086-5.337
	c0-0.64,0.524-1.17,1.168-1.17c0.646,0,1.17,0.53,1.17,1.17c0,1.42,2.36,3.01,5.748,3.01c3.39,0,5.745-1.58,5.745-3
	c0-0.64,0.52-1.17,1.16-1.17s1.16,0.53,1.16,1.17c0,3-3.55,5.34-8.08,5.34L81.884,107.348z"/>
<path fill="#1A1A1A" d="M82.002,59.55c0,0-13.632,21.482-28.692,20.446l15.974-22.122l13.432-3.063L82.002,59.55L82.002,59.55z
	 M82.62,59.23c0,0,12.73,23.236,27.795,22.196L96.19,57.876L82.62,55.01V59.23z"/>
<path fill="#ED1E79" d="M88.042,134.393c0,0.592,0.49,1.072,1.093,1.072c0.603,0,1.095-0.48,1.095-1.072
	c0-0.59-0.492-1.069-1.095-1.069C88.533,133.323,88.042,133.803,88.042,134.393z M88.042,146.855c0,0.593,0.49,1.074,1.093,1.074
	c0.603,0,1.095-0.49,1.095-1.08c0-0.591-0.492-1.07-1.095-1.07c-0.602,0-1.093,0.479-1.093,1.07V146.855z M75.324,134.393
	c0,0.592,0.492,1.072,1.093,1.072c0.604,0,1.09-0.48,1.09-1.072c0-0.59-0.486-1.069-1.09-1.069
	C75.817,133.323,75.324,133.803,75.324,134.393z M75.324,146.855c0,0.593,0.492,1.074,1.093,1.074c0.604,0,1.09-0.49,1.09-1.08
	c0-0.591-0.486-1.07-1.09-1.07c-0.6,0-1.093,0.479-1.093,1.07V146.855z M95.006,157.505l11.226,30.021c0,0-3.406-1.73-5.54,0.125
	c-2.13,1.86-3.835,2.971-11.51,0.621c-7.67-2.351-11.08,1.119-11.08,1.119s-8.098,3.34-12.572-1.6c-4.48-4.939-9.38-0.02-9.38-0.02
	l13.107-30.48"/>
<path fill="#9E005D" d="M66.62,157.38h31v3h-31V157.38z M100.693,187.65c-0.04,0.035-0.08,0.066-0.12,0.1
	c-2.3-6.311-6.102-17.165-5.735-19.078c0.53-2.725,2.787-2.076,5.167,4.674c1.307,3.694,3.96,9.557,6.09,14.115
	C105.472,187.182,102.583,186.001,100.693,187.65L100.693,187.65z M56.348,187.573c2.173-3.931,11.692-20.849,13.453-19.81
	c1.58,0.922-2.01,13.262-3.36,20.863c-0.31-0.255-0.62-0.534-0.9-0.854c-3.95-4.375-8.24-1.031-9.18-0.199L56.348,187.573z
	 M83.445,169.71c4.188,0.492,5.984,10.967,6.817,18.856c-0.368-0.104-0.685-0.178-1.08-0.299c-6.534-2.002-9.954,0.203-10.83,0.905
	C78.259,181.675,78.787,169.161,83.445,169.71L83.445,169.71z"/>
<path fill="#333333" d="M89.14,74.635c-0.083,0.017,1.036-0.254,2.376-0.3c0.683,0.02,1.475-0.025,2.298,0.095
	c0.832,0.057,1.7,0.2,2.546,0.403c0.862,0.14,1.683,0.412,2.448,0.66c0.77,0.218,1.47,0.475,2.048,0.75
	c1.163,0.495,1.938,0.832,1.938,0.832l-2.066-0.366c-0.61-0.13-1.335-0.22-2.112-0.25c-0.77-0.06-1.588-0.14-2.404-0.08
	c-0.813,0-1.617,0.05-2.357,0.18c-0.744,0.06-1.402,0.26-1.973,0.38c-1.143,0.33-1.615,0.59-1.693,0.63
	c-0.82,0.29-1.7-0.14-1.99-0.95c-0.3-0.82,0.13-1.7,0.94-1.99L89.14,74.635z M76.072,77.36c-0.06-0.01-0.766-0.283-2.1-0.565
	c-1.31-0.25-3.12-0.522-4.96-0.515c-0.924-0.025-1.85-0.018-2.71,0.087c-0.866,0.075-1.69,0.116-2.373,0.275
	c-1.4,0.257-2.32,0.43-2.32,0.43l2.19-0.9c0.66-0.303,1.46-0.515,2.31-0.775c0.86-0.29,1.8-0.495,2.75-0.67
	c1.9-0.405,3.86-0.522,5.35-0.548c1.48-0.01,2.6,0.15,2.55,0.14c0.84,0.19,1.36,1.03,1.16,1.86c-0.2,0.84-1.03,1.36-1.87,1.17
	L76.072,77.36z"/>
<path fill="#ED1E79" d="M93.948,225.534c0.308-0.493,0.616-0.925,0.923-1.302c1.16-1.426,2.25-2.07,3.25-2.256
	c0.22,0.613,0.61,1.56,1.28,2.02c0,0,5.57,2.384,9.48,5.384h-0.03c3.61,3,7.31,2.19,10.27,3.915l-0.02,3.25l-35.19-0.75
	c0,0-1.01-1.415-0.92-1.415h-0.01c0,0-0.7-2.985-0.44-5.466c2.77,0.876,8.09,1.914,11.44-3.38H93.948z"/>
<path fill="#C7B299" d="M82.62,234.38h36v4h-36V234.38z"/>
<path fill="#FFFFFF" d="M95.275,223.787c0,0,6.46,4.572,4.027,5.643c-2.433,1.069-7.964-1.181-7.964-1.181s1.795-4.181,3.937-4.47
	V223.787z"/>
<path fill="#ED1E79" d="M66.683,225.534c-0.31-0.493-0.618-0.925-0.922-1.302c-1.15-1.426-2.25-2.07-3.24-2.256
	c-0.22,0.613-0.6,1.56-1.28,2.02c0,0-5.57,2.384-9.48,5.384h0.03c-3.61,3-7.3,2.19-10.26,3.915l0.03,3.25l35.19-0.75
	c0,0,1.02-1.415,0.92-1.415h0.02c0,0,0.7-2.985,0.44-5.466c-2.76,0.876-8.09,1.914-11.43-3.38H66.683z"/>
<path fill="#C7B299" d="M40.62,234.38h38v4h-38V234.38z"/>
<path fill="#FFFFFF" d="M65.37,223.757c0,0-6.48,4.603-4.046,5.673c2.437,1.069,8.004-1.091,8.004-1.091s-1.82-4.29-3.96-4.59
	L65.37,223.757z"/>
<path fill="#1A1A1A" d="M61.815,77.335L60.32,91.293L53.05,79.35c0,0,6.725-31.05,29.307-27.674"/>
<path fill="#1A1A1A" d="M101.93,77.336l2.792,13.957l7.27-11.942c0,0-7.21-30.96-29.794-27.59"/>
<path fill="#1A1A1A" d="M80.948,51.921l0.143,1.37l3.66-0.05l-0.87-1.51c0,0-1.85-0.29-2.92,0.2L80.948,51.921z"/>
<path fill="#1A1A1A" d="M58.69,82.9l1.177,30.665l3.31,5.843c0,0-4.285-32.138-0.777-47.718"/>
<path fill="#1A1A1A" d="M106.8,82.895l-1.177,30.665l-3.313,5.843c0,0,4.283-32.133,0.78-47.713"/>
<path fill="#FFEDDC" d="M147.307,117.478l-8.439,3.51c0,0,0.654,9.73,6.232,11.552 M165.738,117.478l8.311,3.507
	c0,0-0.13,9.863-5.72,11.684"/>
<path fill="#FFFFFF" d="M142.087,165.359l14.658,5.354l-1.07,2.93l-14.657-5.354L142.087,165.359z M171.768,165.363l1.02,2.947
	l-14.71,5.101l-1.021-2.95L171.768,165.363z"/>
<path fill="#FFEDDC" d="M99.27,156.55l0.598,1.798c0,0-2.316-0.646-3.048,0c-0.728,0.647-2.188,0.909-3.844,0
	c-1.656-0.91-4.97-0.906-6.62,0.133c-1.655,1.041-6.36-0.189-6.36-0.189s-3.775-1.17-6.694,0.71c-2.914,1.89-7.15-0.899-7.15-0.899
	s-1.063-0.58-1.858,1.17l0.79-2.61l34.185-0.09L99.27,156.55z"/>
</svg>
