<svg xmlns="http://www.w3.org/2000/svg" xmlns:xlink="http://www.w3.org/1999/xlink" width="256" height="256" viewBox="0 0 256 256"><path d="M123.62 204.48c-.22 0-.438-.028-.647-.084l-21.08-.39c-.8-.015-1.547-.413-2.005-1.07-.3-.433-.58-.834-.792-1.23-.144-.228-.252-.48-.316-.755-.345-1.47-.978-5.08.49-7.26.17-.6-.003-2.53-.372-4.05-.202-.83.038-1.67.58-2.27l-.15-6.53c-.04-.99-.054-2.06-.068-3.14-.024-1.9-.05-3.86-.244-5.74l-.6-7.31-1.046 23c.395.57.55 1.3.374 2.02-.37 1.52-.542 3.44-.372 4.05 1.47 2.17.834 5.79.488 7.27-.06.25-.154.49-.28.7-.197.4-.46.8-.744 1.23-.453.69-1.218 1.12-2.044 1.13l-25.63.48c-.65 0-1.276-.25-1.744-.71-.48-.46-.75-1.1-.755-1.77l-.02-2.49c-.006-.9.467-1.73 1.24-2.18.29-.17.59-.35.897-.53 1.948-1.17 4.327-2.61 6.973-2.87 2.376-1.55 5.2-2.78 6.328-3.24.02-.24-.12-.78-.22-.98-.24-.48-.32-1.04-.22-1.57.15-.78.7-2.37 2.71-3.12l1.23-23.1c.02-.38.05-.77.08-1.17-.69.91-1.4 1.59-1.54 1.72-.76.71-2.42 1.69-3.62 2.36-.78 1.9-3 2.79-4.62 3.31-.47.15-.95.22-1.44.22-.46 0-.92-.06-1.37-.2-.4.23-.81.45-1.23.67l-.73.39c-.74.44-1.53.73-2.22.99-.29.11-.59.22-.87.34-.83.36-1.7.56-2.48.74-.31.07-.63.15-.94.23-.07.02-.15.04-.22.05-1.16.21-2.36.35-3.58.41-.04.01-.15.01-.16.01l-.5-.01c-.64 0-1.3 0-1.98-.06l.88 3.19c.06.2.09.41.09.61.04.2.06.4.05.59.02.52-.12 1.05-.42 1.5l-5.02 7.49-.07 7.63c2.04.73 5.57 2.19 7.54 4.05 1.12.25 1.96 1.25 1.96 2.44v1c0 1.38-1.12 2.5-2.5 2.5h-34c-1.38 0-2.5-1.12-2.5-2.5v-1c0-.62.23-1.19.6-1.62.13-.27.31-.52.53-.74 1.8-1.74 4.54-3.15 6.25-3.93l-.02-3.36c.01-1.32-.01-2.55-.04-3.59-.14-.14-.27-.31-.38-.49l-4.68-8c-.45-.77-.46-1.73-.01-2.51l.18-.27.53-1.99c-.44.22-.87.44-1.29.65l-.84.43c.73 2.64-1.79 4.56-2.84 5.36-.3.23-.61.46-.9.71-.98.85-2.02 1.27-3.09 1.27-.58 0-1.11-.13-1.57-.34-.42.11-.85.18-1.23.18-.2 0-.38-.02-.55-.05-1.66-.28-3.38-1.95-3.71-2.29-.53-.54-1.23-1.62-1.75-2.51-1.12-.52-2.01-1.74-2.66-3.64-.37-1.08-.28-2.22.24-3.28 1.42-2.85 5.92-4.54 7.27-4.99.29-.11.65-.17 1.02-.17.31 0 .63.04.94.13l.28-.14c.8-.4 1.71-.85 2.66-1.26.49-.21.96-.42 1.44-.63.94-.41 1.91-.84 2.91-1.22.51-.2 1.03-.41 1.55-.61.16-.74.66-1.39 1.39-1.73l.88-.41c-.86-.93-1.37-1.92-1.67-2.84-3.46-.65-5.4-3.28-5.4-7.44 0-2.92 1.3-5.44 3.23-6.71-.02-.28-.04-.58-.05-.89-.42-.42-.69-.99-.73-1.62-.01-.2-.2-3.83 2.27-6.98-.26-.84-.06-1.76.54-2.42.24-.27 6.05-6.54 15.82-6.54 2.17 0 4.4.32 6.61.94 1.71.05 7.34.59 10.52 5.45.31.47.44 1.01.4 1.54 1.11 1.7 1.95 4.19 1.53 7.69-.06.48-.25.93-.54 1.29.09.52.15 1.06.17 1.61 1.89 1.28 3.14 3.78 3.14 6.64 0 4.05-1.86 6.65-5.18 7.38-.25.89-.65 1.72-1.21 2.46l1.84.85c.52.24.93.65 1.18 1.13.16-.01.32-.01.47-.02.57-.07 1.09-.15 1.6-.26.28-.09.56-.17.84-.25.32-.09.6-.16.77-.25.33-.17.65-.31.97-.44.3-.12.56-.23.71-.33l.11-.07c.24-.15.48-.29.71-.43-.48-2.26 1.48-4.51 3.88-6.64l.3-1.45c.01-.05.02-.1.04-.15l.77-2.78c.24-.95.6-2.06 1.11-3.44.39-1.12.84-2.39 1.43-3.69.49-1.16 1.05-2.48 1.73-3.78.59-1.23 1.27-2.52 2-3.76.32-.56.65-1.14 1.01-1.73-.29-.51-.39-1.12-.27-1.72 1.98-9.49 5.12-14.5 8.02-17.13-3.09-2.21-4.93-5.45-5.43-9.59-4.06-.67-6.35-3.66-6.35-8.43 0-2.75.98-5.21 2.58-6.78-.98-2.31-1.76-4.94-1.7-7.38-.22-.1-.43-.24-.61-.41-.76-.68-1.03-1.77-.67-2.73.22-.59 5.63-14.55 24.95-14.55 1.01 0 2.05.04 3.09.12.07.01.13.01.19.02 3.54.54 11.65 2.21 13.68 6.46 6.2.84 8.5 6.58 8.5 10.54 0 .57 0 2.06-2.47 8.33.78.88 1.39 2 1.77 3.24.85-5.21 2.66-10.79 5.83-15.19 4.05-5.62 9.83-8.58 16.72-8.58.9 0 1.83.05 2.77.15.59-.05 1.17-.09 1.75-.11h.26c.33.02.6.03.86.04.42.02.8.03 1.25.07.97-.1 1.93-.16 2.86-.16 6.89 0 12.67 2.97 16.72 8.58 6.82 9.47 7.31 24.35 5.65 29.34-1.67 5-6.94 7.23-10.57 8.18.42.46.79.95 1.11 1.49.91.24 1.48.72 1.82 1.14.64.78.86 1.8.64 2.87-.15.7-.39 1.24-.65 1.68 2.03 2.37 5.52 6.8 8.61 12.32.7 1.18 1.39 2.48 2.02 3.8.65 1.22 1.21 2.53 1.73 3.76.55 1.19.99 2.42 1.42 3.67.5 1.32.86 2.44 1.11 3.45l.75 2.73c.02.05.03.1.04.15l.3 1.45c2.38 2.11 4.34 4.35 3.87 6.63.24.14.48.28.72.43l.1.07c.15.11.41.22.72.34.32.13.64.27.96.43.19.1.46.18.78.27.28.08.56.16.84.25.5.11 1.02.2 1.59.27.17.01.35.01.53.02.2.01.39.02.59.02.12 0 .24 0 .36-.02l.08-.01c-.39-.52-.67-1.03-.88-1.54-3.39-.65-5.29-3.26-5.29-7.4 0-2.12.66-4.02 1.78-5.39h-.2c-5.13 0-8.97-4.97-9.4-5.54-.68-.92-.65-2.18.07-3.07.49-.6 1.21-.92 1.94-.92.36 0 .71.08 1.05.23 1.56.72 2.34.83 2.66.83.14 0 .19-.02.19-.02.21-.11.65-.95.92-1.45.65-1.22 1.53-2.9 3.23-4.21 1.36-1.04 2.77-1.58 4.17-1.58.73 0 1.44.15 2.11.43 2.33-1.83 5.27-2.75 8.76-2.75 1.3 0 2.68.13 4.13.39 1.45-.26 2.83-.39 4.13-.39 3.47 0 6.39.91 8.71 2.72.65-.26 1.33-.39 2.03-.39 1.41 0 2.81.53 4.17 1.58 1.71 1.32 2.59 2.99 3.23 4.21.27.5.71 1.34.92 1.46 0 0 .05.02.19.02.33 0 1.1-.11 2.66-.83.34-.15.69-.23 1.05-.23.74 0 1.46.33 1.94.93.72.89.75 2.15.07 3.06-.42.57-4.26 5.55-9.4 5.55h-.24c1.12 1.38 1.78 3.29 1.78 5.4 0 4.08-1.9 6.69-5.29 7.38-.13.36-.3.73-.51 1.09 1.52.56 3.06 1.16 4.5 1.73.96.37 1.94.79 2.88 1.2.48.21.95.42 1.42.61.99.43 1.9.89 2.71 1.29.09.04.17.08.25.12.32-.09.63-.13.95-.13.37 0 .72.06 1.06.18 1.3.44 5.8 2.13 7.22 4.98.53 1.07.61 2.21.24 3.29-.65 1.9-1.54 3.12-2.66 3.64-.53.89-1.22 1.97-1.75 2.51-.33.34-2.06 2.01-3.74 2.3-.14.03-.33.04-.53.04-.39 0-.81-.07-1.23-.18-.46.21-.99.34-1.57.34-1.07 0-2.11-.43-3.09-1.27-.3-.25-.61-.49-.9-.71-1.05-.8-3.55-2.71-2.83-5.36l-.88-.44c-.42-.22-.84-.43-1.27-.65l.61 2.31 4.07 12.78.01.01c.6.97.47 2.22-.31 3.05-.11.13-.24.25-.39.36-1.07.93-2.43 1.39-4.13 1.39-1.31 0-2.7-.27-4.28-.59v.9c1.66.76 4.31 2.12 6.11 3.8h.01c1.38 0 2.5 1.12 2.5 2.5v1c0 1.38-1.12 2.5-2.5 2.5h-35c-1.38 0-2.5-1.12-2.5-2.5v-1c0-1.06.67-1.97 1.61-2.33l.03-.03c1.96-1.9 5.56-3.38 7.62-4.12v-.25c-4.03-.51-6.94-2.05-8.46-3.05-.64-.05-1.26-.34-1.7-.84-.41-.47-.63-1.05-.64-1.65-.03-.52.1-1.06.41-1.53l.14-.2 5.04-10.9.72-2.59c-.67.06-1.33.06-1.98.06l-.53.01h-.13c-1.22-.06-2.42-.2-3.58-.41-.08-.02-.15-.03-.22-.05-.31-.09-.63-.16-.94-.23-.78-.18-1.66-.38-2.51-.75-.26-.11-.56-.22-.85-.33-.7-.26-1.48-.55-2.23-.98l-.71-.37c-.43-.22-.85-.45-1.25-.67-.45.14-.9.2-1.37.2-.48 0-.97-.07-1.44-.22-1.62-.51-3.85-1.41-4.63-3.3-1.2-.67-2.86-1.65-3.62-2.36-.11-.11-.6-.58-1.16-1.25l1.95 4.64c.46 1.11.08 2.39-.92 3.06-.42.28-.91.42-1.39.42-.65 0-1.3-.26-1.78-.75l-.15-.13-.13-.11c-.07-.06-.13-.1-.19-.14-.1-.06-.16-.1-.23-.14-.08-.04-.15-.08-.22-.11l-.03-.02c-.21-.1-.42-.16-.61-.19l-.17-.01c-.11.01-.15.02-.19.02-.08.02-.12.04-.17.05l-.09.04-.24.13c-.02.02-.26.2-.32.24-.09.08-.17.15-.26.25l-.06.08c-.1.12-.24.31-.45.5l1.29 15.88c2.28.7 2.87 2.39 3.03 3.22.1.54.02 1.09-.22 1.58-.13.29-.23.75-.22.98 1.13.47 3.95 1.69 6.32 3.24 2.65.27 5.03 1.7 6.98 2.87.31.19.6.37.89.54.78.45 1.25 1.28 1.24 2.18l-.02 2.49c0 .67-.27 1.31-.75 1.77-.46.46-1.09.71-1.74.71l-25.63-.47c-.83-.02-1.59-.44-2.05-1.13-.29-.44-.55-.85-.75-1.25-.12-.2-.21-.43-.27-.67-.35-1.47-.98-5.09.49-7.27.17-.61 0-2.53-.37-4.05-.14-.56-.07-1.12.14-1.61L152.47 174l-.63 13.785c.4.57.55 1.3.378 2.02-.37 1.52-.54 3.448-.37 4.05 1.47 2.17.84 5.8.49 7.27-.046.2-.11.39-.2.56-.18.41-.43.82-.69 1.27-.447.75-1.24 1.21-2.11 1.23l-21 .39c-.2.05-.4.08-.61.08l-2.04-.04-1.94.03zm-2.728-10.555c1.654.168 3.21.796 4.612 1.524 1.402-.73 2.958-1.36 4.612-1.53 2.377-1.56 5.2-2.78 6.328-3.24.016-.21-.088-.69-.235-1.01-.23-.48-.31-1.04-.21-1.55.15-.79.69-2.37 2.7-3.12l.78-14.78c-1.06-.4-1.84-1.02-2.51-1.62-.01 0-.23.01-.28.02l-.21.03-.26.06-.26.09c-.41.28-.87.42-1.33.42-.53 0-1.06-.18-1.51-.52-.89-.66-1.17-1.88-.79-2.92l6.51-17.77c-.12.01-.23.02-.34.02-.68 0-1.33-.27-1.81-.77-.66-.69-.88-1.68-.55-2.58l.44-1.24 2.61-15.01c-.18-.05-.35-.1-.51-.16l-.67.96c-.61.88-1.25 1.78-1.8 2.78l-1.55 2.59c-.28.48-.55 1.02-.82 1.56-.17.34-.35.69-.53 1.03l-1.33 2.62-2.23 5.2-.12.29c.22.29.44.6.66.89.31.43.64.87.98 1.29.13.15.24.3.35.47 1.17.93 1.95 1.59 1.95 1.59 3.88 3.15.97 6.88-.43 8.67-.33.42-.67.85-.98 1.3-1.45 2.09-3.09 2.53-4.21 2.53-.37 0-.73-.05-1.06-.13-.39.22-.8.43-1.19.59-.79 1.88-3 2.77-4.62 3.28-.47.15-.96.22-1.45.22-4.99 0-7.78-7.8-8.52-10.19-.23-.7-.21-1.46.05-2.26-.12-.37-.2-.76-.22-1.19h-.26l.13 6.26 1.1 12.25c.23 2.13.28 4.26.32 6.32.02 1.05.04 2.09.09 3.1l.15 4.73c1.8.79 2.3 2.27 2.44 3.01.1.53.02 1.09-.22 1.58-.14.29-.24.75-.22.99 1.13.46 3.95 1.69 6.32 3.24zm47.97-37.142c.034-.33.105-.738.238-1.244-.233-.41-.416-.87-.51-1.38-.183-1-.093-2.56 1.37-4.35.346-.43.667-.87.98-1.3.302-.42.61-.84.934-1.24-.315-.93-.61-1.75-.977-2.58-.48-1.18-.894-2.17-1.387-3.13-.53-1.14-1.067-2.18-1.64-3.17-1.3-2.38-2.9-4.87-4.62-7.21l2.24 11.52c.39.44.628 1.02.628 1.66v.52l.144.48c.27.91-.005 1.86-.646 2.49-.103.14-.22.26-.348.37l3.594 8.52zm-48.08-26.21c.268.56.542 1.13.79 1.732l.504-.968c.19-.354.36-.68.53-1.007.362-.69.722-1.38 1.115-2.045l1.72-2.8c.75-1.29 1.6-2.484 2.35-3.537.34-.47.66-.918.95-1.35.04-.05.07-.098.11-.145l.7-.89c.32-.407.62-.79.9-1.15l-.06-.257c-.22-1.074 0-2.094.64-2.872.39-.476 1.06-1.026 2.19-1.217.37-.617.82-1.18 1.32-1.68-3.66-.732-9.26-2.694-11-7.91-.46-1.385-.75-3.53-.8-6.108-.93 1.71-2.44 2.87-4.45 3.39-.5 4.25-2.45 7.58-5.75 9.83 2.87 2.64 5.98 7.64 7.94 17.05.08.38.07.78-.03 1.14.13.27.25.53.37.78zm-22.198-66.43c.932 0 1.9.035 2.905.11 0 0 10.87 1.643 11.93 5.436.08.29.12.61.13.94.13-.01.25-.01.38-.01 6.46 0 7.6 6.13 7.6 8.14 0 1.44-1.57 5.57-2.56 8.04l.03.01-.37 1.04c1.56.9 2.66 3.08 2.66 5.62 0 5.24-3.08 6.01-5.41 6.06-.03 7.14-4.19 10.35-8.61 11.78 2.24.63 7.75 3.61 10.71 17.81l-.48.35.52 1.09c.48 1.07 1.04 2.12 1.43 3.2l1.24 3.15.65 1.65.08-.2 1.31-2.95 1.54-2.96c.53-.99 1.02-1.99 1.58-2.94l1.69-2.77c1.05-1.82 2.29-3.39 3.23-4.79 1.02-1.3 1.82-2.37 2.54-3.18-.22-.31-.42-.67-.52-1.18-.19-.92.51-1.14 1.23-1.14.24 0 .49.03.71.06.84-2.44 3.16-4.2 5.88-4.2 2.26 0 4.24 1.21 5.33 3.02h2.64v-3.32c-4.05-.21-9.27-1.21-12.13-5.21.39 1.19.86 2.36 1.41 3.47 0 0-9.94-.39-12.02-6.64-1.96-5.87-.62-34.63 19.99-34.63.87 0 1.79.05 2.74.16.62-.05 1.25-.09 1.88-.12.91.06 1.46.04 2.27.13.99-.12 1.94-.18 2.86-.18 20.61 0 21.95 28.75 19.99 34.62-2.08 6.24-12.02 7.16-12.02 7.16.73-1.47 1.27-3.08 1.66-4.76-2.62 4.24-7.72 5.53-11.65 5.89v3.4h2.08c1.09-1.81 3.07-3.02 5.34-3.02 2.71 0 5.01 1.74 5.87 4.16.13-.02.27-.02.41-.02.73 0 1.42.22 1.23 1.14-.25 1.18-.98 1.54-1.35 2.37l.84.96c2.72 3.13 6.03 7.55 8.74 12.39.7 1.19 1.35 2.42 1.94 3.66.63 1.22 1.17 2.46 1.67 3.66.54 1.19.96 2.39 1.36 3.53.42 1.13.78 2.21 1.04 3.23l.76 2.78.44 2.18.02.09c2.19 1.87 4.03 3.83 3.67 4.92 0 0-.17.57-.49 1.41l.57.44c.56.37 1.17.7 1.78 1.09.61.43 1.3.6 1.96.95.66.35 1.38.44 2.07.69.7.16 1.41.27 2.11.35.44 0 .87.04 1.3.04.24 0 .49-.01.73-.05.67-.02 1.27-.18 1.88-.29.59-.17 1.12-.31 1.61-.53.6-.22 1.02-.47 1.45-.71-2.26-1.1-4.08-2.69-4.08-4.9v-.01c0 .03-.1.07-.26.07-1.97 0-4.57-.53-4.57-5.06 0-2.52 1.28-4.59 2.97-4.99l-.04-.09s-.19-1.94.14-4.45c-1.31 1.17-2.63 1.61-3.89 1.61-4.03 0-7.39-4.53-7.39-4.53 1.61.74 2.8 1.05 3.7 1.05 3.2 0 2.87-3.9 5.85-6.2 1-.77 1.89-1.06 2.64-1.06 1.04 0 1.84.54 2.38 1.09 1.79-1.99 4.46-3.41 8.48-3.41 1.25 0 2.62.14 4.13.43 1.51-.29 2.89-.43 4.13-.43 3.98 0 6.64 1.39 8.43 3.35.54-.53 1.31-1.02 2.31-1.02.76 0 1.64.28 2.65 1.05 2.98 2.29 2.65 6.2 5.85 6.2.9 0 2.08-.31 3.7-1.06 0 0-3.37 4.54-7.4 4.54-1.22 0-2.5-.41-3.76-1.49.3 2.45.12 4.32.12 4.32l-.07.14c1.56.53 2.73 2.52 2.73 4.92 0 4.53-2.78 5.06-4.74 5.06-.06 0-.1-.02-.15-.02-.02 1.96-1.23 3.4-2.98 4.45l.12.04c2.19.76 5.1 1.83 8 2.98 1.45.55 2.9 1.23 4.25 1.8 1.36.58 2.63 1.26 3.72 1.78.05.02.1.05.15.08.38-.24.72-.39 1-.39.08 0 .16.01.23.03 0 0 6.89 2.3 5.93 5.1-.66 1.94-1.31 2.24-1.64 2.24-.15 0-.23-.06-.23-.06s-1.33 2.38-1.96 3.02c-.5.51-1.67 1.47-2.38 1.59-.03 0-.07.01-.11.01-.53 0-1.68-.46-1.68-.46s-.38.62-1.13.62c-.39 0-.88-.17-1.46-.67-1.72-1.48-3.91-2.45-2.52-4.34 0 0 .23-.33.6-.83-.56-.32-1.15-.65-1.8-.98-1.24-.61-2.51-1.31-3.87-1.91-1.24-.59-2.49-1.15-3.68-1.68l1.97 7.48 4.18 13.13.17.27c-.02.02-.05.03-.07.05l.01.03c-.01-.01-.02-.01-.02-.02-.68.67-1.56.91-2.63.91-1.77 0-4.04-.65-6.77-1.13 0 .19-.01.38 0 .56l-.04 5.09.1-.01s4.57 1.77 6.91 4.03l-7.06.06-.01.44-4.23.06h12.9v1h-35v-1h9.31l-.01-.51-8.44-.07c2.34-2.26 8.12-4.03 8.12-4.03l.27.03-.04-4.49c-5.7-.07-9.37-2.6-10.3-3.34-.31.07-.48.13-.48.13l.11-.23-.11.08.24-.36 5.18-11.24h.01l1.83-6.64c-.87.23-1.79.47-2.78.56-1.03.19-2.1.16-3.2.17-1.08-.06-2.19-.18-3.27-.37-1.04-.28-2.16-.45-3.12-.86-.96-.4-2-.69-2.84-1.19-.86-.47-1.72-.9-2.48-1.36l-.52-.35c-.49.33-1.01.53-1.55.53-.23 0-.45-.03-.69-.1-3.88-1.23-3.06-2.52-3.06-2.52s-3.32-1.75-4.22-2.6c-.71-.67-2.06-2.25-2.25-3.21-.13-.62.56-2.47.56-2.47s-1.99-1.15-.02-3.56c1.03-1.27 1.88-2.7 2.82-3.51-.12-.36-.24-.73-.37-1.1-.33-1-.69-2.05-1.17-3.11-.44-1.07-.89-2.16-1.44-3.25-.51-1.1-1.08-2.2-1.7-3.27-2.38-4.35-5.35-8.4-7.77-11.23-.04-.04-.07-.07-.1-.11-.38.17-.76.31-1.1.31-.53 0-.94-.34-1.06-1.37-.2-.03-.39-.03-.57-.08l3.83 19.69h.35v.89l.24.83c-.08-.18-.16-.32-.24-.44v.71h-1.85l8.61 20.44s-.05-.06-.14-.14c-.01-.01-.03-.02-.04-.03-.05-.04-.1-.09-.16-.13l-.02-.03c-.07-.05-.14-.11-.22-.17-.01-.01-.02-.02-.04-.03-.08-.06-.18-.12-.27-.19l-.04-.02c-.1-.07-.21-.13-.32-.2-.02-.01-.03-.02-.04-.02-.13-.07-.26-.14-.4-.21h-.01c-.43-.2-.92-.36-1.45-.41l-.11-.01c-.1 0-.19-.01-.29-.01h-.12l-.16.02c-.13.01-.26.03-.38.05l-.19.04c-.13.03-.25.07-.38.12-.07.02-.13.05-.2.08-.13.05-.25.12-.38.19-.07.04-.13.07-.2.11-.13.08-.27.18-.4.29-.06.04-.12.07-.17.12-.19.16-.39.33-.58.55-.21.23-.42.58-.65.58-.19 0-.39.33-.6.46l1.56 19.25h.07c1.48 0 2.62.39 2.83 1.5 0 0-1.41 2.85.62 4.23 0 0 4.05 1.57 6.89 3.57h-.02c2.66 0 5.31 1.85 7.47 3.11l-.02 2.49-25.58-.48s-.74-1.13-.67-1.13h-.01s-.91-3.87.15-5.34c1.07-1.47-.04-6-.04-6l.29-.11-1.56-21.2c-.14-.1-.33-.23-.56-.35l-.14-.08c-.03-.02-.08-.04-.11-.06-.08-.04-.17-.08-.26-.12l-.1-.04c-.11-.04-.23-.09-.35-.13-.03-.01-.05-.02-.08-.02-.15-.05-.3-.09-.46-.13l-.03-.01c-.53-.13-1.16-.21-1.88-.21h-.16l-.09.01-.24 5.24-.77 17.01c.31.11.5.18.5.18s-1.11 4.52-.05 6c1.07 1.47.16 5.34.16 5.34h-.01c.07 0-.6 1.12-.6 1.12l-21.56.4v.07l-2-.04-2 .04v-.07l-21.68-.4s-.78-1.13-.71-1.13-.91-3.87.16-5.34c1.06-1.47-.04-6-.04-6l.69-.25v-.1l-.18-7.92c-.12-2.91-.01-6.03-.33-9.1-.25-3.08-.51-6.15-.74-9.04l-.21-2.51c-.35-.46-1.2-1.42-2.43-1.42-.98 0-1.63.72-1.93 1.14-.09.94-.17 1.9-.2 2.89-.13 2.9-.27 6-.42 9.1l-.78 17.01c.32.11.51.18.51.18s-1.11 4.52-.04 6c1.07 1.47.16 5.34.16 5.34h-.01c.07 0-.67 1.12-.67 1.12l-25.58.48-.02-2.49c2.15-1.26 4.8-3.11 7.46-3.11h-.02c2.84-2 6.89-3.56 6.89-3.56 2.03-1.39.62-4.23.62-4.23.2-1.06 1.25-1.46 2.64-1.49l.84-15.82.5-9.24c.02-.57.07-1.12.12-1.67l.03-10.63-1.88-.02 2.13-14.6-.8-.58c-.55.89-1.09 1.79-1.59 2.72-.62 1.07-1.19 2.17-1.7 3.27-.56 1.08-1.01 2.18-1.45 3.25-.47 1.05-.83 2.1-1.16 3.1-.13.37-.26.73-.37 1.09.95.81 1.79 2.24 2.83 3.51 1.97 2.41-.02 3.55-.02 3.55s.69 1.85.56 2.47c-.19.96-1.54 2.53-2.25 3.2-.9.85-4.22 2.59-4.22 2.59s.81 1.29-3.07 2.51c-.23.07-.46.1-.68.1-.54 0-1.06-.2-1.55-.54l-.52.35c-.76.46-1.62.89-2.48 1.35-.83.5-1.87.79-2.83 1.19-.96.41-2.07.58-3.11.86-1.07.19-2.18.32-3.26.37-1.09-.01-2.17.02-3.2-.17-.89-.08-1.72-.29-2.52-.5l-.13.4 1.81 6.55-.15-.04.2.47-.41.22h.41l-5.37 8h-.09l-.09 10.43.28-.03s5.78 1.77 8.12 4.04l-8.43.06v.5h9.55v1h-34v-1h11.7l-4.23-.06v-.44l-7.06-.06c2.34-2.27 6.92-4.04 6.92-4.04l.1.01-.04-5.09c.01-1.85-.03-3.71-.1-5.33h-.66l-4.69-8h.31l.21-.55c-.06.02-.13.03-.19.05l1.49-5.63-.46-1.44c-.9.4-1.82.82-2.74 1.25-1.36.61-2.64 1.31-3.88 1.91-.64.33-1.23.66-1.79.98.37.51.6.84.6.84 1.39 1.89-.79 2.86-2.51 4.34-.58.5-1.07.67-1.46.67-.75 0-1.12-.62-1.12-.62s-1.15.45-1.68.45c-.04 0-.08 0-.11-.01-.7-.12-1.87-1.07-2.37-1.58-.63-.64-1.96-3.02-1.96-3.02s-.08.06-.23.06c-.33 0-.98-.3-1.65-2.24-.96-2.8 5.93-5.11 5.93-5.11.07-.02.14-.03.22-.03.28 0 .63.15 1 .39l.15-.08c1.09-.52 2.36-1.2 3.72-1.78 1.36-.57 2.8-1.24 4.25-1.79 1.17-.47 2.34-.93 3.46-1.35l-.36-1.07 4.91-2.29c-2.58-1.01-4.64-2.72-4.64-5.64v.01c0 .03-.19.06-.35.06-1.97 0-4.68-.53-4.68-5.09 0-2.76 1.54-4.99 3.47-5.07-.19-.93-.8-4.65.68-7.06 0 0-1.24 1.23-1.7 2.78 0 0-.31-4.94 4.32-7.41l-2.16-.15s5.2-5.72 13.98-5.72c1.91 0 4 .27 6.24.94h.07c.67 0 5.98.14 8.72 4.32l-2.16-.77s4.47 1.85 3.7 8.33l-1.7-1.69s1.7 3.55 1.23 6.17l-.09.3c1.84.21 3.29 2.37 3.29 5.05 0 4.57-2.79 5.1-4.76 5.1-.06 0-.1-.02-.15-.03.08 2.67-1.5 4.32-3.7 5.35l5.5 2.57L57 162c.39.07.79.14 1.2.15.25.04.49.05.75.05.43 0 .86-.04 1.3-.04.7-.08 1.41-.2 2.11-.36.69-.26 1.41-.35 2.07-.7.66-.35 1.35-.52 1.96-.95.62-.39 1.23-.72 1.78-1.09l.57-.44c-.32-.84-.5-1.41-.5-1.41-.36-1.09 1.48-3.05 3.67-4.93l.02-.1c.12-.61.27-1.34.45-2.18.22-.83.48-1.76.76-2.78.26-1.03.62-2.1 1.04-3.23.4-1.14.82-2.33 1.36-3.52.51-1.21 1.04-2.45 1.67-3.66.59-1.24 1.24-2.47 1.94-3.66.66-1.18 1.36-2.34 2.08-3.45l-1.04-.76c2.98-14.3 8.54-17.22 10.76-17.82-4.37-1.44-8.26-4.66-8.26-11.82-.17.03-.34.06-.53.06-2.35 0-5.68-.63-5.68-6.07 0-2.86 1.39-5.25 3.25-5.9-1.34-2.65-3.36-7.58-1.81-10.68 0 0 .34-.52-.16-.52-.28 0-.82.16-1.83.67 0 0 4.8-12.93 22.61-12.93m7.39 48.36l.2-.83-.31.08.11.75m34.3 13.6c-.73 0-1.67-.62-2.34-.94-.32.41-.65.86-1.02 1.33-.82 1.28-1.91 2.67-2.85 4.35-.49.82-.99 1.67-1.51 2.53-.5.87-.93 1.81-1.41 2.71l-1.38 2.73c-.39.93-.78 1.84-1.16 2.73l-1.09 2.55c-.26.62-.46 1.22-.65 1.8.84.84 1.61 2.11 2.54 3.25.17.2.3.4.42.59 1.31 1.02 2.2 1.79 2.2 1.79 2.5 2.02-.07 4.08-1.84 6.64-.79 1.14-1.55 1.45-2.16 1.45-.76 0-1.26-.49-1.26-.49s-1.4 1.02-2.09 1.19c-.68.37-1.19.64-1.19.64s.81 1.28-3.07 2.51c-.23.07-.47.11-.69.11-3.53 0-6.12-8.43-6.12-8.43-.13-.41.04-.95.43-1.55l-.1-.15c-1.12-1.695.4-3.9 2.21-5.69-.22-.81-.49-1.775-.8-2.885l-.71-2.56c-.3-.89-.63-1.82-.97-2.79-.33-.97-.68-1.97-1.03-2.988-.29-.93-.71-1.8-1.09-2.7l-2.35 1.7 2.01 14.41-2.99-.02.19 8.9.27 3.02c.27 2.98.56 6.16.84 9.34.35 3.19.26 6.35.4 9.32l.2 6.61c1.28.07 2.24.48 2.43 1.48 0 0-1.42 2.84.62 4.23 0 0 4.05 1.56 6.89 3.56H120c1.89 0 3.77.93 5.47 1.92 1.705-.99 3.58-1.93 5.47-1.93h-.02c2.84-2 6.9-3.57 6.9-3.57 2.03-1.39.62-4.23.62-4.23.2-1.06 1.255-1.46 2.64-1.49l.84-15.82.16-3.12H142c-1.658 0-2.46-.61-3.37-1.41-.153-.14-.32-.24-.487-.33-.027-.016-.05-.03-.078-.04-.157-.077-.32-.13-.484-.17l-.12-.03c-.15-.03-.31-.05-.46-.055h-.15c-.14 0-.27.01-.4.02l-.19.03c-.1.01-.2.03-.29.05-.08.02-.16.03-.24.05-.08.02-.16.04-.23.07-.06.01-.12.03-.17.05l-.22.09-.13.06-.12.06-.14.07 7.63-20.8c-.15.02-.3.03-.44.03-.5 0-.92-.15-1.19-.398-.16-.14-.42-.19-.71-.19-.66 0-1.45.26-1.45.26l.43-1.18h.05l3.44-19.7c-.34.11-.7.06-1.08.1-.13 1-.54 1.32-1.07 1.32M42.2 195.8l.78-.095.3-10.59-1.4.01c.07 1.31.12 2.74.14 4.19l.18 6.495m171.67 0c.05-1.78.11-4.03.17-6.306-.36.13-.74.24-1.12.35l.17 5.85.79.1m-4.9 3.48h4.81l.01-.44-.62.01.01.35-4.21.08m-166.68 0h4.8l-4.21-.08.01-.35-.62-.004c.01.21.01.36.01.438M98.58 59.1c-21.04 0-27.05 15.522-27.29 16.183-.69 1.84-.23 3.9 1.15 5.274.12 1.74.55 3.63 1.3 5.66-1.39 1.95-2.21 4.49-2.21 7.24 0 5.3 2.47 9.05 6.66 10.46.66 3.07 2.02 5.68 4.04 7.77-2.63 3.24-5.2 8.35-6.88 16.42-.14.65-.14 1.31-.02 1.94-.16.27-.31.54-.46.8-.74 1.27-1.44 2.58-2.08 3.92-.7 1.34-1.26 2.65-1.78 3.89-.61 1.36-1.09 2.69-1.49 3.84-.53 1.42-.9 2.58-1.18 3.64-.27 1.01-.53 1.93-.75 2.74-.03.1-.05.21-.07.31l-.13.64c-1.71 1.58-3.77 3.85-4.11 6.5-.3.12-.66.27-1.06.48-.09.03-.24.07-.36.11-.24.07-.52.14-.84.25l-.35.07-.14-.11c3.14-1.53 4.95-4.73 4.95-9.07 0-3.16-1.22-5.98-3.16-7.83.19-.44.32-.91.38-1.4.44-3.69-.32-6.58-1.55-8.74-.09-.75-.35-1.48-.79-2.14-3.65-5.57-9.87-6.44-12.22-6.57-2.34-.64-4.69-.96-7-.96-10.87 0-17.41 7.06-17.68 7.36-.88.97-1.33 2.22-1.3 3.48-1.82 2.79-2.27 5.86-2.15 7.76.03.55.15 1.08.35 1.57-1.73 1.84-2.81 4.51-2.81 7.49 0 4.85 2.25 8.26 6.06 9.54l.01.03c-.26.28-.49.59-.67.92-.19.07-.38.15-.57.23-1.05.4-2.03.83-2.99 1.25-.47.2-.93.4-1.38.59-.02.01-.04.02-.06.02-.82.36-1.6.74-2.31 1.09-.18-.02-.37-.02-.56-.02-.63 0-1.25.1-1.84.3-2.04.69-6.91 2.65-8.69 6.25-.82 1.65-.95 3.5-.36 5.21.84 2.46 2.02 3.87 3.21 4.66.68 1.1 1.28 1.92 1.79 2.43.76.78 2.78 2.61 5.1 3.01.28.05.61.08.94.08.32 0 .66-.03 1.03-.09.54.16 1.13.25 1.77.25 1.15 0 2.91-.32 4.72-1.87.22-.19.49-.4.78-.62.42-.32.89-.68 1.36-1.1l3.93 6.71.06.09c.02.82.02 1.73.02 2.69v.06l.01 1.77c-1.76.89-3.89 2.16-5.48 3.7-.36.35-.66.75-.9 1.17-.63.83-1 1.87-1 2.99v1c0 2.76 2.24 5 5 5h34c1.53 0 2.9-.69 3.82-1.77.25.73.67 1.4 1.24 1.95.93.91 2.18 1.42 3.49 1.42h.09l25.58-.47c1.34-.02 2.59-.58 3.51-1.52.91.95 2.17 1.5 3.5 1.53l20.83.38c.31.06.62.09.94.09h.09l1.91-.04 1.91.03h.09c.32 0 .63-.03.94-.09l20.71-.38c1.31-.02 2.54-.56 3.44-1.47.91.91 2.14 1.45 3.45 1.47l25.58.48h.09c1.3 0 2.55-.51 3.48-1.42.96-.93 1.5-2.2 1.51-3.54l.02-2.49c.01-1.79-.93-3.45-2.48-4.36-.28-.16-.57-.34-.87-.51-1.93-1.16-4.45-2.68-7.39-3.14-1.46-.91-3.01-1.69-4.26-2.28.07-.52.06-1.06-.04-1.58-.31-1.64-1.28-3.34-3.11-4.43l-.97-12.09c.8.55 1.72.82 2.66.82.93 0 1.87-.27 2.73-.8 1.03-.65 1.74-1.65 2.06-2.77 1.54 1.27 3.39 1.86 4.19 2.11.71.22 1.45.34 2.19.34.32 0 .65-.02.97-.07l.48.25c.22.11.44.23.65.34.92.54 1.84.88 2.59 1.15.25.1.51.19.75.29 1.05.45 2.08.69 2.9.88.28.06.56.13.84.2.14.04.29.08.44.1 1.05.19 2.14.33 3.23.41l-4.5 9.75-.03.05c-.46.69-.72 1.46-.8 2.24-.24 1.5.16 3.05 1.23 4.17.82.87 1.87 1.405 2.97 1.55.62.37 1.37.77 2.25 1.156-.81.49-1.57 1.04-2.23 1.62-1.6.833-2.69 2.51-2.69 4.44v1c0 2.76 2.24 5 5 5h35c2.77 0 5-2.24 5-5v-1c0-2.19-1.4-4.047-3.35-4.727.73-.29 1.41-.68 2.02-1.17.55-.37 1-.84 1.35-1.38 1.04-1.52 1.16-3.51.29-5.16l-1.27-4c1.26.69 2.41.86 3.25.86.64 0 1.23-.09 1.77-.25.37.06.71.09 1.04.09.34 0 .67-.03.98-.09 2.29-.39 4.31-2.23 5.07-3 .505-.52 1.104-1.33 1.79-2.44 1.18-.79 2.37-2.2 3.21-4.66.58-1.71.45-3.56-.36-5.21-1.79-3.61-6.65-5.57-8.69-6.25-.59-.2-1.21-.3-1.84-.3-.19 0-.376.01-.56.02-.71-.35-1.486-.73-2.31-1.09l-.06-.03c-.45-.19-.91-.39-1.38-.6-.956-.42-1.945-.85-2.99-1.25l-.15-.06c1.97-1.74 3.07-4.42 3.07-7.79 0-1.22-.18-2.4-.52-3.49 4.47-1.51 7.49-5.42 7.89-5.96 1.36-1.836 1.31-4.36-.13-6.13-.98-1.2-2.42-1.85-3.89-1.85-.71 0-1.42.15-2.09.46-.23.1-.43.19-.61.26-.71-1.34-1.77-3.26-3.81-4.83-1.81-1.39-3.72-2.097-5.69-2.097-.54 0-1.07.05-1.59.15-2.57-1.64-5.68-2.49-9.16-2.49-1.31 0-2.69.12-4.13.36-1.44-.24-2.82-.36-4.13-.36-3.5 0-6.62.86-9.19 2.51-.55-.12-1.1-.18-1.67-.18-1.97 0-3.88.7-5.69 2.1-2.04 1.57-3.11 3.49-3.815 4.83-.173-.07-.373-.16-.6-.26-.67-.31-1.38-.46-2.09-.46-.93 0-1.84.26-2.64.75-.57-1.15-1.17-2.28-1.81-3.36-2.72-4.85-5.73-8.87-7.87-11.47.07-.23.14-.48.19-.74.37-1.79-.04-3.6-1.14-4.95l-.07-.09c3.33-1.53 6.72-4.09 8.14-8.36 1.85-5.55 1.43-21.29-5.99-31.58-4.533-6.3-11.02-9.62-18.74-9.62-.94 0-1.91.05-2.89.15-.424-.04-.794-.05-1.133-.06-.23-.01-.48-.02-.78-.04-.104-.01-.21-.01-.32-.01h-.2c-.526.02-1.06.05-1.616.09-.95-.09-1.89-.14-2.81-.14-7.73 0-14.21 3.33-18.75 9.62-.36.51-.71 1.03-1.04 1.56-1.09-4.25-4.15-8.08-8.99-9.25-3.05-4.27-10.36-6-14.86-6.68-.13-.02-.25-.03-.38-.04-1.11-.08-2.21-.13-3.28-.13zm21.91 44.484c.07-.03.14-.062.21-.094.13.66.28 1.24.44 1.74 1.44 4.3 4.81 6.76 8.16 8.17-.09.1-.16.19-.23.27-.9 1.12-1.35 2.54-1.26 4.01-.08.1-.16.21-.24.31l-.68.88c-.07.1-.14.19-.21.29-.28.42-.59.85-.91 1.3-.77 1.09-1.65 2.32-2.47 3.73l-.87 1.42-.06.1c-1.64-6.6-3.91-10.98-6.23-13.89 2.23-2.18 3.71-4.96 4.37-8.22zm13.82 37.29l.23-.444.11-.21-.44 2.57-.37 1.04c-.28.8-.37 1.64-.26 2.44l-.04-.03c-.08-.1-.16-.2-.24-.31-.23-.28-.47-.6-.72-.94l.66-1.53.45-1.03.66-1.54zm34.4 6.425c.08-.33.14-.68.15-1.02l.21.54-.15.21-.21.29zm19.89 2.51l-.14-.65c-.02-.1-.04-.2-.07-.29l-.59-2.16c.48.24.99.46 1.51.65-.26.84-.43 1.74-.5 2.67-.07-.07-.14-.13-.22-.2zm-60.58 14.77c.58 0 1.37-.08 2.24-.38l-.26.72c-.74 2.03-.1 4.3 1.59 5.64.91.72 2.01 1.09 3.11 1.09.58 0 1.16-.1 1.71-.3.16.11.33.23.51.35l-.36 6.94-.25 4.82c-1.59 1.09-2.45 2.68-2.74 4.19-.11.59-.15 1.11-.1 1.61-1.24.58-2.76 1.35-4.2 2.25-1.34.21-2.58.64-3.74 1.16-1.16-.52-2.4-.95-3.74-1.15-1.46-.91-3.01-1.69-4.26-2.27.07-.52.06-1.06-.04-1.58-.26-1.41-1.04-2.89-2.44-3.97l-.1-3.34v-.08c-.04-.97-.07-1.97-.09-3.03-.04-2.1-.09-4.26-.33-6.54l-.41-4.55c1.52 1.46 3.39 2.45 5.64 2.45.74 0 1.48-.11 2.2-.34 1.06-.33 4-1.26 5.59-3.64.17.02.34.02.51.02zm-45.66 2.02c.16-.09.32-.18.47-.27l-.24 4.66-.6 11.39-.05 1.07c-1.59 1.09-2.45 2.68-2.74 4.19-.11.59-.15 1.11-.1 1.61-1.24.58-2.76 1.35-4.2 2.25-2.94.46-5.46 1.98-7.39 3.14-.29.18-.58.36-.86.52-.7.42-1.29.98-1.71 1.65-.57-.95-1.44-1.7-2.49-2.1-1.79-1.5-4.26-2.71-6.28-3.53l.05-5.14 4.61-6.86c.58-.86.87-1.87.85-2.88.01-.29-.01-.59-.05-.88-.02-.33-.08-.66-.17-.99 1.14-.08 2.28-.22 3.38-.41.14-.03.29-.06.44-.1.27-.08.55-.14.83-.2.83-.19 1.85-.43 2.9-.88.24-.1.5-.19.75-.29.75-.27 1.67-.61 2.59-1.15l.67-.35.45-.24c.32.05.65.07.97.07.74 0 1.48-.11 2.19-.34 1.1-.35 4.19-1.33 5.75-3.87z" fill="#333"/><path fill="#F7931E" d="M194.305 186.78s6.3 5.638 16.59 2.714c10.287-2.925 17.588 3.006 20.61-.203l-4.087-6.57-16.265-2.33H198.41l-4.34 6.58"/><path fill="#fdb" d="M208.71 164.717l-.302.27c-.26.227-.582.476-.972.768-.802.563-1.946 1.34-3.46 1.994-.74.36-1.6.63-2.497.93-.92.23-1.89.5-2.93.6-1.04.18-2.11.15-3.2.17-1.09-.06-2.19-.18-3.27-.38-1.04-.29-2.16-.45-3.12-.87-.96-.4-2-.69-2.84-1.19-.86-.47-1.72-.9-2.49-1.36l-2.05-1.41c-1.3-.85-2.15-1.74-2.85-2.29-.68-.57-1.06-.9-1.06-.9l5.55-5.69.81.76c.54.45 1.23 1.26 2.19 1.95l1.53 1.17c.55.37 1.16.7 1.78 1.09.61.43 1.3.6 1.96.94.66.35 1.38.44 2.07.69.7.16 1.41.27 2.11.35.69.01 1.38.1 2.04 0 .66-.02 1.29-.18 1.89-.29.59-.18 1.16-.31 1.65-.53 1.02-.37 1.8-.86 2.31-1.17l.51-.35c.07-.04.21-.17.19-.16l4.38 4.86zm11.37-5.507s1.47.494 3.67 1.237c2.194.758 5.1 1.825 7.997 2.984 1.45.56 2.893 1.23 4.25 1.8 1.357.59 2.63 1.27 3.718 1.79 1.09.54 2.033 1.18 2.676 1.54.65.4 1.02.62 1.02.62l-4.67 6.44-.74-.5c-.5-.31-1.1-.8-2.03-1.33-.94-.51-1.99-1.16-3.22-1.78-1.24-.6-2.51-1.3-3.88-1.91-2.68-1.26-5.43-2.45-7.51-3.31l-3.46-1.4 2.2-6.15zm5.91 14.12l1.203 3.114-4.882 1.133-21.23-.497-1.72-.92.59-1.415 8.29-4.104 12.53-.07z"/><path fill="#FBB03B" d="M213.035 173.898c-4.936 0-9.578.665-13.638 1.836l5.237-19.012 17.65.75 4.863 18.41c-4.168-1.26-8.978-1.984-14.112-1.984z"/><path fill="#0071BC" d="M219.408 158.89s-4.104 3.538-9.557 2.688-.92-3.68-.92-3.68"/><path fill="#fdb" d="M222.33 179.965s-.056 1.227-.137 3.066c-.104 1.86-.176 4.3-.164 6.68l-.08 9.61-8.22.13.27-10.03c.03-2.52.16-4.99.3-6.81.11-1.83.19-3.06.19-3.06l7.83.44zm-9.743-.292l.56 19.63-8.214.153-.18-19.637z"/><path fill="#FBB03B" d="M204.614 194.777s-5.782 1.77-8.12 4.035l18.47.142-.462-2.97-9.888-1.207z"/><path fill="#F4E8D9" d="M195.62 199.38h18v1h-18z"/><path fill="#fdb" d="M177.773 147.806s10.763 7.114 9.937 9.613c0 0-2.944 9.54-6.82 8.31-3.88-1.23-3.067-2.52-3.067-2.52s-3.318-1.75-4.22-2.6c-.715-.67-2.065-2.25-2.253-3.21-.124-.62.56-2.47.56-2.47s-1.99-1.15-.015-3.55c1.974-2.41 3.24-5.45 5.878-3.6zm56.154 25.99s5.36-7.7 7.163-7.06c0 0 6.89 2.304 5.933 5.103-.958 2.79-1.878 2.18-1.878 2.18s-1.33 2.38-1.96 3.02c-.5.51-1.668 1.46-2.372 1.58-.456.08-1.787-.45-1.787-.45s-.864 1.42-2.584-.05c-1.72-1.48-3.906-2.45-2.515-4.34zm-70.73-57.892s.13.117.373.346c.245.236.604.584 1.062 1.03.87.876 2.07 2.126 3.415 3.698 2.717 3.125 6.03 7.55 8.742 12.39.7 1.192 1.35 2.42 1.93 3.66.63 1.21 1.16 2.45 1.67 3.66.54 1.188.96 2.384 1.36 3.52.42 1.13.78 2.207 1.04 3.234.28 1.016.54 1.95.76 2.775.18.842.32 1.575.45 2.182.24 1.21.38 1.9.38 1.9l-7.86 1.24-.32-1.64c-.1-.52-.22-1.16-.36-1.88l-.64-2.41c-.22-.89-.53-1.84-.89-2.82-.34-1-.7-2.05-1.17-3.11-.44-1.07-.89-2.17-1.44-3.26-.52-1.11-1.08-2.2-1.7-3.28-2.38-4.36-5.35-8.41-7.77-11.24-1.2-1.44-2.26-2.57-3-3.33-.37-.36-.65-.65-.84-.84l-.32-.3 5.09-5.56z"/><path fill="#FBB03B" d="M222.1 194.777s4.574 1.77 6.914 4.035l-16.205.142.46-2.97 8.83-1.207z"/><path fill="#F4E8D9" d="M210.62 199.38h20v1h-20z"/><path fill="#D3C1AF" d="M210.62 199.38h3v1h-3z"/><path fill="#fdb" d="M51.66 159.856c-.018-.02.128.118.195.156l.504.346c.51.317 1.28.803 2.31 1.174.49.22 1.07.354 1.65.526.6.11 1.23.268 1.9.285.66.1 1.35.018 2.04.007.7-.08 1.41-.193 2.11-.354.69-.256 1.41-.348 2.07-.697.66-.35 1.35-.52 1.96-.95.62-.39 1.23-.72 1.78-1.09l1.52-1.17c.96-.69 1.65-1.5 2.19-1.95l.82-.77 5.55 5.69-1.06.9c-.7.54-1.55 1.43-2.85 2.29l-2.05 1.4c-.76.46-1.62.89-2.48 1.35-.84.5-1.88.79-2.84 1.19-.95.41-2.07.58-3.11.86-1.07.19-2.18.32-3.26.37-1.1-.02-2.17.01-3.2-.17-1.04-.1-2.02-.37-2.93-.61-.9-.3-1.76-.57-2.5-.93-1.52-.66-2.66-1.44-3.46-2-.39-.29-.71-.54-.97-.77l-.3-.27 4.37-4.86zm-13.548 5.506s-1.385.562-3.46 1.4c-2.076.856-4.826 2.05-7.51 3.313-1.363.606-2.64 1.31-3.878 1.91-1.228.62-2.272 1.27-3.216 1.78-.93.527-1.526 1.022-2.03 1.334-.475.32-.75.5-.75.5l-4.675-6.44s.37-.22 1.017-.62c.642-.36 1.587-1.01 2.674-1.54 1.09-.52 2.362-1.2 3.717-1.79 1.36-.57 2.8-1.25 4.26-1.8 2.9-1.16 5.8-2.23 8-2.99l3.67-1.24 2.2 6.15z"/><path fill="#29ABE2" d="M54.288 170.782l3.114-9.77-7.362-3.397m-19.538 13.167l-3.114-9.77 7.364-3.397"/><path fill="#fdb" d="M30.008 173.33l-1.204 3.114 4.884 1.133 21.238-.497 1.72-.92-.587-1.415-8.29-4.104-12.54-.07z"/><path fill="#29ABE2" d="M42.96 173.898c4.94 0 9.583.665 13.64 1.836l-5.238-19.012-17.653.75-4.86 18.41c4.17-1.26 8.98-1.984 14.11-1.984z"/><path fill="#0071BC" d="M36.59 158.89s4.105 3.538 9.558 2.688c5.45-.85.92-3.68.92-3.68"/><path fill="#fdb" d="M41.5 179.53l.19 3.063c.14 1.824.263 4.293.3 6.818.137 5.02.268 10.03.268 10.03l-8.214-.12s-.038-4.8-.073-9.61c.02-2.38-.06-4.82-.16-6.67l-.13-3.06 7.83-.43zm9.746.29l-.18 19.636-8.216-.154.56-19.63z"/><path fill="#082031" d="M51.385 194.777s5.78 1.77 8.12 4.035l-18.47.142.463-2.97 9.887-1.207z"/><path fill="#F4E8D9" d="M42.62 199.38h18v1h-18z"/><path fill="#F4D1B0" d="M53.358 148.055c0 2.815.407 5.094 2.38 5.094 1.972 0 4.76-.53 4.76-5.1 0-2.82-1.595-5.09-3.57-5.09-1.97 0-3.57 2.27-3.57 5.09zm-23.624 0c0 2.815-.41 5.094-2.38 5.094s-4.763-.53-4.763-5.1c0-2.82 1.6-5.09 3.58-5.09s3.57 2.27 3.57 5.09z"/><path fill="#fdb" d="M55.596 153.084c.25 6.533-9.465 7.03-13.754 7.03-4.883 0-14.003-.693-14.053-7.028 0-10.01-1.04-20.637 13.9-20.637 15.08 0 13.9 10.62 13.9 20.63z"/><g opacity=".44"><defs><path id="a" d="M41.695 149.535s1.552-.592 1.85 1.185c0 0-2.295 1.036-1.85-1.185z"/></defs><clipPath id="b"><use xlink:href="#a" overflow="visible"/></clipPath><path fill="#FF6064" d="M42.62 149.486h2v1h-2z" clip-path="url(#b)"/><circle fill="#FF6064" cx="42.591" cy="150.199" r=".866" clip-path="url(#b)"/><circle fill="#FF5F63" cx="42.59" cy="150.199" r=".787" clip-path="url(#b)"/><circle fill="#FF5E62" cx="42.591" cy="150.199" r=".716" clip-path="url(#b)"/><path fill="#FF5D61" d="M43.238 150.2c0 .353-.293.645-.647.645-.35 0-.64-.293-.64-.646s.29-.65.65-.65c.36 0 .65.29.65.64z" clip-path="url(#b)"/><circle fill="#FF5C60" cx="42.59" cy="150.199" r=".575" clip-path="url(#b)"/><path fill="#FF5B5F" d="M43.094 150.2c0 .283-.22.504-.504.504-.284 0-.505-.22-.505-.505 0-.29.22-.51.505-.51.283 0 .504.22.504.5z" clip-path="url(#b)"/><circle fill="#FF595E" cx="42.591" cy="150.199" r=".434" clip-path="url(#b)"/><circle fill="#FF585D" cx="42.591" cy="150.199" r=".354" clip-path="url(#b)"/><path fill="#FF575C" d="M42.873 150.2c0 .158-.123.283-.283.283-.16 0-.284-.125-.284-.284 0-.16.123-.29.284-.29.16 0 .283.12.283.28z" clip-path="url(#b)"/><path fill="#FF565B" d="M42.804 150.2c0 .122-.09.21-.213.21s-.21-.088-.21-.21c0-.125.09-.212.21-.212s.22.087.22.21z" clip-path="url(#b)"/><circle fill="#FF555A" cx="42.591" cy="150.199" r=".141" clip-path="url(#b)"/><path fill="#FF5459" d="M42.66 150.2c0 .034-.035.07-.07.07-.033 0-.072-.036-.072-.07 0-.035.04-.07.072-.07.035 0 .07.035.07.07z" clip-path="url(#b)"/></g><path fill="#333" d="M43.544 151.286c-.272 0-.513-.197-.56-.474-.063-.37-.19-.617-.38-.726-.292-.164-.707-.022-.707-.022-.3.116-.62-.038-.73-.327-.115-.293.034-.62.327-.73.092-.035.924-.33 1.676.1.498.284.813.796.933 1.52.05.307-.157.6-.467.65-.03.006-.06.01-.092.01zm-2.534 3.717c-.74 0-1.348-.207-1.813-.62-1.085-.956-.885-2.627-.876-2.7.05-.31.38-.51.64-.49.31.04.53.322.49.63 0 .016-.13 1.16.51 1.72.43.37 1.14.43 2.13.177.3-.072.61.105.69.41.08.303-.1.61-.4.688-.48.123-.93.185-1.34.185zm2.534 0c-.397 0-.837-.062-1.324-.187-.302-.077-.485-.385-.408-.687.077-.31.386-.49.686-.42.666.17 1.544.28 1.983-.15.46-.45.36-1.4.29-1.69-.07-.3.12-.61.42-.68.31-.07.62.12.68.42.02.07.41 1.77-.59 2.75-.42.41-1 .62-1.73.62z"/><path fill="#DBC79C" d="M43.27 155.823s-1.575 1.183-3.204 1.183c-1.626 0 4.29 3.304 3.205-1.183z"/><path fill="#F5F5F5" d="M39.748 145.574c0 2.85-2.31 5.165-5.16 5.165-2.853 0-5.16-2.32-5.16-5.17s2.307-5.16 5.16-5.16c2.85 0 5.16 2.31 5.16 5.15z"/><path fill="#333" d="M37.847 145.574c0 1.804-1.46 3.264-3.257 3.264-1.8 0-3.26-1.46-3.26-3.264 0-1.8 1.46-3.256 3.26-3.256 1.796 0 3.257 1.456 3.257 3.256z"/><path fill="#F5F5F5" d="M53.947 145.574c0 2.85-2.305 5.165-5.157 5.165-2.853 0-5.163-2.32-5.163-5.17s2.31-5.16 5.163-5.16c2.852 0 5.157 2.31 5.157 5.15z"/><path fill="#333" d="M52.05 145.574c0 1.804-1.46 3.264-3.26 3.264-1.8 0-3.262-1.46-3.262-3.264 0-1.8 1.463-3.256 3.262-3.256 1.8 0 3.26 1.456 3.26 3.256zm-5.097-11.357s-.928 6.79-6.02 6.943c0 0 2.932-2.622 2.624-6.016-.306-3.396-2.623 3.702-7.408 4.938 0 0 1.54-3.09 1.54-4.632 0 0-4.02 6.636-7.72 7.405l-2.01 7.717-1.87-7.375s-1.07-4.508.63-7.283c0 0-1.24 1.232-1.7 2.775 0 0-.31-4.94 4.32-7.41l-2.16-.16s7.71-8.49 20.21-4.79c0 0 5.86-.16 8.79 4.32l-2.16-.77s4.47 1.85 3.7 8.33l-1.7-1.7s1.7 3.55 1.23 6.17l-2.01 7.25-1.7-7.72s-3.39-1.7-3.39-6.64c0 0-.47 4.32-4.02 5.71 0 0 3.39-3.24.77-7.1z"/><path fill="#fdb" d="M139.993 122.688s-.41.424-.89 1.014c-.506.563-1.27 1.613-2.177 2.793-.826 1.275-1.914 2.668-2.85 4.344-.49.82-.994 1.67-1.508 2.53-.502.87-.935 1.8-1.41 2.71l-1.382 2.72c-.396.93-.788 1.84-1.166 2.73l-1.092 2.55c-.35.81-.576 1.62-.84 2.34l-1.676 4.86-7.596-2.36 1.875-5.25c.3-.78.55-1.65.95-2.53.39-.88.8-1.8 1.22-2.76l1.31-2.95c.51-.98 1.02-1.97 1.54-2.96.53-.99 1.02-1.99 1.58-2.94l1.7-2.77c1.06-1.82 2.29-3.39 3.24-4.8 1.07-1.36 1.89-2.47 2.64-3.3.73-.85 1.07-1.19 1.07-1.19l5.48 5.18zm-7.97 28.828s-9.81-8.39-11.98-6.907c0 0-8.37 5.45-6.12 8.84 2.246 3.39 3.262 2.25 3.262 2.25s2.59 2.71 3.653 3.34c.845.5 2.73 1.37 3.706 1.28.63-.05 2.218-1.22 2.218-1.22s1.65 1.6 3.42-.96c1.773-2.57 4.345-4.62 1.84-6.65z"/><path fill="#FFEDDC" d="M135.455 116.7s-3.017-.85-2.642.942c.378 1.797 1.887 1.7 1.51 4.248-.375 2.55 2.076 2.832 3.21 3.115 1.133.283 3.964 2.924 3.87-1.13m24.507-7.175s3.018-.85 2.644.942c-.375 1.797-1.886 1.7-1.51 4.248.377 2.55-2.077 2.832-3.21 3.115s-3.96 2.924-3.867-1.13"/><path fill="#ED1E79" d="M146.88 118.588c0 3.44-2.79 6.23-6.23 6.23-3.437 0-6.23-2.79-6.23-6.23 0-3.438 2.793-6.23 6.23-6.23 3.44 0 6.23 2.792 6.23 6.23zm20.388 0c0 3.44-2.79 6.23-6.23 6.23-3.44 0-6.23-2.79-6.23-6.23 0-3.438 2.79-6.23 6.23-6.23 3.44 0 6.23 2.792 6.23 6.23z"/><path fill="#fdb" d="M160.695 146.21l4.06 50.005-8.19.665-3.682-50.04zm-9.062.76l-.646 7.79c-.098 1.17-.203 2.436-.313 3.775-.095 1.338-.265 2.757-.31 4.204-.134 2.9-.273 6-.415 9.1l-1.13 24.79-8.22-.19 1.33-25.18c.17-3.15.33-6.29.49-9.24.06-1.48.24-2.88.34-4.22.12-1.34.23-2.61.34-3.77l.7-7.79 7.81.7z"/><path fill="#D4145A" d="M142.698 144.827l-7.997 21.825s2.44-1.26 3.95.09c1.52 1.35 2.74 2.156 8.2.45 5.47-1.71 7.9.81 7.9.81s5.77 2.425 8.96-1.17c3.19-3.595 6.68-.015 6.68-.015l-9.33-22.156"/><path fill="#333" d="M108.088 144.203l.353 16.178h-7.71s-.98-1.66-2.59-1.66c-1.37 0-2.12 1.44-2.12 1.44l-7.88.22.05-16.31"/><path fill="#333" d="M106.24 145.634l.472 2.105c.168.64.28 1.54.443 2.52l.523 3.33.614 3.94.384 4.3c.27 2.98.554 6.16.837 9.33.35 3.18.264 6.34.407 9.32.09 2.97.174 5.66.244 8.04.142 4.75.238 7.84.238 7.84h-8.215s-.073-3.03-.176-7.69l-.18-7.92c-.12-2.91-.01-6.03-.32-9.1-.25-3.08-.5-6.15-.74-9.04-.12-1.44-.23-2.84-.34-4.16-.18-1.27-.36-2.47-.53-3.58-.16-1.11-.31-2.13-.44-3.03-.14-.91-.21-1.68-.38-2.36l-.45-2.12 7.63-1.78zm13.796 50.746h.024c-2.84-2-6.89-3.563-6.89-3.563-2.036-1.385-.62-4.23-.62-4.23-.682-3.608-11.223.455-11.223.455s1.108 4.526.045 6c-1.065 1.47-.157 5.34-.157 5.34h.014c-.08 0 .66 1.127.66 1.127l25.58.47.02-2.49c-2.15-1.26-4.8-3.11-7.46-3.11zm-22.768-49.41l-.645 7.79c-.098 1.17-.204 2.436-.314 3.775-.1 1.338-.27 2.757-.31 4.204-.14 2.9-.28 6-.42 9.1l-1.13 24.79-8.22-.19 1.33-25.18.49-9.24c.06-1.48.24-2.88.34-4.22.12-1.34.23-2.61.34-3.77l.7-7.79 7.81.7zm-20.663 49.41h-.02c2.84-2 6.89-3.563 6.89-3.563 2.035-1.385.62-4.23.62-4.23.68-3.608 11.222.455 11.222.455s-1.11 4.526-.045 6c1.066 1.47.157 5.34.157 5.34h-.02c.07 0-.67 1.127-.67 1.127l-25.58.47-.02-2.49c2.15-1.26 4.79-3.11 7.46-3.11z"/><path fill="#fdb" d="M123.528 145.54s-10.76 7.115-9.935 9.613c0 0 2.943 9.546 6.82 8.318 3.878-1.22 3.066-2.51 3.066-2.51s3.31-1.74 4.22-2.59c.71-.67 2.06-2.24 2.25-3.2.12-.62-.56-2.47-.56-2.47s1.99-1.14.01-3.55c-1.98-2.4-3.24-5.44-5.88-3.59zm-45.303 2.266s-10.762 7.114-9.937 9.613c0 0 2.944 9.54 6.823 8.31 3.88-1.23 3.07-2.52 3.07-2.52s3.32-1.75 4.22-2.59c.72-.67 2.07-2.25 2.25-3.21.13-.62-.56-2.47-.56-2.47s1.99-1.15.02-3.55c-1.97-2.41-3.24-5.45-5.87-3.6zm-56.152 25.99s-5.36-7.7-7.163-7.06c0 0-6.892 2.304-5.933 5.103.958 2.79 1.878 2.18 1.878 2.18s1.326 2.38 1.958 3.02c.5.51 1.67 1.46 2.372 1.58.455.08 1.786-.45 1.786-.45s.87 1.42 2.59-.05c1.72-1.48 3.91-2.45 2.52-4.34zm75.813-52.336s-.107.106-.313.302c-.197.19-.478.477-.842.834-.74.764-1.8 1.89-3 3.324-2.42 2.838-5.39 6.89-7.77 11.242-.62 1.075-1.18 2.173-1.69 3.277-.55 1.08-1.01 2.18-1.44 3.25-.47 1.05-.83 2.1-1.16 3.1-.35.99-.67 1.93-.88 2.82-.23.88-.45 1.69-.64 2.41-.14.72-.26 1.36-.36 1.88-.2 1.04-.32 1.63-.32 1.63l-7.87-1.23.38-1.91.45-2.19.77-2.78c.26-1.03.63-2.11 1.05-3.24.39-1.14.82-2.34 1.36-3.53.5-1.21 1.04-2.45 1.67-3.66.59-1.24 1.24-2.47 1.94-3.66 2.71-4.84 6.02-9.27 8.74-12.39 1.34-1.58 2.54-2.83 3.41-3.7.46-.45.81-.8 1.06-1.03.24-.23.37-.35.37-.35l5.09 5.55zm10.09-7.13l.272.3c.17.177.48.565.838.997.383.45.803.984 1.215 1.572.43.6.95 1.26 1.44 2.01l1.56 2.44c.58.85 1.06 1.8 1.61 2.77.53.97 1.11 1.97 1.64 3 .49 1.04 1 2.11 1.5 3.17.48 1.07 1.05 2.11 1.44 3.2l1.24 3.15 1.16 2.95.86 2.69 1.77 5.56-7.69 2.01-1.46-5.29-.71-2.57c-.3-.89-.63-1.82-.97-2.79-.33-.97-.68-1.97-1.04-2.99-.32-1.04-.81-2.01-1.21-3.02l-1.27-2.99c-.44-.98-.94-1.9-1.39-2.81-.46-.9-.87-1.81-1.35-2.59l-1.31-2.24c-.41-.69-.84-1.27-1.19-1.81-.35-.56-.67-.98-.91-1.3-.26-.34-.41-.58-.6-.79l-.26-.31 4.87-4.36z"/><path fill="#534741" d="M111.204 149.945l-24.92-.227 5.663-40.337h13.59zM91.947 111.18s-7.926-.143-11.703 17.98l10.947 7.926s-.51-13.024 4.16-11.89m10.95-14.016s7.93-.143 11.7 17.98l-10.94 7.926s.52-13.024-4.15-11.89"/><path fill="#DBB99C" d="M103.84 110.47l-5.098 7.362-5.662-7.93"/><path fill="#F4D1B0" d="M104.16 93.496c0 3.354.486 6.072 2.84 6.072 2.35 0 5.675-.63 5.675-6.072 0-3.354-1.906-6.072-4.258-6.072-2.35 0-4.258 2.72-4.258 6.072z"/><path fill="#C69C6D" d="M104.866 93.473c.008-.938.202-2.008.662-2.918.234-.463.53-.914.95-1.303.415-.38 1.006-.708 1.692-.718.262.024.208.003.452.053.2.042.367.1.498.167.293.127.527.31.746.498.416.39-.212.84.02 1.303.46.93-.266 1.936-.266 2.94v.116c0 .66.407 1.2-.25 1.21-.66.01-.737-.52-.74-1.18 0-.04.23-.09.235-.14.074-.66.136-1.38-.08-1.99-.202-.63-.556-1.03-.673-1.07-.07-.03-.23-.03-.467.13-.232.16-.78.42-.977.73-.403.64-1.05 1.36-1.05 2.23v.03c0 .39-.062.67-.446.63-.363-.03-.308-.35-.306-.7z"/><path fill="#F4D1B0" d="M85.058 93.496c0 3.354-.488 6.072-2.84 6.072-2.35 0-5.68-.63-5.68-6.072 0-3.354 1.906-6.072 4.26-6.072 2.352 0 4.26 2.72 4.26 6.072z"/><path fill="#C69C6D" d="M84.35 93.473c-.01-.938-.203-2.008-.664-2.918-.23-.463-.53-.914-.946-1.303-.416-.38-1.007-.708-1.694-.718-.262.024-.208.003-.45.053-.2.042-.37.1-.5.167-.29.127-.526.31-.745.498-.41.39-.27.84-.51 1.303-.46.93-.22 1.936-.22 2.94v.116c0 .66.08 1.2.74 1.21.66.01.98-.52.99-1.18 0-.04-.11-.09-.12-.14-.07-.66-.07-1.38.14-1.99.21-.63.59-1.03.7-1.07.08-.03.25-.03.49.13.23.16.46.42.66.73.41.64.64 1.36.73 2.23l.01.03c.05.39.39.67.78.63.37-.03.64-.35.64-.7z"/><path fill="#F4D1B0" d="M112.782 93.496c0 3.354.485 6.072 2.84 6.072 2.35 0 5.677-.63 5.677-6.072 0-3.354-1.91-6.072-4.26-6.072-2.35 0-4.26 2.72-4.26 6.072z"/><path fill="#C69C6D" d="M113.49 93.473c.008-.938.202-2.008.663-2.918.23-.463.528-.914.945-1.303.416-.38 1.008-.708 1.696-.718.26.024.208.003.45.053.2.042.37.1.498.167.292.127.526.31.746.498.416.39.474.84.71 1.303.458.93.42 1.936.42 2.94v.116c0 .66-.28 1.2-.94 1.21-.66.01-1.078-.52-1.087-1.18 0-.04.07-.09.08-.14.08-.66.05-1.38-.17-1.99-.2-.63-.6-1.03-.71-1.07-.07-.03-.25-.03-.49.13-.23.16-.1.42-.3.73-.4.64-.37 1.36-.37 2.23v.03c0 .39-.75.67-1.13.63-.36-.03-1-.35-.99-.7z"/><path fill="#fdb" d="M115.894 99.494c0 11.928-11.463 12.96-16.578 12.96-5.82 0-16.577-1.032-16.577-12.96 0-11.932-1.24-27.25 16.57-27.25 17.98.002 16.58 15.32 16.58 27.25z"/><path fill="#FBB03B" d="M79.62 86.238l3.177 9.17 4.584-10.7m31.63 2.116l-3.02 8.584-4.58-10.7"/><path fill="#F5F5F5" d="M96.247 93.478c0 2.728-2.208 4.938-4.934 4.938s-4.937-2.21-4.937-4.938c0-2.724 2.21-4.93 4.937-4.93 2.726 0 4.934 2.206 4.934 4.93z"/><path fill="#333" d="M94.784 93.36c0 1.896-1.53 3.43-3.427 3.43-1.888 0-3.425-1.534-3.425-3.43 0-1.892 1.537-3.422 3.425-3.422 1.895 0 3.427 1.53 3.427 3.422z"/><path fill="#F5F5F5" d="M113.18 93.478c0 2.728-2.21 4.938-4.937 4.938-2.73 0-4.938-2.21-4.938-4.938 0-2.724 2.21-4.93 4.938-4.93 2.727 0 4.936 2.206 4.936 4.93z"/><path fill="#333" d="M111.713 93.36c0 1.896-1.532 3.43-3.427 3.43-1.89 0-3.425-1.534-3.425-3.43 0-1.892 1.54-3.422 3.43-3.422 1.9 0 3.43 1.53 3.43 3.422z"/><defs><path id="c" d="M100.62 92.38v8.788s.053 1.588-2.24 2.293l.514-2.29-.667-9.09"/></defs><clipPath id="d"><use xlink:href="#c" overflow="visible"/></clipPath><path fill="#FF595E" d="M98.717 101.912h1.78v1.188h-1.78z" clip-path="url(#d)"/><path fill="#FF5B5F" d="M98.717 100.133h1.78v1.78h-1.78z" clip-path="url(#d)"/><path fill="#FF5C60" d="M98.717 99.54h1.78v.593h-1.78z" clip-path="url(#d)"/><path fill="#FF5D61" d="M98.717 97.762h1.78v1.78h-1.78z" clip-path="url(#d)"/><path fill="#FF5E62" d="M98.62 95.486h2v2h-2z" clip-path="url(#d)"/><path fill="#FF5F63" d="M98.717 94.203h1.78v1.186h-1.78z" clip-path="url(#d)"/><path fill="#FF6064" d="M98.717 93.018h1.78v1.186h-1.78zm0-1.186h1.78v1.186h-1.78z" clip-path="url(#d)"/><path fill="#333" d="M97.526 104.65c-.48 0-.928-.31-1.082-.79-.188-.595.143-1.23.74-1.423 1.23-.395 1.562-.936 1.565-1.168l-.01-8.93c0-.63.31-1.14.94-1.14.62 0 .93.51.93 1.13v8.82s.47 2.34-2.95 3.43c-.12.03-.04.05-.15.05zm1.314 3.6c-4.448 0-7.25-1.984-7.42-2.107-.508-.37-.62-1.076-.253-1.584.37-.51 1.075-.62 1.58-.26.218.15 5.416 3.75 12.93-.09.562-.28 1.24-.07 1.526.49.285.56.065 1.23-.495 1.52-2.958 1.51-5.623 2.02-7.868 2.02z"/><path fill="#FBB03B" d="M111.484 77.654s-4.936 5.996-15.518 6.703l5.17-5.29s-11.46 7.64-17.34 7.64l-1.413.176-1.586 2.557s-5.026-8.11-2.822-12.52c0 0 .825-1.264-1.997.148 0 0 5.32-14.315 25.51-12.815 0 0 10.876 1.643 11.935 5.436.806 2.89-1.94 7.96-1.94 7.96zm-1.414-1.174s0 8.113 2.824 11.285l5.287.988s3.36-7.865 3.36-9.982-1.23-8.81-8.64-8.11c-7.4.71-2.82 5.82-2.82 5.82z"/><path fill="#F7931E" d="M101.572 86.783c-.036.03.696-.496 1.806-1.02.543-.3 1.225-.527 1.944-.834.368-.13.756-.24 1.15-.36.402-.11.796-.26 1.217-.31.84-.11 1.67-.36 2.49-.31.81.02 1.59-.08 2.24.06l2.2.4c1.11.2 1.85 1.27 1.65 2.38-.21 1.11-1.27 1.85-2.39 1.65-.1-.02-.19-.04-.28-.07l-.35-.12s-.61-.2-1.51-.51c-.46-.2-1.05-.18-1.65-.3-.62-.15-1.31-.03-1.99-.06-.35-.02-.69.07-1.03.1l-1.01.14c-.64.17-1.26.27-1.76.46-1.04.31-1.61.62-1.65.63-.55.31-1.24.12-1.55-.42-.32-.54-.13-1.23.41-1.54zm-5.112 1.965c-.045-.012-.616-.315-1.65-.627-.495-.19-1.118-.28-1.752-.46l-1-.14c-.343-.03-.682-.12-1.03-.1-.683.03-1.37-.09-1.98.06-.61.13-1.2.11-1.65.3l-1.51.51-.335.12c-1.074.36-2.24-.21-2.6-1.28-.365-1.07.212-2.24 1.287-2.6.092-.03.195-.05.29-.07l2.203-.4c.656-.14 1.433-.05 2.244-.07.823-.04 1.655.2 2.495.31.425.05.818.21 1.216.31.395.12.785.23 1.153.36.72.31 1.4.53 1.95.84 1.11.53 1.84 1.05 1.8 1.02.55.31.73 1 .42 1.55-.31.54-1 .73-1.54.42z"/><path fill="#754C24" d="M174.402 196.38h.022c-2.84-2-6.893-3.563-6.893-3.563-2.03-1.385-.61-4.23-.61-4.23-.68-3.608-11.22.455-11.22.455s1.11 4.526.05 6c-1.06 1.47-.15 5.34-.15 5.34h.01c-.07 0 .67 1.127.67 1.127l25.59.47.02-2.49c-2.15-1.26-4.8-3.11-7.46-3.11zm-43.432 0h-.022c2.842-2 6.893-3.563 6.893-3.563 2.04-1.385.62-4.23.62-4.23.68-3.608 11.23.455 11.23.455s-1.11 4.526-.04 6c1.07 1.47.16 5.34.16 5.34h-.01c.07 0-.67 1.127-.67 1.127l-25.58.47-.02-2.49c2.16-1.26 4.8-3.11 7.46-3.11z"/><path fill="#ED1E79" d="M163.303 144.393l-24.353.022 5.096-29.034h13.592z"/><path fill="#FFEDDC" d="M145.87 128.38h9.94c1.01 0 1.81-.604 1.81-1.612V115.38h-14v11.388c0 1.007 1.24 1.613 2.25 1.613z"/><path fill="#F4D1B0" d="M153.62 116.135c0 1.875-1.3 3.115-2.5 3.115-1.203 0-2.5-1.24-2.5-3.115v-6.797c0-1.877 1.297-3.398 2.5-3.398 1.2 0 2.5 1.52 2.5 3.398v6.797z"/><path fill="#D3BD8D" d="M164.346 93.473c0 3.297.48 5.97 2.793 5.97 2.31 0 5.58-.622 5.58-5.97 0-3.3-1.87-5.97-4.19-5.97s-4.19 2.67-4.19 5.97z"/><path fill="#C69C6D" d="M165.042 93.45c.01-.924.2-1.977.653-2.87.226-.455.517-.9.928-1.283.41-.373.993-.694 1.667-.7.257.02.204 0 .447.05.192.04.36.1.485.162.286.12.52.3.732.48.41.38.742.83.97 1.28.454.91.694 1.9.694 2.89v.11c0 .64-.55 1.17-1.197 1.18-.64.01-1.19-.51-1.2-1.16v-.14c.07-.65.01-1.36-.2-1.96-.19-.62-.6-1.02-.71-1.06-.07-.04-.26-.03-.49.12-.23.15.64.41.45.72-.39.63.37 1.33.37 2.19v.03c0 .38-1.48.65-1.86.61-.36-.04-1.72-.34-1.71-.69z"/><path fill="#D3BD8D" d="M136.663 93.473c0 3.297-.482 5.97-2.793 5.97s-5.58-.622-5.58-5.97c0-3.3 1.87-5.97 4.185-5.97 2.312 0 4.188 2.67 4.188 5.97z"/><path fill="#C69C6D" d="M135.97 93.45c-.014-.924-.204-1.977-.655-2.87-.23-.455-.52-.9-.93-1.283-.41-.373-.99-.694-1.67-.702-.252.023-.2.003-.438.052-.196.04-.364.1-.49.162-.288.12-.52.3-.73.48-.413.38-.13.83-.36 1.28-.45.91-.076 1.9-.076 2.89v.11c0 .64-.06 1.17.59 1.18.65.01.9-.51.9-1.16 0-.05-.14-.1-.15-.14-.07-.65-.09-1.36.13-1.96.2-.62.57-1.02.68-1.06.07-.04.24-.03.48.12.23.15.45.41.65.72.4.63.63 1.33.72 2.19v.03c.04.38.38.65.76.61.36-.04.62-.34.62-.69z"/><path fill="#fdb" d="M166.976 99.367c0 11.73-11.27 12.742-16.3 12.742-5.722 0-16.295-1.02-16.295-12.75s-1.21-26.79 16.3-26.79c17.69 0 16.3 15.06 16.3 26.79z"/><circle fill="#F48B73" cx="150.706" cy="107.949" r="2.659"/><path fill="#333" d="M150.158 73.277s1.332 14.504-4.68 16.122c0 0-2.776-.87-9.016-.87l4.45-13.87 9.764-2.09-.518.69zm-.06.23s3.93 11.44-1.384 15.6c0 0 12.078-.112 17.394-2.192 0 0-4.394-16.355-16.01-13.407z"/><circle fill="#F5F5F5" cx="142.81" cy="93.455" r="4.852"/><path fill="#333" d="M146.223 93.34c0 1.86-1.504 3.365-3.367 3.365-1.86 0-3.37-1.506-3.37-3.365 0-1.86 1.51-3.365 3.37-3.365 1.863 0 3.367 1.504 3.367 3.365z"/><circle fill="#F5F5F5" cx="159.453" cy="93.455" r="4.853"/><path fill="#333" d="M162.865 93.34c0 1.86-1.503 3.365-3.366 3.365-1.86 0-3.37-1.506-3.37-3.365 0-1.86 1.51-3.365 3.37-3.365s3.36 1.504 3.36 3.365zm-28.195-5.272s-1.386 13.002 3.236 22.252c0 0-9.94-.39-12.022-6.633-2.078-6.236-.46-38.307 24.042-34.307h1.66c24.498-4 26.117 28.07 24.04 34.307-2.082 6.244-12.024 7.16-12.024 7.16 4.625-9.25 1.583-24.42 1.583-24.42l-9.943-12.772-9.708.385-10.865 14.028zm16.18 20.58c-3.454 0-6.16-1.83-6.16-4.166 0-.627.507-1.133 1.133-1.133.625 0 1.133.5 1.133 1.13 0 .89 1.665 1.9 3.895 1.9s3.9-1.01 3.9-1.9c0-.63.51-1.14 1.13-1.14.63 0 1.14.5 1.14 1.13 0 2.33-2.7 4.16-6.16 4.16z"/><path fill="#FF7BAC" d="M131.112 86.36l-.01-.58c.01-.395-.06-.893.084-1.776.206-1.678.74-3.92 2.28-6.248.734-1.166 1.72-2.29 2.856-3.366 1.167-1.036 2.485-2.057 4.012-2.796 1.5-.796 3.148-1.4 4.868-1.817 1.714-.462 3.513-.602 5.3-.674 1.045.067 1.583.02 2.616.175.95.1 1.847.263 2.692.476 1.727.4 3.372 1.033 4.868 1.834 3.02 1.55 5.39 3.848 6.87 6.167 1.52 2.312 2.08 4.625 2.265 6.197.14.79.085 1.424.09 1.85-.002.425-.005.65-.005.65-.005.814-.67 1.47-1.485 1.46-.735-.007-1.34-.552-1.443-1.26l-.03-.2s-.025-.18-.077-.514c-.05-.332-.092-.82-.265-1.422-.265-1.21-.925-2.883-2.22-4.56-.626-.856-1.46-1.666-2.39-2.452-.966-.75-2.043-1.48-3.27-2.044-1.202-.607-2.54-1.03-3.93-1.35-.704-.17-1.392-.282-2.054-.345-.564-.12-1.66-.086-2.232-.133-1.444.038-2.91.102-4.293.452-1.4.306-2.73.757-3.93 1.366-2.44 1.165-4.4 2.794-5.66 4.5-1.28 1.667-1.96 3.407-2.21 4.513-.17.507-.23 1.132-.28 1.498l-.08.58c-.11.82-.86 1.39-1.67 1.28-.75-.1-1.28-.73-1.29-1.45z"/><path fill="#ED1E79" d="M142.62 144.38h21v2h-21z"/><path fill="#FFEDDC" d="M138.95 144.132l-.426 1.307s1.65-.47 2.17 0 1.56.66 2.74 0c1.178-.67 3.537-.66 4.716.09 1.18.75 4.53-.15 4.53-.15s2.69-.85 4.768.51c2.076 1.37 5.096-.66 5.096-.66s.757-.43 1.32.85l-.562-1.9-24.352-.07z"/><path fill="#BA0952" d="M138.647 166.742c.03.025.058.05.087.072 1.64-4.586 4.348-12.48 4.082-13.87-.375-1.98-1.98-1.51-3.68 3.398-.928 2.686-2.818 6.946-4.337 10.262.44-.207 2.5-1.06 3.84.138zm31.59-.056c-1.55-2.857-8.33-15.155-9.582-14.4-1.123.67 1.432 9.642 2.397 15.167.222-.185.438-.388.645-.62 2.82-3.182 5.876-.752 6.54-.147zm-19.3-12.986c-2.98.357-4.266 7.972-4.854 13.71.257-.078.482-.13.764-.22 4.66-1.455 7.093.148 7.717.66.067-5.453-.31-14.55-3.627-14.15z"/><path fill="#29ABE2" d="M28.52 176.38h28.127l-5.37 8H33.21z"/><path fill="#0071BC" d="M33.24 178.946s1.223.02 2.96.11c.864.04 1.867.086 2.945.132 1.07.033 2.196.08 3.33.085l1.69-.016c.542-.023 1.072-.05 1.585-.07 1.063-.087 2.056-.166 2.905-.232 1.765-.177 2.942-.292 2.942-.292s-.928.836-2.607 1.56c-.833.37-1.84.708-2.972.95-.572.092-1.192.24-1.78.275-.597.026-1.105.082-1.796.085-1.21-.047-2.42-.152-3.534-.377-1.11-.228-2.125-.518-2.973-.84-1.698-.63-2.696-1.37-2.696-1.37zm7.407 6.294l.584-5.716 2.27-.022.7 5.7z"/><path fill="#082031" d="M33.9 194.777s-4.576 1.77-6.915 4.035l16.204.142-.47-2.97-8.83-1.207z"/><path fill="#F4E8D9" d="M26.62 199.38h21v1h-21z"/><path fill="#D3C1AF" d="M42.62 199.38h5v1h-5z"/><path fill="#E29837" d="M224.402 134.518s2.06-4.12 5.885-1.178c3.822 2.94 2.205 8.53 9.56 5.146 0 0-9.267 12.503-15.445-3.968zm-23.385 0s-2.06-4.12-5.883-1.178c-3.825 2.94-2.207 8.53-9.56 5.146 0 0 9.267 12.503 15.443-3.968z"/><path fill="#F4D1B0" d="M224.38 150.918c0 2.79.404 5.06 2.37 5.06 1.96 0 4.733-.524 4.733-5.06 0-2.8-1.59-5.066-3.55-5.066-1.962 0-3.553 2.267-3.553 5.066z"/><path fill="#C69C6D" d="M224.97 150.896c.006-.786.168-1.677.555-2.436.192-.387.44-.764.79-1.087.346-.317.84-.592 1.413-.598.214.02.17 0 .374.045.166.033.31.084.416.136.243.11.44.262.618.417.35.323.67.7.86 1.087.385.776.623 1.614.623 2.457v.093c0 .55-.5 1-1.06 1.008-.55.006-1.03-.434-1.04-.983 0-.04-.02-.08-.02-.117.06-.555.01-1.16-.18-1.665-.17-.53-.52-.862-.61-.896-.06-.032-.23-.025-.42.108-.2.132-.16.352-.32.607-.34.536-.38 1.138-.38 1.86v.03c0 .322-.57.557-.89.524-.3-.032-.77-.294-.77-.59z"/><path fill="#F4D1B0" d="M200.892 150.918c0 2.79-.406 5.06-2.366 5.06-1.965 0-4.737-.524-4.737-5.06 0-2.8 1.59-5.066 3.55-5.066 1.96 0 3.55 2.267 3.55 5.066z"/><path fill="#C69C6D" d="M200.303 150.896c-.008-.786-.17-1.677-.555-2.436-.193-.387-.44-.764-.788-1.087-.346-.317-.84-.592-1.412-.598-.218.02-.175 0-.378.045-.166.033-.306.084-.414.136-.243.11-.44.262-.622.417-.346.323-.68.7-.88 1.087-.38.776-.635 1.614-.635 2.457v.093c0 .55.52 1 1.06 1.008.55.006 1.04-.434 1.05-.983 0-.04.02-.08.02-.117-.06-.555-.01-1.16.17-1.665.17-.53.52-.862.61-.896.06-.032.22-.025.41.108.19.132 1.14.352 1.3.607.33.536 1.36 1.138 1.36 1.86v.03c0 .322-.43.557-.1.524.3-.032-.22-.294-.22-.59z"/><path fill="#F4D1B0" d="M218.797 160.38c0 2.76-1.522 5-3.397 5h-4.53c-1.876 0-3.397-2.24-3.397-5 0-2.762 1.52-5 3.396-5h4.53c1.87 0 3.39 2.238 3.39 5z"/><path fill="#fdb" d="M226.606 155.916c0 5.515-9.412 6.985-13.675 6.985-4.85 0-13.97-1.76-13.97-6.98 0-9.95-1.03-20.51 13.83-20.51 15.01 0 13.83 10.57 13.83 20.52z"/><g opacity=".44"><defs><path id="e" d="M212.782 152.385s1.545-.585 1.84 1.18c0 0-2.28 1.026-1.84-1.18z"/></defs><clipPath id="f"><use xlink:href="#e" overflow="visible"/></clipPath><path fill="#FF6064" d="M214.53 153.05c0 .47-.388.85-.856.85s-.857-.38-.857-.85c0-.478.39-.86.857-.86s.857.382.857.86z" clip-path="url(#f)"/><path fill="#FF5F63" d="M214.46 153.05c0 .433-.353.777-.786.777-.435 0-.788-.345-.788-.778 0-.44.354-.79.788-.79.432 0 .787.35.787.78z" clip-path="url(#f)"/><path fill="#FF5E62" d="M214.39 153.05c0 .39-.316.707-.716.707-.397 0-.716-.318-.716-.708 0-.4.318-.72.716-.72.4 0 .717.32.717.71z" clip-path="url(#f)"/><path fill="#FF5D61" d="M214.32 153.05c0 .353-.293.638-.646.638s-.646-.285-.646-.64c0-.352.293-.645.646-.645s.646.293.646.646z" clip-path="url(#f)"/><path fill="#FF5C60" d="M214.25 153.05c0 .32-.26.565-.576.565s-.576-.246-.576-.566c0-.32.26-.58.576-.58s.577.25.577.57z" clip-path="url(#f)"/><path fill="#FF5B5F" d="M214.18 153.05c0 .273-.23.494-.506.494-.272 0-.503-.22-.503-.495 0-.29.23-.51.51-.51s.51.22.51.5z" clip-path="url(#f)"/><path fill="#FF595E" d="M214.106 153.05c0 .228-.193.424-.433.424s-.435-.195-.435-.425c0-.24.194-.44.435-.44.24 0 .433.19.433.43z" clip-path="url(#f)"/><circle fill="#FF585D" cx="213.674" cy="153.049" r=".354" clip-path="url(#f)"/><path fill="#FF575C" d="M213.957 153.05c0 .16-.122.282-.283.282-.16 0-.282-.122-.282-.283 0-.16.123-.29.282-.29.16 0 .283.12.283.28z" clip-path="url(#f)"/><path fill="#FF565B" d="M213.886 153.05c0 .114-.097.21-.212.21s-.21-.096-.21-.21c0-.125.095-.213.21-.213s.212.088.212.212z" clip-path="url(#f)"/><path fill="#FF555A" d="M213.815 153.05c0 .08-.062.14-.142.14s-.142-.06-.142-.14c0-.082.07-.14.15-.14s.14.058.14.14z" clip-path="url(#f)"/><path fill="#FF5459" d="M213.744 153.05c0 .034-.026.07-.07.07s-.07-.036-.07-.07c0-.045.026-.072.07-.072s.07.027.07.07z" clip-path="url(#f)"/></g><path fill="#333" d="M214.622 154.132c-.27 0-.51-.2-.556-.475-.066-.37-.19-.61-.38-.72-.292-.17-.7-.023-.7-.023-.302.114-.624-.038-.732-.328-.113-.29.036-.62.326-.73.094-.04.92-.333 1.672.098.495.287.81.796.93 1.52.054.307-.156.598-.467.648-.03.008-.062.01-.093.01z"/><path fill="#F4D1B0" d="M214.35 159.814s-1.567 1.138-3.184 1.175c-.05 0 4.263 3.28 3.185-1.18z"/><circle fill="#F48B73" cx="213.323" cy="157.313" r="1.863"/><path fill="#fff" d="M210.85 148.448c0 2.832-2.294 5.134-5.134 5.134-2.834 0-5.13-2.302-5.13-5.134 0-2.834 2.296-5.133 5.13-5.133 2.84 0 5.134 2.3 5.134 5.133zm14.117 0c0 2.832-2.293 5.134-5.13 5.134-2.836 0-5.13-2.302-5.13-5.134 0-2.834 2.294-5.133 5.13-5.133 2.837 0 5.13 2.3 5.13 5.133z"/><path fill="#333" d="M208.96 148.448c0 1.79-1.45 3.243-3.244 3.243-1.785 0-3.238-1.45-3.238-3.24s1.453-3.24 3.238-3.24c1.793 0 3.245 1.45 3.245 3.24z"/><circle fill="#333" cx="219.838" cy="148.448" r="3.242"/><path fill="#FBB03B" d="M212.77 130.385c-17.892-3.514-16.05 15.467-16.05 15.467l2.19 4.794c-.248-9.73 12.452-10.622 13.86-12.944 1.402 2.322 14.133 3.58 13.985 12.65l2.06-4.5s1.842-18.98-16.045-15.467z"/><path fill="#E8D5AF" d="M212.782 139.125c-.108 0-.215-.03-.313-.09-.26-.176-.34-.527-.16-.79l1.32-2.005-2.62-1.133c-.21-.09-.34-.295-.34-.52s.13-.433.34-.52l1.77-.747-1.7-1.043c-.17-.102-.27-.285-.27-.484s.1-.38.27-.482l1.1-.66c.26-.16.61-.08.77.2.16.27.07.62-.2.78l-.3.18 1.84 1.13c.18.11.28.32.27.53-.02.21-.15.4-.35.48l-1.57.66 2.02.87c.15.07.27.2.31.36.05.16.02.34-.07.48l-1.7 2.58c-.11.16-.29.26-.48.26z"/><path fill="#333" d="M212.104 157.827c-.738 0-1.342-.207-1.806-.616-1.078-.95-.88-2.62-.87-2.69.037-.31.354-.51.628-.49.31.04.53.32.494.63-.002.02-.13 1.16.502 1.71.417.37 1.123.43 2.104.18.3-.07.61.11.69.41.077.31-.106.61-.41.69-.482.13-.924.19-1.332.19zm2.516-.002c-.396 0-.834-.06-1.314-.185-.304-.077-.49-.385-.41-.688.075-.305.392-.485.687-.41.658.17 1.535.278 1.968-.142.45-.44.36-1.363.29-1.685-.07-.302.12-.605.43-.678.29-.074.61.117.68.423.02.07.4 1.77-.59 2.743-.42.416-1 .622-1.72.622z"/><path fill="#FCEE21" d="M199.496 175.36l-5.427 11.75s4.91-1.698 10.95 2.077c6.03 3.777 14.15-2.264 14.15-2.264s6.41-3.4 12.27 2.452l-4.3-13.492s-14.07-6.19-27.65-.524z"/><path fill="#333" d="M149.692 104.65c-.48 0-.927-.31-1.08-.79-.19-.595.14-1.23.736-1.423 1.233-.395 1.564-.936 1.566-1.168l-.007-8.93c0-.63.73-1.14 1.356-1.14s1.354.51 1.354 1.13v8.82s.058 2.34-3.36 3.43c-.112.03-.452.05-.565.05z"/><circle fill="#333" cx="147.195" cy="119.645" r="1.334"/><circle fill="#333" cx="154.904" cy="119.645" r="1.334"/><circle fill="#333" cx="147.195" cy="123.797" r="1.334"/><circle fill="#333" cx="154.904" cy="123.797" r="1.334"/></svg>