<svg xmlns="http://www.w3.org/2000/svg" width="256" height="256" viewBox="0 0 256 256"><path fill="#998675" d="M103.906 76.51s-25.247-13.433-46.728-.542c-21.483 12.888-10.205 97.217 28.47 98.83 0 0 25.776 5.37 23.092-17.727-2.686-23.09-20.947-23.63-13.963-37.59 0 0-26.857 1.62-26.32-12.35 0 0 6.444 3.76 27.93 3.22 21.486-.53 18.26-29.53 7.52-33.83zM64.248 62.47c.6 3.982-2.016 7.684-5.847 8.266l-.47.068c-3.83.585-7.43-2.177-8.03-6.16l-.52-3.482c-.6-3.983 2.01-7.683 5.84-8.268l.48-.07c3.83-.582 7.43 2.18 8.03 6.164l.53 3.483zm-13.266 9.964c1.632 2.617.843 6.065-1.774 7.7l-.326.205c-2.615 1.63-6.066.84-7.704-1.78l-1.43-2.29c-1.636-2.62-.84-6.07 1.775-7.71l.326-.21c2.61-1.64 6.06-.85 7.7 1.77l1.43 2.29zm31.634-16.76c.643 4.25-1.856 8.155-5.583 8.723l-.467.068c-3.725.57-7.27-2.425-7.915-6.678l-.56-3.716c-.64-4.25 1.85-8.15 5.58-8.72l.47-.07c3.73-.56 7.28 2.43 7.92 6.68l.57 3.72zm21.274 5.163c-.914 4.59-4.832 7.68-8.76 6.897l-.49-.094c-3.923-.782-6.365-5.137-5.452-9.723l.8-4.01c.91-4.593 4.83-7.683 8.75-6.9l.496.095c3.918.78 6.36 5.135 5.45 9.726l-.795 4.01zm23.282 10.61c-2.273 5.41-8.012 8.175-12.804 6.153l-.603-.248c-4.79-2.02-6.832-8.05-4.556-13.462l1.99-4.733c2.28-5.42 8.01-8.178 12.81-6.162l.59.255c4.79 2.018 6.83 8.047 4.55 13.462l-2 4.735zm24.922 40.51s25.246-13.43 46.73-.54c21.482 12.89 10.202 97.218-28.468 98.83 0 0-25.78 5.37-23.094-17.725 2.683-23.097 20.946-23.636 13.963-37.598 0 0 26.856 1.613 26.318-12.354 0 0-6.446 3.76-27.932 3.222-21.48-.535-18.25-29.536-7.51-33.836zm39.66-14.04c-.602 3.984 2.015 7.685 5.847 8.268l.48.068c3.84.587 7.43-2.18 8.03-6.16l.53-3.48c.61-3.983-2.01-7.684-5.84-8.27l-.47-.068c-3.83-.583-7.42 2.18-8.03 6.164l-.52 3.47zm13.266 9.965c-1.634 2.617-.845 6.067 1.775 7.703l.322.2c2.616 1.64 6.065.848 7.705-1.768l1.43-2.286c1.635-2.61.843-6.06-1.777-7.7l-.322-.2c-2.614-1.63-6.064-.84-7.7 1.77l-1.434 2.29zM173.385 91.12c-.642 4.255 1.856 8.16 5.583 8.725l.464.07c3.728.566 7.272-2.425 7.916-6.68l.565-3.714c.642-4.25-1.856-8.15-5.585-8.72l-.463-.06c-3.726-.56-7.27 2.43-7.918 6.68l-.562 3.72zm-21.272 5.166c.912 4.59 4.83 7.683 8.758 6.9l.49-.097c3.93-.78 6.37-5.14 5.45-9.73l-.79-4.01c-.91-4.59-4.83-7.68-8.75-6.9l-.49.09c-3.92.78-6.36 5.14-5.45 9.72l.8 4.01zm-23.285 10.608c2.27 5.414 8.013 8.18 12.807 6.156l.6-.248c4.79-2.02 6.833-8.05 4.558-13.462l-1.996-4.733c-2.278-5.42-8.017-8.178-12.81-6.16l-.598.25c-4.8 2.018-6.83 8.05-4.56 13.465l1.99 4.732z"/></svg>