<svg xmlns="http://www.w3.org/2000/svg" width="256" height="256" viewBox="0 0 256 256"><path d="M147.514 234.146c-7.178 0-11.178-1.352-14.888-2.96.013.62-.206 1.23-.623 1.703-.477.54-1.16.84-1.876.84-.055 0-.108 0-.163-.01l-3.665-.24c-1.2-.08-2.18-1-2.32-2.19-.12-.94-.21-1.82-.28-2.64-.08.82-.17 1.7-.29 2.63-.15 1.19-1.12 2.11-2.32 2.19l-3.67.24h-.17c-.72 0-1.4-.31-1.88-.85-.42-.48-.64-1.09-.62-1.71-3.71 1.61-7.71 2.96-14.89 2.96-.85 0-1.74-.02-2.69-.06-3.44-.14-7.04-.68-7.66-3.61-.62-2.89 2.58-5.18 5.44-6.61l5.08-3.35c.15-.1.32-.19.5-.25 2.17-1.69 4.24-3.09 6.16-4.19l1.11-46.22-.8-.3c-.63-.23-1.13-.7-1.41-1.31-.28-.6-.3-1.29-.07-1.91l.98-2.63.78-10.67c.03-.4.15-.78.34-1.1.12-.54.26-.92.4-1.26.09-.24.2-.52.33-.96 1.01-3.2 1.63-6.73 1.82-10.32-2.06 1.47-4.49 3.02-7.41 4.25-1.99.83-4.02 1.37-6.07 1.6-.52.06-1.05.09-1.58.09-2.14 0-4.26-.45-6.12-1.3-1.97-.85-3.47-2.15-4.58-3.34-.52.09-1.03.13-1.52.13-1.98 0-3.14-.7-3.45-.91-.76-.53-1.17-1.43-1.06-2.35l.66-5.56c-2.13-1.04-3.43-2.71-3.96-3.8l-.6-1.06c-.69-1.23-1.05-2.8-1.19-3.52-.32-.71-.54-1.41-.69-2.1l-4.91-6.58c-1.43-1.93-1.03-4.66.88-6.1.67-.5 1.45-.79 2.27-.86-.84-2.33.23-4.96 2.5-6.02.6-.28 1.22-.43 1.86-.45.46-1.16 1.33-2.15 2.54-2.73.69-.33 1.43-.5 2.19-.5 1.62 0 3.14.78 4.08 2.05.4-2.03 2.06-3.68 4.23-3.98.23-.03.45-.04.66-.04h.1c1.5-9.01 4.94-22.16 12.69-30.02-14.6-21.27-5.29-46.51-4.88-47.61.1-.26.24-.5.41-.71 1.5-1.81 3.07-2.18 4.12-2.18 2.47 0 8.96 0 16.99 43.88h.07c1.16 0 2.21.22 3.16.66h.88c1.03-.45 2.13-.67 3.36-.67.1 0 .2 0 .3.01 1.32-7.17 3.26-16.67 5.58-24.95 3.75-13.35 7.17-19.05 11.43-19.05 1.05 0 2.62.37 4.12 2.17.18.21.32.45.41.71.42 1.11 9.81 26.62-5.07 47.96 7.55 7.89 10.93 20.87 12.41 29.79h.1c.22 0 .44.01.66.04 2.18.3 3.85 1.95 4.25 3.99.92-1.25 2.45-2.04 4.08-2.04.76 0 1.49.16 2.18.49 1.2.57 2.08 1.57 2.54 2.72.64.02 1.26.17 1.85.44 2.29 1.06 3.35 3.69 2.51 6.02.82.06 1.6.35 2.27.85 1.91 1.43 2.31 4.17.89 6.09l-4.92 6.59c-.14.69-.37 1.38-.68 2.09-.14.72-.5 2.28-1.18 3.51l-.61 1.09c-.25.48-1.14 2.03-2.98 3.23l.73 6.11c.13 1.12-.5 2.18-1.54 2.61-.27.11-1.71.65-3.99.65-.52 0-1.05-.03-1.58-.09-1.09 1.16-2.58 2.46-4.59 3.32-1.81.83-3.93 1.28-6.07 1.28-.53 0-1.06-.03-1.58-.09-2.06-.23-4.1-.77-6.07-1.59-3.44-1.46-6.19-3.34-8.44-5 .17 3.89.81 7.76 1.83 11 .15.49.26.77.35 1.01.08.19.16.4.24.65.36.46.56 1.02.55 1.61-.01.19-.04.39-.08.57l.4 10.1c0 .12 0 .23-.01.35l.8 2.07c.24.62.22 1.31-.05 1.91-.21.47-.55.86-.98 1.12l.19 1.52c.27 2.22.58 4.73.79 7.38l3.42 37.9c2.02 1.13 4.2 2.6 6.51 4.39.18.06.34.15.5.25l5.08 3.34c2.86 1.43 6.06 3.73 5.44 6.61-.62 2.93-4.22 3.47-7.66 3.61-.95.04-1.84.06-2.69.06zm-25.542-17.752c.6.476 1.352 1.46 1.727 3.933.3-2.022.86-3.05 1.38-3.616l-2.61-31.6-.51 31.29zM95.53 131.087h.007c.14-.013.313-.032.512-.065-.23-.104-.45-.212-.67-.324l.14.39zm47.63-112.88c.73 0 1.462.402 2.192 1.278 0 0 10.05 26.54-6.042 47.36 8.122 7.093 12.106 20.888 13.737 33.076.457-.65 1.252-1.07 2.09-1.07.108 0 .218.01.327.02 1.356.19 2.326 1.43 2.143 2.79l-1.604 11.86c.256.16.53.22.804.22.192 0 .383-.03.565-.08.52-1.3 1.04-2.61 1.564-3.91.917-2.4 1.867-4.79 2.752-7.2.03-.07.06-.15.098-.22.442-.93 1.37-1.47 2.335-1.47.38 0 .76.08 1.12.25 1.29.62 1.83 2.16 1.22 3.45-1.11 2.32-2.15 4.68-3.23 7.01-.64 1.47-1.3 2.93-1.95 4.4l.29.1c.63-1.35 1.26-2.71 1.88-4.07 1.06-2.2 2.08-4.42 3.16-6.62.41-.81 1.23-1.29 2.09-1.29.33 0 .66.07.98.22 1.16.54 1.67 1.92 1.13 3.09-1.03 2.21-2.11 4.41-3.17 6.61l-1.77 3.57.27.1 5.32-6.45c.37-.45.9-.68 1.44-.68.39 0 .78.12 1.11.37.82.62.99 1.77.38 2.6l-5.27 7.07c-.07.63-.27 1.41-.72 2.34 0 0-.28 1.85-.96 3.06l-.64 1.14s-.93 2.04-3.43 2.96c.02.13.03.26.03.41l.89 7.44s-1.13.47-3.04.47c-.74 0-1.6-.07-2.56-.27-1.11 1.37-2.56 2.83-4.59 3.7-1.61.74-3.41 1.08-5.08 1.08-.44 0-.88-.02-1.3-.07-1.98-.23-3.79-.75-5.38-1.42-3.18-1.35-5.79-3.11-8.11-4.84-1.25-.96-2.4-1.9-3.46-2.82-.1.12-.23.24-.37.32-.03 1.3-.04 2.6.02 3.97.12 4.61.88 8.98 1.97 12.44.38 1.28.61 1.45.76 2.45h.15l.43 10.84-.84.5.04.37.74-.28 1.02 2.65-1.4.54c.03.26.06.53.1.8.33 2.89.82 6.23 1.1 9.88.33 3.64.68 7.52 1.03 11.4l2.5 27.87c1.74.88 4.33 2.42 7.68 5.06l.33.11 5.2 3.43s10.28 5.09-1.06 5.56c-.91.04-1.77.06-2.58.06-9.34 0-12.78-2.38-18.21-4.66l.83 4.25-3.66-.24s-1.41-11.58.71-12.76l.02-.01c.14-.19.31-.39.49-.59l-2.23-27.03-.92-11.27c-.2-2.93-.54-5.7-.83-8.19l-1.16.45-1.02-2.65.15-.05-.14-.41-.25.74.02.08-.38 1.16-.04.41-.56 1.23-.09-.31-.74 45.56c.31.3.55.59.76.88l.02.01c2.13 1.19.71 12.76.71 12.76l-3.66.24.83-4.25c-5.43 2.29-8.87 4.67-18.21 4.67-.81 0-1.67-.01-2.58-.05-11.34-.47-1.06-5.56-1.06-5.56l5.2-3.42.32-.1c3.2-2.51 5.69-4.03 7.43-4.92l1.19-49.44-2.46-.92.99-2.66 1.55.58.01-.27-1.43-.74.8-10.9.72-.02.35-.33h10.61l-2.85-.05-7.59-.11-.17.16h-.85c.15-1 .39-1.18.76-2.45 1.1-3.46 1.86-7.59 1.97-12.2.05-1.28.06-2.56.03-3.81-.02-.05-.05-.1-.07-.15-.86.74-1.78 1.49-2.77 2.24-2.31 1.73-4.92 3.5-8.11 4.85-1.59.67-3.39 1.19-5.37 1.42-.42.05-.85.07-1.3.07-1.66 0-3.46-.33-5.08-1.07-2.1-.91-3.59-2.45-4.72-3.86-.96.32-1.77.43-2.41.43-1.35 0-2.02-.47-2.02-.47l.88-7.44c.08.12.19.21.3.3l-.09-.38v-.01c-3.42-.59-4.65-3.28-4.65-3.28l-.64-1.13c-.67-1.21-.96-3.05-.96-3.05-.45-.93-.64-1.71-.72-2.34l-5.27-7.07c-.61-.83-.44-1.98.38-2.6.33-.25.72-.37 1.11-.37.54 0 1.07.24 1.44.68l5.32 6.46.26-.1c-.59-1.19-1.18-2.39-1.77-3.57-1.06-2.21-2.14-4.4-3.17-6.62-.54-1.17-.04-2.55 1.13-3.09.31-.15.65-.22.98-.22.86 0 1.68.48 2.08 1.3 1.07 2.19 2.1 4.41 3.15 6.61.62 1.36 1.25 2.72 1.88 4.07L83 116l-1.95-4.39c-1.08-2.33-2.12-4.684-3.236-7.01-.61-1.283-.07-2.83 1.22-3.444.36-.17.74-.25 1.11-.25.97 0 1.9.54 2.34 1.47.034.07.07.15.09.224.887 2.41 1.837 4.802 2.75 7.21.53 1.3 1.047 2.61 1.568 3.912.19.05.38.08.57.08.28 0 .55-.07.8-.22l-1.6-11.86c-.18-1.35.79-2.59 2.15-2.772.1-.02.21-.02.316-.02.81 0 1.58.396 2.043 1.01 1.66-12.313 5.72-26.21 14.02-33.21-15.83-20.8-5.86-47.07-5.86-47.07.73-.88 1.47-1.282 2.2-1.282 6.43 0 12.62 31.08 14.93 44.03.7-.04 1.41-.14 2.14-.14.82 0 1.67.13 2.54.66h2.08c.96-.52 1.88-.67 2.78-.67.81 0 1.6.12 2.36.17 2.31-12.94 8.51-44.17 14.94-44.17m-4.12 111.54c.39-1.16.71-2.86.98-3.86h-5.84c1.41 1 3.06 2.575 4.87 3.864m-33.86-.07c1.78-1.27 3.4-2.8 4.78-3.8h-5.93c.34 1 .72 2.65 1.15 3.79m-11.37-2.85c-.04 0-.07-.003-.11-.004-.64.64-1.37 1.14-2.1 1.51.02.1.05.2.07.3l.25-.14 1.42 3.895-.1.1c.29.36.55.68.85.79.32.15.71.31 1.34.31.09 0 .18 0 .27-.01.79-.066 1.77-.25 2.81-.65 1.51-.55 3.07-1.397 4.57-2.34-2.59-.475-6.42-1.53-9.18-3.84l-.06.07h-.01m54.89 6.764c.59 0 .96-.134 1.27-.27-.32-.29-.64-.59-.97-.92l1.42-3.9s.72-.15 1.81-.33c-.63-.35-1.24-.79-1.79-1.34-.04 0-.07.01-.11.01h-.01l-.05-.06c-2.57 2.27-6.09 3.5-8.68 4.14 1.34.81 2.72 1.54 4.05 2.03 1.04.39 2.01.58 2.8.65.1.002.19.01.27.01m-32.92 3.47l-.04-.01.04.01m17.44 15.77c.03.02.06.03.07.04h-.07v-.04m.12.04s0 .01-.01.01-.02-.006-.03-.01h.04m9.8-139.677c-5.74 0-9.61 5.85-13.83 20.88-2.14 7.65-3.96 16.31-5.27 23.25-.69.11-1.35.28-1.98.52-.51-.19-1.04-.34-1.58-.45-1.31-6.93-3.13-15.6-5.29-23.27-4.21-14.97-8.08-20.8-13.82-20.8-1.58 0-3.91.53-6.04 3.08-.35.43-.63.91-.83 1.43-.43 1.12-9.7 26.27 4.05 48.24-6.57 7.55-9.95 18.53-11.7 28.1-1.45.43-2.7 1.28-3.63 2.39-1-.47-2.1-.73-3.23-.73-1.14 0-2.23.25-3.26.73-1.31.62-2.35 1.57-3.09 2.7-.44.11-.86.266-1.28.46-2.63 1.22-4.19 3.81-4.25 6.53-.34.17-.67.37-.98.61-3.02 2.26-3.65 6.56-1.41 9.58l4.61 6.18c.15.58.35 1.17.6 1.75.2.98.62 2.6 1.4 3.99l.57 1.005c.65 1.31 1.82 2.79 3.5 3.96l-.49 3.94c-.22 1.84.59 3.65 2.11 4.7.59.41 2.24 1.356 4.87 1.356.2 0 .39 0 .59-.02 1.17 1.1 2.65 2.21 4.52 3.02 2.18.98 4.63 1.51 7.11 1.51.62 0 1.25-.03 1.85-.1 2.29-.26 4.56-.85 6.75-1.77 1.2-.51 2.33-1.07 3.38-1.65-.29 1.6-.66 3.14-1.12 4.59l-.03.11c-.1.33-.17.52-.27.76-.13.33-.28.73-.42 1.27-.27.55-.44 1.17-.49 1.81l-.76 10.32-.86 2.3c-.46 1.25-.41 2.62.14 3.83.42.91 1.09 1.67 1.93 2.18l-1.04 43.16c-1.58.98-3.25 2.14-4.97 3.46-.21.1-.4.21-.59.33l-4.96 3.26c-5.08 2.59-7.38 5.8-6.64 9.3 1.11 5.22 7.57 5.49 10 5.59.96.04 1.9.06 2.79.06 6.15 0 10.19-.97 13.54-2.21.03.04.06.07.1.11.95 1.08 2.32 1.7 3.75 1.7.11 0 .22 0 .33-.01l3.67-.24c.89-.06 1.73-.35 2.43-.82.71.47 1.54.76 2.44.82l3.66.24c.11.01.22.01.33.01 1.43 0 2.8-.61 3.75-1.69.04-.03.07-.07.1-.11 3.35 1.25 7.39 2.22 13.54 2.22.89 0 1.83-.02 2.79-.06 2.43-.1 8.89-.37 10-5.59.74-3.5-1.55-6.71-6.64-9.3l-4.96-3.26c-.19-.13-.39-.24-.6-.34-1.88-1.45-3.69-2.7-5.41-3.73l-2.28-25.25-1.02-11.36c-.21-2.69-.52-5.22-.8-7.46l-.03-.27c.25-.32.47-.67.63-1.05.54-1.21.57-2.59.1-3.83l-.63-1.61v-.01l-.39-9.79c.04-.23.06-.47.07-.71.03-1.03-.26-2.03-.81-2.88l-.14-.35c-.09-.24-.16-.43-.26-.76l-.03-.1c-.51-1.59-.91-3.36-1.21-5.2 1.35.8 2.83 1.57 4.45 2.26 2.21.93 4.48 1.52 6.77 1.78.61.07 1.24.11 1.86.11 2.48 0 4.94-.52 7.11-1.5 1.88-.82 3.36-1.93 4.51-3.02.21.01.41.01.62.01 2.68 0 4.46-.64 4.94-.84 2.08-.85 3.33-2.98 3.06-5.22l-.56-4.69c1.43-1.24 2.21-2.55 2.53-3.17l.58-1.04c.79-1.41 1.21-3.02 1.41-4.01.25-.58.45-1.16.6-1.75l4.6-6.17c2.25-3.04 1.62-7.33-1.39-9.59-.31-.23-.64-.44-.98-.61-.05-2.71-1.61-5.3-4.23-6.52-.43-.19-.86-.35-1.3-.46-.74-1.13-1.78-2.08-3.08-2.7-1.04-.49-2.13-.74-3.27-.74-1.13 0-2.23.26-3.22.72-.94-1.13-2.22-1.99-3.71-2.42-1.72-9.43-5.03-20.26-11.41-27.81 14.04-22.04 4.68-47.48 4.25-48.61-.2-.52-.48-1-.83-1.43-2.12-2.54-4.45-3.07-6.03-3.07zm-33.38 142.16c-1.38 0-2.5-1.12-2.5-2.5s1.12-2.5 2.5-2.5h.26c1.38 0 2.5 1.12 2.5 2.5s-1.12 2.5-2.5 2.5h-.26zm.26-2.5h-.26.26m0-4.5h-.26c-2.76 0-5 2.24-5 5s2.24 5 5 5h.25c2.76 0 5-2.24 5-5s-2.24-5-5-5z" fill="#333"/><path fill="#ED1E79" d="M150.415 128.49s13.018-2.782 12.94 1.952c-.067 4.128-6.868 3.61-6.868 3.61s-4.772-1.308-4.832-1.483c-.057-.18-1.298-3.85-1.298-3.85"/><path fill="#333" d="M145.96 222.61l5.2 3.424s10.28 5.087-1.063 5.557c-11.344.48-14.89-2.12-20.797-4.6l.827 4.26-3.665-.24s-1.417-11.58.71-12.76c2.128-1.18 18.788 4.37 18.788 4.37zm-44.522 0l-5.2 3.424s-10.28 5.087 1.063 5.557c11.35.48 14.9-2.12 20.8-4.6l-.83 4.26 3.67-.24s1.42-11.58-.71-12.76c-2.13-1.18-18.79 4.37-18.79 4.37z"/><path fill="#1A1A1A" d="M97.773 83.246l1.773 42.135h44.67l1.237-28.66-6.38-23.92z"/><path fill="#fdb" d="M112.32 129.973s-3-11.592 7.432-7.592h4.87c8.625-4 6.144 7.66 6.144 7.66"/><path fill="#fdb" d="M121.052 126.085s-.513.564-1.408 1.56c-.895.956-2.18 2.296-3.804 3.838-1.628 1.54-3.59 3.29-5.883 5.034-2.317 1.73-4.922 3.5-8.11 4.85-1.592.666-3.393 1.193-5.377 1.418-1.99.223-4.334-.068-6.38-1.004-2.125-.91-3.615-2.47-4.75-3.89-1.06-1.46-1.724-2.85-2.264-4.13-.426-1.24-.857-2.41-1.048-3.39-.24-.99-.452-1.86-.536-2.54l-.34-2.18c-.424-2.71 1.437-5.26 4.153-5.68 2.718-.42 5.265 1.44 5.688 4.16.01.06.015.11.023.17l.04.34.196 1.69c.042.56.177 1.16.313 1.86.103.73.357 1.4.566 2.19.28.69.58 1.39.93 1.94.38.46.68.88 1.04 1.02.36.17.82.36 1.62.3.79-.06 1.76-.25 2.8-.65 2.09-.77 4.3-2.09 6.3-3.47 2-1.4 3.82-2.89 5.33-4.22 1.52-1.33 2.74-2.5 3.58-3.33.8-.82 1.26-1.28 1.26-1.28l.13-.13c1.58-1.61 4.17-1.64 5.78-.06 1.58 1.54 1.64 4.05.18 5.67zm11.1 32.595l1.16 9.612c.33 2.89.815 6.23 1.097 9.88.32 3.636.68 7.515 1.02 11.393l2.8 31.037-10.26.71-2.53-30.7-.93-11.27c-.25-3.595-.71-6.97-1.02-9.853-.65-5.78-1.09-9.63-1.09-9.63l9.74-1.19zm-11.752.806l-1 61.278-10.285-.208 1.476-61.262zm8.777-38.868s.46.468 1.26 1.288c.833.83 2.056 2.002 3.573 3.332s3.332 2.82 5.33 4.22c1.996 1.38 4.207 2.704 6.296 3.473 1.04.4 2.013.59 2.802.65.797.06 1.253-.13 1.612-.3.364-.13.66-.55 1.036-1.01.346-.54.653-1.24.925-1.94.21-.79.47-1.45.57-2.18.14-.7.27-1.29.32-1.85l.2-1.68.04-.31c.32-2.73 2.8-4.68 5.53-4.36 2.73.32 4.69 2.8 4.37 5.53l-.02.19-.34 2.19c-.08.69-.29 1.55-.53 2.55-.19.98-.62 2.15-1.05 3.39-.54 1.28-1.2 2.67-2.26 4.13-1.13 1.42-2.62 2.98-4.75 3.9-2.04.94-4.39 1.23-6.38 1.01-1.98-.23-3.78-.75-5.38-1.42-3.18-1.35-5.79-3.12-8.1-4.85-2.3-1.74-4.26-3.49-5.88-5.03-1.63-1.54-2.91-2.88-3.8-3.84-.89-1-1.41-1.56-1.41-1.56-1.52-1.67-1.38-4.26.29-5.77 1.63-1.47 4.13-1.39 5.65.17l.14.14z"/><path fill="#F4D1B0" d="M123.62 121.225c0 2.35-.5 3.312-2.5 3.312-2.003 0-2.5-.962-2.5-3.312v-8.507c0-2.35.497-4.255 2.5-4.255 2 0 2.5 1.905 2.5 4.255v8.507z"/><path fill="#D3BD8D" d="M139.055 92.855c0 4.125.6 7.47 3.494 7.47s6.98-.772 6.98-7.47c0-4.13-2.35-7.473-5.24-7.473-2.9 0-5.25 3.344-5.25 7.473z"/><path fill="#C69C6D" d="M139.924 92.828c.014-1.16.25-2.476.82-3.595.284-.568.646-1.125 1.16-1.604.514-.47 1.24-.87 2.086-.89.322.03.255 0 .56.06.24.05.448.12.608.2.36.15.65.38.916.61.518.48.66 1.03.947 1.6.57 1.14.6 2.38.6 3.62v.14c0 .81-.42 1.47-1.23 1.48-.81.01-1.36-.64-1.37-1.45 0-.06.06-.12.07-.18.09-.82.05-1.71-.22-2.46-.24-.79-.73-1.27-.87-1.33-.08-.05-.31-.04-.61.16-.28.19.42.52.18.9-.49.79.08 1.67.08 2.74v.04c0 .47-1.46.82-1.94.77-.45-.05-1.76-.43-1.76-.87z"/><path fill="#D3BD8D" d="M104.394 92.855c0 4.125-.602 7.47-3.498 7.47-2.893 0-6.985-.772-6.985-7.47 0-4.13 2.35-7.473 5.24-7.473 2.9 0 5.25 3.344 5.25 7.473z"/><path fill="#C69C6D" d="M103.524 92.828c-.014-1.16-.252-2.476-.818-3.595-.287-.568-.65-1.125-1.165-1.604-.51-.47-1.23-.87-2.08-.89-.32.03-.25 0-.55.06-.24.05-.45.12-.61.2-.36.15-.65.38-.92.61-.51.48-.76 1.03-1.05 1.6-.56 1.14-.7 2.38-.7 3.62v.14c0 .81.53 1.47 1.33 1.48.82.01 1.42-.64 1.44-1.45 0-.06-.03-.12-.04-.18-.09-.82-.04-1.71.23-2.46.25-.79.75-1.27.89-1.33.09-.05.33-.04.62.16.29.19.58.52.82.9.5.79.79 1.67.91 2.74v.04c.05.47.47.82.95.77.45-.05.78-.43.78-.87z"/><path fill="#fdb" d="M142.342 100.232c0 14.688-14.106 15.956-20.402 15.956-7.163 0-20.4-1.268-20.4-15.956 0-14.685-1.522-33.536 20.4-33.536 22.142 0 20.402 18.85 20.402 33.536z"/><path fill="#333" d="M119.695 106.61c-.6 0-1.158-.386-1.352-.987-.238-.747.174-1.544.923-1.782 1.505-.47 1.908-1.14 1.91-1.42l-.005-10.97c0-.78.44-1.42 1.23-1.42s1.23.64 1.23 1.42v10.85s.54 2.91-3.69 4.25c-.14.05-.09.07-.23.07z"/><circle fill="#D4145A" cx="121.001" cy="110.979" r="3.329"/><path fill="#F5F5F5" d="M118.165 92.833c0 3.353-2.718 6.074-6.073 6.074-3.356 0-6.076-2.72-6.076-6.074 0-3.357 2.72-6.072 6.076-6.072 3.355 0 6.073 2.72 6.073 6.08z"/><path fill="#333" d="M116.363 92.688c0 2.33-1.883 4.217-4.215 4.217-2.33 0-4.217-1.89-4.217-4.217s1.89-4.216 4.22-4.216 4.22 1.888 4.22 4.216z"/><path fill="#F5F5F5" d="M139.005 92.833c0 3.353-2.722 6.074-6.075 6.074-3.356 0-6.076-2.72-6.076-6.074 0-3.357 2.72-6.072 6.076-6.072 3.353 0 6.075 2.72 6.075 6.08z"/><path fill="#333" d="M137.2 92.688c0 2.33-1.883 4.217-4.216 4.217-2.328 0-4.22-1.89-4.22-4.217s1.892-4.216 4.22-4.216c2.333 0 4.216 1.888 4.216 4.216zm-35.302-6.598s-1.734 33.295 4.053 44.873c0 0-12.44-.642-15.05-8.458-2.6-7.81-.57-65.124 30.1-60.124h2.08c30.67-5 32.7 52.32 30.1 60.13-2.6 7.82-15.05 9.04-15.05 9.04 5.79-11.58 1.98-47.55 1.98-47.55l-12.45-15.97-12.15.5-13.61 17.56zm19.282 25.41c-4.124 0-7.357-2.138-7.357-4.862 0-.586.477-1.065 1.065-1.065.586 0 1.063.48 1.063 1.065 0 1.293 2.15 2.734 5.23 2.734 3.09 0 5.23-1.44 5.23-2.734 0-.586.48-1.065 1.07-1.065.59 0 1.06.48 1.06 1.065 0 2.724-3.23 4.862-7.35 4.862zm.11-40.67s-12.408 19.556-26.117 18.61l14.54-20.135 12.226-2.79-.65 4.314zm.33-.294s11.706 21.15 25.414 20.207l-13.008-21.438-12.407-2.61v3.84z"/><path fill="#fdb" d="M168.865 118.605s.855 1.46-.504 4.285c0 0-.28 1.843-.95 3.054l-.64 1.137s-2.56 5.64-10.64 2.4c0 0-7.67-.87-7.6-7.49l4.99-8.76 15.35 5.39zm-15.925 5.615s-.358 2.657-2.627 2.606c0 0-4.206-4.616-1.94-7.523"/><path fill="#fdb" d="M160.108 118.603c1.005-2.372 2.072-4.708 3.11-7.056 1.08-2.333 2.12-4.686 3.234-7.008.613-1.29.067-2.84-1.22-3.45-1.285-.61-2.833-.07-3.446 1.21-.04.07-.068.15-.098.22-.885 2.41-1.835 4.8-2.752 7.2-.962 2.38-1.89 4.78-2.884 7.15-.47 1.12.06 2.41 1.18 2.88 1.12.47 2.406-.05 2.876-1.17zm-4.658-1.01l2.157-15.94c.184-1.354-.786-2.597-2.143-2.784-1.352-.18-2.71.75-2.81 2.12l-.004.08-1.596 16c-.122 1.2.77 2.29 1.982 2.41 1.185.12 2.257-.73 2.415-1.89zm3.22-4.587s-2.636 2.084-3.55-.79l.476 4.7 3.073-3.91zm5.673 7.532c1.12-2.177 2.185-4.382 3.27-6.563 1.056-2.207 2.14-4.402 3.17-6.614.54-1.16.033-2.54-1.13-3.08-1.152-.53-2.51-.05-3.07 1.08-1.073 2.2-2.1 4.42-3.15 6.62-1.022 2.23-2.07 4.44-3.057 6.67-.493 1.12.008 2.41 1.12 2.91 1.07.48 2.318.03 2.847-1zm1.55 4.286l8.465-11.346c.612-.827.443-1.986-.376-2.6-.797-.595-1.92-.454-2.55.307l-9.002 10.923c-.77.935-.64 2.323.302 3.095.94.775 2.32.644 3.1-.295.02-.026.04-.06.06-.084z"/><path fill="#E2AB74" d="M153.05 119.906"/><path fill="#fdb" d="M152.848 120.878c-.41-1.034-.828-1.873-1.315-2.765-.485-.876-1.025-1.73-1.628-2.555-1.21-1.64-2.696-3.225-4.703-4.367-1.117-.63-2.78.21-3.415 1.32-.632 1.12-.5 2.99.616 3.62.014.01.04.03.054.03 1.186.66 2.59 1.29 3.565 2.57.486.64 1.068 1.11 1.483 1.82.404.7.875 1.4 1.147 2.05l.064.02c.474 1.13 1.788 1.63 2.913 1.16 1.11-.47 1.66-1.76 1.21-2.88z"/><path fill="#D4145A" d="M143.7 115.596s.308-.96.982-1.086c0 0-.687-1.185-1.534-1.028-.848.154-.918.934-.918.934s.46.744 1.47 1.18z"/><path fill="#333" d="M127.787 81.724c-.078.013.943-.233 2.16-.274.624.017 1.342-.022 2.094.086.76.053 1.55.182 2.32.365.78.13 1.53.38 2.23.61.71.2 1.34.43 1.87.68l1.77.76-1.88-.33c-.55-.11-1.21-.19-1.92-.22-.7-.05-1.44-.12-2.19-.07-.74 0-1.47.06-2.14.17-.68.06-1.28.25-1.79.35-1.04.31-1.47.55-1.54.58-.74.27-1.55-.12-1.81-.85-.26-.74.12-1.55.86-1.81zm-11.895 2.483c-.052-.01-.696-.257-1.91-.517-1.196-.23-2.843-.477-4.516-.47-.838-.02-1.68-.012-2.466.08-.79.07-1.54.105-2.16.25l-2.11.393 1.996-.82c.595-.276 1.326-.468 2.11-.706.782-.262 1.636-.45 2.502-.607 1.733-.37 3.518-.477 4.878-.5 1.34-.003 2.364.145 2.312.134.765.177 1.238.94 1.063 1.7-.17.763-.93 1.238-1.69 1.063z"/><path fill="#DDB99B" d="M121.347 126.586l-.93 4.123 2.305.13z"/><path fill="#fdb" d="M75.274 118.605s-.855 1.46.504 4.285c0 0 .286 1.843.96 3.054l.638 1.137s2.56 5.64 10.64 2.4c0 0 7.67-.87 7.597-7.49l-4.986-8.76-15.353 5.39zm15.928 5.615s.357 2.657 2.625 2.606c0 0 4.207-4.616 1.938-7.523"/><path fill="#fdb" d="M84.033 118.603c-1.005-2.372-2.073-4.708-3.11-7.056-1.08-2.333-2.122-4.686-3.236-7.008-.612-1.29-.067-2.84 1.22-3.45 1.286-.61 2.835-.07 3.447 1.21.038.07.07.15.096.22.886 2.41 1.836 4.8 2.752 7.2.96 2.38 1.89 4.78 2.884 7.15.47 1.12-.058 2.41-1.177 2.88-1.12.47-2.41-.05-2.88-1.17zm4.657-1.01l-2.157-15.94c-.183-1.354.788-2.597 2.143-2.784 1.353-.18 2.71.75 2.808 2.12 0 .02.003.05.005.08l1.59 16c.12 1.2-.78 2.29-1.99 2.41-1.18.12-2.26-.73-2.41-1.89zm-3.218-4.587s2.634 2.084 3.548-.79l-.473 4.7-3.075-3.91zm-5.674 7.532c-1.12-2.177-2.184-4.382-3.27-6.563-1.054-2.207-2.14-4.402-3.17-6.614-.54-1.16-.032-2.54 1.13-3.08 1.152-.53 2.51-.05 3.067 1.08 1.075 2.2 2.103 4.42 3.153 6.62 1.02 2.23 2.068 4.44 3.057 6.67.494 1.12-.008 2.41-1.12 2.91-1.07.48-2.318.03-2.847-1zm-1.548 4.286l-8.467-11.346c-.612-.827-.443-1.986.376-2.6.79-.595 1.91-.454 2.55.307l9 10.923c.77.935.64 2.323-.31 3.095-.94.775-2.32.644-3.1-.295-.02-.026-.04-.06-.06-.084z"/><path fill="#E2AB74" d="M91.092 119.906"/><path fill="#fdb" d="M91.295 120.878c.41-1.034.827-1.873 1.313-2.765.485-.876 1.026-1.73 1.63-2.555 1.21-1.64 2.694-3.225 4.703-4.367 1.12-.63 2.78.21 3.42 1.32.63 1.12.5 2.99-.61 3.62-.01.01-.04.03-.05.03-1.18.66-2.59 1.29-3.56 2.57-.48.64-1.06 1.11-1.48 1.82-.4.7-.87 1.4-1.14 2.05l-.06.02c-.47 1.13-1.78 1.63-2.91 1.16-1.11-.47-1.66-1.76-1.21-2.88z"/><path fill="#D4145A" d="M100.442 115.596s-.31-.96-.983-1.086c0 0 .68-1.185 1.53-1.028.85.154.92.934.92.934s-.46.744-1.47 1.18z"/><path fill="#333" d="M132.33 150.185c-1.094-3.455-1.855-7.7-1.97-12.31-.067-1.645-.05-3.09.008-4.68-.5 2.24-2.412 4.01-4.706 4.01-1.85 0-3.44-1.054-4.254-2.65-.815 1.597-2.403 2.72-4.253 2.72-1.917 0-3.558-1.166-4.345-2.858.024 1.257.02 2.534-.03 3.817-.116 4.608-.878 8.493-1.972 11.947-1.01 3.46-1.01 2.2-1.01 2.2h23.546s0 1.26-1.013-2.19zm-10.82 2.195l-11.683.82-.8 10.91 11.82 6.21.662-1.86.66 1.994 11.49-6.733-.44-11.34z"/><path fill="#FF7BAC" d="M108.91 164.563l12.368 4.608-.99 2.66-12.37-4.6zm24.695-.263l1.018 2.653-12.097 4.645-1.018-2.652z"/><path fill="#333" d="M124.798 125.96l-3.75-3.72 3.717-3.67zm-7.18-.034l3.72-3.684-3.754-3.7zm6.002-3c0 .756-.936 1.37-2.5 1.37-1.565 0-2.5-.614-2.5-1.37v-1.275c0-.75.935-1.37 2.5-1.37 1.564 0 2.5.62 2.5 1.37v1.28z"/><path fill="#fdb" d="M112.073 216.348s-4.253 1.06-12.054 7.56c0 0-4.26 4.02 6.38 2.602 0 0 20.2-2.245 12.99-9.216m15.93-.946s4.25 1.06 12.05 7.56c0 0 4.25 4.02-6.38 2.602 0 0-20.21-2.245-13-9.216"/><path fill="#FF7BAC" d="M99.192 19.485s-11.698 30.842 10.28 52.112l7.8-3.9s-9.217-58.845-18.08-48.212z"/><path fill="#ED1E79" d="M101.674 32.07s-4.786 20.74 10.457 36.69l2.31-1.24s-9.04-47.503-12.76-35.45z"/><path fill="#FF7BAC" d="M145.353 19.485s11.698 30.842-10.278 52.112l-7.8-3.9s9.215-58.845 18.078-48.212z"/><path fill="#ED1E79" d="M142.872 32.07s4.785 20.74-10.457 36.69l-2.305-1.24s9.04-47.503 12.762-35.45z"/><path fill="#FF7BAC" d="M81.82 130.442l-.885 7.442s4.077 2.837 12.407-5.494l-1.42-3.9c.002 0-8.15 4.788-10.1 1.952zm81.535 0l.887 7.442s-6.914 2.837-15.244-5.494l1.417-3.9s10.99 4.788 12.94 1.952z"/><path fill="#ED1E79" d="M99.905 82.943c-.153 0-.308-.024-.46-.077-.74-.254-1.137-1.057-.884-1.802.06-.146 5.24-14.734 22.53-15.78.85-.07 1.46.546 1.5 1.328.05.78-.55 1.454-1.33 1.5-15.35.934-19.83 13.348-20.01 13.875-.2.584-.75.956-1.34.956zm43.95 0c-.587 0-1.14-.372-1.34-.957-.184-.527-4.66-12.94-20.013-13.875-.78-.04-1.376-.72-1.33-1.5.044-.78.638-1.4 1.502-1.32 17.292 1.05 22.472 15.64 22.522 15.78.252.75-.144 1.55-.882 1.81-.152.06-.306.08-.46.08z"/><path fill="#DDB99B" d="M113.683 131.285c-1.686-.576-.49-5.098-.49-5.098s-2.834 7.18-.353 7.887m17.46-2.48c.62-1.24.043-4.875.043-4.875s2.26 6.64-.222 7.35"/><path fill="#333" d="M125.662 127.13c-1.85 0-3.44 1.103-4.254 2.7-.815-1.597-2.403-2.7-4.253-2.7-2.678 0-4.845 2.28-4.845 5.084 0 2.806 2.167 5.082 4.845 5.082 1.85 0 3.438-1.1 4.253-2.698.815 1.598 2.405 2.698 4.254 2.698 2.675 0 4.843-2.276 4.843-5.082 0-2.804-2.168-5.083-4.843-5.083z"/><path fill="#fdb" d="M116.208 135.774c-.172 0-.368-.088-.512-.23-.11-.14-.197-.31-.197-.507 0-.174.08-.37.19-.482.25-.285.77-.285 1.02 0 .11.112.2.31.2.482 0 .196-.09.367-.2.507-.14.143-.34.23-.51.23zm.424 15.85c-.397-.054-.65-.426-.596-.793.06-.39.427-.65.794-.59.397.06.655.43.595.8-.055.37-.34.63-.682.63-.053 0-.08-.03-.11-.03zm.653-5.275c-.397 0-.68-.41-.653-.78.03-.4.37-.69.767-.66.36 0 .68.35.65.74-.03.39-.34.69-.71.69h-.06zm-.595-5.89c-.028-.4.254-.83.65-.83.4-.06.74.39.767.79.028.37-.285.87-.682.87h-.027c-.368 0-.68-.47-.708-.84zm-.938 16.46c-.167 0-.367-.06-.48-.2-.142-.15-.228-.31-.228-.51 0-.17.086-.34.227-.48.26-.29.74-.29 1 0 .14.14.2.31.2.48 0 .2-.06.36-.2.51-.14.14-.31.19-.51.19zm11.628-21.16c-.198 0-.37-.09-.51-.23-.114-.11-.2-.31-.2-.51 0-.18.086-.37.2-.48.254-.26.736-.29 1.022 0 .112.14.197.31.197.48 0 .19-.09.37-.23.51-.12.14-.31.23-.48.23zM125.62 151c-.054-.397.227-.82.6-.876.396-.06.764.313.818.68.06.397-.223.908-.594.908h-.113c-.34 0-.65-.37-.71-.71zm-.536-5.403c-.027-.395.283-.786.65-.786.4-.02.74.36.767.73.03.4-.28.81-.68.81h-.02c-.39 0-.68-.38-.71-.75zm.735-4.3c-.4 0-.69-.636-.63-1.003.02-.396.37-.802.76-.74.4.025.68.547.62.94-.03.37-.34.803-.71.803h-.06zm1.44 15.463c-.17 0-.37-.085-.49-.2-.14-.14-.2-.312-.2-.51 0-.17.05-.37.19-.513.25-.255.77-.255 1.02.028.11.114.19.315.19.485 0 .197-.09.368-.23.51-.12.115-.31.2-.51.2z"/><path fill="#333" d="M111.067 152.597l-1.24 1.33 1.24 1.727 21.978-1.152-1.15-1.95z"/></svg>