<svg xmlns="http://www.w3.org/2000/svg" width="256" height="256" viewBox="0 0 256 256"><path d="M127.676 226.562c-21.315 0-37.71-3.712-49.57-11.28-.044.748-.297 1.484-.754 2.115-.76 1.05-1.97 1.655-3.24 1.655-.192 0-.386-.014-.58-.042-1.802-.264-44.236-6.785-53.633-34.976-5.89-17.654-4.87-82.204 23.69-121.824 15.9-22.077 37.51-33.268 64.21-33.268 5.45 0 11.18.482 17.04 1.434h6.3c5.85-.953 11.59-1.435 17.04-1.435 26.7 0 48.3 11.2 64.21 33.27 28.56 39.63 29.57 104.17 23.69 121.82-9.4 28.19-51.84 34.69-53.64 34.95-.19.03-.39.05-.58.05-1.27 0-2.48-.6-3.24-1.65-.69-.95-.92-2.15-.65-3.27-12.22 8.2-29.26 12.46-50.32 12.46zm20.52-193.615c86.775 0 92.337 125.145 84.108 149.823-8.725 26.178-50.418 32.258-50.418 32.258 2.538-5.077 4.52-10.563 6.06-16.26-14.432 21.438-44.587 23.794-60.27 23.794-17.348 0-45.332-2.225-59.51-22.042 1.656 4.99 3.617 9.875 5.945 14.532 0 0-41.69-6.104-50.41-32.282-8.22-24.68-2.68-149.835 84.11-149.823 5.27 0 10.84.462 16.72 1.434h6.96c5.89-.97 11.45-1.43 16.72-1.43m-40.41-7.57c-14.66 0-28.07 3.1-39.86 9.64-10.52 5.84-19.8 14.16-27.58 24.96-29.8 41.34-30.5 106.61-24.24 125.39 10.16 30.49 54.94 37.35 56.84 37.63.39.06.78.07 1.16.07 2.09 0 4.09-.82 5.58-2.27 4.47 2.41 9.45 4.38 14.91 5.89 9.42 2.61 20.24 3.88 33.08 3.88 19.45 0 35.66-3.55 48.07-10.4 1.53 1.83 3.78 2.87 6.14 2.87.38 0 .77-.03 1.16-.08 1.9-.28 46.69-7.14 56.86-37.64 6.26-18.77 5.56-84.08-24.24-125.42-7.78-10.8-17.06-19.23-27.58-25.07-11.79-6.54-25.2-9.86-39.87-9.86-5.57 0-11.41.49-17.36 1.44h-5.67c-5.95-.95-11.79-1-17.36-1h-.01z" fill="#333"/><path fill="#D3BD8D" d="M185.014 144.393c0 13.83 2.004 25.036 11.7 25.036 9.702 0 23.415-2.6 23.415-25.04 0-13.83-7.86-25.04-17.56-25.04s-17.56 11.21-17.56 25.03z"/><path fill="#C69C6D" d="M187.922 144.3c.04-3.876.842-8.29 2.738-12.04.963-1.908 2.18-3.76 3.902-5.368 1.71-1.57 4.154-2.92 6.986-2.954 1.074.103.855.006 1.865.22.814.168 1.512.41 2.05.682 1.2.527 2.173 1.28 3.07 2.053 1.72 1.607 1.667 3.46 2.626 5.368 1.9 3.85 1.45 7.99 1.45 12.14v.48c0 2.72-.87 4.94-3.58 4.98-2.72.04-4.3-2.14-4.34-4.85 0-.19.33-.41.35-.6.3-2.73.23-5.71-.66-8.22-.83-2.61-2.45-4.25-2.93-4.42-.29-.14-1.04-.12-2.02.54-.95.66-1.91 1.74-2.72 3.01-1.67 2.65-2.64 5.62-3.02 9.2l-.01.14c-.17 1.6-1.6 2.76-3.2 2.59-1.5-.16-2.61-1.44-2.6-2.92z"/><path fill="#D3BD8D" d="M68.887 144.393c0 13.83-2.006 25.036-11.703 25.036s-23.41-2.6-23.41-25.04c0-13.83 7.855-25.04 17.555-25.04 9.69 0 17.55 11.21 17.55 25.03z"/><path fill="#C69C6D" d="M65.977 144.3c-.04-3.876-.84-8.29-2.738-12.04-.97-1.908-2.19-3.76-3.91-5.368-1.71-1.57-4.15-2.92-6.99-2.954-1.08.103-.86.006-1.86.22-.82.168-1.52.41-2.06.682-1.2.527-2.17 1.28-3.07 2.053-1.72 1.607-2.51 3.46-3.47 5.368-1.9 3.85-2.29 7.99-2.29 12.14v.48c0 2.72 1.69 4.94 4.41 4.98 2.71.04 4.72-2.14 4.75-4.85 0-.19-.13-.41-.15-.6-.3-2.73-.13-5.71.77-8.22.82-2.61 2.49-4.25 2.97-4.42.29-.14 1.06-.12 2.04.54.94.66 1.91 1.74 2.73 3.01 1.66 2.65 2.64 5.62 3.02 9.2l.01.14c.17 1.6 1.6 2.76 3.19 2.59 1.49-.16 2.61-1.44 2.6-2.92z"/><path fill="#fdb" d="M196.03 169.116c0 49.197-47.265 53.445-68.355 53.445-23.996 0-68.352-4.24-68.352-53.44s-5.09-112.35 68.352-112.35c74.17 0 68.354 63.15 68.354 112.35z"/><path fill="#F48B73" d="M139.15 205.112c0 6.157-4.99 11.152-11.15 11.152-6.155 0-11.15-4.995-11.15-11.152 0-6.16 4.995-11.154 11.15-11.154 6.16 0 11.15 4.995 11.15 11.154z"/><path fill="#333" d="M125.494 59.688s5.58 60.83-19.633 67.62c0 0-11.63-3.638-37.81-3.638l18.67-58.165 40.97-8.734-2.18 2.92zm-.242.972s16.488 47.986-5.818 65.436c0 0 50.66-.482 72.96-9.207 0-.01-18.423-68.6-67.142-56.23zm-64.715 61.074s-5.813 54.53 13.574 93.318c0 0-41.69-6.104-50.41-32.282-8.72-26.177-1.94-165.39 100.83-148.39h6.96c102.77-17 109.56 122.213 100.83 148.39-8.72 26.178-50.42 32.258-50.42 32.258 19.39-38.783 6.63-101.3 6.63-101.3l-41.68-53.02-40.72 1.916-45.56 59.11zM128 206.2c-13.456 0-23.997-6.865-23.997-15.63 0-1.61 1.303-2.91 2.91-2.91 1.605 0 2.906 1.3 2.906 2.91 0 5.23 8.49 9.816 18.18 9.816s18.18-4.585 18.18-9.817c0-1.61 1.3-2.91 2.9-2.91 1.6 0 2.91 1.3 2.91 2.91 0 8.76-10.54 15.63-24 15.63z"/><path fill="#FF7BAC" d="M45.635 114.76s-.04-.855-.11-2.45c-.04-1.57-.02-4.648.39-7.853.88-6.59 3.156-16.304 9.57-25.982 6.27-9.654 16.127-19.34 28.803-25.86 12.617-6.576 27.63-10.23 42.662-10.385 2.188.073 3.32.033 5.492.2 1.994.106 3.916.278 5.744.51 3.73.434 7.414 1.087 11.025 1.965 7.25 1.677 14.11 4.413 20.42 7.674 12.62 6.6 22.65 16.11 28.82 25.87 6.35 9.72 8.68 19.41 9.54 26 .42 3.34.41 5.97.38 7.75-.06 1.78-.1 2.73-.1 2.73-.12 3.41-3.13 6.08-6.55 5.96-3.21-.12-6.1-2.67-6.1-5.82v-.14s-.02-3.06-1.2-8.14c-1.18-5.07-3.86-12.08-9.27-19.16-5.35-7.09-13.51-14.01-23.72-18.9-5.09-2.46-10.67-4.33-16.49-5.66-2.91-.67-5.87-1.17-8.88-1.48-1.54-.18-3.01-.29-4.41-.35-1.21-.12-3.49-.08-4.69-.13-12.2-.15-24.38 2.56-34.53 7.57C82.29 73.67 73.92 80.4 68.66 87.6c-5.34 7.125-8.14 14.11-9.31 19.18-.57 2.676-.94 4.27-1.11 5.886-.15 1.59-.24 2.44-.24 2.44-.35 3.4-3.39 5.884-6.79 5.53-3.1-.32-5.43-2.875-5.55-5.9z"/><radialGradient id="a" cx="-821.89" cy="-80.914" r="29.998" gradientTransform="matrix(.723 0 0 .723 679.961 234.322)" gradientUnits="userSpaceOnUse"><stop offset="0" stop-color="#FF585D"/><stop offset="1" stop-color="#FF585D" stop-opacity="0"/></radialGradient><circle opacity=".7" fill="url(#a)" cx="85.488" cy="175.798" r="21.697"/><radialGradient id="b" cx="-706.898" cy="-80.914" r="29.998" gradientTransform="matrix(.723 0 0 .723 679.961 234.322)" gradientUnits="userSpaceOnUse"><stop offset="0" stop-color="#FF585D"/><stop offset="1" stop-color="#FF585D" stop-opacity="0"/></radialGradient><circle opacity=".7" fill="url(#b)" cx="168.662" cy="175.798" r="21.697"/><linearGradient id="c" gradientUnits="userSpaceOnUse" x1="1145.111" y1="731.86" x2="1145.111" y2="721.406" gradientTransform="matrix(7.466 0 0 7.466 -8424.73 -5257.445)"><stop offset="0" stop-color="#FF5459"/><stop offset=".789" stop-color="#FF6064" stop-opacity="0"/></linearGradient><path fill="url(#c)" d="M129.62 142.38v33.19s1.04 6.237-7.97 9.01l2.424-9.01-3.232-35.072"/><path fill="#333" d="M122.41 189.353c-1.23 0-2.38-.79-2.77-2.027-.49-1.527.356-3.163 1.892-3.65 8.002-2.55 7.698-7.12 7.678-7.32l-.014-35.23c0-1.607 2.104-2.91 3.712-2.91 1.605 0 3.712 1.303 3.712 2.91v34.902s.325 9.105-12.527 13.188c-.288.09-1.392.137-1.683.137z"/><path fill="#F5F5F5" d="M113.447 144.313c0 11.244-9.105 20.356-20.348 20.356-11.24 0-20.36-9.12-20.36-20.36 0-11.23 9.11-20.33 20.35-20.33 11.24 0 20.34 9.1 20.34 20.33z"/><path fill="#333" d="M107.41 143.84c0 7.804-6.318 14.125-14.12 14.125s-14.132-6.32-14.132-14.125c0-7.8 6.33-14.118 14.133-14.118 7.81 0 14.12 6.318 14.12 14.118z"/><path fill="#F5F5F5" d="M183.256 144.313c0 11.244-9.105 20.356-20.348 20.356-11.244 0-20.355-9.12-20.355-20.36 0-11.23 9.11-20.33 20.355-20.33 11.242 0 20.348 9.1 20.348 20.33z"/><path fill="#333" d="M177.215 143.84c0 7.804-6.313 14.125-14.12 14.125-7.8 0-14.128-6.32-14.128-14.125 0-7.8 6.328-14.118 14.127-14.118 7.808 0 14.12 6.318 14.12 14.118z"/></svg>