<svg xmlns="http://www.w3.org/2000/svg" xmlns:xlink="http://www.w3.org/1999/xlink" width="256" height="256" viewBox="0 0 256 256"><path fill="#333" d="M251.3 168.275c-1.79-3.61-6.65-5.57-8.69-6.25-.59-.2-1.21-.3-1.84-.3-.19 0-.375.01-.56.02-.71-.35-1.485-.73-2.31-1.09l-.06-.03c-.45-.19-.91-.39-1.38-.6-.96-.42-1.945-.85-2.99-1.25l-.15-.06c1.97-1.74 3.07-4.42 3.07-7.79 0-1.22-.18-2.4-.52-3.49 4.47-1.51 7.484-5.42 7.89-5.96 1.36-1.835 1.31-4.36-.13-6.13-.98-1.2-2.42-1.85-3.89-1.85-.716 0-1.42.146-2.09.46-.23.1-.43.187-.61.26-.71-1.34-1.773-3.26-3.81-4.83-1.815-1.39-3.726-2.1-5.69-2.1-.54 0-1.07.05-1.59.15-2.57-1.64-5.686-2.49-9.16-2.49-1.31 0-2.69.12-4.13.36-1.44-.24-2.82-.36-4.136-.36-3.5 0-6.62.86-9.19 2.51-.55-.12-1.1-.18-1.67-.18-1.97 0-3.88.7-5.687 2.1-2.05 1.57-3.11 3.49-3.82 4.83-.18-.07-.38-.16-.6-.26-.67-.31-1.38-.46-2.09-.46-.93 0-1.84.26-2.64.75-.57-1.15-1.17-2.28-1.81-3.36-2.73-4.85-5.73-8.87-7.88-11.47.07-.23.14-.48.19-.74.37-1.79-.04-3.6-1.14-4.95l-.07-.09c3.33-1.53 6.72-4.09 8.14-8.36 1.85-5.55 1.43-21.29-5.99-31.58-4.53-6.3-11.02-9.62-18.74-9.62-.94 0-1.91.05-2.89.15-.43-.04-.8-.05-1.14-.06-.23-.01-.48-.02-.78-.04-.11-.01-.21-.01-.32-.01h-.2c-.53.02-1.06.05-1.62.09-.95-.09-1.89-.14-2.81-.14-7.73 0-14.21 3.33-18.75 9.62-.36.51-.71 1.03-1.04 1.56-1.09-4.25-4.15-8.08-8.99-9.25-3.05-4.27-10.36-6-14.86-6.68-.13-.02-.25-.03-.38-.04-1.11-.08-2.21-.13-3.28-.13l.08-.036c-21.04 0-27.05 15.52-27.29 16.18-.69 1.84-.23 3.9 1.15 5.27.12 1.74.55 3.63 1.3 5.66-1.39 1.95-2.21 4.49-2.21 7.24 0 5.3 2.47 9.05 6.66 10.46.66 3.07 2.02 5.68 4.04 7.77-2.63 3.24-5.2 8.35-6.88 16.42-.14.65-.14 1.31-.02 1.94-.16.27-.31.54-.46.8-.74 1.27-1.44 2.58-2.08 3.92-.7 1.34-1.26 2.65-1.78 3.89-.61 1.36-1.09 2.69-1.49 3.84-.53 1.42-.9 2.58-1.18 3.64-.27 1.01-.53 1.93-.75 2.74-.03.1-.05.21-.07.31l-.13.64c-1.71 1.58-3.77 3.85-4.11 6.5-.3.12-.66.28-1.06.47-.09.03-.24.07-.36.11-.24.07-.52.14-.84.25l-.35.07-.14-.11c3.14-1.53 4.95-4.73 4.95-9.07 0-3.16-1.22-5.98-3.16-7.83.19-.43.32-.91.38-1.4.44-3.68-.32-6.57-1.55-8.73-.09-.75-.35-1.48-.79-2.14-3.65-5.57-9.87-6.44-12.22-6.57-2.34-.64-4.69-.96-7-.96-10.87 0-17.41 7.06-17.68 7.36-.88.97-1.33 2.22-1.3 3.48-1.82 2.79-2.27 5.86-2.15 7.76.03.55.15 1.08.35 1.57-1.73 1.84-2.81 4.51-2.81 7.49 0 4.85 2.25 8.26 6.06 9.54l.01.02c-.26.28-.49.59-.67.92-.19.07-.38.15-.57.23-1.05.4-2.03.83-2.99 1.25-.47.2-.93.4-1.38.59-.02.01-.04.02-.06.02-.82.36-1.6.74-2.31 1.09-.18-.02-.37-.02-.56-.02-.63 0-1.25.1-1.84.3-2.04.69-6.91 2.65-8.69 6.25-.82 1.65-.95 3.5-.36 5.21.84 2.46 2.02 3.87 3.21 4.66.68 1.1 1.28 1.92 1.79 2.43.76.78 2.78 2.61 5.1 3.01.28.05.61.08.94.08.32 0 .66-.03 1.03-.09.54.16 1.13.25 1.77.25 1.15 0 2.91-.32 4.72-1.87.22-.19.49-.4.78-.62.42-.32.89-.68 1.36-1.1l3.93 6.71.06.09c.02.82.02 1.73.02 2.69v.06l.01 1.77c-1.76.89-3.89 2.16-5.48 3.7-.36.35-.66.75-.9 1.17-.63.83-1 1.87-1 2.99v1c0 2.76 2.24 5 5 5h34c1.53 0 2.9-.69 3.82-1.77.25.73.67 1.4 1.24 1.95.93.91 2.18 1.42 3.49 1.42h.09l25.58-.47c1.34-.02 2.59-.58 3.51-1.52.91.95 2.17 1.5 3.5 1.53l20.83.38c.31.06.62.09.94.09h.09l1.91-.04 1.91.03h.09c.32 0 .63-.03.94-.09l20.71-.38c1.31-.02 2.54-.56 3.44-1.47.91.91 2.14 1.45 3.45 1.47l25.58.48h.09c1.3 0 2.55-.51 3.48-1.42.958-.93 1.5-2.2 1.51-3.54l.02-2.49c.01-1.79-.93-3.45-2.48-4.36-.28-.16-.57-.34-.87-.51-1.93-1.16-4.45-2.68-7.39-3.14-1.46-.91-3.01-1.69-4.26-2.28.07-.52.06-1.06-.04-1.58-.31-1.64-1.28-3.34-3.11-4.43l-.97-12.09c.8.55 1.72.82 2.66.82.93 0 1.87-.28 2.73-.8 1.03-.65 1.738-1.65 2.06-2.77 1.54 1.27 3.39 1.85 4.19 2.1.71.22 1.45.34 2.19.34.318 0 .648-.02.968-.07l.48.25c.22.11.44.23.65.34.92.54 1.84.88 2.59 1.15.25.1.51.19.75.29 1.05.45 2.08.69 2.9.88.28.06.56.13.84.2.14.04.29.08.44.1 1.05.19 2.14.33 3.23.41l-4.5 9.75-.04.05c-.46.69-.72 1.46-.8 2.24-.24 1.5.16 3.05 1.228 4.17.82.87 1.87 1.4 2.97 1.55.62.37 1.37.77 2.25 1.15-.81.49-1.57 1.04-2.23 1.62-1.6.83-2.69 2.51-2.69 4.44v1c0 2.76 2.24 5 5 5h35c2.772 0 5-2.24 5-5v-1c0-2.19-1.4-4.05-3.35-4.73.73-.29 1.41-.68 2.02-1.17.552-.37 1-.84 1.352-1.38 1.04-1.52 1.16-3.51.29-5.16l-1.27-4c1.26.69 2.41.86 3.25.86.64 0 1.22-.09 1.77-.25.37.06.71.09 1.04.09.34 0 .67-.03.98-.09 2.29-.4 4.31-2.23 5.07-3 .5-.52 1.1-1.33 1.79-2.44 1.18-.79 2.37-2.2 3.21-4.66.58-1.71.438-3.56-.36-5.21v.03l.045-.02zM82.59 170.99l-.6 11.39-.05 1.07c-1.59 1.09-2.45 2.68-2.74 4.188-.11.59-.15 1.11-.1 1.61-1.24.58-2.76 1.35-4.2 2.25-2.94.46-5.46 1.98-7.39 3.14-.29.18-.58.36-.86.52-.7.42-1.29.98-1.71 1.65-.57-.95-1.44-1.7-2.49-2.1-1.79-1.5-4.26-2.71-6.28-3.53l.05-5.14 4.61-6.86c.58-.86.87-1.87.85-2.88.01-.29-.01-.59-.05-.88-.02-.33-.08-.66-.17-.99 1.14-.08 2.28-.22 3.38-.41.14-.03.29-.06.44-.1.27-.08.55-.144.83-.2.83-.19 1.85-.43 2.9-.88.24-.1.5-.19.75-.29.75-.273 1.67-.61 2.59-1.15l.67-.35.45-.24c.32.05.65.07.97.07.74 0 1.48-.11 2.19-.34 1.1-.354 4.19-1.33 5.75-3.87l-.02-.07c.16-.09.32-.18.47-.27l-.24 4.66v.002zm37.92-67.39l-.02-.016c.07-.03.14-.062.21-.094.13.66.28 1.24.44 1.74 1.44 4.3 4.81 6.76 8.16 8.17-.09.1-.16.19-.23.27-.9 1.12-1.35 2.54-1.26 4.01-.08.1-.16.21-.24.31l-.68.88c-.07.1-.14.19-.21.29-.28.42-.59.85-.91 1.3-.77 1.09-1.65 2.32-2.47 3.73l-.87 1.42-.06.1c-1.64-6.6-3.91-10.98-6.23-13.89 2.23-2.18 3.71-4.96 4.37-8.22zm16.05 75.04l-.25 4.82c-1.59 1.09-2.45 2.68-2.74 4.188-.11.59-.15 1.11-.1 1.61-1.24.58-2.76 1.35-4.2 2.25-1.34.21-2.58.64-3.74 1.16-1.16-.52-2.4-.95-3.74-1.15-1.46-.91-3.01-1.69-4.26-2.27.07-.52.06-1.064-.04-1.58-.26-1.41-1.04-2.89-2.44-3.97l-.1-3.344v-.08c-.04-.97-.07-1.97-.09-3.03-.04-2.1-.09-4.26-.33-6.54l-.41-4.55c1.52 1.46 3.39 2.45 5.64 2.45.74 0 1.48-.11 2.2-.34 1.06-.33 4-1.26 5.59-3.64.17.02.34.02.51.02l-.04-.07c.58 0 1.37-.08 2.24-.38l-.26.72c-.74 2.03-.1 4.3 1.59 5.644.91.72 2.01 1.09 3.11 1.09.58 0 1.16-.1 1.71-.3.16.11.33.23.51.35l-.36 6.94v.003zm32.3-21.857c.036-.33.104-.738.24-1.244-.233-.41-.417-.87-.51-1.38-.186-1-.096-2.56 1.37-4.36.346-.43.664-.87.977-1.3.304-.42.61-.84.936-1.24-.314-.93-.61-1.75-.98-2.58-.478-1.18-.893-2.17-1.386-3.13-.53-1.14-1.065-2.18-1.64-3.17-1.3-2.38-2.9-4.87-4.62-7.21l2.24 11.52c.39.44.628 1.02.628 1.66v.52l.144.48c.27.91-.01 1.86-.65 2.49-.11.14-.22.26-.35.37l3.59 8.52v.05h.01zm-62.93-44.493l.2-.83-.31.08.11.75M42.2 195.8l.78-.095.3-10.59-1.4.01c.07 1.31.12 2.74.14 4.19l.18 6.495m171.67 0c.05-1.78.11-4.03.17-6.306-.36.13-.74.24-1.12.35l.17 5.85.79.105m-4.9 3.47h4.81l.01-.44-.62.01.01.35-4.21.08m-166.68 0h4.8l-4.21-.08.01-.35-.62-.01c.01.2.01.35.01.43"/><path fill="#333" d="M134.31 140.874l.23-.444.11-.21-.44 2.57-.37 1.04c-.28.8-.37 1.64-.26 2.44l-.04-.03c-.08-.1-.16-.2-.24-.31-.23-.28-.47-.6-.72-.94l.66-1.53.45-1.03.66-1.54-.04-.016zm34.4 6.426c.08-.33.14-.68.15-1.02l.21.538-.15.21-.21.29v-.02.002zm19.89 2.51l-.14-.65c-.02-.1-.04-.2-.07-.29l-.59-2.16c.48.24.99.46 1.51.65-.26.84-.43 1.74-.5 2.67-.07-.07-.14-.13-.22-.2l.01-.02z"/><path fill="#F7931E" d="M194.305 186.78s6.3 5.638 16.59 2.714c10.287-2.926 17.588 3.006 20.61-.203l-4.087-6.57-16.266-2.33H198.41l-4.34 6.58"/><path fill="#fdb" d="M208.71 164.717l-.302.27c-.26.23-.582.48-.973.77-.804.564-1.945 1.344-3.46 1.995-.74.36-1.6.63-2.497.93-.92.23-1.89.5-2.93.61-1.04.18-2.11.15-3.2.17-1.09-.06-2.19-.18-3.27-.38-1.04-.29-2.16-.45-3.12-.87-.96-.4-2-.69-2.84-1.19-.86-.47-1.72-.89-2.49-1.36l-2.05-1.4c-1.304-.85-2.15-1.738-2.85-2.29-.684-.57-1.064-.898-1.064-.898l5.55-5.69.81.76c.54.45 1.23 1.26 2.19 1.95l1.53 1.17c.55.37 1.16.7 1.78 1.09.606.43 1.3.61 1.96.94.658.35 1.38.44 2.068.69.7.16 1.41.27 2.11.35.687.01 1.38.1 2.04 0 .66-.02 1.29-.18 1.89-.29.59-.18 1.16-.31 1.65-.53 1.02-.37 1.8-.86 2.31-1.17l.51-.35c.07-.04.21-.17.19-.16l4.38 4.86.075.04v-.017zm11.37-5.507s1.47.494 3.67 1.237c2.193.758 5.1 1.824 7.997 2.984 1.45.56 2.894 1.23 4.25 1.8 1.356.59 2.63 1.27 3.718 1.79 1.09.54 2.033 1.18 2.676 1.54.65.4 1.03.62 1.03.62l-4.67 6.44-.74-.5c-.5-.31-1.1-.8-2.03-1.33-.93-.51-1.97-1.16-3.22-1.78-1.22-.6-2.51-1.3-3.88-1.91-2.68-1.26-5.43-2.45-7.51-3.31l-3.46-1.4 2.2-6.15-.02-.03h-.01zm5.91 14.12l1.203 3.113-4.883 1.134-21.23-.497-1.72-.92.59-1.415 8.29-4.104 12.53-.06 5.22 2.76v-.01z"/><path fill="#FBB03B" d="M213.035 173.898c-4.936 0-9.578.664-13.64 1.836l5.236-19.012 17.65.75 4.86 18.41c-4.16-1.26-8.97-1.984-14.1-1.984z"/><path fill="#0071BC" d="M219.408 158.89s-4.104 3.538-9.557 2.69-.92-3.68-.92-3.68"/><path fill="#fdb" d="M222.33 179.965s-.057 1.227-.137 3.066c-.104 1.86-.176 4.3-.164 6.68l-.08 9.61-8.23.13.27-10.03c.03-2.52.16-4.97.3-6.81.11-1.83.19-3.06.19-3.06l7.83.44.01-.02h.01zm-9.743-.292l.56 19.63-8.213.153-.18-19.638 7.833-.145z"/><path fill="#FBB03B" d="M204.613 194.777s-5.78 1.77-8.12 4.035l18.47.142-.46-2.97-9.89-1.207z"/><path fill="#F4E8D9" d="M195.62 198.688h18v1.692h-18v-1.692z"/><path fill="#fdb" d="M177.773 147.807s10.763 7.113 9.937 9.612c0 0-2.944 9.54-6.82 8.31-3.88-1.23-3.065-2.52-3.065-2.52s-3.317-1.75-4.22-2.6c-.716-.67-2.064-2.25-2.255-3.23-.123-.62.56-2.47.56-2.47s-1.99-1.15-.015-3.55c1.977-2.41 3.24-5.45 5.88-3.61v.05zm56.154 25.99s5.36-7.7 7.163-7.06c0 0 6.89 2.303 5.934 5.102-.96 2.79-1.88 2.18-1.88 2.18s-1.33 2.38-1.958 3.02c-.5.51-1.668 1.46-2.373 1.58-.455.08-1.787-.45-1.787-.45s-.86 1.42-2.584-.05c-1.72-1.48-3.903-2.45-2.515-4.34v.01zm-70.73-57.893s.13.117.373.346c.244.236.604.584 1.062 1.03.87.876 2.07 2.126 3.415 3.698 2.717 3.125 6.03 7.55 8.742 12.39.68 1.192 1.35 2.42 1.93 3.66.63 1.21 1.16 2.45 1.67 3.66.54 1.187.96 2.384 1.36 3.52.42 1.13.78 2.207 1.04 3.233.27 1.02.54 1.96.76 2.78.18.84.32 1.58.45 2.18.22 1.21.38 1.9.38 1.9l-7.86 1.24-.32-1.64c-.1-.52-.22-1.16-.36-1.88l-.64-2.41c-.22-.89-.53-1.84-.89-2.82-.34-1-.7-2.05-1.17-3.11-.44-1.07-.89-2.17-1.44-3.26-.52-1.11-1.08-2.2-1.7-3.28-2.38-4.36-5.35-8.41-7.77-11.24-1.2-1.44-2.26-2.57-3-3.33-.37-.36-.65-.65-.84-.84l-.32-.3 5.09-5.56.03.04z"/><path fill="#FBB03B" d="M222.1 194.777s4.574 1.77 6.914 4.035l-16.205.142.46-2.97 8.83-1.207z"/><path fill="#F4E8D9" d="M210.62 198.688h20v1.692h-20v-1.692z"/><path fill="#D3C1AF" d="M210.62 198.688h3v1.692h-3v-1.692z"/><path fill="#fdb" d="M51.66 159.855c-.018-.02.128.12.195.154l.504.35c.51.32 1.28.81 2.31 1.18.49.22 1.07.36 1.65.53.6.11 1.23.27 1.9.29.66.1 1.35.02 2.04.01.7-.08 1.41-.19 2.11-.35.69-.25 1.41-.35 2.07-.69s1.35-.52 1.96-.95c.62-.39 1.23-.72 1.78-1.09l1.52-1.17c.96-.69 1.65-1.5 2.19-1.95l.82-.77 5.55 5.69-1.06.9c-.7.54-1.55 1.43-2.85 2.29l-2.05 1.39c-.76.46-1.62.89-2.48 1.35-.84.5-1.88.79-2.84 1.19-.95.41-2.07.58-3.11.86-1.07.19-2.18.32-3.26.37-1.1-.02-2.17.01-3.2-.17-1.04-.11-2.02-.37-2.93-.61-.9-.3-1.76-.57-2.5-.93-1.52-.66-2.66-1.44-3.46-2-.39-.29-.71-.54-.97-.77l-.3-.27 4.37-4.86.04.05v-.03zm-13.548 5.506s-1.385.57-3.46 1.4c-2.076.86-4.826 2.06-7.51 3.32-1.363.61-2.64 1.31-3.878 1.91-1.228.62-2.272 1.27-3.216 1.78-.93.53-1.526 1.02-2.03 1.34-.475.32-.75.5-.75.5l-4.675-6.44s.37-.22 1.017-.62c.642-.36 1.587-1.01 2.674-1.54 1.09-.52 2.362-1.2 3.717-1.79 1.36-.57 2.8-1.25 4.26-1.8 2.9-1.16 5.8-2.23 8-2.99l3.67-1.24 2.2 6.15-.01.04v-.02z"/><path fill="#29ABE2" d="M54.288 170.782l3.114-9.77-7.362-3.397m-19.538 13.167l-3.114-9.77 7.364-3.397"/><path fill="#fdb" d="M30.008 173.33l-1.204 3.113 4.884 1.134 21.238-.497 1.72-.92-.587-1.415-8.29-4.104-12.54-.06-5.23 2.76v-.01z"/><path fill="#29ABE2" d="M42.96 173.898c4.94 0 9.583.664 13.64 1.836l-5.238-19.012-17.653.75-4.86 18.41c4.17-1.26 8.98-1.984 14.11-1.984z"/><path fill="#0071BC" d="M36.59 158.89s4.105 3.538 9.558 2.69c5.45-.85.92-3.68.92-3.68"/><path fill="#fdb" d="M41.5 179.53l.19 3.063c.14 1.824.263 4.293.3 6.818.137 5.03.268 10.03.268 10.03l-8.214-.12s-.038-4.8-.073-9.61c.02-2.38-.06-4.82-.16-6.67l-.13-3.06 7.83-.43-.01-.02zm9.746.29l-.18 19.636-8.216-.154.56-19.63 7.836.148z"/><path fill="#082031" d="M51.385 194.777s5.78 1.77 8.12 4.035l-18.47.142.463-2.97 9.887-1.207z"/><path fill="#F4E8D9" d="M42.62 198.63h18v1.75h-18v-1.75z"/><path fill="#F4D1B0" d="M53.358 148.055c0 2.815.407 5.094 2.38 5.094 1.972 0 4.76-.53 4.76-5.1 0-2.82-1.595-5.09-3.57-5.09-1.97 0-3.57 2.27-3.57 5.09zm-23.624 0c0 2.815-.41 5.094-2.38 5.094s-4.763-.53-4.763-5.1c0-2.82 1.6-5.09 3.58-5.09s3.57 2.27 3.57 5.09z"/><path fill="#fdb" d="M55.596 153.084c.25 6.533-9.465 7.03-13.754 7.03-4.883 0-14.003-.693-14.053-7.028 0-10.01-1.04-20.637 13.9-20.637 15.08 0 13.9 10.6 13.9 20.63z"/><g opacity=".44"><defs><path id="a" d="M41.695 149.535s1.552-.592 1.85 1.185c0 0-2.295 1.036-1.85-1.185z"/></defs><clipPath id="b"><use xlink:href="#a" overflow="visible"/></clipPath><path clip-path="url(#b)" fill="#FF6064" d="M42.62 149.486h2v1h-2v-1z"/><defs><path id="c" d="M41.695 149.535s1.552-.592 1.85 1.185c0 0-2.295 1.036-1.85-1.185z"/></defs><clipPath id="d"><use xlink:href="#c" overflow="visible"/></clipPath><circle clip-path="url(#d)" fill="#FF6064" cx="42.591" cy="150.199" r=".866"/><defs><path id="e" d="M41.695 149.535s1.552-.592 1.85 1.185c0 0-2.295 1.036-1.85-1.185z"/></defs><clipPath id="f"><use xlink:href="#e" overflow="visible"/></clipPath><circle clip-path="url(#f)" fill="#FF5F63" cx="42.59" cy="150.199" r=".787"/><defs><path id="g" d="M41.695 149.535s1.552-.592 1.85 1.185c0 0-2.295 1.036-1.85-1.185z"/></defs><clipPath id="h"><use xlink:href="#g" overflow="visible"/></clipPath><circle clip-path="url(#h)" fill="#FF5E62" cx="42.591" cy="150.199" r=".716"/><defs><path id="i" d="M41.695 149.535s1.552-.592 1.85 1.185c0 0-2.295 1.036-1.85-1.185z"/></defs><clipPath id="j"><use xlink:href="#i" overflow="visible"/></clipPath><path clip-path="url(#j)" fill="#FF5D61" d="M43.238 150.2c0 .353-.293.645-.647.645-.35 0-.64-.293-.64-.646 0-.36.29-.65.65-.65s.65.29.65.64l-.01.01z"/><defs><path id="k" d="M41.695 149.535s1.552-.592 1.85 1.185c0 0-2.295 1.036-1.85-1.185z"/></defs><clipPath id="l"><use xlink:href="#k" overflow="visible"/></clipPath><circle clip-path="url(#l)" fill="#FF5C60" cx="42.59" cy="150.199" r=".575"/><defs><path id="m" d="M41.695 149.535s1.552-.592 1.85 1.185c0 0-2.295 1.036-1.85-1.185z"/></defs><clipPath id="n"><use xlink:href="#m" overflow="visible"/></clipPath><path clip-path="url(#n)" fill="#FF5B5F" d="M43.094 150.2c0 .282-.22.504-.504.504-.284 0-.505-.22-.505-.505 0-.29.22-.51.505-.51.283 0 .504.22.504.5v.01z"/><defs><path id="o" d="M41.695 149.535s1.552-.592 1.85 1.185c0 0-2.295 1.036-1.85-1.185z"/></defs><clipPath id="p"><use xlink:href="#o" overflow="visible"/></clipPath><circle clip-path="url(#p)" fill="#FF595E" cx="42.591" cy="150.199" r=".434"/><defs><path id="q" d="M41.695 149.535s1.552-.592 1.85 1.185c0 0-2.295 1.036-1.85-1.185z"/></defs><clipPath id="r"><use xlink:href="#q" overflow="visible"/></clipPath><circle clip-path="url(#r)" fill="#FF585D" cx="42.591" cy="150.199" r=".354"/><defs><path id="s" d="M41.695 149.535s1.552-.592 1.85 1.185c0 0-2.295 1.036-1.85-1.185z"/></defs><clipPath id="t"><use xlink:href="#s" overflow="visible"/></clipPath><path clip-path="url(#t)" fill="#FF575C" d="M42.873 150.2c0 .157-.123.282-.283.282-.16 0-.284-.125-.284-.283 0-.16.123-.29.284-.29.16 0 .283.12.283.28v.01z"/><defs><path id="u" d="M41.695 149.535s1.552-.592 1.85 1.185c0 0-2.295 1.036-1.85-1.185z"/></defs><clipPath id="v"><use xlink:href="#u" overflow="visible"/></clipPath><path clip-path="url(#v)" fill="#FF565B" d="M42.804 150.2c0 .122-.09.21-.213.21s-.21-.088-.21-.21c0-.125.09-.212.21-.212s.22.087.22.21v.002z"/><defs><path id="w" d="M41.695 149.535s1.552-.592 1.85 1.185c0 0-2.295 1.036-1.85-1.185z"/></defs><clipPath id="x"><use xlink:href="#w" overflow="visible"/></clipPath><circle clip-path="url(#x)" fill="#FF555A" cx="42.591" cy="150.199" r=".141"/><defs><path id="y" d="M41.695 149.535s1.552-.592 1.85 1.185c0 0-2.295 1.036-1.85-1.185z"/></defs><clipPath id="z"><use xlink:href="#y" overflow="visible"/></clipPath><path clip-path="url(#z)" fill="#FF5459" d="M42.66 150.2c0 .034-.035.07-.07.07-.033 0-.072-.036-.072-.07 0-.035.04-.07.072-.07.035 0 .07.035.07.07z"/></g><path fill="#333" d="M43.544 151.286c-.272 0-.513-.197-.56-.474-.063-.37-.19-.617-.38-.73-.292-.163-.707-.02-.707-.02-.3.113-.62-.04-.73-.33-.115-.292.034-.617.327-.73.092-.032.924-.33 1.676.103.498.283.813.795.933 1.52.05.31-.157.602-.467.65-.03.008-.06.01-.092.01zm-2.534 3.717c-.74 0-1.348-.207-1.813-.62-1.085-.956-.885-2.627-.876-2.7.05-.31.38-.51.64-.49.31.04.53.323.49.63 0 .02-.13 1.16.51 1.72.43.37 1.14.43 2.13.18.3-.07.61.11.69.41.08.312-.1.61-.4.69-.48.13-.93.19-1.34.19h-.03v-.01zm2.534 0c-.397 0-.837-.062-1.324-.187-.302-.077-.485-.385-.408-.688.077-.31.386-.49.686-.42.666.17 1.544.28 1.983-.15.46-.45.36-1.4.29-1.69-.07-.3.12-.61.42-.68.31-.07.62.12.68.42.02.07.41 1.77-.59 2.75-.42.41-1 .62-1.73.62v.025z"/><path fill="#DBC79C" d="M43.27 155.823s-1.575 1.183-3.204 1.183c-1.626 0 4.29 3.305 3.204-1.183z"/><path fill="#F5F5F5" d="M39.748 145.574c0 2.85-2.31 5.165-5.16 5.165-2.853 0-5.16-2.32-5.16-5.19 0-2.85 2.307-5.16 5.16-5.16 2.85 0 5.16 2.31 5.16 5.15v.03z"/><path fill="#333" d="M37.847 145.574c0 1.804-1.46 3.264-3.257 3.264-1.8 0-3.26-1.46-3.26-3.264 0-1.8 1.46-3.256 3.26-3.256 1.796 0 3.257 1.455 3.257 3.256z"/><path fill="#F5F5F5" d="M53.947 145.574c0 2.85-2.305 5.165-5.157 5.165-2.853 0-5.163-2.32-5.163-5.19 0-2.85 2.31-5.16 5.163-5.16 2.852 0 5.157 2.31 5.157 5.15v.03z"/><path fill="#333" d="M52.05 145.574c0 1.804-1.46 3.264-3.26 3.264s-3.262-1.46-3.262-3.264c0-1.8 1.463-3.256 3.262-3.256 1.8 0 3.26 1.455 3.26 3.256zm-5.097-11.357s-.928 6.79-6.02 6.943c0 0 2.932-2.622 2.624-6.016-.306-3.396-2.623 3.7-7.408 4.938 0 0 1.54-3.09 1.54-4.632 0 0-4.02 6.636-7.72 7.405l-2.01 7.717-1.87-7.375s-1.07-4.508.63-7.283c0 0-1.24 1.232-1.7 2.775 0 0-.31-4.94 4.32-7.41l-2.16-.16s7.71-8.49 20.21-4.79c0 0 5.86-.16 8.79 4.31l-2.16-.77s4.47 1.85 3.7 8.33l-1.7-1.7s1.7 3.55 1.23 6.17l-2.01 7.25-1.7-7.72s-3.39-1.7-3.39-6.65c0 0-.47 4.32-4.02 5.71 0 0 3.39-3.24.77-7.1l.05.04v.01z"/><path fill="#fdb" d="M139.993 122.688s-.41.424-.89 1.014c-.506.563-1.27 1.613-2.18 2.793-.824 1.275-1.914 2.668-2.85 4.344-.49.82-.994 1.67-1.51 2.53-.502.87-.936 1.8-1.41 2.71l-1.383 2.72c-.396.93-.787 1.84-1.166 2.73l-1.09 2.55c-.35.81-.575 1.62-.84 2.34L125 151.28l-7.595-2.36 1.875-5.25c.3-.78.55-1.65.95-2.53.39-.88.8-1.8 1.22-2.76l1.31-2.95c.51-.98 1.02-1.97 1.54-2.96.53-.99 1.02-1.99 1.58-2.94l1.7-2.77c1.06-1.82 2.29-3.39 3.24-4.8 1.07-1.36 1.89-2.47 2.64-3.3.73-.85 1.07-1.19 1.07-1.19l5.48 5.18-.017.038zm-7.97 28.828s-9.81-8.39-11.98-6.906c0 0-8.37 5.45-6.12 8.84 2.246 3.39 3.262 2.25 3.262 2.25s2.59 2.71 3.653 3.34c.845.5 2.73 1.37 3.706 1.28.63-.05 2.218-1.22 2.218-1.22s1.65 1.6 3.42-.96c1.77-2.57 4.345-4.62 1.84-6.65v.026z"/><path fill="#FFEDDC" d="M135.455 116.7s-3.018-.85-2.643.942c.38 1.797 1.888 1.7 1.51 4.248-.374 2.55 2.076 2.832 3.21 3.115 1.134.283 3.965 2.924 3.87-1.13m24.508-7.175s3.018-.85 2.645.942c-.375 1.797-1.887 1.7-1.51 4.248.376 2.55-2.078 2.832-3.21 3.115-1.134.283-3.96 2.924-3.868-1.13"/><path fill="#ED1E79" d="M146.88 118.588c0 3.44-2.79 6.23-6.23 6.23-3.437 0-6.23-2.79-6.23-6.23 0-3.438 2.796-6.23 6.23-6.23 3.44 0 6.23 2.792 6.23 6.23zm20.388 0c0 3.44-2.79 6.23-6.23 6.23s-6.227-2.79-6.227-6.23c0-3.438 2.8-6.23 6.23-6.23s6.23 2.792 6.23 6.23z"/><path fill="#fdb" d="M160.695 146.21l4.06 50.005-8.19.665-3.682-50.04 7.812-.63zm-9.062.76l-.646 7.79-.313 3.775c-.095 1.338-.265 2.757-.31 4.204-.134 2.89-.273 6-.415 9.1l-1.15 24.79-8.22-.19 1.33-25.18c.17-3.15.33-6.29.48-9.24.06-1.48.24-2.88.34-4.22.12-1.34.23-2.61.34-3.77l.7-7.79 7.81.7.02.02h.01l.01.01z"/><path fill="#D4145A" d="M142.698 144.827l-7.997 21.825s2.44-1.26 3.95.09c1.52 1.35 2.74 2.156 8.2.45 5.47-1.71 7.9.81 7.9.81s5.77 2.425 8.96-1.17c3.19-3.596 6.68-.016 6.68-.016l-9.33-22.155"/><path fill="#333" d="M108.088 144.203l.353 16.178h-7.71s-.98-1.66-2.59-1.66c-1.37 0-2.12 1.44-2.12 1.44l-7.88.22.05-16.31"/><path d="M129.39 149.148c-1.938-2.348-3.19-5.296-5.716-3.69l-.923-2.9-.86-2.688-1.16-2.93-1.24-3.15c-.39-1.09-.96-2.13-1.44-3.2-.5-1.06-1.01-2.13-1.5-3.17-.53-1.03-1.11-2.03-1.64-3-.55-.97-1.03-1.92-1.61-2.77l-1.56-2.44c-.49-.75-1.01-1.41-1.44-2.01-.41-.588-.83-1.122-1.21-1.572-.36-.432-.67-.82-.84-.997l-.27-.3.01-.01-4.82 4.32.26.31c.19.21.34.45.6.79.24.32.56.74.91 1.3.35.54.78 1.12 1.19 1.81l1.31 2.24c.48.78.89 1.69 1.35 2.59.45.91.95 1.83 1.39 2.81l1.27 2.99c.4 1.01.89 1.98 1.21 3.02.36 1.02.71 2.02 1.04 2.99.34.97.67 1.9.97 2.79l.71 2.57 1.46 5.29.8-.21c-2.34 1.96-4.41 4.09-4.04 5.24 0 0 2.95 9.55 6.82 8.32 3.88-1.22 3.07-2.51 3.07-2.51s3.31-1.74 4.22-2.59c.71-.67 2.06-2.24 2.25-3.2.1-.62-.57-2.47-.57-2.47s1.99-1.14.01-3.55zM22.08 173.79l-.007.007s-5.36-7.7-7.163-7.06c0 0-6.892 2.303-5.933 5.102.958 2.79 1.878 2.18 1.878 2.18s1.326 2.38 1.958 3.02c.5.51 1.67 1.46 2.372 1.58.455.08 1.786-.45 1.786-.45s.87 1.42 2.59-.05c1.72-1.48 3.91-2.45 2.52-4.34v.01zm70.35-57.6c-.25.23-.6.58-1.06 1.03-.87.87-2.07 2.12-3.41 3.7-2.72 3.12-6.03 7.55-8.74 12.39-.7 1.19-1.35 2.42-1.94 3.66-.63 1.21-1.17 2.45-1.67 3.66-.54 1.188-.97 2.39-1.36 3.53-.42 1.13-.79 2.21-1.05 3.238l-.77 2.78-.45 2.19-.025.13c-2.19 1.87-4.026 3.832-3.667 4.92 0 0 2.944 9.54 6.823 8.31 3.88-1.23 3.07-2.52 3.07-2.52s3.32-1.75 4.22-2.59c.72-.67 2.07-2.25 2.25-3.21.13-.62-.56-2.47-.56-2.47s1.99-1.15.02-3.57c-1.02-1.26-1.86-2.683-2.8-3.5.12-.354.24-.71.37-1.08.33-1 .69-2.05 1.16-3.1.43-1.07.89-2.17 1.44-3.25.51-1.104 1.07-2.203 1.69-3.277 2.38-4.35 5.35-8.4 7.77-11.24 1.2-1.43 2.26-2.56 3-3.32.37-.35.65-.64.85-.83.21-.19.32-.3.32-.3l.01-.01v-.06l-5.09-5.55s-.13.12-.37.35zm15.55-1.88v.004l.05-.045z" fill="#fdb"/><path fill="#082031" d="M120.03 196.39l.006-.01h.024c-2.84-2-6.89-3.563-6.89-3.563-2.036-1.385-.62-4.23-.62-4.23-.19-1.004-1.147-1.412-2.428-1.48-.06-2.02-.13-4.23-.202-6.637-.143-2.97-.057-6.13-.407-9.31-.283-3.17-.567-6.36-.837-9.33l-.384-4.3-.077-.49-.327-14.983-19.302-.123-.04 14.094-.157 1.772c-.1 1.34-.28 2.74-.34 4.22l-.49 9.24-.84 15.842c-1.38.035-2.43.43-2.63 1.486 0 0 1.41 2.845-.62 4.23 0 0-4.05 1.562-6.89 3.562h.02l-.01.01c-2.67 0-5.31 1.852-7.46 3.11l.02 2.49 25.58-.48s.74-1.126.67-1.126h.02s.91-3.87-.16-5.34c-1.07-1.476.04-6 .04-6s-.19-.073-.52-.188l.77-17.017c.14-3.1.28-6.21.42-9.1.04-1.45.21-2.87.31-4.21l.11-1.37c.31-.42.92-1.05 1.81-1.05 1.23 0 1.87 1.1 2.08 1.57l.11.74c.11 1.32.22 2.72.34 4.16.24 2.89.49 5.96.74 9.04.31 3.07.2 6.19.32 9.1l.18 7.92v.13c-.43.15-.69.25-.69.25s1.11 4.52.04 6c-1.07 1.47-.16 5.34-.16 5.34h.01c-.08 0 .66 1.12.66 1.12l25.58.48.02-2.49c-2.15-1.26-4.8-3.11-7.46-3.11z"/><path fill="#534741" d="M118 129.16c-3.77-18.123-11.7-17.98-11.7-17.98l-.324 1.343-.44-3.142h-13.59l-.254 1.82c-1.375.16-8.07 1.75-11.448 17.96l8.103 5.87-2.063 14.69 24.92.23-2.012-14.4 8.81-6.38z"/><path fill="#DBB99C" d="M103.84 110.47l-5.098 7.362-5.662-7.93"/><path fill="#F4D1B0" d="M104.16 93.496c0 3.354.486 6.072 2.84 6.072 2.35 0 5.675-.63 5.675-6.072 0-3.354-1.906-6.072-4.258-6.072-2.35 0-4.258 2.72-4.257 6.072z"/><path fill="#C69C6D" d="M104.866 93.473c.008-.938.202-2.008.662-2.918.234-.463.53-.914.95-1.303.415-.38 1.006-.708 1.692-.718.262.024.208.003.452.053.2.042.367.1.498.167.293.127.527.31.746.498.416.39-.212.84.02 1.303.46.93-.266 1.936-.266 2.94v.116c0 .66.407 1.2-.25 1.21-.66.01-.737-.52-.74-1.18 0-.04.23-.09.235-.14.074-.66.136-1.38-.08-1.99-.202-.63-.556-1.03-.673-1.07-.07-.03-.23-.03-.467.13-.232.16-.78.42-.977.73-.403.64-1.05 1.36-1.05 2.23v.03c0 .39-.062.67-.446.63-.363-.03-.308-.35-.306-.7v-.01z"/><path fill="#F4D1B0" d="M85.058 93.496c0 3.354-.488 6.072-2.84 6.072-2.35 0-5.68-.63-5.68-6.072 0-3.354 1.906-6.072 4.26-6.072 2.352 0 4.26 2.72 4.26 6.072z"/><path fill="#C69C6D" d="M84.35 93.473c-.01-.938-.203-2.008-.664-2.918-.23-.463-.53-.914-.946-1.303-.416-.38-1.007-.708-1.694-.718-.262.024-.208.003-.45.053-.2.042-.37.1-.5.167-.29.127-.526.31-.745.498-.41.39-.27.84-.51 1.303-.46.93-.22 1.936-.22 2.94v.116c0 .66.08 1.2.74 1.21.66.01.98-.52.99-1.18 0-.04-.11-.09-.12-.14-.07-.66-.07-1.38.14-1.99.21-.63.59-1.03.7-1.07.08-.03.25-.03.49.13.23.16.46.42.66.73.41.64.64 1.36.73 2.23l.01.03c.05.39.39.67.78.63.37-.03.64-.35.64-.7l-.03-.01z"/><path fill="#F4D1B0" d="M112.782 93.496c0 3.354.485 6.072 2.84 6.072 2.35 0 5.677-.63 5.677-6.072 0-3.354-1.91-6.072-4.26-6.072s-4.26 2.72-4.26 6.072z"/><path fill="#C69C6D" d="M113.49 93.473c.008-.938.202-2.008.663-2.918.23-.463.528-.914.945-1.303.416-.38 1.008-.708 1.696-.718.26.024.208.003.45.053.2.042.37.1.498.167.292.127.526.31.746.498.416.39.474.84.71 1.303.458.93.42 1.936.42 2.94v.116c0 .66-.28 1.2-.94 1.21-.66.01-1.078-.52-1.087-1.18 0-.04.07-.09.08-.14.08-.66.05-1.38-.17-1.99-.2-.63-.6-1.03-.71-1.07-.07-.03-.25-.03-.49.13-.23.16-.1.42-.3.73-.4.64-.37 1.36-.37 2.23v.03c0 .39-.75.67-1.13.63-.36-.03-1-.35-.99-.7l-.02-.01z"/><path fill="#fdb" d="M115.894 99.494c0 11.928-11.463 12.96-16.578 12.96-5.82 0-16.577-1.032-16.577-12.96 0-11.932-1.24-27.25 16.57-27.25 17.98.002 16.58 15.32 16.58 27.25z"/><path fill="#FBB03B" d="M79.62 86.238l3.177 9.17 4.584-10.7m31.63 2.116l-3.02 8.584-4.58-10.7"/><path fill="#F5F5F5" d="M96.247 93.478c0 2.728-2.208 4.938-4.934 4.938s-4.937-2.21-4.937-4.938c0-2.724 2.21-4.93 4.937-4.93 2.726 0 4.934 2.206 4.934 4.93z"/><path fill="#333" d="M94.784 93.36c0 1.896-1.53 3.43-3.427 3.43-1.888 0-3.425-1.534-3.425-3.43 0-1.892 1.537-3.422 3.425-3.422 1.895 0 3.427 1.53 3.427 3.422z"/><path fill="#F5F5F5" d="M113.18 93.478c0 2.728-2.21 4.938-4.937 4.938-2.73 0-4.938-2.21-4.938-4.938 0-2.724 2.21-4.93 4.938-4.93 2.727 0 4.936 2.206 4.937 4.93z"/><path fill="#333" d="M111.713 93.36c0 1.896-1.532 3.43-3.427 3.43-1.89 0-3.425-1.534-3.425-3.43 0-1.892 1.54-3.422 3.43-3.422 1.9 0 3.43 1.53 3.43 3.422z"/><defs><path id="A" d="M100.62 92.38v8.788s.053 1.588-2.24 2.293l.514-2.29-.667-9.09"/></defs><clipPath id="B"><use xlink:href="#A" overflow="visible"/></clipPath><path clip-path="url(#B)" fill="#FF595E" d="M98.717 101.912h1.78v1.188h-1.78v-1.188z"/><defs><path id="C" d="M100.62 92.38v8.788s.053 1.588-2.24 2.293l.514-2.29-.667-9.09"/></defs><clipPath id="D"><use xlink:href="#C" overflow="visible"/></clipPath><path clip-path="url(#D)" fill="#FF5B5F" d="M98.717 100.133h1.78v1.78h-1.78v-1.78z"/><defs><path id="E" d="M100.62 92.38v8.788s.053 1.588-2.24 2.293l.514-2.29-.667-9.09"/></defs><clipPath id="F"><use xlink:href="#E" overflow="visible"/></clipPath><path clip-path="url(#F)" fill="#FF5C60" d="M98.717 99.54h1.78v.593h-1.78v-.593z"/><defs><path id="G" d="M100.62 92.38v8.788s.053 1.588-2.24 2.293l.514-2.29-.667-9.09"/></defs><clipPath id="H"><use xlink:href="#G" overflow="visible"/></clipPath><path clip-path="url(#H)" fill="#FF5D61" d="M98.717 97.762h1.78v1.78h-1.78v-1.78z"/><defs><path id="I" d="M100.62 92.38v8.788s.053 1.588-2.24 2.293l.514-2.29-.667-9.09"/></defs><clipPath id="J"><use xlink:href="#I" overflow="visible"/></clipPath><path clip-path="url(#J)" fill="#FF5E62" d="M98.62 95.486h2v2h-2v-2z"/><defs><path id="K" d="M100.62 92.38v8.788s.053 1.588-2.24 2.293l.514-2.29-.667-9.09"/></defs><clipPath id="L"><use xlink:href="#K" overflow="visible"/></clipPath><path clip-path="url(#L)" fill="#FF5F63" d="M98.717 94.203h1.78v1.186h-1.78V94.2v.003z"/><defs><path id="M" d="M100.62 92.38v8.788s.053 1.588-2.24 2.293l.514-2.29-.667-9.09"/></defs><clipPath id="N"><use xlink:href="#M" overflow="visible"/></clipPath><path clip-path="url(#N)" fill="#FF6064" d="M98.717 93.018h1.78v1.186h-1.78v-1.186zm0-1.186h1.78v1.186h-1.78v-1.186z"/><path fill="#333" d="M97.526 104.65c-.48 0-.928-.31-1.082-.79-.188-.595.143-1.23.74-1.423 1.23-.395 1.562-.936 1.565-1.168l-.01-8.93c0-.63.31-1.14.94-1.14.62 0 .93.51.93 1.13v8.82s.47 2.34-2.95 3.43c-.12.03-.04.05-.15.05l.01.02zm1.314 3.6c-4.448 0-7.25-1.984-7.42-2.107-.508-.37-.62-1.076-.253-1.584.37-.51 1.075-.62 1.58-.26.218.15 5.416 3.75 12.93-.09.563-.28 1.24-.07 1.526.49.285.56.065 1.22-.495 1.52-2.958 1.51-5.623 2.02-7.868 2.02v.01z"/><path fill="#FBB03B" d="M113.557 70.638c-.015-.333-.052-.654-.134-.95-1.06-3.792-11.935-5.435-11.935-5.435-20.19-1.5-25.51 12.815-25.51 12.815 2.822-1.412 1.997-.148 1.997-.148-2.204 4.41 2.822 12.52 2.822 12.52l1.586-2.557 1.413-.176c5.88 0 17.34-7.64 17.34-7.64l-5.17 5.29c7.496-.5 12.146-3.648 14.228-5.446.225 2.66.865 6.8 2.7 8.86l5.288.99s3.36-7.86 3.36-9.98c0-2.05-1.173-8.37-7.985-8.13z"/><path fill="#F7931E" d="M101.572 86.783c-.036.03.696-.496 1.806-1.02.543-.3 1.225-.53 1.944-.836.368-.13.756-.24 1.15-.36.402-.11.796-.26 1.217-.31.84-.11 1.67-.36 2.49-.31.81.02 1.59-.08 2.24.06l2.2.4c1.11.2 1.85 1.27 1.65 2.38-.21 1.11-1.27 1.85-2.39 1.65-.1-.02-.19-.04-.28-.07l-.35-.12s-.61-.2-1.51-.51c-.46-.2-1.05-.18-1.65-.3-.62-.15-1.31-.03-1.99-.06-.35-.02-.69.07-1.03.1l-1.01.14c-.64.17-1.26.27-1.76.46-1.04.31-1.61.62-1.65.63-.55.31-1.24.12-1.55-.42-.32-.54-.13-1.23.41-1.54l.06.03v.005zm-5.112 1.965c-.045-.012-.616-.315-1.65-.627-.495-.19-1.118-.28-1.752-.46l-1-.14c-.343-.03-.682-.12-1.03-.1-.683.03-1.37-.09-1.98.06-.61.13-1.2.11-1.65.3l-1.51.51-.335.12c-1.074.36-2.24-.21-2.6-1.28-.365-1.07.212-2.24 1.287-2.6.092-.03.195-.05.29-.07l2.203-.4c.656-.14 1.433-.05 2.244-.07.823-.04 1.655.2 2.495.31.425.05.818.21 1.216.31.395.12.785.23 1.153.36.72.32 1.4.53 1.95.84 1.11.53 1.84 1.05 1.8 1.02.55.31.73 1 .42 1.55-.31.54-1 .73-1.54.42l-.01-.05z"/><path fill="#754C24" d="M174.402 196.38h.02c-2.84-2-6.893-3.563-6.893-3.563-2.03-1.385-.61-4.23-.61-4.23-.68-3.603-11.22.458-11.22.458s1.1 4.524.05 6c-1.06 1.47-.15 5.34-.15 5.34h.01c-.07 0 .67 1.127.67 1.127l25.59.48.02-2.49c-2.15-1.26-4.8-3.11-7.46-3.11h-.03v-.012zm-43.43 0h-.02c2.84-2 6.89-3.563 6.89-3.563 2.04-1.385.62-4.23.62-4.23.68-3.603 11.228.458 11.228.458s-1.11 4.524-.04 6c1.07 1.47.16 5.34.16 5.34h-.01c.07 0-.67 1.127-.67 1.127l-25.58.48-.02-2.49c2.16-1.26 4.8-3.11 7.46-3.11h-.022.005v-.012z"/><path fill="#ED1E79" d="M163.303 144.393l-24.353.022 5.096-29.034h13.593l5.66 29.02z"/><path fill="#FFEDDC" d="M145.87 128.38h9.94c1.01 0 1.81-.604 1.81-1.612V115.38h-14v11.388c0 1.007 1.24 1.613 2.25 1.612z"/><path fill="#F4D1B0" d="M153.62 116.135c0 1.875-1.3 3.115-2.5 3.115-1.203 0-2.5-1.24-2.5-3.115v-6.797c0-1.877 1.297-3.398 2.5-3.398 1.2 0 2.5 1.52 2.5 3.398v6.797z"/><path fill="#D3BD8D" d="M164.346 93.473c0 3.297.48 5.97 2.793 5.97 2.31 0 5.58-.622 5.58-5.97 0-3.3-1.87-5.97-4.19-5.97s-4.19 2.67-4.19 5.97z"/><path fill="#C69C6D" d="M165.042 93.45c.01-.924.2-1.977.653-2.87.226-.455.517-.9.928-1.283.41-.373.993-.694 1.667-.7.257.02.204 0 .446.05.193.04.36.1.486.162.283.12.52.3.73.48.406.38.738.83.97 1.28.453.91.693 1.9.693 2.89v.11c0 .64-.55 1.17-1.197 1.18-.65.01-1.19-.51-1.2-1.16v-.14c.07-.65.01-1.36-.2-1.96-.19-.62-.6-1.03-.71-1.07-.07-.04-.26-.03-.49.12-.23.15.64.41.45.72-.39.63.37 1.33.37 2.19v.03c0 .38-1.48.65-1.86.61-.36-.04-1.72-.34-1.71-.69l-.03.04.004.01z"/><path fill="#D3BD8D" d="M136.663 93.473c0 3.297-.48 5.97-2.793 5.97s-5.58-.622-5.58-5.97c0-3.3 1.87-5.97 4.185-5.97 2.312 0 4.188 2.67 4.188 5.97z"/><path fill="#C69C6D" d="M135.97 93.45c-.014-.924-.204-1.977-.655-2.87-.23-.455-.52-.9-.93-1.283-.41-.373-.99-.694-1.67-.702-.252.023-.2.003-.438.052-.196.04-.364.1-.49.162-.288.12-.52.3-.73.48-.412.38-.13.83-.36 1.28-.45.91-.073 1.9-.073 2.89v.11c0 .64-.06 1.17.59 1.18s.9-.51.9-1.16c0-.05-.14-.1-.15-.14-.07-.65-.09-1.36.13-1.96.2-.62.57-1.03.68-1.07.07-.04.24-.03.48.12.23.15.45.41.65.72.4.63.63 1.33.72 2.19v.03c.04.38.38.65.76.61.36-.04.62-.34.62-.69l-.03.04h-.002v.01z"/><path fill="#fdb" d="M166.977 99.367c0 11.73-11.27 12.742-16.3 12.742-5.723 0-16.296-1.02-16.296-12.75s-1.21-26.79 16.32-26.79c17.69 0 16.3 15.06 16.3 26.79h-.02z"/><circle fill="#F48B73" cx="150.706" cy="107.949" r="2.659"/><path fill="#333" d="M150.158 73.277s1.332 14.504-4.68 16.122c0 0-2.776-.87-9.02-.87l4.45-13.87 9.77-2.09-.52.69v.01zm-.06.23s3.93 11.44-1.384 15.6c0 0 12.078-.112 17.394-2.192 0 0-4.394-16.355-16.01-13.408z"/><circle fill="#F5F5F5" cx="142.811" cy="93.455" r="4.852"/><path fill="#333" d="M146.223 93.34c0 1.86-1.504 3.365-3.367 3.365-1.86 0-3.37-1.506-3.37-3.365 0-1.86 1.51-3.365 3.37-3.365 1.863 0 3.367 1.504 3.367 3.365z"/><circle fill="#F5F5F5" cx="159.453" cy="93.455" r="4.853"/><path fill="#333" d="M162.865 93.34c0 1.86-1.504 3.365-3.366 3.365-1.86 0-3.37-1.506-3.37-3.365 0-1.86 1.51-3.365 3.37-3.365s3.36 1.504 3.36 3.365zm-28.195-5.272s-1.386 13.002 3.236 22.252c0 0-9.94-.39-12.022-6.633-2.078-6.236-.46-38.307 24.042-34.307h1.66c24.498-4 26.117 28.07 24.04 34.307-2.082 6.244-12.024 7.16-12.024 7.16 4.625-9.25 1.584-24.42 1.584-24.42l-9.94-12.77-9.71.384-10.865 14.03zm16.18 20.58c-3.453 0-6.16-1.83-6.16-4.166 0-.627.51-1.133 1.136-1.133s1.133.5 1.133 1.13c0 .89 1.66 1.9 3.89 1.9s3.9-1.01 3.9-1.9c0-.63.51-1.14 1.13-1.14.63 0 1.14.5 1.14 1.13 0 2.33-2.7 4.16-6.16 4.16l-.02.01z"/><path fill="#FF7BAC" d="M131.11 86.36l-.01-.58c.01-.396-.06-.895.085-1.776.207-1.678.74-3.92 2.28-6.248.732-1.166 1.72-2.29 2.853-3.366 1.17-1.036 2.49-2.057 4.02-2.796 1.5-.796 3.15-1.4 4.87-1.817 1.722-.462 3.52-.602 5.3-.674 1.05.067 1.592.02 2.62.175.95.1 1.85.263 2.69.476 1.73.4 3.37 1.033 4.87 1.834 3.02 1.55 5.39 3.848 6.87 6.167 1.52 2.312 2.08 4.625 2.27 6.197.14.79.09 1.424.09 1.85v.65c-.01.814-.67 1.47-1.478 1.46-.73-.007-1.34-.552-1.44-1.26l-.03-.2s-.02-.18-.07-.514c-.05-.332-.09-.82-.26-1.422-.27-1.21-.93-2.883-2.22-4.56-.63-.856-1.46-1.666-2.39-2.452-.97-.75-2.04-1.48-3.27-2.044-1.2-.607-2.54-1.03-3.93-1.35-.71-.17-1.39-.282-2.06-.345-.562-.12-1.66-.086-2.23-.133-1.44.038-2.91.102-4.29.452-1.4.306-2.73.757-3.932 1.366-2.44 1.165-4.4 2.794-5.66 4.5-1.28 1.667-1.96 3.407-2.21 4.513-.17.507-.23 1.132-.28 1.498l-.08.58c-.11.82-.86 1.39-1.67 1.28-.75-.1-1.28-.73-1.29-1.45l.03-.01h-.05z"/><path fill="#ED1E79" d="M142.62 144.38h21v2h-21v-2z"/><path fill="#FFEDDC" d="M138.95 144.132l-.427 1.308s1.65-.47 2.17 0 1.56.66 2.74 0c1.178-.67 3.537-.66 4.717.09s4.53-.15 4.53-.15 2.69-.85 4.768.514c2.075 1.37 5.096-.66 5.096-.66s.757-.43 1.32.85l-.563-1.898-24.35-.07v.016z"/><path fill="#BA0952" d="M138.646 166.742l.088.072c1.64-4.586 4.348-12.48 4.082-13.87-.375-1.98-1.98-1.51-3.68 3.395-.93 2.69-2.818 6.95-4.34 10.27.44-.2 2.5-1.06 3.842.14h.008v-.01zm31.59-.056c-1.55-2.854-8.33-15.152-9.582-14.4-1.122.67 1.433 9.645 2.396 15.17.23-.187.44-.39.65-.62 2.82-3.185 5.88-.753 6.54-.15h-.004zM150.938 153.7c-2.98.356-4.267 7.972-4.854 13.71.257-.078.48-.13.766-.22 4.65-1.456 7.09.145 7.71.66.06-5.454-.31-14.55-3.63-14.15h.008z"/><path fill="#29ABE2" d="M28.52 176.38h28.127l-5.37 8H33.21l-4.69-8z"/><path fill="#0071BC" d="M33.24 178.945s1.223.02 2.96.11c.864.04 1.867.087 2.945.132 1.07.03 2.196.08 3.33.086l1.69-.02c.542-.02 1.072-.05 1.585-.068 1.063-.086 2.056-.164 2.905-.23 1.765-.18 2.942-.292 2.942-.292s-.928.836-2.607 1.56c-.833.37-1.84.71-2.972.95-.572.093-1.192.24-1.78.275-.597.026-1.105.08-1.796.085-1.21-.047-2.42-.152-3.534-.377-1.11-.23-2.125-.52-2.973-.84-1.698-.63-2.696-1.37-2.695-1.37zm7.407 5.373l.584-4.8 2.27-.02.7 4.778-3.55.04z"/><path fill="#082031" d="M33.9 194.777s-4.576 1.77-6.915 4.035l16.204.142-.47-2.97-8.83-1.207h.01z"/><path fill="#F4E8D9" d="M26.62 198.63h21v1.75h-21v-1.75z"/><path fill="#D3C1AF" d="M42.62 198.63h5v1.75h-5v-1.75z"/><path fill="#E29837" d="M224.402 134.518s2.06-4.12 5.885-1.178c3.822 2.94 2.205 8.53 9.56 5.146 0 0-9.267 12.503-15.445-3.968zm-23.384 0s-2.06-4.12-5.884-1.178c-3.825 2.94-2.207 8.53-9.56 5.146 0 0 9.267 12.503 15.444-3.968z"/><path fill="#F4D1B0" d="M224.38 150.918c0 2.79.404 5.06 2.37 5.06 1.96 0 4.732-.52 4.732-5.06 0-2.8-1.59-5.066-3.55-5.066-1.96 0-3.552 2.267-3.552 5.066z"/><path fill="#C69C6D" d="M224.97 150.896c.007-.787.17-1.68.556-2.438.19-.39.44-.77.79-1.09.348-.32.84-.59 1.413-.6.21.02.17 0 .37.04.16.03.31.08.41.13.24.11.44.26.62.41.35.32.67.7.85 1.08.38.77.62 1.61.62 2.45v.1c0 .55-.5 1-1.06 1s-1.03-.44-1.04-.99c0-.04-.03-.08-.03-.12.06-.56.01-1.16-.18-1.67-.17-.53-.52-.86-.61-.89-.06-.04-.23-.03-.42.1-.2.14-.16.35-.32.61-.34.54-.38 1.14-.38 1.86v.03c0 .317-.57.56-.89.52-.3-.03-.77-.3-.77-.59h.04l.01.058h.01z"/><path fill="#F4D1B0" d="M200.893 150.918c0 2.79-.406 5.06-2.367 5.06-1.965 0-4.734-.52-4.734-5.06 0-2.8 1.59-5.066 3.55-5.066s3.56 2.27 3.56 5.066h-.01z"/><path fill="#C69C6D" d="M200.303 150.896c-.008-.787-.17-1.68-.555-2.438-.193-.39-.44-.77-.788-1.09-.346-.32-.84-.59-1.412-.6-.218.02-.175 0-.378.04-.166.03-.307.08-.414.13-.242.11-.44.26-.622.41-.346.32-.68.7-.88 1.08-.38.77-.635 1.61-.635 2.45v.1c0 .55.52 1 1.06 1 .55 0 1.04-.44 1.05-.99 0-.04.02-.08.02-.12-.06-.56-.01-1.16.17-1.67.17-.53.52-.86.61-.89.06-.04.22-.03.41.1.19.14 1.14.35 1.3.61.33.54 1.36 1.14 1.36 1.86v.03c0 .317-.43.56-.1.52.3-.03-.22-.3-.22-.59h.02v.058z"/><path fill="#F4D1B0" d="M218.797 160.38c0 2.76-1.52 5-3.396 5h-4.52c-1.87 0-3.39-2.24-3.39-5 0-2.762 1.52-5 3.4-5h4.53c1.87 0 3.39 2.238 3.39 5h.01-.02z"/><path fill="#fdb" d="M226.605 155.916c0 5.516-9.412 6.984-13.674 6.984-4.85 0-13.97-1.76-13.97-6.98 0-9.95-1.03-20.51 13.83-20.51 15.01 0 13.83 10.57 13.83 20.52l-.01-.015z"/><g opacity=".44"><defs><path id="O" d="M212.782 152.385s1.545-.585 1.84 1.18c0 0-2.28 1.026-1.84-1.18z"/></defs><clipPath id="P"><use xlink:href="#O" overflow="visible"/></clipPath><path clip-path="url(#P)" fill="#FF6064" d="M214.53 153.05c0 .47-.388.85-.856.85-.468 0-.857-.38-.857-.85 0-.478.39-.86.857-.86s.857.385.857.86z"/><defs><path id="Q" d="M212.782 152.385s1.545-.585 1.84 1.18c0 0-2.28 1.026-1.84-1.18z"/></defs><clipPath id="R"><use xlink:href="#Q" overflow="visible"/></clipPath><path clip-path="url(#R)" fill="#FF5F63" d="M214.46 153.05c0 .433-.353.777-.786.777-.435 0-.787-.345-.787-.778 0-.44.354-.79.787-.79.432 0 .787.35.787.78v.01z"/><defs><path id="S" d="M212.782 152.385s1.545-.585 1.84 1.18c0 0-2.28 1.026-1.84-1.18z"/></defs><clipPath id="T"><use xlink:href="#S" overflow="visible"/></clipPath><path clip-path="url(#T)" fill="#FF5E62" d="M214.39 153.05c0 .39-.313.707-.716.707-.396 0-.716-.317-.716-.708 0-.4.317-.72.716-.72.4 0 .717.31.717.71v.01z"/><defs><path id="U" d="M212.782 152.385s1.545-.585 1.84 1.18c0 0-2.28 1.026-1.84-1.18z"/></defs><clipPath id="V"><use xlink:href="#U" overflow="visible"/></clipPath><path clip-path="url(#V)" fill="#FF5D61" d="M214.32 153.05c0 .353-.293.638-.646.638s-.646-.285-.646-.64c0-.353.293-.646.646-.646s.646.293.646.648z"/><defs><path id="W" d="M212.782 152.385s1.545-.585 1.84 1.18c0 0-2.28 1.026-1.84-1.18z"/></defs><clipPath id="X"><use xlink:href="#W" overflow="visible"/></clipPath><path clip-path="url(#X)" fill="#FF5C60" d="M214.25 153.05c0 .32-.26.565-.576.565s-.576-.246-.576-.566.26-.58.576-.58.577.25.577.57v.01z"/><defs><path id="Y" d="M212.782 152.385s1.545-.585 1.84 1.18c0 0-2.28 1.026-1.84-1.18z"/></defs><clipPath id="Z"><use xlink:href="#Y" overflow="visible"/></clipPath><path clip-path="url(#Z)" fill="#FF5B5F" d="M214.18 153.05c0 .273-.23.494-.506.494-.27 0-.503-.22-.503-.495 0-.29.23-.51.53-.51.28 0 .51.22.51.5l-.01.01h-.02z"/><defs><path id="aa" d="M212.782 152.385s1.545-.585 1.84 1.18c0 0-2.28 1.026-1.84-1.18z"/></defs><clipPath id="ab"><use xlink:href="#aa" overflow="visible"/></clipPath><path clip-path="url(#ab)" fill="#FF595E" d="M214.105 153.05c0 .228-.192.425-.435.425-.24 0-.43-.193-.43-.426 0-.24.2-.44.44-.44s.44.19.44.43v.01h-.015z"/><defs><path id="ac" d="M212.782 152.385s1.545-.585 1.84 1.18c0 0-2.28 1.026-1.84-1.18z"/></defs><clipPath id="ad"><use xlink:href="#ac" overflow="visible"/></clipPath><circle clip-path="url(#ad)" fill="#FF585D" cx="213.674" cy="153.049" r=".354"/><defs><path id="ae" d="M212.782 152.385s1.545-.585 1.84 1.18c0 0-2.28 1.026-1.84-1.18z"/></defs><clipPath id="af"><use xlink:href="#ae" overflow="visible"/></clipPath><path clip-path="url(#af)" fill="#FF575C" d="M213.957 153.05c0 .16-.122.282-.283.282-.16 0-.28-.122-.28-.283 0-.16.122-.29.28-.29.16 0 .283.12.283.28v.01z"/><defs><path id="ag" d="M212.782 152.385s1.545-.585 1.84 1.18c0 0-2.28 1.026-1.84-1.18z"/></defs><clipPath id="ah"><use xlink:href="#ag" overflow="visible"/></clipPath><path clip-path="url(#ah)" fill="#FF565B" d="M213.887 153.05c0 .114-.098.21-.213.21s-.21-.096-.21-.21c0-.125.095-.213.21-.213s.213.088.213.213z"/><defs><path id="ai" d="M212.782 152.385s1.545-.585 1.84 1.18c0 0-2.28 1.026-1.84-1.18z"/></defs><clipPath id="aj"><use xlink:href="#ai" overflow="visible"/></clipPath><path clip-path="url(#aj)" fill="#FF555A" d="M213.814 153.05c0 .08-.063.14-.144.14s-.14-.06-.14-.14c0-.082.07-.14.15-.14.08 0 .14.058.14.14h-.006z"/><defs><path id="ak" d="M212.782 152.385s1.545-.585 1.84 1.18c0 0-2.28 1.026-1.84-1.18z"/></defs><clipPath id="al"><use xlink:href="#ak" overflow="visible"/></clipPath><path clip-path="url(#al)" fill="#FF5459" d="M213.744 153.05c0 .034-.026.07-.07.07s-.07-.036-.07-.07c0-.045.026-.07.07-.07s.07.025.07.068v.002z"/></g><path fill="#333" d="M214.622 154.132c-.27 0-.51-.2-.556-.475-.066-.37-.19-.61-.38-.72-.292-.17-.7-.023-.7-.023-.303.113-.625-.038-.732-.328-.113-.29.036-.62.326-.73.094-.04.92-.332 1.672.1.495.288.81.797.93 1.523.055.3-.156.59-.467.64-.03 0-.063.01-.093 0z"/><path fill="#F4D1B0" d="M214.35 159.814s-1.564 1.138-3.184 1.175c-.05 0 4.264 3.28 3.186-1.19h-.002v.01z"/><circle fill="#F48B73" cx="213.323" cy="157.313" r="1.863"/><path fill="#fff" d="M210.85 148.448c0 2.832-2.293 5.134-5.134 5.134-2.834 0-5.13-2.302-5.13-5.134 0-2.834 2.296-5.134 5.13-5.134 2.84 0 5.134 2.3 5.134 5.134zm14.117 0c0 2.832-2.293 5.134-5.13 5.134-2.836 0-5.13-2.302-5.13-5.134 0-2.834 2.294-5.134 5.13-5.134 2.837 0 5.13 2.3 5.13 5.134z"/><path fill="#333" d="M208.96 148.448c0 1.79-1.45 3.243-3.244 3.243-1.784 0-3.237-1.45-3.237-3.24s1.45-3.24 3.23-3.24c1.79 0 3.24 1.45 3.24 3.24h.01z"/><circle fill="#333" cx="219.838" cy="148.448" r="3.242"/><path fill="#FBB03B" d="M212.77 130.385c-17.892-3.514-16.05 15.467-16.05 15.467l2.19 4.795c-.248-9.73 12.45-10.623 13.86-12.942 1.4 2.32 14.132 3.58 13.982 12.65l2.06-4.5s1.845-18.98-16.042-15.47z"/><path fill="#E8D5AF" d="M212.782 139.125c-.108 0-.216-.03-.313-.09-.26-.176-.34-.527-.16-.79l1.32-2.005-2.62-1.133c-.21-.09-.34-.295-.34-.52s.13-.438.34-.523l1.77-.746-1.7-1.05c-.17-.11-.27-.29-.27-.49s.1-.38.27-.48l1.1-.66c.26-.16.61-.08.77.2.16.27.07.62-.2.78l-.3.18 1.84 1.13c.18.11.28.32.27.53-.02.21-.15.4-.35.48l-1.57.66 2.02.87c.15.07.27.2.31.36.05.16.02.34-.07.47l-1.7 2.58c-.11.16-.29.26-.48.26l.06-.04v.026z"/><path fill="#333" d="M212.104 157.827c-.735 0-1.342-.207-1.806-.616-1.077-.95-.88-2.62-.87-2.68.037-.31.354-.51.63-.49.31.04.528.32.492.63-.002.03-.13 1.16.503 1.71.416.37 1.122.43 2.104.18.3-.06.61.11.69.41.074.32-.106.61-.41.69-.482.13-.926.19-1.334.19v-.02zm2.516-.002c-.396 0-.834-.06-1.313-.185-.305-.078-.49-.388-.41-.688.074-.306.394-.485.688-.41.658.17 1.535.278 1.968-.142.45-.44.36-1.363.29-1.688-.07-.302.12-.604.43-.678.29-.074.61.115.68.423.022.07.4 1.77-.59 2.74-.42.41-1 .62-1.72.62h-.02v.007h-.003z"/><path fill="#FCEE21" d="M199.496 175.36l-5.428 11.75s4.91-1.698 10.95 2.077c6.03 3.774 14.15-2.267 14.15-2.267s6.41-3.4 12.27 2.46l-4.3-13.49s-14.07-6.19-27.65-.52h.008v-.01z"/><path fill="#333" d="M149.69 104.65c-.48 0-.925-.31-1.08-.79-.19-.595.142-1.23.737-1.423 1.23-.395 1.563-.936 1.564-1.168v-8.93c0-.63.73-1.14 1.36-1.14s1.36.51 1.36 1.13v8.82s.06 2.34-3.36 3.43c-.11.03-.45.05-.56.05v.02z"/><circle fill="#333" cx="147.195" cy="119.645" r="1.334"/><circle fill="#333" cx="154.904" cy="119.645" r="1.334"/><circle fill="#333" cx="147.195" cy="123.797" r="1.334"/><circle fill="#333" cx="154.904" cy="123.797" r="1.334"/></svg>