<svg xmlns="http://www.w3.org/2000/svg" width="256" height="256" viewBox="0 0 256 256"><path d="M172.35 234.007c-1.303 0-2.536-.637-3.288-1.723-.83-1.2-.94-2.76-.29-4.065 1.43-2.86 2.687-6.49 3.757-10.84h-7.29c.2 1.8.26 3.71.16 5.7-.11 2.13-1.87 3.8-4 3.8l-66.91-.32c-2.2-.01-3.98-1.8-3.98-4-.01-1.81.11-3.54.35-5.19h-5.09c1.09 3.7 2.28 6.86 3.57 9.44.64 1.28.54 2.8-.25 3.99-.75 1.12-2 1.79-3.34 1.79-.08 0-.16-.01-.25-.01-.56-.04-13.05-.88-24.78-6.33-3.53 2.98-6.73 4.49-9.53 4.49-.94 0-1.85-.16-2.68-.49-.69-.27-1.3-.64-1.82-1.12-13.06-9.13-18.15-32.32-15.15-68.92 1.82-22.19 6.73-48.43 13.47-71.99 4.75-16.65 11.83-37.14 18.52-40.2 3.69-1.69 7.9-2.55 12.51-2.55 3.22 0 6.59.41 10.08 1.22 3.23-21.79 24.2-24.85 44.6-24.85 12.33 0 40.35 0 44.92 23.76 1.07-.08 2.13-.13 3.16-.13 4.61 0 8.81.86 12.51 2.55 9.3 4.27 22.35 41.5 28.7 73.59 5.76 29.14 11.84 81.87-12.2 107.64-.22.23-.46.43-.72.6-.45.35-.96.64-1.52.85-.82.32-1.69.48-2.58.48-2.46 0-4.94-1.17-7.51-3.58-11.11 5.07-22.28 6.28-22.78 6.34-.14.02-.28.02-.42.02zm-41.59-208.13c21.965 0 40.048 3.707 41.473 24.233 2.084-.362 4.32-.598 6.612-.598 3.607 0 7.35.585 10.842 2.185 13.014 5.96 54.127 133.188 15.252 174.863l-.03-.03c-.19.204-.42.373-.73.493-.37.144-.75.21-1.13.21-2.34 0-4.89-2.427-6.62-4.463-11.4 5.916-24.09 7.237-24.09 7.237 2.19-4.392 3.87-10.085 5.14-16.626h-17.17c.85 2.62 1.27 5.74 1.09 9.51l-66.9-.32c-.01-3.61.51-6.64 1.41-9.18H80.57c1.417 5.88 3.13 11.08 5.205 15.23 0 0-13.932-.87-25.706-7.13-2.04 1.99-5.87 5.3-8.86 5.3-.43 0-.85-.06-1.23-.22-.31-.11-.53-.28-.7-.47C14.07 202.33 52.3 57.62 65.23 51.7c3.49-1.6 7.233-2.187 10.84-2.187 4.78 0 9.32 1.027 12.728 2.083.32-.215.644-.424.97-.632.95-21.278 18.72-25.084 40.992-25.084m0-8c-14.574 0-24.45 1.66-32.02 5.38-8.15 4.003-13.404 10.31-15.693 18.8-2.38-.368-4.71-.55-6.975-.55-5.188 0-9.957.98-14.175 2.91-2.67 1.224-9.764 4.474-20.7 42.74-6.81 23.807-11.77 50.327-13.61 72.767-3.12 37.933 2.48 62.28 16.633 72.38.837.72 1.79 1.29 2.857 1.706 1.305.508 2.695.765 4.133.765 3.23 0 6.573-1.273 10.13-3.87 11.713 4.87 23.38 5.652 23.938 5.687.17.01.338.012.5.012 2.675 0 5.185-1.338 6.67-3.584.52-.784.89-1.64 1.106-2.526.305.037.615.305.93.307l66.895.574h.04c1.03 0 2.03-.444 2.94-.805.06 1.49.53 2.84 1.41 4.11 1.5 2.172 3.97 3.384 6.58 3.384.27 0 .55-.043.83-.07.5-.054 10.81-1.19 21.72-5.69 2.67 1.954 5.4 2.933 8.15 2.933 1.39 0 2.75-.257 4.03-.757.9-.352 1.73-.82 2.48-1.397.44-.31.85-.67 1.22-1.068 25.25-27.074 19.1-81.255 13.19-111.143-3.43-17.337-8.38-34.827-13.94-49.25-9.09-23.563-14.65-26.18-17.03-27.27-4.22-1.93-8.99-2.976-14.18-2.976h-.06c-2.5-8-7.99-14.55-16.19-18.4-7.63-3.58-17.45-5.12-31.84-5.12z" fill="#333"/><path fill="#fff" d="M94.726 53.856s-16.484-8.12-29.496-2.16C52.216 57.656 13.552 204.27 49.98 226.56c0 0 22.073-25.77 73.29-21.468m36.92-151.236s16.486-8.12 29.496-2.16c13.014 5.96 54.127 133.188 15.252 174.863 0 0-22.074-25.77-73.285-21.47"/><path fill="#fff" d="M172.334 52.78c0-22.89-18.686-26.904-41.574-26.904-22.893 0-41.04 4.015-41.04 26.904 0 2.045.9 4.033.9 6v73.6h81V61.66c1-2.86.714-5.823.714-8.878z"/><path fill="#1A1A1A" d="M63.776 100.11l4.766 113.27h120.203l3.334-77.026L174.9 71.96z"/><path fill="#fff" d="M161.415 222.885c1.414-28.572-31.5-21-31.5-21l-2.898-.07s-32.54-7.86-32.498 20.746"/><path fill="#EAC7A7" d="M135.62 208.228c0 6.322-3.112 8.903-8.5 8.903-5.392 0-8.5-2.58-8.5-8.9v-22.89c0-6.32 3.108-11.44 8.5-11.44 5.388 0 8.5 5.13 8.5 11.45v22.9z"/><path fill="#D3BD8D" d="M174.864 126.068c0 11.11 1.61 20.108 9.396 20.108 7.795 0 18.805-2.085 18.805-20.108 0-11.118-6.313-20.104-14.096-20.104-7.8 0-14.11 8.986-14.11 20.104z"/><path fill="#C69C6D" d="M177.192 125.998c.043-3.118.68-6.667 2.207-9.68.76-1.53 1.74-3.025 3.12-4.313 1.38-1.257 3.33-2.335 5.61-2.373.86.088.68.01 1.5.178.64.138 1.21.336 1.64.547.96.423 1.74 1.028 2.46 1.648 1.39 1.287.13 2.78.89 4.313 1.52 3.084-.03 6.416-.03 9.75v.374c0 2.188.51 3.978-1.68 4.008-2.18.025-2.84-1.723-2.87-3.9 0-.162.56-.337.58-.48.24-2.2.33-4.593-.39-6.6-.66-2.108-1.88-3.43-2.26-3.557-.24-.12-.81-.104-1.59.42-.76.53 1.87 1.402 1.22 2.426-1.33 2.12.98 4.51.98 7.38v.12c0 1.27-4.68 2.2-5.96 2.06-1.21-.13-5.48-1.16-5.48-2.34z"/><path fill="#D3BD8D" d="M81.587 126.068c0 11.11-1.62 20.108-9.404 20.108s-18.8-2.085-18.8-20.108c0-11.118 6.306-20.104 14.1-20.104 7.788 0 14.104 8.986 14.104 20.104z"/><path fill="#C69C6D" d="M79.245 125.998c-.033-3.118-.676-6.667-2.197-9.68-.77-1.53-1.75-3.025-3.135-4.313-1.37-1.257-3.332-2.335-5.615-2.373-.855.088-.68.01-1.486.178-.654.138-1.223.336-1.646.547-.97.423-1.75 1.028-2.47 1.648-1.386 1.287-.238 2.78-1.017 4.313-1.52 3.084-.06 6.416-.06 9.75v.374c0 2.188-.42 3.978 1.75 4.008 2.2.025 2.93-1.723 2.95-3.9 0-.162-.55-.337-.57-.48-.24-2.2-.32-4.593.4-6.6.66-2.108 1.89-3.43 2.27-3.557.23-.12.8-.104 1.59.42.76.53 1.5 1.402 2.16 2.426 1.33 2.12 2.11 4.51 2.42 7.38l.01.12c.13 1.27 1.26 2.2 2.54 2.06 1.2-.13 2.1-1.16 2.09-2.34z"/><path fill="#fdb" d="M183.71 145.917c0 39.52-37.963 42.938-54.904 42.938-19.28 0-54.9-3.416-54.9-42.938 0-39.508-4.096-90.24 54.9-90.24 59.58 0 54.904 50.732 54.904 90.24z"/><path fill="#333" d="M122.507 162.218c-1.232 0-2.375-.787-2.773-2.028-.486-1.53.357-3.163 1.893-3.65 5.563-1.776 7.924-4.57 8.7-5.74l-2.116-30.677c-.11-1.602 1.11-2.992 2.71-3.1 1.61-.16 2.99 1.1 3.11 2.703l2.18 31.553c.03.46-.05.93-.23 1.35-.28.64-3.03 6.41-12.57 9.44-.29.09-.59.14-.88.14z"/><path fill="#D4145A" d="M136.956 174.835c0 4.943-4.006 8.958-8.96 8.958-4.946 0-8.952-4.015-8.952-8.958 0-4.95 4.006-8.96 8.953-8.96 4.953 0 8.96 4.01 8.96 8.96z"/><path fill="#E6E6E6" d="M55.665 215.3s-9.918 9.613-5.684 11.26c4.23 1.646 11.51-6.535 11.51-6.535m138.69-4.725s8.24 10.08 4.01 11.723c-4.23 1.648-9.83-6.998-9.83-6.998"/><path fill="#333" d="M74.872 107.86s-4.666 89.59 10.906 120.752c0 0-33.482-2.073-40.498-23.103-7.004-21.03-1.55-173.13 80.994-162.13h5.59c82.54-11 87.994 141.1 80.982 162.13C205.842 226.53 172.35 230 172.35 230c15.574-31.164 5.328-127.857 5.328-127.857l-33.488-42.94-32.71 1.36-36.608 47.293zm53.134 67.695c-10.723 0-19.12-5.448-19.12-12.397 0-1.206.974-2.183 2.18-2.183 1.204 0 2.18.977 2.18 2.183 0 4.352 6.763 8.037 14.76 8.037 7.993 0 14.747-3.686 14.747-8.037 0-1.206.98-2.183 2.18-2.183 1.205 0 2.184.977 2.184 2.183-.002 6.948-8.394 12.397-19.11 12.397zm2.01-110.155S93.67 119.415 56.78 116.88l39.126-54.175 33.986-7.98.123 10.678zm-.606.352s31.25 57.173 68.142 54.635l-34.387-57.684-34.725-7.26.97 10.31zm15.124 30.37c-.205.033 2.547-.634 5.818-.748 1.676.05 3.613-.06 5.63.235 2.038.14 4.157.49 6.237.98 2.1.35 4.11 1 5.98 1.61 1.89.53 3.61 1.16 5.02 1.83l4.74 2.04s-2.04-.36-5.08-.9c-1.49-.33-3.26-.53-5.16-.61-1.9-.16-3.9-.34-5.9-.21-1.99 0-3.96.14-5.77.44-1.83.15-3.45.64-4.84.92-2.81.81-3.96 1.46-4.15 1.53-1.99.71-4.17-.32-4.87-2.31-.71-1.99.32-4.17 2.3-4.87zm-32.004 6.674c-.14-.027-1.87-.695-5.143-1.388-3.21-.62-7.645-1.28-12.145-1.267-2.256-.06-4.535-.03-6.64.22-2.126.19-4.146.28-5.814.67-3.408.63-5.674 1.06-5.674 1.06l5.37-2.2c1.597-.74 3.565-1.26 5.68-1.9 2.103-.71 4.4-1.22 6.73-1.65 4.657-.98 9.47-1.27 13.124-1.33 3.607-.01 6.36.39 6.227.36 2.055.48 3.328 2.53 2.855 4.58-.468 2.06-2.52 3.34-4.57 2.87z"/><path fill="#fff" d="M96.966 63.083c-.213 0-.418.037-.627.067.03-.215.07-.416.07-.624 0-3.396-2.75-6.143-6.15-6.143s-6.15 2.747-6.15 6.143c0 .208.04.41.06.624-.21-.03-.41-.067-.62-.067-3.4 0-6.15 2.748-6.15 6.14 0 3.392 2.75 6.145 6.14 6.145.21 0 .4-.048.61-.068-.02.208-.07.413-.07.62 0 3.39 2.76 6.147 6.15 6.147s6.14-2.757 6.14-6.146c0-.2-.04-.41-.07-.62.21.02.42.07.63.07 3.39 0 6.14-2.75 6.14-6.14 0-3.39-2.75-6.14-6.14-6.14zm-6.89 11.537c-2.98 0-5.394-2.417-5.394-5.398 0-2.976 2.414-5.398 5.395-5.398 2.984 0 5.398 2.423 5.398 5.398 0 2.98-2.413 5.398-5.398 5.398zm79.854-11.537c-.206 0-.405.037-.612.067.02-.215.063-.416.063-.624 0-3.396-2.75-6.143-6.14-6.143s-6.14 2.747-6.14 6.143c0 .208.04.41.07.624-.2-.03-.41-.067-.62-.067-3.39 0-6.14 2.748-6.14 6.14 0 3.392 2.75 6.145 6.14 6.145.21 0 .42-.048.62-.068-.02.208-.06.413-.06.62 0 3.39 2.75 6.147 6.15 6.147s6.14-2.757 6.14-6.146c0-.2-.04-.41-.06-.62.21.02.41.07.61.07 3.4 0 6.15-2.75 6.15-6.14 0-3.39-2.75-6.14-6.15-6.14zm-6.88 11.537c-2.977 0-5.396-2.417-5.396-5.398 0-2.976 2.42-5.398 5.396-5.398 2.982 0 5.404 2.423 5.404 5.398 0 2.98-2.422 5.398-5.404 5.398zm-43.252-23.332c-.21 0-.414.046-.627.067.03-.21.07-.41.07-.622 0-3.387-2.75-6.145-6.14-6.145s-6.14 2.758-6.14 6.145c0 .212.05.413.07.622-.21-.02-.41-.067-.61-.067-3.39 0-6.14 2.752-6.14 6.146 0 3.39 2.76 6.14 6.15 6.14.21 0 .41-.038.62-.07-.02.213-.07.416-.07.627 0 3.4 2.75 6.15 6.15 6.15s6.15-2.75 6.15-6.14c0-.21-.04-.41-.07-.62.21.03.42.07.63.07 3.39 0 6.14-2.75 6.14-6.14 0-3.39-2.75-6.14-6.14-6.14zm-6.89 11.54c-2.98 0-5.4-2.41-5.4-5.394 0-2.983 2.42-5.406 5.4-5.406 2.985 0 5.397 2.423 5.397 5.406 0 2.985-2.41 5.393-5.396 5.393zm33.384-11.54c-.21 0-.408.046-.62.067.022-.21.067-.41.067-.622 0-3.387-2.76-6.145-6.15-6.145-3.4 0-6.15 2.758-6.15 6.145 0 .212.04.413.07.622-.22-.02-.42-.067-.63-.067-3.39 0-6.14 2.752-6.14 6.146 0 3.39 2.75 6.14 6.14 6.14.21 0 .41-.038.62-.07-.03.213-.07.416-.07.627 0 3.4 2.75 6.15 6.14 6.15 3.39 0 6.14-2.75 6.14-6.14 0-.21-.05-.41-.07-.62.21.03.41.07.62.07 3.39 0 6.14-2.75 6.14-6.14 0-3.39-2.76-6.14-6.15-6.14zm-6.883 11.54c-2.99 0-5.41-2.41-5.41-5.394 0-2.983 2.42-5.406 5.4-5.406 2.98 0 5.39 2.423 5.39 5.406 0 2.985-2.42 5.393-5.4 5.393z"/><path fill="#EAC7A7" d="M125.562 217.38h5.816c6.426 0 11.635-4.25 11.635-10.675 0-2.467-.777-4.26-2.082-6.138-6.01-.29-11.01 1.083-11.01 1.083l-2.9.044s-4.88-1.097-10.86-.886c-1.38 1.916-2.23 3.325-2.23 5.867 0 6.425 5.21 10.706 11.64 10.706z"/><path fill="#333" d="M101.99 139.232c-9.97 0-18.074-8.104-18.074-18.07 0-1.604 1.3-2.91 2.906-2.91 1.61 0 2.91 1.306 2.91 2.91 0 6.755 5.502 12.257 12.258 12.257s12.256-5.51 12.256-12.26c0-1.61 1.303-2.91 2.91-2.91s2.906 1.3 2.906 2.91c0 9.96-8.103 18.07-18.072 18.07zm52.022 0c-9.97 0-18.074-8.104-18.074-18.07 0-1.604 1.297-2.91 2.908-2.91 1.607 0 2.906 1.306 2.906 2.91 0 6.755 5.5 12.257 12.26 12.257 6.754 0 12.254-5.51 12.254-12.26 0-1.61 1.303-2.91 2.908-2.91 1.607 0 2.91 1.3 2.91 2.91 0 9.96-8.107 18.07-18.072 18.07z"/><radialGradient id="a" cx="62.889" cy="153.699" r="30.002" gradientTransform="matrix(.504 0 0 .504 67.321 72.035)" gradientUnits="userSpaceOnUse"><stop offset="0" stop-color="#FF585D"/><stop offset="1" stop-color="#FF585D" stop-opacity="0"/></radialGradient><circle opacity=".4" fill="url(#a)" cx="99.017" cy="149.5" r="15.121"/><radialGradient id="b" cx="177.899" cy="153.699" r="30.002" gradientTransform="matrix(.504 0 0 .504 67.321 72.035)" gradientUnits="userSpaceOnUse"><stop offset="0" stop-color="#FF585D"/><stop offset="1" stop-color="#FF585D" stop-opacity="0"/></radialGradient><circle opacity=".4" fill="url(#b)" cx="156.983" cy="149.5" r="15.122"/><path fill="none" stroke="#333" stroke-width="3" stroke-linecap="round" stroke-miterlimit="10" d="M82.953 134.38l6.333-4.332m78.667-1.334l5 5.667"/></svg>