<svg xmlns="http://www.w3.org/2000/svg" width="256" height="256" viewBox="0 0 256 256"><path d="M97.208 220.28c-9.726 0-38.615-.002-40.71-36.302-21.165-.79-25.675-16.103-25.675-29.004 0-8.323 2.58-16.013 6.917-21.395-.856-.25-1.648-.49-2.374-.72-8.777-2.74-11.113-9.87-11.137-15.33-6.06-1.62-10.62-4.54-13.58-8.72-4.58-6.46-3.42-13.5-3.37-13.8.32-1.88 1.94-3.27 3.85-3.32l28.76-.67c.43 0 .86.07 1.27.2-.15-.43-.29-.88-.4-1.31-.02-.06-.03-.11-.04-.17l-.27-1.18c-.02-.07-.03-.13-.04-.2l-.09-.53-.03-.17c-.02-.1-.04-.19-.05-.29-.02-.11-.04-.31-.05-.42l-.06-1.02c-.01-.08-.01-.15-.01-.22-.01-3.09.87-6.4 2.35-8.88 1.23-2.18 2.56-3.64 3.82-4.89l.07-.07c2.45-2.32 4.65-3.68 6.7-4.87 4.21-2.37 8.04-3.83 11.55-5.06 6.9-2.33 13.93-4.12 21.52-5.48 12.67-2.29 26.47-3.55 42.19-3.85.77-.01 1.53-.02 2.28-.02h.63c2.47-2.15 3.86-4.23 4.06-6.07.14-1.38-.4-2.79-1.66-4.31-1.24-1.49-1.24-3.65.01-5.13.78-.93 1.91-1.43 3.06-1.43.67 0 1.36.17 1.98.52.45.26 10.85 6.29 15.38 17.67 5.61.61 11.23 1.43 16.76 2.46 8.17 1.62 14.98 3.42 21.46 5.65 3.52 1.21 7.34 2.66 11.51 5.01 2 1.15 4.28 2.54 6.76 4.88l.07.07c1.26 1.25 2.6 2.72 3.85 4.93.03.06.07.12.1.18l.7 1.41.09.19c.36.83.72 1.92.95 2.93.01.04.27 1.31.27 1.31.03.15.05.3.06.45l.03.43.05.69.05 1.02v.31c-.04 1.74-.38 3.53-.94 5.2.07 0 .27-.01.3 0l28.67.66c1.91.05 3.52 1.43 3.85 3.32.05.29 1.21 7.33-3.37 13.79-2.96 4.18-7.52 7.1-13.57 8.72-.02 5.45-2.36 12.58-11.14 15.32-.73.23-1.52.47-2.37.72 4.34 5.38 6.92 13.07 6.92 21.4 0 12.6-4.31 27.49-24.22 28.92-1.35 24.47-14.79 36.38-41 36.38-6.3 0-12.66-.63-18.28-1.18-4.54-.44-8.83-.86-12.22-.86-4.03 0-8.8.45-13.85.92-5.99.55-12.17 1.13-18.4 1.13zm-34.2-110.49c.327-.823.668-1.63 1.02-2.42-1.895-.506-3.874-1.09-5.945-1.85l4.926 4.27zm130.632-2.575c.215.483.425.972.63 1.466l2.94-2.54c-1.224.41-2.412.76-3.57 1.08zM79.485 87.438c.333-.254.67-.504 1.01-.75-.775.12-1.552.25-2.33.385.435.123.875.245 1.32.365zm98.607-.145c.253-.07.503-.143.75-.215-.437-.074-.88-.146-1.33-.215.195.142.388.285.58.43zM136.735 39.72s9.984 5.693 13.897 16.315c.048.13.095.262.14.394.13.37.253.74.366 1.12l.023.07c6.32.61 12.64 1.5 18.97 2.68 6.94 1.38 13.84 3.07 20.89 5.5 3.53 1.22 7.08 2.6 10.86 4.71 1.9 1.09 3.84 2.3 5.97 4.3 1.08 1.06 2.18 2.26 3.2 4.07l.71 1.4c.27.62.55 1.49.73 2.26l.25 1.19.04.42.05.62.05.94c-.07 2.59-.94 5.11-2.01 6.73-1.07 1.73-2.21 2.85-3.3 3.84-2.18 1.85-4.16 2.89-6.08 3.82-3.83 1.8-7.41 2.85-10.96 3.76-.91.22-1.79.33-2.7.52 1.94 3.45 3.49 7.16 4.72 11.08L216.15 95l28.668.665s2.668 15.334-17.332 18.67c0 0 2.666 11.34-8 14.67-2.64.83-5.934 1.73-9.4 2.63 6.52 3.66 11.136 12.7 11.136 23.3 0 22.432-13.72 25.032-23.42 25.032-.24 0-.46-.01-.69-.02-.12 30.572-18.34 36.29-37.12 36.29-11.22 0-22.635-2.04-30.504-2.04-8.96 0-20.85 2.04-32.242 2.04-19.11 0-36.79-5.74-36.83-36.48-.67.14-1.38.212-2.15.212-9.7 0-23.41-2.6-23.41-25.04 0-10.6 4.62-19.64 11.14-23.3-3.464-.9-6.76-1.81-9.4-2.63-10.664-3.34-8-14.67-8-14.67-20-3.34-17.33-18.67-17.33-18.67l28.66-.66 24.96 21.63c1.29-4.31 2.94-8.37 5.05-12.12-1.13-.24-2.25-.4-3.39-.68-3.56-.9-7.13-1.95-10.96-3.74-1.93-.93-3.91-1.98-6.09-3.82-1.102-.99-2.234-2.1-3.31-3.84l-.75-1.36c-.28-.6-.58-1.46-.78-2.21l-.27-1.18-.07-.42-.045-.31-.03-.15-.01-.08-.06-1.02c-.01-2.6.8-5.17 1.82-6.85 1.02-1.82 2.12-3.01 3.19-4.08 2.13-2.01 4.07-3.22 5.97-4.32 3.78-2.13 7.33-3.5 10.86-4.74 7.05-2.38 13.97-4.07 20.91-5.31 13.86-2.52 27.82-3.54 41.56-3.8.74-.01 1.47-.01 2.21-.01.69 0 1.38 0 2.07.01 6.56-5.15 8.96-11.05 4.04-16.95M80.37 91.86c6.22-5.21 14.37-9.13 25.01-11.396l.018-.086c-5.17.25-10.32.556-15.437 1.07-6.31.67-12.58 1.498-18.39 2.896-2.41.575-4.66 1.285-6.63 2.06 1.83.934 3.86 1.82 6.03 2.59 3.04 1.06 6.22 1.99 9.47 2.817l-.05.05m96.85-.17c3.03-.81 6-1.71 8.83-2.72 2.19-.77 4.24-1.66 6.08-2.6-1.97-.77-4.22-1.47-6.61-2.04-5.83-1.35-12.12-2.17-18.45-2.71-4.56-.44-9.17-.72-13.8-.94 10.13 2.27 17.94 6.06 23.96 11.02m18.67-7.74c.05-.05.16-.13.2-.17.11-.11.14-.17.11-.17-.03 0-.16.11-.3.34m-134.75.03c-.02-.06-.06-.14-.11-.2-.1-.12-.16-.17-.17-.17-.02 0 .01.08.08.17.04.06.16.14.22.2m75.62-52.26c-2.31 0-4.57 1-6.14 2.87-2.48 2.97-2.49 7.28-.01 10.26.58.7.77 1.18.75 1.33-.04.37-.46 1.25-1.66 2.49-.46 0-.92.01-1.38.01-15.97.31-29.98 1.59-42.86 3.93-7.77 1.39-14.98 3.23-22.04 5.61l-.08.03c-3.68 1.29-7.7 2.82-12.13 5.32l-.1.06c-2.16 1.25-4.69 2.81-7.45 5.42l-.15.15c-1.38 1.38-2.99 3.14-4.45 5.72-1.86 3.12-2.91 7.08-2.9 10.9 0 .15.01.3.02.45l.06.91-25.17.58c-3.82.09-7.04 2.87-7.69 6.63-.16.91-1.39 9.12 4.05 16.79 3.05 4.3 7.43 7.45 13.07 9.43.82 5.78 3.96 11.9 11.1 15.13-3.02 5.5-4.74 12.2-4.74 19.28 0 12.57 3.8 21.77 11.29 27.35 3.98 2.96 8.81 4.74 14.68 5.4 1.35 12.57 6.03 22.03 13.96 28.17 7.39 5.72 17.06 8.39 30.46 8.39 6.41 0 12.97-.61 18.76-1.14 4.96-.46 9.64-.89 13.48-.89 3.2 0 7.4.41 11.84.85 5.71.56 12.18 1.19 18.67 1.19 13.09 0 23.03-2.71 30.4-8.3 8.17-6.2 12.97-15.75 14.33-28.44 5.21-.78 9.57-2.5 13.21-5.21 7.49-5.58 11.29-14.78 11.29-27.35 0-7.08-1.72-13.79-4.74-19.28 7.14-3.23 10.28-9.35 11.1-15.12 5.65-1.98 10.03-5.13 13.08-9.43 5.44-7.68 4.2-15.89 4.05-16.8-.65-3.77-3.88-6.54-7.69-6.63l-24.19-.56c.03-.4.05-.8.06-1.19.01-.21 0-.42-.01-.63l-.05-.95c0-.04 0-.09-.01-.13l-.04-.62-.01-.15-.03-.43c-.02-.3-.07-.61-.13-.91l-.25-1.2-.05-.24c-.29-1.25-.72-2.56-1.18-3.61l-.18-.39-.7-1.41c-.06-.12-.13-.24-.19-.36-1.5-2.64-3.12-4.41-4.52-5.79l-.15-.15c-2.79-2.63-5.31-4.17-7.45-5.41-.03-.02-.07-.03-.1-.05-4.46-2.5-8.65-4.08-12.15-5.29-6.67-2.3-13.64-4.14-21.94-5.79l-.1-.02c-4.87-.91-9.82-1.66-14.75-2.25-5.29-10.99-14.97-16.75-16.14-17.42-1.24-.7-2.61-1.05-3.96-1.05z" fill="#333"/><path d="M186.107 121.048l30-26 28.667.667s2.666 15.333-17.334 18.667c0 0 2.666 11.334-8 14.667s-32 8-32 8M69.893 121.04l-30-26-28.667.667S8.56 111.047 28.56 114.38c0 0-2.666 11.334 8 14.667s32 8 32 8" fill="#ccc"/><path fill="#F4D1B0" d="M186.062 154.975c0 13.825 2.008 25.036 11.7 25.036 9.702 0 23.415-2.6 23.415-25.03 0-13.82-7.855-25.03-17.555-25.03-9.697 0-17.56 11.21-17.56 25.04z"/><path fill="#C69C6D" d="M188.972 154.88c.04-3.876.84-8.29 2.738-12.04.96-1.91 2.18-3.758 3.904-5.366 1.707-1.57 4.15-2.92 6.984-2.956 1.078.103.855.006 1.867.22.813.168 1.508.412 2.05.686 1.196.527 2.17 1.275 3.065 2.05 1.723 1.61 2.15 3.457 3.106 5.366 1.898 3.842 1.932 7.99 1.932 12.136v.478c0 2.718-1.342 4.943-4.055 4.975-2.715.03-4.538-2.15-4.573-4.86 0-.2.218-.41.235-.6.3-2.73.162-5.71-.725-8.22-.822-2.62-2.473-4.26-2.947-4.43-.29-.15-1.058-.13-2.034.53-.95.66-1.91 1.74-2.72 3.01-1.67 2.64-2.65 5.61-3.02 9.19l-.02.14c-.17 1.6-1.6 2.76-3.2 2.59-1.5-.17-2.61-1.45-2.6-2.92z"/><path fill="#F4D1B0" d="M69.935 154.975c0 13.825-2.004 25.036-11.7 25.036-9.7 0-23.41-2.6-23.41-25.03 0-13.82 7.856-25.03 17.552-25.03s17.558 11.21 17.558 25.04z"/><path fill="#C69C6D" d="M67.026 154.88c-.037-3.876-.84-8.29-2.736-12.04-.96-1.91-2.182-3.758-3.9-5.366-1.715-1.57-4.154-2.92-6.992-2.956-1.072.103-.848.006-1.86.22-.812.168-1.515.412-2.05.686-1.2.527-2.17 1.275-3.07 2.05-1.72 1.61-2.532 3.457-3.493 5.366-1.893 3.842-2.305 7.99-2.305 12.136v.478c0 2.718 1.72 4.943 4.43 4.975 2.72.03 4.734-2.15 4.77-4.86 0-.2-.122-.41-.144-.6-.3-2.73-.12-5.71.776-8.22.82-2.62 2.497-4.26 2.97-4.43.292-.15 1.064-.13 2.046.53.943.66 1.91 1.74 2.72 3.01 1.67 2.64 2.65 5.61 3.026 9.19l.014.14c.172 1.6 1.598 2.76 3.192 2.59 1.498-.17 2.614-1.45 2.606-2.92z"/><path fill="#fdb" d="M197.077 179.697c0 49.194-46.54 34.54-67.623 34.54-23.994 0-69.076 14.654-69.076-34.54 0-49.195-5.092-101.436 68.352-101.436 74.166.01 68.347 52.25 68.347 101.44z"/><path fill="#8C6239" d="M105.71 78.987s.48-9.21 15.023-15.513c14.545-6.302 23.27-15.027 16.002-23.755 0 0 24.717 14.06 11.63 39.26-13.087 25.21-32.958 26.66-42.655 11.63 0 0-1.938-4.36 0-11.64z"/><path fill="#A67C52" d="M142.548 45.54c7.27 8.725-1.453 17.45-15.996 23.752-14.54 6.3-15.027 15.514-15.027 15.514-1.936 7.27 0 11.632 0 11.632.207.314.438.58.646.88 10.5 6.94 25.58 2.123 36.2-18.33 7.22-13.887 2.94-24.376-2.35-31.005-2-1.6-3.46-2.444-3.46-2.444z"/><path fill="#F4FF00" d="M212.788 84.81l-.043-.624-.037-.426-.242-1.187c-.182-.767-.463-1.64-.732-2.26l-.705-1.41c-1.03-1.808-2.13-3.002-3.2-4.068-2.13-2.004-4.07-3.21-5.97-4.306-3.78-2.12-7.33-3.5-10.86-4.72-7.04-2.43-13.95-4.13-20.89-5.51-13.9-2.59-27.69-3.85-41.71-3.64-13.74.26-27.7 1.28-41.56 3.79-6.94 1.25-13.85 2.94-20.9 5.32-3.53 1.23-7.08 2.61-10.85 4.73-1.9 1.1-3.84 2.3-5.97 4.31-1.07 1.07-2.17 2.26-3.19 4.07-1.02 1.68-1.82 4.25-1.81 6.85l.06 1.02.01.08.03.15.04.31.07.42.26 1.17c.2.75.5 1.61.78 2.21l.75 1.35c1.07 1.74 2.2 2.86 3.31 3.84 2.18 1.85 4.16 2.89 6.08 3.82 3.83 1.8 7.4 2.84 10.96 3.74 1.15.29 2.27.44 3.41.69 2.7-4.78 6.11-9.08 10.49-12.74-3.25-.83-6.43-1.76-9.47-2.82-2.17-.77-4.2-1.66-6.03-2.6 1.97-.77 4.22-1.48 6.63-2.06 5.81-1.4 12.08-2.23 18.39-2.9 5.33-.54 10.71-.85 16.1-1.11 6.58-1.35 14.07-2.09 22.68-2.09 9.39 0 17.49.85 24.49 2.41 4.63.22 9.25.5 13.82.94 6.32.54 12.62 1.35 18.45 2.71 2.39.56 4.64 1.27 6.61 2.04-1.85.94-3.9 1.83-6.08 2.6-2.84 1.01-5.81 1.91-8.84 2.72 4.43 3.65 7.87 7.95 10.56 12.75.9-.19 1.8-.3 2.71-.52 3.56-.91 7.13-1.96 10.96-3.76 1.92-.94 3.9-1.98 6.08-3.83 1.1-.99 2.24-2.11 3.31-3.84 1.07-1.62 1.95-4.14 2.02-6.73l-.06-.95zM61.005 83.78c.053.06.088.132.115.2-.06-.064-.174-.146-.217-.2-.11-.17-.134-.28.102 0zm135.062-.004c-.033.044-.15.125-.193.175.25-.4.45-.43.193-.17z"/><radialGradient id="a" cx="-818.528" cy="-78.596" r="29.998" gradientTransform="matrix(.723 0 0 .723 679.961 234.322)" gradientUnits="userSpaceOnUse"><stop offset="0" stop-color="#FF585D"/><stop offset="1" stop-color="#FF585D" stop-opacity="0"/></radialGradient><circle opacity=".7" fill="url(#a)" cx="87.919" cy="177.475" r="21.697"/><radialGradient id="b" cx="-703.536" cy="-78.596" r="29.998" gradientTransform="matrix(.723 0 0 .723 679.961 234.322)" gradientUnits="userSpaceOnUse"><stop offset="0" stop-color="#FF585D"/><stop offset="1" stop-color="#FF585D" stop-opacity="0"/></radialGradient><circle opacity=".7" fill="url(#b)" cx="171.093" cy="177.475" r="21.697"/><path fill="#F5F5F5" d="M118.466 142.777c0 14.013-11.34 25.39-25.367 25.39-14.02 0-25.37-11.377-25.37-25.39 0-14 11.35-25.366 25.37-25.366 14.02 0 25.36 11.37 25.36 25.37z"/><path fill="#333" d="M109.122 142.777c0 8.863-7.174 16.032-16.023 16.032-8.84 0-16.03-7.17-16.03-16.04 0-8.85 7.18-16.01 16.02-16.01 8.85 0 16.02 7.16 16.02 16z"/><path fill="#F5F5F5" d="M188.27 142.777c0 14.013-11.34 25.39-25.364 25.39-14.016 0-25.37-11.377-25.37-25.39 0-14 11.354-25.366 25.37-25.366 14.025 0 25.365 11.37 25.365 25.37z"/><path fill="#333" d="M178.93 142.777c0 8.863-7.173 16.032-16.024 16.032-8.842 0-16.027-7.17-16.027-16.04 0-8.85 7.18-16.01 16.02-16.01 8.85 0 16.02 7.16 16.02 16zm-56.425 46.475c-3.68 0-6.69-1.026-9-3.064-5.38-4.758-4.39-13.052-4.346-13.404.2-1.594 1.67-2.743 3.25-2.517 1.59.206 2.71 1.652 2.52 3.245-.01.057-.63 5.635 2.44 8.327 2.04 1.79 5.52 2.07 10.32.85 1.57-.42 3.14.54 3.53 2.1.39 1.56-.55 3.14-2.1 3.53-2.4.61-4.61.92-6.62.92zm12.448-.004c-1.96 0-4.143-.3-6.533-.914-1.56-.398-2.5-1.98-2.102-3.535.396-1.56 2.006-2.5 3.532-2.11 3.223.81 7.506 1.37 9.61-.69 2.18-2.12 1.737-6.64 1.382-8.2-.352-1.57.62-3.13 2.184-3.48 1.574-.36 3.115.6 3.486 2.16.08.35 1.99 8.81-2.97 13.66-2.1 2.06-4.972 3.09-8.59 3.09z"/><path fill="#F4D1B0" d="M133.617 193.15s-7.752 5.818-15.75 5.818c-8.002 0 21.08 16.24 15.75-5.82z"/><radialGradient id="c" cx="-760.724" cy="-93.113" r="10.076" gradientTransform="matrix(.723 0 0 .723 679.961 234.322)" gradientUnits="userSpaceOnUse"><stop offset="0" stop-color="#FF585D"/><stop offset="1" stop-color="#FF585D" stop-opacity="0"/></radialGradient><circle opacity=".7" fill="url(#c)" cx="129.729" cy="166.975" r="7.288"/><path fill="#333" d="M134.947 170.975c-1.39 0-2.627-1.008-2.863-2.435-.303-1.79-.904-2.958-1.797-3.47-1.195-.69-3.002-.25-3.39-.107-1.495.567-3.187-.174-3.75-1.684-.57-1.5.18-3.19 1.68-3.75.462-.18 4.6-1.67 8.35.48 1.706.98 3.897 3.09 4.647 7.56.266 1.58-.81 3.09-2.396 3.34-.155.03-.324.04-.48.04z"/></svg>