<svg xmlns="http://www.w3.org/2000/svg" width="256" height="256" viewBox="0 0 256 256"><path fill="#fff" d="M126.544 245.112c-18.807 0-33.515-2.845-44.964-8.697-17.024-8.703-26.187-23.65-27.274-44.468-21.154-.795-25.664-16.105-25.664-29.004 0-8.275 2.606-16.077 7.01-21.504l-.56-.41-.26-.27c-12.335-12.96-17.368-27.08-14.958-41.97 6.096-37.68 58.692-69.4 81.023-81.29 8.243-4.39 17.188-6.62 26.586-6.62 26.65 0 50.74 18.04 60.002 25.94 20.983 14.9 46.454 38.16 49.016 64.57 1.36 13.97-3.82 27.21-15.39 39.37l-.34.36-3.41 2.14c3.59 5.3 5.65 12.32 5.65 19.67 0 12.6-4.3 27.5-24.21 28.92-1.89 34.38-27.38 53.24-72.23 53.24z"/><path fill="#333" d="M127.483 14.888c25.166 0 47.995 16.937 57.542 25.104 31.642 22.43 68.728 60.675 33.184 98.016l-6.84 4.293c4.6 4.52 7.62 12.08 7.62 20.65 0 22.44-13.71 25.04-23.41 25.04-.24 0-.47-.01-.69-.02-.19 48.93-47.31 53.16-68.35 53.16-23.98 0-68.29-4.24-68.35-53.34-.67.14-1.38.21-2.15.21-9.7 0-23.41-2.6-23.41-25.03 0-9.49 3.7-17.76 9.17-22l-4.08-2.93c-51.08-53.67 48.5-108.17 65.05-116.98 8.23-4.38 16.59-6.14 24.7-6.14m0-8C117.41 6.92 107.83 9.3 99 14c-15.89 8.46-30.78 18.12-43.05 27.94C32.38 60.77 18.91 79.7 15.92 98.15c-2.51 15.55 2.36 30.245 14.48 43.71-3.684 5.796-5.754 13.17-5.754 21.08 0 12.567 3.8 21.77 11.292 27.347 3.968 2.954 8.796 4.737 14.654 5.396 2.04 20.3 12.02 35.52 29.17 44.287 12.028 6.147 27.33 9.136 46.787 9.136 18.12 0 33.45-3.05 45.56-9.07 17.9-8.9 28.31-24.21 30.4-44.544 5.2-.777 9.56-2.5 13.2-5.207 7.49-5.578 11.29-14.78 11.29-27.35 0-6.698-1.49-13.03-4.22-18.36l.54-.333.69-.726c12.4-13.032 17.95-27.334 16.48-42.507-2.7-27.85-28.9-51.96-50.54-67.34-11.9-10.12-35.58-26.78-62.47-26.78z"/><path fill="#F4D1B0" d="M183.882 162.943c0 13.83 2.006 25.036 11.703 25.036s23.408-2.6 23.408-25.04c0-13.83-7.855-25.04-17.555-25.04-9.693 0-17.556 11.21-17.556 25.03z"/><path fill="#C69C6D" d="M186.79 162.85c.04-3.875.84-8.29 2.738-12.04.96-1.906 2.182-3.76 3.902-5.366 1.71-1.57 4.152-2.92 6.988-2.954 1.074.103.852.006 1.863.22.82.168 1.52.41 2.06.682 1.2.527 2.17 1.28 3.07 2.053 1.72 1.607.74 3.46 1.7 5.367 1.9 3.844.53 7.988.53 12.133v.48c0 2.713.07 4.94-2.64 4.977-2.72.033-3.83-2.143-3.87-4.857 0-.193.57-.41.59-.6.3-2.728.35-5.708-.54-8.218-.82-2.61-2.38-4.255-2.86-4.424-.28-.147-1.01-.124-1.98.533-.95.66-1.88 1.744-2.69 3.01-1.66 2.648-2.63 5.62-3.01 9.2v.142c-.17 1.594-1.59 2.754-3.19 2.585-1.5-.163-2.6-1.446-2.6-2.923z"/><path fill="#F4D1B0" d="M67.753 162.943c0 13.83-2.004 25.036-11.7 25.036s-23.41-2.6-23.41-25.04c0-13.83 7.854-25.04 17.55-25.04 9.7 0 17.56 11.21 17.56 25.03z"/><path fill="#C69C6D" d="M64.845 162.85c-.04-3.875-.84-8.29-2.736-12.04-.97-1.906-2.19-3.76-3.91-5.366-1.71-1.57-4.16-2.92-6.99-2.954-1.08.103-.86.006-1.87.22-.82.168-1.51.41-2.05.682-1.2.527-2.17 1.28-3.07 2.053-1.73 1.607-3.44 3.46-4.4 5.367-1.9 3.844-3.22 7.988-3.22 12.133v.48c0 2.713 2.63 4.94 5.34 4.977 2.71.033 5.18-2.143 5.22-4.857 0-.193.1-.41.08-.6-.3-2.728-.01-5.708.88-8.218.82-2.61 2.55-4.255 3.03-4.424.29-.147 1.09-.124 2.06.533.95.66 1.93 1.744 2.74 3.01 1.66 2.648 2.66 5.62 3.03 9.2l.02.142c.17 1.594 1.6 2.754 3.19 2.585 1.5-.163 2.62-1.446 2.61-2.923z"/><path fill="#fdb" d="M194.897 187.667c0 49.197-47.264 53.445-68.354 53.445-23.996 0-68.35-4.248-68.35-53.445 0-49.196-5.09-112.345 68.35-112.345 74.17 0 68.354 63.15 68.354 112.345z"/><path fill="#333" d="M54.216 139.38l4.222 31.444 18.907-44.112M199.51 139.38l-4.222 31.444-18.904-44.112"/><path fill="#333" d="M150.786 209.127c-10.617-3.86-17.87-4.192-22.785-3.274-4.91-.918-12.17-.587-22.78 3.274-10.66 3.872-27.14-5.82-27.14-5.82s28.47 36.462 49.93 19.516c21.46 16.946 49.93-19.517 49.93-19.517s-16.48 9.693-27.14 5.82zm-43.606-71.314l-50.382.755c-3.217.05-5.863-2.515-5.914-5.735-.045-2.998 2.176-5.49 5.072-5.864l49.963-6.52c4.77-.63 9.15 2.74 9.77 7.51.62 4.78-2.75 9.15-7.52 9.77-.33.05-.67.07-1 .07zm42.903-17.36l49.963 6.517c3.19.413 5.44 3.34 5.02 6.525-.385 2.976-2.94 5.124-5.86 5.074l-50.386-.76c-4.81-.08-8.656-4.04-8.582-8.85.074-4.82 4.03-8.66 8.844-8.59.335 0 .675.03 1 .07z"/><path fill="#BDCCD4" d="M118.804 23.94s17.178-10.667 34.36-2.907c17.18 7.76 116.13 63.307 65.044 116.975l-20.305 12.748S123.096 53.03 87.66 57.88l31.144-33.94z"/><path fill="#A2B3BA" d="M129.454 79.69l71.436-27.15S171.5 29.512 160.763 31.7"/><path fill="#BDCCD4" d="M102.776 21.033C86.228 29.843-13.354 84.34 37.73 138.008l18.39 13.207S154.32 39.457 189.754 44.3c0 0-45.1-45.566-86.98-23.267z"/><path fill="#7C97A3" d="M139.633 46.245c0 6.43-5.203 11.64-11.633 11.64-6.426 0-11.633-5.21-11.633-11.64 0-6.426 5.207-11.638 11.633-11.638 6.43 0 11.633 5.212 11.633 11.638z"/><path fill="#C69C6D" d="M132.613 110.233c0 2.55-2.064 4.61-4.613 4.61-2.545 0-4.613-2.06-4.613-4.61 0-2.546 2.068-4.606 4.613-4.606 2.55 0 4.613 2.06 4.613 4.606z"/><path fill="#F5F5F5" d="M110.54 162.864c0 11.244-9.11 20.356-20.352 20.356-11.24 0-20.352-9.112-20.352-20.356 0-11.23 9.11-20.33 20.352-20.33 11.243 0 20.352 9.1 20.352 20.33z"/><path fill="#333" d="M104.5 162.39c0 7.805-6.317 14.126-14.124 14.126-7.8 0-14.125-6.32-14.125-14.125 0-7.8 6.33-14.11 14.13-14.11 7.81 0 14.13 6.32 14.13 14.12z"/><path fill="#F5F5F5" d="M186.163 162.864c0 11.244-9.107 20.356-20.348 20.356-11.244 0-20.355-9.112-20.355-20.356 0-11.23 9.11-20.33 20.355-20.33 11.24 0 20.348 9.1 20.348 20.33z"/><path fill="#333" d="M180.124 162.39c0 7.805-6.318 14.126-14.123 14.126-7.79 0-14.12-6.32-14.12-14.125 0-7.8 6.33-14.11 14.13-14.11 7.81 0 14.13 6.32 14.13 14.12z"/><linearGradient id="a" gradientUnits="userSpaceOnUse" x1="1145.27" y1="734.195" x2="1145.27" y2="723.795" gradientTransform="matrix(7.466 0 0 7.466 -8424.73 -5257.445)"><stop offset="0" stop-color="#FF5459"/><stop offset=".789" stop-color="#FF6064" stop-opacity="0"/></linearGradient><path fill="url(#a)" d="M130.62 160.38v32.742s1.448 6.236-7.56 9.01l2.628-9.01-3.54-34.85"/><path fill="#333" d="M123.397 207.903c-1.232 0-2.38-.79-2.77-2.027-.49-1.527.356-3.163 1.89-3.65 8.006-2.55 7.7-7.12 7.682-7.32l-.02-35.23c0-1.607 2.11-2.91 3.72-2.91 1.6 0 3.72 1.303 3.72 2.91v34.902s.31 9.105-12.53 13.188c-.3.09-1.41.137-1.7.137z"/></svg>