<?xml version="1.0" encoding="utf-8"?>
<!-- Generator: Adobe Illustrator 16.0.0, SVG Export Plug-In . SVG Version: 6.00 Build 0)  -->
<!DOCTYPE svg PUBLIC "-//W3C//DTD SVG 1.1//EN" "http://www.w3.org/Graphics/SVG/1.1/DTD/svg11.dtd">
<svg version="1.1" id="Layer_1" xmlns="http://www.w3.org/2000/svg" xmlns:xlink="http://www.w3.org/1999/xlink" x="0px" y="0px"
	 width="256px" height="256px" viewBox="0 0 256 256" enable-background="new 0 0 256 256" xml:space="preserve">
<path fill="#333333" d="M172.35,234.007c-1.303,0-2.535-0.637-3.287-1.723c-0.83-1.2-0.94-2.761-0.291-4.065
	c1.431-2.859,2.688-6.49,3.758-10.84h-7.29c0.2,1.801,0.26,3.71,0.159,5.7c-0.109,2.13-1.869,3.8-4,3.8l-66.909-0.32
	c-2.2-0.01-3.98-1.8-3.98-4c-0.01-1.81,0.11-3.539,0.35-5.189h-5.09c1.09,3.699,2.28,6.859,3.57,9.439
	c0.64,1.28,0.54,2.801-0.25,3.99c-0.75,1.12-2,1.79-3.34,1.79c-0.08,0-0.16-0.01-0.25-0.01c-0.56-0.04-13.05-0.88-24.78-6.33
	c-3.53,2.979-6.73,4.49-9.53,4.49c-0.94,0-1.85-0.16-2.68-0.49c-0.69-0.271-1.3-0.64-1.82-1.12c-13.06-9.13-18.15-32.32-15.15-68.92
	c1.82-22.189,6.73-48.43,13.47-71.99c4.75-16.65,11.83-37.14,18.52-40.2c3.69-1.69,7.9-2.55,12.51-2.55c3.22,0,6.59,0.41,10.08,1.22
	c3.23-21.79,24.2-24.85,44.6-24.85c12.33,0,40.35,0,44.92,23.76c1.07-0.08,2.131-0.13,3.16-0.13c4.61,0,8.811,0.86,12.51,2.55
	c9.301,4.27,22.351,41.5,28.7,73.59c5.761,29.14,11.841,81.87-12.2,107.64c-0.22,0.229-0.459,0.43-0.72,0.601
	c-0.45,0.35-0.96,0.64-1.521,0.85c-0.819,0.32-1.689,0.48-2.579,0.48c-2.46,0-4.94-1.171-7.511-3.58
	c-11.109,5.069-22.279,6.279-22.779,6.34c-0.141,0.02-0.28,0.02-0.42,0.02L172.35,234.007z"/>
<path fill="#333333" d="M130.76,25.877c21.965,0,40.049,3.707,41.473,24.233c2.084-0.362,4.32-0.598,6.613-0.598
	c3.606,0,7.35,0.585,10.842,2.185c13.014,5.96,54.127,133.188,15.252,174.863l-0.03-0.03c-0.19,0.204-0.421,0.372-0.729,0.493
	c-0.371,0.144-0.75,0.209-1.131,0.209c-2.34,0-4.89-2.426-6.619-4.463c-11.4,5.916-24.091,7.237-24.091,7.237
	c2.19-4.392,3.87-10.085,5.14-16.626h-17.17c0.851,2.62,1.271,5.74,1.09,9.51l-66.899-0.32c-0.01-3.609,0.51-6.639,1.41-9.18H80.57
	c1.417,5.881,3.13,11.08,5.205,15.23c0,0-13.932-0.87-25.706-7.13c-2.04,1.989-5.87,5.3-8.86,5.3c-0.43,0-0.85-0.061-1.23-0.221
	c-0.31-0.109-0.53-0.279-0.7-0.469C14.07,202.33,52.3,57.62,65.23,51.7c3.49-1.6,7.233-2.187,10.84-2.187
	c4.78,0,9.32,1.027,12.728,2.083c0.32-0.215,0.644-0.424,0.97-0.632c0.95-21.278,18.72-25.084,40.992-25.084"/>
<path fill="#333333" d="M130.76,17.88c-14.574,0-24.45,1.66-32.02,5.38c-8.15,4.003-13.404,10.31-15.693,18.8
	c-2.38-0.368-4.71-0.55-6.975-0.55c-5.188,0-9.957,0.98-14.175,2.91c-2.67,1.224-9.764,4.474-20.7,42.74
	c-6.81,23.807-11.77,50.326-13.61,72.767c-3.12,37.933,2.48,62.28,16.633,72.38c0.837,0.721,1.79,1.291,2.857,1.707
	c1.305,0.508,2.695,0.764,4.133,0.764c3.23,0,6.573-1.272,10.13-3.869c11.713,4.869,23.38,5.652,23.938,5.687
	c0.17,0.011,0.338,0.013,0.5,0.013c2.675,0,5.185-1.338,6.67-3.584c0.52-0.784,0.89-1.641,1.106-2.526
	c0.305,0.037,0.615,0.305,0.93,0.308l66.895,0.573h0.04c1.03,0,2.03-0.444,2.94-0.805c0.06,1.489,0.529,2.84,1.41,4.11
	c1.5,2.172,3.969,3.383,6.58,3.383c0.27,0,0.549-0.043,0.83-0.069c0.5-0.054,10.809-1.19,21.719-5.69
	c2.67,1.954,5.4,2.934,8.15,2.934c1.391,0,2.75-0.258,4.03-0.758c0.899-0.352,1.729-0.819,2.479-1.396
	c0.44-0.311,0.851-0.67,1.221-1.068c25.25-27.074,19.1-81.254,13.189-111.143c-3.43-17.337-8.38-34.827-13.939-49.25
	c-9.09-23.563-14.65-26.18-17.03-27.27c-4.22-1.93-8.99-2.976-14.181-2.976h-0.06c-2.5-8-7.989-14.55-16.19-18.4
	c-7.629-3.58-17.449-5.12-31.84-5.12L130.76,17.88z"/>
<path fill="#FFFFFF" d="M94.726,53.856c0,0-16.484-8.12-29.496-2.16c-13.014,5.96-51.678,152.574-15.25,174.865
	c0,0,22.073-25.771,73.29-21.469 M160.189,53.856c0,0,16.486-8.12,29.496-2.16c13.015,5.96,54.127,133.188,15.252,174.863
	c0,0-22.074-25.77-73.285-21.47"/>
<path fill="#FFFFFF" d="M172.334,52.78c0-22.89-18.686-26.904-41.574-26.904c-22.893,0-41.04,4.015-41.04,26.904
	c0,2.045,0.9,4.033,0.9,6v73.6h81V61.66c1-2.86,0.714-5.823,0.714-8.878V52.78z"/>
<path fill="#1A1A1A" d="M63.776,100.11l4.766,113.27h120.203l3.334-77.026L174.9,71.96L63.776,100.11z"/>
<path fill="#FFFFFF" d="M161.415,222.885c1.414-28.572-31.5-21-31.5-21l-2.898-0.07c0,0-32.54-7.859-32.498,20.746"/>
<path fill="#EAC7A7" d="M135.62,208.229c0,6.321-3.112,8.902-8.5,8.902c-5.392,0-8.5-2.58-8.5-8.9v-22.89
	c0-6.319,3.108-11.44,8.5-11.44c5.388,0,8.5,5.131,8.5,11.451v22.899V208.229z"/>
<path fill="#D3BD8D" d="M174.863,126.068c0,11.11,1.611,20.108,9.396,20.108c7.795,0,18.805-2.085,18.805-20.108
	c0-11.118-6.313-20.104-14.096-20.104c-7.8,0-14.109,8.986-14.109,20.104H174.863z"/>
<path fill="#C69C6D" d="M177.191,125.998c0.043-3.118,0.681-6.667,2.207-9.68c0.761-1.53,1.74-3.025,3.121-4.313
	c1.379-1.257,3.33-2.335,5.609-2.373c0.859,0.088,0.68,0.01,1.5,0.178c0.641,0.138,1.21,0.336,1.641,0.547
	c0.959,0.423,1.739,1.028,2.459,1.648c1.391,1.287,0.131,2.78,0.891,4.313c1.52,3.084-0.03,6.416-0.03,9.75v0.374
	c0,2.188,0.511,3.978-1.68,4.008c-2.181,0.024-2.841-1.724-2.87-3.9c0-0.162,0.561-0.337,0.58-0.48c0.24-2.2,0.33-4.593-0.391-6.6
	c-0.66-2.108-1.879-3.43-2.26-3.557c-0.24-0.12-0.81-0.104-1.59,0.42c-0.76,0.53,1.87,1.402,1.221,2.426
	c-1.33,2.12,0.979,4.51,0.979,7.38v0.12c0,1.27-4.681,2.2-5.96,2.06c-1.21-0.13-5.48-1.16-5.48-2.34L177.191,125.998z"/>
<path fill="#D3BD8D" d="M81.587,126.068c0,11.11-1.62,20.108-9.404,20.108c-7.784,0-18.8-2.085-18.8-20.108
	c0-11.118,6.306-20.104,14.1-20.104C75.271,105.964,81.587,114.95,81.587,126.068z"/>
<path fill="#C69C6D" d="M79.245,125.998c-0.033-3.118-0.676-6.667-2.197-9.68c-0.77-1.53-1.75-3.025-3.135-4.313
	c-1.37-1.257-3.332-2.335-5.615-2.373c-0.855,0.088-0.68,0.01-1.486,0.178c-0.654,0.138-1.223,0.336-1.646,0.547
	c-0.97,0.423-1.75,1.028-2.47,1.648c-1.386,1.287-0.238,2.78-1.017,4.313c-1.52,3.084-0.06,6.416-0.06,9.75v0.374
	c0,2.188-0.42,3.978,1.75,4.008c2.2,0.024,2.93-1.724,2.95-3.9c0-0.162-0.55-0.337-0.57-0.48c-0.24-2.2-0.32-4.593,0.4-6.6
	c0.66-2.108,1.89-3.43,2.27-3.557c0.23-0.12,0.8-0.104,1.59,0.42c0.76,0.53,1.5,1.402,2.16,2.426c1.33,2.12,2.11,4.51,2.42,7.38
	l0.01,0.12c0.13,1.27,1.26,2.2,2.54,2.06c1.2-0.13,2.1-1.16,2.09-2.34L79.245,125.998z"/>
<path fill="#FFDDBB" d="M183.71,145.917c0,39.521-37.963,42.938-54.903,42.938c-19.281,0-54.901-3.416-54.901-42.938
	c0-39.508-4.096-90.24,54.901-90.24C188.387,55.677,183.71,106.409,183.71,145.917L183.71,145.917z"/>
<path fill="#333333" d="M122.507,162.218c-1.232,0-2.375-0.786-2.773-2.028c-0.486-1.529,0.357-3.162,1.893-3.649
	c5.563-1.776,7.924-4.57,8.7-5.74l-2.116-30.677c-0.11-1.602,1.109-2.992,2.71-3.1c1.61-0.16,2.99,1.1,3.11,2.703l2.18,31.553
	c0.03,0.46-0.05,0.93-0.23,1.35c-0.279,0.641-3.029,6.41-12.569,9.439c-0.29,0.091-0.59,0.141-0.88,0.141L122.507,162.218z"/>
<path fill="#D4145A" d="M136.956,174.835c0,4.942-4.006,8.958-8.96,8.958c-4.946,0-8.952-4.016-8.952-8.958
	c0-4.95,4.006-8.96,8.953-8.96C132.95,165.875,136.957,169.885,136.956,174.835L136.956,174.835z"/>
<path fill="#E6E6E6" d="M55.665,215.3c0,0-9.918,9.613-5.684,11.261c4.23,1.646,11.51-6.535,11.51-6.535 M200.182,215.3
	c0,0,8.239,10.08,4.01,11.724c-4.23,1.647-9.83-6.998-9.83-6.998"/>
<path fill="#333333" d="M74.872,107.86c0,0-4.666,89.59,10.906,120.751c0,0-33.482-2.072-40.498-23.103
	c-7.004-21.03-1.55-173.13,80.994-162.13h5.589c82.541-11,87.994,141.1,80.982,162.13C205.842,226.53,172.35,230,172.35,230
	c15.574-31.164,5.328-127.857,5.328-127.857l-33.488-42.94l-32.709,1.36l-36.608,47.293V107.86z"/>
<path fill="#333333" d="M128.006,175.555c-10.723,0-19.12-5.447-19.12-12.396c0-1.206,0.974-2.184,2.18-2.184
	c1.204,0,2.18,0.978,2.18,2.184c0,4.352,6.763,8.037,14.76,8.037c7.993,0,14.747-3.687,14.747-8.037
	c0-1.206,0.979-2.184,2.181-2.184c1.205,0,2.184,0.978,2.184,2.184C147.115,170.105,138.723,175.555,128.006,175.555
	L128.006,175.555z"/>
<path fill="#333333" d="M130.016,65.4c0,0-36.346,54.015-73.236,51.48l39.126-54.175l33.987-7.98l0.123,10.678V65.4z"/>
<path fill="#333333" d="M129.41,65.752c0,0,31.25,57.173,68.142,54.635l-34.387-57.684l-34.725-7.26L129.41,65.752L129.41,65.752z"
	/>
<path fill="#333333" d="M144.534,96.122c-0.205,0.033,2.547-0.634,5.817-0.748c1.676,0.05,3.613-0.06,5.631,0.235
	c2.037,0.14,4.156,0.49,6.236,0.98c2.1,0.35,4.11,1,5.98,1.61c1.89,0.53,3.609,1.16,5.02,1.83l4.74,2.04c0,0-2.04-0.36-5.08-0.9
	c-1.49-0.33-3.26-0.53-5.16-0.61c-1.9-0.16-3.9-0.34-5.9-0.21c-1.989,0-3.959,0.14-5.77,0.44c-1.83,0.15-3.449,0.64-4.84,0.92
	c-2.811,0.81-3.96,1.46-4.15,1.53c-1.99,0.71-4.17-0.32-4.869-2.31c-0.711-1.99,0.319-4.17,2.299-4.87L144.534,96.122z"/>
<path fill="#333333" d="M112.53,102.796c-0.14-0.027-1.87-0.695-5.143-1.388c-3.21-0.62-7.645-1.28-12.145-1.267
	c-2.256-0.06-4.535-0.03-6.64,0.22c-2.126,0.19-4.146,0.28-5.814,0.67c-3.408,0.63-5.674,1.06-5.674,1.06l5.37-2.2
	c1.597-0.74,3.565-1.26,5.68-1.9c2.103-0.71,4.4-1.22,6.73-1.65c4.657-0.98,9.47-1.27,13.124-1.33c3.607-0.01,6.36,0.39,6.227,0.36
	c2.055,0.48,3.328,2.53,2.855,4.58c-0.468,2.06-2.52,3.34-4.57,2.87V102.796z"/>
<path fill="#FFFFFF" d="M96.966,63.083c-0.213,0-0.418,0.037-0.627,0.067c0.03-0.215,0.07-0.416,0.07-0.624
	c0-3.396-2.75-6.143-6.15-6.143c-3.4,0-6.15,2.747-6.15,6.143c0,0.208,0.04,0.41,0.06,0.624c-0.21-0.03-0.41-0.067-0.62-0.067
	c-3.4,0-6.15,2.748-6.15,6.14s2.75,6.145,6.14,6.145c0.21,0,0.4-0.048,0.61-0.068c-0.02,0.208-0.07,0.413-0.07,0.62
	c0,3.39,2.76,6.147,6.15,6.147s6.14-2.757,6.14-6.146c0-0.2-0.04-0.41-0.07-0.62c0.21,0.02,0.42,0.07,0.63,0.07
	c3.39,0,6.14-2.75,6.14-6.14s-2.75-6.14-6.14-6.14L96.966,63.083z M90.076,74.62c-2.98,0-5.394-2.417-5.394-5.398
	c0-2.976,2.414-5.398,5.395-5.398c2.984,0,5.398,2.423,5.398,5.398C95.475,72.202,93.062,74.62,90.076,74.62L90.076,74.62z
	 M169.93,63.083c-0.205,0-0.404,0.037-0.611,0.067c0.02-0.215,0.063-0.416,0.063-0.624c0-3.396-2.75-6.143-6.14-6.143
	s-6.14,2.747-6.14,6.143c0,0.208,0.039,0.41,0.069,0.624c-0.2-0.03-0.409-0.067-0.62-0.067c-3.39,0-6.14,2.748-6.14,6.14
	s2.75,6.145,6.14,6.145c0.211,0,0.42-0.048,0.62-0.068c-0.021,0.208-0.06,0.413-0.06,0.62c0,3.39,2.75,6.147,6.15,6.147
	c3.399,0,6.139-2.757,6.139-6.146c0-0.2-0.039-0.41-0.06-0.62c0.21,0.02,0.41,0.07,0.61,0.07c3.4,0,6.15-2.75,6.15-6.14
	s-2.75-6.14-6.15-6.14L169.93,63.083z M163.05,74.62c-2.978,0-5.396-2.417-5.396-5.398c0-2.976,2.42-5.398,5.396-5.398
	c2.982,0,5.404,2.423,5.404,5.398C168.454,72.202,166.032,74.62,163.05,74.62z M119.798,51.288c-0.21,0-0.414,0.046-0.627,0.067
	c0.03-0.21,0.07-0.41,0.07-0.622c0-3.387-2.75-6.145-6.14-6.145s-6.14,2.758-6.14,6.145c0,0.212,0.05,0.413,0.07,0.622
	c-0.21-0.02-0.41-0.067-0.61-0.067c-3.39,0-6.14,2.752-6.14,6.146c0,3.39,2.76,6.14,6.15,6.14c0.21,0,0.41-0.038,0.62-0.07
	c-0.02,0.213-0.07,0.416-0.07,0.627c0,3.4,2.75,6.15,6.15,6.15s6.15-2.75,6.15-6.14c0-0.21-0.04-0.41-0.07-0.62
	c0.21,0.03,0.42,0.07,0.63,0.07c3.39,0,6.14-2.75,6.14-6.14c0-3.39-2.75-6.14-6.14-6.14L119.798,51.288z M112.908,62.828
	c-2.98,0-5.4-2.41-5.4-5.394c0-2.983,2.42-5.406,5.4-5.406c2.985,0,5.397,2.423,5.397,5.406
	C118.305,60.419,115.895,62.827,112.908,62.828L112.908,62.828z M146.292,51.288c-0.21,0-0.408,0.046-0.62,0.067
	c0.021-0.21,0.066-0.41,0.066-0.622c0-3.387-2.76-6.145-6.149-6.145c-3.399,0-6.149,2.758-6.149,6.145
	c0,0.212,0.039,0.413,0.069,0.622c-0.22-0.02-0.42-0.067-0.63-0.067c-3.39,0-6.14,2.752-6.14,6.146c0,3.39,2.75,6.14,6.14,6.14
	c0.21,0,0.41-0.038,0.62-0.07c-0.03,0.213-0.069,0.416-0.069,0.627c0,3.4,2.75,6.15,6.139,6.15c3.391,0,6.141-2.75,6.141-6.14
	c0-0.21-0.05-0.41-0.07-0.62c0.211,0.03,0.41,0.07,0.62,0.07c3.39,0,6.14-2.75,6.14-6.14c0-3.39-2.76-6.14-6.149-6.14
	L146.292,51.288z M139.409,62.828c-2.99,0-5.41-2.41-5.41-5.394c0-2.983,2.42-5.406,5.399-5.406c2.98,0,5.391,2.423,5.391,5.406
	c0,2.985-2.42,5.393-5.4,5.393L139.409,62.828z"/>
<path fill="#EAC7A7" d="M125.562,217.38h5.816c6.427,0,11.636-4.25,11.636-10.675c0-2.467-0.777-4.26-2.082-6.139
	c-6.011-0.289-11.011,1.084-11.011,1.084l-2.9,0.043c0,0-4.88-1.096-10.86-0.885c-1.38,1.916-2.23,3.324-2.23,5.866
	c0,6.425,5.21,10.706,11.64,10.706L125.562,217.38z"/>
<path fill="#333333" d="M101.99,139.232c-9.97,0-18.074-8.104-18.074-18.07c0-1.604,1.3-2.91,2.906-2.91
	c1.61,0,2.91,1.306,2.91,2.91c0,6.755,5.502,12.257,12.258,12.257c6.756,0,12.256-5.51,12.256-12.26c0-1.61,1.303-2.91,2.91-2.91
	c1.607,0,2.906,1.3,2.906,2.91c0,9.96-8.103,18.069-18.072,18.069V139.232z M154.012,139.232c-9.97,0-18.074-8.104-18.074-18.07
	c0-1.604,1.297-2.91,2.908-2.91c1.607,0,2.906,1.306,2.906,2.91c0,6.755,5.5,12.257,12.26,12.257c6.754,0,12.254-5.51,12.254-12.26
	c0-1.61,1.303-2.91,2.908-2.91c1.607,0,2.91,1.3,2.91,2.91c0,9.96-8.107,18.069-18.072,18.069V139.232z"/>
<radialGradient id="SVGID_1_" cx="237.5713" cy="-159.9546" r="30.0022" gradientTransform="matrix(0.504 0 0 -0.504 -20.7192 68.8827)" gradientUnits="userSpaceOnUse">
	<stop  offset="0" style="stop-color:#FF585D"/>
	<stop  offset="1" style="stop-color:#FF585D;stop-opacity:0"/>
</radialGradient>
<circle opacity="0.4" fill="url(#SVGID_1_)" enable-background="new    " cx="99.017" cy="149.5" r="15.121"/>
<radialGradient id="SVGID_2_" cx="352.584" cy="-159.9546" r="30.0042" gradientTransform="matrix(0.504 0 0 -0.504 -20.7192 68.8827)" gradientUnits="userSpaceOnUse">
	<stop  offset="0" style="stop-color:#FF585D"/>
	<stop  offset="1" style="stop-color:#FF585D;stop-opacity:0"/>
</radialGradient>
<circle opacity="0.4" fill="url(#SVGID_2_)" enable-background="new    " cx="156.982" cy="149.5" r="15.122"/>
<path fill="none" stroke="#333333" stroke-width="3" stroke-linecap="round" stroke-miterlimit="10" d="M82.953,134.38l6.333-4.332
	 M167.953,128.714l5,5.667"/>
</svg>
