<svg xmlns="http://www.w3.org/2000/svg" width="256" height="256" viewBox="0 0 256 256"><path fill="#333" d="M97.21 220.28c-9.728 0-38.618-.003-40.71-36.304-21.167-.79-25.677-16.104-25.677-29.004 0-16.283 9.47-29.038 21.557-29.038 2.056 0 4.077.382 6.013 1.126 3.13-19.13 12.032-42.13 43.593-49.92.815-3.47 4.09-11.67 17.163-17.33 9.12-3.95 15.13-8.67 16.07-12.62.24-1.01.34-2.62-1.56-4.9-1.24-1.48-1.24-3.64 0-5.13.78-.93 1.9-1.43 3.06-1.43.67 0 1.36.17 1.98.53.46.26 11.31 6.56 15.67 18.42l.14.4c.16.47.31.92.45 1.37.08.26.15.53.22.8.08.3.15.58.22.87.1.43.19.85.27 1.28.04.2.07.41.11.62.08.52.15 1.05.21 1.58.02.18.03.36.05.53.05.56.09 1.14.1 1.73v.39c.01.65 0 1.29-.03 1.95 0 .04-.01.16-.01.19-.04.71-.11 1.41-.19 2.09l-.02.1c-.09.68-.21 1.4-.36 2.18l-.06.26c-.14.68-.32 1.41-.52 2.16l-.09.31c-.21.73-.45 1.46-.71 2.19 0 0-.3.8-.41 1.07 14.56 3.19 25.4 9.48 33.05 19.15 6.23 7.88 10.19 17.73 12.32 30.71 1.46-.41 2.96-.62 4.46-.62 12.08 0 21.55 12.76 21.55 29.04 0 12.6-4.3 27.5-24.21 28.93-1.35 24.47-14.8 36.38-41 36.38-6.3 0-12.67-.62-18.28-1.17-4.54-.45-8.83-.87-12.23-.87-4.03 0-8.8.45-13.85.92-5.99.56-12.18 1.13-18.4 1.13l.06-.07zm39.524-180.56s9.99 5.696 13.902 16.322l.13.367c.136.38.263.77.38 1.16.068.23.135.46.196.69.065.25.13.49.19.75.083.36.16.72.23 1.09.038.17.068.35.1.53.08.44.14.89.188 1.35.02.14.03.29.05.44.05.49.08.99.09 1.5.01.11.01.22.01.34.01.55.01 1.1-.02 1.67 0 .06-.01.11-.01.17-.03.59-.08 1.2-.16 1.81L152 68c-.08.62-.19 1.26-.32 1.9-.014.07-.027.15-.043.22-.13.63-.283 1.26-.463 1.9l-.074.274c-.187.64-.396 1.29-.63 1.95l-.108.28c-.244.67-.514 1.346-.815 2.035-.03.07-.063.14-.095.21-.32.72-.66 1.45-1.05 2.19-.12.23-.24.45-.36.68 34.37 5.51 44.86 26.65 47.95 52.78 2.32-1.61 4.92-2.53 7.67-2.53 9.7 0 17.55 11.21 17.55 25.03 0 22.43-13.71 25.03-23.41 25.03-.23 0-.46-.01-.69-.03-.11 30.58-18.33 36.3-37.11 36.3-11.21 0-22.63-2.05-30.5-2.05-8.95 0-20.85 2.04-32.24 2.04-19.1 0-36.79-5.74-36.83-36.48-.67.13-1.38.21-2.14.21-9.7 0-23.42-2.6-23.42-25.04 0-13.82 7.86-25.03 17.56-25.03 3.36 0 6.49 1.34 9.15 3.66 2.92-25.53 12.62-46.49 43.83-53.13.1-.48.22-.97.35-1.48 0 0 .48-9.21 15.03-15.51 14.54-6.3 23.27-15.03 16-23.75"/><path fill="#333" d="M136.79 31.67c-2.3 0-4.57 1-6.14 2.86-2.48 2.97-2.49 7.29-.01 10.26.2.24.83 1.04.74 1.42-.36 1.51-3.7 5.51-13.77 9.88-12.32 5.33-16.99 12.84-18.76 17.7-29.75 8.2-39.72 29.4-43.58 48.3-.93-.14-1.88-.2-2.84-.2-14.33 0-25.56 14.508-25.56 33.03 0 12.57 3.8 21.77 11.29 27.35 3.98 2.96 8.81 4.74 14.68 5.4 1.35 12.58 6.03 22.03 13.96 28.17 7.39 5.728 17.07 8.39 30.47 8.39 6.41 0 12.97-.61 18.77-1.14 4.96-.46 9.64-.9 13.48-.9 3.2 0 7.4.41 11.84.85 5.71.56 12.18 1.19 18.67 1.19 13.09 0 23.03-2.72 30.39-8.31 8.17-6.2 12.97-15.75 14.33-28.44 5.21-.78 9.57-2.5 13.21-5.21 7.49-5.58 11.29-14.78 11.29-27.35 0-18.53-11.22-33.04-25.55-33.04-.41 0-.81.01-1.22.04-3.76-18.78-13.58-39.91-43.47-48.13.2-.71.36-1.41.5-2.07l.05-.24c.18-.9.32-1.69.41-2.45l.03-.22c.1-.75.16-1.5.21-2.24.01-.09.23-.18.24-.26.04-.73.26-1.45.26-2.22V64c0-.12-.22-.23-.23-.34-.02-.67-.17-1.35-.23-2.02-.01-.16-.09-.36-.11-.56-.07-.63-.18-1.23-.27-1.8-.04-.25-.1-.486-.14-.724-.09-.47-.19-.95-.31-1.42-.08-.34-.16-.66-.25-.97-.09-.34-.18-.64-.272-.94-.14-.49-.31-1-.49-1.514 0-.02-.01-.04-.02-.06l-.05-.134-.09-.25c-4.8-13.04-16.18-19.82-17.47-20.55-1.24-.71-2.6-1.05-3.95-1.05h-.037z"/><path fill="#F4D1B0" d="M186.064 154.973c0 13.83 2.008 25.036 11.703 25.036 9.696 0 23.41-2.6 23.41-25.04 0-13.83-7.855-25.04-17.554-25.04-9.694 0-17.56 11.21-17.56 25.03v.01z"/><path fill="#C69C6D" d="M188.977 154.88c.04-3.876.84-8.29 2.736-12.04.96-1.906 2.182-3.76 3.902-5.367 1.71-1.57 4.152-2.92 6.988-2.953 1.074.1.852 0 1.86.22.813.16 1.515.41 2.056.68 1.18.52 2.16 1.28 3.06 2.05 1.72 1.6 2.14 3.46 3.1 5.36 1.89 3.84 1.93 7.99 1.93 12.13v.48c0 2.71-1.34 4.94-4.06 4.97-2.71.03-4.54-2.14-4.57-4.86 0-.2.21-.41.23-.6.3-2.73.17-5.71-.73-8.22-.83-2.61-2.48-4.26-2.96-4.43-.29-.15-1.05-.13-2.03.53-.95.66-1.91 1.738-2.72 3.01-1.66 2.64-2.65 5.62-3.02 9.2l-.01.14c-.17 1.59-1.6 2.75-3.2 2.58-1.51-.16-2.61-1.45-2.6-2.92l.03.04z"/><path fill="#F4D1B0" d="M69.938 154.973c0 13.83-2.006 25.036-11.7 25.036-9.698 0-23.415-2.6-23.415-25.04 0-13.83 7.857-25.04 17.557-25.04s17.558 11.21 17.558 25.03v.01z"/><path fill="#C69C6D" d="M67.03 154.88c-.04-3.876-.843-8.29-2.737-12.04-.963-1.906-2.182-3.76-3.902-5.367-1.71-1.57-4.15-2.92-6.98-2.953-1.07.1-.85 0-1.86.22-.81.16-1.51.41-2.05.68-1.19.52-2.17 1.28-3.06 2.05-1.72 1.6-3.02 3.46-3.98 5.36-1.89 3.84-2.81 7.99-2.81 12.13v.48c0 2.71 2.23 4.94 4.94 4.97 2.72.03 4.98-2.14 5.01-4.86 0-.2.01-.41-.01-.6-.3-2.73-.06-5.71.83-8.22.83-2.61 2.53-4.26 3.01-4.43.29-.15 1.08-.13 2.06.53.95.66 1.93 1.738 2.74 3.01 1.67 2.64 2.65 5.62 3.03 9.2l.02.14c.17 1.59 1.6 2.75 3.19 2.58 1.5-.16 2.61-1.45 2.6-2.92l-.04.04z"/><path fill="#fdb" d="M197.08 179.695c0 49.197-46.537 34.543-67.623 34.543-23.996 0-69.08 14.654-69.08-34.542S55.287 78.258 128.73 78.258c74.16 0 68.35 52.24 68.35 101.43v.007z"/><path fill="#333" d="M125.373 189.252c-3.686 0-6.693-1.025-9.006-3.066-5.375-4.756-4.385-13.05-4.34-13.4.203-1.596 1.676-2.73 3.254-2.516 1.6.2 2.72 1.65 2.52 3.24 0 .05-.63 5.63 2.44 8.33 2.04 1.79 5.52 2.08 10.32.85 1.57-.42 3.15.55 3.53 2.1.4 1.55-.54 3.13-2.09 3.53-2.4.61-4.6.92-6.61.92l-.01.012zm12.445-.004c-1.96 0-4.14-.303-6.533-.914-1.555-.398-2.498-1.98-2.1-3.534.396-1.563 2-2.506 3.53-2.104 3.222.82 7.507 1.365 9.613-.684 2.17-2.12 1.73-6.645 1.38-8.207-.36-1.56.61-3.12 2.18-3.48 1.58-.364 3.12.607 3.48 2.162.08.36 1.99 8.813-2.97 13.67-2.1 2.057-4.98 3.09-8.6 3.09h.02z"/><path fill="#DBC79C" d="M136.484 193.15s-7.756 5.816-15.752 5.816c-8 0 21.08 16.243 15.752-5.816z"/><path fill="#8C6239" d="M105.713 78.99s.482-9.217 15.025-15.518c14.54-6.3 23.268-15.025 15.997-23.753 0 0 24.723 14.06 11.633 39.27-13.09 25.2-32.96 26.66-42.654 11.63 0 0-1.94-4.37 0-11.63z"/><path fill="#A67C52" d="M142.55 45.54c7.272 8.723-1.454 17.448-15.997 23.752-14.543 6.3-15.025 15.513-15.025 15.513-1.938 7.27 0 11.635 0 11.635.205.312.438.58.646.88 10.496 6.937 25.578 2.12 36.193-18.33 7.217-13.89 2.936-24.378-2.352-31.007-2.005-1.602-3.464-2.442-3.465-2.443z"/><radialGradient id="a" cx="-751.794" cy="231.893" r="29.982" gradientTransform="matrix(.723 0 0 -.723 630.793 346.036)" gradientUnits="userSpaceOnUse"><stop offset="0" stop-color="#FF585D"/><stop offset="1" stop-color="#FF585D" stop-opacity="0"/></radialGradient><circle opacity=".7" fill="url(#a)" enable-background="new" cx="87" cy="178.378" r="21.697"/><radialGradient id="b" cx="-8164.918" cy="1520.635" r="29.997" gradientTransform="matrix(.21 0 0 -.21 1848.348 485.938)" gradientUnits="userSpaceOnUse"><stop offset="0" stop-color="#FF585D"/><stop offset="1" stop-color="#FF585D" stop-opacity="0"/></radialGradient><circle opacity=".7" fill="url(#b)" enable-background="new" cx="132.832" cy="166.378" r="6.303"/><radialGradient id="c" cx="-636.803" cy="231.893" r="29.982" gradientTransform="matrix(.723 0 0 -.723 630.793 346.036)" gradientUnits="userSpaceOnUse"><stop offset="0" stop-color="#FF585D"/><stop offset="1" stop-color="#FF585D" stop-opacity="0"/></radialGradient><circle opacity=".7" fill="url(#c)" enable-background="new" cx="170.174" cy="178.378" r="21.697"/><path fill="#F5F5F5" d="M119.166 142.78c0 14.012-11.342 25.385-25.367 25.385-14.02 0-25.38-11.373-25.38-25.386 0-14.01 11.35-25.37 25.37-25.37s25.36 11.36 25.36 25.37h.01z"/><path fill="#333" d="M109.824 142.78c0 8.86-7.174 16.03-16.025 16.03-8.84 0-16.03-7.17-16.03-16.03 0-8.854 7.18-16.01 16.02-16.01 8.85 0 16.02 7.158 16.02 16.01h.01z"/><path fill="#F5F5F5" d="M188.97 142.78c0 14.012-11.34 25.385-25.366 25.385-14.014 0-25.37-11.373-25.37-25.386 0-14.01 11.356-25.37 25.37-25.37 14.025 0 25.367 11.36 25.367 25.37z"/><path fill="#333" d="M179.63 142.78c0 8.86-7.175 16.03-16.026 16.03-8.84 0-16.024-7.17-16.024-16.03 0-8.854 7.18-16.01 16.02-16.01 8.85 0 16.02 7.158 16.02 16.01h.01zm-41.816 28.193c-1.396 0-2.627-1.007-2.863-2.43-.3-1.79-.9-2.96-1.8-3.475-1.19-.69-3-.25-3.38-.11-1.49.57-3.18-.17-3.75-1.68-.57-1.5.18-3.18 1.68-3.75.46-.19 4.6-1.67 8.35.48 1.71.98 3.9 3.09 4.65 7.57.27 1.58-.8 3.08-2.39 3.34-.15.03-.32.04-.48.04l-.01.015z"/></svg>