<svg xmlns="http://www.w3.org/2000/svg" xmlns:xlink="http://www.w3.org/1999/xlink" width="256" height="256" viewBox="0 0 256 256"><path fill="#333" d="M97.207 220.28c-9.726 0-38.616-.003-40.71-36.304-21.164-.79-25.673-16.104-25.673-29.004 0-16.28 9.468-29.04 21.555-29.04 2.05 0 4.08.384 6.01 1.13 2.27-13.803 6.62-24.26 13.44-32.338-3.81-5.908-7.33-16.47-.38-25.873.75-1.02 1.95-1.62 3.21-1.62.09 0 .19.01.29.01 1.36.1 2.58.9 3.23 2.1.01.03 3.18 5.54 12.73 11.46 3.39-1.46 7.09-2.68 11.04-3.66.81-3.47 4.09-11.67 17.16-17.33 9.12-3.95 15.13-8.67 16.07-12.61.24-1.01.34-2.62-1.56-4.9-1.24-1.48-1.24-3.64 0-5.13.77-.93 1.91-1.43 3.07-1.43.67 0 1.35.17 1.97.53.4.24 10.19 5.9 14.93 16.58l.09.21c.23.53.43 1.02.6 1.52.09.25.18.5.26.75.11.34.22.67.32 1 .1.35.2.71.3 1.07l.14.55c.12.51.22 1.02.32 1.55l.09.51c.08.53.16 1.09.22 1.66l.04.42c.06.6.1 1.21.11 1.83l.01.28c.01.74 0 1.4-.03 2.04l-.01.17c-.04.65-.11 1.37-.19 2.07l-.02.1c-.09.7-.21 1.43-.37 2.21l-.05.22c-.15.7-.33 1.43-.54 2.17l-.09.3c-.21.73-.45 1.47-.71 2.2l-.12.31c-.09.26-.19.51-.29.76 3.81.83 7.37 1.88 10.67 3.14 8.43-5.56 11.22-10.45 11.25-10.5.64-1.2 1.87-2 3.24-2.09.1-.01.18-.01.29-.01 1.26 0 2.46.6 3.22 1.62 6.49 8.79 3.82 17.89 1.09 23.23 8.1 8.28 13.14 19.4 15.62 34.47 1.47-.41 2.96-.62 4.46-.62 12.09 0 21.56 12.76 21.56 29.03 0 12.6-4.3 27.5-24.21 28.92-1.35 24.47-14.8 36.38-41 36.38-6.3 0-12.67-.62-18.28-1.17-4.55-.44-8.84-.87-12.23-.87-4.03 0-8.8.44-13.85.91-5.99.56-12.18 1.14-18.4 1.14l.08-.06.02.01zM136.73 39.72s8.992 5.127 13.256 14.725c.033.073.063.15.097.223.18.417.354.84.515 1.273.08.22.158.44.234.66.096.28.188.57.275.85.093.31.18.62.263.93.042.16.086.32.125.48.104.44.196.88.28 1.33.02.14.05.28.072.42.08.48.145.96.194 1.45l.04.36c.05.52.08 1.04.1 1.58.01.09.01.18.01.27.01.57.01 1.15-.02 1.74v.11c-.03.62-.09 1.25-.17 1.9v.04c-.08.63-.19 1.28-.32 1.93-.01.07-.02.13-.04.2-.13.63-.29 1.27-.47 1.92l-.07.26c-.18.64-.39 1.3-.63 1.96l-.1.28c-.24.67-.51 1.35-.82 2.04l-.09.21c-.32.72-.66 1.45-1.05 2.19-.12.23-.24.45-.36.68 6.42 1.03 12.02 2.6 16.88 4.65 10.93-6.72 14.36-13.09 14.36-13.09 6.39 8.65 1.71 17.87-.72 21.58 10.98 9.81 15.57 23.8 17.44 39.64 2.32-1.6 4.92-2.51 7.67-2.51 9.7 0 17.56 11.21 17.56 25.04 0 22.44-13.71 25.04-23.41 25.04-.23 0-.46-.01-.68-.03-.11 30.58-18.33 36.32-37.11 36.32-11.22 0-22.64-2.04-30.51-2.04-8.96 0-20.86 2.05-32.25 2.05-19.1 0-36.79-5.75-36.83-36.48-.67.14-1.38.21-2.14.21-9.7 0-23.41-2.6-23.41-25.04 0-13.83 7.86-25.03 17.56-25.03 3.35 0 6.48 1.34 9.15 3.67 1.75-15.23 5.91-28.84 15.61-38.75-.17-.11-.34-.22-.51-.35 0 0-10.18-12.11-1.94-23.26 0 0 3.76 7.01 16 14.07 4.27-2.03 9.14-3.65 14.68-4.83.1-.48.22-.97.35-1.48 0 0 .49-9.21 15.03-15.51 14.54-6.3 23.27-15.02 16-23.75"/><path fill="#333" d="M136.79 31.82c-2.3 0-4.57.99-6.13 2.86-2.49 2.97-2.49 7.29-.02 10.26.2.24.84 1.04.74 1.42-.354 1.51-3.69 5.51-13.77 9.88-12.35 5.3-17.02 12.8-18.79 17.66-2.59.71-5.08 1.54-7.44 2.47-6.69-4.49-9.31-8.39-9.66-8.93-1.23-2.47-3.59-4-6.35-4.25-.23-.02-.45-.03-.67-.03-2.54 0-4.89 1.31-6.42 3.38-7.3 9.88-4.95 20.73-1.23 27.88-5.6 7.39-9.44 16.47-11.77 27.79-.94-.14-1.9-.2-2.86-.2-14.33 0-25.55 14.512-25.55 33.03 0 12.57 3.8 21.77 11.3 27.35 3.97 2.962 8.81 4.74 14.67 5.4 1.35 12.57 6.03 22.03 13.96 28.17 7.39 5.722 17.07 8.392 30.46 8.392 6.41 0 12.98-.61 18.77-1.15 4.96-.46 9.64-.89 13.48-.89 3.2 0 7.4.41 11.84.85 5.71.564 12.18 1.2 18.67 1.2 13.09 0 23.03-2.72 30.39-8.31 8.17-6.2 12.97-15.74 14.33-28.44 5.21-.77 9.57-2.5 13.21-5.21 7.49-5.58 11.29-14.78 11.29-27.35 0-18.52-11.22-33.03-25.55-33.03-.41 0-.83.01-1.24.04-2.6-12.82-7.19-22.8-14.09-30.64 3.55-8.7 2.68-17.66-2.63-24.85-1.53-2.06-3.89-3.38-6.42-3.38-.22 0-.44.01-.67.03-2.76.26-5.11 1.78-6.35 4.25-.32.51-2.61 3.92-8.32 8.01-1.6-.56-3.25-1.07-4.95-1.53.18-.7.35-1.4.49-2.07.02-.09.03-.17.05-.26.18-.87.31-1.68.41-2.48l.02-.15c.1-.76.17-1.53.21-2.29l.02-.24c.042-.72.052-1.46.03-2.25 0-.13 0-.26-.01-.39-.02-.65-.06-1.35-.12-2.05l-.04-.41v-.06c-.068-.66-.16-1.3-.26-1.91-.02-.13-.05-.3-.08-.47l-.01-.07c-.12-.65-.24-1.23-.37-1.77-.04-.18-.09-.35-.13-.52l-.03-.11c-.1-.4-.22-.81-.34-1.21-.11-.37-.23-.74-.36-1.11-.1-.31-.2-.6-.31-.88-.2-.53-.42-1.07-.67-1.65l-.13-.3c-5.18-11.65-15.44-17.75-16.6-18.41-1.24-.71-2.604-1.05-3.96-1.05l-.04-.02v-.002z"/><path fill="#C1272D" d="M76.618 94.5s-10.18-12.115-1.938-23.268c0 0 4.08 7.65 17.69 15.026 8.727 4.728-4.607 16.486-15.752 8.242zm100.672 0s10.185-12.115 1.94-23.268c0 0-4.08 7.65-17.69 15.026-8.727 4.728 4.606 16.486 15.75 8.242z"/><path fill="#931923" d="M186.063 154.973c0 13.827 2.008 25.036 11.703 25.036s23.41-2.61 23.41-25.04c0-13.83-7.857-25.04-17.555-25.04-9.68 0-17.55 11.21-17.55 25.03v.01z"/><path fill="#560B15" d="M188.975 154.88c.04-3.878.84-8.29 2.737-12.04.96-1.906 2.183-3.76 3.9-5.37 1.712-1.567 4.153-2.918 6.99-2.952 1.07.104.85.006 1.857.225.81.165 1.51.41 2.05.68 1.2.528 2.17 1.278 3.06 2.055 1.72 1.605 2.14 3.46 3.1 5.367 1.89 3.838 1.93 7.986 1.93 12.135v.477c0 2.72-1.34 4.95-4.06 4.98-2.71.04-4.53-2.143-4.57-4.853 0-.19.22-.41.24-.603.3-2.72.17-5.69-.72-8.22-.83-2.61-2.48-4.25-2.95-4.42-.29-.14-1.05-.12-2.03.53-.94.67-1.91 1.75-2.73 3.02-1.66 2.65-2.65 5.62-3.03 9.2l-.01.15c-.17 1.6-1.59 2.76-3.19 2.59-1.5-.16-2.61-1.44-2.6-2.92l-.02-.03h.02z"/><path fill="#931923" d="M69.935 154.973c0 13.827-2.004 25.036-11.7 25.036-9.698 0-23.41-2.61-23.41-25.04 0-13.83 7.854-25.04 17.554-25.04 9.69 0 17.55 11.21 17.55 25.03v.01z"/><path fill="#560B15" d="M67.026 154.88c-.04-3.878-.84-8.29-2.734-12.04-.965-1.906-2.186-3.76-3.904-5.37-1.71-1.567-4.152-2.918-6.988-2.952-1.074.104-.852.006-1.865.225-.81.165-1.51.41-2.05.68-1.196.528-2.17 1.278-3.067 2.055-1.723 1.605-2.027 3.46-2.984 5.367-1.9 3.838-1.814 7.986-1.814 12.135v.477c0 2.72 1.224 4.95 3.937 4.98 2.717.04 4.476-2.143 4.513-4.853 0-.19-.245-.41-.265-.603-.3-2.72-.185-5.69.708-8.22.826-2.61 2.465-4.25 2.94-4.42.292-.14 1.048-.12 2.026.53.94.67 1.9 1.75 2.72 3.02 1.66 2.65 2.64 5.62 3.02 9.2l.01.15c.17 1.6 1.6 2.76 3.19 2.59 1.49-.16 2.61-1.44 2.6-2.92v-.03z"/><path fill="#C1272D" d="M197.08 179.693c0 49.2-46.538 34.543-67.622 34.543-23.996 0-69.084 14.656-69.084-34.543 0-49.193-5.088-101.437 68.354-101.437 74.17 0 68.353 52.24 68.353 101.433z"/><path fill="#333" d="M125.37 189.252c-3.68 0-6.693-1.025-9.004-3.07-5.375-4.755-4.385-13.046-4.34-13.397.203-1.595 1.693-2.736 3.254-2.52 1.592.208 2.72 1.656 2.516 3.244-.004.05-.63 5.63 2.44 8.33 2.048 1.79 5.515 2.07 10.32.85 1.564-.43 3.138.54 3.534 2.1.396 1.55-.547 3.13-2.105 3.53-2.396.61-4.603.92-6.612.92l-.002.01zm12.446-.006c-1.96 0-4.145-.3-6.53-.916-1.56-.395-2.502-1.977-2.103-3.53.394-1.56 1.996-2.495 3.53-2.104 3.222.813 7.503 1.37 9.612-.687 2.174-2.12 1.73-6.65 1.38-8.21-.354-1.56.614-3.12 2.183-3.48 1.574-.36 3.117.6 3.484 2.16.08.36 1.986 8.81-2.963 13.67-2.11 2.05-4.98 3.09-8.6 3.09z"/><path fill="#931923" d="M136.48 193.15s-7.754 5.813-15.75 5.813c-7.997.003 21.08 16.243 15.75-5.813z"/><path fill="#29ABE2" d="M105.708 78.988s.484-9.215 15.027-15.516c14.54-6.3 23.266-15.025 15.994-23.752 0 0 24.72 14.063 11.63 39.27-13.09 25.206-32.96 26.665-42.66 11.635 0 0-1.94-4.363 0-11.634z"/><path fill="#0071BC" d="M142.548 45.537c7.272 8.726-1.455 17.452-15.994 23.754-14.544 6.31-15.024 15.52-15.024 15.52-1.94 7.27 0 11.64 0 11.64.2.32.433.58.642.88 10.494 6.94 25.576 2.12 36.19-18.33 7.218-13.89 2.937-24.37-2.353-31.01-2.01-1.6-3.47-2.44-3.47-2.44v-.01z"/><radialGradient id="a" cx="-632.102" cy="-331.75" r="29.98" gradientTransform="matrix(.723 0 0 -.723 542.58 -64.608)" gradientUnits="userSpaceOnUse"><stop offset="0" stop-color="#FF585D"/><stop offset="1" stop-color="#FF585D" stop-opacity="0"/></radialGradient><circle opacity=".7" fill="url(#a)" enable-background="new" cx="85.323" cy="175.247" r="21.697"/><radialGradient id="b" cx="-11404.815" cy="-1872.287" r="29.999" gradientTransform="matrix(.185 0 0 -.185 2243.065 -179.325)" gradientUnits="userSpaceOnUse"><stop offset="0" stop-color="#FF585D"/><stop offset="1" stop-color="#FF585D" stop-opacity="0"/></radialGradient><circle opacity=".7" fill="url(#b)" enable-background="new" cx="131.802" cy="166.872" r="5.553"/><radialGradient id="c" cx="-517.11" cy="-331.75" r="29.98" gradientTransform="matrix(.723 0 0 -.723 542.58 -64.608)" gradientUnits="userSpaceOnUse"><stop offset="0" stop-color="#FF585D"/><stop offset="1" stop-color="#FF585D" stop-opacity="0"/></radialGradient><circle opacity=".7" fill="url(#c)" enable-background="new" cx="168.497" cy="175.247" r="21.697"/><path fill="#333" d="M137.813 170.973c-1.39 0-2.627-1.01-2.86-2.434-.306-1.79-.903-2.96-1.804-3.48-1.2-.69-3-.25-3.39-.11-1.5.57-3.18-.17-3.74-1.69-.57-1.5.18-3.18 1.68-3.75.46-.19 4.59-1.66 8.35.49 1.71.98 3.9 3.09 4.64 7.57.27 1.58-.81 3.08-2.39 3.34-.16.03-.32.04-.48.04l-.02.01v.01z"/><path fill="#F5F5F5" d="M119.16 142.773c0 14.018-11.34 25.39-25.364 25.39-14.016 0-25.37-11.372-25.37-25.39 0-14 11.355-25.362 25.37-25.362 14.025.01 25.363 11.37 25.363 25.37z"/><path fill="#333" d="M109.82 142.773c0 8.867-7.175 16.035-16.024 16.035-8.838 0-16.027-7.168-16.027-16.035 0-8.85 7.18-16.002 16.02-16.002 8.85 0 16.02 7.17 16.02 16.01h.01z"/><path fill="#F5F5F5" d="M188.968 142.773c0 14.018-11.34 25.39-25.364 25.39-14.015 0-25.373-11.372-25.373-25.39 0-14 11.36-25.362 25.39-25.362 14.03.01 25.37 11.37 25.37 25.37h-.01z"/><path fill="#333" d="M179.626 142.773c0 8.867-7.174 16.035-16.022 16.035-8.84 0-16.023-7.168-16.023-16.035 0-8.85 7.19-16.002 16.03-16.002 8.85 0 16.02 7.17 16.02 16.01zm5.3-27.49l-1.146.783c-.86.62-2.02 1.25-3.43 2.124-1.44.802-3.16 1.83-5.22 2.764-2.03 1.003-4.37 1.958-6.91 3.01-2.54 1.038-5.37 1.965-8.37 2.856-3.03.792-6.21 1.612-9.57 2.165-3.32.76-6.82.974-10.34 1.36-3.54.36-7.15.24-10.74.33-3.57-.3-7.19-.34-10.68-.802-3.47-.632-6.96-.95-10.24-1.665-3.25-.824-6.42-1.534-9.44-2.214-2.96-.848-5.7-1.822-8.26-2.634-5.19-1.544-9.23-3.426-12.19-4.528-2.96-1.124-4.65-1.76-4.65-1.76-3.61-1.37-5.43-5.4-4.06-9.016 1.37-3.607 5.41-5.432 9.02-4.063.42.166.83.365 1.2.6l.49.3 3.83 2.4c1.23.745 2.74 1.65 4.46 2.684 1.7 1.13 3.72 2.13 6 3.072 2.25.98 4.68 2.14 7.31 3.21 2.66.9 5.49 1.85 8.44 2.74 2.97.81 6.11 1.35 9.28 1.98 3.19.5 6.47.65 9.73.98 3.26-.12 6.54 0 9.73-.34 3.19-.39 6.33-.73 9.28-1.51 3.01-.53 5.77-1.59 8.4-2.47 2.59-1.01 5.026-2.01 7.156-3.09 4.37-2.07 7.52-4.55 9.7-6.14 1.063-.85 1.84-1.56 2.223-1.96.51-.5.77-.77.77-.77l.14-.14c2.47-2.47 6.49-2.46 8.95.02s2.43 6.48-.03 8.94c-.28.28-.59.53-.89.74l.05.04z"/><path fill="#931923" d="M186.063 154.973c0 13.827 2.008 25.036 11.703 25.036s23.41-2.61 23.41-25.04c0-13.83-7.857-25.04-17.555-25.04-9.68 0-17.55 11.21-17.55 25.03v.01z"/><path fill="#560B15" d="M188.975 154.88c.04-3.878.84-8.29 2.737-12.04.96-1.906 2.183-3.76 3.9-5.37 1.712-1.567 4.153-2.918 6.99-2.952 1.07.104.85.006 1.857.225.81.165 1.51.41 2.05.68 1.2.528 2.17 1.278 3.06 2.055 1.72 1.605 2.14 3.46 3.1 5.367 1.89 3.838 1.93 7.986 1.93 12.135v.477c0 2.72-1.34 4.95-4.06 4.98-2.71.04-4.53-2.143-4.57-4.853 0-.19.22-.41.24-.603.3-2.72.17-5.69-.72-8.22-.83-2.61-2.48-4.25-2.95-4.42-.29-.14-1.05-.12-2.03.53-.94.67-1.91 1.75-2.73 3.02-1.66 2.65-2.65 5.62-3.03 9.2l-.01.15c-.17 1.6-1.59 2.76-3.19 2.59-1.5-.16-2.61-1.44-2.6-2.92l-.02-.03h.02z"/><path fill="#931923" d="M69.935 154.973c0 13.827-2.004 25.036-11.7 25.036-9.698 0-23.41-2.61-23.41-25.04 0-13.83 7.854-25.04 17.554-25.04 9.69 0 17.55 11.21 17.55 25.03v.01z"/><path fill="#560B15" d="M67.026 154.88c-.04-3.878-.84-8.29-2.734-12.04-.965-1.906-2.186-3.76-3.904-5.37-1.71-1.567-4.152-2.918-6.988-2.952-1.074.104-.852.006-1.865.225-.81.165-1.51.41-2.05.68-1.196.528-2.17 1.278-3.067 2.055-1.723 1.605-2.027 3.46-2.984 5.367-1.9 3.838-1.814 7.986-1.814 12.135v.477c0 2.72 1.224 4.95 3.937 4.98 2.717.04 4.476-2.143 4.513-4.853 0-.19-.245-.41-.265-.603-.3-2.72-.185-5.69.708-8.22.826-2.61 2.465-4.25 2.94-4.42.292-.14 1.048-.12 2.026.53.94.67 1.9 1.75 2.72 3.02 1.66 2.65 2.64 5.62 3.02 9.2l.01.15c.17 1.6 1.6 2.76 3.19 2.59 1.49-.16 2.61-1.44 2.6-2.92v-.03z"/><path fill="#C1272D" d="M197.08 179.693c0 49.2-46.538 34.543-67.622 34.543-23.996 0-69.084 14.656-69.084-34.543 0-49.193-5.088-101.437 68.354-101.437 74.17 0 68.353 52.24 68.353 101.433z"/><path fill="#333" d="M125.37 189.252c-3.68 0-6.693-1.025-9.004-3.07-5.375-4.755-4.385-13.046-4.34-13.397.203-1.595 1.693-2.736 3.254-2.52 1.592.208 2.72 1.656 2.516 3.244-.004.05-.63 5.63 2.44 8.33 2.048 1.79 5.515 2.07 10.32.85 1.564-.43 3.138.54 3.534 2.1.396 1.55-.547 3.13-2.105 3.53-2.396.61-4.603.92-6.612.92l-.002.01zm12.446-.006c-1.96 0-4.145-.3-6.53-.916-1.56-.395-2.502-1.977-2.103-3.53.394-1.56 1.996-2.495 3.53-2.104 3.222.813 7.503 1.37 9.612-.687 2.174-2.12 1.73-6.65 1.38-8.21-.354-1.56.614-3.12 2.183-3.48 1.574-.36 3.117.6 3.484 2.16.08.36 1.986 8.81-2.963 13.67-2.11 2.05-4.98 3.09-8.6 3.09z"/><path fill="#931923" d="M136.48 193.15s-7.754 5.813-15.75 5.813c-7.997.003 21.08 16.243 15.75-5.813z"/><path fill="#29ABE2" d="M105.708 78.988s.484-9.215 15.027-15.516c14.54-6.3 23.266-15.025 15.994-23.752 0 0 24.72 14.063 11.63 39.27-13.09 25.206-32.96 26.665-42.66 11.635 0 0-1.94-4.363 0-11.634z"/><path fill="#0071BC" d="M142.548 45.537c7.272 8.726-1.455 17.452-15.994 23.754-14.544 6.31-15.024 15.52-15.024 15.52-1.94 7.27 0 11.64 0 11.64.2.32.433.58.642.88 10.494 6.94 25.576 2.12 36.19-18.33 7.218-13.89 2.937-24.37-2.353-31.01-2.01-1.6-3.47-2.44-3.47-2.44v-.01z"/><radialGradient id="d" cx="-632.102" cy="-331.75" r="29.98" gradientTransform="matrix(.723 0 0 -.723 542.58 -64.608)" gradientUnits="userSpaceOnUse"><stop offset="0" stop-color="#FF585D"/><stop offset="1" stop-color="#FF585D" stop-opacity="0"/></radialGradient><circle opacity=".7" fill="url(#d)" enable-background="new" cx="85.323" cy="175.247" r="21.697"/><radialGradient id="e" cx="-11404.815" cy="-1872.287" r="29.999" gradientTransform="matrix(.185 0 0 -.185 2243.065 -179.325)" gradientUnits="userSpaceOnUse"><stop offset="0" stop-color="#FF585D"/><stop offset="1" stop-color="#FF585D" stop-opacity="0"/></radialGradient><circle opacity=".7" fill="url(#e)" enable-background="new" cx="131.802" cy="166.872" r="5.553"/><radialGradient id="f" cx="-517.11" cy="-331.75" r="29.98" gradientTransform="matrix(.723 0 0 -.723 542.58 -64.608)" gradientUnits="userSpaceOnUse"><stop offset="0" stop-color="#FF585D"/><stop offset="1" stop-color="#FF585D" stop-opacity="0"/></radialGradient><circle opacity=".7" fill="url(#f)" enable-background="new" cx="168.497" cy="175.247" r="21.697"/><path fill="#333" d="M137.813 170.973c-1.39 0-2.627-1.01-2.86-2.434-.306-1.79-.903-2.96-1.804-3.48-1.2-.69-3-.25-3.39-.11-1.5.57-3.18-.17-3.74-1.69-.57-1.5.18-3.18 1.68-3.75.46-.19 4.59-1.66 8.35.49 1.71.98 3.9 3.09 4.64 7.57.27 1.58-.81 3.08-2.39 3.34-.16.03-.32.04-.48.04l-.02.01v.01z"/><path fill="#F5F5F5" d="M119.16 142.773c0 14.018-11.34 25.39-25.364 25.39-14.016 0-25.37-11.372-25.37-25.39 0-14 11.355-25.362 25.37-25.362 14.025.01 25.363 11.37 25.363 25.37z"/><path fill="#333" d="M109.82 142.773c0 8.867-7.175 16.035-16.024 16.035-8.838 0-16.027-7.168-16.027-16.035 0-8.85 7.18-16.002 16.02-16.002 8.85 0 16.02 7.17 16.02 16.01h.01z"/><path fill="#F5F5F5" d="M188.968 142.773c0 14.018-11.34 25.39-25.364 25.39-14.015 0-25.373-11.372-25.373-25.39 0-14 11.36-25.362 25.39-25.362 14.03.01 25.37 11.37 25.37 25.37h-.01z"/><path fill="#333" d="M179.626 142.773c0 8.867-7.174 16.035-16.022 16.035-8.84 0-16.023-7.168-16.023-16.035 0-8.85 7.19-16.002 16.03-16.002 8.85 0 16.02 7.17 16.02 16.01zm5.3-27.49l-1.146.783c-.86.62-2.02 1.25-3.43 2.124-1.44.802-3.16 1.83-5.22 2.764-2.03 1.003-4.37 1.958-6.91 3.01-2.54 1.038-5.37 1.965-8.37 2.856-3.03.792-6.21 1.612-9.57 2.165-3.32.76-6.82.974-10.34 1.36-3.54.36-7.15.24-10.74.33-3.57-.3-7.19-.34-10.68-.802-3.47-.632-6.96-.95-10.24-1.665-3.25-.824-6.42-1.534-9.44-2.214-2.96-.848-5.7-1.822-8.26-2.634-5.19-1.544-9.23-3.426-12.19-4.528-2.96-1.124-4.65-1.76-4.65-1.76-3.61-1.37-5.43-5.4-4.06-9.016 1.37-3.607 5.41-5.432 9.02-4.063.42.166.83.365 1.2.6l.49.3 3.83 2.4c1.23.745 2.74 1.65 4.46 2.684 1.7 1.13 3.72 2.13 6 3.072 2.25.98 4.68 2.14 7.31 3.21 2.66.9 5.49 1.85 8.44 2.74 2.97.81 6.11 1.35 9.28 1.98 3.19.5 6.47.65 9.73.98 3.26-.12 6.54 0 9.73-.34 3.19-.39 6.33-.73 9.28-1.51 3.01-.53 5.77-1.59 8.4-2.47 2.59-1.01 5.026-2.01 7.156-3.09 4.37-2.07 7.52-4.55 9.7-6.14 1.063-.85 1.84-1.56 2.223-1.96.51-.5.77-.77.77-.77l.14-.14c2.47-2.47 6.49-2.46 8.95.02s2.43 6.48-.03 8.94c-.28.28-.59.53-.89.74l.05.04z"/><defs><path id="g" d="M177.29 94.5s10.185-12.115 1.94-23.268c0 0-4.08 7.65-17.69 15.026-8.727 4.728 4.606 16.486 15.75 8.242z"/></defs><clipPath><use xlink:href="#g" overflow="visible"/></clipPath><path fill="#931923" d="M74.68 71.232s8.81 10.91 17.69 15.026-2.375 15.376-9.245 12.242c-5.344-2.438-6.507-4-6.507-4S68.375 87 71.25 73.375c0 0 1.485-3.91 3.43-2.143zm104.465 0s-8.81 10.91-17.69 15.026 2.32 15.256 9.246 12.242c5.56-2.417 6.51-4 6.51-4s8.25-7.5 5.37-21.125c0 0-1.48-3.91-3.43-2.143z"/></svg>