<svg xmlns="http://www.w3.org/2000/svg" width="256" height="256" viewBox="0 0 256 256"><path fill="#333" d="M172.35 234.007c-1.303 0-2.535-.637-3.287-1.723-.83-1.2-.94-2.76-.29-4.065 1.43-2.86 2.69-6.49 3.76-10.84h-7.29c.2 1.8.26 3.71.158 5.7-.1 2.13-1.86 3.8-4 3.8l-66.9-.32c-2.2-.01-3.98-1.8-3.98-4-.01-1.81.11-3.54.35-5.19h-5.09c1.09 3.7 2.28 6.86 3.57 9.44.64 1.28.54 2.8-.25 3.99-.75 1.12-2 1.79-3.34 1.79-.08 0-.16-.01-.25-.01-.56-.04-13.05-.88-24.78-6.33-3.53 2.97-6.73 4.49-9.53 4.49-.94 0-1.85-.16-2.68-.49-.69-.28-1.3-.64-1.82-1.12-13.06-9.13-18.15-32.32-15.15-68.92 1.82-22.19 6.73-48.43 13.47-71.99 4.75-16.65 11.83-37.14 18.53-40.2 3.69-1.69 7.9-2.55 12.51-2.55 3.22 0 6.59.41 10.08 1.22 3.23-21.79 24.2-24.85 44.6-24.85 12.33 0 40.35 0 44.92 23.76 1.07-.08 2.13-.13 3.16-.13 4.61 0 8.81.86 12.51 2.55 9.3 4.27 22.35 41.5 28.7 73.59 5.76 29.14 11.84 81.87-12.2 107.64-.22.22-.46.43-.72.6-.45.35-.96.64-1.52.85-.82.32-1.69.48-2.58.48-2.46 0-4.94-1.17-7.51-3.58-11.11 5.07-22.28 6.28-22.78 6.34-.14.02-.28.02-.42.02l.07.04h-.01zm-41.59-208.13c21.965 0 40.05 3.707 41.473 24.233 2.084-.362 4.32-.598 6.613-.598 3.606 0 7.35.585 10.842 2.187 13.016 5.96 54.127 133.18 15.252 174.86l-.03-.03c-.187.21-.42.38-.73.5-.366.15-.75.21-1.13.21-2.34 0-4.89-2.42-6.62-4.46-11.396 5.91-24.09 7.23-24.09 7.23 2.19-4.39 3.87-10.09 5.144-16.63h-17.17c.85 2.62 1.27 5.74 1.09 9.51l-66.9-.32c-.01-3.61.51-6.64 1.41-9.18H80.57c1.417 5.88 3.13 11.08 5.205 15.23 0 0-13.932-.87-25.706-7.13-2.04 1.99-5.87 5.3-8.86 5.3-.43 0-.85-.06-1.23-.22-.31-.11-.53-.28-.7-.47C14.07 202.33 52.3 57.62 65.23 51.7c3.49-1.6 7.233-2.188 10.84-2.188 4.78 0 9.32 1.027 12.728 2.083.32-.215.644-.424.97-.632.95-21.278 18.72-25.084 40.992-25.084"/><path fill="#333" d="M130.76 17.88c-14.574 0-24.45 1.66-32.02 5.38-8.15 4.003-13.404 10.31-15.693 18.8-2.38-.368-4.71-.55-6.975-.55-5.188 0-9.957.98-14.175 2.91-2.67 1.224-9.764 4.474-20.7 42.74-6.81 23.807-11.77 50.326-13.61 72.767-3.12 37.933 2.48 62.28 16.633 72.38.837.72 1.79 1.29 2.857 1.707 1.305.508 2.695.766 4.133.766 3.23 0 6.573-1.28 10.13-3.87 11.713 4.87 23.38 5.65 23.938 5.68.17.01.338.01.5.01 2.675 0 5.185-1.34 6.67-3.59.52-.79.89-1.64 1.106-2.53.305.03.615.3.93.3l66.895.57h.04c1.03 0 2.03-.45 2.94-.81.06 1.49.52 2.84 1.41 4.11 1.5 2.17 3.94 3.38 6.58 3.38.27 0 .52-.05.83-.07.5-.06 10.78-1.19 21.69-5.69 2.67 1.95 5.4 2.93 8.15 2.93 1.39 0 2.75-.26 4.03-.76.9-.35 1.73-.82 2.48-1.4.44-.31.85-.67 1.22-1.07 25.25-27.08 19.1-81.26 13.19-111.14-3.43-17.34-8.38-34.83-13.94-49.25-9.09-23.57-14.65-26.18-17.03-27.27-4.22-1.93-8.99-2.98-14.18-2.98h-.06c-2.5-8-7.99-14.55-16.19-18.4-7.63-3.58-17.45-5.12-31.84-5.12l.03.02.01.04.01.01z"/><path fill="#fff" d="M94.726 53.856s-16.484-8.12-29.496-2.16C52.216 57.656 13.552 204.27 49.98 226.56c0 0 22.073-25.77 73.29-21.47m36.92-151.234s16.483-8.12 29.495-2.16c13.015 5.96 54.127 133.188 15.252 174.862 0 0-22.074-25.77-73.285-21.47"/><path fill="#fff" d="M172.334 52.78c0-22.89-18.686-26.904-41.574-26.904-22.893 0-41.04 4.015-41.04 26.904 0 2.045.9 4.033.9 6v73.6h81V61.66c1-2.86.714-5.823.714-8.878v-.002z"/><path fill="#1A1A1A" d="M63.776 100.11l4.766 113.27h120.203l3.334-77.026L174.9 71.96 63.776 100.11z"/><path fill="#fff" d="M161.415 222.885c1.414-28.572-31.5-21-31.5-21l-2.898-.07s-32.54-7.86-32.498 20.746"/><path fill="#EAC7A7" d="M135.62 208.23c0 6.32-3.112 8.9-8.5 8.9-5.392 0-8.5-2.58-8.5-8.9v-22.89c0-6.318 3.108-11.44 8.5-11.44 5.388 0 8.5 5.134 8.5 11.452v22.9-.023z"/><path fill="#D3BD8D" d="M174.863 126.068c0 11.11 1.61 20.108 9.396 20.108 7.79 0 18.8-2.085 18.8-20.108 0-11.118-6.32-20.104-14.1-20.104-7.8 0-14.11 8.986-14.11 20.104h.01z"/><path fill="#C69C6D" d="M177.19 125.998c.044-3.118.682-6.667 2.208-9.68.76-1.53 1.74-3.025 3.12-4.313 1.38-1.257 3.33-2.335 5.61-2.373.86.088.68.01 1.5.178.64.138 1.21.336 1.64.547.96.423 1.74 1.028 2.46 1.648 1.39 1.287.13 2.78.89 4.313 1.52 3.084-.03 6.416-.03 9.75v.374c0 2.188.512 3.978-1.68 4.008-2.18.024-2.84-1.724-2.87-3.9 0-.162.562-.337.58-.48.24-2.2.33-4.593-.39-6.6-.66-2.108-1.88-3.43-2.26-3.557-.24-.12-.81-.104-1.59.42-.76.53 1.87 1.402 1.22 2.426-1.33 2.12.98 4.51.98 7.38v.12c0 1.27-4.68 2.2-5.96 2.06-1.21-.13-5.48-1.16-5.48-2.34l.053.01z"/><path fill="#D3BD8D" d="M81.587 126.068c0 11.11-1.62 20.108-9.404 20.108s-18.8-2.085-18.8-20.108c0-11.118 6.306-20.104 14.1-20.104 7.788 0 14.104 8.986 14.104 20.104z"/><path fill="#C69C6D" d="M79.245 125.998c-.033-3.118-.676-6.667-2.197-9.68-.77-1.53-1.75-3.025-3.135-4.313-1.37-1.257-3.332-2.335-5.615-2.373-.855.088-.68.01-1.486.178-.654.138-1.223.336-1.646.547-.97.423-1.75 1.028-2.47 1.648-1.386 1.287-.238 2.78-1.017 4.313-1.52 3.084-.06 6.416-.06 9.75v.374c0 2.188-.42 3.978 1.75 4.008 2.2.024 2.93-1.724 2.95-3.9 0-.162-.55-.337-.57-.48-.24-2.2-.32-4.593.4-6.6.66-2.108 1.89-3.43 2.27-3.557.23-.12.8-.104 1.59.42.76.53 1.5 1.402 2.16 2.426 1.33 2.12 2.11 4.51 2.42 7.38l.01.12c.13 1.27 1.26 2.2 2.54 2.06 1.2-.13 2.1-1.16 2.09-2.34l.01.01z"/><path fill="#fdb" d="M183.71 145.917c0 39.52-37.963 42.938-54.903 42.938-19.28 0-54.9-3.416-54.9-42.938 0-39.508-4.095-90.24 54.9-90.24 59.58 0 54.903 50.732 54.903 90.24z"/><path fill="#333" d="M122.507 162.218c-1.232 0-2.375-.786-2.773-2.028-.486-1.53.357-3.162 1.893-3.65 5.563-1.77 7.924-4.57 8.7-5.74l-2.116-30.674c-.11-1.602 1.11-2.992 2.71-3.1 1.61-.16 2.99 1.1 3.11 2.703l2.18 31.55c.03.46-.05.93-.23 1.35-.27.64-3.02 6.41-12.56 9.44-.29.09-.59.14-.88.14l-.02.01h-.01v-.01z"/><path fill="#D4145A" d="M136.956 174.835c0 4.942-4.006 8.958-8.96 8.958-4.946 0-8.952-4.016-8.952-8.958 0-4.95 4.006-8.96 8.953-8.96 4.953 0 8.96 4.01 8.96 8.96z"/><path fill="#E6E6E6" d="M55.665 215.3s-9.918 9.613-5.684 11.26c4.23 1.647 11.51-6.534 11.51-6.534m138.7-4.726s8.24 10.08 4.01 11.724c-4.23 1.647-9.83-6.998-9.83-6.998"/><path d="M131.864 43.378h-5.59c-82.544-11-87.998 141.1-80.994 162.13 7.016 21.032 40.498 23.102 40.498 23.102-13.092-26.197-11.88-93.69-11.16-114.524 8.3-3.01 16.256-8.088 23.42-13.865 3.5.19 6.81.7 9.35 1.19 3.272.7 5.002 1.36 5.142 1.39v.03c2.05.47 4.102-.81 4.57-2.87.473-2.05-.8-4.1-2.855-4.58.133.03-2.62-.37-6.227-.36-1.244.02-2.63.07-4.09.17 13.67-12.39 23.497-26.05 25.645-29.13 1.2 2.14 9.213 16.09 21.3 29.34h-.52c-3.047.11-5.64.69-5.816.75l.005-.01h.01l-.05-.06c-1.98.7-3.01 2.88-2.3 4.87.7 2 2.88 3.03 4.87 2.32.19-.07 1.34-.72 4.15-1.53 1.39-.28 3.01-.77 4.84-.92h.035c6.772 6.59 14.52 12.54 22.876 16.13 2.157 28.3 5.172 89.48-6.623 113.08 0 0 33.494-3.47 40.494-24.49 7.013-21.03 1.56-173.13-80.98-162.13zm13.07 117.572c-1.2 0-2.18.978-2.18 2.188 0 4.35-6.755 8.04-14.748 8.04-7.997 0-14.76-3.68-14.76-8.03 0-1.2-.976-2.18-2.18-2.18-1.206 0-2.18.98-2.18 2.19 0 6.948 8.397 12.396 19.12 12.396l-.007-.006v-.03c10.72 0 19.11-5.45 19.12-12.39 0-1.2-.98-2.18-2.19-2.18z" fill="#333"/><path fill="#fff" d="M96.966 63.083c-.213 0-.418.037-.627.067.03-.215.07-.416.07-.624 0-3.396-2.75-6.143-6.15-6.143-3.4 0-6.15 2.747-6.15 6.143 0 .208.04.41.06.624-.21-.03-.41-.067-.62-.067-3.4 0-6.15 2.748-6.15 6.14s2.75 6.145 6.14 6.145c.21 0 .4-.048.61-.068-.02.208-.07.413-.07.62 0 3.39 2.76 6.147 6.15 6.147s6.14-2.757 6.14-6.146c0-.2-.04-.41-.07-.62.21.03.42.07.63.07 3.39 0 6.14-2.75 6.14-6.14s-2.75-6.14-6.14-6.14h.03zm-6.89 11.537c-2.98 0-5.394-2.417-5.394-5.398 0-2.976 2.414-5.398 5.395-5.398 2.984 0 5.398 2.423 5.398 5.398 0 2.98-2.413 5.398-5.4 5.398zm79.854-11.537c-.205 0-.404.037-.61.067.02-.215.064-.416.064-.624 0-3.396-2.75-6.143-6.14-6.143s-6.14 2.747-6.14 6.143c0 .208.04.41.07.624-.2-.03-.41-.067-.62-.067-3.39 0-6.14 2.748-6.14 6.14s2.75 6.145 6.14 6.145c.21 0 .42-.048.62-.068-.023.208-.063.413-.063.62 0 3.39 2.75 6.147 6.15 6.147 3.4 0 6.14-2.757 6.14-6.146 0-.2-.04-.41-.06-.62.21.03.41.07.61.07 3.4 0 6.15-2.75 6.15-6.14s-2.75-6.14-6.15-6.14h-.02zm-6.88 11.537c-2.978 0-5.396-2.417-5.396-5.398 0-2.976 2.42-5.398 5.396-5.398 2.982 0 5.404 2.423 5.404 5.398 0 2.98-2.422 5.398-5.404 5.398zm-43.252-23.332c-.21 0-.414.046-.627.067.03-.21.07-.41.07-.622 0-3.387-2.75-6.145-6.14-6.145s-6.14 2.758-6.14 6.145c0 .212.05.413.07.622-.21-.02-.41-.067-.61-.067-3.39 0-6.14 2.752-6.14 6.146 0 3.39 2.76 6.14 6.15 6.14.21 0 .41-.038.62-.07-.02.213-.07.416-.07.627 0 3.4 2.75 6.15 6.15 6.15 3.4 0 6.15-2.75 6.15-6.14 0-.21-.04-.41-.07-.62.21.03.42.07.63.07 3.39 0 6.14-2.75 6.14-6.14 0-3.39-2.75-6.14-6.14-6.14l-.04-.02zm-6.89 11.54c-2.98 0-5.4-2.41-5.4-5.394 0-2.983 2.42-5.406 5.4-5.406 2.985 0 5.397 2.423 5.397 5.406 0 2.985-2.41 5.393-5.397 5.394zm33.384-11.54c-.21 0-.408.046-.62.067.02-.21.066-.41.066-.622 0-3.387-2.76-6.145-6.15-6.145-3.398 0-6.148 2.758-6.148 6.145 0 .212.04.413.07.622-.22-.02-.42-.067-.63-.067-3.39 0-6.14 2.752-6.14 6.146 0 3.39 2.75 6.14 6.14 6.14.21 0 .41-.038.62-.07-.03.213-.07.416-.07.627 0 3.4 2.75 6.15 6.14 6.15 3.39 0 6.14-2.75 6.14-6.14 0-.21-.05-.41-.066-.62.21.03.41.07.62.07 3.39 0 6.14-2.75 6.14-6.14 0-3.39-2.76-6.14-6.15-6.14l.042-.02h-.004zm-6.883 11.54c-2.99 0-5.41-2.41-5.41-5.394 0-2.983 2.42-5.406 5.39-5.406 2.98 0 5.39 2.423 5.39 5.406 0 2.985-2.42 5.393-5.4 5.393h.03z"/><path fill="#EAC7A7" d="M125.562 217.38h5.816c6.427 0 11.636-4.25 11.636-10.675 0-2.467-.777-4.26-2.082-6.14-6.01-.288-11.01 1.085-11.01 1.085l-2.9.043s-4.88-1.096-10.86-.885c-1.38 1.916-2.23 3.322-2.23 5.864 0 6.427 5.21 10.706 11.64 10.706l-.01.002z"/><path fill="#333" d="M101.99 139.232c-9.97 0-18.074-8.104-18.074-18.07 0-1.604 1.3-2.91 2.906-2.91 1.61 0 2.91 1.306 2.91 2.91 0 6.755 5.502 12.257 12.258 12.257 6.756 0 12.256-5.51 12.256-12.26 0-1.61 1.303-2.91 2.91-2.91 1.607 0 2.906 1.3 2.906 2.91 0 9.96-8.103 18.06-18.072 18.06v.01zm52.022 0c-9.97 0-18.074-8.104-18.074-18.07 0-1.604 1.297-2.91 2.908-2.91 1.607 0 2.906 1.306 2.906 2.91 0 6.755 5.5 12.257 12.26 12.257 6.754 0 12.254-5.51 12.254-12.26 0-1.61 1.303-2.91 2.908-2.91 1.607 0 2.91 1.3 2.91 2.91 0 9.96-8.107 18.06-18.072 18.06v.01z"/><radialGradient id="a" cx="118.938" cy="-1221.462" r="30.002" gradientTransform="matrix(.504 0 0 -.504 39.073 -466.117)" gradientUnits="userSpaceOnUse"><stop offset="0" stop-color="#FF585D"/><stop offset="1" stop-color="#FF585D" stop-opacity="0"/></radialGradient><circle opacity=".4" fill="url(#a)" enable-background="new" cx="99.017" cy="149.5" r="15.121"/><radialGradient id="b" cx="233.945" cy="-1221.462" r="30.004" gradientTransform="matrix(.504 0 0 -.504 39.073 -466.117)" gradientUnits="userSpaceOnUse"><stop offset="0" stop-color="#FF585D"/><stop offset="1" stop-color="#FF585D" stop-opacity="0"/></radialGradient><circle opacity=".4" fill="url(#b)" enable-background="new" cx="156.982" cy="149.5" r="15.122"/><path fill="none" stroke="#333" stroke-width="3" stroke-linecap="round" stroke-miterlimit="10" d="M82.953 134.38l6.333-4.332m78.667-1.334l5 5.667"/></svg>