<svg xmlns="http://www.w3.org/2000/svg" width="256" height="256" viewBox="0 0 256 256"><path d="M128.405 229.38c-22.728 0-69.358.026-71.92-48.778-21.153-.795-25.663-16.094-25.663-28.993 0-12.08 5.48-22.65 13.5-26.96l-.573-1.66c-.37-1.07-.28-2.24.26-3.22-2.28-11.17-3.5-25.74 1.87-36.48.36-.73.94-1.33 1.66-1.73.77-.43 1.59-.87 2.39-1.31.38-4.29 2.1-15.23 9.78-26.19 8.79-12.55 27.34-27.51 65.83-27.51 3.99 0 8.17.16 12.44.48.1 0 .2.01.3.03 4.85.73 47.53 7.68 52.45 25.29.42 1.5.66 3.16.73 4.96 13.52 4 21.48 16.38 21.48 33.81 0 5.21-.82 18.17-1.59 29.24.9.35 1.65 1.01 2.1 1.88.51.98.59 2.13.22 3.17l-.13.36c7.06 4.89 11.61 14.74 11.61 25.81 0 12.6-4.3 27.5-24.22 28.92-1.13 20.59-10.7 34.83-28.49 42.4-15.16 6.46-32.89 6.44-43.48 6.44h-.6zm-2.85-198.807c3.836 0 7.883.15 12.142.466 0 0 44.838 6.78 49.2 22.41.592 2.11.716 4.51.53 7.02 19.733 3.61 21.53 23.19 21.53 30.66 0 5.81-1.08 22.01-1.806 32.19l2.78.77-1.24 3.53c7.23 3.1 12.5 12.66 12.5 23.97 0 22.43-13.71 25.04-23.41 25.04-.23 0-.46-.04-.69-.05-.19 48.69-46.89 48.77-68.07 48.77h-.6c-24.05 0-67.97-.09-68.03-48.96-.67.13-1.38.22-2.14.22-9.69 0-23.41-2.6-23.41-25.03 0-12.36 6.28-22.62 14.53-24.66l-1.82-5.27.95-.19c-2.46-10.8-4.29-25.87.99-36.41 0 0 9-4.91 8.59-4.91-.13 0-1.32.54-4.22 2 0 0 .55-51.61 71.73-51.61m0-8c-40.21 0-59.78 15.88-69.11 29.21-7.1 10.14-9.45 20.35-10.23 25.96l-.58.31c-1.43.78-2.59 1.98-3.32 3.44-4.7 9.4-5.52 22.14-2.44 37.9-.33 1.12-.42 2.3-.24 3.46-7.8 5.68-12.79 16.4-12.79 28.74 0 12.57 3.8 21.77 11.29 27.35 3.97 2.95 8.8 4.73 14.65 5.39.97 9.58 3.71 17.87 8.19 24.73 4.98 7.61 12.12 13.48 21.23 17.47 15.59 6.84 34.03 6.81 46.22 6.81h.6c10.9 0 29.13.02 45.05-6.75 18.04-7.69 28.53-22.28 30.64-42.46 5.21-.78 9.57-2.5 13.21-5.21 7.49-5.58 11.29-14.78 11.29-27.35 0-11.27-4.33-21.49-11.25-27.48.01-1.29-.3-2.57-.9-3.73-.39-.76-.9-1.44-1.5-2.02.73-10.59 1.44-22.29 1.44-27.25 0-18.25-7.99-31.54-21.72-36.77-.15-1.07-.36-2.1-.63-3.07-2.62-9.4-12.95-16.78-31.57-22.56-12.19-3.79-23.66-5.54-24.14-5.62-.2-.03-.4-.06-.6-.07-4.36-.32-8.65-.49-12.73-.49z" fill="#333"/><path fill="#F4D1B0" d="M186.064 151.62c0 13.828 2.004 25.037 11.703 25.037 9.697 0 23.41-2.603 23.41-25.037 0-13.827-7.857-25.036-17.555-25.036s-17.558 11.21-17.558 25.036z"/><path fill="#C69C6D" d="M188.975 151.526c.04-3.876.84-8.292 2.734-12.04.96-1.908 2.18-3.76 3.9-5.368 1.7-1.568 4.15-2.92 6.98-2.954 1.07.103.85.006 1.86.222.81.162 1.51.408 2.05.682 1.19.53 2.17 1.28 3.06 2.05 1.72 1.608 1.64 3.46 2.6 5.37 1.89 3.84 1.43 7.986 1.43 12.133v.48c0 2.72-.84 4.95-3.56 4.98-2.72.04-4.29-2.14-4.32-4.85 0-.19.34-.41.35-.59.3-2.73.23-5.71-.66-8.22-.83-2.61-2.44-4.25-2.92-4.42-.29-.15-1.04-.12-2.02.53-.95.66-1.9 1.75-2.71 3.01-1.67 2.65-2.65 5.62-3.02 9.2l-.01.15c-.17 1.6-1.6 2.76-3.2 2.58-1.5-.16-2.61-1.44-2.6-2.92z"/><path fill="#F4D1B0" d="M69.938 151.62c0 13.828-2.004 25.037-11.705 25.037-9.697 0-23.41-2.603-23.41-25.037 0-13.827 7.857-25.036 17.553-25.036 9.696 0 17.562 11.21 17.562 25.036z"/><path fill="#C69C6D" d="M67.027 151.526c-.04-3.876-.838-8.292-2.738-12.04-.97-1.908-2.18-3.76-3.91-5.368-1.71-1.568-4.16-2.92-6.99-2.954-1.07.103-.85.006-1.86.222-.81.162-1.51.408-2.05.682-1.2.53-2.17 1.28-3.07 2.05-1.72 1.608-3.02 3.46-3.99 5.37-1.9 3.84-2.81 7.986-2.81 12.133v.48c0 2.72 2.22 4.95 4.93 4.98 2.72.04 4.98-2.14 5.02-4.85 0-.19 0-.41-.02-.59-.3-2.73-.06-5.71.83-8.22.82-2.61 2.52-4.25 3-4.42.29-.15 1.08-.12 2.06.53.95.66 1.92 1.75 2.74 3.01 1.66 2.65 2.64 5.62 3.02 9.2l.01.15c.17 1.6 1.6 2.76 3.19 2.58 1.49-.16 2.61-1.44 2.6-2.92z"/><path fill="#fdb" d="M197.08 176.344c0 49.196-47.266 49.084-68.352 49.084-23.998 0-68.354.112-68.354-49.084S55.284 64 128.728 64c74.168 0 68.352 63.147 68.352 112.344z"/><path fill="#BDCCD4" d="M47.53 121.69l13.09 37.81 18.905-44.112m130.4 8.726L197.47 159.5l-18.906-44.112"/><path fill="#333" d="M126.734 210.696c-17.72 0-28.842-7.868-29.53-8.37-1.296-.942-1.585-2.753-.642-4.058.936-1.297 2.742-1.587 4.055-.648.922.662 23.088 16.133 55.145-.233 1.44-.723 3.184-.16 3.916 1.266.73 1.433.162 3.183-1.27 3.915-11.928 6.088-22.658 8.128-31.674 8.128z"/><path fill="#BDCCD4" d="M178.9 86.303s-27.143 15.515-70.77 18.422l28.114-12.605S88.252 121.2 64.012 121.2l-5.092 3.155-6.545 10.54s-11.996-31.63-2.908-49.806c0 0 15.998-8.73 4.363-2.91 0 0 .61-57.33 83.867-51.14 0 0 44.838 6.78 49.2 22.41C190.234 65.4 178.9 86.3 178.9 86.3zm-5.818-4.85s0 33.45 11.637 46.534l21.79 4.08s2.44-32.194 2.44-40.92c0-8.726-2.43-33.938-32.96-31.028-30.54 2.9-2.92 21.33-2.92 21.33zm-36.02 44.03s2.876-1.91 7.345-3.943c4.486-2.085 10.734-4.4 17.37-5.578 3.306-.613 6.692-1.003 9.9-1.028 3.198-.106 6.233.096 8.802.478 2.58.313 4.71.8 6.19 1.223 1.48.372 2.33.593 2.33.593 2.81.718 4.51 3.576 3.79 6.387-.72 2.815-3.58 4.514-6.39 3.798-.15-.042-.3-.08-.44-.13l-.46-.166s-.67-.236-1.83-.64c-1.15-.452-2.83-1.01-4.92-1.458-2.08-.52-4.56-.93-7.27-1.08-2.71-.24-5.66-.17-8.59.09-5.9.47-11.77 2.04-16.03 3.56-4.32 1.52-6.87 2.9-6.87 2.9-1.41.76-3.18.24-3.95-1.18-.73-1.33-.3-2.98.93-3.81l.05-.04zm-21.082 5.012s-2.548-1.382-6.87-2.9c-4.262-1.515-10.13-3.084-16.023-3.56-2.94-.268-5.88-.336-8.59-.096-2.71.15-5.203.56-7.27 1.07-2.093.45-3.77 1-4.925 1.46-1.156.4-1.82.64-1.82.64l-.457.16c-2.738.96-5.732-.48-6.69-3.22-.958-2.74.483-5.74 3.22-6.7.143-.06.295-.1.438-.14 0 0 .848-.22 2.336-.6 1.47-.43 3.6-.91 6.19-1.23 2.56-.39 5.6-.59 8.8-.48 3.21.02 6.59.41 9.9 1.03 6.63 1.17 12.88 3.49 17.37 5.57 4.46 2.03 7.34 3.94 7.34 3.94l.04.02c1.33.89 1.7 2.7.81 4.03-.85 1.27-2.51 1.65-3.82.95z"/><path fill="#C69C6D" d="M86.904 177.076c-9.6 0-17.9-4.072-18.377-4.31-1.436-.72-2.016-2.46-1.3-3.897.716-1.44 2.466-2.04 3.897-1.31.143.06 13.943 6.78 24.727 1.93 5.68-2.55 9.68-7.96 11.9-16.09.43-1.54 2.03-2.46 3.58-2.05 1.55.42 2.46 2.02 2.04 3.57-2.7 9.9-7.8 16.59-15.15 19.88-3.71 1.66-7.6 2.26-11.3 2.26zm82.192 0c-3.697 0-7.588-.603-11.3-2.26-7.356-3.29-12.458-9.978-15.153-19.878-.424-1.55.486-3.153 2.035-3.574 1.576-.42 3.154.503 3.574 2.043 2.223 8.14 6.234 13.554 11.92 16.098 10.87 4.854 24.563-1.876 24.7-1.943 1.435-.72 3.183-.136 3.9 1.302.718 1.438.138 3.18-1.302 3.902-.476.238-8.775 4.31-18.374 4.31z"/><path fill="#F5F5F5" d="M113.174 151.542c0 11.24-9.105 20.354-20.348 20.354-11.246 0-20.355-9.112-20.355-20.354 0-11.232 9.11-20.333 20.36-20.333 11.24 0 20.35 9.1 20.35 20.33z"/><path fill="#333" d="M107.137 151.063c0 7.806-6.318 14.13-14.125 14.13-7.8 0-14.127-6.324-14.127-14.13 0-7.8 6.328-14.115 14.127-14.115 7.806 0 14.125 6.316 14.125 14.115z"/><path fill="#F5F5F5" d="M182.98 151.542c0 11.24-9.106 20.354-20.35 20.354s-20.353-9.112-20.353-20.354c0-11.232 9.11-20.333 20.354-20.333s20.35 9.1 20.35 20.33z"/><path fill="#333" d="M176.94 151.063c0 7.806-6.32 14.13-14.122 14.13-7.8 0-14.13-6.324-14.13-14.13 0-7.8 6.33-14.115 14.13-14.115 7.803 0 14.123 6.316 14.123 14.115z"/><path fill="#95ABB5" d="M177.195 78.89s-.96 4.312-4.867 9.526c-1.926 2.595-4.494 5.454-7.725 7.93-1.55 1.34-3.324 2.488-5.172 3.57-1.8 1.163-3.79 2.048-5.76 2.975-2.02.8-4.07 1.53-6.08 2.22-2.07.47-4.11.94-6.08 1.39-2 .28-3.94.43-5.77.63-1.82.19-3.58 0-5.17.01-3.18.02-5.81-.59-7.63-.87-1.82-.35-2.84-.6-2.84-.6s1.03-.24 2.84-.68c1.78-.43 4.34-.74 7.29-1.55 2.99-.62 6.37-1.58 9.94-2.6 3.54-1.15 7.22-2.5 10.79-4.07 1.7-.96 3.57-1.59 5.21-2.59 1.67-.95 3.34-1.84 4.89-2.82 3.15-1.9 5.95-3.93 8.35-5.74 4.75-3.67 7.81-6.69 7.81-6.69zm-40.72 5.817s-.96 4.31-4.867 9.525c-1.926 2.597-4.492 5.453-7.727 7.93-1.54 1.344-3.32 2.49-5.16 3.568-1.81 1.163-3.8 2.053-5.77 2.978-2.02.795-4.07 1.53-6.08 2.216-2.07.47-4.11.938-6.08 1.386-2.01.276-3.94.433-5.77.632-1.82.185-3.58-.007-5.16.004-3.18.025-5.81-.585-7.63-.872-1.82-.354-2.84-.605-2.84-.605l2.84-.68c1.79-.44 4.34-.75 7.3-1.56 2.99-.62 6.36-1.59 9.94-2.61 3.53-1.16 7.22-2.5 10.79-4.08 1.7-.96 3.57-1.6 5.21-2.59 1.67-.95 3.34-1.84 4.9-2.82 3.14-1.91 5.95-3.93 8.34-5.75 4.75-3.68 7.81-6.69 7.81-6.69z"/><linearGradient id="a" gradientUnits="userSpaceOnUse" x1="1145.127" y1="732.76" x2="1145.127" y2="722.332" gradientTransform="matrix(7.466 0 0 7.466 -8424.73 -5257.445)"><stop offset="0" stop-color="#FF5459"/><stop offset=".789" stop-color="#FF6064" stop-opacity="0"/></linearGradient><path fill="url(#a)" d="M129.62 149.38v32.966s1.305 6.236-7.706 9.01l2.558-9.01-3.432-34.96"/><path fill="#333" d="M122.433 196.58c-1.232 0-2.38-.792-2.77-2.03-.487-1.528.358-3.162 1.89-3.65 8.008-2.548 7.7-7.12 7.684-7.317l-.018-35.232c0-1.6 2.09-2.91 3.69-2.91 1.61 0 3.7 1.31 3.7 2.91v34.91s.33 9.11-12.51 13.19c-.3.09-1.39.14-1.68.14z"/></svg>