<?xml version="1.0" encoding="utf-8"?>
<!-- Generator: Adobe Illustrator 16.0.0, SVG Export Plug-In . SVG Version: 6.00 Build 0)  -->
<!DOCTYPE svg PUBLIC "-//W3C//DTD SVG 1.1//EN" "http://www.w3.org/Graphics/SVG/1.1/DTD/svg11.dtd">
<svg version="1.1" id="Layer_1" xmlns="http://www.w3.org/2000/svg" xmlns:xlink="http://www.w3.org/1999/xlink" x="0px" y="0px"
	 width="256px" height="256px" viewBox="0 0 256 256" enable-background="new 0 0 256 256" xml:space="preserve">
<path fill="#333333" d="M97.207,220.28c-9.726,0-38.616-0.003-40.71-36.304c-21.164-0.791-25.673-16.104-25.673-29.004
	c0-16.281,9.468-29.038,21.555-29.038c2.05,0,4.08,0.383,6.01,1.128c2.27-13.802,6.62-24.258,13.44-32.337
	c-3.81-5.908-7.33-16.47-0.38-25.873c0.75-1.024,1.95-1.623,3.21-1.623c0.09,0,0.19,0.01,0.29,0.01c1.36,0.1,2.58,0.9,3.23,2.1
	c0.01,0.03,3.18,5.54,12.73,11.46c3.39-1.46,7.09-2.68,11.04-3.66c0.81-3.47,4.09-11.67,17.16-17.33
	c9.12-3.95,15.13-8.67,16.071-12.61c0.239-1.01,0.34-2.62-1.561-4.9c-1.24-1.48-1.24-3.64,0-5.13c0.779-0.93,1.91-1.43,3.07-1.43
	c0.67,0,1.358,0.17,1.979,0.53c0.41,0.24,10.189,5.9,14.932,16.58l0.09,0.21c0.229,0.53,0.43,1.02,0.608,1.52
	c0.091,0.25,0.181,0.5,0.261,0.75c0.109,0.34,0.221,0.67,0.319,1c0.101,0.35,0.2,0.71,0.302,1.07l0.139,0.55
	c0.121,0.51,0.229,1.02,0.32,1.55l0.09,0.51c0.08,0.53,0.16,1.09,0.221,1.66l0.039,0.42c0.061,0.6,0.101,1.21,0.111,1.83l0.01,0.28
	c0.01,0.74,0,1.4-0.03,2.04l-0.011,0.17c-0.039,0.65-0.101,1.37-0.189,2.07l-0.02,0.1c-0.09,0.7-0.211,1.43-0.371,2.21l-0.049,0.22
	c-0.15,0.7-0.33,1.43-0.541,2.17l-0.09,0.3c-0.209,0.73-0.449,1.47-0.709,2.2l-0.121,0.31c-0.09,0.26-0.189,0.51-0.289,0.76
	c3.81,0.83,7.369,1.88,10.67,3.14c8.43-5.56,11.22-10.45,11.25-10.5c0.648-1.2,1.869-2,3.24-2.09c0.1-0.01,0.188-0.01,0.289-0.01
	c1.26,0,2.461,0.6,3.221,1.62c6.49,8.79,3.82,17.89,1.09,23.23c8.1,8.28,13.14,19.4,15.619,34.47c1.471-0.41,2.961-0.62,4.461-0.62
	c12.09,0,21.56,12.76,21.56,29.039c0,12.601-4.3,27.5-24.21,28.921c-1.35,24.47-14.8,36.38-41,36.38c-6.3,0-12.67-0.62-18.279-1.17
	c-4.551-0.44-8.841-0.87-12.229-0.87c-4.03,0-8.8,0.438-13.85,0.91c-5.99,0.56-12.18,1.14-18.4,1.14L97.207,220.28z"/>
<path fill="#333333" d="M136.73,39.72c0,0,8.992,5.127,13.256,14.725c0.033,0.073,0.063,0.15,0.097,0.223
	c0.181,0.417,0.354,0.84,0.515,1.273c0.08,0.22,0.158,0.44,0.234,0.66c0.096,0.28,0.188,0.57,0.275,0.85
	c0.093,0.31,0.18,0.62,0.263,0.93c0.042,0.16,0.086,0.32,0.125,0.48c0.104,0.44,0.196,0.88,0.28,1.33
	c0.022,0.14,0.05,0.28,0.072,0.42c0.079,0.48,0.145,0.96,0.195,1.45l0.034,0.36c0.048,0.52,0.08,1.04,0.095,1.58
	c0.003,0.09,0.003,0.18,0.004,0.27c0.012,0.57,0.006,1.15-0.025,1.74v0.11c-0.029,0.62-0.09,1.25-0.17,1.9v0.04
	c-0.08,0.63-0.189,1.28-0.319,1.93c-0.011,0.07-0.021,0.13-0.04,0.2c-0.13,0.63-0.29,1.27-0.471,1.92l-0.069,0.26
	c-0.181,0.64-0.39,1.3-0.63,1.96l-0.1,0.28c-0.24,0.67-0.512,1.35-0.82,2.04l-0.09,0.21c-0.32,0.72-0.66,1.45-1.051,2.19
	c-0.119,0.23-0.24,0.45-0.359,0.68c6.42,1.03,12.02,2.6,16.88,4.65c10.93-6.72,14.351-13.09,14.351-13.09
	c6.389,8.65,1.709,17.87-0.721,21.58c10.98,9.81,15.57,23.8,17.439,39.64c2.319-1.6,4.92-2.51,7.67-2.51
	c9.701,0,17.561,11.21,17.561,25.04c0,22.439-13.71,25.04-23.41,25.04c-0.23,0-0.46-0.01-0.689-0.03
	c-0.109,30.58-18.329,36.301-37.109,36.301c-11.22,0-22.641-2.041-30.511-2.041c-8.959,0-20.859,2.051-32.25,2.051
	c-19.1,0-36.79-5.75-36.83-36.479c-0.67,0.132-1.38,0.21-2.14,0.21c-9.7,0-23.41-2.6-23.41-25.04c0-13.829,7.86-25.038,17.56-25.038
	c3.35,0,6.48,1.34,9.15,3.67c1.75-15.23,5.91-28.842,15.61-38.75c-0.17-0.11-0.34-0.22-0.51-0.35c0,0-10.18-12.11-1.94-23.26
	c0,0,3.76,7.01,16,14.07c4.27-2.03,9.14-3.65,14.68-4.83c0.1-0.48,0.22-0.97,0.35-1.48c0,0,0.49-9.21,15.03-15.51
	c14.54-6.3,23.27-15.021,16-23.75"/>
<path fill="#333333" d="M136.791,31.821c-2.301,0-4.57,0.99-6.13,2.86c-2.49,2.97-2.49,7.29-0.021,10.26
	c0.199,0.24,0.84,1.04,0.739,1.42c-0.351,1.51-3.69,5.51-13.77,9.88c-12.35,5.3-17.02,12.8-18.79,17.66
	c-2.59,0.71-5.08,1.54-7.44,2.47c-6.69-4.49-9.31-8.39-9.66-8.93c-1.23-2.47-3.59-4-6.35-4.25c-0.23-0.02-0.45-0.03-0.67-0.03
	c-2.54,0-4.89,1.31-6.42,3.38c-7.3,9.88-4.95,20.73-1.23,27.88c-5.6,7.39-9.44,16.47-11.77,27.79c-0.94-0.14-1.9-0.2-2.86-0.2
	c-14.33,0-25.55,14.511-25.55,33.03c0,12.57,3.8,21.77,11.3,27.35c3.97,2.961,8.81,4.74,14.67,5.4
	c1.35,12.57,6.03,22.029,13.96,28.17c7.39,5.721,17.07,8.391,30.46,8.391c6.41,0,12.98-0.609,18.77-1.149
	c4.96-0.46,9.64-0.892,13.48-0.892c3.2,0,7.4,0.41,11.842,0.852c5.709,0.561,12.18,1.199,18.67,1.199
	c13.09,0,23.028-2.721,30.39-8.311c8.17-6.199,12.97-15.74,14.329-28.439c5.211-0.771,9.57-2.5,13.211-5.211
	c7.49-5.578,11.289-14.778,11.289-27.35c0-18.52-11.219-33.03-25.549-33.03c-0.41,0-0.83,0.01-1.24,0.04
	c-2.6-12.82-7.19-22.8-14.09-30.64c3.55-8.7,2.68-17.66-2.631-24.85c-1.529-2.06-3.891-3.38-6.42-3.38
	c-0.221,0-0.439,0.01-0.67,0.03c-2.761,0.26-5.109,1.78-6.351,4.25c-0.319,0.51-2.608,3.92-8.319,8.01
	c-1.601-0.56-3.25-1.07-4.949-1.53c0.18-0.7,0.35-1.4,0.488-2.07c0.021-0.09,0.03-0.17,0.051-0.26c0.18-0.87,0.311-1.68,0.41-2.48
	l0.02-0.15c0.101-0.76,0.171-1.53,0.211-2.29l0.02-0.24c0.041-0.72,0.051-1.46,0.03-2.25c0-0.13,0-0.26-0.011-0.39
	c-0.02-0.65-0.059-1.35-0.119-2.05l-0.04-0.41v-0.06c-0.069-0.66-0.16-1.3-0.261-1.91c-0.021-0.13-0.049-0.3-0.079-0.47l-0.011-0.07
	c-0.119-0.65-0.239-1.23-0.369-1.77c-0.041-0.18-0.09-0.35-0.131-0.52l-0.029-0.11c-0.1-0.4-0.221-0.81-0.34-1.21
	c-0.11-0.37-0.23-0.74-0.36-1.11c-0.101-0.31-0.2-0.6-0.31-0.88c-0.2-0.53-0.42-1.07-0.67-1.65l-0.131-0.3
	c-5.181-11.65-15.439-17.75-16.601-18.41c-1.24-0.71-2.601-1.05-3.96-1.05L136.791,31.821z"/>
<path fill="#C1272D" d="M76.618,94.5c0,0-10.18-12.115-1.938-23.268c0,0,4.08,7.65,17.69,15.026
	C101.097,90.986,87.763,102.744,76.618,94.5z"/>
<path fill="#C1272D" d="M177.29,94.5c0,0,10.185-12.115,1.94-23.268c0,0-4.08,7.65-17.69,15.026
	C152.813,90.986,166.146,102.744,177.29,94.5z"/>
<path fill="#931923" d="M186.063,154.973c0,13.827,2.008,25.036,11.703,25.036s23.41-2.61,23.41-25.04
	c0-13.83-7.857-25.04-17.555-25.04c-9.689,0-17.551,11.21-17.551,25.03L186.063,154.973z"/>
<path fill="#560B15" d="M188.975,154.88c0.039-3.878,0.84-8.29,2.737-12.04c0.96-1.906,2.183-3.76,3.901-5.369
	c1.711-1.568,4.152-2.919,6.988-2.953c1.071,0.104,0.851,0.006,1.859,0.224c0.813,0.165,1.516,0.409,2.053,0.68
	c1.199,0.528,2.172,1.278,3.067,2.054c1.72,1.606,2.146,3.461,3.104,5.368c1.897,3.837,1.933,7.986,1.933,12.134v0.477
	c0,2.72-1.341,4.949-4.058,4.98c-2.709,0.039-4.529-2.142-4.569-4.852c0-0.189,0.22-0.41,0.239-0.602
	c0.301-2.729,0.17-5.709-0.719-8.22c-0.83-2.61-2.48-4.25-2.951-4.42c-0.289-0.14-1.049-0.12-2.029,0.53
	c-0.94,0.67-1.91,1.75-2.721,3.02c-1.66,2.65-2.641,5.62-3.021,9.2l-0.011,0.15c-0.17,1.6-1.59,2.76-3.189,2.59
	c-1.5-0.16-2.609-1.44-2.6-2.92L188.975,154.88z"/>
<path fill="#931923" d="M69.935,154.973c0,13.827-2.004,25.036-11.7,25.036c-9.698,0-23.41-2.61-23.41-25.04
	c0-13.83,7.854-25.04,17.554-25.04c9.69,0,17.55,11.21,17.55,25.03L69.935,154.973z"/>
<path fill="#560B15" d="M67.026,154.88c-0.04-3.878-0.84-8.29-2.734-12.04c-0.965-1.906-2.186-3.76-3.904-5.369
	c-1.71-1.568-4.152-2.919-6.988-2.953c-1.074,0.104-0.852,0.006-1.865,0.224c-0.81,0.165-1.51,0.409-2.05,0.68
	c-1.196,0.528-2.17,1.278-3.067,2.054c-1.723,1.606-2.027,3.461-2.984,5.368c-1.9,3.837-1.814,7.986-1.814,12.134v0.477
	c0,2.72,1.224,4.949,3.937,4.98c2.717,0.039,4.476-2.142,4.513-4.852c0-0.189-0.245-0.41-0.265-0.602
	c-0.3-2.729-0.185-5.709,0.708-8.22c0.826-2.61,2.465-4.25,2.94-4.42c0.292-0.14,1.048-0.12,2.026,0.53
	c0.94,0.67,1.9,1.75,2.72,3.02c1.66,2.65,2.64,5.62,3.02,9.2l0.01,0.15c0.17,1.6,1.6,2.76,3.19,2.59c1.49-0.16,2.61-1.44,2.6-2.92
	L67.026,154.88z"/>
<path fill="#C1272D" d="M197.08,179.693c0,49.201-46.538,34.543-67.622,34.543c-23.996,0-69.084,14.656-69.084-34.543
	c0-49.193-5.088-101.436,68.354-101.436c74.17,0,68.353,52.24,68.353,101.432L197.08,179.693z"/>
<path fill="#333333" d="M125.37,189.252c-3.68,0-6.693-1.025-9.004-3.07c-5.375-4.755-4.385-13.046-4.34-13.398
	c0.203-1.594,1.693-2.736,3.254-2.518c1.592,0.207,2.72,1.655,2.516,3.243c-0.004,0.05-0.63,5.63,2.44,8.33
	c2.048,1.79,5.515,2.07,10.321,0.851c1.563-0.431,3.137,0.539,3.533,2.101c0.396,1.55-0.547,3.13-2.105,3.528
	c-2.396,0.611-4.603,0.922-6.613,0.922L125.37,189.252L125.37,189.252z M137.816,189.246c-1.959,0-4.144-0.301-6.529-0.916
	c-1.561-0.395-2.503-1.977-2.104-3.53c0.394-1.56,1.996-2.495,3.529-2.104c3.223,0.813,7.505,1.371,9.614-0.687
	c2.174-2.12,1.729-6.649,1.38-8.21c-0.354-1.56,0.615-3.119,2.182-3.48c1.575-0.358,3.118,0.602,3.485,2.16
	c0.08,0.36,1.987,8.812-2.963,13.67c-2.103,2.052-4.978,3.092-8.597,3.092v0.006H137.816z"/>
<path fill="#931923" d="M136.48,193.15c0,0-7.754,5.814-15.75,5.814C112.733,198.966,141.811,215.206,136.48,193.15z"/>
<path fill="#29ABE2" d="M105.708,78.988c0,0,0.484-9.215,15.027-15.516c14.541-6.3,23.266-15.025,15.994-23.752
	c0,0,24.722,14.063,11.631,39.27c-13.09,25.205-32.959,26.664-42.659,11.634c0,0-1.94-4.363,0-11.634L105.708,78.988z"/>
<path fill="#0071BC" d="M142.548,45.537c7.272,8.726-1.455,17.452-15.994,23.754c-14.544,6.31-15.024,15.52-15.024,15.52
	c-1.94,7.27,0,11.64,0,11.64c0.2,0.32,0.433,0.58,0.642,0.88c10.494,6.94,25.576,2.12,36.189-18.33
	c7.219-13.89,2.939-24.37-2.351-31.01c-2.005-1.6-3.466-2.44-3.466-2.44L142.548,45.537z"/>
<radialGradient id="SVGID_1_" cx="-686.1074" cy="658.2637" r="29.9802" gradientTransform="matrix(0.723 0 0 0.723 581.6265 -300.6779)" gradientUnits="userSpaceOnUse">
	<stop  offset="0" style="stop-color:#FF585D"/>
	<stop  offset="1" style="stop-color:#FF585D;stop-opacity:0"/>
</radialGradient>
<circle opacity="0.7" fill="url(#SVGID_1_)" enable-background="new    " cx="85.323" cy="175.247" r="21.697"/>
<radialGradient id="SVGID_2_" cx="-12172.7734" cy="1122.8418" r="29.9984" gradientTransform="matrix(0.185 0 0 0.185 2385.1382 -40.6772)" gradientUnits="userSpaceOnUse">
	<stop  offset="0" style="stop-color:#FF585D"/>
	<stop  offset="1" style="stop-color:#FF585D;stop-opacity:0"/>
</radialGradient>
<circle opacity="0.7" fill="url(#SVGID_2_)" enable-background="new    " cx="131.802" cy="166.872" r="5.553"/>
<radialGradient id="SVGID_3_" cx="-571.1152" cy="658.2637" r="29.9803" gradientTransform="matrix(0.723 0 0 0.723 581.6265 -300.6779)" gradientUnits="userSpaceOnUse">
	<stop  offset="0" style="stop-color:#FF585D"/>
	<stop  offset="1" style="stop-color:#FF585D;stop-opacity:0"/>
</radialGradient>
<circle opacity="0.7" fill="url(#SVGID_3_)" enable-background="new    " cx="168.497" cy="175.247" r="21.697"/>
<path fill="#333333" d="M137.813,170.973c-1.391,0-2.627-1.009-2.859-2.434c-0.307-1.79-0.905-2.96-1.805-3.471
	c-1.199-0.689-3-0.25-3.387-0.109c-1.5,0.57-3.181-0.17-3.741-1.689c-0.57-1.5,0.18-3.181,1.68-3.75
	c0.46-0.189,4.59-1.66,8.359,0.489c1.711,0.98,3.899,3.091,4.641,7.57c0.27,1.58-0.811,3.08-2.391,3.34
	c-0.16,0.03-0.319,0.04-0.479,0.04L137.813,170.973z"/>
<path fill="#F5F5F5" d="M119.16,142.773c0,14.018-11.34,25.391-25.364,25.391c-14.016,0-25.37-11.373-25.37-25.391
	c0-14,11.355-25.362,25.37-25.362c14.025,0.01,25.363,11.37,25.363,25.37L119.16,142.773z"/>
<path fill="#333333" d="M109.82,142.773c0,8.867-7.175,16.035-16.024,16.035c-8.838,0-16.027-7.168-16.027-16.035
	c0-8.851,7.18-16.002,16.02-16.002c8.85,0,16.02,7.161,16.02,16.01L109.82,142.773z"/>
<path fill="#F5F5F5" d="M188.968,142.773c0,14.018-11.34,25.391-25.364,25.391c-14.015,0-25.373-11.373-25.373-25.391
	c0-14,11.359-25.362,25.373-25.362c14.024,0.01,25.364,11.37,25.364,25.37V142.773z"/>
<path fill="#333333" d="M179.626,142.773c0,8.867-7.174,16.035-16.022,16.035c-8.84,0-16.024-7.168-16.024-16.035
	c0-8.851,7.187-16.002,16.024-16.002c8.851,0,16.022,7.161,16.022,16.01V142.773z M184.926,115.284l-1.146,0.782
	c-0.859,0.62-2.021,1.25-3.43,2.124c-1.439,0.802-3.16,1.83-5.221,2.764c-2.029,1.003-4.37,1.958-6.91,3.01
	c-2.539,1.038-5.369,1.965-8.369,2.856c-3.031,0.792-6.211,1.612-9.57,2.165c-3.319,0.758-6.819,0.973-10.34,1.361
	c-3.541,0.36-7.149,0.24-10.739,0.33c-3.57-0.3-7.19-0.34-10.68-0.803c-3.47-0.632-6.96-0.95-10.24-1.665
	c-3.25-0.824-6.42-1.534-9.44-2.214c-2.96-0.848-5.7-1.822-8.26-2.634c-5.19-1.544-9.23-3.426-12.19-4.528
	c-2.96-1.124-4.65-1.76-4.65-1.76c-3.61-1.37-5.43-5.4-4.06-9.016c1.37-3.607,5.41-5.432,9.02-4.063c0.42,0.166,0.83,0.365,1.2,0.6
	l0.49,0.3l3.83,2.4c1.23,0.745,2.74,1.65,4.46,2.684c1.7,1.13,3.72,2.13,6,3.072c2.25,0.98,4.68,2.14,7.31,3.21
	c2.66,0.9,5.49,1.85,8.44,2.74c2.97,0.81,6.11,1.35,9.28,1.98c3.19,0.5,6.47,0.65,9.729,0.98c3.261-0.12,6.539,0,9.729-0.34
	c3.19-0.39,6.33-0.73,9.28-1.51c3.01-0.53,5.77-1.59,8.4-2.47c2.59-1.01,5.028-2.01,7.158-3.09c4.37-2.07,7.521-4.55,9.7-6.14
	c1.062-0.85,1.84-1.56,2.222-1.96c0.51-0.5,0.77-0.77,0.77-0.77l0.14-0.14c2.479-2.47,6.49-2.46,8.95,0.02s2.449,6.48-0.03,8.94
	c-0.271,0.28-0.59,0.53-0.89,0.74L184.926,115.284z"/>
<path fill="#931923" d="M186.063,154.973c0,13.827,2.008,25.036,11.703,25.036s23.41-2.61,23.41-25.04
	c0-13.83-7.857-25.04-17.555-25.04c-9.689,0-17.551,11.21-17.551,25.03L186.063,154.973z"/>
<path fill="#560B15" d="M188.975,154.88c0.039-3.878,0.84-8.29,2.737-12.04c0.96-1.906,2.183-3.76,3.901-5.369
	c1.711-1.568,4.152-2.919,6.988-2.953c1.071,0.104,0.851,0.006,1.859,0.224c0.813,0.165,1.516,0.409,2.053,0.68
	c1.199,0.528,2.172,1.278,3.067,2.054c1.72,1.606,2.146,3.461,3.104,5.368c1.897,3.837,1.933,7.986,1.933,12.134v0.477
	c0,2.72-1.341,4.949-4.058,4.98c-2.709,0.039-4.529-2.142-4.569-4.852c0-0.189,0.22-0.41,0.239-0.602
	c0.301-2.729,0.17-5.709-0.719-8.22c-0.83-2.61-2.48-4.25-2.951-4.42c-0.289-0.14-1.049-0.12-2.029,0.53
	c-0.94,0.67-1.91,1.75-2.721,3.02c-1.66,2.65-2.641,5.62-3.021,9.2l-0.011,0.15c-0.17,1.6-1.59,2.76-3.189,2.59
	c-1.5-0.16-2.609-1.44-2.6-2.92L188.975,154.88z"/>
<path fill="#931923" d="M69.935,154.973c0,13.827-2.004,25.036-11.7,25.036c-9.698,0-23.41-2.61-23.41-25.04
	c0-13.83,7.854-25.04,17.554-25.04c9.69,0,17.55,11.21,17.55,25.03L69.935,154.973z"/>
<path fill="#560B15" d="M67.026,154.88c-0.04-3.878-0.84-8.29-2.734-12.04c-0.965-1.906-2.186-3.76-3.904-5.369
	c-1.71-1.568-4.152-2.919-6.988-2.953c-1.074,0.104-0.852,0.006-1.865,0.224c-0.81,0.165-1.51,0.409-2.05,0.68
	c-1.196,0.528-2.17,1.278-3.067,2.054c-1.723,1.606-2.027,3.461-2.984,5.368c-1.9,3.837-1.814,7.986-1.814,12.134v0.477
	c0,2.72,1.224,4.949,3.937,4.98c2.717,0.039,4.476-2.142,4.513-4.852c0-0.189-0.245-0.41-0.265-0.602
	c-0.3-2.729-0.185-5.709,0.708-8.22c0.826-2.61,2.465-4.25,2.94-4.42c0.292-0.14,1.048-0.12,2.026,0.53
	c0.94,0.67,1.9,1.75,2.72,3.02c1.66,2.65,2.64,5.62,3.02,9.2l0.01,0.15c0.17,1.6,1.6,2.76,3.19,2.59c1.49-0.16,2.61-1.44,2.6-2.92
	L67.026,154.88z"/>
<path fill="#C1272D" d="M197.08,179.693c0,49.201-46.538,34.543-67.622,34.543c-23.996,0-69.084,14.656-69.084-34.543
	c0-49.193-5.088-101.436,68.354-101.436c74.17,0,68.353,52.24,68.353,101.432L197.08,179.693z"/>
<path fill="#333333" d="M125.37,189.252c-3.68,0-6.693-1.025-9.004-3.07c-5.375-4.755-4.385-13.046-4.34-13.398
	c0.203-1.594,1.693-2.736,3.254-2.518c1.592,0.207,2.72,1.655,2.516,3.243c-0.004,0.05-0.63,5.63,2.44,8.33
	c2.048,1.79,5.515,2.07,10.321,0.851c1.563-0.431,3.137,0.539,3.533,2.101c0.396,1.55-0.547,3.13-2.105,3.528
	c-2.396,0.611-4.603,0.922-6.613,0.922L125.37,189.252L125.37,189.252z M137.816,189.246c-1.959,0-4.144-0.301-6.529-0.916
	c-1.561-0.395-2.503-1.977-2.104-3.53c0.394-1.56,1.996-2.495,3.529-2.104c3.223,0.813,7.505,1.371,9.614-0.687
	c2.174-2.12,1.729-6.649,1.38-8.21c-0.354-1.56,0.615-3.119,2.182-3.48c1.575-0.358,3.118,0.602,3.485,2.16
	c0.08,0.36,1.987,8.812-2.963,13.67c-2.103,2.052-4.978,3.092-8.597,3.092v0.006H137.816z"/>
<path fill="#931923" d="M136.48,193.15c0,0-7.754,5.814-15.75,5.814C112.733,198.966,141.811,215.206,136.48,193.15z"/>
<path fill="#29ABE2" d="M105.708,78.988c0,0,0.484-9.215,15.027-15.516c14.541-6.3,23.266-15.025,15.994-23.752
	c0,0,24.722,14.063,11.631,39.27c-13.09,25.205-32.959,26.664-42.659,11.634c0,0-1.94-4.363,0-11.634L105.708,78.988z"/>
<path fill="#0071BC" d="M142.548,45.537c7.272,8.726-1.455,17.452-15.994,23.754c-14.544,6.31-15.024,15.52-15.024,15.52
	c-1.94,7.27,0,11.64,0,11.64c0.2,0.32,0.433,0.58,0.642,0.88c10.494,6.94,25.576,2.12,36.189-18.33
	c7.219-13.89,2.939-24.37-2.351-31.01c-2.005-1.6-3.466-2.44-3.466-2.44L142.548,45.537z"/>
<radialGradient id="SVGID_4_" cx="-686.1074" cy="658.2637" r="29.9802" gradientTransform="matrix(0.723 0 0 0.723 581.6265 -300.6779)" gradientUnits="userSpaceOnUse">
	<stop  offset="0" style="stop-color:#FF585D"/>
	<stop  offset="1" style="stop-color:#FF585D;stop-opacity:0"/>
</radialGradient>
<circle opacity="0.7" fill="url(#SVGID_4_)" enable-background="new    " cx="85.323" cy="175.247" r="21.697"/>
<radialGradient id="SVGID_5_" cx="-12172.7734" cy="1122.8418" r="29.9984" gradientTransform="matrix(0.185 0 0 0.185 2385.1382 -40.6772)" gradientUnits="userSpaceOnUse">
	<stop  offset="0" style="stop-color:#FF585D"/>
	<stop  offset="1" style="stop-color:#FF585D;stop-opacity:0"/>
</radialGradient>
<circle opacity="0.7" fill="url(#SVGID_5_)" enable-background="new    " cx="131.802" cy="166.872" r="5.553"/>
<radialGradient id="SVGID_6_" cx="-571.1152" cy="658.2637" r="29.9803" gradientTransform="matrix(0.723 0 0 0.723 581.6265 -300.6779)" gradientUnits="userSpaceOnUse">
	<stop  offset="0" style="stop-color:#FF585D"/>
	<stop  offset="1" style="stop-color:#FF585D;stop-opacity:0"/>
</radialGradient>
<circle opacity="0.7" fill="url(#SVGID_6_)" enable-background="new    " cx="168.497" cy="175.247" r="21.697"/>
<path fill="#333333" d="M137.813,170.973c-1.391,0-2.627-1.009-2.859-2.434c-0.307-1.79-0.905-2.96-1.805-3.471
	c-1.199-0.689-3-0.25-3.387-0.109c-1.5,0.57-3.181-0.17-3.741-1.689c-0.57-1.5,0.18-3.181,1.68-3.75
	c0.46-0.189,4.59-1.66,8.359,0.489c1.711,0.98,3.899,3.091,4.641,7.57c0.27,1.58-0.811,3.08-2.391,3.34
	c-0.16,0.03-0.319,0.04-0.479,0.04L137.813,170.973z"/>
<path fill="#F5F5F5" d="M119.16,142.773c0,14.018-11.34,25.391-25.364,25.391c-14.016,0-25.37-11.373-25.37-25.391
	c0-14,11.355-25.362,25.37-25.362c14.025,0.01,25.363,11.37,25.363,25.37L119.16,142.773z"/>
<path fill="#333333" d="M109.82,142.773c0,8.867-7.175,16.035-16.024,16.035c-8.838,0-16.027-7.168-16.027-16.035
	c0-8.851,7.18-16.002,16.02-16.002c8.85,0,16.02,7.161,16.02,16.01L109.82,142.773z"/>
<path fill="#F5F5F5" d="M188.968,142.773c0,14.018-11.34,25.391-25.364,25.391c-14.015,0-25.373-11.373-25.373-25.391
	c0-14,11.359-25.362,25.373-25.362c14.024,0.01,25.364,11.37,25.364,25.37V142.773z"/>
<path fill="#333333" d="M179.626,142.773c0,8.867-7.174,16.035-16.022,16.035c-8.84,0-16.024-7.168-16.024-16.035
	c0-8.851,7.187-16.002,16.024-16.002c8.851,0,16.022,7.161,16.022,16.01V142.773z M184.926,115.284l-1.146,0.782
	c-0.859,0.62-2.021,1.25-3.43,2.124c-1.439,0.802-3.16,1.83-5.221,2.764c-2.029,1.003-4.37,1.958-6.91,3.01
	c-2.539,1.038-5.369,1.965-8.369,2.856c-3.031,0.792-6.211,1.612-9.57,2.165c-3.319,0.758-6.819,0.973-10.34,1.361
	c-3.541,0.36-7.149,0.24-10.739,0.33c-3.57-0.3-7.19-0.34-10.68-0.803c-3.47-0.632-6.96-0.95-10.24-1.665
	c-3.25-0.824-6.42-1.534-9.44-2.214c-2.96-0.848-5.7-1.822-8.26-2.634c-5.19-1.544-9.23-3.426-12.19-4.528
	c-2.96-1.124-4.65-1.76-4.65-1.76c-3.61-1.37-5.43-5.4-4.06-9.016c1.37-3.607,5.41-5.432,9.02-4.063c0.42,0.166,0.83,0.365,1.2,0.6
	l0.49,0.3l3.83,2.4c1.23,0.745,2.74,1.65,4.46,2.684c1.7,1.13,3.72,2.13,6,3.072c2.25,0.98,4.68,2.14,7.31,3.21
	c2.66,0.9,5.49,1.85,8.44,2.74c2.97,0.81,6.11,1.35,9.28,1.98c3.19,0.5,6.47,0.65,9.729,0.98c3.261-0.12,6.539,0,9.729-0.34
	c3.19-0.39,6.33-0.73,9.28-1.51c3.01-0.53,5.77-1.59,8.4-2.47c2.59-1.01,5.028-2.01,7.158-3.09c4.37-2.07,7.521-4.55,9.7-6.14
	c1.062-0.85,1.84-1.56,2.222-1.96c0.51-0.5,0.77-0.77,0.77-0.77l0.14-0.14c2.479-2.47,6.49-2.46,8.95,0.02s2.449,6.48-0.03,8.94
	c-0.271,0.28-0.59,0.53-0.89,0.74L184.926,115.284z"/>
<g>
	<g>
		<defs>
			<path id="SVGID_7_" d="M177.29,94.5c0,0,10.185-12.115,1.94-23.268c0,0-4.08,7.65-17.69,15.026
				C152.813,90.986,166.146,102.744,177.29,94.5z"/>
		</defs>
		<clipPath id="SVGID_8_">
			<use xlink:href="#SVGID_7_"  overflow="visible"/>
		</clipPath>
		<path clip-path="url(#SVGID_8_)" fill="#82272D" d="M155.62,99.38h30v6h-30V99.38z"/>
	</g>
</g>
<g>
	<g>
		<defs>
			<path id="SVGID_9_" d="M177.29,94.5c0,0,10.185-12.115,1.94-23.268c0,0-4.08,7.65-17.69,15.026
				C152.813,90.986,166.146,102.744,177.29,94.5z"/>
		</defs>
		<clipPath id="SVGID_10_">
			<use xlink:href="#SVGID_9_"  overflow="visible"/>
		</clipPath>
	</g>
</g>
<path fill="#931923" d="M74.68,71.232c0,0,8.81,10.909,17.69,15.026s-2.375,15.376-9.245,12.242c-5.344-2.438-6.507-4-6.507-4
	S68.375,87,71.25,73.375C71.25,73.375,72.735,69.464,74.68,71.232z"/>
<path fill="#931923" d="M179.145,71.232c0,0-8.811,10.909-17.69,15.026s2.321,15.256,9.245,12.242c5.552-2.417,6.507-4,6.507-4
	s8.243-7.5,5.368-21.125C182.574,73.375,181.089,69.464,179.145,71.232z"/>
</svg>
