<svg xmlns="http://www.w3.org/2000/svg" width="256" height="256" viewBox="0 0 256 256"><path fill="#333" d="M218.98 69.618c-1.28-4.54-2.49-8.84-3.57-12.89-4.44-16.63-14.56-28.73-30.06-35.96-12.87-6-26.96-7.26-36.51-7.26-5.56 0-10.06.42-12.65.73-.35-.61-.69-1.2-1.01-1.74-1.44-2.42-4.06-3.91-6.88-3.91l.01-.048c-2.82 0-5.43 1.49-6.88 3.92-.33.57-.69 1.19-1.05 1.83-2.42-.31-7.24-.81-13.34-.81-9.55 0-23.64 1.26-36.5 7.26-15.5 7.23-25.61 19.33-30.04 35.96-1.09 4.08-2.3 8.4-3.59 12.98-9.23 32.89-21.77 77.54-9.8 115.31-.78 2.7-.1 5.73 2.03 7.86l1.51 1.52c6.41 14.38 16.55 26.48 30.17 36.01.44.312.92.57 1.41.79.51.22 11.78 5.05 28.88 8.82.94.88 2.11 1.53 3.43 1.87 2.07.54 4.22 1.03 6.4 1.48 8.48 2.85 17.68 4.23 28.1 4.23 8.97 0 20.75-.644 32.79-5.564 19.09-4.27 31.72-10.53 32.25-10.79.35-.17.69-.37 1.01-.6 13.66-9.552 23.83-21.722 30.228-36.16 5.47-12.36 8.31-26.75 8.43-42.77.21-28.688-8.1-58.278-14.77-82.068z"/><path fill="#F4D1B0" d="M186.428 161.328c0 13.824 2.006 25.035 11.703 25.035s23.41-2.604 23.41-25.035c0-13.828-7.85-25.037-17.55-25.037-9.69 0-17.56 11.21-17.56 25.04z"/><path fill="#C69C6D" d="M189.338 161.23c.037-3.875.836-8.287 2.736-12.04.957-1.907 2.18-3.76 3.9-5.366 1.71-1.568 4.15-2.92 6.99-2.953 1.07.11.85.01 1.86.23.81.17 1.51.41 2.05.68 1.2.53 2.17 1.28 3.066 2.05 1.72 1.61 1.47 3.46 2.42 5.37 1.9 3.84 1.255 7.99 1.255 12.14v.48c0 2.72-.66 4.94-3.378 4.98-2.72.03-4.2-2.14-4.23-4.86 0-.19.39-.41.4-.59.3-2.73.25-5.71-.64-8.22-.83-2.61-2.43-4.25-2.91-4.43-.29-.14-1.03-.12-2.01.54-.95.66-1.9 1.75-2.71 3.01-1.67 2.65-2.65 5.62-3.02 9.2l-.022.14c-.182 1.6-1.602 2.76-3.2 2.59-1.5-.16-2.61-1.44-2.602-2.92l.02-.03h.025z"/><path fill="#F4D1B0" d="M70.3 161.328c0 13.824-2.005 25.035-11.702 25.035-9.7 0-23.412-2.604-23.412-25.035 0-13.828 7.854-25.037 17.555-25.037 9.7 0 17.56 11.21 17.56 25.04z"/><path fill="#C69C6D" d="M67.39 161.23c-.042-3.875-.843-8.287-2.735-12.04-.96-1.907-2.182-3.76-3.906-5.366-1.71-1.568-4.16-2.92-6.99-2.953-1.08.11-.85.01-1.87.23-.81.17-1.51.41-2.05.68-1.2.53-2.18 1.28-3.07 2.05-1.73 1.61-2.72 3.46-3.67 5.37-1.9 3.84-2.5 7.99-2.5 12.14v.48c0 2.72 1.9 4.94 4.61 4.98 2.71.03 4.82-2.14 4.85-4.86 0-.19-.08-.41-.09-.59-.3-2.73-.1-5.71.79-8.22.82-2.61 2.51-4.25 2.99-4.43.29-.14 1.07-.12 2.04.54.95.66 1.92 1.75 2.73 3.01 1.67 2.65 2.65 5.62 3.02 9.2l.02.14c.16 1.6 1.6 2.76 3.18 2.59 1.5-.16 2.61-1.44 2.61-2.92l.04-.03z"/><path fill="#fdb" d="M197.443 186.05c-15.27 49.446-47.27 53.444-68.354 53.444-23.99 0-54.9-7.996-68.35-53.445 0-49.2-5.09-112.35 68.35-112.35 74.17 0 68.36 63.15 68.36 112.34l-.02.01h.01z"/><path fill="#D35446" d="M139.15 222.043c0 6.158-4.99 11.154-11.15 11.154-6.157 0-11.15-4.996-11.15-11.154 0-6.156 4.993-11.152 11.15-11.152 6.16 0 11.15 5 11.15 11.16z"/><path d="M149.088 204.592c-1.607 0-2.912 1.303-2.912 2.912 0 5.23-8.49 9.814-18.18 9.814-9.684 0-18.174-4.584-18.174-9.814 0-1.61-1.3-2.912-2.91-2.912-1.608 0-2.908 1.303-2.908 2.912 0 8.764 10.54 15.633 23.992 15.633 13.463 0 24-6.87 24-15.633 0-1.61-1.303-2.912-2.908-2.912zm17.81-134.522s-.046.235-.124.667c-12.378-23.888-55.86-17.393-55.86-17.393-69.818 15.36-52.486 80.995-50.996 86.193.512 19.04 2.89 34.515 2.89 34.515.54-17.916 11.62-30.154 17.202-35.207 53.882-4.887 75.947-25.583 84.588-38.51.492 14.018 3.674 29.063 13.937 35.904 0 0 19.633 13.81 20.363 37.81 0 0 17.452-113.44-32-103.98z" fill="#333"/><path fill="#FBB03B" d="M128.85 75.644c29.64 0 44.6-23.755 70.383 25.226.52-3.49.88-7.038.88-10.68 0-18.733-7.24-35.74-19-48.52-.134.007-.26.04-.39.04-7.455 0-13.902-4.05-17.45-10.025-3.552 5.977-10 4.21-17.454 4.21-7.46 0-13.9-13.413-17.45-19.39-3.55 5.977-10 19.39-17.46 19.39s-13.9 1.767-17.45-4.21C89.9 37.662 83.46 41.71 76 41.71c-.133 0-.26-.04-.396-.04-11.757 12.78-18.99 29.788-18.99 48.52 0 4.087.42 8.064 1.075 11.96 23.16-49.286 40.98-26.506 71.15-26.506h.01zm-77.566 127.95L34.838 187.14l16.446-16.452 16.455 16.45-16.46 16.456zm151.24-32.908l16.452 16.455-16.453 16.45-16.45-16.45 16.452-16.43h-.002v-.01z"/><path fill="#fff" d="M138.54 53.106c0 8.965-4.337 16.236-9.69 16.236s-9.697-7.27-9.697-16.236c0-8.97 4.342-16.24 9.697-16.24 5.353 0 9.69 7.27 9.69 16.24z"/><radialGradient id="a" cx="-1080.821" cy="-533.344" r="29.988" gradientTransform="matrix(.723 0 0 -.723 870.822 -188.963)" gradientUnits="userSpaceOnUse"><stop offset="0" stop-color="#FF585D"/><stop offset="1" stop-color="#FF585D" stop-opacity="0"/></radialGradient><circle opacity=".7" fill="url(#a)" enable-background="new" cx="89.143" cy="196.645" r="21.697"/><radialGradient id="b" cx="-972.742" cy="-533.344" r="29.988" gradientTransform="matrix(.723 0 0 -.723 870.822 -188.963)" gradientUnits="userSpaceOnUse"><stop offset="0" stop-color="#FF585D"/><stop offset="1" stop-color="#FF585D" stop-opacity="0"/></radialGradient><circle opacity=".7" fill="url(#b)" enable-background="new" cx="167.316" cy="196.645" r="21.697"/><linearGradient id="c" gradientUnits="userSpaceOnUse" x1="216.041" y1="-317.098" x2="216.041" y2="-306.662" gradientTransform="matrix(7.466 0 0 -7.466 -1487.503 -2144.024)"><stop offset="0" stop-color="#FF5459"/><stop offset=".789" stop-color="#FF6064" stop-opacity="0"/></linearGradient><path fill="url(#c)" d="M129.62 159.38v33.038s1.507 6.236-7.503 9.01l2.658-9.01-3.583-34.997"/><path fill="#333" d="M123.105 206.285c-1.234 0-2.383-.79-2.77-2.027-.492-1.53.352-3.166 1.89-3.654 8.005-2.543 7.694-7.115 7.68-7.313l-.02-35.24c0-1.61 1.26-2.9 2.87-2.9 1.602 0 2.86 1.3 2.86 2.9v34.9s1.176 9.1-11.674 13.19c-.28.09-.54.13-.83.13v.03z"/><path fill="#F5F5F5" d="M113.45 161.248c0 11.242-9.11 20.354-20.354 20.354-11.238 0-20.352-9.11-20.352-20.354 0-11.232 9.113-20.332 20.352-20.332 11.245 0 20.354 9.1 20.354 20.332z"/><path fill="#333" d="M107.407 160.77c0 7.81-6.316 14.13-14.12 14.13-7.8 0-14.13-6.32-14.13-14.13 0-7.8 6.33-14.117 14.13-14.117 7.804 0 14.12 6.318 14.12 14.117z"/><path fill="#F5F5F5" d="M183.255 161.248c0 11.242-9.11 20.354-20.353 20.354-11.24 0-20.354-9.11-20.354-20.354 0-11.232 9.12-20.332 20.36-20.332 11.25 0 20.35 9.1 20.35 20.332h-.01.007z"/><path fill="#333" d="M177.216 160.77c0 7.81-6.317 14.13-14.123 14.13-7.797 0-14.13-6.32-14.13-14.13 0-7.8 6.333-14.117 14.13-14.117 7.803 0 14.123 6.318 14.123 14.117z"/></svg>