<?xml version="1.0" encoding="utf-8"?>
<!-- Generator: Adobe Illustrator 16.0.0, SVG Export Plug-In . SVG Version: 6.00 Build 0)  -->
<!DOCTYPE svg PUBLIC "-//W3C//DTD SVG 1.1//EN" "http://www.w3.org/Graphics/SVG/1.1/DTD/svg11.dtd">
<svg version="1.1" id="Layer_1" xmlns="http://www.w3.org/2000/svg" xmlns:xlink="http://www.w3.org/1999/xlink" x="0px" y="0px"
	 width="256px" height="256px" viewBox="0 0 256 256" enable-background="new 0 0 256 256" xml:space="preserve">
<path fill="#333333" d="M97.21,220.28c-9.728,0-38.618-0.003-40.71-36.304c-21.167-0.791-25.677-16.104-25.677-29.004
	c0-16.283,9.47-29.038,21.557-29.038c2.056,0,4.077,0.382,6.013,1.126c3.13-19.13,12.032-42.13,43.593-49.92
	c0.815-3.47,4.09-11.67,17.163-17.33c9.12-3.95,15.13-8.67,16.07-12.62c0.24-1.01,0.34-2.62-1.56-4.9c-1.24-1.48-1.24-3.64,0-5.13
	c0.78-0.93,1.909-1.43,3.06-1.43c0.67,0,1.36,0.17,1.98,0.53c0.46,0.26,11.31,6.56,15.67,18.42l0.14,0.4
	c0.16,0.47,0.31,0.92,0.45,1.37c0.08,0.26,0.15,0.53,0.221,0.8c0.079,0.3,0.149,0.58,0.219,0.87c0.101,0.43,0.19,0.85,0.271,1.28
	c0.04,0.2,0.069,0.41,0.11,0.62c0.08,0.52,0.15,1.05,0.209,1.58c0.021,0.18,0.031,0.36,0.051,0.53c0.05,0.56,0.09,1.14,0.1,1.73
	v0.39c0.01,0.65,0,1.29-0.029,1.95c0,0.04-0.01,0.16-0.01,0.19c-0.041,0.71-0.11,1.41-0.19,2.09l-0.021,0.1
	c-0.09,0.68-0.209,1.4-0.359,2.18l-0.061,0.26c-0.14,0.68-0.32,1.41-0.52,2.16l-0.09,0.31c-0.211,0.73-0.45,1.46-0.711,2.19
	c0,0-0.299,0.8-0.41,1.07c14.561,3.19,25.4,9.48,33.051,19.15c6.23,7.88,10.189,17.73,12.32,30.71c1.459-0.41,2.959-0.62,4.459-0.62
	c12.08,0,21.551,12.76,21.551,29.04c0,12.6-4.301,27.5-24.21,28.93c-1.351,24.471-14.8,36.38-41,36.38c-6.3,0-12.67-0.62-18.28-1.17
	c-4.54-0.45-8.83-0.87-12.23-0.87c-4.029,0-8.799,0.45-13.85,0.92c-5.99,0.561-12.18,1.131-18.4,1.131L97.21,220.28z"/>
<path fill="#333333" d="M136.734,39.72c0,0,9.99,5.696,13.902,16.322l0.131,0.367c0.135,0.38,0.262,0.77,0.379,1.16
	c0.068,0.23,0.135,0.46,0.196,0.69c0.065,0.25,0.13,0.49,0.19,0.75c0.083,0.36,0.16,0.72,0.229,1.09c0.039,0.17,0.069,0.35,0.1,0.53
	c0.08,0.44,0.14,0.89,0.189,1.35c0.02,0.14,0.03,0.29,0.051,0.44c0.049,0.49,0.08,0.99,0.09,1.5c0.01,0.11,0.01,0.22,0.01,0.34
	c0.01,0.55,0.01,1.1-0.02,1.67c0,0.06-0.011,0.11-0.011,0.17c-0.03,0.59-0.08,1.2-0.159,1.81L152,68c-0.08,0.62-0.189,1.26-0.32,1.9
	c-0.014,0.07-0.027,0.15-0.043,0.22c-0.13,0.63-0.283,1.26-0.463,1.9l-0.074,0.274c-0.187,0.64-0.396,1.29-0.629,1.95l-0.109,0.28
	c-0.244,0.67-0.514,1.346-0.815,2.035c-0.03,0.07-0.063,0.14-0.095,0.21c-0.32,0.72-0.66,1.45-1.051,2.19
	c-0.119,0.23-0.239,0.45-0.359,0.68c34.37,5.51,44.859,26.65,47.95,52.78c2.319-1.61,4.92-2.521,7.67-2.521
	c9.7,0,17.55,11.211,17.55,25.031c0,22.43-13.71,25.029-23.41,25.029c-0.23,0-0.46-0.01-0.689-0.029
	c-0.11,30.579-18.33,36.299-37.11,36.299c-11.21,0-22.63-2.049-30.5-2.049c-8.95,0-20.85,2.039-32.24,2.039
	c-19.1,0-36.79-5.74-36.83-36.479c-0.67,0.13-1.38,0.21-2.14,0.21c-9.7,0-23.42-2.6-23.42-25.04c0-13.82,7.86-25.03,17.56-25.03
	c3.36,0,6.49,1.34,9.15,3.66c2.92-25.53,12.62-46.49,43.83-53.13c0.1-0.48,0.22-0.97,0.35-1.48c0,0,0.48-9.21,15.03-15.51
	c14.54-6.3,23.27-15.03,16-23.75"/>
<path fill="#333333" d="M136.791,31.669c-2.3,0-4.57,1-6.141,2.86c-2.479,2.97-2.489,7.29-0.01,10.26c0.2,0.24,0.83,1.04,0.74,1.42
	c-0.359,1.51-3.7,5.51-13.77,9.88c-12.32,5.33-16.99,12.84-18.76,17.7c-29.75,8.2-39.72,29.4-43.58,48.3
	c-0.93-0.14-1.88-0.2-2.84-0.2c-14.33,0-25.56,14.509-25.56,33.03c0,12.57,3.8,21.771,11.29,27.351
	c3.98,2.959,8.81,4.739,14.68,5.399c1.35,12.58,6.03,22.03,13.96,28.17c7.39,5.729,17.07,8.39,30.47,8.39
	c6.41,0,12.97-0.609,18.77-1.14c4.96-0.46,9.64-0.899,13.48-0.899c3.199,0,7.399,0.41,11.84,0.85
	c5.709,0.561,12.18,1.189,18.67,1.189c13.09,0,23.029-2.72,30.39-8.31c8.17-6.2,12.97-15.75,14.33-28.44
	c5.21-0.779,9.569-2.5,13.21-5.209c7.49-5.58,11.29-14.78,11.29-27.351c0-18.53-11.22-33.04-25.55-33.04
	c-0.41,0-0.811,0.01-1.221,0.04c-3.76-18.78-13.58-39.91-43.47-48.13c0.2-0.71,0.36-1.41,0.5-2.07l0.05-0.24
	c0.18-0.9,0.32-1.69,0.41-2.45l0.03-0.22c0.101-0.75,0.16-1.5,0.21-2.24c0.01-0.09,0.23-0.18,0.24-0.26
	c0.04-0.73,0.26-1.45,0.26-2.22V64c0-0.12-0.22-0.23-0.23-0.34c-0.02-0.67-0.17-1.35-0.229-2.02c-0.01-0.16-0.09-0.36-0.11-0.56
	c-0.07-0.63-0.18-1.23-0.27-1.8c-0.04-0.25-0.1-0.486-0.141-0.724c-0.09-0.47-0.189-0.95-0.31-1.42c-0.08-0.34-0.16-0.66-0.25-0.97
	c-0.09-0.34-0.18-0.64-0.271-0.94c-0.14-0.49-0.31-1-0.489-1.514c0-0.02-0.011-0.04-0.021-0.06l-0.05-0.134l-0.09-0.25
	c-4.8-13.04-16.181-19.82-17.47-20.55c-1.24-0.71-2.6-1.05-3.95-1.05L136.791,31.669z"/>
<path fill="#F4D1B0" d="M186.064,154.973c0,13.83,2.008,25.036,11.703,25.036c9.696,0,23.409-2.6,23.409-25.04
	c0-13.83-7.854-25.04-17.553-25.04c-9.694,0-17.56,11.21-17.56,25.03V154.973z"/>
<path fill="#C69C6D" d="M188.977,154.88c0.041-3.876,0.84-8.29,2.736-12.04c0.96-1.906,2.182-3.76,3.902-5.367
	c1.71-1.57,4.152-2.92,6.988-2.953c1.074,0.1,0.852,0,1.859,0.22c0.814,0.159,1.516,0.409,2.057,0.68
	c1.189,0.521,2.16,1.28,3.06,2.05c1.72,1.6,2.14,3.461,3.101,5.36c1.889,3.84,1.93,7.989,1.93,12.13v0.48
	c0,2.709-1.34,4.939-4.061,4.97c-2.71,0.03-4.54-2.14-4.57-4.86c0-0.199,0.211-0.41,0.23-0.6c0.3-2.73,0.17-5.71-0.721-8.221
	c-0.829-2.609-2.479-4.26-2.959-4.43c-0.291-0.15-1.051-0.13-2.03,0.53c-0.95,0.66-1.91,1.739-2.72,3.01
	c-1.66,2.64-2.65,5.62-3.021,9.2l-0.01,0.141c-0.17,1.59-1.601,2.75-3.2,2.579c-1.51-0.159-2.609-1.45-2.6-2.92L188.977,154.88z"/>
<path fill="#F4D1B0" d="M69.938,154.973c0,13.83-2.006,25.036-11.7,25.036c-9.698,0-23.415-2.6-23.415-25.04
	c0-13.83,7.857-25.04,17.557-25.04c9.7,0,17.558,11.21,17.558,25.03V154.973z"/>
<path fill="#C69C6D" d="M67.03,154.88c-0.04-3.876-0.843-8.29-2.737-12.04c-0.963-1.906-2.182-3.76-3.902-5.367
	c-1.71-1.57-4.15-2.92-6.98-2.953c-1.07,0.1-0.85,0-1.86,0.22c-0.81,0.159-1.51,0.409-2.05,0.68c-1.19,0.521-2.17,1.28-3.06,2.05
	c-1.72,1.6-3.02,3.461-3.98,5.36c-1.89,3.84-2.81,7.989-2.81,12.13v0.48c0,2.709,2.23,4.939,4.94,4.97
	c2.72,0.03,4.98-2.14,5.01-4.86c0-0.199,0.01-0.41-0.01-0.6c-0.3-2.73-0.06-5.71,0.83-8.221c0.83-2.609,2.53-4.26,3.01-4.43
	c0.29-0.15,1.08-0.13,2.06,0.53c0.95,0.66,1.93,1.739,2.74,3.01c1.67,2.64,2.65,5.62,3.03,9.2l0.02,0.141
	c0.17,1.59,1.6,2.75,3.19,2.579c1.5-0.159,2.61-1.45,2.6-2.92L67.03,154.88z"/>
<path fill="#FFDDBB" d="M197.08,179.695c0,49.197-46.537,34.543-67.623,34.543c-23.996,0-69.08,14.654-69.08-34.542
	s-5.09-101.438,68.352-101.438c74.16,0,68.351,52.24,68.351,101.431L197.08,179.695z"/>
<path fill="#333333" d="M125.373,189.252c-3.686,0-6.693-1.025-9.006-3.066c-5.375-4.756-4.385-13.051-4.34-13.4
	c0.203-1.596,1.676-2.729,3.254-2.516c1.6,0.199,2.72,1.649,2.52,3.239c0,0.05-0.63,5.63,2.44,8.33
	c2.04,1.79,5.52,2.08,10.319,0.851c1.57-0.42,3.15,0.55,3.53,2.1c0.4,1.55-0.54,3.13-2.09,3.529c-2.399,0.611-4.6,0.921-6.61,0.921
	L125.373,189.252z M137.818,189.248c-1.961,0-4.141-0.303-6.533-0.914c-1.555-0.398-2.498-1.979-2.1-3.534
	c0.396-1.563,2-2.506,3.529-2.104c3.223,0.82,7.508,1.365,9.614-0.684c2.17-2.119,1.729-6.645,1.38-8.207
	c-0.359-1.56,0.609-3.119,2.18-3.479c1.58-0.365,3.12,0.606,3.48,2.161c0.08,0.361,1.99,8.813-2.971,13.671
	c-2.1,2.056-4.979,3.09-8.6,3.09L137.818,189.248z"/>
<path fill="#DBC79C" d="M136.484,193.15c0,0-7.756,5.816-15.752,5.816C112.732,198.967,141.813,215.209,136.484,193.15z"/>
<path fill="#8C6239" d="M105.713,78.99c0,0,0.482-9.217,15.025-15.518c14.54-6.3,23.268-15.025,15.997-23.753
	c0,0,24.723,14.06,11.633,39.271c-13.09,25.2-32.96,26.66-42.654,11.63C105.713,90.619,103.773,86.249,105.713,78.99L105.713,78.99z
	"/>
<path fill="#A67C52" d="M142.55,45.54c7.272,8.723-1.454,17.448-15.997,23.752c-14.543,6.3-15.025,15.513-15.025,15.513
	c-1.938,7.27,0,11.635,0,11.635c0.205,0.312,0.438,0.58,0.646,0.88c10.496,6.937,25.578,2.12,36.193-18.33
	c7.217-13.89,2.936-24.378-2.352-31.007C144.01,46.381,142.551,45.541,142.55,45.54L142.55,45.54z"/>
<radialGradient id="SVGID_1_" cx="-751.7939" cy="231.8926" r="29.9817" gradientTransform="matrix(0.723 0 0 -0.723 630.7935 346.0358)" gradientUnits="userSpaceOnUse">
	<stop  offset="0" style="stop-color:#FF585D"/>
	<stop  offset="1" style="stop-color:#FF585D;stop-opacity:0"/>
</radialGradient>
<circle opacity="0.7" fill="url(#SVGID_1_)" enable-background="new    " cx="87" cy="178.378" r="21.697"/>
<radialGradient id="SVGID_2_" cx="-8164.918" cy="1520.6348" r="29.997" gradientTransform="matrix(0.21 0 0 -0.21 1848.3477 485.9384)" gradientUnits="userSpaceOnUse">
	<stop  offset="0" style="stop-color:#FF585D"/>
	<stop  offset="1" style="stop-color:#FF585D;stop-opacity:0"/>
</radialGradient>
<circle opacity="0.7" fill="url(#SVGID_2_)" enable-background="new    " cx="132.832" cy="166.378" r="6.303"/>
<radialGradient id="SVGID_3_" cx="-636.8027" cy="231.8926" r="29.982" gradientTransform="matrix(0.723 0 0 -0.723 630.7935 346.0358)" gradientUnits="userSpaceOnUse">
	<stop  offset="0" style="stop-color:#FF585D"/>
	<stop  offset="1" style="stop-color:#FF585D;stop-opacity:0"/>
</radialGradient>
<circle opacity="0.7" fill="url(#SVGID_3_)" enable-background="new    " cx="170.174" cy="178.378" r="21.697"/>
<path fill="#F5F5F5" d="M119.166,142.78c0,14.012-11.342,25.385-25.367,25.385c-14.02,0-25.38-11.373-25.38-25.386
	c0-14.01,11.35-25.37,25.37-25.37s25.36,11.36,25.36,25.37L119.166,142.78z"/>
<path fill="#333333" d="M109.824,142.78c0,8.86-7.174,16.03-16.025,16.03c-8.84,0-16.03-7.17-16.03-16.03
	c0-8.854,7.18-16.01,16.02-16.01c8.85,0,16.02,7.158,16.02,16.01H109.824z"/>
<path fill="#F5F5F5" d="M188.971,142.78c0,14.012-11.341,25.385-25.367,25.385c-14.014,0-25.369-11.373-25.369-25.386
	c0-14.01,11.355-25.37,25.369-25.37C177.629,117.409,188.971,128.77,188.971,142.78L188.971,142.78z"/>
<path fill="#333333" d="M179.63,142.78c0,8.86-7.175,16.03-16.026,16.03c-8.84,0-16.024-7.17-16.024-16.03
	c0-8.854,7.18-16.01,16.021-16.01c8.85,0,16.02,7.158,16.02,16.01H179.63z M137.814,170.973c-1.396,0-2.627-1.007-2.863-2.431
	c-0.301-1.79-0.9-2.96-1.801-3.474c-1.189-0.689-3-0.25-3.379-0.109c-1.491,0.57-3.181-0.17-3.75-1.68
	c-0.57-1.5,0.18-3.18,1.68-3.75c0.46-0.19,4.6-1.67,8.35,0.479c1.71,0.98,3.9,3.091,4.65,7.57c0.27,1.58-0.801,3.08-2.391,3.34
	c-0.149,0.03-0.319,0.04-0.479,0.04L137.814,170.973z"/>
</svg>
