<svg xmlns="http://www.w3.org/2000/svg" width="256" height="256" viewBox="0 0 256 256"><path fill="#fff" d="M127.264 230.843c-18.808 0-33.517-2.845-44.97-8.697-17.028-8.703-26.192-23.65-27.28-44.468-21.193-.787-25.71-16.103-25.71-29.004 0-5.297 1.01-10.354 2.9-14.744-9.744-1.252-13.163-2.77-13.163-6.705 0-4.182 3.9-5.646 14.59-6.918 2.35-36.714 25.11-68.18 58.99-81.49V26.38h25v6.45c3.47-.345 6.51-.5 9.63-.5 1.89 0 4.04.064 5.91.175.16.006.32.01.47.017v-6.14h25v11.39c35.56 12.505 60.29 45.062 62.75 82.53 11.43 1.334 15.34 2.745 15.34 6.923 0 3.977-3.27 5.624-15.78 7.04 1.83 4.336 2.8 9.277 2.8 14.41 0 12.6-4.3 27.5-24.22 28.925-1.89 34.38-27.39 53.243-72.24 53.243z"/><path fill="#333" d="M154.62 30.38v10.272c36 11.42 61.806 44.238 62.917 83.254 9.315.97 15.172 2.106 15.172 3.32 0 1.358-6.72 2.62-18.19 3.66 3.21 4.54 5.2 10.83 5.2 17.788 0 22.437-13.72 25.036-23.41 25.036-.24 0-.47-.013-.7-.025-.19 48.923-47.31 53.158-68.35 53.158-23.98 0-68.3-4.243-68.36-53.344-.67.13-1.4.21-2.16.21-9.7 0-23.45-2.6-23.45-25.04 0-7.09 2.01-13.49 5.33-18.05-9.81-.99-15.6-2.16-15.6-3.4 0-1.22 5.1-2.35 14.42-3.32 1.08-38 25.15-70.12 59.15-82.32v-11.2h17v6.94c5-.65 9.08-.99 13.63-.99 1.83 0 3.9.06 5.71.17 1.5.05 2.65.1 4.65.26v-6.38h17m8-8h-33v5.98c-.81-.02-1.61-.03-2.37-.03-1.88 0-3.72.05-5.63.16v-6.11h-33v13.75c-16.1 6.86-29.98 17.92-40.39 32.23-10.33 14.24-16.6 30.85-18.31 48.41-1.92.28-3.55.58-4.92.89-1.83.41-3.22.86-4.39 1.41-5.16 2.41-5.56 6.84-5.56 8.14 0 1.34.43 5.91 5.89 8.26 1.2.52 2.65.95 4.56 1.35.43.09.89.18 1.37.27-1.01 3.63-1.55 7.53-1.55 11.55 0 19.31 9.18 30.75 25.99 32.73 2.04 20.31 12.02 35.53 29.18 44.3 12.03 6.14 27.34 9.13 46.79 9.13 18.12 0 33.45-3.05 45.56-9.07 17.91-8.9 28.32-24.21 30.41-44.55 5.21-.78 9.56-2.5 13.2-5.21 7.49-5.58 11.29-14.78 11.29-27.35 0-3.84-.5-7.58-1.45-11.1 1.18-.18 2.24-.37 3.19-.56 2.11-.42 3.7-.85 5-1.38 5.79-2.33 6.24-7.03 6.24-8.42 0-7.36-7.86-9.03-10.44-9.57-1.43-.31-3.16-.6-5.18-.89-1.78-18.11-8.48-35.17-19.58-49.69-11.13-14.55-25.87-25.56-42.9-32.09V22.38z"/><path fill="#F4D1B0" d="M184.61 148.674c0 13.83 2.003 25.036 11.702 25.036 9.697 0 23.41-2.6 23.41-25.036 0-13.825-7.855-25.036-17.553-25.036-9.7 0-17.56 11.21-17.56 25.036z"/><path fill="#C69C6D" d="M187.518 148.58c.04-3.875.842-8.29 2.736-12.04.963-1.906 2.184-3.76 3.904-5.366 1.71-1.57 4.154-2.92 6.988-2.954 1.074.103.852.006 1.863.22.81.168 1.51.41 2.05.682 1.2.527 2.17 1.28 3.06 2.053 1.72 1.607 2.87 3.46 3.83 5.367 1.89 3.844 2.65 7.988 2.65 12.133v.48c0 2.713-2.07 4.94-4.78 4.977-2.72.033-4.9-2.143-4.94-4.857 0-.193.03-.41.05-.6.3-2.728.08-5.708-.81-8.218-.82-2.61-2.52-4.255-3-4.424-.3-.147-1.08-.124-2.06.533-.96.66-1.93 1.744-2.74 3.01-1.66 2.648-2.65 5.62-3.02 9.2l-.01.142c-.17 1.594-1.6 2.754-3.2 2.585-1.5-.162-2.61-1.445-2.6-2.923z"/><path fill="#F4D1B0" d="M68.482 148.674c0 13.83-2.008 25.036-11.703 25.036s-23.42-2.6-23.42-25.036c0-13.825 7.85-25.036 17.55-25.036s17.56 11.21 17.56 25.036z"/><path fill="#C69C6D" d="M65.574 148.58c-.04-3.875-.842-8.29-2.74-12.04-.96-1.906-2.18-3.76-3.904-5.366-1.707-1.57-4.15-2.92-6.984-2.954-1.074.103-.854.006-1.863.22-.813.168-1.512.41-2.053.682-1.195.527-2.17 1.28-3.066 2.053-1.72 1.607-2.8 3.46-3.76 5.367-1.896 3.844-2.584 7.988-2.584 12.133v.48c0 2.713 1.992 4.94 4.71 4.977 2.718.033 4.864-2.143 4.9-4.857 0-.193-.054-.41-.072-.6-.3-2.728-.085-5.708.806-8.218.822-2.61 2.515-4.255 2.99-4.424.288-.147 1.07-.124 2.05.533.946.66 1.92 1.744 2.732 3.01 1.662 2.648 2.646 5.62 3.02 9.2l.02.142c.168 1.594 1.6 2.754 3.19 2.585 1.5-.162 2.614-1.445 2.608-2.923z"/><path fill="#fdb" d="M195.623 173.397c0 49.197-47.264 53.445-68.352 53.445-23.99 0-68.35-4.248-68.35-53.445 0-49.196-5.09-112.345 68.36-112.345 74.17 0 68.36 63.15 68.36 112.345z"/><path fill="#333" d="M46.074 118.745l13.09 37.81 18.906-44.112m130.4 8.727l-12.452 35.385-18.91-44.112"/><path fill="#F5F5F5" d="M113.448 148.595c0 11.244-9.104 20.356-20.348 20.356s-20.355-9.11-20.355-20.35c0-11.23 9.11-20.33 20.355-20.33s20.348 9.1 20.348 20.33z"/><path fill="#333" d="M107.41 148.12c0 7.805-6.32 14.126-14.124 14.126-7.8 0-14.127-6.32-14.127-14.125 0-7.8 6.32-14.11 14.12-14.11 7.8 0 14.12 6.32 14.12 14.12z"/><path fill="#F5F5F5" d="M183.255 148.595c0 11.244-9.105 20.356-20.35 20.356-11.242 0-20.354-9.11-20.354-20.35 0-11.23 9.12-20.33 20.36-20.33 11.25 0 20.35 9.1 20.35 20.33z"/><path fill="#333" d="M177.218 148.12c0 7.805-6.32 14.126-14.125 14.126-7.8 0-14.127-6.32-14.127-14.125 0-7.8 6.328-14.11 14.127-14.11 7.804 0 14.125 6.32 14.125 14.12zm-50.488 59.63c-17.72 0-28.843-7.866-29.528-8.367-1.295-.943-1.586-2.756-.64-4.055.935-1.295 2.747-1.592 4.052-.657.92.67 23.082 16.14 55.145-.22 1.43-.71 3.18-.16 3.91 1.27s.16 3.18-1.27 3.92c-11.93 6.09-22.66 8.13-31.68 8.13z"/><path fill="#ff0" d="M232.71 127.225c0 3.593-47.478 6.498-106.046 6.498-58.568 0-106.045-2.905-106.045-6.498 0-3.59 47.47-6.497 106.04-6.497s106.04 2.906 106.04 6.497z"/><path fill="#E8D41A" d="M217.38 120.315c0 3.074-40.61 5.563-90.716 5.563-50.104 0-90.717-2.49-90.717-5.563 0-3.073 40.613-5.563 90.717-5.563 50.106 0 90.717 2.49 90.717 5.563z"/><path fill="#ff0" d="M126.664 120.728c38.85 0 72.71 1.282 91.186 3.19-1.395-48.594-41.634-87.587-91.186-87.587-49.554 0-89.792 39-91.184 87.59 18.473-1.9 52.337-3.19 91.184-3.19z"/><path fill="#E8D41A" d="M147.62 86.38v-4H96.452l.042-40.874c-4 .757-5.875 2.354-7.875 3.234v41.64h59zm-10-49.616c-3-.183-4-.228-6-.29V70.38h6V36.765z"/><path fill="#ff0" d="M137.62 30.38v29h-24v-29h-17v52h57.998v-52z"/><linearGradient id="a" gradientUnits="userSpaceOnUse" x1="1145.261" y1="732.409" x2="1145.261" y2="722.04" gradientTransform="matrix(7.466 0 0 7.466 -8424.73 -5257.445)"><stop offset="0" stop-color="#FF5459"/><stop offset=".789" stop-color="#FF6064" stop-opacity="0"/></linearGradient><path fill="url(#a)" d="M130.62 147.38v32.473s1.313 6.236-7.696 9.01l2.562-9.01-3.438-34.714"/><path fill="#333" d="M124.125 193.634c-1.232 0-2.38-.79-2.77-2.027-.49-1.527.356-3.163 1.892-3.65 8.004-2.55 7.695-7.12 7.682-7.32l-.02-35.23c0-1.607 2.24-2.91 3.85-2.91 1.61 0 3.85 1.303 3.85 2.91v34.902s.18 9.1-12.67 13.18c-.29.09-1.54.13-1.83.13z"/></svg>