<svg xmlns="http://www.w3.org/2000/svg" width="256" height="256" viewBox="0 0 256 256"><path fill="#f00" d="M146.154 223.14c-1.282-.004-2.65-.036-4.297-.104-.782.03-1.56.053-2.325.053h-.1c-14.86-.04-26.8-5.73-35.5-16.9-12.118-7.96-19.065-20.5-21.695-39.26-10.68-.73-20.957-2.17-30.596-4.29-11.57-2.55-14.93-10.55-14.21-17.19.8-7.31 6.29-13.48 11.99-13.48.79 0 1.57.11 2.32.33 9.83 2.89 19.63 5.09 29.2 6.55-.01-1.25-.02-2.49-.02-3.71-.19-24.07-.35-44.93 15.7-57.48.63-1.96 1.2-3.39 1.73-4.34 3.25-5.77 7.79-8.69 11.78-10.16l.03-13.3c.01-1.49.84-2.86 2.17-3.55l24.07-12.44c.58-.3 1.21-.45 1.84-.45.21 0 .42.01.63.05.2-.03.4-.05.61-.05l21.42.3c.68 0 1.34.19 1.93.52l25 14.3c1.44.82 2.22 2.43 1.97 4.07l-1.4 9.23c3.29 1.64 6.31 3.77 9.03 6.35 2.07 1.98 3.98 4.26 5.67 6.81 10.41 9.97 14.76 29.64 15.49 69.78.31 16.65-4 31.83-12.45 43.92-2.99 6.75-6.93 12.6-11.71 17.39-11.24 11.28-27.39 16.99-47.98 16.99h-.25z"/><path fill="#333" d="M138.223 37.44l1.97 1.234-.74-1.23 21.355.3 25.005 14.3-1.857 12.25c3.344 1.31 7.104 3.425 10.676 6.833 2.003 1.914 3.78 4.094 5.352 6.507 9.596 8.863 13.852 27.675 14.565 67.267.3 16.82-4.2 30.94-11.96 41.88-2.66 6.09-6.24 11.72-11.04 16.55-10.48 10.52-25.66 15.82-45.16 15.82h-.24c-1.41 0-2.85-.04-4.31-.1-.78.03-1.56.06-2.33.06h-.09c-13.84-.03-24.82-5.37-32.76-15.88-13.2-8.38-18.93-22.05-20.89-40.06-10.53-.56-21.85-1.88-33.3-4.4-18.12-3.99-10.42-22.76-3.09-22.76.39 0 .79.06 1.18.17 12.61 3.72 24.1 6.01 34.34 7.33 0-27.68-2.16-50.86 15.1-63.37.68-2.28 1.29-3.93 1.77-4.79 3.36-5.97 8.38-8.27 12.27-9.12l.04-16.28 24.1-12.46m45.8 33.34c-.33-.16-.66-.31-.98-.46l-.05.32c.35.04.69.09 1.03.14m-74.78 4.4c1.62-.63 3.36-1.2 5.21-1.72h-.39v-1.18c-1.57.52-3.29 1.41-4.84 2.91m30.29 137.99c.24-.07.5-.11.78-.11.11 0 .23.01.34.02.39.02.76.02 1.14.04.29-.01.57-.01.86-.03.09-.01.18-.01.27-.01.27 0 .53.04.78.11.85.02 1.7.03 2.54.03 7.52 0 14.31-.83 20.35-2.47-5.39 1.3-11.04 1.99-16.85 1.99h-.17c-9.69-.03-17.97-.87-25.06-2.47 4.43 1.94 9.42 2.91 15.01 2.91M138.2 29.46c-1.26 0-2.52.3-3.68.9L110.446 42.8c-2.65 1.372-4.317 4.104-4.324 7.087l-.026 10.68c-3.98 1.968-8.13 5.278-11.26 10.83-.383.68-.934 1.78-1.673 3.93-16.392 13.63-16.46 35.57-16.28 58.84-7.906-1.394-15.954-3.295-24.025-5.674-1.12-.33-2.28-.494-3.45-.494-7.78 0-14.94 7.64-15.96 17.04-.87 7.98 3.15 18.4 17.323 21.52 8.87 1.95 18.26 3.33 28 4.13 3.09 17.96 10.31 30.32 22.42 38.48 9.46 11.85 22.31 17.88 38.24 17.92h.11c.69 0 1.42-.02 2.32-.05 1.63.06 3 .09 4.3.1h.26c21.7 0 38.8-6.12 50.82-18.17 5.04-5.05 9.2-11.19 12.38-18.24 8.79-12.73 13.27-28.61 12.96-45.97-.74-40.94-5.36-61.41-16.4-72.29-1.8-2.65-3.81-5.04-5.99-7.12-2.28-2.18-4.76-4.06-7.42-5.64l.98-6.47c.5-3.27-1.07-6.5-3.94-8.15l-25.01-14.3c-1.18-.67-2.51-1.04-3.86-1.06l-21.35-.3h-.11c-.19 0-.39 0-.59.02-.21-.02-.42-.03-.64-.03z"/><path fill="#D88A23" d="M139.663 219.06c-15.34 0-27.204-6.513-35.305-19.395-23.258-36.98-7.27-116.084-2.676-124.29 6.04-10.79 17.508-9.64 17.99-9.59 1.618.18 2.782 1.637 2.604 3.253-.178 1.614-1.63 2.776-3.242 2.604-.403-.038-8.138-.667-12.215 6.61-2.97 5.293-19.89 82.635 2.52 118.278 7.58 12.06 18.58 17.45 33.51 16.535 1.76-.18 3.02 1.14 3.12 2.755.1 1.623-1.14 3.02-2.76 3.125-1.21.076-2.39.116-3.56.116z"/><linearGradient id="a" gradientUnits="userSpaceOnUse" x1="149.73" y1="117.798" x2="149.73" y2="306.013"><stop offset="0" stop-color="#C1272D"/><stop offset="1" stop-color="#82272D"/></linearGradient><path fill="url(#a)" d="M214.59 144.692c.874 42.558-29.01 67.993-64.807 67.993-54 0-64.805-25.424-64.805-67.993 0-42.575-5.753-74.787 60.386-74.626 50.204.12 67.51-9.085 69.225 74.626z"/><path opacity=".43" fill="#681E26" d="M92.18 106.15s-.816 35.844 20.54 35.844c0 0 24.545.742 19.147-23.318l-22.587-15.712s-15.545-2.463-17.1 3.187zm49.998 11.79s-1.485 22.334 15.947 23.07c17.434.736 31.678-2.45 35.844-20.124 0 0 7.85-16.443-7.61-16.938-15.47-.495-44.19 13.992-44.19 13.992z"/><path fill="#FFF6A1" d="M181.208 128.25c0 6.37-5.57 11.536-15.465 11.536s-15.466-5.166-15.466-11.536c0-6.375 5.57-11.54 15.466-11.54s15.465 5.165 15.465 11.54zm-81.536 0c0 6.37 5.57 11.536 15.465 11.536 9.896 0 15.464-5.166 15.464-11.536 0-6.375-5.56-11.54-15.46-11.54-9.89-.002-15.46 5.165-15.46 11.54z"/><path fill="#1A1A1A" d="M142.178 164.818s8.837-6.628 26.51.736c17.676 7.363 15.834-11.23 15.834-11.23l3.683 9.205 10.678-6.08-2.21 9.57 11.048.73s-11.04 25.4-38.66 4.05c0 0-12.15-11.05-27.25-3.32 0 0-2.21-1.29.37-3.69zm.482-61.613s-5.395 21.35 3.683 20.862c9.09-.49 18.41-23.808 47.867-17.427 0 0-1.46-4.17-8.342-4.17 0 0 4.913-3.93 13.75 1.225 0 0-4.418-12.277-17.674-9.084 0 0 4.166-3.92 9.815-2.69 0 0-8.6-5.89-20.62 2.45s-27.01 25.05-28.48 8.84zm-9.838-.49s3.015 21.84-4.154 21.35c-7.156-.487-20.62-26.757-36.487-17.914 0 0 2.1-6.13 7.53-6.13 0 0-4.82-1.96-11.78 3.2 0 0 3.05-12.52 13.5-9.33 0 0-2.85-3.67-7.3-2.45 0 0 6.78-5.89 16.26 2.45 9.47 8.35 18.06 25.29 22.45 8.85zm-23.922 69.1s12.15-11.048 27.247-3.315c0 0 2.21-1.29-.368-3.682 0 0-8.84-6.628-26.51.736-17.68 7.363-15.84-11.23-15.84-11.23l-3.68 9.205-4.05-2.31c.66 6.99 1.86 13.35 3.78 19.03 5.25-.22 11.65-2.46 19.41-8.45z"/><path opacity=".43" fill="#681E26" d="M138 153.524s-32.39 38.294-46.14 28.968c0 0-5.903-8.343-6.387-31.42"/><linearGradient id="b" gradientUnits="userSpaceOnUse" x1="160.597" y1="125.728" x2="48.686" y2="163.695"><stop offset=".151" stop-color="#C1272D"/><stop offset=".77" stop-color="#82272D"/></linearGradient><path fill="url(#b)" d="M139.968 141.252s-33.875 11.294-89.35-4.907c-7.616-2.227-17.156 18.422 1.957 22.58 45.164 9.822 88.37.985 88.37.985"/><path fill="#3F0E13" d="M111.225 175.087c5.34-1.363 9.517-2.1 14.245-2.675 4.603-.633 9.24-.915 13.935-.932 4.695.058 9.436.5 14.2 1.352 4.75.91 9.458 2.313 14.13 4.045l.482.18c5.547 2.052 8.377 8.21 6.33 13.75-2.06 5.54-8.217 8.37-13.75 6.315-1.083-.396-2.084-.978-2.937-1.65-5.235-4.154-11.978-6.467-19.02-6.938-3.52-.26-7.123-.006-10.645.684-3.382.766-7.237 1.997-9.573 3.626-4.44 3.118-10.575 2.042-13.693-2.41-3.12-4.448-2.04-10.58 2.4-13.7 1-.696 2.07-1.185 3.19-1.473l.7-.17z"/><path opacity=".43" fill="none" stroke="#681E26" stroke-linecap="round" stroke-miterlimit="10" d="M126.954 198.204s7.49-8.348 26.512 1.72"/><path d="M172.958 191.898c-.76 0-1.496-.098-2.222-.3-.62-.172-1.242-.437-1.77-.747-8.056-4.78-18.32-7.62-29.71-8.19-1.348-.07-2.763-.11-4.18-.11-3.956 0-8.018.3-12.057.9-4.86.82-11.3 2.25-15.76 4.58-.9.47-1.94.72-3.02.72-.11 0-.2-.05-.3-.06.25.61.59 1.2.98 1.76 3.11 4.46 9.25 5.53 13.69 2.41 2.33-1.63 6.19-2.86 9.57-3.62 3.52-.69 7.12-.94 10.64-.68 7.04.47 13.78 2.79 19.02 6.94.85.68 1.85 1.26 2.94 1.65 5.18 1.93 10.88-.47 13.27-5.35-.37.05-.73.13-1.12.13zm-51.1-13.634c5.66-.587 11.402-.875 17.662-.893 5.74.06 11.68.48 17.524 1.27 5.28.76 10.885 1.98 16.983 3.65-1.173-2.33-3.163-4.24-5.81-5.22l-.483-.18c-4.672-1.73-9.38-3.13-14.13-4.04-4.765-.85-9.505-1.29-14.2-1.35-4.695.02-9.332.3-13.935.93-4.73.58-8.91 1.32-14.25 2.68l-.7.18c-1.12.29-2.19.78-3.19 1.47-1.5 1.06-2.59 2.47-3.29 4.03 6.27-1.19 11.44-1.92 17.81-2.5z" fill="#E6E6E6"/><path fill="#161313" d="M139.23 37.416l21.358.247 25.04 14.24-2.947 19.757-21.35 2.21"/><path fill="#1A1A1A" d="M113.62 73.5V49.935l24.223-12.52 23.15 14.36-1.412 22.094zm59.856-8.468"/><path fill="#FBB03B" d="M146.384 219.095c-1.905 0-3.844-.052-5.83-.155-1.62-.08-2.876-1.467-2.79-3.09.08-1.616 1.33-3.01 3.09-2.79 20.724 1 36.42-3.682 46.7-14.044 18.877-19.02 16.87-53.293 15.546-75.973-.26-4.367-.483-8.285-.535-11.57-.26-16.566-4.304-28.73-12.03-36.143-7.796-7.48-16.995-7.43-16.967-7.353-1.576.086-2.98-1.23-3.032-2.856-.046-1.62 1.214-2.97 2.837-3.03.466-.06 11.478-.28 21.12 8.88 8.98 8.54 13.682 22.14 13.964 40.42.052 3.22.276 7.05.523 11.32 1.386 23.73 3.486 59.58-17.243 80.47-10.5 10.58-25.74 15.93-45.353 15.94z"/><path fill="#333" d="M119.36 126.564c0 3.28-2.635 5.932-5.914 5.932-3.28 0-5.926-2.653-5.926-5.932 0-3.274 2.646-5.915 5.926-5.915 3.28 0 5.914 2.64 5.914 5.91zm53.023 0c0 3.28-2.636 5.932-5.915 5.932s-5.926-2.653-5.926-5.932c0-3.274 2.646-5.915 5.926-5.915s5.915 2.64 5.915 5.91z"/></svg>