<svg xmlns="http://www.w3.org/2000/svg" width="256" height="256" viewBox="0 0 256 256"><path fill="#333" d="M130.13 227.496c-31.027 0-51.676-7.86-62.966-24-5.865 2.25-12.28 3.388-19.117 3.388-9.026 0-15.556-2.024-15.83-2.112-1.692-.532-2.83-2.12-2.795-3.895.25-12.482 3.945-23.438 10.996-32.628-5.438-4.88-8.188-12.56-8.188-22.94 0-12.76 6.15-23.8 14.84-27.61-3.904-21.28 1.08-41.17 14.475-57.63 15.86-19.49 42.046-31.59 68.342-31.59 24.88 0 48.998 10.51 64.514 28.13 14.6 16.57 20.86 37.79 18.14 61.44 8.32 4.12 14.05 14.92 14.05 27.24 0 12.59-4.3 27.49-24.21 28.92-1.89 34.38-27.39 53.24-72.23 53.24v.04zm-.245-194.993c43.375 0 85.332 32.96 78.533 86.292-.08.636-.186 1.264-.275 1.896 8.21 2.1 14.438 12.34 14.438 24.64 0 22.44-13.71 25.04-23.41 25.04-.23 0-.46-.01-.68-.02-.19 48.93-47.3 53.16-68.35 53.16-18.17 0-48.02-2.44-61.43-24.99-7.21 3.4-14.54 4.39-20.65 4.39-8.51 0-14.62-1.92-14.62-1.92.31-15.3 6.16-26.08 12.82-33.45-5.59-3.1-10.01-9.43-10.01-22.18 0-12.83 6.77-23.41 15.5-24.86-.12-.56-.25-1.11-.37-1.67-10.66-51.39 35.16-86.29 78.53-86.29"/><path fill="#333" d="M129.885 24.54c-27.47 0-54.845 12.67-71.444 33.07-6.91 8.5-11.75 18.01-14.38 28.25-2.44 9.51-2.91 19.48-1.41 29.68-8.68 5.3-14.42 16.63-14.42 29.83 0 11.2 3.11 18.5 7.02 23.26-6.28 9.28-9.58 20.08-9.82 32.222-.07 3.55 2.21 6.72 5.6 7.79.75.24 7.56 2.3 17.03 2.3 6.24 0 12.16-.89 17.68-2.64 6.98 8.73 16.91 15.06 29.6 18.88 9.81 2.94 21.19 4.38 34.81 4.38 18.14 0 33.46-3.06 45.57-9.07 17.91-8.9 28.32-24.21 30.4-44.55 5.21-.77 9.57-2.5 13.2-5.2 7.49-5.57 11.29-14.77 11.29-27.34 0-12.84-5.42-23.96-13.8-29.44 2.1-23.73-4.56-45.07-19.37-61.89-16.26-18.47-41.5-29.49-67.51-29.49l-.03-.04z"/><path fill="#95ABB5" d="M66.14 153.693S34.15 164.6 33.42 200.957c0 0 27.633 8.727 47.266-10.91"/><path fill="#BDCCD4" d="M208.418 118.795c-5.48 43.023-35.158 78.533-78.533 78.533-43.37 0-69.727-36.064-78.53-78.533-10.66-51.39 35.16-86.292 78.53-86.292 43.375 0 85.332 32.96 78.533 86.292z"/><path fill="#F4D1B0" d="M187.47 145.328c0 13.83 2.007 25.035 11.7 25.035 9.7 0 23.41-2.6 23.41-25.035 0-13.826-7.855-25.037-17.55-25.037-9.7.01-17.56 11.22-17.56 25.04z"/><path fill="#C69C6D" d="M190.377 145.234c.04-3.875.844-8.29 2.738-12.04.957-1.907 2.18-3.76 3.9-5.367 1.713-1.57 4.15-2.92 6.987-2.954 1.076.103.853.006 1.863.22.813.168 1.514.41 2.053.682 1.19.527 2.17 1.28 3.06 2.053 1.72 1.607 1.44 3.46 2.4 5.367 1.89 3.845 1.23 7.988 1.23 12.134v.47c0 2.71-.64 4.94-3.36 4.97-2.72.03-4.19-2.15-4.22-4.86 0-.2.39-.41.41-.6.3-2.73.26-5.71-.64-8.22-.82-2.61-2.43-4.26-2.9-4.43-.29-.15-1.03-.13-2.01.53-.95.66-1.9 1.74-2.72 3.01-1.67 2.64-2.64 5.61-3.022 9.19l-.01.14c-.17 1.59-1.6 2.75-3.2 2.58-1.5-.16-2.6-1.45-2.6-2.92l.04.03z"/><path fill="#F4D1B0" d="M71.338 145.328c0 13.83-2.006 25.035-11.7 25.035-9.694 0-23.41-2.6-23.41-25.035 0-13.826 7.856-25.037 17.554-25.037 9.698.01 17.556 11.22 17.556 25.04z"/><path fill="#C69C6D" d="M68.432 145.234c-.04-3.875-.84-8.29-2.738-12.04-.96-1.907-2.184-3.76-3.904-5.367-1.71-1.57-4.148-2.92-6.984-2.954-1.076.103-.854.006-1.86.22-.817.168-1.515.41-2.054.682-1.2.527-2.17 1.28-3.07 2.053-1.72 1.607-2.726 3.46-3.692 5.367-1.89 3.845-2.51 7.988-2.51 12.134v.47c0 2.71 1.92 4.94 4.637 4.97 2.717.03 4.833-2.15 4.868-4.86 0-.2-.072-.41-.09-.6-.303-2.73-.098-5.71.794-8.22.82-2.61 2.51-4.26 2.99-4.43.29-.15 1.07-.13 2.04.53.94.66 1.91 1.74 2.73 3.01 1.66 2.64 2.64 5.61 3.02 9.19l.01.14c.17 1.59 1.6 2.75 3.19 2.58 1.5-.16 2.61-1.45 2.61-2.92l.01.03z"/><path fill="#fdb" d="M198.482 170.05c0 49.198-47.265 53.446-68.353 53.446-24 0-68.36-4.248-68.36-53.445 0-49.19-5.09-112.34 68.35-112.34 74.17 0 68.35 63.15 68.35 112.35v-.01z"/><circle fill="#E57B6A" cx="128" cy="206.047" r="11.152"/><path fill="#BDCCD4" d="M127.95 54.807s5.58 60.828-19.636 67.618c0 0-11.63-3.636-37.81-3.636l18.663-58.17 40.963-8.73-2.18 2.91zm-.245.97s16.488 47.987-5.816 65.437c0 0 50.65-.48 72.95-9.207 0 0-18.43-68.59-67.15-56.23h.01z"/><path fill="#333" d="M127.586 207.137c-13.457 0-23.996-6.867-23.996-15.633 0-1.607 1.3-2.908 2.91-2.908 1.605 0 2.906 1.3 2.906 2.908 0 5.232 8.494 9.818 18.18 9.818 9.688 0 18.18-4.586 18.18-9.818 0-1.607 1.3-2.908 2.908-2.908 1.605 0 2.906 1.3 2.906 2.908 0 8.766-10.537 15.633-23.994 15.633z"/><path fill="#BDCCD4" d="M58.15 117.818s39.754-25.212 46.535-40.72c6.785-15.51 3.877-24.235 3.877-24.235l41.69 7.754 13.573 44.602 41.202 15.07s-16.96-62.58-50.897-70.34c-33.933-7.76-82.403-.01-95.98 67.86z"/><path fill="#95ABB5" d="M158.008 54.807s3.393 2.828 6.232 8.695c1.426 2.896 2.783 6.496 3.496 10.504.48 1.995.688 4.09.803 6.232.19 2.137.08 4.316 0 6.49-.23 2.156-.51 4.308-.82 6.417-.54 2.057-1.06 4.083-1.57 6.044-.68 1.9-1.43 3.7-2.09 5.4-.67 1.71-1.65 3.18-2.36 4.6-1.45 2.84-3.19 4.89-4.29 6.38-1.15 1.45-1.84 2.24-1.84 2.24l.7-2.83c.43-1.79 1.32-4.19 1.96-7.2.82-2.94 1.51-6.38 2.24-10.02.59-3.68 1.09-7.56 1.33-11.46-.08-1.96.21-3.9.09-5.82-.08-1.92-.1-3.82-.27-5.65-.25-3.67-.77-7.09-1.28-10.05-1.09-5.91-2.36-10-2.36-10l.02.02z"/><path fill="#333" d="M116.62 141.38h29v6h-29v-6z"/><path fill="#BDCCD4" d="M61.537 141.092l28.6-47.99-34.42 2.423 5.82 45.567zm139.123 0l-28.605-47.99 34.422 2.423-5.817 45.567z"/><radialGradient id="a" cx="-747.709" cy="223.103" r="29.983" gradientTransform="matrix(.723 0 0 -.723 630.793 346.036)" gradientUnits="userSpaceOnUse"><stop offset="0" stop-color="#FF585D"/><stop offset="1" stop-color="#FF585D" stop-opacity="0"/></radialGradient><circle opacity=".7" fill="url(#a)" enable-background="new" cx="89.955" cy="184.732" r="21.697"/><radialGradient id="b" cx="-632.717" cy="223.103" r="29.983" gradientTransform="matrix(.723 0 0 -.723 630.793 346.036)" gradientUnits="userSpaceOnUse"><stop offset="0" stop-color="#FF585D"/><stop offset="1" stop-color="#FF585D" stop-opacity="0"/></radialGradient><circle opacity=".7" fill="url(#b)" enable-background="new" cx="173.129" cy="184.732" r="21.697"/><linearGradient id="c" gradientUnits="userSpaceOnUse" x1="991.604" y1="-243.179" x2="991.604" y2="-232.732" gradientTransform="matrix(7.466 0 0 -7.466 -7277.02 -1609.028)"><stop offset="0" stop-color="#FF5459"/><stop offset=".789" stop-color="#FF6064" stop-opacity="0"/></linearGradient><path fill="url(#c)" d="M130.62 142.38v33.126s1.144 6.236-7.867 9.01l2.477-9.01-3.31-35.04"/><path fill="#333" d="M123.604 190.287c-1.23 0-2.377-.79-2.773-2.027-.48-1.527.37-3.162 1.9-3.65 8.01-2.55 7.71-7.12 7.68-7.32l-.01-35.228c0-1.607 1.01-2.91 2.62-2.91s2.62 1.303 2.62 2.91v34.9s1.43 9.105-11.43 13.19c-.29.09-.29.136-.58.136h-.02z"/><path fill="#C69C6D" d="M88.356 170.787c-9.6 0-17.898-4.076-18.375-4.313-1.43-.718-2.01-2.46-1.3-3.898.73-1.434 2.47-2.027 3.9-1.305.14.07 13.94 6.79 24.73 1.94 5.68-2.54 9.68-7.96 11.9-16.09.42-1.53 2.02-2.45 3.58-2.04 1.55.42 2.46 2.03 2.04 3.58-2.7 9.9-7.8 16.59-15.15 19.88-3.71 1.67-7.6 2.27-11.3 2.27l-.02-.02zm82.194 0c-3.7 0-7.59-.602-11.297-2.264-7.36-3.287-12.463-9.978-15.16-19.875-.418-1.55.49-3.154 2.044-3.576 1.563-.42 3.15.502 3.57 2.04 2.22 8.142 6.23 13.556 11.917 16.1 10.87 4.854 24.56-1.872 24.7-1.94 1.443-.723 3.18-.137 3.904 1.3.71 1.438.13 3.18-1.31 3.903-.48.236-8.78 4.313-18.38 4.313h.012z"/><path fill="#F5F5F5" d="M114.626 145.248c0 11.244-9.105 20.357-20.348 20.357-11.243 0-20.354-9.113-20.354-20.357 0-11.23 9.11-20.33 20.354-20.33s20.348 9.1 20.348 20.33z"/><path fill="#333" d="M108.587 144.775c0 7.803-6.316 14.125-14.12 14.125-7.804 0-14.128-6.322-14.128-14.125 0-7.8 6.32-14.117 14.12-14.117s14.12 6.316 14.12 14.117z"/><path fill="#F5F5F5" d="M184.434 145.248c0 11.244-9.105 20.357-20.345 20.357-11.25 0-20.36-9.113-20.36-20.357 0-11.23 9.11-20.33 20.36-20.33 11.22 0 20.34 9.1 20.34 20.33z"/><path fill="#333" d="M178.395 144.775c0 7.803-6.316 14.125-14.12 14.125-7.8 0-14.13-6.322-14.13-14.125 0-7.8 6.33-14.117 14.13-14.117 7.802 0 14.12 6.317 14.12 14.117zM90.19 176.96c-16.04 0-29.088-13.05-29.088-29.085 0-16.037 13.05-29.085 29.088-29.085 16.035 0 29.086 13.048 29.086 29.085 0 16.035-13.05 29.086-29.086 29.085zm0-52.354c-12.836 0-23.27 10.437-23.27 23.27s10.434 23.267 23.27 23.267c12.83 0 23.27-10.436 23.27-23.268s-10.44-23.27-23.27-23.27zm75.623 52.354c-16.037 0-29.088-13.05-29.088-29.085 0-16.037 13.05-29.085 29.088-29.085 16.035 0 29.084 13.048 29.084 29.085 0 16.035-13.047 29.086-29.084 29.085zm0-52.354c-12.836 0-23.27 10.437-23.27 23.27s10.436 23.267 23.27 23.267c12.832 0 23.27-10.436 23.27-23.268s-10.432-23.27-23.262-23.27z"/></svg>