<svg xmlns="http://www.w3.org/2000/svg" width="256" height="256" viewBox="0 0 256 256"><path fill="#C7B299" d="M127.997 215.508c-54.558 0-98.943-39.258-98.943-87.513 0-48.25 44.386-87.503 98.943-87.503 54.56 0 98.95 39.254 98.95 87.503 0 48.255-44.39 87.513-98.95 87.513z"/><path fill="#333" d="M127.997 44.492c52.44 0 94.95 37.385 94.95 83.503 0 46.13-42.51 83.513-94.95 83.513-52.434 0-94.943-37.384-94.943-83.513 0-46.118 42.51-83.503 94.943-83.503m0-8c-27.305 0-53.024 9.394-72.417 26.45-19.685 17.313-30.526 40.416-30.526 65.053 0 24.642 10.84 47.748 30.525 65.062 19.39 17.058 45.11 26.45 72.41 26.45 27.31 0 53.03-9.393 72.42-26.45 19.68-17.313 30.52-40.42 30.52-65.062 0-24.638-10.84-47.74-30.53-65.053-19.4-17.056-45.12-26.45-72.43-26.45z"/><path fill="#C7B299" d="M222.946 127.995c0 46.13-42.51 83.513-94.95 83.513-52.433 0-94.942-37.384-94.942-83.513 0-46.118 42.51-83.503 94.943-83.503 52.44 0 94.95 37.385 94.95 83.503z"/><path fill="#333" d="M157.084 197.38H98.912c-3.215 0-5.814-2.283-5.814-5.5 0-3.214 2.6-5.5 5.814-5.5h58.172c3.217 0 5.818 2.286 5.818 5.5 0 3.217-2.6 5.5-5.818 5.5z"/><path fill="#00A99D" d="M215.844 120.75c6.975 12.067-2.765 30.743-21.74 41.73-18.976 10.97-47.054 14.17-54.03 2.105-6.977-12.055 9.787-34.805 28.764-45.793 18.978-10.974 40.023-10.096 47.006 1.957zm-176.13.11c-6.99 12.063 2.726 30.735 21.693 41.693 18.96 10.958 47.037 14.114 54.03 2.042 6.99-12.063-9.744-34.79-28.718-45.757-18.96-10.95-40.01-10.046-47.01 2.023z"/><path fill="#333" d="M123.504 171.06l1.535 7.037c.34 1.58-.66 3.136-2.24 3.482-1.58.34-3.14-.66-3.48-2.24-.1-.42-.09-.85 0-1.25l1.53-7.04c.16-.73.88-1.2 1.61-1.03.53.11.91.53 1.03 1.03zm11.636 0l1.534 7.037c.346 1.58-.656 3.136-2.234 3.482-1.576.34-3.133-.66-3.48-2.24-.093-.42-.09-.85 0-1.25l1.54-7.04c.156-.73.88-1.2 1.605-1.03.536.11.922.53 1.036 1.03z"/></svg>