<svg xmlns="http://www.w3.org/2000/svg" width="256" height="256" viewBox="0 0 256 256"><path fill="#FBB03B" d="M88.38 224.874c-15.344-.92-27.34-6.392-37.143-12.04-.205.03-.412.047-.62.047-.752 0-1.503-.21-2.16-.63l-17.917-11.5c-.74-.47-1.302-1.18-1.6-2C7.038 138.21 23.51 88.16 41.217 56.81c5.906-11.915 13.22-22.19 21.743-30.545 1-1.09 1.57-1.66 1.57-1.66.275-.274.583-.502.914-.682 7.482-6.604 17.888-9.95 30.947-9.95 14.92 0 28.74 4.382 32.59 5.71 6.62-2.35 21.17-6.842 35.74-6.842 12.44 0 22.25 3.25 29.15 9.67 7.67 7.11 14.84 18.73 20.77 33.61 17.76 30.72 34.27 79.88 12.63 140.19-.07.31-.18.6-.31.88-.51 1.02-12.81 24.91-41.64 26.21-.06.01-.12.01-.18.01-1.96 0-3.65-1.43-3.95-3.39-.63-4.12-1.53-9.27-2.66-15.39-12.01 7.17-28.03 10.79-47.72 10.79-17.32 0-31.24-2.43-42.27-7.4.96 4.22 2.21 7.97 3.73 11.19.6 1.28.48 2.78-.31 3.95-.74 1.1-1.99 1.76-3.31 1.76h-.24z"/><path fill="#333" d="M164.715 16.834c9.757 0 19.464 2.128 26.425 8.593 6.798 6.31 13.872 17.268 19.875 32.424 16.974 29.25 33.897 77.75 12.368 137.42l-.014.12s-11.43 22.79-38.25 24c-.89-5.72-2.2-13.06-3.82-21.49-15.65 11.96-37.83 13.51-50.52 13.51-13.3 0-32.86-1.31-47.65-10.85 1 7.67 2.76 14.56 5.47 20.34-15.08-.9-26.97-6.43-38-13.05v1.06l-17.9-11.53c-21.58-59.65-4.83-108.85 12.05-138.7 6.68-13.5 14.36-23.06 21.08-29.63.97-1.06 1.52-1.61 1.52-1.61l-.03.18.19-.18c7.78-7.23 18.54-9.46 28.86-9.46 16.67 0 32.21 5.83 32.21 5.83l-.58.5c4.26-1.63 20.54-7.45 36.69-7.45m0-8c-14.26 0-28.43 4.11-35.77 6.62C123.6 13.75 110.45 10 96.36 10c-13.9 0-25.1 3.6-33.3 10.7-.5.317-.97.69-1.39 1.11-.07.07-.65.65-1.62 1.71-8.79 8.634-16.32 19.21-22.4 31.454-18.1 32.09-34.9 83.266-12.5 145.17.59 1.65 1.72 3.06 3.2 4.01l17.91 11.5c1.2.776 2.56 1.198 3.94 1.26 10.024 5.68 22.26 11.06 37.892 11.997.16.01.32.02.48.02 2.64 0 5.126-1.31 6.62-3.51 1.584-2.33 1.82-5.33.62-7.89-.43-.91-.837-1.87-1.22-2.88 10.09 3.22 22.06 4.8 36.145 4.8 17.83 0 32.83-2.91 44.765-8.67.67 3.77 1.23 7.07 1.66 9.88.606 3.92 3.978 6.78 7.9 6.78.12 0 .24 0 .366-.01 31.155-1.4 44.49-27.3 45.04-28.4.24-.48.433-.98.57-1.5 22-61.5 5.26-111.67-12.86-143.12-6.12-15.29-13.6-27.31-21.65-34.78-7.663-7.12-18.386-10.73-31.865-10.73z"/><path fill="#FFCE00" d="M67.36 27.427S-3.298 97.88 32.702 197.38l17.917 11.5v-55.5M188.38 27.427s70.945 68.496 34.945 167.996l-18.71 13.458v-55.5"/><path fill="#FFCE00" d="M185.12 219.38c26.824-1.21 38.25-24 38.25-24 11-90.5-11.867-151.05-32.23-169.953-20.36-18.908-64.187-.712-64.187-.712l19.105 10.89s32.247 139.64 39.06 183.776zm-96.5 1.5c-23.5-50 23.987-183.274 23.987-183.274l15.998-13.813S87.883 8.52 67.527 27.428C47.257 46.243 16.12 92.88 32.62 196.38c16.797 10.5 32.544 23.094 56 24.5z"/><path fill="#F4D1B0" d="M188.122 133.224c0 13.83 2.004 25.036 11.703 25.036 9.697 0 23.414-2.6 23.414-25.036 0-13.825-7.87-25.036-17.56-25.036-9.7 0-17.56 11.21-17.56 25.036z"/><path fill="#C69C6D" d="M191.032 133.13c.037-3.875.844-8.29 2.738-12.04.96-1.906 2.18-3.76 3.904-5.366 1.71-1.57 4.152-2.92 6.986-2.954 1.074.103.854.006 1.863.22.814.168 1.512.41 2.053.682 1.197.527 2.17 1.28 3.066 2.053 1.72 1.607 1.616 3.46 2.575 5.367 1.896 3.844 1.4 7.988 1.4 12.133v.48c0 2.713-.807 4.94-3.523 4.977-2.72.033-4.28-2.143-4.313-4.857 0-.193.36-.41.37-.6.3-2.728.24-5.708-.65-8.218-.82-2.61-2.44-4.255-2.91-4.424-.29-.147-1.03-.124-2.01.533-.95.66-1.9 1.744-2.71 3.01-1.67 2.648-2.64 5.62-3.02 9.2v.142c-.17 1.594-1.6 2.754-3.2 2.585-1.49-.162-2.6-1.446-2.6-2.923z"/><path fill="#F4D1B0" d="M71.996 133.224c0 13.83-2.004 25.036-11.703 25.036-9.695 0-23.41-2.6-23.41-25.036 0-13.825 7.855-25.036 17.555-25.036 9.696 0 17.558 11.21 17.558 25.036z"/><path fill="#C69C6D" d="M69.085 133.13c-.04-3.875-.84-8.29-2.734-12.04-.96-1.906-2.18-3.76-3.9-5.366-1.71-1.57-4.15-2.92-6.98-2.954-1.07.103-.85.006-1.86.22-.81.168-1.51.41-2.05.682-1.19.527-2.17 1.28-3.06 2.053-1.72 1.607-2.55 3.46-3.52 5.367-1.89 3.844-2.34 7.988-2.34 12.133v.48c0 2.713 1.75 4.94 4.47 4.977 2.72.033 4.75-2.143 4.78-4.857 0-.193-.11-.41-.13-.6-.29-2.728-.11-5.708.78-8.218.82-2.61 2.5-4.255 2.98-4.424.29-.147 1.06-.124 2.04.533.95.66 1.92 1.744 2.73 3.01 1.67 2.648 2.65 5.62 3.03 9.2l.01.142c.17 1.594 1.6 2.754 3.2 2.585 1.5-.162 2.61-1.446 2.6-2.923z"/><path fill="#fdb" d="M199.138 157.947c0 49.197-47.262 53.445-68.352 53.445-23.994 0-68.35-4.248-68.35-53.445 0-49.196-5.09-112.345 68.35-112.345 74.172 0 68.352 63.15 68.352 112.345z"/><path fill="#F94B4B" d="M138.79 193.943c0 6.157-4.994 11.152-11.152 11.152-6.156 0-11.152-4.995-11.152-11.152 0-6.16 4.996-11.154 11.152-11.154 6.158 0 11.152 4.99 11.152 11.15z"/><path fill="#333" d="M128.24 195.032c-13.457 0-23.995-6.866-23.995-15.632 0-1.608 1.3-2.908 2.908-2.908 1.61 0 2.908 1.3 2.908 2.908 0 5.232 8.5 9.817 18.18 9.817 9.69 0 18.18-4.585 18.18-9.817 0-1.608 1.31-2.908 2.91-2.908s2.91 1.3 2.91 2.908c0 8.766-10.53 15.632-23.99 15.632z"/><path fill="#FFCE00" d="M87.158 79.78s-32.72 61.082-21.816 104.71c0 0-21.086-53.81-10.904-97.438"/><path fill="#FFCE00" d="M173.825 79.78s32.72 61.082 21.814 104.71c0 0 21.09-53.81 10.9-97.438l-10.32-36.36-26.18-5.814 3.77 34.902zm-80.85-47.266l26.905 9.454 40.72-4.363-16-14.543-25.448 2.182z"/><radialGradient id="a" cx="-820.394" cy="-93.59" r="29.998" gradientTransform="matrix(.723 0 0 .723 679.961 234.322)" gradientUnits="userSpaceOnUse"><stop offset="0" stop-color="#FF585D"/><stop offset="1" stop-color="#FF585D" stop-opacity="0"/></radialGradient><circle opacity=".7" fill="url(#a)" cx="86.57" cy="166.629" r="21.697"/><radialGradient id="b" cx="-705.402" cy="-93.59" r="29.998" gradientTransform="matrix(.723 0 0 .723 679.961 234.322)" gradientUnits="userSpaceOnUse"><stop offset="0" stop-color="#FF585D"/><stop offset="1" stop-color="#FF585D" stop-opacity="0"/></radialGradient><circle opacity=".7" fill="url(#b)" cx="169.743" cy="166.629" r="21.697"/><linearGradient id="c" gradientUnits="userSpaceOnUse" x1="1145.26" y1="730.225" x2="1145.26" y2="719.79" gradientTransform="matrix(7.466 0 0 7.466 -8424.73 -5257.445)"><stop offset="0" stop-color="#FF5459"/><stop offset=".789" stop-color="#FF6064" stop-opacity="0"/></linearGradient><path fill="url(#c)" d="M130.62 130.38v33.022s1.3 6.236-7.71 9.01l2.554-9.01-3.427-34.99"/><path fill="#333" d="M122.957 178.184c-1.228 0-2.38-.79-2.773-2.027-.488-1.527.36-3.163 1.895-3.65 8-2.55 7.69-7.12 7.67-7.32l-.02-35.23c0-1.607 1.33-2.91 2.94-2.91s2.93 1.303 2.93 2.91v34.902s1.1 9.1-11.75 13.18c-.29.09-.62.13-.91.13z"/><path fill="#F5F5F5" d="M113.445 133.145c0 11.244-9.104 20.356-20.348 20.356-11.24 0-20.352-9.11-20.352-20.35 0-11.23 9.11-20.33 20.352-20.33 11.245 0 20.348 9.1 20.348 20.33z"/><path fill="#0071BC" d="M107.408 132.67c0 7.805-6.314 14.126-14.12 14.126-7.802 0-14.128-6.32-14.128-14.125 0-7.8 6.326-14.11 14.13-14.11 7.804 0 14.118 6.32 14.118 14.12z"/><path fill="#F5F5F5" d="M183.254 133.145c0 11.244-9.104 20.356-20.348 20.356-11.242 0-20.355-9.11-20.355-20.35 0-11.23 9.12-20.33 20.36-20.33 11.25 0 20.35 9.1 20.35 20.33z"/><path fill="#0071BC" d="M177.217 132.67c0 7.805-6.316 14.126-14.12 14.126-7.8 0-14.13-6.32-14.13-14.125 0-7.8 6.33-14.11 14.13-14.11 7.803 0 14.12 6.32 14.12 14.12z"/><path fill="#FFCE00" d="M181.688 49.97s7.998 59.622-26.18 64.713c0 0 9.453-17.45 5.092-25.45 0 0-16 26.18-45.083 30.542 0 0 14.542-18.18 11.633-30.543 0 0-24.725 37.088-64.715 34.903L74.07 52.15l26.174-16.726 35.632-2.18 45.812 16.726z"/><path fill="#FBB03B" d="M104.974 74.33s1.453 31.99-25.814 39.99c0 0 35.63 2.91 25.814-39.99zm33.808-38.905s4.197 3.403 8.133 10.384c1.947 3.47 3.885 7.79 5.06 12.75.66 2.46 1.015 5.1 1.282 7.78.014 2.71.268 5.47-.275 8.22-.197 1.37-.338 2.74-.592 4.1l-1.125 3.97c-.66 2.66-2.074 4.99-3.15 7.32-1.025 2.38-2.865 4.17-4.148 6.09-1.258 1.96-3.086 3.29-4.5 4.69-1.488 1.34-2.77 2.64-4.193 3.44-1.34.9-2.574 1.59-3.543 2.19-1.98 1.15-3.12 1.75-3.12 1.75l2.17-2.87c.72-.87 1.53-1.96 2.53-3.11 1.09-1.07 1.82-2.72 2.92-4.2 1.01-1.55 2.24-3.12 3.08-5.04.85-1.9 2.15-3.68 2.74-5.85.71-2.1 1.74-4.16 2.04-6.47.23-1.13.53-2.25.81-3.38.16-1.15.24-2.32.36-3.48.36-2.31.16-4.68.23-6.99-.13-2.32-.27-4.63-.54-6.86-.59-4.47-1.53-8.65-2.43-12.28-1.92-7.21-3.71-12.21-3.71-12.21zm29.086 5.815s4.193 3.404 8.133 10.386c1.95 3.473 3.89 7.796 5.07 12.754.66 2.46 1.01 5.107 1.28 7.786.02 2.712.27 5.475-.27 8.223-.2 1.37-.34 2.75-.59 4.1l-1.12 3.97c-.66 2.66-2.07 4.99-3.15 7.32-1.02 2.38-2.86 4.17-4.14 6.09-1.26 1.97-3.08 3.29-4.5 4.7-1.49 1.34-2.77 2.64-4.19 3.44-1.33.9-2.57 1.58-3.54 2.18-1.99 1.15-3.12 1.75-3.12 1.75s.79-1.05 2.17-2.87c.72-.87 1.53-1.96 2.53-3.12 1.1-1.08 1.83-2.72 2.93-4.21 1.01-1.55 2.24-3.12 3.07-5.04.85-1.9 2.14-3.69 2.73-5.85.7-2.11 1.74-4.16 2.04-6.47.23-1.14.54-2.25.81-3.38.17-1.14.24-2.32.37-3.48.36-2.31.16-4.68.23-6.99-.12-2.32-.27-4.63-.53-6.86-.59-4.46-1.54-8.64-2.44-12.27-1.92-7.21-3.7-12.21-3.7-12.21z"/></svg>