<?xml version="1.0" encoding="utf-8"?>
<!-- Generator: Adobe Illustrator 16.0.0, SVG Export Plug-In . SVG Version: 6.00 Build 0)  -->
<!DOCTYPE svg PUBLIC "-//W3C//DTD SVG 1.1//EN" "http://www.w3.org/Graphics/SVG/1.1/DTD/svg11.dtd">
<svg version="1.1" id="Layer_1" xmlns="http://www.w3.org/2000/svg" xmlns:xlink="http://www.w3.org/1999/xlink" x="0px" y="0px"
	 width="256px" height="256px" viewBox="0 0 256 256" enable-background="new 0 0 256 256" xml:space="preserve">
<path fill="#333333" d="M129.092,243.494c-10.08,0-18.937-1.342-27.067-4.102c-2.193-0.44-4.36-0.938-6.442-1.477
	c-0.975-0.252-1.78-0.848-2.31-1.63c-17.426-3.726-28.91-8.642-29.413-8.86c-0.248-0.105-0.484-0.238-0.706-0.393
	c-13.226-9.25-23.014-21.03-29.103-35.025l-2.04-2.043c-1.32-1.322-1.52-3.344-0.6-4.88c-12.35-36.91,0.19-81.582,9.4-114.38
	c1.29-4.588,2.51-8.92,3.6-13.024c9.34-35.02,43.29-40.24,62.7-40.24c7.3,0,12.63,0.74,14.03,0.95h1.57
	c0.22-0.38,0.44-0.76,0.64-1.12c0.59-1.03,1.12-1.98,1.61-2.79c0.72-1.21,2.03-1.95,3.44-1.95s2.72,0.74,3.44,1.96
	c0.49,0.82,1.03,1.77,1.62,2.81l0.63,1.11h0.82c1.399-0.21,6.729-0.95,14.03-0.95c19.41,0,53.359,5.23,62.699,40.25
	c1.09,4.08,2.301,8.38,3.58,12.94c13.18,46.94,33.09,117.88-22.33,156.64c-0.16,0.12-0.33,0.22-0.5,0.3
	c-0.52,0.261-12.859,6.38-31.67,10.55c-11.5,4.78-22.91,5.4-31.58,5.4L129.092,243.494z"/>
<path fill="#333333" d="M128.37,16.504c0.935,1.57,2.069,3.657,3.366,5.876h3.453c0,0,5.58-0.95,13.709-0.95
	c18.521,0,50.201,4.934,58.83,37.28c12.41,46.538,41.041,124.55-17.18,165.271c0,0-12.359,6.18-31.1,10.293
	c-10.69,4.51-21.5,5.22-30.37,5.22c-8.2,0-17.19-0.935-26.03-3.972c-2.15-0.42-4.32-0.91-6.48-1.471l2.48-0.06
	c-0.81-0.341-1.61-0.7-2.41-1.08c-18.68-3.729-31.22-9.14-31.22-9.14c-13.71-9.58-22.6-21.23-28.03-34.03l-2.58-2.58l1.12-1.12
	c-15.04-41.03,3.09-92.76,12.3-127.3c8.63-32.35,40.31-37.28,58.83-37.28c8.12,0,13.71,0.95,13.71,0.95h4.2
	c1.29-2.22,2.43-4.3,3.36-5.87"/>
<path fill="#333333" d="M128.329,8.541c-2.82,0-5.43,1.49-6.88,3.92c-0.33,0.57-0.69,1.19-1.05,1.83
	c-2.42-0.31-7.24-0.81-13.34-0.81c-9.55,0-23.64,1.26-36.5,7.26c-15.51,7.23-25.62,19.33-30.05,35.96c-1.09,4.08-2.3,8.4-3.59,12.98
	c-9.23,32.89-21.77,77.54-9.8,115.31c-0.78,2.7-0.1,5.729,2.03,7.86l1.51,1.52c6.41,14.38,16.55,26.48,30.17,36.01
	c0.44,0.311,0.92,0.57,1.41,0.79c0.51,0.22,11.78,5.05,28.88,8.82c0.94,0.88,2.11,1.53,3.43,1.87c2.07,0.539,4.22,1.029,6.4,1.479
	c8.48,2.851,17.68,4.229,28.1,4.229c8.971,0,20.75-0.639,32.79-5.56c19.091-4.27,31.72-10.53,32.25-10.79
	c0.351-0.17,0.69-0.369,1.011-0.6c13.659-9.551,23.83-21.721,30.229-36.16c5.47-12.359,8.31-26.75,8.43-42.77
	c0.21-28.69-8.1-58.28-14.771-82.07c-1.279-4.54-2.489-8.84-3.569-12.89c-4.44-16.63-14.55-28.73-30.05-35.96
	c-12.87-6-26.96-7.26-36.51-7.26c-5.561,0-10.061,0.42-12.65,0.73c-0.35-0.61-0.689-1.2-1.01-1.74c-1.44-2.42-4.061-3.91-6.88-3.91
	L128.329,8.541z"/>
<path fill="#333333" d="M96.57,234.061C145.25,246.67,190.54,224,190.54,224c58.22-40.72,29.59-118.73,17.181-165.26
	c-12.41-46.54-72.544-36.33-72.544-36.33H120.8c0,0-60.13-10.232-72.54,36.3C35.852,105.247,7.21,183.033,65.44,223.754
	c0,0,49.04,21.203,97.716,8.6"/>
<path fill="#F4D1B0" d="M186.428,161.328c0,13.824,2.006,25.035,11.703,25.035s23.41-2.604,23.41-25.035
	c0-13.828-7.85-25.037-17.55-25.037c-9.69,0-17.56,11.21-17.56,25.04L186.428,161.328z"/>
<path fill="#C69C6D" d="M189.338,161.23c0.037-3.875,0.836-8.287,2.736-12.041c0.957-1.906,2.18-3.76,3.9-5.365
	c1.709-1.568,4.151-2.92,6.989-2.953c1.07,0.109,0.851,0.01,1.86,0.23c0.813,0.17,1.513,0.409,2.05,0.68
	c1.203,0.529,2.172,1.279,3.071,2.05c1.721,1.61,1.467,3.46,2.421,5.37c1.899,3.84,1.252,7.99,1.252,12.14v0.479
	c0,2.721-0.66,4.94-3.378,4.98c-2.715,0.03-4.198-2.14-4.23-4.859c0-0.19,0.391-0.41,0.405-0.59c0.3-2.73,0.256-5.711-0.638-8.221
	c-0.823-2.609-2.43-4.25-2.905-4.43c-0.29-0.141-1.032-0.12-2.011,0.54c-0.943,0.659-1.896,1.75-2.709,3.01
	c-1.664,2.649-2.645,5.62-3.014,9.2l-0.02,0.14c-0.18,1.601-1.6,2.761-3.2,2.591c-1.5-0.16-2.61-1.44-2.601-2.921L189.338,161.23z"
	/>
<path fill="#F4D1B0" d="M70.3,161.328c0,13.824-2.005,25.035-11.702,25.035c-9.7,0-23.412-2.604-23.412-25.035
	c0-13.828,7.854-25.037,17.555-25.037c9.7,0,17.56,11.21,17.56,25.04L70.3,161.328z"/>
<path fill="#C69C6D" d="M67.39,161.23c-0.042-3.875-0.843-8.287-2.735-12.041c-0.96-1.906-2.182-3.76-3.906-5.365
	c-1.71-1.568-4.16-2.92-6.99-2.953c-1.08,0.109-0.85,0.01-1.87,0.23c-0.81,0.17-1.51,0.409-2.05,0.68
	c-1.2,0.529-2.18,1.279-3.07,2.05c-1.73,1.61-2.72,3.46-3.67,5.37c-1.9,3.84-2.5,7.99-2.5,12.14v0.479c0,2.721,1.9,4.94,4.61,4.98
	c2.71,0.03,4.82-2.14,4.85-4.859c0-0.19-0.08-0.41-0.09-0.59c-0.3-2.73-0.1-5.711,0.79-8.221c0.82-2.609,2.51-4.25,2.99-4.43
	c0.29-0.141,1.07-0.12,2.04,0.54c0.95,0.659,1.92,1.75,2.73,3.01c1.67,2.649,2.65,5.62,3.02,9.2l0.02,0.14
	c0.16,1.601,1.6,2.761,3.18,2.591c1.5-0.16,2.61-1.44,2.61-2.921L67.39,161.23z"/>
<path fill="#FFDDBB" d="M197.443,186.05c-15.271,49.446-47.271,53.444-68.353,53.444c-23.99,0-54.9-7.996-68.35-53.445
	c0-49.199-5.09-112.35,68.36-112.35c74.17,0,68.359,63.15,68.359,112.34L197.443,186.05z"/>
<path fill="#D35446" d="M139.15,222.043c0,6.158-4.99,11.154-11.15,11.154c-6.157,0-11.15-4.996-11.15-11.154
	c0-6.156,4.993-11.152,11.15-11.152c6.16,0,11.15,5,11.15,11.16V222.043z"/>
<path fill="#333333" d="M127.996,223.137c-13.453,0-23.992-6.869-23.992-15.633c0-1.609,1.3-2.912,2.908-2.912
	c1.61,0,2.91,1.301,2.91,2.912c0,5.23,8.49,9.814,18.174,9.814c9.689,0,18.18-4.586,18.18-9.814c0-1.609,1.305-2.912,2.912-2.912
	c1.605,0,2.908,1.301,2.908,2.912C151.996,216.266,141.459,223.137,127.996,223.137z"/>
<path fill="#333333" d="M169.811,89.703c0,0-11.633,48.72-109.795,50.174c0,0-21.814-70.535,50.896-86.532
	C110.911,53.345,174.171,43.893,169.811,89.703L169.811,89.703z"/>
<path fill="#333333" d="M166.898,70.07c0,0-10.181,51.628,11.637,66.17c0,0,19.633,13.816,20.363,37.813
	C198.898,174.053,216.35,60.617,166.898,70.07L166.898,70.07z"/>
<path fill="#333333" d="M94.798,70.07c0,0,10.183,51.628-11.63,66.17c0,0-19.637,13.816-20.36,37.813
	c0,0-17.453-113.436,31.988-103.984L94.798,70.07z"/>
<path fill="#FBB03B" d="M128.85,75.644c29.641,0,44.601-23.755,70.383,25.226c0.521-3.49,0.881-7.038,0.881-10.68
	c0-18.733-7.24-35.74-19-48.52c-0.135,0.007-0.26,0.04-0.391,0.04c-7.455,0-13.902-4.05-17.449-10.025
	c-3.553,5.977-10,4.21-17.455,4.21c-7.459,0-13.899-13.413-17.449-19.39c-3.55,5.977-10,19.39-17.46,19.39s-13.9,1.767-17.45-4.21
	C89.9,37.662,83.46,41.71,76,41.71c-0.133,0-0.26-0.04-0.396-0.04c-11.757,12.78-18.99,29.788-18.99,48.52
	c0,4.087,0.42,8.064,1.075,11.96c23.16-49.286,40.98-26.506,71.15-26.506H128.85z M51.284,203.594l-16.446-16.453l16.446-16.453
	l16.455,16.451L51.284,203.594z M202.525,170.686l16.451,16.455l-16.453,16.45l-16.45-16.45L202.525,170.686z"/>
<path fill="#FFFFFF" d="M138.54,53.106c0,8.965-4.337,16.236-9.69,16.236c-5.354,0-9.697-7.27-9.697-16.236
	c0-8.97,4.342-16.24,9.697-16.24C134.203,36.866,138.54,44.136,138.54,53.106z"/>
<radialGradient id="SVGID_1_" cx="-748.8311" cy="206.627" r="29.9876" gradientTransform="matrix(0.723 0 0 -0.723 630.7935 346.0358)" gradientUnits="userSpaceOnUse">
	<stop  offset="0" style="stop-color:#FF585D"/>
	<stop  offset="1" style="stop-color:#FF585D;stop-opacity:0"/>
</radialGradient>
<circle opacity="0.7" fill="url(#SVGID_1_)" enable-background="new    " cx="89.143" cy="196.645" r="21.697"/>
<radialGradient id="SVGID_2_" cx="-640.7524" cy="206.627" r="29.9879" gradientTransform="matrix(0.723 0 0 -0.723 630.7935 346.0358)" gradientUnits="userSpaceOnUse">
	<stop  offset="0" style="stop-color:#FF585D"/>
	<stop  offset="1" style="stop-color:#FF585D;stop-opacity:0"/>
</radialGradient>
<circle opacity="0.7" fill="url(#SVGID_2_)" enable-background="new    " cx="167.316" cy="196.645" r="21.697"/>
<linearGradient id="SVGID_3_" gradientUnits="userSpaceOnUse" x1="991.4902" y1="-245.439" x2="991.4902" y2="-235.004" gradientTransform="matrix(7.466 0 0 -7.466 -7277.0195 -1609.0283)">
	<stop  offset="0" style="stop-color:#FF5459"/>
	<stop  offset="0.789" style="stop-color:#FF6064;stop-opacity:0"/>
</linearGradient>
<path fill="url(#SVGID_3_)" d="M129.62,159.38v33.038c0,0,1.507,6.236-7.503,9.01l2.658-9.01l-3.583-34.997"/>
<path fill="#333333" d="M123.105,206.285c-1.234,0-2.383-0.79-2.77-2.027c-0.492-1.529,0.352-3.166,1.89-3.654
	c8.005-2.543,7.694-7.117,7.679-7.315l-0.02-35.233c0-1.605,1.26-2.906,2.87-2.906c1.603,0,2.863,1.3,2.863,2.906v34.905
	c0,0,1.176,9.104-11.674,13.188C123.656,206.24,123.396,206.285,123.105,206.285L123.105,206.285z"/>
<path fill="#F5F5F5" d="M113.45,161.248c0,11.242-9.11,20.354-20.354,20.354c-11.238,0-20.352-9.109-20.352-20.354
	c0-11.232,9.113-20.332,20.352-20.332C104.341,140.916,113.45,150.016,113.45,161.248z"/>
<path fill="#333333" d="M107.407,160.77c0,7.808-6.316,14.131-14.12,14.131c-7.8,0-14.13-6.323-14.13-14.131
	c0-7.8,6.33-14.117,14.13-14.117C101.091,146.652,107.407,152.971,107.407,160.77z"/>
<path fill="#F5F5F5" d="M183.255,161.248c0,11.242-9.11,20.354-20.353,20.354c-11.239,0-20.352-9.109-20.352-20.354
	c0-11.232,9.12-20.332,20.36-20.332c11.25,0,20.351,9.1,20.351,20.332H183.255z"/>
<path fill="#333333" d="M177.216,160.77c0,7.808-6.317,14.131-14.123,14.131c-7.797,0-14.13-6.323-14.13-14.131
	c0-7.8,6.333-14.117,14.13-14.117C170.896,146.652,177.216,152.971,177.216,160.77z"/>
</svg>
