<svg xmlns="http://www.w3.org/2000/svg" width="256" height="256" viewBox="0 0 256 256"><path fill="#FCEE21" d="M128.848 228.277c-18.808 0-33.508-2.85-44.938-8.715-16.958-8.7-26.087-23.63-27.18-44.42-22.543-.11-27.285-15.836-27.285-29.034 0-16.282 9.466-29.036 21.55-29.036.25 0 .495.005.74.016.568-8.678 2.13-19.27 4.543-24.938.458-1.077 1.365-1.9 2.482-2.25l.45-.14c9.243-21.213 27.61-37.08 49.862-43.16.03-10.414 8.51-18.878 18.928-18.878 10.196 0 18.536 8.105 18.916 18.213 23.464 5.515 42.79 21.632 52.447 43.824l.45.14c1.15.36 2.076 1.22 2.52 2.34 2.928 7.38 3.447 16.24 3.88 24.87 11.332.84 20.358 13.52 20.358 28.99 0 12.88-4.49 28.16-25.55 29-1.92 34.33-27.38 53.17-72.17 53.17z"/><path fill="#4D4D4D" d="M128 31.723c8.243 0 14.93 6.688 14.93 14.935 0 .846-.088 1.67-.223 2.477 24.45 4.58 44.566 21.423 53.695 43.905.738.226 1.483.448 2.212.677 2.838 7.163 3.233 16.21 3.672 24.997-.207-.102-.424-.198-.632-.3l-.38 3.23c1.202-.37 2.45-.57 3.73-.57 9.695 0 17.565 11.21 17.565 25.035 0 22.43-13.7 25.03-23.4 25.03-.74 0-1.39-.07-2.04-.2-.08 49.08-47.22 53.33-68.29 53.33-24 0-68.23-4.25-68.23-53.45v-.29c-1 .39-2.33.6-3.65.6-9.7 0-23.53-2.6-23.53-25.04 0-13.83 7.85-25.04 17.55-25.04 2.53 0 4.94.77 7.11 2.14l-.41-5c-.7.32-1.41.65-2.09.98.43-8.79 2-20 4.33-25.5.73-.23 1.47-.46 2.21-.68 8.82-21.71 27.89-38.16 51.2-43.39-.2-.97-.3-1.97-.3-3 0-8.25 6.68-14.94 14.93-14.94m0-8c-11.59 0-21.2 8.64-22.72 19.82-21.66 6.75-39.53 22.4-49.06 43.1-1.61.85-2.9 2.23-3.63 3.94-2.39 5.61-3.87 14.81-4.58 22.7-12.87 1.87-22.57 15.62-22.57 32.84 0 19.87 9.75 31.42 27.57 32.87.96 9.58 3.67 18.01 8.08 25.16 4.93 7.98 11.99 14.36 20.98 18.98 12.01 6.16 27.3 9.15 46.76 9.15 18.15 0 33.49-3.06 45.59-9.1 17.8-8.88 28.17-24.11 30.29-44.33 5.81-.66 10.61-2.44 14.56-5.38 7.48-5.58 11.28-14.78 11.28-27.35 0-16.29-8.69-29.48-20.54-32.42-.44-7.91-1.2-15.89-3.98-22.92-.71-1.79-2.03-3.25-3.7-4.13-5.06-10.96-12.6-20.73-21.96-28.44-8.74-7.19-18.93-12.46-29.79-15.44-1.86-10.79-11.28-19.03-22.6-19.03z"/><path fill="#F4D1B0" d="M68.556 146.108c0 13.83-2.004 25.036-11.7 25.036s-23.41-2.6-23.41-25.036c0-13.825 7.854-25.036 17.55-25.036 9.698 0 17.56 11.21 17.56 25.036z"/><path fill="#C69C6D" d="M65.647 146.015c-.04-3.875-.84-8.29-2.736-12.04-.96-1.906-2.18-3.76-3.9-5.366-1.71-1.57-4.15-2.93-6.99-2.96-1.07.1-.85 0-1.86.22-.81.17-1.51.41-2.05.68-1.19.52-2.17 1.28-3.06 2.05-1.72 1.6-3.34 3.46-4.3 5.36-1.9 3.84-3.12 7.99-3.12 12.13v.48c0 2.71 2.53 4.94 5.25 4.97 2.72.03 5.14-2.15 5.17-4.86 0-.2.08-.41.07-.6-.3-2.73-.02-5.71.87-8.22.83-2.61 2.55-4.26 3.03-4.43.29-.15 1.09-.12 2.07.53.95.66 1.93 1.74 2.74 3.01 1.67 2.65 2.66 5.62 3.03 9.2l.02.14c.17 1.59 1.6 2.75 3.19 2.58 1.51-.16 2.62-1.45 2.61-2.92z"/><path fill="#F4D1B0" d="M187.444 146.108c0 13.83 2.004 25.036 11.7 25.036s23.41-2.6 23.41-25.036c0-13.825-7.854-25.036-17.55-25.036-9.698 0-17.56 11.21-17.56 25.036z"/><path fill="#C69C6D" d="M190.353 146.015c.04-3.875.84-8.29 2.736-12.04.96-1.906 2.18-3.76 3.9-5.366 1.71-1.57 4.15-2.93 6.99-2.96 1.07.1.85 0 1.86.22.81.17 1.51.41 2.05.68 1.19.52 2.17 1.28 3.06 2.05 1.72 1.6 3.95 3.46 4.92 5.36 1.9 3.84 3.74 7.99 3.74 12.13v.48c0 2.71-3.15 4.94-5.87 4.97-2.72.03-5.45-2.15-5.48-4.86 0-.2-.24-.41-.22-.6.3-2.73-.06-5.71-.95-8.22-.83-2.61-2.59-4.26-3.07-4.43-.29-.15-1.11-.12-2.08.53-.95.66-1.94 1.74-2.76 3.01-1.67 2.65-2.66 5.62-3.03 9.2l-.03.14c-.17 1.59-1.6 2.75-3.19 2.58-1.51-.16-2.62-1.45-2.61-2.92z"/><path fill="#fdb" d="M197.08 170.832c0 49.197-47.264 53.445-68.354 53.445-23.996 0-68.35-4.248-68.35-53.445 0-49.196-5.09-112.345 68.35-112.345 74.17 0 68.354 63.15 68.354 112.345z"/><path fill="#333" d="M57.62 117.213l3 36.776 19.333-48.45m122 10.33l-4.48 38.11-19.52-48.45"/><path fill="#F5F5F5" d="M112.723 146.03c0 11.243-9.11 20.355-20.352 20.355-11.24 0-20.35-9.112-20.35-20.356 0-11.24 9.11-20.33 20.35-20.33 11.25 0 20.36 9.09 20.36 20.33z"/><path fill="#333" d="M106.684 145.556c0 7.804-6.318 14.125-14.125 14.125-7.8 0-14.13-6.32-14.13-14.12 0-7.8 6.32-14.11 14.12-14.11 7.8 0 14.12 6.32 14.12 14.12z"/><path fill="#F5F5F5" d="M188.346 146.03c0 11.243-9.107 20.355-20.348 20.355-11.244 0-20.355-9.112-20.355-20.356 0-11.24 9.11-20.33 20.355-20.33 11.24 0 20.348 9.09 20.348 20.33z"/><path fill="#333" d="M182.307 145.556c0 7.804-6.318 14.125-14.123 14.125-7.8 0-14.127-6.32-14.127-14.12 0-7.8 6.328-14.11 14.127-14.11 7.804 0 14.123 6.32 14.123 14.12z"/><linearGradient id="a" gradientUnits="userSpaceOnUse" x1="1145.543" y1="731.945" x2="1145.543" y2="721.526" gradientTransform="matrix(7.466 0 0 7.466 -8424.73 -5257.445)"><stop offset="0" stop-color="#FF5459"/><stop offset=".789" stop-color="#FF6064" stop-opacity="0"/></linearGradient><path fill="url(#a)" d="M132.62 143.38v32.907s1.54 6.236-7.47 9.01l2.675-9.01-3.608-34.932"/><path fill="#333" d="M125.58 191.068c-1.232 0-2.38-.79-2.77-2.027-.49-1.52.356-3.16 1.89-3.65 8.006-2.54 7.7-7.11 7.682-7.32l-.02-35.23c0-1.6 2.023-2.91 3.63-2.91 1.606 0 3.628 1.31 3.628 2.91v34.91s.408 9.11-12.44 13.19c-.294.09-1.31.14-1.6.14zm-16.402-64.888l-45.55.68c-2.908.046-5.3-2.272-5.347-5.184-.04-2.71 1.97-4.964 4.59-5.302l45.17-5.89c4.32-.568 8.28 2.478 8.84 6.794.57 4.32-2.48 8.273-6.79 8.832-.29.044-.6.062-.9.07zm38.787-15.697l45.17 5.89c2.886.376 4.92 3.022 4.54 5.9-.35 2.69-2.66 4.633-5.3 4.587l-45.553-.682c-4.35-.068-7.826-3.646-7.76-7.998.068-4.354 3.646-7.828 7.996-7.765.304.006.612.03.907.068z"/><path fill="#FBB03B" d="M142.93 46.657c0 8.254-6.687 14.93-14.93 14.93-8.25 0-14.93-6.676-14.93-14.93 0-8.247 6.68-14.935 14.93-14.935 8.243 0 14.93 6.688 14.93 14.935z"/><path d="M115.313 196.123c-.01-.002-.04.003-.048.015-.05.01-.13.023-.248.035l-1.083.115c-.96.11-2.356.244-3.993.49-1.63.246-3.5.594-5.41 1.15-.95.286-1.91.625-2.86 1.032-.24.098-.47.208-.7.323l-.17.085-.04.02-.02.012.11-.08-.01.01-.1.065-.19.123c.01-.008.01-.02.02-.03-.11.006-.34.197-.54.417-.43.468-.84 1.32-1.15 2.3-.3.985-.52 2.092-.66 3.205-.3 2.236-.38 4.493-.41 6.446-.04 1.96-.02 3.632-.01 4.813l.01 1.87s-1.67-2.21-3.3-6.02c-.81-1.91-1.63-4.21-2.11-6.91-.23-1.35-.4-2.8-.34-4.38.05-1.58.32-3.31 1.16-5.15.45-.92 1-1.81 1.86-2.68l.57-.54.09-.09.01-.01.12-.1.03-.02.06-.05.23-.2c.3-.27.6-.52.91-.76 1.23-.98 2.55-1.8 3.88-2.46 2.66-1.32 5.3-2.02 7.56-2.36 2.27-.33 4.16-.31 5.5-.19.67.05 1.21.13 1.59.19l.46.08c.15.02.2.03.19.03 2.53.25 4.38 2.5 4.13 5.02-.24 2.53-2.49 4.38-5.02 4.13zm24.477-9.153c-.01 0 .04-.012.19-.037l.456-.083c.38-.062.914-.146 1.585-.193 1.34-.118 3.24-.135 5.51.188 2.26.332 4.91 1.033 7.56 2.354 1.33.65 2.65 1.47 3.88 2.45.32.24.62.49.92.76l.23.19.06.05.03.02.13.1.01.01.09.08.57.54c.87.87 1.41 1.76 1.87 2.68.84 1.84 1.11 3.57 1.16 5.15.06 1.58-.11 3.03-.34 4.37-.48 2.69-1.3 4.99-2.11 6.9-1.64 3.81-3.31 6.02-3.31 6.02l.02-1.87c.01-1.18.04-2.86-.01-4.82-.03-1.96-.11-4.21-.41-6.45-.14-1.12-.36-2.22-.66-3.21-.31-.98-.71-1.83-1.15-2.3-.19-.22-.43-.41-.54-.42l.02.03-.2-.12-.1-.07-.01-.01c-.03-.02.21.16.11.08l-.03-.01-.04-.02-.17-.09c-.23-.12-.46-.23-.71-.33-.95-.41-1.91-.75-2.86-1.03-1.91-.56-3.78-.91-5.41-1.15-1.64-.25-3.03-.38-3.99-.49-.46-.05-.83-.09-1.08-.11-.11-.02-.19-.03-.24-.04 0-.01-.04-.02-.05-.01-2.52.24-4.77-1.61-5.02-4.13-.25-2.53 1.6-4.78 4.13-5.03z" fill="#4D4D4D"/><path fill="#39B54A" d="M129.286 100.88c27.332 0 52.46 5.863 72.314 15.673-1.908-38.25-33.554-68.674-72.314-68.674-38.76 0-70.407 30.42-72.315 68.67 19.86-9.81 44.99-15.68 72.32-15.68z"/><path fill="#006837" d="M129.286 90.326c12.16 0 23.338 4.696 32.17 12.553-.848-30.64-14.927-55-32.17-55-17.244 0-31.323 24.36-32.17 55 8.832-7.86 20.01-12.56 32.17-12.56z"/><path fill="#FCEE21" d="M129.286 82.046c-24.017 0-48.6 5.16-69.33 11.67-2.337 5.497-3.9 16.71-4.337 25.497 19.85-9.81 46.33-16.333 73.66-16.333s53.14 6.023 73 15.833c-.44-8.786-.84-17.833-3.67-24.997-20.73-6.51-45.31-11.67-69.33-11.67z"/></svg>