<?xml version="1.0" encoding="utf-8"?>
<!-- Generator: Adobe Illustrator 16.0.0, SVG Export Plug-In . SVG Version: 6.00 Build 0)  -->
<!DOCTYPE svg PUBLIC "-//W3C//DTD SVG 1.1//EN" "http://www.w3.org/Graphics/SVG/1.1/DTD/svg11.dtd">
<svg version="1.1" id="Layer_1" xmlns="http://www.w3.org/2000/svg" xmlns:xlink="http://www.w3.org/1999/xlink" x="0px" y="0px"
	 width="256px" height="256px" viewBox="0 0 256 256" enable-background="new 0 0 256 256" xml:space="preserve">
<path fill="#333333" d="M128.405,229.38c-22.728,0-69.358,0.026-71.92-48.778c-21.153-0.795-25.663-16.094-25.663-28.992
	c0-12.08,5.48-22.65,13.5-26.96l-0.573-1.66c-0.37-1.07-0.28-2.24,0.26-3.22c-2.28-11.17-3.5-25.74,1.87-36.48
	c0.36-0.73,0.94-1.33,1.66-1.73c0.77-0.43,1.59-0.87,2.39-1.31c0.38-4.29,2.1-15.23,9.78-26.19c8.79-12.55,27.34-27.51,65.83-27.51
	c3.99,0,8.17,0.16,12.439,0.48c0.101,0,0.201,0.01,0.301,0.03c4.85,0.73,47.529,7.68,52.449,25.29c0.42,1.5,0.66,3.16,0.73,4.96
	c13.52,4,21.48,16.38,21.48,33.81c0,5.21-0.82,18.17-1.59,29.24c0.899,0.35,1.649,1.01,2.1,1.88c0.51,0.979,0.59,2.13,0.22,3.17
	l-0.13,0.36c7.061,4.89,11.609,14.74,11.609,25.81c0,12.601-4.299,27.5-24.219,28.92c-1.131,20.59-10.701,34.83-28.49,42.399
	c-15.16,6.461-32.891,6.44-43.48,6.44h-0.6L128.405,229.38z"/>
<path fill="#333333" d="M125.555,30.573c3.835,0,7.882,0.15,12.142,0.466c0,0,44.838,6.78,49.199,22.41
	c0.592,2.11,0.717,4.51,0.53,7.02c19.733,3.61,21.53,23.19,21.53,30.66c0,5.81-1.08,22.01-1.807,32.19l2.781,0.77l-1.24,3.53
	c7.229,3.1,12.5,12.66,12.5,23.97c0,22.431-13.711,25.04-23.41,25.04c-0.23,0-0.461-0.04-0.69-0.05
	c-0.19,48.69-46.89,48.771-68.069,48.771h-0.601c-24.05,0-67.97-0.091-68.03-48.961c-0.67,0.131-1.38,0.221-2.14,0.221
	c-9.69,0-23.41-2.601-23.41-25.03c0-12.36,6.28-22.62,14.53-24.66l-1.82-5.27l0.95-0.19c-2.46-10.8-4.29-25.87,0.99-36.41
	c0,0,9-4.91,8.59-4.91c-0.13,0-1.32,0.54-4.22,2c0,0,0.55-51.61,71.73-51.61"/>
<path fill="#333333" d="M125.591,22.529c-40.21,0-59.78,15.88-69.11,29.21c-7.1,10.14-9.45,20.35-10.23,25.96l-0.58,0.31
	c-1.43,0.78-2.59,1.98-3.32,3.44c-4.7,9.4-5.52,22.14-2.44,37.9c-0.33,1.12-0.42,2.3-0.24,3.46c-7.8,5.68-12.79,16.4-12.79,28.74
	c0,12.57,3.8,21.77,11.29,27.35c3.97,2.951,8.8,4.73,14.65,5.391c0.97,9.58,3.71,17.87,8.19,24.73
	c4.98,7.609,12.12,13.479,21.23,17.47c15.59,6.84,34.03,6.81,46.22,6.81h0.6c10.9,0,29.131,0.02,45.051-6.75
	c18.039-7.689,28.529-22.279,30.64-42.46c5.21-0.78,9.569-2.5,13.21-5.21c7.49-5.58,11.29-14.779,11.29-27.35
	c0-11.271-4.33-21.49-11.25-27.48c0.011-1.29-0.3-2.57-0.899-3.73c-0.391-0.76-0.9-1.44-1.5-2.02
	c0.729-10.59,1.439-22.29,1.439-27.25c0-18.25-7.99-31.54-21.721-36.77c-0.149-1.07-0.359-2.1-0.629-3.07
	c-2.621-9.4-12.95-16.78-31.57-22.56c-12.189-3.79-23.66-5.54-24.141-5.62c-0.199-0.03-0.399-0.06-0.6-0.07
	c-4.359-0.32-8.65-0.49-12.73-0.49L125.591,22.529z"/>
<path fill="#F4D1B0" d="M186.064,151.62c0,13.828,2.004,25.037,11.703,25.037c9.696,0,23.409-2.603,23.409-25.037
	c0-13.827-7.856-25.036-17.555-25.036S186.064,137.794,186.064,151.62L186.064,151.62z"/>
<path fill="#C69C6D" d="M188.975,151.525c0.041-3.875,0.84-8.291,2.734-12.039c0.96-1.908,2.18-3.76,3.9-5.368
	c1.699-1.568,4.149-2.92,6.979-2.954c1.07,0.104,0.851,0.006,1.86,0.222c0.81,0.162,1.51,0.408,2.05,0.683
	c1.19,0.529,2.17,1.279,3.06,2.05c1.721,1.608,1.641,3.46,2.601,5.37c1.89,3.84,1.43,7.986,1.43,12.133v0.48
	c0,2.72-0.84,4.949-3.56,4.979c-2.721,0.04-4.291-2.14-4.32-4.851c0-0.189,0.34-0.41,0.35-0.59c0.301-2.729,0.23-5.709-0.66-8.22
	c-0.83-2.61-2.439-4.25-2.92-4.42c-0.289-0.149-1.039-0.12-2.02,0.53c-0.95,0.66-1.9,1.75-2.71,3.01
	c-1.67,2.65-2.649,5.62-3.021,9.2l-0.01,0.149c-0.17,1.601-1.6,2.76-3.199,2.58c-1.5-0.16-2.61-1.439-2.601-2.92L188.975,151.525z"
	/>
<path fill="#F4D1B0" d="M69.938,151.62c0,13.828-2.004,25.037-11.705,25.037c-9.697,0-23.41-2.603-23.41-25.037
	c0-13.827,7.857-25.036,17.553-25.036S69.938,137.794,69.938,151.62z"/>
<path fill="#C69C6D" d="M67.027,151.525c-0.04-3.875-0.838-8.291-2.738-12.039c-0.97-1.908-2.18-3.76-3.91-5.368
	c-1.71-1.568-4.16-2.92-6.99-2.954c-1.07,0.104-0.85,0.006-1.86,0.222c-0.81,0.162-1.51,0.408-2.05,0.683
	c-1.2,0.529-2.17,1.279-3.07,2.05c-1.72,1.608-3.02,3.46-3.99,5.37c-1.9,3.84-2.81,7.986-2.81,12.133v0.48
	c0,2.72,2.22,4.949,4.93,4.979c2.72,0.04,4.98-2.14,5.02-4.851c0-0.189,0-0.41-0.02-0.59c-0.3-2.729-0.06-5.709,0.83-8.22
	c0.82-2.61,2.52-4.25,3-4.42c0.29-0.149,1.08-0.12,2.06,0.53c0.95,0.66,1.92,1.75,2.74,3.01c1.66,2.65,2.64,5.62,3.02,9.2
	l0.01,0.149c0.17,1.601,1.6,2.76,3.19,2.58c1.49-0.16,2.61-1.439,2.6-2.92L67.027,151.525z"/>
<path fill="#FFDDBB" d="M197.08,176.344c0,49.196-47.266,49.084-68.352,49.084c-23.999,0-68.354,0.112-68.354-49.084
	C60.374,127.148,55.284,64,128.729,64C202.896,64,197.08,127.147,197.08,176.344L197.08,176.344z"/>
<path fill="#BDCCD4" d="M47.53,121.69l13.09,37.81l18.905-44.112 M209.925,124.114L197.471,159.5l-18.906-44.112"/>
<path fill="#333333" d="M126.734,210.695c-17.72,0-28.842-7.867-29.53-8.369c-1.296-0.942-1.585-2.753-0.642-4.059
	c0.936-1.297,2.742-1.586,4.055-0.647c0.922,0.662,23.088,16.133,55.145-0.233c1.44-0.723,3.184-0.16,3.916,1.266
	c0.73,1.434,0.162,3.184-1.27,3.916C146.48,208.656,135.75,210.696,126.734,210.695L126.734,210.695z"/>
<path fill="#BDCCD4" d="M178.9,86.303c0,0-27.144,15.515-70.771,18.422l28.114-12.605c0,0-47.992,29.08-72.232,29.08l-5.092,3.155
	l-6.545,10.54c0,0-11.996-31.629-2.908-49.806c0,0,15.998-8.73,4.363-2.91c0,0,0.61-57.33,83.867-51.14
	c0,0,44.838,6.78,49.199,22.41C190.234,65.4,178.9,86.3,178.9,86.3V86.303z"/>
<path fill="#BDCCD4" d="M173.082,81.453c0,0,0,33.45,11.637,46.534l21.79,4.08c0,0,2.44-32.193,2.44-40.919
	s-2.43-33.938-32.96-31.028c-30.54,2.9-2.921,21.33-2.921,21.33L173.082,81.453z"/>
<path fill="#BDCCD4" d="M137.063,125.483c0,0,2.875-1.91,7.345-3.943c4.485-2.085,10.733-4.4,17.37-5.578
	c3.306-0.613,6.691-1.003,9.899-1.028c3.198-0.106,6.233,0.096,8.802,0.478c2.58,0.313,4.711,0.8,6.19,1.223
	c1.479,0.372,2.33,0.593,2.33,0.593c2.81,0.718,4.51,3.576,3.79,6.387c-0.721,2.815-3.58,4.514-6.391,3.798
	c-0.149-0.042-0.299-0.08-0.439-0.13l-0.46-0.166c0,0-0.67-0.236-1.83-0.64c-1.149-0.452-2.83-1.01-4.92-1.458
	c-2.08-0.52-4.56-0.93-7.271-1.08c-2.709-0.24-5.66-0.17-8.59,0.09c-5.9,0.47-11.77,2.04-16.029,3.56
	c-4.32,1.521-6.871,2.9-6.871,2.9c-1.409,0.76-3.18,0.239-3.949-1.181c-0.73-1.33-0.301-2.979,0.93-3.81l0.051-0.04L137.063,125.483
	z"/>
<path fill="#BDCCD4" d="M115.98,130.495c0,0-2.548-1.382-6.87-2.9c-4.262-1.515-10.13-3.084-16.023-3.56
	c-2.94-0.268-5.88-0.336-8.59-0.096c-2.71,0.15-5.203,0.56-7.27,1.07c-2.093,0.45-3.77,1-4.925,1.46c-1.156,0.4-1.82,0.64-1.82,0.64
	l-0.457,0.16c-2.738,0.96-5.732-0.48-6.69-3.22c-0.958-2.74,0.483-5.74,3.22-6.7c0.143-0.06,0.295-0.1,0.438-0.14
	c0,0,0.848-0.22,2.336-0.6c1.47-0.43,3.6-0.91,6.19-1.23c2.56-0.39,5.6-0.59,8.8-0.48c3.21,0.02,6.59,0.41,9.9,1.03
	c6.63,1.17,12.88,3.49,17.37,5.57c4.46,2.03,7.34,3.94,7.34,3.94l0.04,0.02c1.33,0.89,1.7,2.7,0.81,4.03
	c-0.85,1.27-2.51,1.649-3.82,0.95L115.98,130.495z"/>
<path fill="#C69C6D" d="M86.904,177.076c-9.6,0-17.9-4.072-18.377-4.311c-1.436-0.72-2.016-2.459-1.3-3.896
	c0.716-1.439,2.466-2.04,3.897-1.311c0.143,0.061,13.943,6.78,24.727,1.931c5.68-2.55,9.68-7.96,11.9-16.091
	c0.43-1.539,2.03-2.459,3.58-2.049c1.55,0.42,2.46,2.02,2.04,3.569c-2.7,9.899-7.8,16.59-15.15,19.88c-3.71,1.66-7.6,2.26-11.3,2.26
	L86.904,177.076z M169.096,177.076c-3.697,0-7.588-0.604-11.3-2.26c-7.356-3.291-12.458-9.979-15.153-19.879
	c-0.424-1.549,0.486-3.152,2.035-3.573c1.576-0.421,3.154,0.503,3.574,2.043c2.223,8.14,6.234,13.554,11.92,16.098
	c10.87,4.854,24.563-1.876,24.7-1.942c1.435-0.721,3.183-0.137,3.899,1.302c0.719,1.438,0.139,3.18-1.301,3.901
	C186.994,173.004,178.695,177.076,169.096,177.076z"/>
<path fill="#F5F5F5" d="M113.174,151.542c0,11.24-9.105,20.354-20.348,20.354c-11.246,0-20.355-9.112-20.355-20.354
	c0-11.231,9.11-20.333,20.36-20.333c11.24,0,20.35,9.1,20.35,20.33L113.174,151.542z"/>
<path fill="#333333" d="M107.137,151.063c0,7.807-6.318,14.131-14.125,14.131c-7.8,0-14.127-6.324-14.127-14.131
	c0-7.799,6.328-14.114,14.127-14.114C100.818,136.948,107.137,143.264,107.137,151.063z"/>
<path fill="#F5F5F5" d="M182.98,151.542c0,11.24-9.106,20.354-20.351,20.354s-20.353-9.112-20.353-20.354
	c0-11.231,9.109-20.333,20.354-20.333s20.35,9.1,20.35,20.33V151.542z"/>
<path fill="#333333" d="M176.939,151.063c0,7.807-6.319,14.131-14.121,14.131c-7.801,0-14.131-6.324-14.131-14.131
	c0-7.799,6.33-14.114,14.131-14.114c7.803,0,14.123,6.315,14.123,14.114H176.939z"/>
<path fill="#95ABB5" d="M177.195,78.89c0,0-0.961,4.312-4.867,9.526c-1.926,2.595-4.494,5.454-7.725,7.93
	c-1.551,1.34-3.324,2.488-5.172,3.57c-1.801,1.163-3.791,2.048-5.761,2.975c-2.021,0.8-4.069,1.53-6.08,2.22
	c-2.069,0.47-4.11,0.94-6.079,1.39c-2,0.28-3.941,0.43-5.771,0.63c-1.82,0.19-3.58,0-5.171,0.01c-3.179,0.02-5.809-0.59-7.629-0.87
	c-1.82-0.35-2.84-0.6-2.84-0.6s1.03-0.24,2.84-0.68c1.78-0.43,4.34-0.74,7.29-1.55c2.99-0.62,6.371-1.58,9.94-2.6
	c3.54-1.15,7.22-2.5,10.79-4.07c1.7-0.96,3.57-1.59,5.21-2.59c1.67-0.95,3.341-1.84,4.89-2.82c3.15-1.9,5.951-3.93,8.351-5.74
	c4.75-3.67,7.81-6.69,7.81-6.69L177.195,78.89z M136.475,84.707c0,0-0.959,4.31-4.867,9.525c-1.926,2.597-4.491,5.453-7.727,7.93
	c-1.54,1.344-3.32,2.49-5.16,3.568c-1.81,1.163-3.8,2.053-5.77,2.978c-2.02,0.795-4.07,1.53-6.08,2.216
	c-2.07,0.47-4.11,0.938-6.08,1.386c-2.01,0.276-3.94,0.433-5.77,0.632c-1.82,0.185-3.58-0.007-5.16,0.004
	c-3.18,0.025-5.81-0.585-7.63-0.872c-1.82-0.354-2.84-0.605-2.84-0.605l2.84-0.68c1.79-0.44,4.34-0.75,7.3-1.56
	c2.99-0.62,6.36-1.59,9.94-2.61c3.53-1.16,7.22-2.5,10.79-4.08c1.7-0.96,3.57-1.6,5.21-2.59c1.67-0.95,3.34-1.84,4.9-2.82
	c3.14-1.91,5.95-3.93,8.34-5.75c4.75-3.68,7.811-6.69,7.811-6.69L136.475,84.707z"/>
<linearGradient id="SVGID_1_" gradientUnits="userSpaceOnUse" x1="991.4785" y1="-244.0889" x2="991.4785" y2="-233.6608" gradientTransform="matrix(7.466 0 0 -7.466 -7277.0195 -1609.0283)">
	<stop  offset="0" style="stop-color:#FF5459"/>
	<stop  offset="0.789" style="stop-color:#FF6064;stop-opacity:0"/>
</linearGradient>
<path fill="url(#SVGID_1_)" d="M129.62,149.38v32.966c0,0,1.305,6.236-7.706,9.01l2.558-9.01l-3.432-34.96"/>
<path fill="#333333" d="M122.433,196.58c-1.232,0-2.38-0.792-2.77-2.03c-0.487-1.528,0.358-3.161,1.89-3.649
	c8.007-2.549,7.7-7.12,7.683-7.317l-0.018-35.231c0-1.601,2.09-2.91,3.69-2.91c1.61,0,3.7,1.31,3.7,2.91v34.909
	c0,0,0.33,9.11-12.51,13.19c-0.3,0.09-1.39,0.14-1.68,0.14L122.433,196.58z"/>
</svg>
