<svg xmlns="http://www.w3.org/2000/svg" width="256" height="256" viewBox="0 0 256 256"><path d="M129.93 228.775c-9.293 0-18.547-3.196-24.943-8.583-15.895-5.78-19.39-22.74-19.532-23.472-.044-.224-.068-.45-.074-.678-.05-2.312-.75-4.67-2.09-7.04-5.31 3.94-10.84 5.935-16.46 5.935-17.58 0-29.1-19.454-29.58-20.282-.87-1.508-.67-3.41.5-4.7.78-.854 1.86-1.31 2.96-1.31.57 0 1.14.118 1.67.364 2.11.97 3.46 1.17 4.21 1.17.95 0 1.38-.3 1.74-.74.71-.86 1.15-2.26 1.4-3.92-.49 1-1.39 1.78-2.54 2.09-.35.09-.7.14-1.05.14-1.57 0-3.04-.93-3.68-2.45-3.64-8.72-3.3-16.44-1.17-22.73-1.18-.13-2.27-.78-2.94-1.82-5.49-8.58-1.33-17.57 3.49-23.91-5.44-2.67-7.9-10.01-8.53-14.72-.24-1.86.83-3.64 2.59-4.28.45-.17.92-.25 1.38-.25 1.33 0 2.62.67 3.37 1.84 1.4 2.17 2.36 2.62 2.54 2.62 1.35 0 4.67-4.87 6.52-10.4 1.89-8.51 5.8-15.66 11.66-21.3-3.95-9.09-4.56-17.49-1.82-25.02 4.24-11.66 15.07-16.79 16.26-17.32 1.16-.55 2.24-.82 3.31-.82 1.71 0 3.25.71 4.34 1.99 1.11 1.31 1.54 3 1.65 4.53.66-1.42 2.09-2.31 3.62-2.31.36 0 .72.04 1.09.15 1.88.52 3.09 2.33 2.9 4.23.27.28 1.77 1.54 7.41 1.54 2.82 0 6.23-.33 10.13-.96 2.64-.44 5.1-.65 7.31-.65 7.58 0 11.75 2.55 14.05 5.42 1.12-.14 2.33-.21 3.65-.21 2.72 0 5.93.3 9.55.9 1.01.17 1.97.25 2.86.25 6.52 0 7.92-4.65 7.93-4.7.36-1.26 1.31-2.26 2.54-2.69.43-.15.87-.22 1.31-.22.83 0 1.65.25 2.34.75.83.6 8.1 6.07 7.7 12.97-.14 2.35-1.22 5.63-5.42 8.42l.2.04c1.56.32 3.38.71 5.34 1.18 5.4-6.52 5.45-9.75 5.3-10.68-.15-.75-.74-4.24-.2-10.67-.23-1.77-.33-5.09 1.57-7.34 1.09-1.29 2.62-2 4.33-2 1.07 0 2.15.27 3.31.82 1.2.54 12.35 5.83 16.44 17.87 2.76 8.1 1.69 17.17-3.18 27 4.51 5.14 7.61 11.44 9.23 18.77 1.85 5.52 5.17 10.4 6.52 10.39.18 0 1.13-.44 2.53-2.62.75-1.17 2.03-1.84 3.36-1.84.46 0 .93.08 1.38.24 1.76.64 2.84 2.42 2.59 4.27-.61 4.71-3.07 12.06-8.52 14.72 4.83 6.33 8.98 15.33 3.49 23.9-.67 1.04-1.76 1.69-2.94 1.82 2.13 6.28 2.47 14.01-1.18 22.72-.63 1.52-2.11 2.46-3.69 2.46-.35 0-.71-.05-1.06-.14-1.11-.31-1.98-1.05-2.48-2.01.25 1.63.68 3 1.36 3.83.36.44.79.74 1.73.74.75 0 2.09-.21 4.2-1.18.54-.25 1.11-.37 1.67-.37 1.1 0 2.19.46 2.96 1.31 1.18 1.29 1.38 3.19.5 4.7-.48.83-11.99 20.29-29.58 20.29-4.58 0-9.1-1.33-13.49-3.95-.57 1.55-.88 3.08-.91 4.57 0 .22-.03.45-.07.67-.14.73-3.62 17.79-19.47 23.66-6.39 5.58-15.78 8.88-25.29 8.88z"/><path fill="#333" d="M180.545 31.225c.444 0 .983.136 1.637.452 0 0 26.88 11.626 10.066 41.9 4.62 4.51 8.39 10.655 10.233 19.16 0 0 4.35 13.336 10.38 13.336 1.84 0 3.83-1.235 5.9-4.457 0 0-1.61 12.253-9.01 12.253-1.75 0-3.83-.69-6.28-2.39 0 0 18.75 14.79 10.86 27.12 0 0-.39-8.88-9.35-8.88-1.17 0-2.48.15-3.96.49 0 0 17.76 12.34 8.88 33.54 0 0 1.48-10.37-6.9-11.35 0 0-4.5 21.76 6.45 21.76 1.61 0 3.55-.47 5.88-1.54 0 0-10.63 18.29-26.12 18.29-4.61 0-9.66-1.63-14.98-5.84-1.92 3.02-3.34 6.53-3.43 10.36 0 0-3.11 16.01-17.62 20.92-5.04 4.66-13.56 8.39-23.22 8.39-9.46 0-17.83-3.59-22.9-8.11-14.53-4.83-17.64-20.72-17.64-20.72-.11-4.99-2.48-9.36-5.29-12.81-6.17 5.67-12 7.79-17.27 7.79-15.48 0-26.12-18.29-26.12-18.29 2.34 1.07 4.27 1.54 5.88 1.54 10.96 0 6.46-21.77 6.46-21.77-8.39.98-6.91 11.35-6.91 11.35-8.88-21.2 8.87-33.54 8.87-33.54-1.48-.34-2.79-.49-3.96-.49-8.96 0-9.35 8.88-9.35 8.88-7.89-12.33 10.85-27.12 10.85-27.12-2.46 1.7-4.53 2.38-6.28 2.38-7.39 0-9.01-12.25-9.01-12.25 2.08 3.22 4.07 4.45 5.9 4.45 6.03 0 10.38-13.33 10.38-13.33 2.12-9.81 6.92-16.61 12.67-21.36-14.37-28.64 11.22-39.7 11.22-39.7.66-.32 1.2-.45 1.64-.45 2.75 0 1.88 5.21 1.88 5.21.62 6.79-.09 10.05-.09 10.05-.83 4.56 2.98 10.35 7.05 15.05 11.1-2.41 17.93-1.21 7.05-3.82-12.73-3.06-6.28-22.28-6.28-22.28s-1.35 5.92 11.39 5.92c2.83 0 6.37-.3 10.78-1.02 2.53-.42 4.74-.6 6.66-.6 7.54 0 10.78 2.83 12.09 5.89 1.39-.42 3.22-.68 5.6-.68 2.37 0 5.3.26 8.89.86 1.27.21 2.44.3 3.52.3 9.62 0 11.78-7.6 11.78-7.6s12.65 9.15 1.41 15.44c-10.36 5.79-1.9 5.18 10.16 8.43 4.34-4.83 8.69-11.06 7.82-15.91 0 0-.72-3.25-.11-10.05 0 0-.87-5.21 1.88-5.21m0-8c-2.86 0-5.56 1.24-7.39 3.41-2.72 3.21-2.79 7.49-2.53 9.98-.06.73-.1 1.42-.13 2.08-2.37-3.58-5.47-5.97-6.41-6.65-1.51-1.1-3.29-1.77-5.07-1.77-.84 0-1.67.15-2.49.47-2.5.99-4.25 2.84-4.8 5.45-.42.91-1.47 1.93-4.11 1.93-.67 0-1.41-.07-2.2-.2-3.83-.64-7.26-.97-10.2-.97-.72 0-1.4.02-2.07.06-2.99-2.82-7.83-5.27-15.63-5.27-2.42 0-5.1.24-7.95.71-3.69.61-6.88.91-9.49.91-1.77 0-2.97-.14-3.75-.29-.78-2.51-2.77-4.58-5.48-5.34-.72-.2-1.44-.3-2.16-.3-.51 0-1.01.05-1.51.15-.21-.33-.45-.65-.71-.95-1.83-2.17-4.52-3.41-7.38-3.41-1.63 0-3.31.39-4.97 1.18-1.98.89-13.62 6.57-18.35 19.59-2.84 7.81-2.54 16.35.89 25.46-5.33 5.79-8.96 12.87-10.82 21.12-.68 1.96-1.68 4.09-2.62 5.67-1.53-1.69-3.7-2.64-5.94-2.64-.92 0-1.85.16-2.75.49-3.52 1.29-5.67 4.85-5.18 8.56.75 5.7 3.09 11.44 6.97 15.14-7.45 11.93-4.12 20.78-1.35 25.12.44.67.96 1.28 1.55 1.8-1.35 5.93-1.23 12.8 1.56 20.37-1.23.43-2.36 1.16-3.27 2.17-2.35 2.58-2.75 6.39-1 9.4.53.91 13.18 22.27 33.04 22.27 4.95 0 9.79-1.3 14.47-3.89.06.37.09.73.1 1.09.01.46.06.91.14 1.36.16.82 4 19.45 21.43 26.22 7.07 5.7 17.02 9.07 26.97 9.07 10.19 0 20.28-3.49 27.37-9.39 17.35-6.87 21.17-25.57 21.33-26.39l.02-.09c3.45 1.35 6.97 2.03 10.54 2.03 19.86 0 32.51-21.37 33.03-22.28 1.76-3.02 1.35-6.82-.99-9.4-.92-1.01-2.05-1.74-3.27-2.17 2.8-7.58 2.91-14.46 1.55-20.4.59-.5 1.12-1.1 1.55-1.77 2.78-4.33 6.11-13.19-1.34-25.12 3.89-3.7 6.23-9.44 6.98-15.15.49-3.71-1.66-7.27-5.18-8.55-.9-.33-1.83-.49-2.75-.49-2.24 0-4.41.95-5.94 2.64-.94-1.59-1.95-3.72-2.62-5.65-1.57-6.97-4.38-13.1-8.39-18.29 4.39-9.92 5.16-19.22 2.28-27.7-4.57-13.46-16.55-19.31-18.56-20.22-1.67-.78-3.34-1.18-4.97-1.18z"/><path d="M129.976 53.277s5.03-16.875-19.133-12.927c-24.172 3.948-22.168-4.91-22.168-4.91S82.22 54.66 94.95 57.716c22.87 5.488-32.552-5.918-41.43 35.022 0 0-7.4 22.687-16.278 8.878 0 0 2.468 18.745 15.29 9.866 0 0-18.74 14.797-10.85 27.126 0 0 .49-11.346 13.317-8.387 0 0-17.76 12.34-8.88 33.55 0 0-1.49-10.36 6.9-11.34 0 0 5.92 28.61-12.34 20.23 0 0 21.21 36.5 47.35 6.41m37.99-125.78s-6.1-11.48 18.06-7.45c12.62 2.11 15.29-7.29 15.29-7.29s12.64 9.16 1.4 15.44c-20.52 11.46 32.82-2.17 41.69 38.77 0 0 7.4 22.69 16.27 8.88 0 0-2.46 18.75-15.3 9.87 0 0 18.75 14.8 10.85 27.13 0 0-.5-11.34-13.32-8.38 0 0 17.75 12.34 8.88 33.55 0 0 1.47-10.36-6.91-11.34 0 0-5.92 28.61 12.32 20.22 0 0-21.2 36.5-47.35 6.41"/><linearGradient id="a" gradientUnits="userSpaceOnUse" x1="130.086" y1="209.539" x2="131.565" y2="228.031"><stop offset="0" stop-color="#C1272D"/><stop offset="1" stop-color="#82272D"/></linearGradient><path fill="url(#a)" d="M157.963 207.567c0 7.624-12.542 17.208-28.033 17.208-15.482 0-28.037-9.584-28.037-17.208 0-7.617 12.554-10.38 28.037-10.38 15.49 0 28.033 2.763 28.033 10.38z"/><linearGradient id="b" gradientUnits="userSpaceOnUse" x1="129.38" y1="89.334" x2="129.38" y2="208.525"><stop offset="0" stop-color="#C1272D"/><stop offset="1" stop-color="#82272D"/></linearGradient><path fill="url(#b)" d="M135.48 216.805c29.882 6.555 35.292-21.334 35.292-21.334.277-12.52 14.785-21.62 14.785-21.62 7.978-9.1 6.116-62.21 6.116-62.21s-18.07-52.25-59.894-52.25h-3.43c-41.83 0-61.46 53.11-61.46 53.11s-.29 53.23 7.68 62.34c0 0 14.51 8.62 14.79 21.15 0 0 5.4 27.63 35.27 21.08"/><path fill="#82272D" d="M124.875 129.175c0 11.9-9.653 21.55-21.548 21.55-11.913 0-21.56-9.65-21.56-21.55 0-11.913 9.647-21.565 21.56-21.565 11.895 0 21.548 9.653 21.548 21.565z"/><linearGradient id="c" gradientUnits="userSpaceOnUse" x1="130.069" y1="208.523" x2="130.069" y2="121.722"><stop offset=".151" stop-color="#C1272D" stop-opacity="0"/><stop offset=".742" stop-color="#C1272D"/></linearGradient><path fill="url(#c)" d="M147.905 196.608c23.63-8.253 39.074-38.414 39.074-38.414-9.96 10.81-13.66 1.92-13.66 1.92-11.38-19.35-28.46-11.733-28.46-11.733h-29.6s-17.07-7.61-28.45 11.74c0 0-3.7 9.29-13.66-1.52 0 0 15.44 29.96 39.08 38.21"/><path fill="#82272D" d="M134.773 129.175c0 11.9 11.86 8.098 22.612 16.5 9.386 7.323 20.495-4.6 20.495-16.5 0-11.913-9.652-21.565-21.56-21.565-11.894 0-21.547 9.653-21.547 21.565z"/><path fill="#FFF6A1" d="M120.667 129.175c0 9.573-7.758 17.35-17.34 17.35-9.595 0-17.364-7.777-17.364-17.35 0-9.6 7.77-17.363 17.364-17.363 9.582 0 17.34 7.763 17.34 17.363z"/><path fill="#333" d="M109.27 134.21c0 3.294-2.648 5.96-5.943 5.96-3.295 0-5.954-2.666-5.954-5.96 0-3.29 2.66-5.942 5.954-5.942 3.294 0 5.942 2.653 5.942 5.943z"/><path fill="#FFF6A1" d="M138.958 129.175c0 9.573 7.78 17.35 17.363 17.35s17.37-7.777 17.37-17.35c0-9.6-7.78-17.363-17.36-17.363s-17.36 7.763-17.36 17.363z"/><linearGradient id="d" gradientUnits="userSpaceOnUse" x1="127.987" y1="116.122" x2="132.14" y2="217.817"><stop offset=".151" stop-color="#C1272D" stop-opacity="0"/><stop offset=".77" stop-color="#82272D"/></linearGradient><path fill="url(#d)" d="M130.357 132.013L90.73 163.72c5.186 1.4 15.23 5.197 16.284 13.826 0 0 9.306 8.098 22.916 7.815 13.606.29 22.9-7.81 22.9-7.81 1.063-8.63 11.11-12.42 16.3-13.82l-38.773-31.7z"/><path fill="#770E16" d="M152.83 184.366s-9.294 8.104-22.9 7.832c-13.61.272-22.916-7.832-22.916-7.832-.23-1.896-.624-4.068-1.145-6.3l-2.07 6.376c1.55 4.502 2.73 9.612 3.21 13.582 0 0 9.3 8.104 22.91 7.832 13.6.272 22.9-7.832 22.9-7.832.48-3.97 1.66-9.08 3.22-13.582l-.97-10.59c-1.07 3.648-1.88 7.428-2.26 10.514z"/><path fill="#82272D" d="M154.83 157.79s3.525 14.59-24.646 20.59h.128c-28.152-6-24.638-20.002-24.638-20.002"/><path fill="#C1272D" d="M120.678 138.17s.15-4.237-3.977-2.295c-4.12 1.936-12.03 8.465-19.43 8.228 0 0-3.55-.122 1.37 2.052 1.19.532-19.92 11.018-26.04 1.942 0 0-5.83 8.23-.85 12.774 4.98 4.55 11.31 6 20.49-3.81 3.75-4 10.89-9.98 23.05-6.9l4.13.12 1.29-12.11zm17.332 0s-.128-4.237 3.988-2.295c4.127 1.936 12.023 8.465 19.422 8.228 0 0 3.56-.122-1.354 2.052-1.19.532 19.92 11.018 26.045 1.942 0 0 5.83 8.23.85 12.774-4.97 4.55-11.3 6-20.47-3.81-3.75-4-10.89-9.98-23.05-6.9l-4.14.12-1.28-12.11z"/><linearGradient id="e" gradientUnits="userSpaceOnUse" x1="130.193" y1="126.523" x2="130.193" y2="204.206"><stop offset=".151" stop-color="#C1272D"/><stop offset=".77" stop-color="#82272D"/></linearGradient><path fill="url(#e)" d="M129.49 172.954c-4.278 0-8.387-1.897-11.208-5.13-1.152.405-2.336.61-3.534.61-5.99 0-10.864-4.872-10.864-10.86 0-5.985 4.874-10.856 10.864-10.856 1.027 0 2.04.15 3.028.447-1.086-25.318-10.842-30.052-10.943-30.098l-6.236-2.837 59.194-.24-6.13 2.885c-.09.044-9.89 5.215-10.96 30.375 1.06-.35 2.17-.53 3.27-.53 5.99 0 10.87 4.87 10.87 10.856 0 5.987-4.87 10.858-10.86 10.858-1.69 0-3.34-.386-4.82-1.124-2.81 3.558-7.07 5.644-11.65 5.644z"/><path fill="#6D1B23" d="M153.015 115.517s-11.35 5.335-11.896 34.118c1.39-.874 3.05-1.417 4.84-1.417 5.18 0 9.36 4.19 9.36 9.357 0 5.175-4.19 9.358-9.37 9.358-1.96 0-3.76-.59-5.25-1.606-2.38 3.676-6.51 6.127-11.23 6.127-4.41 0-8.31-2.156-10.75-5.44-1.23.58-2.57.92-4 .92-5.17 0-9.37-4.184-9.37-9.358 0-5.168 4.19-9.357 9.36-9.357 1.66 0 3.21.46 4.57 1.23 0-.02.01-.02.02-.02-.6-28.59-11.9-33.73-11.9-33.73l45.56-.19m15.29-3.12l-15.31.11-45.57.18-15.41.06 14.15 5.65c.56.32 8.62 5.32 10 26.88-.47-.06-.95-.09-1.43-.09-6.82 0-12.36 5.54-12.36 12.36s5.55 12.36 12.36 12.36c1.04 0 2.07-.14 3.07-.4 3.06 3.11 7.28 4.92 11.67 4.92 4.64 0 8.99-1.95 12.06-5.33 1.39.53 2.88.8 4.4.8 6.81 0 12.36-5.55 12.36-12.36s-5.55-12.36-12.37-12.36c-.56 0-1.12.04-1.67.11 1.37-21.67 9.48-26.79 10.03-27.11l13.99-5.82z"/><linearGradient id="f" gradientUnits="userSpaceOnUse" x1="124.6" y1="135.844" x2="126.494" y2="187.69"><stop offset=".151" stop-color="#C1392D" stop-opacity="0"/><stop offset="1" stop-color="#fff"/></linearGradient><path fill="url(#f)" d="M130.62 159.76c0 4.088 1.06 9.62-2.05 9.62h-.556c-3.12 0-9.396-5.532-9.396-9.62v-38.474c0-4.087 6.274-4.905 9.396-4.905h.555c3.1 0 2.05.82 2.05 4.91v38.48z"/><path fill="#82272D" d="M118.193 163.396c0 .862-2.15 1.562-4.797 1.562-2.66 0-4.81-.7-4.81-1.562 0-.877 2.15-1.57 4.81-1.57 2.646-.002 4.797.693 4.797 1.57zm34.14 0c0 .862-2.15 1.562-4.798 1.562-2.658 0-4.81-.7-4.81-1.562 0-.877 2.15-1.57 4.81-1.57 2.648-.002 4.798.693 4.798 1.57z"/><linearGradient id="g" gradientUnits="userSpaceOnUse" x1="103.8" y1="192.505" x2="156.056" y2="192.505"><stop offset=".151" stop-color="#fff"/><stop offset=".994" stop-color="#ccc"/></linearGradient><path fill="url(#g)" d="M152.83 191.204s-9.294 8.098-22.9 7.815c-13.61.28-22.916-7.82-22.916-7.82-.358-2.98-1.11-6.6-2.127-10.12l-1.087 3.36c1.55 4.5 2.73 9.61 3.214 13.58 0 0 9.306 8.1 22.916 7.83 13.606.27 22.9-7.83 22.9-7.83.485-3.97 1.665-9.08 3.226-13.58l-.485-5.3c-1.29 4.11-2.3 8.52-2.74 12.06z"/><path d="M129.78 55.462S97.637 113.8 66.9 110.952c0 0 7.4-55.773 62.88-55.49zm-1.423 0s33.016 57.91 63.743 55.06c0 0-8.243-55.343-63.743-55.06z"/><path fill="#DFB000" d="M77.426 31.677s-36.085 15.595 1.48 57.708c0 0 22.19-1.988 17.647-19.346 0 0-17.387-14.3-15.71-23.56 0 0 .715-3.26.097-10.05 0 0 1.18-7.03-3.514-4.76zm104.756 0s36.08 15.595-1.48 57.708c0 0-22.195-1.988-17.64-19.346 0 0 17.374-14.3 15.71-23.56 0 0-.717-3.26-.104-10.05 0 0-1.18-7.03 3.514-4.76z"/><path d="M75.148 107.25s.146.3.48.826c.33.525.86 1.275 1.658 2.112.798.83 1.885 1.756 3.332 2.436 1.432.688 3.26 1.07 5.204.785 1.947-.26 3.944-1.13 5.83-2.36 1.9-1.22 3.736-2.77 5.45-4.55l1.298-1.35 1.245-1.44c.858-.94 1.638-1.98 2.44-3 .82-1.01 1.56-2.1 2.326-3.17.78-1.07 1.51-2.17 2.22-3.29 1.48-2.2 2.8-4.5 4.14-6.73 1.26-2.29 2.56-4.5 3.68-6.72 1.16-2.2 2.27-4.33 3.25-6.39 1.01-2.05 1.96-3.98 2.78-5.79l2.29-4.93c.65-1.48 1.22-2.77 1.69-3.83l1.48-3.34.92.39-1.47 3.35-1.69 3.84-2.29 4.94c-.82 1.81-1.8 3.75-2.82 5.79-1 2.05-2.12 4.19-3.3 6.39-1.14 2.22-2.47 4.43-3.74 6.72-1.37 2.23-2.71 4.54-4.21 6.74-.73 1.12-1.46 2.23-2.26 3.29-.78 1.07-1.53 2.16-2.37 3.18-.82 1.03-1.61 2.06-2.49 3.01-.43.48-.85.96-1.27 1.44l-1.34 1.34c-1.77 1.77-3.68 3.31-5.65 4.51-1.95 1.21-4.03 2.07-6.06 2.29-2.02.26-3.91-.18-5.37-.92-1.47-.75-2.53-1.73-3.31-2.6-.78-.88-1.28-1.65-1.59-2.19-.32-.54-.45-.85-.45-.85zm-4.548-.56s1.24.502 3.505 1.028c1.13.272 2.518.53 4.12.732 1.6.226 3.424.34 5.407.323 1.985 0 4.132-.226 6.356-.66 2.23-.413 4.52-1.16 6.768-2.166 2.267-.98 4.443-2.34 6.504-3.898l1.516-1.23c.498-.42.95-.9 1.43-1.34.98-.87 1.808-1.91 2.69-2.88.857-1 1.598-2.1 2.4-3.13.7-1.12 1.424-2.21 2.09-3.32.61-1.15 1.238-2.28 1.817-3.41l1.557-3.44c.895-2.31 1.787-4.54 2.414-6.73.728-2.16 1.217-4.25 1.714-6.18l.362-1.41c.096-.47.19-.92.28-1.37l.52-2.52c.354-1.58.546-2.97.73-4.12l.57-3.6.99.13-.568 3.63c-.184 1.15-.376 2.56-.73 4.15l-.52 2.54-.28 1.38-.365 1.42c-.5 1.94-1.02 4.05-1.77 6.23-.65 2.2-1.568 4.45-2.49 6.79l-1.605 3.47c-.596 1.14-1.243 2.28-1.87 3.44-.686 1.13-1.43 2.23-2.15 3.36-.826 1.05-1.59 2.16-2.473 3.17-.91.99-1.76 2.04-2.77 2.92-.5.45-.96.93-1.47 1.36l-1.56 1.24c-2.13 1.57-4.36 2.97-6.7 3.91-2.32.98-4.67 1.69-6.94 2.06-2.27.39-4.45.58-6.46.54-4.02-.02-7.32-.69-9.56-1.32-2.25-.61-3.47-1.15-3.47-1.15zm120.08 1.706s-1.237.518-3.514 1.065c-2.265.56-5.598 1.13-9.626 1.02-2.012-.03-4.19-.27-6.448-.76-2.265-.46-4.6-1.23-6.887-2.3-2.314-1.02-4.524-2.46-6.604-4.1l-1.54-1.27c-.49-.45-.96-.93-1.44-1.39-1-.9-1.82-1.97-2.72-2.97-.86-1.04-1.62-2.14-2.43-3.22-.71-1.14-1.45-2.25-2.12-3.39-.62-1.16-1.26-2.31-1.85-3.47l-1.59-3.49c-.91-2.34-1.83-4.6-2.47-6.81-.74-2.18-1.26-4.3-1.76-6.25l-.36-1.43-.28-1.38-.52-2.55c-.35-1.59-.54-3-.73-4.16l-.56-3.63.99-.13.57 3.61c.18 1.15.38 2.55.73 4.13l.52 2.53.28 1.37c.12.46.24.94.36 1.42.49 1.93.98 4.04 1.71 6.2.63 2.2 1.51 4.43 2.4 6.75l1.55 3.46c.57 1.15 1.2 2.28 1.8 3.43.65 1.13 1.38 2.23 2.07 3.35.79 1.06 1.53 2.15 2.37 3.18.87.99 1.68 2.04 2.65 2.94.47.46.92.93 1.4 1.37l1.5 1.26c.48.44 1.01.81 1.54 1.18.53.36 1.04.76 1.58 1.09 1.1.65 2.16 1.32 3.29 1.83 2.22 1.1 4.5 1.9 6.72 2.4 2.21.52 4.36.81 6.35.88 1.99.09 3.82.03 5.43-.15 1.61-.14 3.01-.37 4.15-.6 2.29-.46 3.55-.93 3.55-.93zm-.752-6.266s-.52 1.363-1.82 3.554c-.66 1.086-1.493 2.398-2.648 3.754-1.16 1.343-2.61 2.773-4.498 3.924-1.87 1.148-4.252 1.955-6.813 1.82-2.57-.108-5.14-1.148-7.45-2.64-2.37-1.453-4.39-3.492-6.35-5.593-1.9-2.17-3.67-4.5-5.3-6.92-.79-1.23-1.61-2.44-2.36-3.68-.73-1.26-1.46-2.51-2.18-3.75-.72-1.24-1.34-2.52-2.01-3.76-.66-1.24-1.31-2.47-1.88-3.71-1.18-2.46-2.34-4.83-3.32-7.13-1.01-2.29-1.98-4.45-2.77-6.48L138.31 66l-1.605-4.3-1.396-3.74.94-.34 1.4 3.734c.44 1.19.98 2.63 1.6 4.287l2.21 5.51c.78 2.03 1.73 4.18 2.72 6.47.96 2.3 2.1 4.67 3.26 7.12.56 1.24 1.2 2.46 1.84 3.7.65 1.24 1.26 2.51 1.97 3.75l2.14 3.73c.73 1.24 1.54 2.44 2.31 3.66 1.6 2.41 3.33 4.72 5.18 6.87 1.91 2.08 3.89 4.08 6.14 5.54 2.22 1.49 4.67 2.53 7.11 2.68 2.44.18 4.74-.55 6.58-1.63 1.85-1.08 3.31-2.46 4.48-3.77 1.18-1.31 2.05-2.58 2.74-3.64 1.37-2.13 1.94-3.48 1.94-3.48z"/><linearGradient id="h" gradientUnits="userSpaceOnUse" x1="113.909" y1="207.856" x2="113.909" y2="194.898"><stop offset=".151" stop-color="#fff"/><stop offset=".994" stop-color="#ccc"/></linearGradient><path fill="url(#h)" d="M111.083 200.81c1.422.828 3.18 1.724 5.25 2.545 1.652-6.833-2.313-12.428-2.313-12.428.82 4.11-.706 7.38-2.937 9.884z"/><linearGradient id="i" gradientUnits="userSpaceOnUse" x1="144.775" y1="205.287" x2="144.919" y2="192.906"><stop offset=".151" stop-color="#fff"/><stop offset=".994" stop-color="#ccc"/></linearGradient><path fill="url(#i)" d="M147.895 201.313c-2.474-2.555-4.29-5.982-3.41-10.387 0 0-4.15 5.845-2.197 12.884 2.16-.762 4.045-1.646 5.607-2.497z"/><linearGradient id="j" gradientUnits="userSpaceOnUse" x1="94.217" y1="177.759" x2="108.875" y2="177.759"><stop offset=".151" stop-color="#fff"/><stop offset=".994" stop-color="#ccc"/></linearGradient><path fill="url(#j)" d="M107.014 177.546c-.382-3.145-1.966-5.646-4.07-7.624.07 4.607-.877 13.323-8.727 15.59 0 0 9.34 1.334 14.658-6.584-1.19-.816-1.86-1.382-1.86-1.382z"/><linearGradient id="k" gradientUnits="userSpaceOnUse" x1="163.24" y1="177.544" x2="147.308" y2="177.261"><stop offset=".151" stop-color="#fff"/><stop offset=".994" stop-color="#ccc"/></linearGradient><path fill="url(#k)" d="M157.488 169.407c-2.393 2.052-4.23 4.706-4.658 8.14 0 0-.51.444-1.457 1.108 5.283 8.215 14.832 6.86 14.832 6.86-8.15-2.356-8.855-11.662-8.717-16.108z"/><path fill="#fff" d="M152.83 177.546s-9.294 8.098-22.9 7.815c-13.61.29-22.916-7.81-22.916-7.81-.324-2.71-1.538-4.93-3.214-6.76 1.55 4.5 2.73 9.61 3.214 13.58 0 0 9.306 8.11 22.916 7.83 13.606.27 22.9-7.83 22.9-7.83.485-3.97 1.665-9.08 3.226-13.58-1.677 1.83-2.89 4.05-3.226 6.76z"/><path fill="#333" d="M162.54 134.21c0 3.294-2.646 5.96-5.94 5.96-3.295 0-5.954-2.666-5.954-5.96 0-3.29 2.66-5.942 5.953-5.942s5.94 2.653 5.94 5.943z"/><linearGradient id="l" gradientUnits="userSpaceOnUse" x1="135.44" y1="137.69" x2="140.127" y2="173.694"><stop offset=".151" stop-color="#C1272D"/><stop offset=".77" stop-color="#82272D"/></linearGradient><path fill="url(#l)" d="M109.748 100.882l-3.208 11.837 16.277 18 17.02-.5 17.998-17.51-10.843-17.76z"/><path d="M127.884 110.425s-1.677 22.016-16.096 13.74c-14.41-8.272-48.113 9.362-44.992-12.318 0 0 1.907 6.52 7.953 3.364 0 0-4.35-2.52.31-7.9 0 0 1.52 9.85 8.7 5.06 0 0 21.41-7.19 30.03 3.16 8.61 10.35 14.09-5.09 14.09-5.09zm3.826 0s1.676 22.016 16.09 13.74c14.417-8.272 48.115 9.362 44.994-12.318 0 0-1.907 6.52-7.954 3.364 0 0 4.347-2.52-.312-7.9 0 0-1.515 9.85-8.705 5.06 0 0-21.41-7.19-30.032 3.16-8.61 10.35-14.08-5.09-14.08-5.09zm21.202-43.212s-11.1 38.102-34.407 28.484c0 0 14.43.37 12.95-16.277 0 0-20.72 27.375-42.544 20.716L110 69.062l7.77-15.907 21.457 2.22 13.69 11.838z"/></svg>