<?xml version="1.0" encoding="utf-8"?>
<!-- Generator: Adobe Illustrator 16.0.0, SVG Export Plug-In . SVG Version: 6.00 Build 0)  -->
<!DOCTYPE svg PUBLIC "-//W3C//DTD SVG 1.1//EN" "http://www.w3.org/Graphics/SVG/1.1/DTD/svg11.dtd">
<svg version="1.1" id="Layer_1" xmlns="http://www.w3.org/2000/svg" xmlns:xlink="http://www.w3.org/1999/xlink" x="0px" y="0px"
	 width="256px" height="256px" viewBox="0 0 256 256" enable-background="new 0 0 256 256" xml:space="preserve">
<path fill="#333333" d="M97.208,220.28c-9.726,0-38.615-0.003-40.71-36.302c-21.165-0.791-25.675-16.104-25.675-29.004
	c0-8.324,2.58-16.014,6.917-21.396c-0.856-0.25-1.648-0.49-2.374-0.72c-8.777-2.74-11.113-9.87-11.137-15.331
	c-6.06-1.62-10.62-4.54-13.58-8.72c-4.58-6.46-3.42-13.5-3.37-13.8c0.32-1.88,1.94-3.27,3.85-3.32l28.76-0.67
	c0.43,0,0.86,0.07,1.27,0.2c-0.15-0.43-0.29-0.88-0.4-1.31c-0.02-0.06-0.03-0.11-0.04-0.17l-0.27-1.18
	c-0.02-0.07-0.03-0.13-0.04-0.2l-0.09-0.53l-0.03-0.17c-0.02-0.1-0.04-0.19-0.05-0.29c-0.02-0.11-0.04-0.31-0.05-0.42l-0.06-1.02
	c-0.01-0.08-0.01-0.15-0.01-0.22c-0.01-3.09,0.87-6.4,2.35-8.88c1.23-2.18,2.56-3.64,3.82-4.89l0.07-0.07
	c2.45-2.32,4.65-3.68,6.7-4.87c4.21-2.37,8.04-3.83,11.55-5.06c6.9-2.33,13.93-4.12,21.52-5.48c12.67-2.29,26.47-3.55,42.19-3.85
	c0.77-0.01,1.531-0.02,2.281-0.02h0.629c2.471-2.15,3.86-4.23,4.061-6.07c0.141-1.38-0.4-2.79-1.66-4.31
	c-1.24-1.49-1.24-3.65,0.01-5.13c0.78-0.93,1.91-1.43,3.061-1.43c0.67,0,1.359,0.17,1.98,0.52c0.449,0.26,10.85,6.29,15.379,17.67
	c5.61,0.61,11.23,1.43,16.76,2.46c8.17,1.62,14.98,3.42,21.461,5.65c3.52,1.21,7.34,2.66,11.51,5.01c2,1.15,4.279,2.54,6.76,4.88
	l0.07,0.07c1.26,1.25,2.6,2.72,3.85,4.93c0.03,0.06,0.07,0.12,0.1,0.18l0.701,1.41l0.09,0.19c0.359,0.83,0.72,1.92,0.949,2.93
	c0.01,0.04,0.271,1.31,0.271,1.31c0.03,0.15,0.05,0.3,0.06,0.45l0.03,0.43l0.05,0.69l0.051,1.02v0.31
	c-0.041,1.74-0.381,3.53-0.94,5.2c0.069,0,0.271-0.01,0.3,0l28.67,0.66c1.91,0.05,3.52,1.43,3.85,3.32
	c0.051,0.29,1.211,7.33-3.369,13.79c-2.961,4.18-7.521,7.1-13.57,8.72c-0.02,5.45-2.359,12.58-11.141,15.32
	c-0.729,0.229-1.52,0.47-2.369,0.72c4.34,5.38,6.92,13.069,6.92,21.399c0,12.601-4.311,27.49-24.221,28.92
	c-1.35,24.471-14.789,36.381-41,36.381c-6.299,0-12.659-0.631-18.279-1.181c-4.54-0.44-8.83-0.86-12.221-0.86
	c-4.029,0-8.799,0.451-13.85,0.92c-5.99,0.551-12.17,1.131-18.4,1.131L97.208,220.28z"/>
<path fill="#333333" d="M63.008,109.79c0.327-0.823,0.668-1.63,1.02-2.42c-1.895-0.506-3.874-1.09-5.945-1.85L63.008,109.79
	L63.008,109.79z"/>
<path fill="#333333" d="M193.641,107.215c0.215,0.483,0.424,0.972,0.629,1.466l2.94-2.54c-1.224,0.41-2.412,0.76-3.569,1.08V107.215
	z"/>
<path fill="#333333" d="M79.485,87.438c0.333-0.254,0.67-0.504,1.01-0.75c-0.775,0.12-1.552,0.25-2.33,0.385
	C78.6,87.196,79.04,87.318,79.485,87.438z"/>
<path fill="#333333" d="M178.092,87.293c0.254-0.07,0.504-0.143,0.75-0.215c-0.438-0.074-0.88-0.146-1.33-0.215
	C177.707,87.005,177.9,87.148,178.092,87.293z"/>
<path fill="#333333" d="M136.734,39.72c0,0,9.984,5.693,13.897,16.315c0.048,0.13,0.095,0.262,0.14,0.394
	c0.131,0.37,0.254,0.74,0.367,1.12l0.022,0.07c6.319,0.61,12.64,1.5,18.97,2.68c6.939,1.38,13.84,3.07,20.891,5.5
	c3.529,1.22,7.08,2.6,10.859,4.71c1.9,1.09,3.84,2.3,5.971,4.3c1.08,1.06,2.18,2.26,3.199,4.07l0.711,1.4
	c0.27,0.62,0.549,1.49,0.729,2.26l0.25,1.19l0.04,0.42l0.05,0.62l0.05,0.94c-0.07,2.59-0.939,5.11-2.01,6.73
	c-1.07,1.73-2.21,2.85-3.301,3.84c-2.18,1.85-4.159,2.89-6.079,3.82c-3.83,1.8-7.41,2.85-10.96,3.76c-0.91,0.22-1.79,0.33-2.7,0.52
	c1.94,3.45,3.489,7.16,4.72,11.08L216.15,95l28.668,0.665c0,0,2.668,15.334-17.332,18.67c0,0,2.666,11.34-8,14.67
	c-2.641,0.83-5.935,1.729-9.4,2.63c6.52,3.66,11.137,12.7,11.137,23.301c0,22.432-13.721,25.031-23.421,25.031
	c-0.239,0-0.46-0.01-0.69-0.02c-0.119,30.572-18.34,36.289-37.119,36.289c-11.221,0-22.635-2.039-30.504-2.039
	c-8.96,0-20.85,2.039-32.242,2.039c-19.11,0-36.79-5.739-36.83-36.479c-0.67,0.14-1.38,0.212-2.15,0.212
	c-9.7,0-23.41-2.6-23.41-25.039c0-10.601,4.62-19.641,11.14-23.301c-3.464-0.9-6.76-1.811-9.4-2.63c-10.664-3.34-8-14.67-8-14.67
	c-20-3.34-17.33-18.67-17.33-18.67l28.66-0.66l24.96,21.63c1.29-4.31,2.94-8.37,5.05-12.12c-1.13-0.24-2.25-0.4-3.39-0.68
	c-3.56-0.9-7.13-1.95-10.96-3.74c-1.93-0.93-3.91-1.98-6.09-3.82c-1.102-0.99-2.234-2.1-3.31-3.84l-0.75-1.36
	c-0.28-0.6-0.58-1.46-0.78-2.21l-0.27-1.18l-0.07-0.42l-0.045-0.31l-0.03-0.15l-0.01-0.08l-0.06-1.02c-0.01-2.6,0.8-5.17,1.82-6.85
	c1.02-1.82,2.12-3.01,3.19-4.08c2.13-2.01,4.07-3.22,5.97-4.32c3.78-2.13,7.33-3.5,10.86-4.74c7.05-2.38,13.97-4.07,20.91-5.31
	c13.86-2.52,27.82-3.54,41.56-3.8c0.74-0.01,1.47-0.01,2.21-0.01c0.689,0,1.379,0,2.07,0.01c6.559-5.15,8.959-11.05,4.039-16.95"/>
<path fill="#333333" d="M80.37,91.86c6.22-5.21,14.37-9.13,25.01-11.396l0.018-0.086c-5.17,0.25-10.32,0.556-15.437,1.07
	c-6.31,0.67-12.58,1.498-18.39,2.896c-2.41,0.575-4.66,1.285-6.63,2.06c1.83,0.934,3.86,1.82,6.03,2.59
	c3.04,1.06,6.22,1.99,9.47,2.817l-0.05,0.05"/>
<path fill="#333333" d="M177.241,91.691c3.03-0.81,6-1.71,8.829-2.72c2.191-0.77,4.24-1.66,6.08-2.6
	c-1.969-0.77-4.219-1.47-6.609-2.04c-5.83-1.35-12.12-2.17-18.45-2.71c-4.56-0.44-9.17-0.72-13.8-0.94
	c10.13,2.27,17.939,6.06,23.96,11.02"/>
<path fill="#333333" d="M195.921,83.961c0.05-0.05,0.16-0.13,0.2-0.17c0.109-0.11,0.141-0.17,0.109-0.17
	c-0.029,0-0.16,0.11-0.299,0.34"/>
<path fill="#333333" d="M61.181,83.991c-0.02-0.06-0.06-0.14-0.11-0.2c-0.1-0.12-0.16-0.17-0.17-0.17c-0.02,0,0.01,0.08,0.08,0.17
	c0.04,0.06,0.16,0.14,0.22,0.2"/>
<path fill="#333333" d="M136.82,31.731c-2.309,0-4.569,1-6.139,2.87c-2.48,2.97-2.491,7.28-0.011,10.26
	c0.58,0.7,0.771,1.18,0.75,1.33c-0.04,0.37-0.46,1.25-1.659,2.49c-0.461,0-0.921,0.01-1.381,0.01c-15.97,0.31-29.98,1.59-42.86,3.93
	c-7.77,1.39-14.98,3.23-22.04,5.61l-0.08,0.03c-3.68,1.29-7.7,2.82-12.13,5.32l-0.1,0.06c-2.16,1.25-4.69,2.81-7.45,5.42l-0.15,0.15
	c-1.38,1.38-2.99,3.14-4.45,5.72c-1.86,3.12-2.91,7.08-2.9,10.9c0,0.15,0.01,0.3,0.02,0.45l0.06,0.91l-25.17,0.58
	c-3.82,0.09-7.04,2.87-7.69,6.63c-0.16,0.91-1.39,9.12,4.05,16.79c3.05,4.3,7.43,7.45,13.07,9.43c0.82,5.78,3.96,11.9,11.1,15.13
	c-3.02,5.5-4.74,12.2-4.74,19.28c0,12.57,3.8,21.77,11.29,27.35c3.98,2.96,8.81,4.74,14.68,5.4c1.35,12.57,6.03,22.029,13.96,28.17
	c7.39,5.72,17.06,8.39,30.46,8.39c6.41,0,12.97-0.61,18.76-1.14c4.96-0.46,9.64-0.891,13.48-0.891c3.2,0,7.4,0.41,11.84,0.851
	c5.711,0.56,12.18,1.19,18.67,1.19c13.09,0,23.03-2.711,30.4-8.301c8.17-6.199,12.971-15.75,14.33-28.439
	c5.21-0.78,9.57-2.5,13.21-5.211c7.49-5.579,11.29-14.779,11.29-27.35c0-7.08-1.721-13.79-4.74-19.279
	c7.141-3.23,10.28-9.351,11.1-15.121c5.65-1.98,10.031-5.13,13.08-9.43c5.44-7.68,4.201-15.89,4.051-16.8
	c-0.65-3.77-3.881-6.54-7.69-6.63l-24.19-0.56c0.031-0.4,0.051-0.8,0.061-1.19c0.01-0.21,0-0.42-0.01-0.63l-0.051-0.95
	c0-0.04,0-0.09-0.01-0.13l-0.039-0.62l-0.011-0.15l-0.03-0.43c-0.02-0.3-0.069-0.61-0.129-0.91l-0.25-1.2l-0.051-0.24
	c-0.29-1.25-0.72-2.56-1.18-3.61l-0.18-0.39l-0.701-1.41c-0.059-0.12-0.129-0.24-0.189-0.36c-1.5-2.64-3.119-4.41-4.52-5.79
	l-0.15-0.15c-2.79-2.63-5.311-4.17-7.449-5.41c-0.031-0.02-0.07-0.03-0.101-0.05c-4.46-2.5-8.649-4.08-12.149-5.29
	c-6.671-2.3-13.641-4.14-21.941-5.79l-0.1-0.021c-4.869-0.91-9.82-1.66-14.75-2.25c-5.289-10.99-14.97-16.75-16.14-17.42
	c-1.24-0.7-2.61-1.05-3.96-1.05L136.82,31.731z"/>
<path fill="#CCCCCC" d="M186.107,121.048l30-26l28.666,0.667c0,0,2.666,15.333-17.334,18.667c0,0,2.666,11.334-8,14.667s-32,8-32,8
	 M69.893,121.04l-30-26l-28.667,0.667c0,0-2.666,15.34,17.334,18.673c0,0-2.666,11.334,8,14.667s32,8,32,8"/>
<path fill="#F4D1B0" d="M186.063,154.975c0,13.825,2.008,25.036,11.699,25.036c9.702,0,23.415-2.6,23.415-25.03
	c0-13.819-7.854-25.029-17.555-25.029c-9.697,0-17.56,11.21-17.56,25.04V154.975z"/>
<path fill="#C69C6D" d="M188.973,154.88c0.039-3.876,0.84-8.29,2.737-12.04c0.96-1.91,2.181-3.758,3.904-5.365
	c1.706-1.57,4.149-2.92,6.983-2.957c1.078,0.104,0.855,0.006,1.867,0.221c0.813,0.168,1.508,0.412,2.051,0.686
	c1.195,0.527,2.17,1.275,3.064,2.051c1.723,1.609,2.15,3.457,3.105,5.365c1.898,3.842,1.933,7.99,1.933,12.137v0.478
	c0,2.718-1.343,4.942-4.056,4.976c-2.715,0.029-4.537-2.15-4.572-4.861c0-0.199,0.218-0.409,0.234-0.6
	c0.301-2.729,0.162-5.71-0.725-8.22c-0.822-2.62-2.473-4.26-2.947-4.431c-0.289-0.149-1.058-0.129-2.033,0.531
	c-0.951,0.659-1.91,1.739-2.721,3.01c-1.67,2.64-2.65,5.609-3.02,9.189l-0.021,0.141c-0.17,1.6-1.6,2.76-3.2,2.59
	c-1.5-0.17-2.609-1.45-2.6-2.92L188.973,154.88z"/>
<path fill="#F4D1B0" d="M69.935,154.975c0,13.825-2.004,25.036-11.7,25.036c-9.7,0-23.41-2.6-23.41-25.03
	c0-13.819,7.856-25.029,17.552-25.029c9.696,0,17.558,11.21,17.558,25.04V154.975z"/>
<path fill="#C69C6D" d="M67.026,154.88c-0.037-3.876-0.84-8.29-2.736-12.04c-0.96-1.91-2.182-3.758-3.9-5.365
	c-1.715-1.57-4.154-2.92-6.992-2.957c-1.072,0.104-0.848,0.006-1.86,0.221c-0.812,0.168-1.515,0.412-2.05,0.686
	c-1.2,0.527-2.17,1.275-3.07,2.051c-1.72,1.609-2.532,3.457-3.493,5.365c-1.893,3.842-2.305,7.99-2.305,12.137v0.478
	c0,2.718,1.72,4.942,4.43,4.976c2.72,0.029,4.734-2.15,4.77-4.861c0-0.199-0.122-0.409-0.144-0.6c-0.3-2.729-0.12-5.71,0.776-8.22
	c0.82-2.62,2.497-4.26,2.97-4.431c0.292-0.149,1.064-0.129,2.046,0.531c0.943,0.659,1.91,1.739,2.72,3.01
	c1.67,2.64,2.65,5.609,3.026,9.189l0.014,0.141c0.172,1.6,1.598,2.76,3.192,2.59c1.498-0.17,2.614-1.45,2.606-2.92V154.88z"/>
<path fill="#FFDDBB" d="M197.077,179.697c0,49.193-46.54,34.539-67.623,34.539c-23.994,0-69.076,14.654-69.076-34.539
	c0-49.195-5.092-101.437,68.353-101.437c74.166,0.01,68.347,52.25,68.347,101.44V179.697z"/>
<path fill="#8C6239" d="M105.71,78.987c0,0,0.48-9.21,15.023-15.513c14.544-6.302,23.27-15.027,16.001-23.755
	c0,0,24.718,14.06,11.631,39.26c-13.088,25.21-32.958,26.66-42.655,11.63c0,0-1.938-4.36,0-11.64V78.987z"/>
<path fill="#A67C52" d="M142.548,45.54c7.271,8.725-1.452,17.45-15.996,23.752c-14.54,6.3-15.027,15.514-15.027,15.514
	c-1.936,7.27,0,11.632,0,11.632c0.207,0.314,0.438,0.58,0.646,0.88c10.5,6.94,25.58,2.123,36.2-18.33
	c7.22-13.887,2.939-24.376-2.35-31.005c-2-1.6-3.461-2.444-3.461-2.444L142.548,45.54z"/>
<path fill="#F4FF00" d="M212.788,84.81l-0.043-0.624l-0.037-0.426l-0.242-1.187c-0.182-0.767-0.463-1.64-0.731-2.26l-0.705-1.41
	c-1.03-1.808-2.131-3.002-3.2-4.068c-2.13-2.004-4.07-3.21-5.97-4.306c-3.78-2.12-7.33-3.5-10.86-4.72
	c-7.04-2.43-13.95-4.13-20.89-5.51c-13.9-2.59-27.69-3.85-41.71-3.64c-13.74,0.26-27.7,1.28-41.56,3.79
	c-6.94,1.25-13.85,2.94-20.9,5.32c-3.53,1.23-7.08,2.61-10.85,4.73c-1.9,1.1-3.84,2.3-5.97,4.31c-1.07,1.07-2.17,2.26-3.19,4.07
	c-1.02,1.68-1.82,4.25-1.81,6.85l0.06,1.02l0.01,0.08l0.03,0.15l0.04,0.31l0.07,0.42l0.26,1.17c0.2,0.75,0.5,1.61,0.78,2.21
	l0.75,1.35c1.07,1.74,2.2,2.86,3.31,3.84c2.18,1.85,4.16,2.89,6.08,3.82c3.83,1.8,7.4,2.84,10.96,3.74
	c1.15,0.29,2.27,0.44,3.41,0.69c2.7-4.78,6.11-9.08,10.49-12.74c-3.25-0.83-6.43-1.76-9.47-2.82c-2.17-0.77-4.2-1.66-6.03-2.6
	c1.97-0.77,4.22-1.48,6.63-2.06c5.81-1.4,12.08-2.23,18.39-2.9c5.33-0.54,10.71-0.85,16.1-1.11c6.58-1.35,14.07-2.09,22.68-2.09
	c9.39,0,17.49,0.85,24.49,2.41c4.63,0.22,9.25,0.5,13.819,0.94c6.32,0.54,12.621,1.35,18.451,2.71c2.389,0.56,4.639,1.27,6.609,2.04
	c-1.85,0.94-3.9,1.83-6.08,2.6c-2.84,1.01-5.811,1.91-8.84,2.72c4.43,3.65,7.869,7.95,10.561,12.75c0.899-0.19,1.799-0.3,2.709-0.52
	c3.561-0.91,7.131-1.96,10.961-3.76c1.92-0.94,3.899-1.98,6.08-3.83c1.1-0.99,2.239-2.11,3.309-3.84
	c1.07-1.62,1.951-4.14,2.021-6.73l-0.06-0.95L212.788,84.81z M61.005,83.78c0.053,0.06,0.088,0.132,0.115,0.2
	c-0.06-0.064-0.174-0.146-0.217-0.2C60.793,83.61,60.769,83.5,61.005,83.78z M196.066,83.776c-0.032,0.044-0.149,0.125-0.192,0.175
	c0.25-0.4,0.45-0.43,0.192-0.17V83.776z"/>
<radialGradient id="SVGID_1_" cx="-750.5234" cy="233.1426" r="29.9815" gradientTransform="matrix(0.723 0 0 -0.723 630.7935 346.0358)" gradientUnits="userSpaceOnUse">
	<stop  offset="0" style="stop-color:#FF585D"/>
	<stop  offset="1" style="stop-color:#FF585D;stop-opacity:0"/>
</radialGradient>
<circle opacity="0.7" fill="url(#SVGID_1_)" enable-background="new    " cx="87.919" cy="177.475" r="21.697"/>
<radialGradient id="SVGID_2_" cx="-635.5308" cy="233.1426" r="29.9815" gradientTransform="matrix(0.723 0 0 -0.723 630.7935 346.0358)" gradientUnits="userSpaceOnUse">
	<stop  offset="0" style="stop-color:#FF585D"/>
	<stop  offset="1" style="stop-color:#FF585D;stop-opacity:0"/>
</radialGradient>
<circle opacity="0.7" fill="url(#SVGID_2_)" enable-background="new    " cx="171.093" cy="177.475" r="21.697"/>
<path fill="#F5F5F5" d="M118.466,142.777c0,14.013-11.34,25.39-25.367,25.39c-14.02,0-25.37-11.377-25.37-25.39
	c0-14,11.35-25.366,25.37-25.366s25.36,11.37,25.36,25.37L118.466,142.777z"/>
<path fill="#333333" d="M109.122,142.777c0,8.863-7.174,16.031-16.023,16.031c-8.84,0-16.03-7.17-16.03-16.039
	c0-8.851,7.18-16.011,16.02-16.011c8.85,0,16.02,7.16,16.02,16L109.122,142.777z"/>
<path fill="#F5F5F5" d="M188.27,142.777c0,14.013-11.34,25.39-25.363,25.39c-14.016,0-25.37-11.377-25.37-25.39
	c0-14,11.354-25.366,25.37-25.366c14.025,0,25.365,11.37,25.365,25.37L188.27,142.777z"/>
<path fill="#333333" d="M178.93,142.777c0,8.863-7.173,16.031-16.023,16.031c-8.842,0-16.027-7.17-16.027-16.039
	c0-8.851,7.18-16.011,16.02-16.011c8.851,0,16.021,7.16,16.021,16L178.93,142.777z M122.505,189.252c-3.68,0-6.69-1.025-9-3.064
	c-5.38-4.758-4.39-13.052-4.346-13.403c0.2-1.595,1.67-2.743,3.25-2.517c1.59,0.205,2.71,1.651,2.52,3.244
	c-0.01,0.057-0.63,5.635,2.44,8.327c2.04,1.79,5.52,2.07,10.32,0.851c1.57-0.42,3.14,0.539,3.53,2.1
	c0.391,1.561-0.55,3.14-2.1,3.529c-2.4,0.61-4.61,0.921-6.62,0.921L122.505,189.252z M134.953,189.248
	c-1.96,0-4.143-0.3-6.533-0.914c-1.56-0.398-2.5-1.98-2.102-3.535c0.396-1.56,2.006-2.5,3.532-2.109
	c3.224,0.81,7.506,1.369,9.61-0.69c2.181-2.12,1.737-6.64,1.382-8.2c-0.352-1.57,0.62-3.13,2.184-3.48
	c1.574-0.359,3.115,0.601,3.486,2.16c0.08,0.351,1.99,8.811-2.97,13.66c-2.101,2.061-4.972,3.09-8.59,3.09L134.953,189.248z"/>
<path fill="#F4D1B0" d="M133.617,193.15c0,0-7.752,5.817-15.75,5.817c-8.002,0,21.08,16.24,15.75-5.819V193.15z"/>
<radialGradient id="SVGID_3_" cx="-692.7188" cy="247.626" r="10.0762" gradientTransform="matrix(0.723 0 0 -0.723 630.7935 346.0358)" gradientUnits="userSpaceOnUse">
	<stop  offset="0" style="stop-color:#FF585D"/>
	<stop  offset="1" style="stop-color:#FF585D;stop-opacity:0"/>
</radialGradient>
<circle opacity="0.7" fill="url(#SVGID_3_)" enable-background="new    " cx="129.729" cy="166.976" r="7.288"/>
<path fill="#333333" d="M134.947,170.975c-1.391,0-2.627-1.008-2.863-2.435c-0.303-1.79-0.904-2.958-1.797-3.47
	c-1.195-0.69-3.002-0.25-3.39-0.107c-1.495,0.567-3.187-0.174-3.75-1.684c-0.57-1.5,0.18-3.19,1.68-3.75
	c0.462-0.18,4.6-1.67,8.35,0.479c1.706,0.98,3.897,3.091,4.647,7.56c0.266,1.58-0.811,3.091-2.396,3.341
	c-0.154,0.03-0.324,0.04-0.479,0.04L134.947,170.975z"/>
</svg>
