<svg xmlns="http://www.w3.org/2000/svg" width="256" height="256" viewBox="0 0 256 256"><path fill="#333" d="M128.405 229.38c-22.728 0-69.358.026-71.92-48.778-21.153-.795-25.663-16.094-25.663-28.992 0-12.08 5.48-22.65 13.5-26.96l-.573-1.66c-.37-1.07-.28-2.24.26-3.22-2.28-11.17-3.5-25.74 1.87-36.48.36-.73.94-1.33 1.66-1.73.77-.43 1.59-.87 2.39-1.31.38-4.29 2.1-15.23 9.78-26.19 8.79-12.55 27.34-27.51 65.83-27.51 3.99 0 8.17.16 12.43.48.1 0 .2.01.3.03 4.85.73 47.53 7.68 52.45 25.29.42 1.5.66 3.16.73 4.96 13.52 4 21.48 16.38 21.48 33.81 0 5.21-.82 18.17-1.61 29.24.9.35 1.65 1.01 2.1 1.88.51.98.59 2.13.22 3.17l-.13.36c7.06 4.89 11.61 14.74 11.61 25.81 0 12.6-4.3 27.5-24.22 28.92-1.13 20.59-10.7 34.83-28.49 42.4-15.16 6.46-32.89 6.44-43.48 6.44h-.6l.04.04h.03zm-2.85-198.807c3.835 0 7.882.15 12.142.466 0 0 44.838 6.78 49.2 22.41.59 2.11.716 4.51.53 7.02 19.73 3.61 21.53 23.19 21.53 30.66 0 5.81-1.08 22.01-1.812 32.19l2.78.77-1.24 3.53c7.23 3.1 12.5 12.66 12.5 23.97 0 22.43-13.71 25.04-23.41 25.04-.23 0-.46-.04-.69-.05-.19 48.69-46.89 48.77-68.066 48.77h-.61c-24.05 0-67.97-.09-68.03-48.96-.67.13-1.38.22-2.14.22-9.69 0-23.41-2.6-23.41-25.03 0-12.36 6.28-22.62 14.53-24.66l-1.82-5.27.95-.19c-2.46-10.8-4.29-25.87.99-36.41 0 0 9-4.91 8.59-4.91-.13 0-1.32.54-4.22 2 0 0 .55-51.61 71.73-51.61"/><path fill="#333" d="M125.59 22.53c-40.21 0-59.78 15.88-69.11 29.21-7.1 10.14-9.45 20.35-10.23 25.96l-.58.31c-1.43.78-2.59 1.98-3.32 3.44-4.7 9.4-5.52 22.14-2.44 37.9-.33 1.12-.42 2.3-.24 3.46-7.8 5.68-12.79 16.4-12.79 28.74 0 12.57 3.8 21.77 11.29 27.35 3.97 2.95 8.8 4.73 14.65 5.39.97 9.58 3.71 17.87 8.19 24.73 4.98 7.61 12.12 13.48 21.23 17.47 15.59 6.84 34.03 6.81 46.22 6.81h.6c10.9 0 29.132.023 45.052-6.75 18.04-7.69 28.53-22.28 30.64-42.46 5.21-.776 9.57-2.5 13.21-5.21 7.49-5.58 11.29-14.78 11.29-27.35 0-11.27-4.33-21.49-11.25-27.48.01-1.29-.3-2.57-.9-3.73-.39-.76-.896-1.44-1.5-2.02.73-10.59 1.44-22.29 1.44-27.25 0-18.25-7.99-31.54-21.72-36.77-.15-1.07-.36-2.1-.63-3.07-2.62-9.4-12.95-16.78-31.57-22.56-12.19-3.79-23.66-5.54-24.14-5.62-.2-.03-.4-.06-.6-.07-4.36-.32-8.65-.49-12.73-.49l-.06.064h-.002v-.004z"/><path fill="#F4D1B0" d="M186.064 151.62c0 13.828 2.004 25.037 11.703 25.037 9.694 0 23.41-2.604 23.41-25.037 0-13.827-7.857-25.036-17.558-25.036s-17.55 11.21-17.55 25.036h-.01z"/><path fill="#C69C6D" d="M188.975 151.525c.04-3.875.84-8.29 2.734-12.04.96-1.907 2.18-3.76 3.9-5.367 1.68-1.568 4.14-2.92 6.97-2.954 1.06.104.85.006 1.86.222.81.162 1.51.408 2.05.683 1.19.52 2.17 1.27 3.06 2.05 1.72 1.6 1.64 3.46 2.6 5.37 1.89 3.84 1.43 7.98 1.43 12.13v.48c0 2.72-.84 4.95-3.56 4.98-2.72.04-4.29-2.14-4.32-4.86 0-.19.34-.41.35-.59.3-2.73.23-5.71-.66-8.22-.83-2.61-2.44-4.25-2.92-4.42-.29-.15-1.04-.12-2.02.53-.95.65-1.9 1.75-2.71 3.01-1.67 2.64-2.65 5.61-3.02 9.19l-.01.15c-.17 1.6-1.6 2.76-3.2 2.58-1.5-.16-2.61-1.44-2.6-2.92l.05-.03h.01v.01z"/><path fill="#F4D1B0" d="M69.938 151.62c0 13.828-2.004 25.037-11.705 25.037-9.697 0-23.41-2.604-23.41-25.037 0-13.827 7.857-25.036 17.553-25.036s17.562 11.21 17.562 25.036z"/><path fill="#C69C6D" d="M67.027 151.525c-.04-3.875-.838-8.29-2.738-12.04-.97-1.907-2.18-3.76-3.91-5.367-1.71-1.568-4.16-2.92-6.99-2.954-1.07.104-.85.006-1.86.222-.81.162-1.51.408-2.05.683-1.2.52-2.17 1.27-3.07 2.05-1.72 1.6-3.02 3.46-3.99 5.37-1.9 3.84-2.81 7.98-2.81 12.13v.48c0 2.72 2.22 4.95 4.93 4.98 2.72.04 4.98-2.14 5.02-4.86 0-.19 0-.41-.02-.59-.3-2.73-.06-5.71.83-8.22.82-2.61 2.52-4.25 3-4.42.29-.15 1.08-.12 2.06.53.95.65 1.92 1.75 2.74 3.01 1.66 2.64 2.64 5.61 3.02 9.19l.01.15c.17 1.6 1.6 2.76 3.19 2.58 1.49-.16 2.61-1.44 2.6-2.92l.03-.03v.01z"/><path fill="#fdb" d="M197.08 176.344c0 49.196-47.266 49.084-68.352 49.084-24 0-68.354.112-68.354-49.084C60.374 127.148 55.284 64 128.73 64c74.166 0 68.35 63.147 68.35 112.344z"/><path fill="#BDCCD4" d="M47.53 121.69l13.09 37.81 18.905-44.112m130.4 8.726L197.47 159.5l-18.905-44.112"/><path fill="#333" d="M126.734 210.695c-17.72 0-28.842-7.867-29.53-8.37-1.296-.94-1.585-2.752-.642-4.058.936-1.3 2.742-1.586 4.055-.647.922.662 23.088 16.133 55.145-.233 1.44-.723 3.184-.16 3.916 1.268.73 1.434.162 3.184-1.27 3.914-11.928 6.08-22.658 8.12-31.674 8.12z"/><path fill="#BDCCD4" d="M187.42 60.48c.185-2.513.06-4.914-.53-7.03-4.362-15.63-49.202-22.41-49.202-22.41-83.25-6.19-83.86 51.14-83.86 51.14 11.636-5.82-4.362 2.91-4.362 2.91-9.088 18.175 2.908 49.805 2.908 49.805l6.547-10.54 4.17-2.58c-.08.747-.01 1.52.25 2.274.96 2.74 3.95 4.18 6.69 3.22l.46-.16s.67-.24 1.82-.64c1.16-.46 2.83-1.01 4.93-1.46 2.07-.51 4.56-.92 7.27-1.07 2.71-.24 5.65-.18 8.59.09 5.9.47 11.76 2.04 16.03 3.56 4.33 1.52 6.87 2.9 6.87 2.9v-.01l-.02-.05c1.31.69 2.97.32 3.82-.95.89-1.33.52-3.14-.81-4.03l-.04-.02s-2.88-1.91-7.34-3.94c-4.49-2.08-10.74-4.4-17.37-5.57-1.57-.3-3.15-.53-4.72-.71 8.46-3.18 17.11-7.2 24.64-11 28.98-2.78 49.9-10.9 59.27-15.19.47 6.83 1.64 17.14 4.57 26.08-1.96-.18-4.08-.27-6.3-.19-3.21.02-6.6.41-9.9 1.03-6.63 1.17-12.88 3.49-17.36 5.57-4.47 2.03-7.34 3.94-7.34 3.94l-.01-.01v-.01l-.04-.02-.05.04c-1.23.83-1.66 2.48-.93 3.81.77 1.41 2.54 1.95 3.95 1.19 0 0 2.55-1.38 6.87-2.9 4.26-1.52 10.13-3.09 16.03-3.56 2.93-.26 5.88-.33 8.59-.09 2.71.15 5.19.56 7.27 1.08 1.97.42 3.56.94 4.71 1.38.41.55.83 1.09 1.27 1.59l21.79 4.08s2.44-32.19 2.44-40.92c0-7.48-1.8-27.05-21.53-30.67z"/><path fill="#C69C6D" d="M86.904 177.076c-9.6 0-17.9-4.072-18.377-4.31-1.436-.72-2.016-2.46-1.3-3.897.716-1.44 2.466-2.04 3.897-1.32.143.06 13.943 6.78 24.727 1.93 5.68-2.55 9.68-7.96 11.9-16.09.43-1.54 2.03-2.46 3.58-2.05 1.55.42 2.46 2.02 2.04 3.57-2.7 9.89-7.8 16.59-15.15 19.88-3.71 1.66-7.6 2.26-11.3 2.26l-.01.02zm82.192 0c-3.697 0-7.588-.604-11.3-2.26-7.356-3.29-12.458-9.98-15.153-19.88-.424-1.55.486-3.15 2.035-3.572 1.576-.42 3.154.503 3.574 2.043 2.223 8.14 6.234 13.554 11.92 16.098 10.87 4.854 24.563-1.876 24.7-1.942 1.435-.72 3.183-.137 3.9 1.304.718 1.438.138 3.18-1.302 3.9-.476.24-8.775 4.31-18.374 4.31z"/><path fill="#F5F5F5" d="M113.174 151.542c0 11.24-9.105 20.354-20.348 20.354-11.246 0-20.355-9.112-20.355-20.354 0-11.23 9.11-20.333 20.36-20.333 11.24 0 20.35 9.1 20.35 20.33z"/><path fill="#333" d="M107.137 151.063c0 7.81-6.318 14.13-14.125 14.13-7.8 0-14.127-6.32-14.127-14.13 0-7.8 6.328-14.112 14.127-14.112 7.806-.01 14.125 6.31 14.125 14.11v.01z"/><path fill="#F5F5F5" d="M182.98 151.542c0 11.24-9.106 20.354-20.35 20.354s-20.355-9.112-20.355-20.354c0-11.23 9.11-20.333 20.354-20.333s20.35 9.1 20.35 20.33z"/><path fill="#333" d="M176.94 151.063c0 7.81-6.32 14.13-14.122 14.13-7.8 0-14.13-6.32-14.13-14.13 0-7.8 6.33-14.112 14.13-14.112 7.803 0 14.123 6.31 14.123 14.11v.01z"/><path fill="#95ABB5" d="M177.195 78.89s-.96 4.312-4.867 9.526c-1.926 2.595-4.494 5.454-7.725 7.93-1.55 1.34-3.324 2.488-5.172 3.57-1.8 1.163-3.79 2.048-5.76 2.975-2.02.8-4.07 1.53-6.08 2.22-2.07.47-4.11.94-6.08 1.39-2 .28-3.94.43-5.77.63-1.82.19-3.58 0-5.17.01-3.18.02-5.81-.59-7.63-.87-1.82-.35-2.84-.6-2.84-.6s1.03-.24 2.84-.68c1.78-.43 4.34-.74 7.29-1.55 2.99-.62 6.37-1.58 9.94-2.6 3.54-1.15 7.22-2.5 10.79-4.07 1.7-.96 3.57-1.59 5.21-2.59 1.67-.95 3.34-1.84 4.89-2.82 3.15-1.9 5.95-3.93 8.35-5.74 4.75-3.67 7.81-6.69 7.81-6.69l-.02-.04zm-40.72 5.817s-.96 4.31-4.867 9.525c-1.926 2.597-4.49 5.453-7.727 7.93-1.54 1.344-3.32 2.49-5.16 3.568-1.81 1.163-3.8 2.053-5.77 2.978-2.02.795-4.07 1.53-6.08 2.216-2.07.47-4.11.938-6.08 1.386-2.01.276-3.94.433-5.77.632-1.82.185-3.58-.007-5.16.004-3.18.023-5.81-.585-7.63-.872-1.82-.354-2.84-.605-2.84-.605l2.84-.68c1.79-.44 4.34-.75 7.3-1.56 2.99-.62 6.36-1.59 9.94-2.61 3.53-1.16 7.22-2.5 10.79-4.08 1.7-.96 3.57-1.6 5.21-2.59 1.67-.95 3.34-1.84 4.9-2.82 3.14-1.91 5.95-3.93 8.34-5.75 4.75-3.68 7.82-6.69 7.82-6.69l-.04.01h-.01z"/><linearGradient id="a" gradientUnits="userSpaceOnUse" x1="216.028" y1="-315.747" x2="216.028" y2="-305.319" gradientTransform="matrix(7.466 0 0 -7.466 -1487.503 -2144.024)"><stop offset="0" stop-color="#FF5459"/><stop offset=".789" stop-color="#FF6064" stop-opacity="0"/></linearGradient><path fill="url(#a)" d="M129.62 149.38v32.966s1.305 6.236-7.706 9.01l2.558-9.01-3.432-34.96"/><path fill="#333" d="M122.433 196.58c-1.232 0-2.38-.792-2.77-2.03-.487-1.528.358-3.16 1.89-3.65 8.007-2.548 7.7-7.12 7.683-7.314l-.02-35.23c0-1.602 2.092-2.91 3.69-2.91 1.608 0 3.698 1.31 3.698 2.91v34.91s.33 9.108-12.51 13.188c-.3.09-1.39.14-1.68.14l.02-.014z"/></svg>