<?xml version="1.0" encoding="utf-8"?>
<!-- Generator: Adobe Illustrator 16.0.0, SVG Export Plug-In . SVG Version: 6.00 Build 0)  -->
<!DOCTYPE svg PUBLIC "-//W3C//DTD SVG 1.1//EN" "http://www.w3.org/Graphics/SVG/1.1/DTD/svg11.dtd">
<svg version="1.1" id="Layer_1" xmlns="http://www.w3.org/2000/svg" xmlns:xlink="http://www.w3.org/1999/xlink" x="0px" y="0px"
	 width="256px" height="256px" viewBox="0 0 256 256" enable-background="new 0 0 256 256" xml:space="preserve">
<path fill="#FCEE21" d="M128.848,228.277c-18.808,0-33.508-2.851-44.938-8.715c-16.958-8.701-26.087-23.631-27.18-44.42
	c-22.543-0.11-27.285-15.836-27.285-29.035c0-16.281,9.466-29.035,21.55-29.035c0.25,0,0.495,0.005,0.74,0.016
	c0.568-8.678,2.13-19.27,4.543-24.938c0.458-1.077,1.365-1.9,2.482-2.25l0.45-0.14c9.243-21.213,27.61-37.08,49.862-43.16
	c0.03-10.414,8.51-18.878,18.928-18.878c10.195,0,18.536,8.105,18.916,18.213c23.464,5.515,42.79,21.632,52.447,43.824l0.449,0.14
	c1.15,0.36,2.076,1.22,2.521,2.34c2.928,7.38,3.447,16.24,3.88,24.87c11.332,0.84,20.358,13.52,20.358,28.991
	c0,12.879-4.49,28.159-25.55,29c-1.92,34.33-27.381,53.17-72.17,53.17L128.848,228.277z"/>
<path fill="#333333" d="M128,31.723c8.243,0,14.93,6.688,14.93,14.935c0,0.846-0.088,1.67-0.223,2.477
	c24.45,4.58,44.566,21.423,53.695,43.905c0.738,0.226,1.482,0.448,2.212,0.677c2.838,7.163,3.233,16.21,3.672,24.997
	c-0.207-0.102-0.425-0.198-0.632-0.3l-0.381,3.23c1.203-0.37,2.451-0.57,3.73-0.57c9.695,0,17.564,11.21,17.564,25.035
	c0,22.43-13.699,25.029-23.399,25.029c-0.74,0-1.39-0.07-2.04-0.199c-0.08,49.08-47.22,53.33-68.29,53.33
	c-24,0-68.23-4.25-68.23-53.451v-0.289c-1,0.39-2.33,0.6-3.65,0.6c-9.7,0-23.53-2.6-23.53-25.04c0-13.83,7.85-25.04,17.55-25.04
	c2.53,0,4.94,0.77,7.11,2.14l-0.41-5c-0.7,0.32-1.41,0.65-2.09,0.98c0.43-8.79,2-20,4.33-25.5c0.73-0.23,1.47-0.46,2.21-0.68
	c8.82-21.71,27.89-38.16,51.2-43.39c-0.2-0.97-0.3-1.97-0.3-3c0-8.25,6.68-14.94,14.93-14.94 M127.959,23.659
	c-11.59,0-21.2,8.64-22.72,19.82c-21.66,6.75-39.53,22.4-49.06,43.1c-1.61,0.85-2.9,2.23-3.63,3.94c-2.39,5.61-3.87,14.81-4.58,22.7
	c-12.87,1.87-22.57,15.62-22.57,32.84c0,19.871,9.75,31.42,27.57,32.871c0.96,9.579,3.67,18.01,8.08,25.159
	c4.93,7.979,11.99,14.36,20.98,18.979c12.01,6.16,27.3,9.15,46.76,9.15c18.15,0,33.49-3.06,45.59-9.1
	c17.8-8.88,28.17-24.11,30.29-44.33c5.81-0.66,10.61-2.439,14.56-5.38c7.48-5.58,11.28-14.78,11.28-27.351
	c0-16.289-8.69-29.479-20.54-32.419c-0.439-7.91-1.199-15.89-3.98-22.92c-0.709-1.79-2.029-3.25-3.699-4.13
	c-5.061-10.96-12.6-20.73-21.96-28.44c-8.74-7.19-18.931-12.46-29.79-15.44c-1.86-10.79-11.28-19.03-22.6-19.03L127.959,23.659z"/>
<path fill="#F4D1B0" d="M68.556,146.107c0,13.83-2.004,25.037-11.7,25.037s-23.41-2.601-23.41-25.037
	c0-13.824,7.854-25.035,17.55-25.035C60.694,121.072,68.556,132.282,68.556,146.107z"/>
<path fill="#C69C6D" d="M65.647,146.016c-0.04-3.875-0.84-8.291-2.736-12.041c-0.96-1.906-2.18-3.76-3.9-5.365
	c-1.71-1.57-4.15-2.93-6.99-2.96c-1.07,0.1-0.85,0-1.86,0.22c-0.81,0.17-1.51,0.41-2.05,0.68c-1.19,0.52-2.17,1.28-3.06,2.051
	c-1.72,1.6-3.34,3.459-4.3,5.359c-1.9,3.84-3.12,7.99-3.12,12.13v0.479c0,2.711,2.53,4.94,5.25,4.971
	c2.72,0.029,5.14-2.15,5.17-4.859c0-0.201,0.08-0.41,0.07-0.601c-0.3-2.729-0.02-5.71,0.87-8.22c0.83-2.61,2.55-4.26,3.03-4.43
	c0.29-0.15,1.09-0.121,2.07,0.529c0.95,0.66,1.93,1.74,2.74,3.01c1.67,2.65,2.66,5.62,3.03,9.2l0.02,0.14
	c0.17,1.59,1.6,2.75,3.19,2.58c1.51-0.16,2.62-1.449,2.61-2.92L65.647,146.016z"/>
<path fill="#F4D1B0" d="M187.443,146.107c0,13.83,2.005,25.037,11.701,25.037c9.695,0,23.41-2.601,23.41-25.037
	c0-13.824-7.854-25.035-17.551-25.035C195.307,121.072,187.443,132.282,187.443,146.107z"/>
<path fill="#C69C6D" d="M190.354,146.016c0.039-3.875,0.84-8.291,2.735-12.041c0.96-1.906,2.181-3.76,3.9-5.365
	c1.71-1.57,4.149-2.93,6.989-2.96c1.07,0.1,0.851,0,1.86,0.22c0.81,0.17,1.511,0.41,2.05,0.68c1.19,0.52,2.17,1.28,3.061,2.051
	c1.72,1.6,3.949,3.459,4.92,5.359c1.9,3.84,3.74,7.99,3.74,12.13v0.479c0,2.711-3.15,4.94-5.87,4.971
	c-2.72,0.029-5.45-2.15-5.48-4.859c0-0.201-0.239-0.41-0.22-0.601c0.3-2.729-0.061-5.71-0.95-8.22c-0.83-2.61-2.59-4.26-3.069-4.43
	c-0.291-0.15-1.11-0.121-2.08,0.529c-0.95,0.66-1.94,1.74-2.76,3.01c-1.671,2.65-2.66,5.62-3.031,9.2l-0.029,0.14
	c-0.17,1.59-1.6,2.75-3.189,2.58c-1.511-0.16-2.621-1.449-2.611-2.92L190.354,146.016z"/>
<path fill="#FFDDBB" d="M197.08,170.832c0,49.197-47.264,53.445-68.354,53.445c-23.997,0-68.351-4.248-68.351-53.445
	c0-49.196-5.09-112.345,68.351-112.345C202.896,58.487,197.08,121.637,197.08,170.832z"/>
<path fill="#333333" d="M57.62,117.213l3,36.776l19.333-48.45 M201.953,115.869l-4.48,38.109l-19.52-48.45"/>
<path fill="#F5F5F5" d="M112.723,146.03c0,11.243-9.11,20.354-20.352,20.354c-11.24,0-20.35-9.111-20.35-20.355
	c0-11.24,9.11-20.33,20.35-20.33c11.25,0,20.36,9.09,20.36,20.33L112.723,146.03z"/>
<path fill="#333333" d="M106.684,145.557c0,7.803-6.318,14.125-14.125,14.125c-7.8,0-14.13-6.32-14.13-14.121
	c0-7.8,6.32-14.109,14.12-14.109c7.8,0,14.12,6.32,14.12,14.119L106.684,145.557z"/>
<path fill="#F5F5F5" d="M188.346,146.03c0,11.243-9.106,20.354-20.348,20.354c-11.244,0-20.355-9.111-20.355-20.355
	c0-11.24,9.11-20.33,20.355-20.33C179.238,125.699,188.346,134.789,188.346,146.03L188.346,146.03z"/>
<path fill="#333333" d="M182.307,145.557c0,7.803-6.317,14.125-14.123,14.125c-7.8,0-14.127-6.32-14.127-14.121
	c0-7.8,6.328-14.109,14.127-14.109c7.805,0,14.123,6.32,14.123,14.119V145.557z"/>
<linearGradient id="SVGID_1_" gradientUnits="userSpaceOnUse" x1="349.9502" y1="-87.2192" x2="349.9502" y2="-76.8002" gradientTransform="matrix(7.466 0 0 -7.466 -2484.2515 -443.9204)">
	<stop  offset="0" style="stop-color:#FF5459"/>
	<stop  offset="0.789" style="stop-color:#FF6064;stop-opacity:0"/>
</linearGradient>
<path fill="url(#SVGID_1_)" d="M132.62,143.38v32.907c0,0,1.54,6.236-7.47,9.01l2.675-9.01l-3.608-34.932"/>
<path fill="#333333" d="M125.58,191.068c-1.232,0-2.38-0.791-2.77-2.027c-0.49-1.52,0.356-3.16,1.89-3.65
	c8.006-2.539,7.7-7.109,7.682-7.32l-0.021-35.229c0-1.6,2.023-2.909,3.631-2.909c1.605,0,3.628,1.31,3.628,2.909v34.91
	c0,0,0.407,9.11-12.44,13.19c-0.294,0.09-1.31,0.14-1.6,0.14V191.068z M109.178,126.18l-45.55,0.68
	c-2.908,0.046-5.3-2.272-5.347-5.184c-0.04-2.71,1.97-4.964,4.59-5.302l45.17-5.89c4.32-0.568,8.28,2.478,8.84,6.794
	c0.57,4.32-2.48,8.273-6.79,8.832c-0.29,0.044-0.6,0.062-0.9,0.07H109.178z M147.965,110.483l45.17,5.89
	c2.887,0.376,4.92,3.022,4.54,5.9c-0.35,2.69-2.659,4.633-5.3,4.587l-45.553-0.682c-4.35-0.068-7.826-3.646-7.76-7.998
	c0.067-4.354,3.646-7.828,7.996-7.765C147.361,110.421,147.67,110.445,147.965,110.483z"/>
<path fill="#FBB03B" d="M142.93,46.657c0,8.254-6.687,14.93-14.93,14.93c-8.25,0-14.93-6.676-14.93-14.93
	c0-8.247,6.68-14.935,14.93-14.935C136.243,31.722,142.93,38.41,142.93,46.657z"/>
<path fill="#4D4D4D" d="M115.313,196.123c-0.01-0.002-0.04,0.003-0.048,0.016c-0.05,0.01-0.13,0.022-0.248,0.034l-1.083,0.115
	c-0.96,0.11-2.356,0.244-3.993,0.489c-1.63,0.246-3.5,0.595-5.41,1.15c-0.95,0.286-1.91,0.625-2.86,1.032
	c-0.24,0.099-0.47,0.208-0.7,0.323l-0.17,0.085l-0.04,0.021l-0.02,0.012l0.11-0.08l-0.01,0.01l-0.1,0.064l-0.19,0.123
	c0.01-0.008,0.01-0.02,0.02-0.029c-0.11,0.006-0.34,0.197-0.54,0.417c-0.43,0.468-0.84,1.319-1.15,2.3
	c-0.3,0.984-0.52,2.092-0.66,3.205c-0.3,2.236-0.38,4.492-0.41,6.445c-0.04,1.961-0.02,3.633-0.01,4.813l0.01,1.87
	c0,0-1.67-2.21-3.3-6.02c-0.81-1.91-1.63-4.211-2.11-6.91c-0.23-1.351-0.4-2.801-0.34-4.381c0.05-1.58,0.32-3.31,1.16-5.149
	c0.45-0.92,1-1.81,1.86-2.681l0.57-0.539l0.09-0.09l0.01-0.011l0.12-0.1l0.03-0.021l0.06-0.05l0.23-0.2c0.3-0.27,0.6-0.52,0.91-0.76
	c1.23-0.98,2.55-1.8,3.88-2.46c2.66-1.319,5.3-2.021,7.56-2.36c2.27-0.33,4.16-0.31,5.5-0.189c0.67,0.05,1.21,0.13,1.59,0.189
	l0.46,0.08c0.15,0.021,0.2,0.03,0.19,0.03c2.53,0.25,4.38,2.5,4.13,5.021c-0.24,2.529-2.49,4.379-5.02,4.129L115.313,196.123z
	 M139.79,186.97c-0.01,0,0.04-0.012,0.19-0.036l0.455-0.084c0.381-0.062,0.914-0.146,1.586-0.192c1.34-0.118,3.239-0.136,5.51,0.188
	c2.26,0.331,4.91,1.032,7.56,2.354c1.33,0.65,2.65,1.47,3.88,2.449c0.32,0.24,0.62,0.49,0.92,0.761l0.23,0.19l0.061,0.049
	l0.029,0.021l0.13,0.101l0.011,0.01l0.09,0.08l0.569,0.539c0.87,0.871,1.41,1.761,1.87,2.681c0.84,1.84,1.11,3.569,1.16,5.149
	c0.061,1.58-0.109,3.03-0.34,4.371c-0.48,2.689-1.301,4.989-2.11,6.899c-1.64,3.81-3.31,6.021-3.31,6.021l0.02-1.871
	c0.01-1.18,0.04-2.859-0.01-4.819c-0.03-1.96-0.109-4.21-0.41-6.45c-0.14-1.12-0.359-2.22-0.66-3.21
	c-0.31-0.979-0.71-1.83-1.149-2.3c-0.19-0.221-0.431-0.41-0.54-0.42l0.02,0.029l-0.199-0.119l-0.101-0.07l-0.01-0.01
	c-0.03-0.021,0.21,0.16,0.11,0.08l-0.03-0.01l-0.04-0.021l-0.17-0.09c-0.23-0.12-0.461-0.23-0.711-0.33
	c-0.949-0.41-1.909-0.75-2.859-1.03c-1.91-0.561-3.779-0.91-5.41-1.15c-1.64-0.25-3.029-0.379-3.99-0.489
	c-0.459-0.05-0.83-0.091-1.08-0.11c-0.109-0.02-0.189-0.029-0.239-0.04c0-0.01-0.04-0.021-0.05-0.01
	c-2.521,0.239-4.771-1.61-5.021-4.13c-0.25-2.53,1.601-4.78,4.13-5.03L139.79,186.97z"/>
<path fill="#39B54A" d="M129.286,100.88c27.332,0,52.46,5.863,72.313,15.673c-1.908-38.25-33.554-68.674-72.313-68.674
	c-38.76,0-70.407,30.42-72.315,68.67c19.86-9.81,44.99-15.68,72.32-15.68L129.286,100.88z"/>
<path fill="#006837" d="M129.286,90.326c12.159,0,23.338,4.696,32.17,12.553c-0.849-30.64-14.927-55-32.17-55
	c-17.244,0-31.323,24.36-32.17,55c8.832-7.86,20.01-12.56,32.17-12.56V90.326z"/>
<path fill="#FCEE21" d="M129.286,82.046c-24.017,0-48.6,5.16-69.33,11.67c-2.337,5.497-3.9,16.71-4.337,25.497
	c19.85-9.81,46.33-16.333,73.66-16.333s53.14,6.023,73,15.833c-0.44-8.786-0.84-17.833-3.67-24.997
	c-20.73-6.51-45.311-11.67-69.33-11.67H129.286z"/>
</svg>
