<svg xmlns="http://www.w3.org/2000/svg" width="256" height="256" viewBox="0 0 256 256"><path d="M129.092 243.494c-10.08 0-18.937-1.342-27.067-4.102-2.193-.44-4.36-.937-6.442-1.476-.975-.252-1.78-.848-2.31-1.63-17.426-3.726-28.91-8.642-29.413-8.86-.248-.106-.484-.238-.706-.393-13.226-9.25-23.014-21.03-29.103-35.025l-2.04-2.043c-1.32-1.323-1.52-3.344-.6-4.88-12.35-36.91.19-81.582 9.4-114.38 1.29-4.588 2.51-8.92 3.6-13.024 9.34-35.02 43.29-40.24 62.7-40.24 7.3 0 12.63.74 14.03.95h1.57c.22-.38.44-.76.64-1.12.59-1.03 1.12-1.98 1.61-2.79.72-1.21 2.03-1.95 3.44-1.95s2.72.74 3.44 1.96c.49.82 1.03 1.77 1.62 2.81l.63 1.11h.82c1.4-.21 6.73-.95 14.03-.95 19.41 0 53.36 5.23 62.7 40.25 1.09 4.08 2.3 8.38 3.58 12.94 13.18 46.94 33.09 117.88-22.33 156.64-.16.12-.33.22-.5.3-.52.26-12.86 6.38-31.67 10.55-11.5 4.78-22.91 5.4-31.58 5.4zm-.722-226.99c.935 1.57 2.07 3.657 3.367 5.876h3.452s5.58-.95 13.71-.95c18.52 0 50.2 4.934 58.83 37.28 12.41 46.538 41.04 124.55-17.18 165.27 0 0-12.36 6.18-31.1 10.293-10.69 4.51-21.5 5.22-30.37 5.22-8.2 0-17.19-.935-26.03-3.972-2.15-.42-4.32-.91-6.48-1.47l2.48-.06c-.81-.34-1.61-.7-2.41-1.08-18.68-3.73-31.22-9.14-31.22-9.14-13.71-9.58-22.6-21.23-28.03-34.03l-2.58-2.58 1.12-1.12c-15.04-41.03 3.09-92.76 12.3-127.3 8.63-32.35 40.31-37.28 58.83-37.28 8.12 0 13.71.95 13.71.95h4.2c1.29-2.22 2.43-4.3 3.36-5.87m0-8c-2.82 0-5.43 1.49-6.88 3.92-.33.57-.69 1.19-1.05 1.83-2.42-.31-7.24-.81-13.34-.81-9.55 0-23.64 1.26-36.5 7.26-15.51 7.23-25.62 19.33-30.05 35.96-1.09 4.08-2.3 8.4-3.59 12.98-9.23 32.89-21.77 77.54-9.8 115.31-.78 2.7-.1 5.73 2.03 7.86l1.51 1.52c6.41 14.38 16.55 26.48 30.17 36.01.44.31.92.57 1.41.79.51.22 11.78 5.05 28.88 8.82.94.88 2.11 1.53 3.43 1.87 2.07.54 4.22 1.03 6.4 1.48 8.48 2.85 17.68 4.23 28.1 4.23 8.97 0 20.75-.64 32.79-5.56 19.09-4.27 31.72-10.53 32.25-10.79.35-.17.69-.37 1.01-.6 13.66-9.55 23.83-21.72 30.23-36.16 5.47-12.36 8.31-26.75 8.43-42.77.21-28.69-8.1-58.28-14.77-82.07-1.28-4.54-2.49-8.84-3.57-12.89-4.44-16.63-14.55-28.73-30.05-35.96-12.87-6-26.96-7.26-36.51-7.26-5.56 0-10.06.42-12.65.73-.35-.61-.69-1.2-1.01-1.74-1.44-2.42-4.06-3.91-6.88-3.91zM96.57 234.06c48.68 12.61 93.97-10.06 93.97-10.06 58.22-40.72 29.59-118.73 17.18-165.26-12.41-46.54-72.543-36.33-72.543-36.33H120.8s-60.13-10.232-72.54 36.3C35.852 105.247 7.21 183.033 65.44 223.754c0 0 49.04 21.203 97.716 8.6" fill="#333"/><path fill="#F4D1B0" d="M186.428 161.328c0 13.824 2.006 25.035 11.703 25.035s23.41-2.604 23.41-25.035c0-13.828-7.85-25.037-17.55-25.037-9.69 0-17.56 11.21-17.56 25.04z"/><path fill="#C69C6D" d="M189.338 161.23c.037-3.875.836-8.287 2.736-12.04.957-1.907 2.18-3.76 3.9-5.366 1.71-1.568 4.152-2.92 6.99-2.953 1.07.11.85.01 1.86.23.812.17 1.513.41 2.05.68 1.203.53 2.172 1.28 3.072 2.05 1.72 1.61 1.466 3.46 2.42 5.37 1.9 3.84 1.252 7.99 1.252 12.14v.48c0 2.72-.66 4.94-3.378 4.98-2.715.03-4.198-2.14-4.23-4.86 0-.19.39-.41.405-.59.3-2.73.256-5.71-.637-8.22-.824-2.61-2.43-4.25-2.906-4.43-.29-.14-1.032-.12-2.01.54-.944.66-1.897 1.75-2.71 3.01-1.664 2.65-2.644 5.62-3.013 9.2l-.02.14c-.18 1.6-1.6 2.76-3.2 2.59-1.5-.16-2.61-1.44-2.6-2.92z"/><path fill="#F4D1B0" d="M70.3 161.328c0 13.824-2.005 25.035-11.702 25.035-9.7 0-23.412-2.604-23.412-25.035 0-13.828 7.854-25.037 17.555-25.037 9.7 0 17.56 11.21 17.56 25.04z"/><path fill="#C69C6D" d="M67.39 161.23c-.042-3.875-.843-8.287-2.735-12.04-.96-1.907-2.182-3.76-3.906-5.366-1.71-1.568-4.16-2.92-6.99-2.953-1.08.11-.85.01-1.87.23-.81.17-1.51.41-2.05.68-1.2.53-2.18 1.28-3.07 2.05-1.73 1.61-2.72 3.46-3.67 5.37-1.9 3.84-2.5 7.99-2.5 12.14v.48c0 2.72 1.9 4.94 4.61 4.98 2.71.03 4.82-2.14 4.85-4.86 0-.19-.08-.41-.09-.59-.3-2.73-.1-5.71.79-8.22.82-2.61 2.51-4.25 2.99-4.43.29-.14 1.07-.12 2.04.54.95.66 1.92 1.75 2.73 3.01 1.67 2.65 2.65 5.62 3.02 9.2l.02.14c.16 1.6 1.6 2.76 3.18 2.59 1.5-.16 2.61-1.44 2.61-2.92z"/><path fill="#fdb" d="M197.443 186.05c-15.27 49.446-47.27 53.444-68.352 53.444-23.99 0-54.9-7.996-68.35-53.445 0-49.2-5.09-112.35 68.36-112.35 74.17 0 68.36 63.15 68.36 112.34z"/><path fill="#D35446" d="M139.15 222.043c0 6.158-4.99 11.154-11.15 11.154-6.157 0-11.15-4.996-11.15-11.154 0-6.156 4.993-11.152 11.15-11.152 6.16 0 11.15 5 11.15 11.16z"/><path fill="#333" d="M127.996 223.137c-13.453 0-23.992-6.87-23.992-15.633 0-1.61 1.3-2.912 2.908-2.912 1.61 0 2.91 1.3 2.91 2.912 0 5.23 8.49 9.814 18.174 9.814 9.69 0 18.18-4.586 18.18-9.814 0-1.61 1.305-2.912 2.912-2.912 1.605 0 2.908 1.3 2.908 2.912 0 8.762-10.537 15.633-24 15.633zM169.81 89.703s-11.632 48.72-109.795 50.174c0 0-21.814-70.535 50.896-86.532 0 0 63.26-9.452 58.9 36.358zm-2.912-19.633s-10.18 51.628 11.637 66.17c0 0 19.633 13.816 20.363 37.813 0 0 17.452-113.436-32-103.984zm-72.1 0s10.183 51.628-11.63 66.17c0 0-19.637 13.816-20.36 37.813 0 0-17.453-113.436 31.988-103.984z"/><path fill="#FBB03B" d="M128.85 75.644c29.64 0 44.6-23.755 70.383 25.226.52-3.49.88-7.038.88-10.68 0-18.733-7.24-35.74-19-48.52-.134.007-.26.04-.39.04-7.455 0-13.902-4.05-17.45-10.025-3.552 5.977-10 4.21-17.454 4.21-7.46 0-13.9-13.413-17.45-19.39-3.55 5.977-10 19.39-17.46 19.39-7.46 0-13.9 1.767-17.45-4.21C89.9 37.662 83.46 41.71 76 41.71c-.133 0-.26-.04-.396-.04-11.757 12.78-18.99 29.788-18.99 48.52 0 4.087.42 8.064 1.075 11.96 23.16-49.286 40.98-26.506 71.15-26.506zm-77.566 127.95L34.838 187.14l16.446-16.452 16.455 16.45zm151.242-32.908l16.45 16.455-16.453 16.45-16.45-16.45z"/><path fill="#fff" d="M138.54 53.106c0 8.965-4.337 16.236-9.69 16.236-5.355 0-9.697-7.27-9.697-16.236 0-8.97 4.342-16.24 9.697-16.24 5.353 0 9.69 7.27 9.69 16.24z"/><radialGradient id="a" cx="-816.836" cy="-52.093" r="29.998" gradientTransform="matrix(.723 0 0 .723 679.961 234.322)" gradientUnits="userSpaceOnUse"><stop offset="0" stop-color="#FF585D"/><stop offset="1" stop-color="#FF585D" stop-opacity="0"/></radialGradient><circle opacity=".7" fill="url(#a)" cx="89.143" cy="196.645" r="21.697"/><radialGradient id="b" cx="-708.758" cy="-52.093" r="29.998" gradientTransform="matrix(.723 0 0 .723 679.961 234.322)" gradientUnits="userSpaceOnUse"><stop offset="0" stop-color="#FF585D"/><stop offset="1" stop-color="#FF585D" stop-opacity="0"/></radialGradient><circle opacity=".7" fill="url(#b)" cx="167.316" cy="196.645" r="21.697"/><linearGradient id="c" gradientUnits="userSpaceOnUse" x1="1145.139" y1="734.11" x2="1145.139" y2="723.675" gradientTransform="matrix(7.466 0 0 7.466 -8424.73 -5257.445)"><stop offset="0" stop-color="#FF5459"/><stop offset=".789" stop-color="#FF6064" stop-opacity="0"/></linearGradient><path fill="url(#c)" d="M129.62 159.38v33.038s1.507 6.236-7.503 9.01l2.658-9.01-3.583-34.997"/><path fill="#333" d="M123.105 206.285c-1.234 0-2.383-.79-2.77-2.027-.492-1.53.352-3.166 1.89-3.654 8.005-2.543 7.694-7.117 7.68-7.316l-.02-35.234c0-1.605 1.26-2.906 2.87-2.906 1.602 0 2.863 1.3 2.863 2.906v34.906s1.176 9.105-11.674 13.188c-.288.092-.548.137-.84.137z"/><path fill="#F5F5F5" d="M113.45 161.248c0 11.242-9.11 20.354-20.354 20.354-11.238 0-20.352-9.11-20.352-20.354 0-11.232 9.113-20.332 20.352-20.332 11.245 0 20.354 9.1 20.354 20.332z"/><path fill="#333" d="M107.407 160.77c0 7.807-6.316 14.13-14.12 14.13-7.8 0-14.13-6.323-14.13-14.13 0-7.8 6.33-14.117 14.13-14.117 7.804 0 14.12 6.318 14.12 14.117z"/><path fill="#F5F5F5" d="M183.255 161.248c0 11.242-9.11 20.354-20.352 20.354-11.24 0-20.352-9.11-20.352-20.354 0-11.232 9.12-20.332 20.36-20.332 11.25 0 20.35 9.1 20.35 20.332z"/><path fill="#333" d="M177.216 160.77c0 7.807-6.318 14.13-14.123 14.13-7.797 0-14.13-6.323-14.13-14.13 0-7.8 6.333-14.117 14.13-14.117 7.804 0 14.123 6.318 14.123 14.117z"/></svg>