<?xml version="1.0" encoding="utf-8"?>
<!-- Generator: Adobe Illustrator 16.0.0, SVG Export Plug-In . SVG Version: 6.00 Build 0)  -->
<!DOCTYPE svg PUBLIC "-//W3C//DTD SVG 1.1//EN" "http://www.w3.org/Graphics/SVG/1.1/DTD/svg11.dtd">
<svg version="1.1" id="Layer_1" xmlns="http://www.w3.org/2000/svg" xmlns:xlink="http://www.w3.org/1999/xlink" x="0px" y="0px"
	 width="256px" height="256px" viewBox="0 0 256 256" enable-background="new 0 0 256 256" xml:space="preserve">
<path fill="#333333" d="M130.13,227.496c-31.027,0-51.676-7.86-62.966-24c-5.865,2.25-12.28,3.388-19.117,3.388
	c-9.026,0-15.556-2.024-15.83-2.112c-1.692-0.532-2.83-2.119-2.795-3.895c0.25-12.482,3.945-23.438,10.996-32.628
	c-5.438-4.88-8.188-12.56-8.188-22.931c0-12.76,6.15-23.799,14.84-27.609c-3.904-21.28,1.08-41.17,14.475-57.63
	c15.86-19.49,42.046-31.59,68.342-31.59c24.881,0,48.998,10.51,64.514,28.13c14.595,16.57,20.854,37.79,18.136,61.44
	c8.313,4.12,14.047,14.919,14.047,27.24c0,12.59-4.304,27.49-24.215,28.92c-1.897,34.381-27.39,53.24-72.237,53.24L130.13,227.496z"
	/>
<path fill="#333333" d="M129.885,32.503c43.375,0,85.332,32.96,78.533,86.292c-0.08,0.636-0.186,1.264-0.275,1.896
	c8.209,2.1,14.438,12.331,14.438,24.64c0,22.44-13.71,25.04-23.41,25.04c-0.236,0-0.465-0.01-0.689-0.02
	c-0.188,48.93-47.304,53.159-68.351,53.159c-18.173,0-48.02-2.44-61.436-24.989c-7.21,3.399-14.545,4.39-20.648,4.39
	c-8.515,0-14.626-1.92-14.626-1.92c0.307-15.3,6.154-26.08,12.82-33.45c-5.593-3.1-10.012-9.439-10.012-22.18
	c0-12.83,6.77-23.41,15.497-24.86c-0.122-0.56-0.254-1.11-0.37-1.67c-10.66-51.39,35.16-86.29,78.53-86.29"/>
<path fill="#333333" d="M129.885,24.541c-27.47,0-54.845,12.67-71.444,33.07c-6.91,8.5-11.75,18.01-14.38,28.25
	c-2.44,9.51-2.91,19.48-1.41,29.68c-8.68,5.3-14.42,16.63-14.42,29.83c0,11.199,3.11,18.5,7.02,23.26
	c-6.28,9.28-9.58,20.08-9.82,32.221c-0.07,3.549,2.21,6.719,5.6,7.789c0.75,0.24,7.56,2.301,17.03,2.301
	c6.24,0,12.16-0.891,17.68-2.641c6.98,8.73,16.91,15.061,29.6,18.881c9.81,2.939,21.19,4.379,34.81,4.379
	c18.131,0,33.451-3.06,45.561-9.069c17.91-8.9,28.32-24.21,30.4-44.55c5.209-0.771,9.57-2.5,13.199-5.2
	c7.49-5.57,11.291-14.771,11.291-27.341c0-12.84-5.42-23.959-13.801-29.439c2.1-23.73-4.56-45.07-19.369-61.89
	c-16.261-18.47-41.5-29.49-67.511-29.49L129.885,24.541z"/>
<path fill="#95ABB5" d="M66.14,153.693c0,0-31.99,10.906-32.72,47.264c0,0,27.633,8.727,47.266-10.91"/>
<path fill="#BDCCD4" d="M208.418,118.795c-5.48,43.023-35.158,78.533-78.533,78.533c-43.37,0-69.727-36.064-78.53-78.533
	c-10.66-51.39,35.16-86.292,78.53-86.292C173.26,32.503,215.217,65.463,208.418,118.795z"/>
<path fill="#F4D1B0" d="M187.471,145.328c0,13.83,2.006,25.035,11.699,25.035c9.7,0,23.41-2.6,23.41-25.035
	c0-13.826-7.855-25.037-17.551-25.037c-9.699,0.01-17.559,11.22-17.559,25.04V145.328z"/>
<path fill="#C69C6D" d="M190.377,145.234c0.04-3.875,0.844-8.291,2.738-12.041c0.957-1.906,2.18-3.76,3.9-5.366
	c1.713-1.57,4.151-2.92,6.987-2.954c1.076,0.103,0.853,0.006,1.863,0.22c0.813,0.168,1.514,0.41,2.053,0.682
	c1.19,0.527,2.17,1.28,3.06,2.053c1.721,1.607,1.44,3.46,2.4,5.367c1.891,3.845,1.23,7.988,1.23,12.134v0.47
	c0,2.71-0.641,4.94-3.36,4.971c-2.72,0.029-4.19-2.15-4.22-4.86c0-0.2,0.39-0.41,0.41-0.601c0.299-2.729,0.26-5.709-0.641-8.22
	c-0.82-2.61-2.43-4.26-2.9-4.43c-0.289-0.15-1.029-0.13-2.01,0.53c-0.949,0.66-1.899,1.74-2.72,3.01
	c-1.67,2.64-2.64,5.619-3.021,9.199l-0.01,0.141c-0.17,1.59-1.6,2.75-3.199,2.58c-1.5-0.16-2.601-1.45-2.601-2.92L190.377,145.234z"
	/>
<path fill="#F4D1B0" d="M71.338,145.328c0,13.83-2.006,25.035-11.7,25.035c-9.694,0-23.41-2.6-23.41-25.035
	c0-13.826,7.856-25.037,17.554-25.037c9.698,0.01,17.556,11.22,17.556,25.04V145.328z"/>
<path fill="#C69C6D" d="M68.432,145.234c-0.04-3.875-0.84-8.291-2.738-12.041c-0.96-1.906-2.184-3.76-3.904-5.366
	c-1.71-1.57-4.148-2.92-6.984-2.954c-1.076,0.103-0.854,0.006-1.86,0.22c-0.817,0.168-1.515,0.41-2.054,0.682
	c-1.2,0.527-2.17,1.28-3.07,2.053c-1.72,1.607-2.726,3.46-3.692,5.367c-1.89,3.845-2.51,7.988-2.51,12.134v0.47
	c0,2.71,1.92,4.94,4.637,4.971c2.717,0.029,4.833-2.15,4.868-4.86c0-0.2-0.072-0.41-0.09-0.601c-0.303-2.729-0.098-5.709,0.794-8.22
	c0.82-2.61,2.51-4.26,2.99-4.43c0.29-0.15,1.07-0.13,2.04,0.53c0.94,0.66,1.91,1.74,2.73,3.01c1.66,2.64,2.64,5.619,3.02,9.199
	l0.01,0.141c0.17,1.59,1.6,2.75,3.19,2.58c1.5-0.16,2.61-1.45,2.61-2.92L68.432,145.234z"/>
<path fill="#FFDDBB" d="M198.482,170.05c0,49.198-47.265,53.446-68.353,53.446c-23.996,0-68.352-4.248-68.352-53.445
	c0-49.19-5.09-112.34,68.352-112.34c74.17,0,68.353,63.15,68.353,112.35V170.05z"/>
<circle fill="#E57B6A" cx="128" cy="206.047" r="11.152"/>
<path fill="#BDCCD4" d="M127.95,54.807c0,0,5.579,60.828-19.636,67.618c0,0-11.63-3.636-37.81-3.636l18.663-58.17l40.963-8.73
	l-2.18,2.91V54.807z M127.705,55.777c0,0,16.488,47.987-5.816,65.437c0,0,50.65-0.48,72.95-9.207c0,0-18.43-68.59-67.15-56.23
	H127.705z"/>
<path fill="#333333" d="M127.586,207.137c-13.457,0-23.996-6.867-23.996-15.633c0-1.607,1.3-2.908,2.91-2.908
	c1.605,0,2.906,1.301,2.906,2.908c0,5.232,8.494,9.818,18.18,9.818c9.688,0,18.18-4.586,18.18-9.818
	c0-1.607,1.301-2.908,2.908-2.908c1.605,0,2.906,1.301,2.906,2.908C151.58,200.27,141.043,207.137,127.586,207.137z"/>
<path fill="#BDCCD4" d="M58.15,117.818c0,0,39.754-25.212,46.535-40.72c6.785-15.51,3.877-24.235,3.877-24.235l41.69,7.754
	l13.573,44.602l41.202,15.07c0,0-16.959-62.58-50.897-70.34c-33.933-7.76-82.403-0.01-95.98,67.86V117.818z"/>
<path fill="#95ABB5" d="M158.008,54.807c0,0,3.393,2.828,6.232,8.695c1.426,2.896,2.783,6.496,3.496,10.504
	c0.479,1.995,0.688,4.09,0.803,6.232c0.199,2.137,0.08,4.316,0,6.49c-0.23,2.156-0.51,4.308-0.82,6.417
	c-0.539,2.057-1.06,4.083-1.57,6.044c-0.68,1.9-1.43,3.7-2.09,5.4c-0.67,1.71-1.649,3.18-2.359,4.6c-1.45,2.84-3.19,4.89-4.29,6.38
	c-1.15,1.45-1.841,2.24-1.841,2.24l0.701-2.83c0.43-1.79,1.319-4.19,1.959-7.2c0.82-2.94,1.51-6.38,2.24-10.02
	c0.59-3.68,1.09-7.56,1.33-11.46c-0.08-1.96,0.21-3.9,0.09-5.82c-0.08-1.92-0.1-3.82-0.27-5.65c-0.25-3.67-0.77-7.09-1.28-10.05
	c-1.09-5.91-2.36-10-2.36-10L158.008,54.807z"/>
<path fill="#333333" d="M116.62,141.38h29v6h-29V141.38z"/>
<path fill="#BDCCD4" d="M61.537,141.092l28.6-47.99l-34.42,2.423L61.537,141.092z M200.66,141.092l-28.605-47.99l34.422,2.423
	L200.66,141.092z"/>
<radialGradient id="SVGID_1_" cx="-747.709" cy="223.1035" r="29.9832" gradientTransform="matrix(0.723 0 0 -0.723 630.7935 346.0358)" gradientUnits="userSpaceOnUse">
	<stop  offset="0" style="stop-color:#FF585D"/>
	<stop  offset="1" style="stop-color:#FF585D;stop-opacity:0"/>
</radialGradient>
<circle opacity="0.7" fill="url(#SVGID_1_)" enable-background="new    " cx="89.955" cy="184.732" r="21.697"/>
<radialGradient id="SVGID_2_" cx="-632.7173" cy="223.1035" r="29.9832" gradientTransform="matrix(0.723 0 0 -0.723 630.7935 346.0358)" gradientUnits="userSpaceOnUse">
	<stop  offset="0" style="stop-color:#FF585D"/>
	<stop  offset="1" style="stop-color:#FF585D;stop-opacity:0"/>
</radialGradient>
<circle opacity="0.7" fill="url(#SVGID_2_)" enable-background="new    " cx="173.129" cy="184.732" r="21.697"/>
<linearGradient id="SVGID_3_" gradientUnits="userSpaceOnUse" x1="991.6035" y1="-243.1792" x2="991.6035" y2="-232.7322" gradientTransform="matrix(7.466 0 0 -7.466 -7277.0195 -1609.0283)">
	<stop  offset="0" style="stop-color:#FF5459"/>
	<stop  offset="0.789" style="stop-color:#FF6064;stop-opacity:0"/>
</linearGradient>
<path fill="url(#SVGID_3_)" d="M130.62,142.38v33.126c0,0,1.144,6.236-7.867,9.01l2.477-9.01l-3.31-35.04"/>
<path fill="#333333" d="M123.604,190.287c-1.23,0-2.377-0.79-2.773-2.027c-0.48-1.527,0.37-3.162,1.9-3.65
	c8.01-2.549,7.701-7.119,7.68-7.319l-0.011-35.229c0-1.607,1.011-2.91,2.621-2.91c1.609,0,2.619,1.303,2.619,2.91v34.901
	c0,0,1.43,9.104-11.43,13.19c-0.29,0.09-0.29,0.135-0.58,0.135H123.604z"/>
<path fill="#C69C6D" d="M88.356,170.787c-9.6,0-17.898-4.076-18.375-4.313c-1.43-0.718-2.01-2.461-1.3-3.898
	c0.73-1.434,2.47-2.027,3.9-1.305c0.14,0.069,13.94,6.789,24.73,1.939c5.68-2.54,9.68-7.96,11.9-16.09
	c0.42-1.53,2.02-2.45,3.58-2.04c1.55,0.42,2.46,2.03,2.04,3.58c-2.7,9.899-7.8,16.59-15.15,19.88c-3.71,1.67-7.6,2.27-11.3,2.27
	L88.356,170.787z M170.55,170.787c-3.7,0-7.59-0.602-11.297-2.264c-7.36-3.287-12.463-9.978-15.16-19.875
	c-0.418-1.551,0.49-3.154,2.044-3.576c1.563-0.42,3.151,0.502,3.571,2.039c2.22,8.143,6.229,13.557,11.916,16.101
	c10.87,4.854,24.56-1.872,24.7-1.94c1.443-0.723,3.18-0.137,3.904,1.301c0.711,1.437,0.131,3.18-1.31,3.902
	c-0.479,0.236-8.78,4.313-18.38,4.313H170.55z"/>
<path fill="#F5F5F5" d="M114.626,145.248c0,11.244-9.105,20.357-20.348,20.357c-11.243,0-20.354-9.113-20.354-20.357
	c0-11.23,9.11-20.33,20.354-20.33C105.522,124.918,114.626,134.018,114.626,145.248z"/>
<path fill="#333333" d="M108.587,144.775c0,7.803-6.316,14.125-14.12,14.125c-7.804,0-14.128-6.322-14.128-14.125
	c0-7.801,6.32-14.117,14.12-14.117s14.12,6.316,14.12,14.117H108.587z"/>
<path fill="#F5F5F5" d="M184.434,145.248c0,11.244-9.105,20.357-20.345,20.357c-11.25,0-20.36-9.113-20.36-20.357
	c0-11.23,9.11-20.33,20.36-20.33c11.229,0,20.341,9.1,20.341,20.33H184.434z"/>
<path fill="#333333" d="M178.395,144.775c0,7.803-6.316,14.125-14.121,14.125c-7.799,0-14.129-6.322-14.129-14.125
	c0-7.801,6.33-14.117,14.129-14.117C172.077,130.658,178.395,136.975,178.395,144.775z M90.19,176.96
	c-16.04,0-29.088-13.05-29.088-29.085c0-16.037,13.05-29.085,29.088-29.085c16.035,0,29.086,13.048,29.086,29.085
	C119.276,163.91,106.226,176.961,90.19,176.96L90.19,176.96z M90.19,124.606c-12.836,0-23.27,10.437-23.27,23.27
	s10.434,23.267,23.27,23.267c12.83,0,23.27-10.436,23.27-23.268S103.02,124.605,90.19,124.606L90.19,124.606z M165.813,176.96
	c-16.037,0-29.088-13.05-29.088-29.085c0-16.037,13.051-29.085,29.088-29.085c16.035,0,29.084,13.048,29.084,29.085
	C194.896,163.91,181.85,176.961,165.813,176.96L165.813,176.96z M165.813,124.606c-12.836,0-23.27,10.437-23.27,23.27
	s10.436,23.267,23.27,23.267c12.832,0,23.269-10.436,23.269-23.268s-10.431-23.27-23.261-23.27L165.813,124.606z"/>
</svg>
