<svg xmlns="http://www.w3.org/2000/svg" width="256" height="256" viewBox="0 0 256 256"><path d="M125.224 242.813c-37.072 0-47.97-17.3-50.303-33.182-19.53-2.29-31.3-19.25-31.3-34.75V60.73c0-17.16 15.64-42.563 37.53-42.894 3.19-.664 23.07-4.647 43.53-4.647 22.83 0 46.18 4.06 49.45 4.64 22.11.28 38.51 26.11 38.51 42.89v114.15c0 16.12-15.69 34.11-37.16 34.99-3.38 21.28-20.96 32.94-50.23 32.94zm-.63-225.626c23.988 0 49.11 4.644 49.11 4.644 20.014 0 34.915 24.26 34.915 38.9v114.15c0 14.64-14.64 31.51-34.65 31.51h-1.91c-2.39 30-32.91 32.67-46.84 32.67-15.86 0-44.46-2.82-46.7-33.05-19.46-.49-30.91-16.71-30.91-31.12V60.73c0-14.646 13.94-38.897 33.96-38.897 0 0 21.34-4.64 43.01-4.64m0-8c-20.16 0-39.83 3.79-44.06 4.66-11.2.3-21.68 6.348-29.88 17.09-6.9 9.04-11.04 20.46-11.04 29.797v114.14c0 9.353 3.6 18.862 10.15 26.094 5.76 6.36 13.22 10.557 21.63 12.176 2.66 12.685 10.11 22.212 21.91 27.774 8.41 3.966 18.84 5.895 31.92 5.895 12.18 0 22.63-1.98 31.08-5.87 12.06-5.55 19.78-14.92 22.64-27.33 9.52-1.08 18.27-5.23 25.35-11.95 7.92-7.53 12.31-17.3 12.31-26.81V60.73c0-9.31-4.35-20.772-11.61-29.914-8.5-10.71-19.25-16.714-30.47-16.973-4.33-.763-27.43-4.652-49.95-4.652zm84.02 165.69c0 14.64-14.64 31.51-34.65 31.51H79.29c-20.016 0-31.67-16.862-31.67-31.5V60.728c0-14.647 13.945-38.898 33.96-38.898 0 0 21.427-4.64 43.095-4.64 23.99 0 49.07 4.642 49.07 4.642 20.015 0 34.876 24.252 34.876 38.898v114.15z" fill="#333"/><path fill="#F4D1B0" d="M164.652 185.057c0 9.514 1.38 17.22 8.043 17.22 6.672 0 16.105-1.783 16.105-17.22 0-9.503-5.404-17.21-12.076-17.21-6.665 0-12.072 7.707-12.072 17.21z"/><path fill="#C69C6D" d="M166.662 184.994c.018-2.672.568-5.705 1.877-8.278.66-1.322 1.49-2.595 2.68-3.69 1.17-1.084 2.85-2.015 4.8-2.035.73.07.57.01 1.28.16.55.11 1.03.28 1.4.46.82.37 1.5.89 2.11 1.42 1.18 1.1 2.63 2.37 3.3 3.69 1.3 2.64 2.49 5.49 2.49 8.34v.33c0 1.88-2.09 3.4-3.95 3.43-1.88.02-3.72-1.48-3.74-3.34 0-.13-.14-.28-.13-.41.2-1.87-.03-3.93-.65-5.65-.57-1.79-1.78-2.92-2.1-3.04-.19-.1-.76-.07-1.43.38-.65.46-1.34 1.21-1.9 2.07-1.16 1.83-2.12 3.86-2.12 6.32v.1c0 1.1-1.09 1.9-2.19 1.78-1.03-.11-1.78-.98-1.77-2z"/><path fill="#F4D1B0" d="M84.79 185.057c0 9.514-1.378 17.22-8.044 17.22-6.672 0-16.103-1.783-16.103-17.22 0-9.503 5.407-17.21 12.076-17.21 6.66 0 12.07 7.707 12.07 17.21z"/><path fill="#C69C6D" d="M82.79 184.994c-.023-2.672-.576-5.705-1.887-8.278-.666-1.322-1.49-2.595-2.68-3.69-1.177-1.084-2.854-2.015-4.802-2.035-.73.07-.58.01-1.28.16-.56.11-1.03.28-1.41.46-.82.37-1.49.89-2.11 1.42-1.18 1.1-2.73 2.37-3.4 3.69-1.31 2.64-2.59 5.49-2.59 8.34v.33c0 1.88 2.18 3.4 4.06 3.43 1.88.02 3.76-1.48 3.79-3.34 0-.13.16-.28.16-.41-.21-1.87.05-3.93.66-5.65.56-1.79 1.78-2.92 2.1-3.04.21-.1.76-.07 1.45.38.64.46 1.24 1.21 1.79 2.07 1.15 1.83 2.01 3.86 2.01 6.32v.1c0 1.1 1.19 1.9 2.29 1.78 1.03-.11 1.88-.98 1.88-2z"/><path fill="#fdb" d="M172.228 202.06c0 33.835-32.504 36.753-47.003 36.753-16.504 0-47.006-2.918-47.006-36.754 0-33.83-3.51-77.26 47-77.26 51.01 0 47 43.43 47 77.26z"/><path fill="#333" d="M69.383 179.722l9 26.002 13-30.33"/><path fill="#F5F5F5" d="M119.272 187.274c0 9.12-7.386 16.516-16.507 16.516-9.124 0-16.52-7.396-16.52-16.516 0-9.118 7.396-16.5 16.52-16.5 9.12 0 16.507 7.382 16.507 16.5zm45.748 0c0 9.12-7.39 16.516-16.508 16.516-9.123 0-16.517-7.396-16.517-16.516 0-9.118 7.394-16.5 16.517-16.5 9.12 0 16.507 7.382 16.507 16.5z"/><path fill="#333" d="M181.06 181.39l-8.556 24.334-13-30.33"/><path fill="#333" d="M112.378 184.675c0 5.368-4.347 9.715-9.71 9.715-5.378 0-9.725-4.347-9.725-9.715 0-5.372 4.347-9.712 9.725-9.712 5.363 0 9.71 4.34 9.71 9.712zm45.322 0c0 5.368-4.348 9.715-9.72 9.715-5.36 0-9.7-4.347-9.7-9.715 0-5.372 4.34-9.712 9.7-9.712 5.373 0 9.72 4.34 9.72 9.712zm-33.85 40.923c-12.158 0-19.784-5.4-20.258-5.74-.853-.62-1.037-1.803-.42-2.658.62-.85 1.81-1.043 2.66-.424.63.45 15.92 11.146 38.035-.16.93-.467 2.09-.104 2.562.836s.1 2.087-.84 2.562c-8.2 4.183-15.56 5.584-21.75 5.584zm-64.53-38.913s61.13-17.802 136.688 0l-7.78-69.66-83.336 3.868-47.787 15.483 2.215 50.31z"/><path fill="#ff0" d="M125.99 154.936c-41.23 0-74.772-36.6-74.772-81.584 0-2.108 1.703-3.812 3.807-3.812 2.112 0 3.814 1.704 3.814 3.812 0 40.78 30.12 73.96 67.15 73.96 37.02 0 67.15-33.18 67.15-73.96 0-2.108 1.7-3.812 3.81-3.812 2.1 0 3.81 1.704 3.81 3.812 0 44.984-33.54 81.584-74.78 81.584zm15.25-36.026c0 8.428-6.823 15.26-15.25 15.26-8.423 0-15.253-6.832-15.253-15.26 0-8.416 6.83-15.246 15.252-15.246s15.25 6.83 15.25 15.247z"/><linearGradient id="a" gradientUnits="userSpaceOnUse" x1="1145.059" y1="734.918" x2="1145.059" y2="727.998" gradientTransform="matrix(7.466 0 0 7.466 -8424.73 -5257.445)"><stop offset="0" stop-color="#FF5459"/><stop offset=".789" stop-color="#FF6064" stop-opacity="0"/></linearGradient><path fill="url(#a)" d="M127.62 187.38v21.578s1.056 4.172-4.97 6.027l1.802-6.027-2.433-23.15"/><path fill="#333" d="M122.318 218.178c-.824 0-1.59-.53-1.854-1.357-.325-1.02.24-2.11 1.268-2.44 5.353-1.7 5.147-4.76 5.138-4.89l-.013-23.56c0-1.07 1.303-1.94 2.38-1.94s2.382.87 2.382 1.95v23.35s.32 6.09-8.28 8.82c-.19.06-.83.1-1.03.1z"/></svg>