<svg xmlns="http://www.w3.org/2000/svg" width="256" height="256" viewBox="0 0 256 256"><path fill="#333" d="M167.25 115.424c-.51 0-1.023-.155-1.468-.478l-.122-.093c-1.06-.85-1.25-2.39-.426-3.468.49-.644 1.236-.983 1.99-.983.51 0 1.02.156 1.47.478l.092.07c1.067.833 1.282 2.37.476 3.46-.49.663-1.24 1.014-2.012 1.014zm-.027-2.524l.026.022-.03-.02m.02.02v.003l-.03-.003m-.03-5.02c-1.51 0-3 .68-3.98 1.966-1.65 2.16-1.27 5.24.85 6.938l.06.054.06.05.11.083c.88.63 1.89.932 2.9.932 1.55 0 3.08-.722 4.06-2.078 1.58-2.198 1.12-5.25-1.01-6.888-.05-.04-.1-.08-.14-.11-.89-.65-1.92-.96-2.94-.96l.03.01zM62.55 224.484c-1.31 0-2.405-1.018-2.493-2.332l-.4-5.842c-.09-1.364.93-2.55 2.29-2.66 4.68-.38 10.26-1.112 12.34-1.717.49-1.855 1.65-4.156 2.41-5.558.4-.73 1.13-1.21 1.95-1.29.005-.002.365-.037.96-.117-.437-1.31-.867-2.76-1.11-4.36-.096-.57-.22-1.17-.35-1.79-.31-1.47-.66-3.14-.69-4.93-.03-.46-.07-1.02-.11-1.59l-.01-.13c-1.976-1.79-4.125-3.93-5.903-6.66-2.338-3.44-3.906-7.24-4.51-10.93-.58-3.65-.34-7.53.69-11.25.766-2.75 1.917-5.45 3.426-8.04-.27-.44-.527-.88-.763-1.38-.193-.4-.44-.83-.69-1.29-.572-1.05-1.165-2.13-1.662-3.38l-.038-.1c-.08-.23-.164-.47-.25-.69h-.16c-1.304-.06-2.34-1.11-2.38-2.41l-.09-2.82-.95-.59c-.746-.46-1.19-1.29-1.173-2.17l.116-5.59-1.27-1.95c-.47-.73-.534-1.64-.16-2.43l.63-1.32-.31-.57c-.52-.97-.35-2.17.43-2.95l.464-.46-.46-1.03c-.124-.28-.2-.59-.213-.9-.34-7.24 3.38-12.71 5.09-14.82l-.14-1.25c-.14-1.31.75-2.51 2.06-2.74l.14-.02c.06-.3.12-.58.2-.83l-4.95-2.34c-.83-.4-1.38-1.22-1.43-2.15-.04-.93.44-1.8 1.24-2.27l.4-.22c-2.9-2.91-4.63-6.74-5.1-11.31-7.49-.47-9.11-6.08-9.11-10.82 0-4.16 1.72-7.74 4.35-9.562-1.42-3.32-2.55-7.15-2.29-10.59-.43-.08-.84-.28-1.19-.59-.76-.68-1.03-1.77-.67-2.73.3-.79 7.51-19.41 33.44-19.41 1.36 0 2.77.06 4.18.16.07.01.13.01.19.02 3.79.58 16.06 2.88 18.3 8.81 4.02.44 7.4 2.49 9.85 6 2.09 3.01 3.05 6.53 3.05 8.53 0 .73 0 2.84-4.48 10.74 2.02 2.01 3.26 5.19 3.26 8.63 0 6.2-2.87 9.93-8.15 10.7-.23 2.44-.82 4.67-1.77 6.66l.72.59 2.42-.44c.15-.02.3-.04.45-.04.31 0 .62.06.91.17l1.16.45 2.19-1.39c.41-.25.87-.39 1.35-.39.11 0 .22.01.33.03l3.05.41 3.18-1.89c.39-.23.83-.35 1.28-.35.04 0 2.77.12 2.77.12l1.98-.53 6.69-1.95c.23-.07.47-.1.7-.1.95 0 1.85.55 2.27 1.45.02.06.18.4.39.98l.55-.03c1.23-.08 2.48-.16 3.69-.16.28 0 .54 0 .8.01.71.02 1.41.03 2.09.03 1.4.02 2.7.03 4.01.14l5.15.53c.93.1 1.76.26 2.51.41 1.15-2.29 3.03-4.73 6.07-6.1 2.23-1.24 4.32-1.87 6.2-1.87 1.71 0 3.21.5 4.47 1.49.95.65 1.5 1.72 1.65 3.19l.69.45 22.14 3.26c3.27.48 5.54 3.54 5.06 6.8-.43 2.93-2.97 5.13-5.92 5.13-.29 0-.59-.02-.89-.06l-.18-.03-13.28-2.41c.46 1.32.35 2.66-.33 3.84-.11.37-.3.73-.55 1.06-.44.56-1.05 1-1.84 1.31.4 1.48-.01 2.69-.43 3.44-.11.36-.29.71-.53 1.03-.31.42-.72.77-1.22 1.05.02.77-.19 1.54-.61 2.25-.45 1.36-1.85 3-5.06 3.27-.39.09-1.06.2-1.97.2-1.44 0-3.72-.3-6.35-1.71-.25-.14-.48-.32-.68-.54-.61-.46-1.16-.96-1.64-1.48-.23-.17-.44-.32-.65-.44l-1.46-.9c-.9-.44-4.27-2.36-5.54-6.66-.58-.14-1.17-.29-1.81-.37l-4.32-.56c-.86-.09-1.88-.13-2.95-.16-.68-.02-1.37-.05-2.07-.09-.4-.03-.79-.03-1.18-.03-.74 0-1.49.03-2.26.06-.73.03-1.47.06-2.22.07-.68 1.33-1.52 2.63-2.51 3.88-.48.61-1.21.96-1.97.96-.13 0-.26-.01-.39-.03l-3.27-.52-2.25 3.75c-.46.78-1.29 1.22-2.14 1.22-.34 0-.68-.07-1.01-.22l-2.86-1.27-2.96 3.88c-.48.63-1.22.99-1.99.99-.25 0-.5-.03-.75-.11l-2.65-.83-2.67 2.86c1.15 5.04 2.56 15.57-1.32 28.76-.32 1.09-1.32 1.79-2.4 1.79h-.12l-.03.2c-.08.57-.15 1.12-.19 1.66l-.03.22c-.1.6-.22 1.17-.33 1.73l-.07.36c.38.82.3 1.8-.25 2.54.12.1.23.2.34.31 1.04 1.05 1.65 2.54 1.64 3.98-.03 2.9-2.34 5.35-5.06 5.35-1.3-.01-2.57-.17-3.88-.49l-.12.21 4.52 10.43.04.08c.57 1.23.6 2.63.08 3.92-.54 1.36-1.63 2.45-3 2.99-.62.25-1.27.37-1.93.37-1.81 0-3.45-.91-4.39-2.37-.01 1.39-.59 2.72-1.56 3.7l1.33.81 3.38 1.79 3.53 1.62c1.58.73 3.23 1.35 4.83 1.96.68.26 1.35.52 2 .77.88.29 1.73.58 2.56.87 1.33.45 2.61.89 3.84 1.27 1.03.312 2.01.6 2.96.87 1.12-3 4.92-4.95 5.81-5.37.57-.31 1.42-.63 2.71-1.12.29-.11.59-.16.89-.16.67 0 1.33.272 1.81.772l24.22 25.49c.46.49.71 1.14.68 1.81-.02.67-.31 1.3-.81 1.76l-2.72 2.49c-.46.43-1.07.66-1.68.66-.26 0-.52-.04-.78-.13-.65-.21-1.35-.41-2.08-.61-2.82-.79-6.28-1.75-8.63-4.13-4.05-1.02-7.87-3.25-9.18-4.06-.75.01-1.43 1.34-1.5 1.54-.2.53-.57.97-1.05 1.26-.74.44-1.53.67-2.36.67-2.06 0-4.04-1.36-6.02-4.17-1.98-.55-4.31-1.24-7.08-2.09-1.45-.46-2.92-.97-4.48-1.51-.84-.29-1.7-.59-2.57-.89-.05-.01-.09-.03-.13-.04-.69-.272-1.4-.55-2.11-.82-1.53-.59-3.11-1.2-4.73-1.92l3.62 7.24c.1.21.18.43.22.64l1.56 8.18c.14.72-.04 1.46-.49 2.02-.46.57-1.13.92-1.86.95 0 .01-37.07 1.56-37.11 1.56l-.08-.21h-.02l-.01.016zm21.594-190.47c1.282 0 2.616.05 3.998.15 0 0 14.958 2.265 16.417 7.48.11.37.19.8.26 1.276.12-.003.24-.005.36-.005 9.13 0 12.04 9.332 12.04 12.113 0 2.23-3.58 8.576-5.26 11.424 2.35 1.09 4.04 4.232 4.04 7.94 0 7.486-4.57 8.352-7.81 8.352-.08 0-.15-.013-.23-.017-.02 4.687-1.33 8.142-3.35 10.69h.1c.54 0 1.06.032 1.56.098l.37-.122 1.95 1.627 3.57-.657 2.35.91 3.25-2.08 3.91.522 3.93-2.34 3.04.135 2.35-.633 6.74-1.965s.43.93.88 2.528c.04-.002.09-.008.14-.01 2.02-.083 3.97-.292 5.87-.292.24 0 .48.003.72.01 2.12.06 4.11.01 5.97.16 1.86.19 3.56.362 5.08.52 1.51.152 2.82.524 3.9.712l.34.072c.79-2.216 2.44-5.307 5.69-6.73 1.44-.812 3.3-1.6 5.08-1.6 1.06 0 2.1.284 3 1.02.36.212.73.832.64 2.53l2.29 1.482c.04.004.08 0 .13.006L200 92.635c1.91.282 3.23 2.056 2.95 3.967-.257 1.737-1.744 2.99-3.45 2.99-.172 0-.346-.013-.52-.04-.033-.003-.08-.01-.114-.017l-16.66-3.024c-.65.95-.31 2.15.06 2.95.74 1.01.94 2.05.187 3.02 0 0 .25 1.22-3.13 1.4l-.15.01c-.23 0-.47-.02-.73-.06l-.11.3c1.55 1.37 2.36 2.86 1.3 4.21 0 0 .21 1.09-2.658 1.36.03.04.05.08.062.11.77.9 1.01 1.85.3 2.77 0 0-.09 1.64-3.14 1.82 0 0-.58.18-1.57.18-1.2 0-3.02-.26-5.16-1.41 0 0-.24-.27-.65-.66.19.23.36.38.42.43-.64-.47-1.16-.95-1.58-1.43-.32-.25-.67-.5-1.05-.72l-1.57-.97s-3.978-1.68-4.63-6.53c-.12-.02-.24-.05-.37-.08-.9-.17-1.94-.53-3.228-.69l-4.32-.55c-1.58-.17-3.35-.16-5.19-.27-.43-.03-.88-.04-1.33-.04-1.46 0-2.98.12-4.53.13-.52.02-1.05.05-1.58.09-.65 1.52-1.56 3.11-2.85 4.76l-4.93-.77-3.12 5.19-4.68-2.08-4.16 5.45-4.14-1.3-3.89 4.16-1.28-.78s4.72 12.72-.48 30.38c0 0-1.35-.39-2.35-.91v.03c0 1.79-.36 3.47-.49 5.03-.19 1.12-.45 2.18-.61 3.16l.4.4-.49.51c-.02.03-.05.06-.08.08l-.04.22c-.1.72-.27 1.4-.44 2.03 1.4 0 2.54 1.52 2.52 2.93-.01 1.4-1.16 2.88-2.56 2.88h-.02c-1.79-.01-3.44-.38-4.97-.92-.6.92-1.21 1.93-1.81 2.99l5.05 11.64c.01.02.02.07.04.08.63 1.36-.17 2.98-1.56 3.54-.34.13-.68.19-1.01.19-1.09 0-2.12-.64-2.54-1.71l-3-7.63c-.6 1.55-1.24 3.14-1.71 4.8-.06.24-.13.48-.2.72.16 1.15.33 2.3.51 3.45.02.09.03.18.03.27.08 1.29-.73 2.44-1.89 2.84-.06.36-.12.73-.15 1.1-.02.36-.04.71-.05 1.06 1.04.64 2.09 1.28 3.13 1.92l3.52 1.86c1.21.56 2.41 1.11 3.58 1.65 2.35 1.09 4.78 1.94 7.02 2.82 2.31.77 4.47 1.55 6.5 2.17 1.77.53 3.4 1.01 4.9 1.44.5-.54.89-1.11 1.02-1.69.54-2.44 4.67-4.37 4.67-4.37l.01.02c-.04-.09 2.49-1.06 2.49-1.06l24.23 25.48-2.72 2.48c-3.26-1.07-7.88-1.76-10.18-4.64l.01.02c-4.77-1-9.6-4.18-9.6-4.18-.32-.08-.62-.11-.9-.11-2.65 0-3.84 3.16-3.84 3.16-.35.21-.71.32-1.07.32-1.51 0-3.09-1.7-4.47-3.83-2.21-.61-4.88-1.39-7.9-2.32-2.17-.68-4.51-1.53-6.98-2.37-2.46-.99-5.07-1.92-7.71-3.15-1.32-.62-2.66-1.24-4.02-1.88l-.5-.27c.28 1.14.68 2.19 1.03 3.19.16.44.3.86.44 1.28l2.82 5.63 1.56 3.12 1.56 8.18-37 1.56-.39-5.84s14.41-1.17 14.41-2.73 2.34-5.84 2.34-5.84 1.76-.17 4.03-.62c-.12-.39-.25-.78-.4-1.18-.57-1.69-1.23-3.51-1.55-5.55-.33-2.03-.97-4.12-1.01-6.39-.05-.94-.13-1.89-.19-2.85-2.25-2.01-4.47-4.14-6.23-6.85-1.99-2.93-3.55-6.37-4.14-9.97-.57-3.6-.2-7.14.64-10.18.85-3.05 2.1-5.66 3.43-7.87.19-.31.38-.6.58-.9-.53-.72-1.07-1.49-1.49-2.38-.73-1.44-1.64-2.89-2.29-4.53-.26-.76-.57-1.52-.87-2.29l-1.79-.08-.13-4.14-2.07-1.3.13-6.36-1.69-2.6 1.16-2.47-.9-1.69 1.68-1.68-1.17-2.6c-.39-8.18 5.19-13.89 5.19-13.89l-.26-2.33 2.02-.36c.02-.91.1-1.7.3-2.31l2.13-1.27-8.41-4c1.38-.81 2.62-1.39 3.86-1.83-4.15-2.52-7.46-6.89-7.46-14.43v-.26c0 .24-.76.36-1.35.36-3.23 0-7.63-.86-7.63-8.35 0-4.29 2.27-7.82 5.19-8.29-1.84-3.69-4.49-10.31-2.4-14.5 0 0 .47-.72-.22-.72-.39 0-1.13.23-2.52.92 0 .01 6.61-17.77 31.1-17.77M74.22 103v-.004.004m4.164 33.85l.2-.34-.35-.43.15.76m.43 5.13l.01-.05-.3-.82v-.01l-.06-.03c.11.3.223.6.35.89m2.58 33.83l.016-.07c-.06-1.08-.122-2.16-.19-3.24-.07-1.46-.143-2.92-.216-4.38l-.31.05-.575 3.17c.02.34.04.69.1 1.03.19 1.14.6 2.28 1.17 3.41"/><path fill="#333" d="M84.14 29c-27.65 0-35.47 20.18-35.79 21.04-.713 1.925-.18 4.09 1.35 5.463.11.1.224.194.34.28.09 2.795.834 5.67 1.824 8.315C49.474 66.56 48 70.255 48 74.402c0 7.27 3.377 11.884 9.392 13.057.673 3.75 2.116 6.67 3.863 8.94-.476.81-.72 1.76-.677 2.74.083 1.85 1.183 3.5 2.858 4.29l1.81.85c-.535.9-.79 1.98-.666 3.1l.028.26c-2.07 2.82-5.327 8.46-4.983 15.65.022.46.11.92.258 1.36-.84 1.32-1.016 2.98-.45 4.47l-.11.23c-.74 1.56-.616 3.4.33 4.85l.85 1.31-.1 4.82c-.033 1.68.783 3.27 2.164 4.22l.048 1.49c.066 2.05 1.367 3.79 3.19 4.5.512 1.21 1.092 2.27 1.61 3.22.228.41.452.82.66 1.23l.125.25c-1.28 2.4-2.272 4.86-2.968 7.36-1.126 4.06-1.387 8.32-.756 12.3.663 4.06 2.36 8.19 4.91 11.96 1.642 2.51 3.588 4.58 5.545 6.42.02.23.03.47.05.7.05 1.99.42 3.75.74 5.3.13.6.25 1.16.34 1.69.12.76.27 1.49.45 2.18-.82.45-1.51 1.13-1.97 1.98-.95 1.74-1.67 3.29-2.16 4.64-2.33.46-6.59 1.01-10.59 1.34-2.72.22-4.77 2.59-4.58 5.31l.39 5.84c.18 2.63 2.37 4.66 4.99 4.66.08 0 .15 0 .22-.01l37-1.55c1.45-.06 2.81-.75 3.71-1.89.9-1.14 1.26-2.62.99-4.04l-1.56-8.18c-.09-.45-.23-.89-.44-1.3l-.67-1.34.72.27c.09.03.17.06.26.09.87.29 1.72.59 2.56.88 1.57.55 3.06 1.07 4.53 1.53 2.44.74 4.52 1.36 6.33 1.88 1.47 1.93 4.03 4.49 7.54 4.49 1.28 0 2.54-.36 3.65-1.03.79-.48 1.38-1.02 1.78-1.75 1.83 1 4.51 2.3 7.41 3.11 2.73 2.47 6.29 3.46 9.23 4.28.72.19 1.4.39 1.98.58.51.16 1.03.24 1.55.24 1.23 0 2.44-.47 3.38-1.32l2.71-2.49c.99-.91 1.57-2.17 1.62-3.51s-.45-2.65-1.37-3.62L131.5 186.8c-.96-1.01-2.28-1.557-3.62-1.557-.596 0-1.2.11-1.78.33-1.105.42-2.01.764-2.755 1.14l-.08.04c-1.1.52-4.1 2.09-5.98 4.69l-1.06-.315c-1.15-.35-2.4-.78-3.73-1.23-.814-.28-1.65-.57-2.51-.85-.64-.254-1.293-.504-1.96-.76-1.556-.593-3.166-1.21-4.664-1.9l-1.78-.82-.18-.08c.5-.09.99-.23 1.47-.415 2.01-.79 3.61-2.39 4.41-4.38.77-1.94.72-4.03-.14-5.9l-.04-.07-2.86-6.59h.07c4.06 0 7.52-3.59 7.56-7.83.02-1.72-.55-3.43-1.58-4.84.14-.71.12-1.46-.05-2.17.1-.49.2-.99.29-1.51.03-.15.05-.29.06-.44l.01-.04c1.24-.59 2.22-1.69 2.64-3.1 3.71-12.61 2.76-22.97 1.64-28.7l.71-.76 1.14.36c.49.16 1 .23 1.5.23 1.53 0 3.01-.7 3.98-1.97l1.76-2.31 1.06.47c.65.29 1.35.43 2.03.43 1.71 0 3.36-.88 4.3-2.43l1.38-2.3 1.6.26c.28.04.53.06.78.06 1.52 0 2.98-.69 3.93-1.91.76-.96 1.43-1.95 2.03-2.96l.83-.03c.78-.03 1.49-.06 2.16-.06.38 0 .71.01 1.01.03.78.04 1.47.07 2.17.09 1.01.03 1.96.07 2.78.15l4.26.55.23.03c1.72 4.11 4.97 6.08 6.23 6.71l1.36.84c.1.06.19.13.3.2.49.52 1.04 1.01 1.63 1.46.35.36.74.64 1.18.88 3.09 1.66 5.8 2.01 7.53 2.01 1 0 1.79-.11 2.34-.22 3.84-.37 6.13-2.45 6.98-4.72.33-.61.56-1.24.69-1.9.31-.27.59-.57.86-.92.35-.47.63-.99.83-1.53.47-.91.77-1.96.79-3.09.41-.31.8-.69 1.15-1.13.38-.49.67-1.03.88-1.59.31-.58.53-1.19.66-1.82l10.19 1.85.28.05c.41.06.83.09 1.24.09 4.17 0 7.78-3.12 8.39-7.26.68-4.63-2.53-8.96-7.17-9.64l-21.02-3.09c-.5-1.66-1.43-2.7-2.35-3.34-1.68-1.29-3.73-1.97-5.94-1.97-2.29 0-4.75.72-7.32 2.13-2.87 1.32-4.86 3.41-6.23 5.56-.31-.04-.63-.08-.96-.12l-3.35-.34-1.72-.17-.1-.01c-1.39-.12-2.81-.13-4.18-.14-.67-.01-1.35-.02-2.06-.04-.27-.01-.56-.01-.85-.01-.9 0-1.8.04-2.67.09-.92-1.46-2.53-2.32-4.22-2.32-.46 0-.93.07-1.4.2l-6.62 1.93-.01.01-1.6.43-2.28-.1h-.22c-.9 0-1.79.25-2.56.71l-2.44 1.45-2.18-.29c-.22-.03-.44-.04-.66-.04-.95 0-1.89.28-2.7.79l-1.11.73c-.58-.22-1.18-.33-1.79-.33h-.05c.19-.71.35-1.45.48-2.2 5.32-1.54 8.39-6.07 8.39-12.77 0-3.41-1-6.55-2.73-8.93 3.95-7.23 3.95-9.35 3.95-10.44 0-5.21-4.18-14.94-13.72-16.8-1.74-2.98-5.37-5.25-11.21-7.06-4.23-1.32-8.23-1.93-8.39-1.96-.13-.02-.25-.03-.38-.04-1.47-.11-2.94-.16-4.37-.16L84.14 29z"/><path fill="#F2C49C" d="M174.188 114.366s-2.83.867-6.74-1.234c0 0-1.187-1.37-2.86-2.396l-1.57-.966s-8.137-3.438-3.038-14.65c0 0 1.547-10.52 10.912-9.988l11.98 7.743-8.684 21.49zm3.136-1.813s-.088 1.64-3.14 1.813c-3.042.176-9.212-4.172-9.212-4.172s-1.894-2.643 1.1-4.728c0 0 .324-.67 1.933-.384 1.6.287 11.944 4.075 9.32 7.47z"/><path fill="#C69C6D" d="M166.605 104.753s-1.242 1.313.43 2.36c.87.548 8.447 3.48 9.89 2.874 1.438-.607-10.32-5.234-10.32-5.234z"/><path fill="#F2C49C" d="M179.63 108.313s.24 1.21-3.133 1.394c-3.373.178-10.22-4.59-10.22-4.59s-2.104-2.898 1.205-5.165c0 0 .354-.737 2.132-.415 1.773.323 12.913 5.07 10.016 8.776z"/><path fill="#C69C6D" d="M165.03 98.373s2.776 1.45 3.933.484c1.158-.963 5.773-8.763 5.115-10.626-.656-1.86-3.055.85-3.055.85l-5.994 9.3zm.21.092s-2.72-2.114-2.295-3.556c.424-1.45 5.742-8.79 7.714-8.92 1.97-.14.43 3.13.43 3.13l-5.86 9.34h.01z"/><path fill="#F2C49C" d="M167.27 91.493s-3.73-.667-3.514-3.875c0 0 6.784-5.647 10.75-2.262"/><path fill="#C69C6D" d="M174.193 101.408c1.88.97 3.85 2.226 4.972 3.542-2.668-.14-9.813-3.44-10.353-3.785-.79-.52-.79-1.214-.707-1.623.21-.063.48-.1.836-.084 1.08.377 3.16 1.12 5.26 1.95zm-6.94 11.517s-2.584-1.872-.43-5.898l.13-1.457s-.434-.81.018-2.148c.45-1.336.25-2.033 1.73-2.625l.27-1.338s-2.94-.74-3.29 3.96c-.35 4.7-1.63 4.13-1.63 4.13s-.21 2.88 3.25 5.37h-.04z"/><path fill="#F2C49C" d="M177.486 89.32l22.518 3.315c1.91.282 3.23 2.056 2.95 3.967-.28 1.91-2.056 3.236-3.97 2.95-.033-.003-.08-.01-.114-.017l-22.394-4.064c-1.69-.3-2.814-1.92-2.51-3.62.3-1.65 1.86-2.76 3.512-2.53h.008zm5.27 10.99s-2.775-3.855 1.336-4.963l-6.678.367 5.342 4.596z"/><path fill="#C69C6D" d="M173.46 93.067c.67-1.73-6.56 5.998-6.56 5.998l-.04 2.053s3.655-.787 10.454 2.612c0 0 .156-4.182 3.21-4.702 0 0-4.19-.568-5.56 1.54"/><path fill="#C69C6D" d="M181.107 95.905s-1.49-1.41-.025-4.64l-1.316-.398s-2.598 4.278-1.354 5.984c0 0 1.514 2 2.576 1.64 0 0 .03-1.92.41-2.29l-.29-.29zm-3.587-4.62s-3.074-.135-6.076 3.97l3.12-5.406s1.536-.65 2.958 1.43h-.002zm-11.836 7.402s-5.73.084-6.363 4.697c0 0-.38-5.857 2.9-6.588 3.32-.734 3.48 1.89 3.48 1.89h-.01zm25.936-.835s-2.52-3.28.32-6.188c0 0-2.6-.073-2.456 3.2.142 3.27 2.137 2.988 2.136 2.988z"/><path fill="#F2C49C" d="M182.462 102.47s.242 1.213-3.13 1.396c-3.37.183-10.223-4.59-10.223-4.59s-2.11-2.9 1.18-5.165c0 0 .36-.74 2.13-.42s12.91 5.07 10.01 8.77v.01h.02z"/><path fill="#C69C6D" d="M174.234 93.78c1.883.97 6.643 4.014 7.766 5.33-2.676-.134-9.82-3.44-10.35-3.783-.79-.524-.795-1.217-.713-1.624.21-.06.48-.098.84-.08 1.073.372.366-.673 2.457.157z"/><path fill="#E8C4A6" d="M172.4 95.29s-1.075.01-2.72 4.66l-1.708-.365.012-1.662 2.328-3.814 2.086 1.18h.002z"/><path fill="#F2C49C" d="M173.9 85.205s1.46-.396 1.142 2.967c-.315 3.36-6.046 9.433-6.046 9.433s-3.176 1.65-4.93-1.95c0 0-.678-.464-.096-2.17.58-1.713 6.702-11.696 9.93-8.28z"/><path fill="#fff" d="M168.693 95.948s.09 1.313-1.063 1.208c-1.14-.105-2.58-.87-2.09-1.876 0 0-.08-.76.98-.77 1.06-.018 2.19 1.437 2.19 1.437h-.017z"/><path fill="#87151D" d="M67.62 145.907l2.853.134-.132-3.89-2.72 3.76zm69.97-56.994s4.936 8.052-2.593 17.658l-7.66-5.84 10.253-11.81z"/><path fill="#03141E" d="M110.46 95.015s5.452 10.904 1.167 17.917c-4.284 7.01-9.93-5.063-9.93-5.063l8.762-12.86z"/><path d="M105.296 154.54l-.488.507c-.26.275-.664.71-1.227 1.373-1.09 1.266-2.62 3.206-4.23 5.663-.8 1.23-1.65 2.584-2.43 4.073-.87 1.445-1.52 3.082-2.32 4.727-.64 1.69-1.37 3.436-1.88 5.252-.48 1.825-1.06 3.663-1.27 5.555-.14.94-.33 1.88-.43 2.817l-.12 2.81c-.2 1.86.1 3.688.19 5.447.01 1.783.59 3.438.84 5.037.23 1.62.81 3.08 1.28 4.43.52 1.36.78 2.65 1.36 3.67.53 1.07.98 1.98 1.36 2.74l1.17 2.4-9.83 5.58-1.42-2.91c-.44-.93-.99-2.06-1.61-3.35-.67-1.27-1.05-2.89-1.66-4.56-.57-1.69-1.24-3.5-1.55-5.55-.33-2.03-.97-4.13-1.01-6.39-.12-2.25-.42-4.57-.18-6.92l.2-3.56c.13-1.18.37-2.35.55-3.53.31-2.38 1.01-4.64 1.64-6.89.66-2.23 1.54-4.34 2.35-6.39.96-1.97 1.79-3.93 2.83-5.65.95-1.77 1.97-3.36 2.94-4.81 1.94-2.9 3.75-5.18 5.13-6.73.66-.76 1.26-1.41 1.7-1.86.39-.38.59-.59.59-.59l7.59 7.66-.06-.04v-.01zm-14.152-2.272s-.222.186-.646.523c-.44.37-1.112.96-1.923 1.75-1.624 1.57-3.873 4-5.775 7.16-1.875 3.15-3.185 7-2.575 10.69.315 1.86 1.157 3.72 2.41 5.55 1.178 1.86 3.06 3.54 4.93 5.2 1.052.76 2.06 1.56 3.146 2.29 1.14.7 2.26 1.39 3.38 2.08l3.52 1.87c1.21.56 2.41 1.1 3.59 1.65 2.36 1.09 4.79 1.94 7.02 2.82 2.32.77 4.47 1.55 6.51 2.18 4.1 1.23 7.54 2.2 9.98 2.78 2.44.62 3.83.98 3.83.98l-2.63 10.99s-1.45-.38-4-1.04c-2.55-.62-6.18-1.67-10.52-3-2.17-.68-4.5-1.53-6.98-2.37-2.45-.98-5.06-1.91-7.7-3.14l-4.02-1.87-4.06-2.18c-1.35-.79-2.69-1.67-4.05-2.52-1.33-.91-2.64-1.93-3.95-2.91-2.52-2.22-5.06-4.52-7.03-7.55-1.99-2.94-3.55-6.37-4.13-9.98-.57-3.6-.21-7.14.63-10.18.85-3.05 2.1-5.66 3.43-7.86 2.69-4.4 5.54-7.36 7.61-9.36 1.04-.99 1.89-1.74 2.51-2.25l1-.8 6.55 8.57-.05-.07zm48.008 61.395l.01.02c-4.778-.99-9.604-4.182-9.604-4.182-3.29-.83-4.76 3.04-4.76 3.04-4.33 2.6-9.69-12.03-9.69-12.03s4.98-2.31 5.52-4.77c.54-2.44 4.67-4.37 4.67-4.37l.01.02c-.07-.08 2.49-1.05 2.49-1.05l24.22 25.5-2.72 2.48c-3.26-1.06-7.89-1.76-10.18-4.63l.03-.02h.004zm-60.242-6.087s8.18-.778 12.072-3.506l2.34-1.16 3.115 6.23 1.558 3.12 1.56 8.19-37 1.56-.392-5.84s14.41-1.17 14.41-2.72c0-1.56 2.337-5.844 2.337-5.844v-.03zm18.764-107.84s.32.93.89 2.55c.542 1.588 1.24 3.816 2.022 6.516.76 2.697 1.607 5.854 2.354 9.3.79 3.43 1.445 7.167 1.976 10.966.537 3.79.832 7.697.964 11.42-.02 1.896-.038 3.728-.06 5.463l-.4 5.03c-.27 1.6-.51 3.07-.722 4.37-.18 1.29-.595 2.48-.832 3.43l-.86 3-27.656-9.68s.214-.39.6-1.08c.186-.37.52-.7.72-1.37.25-.63.54-1.34.85-2.11l.8-2.91.673-3.59c.33-2.62.605-5.55.648-8.6.05-3.05-.01-6.2-.25-9.19-.19-2.98-.52-5.79-.82-8.2-.33-2.4-.64-4.41-.89-5.77l-.26-1.5c-.07-.38-.12-.58-.12-.58l20.39-7.43-.01-.02v-.01z"/><path fill="#F2C49C" d="M88.666 105.524l3.02-1.4c1.908-.87 4.64-2.014 7.954-3.305 3.333-1.24 7.23-2.68 11.51-3.94 2.122-.68 4.36-1.25 6.624-1.86 2.266-.62 4.625-1.07 6.95-1.62 2.362-.43 4.723-.88 7.07-1.22 2.368-.26 4.674-.64 6.96-.76 2.286-.1 4.477-.35 6.596-.28 2.11.05 4.11 0 5.97.16 1.86.19 3.56.36 5.07.51 1.51.15 2.82.52 3.9.71l3.41.7-2.9 10.54s-1.02-.23-2.8-.64c-.9-.18-1.95-.53-3.23-.69l-4.31-.56c-1.59-.18-3.35-.17-5.2-.27-1.84-.12-3.83.07-5.86.09-2.04.05-4.16.35-6.31.52-2.16.26-4.34.62-6.53.95-2.18.45-4.37.8-6.51 1.33-2.14.51-4.25.99-6.26 1.58-4.06 1.07-7.78 2.34-10.96 3.43-3.17 1.13-5.78 2.15-7.57 2.9l-2.77 1.2-3.86-8.12.036.04zm-11.126 63.2s-1.803-.94-2.014-4.384c0 0-.907-1.918-.907-3.44v-1.433s-.36-6.78 9.12-7.994c0 0 7.92-3.268 11.4 3.127l-.05 11.074-17.56 3.05h.01zm12.274-13.91s-1.083-2.744 1.125-3.907c0 0 6.5 2.176 5.88 6.18"/><path fill="#F2C49C" d="M85.93 164.042c.31 2.81.53 5.627.79 8.435.21 2.818.47 5.637.64 8.453.1 1.564 1.45 2.754 3.01 2.655 1.56-.1 2.76-1.448 2.65-3.01l-.03-.27c-.44-2.79-.81-5.596-1.22-8.39-.36-2.8-.75-5.604-1.07-8.407-.14-1.32-1.35-2.28-2.67-2.13-1.32.15-2.28 1.34-2.14 2.67l.04-.01v.004zm5.01-1.526l6.46 16.45c.55 1.396 2.14 2.07 3.54 1.52 1.39-.55 2.19-2.17 1.56-3.53-.02-.023-.03-.06-.04-.08l-7.03-16.216c-.54-1.23-1.98-1.78-3.2-1.25-1.2.51-1.78 1.9-1.31 3.1h.02v.006zm-.63 6.125s1.41-3.41 3.82-1.14l-2.97-4.25-.85 5.39v.01-.01zm-9.48-4.18c.09 2.69.25 5.37.38 8.05.16 2.69.3 5.37.5 8.05.1 1.41 1.32 2.48 2.73 2.36 1.39-.1 2.43-1.29 2.36-2.68-.15-2.68-.35-5.36-.52-8.03-.22-2.68-.39-5.35-.64-8.02-.13-1.33-1.3-2.31-2.63-2.19-1.28.12-2.24 1.23-2.2 2.49h.02v-.02zm-3.78-3.27L75 176.59c-.14 1.12.64 2.143 1.76 2.29 1.08.144 2.08-.593 2.28-1.66l2.79-15.296c.236-1.31-.633-2.57-1.95-2.81-1.313-.24-2.567.606-2.812 1.93-.006.026-.008.08-.01.106l-.01.01.002.01v.012zM91.69 158c.945.77 1.8 1.36 2.74 1.95.938.58 1.91 1.107 2.933 1.58 2.037.92 4.31 1.647 6.85 1.67 1.407.01 2.558-1.463 2.57-2.87.013-1.41-1.118-2.923-2.526-2.923h-.065c-1.494 0-3.177-.06-4.792-.77-.814-.35-1.62-.96-2.404-1.43-.762-.44-1.582-.79-2.197-1.79h-.08c-1.05 0-2.58-.24-3.41.82-.82 1.05-.65 2.95.37 3.79l.01-.01v-.02zm11.606.18s.22 1.09-.364 1.57c0 0 1.293.76 2.02.157.732-.61.387-1.4.387-1.4s-.85-.47-2.05-.34v.023-.01z"/><path fill="#333" d="M135.256 144.738"/><path fill="#F2C49C" d="M81.188 113.72s-.094.162-.258.463c-.128.234-.33.627-.61 1.222-.544 1.14-1.27 2.852-1.912 4.976-.34 1.06-.633 2.22-.89 3.46-.31 1.24-.4 2.56-.613 3.91-.017 1.36-.253 2.78-.106 4.19l.09 2.13.33 2.11c.13 1.43.64 2.76.98 4.11.34 1.35 1.03 2.57 1.49 3.81.52 1.23 1.3 2.3 1.87 3.38.53 1.1 1.41 1.96 2.02 2.85.68.86 1.2 1.7 1.88 2.3.63.65 1.17 1.21 1.62 1.66l1.41 1.46-7.54 7.94-1.7-1.87c-.54-.6-1.2-1.31-1.95-2.14-.79-.78-1.48-1.89-2.3-3.02-.76-1.17-1.77-2.3-2.47-3.78-.73-1.43-1.64-2.89-2.29-4.53-.59-1.68-1.39-3.34-1.81-5.15-.42-1.82-.97-3.64-1.11-5.53l-.32-2.81c-.02-.93-.02-1.86-.03-2.79-.09-1.85.22-3.64.34-5.38.31-1.7.52-3.38.95-4.9.37-1.54.8-2.97 1.27-4.26.89-2.6 1.86-4.67 2.62-6.12.36-.7.7-1.31.96-1.75.22-.37.35-.56.35-.56l7.66 4.69.06-.04v-.03z"/><path d="M81.055 102.024s-5.455-1.945-7.596 2.143c-2.15 4.09-7.8 15.386-7.8 15.386s10.51 5.063 20.06 2.92"/><path fill="#C69C6D" d="M76.962 95.015s.78 8.178 7.014 16.358l14.02-6.23-8.18-13.632"/><path d="M80.857 106.698s.39 4.48 12.075-3.114l2.726-3.505s6.232-5.07 14.8-5.07c0 0-6.233 7.98 1.17 17.91l-18.89 15.78-12.66-12.86.78-9.15z"/><path fill="#C1272D" d="M137.59 88.913s-7.267 13.504-2.593 17.658l-4.935-.77-3.112 5.2-4.676-2.08-4.157 5.46-4.15-1.3-3.897 4.16-1.3-.77s4.678 12.73-.52 30.38c0 0-10.904-4.94-28.04-3.64l-.777.39-.91-2.47.065-1.94-.78-1.36.78-1.3-1.168-1.42 1.037-1.69-1.234-1.56 1.348-4.23-.82-2.14.39-2.51-2.86-8.56-.51-7.14s-3.5-5.85 3.77-6.1l4.68 6.11s-3.37 11.3 2.6 27.53c0 0-4.54-22.07 2.21-28.17 0 0 1.17-6.23 8.31-7.66l10.33-5.51 1.95 1.63 3.57-.66 2.34.91 3.25-2.08 3.89.52 3.9-2.34 2.99.14 9.09-2.6-.06-.08z"/><path fill="#87151D" d="M76.835 95.925s-5.19-.52-11.162 2.984l17.62 8.37-6.458-11.36z"/><path fill="#C1272D" d="M72.55 106.312l-2.984.52.258 2.336s-5.583 5.71-5.192 13.89l1.168 2.6-1.685 1.686.907 1.688-1.168 2.47 1.688 2.6-.13 6.36 2.076 1.3.133 4.16s7.21-6.13 10.76-4.88c.35.12.67.32.93.6"/><path d="M74.188 102.806s4.966 23.807 11.003 40.165l-4.33.15s-11.29-31.55-8.96-38.95l2.29-1.36z"/><path fill="#E2B593" d="M104.28 74.394c0 4.612.668 8.35 3.902 8.35 3.237 0 7.81-.865 7.81-8.35 0-4.612-2.622-8.355-5.855-8.355-3.236 0-5.857 3.74-5.857 8.35z"/><path fill="#C69C6D" d="M105.25 74.36c.01-1.292.28-2.762.914-4.014.32-.638.727-1.254 1.302-1.792.57-.52 1.383-.975 2.33-.986.357.033.287.003.623.07.27.06.5.14.68.23.4.178.72.426 1.02.686.57.537.11 1.154.43 1.792.63 1.282.05 2.663.05 4.048v.158c0 .907.14 1.65-.77 1.66-.91.015-1.22-.713-1.22-1.62 0-.062.21-.132.22-.197.1-.914.13-1.906-.17-2.74-.28-.876-.79-1.423-.95-1.48-.1-.052-.34-.043-.66.176-.32.22-1.41.59-1.68 1.01-.56.88-1.79 1.87-1.79 3.07v.04c0 .53.25.92-.28.86-.51-.06-.1-.49-.09-.98l.04.02v-.01z"/><path fill="#E2B593" d="M64.722 74.394c0 4.612-.67 8.35-3.905 8.35-3.232 0-7.81-.865-7.81-8.35 0-4.612 2.622-8.355 5.856-8.355 3.237 0 5.86 3.74 5.86 8.35z"/><path fill="#F2C49C" d="M107.954 82.64c0 16.412-15.768 17.832-22.805 17.832-8.01 0-22.81-1.42-22.81-17.83 0-16.413-1.7-37.48 22.8-37.48 24.74 0 22.8 21.067 22.8 37.48l.01-.002z"/><path d="M112.238 65.217l-4.153 11.807-6.308-14.72"/><path fill="#F5F5F5" d="M80.93 68.134c0 3.75-3.035 6.79-6.787 6.79-3.75 0-6.79-3.04-6.79-6.79 0-3.747 3.04-6.783 6.79-6.783 3.752.01 6.787 3.04 6.787 6.79z"/><path fill="#333" d="M78.917 67.976c0 2.604-2.104 4.712-4.71 4.712-2.602 0-4.714-2.108-4.714-4.712 0-2.603 2.112-4.712 4.713-4.712 2.607 0 4.71 2.11 4.71 4.712z"/><path fill="#F5F5F5" d="M101.105 68.134c0 3.75-3.04 6.79-6.787 6.79-3.754 0-6.795-3.04-6.795-6.79 0-3.747 3.04-6.783 6.795-6.783 3.747.01 6.787 3.04 6.787 6.79z"/><circle fill="#333" cx="94.377" cy="67.976" r="4.712"/><path fill="#333" d="M82.92 86.62c-.153 0-.316-.025-.473-.073-4.773-1.52-4.32-4.818-4.298-4.956l3.14-12.28c.21-.83 1.07-1.33 1.89-1.12.83.21 1.33 1.07 1.12 1.9l-3.1 12.13c.04.07.49.82 2.19 1.36.82.26 1.27 1.14 1.01 1.96-.21.66-.83 1.09-1.49 1.09l.01-.01zm.62 4.867c-.664 0-1.318-.065-1.958-.195-5.32-1.056-7.698-6.135-7.795-6.348-.357-.786-.013-1.708.77-2.067.777-.357 1.704-.02 2.063.767.018.037 1.844 3.868 5.596 4.6 3.205.603 7.03-1.083 11.332-5.09.636-.588 1.617-.55 2.205.08.587.628.553 1.617-.078 2.202-4.328 4.022-8.402 6.05-12.135 6.05zm4.72-32.56c-.053.042.954-.683 2.48-1.404.748-.414 1.684-.727 2.673-1.146.508-.177 1.042-.322 1.59-.486.545-.14 1.085-.35 1.665-.42 1.158-.14 2.305-.47 3.432-.42 1.12.03 2.192-.11 3.09.09l3.03.55c1.537.28 2.555 1.75 2.274 3.28-.277 1.54-1.745 2.57-3.284 2.28-.132-.02-.258-.05-.38-.09l-.48-.16-2.076-.7c-.62-.27-1.433-.24-2.27-.41-.842-.2-1.79-.03-2.73-.07-.475-.03-.943.1-1.41.15-.47.07-.934.14-1.378.2-.874.24-1.733.37-2.417.64-1.42.43-2.21.85-2.27.86-.75.43-1.7.17-2.12-.58-.43-.74-.18-1.69.58-2.12v-.04z"/><path d="M104.817 42.922c-.068-.477-.152-.908-.255-1.278-1.46-5.214-16.417-7.477-16.417-7.477C60.37 32.104 53.05 51.794 53.05 51.794c3.884-1.944 2.75-.204 2.75-.204-3.03 6.066 3.88 17.224 3.88 17.224l.293-.472c.27.348.58.728 1.027 1.1.622.6 1.49 1.23 2.544 1.65 2.13.94 4.746.77 6.896.04 2.212-.7 4.156-1.87 5.97-3.12 2.938-2.053 5.455-4.425 7.465-6.483 7.34-.77 13.138-2.28 16.715-3.43.527 3.08 1.487 6.43 3.236 8.4l7.276 1.36s6.108-9.93 6.108-12.84c0-2.82-2.987-12.36-12.393-12.11zM74.05 64.392c-1.66.97-3.39 1.8-4.93 2.14-1.55.37-2.76.228-3.46-.19-.373-.18-.663-.45-.913-.74-.18-.153-.313-.373-.437-.57 6.656-.182 13.74-3.87 15.88-5.077-1.82 1.528-3.92 3.13-6.14 4.436z"/><path fill="#C1272D" d="M88.454 108.84l-5.65-7.788s15.58-8.862 23.76-7.498c0 0-16.552 11.197-18.11 15.286z"/><path d="M106.63 93.393s-12.51 32.988-11.555 51.112l-4.627-.485s1.51-17.94 3.553-26.706c1.29-5.502 6.07-21.782 6.07-21.782l6.56-2.14z"/><path fill="#87151D" d="M105.592 95.5l2.627-.58-1.59-1.527-1.04 2.107zM74.95 128.706l-1.36 1.364-7.138-.846s2.854-2.47 8.498-.518zm-.777 3.177l1.558 1.56-9.34 5s-1.49-2.466 2.86-3.634c0 0-3.44-.85-1.3-1.69 2.15-.84 6.24-1.23 6.24-1.23l-.01-.01zm39.27-20.767s-3.373-7.664.13-10.65c0 0 .91-.258.91 1.56 0 1.816-1.17 5.97-1.04 9.09zm6.494-11.036s-5.845 5.585-1.82 14.28l4.158-5.453s-3.507-2.34-2.338-8.827zm8.565-8.57s-5.384 8.425-1.882 12.316c0 0 2.013 1.056 2.146-1.28.13-2.338-1.293-6.738 1.947-11.668l-2.21.632zm-23.492 8.698s-4.288 12.463 3.242 15.84l-.516-2.337s-3.632-1.29-2.727-13.5zm-7.663 28.172s1.43 6.236 10.778 9.22l-.52 1.56c0-.002-10.388-2.732-10.258-10.78zm-27.392-13.63s-3.896 8.44 2.076 10.647c0 0-1.43-3.506-.77-4.803.66-1.3.26-5.845-1.29-5.845h-.01z"/><path fill="#C69C6D" d="M62.108 70.3c-.32-.638-.428-1.23-1-1.77-.573-.522-1.236-.962-2.18-.974-.358.033-.213.01-.55.077-.27.057-.463.142-.645.232-.4.177-.705.428-1.01.688-.57.537-.923 1.154-1.243 1.792-.634 1.28-.86 2.664-.86 4.05v.157c0 .907.67 1.65 1.577 1.66.906.015 1.628-.713 1.63-1.62 0-.062-.01-.132-.016-.197-.1-.914-.03-1.906.27-2.74.28-.876.85-1.423 1-1.48.1-.052.36-.043.69.176.32.22.61.59.88 1.01.55.88.98 1.87.98 3.07v-.05"/><path d="M58.063 64.407l4.368 12.617 6.31-14.72"/></svg>