<svg xmlns="http://www.w3.org/2000/svg" width="256" height="256" viewBox="0 0 256 256"><path fill="#333" d="M199.77 237.38c-7.748 0-13.824-1.552-14.08-1.608-1.44-.32-2.594-1.522-2.98-2.953-.102-.37-.147-.79-.147-1.15-2.537.46-5.21.66-8.008.66-7.55 0-15.975-1.71-25.04-5.05-12.85-4.73-22.145-10.58-28.07-17.69-.054.04-.108.07-.164.11-.68.47-1.47.71-2.27.71-.62 0-1.25-.14-1.82-.44-.67-.34-15.43-8.03-22.66-20.46-4.54.9-9.51 1.35-14.83 1.35-1.39 0-2.83-.03-4.27-.09-38-1.64-47.42-20.57-48.01-37.73-14.12-1.68-16.73-12.41-16.35-21.38.32-7.49 3.64-14.11 8.5-17.54-2.98-7.39-5.37-16.17-4.15-23.63-1.01-.01-2.01-.4-2.76-1.14-1.17-1.15-1.52-2.9-.89-4.41.61-1.45 15.5-35.5 63.33-35.5 4.09 0 8.35.26 12.67.77.11.02.21.03.31.05.29.06 5.66 1.12 12.08 3.15.15-3.16.71-6.28 1.7-9.33 4.84-14.92 18.63-24.94 34.34-24.94h.47c.71-.04 1.44-.06 2.13-.06 3.54 0 7.01.55 10.34 1.64 8.51 2.76 15.42 8.69 19.51 16.59 4.74-2.38 9.92-3.62 15.22-3.62 3.5 0 6.97.55 10.33 1.64 4 1.3 7.7 3.34 11.01 6.06 13.01 9.17 18.44 25.47 13.52 40.62-1.91 5.92-5.38 11.28-10.02 15.51-1.97 2.48-4.36 4.84-7.17 7.07 19.41 4.76 32.54 16.05 39.06 33.6 12.03 32.36-3.02 76.95-11.82 87.95-5.79 7.25-15.79 11.29-28.91 11.29l-.07-.07-.01.02h-.01zM138.734 23.048c3.015 0 6.064.45 9.098 1.44 9.205 2.98 15.878 10.044 18.896 18.526 4.978-3.425 10.916-5.36 17.07-5.36 3.008 0 6.07.462 9.092 1.44 3.72 1.206 6.99 3.09 9.82 5.432 11.28 7.878 16.61 22.447 12.14 36.197-1.81 5.598-5.04 10.333-9.15 14-3.43 4.416-8.15 8.143-13.48 11.28l4.132 1.522c68.57 12.807 40.76 101.43 29.23 115.847-6.22 7.787-17.102 9.577-25.78 9.577-7.4 0-13.21-1.29-13.21-1.29 2.9-2.73 5.53-5.88 7.9-9.28-6.012 4.43-13.04 5.94-19.9 5.94-9.15 0-18-2.7-23.65-4.79-10.87-4-27.89-11.86-32.24-27.53l-.01-.03c-.11 3.51-.01 7.03.37 10.48 0 0-16.45-8.44-22.36-21.48-6 1.53-12.05 1.93-16.96 1.93-1.48 0-2.86-.03-4.11-.09-16.04-.69-45.54-4.8-44.16-37.63-.37.06-.76.1-1.17.1-.09 0-.18 0-.27-.01-6.48-.28-15.57-2.41-14.93-17.4.34-7.87 4.44-14.29 9.65-15.86-3.38-7.47-8.38-21.29-3.74-29.66 0 0 1.04-1.45-.48-1.45-.8 0-2.31.4-5.05 1.63 0 0 13.92-33.05 59.64-33.05 3.84 0 7.9.23 12.2.74 0 0 8.69 1.71 17.07 4.93-.57-4.5-.21-9.19 1.28-13.8 4.4-13.57 16.99-22.18 30.52-22.17.19 0 .384 0 .57.01.67-.04 1.35-.06 2.03-.06"/><path fill="#333" d="M138.79 15.12c-.74 0-1.48.02-2.23.06h-.368c-17.43 0-32.75 11.14-38.13 27.71-.57 1.77-1.02 3.57-1.34 5.39-4.42-1.21-7.63-1.85-7.86-1.89-.2-.04-.4-.07-.6-.09-4.47-.52-8.89-.79-13.13-.79-26.15 0-42.88 10.1-52.31 18.58C12.54 73.2 8.5 82.37 8.07 83.38c-1.274 3.03-.568 6.53 1.78 8.827.4.39.83.73 1.287 1.024-.28 6.49 1.4 13.42 3.66 19.63-4.512 4.37-7.41 11.07-7.73 18.64-.58 13.46 5.38 22.28 16.554 24.94C25.23 173.3 34.76 182.3 43.04 187c8.24 4.67 18.77 7.22 32.21 7.8 1.51.06 3.01.1 4.46.1 4.54 0 8.85-.31 12.88-.94 7.94 11.74 21.11 18.76 22.8 19.62 1.15.59 2.41.88 3.66.88.43 0 .86-.03 1.28-.1 6.37 6.68 15.61 12.2 27.86 16.71 9.51 3.5 18.4 5.28 26.42 5.28 1.82 0 3.59-.09 5.32-.27 1.12 1.72 2.89 2.96 4.95 3.43.27.06 6.77 1.49 14.96 1.49 14.38 0 25.46-4.35 32.04-12.58 5.34-6.67 11.27-21.98 14.43-37.23 2.98-14.38 5.05-35.49-1.98-54.39-6.1-16.43-18.06-28.02-34.91-34 .79-.83 1.52-1.67 2.21-2.53 5.05-4.67 8.81-10.54 10.91-17.02 2.71-8.32 2.64-17.1-.21-25.36-2.71-7.88-7.92-14.85-14.68-19.66-3.67-2.99-7.77-5.24-12.19-6.67-3.76-1.21-7.65-1.83-11.56-1.83-4.66 0-9.23.86-13.55 2.52-4.67-7.2-11.62-12.6-19.94-15.3-3.71-1.21-7.61-1.83-11.56-1.83l-.05.01-.01-.01z"/><path fill="#ED1E79" d="M214.844 80.726c4.47-13.75-.86-28.32-12.14-36.197-2.827-2.36-6.1-4.23-9.812-5.44-9.207-2.98-18.752-1.18-26.164 3.92-3.02-8.48-9.7-15.55-18.9-18.53-3.72-1.22-7.46-1.62-11.14-1.37-13.75-.25-26.62 8.41-31.08 22.17-1.82 5.61-1.98 11.34-.8 16.71.91 27.38 36.44 59.49 36.44 59.49s47.606-5.15 64.42-26.77c4.106-3.67 7.34-8.4 9.15-14l.022.01h.004z"/><path fill="#D3BD8D" d="M204.98 187.71c-3.205 8.68-4.535 16.18 1.552 18.42 6.087 2.248 15.303 3.782 20.49-10.3 3.192-8.686.853-17.538-5.233-19.78-6.09-2.237-13.62 2.976-16.82 11.66h.01z"/><path fill="#C69C6D" d="M206.826 188.32c.915-2.428 2.443-5.014 4.502-6.924 1.042-.98 2.24-1.86 3.693-2.47 1.44-.59 3.28-.878 5.07-.24.65.31.53.2 1.12.566.48.29.86.61 1.13.902.63.61 1.07 1.3 1.45 2.002.72 1.4.3 2.57.45 3.99.3 2.85-.89 5.36-1.85 7.97l-.11.3c-.64 1.71-1.73 2.89-3.45 2.28-1.72-.61-2.23-2.35-1.62-4.06.04-.12.29-.19.35-.3.81-1.65 1.46-3.54 1.48-5.313.08-1.84-.56-3.24-.82-3.46-.16-.16-.63-.32-1.39-.143-.75.19-1.61.65-2.4 1.26-1.66 1.28-2.97 2.91-4.03 5.07l-.04.09c-.48.96-1.64 1.35-2.61.88-.91-.44-1.31-1.51-.96-2.43l.04.023v.007z"/><path fill="#D3BD8D" d="M132.063 160.854c-3.193 8.684-7.044 15.256-13.13 13.015-6.09-2.25-14.1-7.05-8.92-21.14 3.2-8.69 10.72-13.9 16.81-11.66 6.09 2.24 8.43 11.1 5.23 19.77h.02-.01z"/><path fill="#C69C6D" d="M130.264 160.122c.87-2.445 1.39-5.405 1.063-8.19-.163-1.428-.502-2.87-1.21-4.28-.707-1.38-1.934-2.796-3.703-3.47-.696-.185-.534-.195-1.22-.29-.548-.083-1.045-.093-1.446-.046-.876.055-1.658.3-2.403.58-1.448.612-2.802 1.438-3.845 2.412-2.08 1.967-3.72 4.322-4.68 6.928l-.11.3c-.62 1.706.36 3.654 2.06 4.307 1.7.65 3.67-.17 4.32-1.87.05-.12.13-.25.16-.36.44-1.79 1.3-3.6 2.44-4.97 1.12-1.45 2.58-2.08 2.92-2.08.22-.02.72.18 1.17.81.44.64.81 1.54 1.03 2.53.43 2.05.37 4.15-.22 6.48l-.02.09c-.26 1.05.37 2.11 1.41 2.37.99.24 1.98-.31 2.32-1.23h-.04l.004-.02z"/><path fill="#fdb" d="M206.174 205.777C194.8 236.662 164.14 228.4 150.9 223.52c-15.068-5.547-41.937-18.47-30.56-49.354 11.382-30.89 22.787-71.716 68.897-54.73 46.57 17.154 28.31 55.455 16.93 86.34h.006z"/><path d="M163.88 168.186c-.942-.552-2.13-.24-2.677.69l-.403.686c-.702.087-1.332.54-1.59 1.247-2.222 6.02-8.94 9.12-14.972 6.91-2.93-1.08-5.26-3.23-6.56-6.06-1.31-2.82-1.43-6-.36-8.92.38-1.03-.14-2.14-1.15-2.52-1.02-.37-2.14.15-2.51 1.16-1.44 3.9-1.27 8.13.48 11.9 1.743 3.77 4.854 6.64 8.754 8.08 1.77.64 3.578.96 5.362.96l-.017.01c1.96 0 3.88-.38 5.673-1.08l-4.726 8.04c-.272.47-.347 1.03-.19 1.56.078.25 1.96 6.3 8.29 11.22.355.28.777.41 1.2.41.58 0 1.16-.26 1.542-.76.662-.85.508-2.08-.342-2.74-4.09-3.18-5.992-6.94-6.658-8.52l11.543-19.64c.55-.93.23-2.14-.69-2.68zm28.207 30.294l.015-.002h.01v-.04c6.34 0 12.3-3.89 14.61-10.18.37-1.02-.13-2.14-1.16-2.51-1.015-.37-2.14.14-2.51 1.16-1.08 2.93-3.23 5.26-6.06 6.57-2.822 1.31-5.994 1.43-8.914.36-2.926-1.08-5.256-3.23-6.563-6.05-1.305-2.83-1.43-6-.357-8.92.382-1.01-.143-2.15-1.152-2.5-1.01-.37-2.138.13-2.508 1.16-1.44 3.896-1.27 8.132.475 11.907 1.737 3.772 4.854 6.647 8.754 8.082 1.77.655 3.584.963 5.36.963zm4.253-90.95l-4.37-1.61c-60.49-34.72-96.81 50.762-97.39 69.215-.57 18.457 24.43 31.29 24.43 31.29-3.207-28.84 13.053-61.737 13.053-61.737l.008.004.03.01 12.86-8.07-8.61 11.023c16.44 6.044 22.9 11.02 22.9 11.02 15.41 1.39 25.46-29.417 27.55-36.48-.26 5.36-2.44 33.616-18.75 38.856 0 0 29.17 10.43 45.73 11.06-1.83 9.62-9.23 42.68-27.17 59.55 0 0 27.46 6.14 38.99-8.28 11.55-14.42 39.33-103.04-29.23-115.85z" fill="#333"/><path fill="#FF7BAC" d="M124.314 136.867s.178-.547.505-1.564c.32-.994 1.05-2.927 2.05-4.84 2.08-3.937 5.75-9.503 12.02-14.102 6.16-4.6 14.6-8.4 24.06-9.56 9.44-1.21 19.71-.04 29.18 3.34 1.36.56 2.08.8 3.41 1.4 1.22.53 2.39 1.08 3.48 1.65 2.24 1.14 4.4 2.4 6.46 3.78 4.16 2.73 7.84 6.04 11.04 9.54 6.39 7.08 10.5 15.36 12.11 22.94 1.74 7.58.95 14.19-.03 18.54-.51 2.19-1.12 3.85-1.56 4.96-.46 1.1-.7 1.69-.7 1.69-.86 2.12-3.28 3.13-5.4 2.26-1.99-.81-3.01-3.01-2.39-5.03l.03-.08s.6-1.95 1.03-5.42c.43-3.45.32-8.49-1.44-14.18-1.72-5.68-5.28-11.92-10.55-17.35-2.65-2.72-5.71-5.19-9.07-7.37-1.67-1.09-3.43-2.09-5.25-2.98-.93-.47-1.82-.87-2.69-1.24-.74-.35-2.18-.86-2.93-1.16-7.63-2.91-15.91-4.03-23.43-3.23-7.53.79-14.34 3.08-19.31 6.38-5 3.24-8.38 6.97-10.28 9.89-.97 1.55-1.57 2.46-2.05 3.44l-.73 1.48c-1.01 2.06-3.49 2.92-5.55 1.91-1.87-.92-2.74-3.07-2.12-4.99l.07-.07.01-.01.01-.01z"/><path fill="#F48B73" d="M158.583 200.56s-14.3-7.985-16.487-2.05c-2.184 5.938 5.442 5.637 5.442 5.637l-4.817-1s-6.1 13.05 9.86 9.854c0-.01-3.91-12.93 6.01-12.43v-.01z"/><path fill="#333" d="M147.32 204.38c-1.14 0-4.84.66-6.635-1.813-.75-1.022-1.438-2.41-.424-5.16.53-1.45 1.59-2.28 3.06-2.822 5.1-1.878 14.41 3.16 16.22 4.168.94.52 1.28 1.77.75 2.71-.52.96-1.72 1.3-2.65.78-3.85-2.14-10.43-4.69-12.93-3.79-.4.15-.6.36-.74.74-.23.63-.42 1.47-.08 1.95.57.79 2.58 1.16 3.63 1.06 1.03-.09 1.99-.04 2.02 1.03.04 1.08-.79 1.17-1.87 1.17h-.32l-.01-.022h-.01zm.82 11.065c-3.268 0-5.642-.92-7.083-2.754-3.018-3.84-.41-9.71-.104-10.37.456-.97 1.6-1.38 2.592-.94.98.45 1.4 1.62.946 2.59-.5 1.11-1.67 4.65-.35 6.32 1.06 1.34 3.91 1.65 8.06.8 1.05-.21 2.09.48 2.3 1.54.21 1.07-.47 2.09-1.54 2.32-1.77.36-3.38.53-4.82.53v-.03zm-17.888-39.827c-.792 0-1.54-.49-1.83-1.278-.38-1.015.14-2.136 1.153-2.508l5.097-1.883c1.02-.37 2.14.14 2.508 1.15.377 1.01-.144 2.1-1.154 2.51l-5.094 1.88c-.22.06-.45.12-.67.12h-.01zm2.305 4.998c-.793 0-1.54-.488-1.83-1.275-.38-1.01.144-2.14 1.153-2.5l5.103-1.88c1.026-.35 2.14.15 2.51 1.16.376 1.01-.145 2.14-1.153 2.51l-5.11 1.9c-.23.08-.46.12-.68.12v-.03h.007zm41.52 11.144c-.79 0-1.54-.49-1.83-1.277-.378-1.017.142-2.135 1.155-2.508l5.098-1.884c1.027-.36 2.14.15 2.508 1.16.376 1.03-.142 2.14-1.156 2.51l-5.097 1.88c-.224.09-.45.15-.68.15v-.01l.002-.01v-.01zm2.307 4.998c-.794 0-1.543-.486-1.83-1.277-.38-1.01.142-2.11 1.153-2.5l5.1-1.86c1.02-.36 2.135.15 2.508 1.16.375 1.01-.145 2.14-1.156 2.51l-5.1 1.89c-.23.07-.46.11-.69.11v.01-.03z"/><path fill="#F4D1B0" d="M38.522 132.83c-.4 9.245-2.06 16.68-8.548 16.398-6.48-.28-15.572-2.408-14.926-17.403.392-9.24 5.968-16.51 12.45-16.236 6.485.27 11.416 7.99 11.024 17.24z"/><path fill="#C69C6D" d="M36.572 132.688c.095-2.6-.318-5.57-1.478-8.135-.59-1.296-1.354-2.573-2.458-3.698-1.1-1.098-2.693-2.068-4.583-2.177-.722.04-.577-.018-1.252.1-.55.084-1.02.227-1.39.395-.81.314-1.48.79-2.1 1.288-1.2 1.02-2.23 2.22-2.93 3.47-1.38 2.52-2.22 5.26-2.34 8.03l-.01.32c-.07 1.82 1.46 3.38 3.27 3.47 1.82.11 3.45-1.28 3.55-3.1.01-.12.05-.27.03-.39-.11-1.83.14-3.82.82-5.47.62-1.72 1.82-2.77 2.14-2.87.2-.09.74-.05 1.37.41.62.48 1.24 1.23 1.75 2.1 1.04 1.82 1.61 3.83 1.76 6.23l.01.1c.07 1.08 1 1.88 2.07 1.83 1.01-.06 1.79-.89 1.82-1.87l-.04-.03z"/><path fill="#fdb" d="M122.803 153c-1.414 32.89-33.127 34.374-47.22 33.773-16.046-.693-45.572-4.81-44.164-37.688 1.41-32.894-.19-75.247 48.91-73.147 49.58 2.13 43.88 44.18 42.47 77.06V153z"/><path fill="#333" d="M24.4 112.183l7.666 25.642 13.904-28.942m86.917 9.565l-9.34 23.304-11.375-30.027"/><path d="M119.798 73.13c-.004-.907-.088-1.778-.278-2.59-2.473-10.58-32.253-16.4-32.253-16.4-55.48-6.52-71.834 32.32-71.834 32.32 7.947-3.56 5.527-.17 5.527-.17-6.6 11.9 6.3 34.85 6.3 34.85l4.677-6.86 3.908-.312c.052.002.108 0 .16 0 .022.107.03.215.064.322.57 1.85 2.53 2.9 4.39 2.34l.31-.1s.45-.14 1.24-.38c.79-.27 1.92-.59 3.34-.84 1.4-.28 3.08-.48 4.9-.51 1.81-.09 3.78.05 5.74.3 3.94.498 7.81 1.71 10.62 2.836 2.84 1.142 4.5 2.14 4.5 2.14l-.01.004-.06.05c.86.51 1.98.29 2.59-.52.63-.87.43-2.09-.43-2.73l-.03-.02s-1.87-1.36-4.79-2.85c-2.95-1.51-7.05-3.25-11.46-4.23-.52-.117-1.04-.225-1.56-.325 14.53-5.63 29.17-14.503 29.17-14.503l-14.88 13.972c20.69-.487 33.9-8.604 39.86-13.315.18 4.47.73 10.47 2.22 15.82-.95-.1-1.94-.16-2.97-.17-2.14-.08-4.41.09-6.64.4-4.47.59-8.72 1.96-11.77 3.23-3.04 1.22-5.03 2.42-5.03 2.42h-.01l-.05.02-.03.01c-.85.52-1.18 1.61-.73 2.52.47.97 1.64 1.37 2.6.89 0 0 1.74-.85 4.68-1.74 2.89-.89 6.86-1.77 10.82-1.92 1.97-.09 3.94-.05 5.74.19 1.81.18 3.46.53 4.83.92.58.15 1.1.31 1.57.48.36.57.74 1.11 1.14 1.61l14.46 3.35s10.17-21.3 10.43-27.12c.24-5.66-2.2-23.31-21.01-23.43zm-50.338 59c-1.07-.12-1.99.79-2.04 1.87-.13 3.11-1.47 5.99-3.77 8.1-2.29 2.1-5.18 3.27-8.38 3.05-3.11-.13-5.98-1.47-8.09-3.76-2.11-2.29-3.19-5.27-3.06-8.38.04-1.08-.8-1.99-1.88-2.03-1.104-.02-1.988.79-2.034 1.87-.174 4.158 1.276 8.133 4.09 11.195 2.814 3.066 6.65 4.842 10.8 5.027.234.01.47.015.7.015h.005l.02-.026c3.89 0 7.59-1.44 10.48-4.09 3.07-2.81 4.86-6.65 5.03-10.81.05-1.08-.79-1.99-1.87-2.03zm46.64 2.04c-1.15.03-1.99.79-2.03 1.88-.13 3.11-1.47 5.98-3.76 8.09-2.3 2.11-5.3 3.25-8.39 3.062-3.12-.13-5.99-1.47-8.09-3.77-2.1-2.3-3.19-5.27-3.05-8.39.042-1.07-.795-1.99-1.868-2.04-.278-.02-.523.014-.746.076l-.035-.525c-.06-1.076-.89-2.015-2.08-1.82-1.07.072-1.89 1.01-1.82 2.084l1.49 22.29c-.57 1.08-2.67 4.314-7.83 5.71-1.04.285-1.65 1.356-1.37 2.4.24.872 1.03 1.438 1.89 1.438h.01v.007h.01c.13 0 .27-.014.4-.045.19.035.38.057.58.044 4.37-.51 11.43-.37 13.42 1.47.32.28.43.57.41.95-.02.66-.16 1.53-.66 1.83-.82.5-2.73.05-3.76-.43-.97-.43-2.13-.02-2.59.96-.45.98-.03 2.14.95 2.58.27.13 1.8.81 3.61.97-.19 1.57-.73 3.54-2.01 4.25-1.5.84-4.24-.01-7.73-2.36-.9-.61-2.11-.38-2.71.52-.6.9-.37 2.11.53 2.71 3.31 2.24 6.19 3.35 8.61 3.35l-.01.01c1.19 0 2.27-.27 3.23-.81 3.41-1.9 4.01-6.37 4.09-8.47 1.06-.7 2.26-2.11 2.38-4.89.07-1.54-.5-2.92-1.64-3.99-2.02-1.89-5.72-2.56-9.13-2.74 2.28-2.14 3.14-4.21 3.19-4.35.11-.27.15-.56.13-.85l-.82-12.25c.58 1.05 1.28 2.05 2.12 2.96 2.81 3.07 6.65 4.85 10.8 5.03.24.01.47.02.7.02v.02l-.02.01c3.9 0 7.61-1.44 10.51-4.1 3.06-2.81 4.85-6.64 5.03-10.81.04-1.08-.8-1.99-1.87-2.04z" fill="#333"/><radialGradient id="a" cx="193.958" cy="-1427.652" r="30.004" gradientTransform="matrix(.446 0 0 -.446 -32.653 -474.233)" gradientUnits="userSpaceOnUse"><stop offset="0" stop-color="#FF585D"/><stop offset="1" stop-color="#FF585D" stop-opacity="0"/></radialGradient><circle opacity=".4" fill="url(#a)" enable-background="new" cx="53.852" cy="162.5" r="13.382"/><radialGradient id="b" cx="308.971" cy="-1427.652" r="30.004" gradientTransform="matrix(.446 0 0 -.446 -32.653 -474.233)" gradientUnits="userSpaceOnUse"><stop offset="0" stop-color="#FF585D"/><stop offset="1" stop-color="#FF585D" stop-opacity="0"/></radialGradient><circle opacity=".4" fill="url(#b)" enable-background="new" cx="105.148" cy="162.5" r="13.382"/><radialGradient id="c" cx="905.127" cy="-984.018" r="29.979" gradientTransform="matrix(.419 .154 .154 -.419 -96.833 -360.906)" gradientUnits="userSpaceOnUse"><stop offset="0" stop-color="#FF585D"/><stop offset="1" stop-color="#FF585D" stop-opacity="0"/></radialGradient><circle opacity=".4" fill="url(#c)" enable-background="new" cx="130.921" cy="190.669" r="13.382"/><radialGradient id="d" cx="1020.033" cy="-984.024" r="30.02" gradientTransform="matrix(.419 .154 .154 -.419 -96.833 -360.906)" gradientUnits="userSpaceOnUse"><stop offset="0" stop-color="#FF585D"/><stop offset="1" stop-color="#FF585D" stop-opacity="0"/></radialGradient><circle opacity=".4" fill="url(#d)" enable-background="new" cx="179.079" cy="208.331" r="13.382"/></svg>