<?xml version="1.0" encoding="utf-8"?>
<!-- Generator: Adobe Illustrator 16.0.0, SVG Export Plug-In . SVG Version: 6.00 Build 0)  -->
<!DOCTYPE svg PUBLIC "-//W3C//DTD SVG 1.1//EN" "http://www.w3.org/Graphics/SVG/1.1/DTD/svg11.dtd">
<svg version="1.1" id="Layer_1" xmlns="http://www.w3.org/2000/svg" xmlns:xlink="http://www.w3.org/1999/xlink" x="0px" y="0px"
	 width="256px" height="256px" viewBox="0 0 256 256" enable-background="new 0 0 256 256" xml:space="preserve">
<g>
	<path fill="#ED1E79" d="M141.248,125.479c-0.986,0-1.943-0.365-2.682-1.032c-1.496-1.352-36.5-33.306-37.742-61.958
		c-1.284-6.138-0.947-12.508,0.979-18.444c4.835-14.917,18.621-24.941,34.304-24.941c0.16,0,0.32,0.001,0.48,0.003
		c0.727-0.046,1.459-0.069,2.178-0.069c3.521,0,6.99,0.552,10.309,1.64c8.503,2.754,15.419,8.686,19.514,16.592
		c4.734-2.381,9.915-3.623,15.212-3.623c3.497,0,6.971,0.551,10.324,1.636c4.027,1.313,7.729,3.353,11.011,6.065
		c13.006,9.172,18.437,25.471,13.513,40.615c-0.053,0.164-0.116,0.323-0.188,0.476c-1.943,5.718-5.34,10.892-9.856,15.01
		c-17.828,22.458-64.92,27.79-66.924,28.007C141.534,125.471,141.391,125.479,141.248,125.479z"/>
	<path fill="#333333" d="M138.766,23.038c3.006,0,6.04,0.45,9.063,1.441c9.199,2.98,15.88,10.05,18.9,18.53
		c4.979-3.425,10.918-5.362,17.071-5.362c3.009,0,6.069,0.463,9.093,1.442c3.711,1.21,6.984,3.08,9.812,5.44
		c11.28,7.877,16.61,22.447,12.14,36.197v-0.007h-0.004l-0.021-0.01c-1.811,5.6-5.045,10.33-9.15,14
		c-16.814,21.62-64.42,26.77-64.42,26.77s-35.53-32.11-36.44-59.49c-1.18-5.37-1.02-11.1,0.8-16.71
		c4.397-13.566,16.969-22.176,30.5-22.175c0.193,0,0.387,0.002,0.58,0.005C137.379,23.062,138.071,23.038,138.766,23.038
		 M138.766,15.038L138.766,15.038c-0.752,0-1.516,0.022-2.276,0.067c-0.127-0.001-0.255-0.002-0.382-0.002
		c-17.422,0-32.737,11.135-38.11,27.708c-2.106,6.494-2.502,13.454-1.154,20.175c0.66,12.919,7.465,27.703,20.235,43.957
		c9.31,11.85,18.422,20.124,18.805,20.47c1.478,1.335,3.393,2.065,5.364,2.065c0.286,0,0.573-0.016,0.86-0.047
		c0.514-0.056,12.745-1.408,27.236-5.537c19.883-5.666,34.071-13.64,42.189-23.709c4.849-4.492,8.512-10.092,10.647-16.274
		c0.101-0.231,0.19-0.469,0.271-0.713c2.71-8.334,2.638-17.11-0.207-25.377c-2.71-7.875-7.916-14.841-14.68-19.654
		c-3.642-2.986-7.742-5.234-12.193-6.685c-3.769-1.22-7.656-1.835-11.572-1.836c-4.661,0-9.239,0.859-13.557,2.52
		c-4.676-7.206-11.631-12.604-19.949-15.299C146.6,15.657,142.712,15.038,138.766,15.038L138.766,15.038z"/>
</g>
<g>
	<path fill="#FFDDBB" d="M176.415,235.584c-11.407-0.002-22.857-5.963-28.359-8.827l-4.559-2.377
		c-10.163-5.292-33.247-17.312-28.949-37.375c-1.437-1.229-2.36-2.934-2.65-4.943c-0.414-2.868,0.577-4.821,1.481-5.955
		c0.362-0.454,0.759-0.84,1.17-1.169c0.019-0.444,0.083-0.875,0.187-1.278c0.768-3.636,3.197-5.235,5.531-5.586
		c-0.067-0.91,0-1.829,0.212-2.726c0.786-3.31,3.415-5.597,6.86-5.97c1.381-0.149,2.616-0.513,3.68-1.083
		c2.271-4.163,3.834-7.691,5.225-10.829c3.622-8.174,6.483-14.629,17.82-23.256c5.098-3.879,9.512-6.463,14.482-6.463
		c3.807,0,7.461,1.497,11.777,3.744c1.752,0.912,3.657,1.97,5.864,3.194c2.896,1.607,6.179,3.429,10.128,5.485
		c15.091,7.857,24.027,16.782,27.322,27.285c4.915,15.671-3.401,31.535-12.207,48.331c-0.588,1.123-1.904,3.643-1.904,3.643
		l-6.168,8.501c-6.185,11.714-15.247,17.653-26.941,17.653C176.418,235.584,176.417,235.584,176.415,235.584z"/>
	<path fill="#333333" d="M168.548,121.747c2.893,0,5.863,1.175,9.93,3.292c3.971,2.067,8.986,5.032,15.993,8.68
		c41.167,21.435,25.864,46.293,11.646,73.602l-6.174,8.508l0.002,0.001c-6.219,11.943-14.827,15.755-23.529,15.755
		c-9.828,0-19.775-4.867-26.514-8.375c-0.934-0.485-1.81-0.948-2.612-1.366c-0.619-0.322-1.27-0.659-1.947-1.012
		c-12.107-6.304-32.573-17.536-26.057-35.882c-0.447-0.093-0.927-0.241-1.383-0.479c-0.96-0.5-1.816-1.393-2.045-2.98
		c-0.586-4.067,3.711-4.417,3.711-4.417c-1.432-0.861-0.939-2.487-0.939-2.487c0.378-1.944,1.429-2.589,2.656-2.589
		c1.006,0,2.131,0.434,3.1,0.938c0.575,0.298,1.096,0.622,1.505,0.896c0.369-0.516,0.728-1.021,1.078-1.521
		c-3.77-2.438-3.742-8.465,0.802-8.957c2.845-0.308,4.88-1.274,6.241-2.201c8.809-15.784,7.467-22.339,22.476-33.76
		C161.618,123.489,165.024,121.747,168.548,121.747 M168.548,113.747c-6.091,0-11.163,2.91-16.905,7.28
		c-12.154,9.25-15.352,16.464-19.055,24.818c-1.276,2.882-2.59,5.846-4.423,9.313c-0.384,0.113-0.802,0.193-1.254,0.242
		c-5.101,0.553-9.152,4.095-10.323,9.022c-0.055,0.231-0.104,0.465-0.145,0.697c-2.802,1.422-4.841,4.118-5.606,7.647
		c-0.018,0.074-0.035,0.148-0.052,0.224c-0.182,0.197-0.359,0.404-0.533,0.621c-1.973,2.475-2.795,5.678-2.313,9.02
		c0.305,2.112,1.115,4.036,2.339,5.64c-0.955,7.078,0.619,15.903,9.36,24.756c6.451,6.533,14.744,11.116,22.01,14.899l0.947,0.492
		l1,0.521l1.124,0.587c0.479,0.251,0.977,0.513,1.492,0.78c8.81,4.587,19.29,9.277,30.204,9.277c9.107,0,21.718-3.405,30.345-19.529
		l5.831-8.036l0.348-0.479l0.273-0.525c0.587-1.128,1.176-2.251,1.763-3.37c8.797-16.779,17.893-34.131,12.48-51.386
		c-3.629-11.569-13.21-21.263-29.291-29.636c-3.902-2.032-7.16-3.84-10.035-5.435c-2.231-1.238-4.158-2.308-5.958-3.245
		C177.335,115.424,173.167,113.747,168.548,113.747L168.548,113.747z"/>
</g>
<g opacity="0.7" enable-background="new    ">
	
		<radialGradient id="SVGID_1_" cx="99.0811" cy="307.3545" r="28.5308" gradientTransform="matrix(0.5213 0.2714 -0.2714 0.5213 145.0648 -15.0208)" gradientUnits="userSpaceOnUse">
		<stop  offset="0" style="stop-color:#FF585D"/>
		<stop  offset="1" style="stop-color:#FF585D;stop-opacity:0"/>
	</radialGradient>
	<path fill="url(#SVGID_1_)" d="M194.471,133.719c-22.921-11.934-24.525-16.565-37.983-6.326
		c-15.009,11.421-13.667,17.976-22.476,33.76c-1.36,0.927-3.396,1.894-6.241,2.201c-4.544,0.492-4.571,6.519-0.802,8.957
		c-0.351,0.5-0.709,1.005-1.078,1.521c-1.938-1.302-6.391-3.729-7.261,0.754c0,0-0.493,1.626,0.939,2.487
		c0,0-4.298,0.35-3.711,4.417c0.337,2.341,2.041,3.173,3.429,3.459c-6.881,19.373,16.324,30.812,28.004,36.894
		c11.707,6.096,38.438,21.291,52.655-6.014l-0.002-0.001l6.174-8.508C220.335,180.012,235.638,155.153,194.471,133.719z"/>
</g>
<radialGradient id="SVGID_2_" cx="-1454.3896" cy="1604.5146" r="31.9224" gradientTransform="matrix(0.3769 0.1962 -0.1962 0.3769 1003.5575 -131.0906)" gradientUnits="userSpaceOnUse">
	<stop  offset="0" style="stop-color:#FF585D"/>
	<stop  offset="1" style="stop-color:#FF585D;stop-opacity:0"/>
</radialGradient>
<circle opacity="0.7" fill="url(#SVGID_2_)" enable-background="new    " cx="140.479" cy="188.17" r="13.577"/>
<path fill="#333333" d="M191.683,120.319c0,0-35.084-28.144-59.181,19.041c0,0,14.616,13.256,37.218,23.142
	c0,0-0.972-8.973,10.936-18.294c0,0-23.521,80.407-59.111,77.399c0,0,54.662,40.452,89.77,27.22S281.109,122.904,191.683,120.319z"
	/>
<path fill="#FF7BAC" d="M185.037,115.918c0,0,13.877,18.513-4.648,55.9c0,0-1.855,10.793,9.606,5.942s25.97-36.332,13.071-57.628
	C203.066,120.133,190.917,110.045,185.037,115.918z"/>
<path fill="#333333" d="M161.687,178.809c-0.002-0.926-0.755-1.678-1.684-1.675c-8.493,0.015-11.517-2.02-12.559-3.73
	c-1.327-2.18,0.021-4.861,0.054-4.925c0.431-0.818,0.122-1.831-0.695-2.268c-0.004-0.002-0.011-0.006-0.016-0.008
	c-0.815-0.425-1.824-0.115-2.259,0.698c-0.046,0.088-0.619,1.185-0.89,2.739l-4.354,0.134c-0.93-0.004-1.686,0.746-1.69,1.674
	c-0.003,0.651,0.364,1.219,0.905,1.499c0.229,0.12,0.491,0.188,0.77,0.188l4.43-0.133c0.145,0.62,0.377,1.256,0.723,1.883
	l-2.711,0.573c-0.908,0.193-1.487,1.086-1.295,1.994c0.108,0.512,0.438,0.918,0.868,1.143c0.335,0.174,0.727,0.237,1.123,0.154
	l4.528-0.961c0.063-0.014,0.121-0.037,0.179-0.058c0.325,0.217,0.666,0.419,1.031,0.609c2.767,1.441,6.734,2.164,11.865,2.153
	C160.938,180.491,161.688,179.738,161.687,178.809z"/>
<g>
	<path fill="#FFDDBB" d="M79.609,179.61c-11.037,0-22.966-6.043-29.375-9.289l-4.593-2.322c-5.129-2.597-15.81-8.004-22.536-16.379
		c-7.911-9.851-8.757-21.186-2.516-33.694l3.321-9.98c0,0,1.283-2.542,1.854-3.676c9.811-19.511,19.956-39.686,42.552-39.686
		c8.121,0,17.183,2.59,27.704,7.918c3.973,2.012,7.366,3.618,10.36,5.035c2.281,1.08,4.251,2.012,6.014,2.905
		c10.89,5.514,13.459,10.014,13.091,22.926c-0.406,14.239-3.985,20.326-8.517,28.033c-1.74,2.959-3.696,6.285-5.756,10.557
		c0.157,1.195,0.581,2.411,1.265,3.623c1.437,2.542,1.451,5.389,0.039,7.809c-0.708,1.214-1.746,2.234-2.981,2.989
		c0.307,0.593,0.518,1.216,0.632,1.87c0.253,1.449,0.113,3.639-1.956,5.898c-0.256,0.304-0.567,0.608-0.927,0.89
		c-0.027,0.526-0.11,1.074-0.268,1.634c-0.395,1.396-1.405,3.339-3.976,4.674c-1.212,0.629-2.473,0.948-3.747,0.948
		c-0.614,0-1.222-0.074-1.817-0.221C92.919,177.077,86.925,179.61,79.609,179.61z"/>
	<path fill="#333333" d="M68.316,68.583c7.093,0.001,15.559,2.251,25.897,7.486c7.048,3.569,12.381,5.918,16.374,7.94
		c9.071,4.593,11.234,7.507,10.899,19.244c-0.538,18.852-6.646,21.582-14.34,37.937c0.039,1.646,0.44,3.863,1.847,6.355
		c1.861,3.294-1.164,6.282-4.631,6.282c-0.721,0-1.462-0.129-2.181-0.412c-0.202,0.575-0.404,1.161-0.608,1.763
		c0.461,0.172,1.028,0.405,1.606,0.698c2.165,1.096,4.486,3.021,2.012,5.641c0,0-0.667,0.869-1.726,0.869
		c-0.259,0-0.542-0.052-0.844-0.182c0,0,2.22,3.695-1.427,5.589c-0.683,0.354-1.319,0.498-1.903,0.498
		c-0.635,0-1.208-0.17-1.71-0.424c-0.458-0.233-0.859-0.536-1.195-0.845c-4.416,6.353-10.401,8.587-16.776,8.587
		c-9.667,0-20.229-5.14-27.567-8.857c-0.682-0.344-1.333-0.678-1.956-0.992c-0.808-0.41-1.693-0.851-2.634-1.328
		c-12.776-6.469-36.113-19.389-23.158-44.969h0l3.318-9.975C38.048,88.881,47.003,68.58,68.316,68.583 M68.317,60.583L68.317,60.583
		h-0.006c-11.516,0-21.143,4.659-29.431,14.242c-6.66,7.7-11.53,17.387-16.688,27.643c-0.569,1.132-1.141,2.27-1.717,3.407
		l-0.267,0.528l-0.187,0.561l-3.139,9.436c-8.531,17.335-3.046,30.067,3.104,37.726c6.404,7.974,15.651,13.293,23.852,17.445
		c0.49,0.248,0.972,0.49,1.435,0.723c0.414,0.208,0.812,0.408,1.192,0.602l0.881,0.447l1.094,0.555
		c6.694,3.391,19.177,9.714,31.169,9.714c7.622,0,14.198-2.512,19.316-7.324c0.122,0.004,0.243,0.006,0.366,0.006
		c1.921,0,3.802-0.47,5.588-1.397c2.998-1.556,5.123-4.091,5.984-7.137c0.076-0.269,0.141-0.534,0.195-0.797
		c0.031-0.035,0.062-0.068,0.091-0.102c3.21-3.498,3.291-7.082,2.996-9.061c0.7-0.718,1.314-1.52,1.825-2.395
		c2.116-3.626,2.112-8.035-0.012-11.794c-0.238-0.423-0.41-0.812-0.532-1.163c1.75-3.509,3.393-6.303,4.99-9.02
		c4.632-7.877,8.632-14.68,9.067-29.946c0.411-14.43-3.016-20.398-15.283-26.609c-1.81-0.917-3.802-1.86-6.109-2.952
		c-2.972-1.407-6.34-3.001-10.265-4.988C86.735,63.315,77.083,60.584,68.317,60.583L68.317,60.583z"/>
</g>
<g opacity="0.7" enable-background="new    ">
	
		<radialGradient id="SVGID_3_" cx="878.1035" cy="260.8682" r="28.5301" gradientTransform="matrix(-0.5243 -0.2655 -0.2655 0.5243 639.9749 260.7624)" gradientUnits="userSpaceOnUse">
		<stop  offset="0" style="stop-color:#FF585D"/>
		<stop  offset="1" style="stop-color:#FF585D;stop-opacity:0"/>
	</radialGradient>
	<path fill="url(#SVGID_3_)" d="M94.213,76.069c23.055,11.676,27.754,10.281,27.273,27.184c-0.538,18.852-6.646,21.582-14.34,37.937
		c0.039,1.646,0.44,3.863,1.847,6.355c2.248,3.979-2.634,7.513-6.812,5.87c-0.202,0.575-0.404,1.161-0.608,1.763
		c2.188,0.815,6.753,3.019,3.619,6.339c0,0-1.034,1.348-2.57,0.688c0,0,2.22,3.695-1.427,5.589
		c-2.099,1.091-3.767,0.189-4.809-0.771c-11.734,16.88-34.553,4.687-46.3-1.263c-11.775-5.963-39.701-18.834-25.792-46.297h0
		l3.318-9.975C41.521,82.023,52.808,55.102,94.213,76.069z"/>
</g>
<radialGradient id="SVGID_4_" cx="-376.9072" cy="1540.2178" r="31.9224" gradientTransform="matrix(-0.3791 -0.192 -0.192 0.3791 234.0902 -504.5737)" gradientUnits="userSpaceOnUse">
	<stop  offset="0" style="stop-color:#FF585D"/>
	<stop  offset="1" style="stop-color:#FF585D;stop-opacity:0"/>
</radialGradient>
<circle opacity="0.7" fill="url(#SVGID_4_)" enable-background="new    " cx="81.42" cy="151.677" r="13.577"/>
<path fill="#333333" d="M70.5,104.25l-21.506,35.175l3.245-32.727c0,0-4.361,26.409-39.073,28.47c0,0-32.362-68.854,28.202-91.492
	c0,0,11.208-2.741,25.708,7.408c0,0,69.166-22.095,82.345,40.999c2.697,12.905-13.171,43.167-45.613,27.053l9.195-19.542
	C113.003,99.593,96,117,70.5,104.25z"/>
<g>
	<path fill="#333333" d="M88.615,142.133c1.688,0.855,3.336,1.221,4.935,1.09c4.677-0.381,6.91-4.804,7.001-4.991
		c0.43-0.872,0.071-1.938-0.8-2.356c-0.868-0.428-1.919-0.073-2.351,0.792c-0.034,0.067-1.495,2.851-4.158,3.05
		c-2.091,0.157-5.666-1.174-10.833-8.41c-0.563-0.79-1.663-0.974-2.454-0.408c-0.79,0.565-0.973,1.662-0.409,2.454
		C82.667,137.724,85.701,140.658,88.615,142.133z"/>
</g>
<path fill="#F4D1B0" d="M51.995,112.344l0.001-0.006c1.149-8.572-2.796-16.178-8.811-16.983
	c-6.012-0.806-11.818,5.493-12.967,14.071c-1.866,13.917,6.422,16.668,12.439,17.476c6.014,0.806,8.188-5.978,9.338-14.555V112.344z
	"/>
<path fill="#C69C6D" d="M50.199,112.045l0.011-0.022c-0.115,0.911-0.911,1.619-1.855,1.594c-0.999-0.027-1.789-0.865-1.77-1.866
	l0.005-0.087c0.068-2.251-0.298-4.182-1.109-5.958c-0.396-0.854-0.908-1.605-1.442-2.093c-0.554-0.491-1.036-0.568-1.227-0.5
	c-0.313,0.066-1.486,0.95-2.218,2.501c-0.761,1.482-1.121,3.315-1.16,5.034c-0.004,0.119,0.041,0.257,0.024,0.382
	c-0.243,1.685-1.683,2.86-3.367,2.616c-1.678-0.244-2.591-1.773-2.366-3.455l0.04-0.298c0.345-2.567,0.971-5.104,2.469-7.327
	c0.752-1.099,1.428-2.181,2.628-3.03c0.622-0.404,1.287-0.794,2.074-1.017c0.357-0.123,0.813-0.219,1.328-0.252
	c0.646-0.053,0.5-0.008,1.173,0.018c1.756,0.257,3.157,1.298,4.089,2.414c0.933,1.139,1.534,2.389,1.972,3.652
	C50.364,106.834,50.495,109.639,50.199,112.045L50.199,112.045z"/>
<path fill="#333333" d="M106.804,122.407c0,0-0.09-0.004-0.263-0.012c-0.175-0.011-0.433-0.028-0.76-0.049
	c-0.634-0.05-1.531-0.13-2.594-0.28c-1.068-0.137-2.302-0.354-3.624-0.624c-0.655-0.152-1.342-0.284-2.025-0.472
	c-0.689-0.174-1.388-0.358-2.082-0.575c-0.697-0.198-1.386-0.43-2.064-0.668c-0.684-0.222-1.34-0.489-1.982-0.74
	c-0.645-0.24-1.252-0.522-1.832-0.783c-0.29-0.13-0.572-0.257-0.846-0.38c-0.266-0.137-0.525-0.269-0.774-0.396
	c-0.497-0.256-0.958-0.484-1.357-0.704c-0.394-0.232-0.739-0.435-1.023-0.6c-0.569-0.336-0.894-0.527-0.894-0.527
	c-1.796-1.061-2.395-3.377-1.333-5.173c1.06-1.796,3.376-2.395,5.173-1.334c0.168,0.099,0.327,0.211,0.474,0.33l0.141,0.118
	c0,0,0.236,0.196,0.646,0.538c0.207,0.172,0.459,0.381,0.748,0.622c0.296,0.232,0.645,0.478,1.018,0.757
	c0.187,0.138,0.383,0.283,0.585,0.433c0.212,0.139,0.431,0.284,0.655,0.43c0.45,0.298,0.92,0.62,1.438,0.912
	c0.509,0.303,1.032,0.625,1.592,0.911c0.552,0.3,1.117,0.6,1.698,0.871c0.574,0.288,1.162,0.549,1.746,0.802
	c0.578,0.266,1.167,0.479,1.729,0.711c1.136,0.429,2.212,0.806,3.146,1.083c0.933,0.289,1.716,0.488,2.26,0.623
	c0.262,0.061,0.469,0.108,0.61,0.139c0.146,0.031,0.223,0.047,0.223,0.047l0.064,0.015c1.088,0.226,1.787,1.291,1.56,2.377
	C108.656,121.785,107.772,122.449,106.804,122.407z"/>
</svg>
