<?xml version="1.0" encoding="utf-8"?>
<!-- Generator: Adobe Illustrator 16.0.0, SVG Export Plug-In . SVG Version: 6.00 Build 0)  -->
<!DOCTYPE svg PUBLIC "-//W3C//DTD SVG 1.1//EN" "http://www.w3.org/Graphics/SVG/1.1/DTD/svg11.dtd">
<svg version="1.1" id="Layer_1" xmlns="http://www.w3.org/2000/svg" xmlns:xlink="http://www.w3.org/1999/xlink" x="0px" y="0px"
	 width="256px" height="256px" viewBox="0 0 256 256" enable-background="new 0 0 256 256" xml:space="preserve">
<path fill="#333333" d="M125.224,242.813c-37.072,0-47.97-17.299-50.303-33.182c-19.53-2.29-31.3-19.25-31.3-34.75V60.73
	c0-17.16,15.64-42.563,37.53-42.894c3.19-0.664,23.07-4.647,43.53-4.647c22.831,0,46.18,4.06,49.45,4.64
	c22.11,0.28,38.51,26.11,38.51,42.89v114.15c0,16.12-15.689,34.109-37.16,34.99c-3.379,21.279-20.959,32.939-50.229,32.939
	L125.224,242.813z"/>
<path fill="#333333" d="M124.594,17.187c23.988,0,49.11,4.644,49.11,4.644c20.014,0,34.915,24.26,34.915,38.9v114.15
	c0,14.641-14.641,31.51-34.65,31.51h-1.91c-2.39,30-32.91,32.67-46.839,32.67c-15.86,0-44.46-2.819-46.7-33.05
	c-19.46-0.489-30.91-16.71-30.91-31.12V60.73c0-14.646,13.94-38.897,33.96-38.897c0,0,21.34-4.64,43.01-4.64"/>
<path fill="#333333" d="M124.579,9.193c-20.16,0-39.83,3.79-44.06,4.66c-11.2,0.3-21.68,6.348-29.88,17.09
	c-6.9,9.04-11.04,20.46-11.04,29.797v114.14c0,9.353,3.6,18.862,10.15,26.095c5.76,6.359,13.22,10.557,21.63,12.176
	c2.66,12.685,10.11,22.211,21.91,27.773c8.41,3.967,18.84,5.895,31.92,5.895c12.18,0,22.63-1.979,31.08-5.869
	c12.061-5.551,19.779-14.92,22.641-27.33c9.52-1.08,18.27-5.23,25.35-11.95c7.92-7.53,12.31-17.3,12.31-26.81V60.73
	c0-9.31-4.35-20.772-11.61-29.914c-8.5-10.71-19.25-16.714-30.47-16.973c-4.329-0.763-27.43-4.652-49.95-4.652L124.579,9.193z"/>
<path fill="#333333" d="M208.6,174.883c0,14.641-14.641,31.51-34.65,31.51H79.29c-20.016,0-31.67-16.861-31.67-31.5V60.728
	c0-14.647,13.945-38.898,33.96-38.898c0,0,21.427-4.64,43.095-4.64c23.99,0,49.07,4.642,49.07,4.642
	c20.015,0,34.876,24.252,34.876,38.898v114.15L208.6,174.883z"/>
<path fill="#F4D1B0" d="M164.652,185.057c0,9.515,1.38,17.221,8.043,17.221c6.672,0,16.104-1.783,16.104-17.221
	c0-9.502-5.403-17.209-12.075-17.209C170.059,167.848,164.652,175.555,164.652,185.057L164.652,185.057z"/>
<path fill="#C69C6D" d="M166.662,184.994c0.018-2.672,0.568-5.705,1.877-8.278c0.66-1.321,1.49-2.595,2.68-3.69
	c1.17-1.084,2.85-2.015,4.801-2.034c0.729,0.069,0.569,0.01,1.279,0.159c0.551,0.11,1.03,0.281,1.4,0.461
	c0.82,0.369,1.5,0.89,2.109,1.42c1.18,1.1,2.631,2.369,3.301,3.689c1.3,2.641,2.49,5.49,2.49,8.34v0.33
	c0,1.881-2.091,3.4-3.951,3.43c-1.879,0.021-3.719-1.479-3.739-3.34c0-0.129-0.14-0.279-0.13-0.41c0.199-1.869-0.03-3.93-0.65-5.649
	c-0.57-1.79-1.779-2.92-2.1-3.04c-0.19-0.1-0.76-0.07-1.43,0.38c-0.65,0.46-1.341,1.21-1.9,2.07c-1.16,1.83-2.12,3.86-2.12,6.319
	v0.101c0,1.101-1.09,1.899-2.19,1.78c-1.029-0.11-1.779-0.98-1.77-2L166.662,184.994z"/>
<path fill="#F4D1B0" d="M84.79,185.057c0,9.515-1.378,17.221-8.044,17.221c-6.672,0-16.103-1.783-16.103-17.221
	c0-9.502,5.407-17.209,12.076-17.209C79.379,167.848,84.789,175.555,84.79,185.057L84.79,185.057z"/>
<path fill="#C69C6D" d="M82.79,184.994c-0.023-2.672-0.576-5.705-1.887-8.278c-0.666-1.321-1.49-2.595-2.68-3.69
	c-1.177-1.084-2.854-2.015-4.802-2.034c-0.73,0.069-0.58,0.01-1.28,0.159c-0.56,0.11-1.03,0.281-1.41,0.461
	c-0.82,0.369-1.49,0.89-2.11,1.42c-1.18,1.1-2.73,2.369-3.4,3.689c-1.31,2.641-2.59,5.49-2.59,8.34v0.33c0,1.881,2.18,3.4,4.06,3.43
	c1.88,0.021,3.76-1.479,3.79-3.34c0-0.129,0.16-0.279,0.16-0.41c-0.21-1.869,0.05-3.93,0.66-5.649c0.56-1.79,1.78-2.92,2.1-3.04
	c0.21-0.1,0.76-0.07,1.45,0.38c0.64,0.46,1.24,1.21,1.79,2.07c1.15,1.83,2.01,3.86,2.01,6.319v0.101c0,1.101,1.19,1.899,2.29,1.78
	c1.03-0.11,1.88-0.98,1.88-2L82.79,184.994z"/>
<path fill="#FFDDBB" d="M172.229,202.061c0,33.834-32.504,36.752-47.003,36.752c-16.504,0-47.006-2.918-47.006-36.754
	c0-33.83-3.51-77.26,47-77.26c51.01,0,47,43.43,47,77.26L172.229,202.061z"/>
<path fill="#333333" d="M69.383,179.723l9,26.002l13-30.33"/>
<path fill="#F5F5F5" d="M119.272,187.273c0,9.121-7.386,16.517-16.507,16.517c-9.124,0-16.52-7.396-16.52-16.517
	c0-9.117,7.396-16.5,16.52-16.5C111.885,170.773,119.272,178.156,119.272,187.273z M165.02,187.273
	c0,9.121-7.39,16.517-16.508,16.517c-9.123,0-16.517-7.396-16.517-16.517c0-9.117,7.394-16.5,16.517-16.5
	C157.632,170.773,165.02,178.156,165.02,187.273L165.02,187.273z"/>
<path fill="#333333" d="M181.061,181.391l-8.557,24.334l-13-30.33"/>
<path fill="#333333" d="M112.378,184.675c0,5.368-4.347,9.716-9.71,9.716c-5.378,0-9.725-4.348-9.725-9.716
	c0-5.372,4.347-9.712,9.725-9.712C108.031,174.963,112.378,179.303,112.378,184.675z"/>
<path fill="#333333" d="M157.7,184.675c0,5.368-4.349,9.716-9.72,9.716c-5.36,0-9.701-4.348-9.701-9.716
	c0-5.372,4.341-9.712,9.701-9.712C153.354,174.963,157.7,179.303,157.7,184.675z"/>
<path fill="#333333" d="M123.85,225.598c-12.158,0-19.784-5.399-20.258-5.74c-0.853-0.619-1.037-1.803-0.42-2.657
	c0.62-0.851,1.81-1.043,2.66-0.425c0.63,0.451,15.92,11.146,38.035-0.159c0.93-0.468,2.09-0.104,2.563,0.836
	c0.471,0.94,0.1,2.087-0.841,2.562c-8.2,4.184-15.56,5.584-21.75,5.584H123.85z"/>
<path fill="#333333" d="M59.32,186.686c0,0,61.13-17.803,136.688,0l-7.779-69.661l-83.336,3.868l-47.787,15.483L59.32,186.686
	L59.32,186.686z"/>
<path fill="#FFFF00" d="M125.99,154.936c-41.23,0-74.772-36.6-74.772-81.583c0-2.108,1.703-3.812,3.807-3.812
	c2.112,0,3.814,1.704,3.814,3.812c0,40.78,30.12,73.96,67.15,73.96c37.02,0,67.15-33.181,67.15-73.96c0-2.108,1.7-3.812,3.811-3.812
	c2.1,0,3.81,1.704,3.81,3.812c0,44.984-33.54,81.583-74.78,81.583H125.99z M141.24,118.91c0,8.428-6.823,15.26-15.25,15.26
	c-8.423,0-15.253-6.832-15.253-15.26c0-8.416,6.83-15.246,15.252-15.246c8.422,0,15.25,6.83,15.25,15.247L141.24,118.91z"/>
<linearGradient id="SVGID_1_" gradientUnits="userSpaceOnUse" x1="991.4111" y1="-246.2471" x2="991.4111" y2="-239.327" gradientTransform="matrix(7.466 0 0 -7.466 -7277.0195 -1609.0283)">
	<stop  offset="0" style="stop-color:#FF5459"/>
	<stop  offset="0.789" style="stop-color:#FF6064;stop-opacity:0"/>
</linearGradient>
<path fill="url(#SVGID_1_)" d="M127.62,187.38v21.578c0,0,1.056,4.172-4.97,6.026l1.802-6.026l-2.433-23.149"/>
<path fill="#333333" d="M122.318,218.178c-0.824,0-1.59-0.529-1.854-1.357c-0.325-1.02,0.24-2.109,1.268-2.439
	c5.353-1.699,5.147-4.76,5.138-4.89l-0.013-23.56c0-1.07,1.303-1.94,2.379-1.94c1.078,0,2.383,0.87,2.383,1.95v23.35
	c0,0,0.32,6.09-8.28,8.82c-0.19,0.06-0.83,0.1-1.03,0.1L122.318,218.178z"/>
</svg>
