<svg xmlns="http://www.w3.org/2000/svg" width="256" height="256" viewBox="0 0 256 256"><path fill="#29D6F7" d="M128.75 201c-.766 0-1.53-.29-2.116-.873l-97.5-97c-.977-.972-1.166-2.485-.458-3.667L54.41 56.65c.54-.905 1.518-1.27 2.573-1.27h141.533c1.055 0 2.032.365 2.574 1.27l25.733 42.905c.04.065.075.084.11.15l.5.977c.576 1.155.35 2.538-.564 3.45l-96 95.995c-.59.586-1.36.873-2.12.873z"/><path fill="#333" d="M198.517 58.38l25.733 42.81.5.906-96 95.953-97.5-96.84 25.733-42.83H198.62m-.103-6H56.983c-2.11 0-4.065.92-5.148 2.73l-25.733 42.9c-1.416 2.36-1.038 5.34.917 7.28l97.5 96.98c1.17 1.16 2.7 1.73 4.23 1.73 1.53 0 3.07-.6 4.24-1.77l96-96.01c1.82-1.83 2.28-4.62 1.12-6.93l-.5-1c-.07-.14-.14-.27-.22-.4l-25.73-42.8c-1.09-1.81-3.04-2.73-5.15-2.73z"/><path fill="#29D6F7" stroke="#333" stroke-width="6" stroke-linejoin="round" stroke-miterlimit="10" d="M128.75 199.38l-96-96h192z"/><path fill="#29ABE2" stroke="#333" stroke-width="6" stroke-linejoin="round" stroke-miterlimit="10" d="M128.75 197.62l-33.573-95.37 66.6.008zM130.02 59l-36.77 42.77L56.48 59m143.54 0l-36.77 42.77L126.48 59"/><path fill="none" stroke="#333" stroke-width="6" stroke-linejoin="round" stroke-miterlimit="10" d="M224.25 102.38h-193l25.733-43h141.534z"/></svg>