<?xml version="1.0" encoding="utf-8"?>
<!-- Generator: Adobe Illustrator 16.0.0, SVG Export Plug-In . SVG Version: 6.00 Build 0)  -->
<!DOCTYPE svg PUBLIC "-//W3C//DTD SVG 1.1//EN" "http://www.w3.org/Graphics/SVG/1.1/DTD/svg11.dtd">
<svg version="1.1" id="Layer_1" xmlns="http://www.w3.org/2000/svg" xmlns:xlink="http://www.w3.org/1999/xlink" x="0px" y="0px"
	 width="256px" height="256px" viewBox="0 0 256 256" enable-background="new 0 0 256 256" xml:space="preserve">
<path fill="#333333" d="M167.25,115.424c-0.51,0-1.023-0.155-1.468-0.478l-0.122-0.093c-1.061-0.85-1.25-2.39-0.426-3.468
	c0.49-0.644,1.236-0.983,1.99-0.983c0.51,0,1.023,0.156,1.469,0.478l0.093,0.07c1.067,0.833,1.282,2.37,0.476,3.46
	C168.771,115.073,168.021,115.424,167.25,115.424L167.25,115.424z"/>
<polyline fill="#333333" points="167.223,112.9 167.249,112.922 167.219,112.902 "/>
<polyline fill="#333333" points="167.239,112.922 167.239,112.925 167.229,112.922 "/>
<path fill="#333333" d="M167.199,107.902c-1.51,0-3,0.68-3.98,1.966c-1.65,2.16-1.27,5.24,0.85,6.938l0.061,0.054l0.061,0.05
	l0.109,0.083c0.881,0.63,1.891,0.932,2.9,0.932c1.55,0,3.08-0.722,4.06-2.078c1.58-2.198,1.12-5.25-1.01-6.888
	c-0.05-0.04-0.101-0.08-0.14-0.11c-0.891-0.65-1.92-0.96-2.94-0.96L167.199,107.902z"/>
<path fill="#333333" d="M62.55,224.484c-1.31,0-2.405-1.016-2.493-2.332l-0.4-5.842c-0.09-1.364,0.93-2.551,2.29-2.66
	c4.68-0.379,10.26-1.112,12.34-1.717c0.49-1.855,1.65-4.156,2.41-5.556c0.4-0.728,1.13-1.21,1.95-1.29
	c0.005-0.002,0.365-0.037,0.96-0.117c-0.437-1.31-0.867-2.76-1.11-4.359c-0.096-0.57-0.22-1.17-0.35-1.79
	c-0.31-1.47-0.66-3.14-0.69-4.931c-0.03-0.459-0.07-1.02-0.11-1.59l-0.01-0.13c-1.976-1.79-4.125-3.93-5.903-6.659
	c-2.338-3.44-3.906-7.24-4.51-10.931c-0.58-3.64-0.34-7.53,0.69-11.25c0.766-2.75,1.917-5.45,3.426-8.04
	c-0.27-0.43-0.527-0.88-0.763-1.38c-0.193-0.39-0.44-0.83-0.69-1.29c-0.572-1.05-1.165-2.13-1.662-3.38l-0.038-0.101
	c-0.08-0.229-0.164-0.459-0.25-0.689h-0.16c-1.304-0.061-2.34-1.11-2.38-2.41l-0.09-2.82l-0.95-0.59
	c-0.746-0.46-1.19-1.29-1.173-2.17l0.116-5.59l-1.27-1.95c-0.47-0.729-0.534-1.64-0.16-2.43l0.63-1.32l-0.31-0.569
	c-0.52-0.971-0.35-2.17,0.43-2.951l0.464-0.46l-0.46-1.03c-0.124-0.28-0.2-0.59-0.213-0.9c-0.34-7.24,3.38-12.71,5.09-14.82
	l-0.14-1.25c-0.14-1.31,0.75-2.51,2.06-2.74l0.14-0.02c0.06-0.3,0.12-0.58,0.2-0.83l-4.95-2.34c-0.83-0.4-1.38-1.22-1.43-2.15
	c-0.04-0.93,0.44-1.8,1.24-2.27l0.4-0.22c-2.9-2.91-4.63-6.74-5.1-11.31c-7.49-0.47-9.11-6.08-9.11-10.82
	c0-4.16,1.72-7.74,4.35-9.56c-1.42-3.32-2.55-7.15-2.29-10.59c-0.43-0.08-0.84-0.28-1.19-0.59c-0.76-0.68-1.03-1.77-0.67-2.73
	c0.3-0.79,7.51-19.41,33.44-19.41c1.36,0,2.77,0.06,4.18,0.16c0.07,0.01,0.13,0.01,0.19,0.02c3.79,0.58,16.06,2.88,18.3,8.81
	c4.02,0.44,7.4,2.49,9.85,6c2.09,3.01,3.05,6.53,3.05,8.53c0,0.73,0,2.84-4.48,10.74c2.02,2.01,3.26,5.19,3.26,8.63
	c0,6.2-2.87,9.93-8.15,10.7c-0.23,2.44-0.82,4.67-1.77,6.66l0.72,0.59l2.42-0.44c0.15-0.02,0.3-0.04,0.45-0.04
	c0.31,0,0.62,0.06,0.91,0.17l1.16,0.45l2.19-1.39c0.41-0.25,0.87-0.39,1.35-0.39c0.11,0,0.22,0.01,0.33,0.03l3.05,0.41l3.18-1.89
	c0.39-0.23,0.83-0.35,1.28-0.35c0.04,0,2.77,0.12,2.77,0.12l1.98-0.53l6.689-1.95c0.23-0.07,0.471-0.1,0.701-0.1
	c0.949,0,1.85,0.55,2.27,1.45c0.02,0.06,0.18,0.4,0.39,0.98l0.55-0.03c1.211-0.08,2.461-0.16,3.69-0.16c0.271,0,0.54,0,0.8,0.01
	c0.71,0.021,1.41,0.03,2.09,0.03c1.391,0.02,2.7,0.03,4.01,0.14l5.141,0.53c0.93,0.1,1.76,0.26,2.51,0.41
	c1.15-2.29,3.03-4.73,6.061-6.1c2.229-1.24,4.31-1.87,6.199-1.87c1.711,0,3.211,0.5,4.471,1.49c0.949,0.65,1.5,1.72,1.649,3.19
	l0.69,0.45l22.14,3.26c3.271,0.48,5.54,3.54,5.06,6.8c-0.43,2.93-2.979,5.13-5.92,5.13c-0.289,0-0.59-0.02-0.89-0.06l-0.18-0.03
	l-13.28-2.41c0.46,1.32,0.35,2.66-0.33,3.84c-0.109,0.37-0.3,0.73-0.55,1.06c-0.44,0.56-1.05,1-1.84,1.31
	c0.399,1.48-0.011,2.69-0.431,3.44c-0.109,0.36-0.289,0.71-0.529,1.03c-0.311,0.42-0.721,0.77-1.221,1.05
	c0.021,0.77-0.189,1.54-0.609,2.25c-0.45,1.36-1.85,3-5.061,3.27c-0.39,0.09-1.06,0.2-1.97,0.2c-1.44,0-3.72-0.3-6.351-1.71
	c-0.25-0.14-0.479-0.32-0.68-0.54c-0.609-0.46-1.16-0.96-1.64-1.48c-0.229-0.17-0.44-0.32-0.649-0.44l-1.461-0.9
	c-0.899-0.44-4.27-2.36-5.539-6.66c-0.58-0.14-1.17-0.29-1.811-0.37l-4.32-0.56c-0.859-0.09-1.88-0.13-2.949-0.16
	c-0.681-0.02-1.371-0.05-2.07-0.09c-0.4-0.03-0.79-0.03-1.189-0.03c-0.74,0-1.49,0.03-2.261,0.06c-0.729,0.03-1.47,0.06-2.22,0.07
	c-0.68,1.33-1.52,2.63-2.51,3.88c-0.48,0.61-1.211,0.96-1.971,0.96c-0.13,0-0.26-0.01-0.39-0.03l-3.271-0.52l-2.25,3.75
	c-0.459,0.78-1.29,1.22-2.14,1.22c-0.34,0-0.68-0.07-1.01-0.22l-2.86-1.27l-2.96,3.88c-0.48,0.63-1.22,0.99-1.99,0.99
	c-0.25,0-0.5-0.03-0.75-0.11l-2.65-0.83l-2.67,2.86c1.15,5.04,2.56,15.57-1.32,28.76c-0.32,1.09-1.32,1.79-2.4,1.79h-0.12l-0.03,0.2
	c-0.08,0.57-0.15,1.12-0.19,1.66l-0.03,0.22c-0.1,0.601-0.22,1.17-0.33,1.729l-0.07,0.361c0.38,0.819,0.3,1.799-0.25,2.539
	c0.12,0.1,0.23,0.2,0.34,0.311c1.04,1.05,1.65,2.539,1.64,3.979c-0.03,2.9-2.34,5.351-5.06,5.351c-1.3-0.01-2.57-0.17-3.88-0.49
	l-0.12,0.21l4.52,10.43l0.04,0.08c0.57,1.229,0.6,2.63,0.08,3.92c-0.54,1.36-1.63,2.45-3,2.99c-0.62,0.25-1.27,0.37-1.93,0.37
	c-1.81,0-3.45-0.91-4.39-2.37c-0.01,1.39-0.59,2.72-1.56,3.7l1.33,0.81l3.38,1.79l3.53,1.62c1.58,0.729,3.23,1.351,4.83,1.96
	c0.68,0.26,1.35,0.52,2,0.77c0.88,0.291,1.73,0.58,2.56,0.871c1.33,0.449,2.61,0.89,3.84,1.27c1.03,0.311,2.01,0.6,2.96,0.87
	c1.12-3,4.92-4.95,5.81-5.37c0.57-0.311,1.42-0.63,2.71-1.12c0.29-0.11,0.59-0.16,0.89-0.16c0.669,0,1.33,0.271,1.81,0.771
	l24.22,25.49c0.46,0.489,0.71,1.14,0.681,1.81c-0.021,0.67-0.311,1.3-0.811,1.76l-2.721,2.49c-0.459,0.43-1.069,0.66-1.68,0.66
	c-0.26,0-0.52-0.04-0.779-0.13c-0.65-0.211-1.351-0.41-2.08-0.61c-2.82-0.79-6.28-1.75-8.631-4.13
	c-4.049-1.02-7.869-3.25-9.18-4.061c-0.75,0.01-1.43,1.34-1.5,1.541c-0.2,0.529-0.57,0.969-1.05,1.26
	c-0.74,0.439-1.53,0.67-2.36,0.67c-2.06,0-4.04-1.36-6.02-4.17c-1.98-0.551-4.31-1.24-7.08-2.09c-1.45-0.461-2.92-0.971-4.48-1.511
	c-0.84-0.29-1.7-0.59-2.57-0.89c-0.05-0.01-0.09-0.03-0.13-0.04c-0.69-0.271-1.4-0.55-2.11-0.82c-1.53-0.59-3.11-1.2-4.73-1.92
	l3.62,7.24c0.1,0.21,0.18,0.43,0.22,0.649l1.56,8.181c0.14,0.72-0.04,1.46-0.49,2.021c-0.46,0.569-1.13,0.92-1.86,0.949
	c0,0.01-37.07,1.561-37.11,1.561L62.55,224.484z"/>
<path fill="#333333" d="M84.144,34.015c1.282,0,2.616,0.05,3.998,0.15c0,0,14.958,2.264,16.417,7.478c0.11,0.37,0.19,0.8,0.26,1.277
	c0.12-0.003,0.24-0.005,0.36-0.005c9.13,0,12.04,9.332,12.04,12.113c0,2.23-3.58,8.576-5.26,11.424c2.35,1.09,4.04,4.232,4.04,7.94
	c0,7.486-4.57,8.352-7.81,8.352c-0.08,0-0.15-0.013-0.23-0.017c-0.02,4.687-1.33,8.142-3.35,10.69h0.1c0.54,0,1.06,0.032,1.56,0.098
	l0.37-0.122l1.95,1.627l3.57-0.657l2.35,0.91l3.25-2.08l3.91,0.522l3.93-2.34l3.049,0.135l2.351-0.633l6.74-1.965
	c0,0,0.43,0.93,0.88,2.528c0.04-0.002,0.09-0.008,0.14-0.01c2.021-0.083,3.97-0.292,5.87-0.292c0.24,0,0.48,0.003,0.721,0.01
	c2.119,0.06,4.109,0.01,5.969,0.16c1.861,0.19,3.561,0.362,5.08,0.52c1.511,0.152,2.82,0.524,3.9,0.712l0.34,0.072
	c0.791-2.216,2.44-5.307,5.69-6.73c1.44-0.812,3.3-1.6,5.08-1.6c1.06,0,2.1,0.284,3,1.02c0.36,0.212,0.739,0.832,0.64,2.53
	l2.29,1.482c0.04,0.004,0.08,0,0.13,0.006L200,92.635c1.91,0.282,3.23,2.056,2.95,3.967c-0.257,1.737-1.744,2.99-3.45,2.99
	c-0.172,0-0.346-0.013-0.52-0.04c-0.033-0.003-0.08-0.01-0.114-0.017l-16.66-3.024c-0.649,0.95-0.31,2.15,0.06,2.95
	c0.74,1.01,0.94,2.05,0.185,3.02c0,0,0.247,1.22-3.13,1.4l-0.15,0.01c-0.23,0-0.475-0.02-0.73-0.06l-0.119,0.3
	c1.545,1.37,2.359,2.86,1.3,4.21c0,0,0.21,1.09-2.664,1.36c0.03,0.04,0.05,0.08,0.06,0.11c0.766,0.9,1.01,1.85,0.301,2.77
	c0,0-0.09,1.64-3.141,1.82c0,0-0.58,0.18-1.576,0.18c-1.205,0-3.022-0.26-5.164-1.41c0,0-0.24-0.27-0.646-0.66
	c0.19,0.23,0.36,0.38,0.42,0.43c-0.646-0.47-1.165-0.95-1.58-1.43c-0.319-0.25-0.67-0.5-1.055-0.729l-1.575-0.97
	c0,0-3.98-1.68-4.63-6.53c-0.127-0.021-0.24-0.05-0.377-0.08c-0.9-0.17-1.945-0.53-3.229-0.69l-4.311-0.55
	c-1.583-0.17-3.35-0.16-5.189-0.27c-0.436-0.03-0.881-0.04-1.33-0.04c-1.461,0-2.98,0.12-4.531,0.13
	c-0.52,0.02-1.049,0.05-1.579,0.09c-0.65,1.52-1.564,3.11-2.851,4.76l-4.934-0.77l-3.12,5.19l-4.68-2.08l-4.16,5.45l-4.14-1.3
	l-3.89,4.16l-1.28-0.78c0,0,4.72,12.72-0.48,30.38c0,0-1.35-0.39-2.35-0.91v0.03c0,1.79-0.36,3.47-0.49,5.03
	c-0.19,1.119-0.45,2.18-0.61,3.16l0.4,0.399l-0.49,0.511c-0.02,0.029-0.05,0.06-0.08,0.08l-0.04,0.219
	c-0.1,0.721-0.27,1.4-0.44,2.021c1.4,0,2.54,1.521,2.52,2.931c-0.01,1.399-1.16,2.879-2.56,2.879h-0.02
	c-1.79-0.01-3.44-0.379-4.97-0.92c-0.6,0.92-1.21,1.931-1.81,2.99l5.05,11.641c0.01,0.02,0.02,0.06,0.04,0.08
	c0.63,1.359-0.17,2.979-1.56,3.539c-0.34,0.131-0.68,0.19-1.01,0.19c-1.09,0-2.12-0.64-2.54-1.71l-3-7.63
	c-0.6,1.55-1.24,3.14-1.71,4.8c-0.06,0.24-0.13,0.48-0.2,0.721c0.16,1.149,0.33,2.299,0.51,3.449c0.02,0.09,0.03,0.18,0.03,0.27
	c0.08,1.291-0.73,2.431-1.89,2.841c-0.06,0.36-0.12,0.729-0.15,1.09c-0.02,0.36-0.04,0.71-0.05,1.06c1.04,0.641,2.09,1.28,3.13,1.92
	l3.52,1.86c1.21,0.56,2.41,1.11,3.58,1.649c2.35,1.091,4.78,1.94,7.02,2.82c2.31,0.771,4.47,1.551,6.5,2.17
	c1.77,0.53,3.4,1.01,4.9,1.44c0.5-0.54,0.89-1.11,1.02-1.69c0.54-2.439,4.67-4.369,4.67-4.369l0.01,0.02
	c-0.04-0.09,2.49-1.061,2.49-1.061l24.221,25.48l-2.711,2.48c-3.26-1.07-7.88-1.76-10.18-4.641l0.01,0.021
	c-4.77-1-9.6-4.181-9.6-4.181c-0.32-0.08-0.62-0.109-0.9-0.109c-2.65,0-3.84,3.16-3.84,3.16c-0.35,0.209-0.71,0.31-1.07,0.31
	c-1.51,0-3.09-1.7-4.47-3.83c-2.21-0.61-4.88-1.39-7.9-2.319c-2.17-0.681-4.51-1.53-6.98-2.371c-2.46-0.989-5.07-1.92-7.71-3.149
	c-1.32-0.62-2.66-1.24-4.02-1.88l-0.5-0.27c0.28,1.14,0.68,2.189,1.03,3.189c0.16,0.439,0.3,0.859,0.44,1.279l2.82,5.631l1.56,3.119
	l1.56,8.181l-37,1.56l-0.39-5.84c0,0,14.41-1.17,14.41-2.729s2.34-5.841,2.34-5.841s1.76-0.17,4.03-0.619
	c-0.12-0.391-0.25-0.78-0.4-1.18c-0.57-1.69-1.23-3.511-1.55-5.551c-0.33-2.029-0.97-4.119-1.01-6.39
	c-0.05-0.94-0.13-1.89-0.19-2.851c-2.25-2.01-4.47-4.14-6.23-6.85c-1.99-2.93-3.55-6.37-4.14-9.97c-0.57-3.601-0.2-7.14,0.64-10.181
	c0.85-3.05,2.1-5.66,3.43-7.869c0.19-0.311,0.38-0.601,0.58-0.9c-0.53-0.721-1.07-1.49-1.49-2.38c-0.73-1.44-1.64-2.89-2.29-4.53
	c-0.26-0.76-0.57-1.52-0.87-2.29l-1.79-0.08l-0.13-4.149l-2.07-1.301l0.13-6.359l-1.69-2.6l1.16-2.471l-0.9-1.69l1.68-1.68
	l-1.17-2.6c-0.39-8.18,5.19-13.89,5.19-13.89l-0.26-2.33l2.02-0.36c0.02-0.91,0.1-1.7,0.3-2.31l2.13-1.27l-8.41-4
	c1.38-0.81,2.62-1.39,3.86-1.83c-4.15-2.52-7.46-6.89-7.46-14.43v-0.26c0,0.24-0.76,0.36-1.35,0.36c-3.23,0-7.63-0.86-7.63-8.35
	c0-4.29,2.27-7.82,5.19-8.29c-1.84-3.69-4.49-10.31-2.4-14.5c0,0,0.47-0.72-0.22-0.72c-0.39,0-1.13,0.23-2.52,0.92
	c0,0.01,6.61-17.77,31.1-17.77"/>
<polyline fill="#333333" points="74.22,103 74.22,102.996 74.22,102.999 "/>
<polyline fill="#333333" points="78.384,136.85 78.584,136.509 78.234,136.079 78.384,136.839 "/>
<path fill="#333333" d="M78.814,141.969l0.01-0.05l-0.3-0.819v-0.011l-0.06-0.03c0.11,0.301,0.223,0.601,0.35,0.891"/>
<path fill="#333333" d="M81.394,175.779l0.016-0.061c-0.06-1.08-0.122-2.16-0.19-3.24c-0.07-1.459-0.143-2.92-0.216-4.379
	l-0.31,0.049l-0.575,3.17c0.02,0.341,0.04,0.69,0.1,1.031c0.19,1.14,0.6,2.279,1.17,3.409"/>
<path fill="#333333" d="M84.14,29c-27.65,0-35.47,20.18-35.79,21.04c-0.713,1.925-0.18,4.09,1.35,5.463
	c0.11,0.1,0.224,0.194,0.34,0.28c0.09,2.795,0.834,5.67,1.824,8.315C49.474,66.56,48,70.255,48,74.402
	c0,7.27,3.377,11.884,9.392,13.057c0.673,3.75,2.116,6.67,3.863,8.94c-0.476,0.81-0.72,1.76-0.677,2.74
	c0.083,1.85,1.183,3.5,2.858,4.29l1.81,0.85c-0.535,0.9-0.79,1.98-0.666,3.1l0.028,0.26c-2.07,2.82-5.327,8.46-4.983,15.65
	c0.022,0.46,0.11,0.92,0.258,1.36c-0.84,1.32-1.016,2.98-0.45,4.47l-0.11,0.23c-0.74,1.569-0.616,3.409,0.33,4.859l0.85,1.311
	l-0.1,4.819c-0.033,1.681,0.783,3.271,2.164,4.22l0.048,1.49c0.066,2.051,1.367,3.79,3.19,4.5c0.512,1.21,1.092,2.27,1.61,3.221
	c0.228,0.41,0.452,0.819,0.66,1.229l0.125,0.25c-1.28,2.399-2.272,4.86-2.968,7.36c-1.126,4.06-1.387,8.32-0.756,12.3
	c0.663,4.06,2.36,8.19,4.91,11.96c1.642,2.51,3.588,4.58,5.545,6.42c0.02,0.23,0.03,0.47,0.05,0.7c0.05,1.989,0.42,3.75,0.74,5.3
	c0.13,0.6,0.25,1.16,0.34,1.689c0.12,0.761,0.27,1.49,0.45,2.181c-0.82,0.45-1.51,1.13-1.97,1.979c-0.95,1.74-1.67,3.291-2.16,4.641
	c-2.33,0.46-6.59,1.01-10.59,1.34c-2.72,0.22-4.77,2.59-4.58,5.311l0.39,5.84c0.18,2.629,2.37,4.66,4.99,4.66
	c0.08,0,0.15,0,0.22-0.011l37-1.55c1.45-0.061,2.81-0.75,3.71-1.891c0.9-1.14,1.26-2.619,0.99-4.039l-1.56-8.181
	c-0.09-0.45-0.23-0.89-0.44-1.3l-0.67-1.34l0.72,0.279c0.09,0.031,0.17,0.061,0.26,0.091c0.87,0.29,1.72,0.59,2.56,0.88
	c1.57,0.55,3.06,1.07,4.53,1.529c2.44,0.74,4.52,1.36,6.33,1.881c1.47,1.93,4.03,4.49,7.54,4.49c1.28,0,2.54-0.36,3.65-1.03
	c0.79-0.48,1.379-1.021,1.78-1.75c1.83,1,4.51,2.3,7.41,3.11c2.73,2.469,6.29,3.459,9.23,4.279c0.719,0.2,1.399,0.391,1.979,0.58
	c0.51,0.16,1.03,0.24,1.55,0.24c1.23,0,2.439-0.46,3.381-1.311l2.709-2.49c0.99-0.909,1.57-2.17,1.62-3.51s-0.45-2.649-1.37-3.619
	L131.5,186.8c-0.96-1.01-2.279-1.557-3.62-1.557c-0.596,0-1.2,0.11-1.78,0.33c-1.105,0.42-2.01,0.764-2.755,1.14l-0.08,0.04
	c-1.1,0.521-4.1,2.09-5.98,4.69l-1.06-0.315c-1.15-0.351-2.4-0.78-3.73-1.229c-0.814-0.28-1.65-0.57-2.51-0.851
	c-0.64-0.254-1.293-0.504-1.96-0.76c-1.556-0.593-3.166-1.21-4.664-1.899l-1.78-0.82l-0.18-0.082c0.5-0.09,0.99-0.23,1.47-0.416
	c2.01-0.799,3.61-2.399,4.41-4.389c0.77-1.94,0.72-4.031-0.14-5.9l-0.04-0.07l-2.86-6.59h0.07c4.06,0,7.52-3.59,7.56-7.83
	c0.02-1.721-0.55-3.43-1.58-4.84c0.14-0.71,0.12-1.46-0.05-2.17c0.1-0.49,0.2-0.99,0.29-1.51c0.03-0.15,0.05-0.291,0.06-0.44
	l0.01-0.04c1.24-0.59,2.22-1.689,2.64-3.1c3.71-12.61,2.76-22.97,1.64-28.7l0.71-0.76l1.14,0.36c0.49,0.16,1,0.23,1.5,0.23
	c1.53,0,3.01-0.7,3.98-1.97l1.76-2.31l1.06,0.47c0.65,0.29,1.35,0.43,2.03,0.43c1.71,0,3.36-0.88,4.291-2.43l1.379-2.3l1.601,0.26
	c0.26,0.04,0.521,0.06,0.78,0.06c1.52,0,2.979-0.69,3.93-1.91c0.76-0.96,1.43-1.95,2.029-2.96l0.83-0.03
	c0.771-0.03,1.49-0.06,2.16-0.06c0.381,0,0.711,0.01,1.01,0.03c0.771,0.04,1.471,0.07,2.171,0.09c1.01,0.03,1.96,0.07,2.77,0.15
	l4.261,0.55l0.229,0.03c1.72,4.11,4.97,6.08,6.229,6.71l1.36,0.84c0.101,0.06,0.19,0.13,0.3,0.2c0.49,0.52,1.041,1.01,1.631,1.46
	c0.35,0.36,0.739,0.64,1.18,0.88c3.09,1.66,5.8,2.01,7.529,2.01c1,0,1.791-0.11,2.34-0.22c3.841-0.37,6.131-2.45,6.98-4.72
	c0.33-0.61,0.561-1.24,0.69-1.9c0.31-0.27,0.59-0.57,0.86-0.92c0.35-0.47,0.629-0.99,0.83-1.53c0.469-0.91,0.77-1.96,0.789-3.09
	c0.41-0.31,0.801-0.69,1.15-1.13c0.38-0.49,0.67-1.03,0.88-1.59c0.31-0.58,0.53-1.19,0.66-1.82l10.19,1.85l0.279,0.05
	c0.41,0.06,0.83,0.09,1.24,0.09c4.17,0,7.779-3.12,8.39-7.26c0.681-4.63-2.53-8.96-7.17-9.64l-21.021-3.09
	c-0.5-1.66-1.43-2.7-2.35-3.34c-1.68-1.29-3.729-1.97-5.939-1.97c-2.29,0-4.75,0.72-7.32,2.13c-2.87,1.32-4.859,3.41-6.23,5.56
	c-0.31-0.04-0.629-0.08-0.959-0.12l-3.351-0.34l-1.72-0.17l-0.1-0.01c-1.391-0.12-2.811-0.13-4.181-0.14
	c-0.67-0.01-1.351-0.02-2.06-0.04c-0.271-0.01-0.561-0.01-0.851-0.01c-0.899,0-1.8,0.04-2.67,0.09c-0.92-1.46-2.53-2.32-4.22-2.32
	c-0.46,0-0.93,0.07-1.4,0.2l-6.619,1.93l-0.011,0.01l-1.6,0.43l-2.28-0.1h-0.22c-0.9,0-1.79,0.25-2.56,0.71l-2.44,1.45l-2.18-0.29
	c-0.22-0.03-0.44-0.04-0.66-0.04c-0.95,0-1.89,0.28-2.7,0.79l-1.11,0.73c-0.58-0.22-1.18-0.33-1.79-0.33h-0.05
	c0.19-0.71,0.35-1.45,0.48-2.2c5.32-1.54,8.39-6.07,8.39-12.77c0-3.41-1-6.55-2.73-8.93c3.95-7.229,3.95-9.35,3.95-10.44
	c0-5.21-4.18-14.94-13.72-16.8c-1.74-2.98-5.37-5.25-11.21-7.06c-4.23-1.32-8.23-1.93-8.39-1.96c-0.13-0.02-0.25-0.03-0.38-0.04
	c-1.47-0.11-2.94-0.16-4.37-0.16L84.14,29z"/>
<path fill="#F2C49C" d="M174.188,114.366c0,0-2.83,0.867-6.74-1.234c0,0-1.187-1.37-2.86-2.396l-1.575-0.966
	c0,0-8.134-3.438-3.037-14.65c0,0,1.547-10.52,10.912-9.988l11.979,7.743L174.188,114.366L174.188,114.366z M177.324,112.553
	c0,0-0.088,1.64-3.139,1.813c-3.043,0.176-9.213-4.172-9.213-4.172s-1.892-2.643,1.101-4.728c0,0,0.323-0.67,1.932-0.384
	C169.605,105.369,179.949,109.157,177.324,112.553L177.324,112.553z"/>
<path fill="#C69C6D" d="M166.605,104.753c0,0-1.242,1.313,0.431,2.36c0.87,0.548,8.446,3.48,9.888,2.874
	C178.363,109.38,166.605,104.753,166.605,104.753z"/>
<path fill="#F2C49C" d="M179.63,108.313c0,0,0.24,1.21-3.133,1.394c-3.373,0.178-10.22-4.59-10.22-4.59s-2.104-2.898,1.205-5.165
	c0,0,0.354-0.737,2.132-0.415C171.387,99.86,182.527,104.607,179.63,108.313L179.63,108.313z"/>
<path fill="#C69C6D" d="M165.029,98.373c0,0,2.777,1.45,3.934,0.484c1.158-0.963,5.773-8.763,5.115-10.626
	c-0.656-1.86-3.055,0.85-3.055,0.85l-5.994,9.3V98.373z M165.24,98.465c0,0-2.721-2.114-2.295-3.556
	c0.424-1.45,5.742-8.79,7.714-8.92c1.97-0.14,0.43,3.13,0.43,3.13l-5.86,9.34L165.24,98.465z"/>
<path fill="#F2C49C" d="M167.27,91.493c0,0-3.732-0.667-3.514-3.875c0,0,6.784-5.647,10.75-2.262"/>
<path fill="#C69C6D" d="M174.193,101.408c1.88,0.97,3.85,2.226,4.972,3.542c-2.668-0.14-9.813-3.44-10.353-3.785
	c-0.789-0.52-0.789-1.214-0.707-1.623c0.209-0.063,0.479-0.1,0.836-0.084c1.08,0.377,3.16,1.12,5.26,1.95H174.193z M167.253,112.925
	c0,0-2.584-1.872-0.43-5.898l0.13-1.457c0,0-0.434-0.81,0.018-2.148c0.449-1.336,0.244-2.033,1.707-2.625l0.264-1.338
	c0,0-2.941-0.74-3.297,3.96c-0.354,4.7-1.633,4.13-1.633,4.13s-0.211,2.88,3.25,5.37L167.253,112.925z"/>
<path fill="#F2C49C" d="M177.486,89.32l22.518,3.315c1.91,0.282,3.23,2.056,2.95,3.967c-0.28,1.91-2.056,3.236-3.97,2.95
	c-0.033-0.003-0.08-0.01-0.114-0.017l-22.394-4.064c-1.689-0.3-2.814-1.92-2.508-3.62c0.301-1.65,1.86-2.76,3.51-2.53L177.486,89.32
	z M182.756,100.31c0,0-2.775-3.855,1.336-4.963l-6.678,0.367L182.756,100.31L182.756,100.31z"/>
<path fill="#C69C6D" d="M173.46,93.067c0.67-1.73-6.56,5.998-6.56,5.998l-0.039,2.053c0,0,3.654-0.787,10.453,2.612
	c0,0,0.156-4.182,3.209-4.702c0,0-4.189-0.568-5.56,1.54"/>
<path fill="#C69C6D" d="M181.107,95.905c0,0-1.49-1.41-0.025-4.64l-1.316-0.398c0,0-2.598,4.278-1.354,5.984c0,0,1.514,2,2.576,1.64
	c0,0,0.029-1.92,0.41-2.29l-0.291-0.29V95.905z M177.52,91.285c0,0-3.074-0.135-6.076,3.97l3.119-5.406c0,0,1.537-0.65,2.959,1.43
	L177.52,91.285z M165.684,98.687c0,0-5.73,0.084-6.363,4.697c0,0-0.409-5.857,2.9-6.588c3.32-0.734,3.471,1.89,3.471,1.89
	L165.684,98.687z M191.62,97.852c0,0-2.519-3.28,0.319-6.188c0,0-2.596-0.073-2.455,3.2
	C189.626,98.134,191.621,97.852,191.62,97.852L191.62,97.852z"/>
<path fill="#F2C49C" d="M182.462,102.47c0,0,0.242,1.213-3.13,1.395c-3.37,0.183-10.223-4.59-10.223-4.59s-2.104-2.9,1.203-5.165
	c0,0,0.359-0.74,2.136-0.42s12.909,5.07,10.014,8.77V102.47z"/>
<path fill="#C69C6D" d="M174.234,93.78c1.883,0.97,6.643,4.014,7.766,5.33c-2.676-0.134-9.82-3.44-10.35-3.783
	c-0.791-0.524-0.795-1.217-0.713-1.624c0.211-0.06,0.482-0.098,0.84-0.08C172.85,93.995,172.143,92.95,174.234,93.78L174.234,93.78z
	"/>
<path fill="#E8C4A6" d="M172.4,95.29c0,0-1.075,0.01-2.719,4.66l-1.709-0.365l0.012-1.662l2.328-3.814l2.086,1.18L172.4,95.29z"/>
<path fill="#F2C49C" d="M173.9,85.205c0,0,1.459-0.396,1.142,2.967c-0.315,3.36-6.046,9.433-6.046,9.433s-3.176,1.65-4.93-1.95
	c0,0-0.678-0.464-0.096-2.17C164.55,91.772,170.672,81.789,173.9,85.205z"/>
<path fill="#FFFFFF" d="M168.693,95.948c0,0,0.09,1.315-1.063,1.208c-1.14-0.105-2.58-0.87-2.09-1.876c0,0-0.08-0.76,0.98-0.771
	c1.06-0.015,2.189,1.438,2.189,1.438H168.693z"/>
<path fill="#87151D" d="M67.62,145.907l2.853,0.134l-0.132-3.891L67.62,145.907z M137.59,88.913c0,0,4.936,8.052-2.593,17.658
	l-7.66-5.84l10.253-11.81V88.913z"/>
<path fill="#03141E" d="M110.46,95.015c0,0,5.452,10.904,1.167,17.917c-4.284,7.01-9.93-5.063-9.93-5.063l8.762-12.86L110.46,95.015
	z"/>
<path d="M105.296,154.54l-0.488,0.507c-0.26,0.275-0.664,0.71-1.227,1.373c-1.09,1.266-2.62,3.206-4.23,5.663
	c-0.8,1.229-1.65,2.584-2.43,4.073c-0.87,1.445-1.52,3.082-2.32,4.727c-0.64,1.69-1.37,3.436-1.88,5.252
	c-0.48,1.825-1.06,3.663-1.27,5.555c-0.14,0.94-0.33,1.881-0.43,2.817l-0.12,2.81c-0.2,1.86,0.1,3.686,0.19,5.447
	c0.01,1.783,0.59,3.438,0.84,5.037c0.23,1.62,0.81,3.08,1.28,4.43c0.52,1.34,0.78,2.641,1.36,3.67c0.53,1.061,0.98,1.98,1.36,2.74
	l1.17,2.391l-9.83,5.58l-1.42-2.91c-0.44-0.93-0.99-2.061-1.61-3.35c-0.67-1.271-1.05-2.891-1.66-4.561
	c-0.57-1.689-1.24-3.5-1.55-5.55c-0.33-2.03-0.97-4.13-1.01-6.39c-0.12-2.25-0.42-4.57-0.18-6.92l0.2-3.561
	c0.13-1.18,0.37-2.35,0.55-3.53c0.31-2.38,1.01-4.64,1.64-6.89c0.66-2.23,1.54-4.34,2.35-6.391c0.96-1.97,1.79-3.93,2.83-5.649
	c0.95-1.771,1.97-3.36,2.94-4.81c1.94-2.9,3.75-5.181,5.13-6.73c0.66-0.76,1.26-1.41,1.7-1.86c0.39-0.38,0.59-0.59,0.59-0.59
	l7.59,7.66L105.296,154.54z M91.144,152.268c0,0-0.222,0.184-0.646,0.523c-0.44,0.37-1.112,0.96-1.923,1.75
	c-1.624,1.57-3.873,4-5.775,7.16c-1.875,3.15-3.185,7-2.575,10.689c0.315,1.86,1.157,3.721,2.41,5.551
	c1.178,1.859,3.06,3.539,4.93,5.199c1.052,0.76,2.06,1.561,3.146,2.291c1.14,0.699,2.26,1.389,3.38,2.079l3.52,1.87
	c1.21,0.561,2.41,1.1,3.59,1.65c2.36,1.09,4.79,1.939,7.02,2.82c2.32,0.77,4.47,1.549,6.51,2.18c4.1,1.229,7.54,2.199,9.98,2.779
	c2.44,0.621,3.83,0.98,3.83,0.98l-2.63,10.99c0,0-1.45-0.381-4-1.04c-2.55-0.62-6.18-1.671-10.52-3c-2.17-0.681-4.5-1.53-6.98-2.37
	c-2.45-0.98-5.06-1.91-7.7-3.141l-4.02-1.869l-4.06-2.18c-1.35-0.791-2.69-1.671-4.05-2.521c-1.33-0.91-2.64-1.931-3.95-2.91
	c-2.52-2.22-5.06-4.521-7.03-7.55c-1.99-2.94-3.55-6.37-4.13-9.98c-0.57-3.6-0.21-7.14,0.63-10.18c0.85-3.05,2.1-5.66,3.43-7.859
	c2.69-4.4,5.54-7.36,7.61-9.36c1.04-0.99,1.89-1.74,2.51-2.25l1-0.8l6.55,8.569L91.144,152.268z M139.152,213.663l0.01,0.019
	c-4.778-0.99-9.604-4.181-9.604-4.181c-3.29-0.83-4.76,3.04-4.76,3.04c-4.33,2.6-9.69-12.03-9.69-12.03s4.98-2.319,5.52-4.77
	c0.54-2.44,4.67-4.37,4.67-4.37l0.01,0.02c-0.07-0.08,2.49-1.05,2.49-1.05l24.221,25.5l-2.721,2.479
	c-3.26-1.06-7.89-1.76-10.18-4.629L139.152,213.663z M78.91,207.576c0,0,8.18-0.778,12.072-3.506l2.34-1.159l3.115,6.229l1.558,3.12
	l1.56,8.19l-37,1.56l-0.392-5.84c0,0,14.41-1.17,14.41-2.72c0-1.561,2.337-5.84,2.337-5.84V207.576z M97.674,99.736
	c0,0,0.32,0.93,0.89,2.55c0.542,1.588,1.24,3.816,2.022,6.516c0.76,2.697,1.607,5.854,2.354,9.3c0.79,3.43,1.445,7.167,1.976,10.966
	c0.537,3.789,0.832,7.697,0.964,11.42c-0.02,1.896-0.038,3.728-0.06,5.463l-0.4,5.029c-0.27,1.601-0.51,3.07-0.722,4.371
	c-0.18,1.289-0.595,2.479-0.832,3.43l-0.86,3l-27.656-9.68c0,0,0.214-0.391,0.6-1.08c0.186-0.371,0.52-0.701,0.72-1.371
	c0.25-0.629,0.54-1.34,0.85-2.109l0.8-2.91l0.673-3.59c0.33-2.62,0.605-5.55,0.648-8.609c0.05-3.051-0.01-6.201-0.25-9.19
	c-0.19-2.98-0.52-5.79-0.82-8.2c-0.33-2.4-0.64-4.41-0.89-5.77l-0.26-1.5c-0.07-0.38-0.12-0.58-0.12-0.58l20.39-7.43L97.674,99.736z
	"/>
<path fill="#F2C49C" d="M88.666,105.524l3.02-1.4c1.908-0.87,4.64-2.014,7.954-3.305c3.333-1.24,7.23-2.68,11.51-3.94
	c2.122-0.68,4.36-1.25,6.624-1.86c2.266-0.62,4.625-1.07,6.95-1.62c2.362-0.43,4.723-0.88,7.07-1.22
	c2.368-0.26,4.674-0.64,6.96-0.76c2.286-0.1,4.477-0.35,6.596-0.28c2.109,0.05,4.109,0,5.969,0.16c1.861,0.19,3.561,0.36,5.07,0.51
	s2.82,0.52,3.9,0.71l3.41,0.7l-2.9,10.54c0,0-1.02-0.23-2.8-0.64c-0.899-0.18-1.95-0.53-3.229-0.69l-4.311-0.56
	c-1.59-0.18-3.35-0.17-5.2-0.27c-1.84-0.12-3.829,0.07-5.86,0.09c-2.039,0.05-4.159,0.35-6.31,0.52c-2.159,0.26-4.34,0.62-6.53,0.95
	c-2.18,0.45-4.37,0.8-6.51,1.33c-2.14,0.51-4.25,0.99-6.26,1.58c-4.06,1.07-7.78,2.34-10.96,3.43c-3.17,1.13-5.78,2.15-7.57,2.9
	l-2.77,1.2l-3.86-8.12L88.666,105.524z"/>
<path fill="#F2C49C" d="M77.54,168.725c0,0-1.803-0.942-2.014-4.385c0,0-0.907-1.918-0.907-3.439v-1.434c0,0-0.36-6.779,9.12-7.994
	c0,0,7.92-3.268,11.4,3.127l-0.05,11.074l-17.56,3.051H77.54z"/>
<path fill="#F2C49C" d="M89.814,154.814c0,0-1.083-2.744,1.125-3.907c0,0,6.5,2.176,5.88,6.18"/>
<path fill="#F2C49C" d="M85.929,164.042c0.31,2.81,0.53,5.627,0.79,8.435c0.21,2.818,0.47,5.635,0.64,8.453
	c0.1,1.564,1.45,2.754,3.01,2.655c1.56-0.101,2.76-1.448,2.65-3.01l-0.03-0.271c-0.44-2.789-0.81-5.593-1.22-8.39
	c-0.36-2.8-0.75-5.599-1.07-8.404c-0.14-1.319-1.35-2.28-2.67-2.13c-1.32,0.15-2.28,1.34-2.14,2.67L85.929,164.042z"/>
<path fill="#F2C49C" d="M90.939,162.516l6.46,16.449c0.55,1.396,2.14,2.072,3.54,1.521c1.39-0.551,2.19-2.172,1.56-3.532
	c-0.02-0.024-0.03-0.06-0.04-0.08l-7.03-16.216c-0.54-1.227-1.98-1.78-3.2-1.25c-1.2,0.515-1.78,1.9-1.31,3.107H90.939z"/>
<path fill="#F2C49C" d="M90.309,168.641c0,0,1.41-3.41,3.82-1.145l-2.97-4.257l-0.85,5.399V168.641z"/>
<path fill="#F2C49C" d="M80.829,164.454c0.09,2.688,0.25,5.364,0.38,8.044c0.16,2.682,0.3,5.366,0.5,8.043
	c0.1,1.41,1.32,2.47,2.73,2.359c1.39-0.1,2.43-1.289,2.36-2.68c-0.15-2.68-0.35-5.359-0.52-8.029c-0.22-2.681-0.39-5.36-0.64-8.03
	c-0.13-1.33-1.3-2.31-2.63-2.19c-1.28,0.12-2.24,1.221-2.2,2.49L80.829,164.454z"/>
<path fill="#F2C49C" d="M77.049,161.168L75,176.584c-0.14,1.12,0.64,2.146,1.76,2.294c1.08,0.144,2.08-0.593,2.28-1.66l2.79-15.296
	c0.236-1.314-0.633-2.574-1.95-2.813c-1.313-0.24-2.567,0.619-2.812,1.939c-0.006,0.03-0.008,0.08-0.01,0.11L77.049,161.168z"/>
<path fill="#F2C49C" d="M91.69,157.973c0.945,0.77,1.8,1.352,2.74,1.949c0.938,0.578,1.91,1.11,2.933,1.576
	c2.037,0.924,4.31,1.652,6.85,1.674c1.407,0.01,2.558-1.467,2.57-2.87c0.013-1.413-1.118-2.92-2.526-2.92h-0.065
	c-1.494,0-3.177-0.067-4.792-0.776c-0.814-0.35-1.62-0.961-2.404-1.43c-0.762-0.447-1.582-0.795-2.197-1.795h-0.08
	c-1.05,0-2.58-0.24-3.41,0.811c-0.82,1.05-0.65,2.949,0.37,3.789L91.69,157.973z M103.296,158.146c0,0,0.22,1.086-0.364,1.563
	c0,0,1.293,0.76,2.02,0.16c0.732-0.61,0.387-1.391,0.387-1.391s-0.85-0.47-2.05-0.34L103.296,158.146z"/>
<path fill="#333333" d="M135.256,144.738"/>
<path fill="#F2C49C" d="M81.188,113.72c0,0-0.094,0.162-0.258,0.463c-0.128,0.234-0.33,0.627-0.61,1.222
	c-0.544,1.14-1.27,2.852-1.912,4.976c-0.34,1.06-0.633,2.22-0.89,3.46c-0.31,1.24-0.4,2.56-0.613,3.91
	c-0.017,1.36-0.253,2.771-0.106,4.181l0.09,2.129l0.33,2.11c0.13,1.431,0.64,2.761,0.98,4.11c0.34,1.35,1.03,2.57,1.49,3.81
	c0.52,1.229,1.3,2.3,1.87,3.38c0.53,1.101,1.41,1.961,2.02,2.851c0.68,0.85,1.2,1.7,1.88,2.3c0.63,0.65,1.17,1.21,1.62,1.66
	l1.41,1.46l-7.54,7.93l-1.7-1.87c-0.54-0.6-1.2-1.31-1.95-2.14c-0.79-0.78-1.48-1.89-2.3-3.021c-0.76-1.17-1.77-2.3-2.47-3.779
	c-0.73-1.44-1.64-2.891-2.29-4.53c-0.59-1.681-1.39-3.34-1.81-5.16c-0.42-1.819-0.97-3.64-1.11-5.53l-0.32-2.81
	c-0.02-0.931-0.02-1.86-0.03-2.79c-0.09-1.85,0.22-3.64,0.34-5.38c0.31-1.7,0.52-3.38,0.95-4.9c0.37-1.54,0.8-2.97,1.27-4.26
	c0.89-2.6,1.86-4.67,2.62-6.12c0.36-0.7,0.7-1.31,0.96-1.75c0.22-0.37,0.35-0.56,0.35-0.56l7.66,4.69L81.188,113.72z"/>
<path d="M81.055,102.024c0,0-5.455-1.945-7.596,2.143c-2.15,4.09-7.8,15.386-7.8,15.386s10.51,5.063,20.06,2.92"/>
<path fill="#C69C6D" d="M76.962,95.015c0,0,0.78,8.178,7.014,16.358l14.02-6.23l-8.18-13.632"/>
<path d="M80.857,106.698c0,0,0.39,4.479,12.075-3.114l2.726-3.505c0,0,6.232-5.07,14.8-5.07c0,0-6.233,7.98,1.17,17.91l-18.89,15.78
	l-12.66-12.86l0.78-9.15L80.857,106.698z"/>
<path fill="#C1272D" d="M137.59,88.913c0,0-7.267,13.504-2.593,17.658l-4.935-0.77l-3.112,5.2l-4.676-2.08l-4.157,5.46l-4.15-1.3
	l-3.897,4.16l-1.3-0.77c0,0,4.678,12.73-0.52,30.38c0,0-10.904-4.94-28.04-3.641l-0.777,0.391l-0.91-2.471l0.065-1.939l-0.78-1.36
	l0.78-1.3l-1.168-1.42l1.037-1.69l-1.234-1.56l1.348-4.23l-0.82-2.14l0.39-2.51l-2.86-8.56l-0.51-7.14c0,0-3.5-5.85,3.77-6.1
	l4.68,6.11c0,0-3.37,11.3,2.6,27.529c0,0-4.54-22.069,2.21-28.169c0,0,1.17-6.23,8.31-7.66l10.33-5.51l1.95,1.63l3.57-0.66
	l2.34,0.91l3.25-2.08l3.89,0.52l3.9-2.34l2.99,0.14l9.09-2.6L137.59,88.913z"/>
<path fill="#87151D" d="M76.835,95.925c0,0-5.19-0.52-11.162,2.984l17.62,8.37l-6.458-11.36V95.925z"/>
<path fill="#C1272D" d="M72.55,106.312l-2.984,0.52l0.258,2.336c0,0-5.583,5.71-5.192,13.89l1.168,2.6l-1.685,1.686l0.907,1.688
	l-1.168,2.47l1.688,2.601l-0.13,6.359l2.076,1.3l0.133,4.16c0,0,7.21-6.13,10.76-4.88c0.35,0.12,0.67,0.32,0.93,0.6"/>
<path d="M74.188,102.806c0,0,4.966,23.807,11.003,40.165l-4.33,0.15c0,0-11.29-31.55-8.96-38.95l2.29-1.36L74.188,102.806z"/>
<path fill="#E2B593" d="M104.28,74.394c0,4.612,0.668,8.35,3.902,8.35c3.237,0,7.81-0.865,7.81-8.35
	c0-4.612-2.622-8.355-5.855-8.355c-3.236,0-5.857,3.74-5.857,8.35V74.394z"/>
<path fill="#C69C6D" d="M105.25,74.36c0.01-1.292,0.28-2.762,0.914-4.014c0.32-0.638,0.727-1.254,1.302-1.792
	c0.57-0.523,1.383-0.975,2.33-0.986c0.357,0.033,0.287,0.003,0.623,0.07c0.27,0.058,0.5,0.14,0.68,0.23
	c0.4,0.178,0.72,0.426,1.02,0.686c0.57,0.537,0.11,1.154,0.43,1.792c0.63,1.282,0.05,2.663,0.05,4.048v0.158
	c0,0.907,0.14,1.65-0.77,1.66c-0.91,0.015-1.22-0.713-1.22-1.62c0-0.062,0.21-0.132,0.22-0.197c0.1-0.914,0.13-1.906-0.17-2.74
	c-0.28-0.876-0.79-1.423-0.95-1.478c-0.1-0.053-0.34-0.044-0.66,0.175c-0.32,0.22-1.41,0.582-1.68,1.006
	c-0.56,0.88-1.79,1.87-1.79,3.07v0.04c0,0.53,0.25,0.92-0.28,0.86c-0.51-0.06-0.1-0.49-0.09-0.98L105.25,74.36z"/>
<path fill="#E2B593" d="M64.722,74.394c0,4.612-0.67,8.35-3.905,8.35c-3.232,0-7.81-0.865-7.81-8.35
	c0-4.612,2.622-8.355,5.856-8.355c3.237,0,5.86,3.74,5.86,8.35L64.722,74.394z"/>
<path fill="#F2C49C" d="M107.954,82.64c0,16.412-15.768,17.832-22.805,17.832c-8.01,0-22.81-1.42-22.81-17.83
	c0-16.413-1.7-37.48,22.8-37.48c24.74,0,22.8,21.067,22.8,37.48L107.954,82.64z"/>
<path d="M112.238,65.217l-4.153,11.807l-6.308-14.72"/>
<path fill="#F5F5F5" d="M80.93,68.134c0,3.75-3.035,6.79-6.787,6.79c-3.75,0-6.79-3.04-6.79-6.79c0-3.747,3.04-6.783,6.79-6.783
	c3.752,0.01,6.787,3.04,6.787,6.79V68.134z"/>
<path fill="#333333" d="M78.917,67.976c0,2.604-2.104,4.712-4.71,4.712c-2.602,0-4.714-2.108-4.714-4.712
	c0-2.603,2.112-4.712,4.713-4.712C76.813,63.264,78.916,65.374,78.917,67.976L78.917,67.976z"/>
<path fill="#F5F5F5" d="M101.105,68.134c0,3.75-3.04,6.79-6.787,6.79c-3.754,0-6.795-3.04-6.795-6.79
	c0-3.747,3.04-6.783,6.795-6.783c3.747,0.01,6.787,3.04,6.787,6.79V68.134z"/>
<circle fill="#333333" cx="94.377" cy="67.976" r="4.712"/>
<path fill="#333333" d="M82.92,86.62c-0.153,0-0.316-0.025-0.473-0.073c-4.773-1.52-4.32-4.818-4.298-4.956l3.14-12.28
	c0.21-0.83,1.07-1.33,1.89-1.12c0.83,0.21,1.33,1.07,1.12,1.9l-3.1,12.13c0.04,0.07,0.49,0.82,2.19,1.36
	c0.82,0.26,1.27,1.14,1.01,1.96c-0.21,0.66-0.83,1.09-1.49,1.09L82.92,86.62z M83.54,91.487c-0.664,0-1.318-0.065-1.958-0.195
	c-5.32-1.056-7.698-6.135-7.795-6.348c-0.357-0.786-0.013-1.708,0.77-2.067c0.777-0.357,1.704-0.02,2.063,0.767
	c0.018,0.037,1.844,3.868,5.596,4.6c3.205,0.603,7.03-1.083,11.332-5.09c0.636-0.588,1.617-0.55,2.205,0.08
	c0.587,0.628,0.553,1.617-0.078,2.202C91.347,89.458,87.273,91.486,83.54,91.487L83.54,91.487z M88.26,58.927
	c-0.053,0.042,0.954-0.683,2.48-1.404c0.748-0.414,1.684-0.727,2.673-1.146c0.508-0.177,1.042-0.322,1.59-0.486
	c0.545-0.14,1.085-0.35,1.665-0.42c1.158-0.14,2.305-0.48,3.432-0.42c1.12,0.03,2.192-0.11,3.09,0.09l3.03,0.55
	c1.537,0.28,2.555,1.75,2.274,3.28c-0.277,1.54-1.745,2.56-3.284,2.28c-0.132-0.02-0.258-0.05-0.38-0.09l-0.48-0.16l-2.076-0.7
	c-0.62-0.27-1.433-0.24-2.27-0.41c-0.842-0.2-1.79-0.03-2.73-0.07c-0.475-0.03-0.943,0.1-1.41,0.15c-0.47,0.07-0.934,0.14-1.378,0.2
	c-0.874,0.24-1.733,0.37-2.417,0.64c-1.42,0.43-2.21,0.85-2.27,0.86c-0.75,0.43-1.7,0.17-2.12-0.58c-0.43-0.74-0.18-1.69,0.58-2.12
	L88.26,58.927z"/>
<path d="M88.666,56.17c0,0-1.32,1.676-3.48,3.993c-2.174,2.31-5.163,5.324-8.776,7.848c-1.814,1.25-3.758,2.42-5.97,3.12
	c-2.15,0.73-4.767,0.9-6.896-0.04c-1.054-0.42-1.922-1.05-2.544-1.65c-0.7-0.58-1.07-1.19-1.467-1.65
	c-0.63-0.97-0.94-1.54-0.94-1.54c-0.738-1.36-0.233-3.06,1.13-3.81c1.36-0.73,3.068-0.23,3.81,1.14c0.01,0.02,0.023,0.04,0.032,0.07
	l0.09,0.18l0.468,0.93c0.182,0.22,0.352,0.61,0.624,0.84c0.25,0.29,0.54,0.56,0.914,0.74c0.7,0.42,1.91,0.56,3.46,0.19
	c1.54-0.34,3.27-1.17,4.93-2.14c3.35-1.97,6.44-4.62,8.68-6.66c2.23-2.06,3.59-3.54,3.59-3.54c0.59-0.63,1.57-0.68,2.21-0.09
	c0.6,0.56,0.66,1.49,0.16,2.12L88.666,56.17z"/>
<path d="M104.616,56.65c0,0-9.516,4.2-24.07,5.17l0.312-2.25c0,0-8.965,5.484-17.054,5.484l-1.943,0.24l-2.18,3.52
	c0,0-6.911-11.158-3.881-17.224c0,0,1.134-1.74-2.75,0.204c0,0,7.32-19.69,35.095-17.627c0,0,14.958,2.263,16.417,7.477
	c1.108,3.99,0.057,15.007,0.057,15.007L104.616,56.65z"/>
<path d="M99.946,50.986c0,0,0,11.156,3.88,15.525l7.276,1.36c0,0,6.108-9.93,6.108-12.84c0-2.91-3.194-13.021-13.383-12.05
	c-10.187,0.97-3.88,8.01-3.88,8.01L99.946,50.986z"/>
<path fill="#C1272D" d="M88.454,108.84l-5.65-7.788c0,0,15.58-8.862,23.76-7.498C106.564,93.554,90.012,104.751,88.454,108.84
	L88.454,108.84z"/>
<path d="M106.63,93.393c0,0-12.51,32.988-11.555,51.112l-4.627-0.485c0,0,1.51-17.941,3.553-26.706
	c1.29-5.502,6.07-21.782,6.07-21.782L106.63,93.393L106.63,93.393z"/>
<path fill="#87151D" d="M105.592,95.5l2.627-0.58l-1.59-1.527L105.592,95.5z M74.95,128.706l-1.36,1.364l-7.138-0.846
	C66.452,129.225,69.306,126.755,74.95,128.706L74.95,128.706z M74.173,131.883l1.558,1.561l-9.34,5c0,0-1.49-2.467,2.86-3.635
	c0,0-3.44-0.843-1.3-1.688c2.15-0.84,6.24-1.23,6.24-1.23L74.173,131.883z M113.443,111.116c0,0-3.373-7.664,0.13-10.65
	c0,0,0.91-0.258,0.91,1.56C114.483,103.842,113.313,107.996,113.443,111.116z M119.937,100.08c0,0-5.845,5.585-1.82,14.28
	l4.158-5.453C122.275,108.907,118.768,106.567,119.937,100.08L119.937,100.08z M128.502,91.51c0,0-5.384,8.425-1.882,12.316
	c0,0,2.013,1.056,2.146-1.28c0.129-2.338-1.295-6.738,1.947-11.668L128.502,91.51L128.502,91.51z M105.01,100.208
	c0,0-4.288,12.463,3.242,15.84l-0.516-2.337c0,0-3.632-1.29-2.727-13.5L105.01,100.208z M97.347,128.38c0,0,1.43,6.236,10.778,9.22
	l-0.52,1.559C107.605,139.158,97.217,136.428,97.347,128.38L97.347,128.38z M69.955,114.75c0,0-3.896,8.44,2.076,10.647
	c0,0-1.43-3.506-0.77-4.803c0.66-1.3,0.26-5.845-1.29-5.845L69.955,114.75z"/>
<path fill="#C69C6D" d="M62.108,70.3c-0.32-0.638-0.428-1.23-1-1.77c-0.573-0.522-1.236-0.962-2.18-0.974
	c-0.358,0.033-0.213,0.01-0.55,0.077c-0.27,0.057-0.463,0.142-0.645,0.232c-0.4,0.177-0.705,0.428-1.01,0.688
	c-0.57,0.537-0.923,1.154-1.243,1.792c-0.634,1.28-0.86,2.664-0.86,4.05v0.157c0,0.907,0.67,1.65,1.577,1.66
	c0.906,0.015,1.628-0.713,1.63-1.62c0-0.062-0.01-0.132-0.016-0.197c-0.1-0.914-0.03-1.906,0.27-2.74c0.28-0.876,0.85-1.423,1-1.477
	c0.1-0.053,0.36-0.044,0.69,0.175c0.32,0.22,0.61,0.582,0.88,1.006c0.55,0.88,0.98,1.87,0.98,3.07v-0.05"/>
<path d="M58.063,64.407l4.368,12.617l6.31-14.72"/>
</svg>
