<svg xmlns="http://www.w3.org/2000/svg" width="256" height="256" viewBox="0 0 256 256"><path fill="#29ABE2" d="M126.62 220.897c-.518-.026-1.006-.04-1.498-.053-1.46-.04-3.113-.085-5.517-.453l-1.947-.27-.563-.08c-.56-.08-1.188-.17-1.83-.34l-3.54-.84c-1.16-.24-2.22-.61-3.16-.94-.284-.1-.57-.19-.855-.29l-1.87-.65-.93-.33c-.103-.03-.204-.07-.303-.12l-4.42-2c-1.003-.47-1.86-.97-2.69-1.45-.337-.19-.677-.39-1.02-.58l-1.77-1.02c-.067-.03-.132-.07-.195-.12-.418-.27-.83-.56-1.24-.85l-.466-.32c-.374-.27-.694-.49-1.014-.71-.792-.55-1.612-1.13-2.432-1.79L86.227 205c-.54-.443-1.14-1.015-1.77-1.692l-2.77-2.87c-.422-.45-.77-.88-1.12-1.314l-1.167-1.45c-.63-.78-1.29-1.592-1.92-2.48-3.25-4.544-5.98-9.84-8.11-15.72-.02-.07-.05-.14-.07-.21l-1.21-4.044-.3-1.067c-.03-.103-.053-.21-.074-.313l-.21-1.033-.433-2.22c-.28-1.44-.572-2.93-.677-4.54l-.19-2.065-.086-1.017c-.288-.78-.3-1.524-.295-2.024l-.19-3.19c-.003-.08-.006-.15-.006-.23v-1.26c0-.73.18-1.32.37-1.74l.25-1.76.32-2.36.18-1.23c.01-.08.02-.17.04-.25l1.15-5.28c.01-.06.03-.13.05-.2 1.64-6 4.07-11.65 7.23-16.8 3.37-5.35 7.32-10.01 11.74-13.92.82-.74 1.67-1.4 2.5-2.05l.93-.73.52-.4c.42-.33.85-.66 1.28-.98l.18-.12 1.76-1.15c.42-.26.77-.49 1.11-.71.86-.56 1.76-1.14 2.75-1.67l.13-.06c.88-.46 1.76-.92 2.64-1.37l-20.34-43.8c-.86-1.28-.93-2.99-.05-4.37.36-.58.86-1.03 1.42-1.34l18.37-15.93c.05-.05.11-.09.17-.14l1.8-1.71c.74-.7 1.73-1.1 2.75-1.1l45.83.06c1.02 0 1.99.39 2.73 1.08l1.87 1.75 18.02 15.63c.94.27 1.76.86 2.3 1.71.74 1.16.83 2.6.25 3.84l-20.55 44.06c3.14 1.56 5.91 3.32 8.32 4.92l.11.07c6.95 4.97 12.75 11.27 17.22 18.74 3.26 5.35 5.65 11.24 7.28 17.98.01.03.79 3.67.8 3.7.16.89.26 1.72.35 2.45.04.3.07.58.11.86l.32 2.75c.08.76.09 1.41.1 1.94.01.2.01.4.02.58.01.04.07 4.2.07 4.2l-.01.8c0 .09-.01.18-.02.27l-.38 4.24c-.02.31-.05.62-.14 1.15l-.48 2.9-.16.89c-.14.85-.31 1.81-.55 2.76l-.02.1c-.29 1.03-.61 2.12-.96 3.27l-.05.18c-2.12 6.54-4.9 12.07-8.52 17-4.68 6.46-10.75 12.13-17.52 16.36-7.86 4.9-16.96 8.09-26.34 9.23-.95.14-1.87.19-2.68.23-.36.01-.72.03-1.08.06l-2.78.15c-.07.01-.13.01-.2.01-.03 0-1.43-.04-1.47-.04zm-4.81-28.718c.18.02.357.05.543.09l.918.16c.19.03.37.08.55.14.4.1 1.94.19 2.87.25.5.03 1 .06 1.46.09h.06l1.39-.07c.26-.02.61-.03.97-.04.33-.01.67-.02.85-.05.06-.01.11-.02.17-.02 6.22-.74 10.83-3.31 13.6-5.33 3.22-2.41 5.92-5.51 7.99-9.21 1.86-3.23 2.69-6.3 3.2-8.64l.02-.09c.12-.65.24-1.27.36-1.85.02-.16.03-.3.04-.43.02-.27.04-.53.07-.79.05-.47.1-.9.16-1.29l.04-3.43-.24-2.16c-.02-.12-.03-.34-.05-.57 0-.09-.01-.19-.02-.29l-.32-1.47c-.05-.21-.1-.48-.15-.75-.04-.21-.08-.43-.14-.65l-.59-1.77c-.74-2.03-1.9-4.81-4.04-7.49-2.3-2.94-5.14-5.44-8.27-7.3l-1.44-.77-.45-.25c-.18-.1-.42-.24-.51-.27-.05-.02-.09-.03-.14-.05-.47-.18-.94-.39-1.4-.59-.59-.26-1.09-.49-1.54-.61-.09-.02-.17-.05-.25-.08l-1.49-.51c-.56-.12-1.12-.25-1.68-.38-.27-.07-.57-.14-.87-.22-.16-.02-.3-.04-.45-.06-.55-.08-1.12-.18-1.67-.31l-3.54-.2c-.42.02-.92.03-1.43.04-.74.02-1.44.03-1.97.14-.14.03-.28.05-.43.06-1.95.17-4.06.71-6.84 1.74-.65.3-1.33.59-2.01.86-.1.05-.36.19-.64.35-.32.18-.64.36-.97.52l-.68.37-.71.49c-.22.16-.53.36-.84.56-.24.16-.49.31-.72.49-.57.48-1.15.96-1.74 1.44-.05.04-.11.08-.16.12-.01 0-.07.05-.22.22l-.99 1-.83.78s-.05.08-.11.14c-.1.13-.21.27-.32.4-.22.27-.45.53-.68.8-.23.26-.46.51-.66.79-1.46 1.93-2.74 4.26-3.93 7.12-.23.73-.47 1.46-.73 2.19l-.11.33-.08.35-.27 1.08-.24.83-.09.91-.03.23-.42 2.67.01.05c.02.16.04.33.04.5l.02 1.23c.01.13 0 .26-.01.4-.02.28.03.72.08 1.19l.06.56.15 1.65.07.36c.16.8.31 1.59.45 2.39.75 2.89 1.83 5.58 3.23 8 1.57 2.58 3.43 4.88 5.46 6.73.32.3.62.53.92.77.3.23.59.47.88.71l.73.6.84.55c.25.16.56.37.87.59.33.23.64.44.88.57l2.46 1.3 1.48.58c.22.08.49.19.75.3.34.14.69.29.88.33l.25.06 2.39.69.08.01z"/><path fill="#333" d="M104.89 39.064l45.822.063 2.05 1.92.004-.006 18.906 16.4h.584l-22.272 47.76c4.216 1.64 7.975 3.93 11.442 6.25 7.223 5.16 12.478 11.48 16.114 17.54 3.697 6.07 5.643 12 6.823 16.87l.75 3.49c.204 1.1.295 2.15.424 3.11l.31 2.68c.088.82.064 1.57.093 2.24.04 2.67.063 4.09.063 4.09l-.016.63-.292 3.2c-.023.26-.05.54-.075.83-.032.31-.034.54-.12 1.04l-.484 2.93c-.193 1.03-.374 2.22-.652 3.33-.297 1.07-.637 2.19-.993 3.37-1.52 4.69-3.87 10.29-7.91 15.78-3.98 5.49-9.43 10.98-16.42 15.34-6.97 4.35-15.47 7.54-24.76 8.66-1.15.18-2.33.18-3.51.27-.59.03-1.18.07-1.78.1l-.89.05-1.25-.04c-2.04-.1-3.66-.01-6.61-.46l-2-.27c-.66-.11-1.38-.18-1.95-.34l-3.66-.87c-1.24-.26-2.42-.73-3.63-1.13l-1.81-.63-.9-.32-.88-.4c-1.17-.53-2.35-1.06-3.53-1.6-1.17-.55-2.28-1.25-3.42-1.88l-1.7-.99c-.55-.36-1.08-.75-1.62-1.13-1.07-.77-2.18-1.5-3.22-2.34l-3.04-2.61c-.52-.43-1-.9-1.45-1.39L86 199.1l-1.41-1.46c-.46-.495-.87-1.04-1.307-1.564-.848-1.063-1.74-2.106-2.53-3.222-3.197-4.47-5.697-9.48-7.61-14.764l-1.218-4.045-.29-1.02-.21-1.04-.405-2.08c-.27-1.393-.55-2.786-.635-4.2l-.19-2.113-.09-1.062-.045-.53-.02-.27-.01-.13c0-.06-.007-.08-.02-.08-.02 0-.06.07-.096.07-.05 0-.094-.13-.08-.75l-.2-3.355v-1.26c0-.15.23-.38.248-.567l.334-2.37.33-2.373.178-1.185.23-1.06.925-4.21c1.52-5.54 3.79-10.88 6.79-15.77 3.05-4.84 6.73-9.26 10.98-13 1.05-.94 2.19-1.78 3.29-2.66.55-.43 1.1-.87 1.67-1.29l1.76-1.15c1.19-.742 2.34-1.554 3.56-2.21 1.24-.647 2.47-1.298 3.72-1.907.82-.37 1.65-.74 2.49-1.08L83.8 57.448h.07l18.907-16.4.01.02 2.102-2m32.32 62.612l.11-.976-.12.974m-9.04 95.25l.45-.02 1.14-.05c.76-.05 1.52-.006 2.26-.12 5.96-.71 11.3-3.01 15.48-6.06 4.16-3.11 7.12-6.91 9.12-10.48 2.05-3.57 3.02-7.01 3.63-9.81.13-.71.25-1.37.38-1.99.1-.59.08-1.03.14-1.49.05-.45.1-.86.15-1.24.04-.13.03-.527.04-.8v-.83l.03-3.21-.02.63-.26-2.327c-.05-.37-.05-.8-.15-1.26-.1-.45-.21-.94-.32-1.48-.13-.53-.2-1.11-.37-1.71l-.63-1.88c-.95-2.61-2.32-5.72-4.72-8.71-2.34-3-5.5-5.97-9.43-8.28l-1.52-.81c-.51-.27-1-.59-1.56-.78-1.1-.42-2.14-1-3.31-1.32l-1.73-.6c-.6-.12-1.21-.26-1.81-.4-.3-.07-.61-.15-.91-.23-.29-.07-.49-.06-.74-.11-.47-.06-.94-.15-1.41-.26-.13-.08-.72-.09-1.19-.12l-1.45-.09-1.46-.08-.27-.02-.22.01c-1.32.08-2.69-.01-4.02.26-2.71.24-5.38 1.04-8.02 2.03-.65.3-1.3.57-1.97.84-.66.28-1.26.69-1.91 1.01l-.97.51-.9.62c-.6.43-1.25.8-1.83 1.26-.56.48-1.14.96-1.72 1.43-.31.22-.58.48-.83.76l-.8.81-.82.79c-.27.27-.49.58-.74.87-.48.59-1.02 1.15-1.48 1.76-1.86 2.46-3.3 5.24-4.5 8.16-.24.75-.49 1.51-.75 2.26l-.2.56-.1.47-.23.94-.27.94c-.03.09-.06.13-.07.26l-.05.41-.08.84-.52 3.3.01.02.09.61.02 1.23c-.07.83.06 1.64.14 2.45l.11 1.23.05.61.12.6c.16.8.31 1.61.45 2.43.81 3.18 2.02 6.29 3.68 9.16 1.72 2.83 3.79 5.47 6.23 7.7.6.57 1.27 1.04 1.9 1.58l.95.78 1.03.67c.69.44 1.34.95 2.05 1.34l2.15 1.13.54.29.56.21 1.12.44c.75.29 1.47.65 2.25.82l2.28.65c.4.14.7.15 1.04.21l.99.18c1.01.34 3.4.4 5.28.54l.34.02m-33.53-35.4c-.01 0-.01-.01-.01-.04v.23l.17.28c.01-.48-.02-.61-.06-.61-.04 0-.09.14-.11.14M83.79 57.44h-.05.05m-.05 0l.03.024-.04-.023m21.15-26.38c-2.05 0-4.02.78-5.51 2.2l-1.68 1.59c-.05.04-.11.09-.16.14L79.43 50.7c-2.218 1.424-3.68 3.908-3.68 6.735 0 1.517.42 2.936 1.153 4.145l18.66 40.038c-.904.515-1.72 1.045-2.46 1.524-.33.213-.654.427-.99.635l-.13.084-1.762 1.16c-.12.08-.24.16-.35.25-.46.35-.92.7-1.38 1.06l-.45.35-.1.08c-.29.24-.59.47-.89.71-.83.65-1.77 1.39-2.71 2.22-4.7 4.15-8.89 9.1-12.43 14.72l-.05.09c-3.35 5.48-5.94 11.48-7.68 17.84-.03.14-.07.27-.1.4l-.92 4.21-.23 1.08c-.04.17-.07.34-.09.52l-.18 1.19-.01.1-.32 2.37-.17 1.25c-.26.74-.48 1.67-.48 2.77v1.26c0 .15.01.31.01.47l.18 3.06c0 .62.04 1.59.35 2.69l.05.56v.05l.18 2.02c.13 1.85.45 3.52.74 5l.02.11.41 2.09.22 1.08c.04.21.1.42.15.62l.29 1.02.03.09 1.22 4.04c.05.15.09.29.14.43 2.26 6.23 5.16 11.85 8.62 16.69.7.98 1.43 1.88 2.07 2.67.24.29.47.58.7.87l.12.15.33.41c.34.42.76.95 1.27 1.5l.09.1 1.41 1.46 1.36 1.41c.71.76 1.4 1.41 2.09 1.99l2.26 1.94.73.63.2.16c.92.74 1.84 1.39 2.65 1.95l.92.65.12.08.45.31c.45.31.89.62 1.34.92l.39.24 1.71.99.13.07c.32.18.64.37.96.55.86.5 1.84 1.07 2.95 1.59l.1.04 2.35 1.07 1.18.54.9.41c.2.09.4.17.61.24l.91.33 1.86.65.12.04c.27.09.54.19.8.28.99.35 2.21.77 3.6 1.07l1.97.47 1.48.35c.85.23 1.65.34 2.24.42l.42.06c.05.01.11.02.16.02l.46.07 1.48.21c2.62.4 4.46.45 5.95.49.46.01.92.02 1.4.05.07 0 .14.01.21.01l1.26.03h.21c.13 0 .27-.01.4-.01l.9-.05 1.62-.09.19-.01.19-.02c.33-.02.65-.04.98-.05.89-.04 1.89-.09 3.01-.26 9.94-1.21 19.6-4.59 27.93-9.8 7.2-4.49 13.65-10.51 18.64-17.4 3.88-5.27 6.84-11.17 9.07-18.03l.05-.16.06-.18c.35-1.16.68-2.26.98-3.35.02-.07.04-.14.05-.2.28-1.1.46-2.13.62-3.04.05-.26.09-.52.14-.77l.03-.16.48-2.9c.11-.64.15-1.09.18-1.46l.01-.09.01-.1.03-.34.04-.5.29-3.19c.02-.18.03-.35.03-.53l.02-.63v-.32l-.06-4.09v-.23c-.01-.15-.01-.31-.01-.47-.01-.57-.02-1.35-.12-2.25l-.01-.07-.31-2.68c-.01-.04-.01-.09-.02-.13-.03-.26-.07-.53-.1-.8-.09-.76-.2-1.69-.39-2.71l-.04-.23-.51-2.37-.24-1.11c-.01-.07-.03-.14-.05-.2-1.73-7.14-4.27-13.4-7.75-19.13-4.76-7.93-10.92-14.63-18.31-19.91l-.21-.14c-1.54-1.03-3.33-2.19-5.32-3.33l18.96-40.63c1.16-2.48.97-5.38-.5-7.68-.88-1.38-2.14-2.44-3.6-3.06L158.03 35l-.03-.025-1.795-1.68c-1.48-1.39-3.434-2.16-5.46-2.17l-45.82-.06h-.01zm13.7 109.58c2.36-.87 4.12-1.32 5.68-1.46.29-.03.57-.07.86-.13.2-.04.81-.05 1.25-.06.41-.01.87-.02 1.37-.04l1.3.07 1.45.08.23.01c.542.12 1.09.21 1.626.29.107.01.205.03.29.04.24.06.48.12.717.17.51.12 1.012.24 1.51.34l.03.02 1.22.42c.164.06.334.11.505.16.16.05.63.26.97.41.45.21.97.44 1.56.66.05.03.09.05.14.08.17.1.34.19.51.29l.2.11 1.19.64c3.37 2.02 5.69 4.5 7.05 6.24l.06.08c1.75 2.18 2.73 4.53 3.4 6.35l.31.95.19.56c.02.1.034.2.054.3.06.31.12.61.182.9l.146.65.12.55c.02.26.04.51.07.75l.21 1.86-.02 2.02-.01.69v.23c-.05.38-.1.76-.14 1.14-.05.4-.07.73-.084.98l-.006.09c-.12.58-.224 1.15-.33 1.71v.02c-.45 2.05-1.175 4.71-2.718 7.39-.015.03-.03.06-.046.08-1.23 2.2-3.42 5.35-6.893 7.96-2.383 1.73-6.34 3.92-11.67 4.55l-.215.03c-.133.01-.27.01-.403.01-.38.01-.764.02-1.146.05l-1.06.05h-.02l-1.32-.09c-.67-.04-1.76-.11-2.24-.17-.23-.06-.46-.12-.7-.16l-.95-.17c-.15-.03-.3-.05-.44-.08l-.82-.23-1.34-.38c-.11-.03-.21-.06-.32-.08-.13-.05-.25-.1-.38-.16-.29-.12-.58-.24-.87-.35l-1.08-.42-.16-.06-.11-.06-.96-.5-1.17-.61-.5-.34c-.33-.23-.67-.46-1.01-.68l-.61-.4-.57-.46c-.31-.26-.61-.5-.92-.75-.26-.2-.52-.41-.64-.52l-.08-.07c-1.74-1.58-3.33-3.55-4.74-5.86-1.17-2.05-2.09-4.32-2.73-6.77-.13-.75-.28-1.52-.43-2.3l-.04-.16-.01-.14v-.07l-.11-1.23c-.02-.23-.04-.44-.07-.64-.02-.2-.05-.45-.05-.58.02-.23.02-.45.02-.68l-.03-1.23c0-.12-.01-.24-.02-.36l.34-2.15.06-.45.05-.55.14-.48c.03-.09.05-.19.08-.29l.23-.94c.02-.07.04-.15.05-.23l.03-.09c.24-.72.48-1.43.7-2.13 1.04-2.48 2.14-4.47 3.36-6.09.09-.13.3-.36.49-.57.25-.28.49-.57.73-.86l.36-.43.6-.57.16-.17.79-.81.12-.12.03-.02c.58-.47 1.16-.95 1.72-1.42.1-.08.29-.2.43-.29.33-.21.66-.43.98-.65l.46-.32.49-.26c.42-.21.77-.42 1.07-.58.11-.06.21-.12.32-.18.71-.29 1.31-.55 1.87-.8z"/><path fill="#FCEE21" d="M185.986 162.07l-.292 3.2c-.023.26-.05.537-.075.828-.04.31-.04.534-.13 1.037l-.49 2.922c-.2 1.032-.38 2.218-.65 3.327-.3 1.063-.64 2.188-1 3.37-1.52 4.688-3.88 10.288-7.92 15.777-3.98 5.5-9.44 10.98-16.42 15.34-6.97 4.36-15.47 7.55-24.77 8.66-1.16.18-2.33.18-3.51.27-.59.03-1.19.06-1.78.1l-.9.05-1.26-.03c-2.05-.1-3.66-.01-6.62-.46l-2.01-.27c-.66-.1-1.38-.17-1.95-.34l-3.66-.87c-1.24-.25-2.42-.72-3.63-1.12l-1.81-.63-.91-.32-.88-.39c-1.17-.54-2.35-1.07-3.53-1.61-1.18-.55-2.28-1.25-3.43-1.88l-1.7-.99c-.55-.36-1.08-.74-1.62-1.12-1.07-.77-2.18-1.5-3.22-2.34l-3.04-2.61c-.52-.43-1-.89-1.46-1.39l-1.4-1.46-1.41-1.46c-.46-.49-.87-1.04-1.31-1.56-.85-1.06-1.74-2.11-2.53-3.22-3.2-4.47-5.7-9.48-7.61-14.76l-1.22-4.04-.29-1.02-.21-1.03-.41-2.08c-.27-1.39-.55-2.79-.63-4.2l-.2-2.12-.09-1.06-.04-.53-.02-.26-.02-.13c0-.32-.23.55-.2-.76l-.2-3.35v-1.26c0-.15.23-.38.25-.57l.33-2.37.33-2.37.18-1.19.23-1.05.92-4.21c1.52-5.54 3.79-10.88 6.79-15.77 3.06-4.84 6.73-9.26 10.98-13 1.05-.94 2.19-1.78 3.29-2.66.56-.43 1.11-.87 1.67-1.28l1.76-1.15c1.18-.74 2.33-1.55 3.56-2.2 1.23-.65 2.47-1.28 3.71-1.89 5.04-2.25 10.29-4.02 15.6-4.74 2.63-.52 5.28-.58 7.88-.75l.49-.03.24-.01h.12c-.12 0 1.5.04.86.02l.73.04 1.46.06 1.45.07c.5.02.87.01 1.69.13 1.42.18 2.84.38 4.24.6.68.11 1.43.21 2.05.36l1.81.47 3.56.97c1.16.4 2.29.84 3.41 1.26 4.52 1.65 8.52 4.08 12.19 6.54 7.22 5.16 12.48 11.48 16.11 17.54 3.69 6.07 5.64 12 6.82 16.87l.75 3.49c.2 1.1.29 2.14.42 3.11l.31 2.68c.09.82.06 1.57.09 2.23l.06 4.09-.02.63zm-24.984-.63l-.26-2.326c-.052-.376-.048-.804-.147-1.26-.1-.452-.207-.947-.324-1.482-.12-.53-.19-1.114-.36-1.714l-.63-1.88c-.94-2.607-2.31-5.725-4.71-8.715-2.34-2.998-5.5-5.968-9.42-8.282l-1.52-.81c-.5-.27-.99-.59-1.56-.78-1.1-.42-2.14-1-3.31-1.32l-1.72-.59c-.6-.12-1.2-.26-1.81-.4-.3-.07-.6-.14-.9-.23-.29-.07-.48-.06-.73-.11-.47-.06-.94-.15-1.41-.26-.13-.07-.72-.09-1.18-.12l-1.45-.08-1.46-.08-.73-.04c-.7-.02.86.02.68.02h-.06l-.12.01-.25.02c-1.32.09-2.68-.01-4.01.26-2.7.25-5.37 1.05-8.02 2.04-.64.3-1.3.58-1.96.85-.66.28-1.26.69-1.91 1.01l-.97.51-.9.63c-.59.43-1.24.8-1.82 1.26-.56.48-1.14.96-1.72 1.43-.31.22-.58.48-.83.76l-.79.81-.82.79c-.27.27-.49.58-.74.86-.48.59-1.02 1.14-1.48 1.76-1.86 2.46-3.29 5.23-4.5 8.16-.24.75-.49 1.5-.75 2.25l-.19.57-.1.47-.23.94-.27.94c-.02.09-.05.14-.07.26l-.04.42-.08.83-.52 3.34c.04-1.24-.17-.3-.17-.56v.23l.19.31.09.61.02 1.23c-.06.83.06 1.64.14 2.45l.11 1.23.05.62.12.61c.16.8.31 1.61.45 2.42.8 3.18 2.01 6.29 3.67 9.17 1.72 2.83 3.79 5.46 6.23 7.69.6.56 1.27 1.04 1.9 1.57l.95.78 1.03.67c.69.43 1.34.94 2.05 1.33l2.15 1.13.54.29.56.22 1.12.44c.75.28 1.47.65 2.25.82l2.29.66c.4.14.7.14 1.04.21l.99.18c1.01.33 3.4.4 5.28.54l.37.02.19.01.09.01c.15.01-.9-.03-.43-.02l.58-.03 1.14-.05c.76-.05 1.53-.01 2.27-.12 5.96-.71 11.3-3.02 15.48-6.07 4.17-3.11 7.12-6.91 9.12-10.48 2.06-3.57 3.02-7.01 3.63-9.8.13-.71.25-1.38.39-2 .09-.59.08-1.03.14-1.49.04-.45.1-.86.15-1.24.04-.13.03-.52.03-.8l.01-.83.03-3.21-.01.63z"/><path fill="#29ABE2" d="M153.212 41.47l-2.5-2.343-45.823-.063-2.5 2.375 1.45 2.12 48.97-.69"/><path fill="#29D6F7" d="M102.777 42.38h50.045l-11.29 18.9-28.433.64z"/><path fill="#29ABE2" d="M135.11 119.38h-14.676l-7.34-62h29.35z"/><path fill="#29D6F7" d="M120.892 119.838l-11.465-7.38L83.744 57.38h29.35zm14.218 0l11.465-7.38 25.68-55.077H142.33z"/><path fill="#29ABE2" d="M83.744 57.548l19.033-16.506 10.318 16.506m29.085 0l10.586-16.506 19.03 16.506"/></svg>