<?xml version="1.0" encoding="utf-8"?>
<!-- Generator: Adobe Illustrator 16.0.0, SVG Export Plug-In . SVG Version: 6.00 Build 0)  -->
<!DOCTYPE svg PUBLIC "-//W3C//DTD SVG 1.1//EN" "http://www.w3.org/Graphics/SVG/1.1/DTD/svg11.dtd">
<svg version="1.1" id="Layer_1" xmlns="http://www.w3.org/2000/svg" xmlns:xlink="http://www.w3.org/1999/xlink" x="0px" y="0px"
	 width="256px" height="256px" viewBox="0 0 256 256" enable-background="new 0 0 256 256" xml:space="preserve">
<path fill="#333333" d="M199.77,237.38c-7.748,0-13.824-1.552-14.08-1.608c-1.443-0.321-2.594-1.524-2.983-2.953
	c-0.101-0.362-0.146-0.785-0.144-1.15c-2.537,0.463-5.209,0.668-8.008,0.668c-7.55,0-15.975-1.707-25.039-5.048
	c-12.851-4.729-22.146-10.576-28.071-17.683c-0.054,0.041-0.108,0.076-0.164,0.115c-0.68,0.471-1.47,0.711-2.27,0.711
	c-0.62,0-1.25-0.141-1.82-0.44c-0.67-0.341-15.43-8.03-22.66-20.46c-4.54,0.9-9.51,1.35-14.83,1.35c-1.39,0-2.83-0.029-4.27-0.09
	c-38-1.641-47.42-20.57-48.01-37.73c-14.12-1.68-16.73-12.41-16.35-21.379c0.32-7.491,3.64-14.11,8.5-17.541
	c-2.98-7.39-5.37-16.17-4.15-23.63c-1.01-0.01-2.01-0.4-2.76-1.14c-1.17-1.15-1.52-2.9-0.89-4.41c0.61-1.45,15.5-35.5,63.33-35.5
	c4.09,0,8.35,0.26,12.67,0.77c0.11,0.02,0.21,0.03,0.31,0.05c0.29,0.06,5.66,1.12,12.08,3.15c0.15-3.16,0.71-6.28,1.7-9.33
	c4.84-14.92,18.63-24.94,34.321-24.94h0.469c0.711-0.04,1.431-0.06,2.131-0.06c3.539,0,7.01,0.55,10.34,1.64
	c8.51,2.76,15.42,8.69,19.51,16.59c4.74-2.38,9.92-3.62,15.21-3.62c3.5,0,6.97,0.55,10.33,1.64c4,1.3,7.7,3.34,11.011,6.06
	c13.01,9.17,18.439,25.47,13.52,40.62c-1.91,5.92-5.381,11.28-10.02,15.51c-1.971,2.48-4.361,4.84-7.17,7.07
	c19.409,4.76,32.539,16.05,39.059,33.6c12.031,32.36-3.02,76.95-11.819,87.95c-5.79,7.25-15.79,11.29-28.91,11.29L199.77,237.38z"/>
<path fill="#333333" d="M138.734,23.048c3.015,0,6.066,0.45,9.098,1.44c9.205,2.983,15.878,10.044,18.896,18.526
	c4.978-3.425,10.916-5.36,17.069-5.36c3.009,0,6.07,0.462,9.093,1.44c3.721,1.208,6.99,3.09,9.82,5.434
	c11.28,7.878,16.609,22.447,12.141,36.197c-1.811,5.598-5.041,10.333-9.15,14c-3.43,4.416-8.15,8.143-13.48,11.28l4.131,1.522
	c68.569,12.807,40.76,101.43,29.229,115.847c-6.22,7.787-17.101,9.577-25.78,9.577c-7.4,0-13.21-1.29-13.21-1.29
	c2.9-2.729,5.53-5.88,7.9-9.28c-6.011,4.43-13.04,5.939-19.9,5.939c-9.149,0-18-2.699-23.649-4.789
	c-10.871-4-27.891-11.85-32.24-27.53l-0.01-0.03c-0.11,3.51-0.01,7.021,0.37,10.471c0,0-16.45-8.44-22.36-21.48
	c-6,1.53-12.05,1.93-16.96,1.93c-1.48,0-2.86-0.029-4.11-0.09c-16.04-0.689-45.54-4.8-44.16-37.63c-0.37,0.06-0.76,0.101-1.17,0.101
	c-0.09,0-0.18,0-0.27-0.011c-6.48-0.28-15.57-2.409-14.93-17.399c0.34-7.87,4.44-14.29,9.65-15.86c-3.38-7.47-8.38-21.29-3.74-29.66
	c0,0,1.04-1.45-0.48-1.45c-0.8,0-2.31,0.4-5.05,1.63c0,0,13.92-33.05,59.64-33.05c3.84,0,7.9,0.23,12.2,0.74
	c0,0,8.69,1.71,17.07,4.93c-0.57-4.5-0.21-9.19,1.28-13.8c4.4-13.57,16.99-22.18,30.521-22.17c0.189,0,0.379,0,0.57,0.01
	c0.67-0.04,1.35-0.06,2.029-0.06"/>
<path fill="#333333" d="M138.791,15.121c-0.74,0-1.48,0.02-2.23,0.06h-0.369c-17.43,0-32.75,11.14-38.13,27.71
	c-0.57,1.77-1.02,3.57-1.34,5.39c-4.42-1.21-7.63-1.85-7.86-1.89c-0.2-0.04-0.4-0.07-0.6-0.09c-4.47-0.52-8.89-0.79-13.13-0.79
	c-26.15,0-42.88,10.1-52.31,18.58C12.54,73.2,8.5,82.37,8.07,83.38c-1.274,3.03-0.568,6.53,1.78,8.827
	c0.4,0.39,0.83,0.73,1.287,1.024c-0.28,6.49,1.4,13.42,3.66,19.63c-4.512,4.37-7.41,11.07-7.73,18.64
	c-0.58,13.46,5.38,22.271,16.554,24.931c1.61,16.859,11.14,25.859,19.42,30.56c8.24,4.67,18.77,7.22,32.21,7.8
	c1.51,0.061,3.01,0.1,4.46,0.1c4.54,0,8.85-0.31,12.88-0.939c7.94,11.74,21.11,18.76,22.8,19.619c1.15,0.591,2.41,0.881,3.66,0.881
	c0.43,0,0.86-0.03,1.28-0.1c6.37,6.68,15.61,12.199,27.851,16.709c9.51,3.5,18.399,5.28,26.42,5.28c1.819,0,3.59-0.09,5.319-0.271
	c1.12,1.721,2.89,2.961,4.95,3.431c0.27,0.06,6.77,1.49,14.96,1.49c14.38,0,25.46-4.351,32.04-12.58
	c5.34-6.67,11.27-21.979,14.43-37.229c2.98-14.381,5.051-35.49-1.98-54.391c-6.1-16.43-18.059-28.02-34.909-34
	c0.79-0.83,1.521-1.67,2.21-2.53c5.05-4.67,8.811-10.54,10.91-17.02c2.71-8.32,2.64-17.1-0.211-25.36
	c-2.709-7.88-7.92-14.85-14.68-19.66c-3.67-2.99-7.77-5.24-12.189-6.67c-3.76-1.21-7.65-1.83-11.561-1.83
	c-4.66,0-9.229,0.86-13.55,2.52c-4.67-7.2-11.62-12.6-19.94-15.3c-3.709-1.21-7.609-1.83-11.56-1.83L138.791,15.121z"/>
<path fill="#ED1E79" d="M214.844,80.726c4.471-13.75-0.859-28.32-12.14-36.197c-2.827-2.35-6.099-4.23-9.812-5.44
	c-9.207-2.98-18.752-1.18-26.164,3.92c-3.02-8.48-9.699-15.55-18.899-18.53c-3.72-1.22-7.46-1.62-11.14-1.37
	c-13.75-0.25-26.621,8.41-31.081,22.17c-1.82,5.61-1.98,11.34-0.8,16.71c0.91,27.38,36.44,59.49,36.44,59.49s47.61-5.15,64.42-26.77
	c4.11-3.67,7.34-8.4,9.149-14L214.844,80.726z"/>
<path fill="#D3BD8D" d="M204.98,187.71c-3.205,8.681-4.535,16.181,1.552,18.42c6.087,2.248,15.303,3.782,20.489-10.3
	c3.195-8.686,0.854-17.538-5.232-19.78c-6.09-2.237-13.62,2.976-16.811,11.66H204.98z"/>
<path fill="#C69C6D" d="M206.826,188.32c0.915-2.428,2.443-5.014,4.502-6.924c1.042-0.979,2.24-1.859,3.693-2.47
	c1.437-0.588,3.275-0.876,5.068-0.239c0.65,0.31,0.53,0.199,1.116,0.567c0.474,0.29,0.856,0.61,1.132,0.902
	c0.63,0.61,1.066,1.3,1.448,2.002c0.713,1.399,0.297,2.569,0.452,3.989c0.301,2.851-0.889,5.36-1.85,7.971l-0.109,0.3
	c-0.641,1.71-1.73,2.89-3.45,2.28c-1.72-0.61-2.229-2.35-1.62-4.061c0.04-0.119,0.29-0.189,0.35-0.3
	c0.811-1.649,1.461-3.54,1.48-5.31c0.08-1.84-0.561-3.24-0.82-3.461c-0.16-0.159-0.63-0.319-1.39-0.14
	c-0.75,0.19-1.61,0.65-2.399,1.261c-1.66,1.279-2.971,2.91-4.031,5.069l-0.039,0.091c-0.48,0.959-1.641,1.35-2.61,0.879
	c-0.91-0.439-1.31-1.51-0.96-2.43L206.826,188.32z"/>
<path fill="#D3BD8D" d="M132.063,160.854c-3.195,8.682-7.046,15.256-13.133,13.013c-6.09-2.244-14.1-7.05-8.92-21.134
	c3.2-8.684,10.72-13.899,16.81-11.657c6.09,2.239,8.43,11.1,5.23,19.778H132.063z"/>
<path fill="#C69C6D" d="M130.264,160.122c0.869-2.445,1.389-5.405,1.062-8.19c-0.163-1.428-0.502-2.869-1.21-4.279
	c-0.707-1.381-1.934-2.797-3.703-3.471c-0.696-0.185-0.534-0.195-1.22-0.289c-0.548-0.084-1.045-0.094-1.446-0.047
	c-0.876,0.055-1.658,0.299-2.403,0.58c-1.448,0.612-2.802,1.436-3.845,2.412c-2.08,1.967-3.72,4.322-4.675,6.928l-0.112,0.301
	c-0.62,1.705,0.36,3.653,2.06,4.304c1.7,0.646,3.67-0.177,4.32-1.87c0.05-0.124,0.13-0.25,0.16-0.364
	c0.44-1.796,1.3-3.602,2.44-4.97c1.12-1.448,2.58-2.083,2.92-2.08c0.22-0.023,0.72,0.176,1.17,0.811
	c0.44,0.635,0.81,1.539,1.03,2.523c0.43,2.05,0.37,4.145-0.22,6.475l-0.02,0.09c-0.26,1.047,0.37,2.109,1.41,2.365
	c0.99,0.239,1.98-0.311,2.32-1.23L130.264,160.122z"/>
<path fill="#FFDDBB" d="M206.174,205.777C194.8,236.662,164.141,228.4,150.9,223.52c-15.068-5.547-41.935-18.47-30.557-49.354
	c11.381-30.891,22.786-71.716,68.896-54.73c46.57,17.154,28.312,55.455,16.934,86.339V205.777z"/>
<path fill="#333333" d="M158.486,202.518c-0.424,0-0.846-0.133-1.199-0.412c-6.33-4.92-8.214-10.967-8.29-11.221
	c-0.158-0.523-0.084-1.087,0.19-1.56l12.016-20.448c0.546-0.93,1.734-1.243,2.677-0.691c0.925,0.541,1.24,1.746,0.69,2.676
	l-11.543,19.641c0.666,1.582,2.568,5.34,6.658,8.521c0.851,0.662,1.004,1.891,0.342,2.74c-0.383,0.495-0.961,0.754-1.539,0.754
	H158.486z M187.193,120.76c0,0-10.566,39.482-27.959,37.914c0,0-6.465-4.976-22.902-11.021l25.17-32.208l27.736,3.99l-2.049,1.326
	L187.193,120.76z M186.818,121.31c0,0-0.748,33.945-18.787,39.74c0,0,31.93,11.416,47.939,11.091c0,0,4.301-47.327-29.15-50.831
	H186.818z M148.262,182.343c-1.787,0-3.598-0.313-5.369-0.96c-3.9-1.439-7.011-4.313-8.754-8.087
	c-1.75-3.772-1.92-8.008-0.479-11.907c0.37-1.007,1.489-1.523,2.51-1.16c1.011,0.371,1.53,1.496,1.149,2.513
	c-1.069,2.92-0.949,6.1,0.361,8.92c1.299,2.83,3.629,4.979,6.559,6.06c6.031,2.211,12.75-0.89,14.971-6.91
	c0.37-1.01,1.49-1.52,2.51-1.149c1.01,0.37,1.53,1.5,1.15,2.51c-2.32,6.29-8.29,10.19-14.631,10.19L148.262,182.343z
	 M192.087,198.48c-1.776,0-3.59-0.307-5.36-0.959c-3.902-1.435-7.017-4.312-8.754-8.084c-1.746-3.775-1.914-8.008-0.475-11.908
	c0.37-1.021,1.497-1.53,2.508-1.16c1.01,0.359,1.534,1.49,1.152,2.5c-1.072,2.92-0.947,6.09,0.357,8.92
	c1.307,2.82,3.637,4.97,6.563,6.05c2.92,1.07,6.092,0.95,8.915-0.36c2.827-1.31,4.979-3.64,6.06-6.569
	c0.368-1.021,1.494-1.53,2.508-1.16c1.015,0.37,1.529,1.49,1.153,2.51c-2.313,6.29-8.287,10.181-14.627,10.181V198.48z
	 M132.063,144.688c0,0-16.259,32.896-13.052,61.737c0,0-25-12.833-24.43-31.29c0.58-18.453,36.899-103.936,97.39-69.215l4.37,1.61
	c68.56,12.806,40.761,101.43,29.229,115.846c-11.529,14.418-38.989,8.278-38.989,8.278c21.14-19.872,27.649-62.233,27.649-62.233
	l-13.879-43l-26-8.25l-42.261,26.53L132.063,144.688z"/>
<path fill="#FF7BAC" d="M124.314,136.867c0,0,0.178-0.547,0.505-1.564c0.32-0.994,1.05-2.927,2.05-4.84
	c2.08-3.937,5.75-9.503,12.02-14.102c6.16-4.6,14.601-8.4,24.061-9.56c9.439-1.21,19.71-0.04,29.18,3.34
	c1.359,0.56,2.08,0.8,3.41,1.4c1.22,0.53,2.391,1.08,3.48,1.65c2.239,1.14,4.399,2.4,6.459,3.78c4.16,2.73,7.84,6.04,11.041,9.54
	c6.39,7.08,10.5,15.36,12.109,22.921c1.74,7.579,0.95,14.189-0.029,18.539c-0.511,2.19-1.121,3.851-1.561,4.961
	c-0.46,1.1-0.7,1.689-0.7,1.689c-0.86,2.12-3.28,3.13-5.399,2.26c-1.99-0.81-3.01-3.01-2.391-5.029l0.03-0.08
	c0,0,0.601-1.95,1.03-5.42c0.43-3.451,0.32-8.49-1.44-14.19c-1.72-5.681-5.271-11.92-10.55-17.351
	c-2.631-2.72-5.71-5.189-9.051-7.37c-1.67-1.09-3.43-2.09-5.25-2.98c-0.93-0.47-1.819-0.87-2.689-1.24
	c-0.74-0.35-2.18-0.86-2.93-1.16c-7.631-2.91-15.91-4.03-23.43-3.23c-7.521,0.79-14.34,3.08-19.311,6.38
	c-5,3.24-8.37,6.971-10.279,9.891c-0.971,1.549-1.57,2.459-2.051,3.439l-0.72,1.48c-1.011,2.06-3.49,2.92-5.55,1.91
	c-1.87-0.921-2.74-3.07-2.12-4.99L124.314,136.867z"/>
<path fill="#F48B73" d="M158.583,200.561c0,0-14.3-7.988-16.487-2.051c-2.184,5.936,5.442,5.637,5.442,5.637l-4.817-1
	c0,0-6.1,13.049,9.86,9.853c0-0.01-3.91-12.94,6.01-12.44L158.583,200.561z"/>
<path fill="#333333" d="M147.32,204.38c-1.141,0-4.84,0.66-6.635-1.813c-0.75-1.024-1.438-2.409-0.424-5.161
	c0.529-1.45,1.59-2.28,3.059-2.823c5.101-1.878,14.41,3.16,16.221,4.168c0.939,0.52,1.279,1.768,0.75,2.705
	c-0.52,0.953-1.721,1.297-2.65,0.779c-3.85-2.144-10.439-4.694-12.959-3.789c-0.4,0.149-0.601,0.355-0.74,0.736
	c-0.23,0.625-0.42,1.471-0.08,1.948c0.57,0.786,2.58,1.153,3.63,1.06c1.03-0.09,1.989-0.047,2.021,1.024
	c0.039,1.078-0.791,1.167-1.871,1.167h-0.289L147.32,204.38z M148.139,215.445c-3.267,0-5.641-0.92-7.082-2.754
	c-3.018-3.84-0.41-9.711-0.104-10.37c0.456-0.97,1.6-1.38,2.592-0.94c0.979,0.45,1.4,1.62,0.946,2.59
	c-0.5,1.11-1.671,4.65-0.351,6.32c1.061,1.34,3.91,1.641,8.061,0.8c1.05-0.21,2.09,0.48,2.3,1.54c0.21,1.061-0.479,2.09-1.54,2.301
	c-1.77,0.359-3.38,0.529-4.82,0.529L148.139,215.445z M130.252,175.618c-0.792,0-1.54-0.49-1.83-1.278
	c-0.38-1.015,0.141-2.136,1.153-2.508l5.097-1.883c1.02-0.37,2.141,0.14,2.508,1.15c0.377,1.01-0.144,2.129-1.154,2.51l-5.094,1.88
	c-0.221,0.079-0.451,0.12-0.671,0.12L130.252,175.618z M132.557,180.616c-0.793,0-1.541-0.488-1.83-1.275
	c-0.379-1.01,0.142-2.14,1.153-2.5l5.103-1.88c1.026-0.35,2.139,0.15,2.511,1.16c0.373,1.01-0.146,2.14-1.156,2.51l-5.103,1.891
	c-0.225,0.08-0.455,0.119-0.68,0.119L132.557,180.616z M174.076,191.76c-0.788,0-1.54-0.49-1.83-1.277
	c-0.377-1.017,0.143-2.135,1.156-2.508l5.098-1.884c1.027-0.36,2.139,0.15,2.508,1.16c0.376,1.021-0.142,2.14-1.156,2.51
	l-5.097,1.88c-0.224,0.09-0.45,0.131-0.68,0.131L174.076,191.76z M176.384,196.758c-0.794,0-1.543-0.486-1.829-1.277
	c-0.381-1.01,0.141-2.131,1.152-2.504l5.1-1.884c1.021-0.36,2.135,0.146,2.508,1.155c0.375,1.01-0.145,2.137-1.158,2.505
	l-5.098,1.886c-0.229,0.07-0.459,0.11-0.68,0.11L176.384,196.758z"/>
<path fill="#F4D1B0" d="M38.522,132.83c-0.4,9.245-2.06,16.68-8.548,16.398c-6.48-0.28-15.572-2.408-14.926-17.403
	c0.392-9.24,5.968-16.51,12.45-16.236C33.983,115.859,38.914,123.579,38.522,132.83L38.522,132.83z"/>
<path fill="#C69C6D" d="M36.572,132.688c0.095-2.599-0.318-5.57-1.478-8.135c-0.59-1.296-1.355-2.573-2.458-3.698
	c-1.1-1.098-2.693-2.068-4.583-2.177c-0.722,0.04-0.577-0.018-1.252,0.1c-0.55,0.084-1.02,0.227-1.39,0.395
	c-0.81,0.314-1.48,0.79-2.1,1.288c-1.2,1.02-2.23,2.22-2.93,3.47c-1.38,2.52-2.22,5.26-2.34,8.03l-0.01,0.32
	c-0.07,1.82,1.46,3.38,3.27,3.47c1.82,0.11,3.45-1.28,3.55-3.101c0.01-0.119,0.05-0.27,0.03-0.39c-0.11-1.829,0.14-3.82,0.82-5.47
	c0.62-1.72,1.82-2.77,2.14-2.87c0.2-0.09,0.74-0.05,1.37,0.41c0.62,0.48,1.24,1.23,1.75,2.1c1.04,1.82,1.61,3.83,1.76,6.23l0.01,0.1
	c0.07,1.08,1,1.88,2.07,1.83c1.01-0.06,1.79-0.89,1.82-1.87L36.572,132.688z"/>
<path fill="#FFDDBB" d="M122.803,153c-1.414,32.891-33.127,34.374-47.22,33.773c-16.046-0.693-45.572-4.811-44.164-37.688
	c1.41-32.894-0.19-75.247,48.91-73.147c49.58,2.13,43.88,44.18,42.47,77.06L122.803,153z"/>
<path fill="#333333" d="M24.4,112.183l7.666,25.642l13.904-28.942 M132.887,118.448l-9.341,23.304l-11.374-30.027"/>
<path fill="#333333" d="M78.402,164.655c-0.862,0-1.65-0.566-1.89-1.438c-0.28-1.044,0.336-2.115,1.375-2.4
	c5.158-1.397,7.26-4.629,7.834-5.709l-1.49-22.291c-0.07-1.077,0.75-2.012,1.82-2.084c1.19-0.196,2.02,0.744,2.08,1.819l1.53,22.796
	c0.02,0.289-0.02,0.579-0.13,0.85c-0.09,0.25-2.53,6.199-10.6,8.393c-0.17,0.051-0.34,0.065-0.51,0.065H78.402z"/>
<path fill="#333333" d="M113.23,92.292c0,0-14.316,15.944-43.563,16.632l14.88-13.972c0,0-32.5,19.706-48.702,19.017l-3.908,0.31
	l-4.677,6.86c0,0-12.9-22.95-6.3-34.85c0,0,2.42-3.39-5.527,0.17c0,0,16.355-38.84,71.834-32.32c0,0,29.78,5.82,32.253,16.4
	c1.885,8.08-6.29,21.73-6.29,21.73V92.292z"/>
<path fill="#333333" d="M109.48,88.88c0,0-0.962,22.357,6.445,31.444l14.453,3.35c0,0,10.177-21.293,10.431-27.12
	c0.248-5.837-2.361-24.45-22.863-23.382C97.45,74.238,109.48,88.879,109.48,88.88L109.48,88.88z"/>
<path fill="#333333" d="M85.354,117.333c0,0,1.987-1.2,5.025-2.426c3.05-1.266,7.3-2.638,11.77-3.232
	c2.23-0.313,4.5-0.48,6.64-0.405c2.14,0.02,4.16,0.25,5.87,0.583c1.72,0.28,3.13,0.66,4.1,0.988l1.55,0.47
	c1.85,0.57,2.91,2.52,2.34,4.38c-0.56,1.87-2.52,2.92-4.38,2.36c-0.1-0.03-0.19-0.06-0.29-0.1l-0.31-0.12c0,0-0.44-0.18-1.21-0.48
	c-0.76-0.34-1.86-0.75-3.25-1.12c-1.37-0.39-3.02-0.74-4.83-0.92c-1.8-0.24-3.77-0.28-5.74-0.19c-3.96,0.15-7.93,1.03-10.82,1.92
	c-2.94,0.89-4.68,1.74-4.68,1.74c-0.96,0.479-2.13,0.08-2.6-0.89c-0.45-0.91-0.12-2,0.73-2.52l0.03-0.01L85.354,117.333z"/>
<path fill="#333333" d="M71.116,120.077c0,0-1.658-0.998-4.507-2.14c-2.81-1.125-6.68-2.338-10.62-2.836
	c-1.96-0.25-3.93-0.39-5.74-0.3c-1.82,0.02-3.5,0.23-4.9,0.51c-1.42,0.25-2.55,0.57-3.34,0.84c-0.79,0.24-1.24,0.38-1.24,0.38
	l-0.31,0.1c-1.86,0.56-3.82-0.49-4.39-2.34c-0.57-1.86,0.49-3.82,2.34-4.38c0.1-0.03,0.2-0.05,0.3-0.07l1.58-0.33
	c0.99-0.229,2.43-0.5,4.16-0.63c1.73-0.19,3.77-0.24,5.9-0.07c2.14,0.11,4.39,0.47,6.58,0.97c4.41,0.979,8.51,2.72,11.46,4.229
	c2.92,1.49,4.79,2.85,4.79,2.85l0.03,0.02c0.86,0.64,1.06,1.86,0.43,2.73c-0.61,0.81-1.73,1.03-2.59,0.52L71.116,120.077z"/>
<path fill="#333333" d="M55.796,149.087c-0.23,0-0.466-0.005-0.7-0.015c-4.15-0.184-7.986-1.961-10.8-5.027
	c-2.814-3.063-4.264-7.037-4.09-11.195c0.046-1.08,0.93-1.891,2.035-1.871c1.08,0.041,1.92,0.951,1.88,2.03
	c-0.13,3.11,0.95,6.091,3.06,8.38c2.11,2.291,4.98,3.631,8.09,3.76c3.2,0.221,6.09-0.949,8.38-3.049c2.3-2.11,3.64-4.99,3.77-8.101
	c0.05-1.08,0.97-1.99,2.04-1.87c1.08,0.04,1.92,0.95,1.87,2.03c-0.17,4.159-1.96,8-5.03,10.81c-2.89,2.65-6.59,4.09-10.48,4.09
	L55.796,149.087z"/>
<path fill="#333333" d="M102.45,151.09c-0.228,0-0.457-0.002-0.694-0.013c-4.15-0.185-7.99-1.964-10.798-5.026
	c-2.813-3.07-4.263-7.04-4.086-11.199c0.045-1.07,0.74-1.961,2.04-1.871c1.073,0.051,1.91,0.971,1.867,2.041
	c-0.14,3.119,0.95,6.09,3.05,8.39s4.97,3.64,8.09,3.771c3.09,0.189,6.09-0.951,8.39-3.061c2.29-2.11,3.63-4.98,3.76-8.09
	c0.04-1.09,0.88-1.85,2.03-1.881c1.07,0.051,1.91,0.961,1.87,2.041c-0.18,4.17-1.97,8-5.03,10.81c-2.9,2.66-6.61,4.101-10.51,4.101
	L102.45,151.09z"/>
<path fill="#333333" d="M91.508,173.023c-2.124,0-4.056-0.859-4.362-1.002c-0.976-0.449-1.4-1.604-0.946-2.58
	c0.458-0.983,1.618-1.393,2.59-0.963c1.027,0.473,2.938,0.924,3.76,0.424c0.5-0.303,0.64-1.168,0.667-1.83
	c0.02-0.4-0.098-0.672-0.41-0.957c-1.985-1.84-9.05-1.983-13.414-1.475c-1.13,0.063-2.046-0.66-2.165-1.73
	c-0.12-1.066,0.647-2.03,1.717-2.16c2.07-0.225,12.536-1.215,16.53,2.503c1.143,1.065,1.713,2.445,1.647,3.987
	c-0.128,2.93-1.456,4.337-2.545,5.002C93.617,172.824,92.545,173.023,91.508,173.023L91.508,173.023z"/>
<path fill="#333333" d="M87.43,181.45c-2.42,0-5.3-1.112-8.606-3.349c-0.896-0.6-1.13-1.815-0.525-2.709
	c0.6-0.9,1.81-1.136,2.71-0.521c3.49,2.353,6.23,3.2,7.73,2.366c1.86-1.03,2.15-4.746,2.1-5.967c-0.04-1.07,0.8-1.98,1.88-2.021
	c1.07-0.05,1.98,0.8,2.03,1.87c0.03,0.72,0.17,7.15-4.1,9.529c-0.96,0.541-2.04,0.811-3.23,0.811L87.43,181.45z"/>
<radialGradient id="SVGID_1_" cx="220.9941" cy="-228.0996" r="30.0044" gradientTransform="matrix(0.446 0 0 -0.446 -44.7112 60.7668)" gradientUnits="userSpaceOnUse">
	<stop  offset="0" style="stop-color:#FF585D"/>
	<stop  offset="1" style="stop-color:#FF585D;stop-opacity:0"/>
</radialGradient>
<circle opacity="0.4" fill="url(#SVGID_1_)" enable-background="new    " cx="53.852" cy="162.5" r="13.382"/>
<radialGradient id="SVGID_2_" cx="336.0068" cy="-228.0996" r="30.0039" gradientTransform="matrix(0.446 0 0 -0.446 -44.7112 60.7668)" gradientUnits="userSpaceOnUse">
	<stop  offset="0" style="stop-color:#FF585D"/>
	<stop  offset="1" style="stop-color:#FF585D;stop-opacity:0"/>
</radialGradient>
<circle opacity="0.4" fill="url(#SVGID_2_)" enable-background="new    " cx="105.148" cy="162.5" r="13.382"/>
<radialGradient id="SVGID_3_" cx="568.2598" cy="-133.4697" r="29.9789" gradientTransform="matrix(0.419 0.154 0.154 -0.419 -86.6695 47.352)" gradientUnits="userSpaceOnUse">
	<stop  offset="0" style="stop-color:#FF585D"/>
	<stop  offset="1" style="stop-color:#FF585D;stop-opacity:0"/>
</radialGradient>
<circle opacity="0.4" fill="url(#SVGID_3_)" enable-background="new    " cx="130.921" cy="190.669" r="13.382"/>
<radialGradient id="SVGID_4_" cx="683.166" cy="-133.4707" r="30.0205" gradientTransform="matrix(0.419 0.154 0.154 -0.419 -86.6695 47.352)" gradientUnits="userSpaceOnUse">
	<stop  offset="0" style="stop-color:#FF585D"/>
	<stop  offset="1" style="stop-color:#FF585D;stop-opacity:0"/>
</radialGradient>
<circle opacity="0.4" fill="url(#SVGID_4_)" enable-background="new    " cx="179.079" cy="208.331" r="13.382"/>
</svg>
