<svg xmlns="http://www.w3.org/2000/svg" width="256" height="256" viewBox="0 0 256 256"><path fill="#fff" d="M83.352 223.975c-6.52 0-12.798-3.293-15.997-8.39L24.362 144.45c-2.398-3.818-3.456-8.208-2.944-12.304.57-4.563 3.05-8.437 6.98-10.903l136.543-85.07c2.79-1.75 5.68-2.643 8.58-2.643 4.94 0 9.5 2.547 13.16 7.366l.12.157 44.24 71.824c2.38 3.792 3.5 8.417 3.04 12.663-.52 4.858-2.98 8.897-6.92 11.37l-134.7 84.556c-2.61 1.64-5.76 2.51-9.09 2.51z"/><path fill="#29ABE2" d="M28.5 143.834l100.328-13.564-23.07 5.13-65.59 26.767M183.5 42.5l-57.085 86.137 14.204-16.256L195.5 61.5"/><path fill="#333" d="M173.52 37.53c3.732 0 7.166 2.096 9.976 5.79l44.132 71.655c3.876 6.173 3.563 14.67-2.61 18.548L90.32 218.078c-2.06 1.293-4.496 1.896-6.97 1.896-4.936 0-10.026-2.402-12.608-6.517L27.785 142.38c-3.876-6.174-3.434-13.875 2.74-17.75l136.532-85.063c2.21-1.385 4.382-2.036 6.463-2.036m0-8c-3.662 0-7.27 1.1-10.715 3.27l-136.51 85.04c-4.99 3.14-8.124 8.04-8.846 13.82-.63 4.99.62 10.28 3.52 14.92l42.92 71.02.03.06.03.06c3.91 6.24 11.52 10.27 19.38 10.27 4.09 0 7.97-1.08 11.22-3.12l134.69-84.56c5-3.14 8.12-8.23 8.77-14.33.56-5.19-.72-10.59-3.62-15.22l-44.1-71.63-.21-.33-.24-.31c-4.39-5.77-10.19-8.94-16.34-8.94z"/><path fill="#ED1E79" d="M96.92 134.77c-3.635-5.843-2.842-13.18 1.478-18.106 1.038-1.404 2.33-2.65 3.91-3.625 3.916-2.44 8.527-2.7 12.537-1.19.424-4.26 2.697-8.29 6.615-10.72 1.576-.98 3.264-1.6 4.983-1.9 6.32-1.68 13.262.84 16.893 6.69 1.482 2.38 2.207 5.01 2.277 7.62 2.71 12.75-10.034 31.65-10.034 31.65s-22.6 3.06-32.83-5.01c-2.32-1.22-4.35-3.04-5.84-5.42z"/></svg>