<svg xmlns="http://www.w3.org/2000/svg" width="256" height="256" viewBox="0 0 256 256"><path fill="#333" d="M109.353 206.605c-15.087 0-26.908-2.535-35.71-7.7-.094.192-.203.38-.328.56-.753 1.08-1.982 1.71-3.28 1.71-.154 0-.31-.008-.465-.026-1.375-.17-33.767-4.2-41.105-25.88-4.63-13.69-4.305-61.35 17.377-91.57 12.013-16.75 28.403-25.24 48.714-25.24 4.112 0 8.43.36 12.84 1.07l4.527-.03c4.637-.79 9.173-1.2 13.487-1.2 24.458 0 43.52 12.68 55.564 36.82l-.252-.69c-.04-.11-.074-.21-.104-.32-.05-.16-.12-.34-.2-.54-.33-.89-.83-2.22-.99-3.94l-.07-.51c-.11-.74-.24-1.66-.28-2.68-.01-.15-.01-.29 0-.43.08-1.12.22-2.28.39-3.58.014-.13.03-.25.064-.37.27-1.18.65-2.32 1.02-3.42l.2-.62c.04-.13.09-.26.15-.39.65-1.44 1.47-2.78 2.27-4.07.12-.2.28-.42.44-.59.25-.29.49-.58.73-.87.728-.89 1.57-1.89 2.79-2.92 2.09-1.71 3.53-2.69 4.75-3.2 3.14-1.73 7.15-2.68 11.34-2.68h.16c3.91.15 7.09 1.58 9.92 3.27 1.38-1.71 3.28-5.23 4.96-12.43.59-2.98 2.49-4.83 4.96-4.83 3.46 0 4.9 3.55 5.44 4.88 2.7 6.64.71 20.54-5.56 26.76.5 1.78.76 3.61.76 5.47 0 9.49-6.7 17.75-15.95 19.74-2.13.67-4.46 1.08-7.3 1.27-.09 0-.18.01-.272.01-.1 0-.19-.01-.28-.01l-.13-.01c-1.34-.1-2.73-.19-4.14-.45l-.26-.06c-1.51 1.7-3.44 3.73-5.8 5.93 2.55 1.98 4.6 3.8 6.14 5.25.81-.36 1.64-.67 2.49-.93l.12-.05c.18-.07.37-.13.56-.17.32-.08.65-.15.98-.21 1.64-.37 3.28-.56 4.88-.56 12.13 0 21.99 9.69 21.99 21.6 0 11.91-9.86 21.6-21.99 21.6-3.89 0-7.62-1.01-10.89-2.84-.08 7.49-.83 13.86-2.15 17.9-7.13 21.71-39.44 26.43-40.81 26.62-.19.02-.37.03-.55.03-1.28 0-2.49-.61-3.25-1.66-.34-.47-.57-1-.682-1.54-9.13 5.62-21.48 8.57-36.54 8.63h-.74l.08.09h-.015zm92.525-64.34c.237.1.464.22.677.364.616.41 1.615.54 3.116.61 1.12-.11 2.3-.5 3.44-1.19l.57-.48c.25-.21.61-.51.75-.65.09-.13.18-.24.27-.36.15-.17.3-.33.47-.49.07-.15.15-.29.24-.43l.61-.95c.15-.23.31-.44.5-.63l.01-.24c0-4.01-3.37-7.27-7.52-7.27-1.6 0-3.15.5-4.44 1.42-.06.2-.14.44-.27.7-.05.12-.12.28-.21.46l-.09.27c-.12.39-.23.72-.33 1.01l-.04.13c-.01.09-.02.19-.04.31-.04.45-.13.82-.2 1.08v.01c.03.31.03.63.03.97v.17c.09.48.13.94.16 1.37l.07.21c.09.26.18.54.26.82.16.35.33.71.5 1.08.16.21.3.4.43.58.07.09.13.18.19.26.27.22.49.45.64.62l.09.09c.02 0 .08.04.2.09l-.07.05-.01.01zm-19.5-44.195l.106-.112-.482-.695c.126.268.25.536.376.807zm21.352-17.93c-3.51 0-6.36 2.855-6.36 6.362 0 3.508 2.853 6.362 6.36 6.362 3.51 0 6.36-2.854 6.36-6.362 0-3.507-2.85-6.36-6.36-6.36v-.002zm19.526-26.745c.43 0 1.003.572 1.74 2.386 2.44 5.98-.282 20.79-6.645 23.85.99 2.09 1.56 4.42 1.56 6.88 0 7.83-5.58 14.37-12.97 15.86-2.15.71-4.36 1.01-6.54 1.16-1.29-.09-2.59-.18-3.81-.4-.79-.23-1.57-.45-2.34-.7-2.12 2.58-5.62 6.41-10.48 10.52l.21.66c5.6 3.95 9.4 7.59 11.25 9.5 1.39-.88 2.9-1.58 4.51-2.06l.28-.1c.31-.07.61-.13.93-.2 1.31-.29 2.66-.46 4.05-.46 9.92 0 17.99 7.9 17.99 17.6 0 9.7-8.07 17.61-17.99 17.61-6.33 0-11.89-3.22-15.11-8.08.66 11.62-.18 21.19-1.72 25.9-6.42 19.59-37.56 23.91-37.56 23.91 1.97-3.99 3.49-8.31 4.64-12.8-10.64 16.29-33.33 18.18-45.11 18.23h-.72c-13.01 0-33.35-1.78-43.81-16.28 1.26 3.73 2.74 7.38 4.5 10.85 0 0-31.17-3.64-37.78-23.18C26.08 155.62 29.8 62.5 94.62 62.5c3.95 0 8.12.35 12.53 1.08l5.19-.03c4.64-.81 9.01-1.19 13.13-1.19 29.54 0 46.45 19.59 55.51 42.54 2.4-2.01 4.75-4.26 6.77-6.72-.23-.23-.47-.46-.66-.69-.23-.3-.34-.46-.49-.68l-.72-1.02-.59-.85-.14-.2-.11-.27s-.17-.47-.49-1.33c-.24-.89-.91-2.12-1.05-3.85-.11-.86-.28-1.82-.32-2.87.08-1.04.22-2.16.37-3.36.26-1.16.7-2.38 1.11-3.65.55-1.21 1.3-2.42 2.05-3.64 1-1.12 1.79-2.26 3.12-3.38 1.32-1.09 2.92-2.3 3.88-2.63 2.71-1.55 6.21-2.29 9.63-2.29 3.48.14 6.35 1.59 9.33 3.52.32.26.61.53.88.81 2.64-1.33 6.12-5.35 8.75-16.65 0 0 .31-1.66 1.04-1.66M203.76 96.9c5.715 0 10.36-4.646 10.36-10.36 0-5.71-4.646-10.36-10.36-10.36-5.714 0-10.36 4.65-10.36 10.36 0 5.714 4.647 10.362 10.36 10.362m-8.285 37.474l.187-.5-.09.65c-.01.428-.35 1.026-.21 1.83.04.39-.01.82.03 1.3.1.47.14.98.18 1.55.13.54.36 1.09.51 1.72.28.59.57 1.215.86 1.86.45.48.9 1.32 1.37 1.69.49.37.65.91 2.04 1.5 1.57 1.05 3.44 1.21 5.39 1.3 1.97-.11 3.97-.82 5.77-1.97.79-.71 1.76-1.39 2.23-2.1.3-.355.73-.605 1.05-1.38l.6-.95.5-.44.33-.07c.18-.8.29-1.63.29-2.49 0-6.212-5.16-11.27-11.52-11.27-2.94 0-5.61 1.09-7.65 2.867-.11.203-.23.405-.34.582-.21.42-.24.77-.38 1.05-.07.14-.12.28-.19.38-.09.16-.18.49-.26.7-.15.47-.28.86-.39 1.19l-.32.98m-7.312-2.66c.33-.85.71-1.67 1.16-2.45-.63-.7-1.29-1.38-1.97-2.03.29 1.5.56 3 .8 4.48"/><path fill="#333" d="M223.25 45.405c-4.34 0-7.88 3.197-8.86 7.97-.87 3.75-1.78 6.29-2.56 8-2.41-1.064-5.13-1.85-8.25-1.98l-.32-.003c-4.77 0-9.38 1.083-13.08 3.06-1.55.68-3.22 1.8-5.51 3.69-.02.02-.05.037-.07.055-1.5 1.26-2.49 2.46-3.3 3.42-.21.26-.42.516-.65.77-.31.347-.59.72-.83 1.114-.85 1.37-1.78 2.88-2.54 4.57-.11.25-.21.51-.3.77l-.2.6c-.23.68-.47 1.41-.7 2.19-3.06-4.03-6.4-7.6-10.02-10.7-11.29-9.68-24.96-14.59-40.65-14.59-4.44 0-9.09.4-13.83 1.2l-3.88.02c-4.51-.71-8.93-1.07-13.15-1.07-21.37 0-39.34 9.3-51.97 26.91-12.41 17.3-17.3 38.8-19.21 53.8-2.08 16.33-1.57 32.97 1.29 41.4 8.14 24.05 42.95 28.39 44.43 28.57.31.03.62.05.93.05 1.59 0 3.12-.48 4.42-1.34 3.02 1.5 6.31 2.76 9.87 3.76 7.18 2.02 15.37 3 25.03 3h.77c14.06-.06 25.93-2.56 35.26-7.34 1.44 1.22 3.273 1.9 5.18 1.9.36 0 .73-.02 1.104-.07 1.47-.2 36.17-5.27 44.06-29.33 1.07-3.27 1.8-7.87 2.142-13.28 2.28.64 4.67.97 7.1.97 14.33 0 25.99-11.48 25.99-25.6 0-14.11-11.66-25.6-25.99-25.6-1.88 0-3.8.21-5.71.64-.35.07-.7.14-1.04.22-.38.09-.75.2-1.11.34l-.3.1-1.02-.9c.46-.48.9-.94 1.32-1.39.91.11 1.79.17 2.6.23l.12.01c.19.01.37.02.56.02.182 0 .354-.01.53-.02 3.09-.21 5.67-.65 8.06-1.4 10.99-2.44 18.92-12.29 18.92-23.6 0-1.49-.13-2.96-.396-4.4 6.3-8.03 7.87-22.06 4.9-29.35-2.48-6.08-6.34-7.36-9.15-7.36h-.01l.025-.01-.002-.01zm-19.52 43.47c-1.3 0-2.36-1.06-2.36-2.36 0-1.3 1.06-2.36 2.36-2.36 1.31 0 2.37 1.06 2.37 2.36 0 1.306-1.06 2.366-2.36 2.366h-.01zm-.02 45.94c.358-.13.778-.214 1.26-.214 1.61 0 2.98 1.02 3.39 2.39l-.35.56-.1.17c-.08.09-.172.18-.262.28-.08.09-.15.19-.22.28l-.32.27-.31.26c-.44.23-.88.4-1.26.48-.55-.03-.854-.06-1.023-.09-.16-.1-.32-.19-.48-.27l-.07-.06-.17-.24-.21-.44c-.05-.16-.09-.3-.14-.43-.03-.28-.06-.57-.1-.86 0-.14 0-.31-.01-.5.05-.25.1-.53.13-.85.07-.21.14-.44.22-.69l.02-.02.005-.01v-.01z"/><path fill="#D3BD8D" d="M152.654 144.008c.037 10.334 1.58 18.694 8.82 18.663 7.246-.03 17.49-2.01 17.41-18.78-.053-10.33-5.96-18.66-13.21-18.64-7.24.04-13.07 8.44-13.02 18.78v-.02z"/><path fill="#C69C6D" d="M154.823 143.93c.012-2.896.594-6.2 2.006-9.007.7-1.434 1.61-2.817 2.89-4.026 1.27-1.176 3.08-2.193 5.2-2.23.8.07.63 0 1.39.16.61.124 1.13.3 1.53.504.89.39 1.63.94 2.3 1.52 1.29 1.19.93 2.58 1.65 4 1.43 2.86.8 5.97.8 9.06v.35c0 2.03-.31 3.7-2.34 3.73-2.03.03-3.05-1.59-3.09-3.61 0-.15.31-.31.34-.46.21-2.04.19-4.26-.48-6.13-.63-1.96-1.83-3.18-2.18-3.3-.23-.11-.78-.09-1.49.4-.72.49-.7 1.31-1.29 2.26-1.23 1.98-1.49 4.2-1.49 6.88v.1c0 1.19-1.92 2.06-3.11 1.94-1.12-.11-2.69-1.07-2.69-2.17l.04.04h.01z"/><path fill="#fdb" d="M160.966 162.44c.175 36.755-35.13 40.096-50.886 40.16-17.93.09-51.082-2.937-51.25-39.69-.174-36.75-4.193-83.922 50.676-84.172 55.417-.26 51.286 46.94 51.46 83.7z"/><path d="M109.71 173.547c-5.52-1.732-8.98-4.92-10.3-6.31l4.39-25.07c.22-1.19-.58-2.317-1.77-2.524-.797-.145-1.596.198-2.086.815-1.003.355-1.752 1.89-1.743 2.952.01 3.48-1.33 7.59-3.78 10.06-2.45 2.482-5.71 3.914-9.19 3.914h-.06c-3.46 0-6.71-1.832-9.18-4.26-2.47-2.457-3.84-6.206-3.85-9.685 0-1.21-.98-3.06-2.18-3.06h-.01c-1.2 0-2.17 2.3-2.17 3.51.02 4.65 1.84 10.32 5.15 13.59 3.28 3.24 7.63 5.9 12.25 5.9h.01v-.03l.02.01h.08c4.23 0 8.2-2.58 11.35-5.54l-1.7 9.67c-.1.59.05 1.21.42 1.69.18.23 4.52 5.82 13.06 8.5.22.06.44.1.65.1h.01v-.01h.01c.93 0 1.79-.6 2.08-1.53.37-1.15-.28-2.37-1.43-2.73zm42.778-31.807c-1.13-.19-2.19.94-2.18 2.14.02 3.48-1.33 6.66-3.76 9.13-2.44 2.48-5.71 3.65-9.18 3.672-7.4.07-13.05-6.17-13.08-13.36-.008-1.2-.982-2.94-2.182-2.94h-.012c-1.205 0-2.176 2.742-2.168 3.947.045 9.56 7.835 19.05 17.386 19.05h-.014l-.03.03h.09c4.65 0 9-2.85 12.27-6.15s5.062-8.67 5.04-13.32c-.01-1.2-.98-2.2-2.18-2.2zm-40.21-78.23l-5.194.026c-76.846-12.688-81.44 90.927-74.83 110.457 6.612 19.534 37.782 23.184 37.782 23.184-14.622-28.913-10.47-69.68-10.47-69.68h.005l-.01-.007 10.38-13.566-4.74 15.026c19.56-.12 28.27 2.56 28.27 2.56 16.66-4.56 15.13-40.74 14.56-48.93 1.81 5.69 10.6 36.12-4.43 47.988 0 0 34.55-.492 52.13-6.29 1.85 10.794 7.02 48.254-5.15 72.9 0 0 31.14-4.31 37.56-23.9 6.43-19.59.89-123.16-75.84-109.76z" fill="#333"/><path fill="#FF7BAC" d="M48.404 122.345s-.023-.644-.082-1.836c-.043-1.17-.037-3.48.256-5.87.63-4.93 2.307-12.19 7.068-19.45 4.648-7.23 11.98-14.5 21.428-19.42 9.402-4.96 20.61-7.74 31.836-7.91 1.64.05 2.486.01 4.11.13 1.487.08 2.93.18 4.29.36 2.785.31 5.54.79 8.244 1.43 5.42 1.22 10.555 3.24 15.28 5.64 9.448 4.9 16.98 11.95 21.632 19.23 4.775 7.24 6.54 14.46 7.214 19.39.32 2.48.32 4.46.3 5.79l-.07 2.04c-.08 2.55-2.25 4.55-4.8 4.47-2.41-.08-4.51-1.98-4.51-4.33v-.11s-.11-2.28-1.01-6.08c-.9-3.78-2.97-9.01-7.03-14.29-4.03-5.27-10.17-10.41-17.81-14.03-3.82-1.82-8-3.2-12.35-4.17-2.18-.5-4.4-.86-6.65-1.08-1.15-.13-2.25-.21-3.3-.25-.91-.07-2.61-.05-3.51-.07-9.12-.07-18.22 1.99-25.78 5.77-7.55 3.77-13.78 8.83-17.69 14.23-3.96 5.33-6.03 10.56-6.89 14.35-.41 1.99-.68 3.19-.81 4.4-.12 1.19-.18 1.83-.18 1.83-.25 2.54-2.52 4.4-5.07 4.15-2.32-.23-4.07-2.14-4.17-4.39l.054.06v.01z"/><path fill="#333" d="M73.36 165.023c-.61 0-1.222-.252-1.655-.764-.783-.91-.68-2.28.236-3.07l4.6-3.95c.91-.77 2.29-.69 3.08.24.79.91.68 2.29-.23 3.07l-4.6 3.96c-.41.36-.91.53-1.42.53h-.01v-.02zm47.79-4.57c-.61 0-1.217-.254-1.65-.75-.785-.915-.68-2.287.227-3.078l4.594-3.965c.92-.786 2.3-.69 3.09.224.79.915.68 2.293-.22 3.082l-4.6 3.964c-.41.35-.92.525-1.43.525h-.01v-.002zm-52.352 0c-.613 0-1.22-.254-1.652-.75-.785-.915-.684-2.287.225-3.078l4.6-3.965c.91-.786 2.29-.69 3.08.224.79.915.68 2.293-.23 3.082l-4.59 3.964c-.42.35-.92.525-1.42.525h-.01v-.002zm56.717 4.334c-.613 0-1.22-.258-1.654-.758-.78-.92-.68-2.29.23-3.08l4.61-3.96c.92-.78 2.29-.69 3.08.22.79.91.68 2.28-.23 3.07l-4.59 3.96c-.42.35-.92.52-1.43.52v.02h-.01z"/><path fill="#F48B73" d="M114.69 187.607c.028 5.52-3.76 10.004-8.433 10.024-4.69.02-8.51-4.43-8.53-9.94-.032-5.51 3.75-9.99 8.427-10.02 4.687-.02 8.512 4.43 8.535 9.94z"/><path fill="#333" d="M105.95 191.84c-1.222 0-2.42-.117-3.6-.352-9.58-1.887-14.005-10.748-14.185-11.13-.53-1.08-.08-2.38.996-2.91 1.08-.524 2.4-.09 2.93.995.04.074 3.71 7.33 11.15 8.77 6.17 1.193 13.31-1.775 21.25-8.843.9-.793 2.28-.724 3.08.182.8.897.72 2.28-.18 3.082-7.61 6.783-14.8 10.206-21.42 10.206h-.02z"/><path fill="#999" d="M203.25 67.375c-3.423 0-6.915.743-9.628 2.298-.965.333-2.558 1.543-3.88 2.633-1.335 1.122-2.122 2.26-3.12 3.382-.754 1.22-1.502 2.43-2.05 3.646-.415 1.262-.85 2.48-1.108 3.65-.15 1.194-.293 2.32-.366 3.36.036 1.048.21 2.007.323 2.866.15 1.738.81 2.97 1.06 3.854.32.865.49 1.335.49 1.335l.11.27.15.2.6.85.73 1.01c.16.22.26.38.49.68.19.23.43.46.67.69-8.77 10.67-23.41 17.36-23.41 17.36s-.17.14-.45.36l-46.71 14.79c-.02.01.01.21.07.42 1.77 5.56 11.39 7.49 29.32 1.82 10.61-3.36 21.71-8.61 28.66-13.51 9.51-6.27 15.88-13.05 19.1-16.96.77.24 1.54.47 2.34.7 1.23.22 2.53.31 3.82.4 2.65-.18 5.36-.57 7.93-1.67.7-.32 1.18-.46 2.07-.92.54-.33 1.1-.66 1.65-1 1.07-.62 2.41-1.81 3.49-2.82 2.18-2.12 2.62-4.36 3.64-7.54.87-3.25-.05-6.5-1.66-9.61l-1.14-2.22c-.29-.56.27-1.99-.34-2.76-1.19-1.67-2.04-2.97-3.42-4.1-2.99-1.92-5.85-3.38-9.33-3.52l-.08.05h-.02zm7.05 7.746c.996.78 2.1 1.5 2.785 2.44.824.64 1.6 2.37 2.18 3.26.935 2.4 1.324 4.98.956 7.5-.51 2.47-1.58 4.78-3.18 6.59-.38.45-.84.75-1.23 1.14-.36.38-.77.78-1.41 1.07-.56.34-1.11.65-1.67.98-.25.12-.97.33-1.43.48-2.08.78-4.22.69-6.12.51-.92-.26-1.82-.47-2.64-.76-.77-.41-1.55-.73-2.21-1.13-.62-.47-1.2-.92-1.74-1.32-.47-.44-.81-.91-1.17-1.28-.76-.65-1.17-1.79-1.53-2.29l-.45-.8c-.02-.06-.1-.32-.27-.83-.13-.57-.62-1.37-.65-2.49-.04-.56-.17-1.17-.19-1.85.06-.67.11-1.4.17-2.18.14-.76.42-1.55.63-2.4.33-.81.78-1.62 1.19-2.47.63-.71 1.15-1.65 1.88-2.29.74-.62 1.34-1.37 2.55-1.94 1.87-1.27 4.23-1.73 6.6-1.89 2.41.02 4.84.75 7.02 2.02v-.06l-.05-.01h-.01z"/><path fill="#0071BC" d="M175.104 111.457c1.188.222 1.953 1.37 1.727 2.55-.23 1.184-1.38 1.96-2.57 1.727-1.18-.23-1.94-1.378-1.72-2.56.22-1.174 1.37-1.95 2.55-1.717h.02z"/><path fill="#B3B3B3" d="M171.19 114.704l-3.443-.975c-2.113 1.14-3.468 1.76-3.468 1.76l-.48.36-46.72 14.78c-.02.01 0 .21.07.41.39 1.2 1.16 2.23 2.28 3.05 8.81-2.23 30.72-8.43 51.73-19.41v.02h.02z"/><path fill="#999" d="M196.8 122.238c-.508.324-1.008.633-1.49.948-3.665-3.83-15.59-15.026-34.437-21.31-5.703-2.043-12.023-3.805-18.13-4.996-18.444-3.61-27.94.16-29.067 5.89-.04.208-.238 1.395-.213 1.4l49.994 9.77c4.426.87 18.367 6.467 26.43 15.937-.29.6-.36.706-.572 1.1-.266.613-.37.76-.37.76l-.046.055-.24 1.08c-.1.74-.54 1.78-.45 3.19 0 .7-.04 1.47.03 2.31.16.83.32 1.73.51 2.69.28.92.72 1.88 1.12 2.9.51.96 1.18 1.91 1.85 2.91.86.84 1.59 1.85 2.7 2.63s2.33 1.67 3.43 2.04c2.44 1.24 5.47 1.56 8.44 1.37 3.01-.352 5.95-1.602 8.48-3.5 1.14-1.102 2.35-2.11 3.24-3.602 1.13-1.51 1.35-2.56 2.11-4.21.86-3.1.97-6.4.13-9.47-.97-3.02-2.64-5.73-4.9-7.76-.55-.53-1.25-.94-1.88-1.39-.66-.46-1.3-.87-1.89-1.08-.6-.25-1.19-.51-1.78-.76-.94-.34-1.44-.35-2.17-.54-2.71-.65-5.38-.26-7.71.27-1.12.43-2.22.82-3.19 1.32l.04.05.02-.002zm13.54 2.72c.665.208 1.122.542 1.542.9.425.36.91.618 1.33 1.036 1.627 1.786 3.79 4.242 4.185 6.608.232 2.324.226 4.697.226 6.83v.02l-1.1-.082-.65.14-.5.44-.6.94c-.31.77-.74 1.028-1.04 1.38-.46.71-1.44 1.39-2.22 2.1-1.8 1.14-3.8 1.85-5.78 1.96-1.95-.08-3.82-.25-5.39-1.3-1.38-.59-1.55-1.13-2.04-1.5-.47-.38-.91-1.22-1.36-1.7-.29-.65-.58-1.28-.86-1.86-.14-.63-.38-1.18-.51-1.72-.03-.57-.07-1.08-.17-1.55-.04-.48.01-.91-.03-1.31-.14-.8.2-1.4.21-1.83.07-.43.09-.65.09-.65l-.18.5s.11-.35.32-.99c.11-.33.24-.72.39-1.19.08-.22.17-.54.26-.71.08-.1.13-.24.19-.38.14-.28.18-.62.38-1.05.28-.45.56-.98.88-1.58.39-.52.88-1.02 1.4-1.64.58-.53 1.26-.99 2-1.55 1.55-.81 3.6-1.62 5.77-1.227.48.07 1.26.13 1.53.19.59.25 1.19.48 1.79.73l-.04.048h-.022z"/><path fill="#4D4D4D" d="M176.41 111.29c1.28.25 2.14 1.5 1.884 2.797-.254 1.292-1.51 2.137-2.793 1.885-1.3-.258-2.14-1.508-1.89-2.8.26-1.3 1.51-2.136 2.81-1.88l-.01-.002z"/><path fill="#999" d="M203.73 102.685c-8.92 0-16.18-7.26-16.18-16.183 0-8.918 7.26-16.18 16.18-16.18s16.18 7.262 16.18 16.18c-.002 8.922-7.262 16.183-16.18 16.183zm0-26.544c-5.717 0-10.36 4.66-10.36 10.37 0 5.72 4.646 10.36 10.36 10.36 5.71 0 10.36-4.64 10.36-10.36 0-5.71-4.64-10.36-10.36-10.36v-.01zm1.232 79.32c-9.918 0-17.994-7.89-17.994-17.6s8.076-17.6 17.994-17.6 17.99 7.9 17.99 17.6c0 9.71-8.072 17.6-17.99 17.6zm0-28.87c-6.356 0-11.52 5.06-11.52 11.28 0 6.21 5.163 11.27 11.52 11.27 6.36 0 11.52-5.05 11.52-11.27s-5.16-11.27-11.52-11.27v-.01zm4.645-54.56s7.756 3.88 12.603-16.97c0 0 .79-4.18 2.787.73 2.545 6.24-.53 22.12-7.504 24.19"/><path fill="#333" d="M103.587 130.56s28.7 5.573 54.15-3.875l-2.187-12.36-51.96 16.236h-.003z"/></svg>