<svg xmlns="http://www.w3.org/2000/svg" width="256" height="256" viewBox="0 0 256 256"><path d="M199.77 237.38c-7.748 0-13.824-1.552-14.08-1.608-1.444-.322-2.594-1.525-2.984-2.954-.1-.362-.146-.785-.143-1.15-2.538.463-5.21.668-8.008.668-7.55 0-15.975-1.707-25.04-5.048-12.85-4.73-22.145-10.576-28.07-17.682-.054.04-.108.076-.164.115-.68.47-1.47.71-2.27.71-.62 0-1.25-.14-1.82-.44-.67-.34-15.43-8.03-22.66-20.46-4.54.9-9.51 1.35-14.83 1.35-1.39 0-2.83-.03-4.27-.09-38-1.64-47.42-20.57-48.01-37.73-14.12-1.68-16.73-12.41-16.35-21.38.32-7.49 3.64-14.11 8.5-17.54-2.98-7.39-5.37-16.17-4.15-23.63-1.01-.01-2.01-.4-2.76-1.14-1.17-1.15-1.52-2.9-.89-4.41.61-1.45 15.5-35.5 63.33-35.5 4.09 0 8.35.26 12.67.77.11.02.21.03.31.05.29.06 5.66 1.12 12.08 3.15.15-3.16.71-6.28 1.7-9.33 4.84-14.92 18.63-24.94 34.32-24.94h.47c.71-.04 1.43-.06 2.13-.06 3.54 0 7.01.55 10.34 1.64 8.51 2.76 15.42 8.69 19.51 16.59 4.74-2.38 9.92-3.62 15.21-3.62 3.5 0 6.97.55 10.33 1.64 4 1.3 7.7 3.34 11.01 6.06 13.01 9.17 18.44 25.47 13.52 40.62-1.91 5.92-5.38 11.28-10.02 15.51-1.97 2.48-4.36 4.84-7.17 7.07 19.41 4.76 32.54 16.05 39.06 33.6 12.03 32.36-3.02 76.95-11.82 87.95-5.79 7.25-15.79 11.29-28.91 11.29zM138.734 23.048c3.015 0 6.067.45 9.098 1.44 9.205 2.983 15.878 10.044 18.896 18.526 4.978-3.425 10.916-5.36 17.07-5.36 3.008 0 6.07.462 9.093 1.44 3.72 1.208 6.99 3.09 9.82 5.434 11.28 7.878 16.61 22.447 12.14 36.197-1.81 5.598-5.04 10.333-9.15 14-3.43 4.416-8.15 8.143-13.48 11.28l4.13 1.522c68.57 12.807 40.76 101.43 29.23 115.847-6.22 7.787-17.1 9.577-25.78 9.577-7.4 0-13.21-1.29-13.21-1.29 2.9-2.73 5.53-5.88 7.9-9.28-6.01 4.43-13.04 5.94-19.9 5.94-9.15 0-18-2.7-23.65-4.79-10.87-4-27.89-11.85-32.24-27.53l-.01-.03c-.11 3.51-.01 7.02.37 10.47 0 0-16.45-8.44-22.36-21.48-6 1.53-12.05 1.93-16.96 1.93-1.48 0-2.86-.03-4.11-.09-16.04-.69-45.54-4.8-44.16-37.63-.37.06-.76.1-1.17.1-.09 0-.18 0-.27-.01-6.48-.28-15.57-2.41-14.93-17.4.34-7.87 4.44-14.29 9.65-15.86-3.38-7.47-8.38-21.29-3.74-29.66 0 0 1.04-1.45-.48-1.45-.8 0-2.31.4-5.05 1.63 0 0 13.92-33.05 59.64-33.05 3.84 0 7.9.23 12.2.74 0 0 8.69 1.71 17.07 4.93-.57-4.5-.21-9.19 1.28-13.8 4.4-13.57 16.99-22.18 30.52-22.17.19 0 .38 0 .57.01.67-.04 1.35-.06 2.03-.06m0-8c-.74 0-1.48.02-2.23.06h-.37c-17.43 0-32.75 11.14-38.13 27.71-.57 1.77-1.02 3.57-1.34 5.39-4.42-1.21-7.63-1.85-7.86-1.89-.2-.04-.4-.07-.6-.09-4.47-.52-8.89-.79-13.13-.79-26.15 0-42.88 10.1-52.31 18.58C12.54 73.2 8.5 82.37 8.07 83.38c-1.274 3.03-.568 6.53 1.78 8.827.4.39.83.73 1.287 1.024-.28 6.49 1.4 13.42 3.66 19.63-4.512 4.37-7.41 11.07-7.73 18.64-.58 13.46 5.38 22.27 16.554 24.93 1.61 16.86 11.14 25.86 19.42 30.56 8.24 4.67 18.77 7.22 32.21 7.8 1.51.06 3.01.1 4.46.1 4.54 0 8.85-.31 12.88-.94 7.94 11.74 21.11 18.76 22.8 19.62 1.15.59 2.41.88 3.66.88.43 0 .86-.03 1.28-.1 6.37 6.68 15.61 12.2 27.85 16.71 9.51 3.5 18.4 5.28 26.42 5.28 1.82 0 3.59-.09 5.32-.27 1.12 1.72 2.89 2.96 4.95 3.43.27.06 6.77 1.49 14.96 1.49 14.38 0 25.46-4.35 32.04-12.58 5.34-6.67 11.27-21.98 14.43-37.23 2.98-14.38 5.05-35.49-1.98-54.39-6.1-16.43-18.06-28.02-34.91-34 .79-.83 1.52-1.67 2.21-2.53 5.05-4.67 8.81-10.54 10.91-17.02 2.71-8.32 2.64-17.1-.21-25.36-2.71-7.88-7.92-14.85-14.68-19.66-3.67-2.99-7.77-5.24-12.19-6.67-3.76-1.21-7.65-1.83-11.56-1.83-4.66 0-9.23.86-13.55 2.52-4.67-7.2-11.62-12.6-19.94-15.3-3.71-1.21-7.61-1.83-11.56-1.83z" fill="#333"/><path fill="#ED1E79" d="M214.844 80.726c4.47-13.75-.86-28.32-12.14-36.197-2.827-2.35-6.098-4.23-9.812-5.44-9.207-2.98-18.752-1.18-26.163 3.92-3.02-8.48-9.7-15.55-18.9-18.53-3.72-1.22-7.46-1.62-11.14-1.37-13.75-.25-26.62 8.41-31.08 22.17-1.82 5.61-1.98 11.34-.8 16.71.91 27.38 36.44 59.49 36.44 59.49s47.61-5.15 64.42-26.77c4.11-3.67 7.34-8.4 9.15-14z"/><path fill="#D3BD8D" d="M204.98 187.71c-3.204 8.68-4.535 16.18 1.552 18.42 6.087 2.248 15.303 3.782 20.49-10.3 3.195-8.686.854-17.538-5.233-19.78-6.09-2.238-13.62 2.975-16.81 11.66z"/><path fill="#C69C6D" d="M206.826 188.32c.915-2.428 2.443-5.014 4.502-6.923 1.042-.98 2.24-1.86 3.694-2.47 1.436-.588 3.275-.876 5.068-.24.65.31.53.2 1.116.568.474.29.856.61 1.132.902.63.61 1.066 1.3 1.448 2.002.713 1.4.297 2.57.453 3.99.3 2.85-.89 5.36-1.85 7.97l-.11.3c-.64 1.71-1.73 2.89-3.45 2.28-1.72-.61-2.23-2.35-1.62-4.06.04-.12.29-.19.35-.3.81-1.65 1.46-3.54 1.48-5.31.08-1.84-.56-3.24-.82-3.46-.16-.16-.63-.32-1.39-.14-.75.19-1.61.65-2.4 1.26-1.66 1.28-2.97 2.91-4.03 5.07l-.04.09c-.48.96-1.64 1.35-2.61.88-.91-.44-1.31-1.51-.96-2.43z"/><path fill="#D3BD8D" d="M132.063 160.853c-3.196 8.682-7.047 15.257-13.134 13.013-6.09-2.244-14.1-7.05-8.92-21.133 3.2-8.684 10.72-13.9 16.81-11.658 6.09 2.24 8.43 11.1 5.23 19.778z"/><path fill="#C69C6D" d="M130.263 160.122c.87-2.445 1.39-5.405 1.062-8.19-.163-1.428-.502-2.87-1.21-4.28-.707-1.38-1.934-2.796-3.703-3.47-.696-.185-.534-.196-1.22-.29-.548-.084-1.045-.093-1.446-.046-.876.054-1.658.298-2.403.58-1.448.612-2.802 1.436-3.845 2.412-2.08 1.967-3.72 4.322-4.675 6.928l-.112.3c-.62 1.705.36 3.654 2.06 4.304 1.7.645 3.67-.177 4.32-1.87.05-.124.13-.25.16-.364.44-1.796 1.3-3.602 2.44-4.97 1.12-1.448 2.58-2.083 2.92-2.08.22-.024.72.176 1.17.81.44.635.81 1.54 1.03 2.524.43 2.05.37 4.144-.22 6.474l-.02.09c-.26 1.047.37 2.11 1.41 2.365.99.24 1.98-.31 2.32-1.23z"/><path fill="#fdb" d="M206.174 205.777C194.8 236.662 164.14 228.4 150.9 223.52c-15.068-5.547-41.934-18.47-30.556-49.354 11.38-30.89 22.786-71.716 68.896-54.73 46.57 17.154 28.312 55.455 16.934 86.34z"/><path fill="#333" d="M158.487 202.518c-.425 0-.847-.133-1.2-.413-6.33-4.92-8.214-10.967-8.29-11.22-.158-.523-.084-1.087.19-1.56l12.016-20.448c.546-.93 1.735-1.243 2.677-.692.925.542 1.24 1.746.69 2.677l-11.542 19.64c.666 1.582 2.567 5.34 6.658 8.522.85.662 1.003 1.89.342 2.74-.383.495-.962.754-1.54.754zm28.707-81.758s-10.567 39.482-27.96 37.914c0 0-6.465-4.976-22.902-11.022l25.17-32.207 27.737 3.99-2.05 1.326zm-.376.55s-.748 33.945-18.787 39.74c0 0 31.93 11.416 47.94 11.09 0 0 4.3-47.326-29.15-50.83zm-38.556 61.033c-1.787 0-3.598-.314-5.37-.96-3.9-1.44-7.01-4.313-8.753-8.087-1.75-3.773-1.92-8.008-.48-11.908.37-1.006 1.49-1.523 2.51-1.16 1.01.372 1.53 1.497 1.15 2.513-1.07 2.92-.95 6.1.36 8.92 1.3 2.83 3.63 4.98 6.56 6.06 6.03 2.21 12.75-.89 14.97-6.91.37-1.01 1.49-1.52 2.51-1.15 1.01.37 1.53 1.5 1.15 2.51-2.32 6.29-8.29 10.19-14.63 10.19zm43.825 16.137c-1.777 0-3.59-.306-5.36-.958-3.903-1.435-7.017-4.312-8.755-8.085-1.745-3.775-1.913-8.007-.474-11.908.37-1.02 1.497-1.53 2.508-1.16 1.01.36 1.534 1.49 1.152 2.5-1.072 2.92-.947 6.09.358 8.92 1.307 2.82 3.637 4.97 6.562 6.05 2.92 1.07 6.092.95 8.915-.36 2.828-1.31 4.98-3.64 6.06-6.57.368-1.02 1.494-1.53 2.507-1.16 1.015.37 1.53 1.49 1.154 2.51-2.314 6.29-8.287 10.18-14.627 10.18zm-60.024-53.792s-16.26 32.896-13.052 61.737c0 0-25-12.833-24.43-31.29.58-18.454 36.9-103.936 97.39-69.215l4.37 1.61c68.56 12.806 40.76 101.43 29.23 115.846-11.53 14.418-38.99 8.278-38.99 8.278 21.14-19.872 27.65-62.233 27.65-62.233l-13.88-43-26-8.25-42.26 26.53z"/><path fill="#FF7BAC" d="M124.314 136.867s.178-.547.505-1.564c.32-.995 1.05-2.927 2.05-4.84 2.08-3.937 5.75-9.503 12.02-14.102 6.16-4.6 14.6-8.4 24.06-9.56 9.44-1.21 19.71-.04 29.18 3.34 1.36.56 2.08.8 3.41 1.4 1.22.53 2.39 1.08 3.48 1.65 2.24 1.14 4.4 2.4 6.46 3.78 4.16 2.73 7.84 6.04 11.04 9.54 6.39 7.08 10.5 15.36 12.11 22.92 1.74 7.58.95 14.19-.03 18.54-.51 2.19-1.12 3.85-1.56 4.96-.46 1.1-.7 1.69-.7 1.69-.86 2.12-3.28 3.13-5.4 2.26-1.99-.81-3.01-3.01-2.39-5.03l.03-.08s.6-1.95 1.03-5.42c.43-3.45.32-8.49-1.44-14.19-1.72-5.68-5.27-11.92-10.55-17.35-2.63-2.72-5.71-5.19-9.05-7.37-1.67-1.09-3.43-2.09-5.25-2.98-.93-.47-1.82-.87-2.69-1.24-.74-.35-2.18-.86-2.93-1.16-7.63-2.91-15.91-4.03-23.43-3.23-7.52.79-14.34 3.08-19.31 6.38-5 3.24-8.37 6.97-10.28 9.89-.97 1.55-1.57 2.46-2.05 3.44l-.72 1.48c-1.01 2.06-3.49 2.92-5.55 1.91-1.87-.92-2.74-3.07-2.12-4.99z"/><path fill="#F48B73" d="M158.583 200.56s-14.3-7.988-16.488-2.05c-2.183 5.936 5.443 5.636 5.443 5.636l-4.817-1s-6.1 13.05 9.86 9.853c0-.01-3.91-12.94 6.01-12.44z"/><path fill="#333" d="M147.32 204.38c-1.14 0-4.84.66-6.635-1.813-.75-1.025-1.438-2.41-.424-5.162.53-1.45 1.59-2.28 3.06-2.823 5.1-1.878 14.41 3.16 16.22 4.168.94.52 1.28 1.767.75 2.705-.52.953-1.72 1.297-2.65.78-3.85-2.144-10.44-4.695-12.96-3.79-.4.15-.6.356-.74.737-.23.625-.42 1.47-.08 1.948.57.786 2.58 1.153 3.63 1.06 1.03-.09 1.99-.048 2.02 1.024.04 1.078-.79 1.167-1.87 1.167h-.29zm.818 11.065c-3.266 0-5.64-.92-7.082-2.754-3.017-3.84-.41-9.71-.103-10.37.456-.97 1.6-1.38 2.592-.94.978.45 1.4 1.62.946 2.59-.5 1.11-1.67 4.65-.35 6.32 1.06 1.34 3.91 1.64 8.06.8 1.05-.21 2.09.48 2.3 1.54.21 1.06-.48 2.09-1.54 2.3-1.77.36-3.38.53-4.82.53zm-17.886-39.827c-.792 0-1.54-.49-1.83-1.278-.38-1.015.14-2.136 1.153-2.508l5.097-1.883c1.02-.37 2.14.14 2.508 1.15.376 1.01-.144 2.13-1.154 2.51l-5.095 1.88c-.22.08-.45.12-.67.12zm2.304 4.998c-.793 0-1.54-.488-1.83-1.275-.378-1.01.142-2.14 1.154-2.5l5.103-1.88c1.026-.35 2.138.15 2.51 1.16.373 1.01-.146 2.14-1.156 2.51l-5.102 1.89c-.225.08-.456.12-.68.12zm41.52 11.144c-.788 0-1.54-.49-1.83-1.277-.377-1.017.143-2.136 1.157-2.508l5.097-1.884c1.028-.36 2.138.15 2.508 1.16.376 1.02-.142 2.14-1.156 2.51l-5.097 1.88c-.224.09-.45.13-.68.13zm2.308 4.998c-.794 0-1.543-.487-1.83-1.278-.38-1.01.142-2.13 1.153-2.503l5.1-1.884c1.02-.36 2.134.146 2.507 1.155.376 1.01-.144 2.137-1.158 2.505l-5.097 1.886c-.23.07-.46.11-.68.11z"/><path fill="#F4D1B0" d="M38.522 132.83c-.4 9.245-2.06 16.68-8.548 16.398-6.48-.28-15.572-2.408-14.926-17.403.392-9.24 5.968-16.51 12.45-16.236 6.485.27 11.416 7.99 11.024 17.24z"/><path fill="#C69C6D" d="M36.572 132.687c.095-2.598-.318-5.57-1.478-8.134-.59-1.296-1.355-2.573-2.458-3.698-1.1-1.098-2.693-2.068-4.583-2.177-.722.04-.577-.018-1.252.1-.55.084-1.02.227-1.39.395-.81.314-1.48.79-2.1 1.288-1.2 1.02-2.23 2.22-2.93 3.47-1.38 2.52-2.22 5.26-2.34 8.03l-.01.32c-.07 1.82 1.46 3.38 3.27 3.47 1.82.11 3.45-1.28 3.55-3.1.01-.12.05-.27.03-.39-.11-1.83.14-3.82.82-5.47.62-1.72 1.82-2.77 2.14-2.87.2-.09.74-.05 1.37.41.62.48 1.24 1.23 1.75 2.1 1.04 1.82 1.61 3.83 1.76 6.23l.01.1c.07 1.08 1 1.88 2.07 1.83 1.01-.06 1.79-.89 1.82-1.87z"/><path fill="#fdb" d="M122.803 153c-1.414 32.89-33.127 34.374-47.22 33.773-16.046-.693-45.572-4.81-44.164-37.688 1.41-32.894-.19-75.247 48.91-73.147 49.58 2.13 43.88 44.18 42.47 77.06z"/><path fill="#333" d="M24.4 112.183l7.666 25.642 13.904-28.942m86.916 9.565l-9.34 23.304-11.374-30.027"/><path fill="#333" d="M78.402 164.655c-.862 0-1.65-.566-1.89-1.438-.28-1.044.336-2.116 1.375-2.4 5.158-1.398 7.26-4.63 7.834-5.71l-1.49-22.29c-.07-1.078.75-2.012 1.82-2.085 1.19-.196 2.02.745 2.08 1.82l1.53 22.795c.02.29-.02.58-.13.85-.09.25-2.53 6.2-10.6 8.393-.17.05-.34.065-.51.065zm34.828-72.363s-14.316 15.944-43.563 16.632l14.88-13.972s-32.5 19.706-48.702 19.017l-3.908.31-4.677 6.86s-12.9-22.95-6.3-34.85c0 0 2.42-3.39-5.527.17 0 0 16.355-38.84 71.834-32.32 0 0 29.78 5.82 32.253 16.4 1.885 8.08-6.29 21.73-6.29 21.73zm-3.75-3.412s-.962 22.357 6.445 31.444l14.453 3.35s10.176-21.293 10.43-27.12c.248-5.837-2.36-24.45-22.862-23.382-20.496 1.066-8.466 15.707-8.466 15.707zm-24.126 28.453s1.987-1.2 5.025-2.426c3.05-1.266 7.3-2.638 11.77-3.232 2.23-.313 4.5-.48 6.64-.405 2.14.02 4.16.25 5.87.583 1.72.28 3.13.66 4.1.988l1.55.47c1.85.57 2.91 2.52 2.34 4.38-.56 1.87-2.52 2.92-4.38 2.36-.1-.03-.19-.06-.29-.1l-.31-.12s-.44-.18-1.21-.48c-.76-.34-1.86-.75-3.25-1.12-1.37-.39-3.02-.74-4.83-.92-1.8-.24-3.77-.28-5.74-.19-3.96.15-7.93 1.03-10.82 1.92-2.94.89-4.68 1.74-4.68 1.74-.96.48-2.13.08-2.6-.89-.45-.91-.12-2 .73-2.52l.03-.01zm-14.238 2.744s-1.658-.998-4.507-2.14c-2.81-1.125-6.68-2.338-10.62-2.836-1.96-.25-3.93-.39-5.74-.3-1.82.02-3.5.23-4.9.51-1.42.25-2.55.57-3.34.84-.79.24-1.24.38-1.24.38l-.31.1c-1.86.56-3.82-.49-4.39-2.34-.57-1.86.49-3.82 2.34-4.38.1-.03.2-.05.3-.07l1.58-.33c.99-.23 2.43-.5 4.16-.63 1.73-.19 3.77-.24 5.9-.07 2.14.11 4.39.47 6.58.97 4.41.98 8.51 2.72 11.46 4.23 2.92 1.49 4.79 2.85 4.79 2.85l.03.02c.86.64 1.06 1.86.43 2.73-.61.81-1.73 1.03-2.59.52zm-15.32 29.01c-.23 0-.466-.005-.7-.015-4.15-.183-7.986-1.96-10.8-5.027-2.814-3.062-4.264-7.037-4.09-11.196.046-1.08.93-1.89 2.035-1.87 1.08.04 1.92.95 1.88 2.03-.13 3.11.95 6.09 3.06 8.38 2.11 2.29 4.98 3.63 8.09 3.76 3.2.22 6.09-.95 8.38-3.05 2.3-2.11 3.64-4.99 3.77-8.1.05-1.08.97-1.99 2.04-1.87 1.08.04 1.92.95 1.87 2.03-.17 4.16-1.96 8-5.03 10.81-2.89 2.65-6.59 4.09-10.48 4.09zm46.654 2.003c-.228 0-.457-.002-.694-.013-4.15-.184-7.99-1.964-10.798-5.026-2.813-3.07-4.263-7.04-4.086-11.2.045-1.07.74-1.96 2.04-1.87 1.073.05 1.91.97 1.867 2.04-.14 3.12.95 6.09 3.05 8.39 2.1 2.3 4.97 3.64 8.09 3.77 3.09.19 6.09-.95 8.39-3.06 2.29-2.11 3.63-4.98 3.76-8.09.04-1.09.88-1.85 2.03-1.88 1.07.05 1.91.96 1.87 2.04-.18 4.17-1.97 8-5.03 10.81-2.9 2.66-6.61 4.1-10.51 4.1zm-10.942 21.934c-2.124 0-4.056-.86-4.362-1.002-.976-.45-1.4-1.604-.946-2.58.458-.984 1.618-1.393 2.59-.964 1.027.473 2.938.924 3.76.424.5-.303.64-1.168.667-1.83.02-.4-.098-.672-.41-.957-1.985-1.84-9.05-1.983-13.414-1.475-1.13.064-2.046-.66-2.165-1.73-.12-1.066.647-2.03 1.717-2.16 2.07-.224 12.536-1.215 16.53 2.503 1.143 1.065 1.713 2.445 1.647 3.987-.128 2.93-1.456 4.337-2.545 5.002-.96.582-2.032.782-3.07.782zm-4.078 8.426c-2.42 0-5.3-1.112-8.606-3.348-.896-.6-1.13-1.816-.525-2.71.6-.9 1.81-1.135 2.71-.52 3.49 2.352 6.23 3.2 7.73 2.366 1.86-1.03 2.15-4.746 2.1-5.967-.04-1.07.8-1.98 1.88-2.02 1.07-.05 1.98.8 2.03 1.87.03.72.17 7.15-4.1 9.53-.96.54-2.04.81-3.23.81z"/><radialGradient id="a" cx=".513" cy="152.825" r="30.004" gradientTransform="matrix(.446 0 0 .446 53.624 94.34)" gradientUnits="userSpaceOnUse"><stop offset="0" stop-color="#FF585D"/><stop offset="1" stop-color="#FF585D" stop-opacity="0"/></radialGradient><circle opacity=".4" fill="url(#a)" cx="53.852" cy="162.5" r="13.382"/><radialGradient id="b" cx="115.524" cy="152.825" r="30.004" gradientTransform="matrix(.446 0 0 .446 53.624 94.34)" gradientUnits="userSpaceOnUse"><stop offset="0" stop-color="#FF585D"/><stop offset="1" stop-color="#FF585D" stop-opacity="0"/></radialGradient><circle opacity=".4" fill="url(#b)" cx="105.148" cy="162.5" r="13.382"/><radialGradient id="c" cx="165.787" cy="232.695" r="29.998" gradientTransform="matrix(.419 .154 -.154 .419 97.231 67.751)" gradientUnits="userSpaceOnUse"><stop offset="0" stop-color="#FF585D"/><stop offset="1" stop-color="#FF585D" stop-opacity="0"/></radialGradient><circle opacity=".4" fill="url(#c)" cx="130.921" cy="190.669" r="13.382"/><radialGradient id="d" cx="280.776" cy="232.693" r="29.999" gradientTransform="matrix(.419 .154 -.154 .419 97.231 67.751)" gradientUnits="userSpaceOnUse"><stop offset="0" stop-color="#FF585D"/><stop offset="1" stop-color="#FF585D" stop-opacity="0"/></radialGradient><circle opacity=".4" fill="url(#d)" cx="179.079" cy="208.331" r="13.382"/></svg>