<svg xmlns="http://www.w3.org/2000/svg" width="256" height="256" viewBox="0 0 256 256"><path fill="#333" d="M128.192 208.08c-53.67 0-97.334-35.926-97.334-80.084 0-1.04.027-2.11.082-3.2-2.67-2.296-5.094-4.91-7.52-8.093-2.62-3.464-4.753-6.977-6.538-10.754-2.143-4.6-3.412-8.71-4.003-12.96-.39-2.98-.38-5.67.03-8.25.21-1.2.55-2.9 1.28-4.69.39-1.05.96-2.11 1.28-2.67.35-.63.52-.88.76-1.21.07-.09.15-.21.36-.54l.08-.14.09-.13c2.52-3.33 5.63-5.22 7.79-6.21 2.32-1.07 4.84-1.77 7.69-2.13 1.45-.18 2.9-.27 4.36-.27 2.7 0 5.44.28 8.62.89 4.76.99 9.19 2.47 13.24 4.4 18.27-15.36 43.5-24.14 69.72-24.14 26.8 0 52.44 9.12 70.79 25.1 3.44-1.59 7.16-2.86 11.1-3.81 3.6-.8 6.66-1.16 9.7-1.16 1.09 0 2.19.05 3.27.15 2.9.29 5.44.92 7.79 1.92 2.22.95 5.37 2.76 7.97 5.99l.09.11.08.11c.22.32.32.44.39.53.28.35.44.59.84 1.24.54.9 1.02 1.83 1.34 2.61.59 1.36 1.03 2.81 1.39 4.57.5 2.61.59 5.3.29 8.28-.47 4.27-1.62 8.41-3.63 13.07-1.65 3.79-3.69 7.36-6.22 10.93-2.55 3.54-5.08 6.38-7.89 8.86.02.53.02 1.06.02 1.57 0 44.15-43.66 80.08-97.33 80.08l.02.03zm83.78-120.88c2.246 3.12 4.23 6.36 5.938 9.698.23-.344.45-.69.66-1.037 1.29-2.09 2.25-4.2 2.7-5.93.24-.87.3-1.52.3-1.91-.31-.17-.81-.39-1.52-.55-1.29-.32-2.83-.48-4.51-.48-.83 0-1.69.04-2.58.11-.34.04-.68.07-1.02.11l.033-.01zM34.35 86.813c.01.392.09 1.026.343 1.87.507 1.727 1.53 3.812 2.89 5.897.376.57.777 1.138 1.198 1.7 1.89-3.592 4.09-7.065 6.6-10.398-.82-.104-1.66-.183-2.49-.236-.57-.033-1.17-.052-1.77-.052-1.98 0-3.78.208-5.19.6-.74.193-1.25.435-1.56.62h-.02zm93.842-34.895c27.953 0 53.027 10.02 70.13 25.888 3.98-2.1 8.25-3.635 12.693-4.698 2.793-.62 5.686-1.057 8.77-1.057.953 0 1.924.05 2.915.14 2.102.21 4.315.65 6.592 1.62 2.254.97 4.6 2.56 6.403 4.81.714 1.02.507.59 1.072 1.54.45.75.854 1.52 1.092 2.11.56 1.28.9 2.55 1.16 3.82.48 2.51.45 4.88.23 7.08-.49 4.41-1.76 8.26-3.32 11.9-1.59 3.62-3.54 6.99-5.82 10.21-2.31 3.21-4.91 6.26-8.35 9.09l-.28.23-.08.06c.06 1.12.1 2.25.1 3.38 0 42.03-41.78 76.09-93.33 76.09s-93.34-34.06-93.34-76.08c0-1.68.07-3.34.2-4.99-3.45-2.7-6.1-5.63-8.47-8.73-2.38-3.14-4.41-6.46-6.1-10.04-1.67-3.58-3.05-7.41-3.66-11.79-.29-2.19-.38-4.55.02-7.07.22-1.28.53-2.57 1.06-3.86.21-.59.6-1.38 1.03-2.14.53-.95.35-.51 1.02-1.57 1.74-2.3 4.03-3.96 6.27-4.99 2.24-1.03 4.44-1.53 6.53-1.8 1.31-.16 2.6-.23 3.85-.23 2.73 0 5.33.34 7.86.82 5.13 1.07 10.04 2.79 14.58 5.26 17.07-15.33 41.72-24.95 69.12-24.95M39.79 103.5c3.04-7.285 7.403-14.072 12.85-20.18-3.126-.9-6.36-1.443-9.526-1.65-.68-.04-1.355-.06-2.025-.06-2.25 0-4.41.23-6.27.75-2.48.643-4 1.91-4.26 2.78-.32.82-.4 2.46.28 4.717.64 2.203 1.87 4.63 3.37 6.928 1.57 2.38 3.51 4.71 5.57 6.72m177.15.985c1.88-1.98 3.61-4.23 5.02-6.51 1.44-2.33 2.6-4.81 3.18-7.03.62-2.27.48-3.91.14-4.72-.29-.87-1.85-2.09-4.34-2.66-1.62-.41-3.48-.58-5.4-.58-.96 0-1.94.04-2.91.12-2.61.25-5.26.73-7.85 1.45 5.17 6.05 9.29 12.75 12.15 19.91"/><path fill="#333" d="M128.16 43.91c-26.23 0-51.54 8.51-70.33 23.5-3.68-1.56-7.61-2.78-11.74-3.64l-.07-.02-.06-.02c-3.43-.66-6.4-.96-9.36-.96-1.61 0-3.24.09-4.81.29h-.06c-3.26.42-6.16 1.23-8.86 2.47-3.7 1.7-6.92 4.27-9.31 7.43l-.19.26-.18.27c-.09.13-.14.22-.18.27-.4.54-.66.94-1.07 1.67-.36.63-1.03 1.88-1.51 3.17-.87 2.12-1.27 4.07-1.49 5.37l-.02.07-.01.07c-.47 2.96-.48 6.02-.05 9.35l.01.03.01.04c.64 4.65 2.02 9.12 4.33 14.07 1.92 4.06 4.19 7.81 6.97 11.48 2.17 2.85 4.33 5.27 6.65 7.43-.01.49-.02.98-.02 1.47 0 22.77 10.75 44.08 30.28 60 19.05 15.53 44.28 24.08 71.05 24.08s52-8.56 71.04-24.09c19.47-15.88 30.22-37.12 30.27-59.84 2.49-2.37 4.8-5.05 7.09-8.24l.02-.03.01-.03c2.69-3.8 4.85-7.6 6.61-11.62 2.19-5.08 3.44-9.59 3.94-14.23l.01-.04v-.04c.34-3.36.23-6.43-.33-9.38l-.01-.05-.01-.05c-.42-2.03-.93-3.73-1.63-5.34-.53-1.28-1.24-2.52-1.62-3.15-.44-.73-.7-1.12-1.11-1.63-.05-.05-.11-.13-.24-.33l-.15-.22-.17-.21c-3.11-3.87-6.87-6.03-9.48-7.15-2.77-1.17-5.688-1.9-8.96-2.22h-.068c-1.2-.11-2.42-.17-3.64-.17-3.34 0-6.67.4-10.5 1.25l-.062.01-.07.01c-3.32.79-6.49 1.81-9.49 3.04-18.898-15.59-44.63-24.45-71.47-24.45l.04.05zM62.51 83.46s-31.134-10.858-37.233-2c-6.09 8.853 7.293 30.075 17.734 37.27 0 0-6.1-22.847 19.5-35.27z"/><path fill="#F2D6B6" d="M60.49 86.538c-5.23-2.967-11.42-4.5-17.355-4.884-2.95-.172-5.88.017-8.29.686-2.476.644-4 1.91-4.26 2.78-.315.82-.403 2.46.278 4.718.646 2.202 1.87 4.63 3.37 6.927 3.005 4.56 7.347 8.953 11.407 11.204 4.465 2.48 6.068 8.1 3.584 12.56-2.482 4.46-8.107 6.06-12.56 3.58-.41-.23-.786-.48-1.138-.75l-.324-.25c-3.516-2.73-6.21-5.7-8.604-8.85-2.377-3.15-4.412-6.46-6.102-10.04-1.67-3.59-3.047-7.41-3.658-11.8-.285-2.19-.377-4.55.02-7.08.226-1.28.53-2.57 1.062-3.86.213-.59.598-1.38 1.03-2.15.532-.95.347-.51 1.02-1.57 1.74-2.3 4.034-3.96 6.272-4.99 2.244-1.03 4.445-1.53 6.535-1.8 4.19-.51 8.033-.12 11.715.59 7.275 1.52 14.13 4.29 20.06 8.77 1.622 1.24 1.946 3.55.706 5.18-1.126 1.5-3.177 1.88-4.77.97l.002.05z"/><path fill="#333" d="M193.333 85.47c-11.567-5.205 30.813-11.735 37.16-3.058 6.348 8.683-3.923 27.014-14.154 34.496 0 0 2.94-19.743-23.01-31.438z"/><path fill="#F2D6B6" d="M191.214 82.453c5.79-4.65 12.57-7.614 19.804-9.344 3.65-.82 7.48-1.31 11.684-.93 2.11.21 4.32.64 6.6 1.61 2.26.97 4.6 2.56 6.41 4.81.72 1.02.51.59 1.07 1.53.45.74.86 1.52 1.09 2.1.57 1.28.9 2.55 1.16 3.82.48 2.51.46 4.87.23 7.08-.48 4.4-1.75 8.26-3.32 11.89-1.58 3.62-3.53 6.98-5.81 10.2-2.312 3.2-4.91 6.26-8.35 9.09l-.27.22c-3.942 3.24-9.762 2.67-13-1.27-3.24-3.94-2.672-9.77 1.27-13 .358-.29.77-.58 1.15-.81 4-2.38 8.218-6.89 11.08-11.53 1.438-2.34 2.6-4.82 3.18-7.03.618-2.27.478-3.91.148-4.72-.28-.86-1.85-2.09-4.34-2.66-2.42-.6-5.36-.7-8.31-.46-5.92.56-12.06 2.27-17.21 5.39-1.74 1.06-4.01.5-5.07-1.24-.97-1.6-.58-3.66.85-4.8l-.046.05z"/><path fill="#333" d="M221.516 127.996c0 42.023-41.775 76.084-93.323 76.084-51.545 0-93.334-34.06-93.334-76.084 0-42.016 41.78-76.077 93.33-76.077 51.54-.01 93.32 34.06 93.32 76.07z"/><path fill="#F2D6B6" d="M209.896 125.837c0 37.114-36.67 67.21-81.9 67.21-45.226 0-81.894-30.097-81.894-67.21 0-37.12 36.668-67.22 81.895-67.22 45.23 0 81.9 30.1 81.9 67.22z"/><path fill="#333" d="M207.773 121.17c0 19.964-16.18 36.145-36.143 36.145s-36.14-16.18-36.14-36.145c0-19.965 16.18-36.14 36.15-36.14s36.15 16.176 36.15 36.14h-.017zm-87.26 0c0 19.964-16.176 36.145-36.14 36.145-19.97 0-36.147-16.18-36.147-36.145 0-19.965 16.178-36.14 36.146-36.14 19.965 0 36.14 16.176 36.14 36.14h.002z"/><path fill="#fff" d="M108.284 119.542c0 13.254-10.74 24.002-24 24.002-13.262 0-24.004-10.748-24.004-24.002 0-13.26 10.742-24.008 24.004-24.008 13.26 0 24 10.75 24 24.008zm-27.672-6.932c0 4.527-3.664 8.185-8.186 8.185s-8.186-3.657-8.186-8.184c0-4.51 3.664-8.17 8.186-8.17s8.186 3.67 8.186 8.18v-.01zm9.022 8.84c0 2.115-1.734 3.837-3.85 3.837-2.123 0-3.848-1.722-3.848-3.837 0-2.134 1.725-3.848 3.848-3.848 2.115 0 3.85 1.714 3.85 3.848zm105.908-1.908c0 13.254-10.744 24.002-24 24.002-13.26 0-24.004-10.748-24.004-24.002 0-13.26 10.744-24.008 24.004-24.008 13.256 0 24 10.75 24 24.008zm-27.672-6.932c0 4.527-3.666 8.185-8.188 8.185-4.52 0-8.186-3.657-8.186-8.184 0-4.51 3.664-8.17 8.186-8.17s8.188 3.67 8.188 8.18v-.01zm9.023 8.84c0 2.115-1.734 3.837-3.853 3.837-2.12 0-3.847-1.722-3.847-3.837 0-2.134 1.728-3.848 3.847-3.848 2.117 0 3.853 1.714 3.853 3.848z"/><path fill="#333" d="M139.52 148.035c0 3.86-5.156 6.99-11.52 6.99-6.355 0-11.52-3.13-11.52-6.99 0-3.865 5.165-6.996 11.52-6.996 6.363 0 11.52 3.13 11.52 6.99zm-38.4 57.4c-3.216 0-6.5-2.6-6.5-5.812V182.17c0-3.217 3.284-5.816 6.5-5.816s6.5 2.6 6.5 5.816v17.453c0 3.213-3.284 5.813-6.5 5.813zm27 0c-3.216 0-6.5-2.6-6.5-5.812V182.17c0-3.217 3.284-5.816 6.5-5.816s6.5 2.6 6.5 5.816v17.453c0 3.213-3.284 5.813-6.5 5.813zm27 0c-3.216 0-6.5-2.6-6.5-5.812V182.17c0-3.217 3.284-5.816 6.5-5.816s6.5 2.6 6.5 5.816v17.453c0 3.213-3.284 5.813-6.5 5.813z"/></svg>