<svg xmlns="http://www.w3.org/2000/svg" width="256" height="256" viewBox="0 0 256 256"><path d="M109.353 206.605c-15.087 0-26.908-2.535-35.71-7.7-.094.193-.203.38-.328.56-.753 1.08-1.982 1.71-3.28 1.71-.154 0-.31-.008-.465-.026-1.375-.17-33.767-4.2-41.105-25.88-4.63-13.69-4.305-61.35 17.377-91.57 12.013-16.75 28.403-25.24 48.714-25.24 4.112 0 8.43.36 12.84 1.07l4.527-.03c4.637-.79 9.173-1.2 13.487-1.2 24.458 0 43.52 12.68 55.565 36.82l-.253-.69c-.04-.11-.073-.21-.103-.32-.05-.16-.12-.34-.2-.54-.33-.89-.83-2.22-.99-3.94l-.07-.51c-.11-.74-.24-1.66-.28-2.68-.01-.15-.01-.29 0-.43.08-1.12.22-2.28.39-3.58.01-.13.03-.25.06-.37.26-1.18.64-2.32 1.01-3.42l.2-.62c.04-.13.09-.26.15-.39.65-1.44 1.47-2.78 2.27-4.07.12-.2.28-.42.44-.59.25-.29.49-.58.73-.87.73-.89 1.57-1.89 2.79-2.92 2.09-1.71 3.53-2.69 4.75-3.2 3.14-1.73 7.15-2.68 11.34-2.68h.16c3.91.15 7.09 1.58 9.92 3.27 1.38-1.71 3.28-5.23 4.96-12.43.59-2.98 2.49-4.83 4.96-4.83 3.46 0 4.9 3.55 5.44 4.88 2.7 6.64.71 20.54-5.56 26.76.5 1.78.76 3.61.76 5.47 0 9.49-6.7 17.75-15.95 19.74-2.13.67-4.46 1.08-7.3 1.27-.09 0-.18.01-.27.01-.1 0-.19-.01-.28-.01l-.13-.01c-1.34-.1-2.73-.19-4.14-.45l-.26-.06c-1.51 1.7-3.44 3.73-5.8 5.93 2.55 1.98 4.6 3.8 6.14 5.25.81-.36 1.64-.67 2.49-.93l.12-.05c.18-.07.37-.13.56-.17.32-.08.65-.15.98-.21 1.64-.37 3.28-.56 4.88-.56 12.13 0 21.99 9.69 21.99 21.6 0 11.91-9.86 21.6-21.99 21.6-3.89 0-7.62-1.01-10.89-2.84-.08 7.49-.83 13.86-2.15 17.9-7.13 21.71-39.44 26.43-40.81 26.62-.19.02-.37.03-.55.03-1.28 0-2.49-.61-3.25-1.66-.34-.47-.57-1-.68-1.54-9.13 5.62-21.48 8.57-36.54 8.63h-.74zm92.525-64.34c.237.1.464.22.677.364.616.41 1.615.54 3.116.61 1.12-.1 2.3-.5 3.44-1.18l.57-.48c.25-.21.61-.51.75-.65.09-.13.18-.24.27-.36.15-.17.3-.33.47-.49.07-.15.15-.29.24-.43l.6-.95c.15-.23.31-.44.5-.63l.01-.24c0-4.01-3.37-7.27-7.52-7.27-1.6 0-3.15.5-4.44 1.42-.06.2-.14.44-.27.7-.05.12-.12.28-.21.46l-.09.27c-.12.39-.23.72-.33 1.01l-.04.13c-.01.09-.02.19-.04.31-.04.45-.13.82-.2 1.08v.01c.03.31.03.63.03.97v.17c.09.48.13.94.16 1.37l.07.21c.09.26.18.54.26.82.16.35.33.71.5 1.08.16.21.3.4.43.58.07.09.13.18.19.26.27.22.49.45.64.62l.09.09c.01 0 .08.04.2.09zm-19.5-44.195c.035-.037.07-.075.107-.112l-.483-.695c.126.268.25.536.375.807zm21.35-17.93c-3.507 0-6.36 2.855-6.36 6.362 0 3.508 2.854 6.362 6.36 6.362 3.51 0 6.363-2.854 6.363-6.362 0-3.507-2.85-6.36-6.36-6.36zm19.528-26.745c.43 0 1.003.572 1.74 2.386 2.44 5.98-.282 20.79-6.645 23.85.99 2.09 1.56 4.42 1.56 6.88 0 7.83-5.58 14.37-12.98 15.86-2.15.71-4.36 1.01-6.54 1.16-1.29-.09-2.59-.18-3.81-.4-.79-.23-1.57-.45-2.34-.7-2.12 2.58-5.62 6.41-10.48 10.52l.21.66c5.6 3.95 9.4 7.59 11.25 9.5 1.39-.88 2.9-1.58 4.51-2.06l.27-.1c.31-.07.61-.13.93-.2 1.31-.29 2.66-.46 4.05-.46 9.92 0 17.99 7.9 17.99 17.6 0 9.7-8.07 17.6-17.99 17.6-6.33 0-11.9-3.22-15.11-8.08.66 11.62-.19 21.19-1.73 25.9-6.42 19.59-37.56 23.91-37.56 23.91 1.97-3.99 3.49-8.31 4.64-12.8-10.64 16.29-33.33 18.18-45.11 18.23h-.72c-13.01 0-33.35-1.78-43.81-16.28 1.26 3.73 2.74 7.38 4.5 10.85 0 0-31.17-3.65-37.78-23.18C26.07 155.62 29.79 62.5 94.61 62.5c3.945 0 8.12.347 12.527 1.075l5.19-.03c4.633-.81 9.003-1.19 13.13-1.19 29.54 0 46.45 19.59 55.51 42.536 2.4-2.01 4.745-4.26 6.77-6.72-.23-.23-.474-.46-.663-.69-.237-.3-.337-.46-.49-.68l-.726-1.02-.595-.85-.14-.2-.11-.27s-.17-.47-.49-1.33c-.24-.89-.91-2.12-1.05-3.85-.11-.86-.28-1.82-.32-2.87.077-1.04.218-2.16.37-3.36.26-1.16.694-2.38 1.11-3.65.547-1.21 1.295-2.42 2.05-3.64.997-1.12 1.784-2.26 3.12-3.38 1.32-1.09 2.914-2.3 3.88-2.63 2.71-1.55 6.204-2.29 9.63-2.29 3.48.14 6.344 1.59 9.33 3.52.32.26.606.53.88.81 2.64-1.33 6.117-5.35 8.744-16.65 0 0 .31-1.66 1.043-1.66M203.76 96.9c5.714 0 10.36-4.646 10.36-10.36 0-5.71-4.645-10.36-10.36-10.36s-10.36 4.65-10.36 10.36c0 5.714 4.645 10.362 10.36 10.362m-8.286 37.474l.185-.5-.09.65c-.01.428-.35 1.028-.21 1.83.04.39-.01.82.03 1.3.1.47.14.98.18 1.55.13.54.36 1.09.51 1.72.28.59.56 1.215.86 1.86.45.48.9 1.32 1.37 1.69.49.37.65.91 2.04 1.5 1.57 1.05 3.44 1.21 5.39 1.3 1.97-.11 3.97-.82 5.77-1.97.79-.71 1.76-1.39 2.22-2.1.3-.35.73-.6 1.05-1.38l.6-.95.5-.44.33-.07c.18-.8.29-1.63.29-2.49 0-6.212-5.16-11.27-11.52-11.27-2.94 0-5.61 1.09-7.65 2.867-.11.203-.23.405-.34.582-.21.42-.24.77-.38 1.05-.07.14-.12.28-.19.38-.09.16-.18.49-.26.7-.15.47-.28.86-.39 1.19l-.32.98m-7.31-2.66c.33-.85.71-1.67 1.16-2.45-.63-.7-1.29-1.38-1.97-2.03.29 1.5.56 3 .8 4.48m35.12-86.29c-4.34 0-7.88 3.197-8.86 7.97-.87 3.75-1.78 6.29-2.56 8-2.41-1.064-5.13-1.85-8.25-1.98l-.32-.003c-4.77 0-9.38 1.083-13.08 3.06-1.55.68-3.22 1.8-5.51 3.69-.02.02-.05.037-.07.055-1.5 1.26-2.49 2.46-3.3 3.42-.21.26-.42.516-.65.77-.31.347-.59.72-.83 1.114-.85 1.37-1.78 2.88-2.54 4.57-.11.25-.21.51-.3.77l-.2.6c-.23.68-.47 1.41-.7 2.19-3.06-4.03-6.4-7.6-10.02-10.7-11.29-9.68-24.96-14.59-40.65-14.59-4.44 0-9.09.4-13.83 1.2l-3.88.02c-4.51-.71-8.93-1.07-13.15-1.07-21.37 0-39.34 9.3-51.97 26.91-12.41 17.3-17.3 38.8-19.21 53.79-2.08 16.33-1.57 32.97 1.29 41.4 8.14 24.05 42.95 28.39 44.43 28.57.31.03.62.05.93.05 1.59 0 3.12-.48 4.42-1.34 3.02 1.5 6.31 2.76 9.87 3.76 7.18 2.02 15.37 3 25.03 3h.77c14.06-.06 25.93-2.56 35.26-7.34 1.44 1.22 3.27 1.9 5.18 1.9.36 0 .73-.02 1.1-.07 1.47-.2 36.17-5.27 44.06-29.33 1.07-3.27 1.8-7.87 2.14-13.28 2.28.64 4.67.97 7.1.97 14.33 0 25.99-11.48 25.99-25.6 0-14.11-11.66-25.6-25.99-25.6-1.88 0-3.8.21-5.71.64-.35.07-.7.14-1.04.22-.38.09-.75.2-1.11.34l-.3.1-1.02-.9c.46-.48.9-.94 1.32-1.39.91.11 1.79.17 2.6.23l.12.01c.19.01.37.02.56.02.18 0 .35-.01.53-.02 3.09-.21 5.67-.65 8.06-1.4 10.99-2.44 18.92-12.29 18.92-23.6 0-1.49-.13-2.96-.4-4.4 6.3-8.03 7.87-22.06 4.9-29.35-2.48-6.08-6.34-7.36-9.15-7.36h-.01zm-19.52 43.47c-1.3 0-2.36-1.06-2.36-2.36s1.06-2.36 2.36-2.36c1.31 0 2.37 1.06 2.37 2.36 0 1.306-1.06 2.366-2.36 2.366zm-.02 45.94c.36-.13.78-.214 1.26-.214 1.61 0 2.98 1.02 3.39 2.39l-.35.56-.1.17c-.08.09-.17.18-.26.28-.08.09-.15.18-.22.27l-.32.27-.31.26c-.44.23-.88.39-1.26.46-.55-.03-.85-.06-1.02-.09-.16-.1-.32-.19-.48-.27l-.07-.06-.17-.24-.21-.44c-.05-.16-.09-.3-.14-.43-.03-.28-.06-.57-.1-.86 0-.14 0-.31-.01-.5.05-.25.1-.53.13-.85.07-.21.14-.44.22-.69z" fill="#333"/><path fill="#D3BD8D" d="M152.655 144.008c.037 10.334 1.58 18.694 8.82 18.663 7.246-.03 17.49-2.01 17.412-18.78-.053-10.33-5.96-18.67-13.21-18.64-7.242.04-13.074 8.43-13.022 18.77z"/><path fill="#C69C6D" d="M154.823 143.93c.012-2.898.594-6.2 2.006-9.007.7-1.434 1.61-2.818 2.9-4.027 1.27-1.175 3.08-2.195 5.2-2.228.8.068.63 0 1.39.158.61.123 1.13.302 1.53.503.89.39 1.63.94 2.3 1.52 1.29 1.19.93 2.58 1.65 4 1.43 2.86.8 5.96.8 9.05v.35c0 2.03-.31 3.7-2.34 3.73-2.02.03-3.05-1.59-3.09-3.61 0-.15.32-.31.34-.46.21-2.04.19-4.26-.48-6.13-.63-1.96-1.83-3.18-2.18-3.3-.23-.11-.77-.09-1.49.4s-.7 1.31-1.29 2.26c-1.23 1.98-1.49 4.2-1.49 6.88v.1c0 1.19-1.92 2.06-3.11 1.94-1.12-.11-2.69-1.07-2.69-2.17z"/><path fill="#fdb" d="M160.966 162.442c.174 36.753-35.13 40.094-50.886 40.16-17.93.09-51.082-2.936-51.25-39.69-.174-36.752-4.193-83.923 50.676-84.173 55.417-.26 51.286 46.94 51.46 83.7z"/><path fill="#333" d="M109.046 177.808c-.215 0-.438-.034-.652-.1-8.545-2.678-12.88-8.267-13.057-8.504-.37-.485-.52-1.104-.416-1.696l4.58-26.092c.21-1.19 1.38-1.982 2.53-1.773 1.19.206 1.99 1.333 1.77 2.524l-4.39 25.07c1.32 1.39 4.78 4.577 10.3 6.31 1.15.36 1.8 1.578 1.43 2.73-.29.936-1.15 1.53-2.08 1.53zm-1.158-96.883s4.373 45.434-14.43 50.586c0 0-8.707-2.68-28.268-2.58L78.932 85.4l30.572-6.662-1.616 2.187zm-.174.725s12.48 35.8-4.127 48.91c0 0 37.85-.535 54.48-7.13 0-.002-14-51.192-50.353-41.78zm-22.552 81.73c-4.615 0-8.965-2.655-12.244-5.9-3.305-3.265-5.13-8.942-5.146-13.59-.006-1.208.963-3.51 2.17-3.51h.012c1.197 0 2.174 1.853 2.18 3.06.014 3.476 1.387 7.225 3.857 9.682 2.47 2.428 5.72 4.26 9.18 4.26h.06c3.48 0 6.74-1.432 9.19-3.914 2.45-2.467 3.79-6.578 3.78-10.06-.01-1.202.96-3.026 2.17-3.026h.01c1.21 0 2.18 1.785 2.19 2.985.03 4.645-1.76 10.294-5.03 13.587-3.27 3.307-7.62 6.428-12.27 6.428h-.08zm52.15 0c-9.55 0-17.34-9.49-17.385-19.052-.008-1.205.963-3.947 2.168-3.947h.012c1.2 0 2.174 1.74 2.182 2.94.03 7.19 5.7 13.43 13.08 13.36 3.47-.02 6.74-1.19 9.19-3.67 2.44-2.47 3.78-5.65 3.76-9.13-.01-1.2 1.05-2.33 2.18-2.14 1.2 0 2.17 1 2.18 2.2.02 4.65-1.77 10.02-5.04 13.32-3.27 3.3-7.62 6.15-12.27 6.15h-.09zm-77.746-35.883s-4.152 40.767 10.47 69.68c0 0-31.17-3.65-37.782-23.184-6.61-19.53-2.016-123.145 74.83-110.457l5.193-.027c76.728-13.4 82.27 90.17 75.84 109.76-6.425 19.59-37.558 23.9-37.558 23.9 14.35-29.05 4.6-75.91 4.6-75.91L123.83 81.7l-30.427 1.52-33.842 44.27z"/><path fill="#FF7BAC" d="M48.404 122.345s-.023-.644-.082-1.836c-.043-1.17-.037-3.48.256-5.87.63-4.93 2.307-12.19 7.068-19.45 4.648-7.23 11.98-14.5 21.428-19.42 9.402-4.96 20.61-7.74 31.836-7.91 1.64.05 2.486.01 4.11.13 1.487.08 2.93.19 4.29.36 2.785.31 5.54.79 8.244 1.43 5.42 1.23 10.556 3.24 15.28 5.65 9.448 4.9 16.98 11.95 21.632 19.23 4.775 7.24 6.54 14.46 7.213 19.39.32 2.48.32 4.46.3 5.79l-.07 2.04c-.08 2.55-2.25 4.55-4.8 4.47-2.41-.08-4.51-1.98-4.51-4.33v-.11s-.11-2.28-1.01-6.08c-.9-3.78-2.97-9.01-7.03-14.29-4.03-5.27-10.17-10.41-17.81-14.03-3.82-1.82-8-3.2-12.35-4.17-2.18-.5-4.4-.86-6.65-1.08-1.15-.13-2.25-.21-3.3-.25-.91-.07-2.61-.05-3.51-.07-9.12-.07-18.22 1.99-25.78 5.77-7.55 3.77-13.78 8.83-17.69 14.23-3.96 5.33-6.03 10.56-6.89 14.35-.41 1.99-.68 3.19-.81 4.4-.12 1.19-.18 1.83-.18 1.83-.25 2.54-2.52 4.4-5.07 4.15-2.32-.23-4.07-2.14-4.17-4.39z"/><path fill="#333" d="M73.36 165.024c-.61 0-1.222-.252-1.655-.762-.783-.91-.68-2.288.236-3.075l4.6-3.957c.91-.775 2.29-.69 3.08.234.79.906.68 2.287-.23 3.07l-4.6 3.96c-.41.358-.91.53-1.42.53zm47.79-4.57c-.61 0-1.217-.255-1.65-.752-.785-.914-.68-2.286.227-3.077l4.594-3.965c.92-.786 2.3-.69 3.09.224.79.915.68 2.293-.22 3.082l-4.6 3.964c-.41.35-.92.525-1.43.525zm-52.352 0c-.613 0-1.22-.255-1.652-.752-.785-.914-.684-2.286.225-3.077l4.6-3.965c.91-.786 2.29-.69 3.08.224.79.915.68 2.293-.23 3.082l-4.59 3.964c-.42.35-.92.525-1.42.525zm56.717 4.333c-.613 0-1.22-.257-1.654-.758-.78-.92-.68-2.29.23-3.08l4.6-3.96c.92-.78 2.29-.69 3.08.23.79.91.68 2.28-.23 3.07l-4.59 3.96c-.42.35-.92.52-1.43.52z"/><path fill="#F48B73" d="M114.69 187.607c.028 5.52-3.76 10.005-8.433 10.027-4.69.015-8.51-4.43-8.53-9.948-.032-5.506 3.75-9.995 8.427-10.02 4.687-.02 8.512 4.432 8.535 9.94z"/><path fill="#333" d="M105.95 191.84c-1.222 0-2.42-.118-3.6-.352-9.58-1.886-14.005-10.748-14.185-11.13-.53-1.08-.08-2.38.996-2.91 1.08-.524 2.4-.09 2.93.995.04.075 3.71 7.33 11.15 8.77 6.17 1.193 13.31-1.775 21.25-8.843.9-.793 2.28-.724 3.08.182.8.897.72 2.28-.18 3.082-7.61 6.783-14.8 10.206-21.42 10.206z"/><path fill="#999" d="M203.25 67.375c-3.423 0-6.915.743-9.628 2.298-.965.333-2.557 1.543-3.88 2.633-1.335 1.122-2.122 2.26-3.12 3.382-.754 1.22-1.502 2.43-2.05 3.646-.415 1.262-.85 2.48-1.108 3.65-.152 1.194-.293 2.32-.367 3.36.037 1.048.21 2.007.324 2.866.15 1.738.81 2.97 1.06 3.854.32.865.49 1.335.49 1.335l.11.27.15.2.6.85.73 1.01c.16.22.26.38.49.68.19.23.43.46.67.69-8.77 10.67-23.41 17.36-23.41 17.36s-.17.14-.45.36l-46.71 14.79c-.02.01.01.21.07.42 1.77 5.56 11.39 7.49 29.32 1.82 10.61-3.36 21.71-8.61 28.66-13.51 9.51-6.27 15.88-13.05 19.1-16.96.77.24 1.54.47 2.34.7 1.22.22 2.52.31 3.81.4 2.65-.18 5.36-.57 7.93-1.67.7-.32 1.18-.46 2.06-.92.54-.33 1.1-.66 1.65-1 1.07-.62 2.41-1.81 3.49-2.82 2.18-2.12 2.62-4.36 3.64-7.54.87-3.25-.05-6.5-1.66-9.61l-1.14-2.22c-.29-.56.27-1.99-.34-2.76-1.19-1.67-2.04-2.97-3.42-4.1-2.99-1.92-5.85-3.38-9.33-3.52zm7.05 7.746c.996.78 2.098 1.5 2.785 2.44.824.64 1.598 2.37 2.178 3.26.934 2.4 1.326 4.98.957 7.5-.51 2.47-1.584 4.78-3.18 6.59-.383.45-.84.75-1.23 1.14-.385.38-.787.77-1.418 1.07-.563.34-1.13.65-1.676.98-.252.12-.996.33-1.45.48-2.083.78-4.222.69-6.122.51-.92-.26-1.82-.47-2.646-.76-.768-.41-1.553-.73-2.21-1.13-.624-.47-1.204-.92-1.743-1.32-.473-.44-.81-.91-1.172-1.28-.76-.65-1.17-1.79-1.533-2.29l-.455-.8c-.027-.06-.105-.32-.27-.83-.128-.57-.622-1.37-.65-2.49-.044-.56-.177-1.17-.198-1.85.057-.67.11-1.4.166-2.18.14-.76.42-1.55.63-2.4.323-.81.774-1.62 1.192-2.48.627-.71 1.143-1.65 1.88-2.29.74-.62 1.337-1.37 2.546-1.94 1.87-1.27 4.23-1.73 6.6-1.89 2.41.02 4.84.75 7.02 2.02z"/><path fill="#0071BC" d="M175.103 111.457c1.188.222 1.953 1.37 1.725 2.55-.23 1.184-1.38 1.96-2.56 1.727-1.183-.23-1.948-1.378-1.714-2.56.226-1.174 1.37-1.95 2.55-1.717z"/><path fill="#B3B3B3" d="M171.192 114.704l-3.445-.975c-2.113 1.14-3.467 1.76-3.467 1.76l-.457.36-46.716 14.78c-.02.01.006.21.068.41.39 1.2 1.16 2.23 2.285 3.05 8.816-2.23 30.728-8.43 51.732-19.41z"/><path fill="#999" d="M196.8 122.238c-.508.324-1.008.633-1.49.948-3.666-3.83-15.59-15.026-34.438-21.31-5.703-2.043-12.025-3.805-18.13-4.996-18.444-3.61-27.94.16-29.067 5.89-.04.208-.238 1.395-.213 1.4l49.994 9.77c4.426.87 18.367 6.467 26.43 15.937-.29.6-.36.706-.574 1.1-.264.613-.37.76-.37.76l-.046.052-.232 1.08c-.1.74-.54 1.77-.45 3.19.007.7-.042 1.47.034 2.31.16.83.326 1.73.512 2.69.285.92.72 1.88 1.127 2.9.512.96 1.18 1.91 1.852 2.91.86.84 1.59 1.85 2.7 2.63 1.11.78 2.33 1.67 3.43 2.04 2.44 1.24 5.47 1.56 8.44 1.37 3.01-.35 5.95-1.6 8.48-3.5 1.14-1.1 2.35-2.11 3.24-3.6 1.13-1.51 1.35-2.56 2.11-4.21.87-3.1.97-6.4.13-9.47-.97-3.02-2.64-5.73-4.9-7.76-.55-.53-1.25-.94-1.88-1.39-.66-.46-1.3-.87-1.89-1.08-.59-.25-1.18-.51-1.77-.76-.94-.34-1.44-.35-2.17-.54-2.71-.65-5.38-.26-7.71.27-1.12.43-2.21.82-3.19 1.32zm13.54 2.72c.665.208 1.122.542 1.542.9.424.36.91.618 1.33 1.036 1.627 1.785 3.79 4.242 4.185 6.608.232 2.324.223 4.697.223 6.83v.02l-1.104-.083-.65.14-.504.44-.6.94c-.314.77-.743 1.03-1.044 1.38-.46.71-1.438 1.39-2.22 2.1-1.806 1.14-3.805 1.85-5.78 1.96-1.952-.08-3.82-.25-5.392-1.3-1.385-.59-1.55-1.13-2.04-1.5-.472-.38-.912-1.22-1.365-1.7-.29-.65-.58-1.28-.86-1.86-.14-.63-.38-1.18-.51-1.72-.03-.57-.07-1.08-.17-1.55-.04-.48.01-.91-.03-1.31-.14-.8.2-1.4.21-1.83.07-.43.09-.65.09-.65l-.18.5s.11-.35.32-.99c.11-.33.24-.72.39-1.19.08-.22.17-.54.26-.71.08-.1.13-.24.19-.38.14-.28.18-.62.38-1.05.28-.45.56-.98.88-1.58.39-.52.88-1.02 1.4-1.64.58-.53 1.26-.99 2-1.55 1.55-.81 3.6-1.62 5.77-1.23.48.07 1.26.13 1.53.19.59.25 1.19.48 1.79.73z"/><path fill="#4D4D4D" d="M176.41 111.29c1.282.25 2.14 1.5 1.884 2.797-.254 1.292-1.51 2.137-2.793 1.885-1.3-.258-2.14-1.508-1.89-2.8.26-1.3 1.51-2.136 2.81-1.88z"/><path fill="#999" d="M203.728 102.685c-8.918 0-16.178-7.26-16.178-16.183 0-8.918 7.26-16.18 16.178-16.18 8.92 0 16.18 7.262 16.18 16.18 0 8.922-7.26 16.183-16.18 16.183zm0-26.544c-5.715 0-10.36 4.66-10.36 10.37 0 5.72 4.646 10.36 10.36 10.36s10.363-4.64 10.363-10.36c0-5.71-4.64-10.36-10.36-10.36zm1.234 79.32c-9.918 0-17.994-7.89-17.994-17.6s8.076-17.6 17.994-17.6 17.99 7.9 17.99 17.6c0 9.71-8.072 17.6-17.99 17.6zm0-28.87c-6.357 0-11.52 5.06-11.52 11.27s5.163 11.27 11.52 11.27c6.36 0 11.52-5.05 11.52-11.27s-5.16-11.27-11.52-11.27zm4.646-54.56s7.756 3.88 12.602-16.97c0 0 .79-4.18 2.787.73 2.545 6.24-.53 22.12-7.504 24.19"/><path fill="#333" d="M103.587 130.56s28.7 5.573 54.15-3.878l-2.184-12.36-51.966 16.238z"/></svg>