<?xml version="1.0" encoding="utf-8"?>
<!-- Generator: Adobe Illustrator 16.0.0, SVG Export Plug-In . SVG Version: 6.00 Build 0)  -->
<!DOCTYPE svg PUBLIC "-//W3C//DTD SVG 1.1//EN" "http://www.w3.org/Graphics/SVG/1.1/DTD/svg11.dtd">
<svg version="1.1" id="Layer_1" xmlns="http://www.w3.org/2000/svg" xmlns:xlink="http://www.w3.org/1999/xlink" x="0px" y="0px"
	 width="256px" height="256px" viewBox="0 0 256 256" enable-background="new 0 0 256 256" xml:space="preserve">
<path fill="#333333" d="M109.353,206.605c-15.087,0-26.908-2.535-35.71-7.7c-0.094,0.192-0.203,0.38-0.328,0.56
	c-0.753,1.08-1.982,1.71-3.28,1.71c-0.154,0-0.31-0.008-0.465-0.026c-1.375-0.17-33.767-4.199-41.105-25.879
	c-4.63-13.69-4.305-61.351,17.377-91.57c12.013-16.75,28.403-25.24,48.714-25.24c4.112,0,8.43,0.36,12.84,1.07l4.527-0.03
	c4.637-0.79,9.173-1.2,13.487-1.2c24.458,0,43.52,12.68,55.564,36.82l-0.252-0.69c-0.041-0.11-0.074-0.21-0.104-0.32
	c-0.051-0.16-0.12-0.34-0.2-0.54c-0.33-0.89-0.83-2.22-0.989-3.94l-0.07-0.51c-0.11-0.74-0.24-1.66-0.28-2.68
	c-0.011-0.15-0.011-0.29,0-0.43c0.08-1.12,0.22-2.28,0.39-3.58c0.01-0.13,0.03-0.25,0.061-0.37c0.26-1.18,0.64-2.32,1.01-3.42
	l0.199-0.62c0.041-0.13,0.091-0.26,0.15-0.39c0.65-1.44,1.471-2.78,2.271-4.07c0.12-0.2,0.28-0.42,0.44-0.59
	c0.25-0.29,0.489-0.58,0.729-0.87c0.729-0.89,1.569-1.89,2.79-2.92c2.09-1.71,3.529-2.69,4.75-3.2c3.14-1.73,7.15-2.68,11.34-2.68
	h0.16c3.91,0.15,7.09,1.58,9.92,3.27c1.38-1.71,3.279-5.23,4.96-12.43c0.59-2.98,2.489-4.83,4.96-4.83c3.46,0,4.9,3.55,5.439,4.88
	c2.701,6.64,0.711,20.54-5.56,26.76c0.5,1.78,0.761,3.61,0.761,5.47c0,9.49-6.701,17.75-15.951,19.74
	c-2.129,0.67-4.459,1.08-7.299,1.27c-0.091,0-0.181,0.01-0.271,0.01c-0.101,0-0.19-0.01-0.28-0.01l-0.13-0.01
	c-1.34-0.1-2.729-0.19-4.14-0.45l-0.26-0.06c-1.511,1.7-3.44,3.73-5.801,5.93c2.551,1.98,4.6,3.8,6.141,5.25
	c0.81-0.36,1.64-0.67,2.49-0.93l0.119-0.05c0.18-0.07,0.37-0.13,0.561-0.17c0.32-0.08,0.649-0.15,0.979-0.21
	c1.64-0.37,3.28-0.56,4.88-0.56c12.131,0,21.99,9.69,21.99,21.601c0,11.91-9.859,21.6-21.99,21.6c-3.89,0-7.619-1.01-10.89-2.84
	c-0.08,7.49-0.83,13.859-2.149,17.9c-7.131,21.709-39.44,26.43-40.811,26.619c-0.189,0.02-0.37,0.03-0.551,0.03
	c-1.279,0-2.489-0.61-3.25-1.66c-0.34-0.47-0.569-1-0.68-1.54c-9.129,5.62-21.479,8.57-36.54,8.63h-0.74L109.353,206.605z"/>
<path fill="#333333" d="M201.878,142.266c0.237,0.1,0.464,0.219,0.677,0.363c0.616,0.41,1.615,0.54,3.116,0.61
	c1.12-0.101,2.3-0.5,3.44-1.181l0.57-0.479c0.25-0.21,0.609-0.511,0.75-0.649c0.09-0.131,0.18-0.24,0.27-0.361
	c0.15-0.17,0.3-0.329,0.47-0.489c0.07-0.149,0.149-0.29,0.24-0.431l0.601-0.949c0.149-0.23,0.309-0.44,0.5-0.631l0.01-0.239
	c0-4.011-3.371-7.271-7.521-7.271c-1.601,0-3.149,0.5-4.44,1.42c-0.06,0.201-0.14,0.44-0.27,0.701
	c-0.05,0.119-0.12,0.279-0.21,0.459l-0.09,0.271c-0.12,0.39-0.229,0.72-0.33,1.01l-0.04,0.13c-0.01,0.09-0.02,0.19-0.04,0.311
	c-0.04,0.449-0.13,0.82-0.2,1.08v0.01c0.03,0.31,0.03,0.63,0.03,0.97v0.17c0.09,0.479,0.13,0.94,0.159,1.37l0.07,0.21
	c0.09,0.261,0.18,0.54,0.26,0.82c0.16,0.35,0.33,0.71,0.5,1.079c0.16,0.211,0.301,0.4,0.431,0.58c0.069,0.091,0.13,0.181,0.19,0.261
	c0.27,0.22,0.49,0.45,0.64,0.62l0.09,0.09c0.011,0,0.08,0.04,0.2,0.09L201.878,142.266z"/>
<path fill="#333333" d="M182.378,98.07c0.035-0.037,0.07-0.075,0.106-0.112l-0.482-0.695
	C182.128,97.531,182.252,97.799,182.378,98.07L182.378,98.07z"/>
<path fill="#333333" d="M203.729,80.14c-3.508,0-6.36,2.855-6.36,6.362c0,3.508,2.854,6.362,6.36,6.362
	c3.51,0,6.362-2.854,6.362-6.362c0-3.507-2.85-6.36-6.36-6.36L203.729,80.14z"/>
<path fill="#333333" d="M223.256,53.395c0.43,0,1.003,0.572,1.74,2.386c2.439,5.979-0.282,20.79-6.645,23.85
	c0.989,2.09,1.56,4.42,1.56,6.88c0,7.83-5.58,14.37-12.979,15.86c-2.15,0.71-4.361,1.01-6.541,1.16c-1.289-0.09-2.59-0.18-3.81-0.4
	c-0.79-0.23-1.569-0.45-2.34-0.7c-2.12,2.58-5.62,6.41-10.479,10.52l0.209,0.66c5.6,3.95,9.4,7.59,11.25,9.5
	c1.391-0.88,2.9-1.58,4.51-2.06l0.271-0.1c0.31-0.07,0.61-0.13,0.931-0.2c1.31-0.29,2.659-0.46,4.049-0.46
	c9.92,0,17.99,7.9,17.99,17.6c0,9.7-8.07,17.601-17.99,17.601c-6.33,0-11.899-3.22-15.109-8.08c0.66,11.62-0.189,21.19-1.73,25.899
	c-6.42,19.59-37.56,23.91-37.56,23.91c1.97-3.99,3.489-8.31,4.64-12.8c-10.64,16.29-33.33,18.181-45.11,18.229h-0.72
	c-13.01,0-33.35-1.779-43.81-16.279c1.26,3.73,2.74,7.38,4.5,10.85c0,0-31.17-3.649-37.78-23.18C26.07,155.62,29.79,62.5,94.61,62.5
	c3.945,0,8.12,0.347,12.527,1.075l5.19-0.03c4.633-0.81,9.003-1.19,13.13-1.19c29.54,0,46.45,19.59,55.51,42.536
	c2.4-2.01,4.745-4.26,6.77-6.72c-0.229-0.23-0.473-0.46-0.662-0.69c-0.237-0.3-0.338-0.46-0.49-0.68l-0.727-1.02l-0.594-0.85
	l-0.141-0.2l-0.109-0.27c0,0-0.171-0.47-0.49-1.33c-0.24-0.89-0.91-2.12-1.051-3.85c-0.109-0.86-0.279-1.82-0.32-2.87
	c0.078-1.04,0.219-2.16,0.371-3.36c0.26-1.16,0.693-2.38,1.109-3.65c0.547-1.21,1.295-2.42,2.051-3.64
	c0.996-1.12,1.783-2.26,3.119-3.38c1.32-1.09,2.914-2.3,3.881-2.63c2.709-1.55,6.203-2.29,9.629-2.29
	c3.48,0.14,6.345,1.59,9.33,3.52c0.32,0.26,0.606,0.53,0.881,0.81c2.64-1.33,6.117-5.35,8.744-16.65c0,0,0.31-1.66,1.043-1.66"/>
<path fill="#333333" d="M203.76,96.9c5.715,0,10.36-4.646,10.36-10.36c0-5.71-4.646-10.36-10.36-10.36S193.4,80.83,193.4,86.54
	c0,5.714,4.645,10.362,10.359,10.362"/>
<path fill="#333333" d="M195.475,134.376l0.185-0.5l-0.091,0.649c-0.01,0.429-0.35,1.029-0.209,1.83
	c0.039,0.391-0.01,0.82,0.029,1.301c0.1,0.47,0.141,0.979,0.18,1.55c0.131,0.54,0.361,1.09,0.511,1.72
	c0.28,0.59,0.56,1.215,0.86,1.86c0.449,0.479,0.899,1.319,1.369,1.69c0.49,0.369,0.65,0.909,2.041,1.5
	c1.569,1.049,3.439,1.209,5.389,1.299c1.971-0.109,3.971-0.819,5.771-1.969c0.79-0.711,1.761-1.391,2.22-2.101
	c0.301-0.351,0.73-0.601,1.051-1.38l0.6-0.95l0.5-0.44l0.33-0.069c0.18-0.8,0.29-1.63,0.29-2.49c0-6.212-5.16-11.27-11.521-11.27
	c-2.939,0-5.609,1.09-7.649,2.867c-0.11,0.203-0.229,0.405-0.341,0.582c-0.209,0.42-0.239,0.771-0.379,1.051
	c-0.07,0.14-0.121,0.279-0.19,0.379c-0.09,0.16-0.181,0.49-0.26,0.701c-0.15,0.47-0.28,0.859-0.39,1.189l-0.32,0.98"/>
<path fill="#333333" d="M188.139,131.695c0.33-0.851,0.711-1.67,1.16-2.45c-0.63-0.7-1.29-1.38-1.97-2.03c0.29,1.5,0.56,3,0.8,4.48"
	/>
<path fill="#333333" d="M223.249,45.405c-4.34,0-7.88,3.197-8.86,7.97c-0.869,3.75-1.779,6.29-2.56,8
	c-2.41-1.064-5.13-1.85-8.25-1.98l-0.32-0.003c-4.771,0-9.38,1.083-13.079,3.06c-1.551,0.68-3.221,1.8-5.511,3.69
	c-0.021,0.02-0.05,0.037-0.069,0.055c-1.5,1.26-2.49,2.46-3.301,3.42c-0.21,0.26-0.42,0.516-0.65,0.77
	c-0.31,0.347-0.59,0.72-0.83,1.114c-0.85,1.37-1.779,2.88-2.539,4.57c-0.11,0.25-0.211,0.51-0.301,0.77l-0.199,0.6
	c-0.23,0.68-0.471,1.41-0.7,2.19c-3.06-4.03-6.399-7.6-10.021-10.7c-11.289-9.68-24.959-14.59-40.649-14.59
	c-4.44,0-9.09,0.4-13.83,1.2l-3.88,0.02c-4.51-0.71-8.93-1.07-13.15-1.07c-21.37,0-39.34,9.3-51.97,26.91
	c-12.41,17.3-17.3,38.8-19.21,53.791c-2.08,16.33-1.57,32.97,1.29,41.399c8.14,24.05,42.95,28.39,44.43,28.57
	c0.31,0.03,0.62,0.05,0.93,0.05c1.59,0,3.12-0.48,4.42-1.34c3.02,1.5,6.31,2.76,9.87,3.76c7.18,2.02,15.37,3,25.03,3h0.77
	c14.06-0.06,25.93-2.56,35.26-7.34c1.439,1.22,3.27,1.9,5.18,1.9c0.36,0,0.73-0.021,1.1-0.07c1.471-0.2,36.17-5.27,44.061-29.33
	c1.07-3.27,1.8-7.87,2.141-13.28c2.279,0.64,4.67,0.97,7.1,0.97c14.33,0,25.99-11.479,25.99-25.6c0-14.11-11.66-25.6-25.99-25.6
	c-1.881,0-3.801,0.21-5.711,0.64c-0.35,0.07-0.699,0.14-1.039,0.22c-0.381,0.09-0.75,0.2-1.11,0.34l-0.3,0.1l-1.02-0.9
	c0.459-0.48,0.899-0.94,1.319-1.39c0.91,0.11,1.79,0.17,2.601,0.23l0.119,0.01c0.19,0.01,0.371,0.02,0.561,0.02
	c0.18,0,0.35-0.01,0.529-0.02c3.09-0.21,5.67-0.65,8.061-1.4c10.99-2.44,18.92-12.29,18.92-23.6c0-1.49-0.13-2.96-0.4-4.4
	c6.301-8.03,7.871-22.06,4.9-29.35c-2.48-6.08-6.34-7.36-9.15-7.36h-0.01L223.249,45.405z"/>
<path fill="#333333" d="M203.729,88.875c-1.299,0-2.359-1.06-2.359-2.36c0-1.3,1.061-2.36,2.359-2.36c1.311,0,2.371,1.06,2.371,2.36
	c0,1.306-1.061,2.366-2.361,2.366L203.729,88.875z"/>
<path fill="#333333" d="M203.709,134.814c0.359-0.129,0.779-0.213,1.26-0.213c1.61,0,2.98,1.02,3.391,2.39l-0.351,0.56l-0.1,0.17
	c-0.08,0.09-0.171,0.18-0.261,0.28c-0.08,0.09-0.149,0.181-0.22,0.271l-0.319,0.27l-0.311,0.26c-0.439,0.23-0.88,0.391-1.26,0.46
	c-0.551-0.03-0.85-0.06-1.02-0.09c-0.16-0.101-0.32-0.19-0.48-0.271l-0.07-0.06l-0.17-0.239l-0.21-0.44
	c-0.05-0.16-0.09-0.3-0.14-0.431c-0.03-0.279-0.061-0.569-0.1-0.859c0-0.141,0-0.311-0.011-0.5c0.05-0.25,0.101-0.53,0.13-0.85
	c0.07-0.211,0.141-0.44,0.221-0.69L203.709,134.814z"/>
<path fill="#D3BD8D" d="M152.654,144.008c0.037,10.334,1.58,18.694,8.82,18.663c7.246-0.03,17.49-2.01,17.412-18.78
	c-0.053-10.33-5.96-18.669-13.21-18.64c-7.241,0.04-13.073,8.431-13.022,18.771V144.008z"/>
<path fill="#C69C6D" d="M154.823,143.93c0.012-2.897,0.594-6.199,2.006-9.007c0.7-1.434,1.61-2.817,2.899-4.026
	c1.271-1.176,3.08-2.195,5.201-2.229c0.799,0.068,0.629,0,1.389,0.158c0.611,0.123,1.131,0.302,1.531,0.503
	c0.889,0.39,1.629,0.94,2.299,1.521c1.291,1.189,0.931,2.58,1.65,4c1.43,2.859,0.801,5.959,0.801,9.049v0.351
	c0,2.03-0.311,3.7-2.341,3.729c-2.021,0.03-3.05-1.59-3.09-3.609c0-0.15,0.319-0.311,0.34-0.46c0.21-2.04,0.19-4.261-0.479-6.13
	c-0.631-1.961-1.83-3.18-2.18-3.301c-0.23-0.109-0.771-0.09-1.49,0.4c-0.721,0.49-0.7,1.311-1.291,2.26
	c-1.229,1.98-1.489,4.2-1.489,6.881v0.1c0,1.189-1.92,2.061-3.11,1.939c-1.119-0.109-2.689-1.069-2.689-2.17L154.823,143.93z"/>
<path fill="#FFDDBB" d="M160.966,162.441c0.175,36.754-35.13,40.095-50.886,40.16c-17.93,0.09-51.082-2.936-51.25-39.689
	c-0.174-36.752-4.193-83.923,50.676-84.173c55.417-0.26,51.286,46.94,51.46,83.7V162.441z"/>
<path fill="#333333" d="M109.046,177.809c-0.215,0-0.438-0.035-0.652-0.101c-8.545-2.678-12.88-8.267-13.057-8.504
	c-0.37-0.485-0.52-1.104-0.416-1.696l4.58-26.092c0.21-1.189,1.38-1.982,2.53-1.773c1.19,0.207,1.99,1.334,1.77,2.524l-4.39,25.069
	c1.32,1.391,4.78,4.578,10.3,6.311c1.15,0.36,1.8,1.578,1.43,2.73c-0.29,0.936-1.15,1.529-2.08,1.529L109.046,177.809z"/>
<path fill="#333333" d="M107.888,80.925c0,0,4.373,45.434-14.43,50.586c0,0-8.707-2.68-28.268-2.579L78.932,85.4l30.572-6.662
	L107.888,80.925z"/>
<path fill="#333333" d="M107.714,81.65c0,0,12.48,35.8-4.127,48.911c0,0,37.851-0.535,54.479-7.13
	C158.066,123.428,144.066,72.238,107.714,81.65z"/>
<path fill="#333333" d="M85.162,163.38c-4.615,0-8.965-2.655-12.244-5.899c-3.305-3.266-5.13-8.942-5.146-13.59
	c-0.006-1.209,0.963-3.511,2.17-3.511h0.012c1.197,0,2.174,1.853,2.18,3.06c0.014,3.477,1.387,7.226,3.857,9.683
	c2.47,2.428,5.72,4.26,9.18,4.26h0.06c3.48,0,6.74-1.432,9.19-3.914c2.45-2.467,3.79-6.577,3.78-10.06
	c-0.01-1.202,0.96-3.026,2.17-3.026h0.01c1.21,0,2.18,1.785,2.19,2.985c0.03,4.645-1.76,10.294-5.03,13.587
	c-3.27,3.308-7.62,6.428-12.27,6.428h-0.08L85.162,163.38z"/>
<path fill="#333333" d="M137.313,163.38c-9.55,0-17.34-9.489-17.386-19.052c-0.008-1.205,0.963-3.947,2.168-3.947h0.012
	c1.2,0,2.174,1.74,2.182,2.939c0.03,7.19,5.699,13.431,13.08,13.361c3.47-0.021,6.74-1.19,9.189-3.671
	c2.44-2.47,3.78-5.649,3.76-9.13c-0.01-1.199,1.051-2.33,2.181-2.14c1.2,0,2.17,1,2.181,2.2c0.02,4.649-1.771,10.02-5.041,13.319
	c-3.27,3.3-7.619,6.15-12.27,6.15h-0.09L137.313,163.38z"/>
<path fill="#333333" d="M59.566,127.497c0,0-4.152,40.767,10.47,69.68c0,0-31.17-3.649-37.782-23.184
	c-6.61-19.53-2.016-123.145,74.83-110.457l5.193-0.027c76.728-13.4,82.27,90.17,75.84,109.761
	c-6.426,19.59-37.559,23.899-37.559,23.899c14.351-29.05,4.601-75.91,4.601-75.91L123.83,81.7l-30.427,1.52L59.561,127.49
	L59.566,127.497z"/>
<path fill="#FF7BAC" d="M48.404,122.345c0,0-0.023-0.644-0.082-1.836c-0.043-1.17-0.037-3.48,0.256-5.87
	c0.63-4.93,2.307-12.19,7.068-19.45c4.648-7.23,11.98-14.5,21.428-19.42c9.402-4.96,20.61-7.74,31.836-7.91
	c1.64,0.05,2.486,0.01,4.11,0.13c1.487,0.08,2.93,0.19,4.29,0.36c2.785,0.31,5.54,0.79,8.244,1.43c5.42,1.23,10.555,3.24,15.28,5.65
	c9.448,4.9,16.98,11.95,21.632,19.23c4.775,7.24,6.54,14.46,7.214,19.39c0.319,2.48,0.319,4.46,0.299,5.79l-0.069,2.04
	c-0.08,2.55-2.25,4.55-4.8,4.47c-2.41-0.08-4.51-1.98-4.51-4.33v-0.11c0,0-0.111-2.28-1.011-6.08c-0.899-3.78-2.97-9.01-7.03-14.29
	c-4.029-5.27-10.17-10.41-17.81-14.03c-3.819-1.82-8-3.2-12.35-4.17c-2.18-0.5-4.4-0.86-6.65-1.08c-1.15-0.13-2.25-0.21-3.3-0.25
	c-0.91-0.07-2.61-0.05-3.51-0.07c-9.12-0.07-18.22,1.99-25.78,5.77c-7.55,3.77-13.78,8.83-17.69,14.23
	c-3.96,5.33-6.03,10.56-6.89,14.35c-0.41,1.99-0.68,3.19-0.81,4.4c-0.12,1.19-0.18,1.83-0.18,1.83c-0.25,2.54-2.52,4.4-5.07,4.15
	c-2.32-0.23-4.07-2.14-4.17-4.39L48.404,122.345z"/>
<path fill="#333333" d="M73.36,165.023c-0.61,0-1.222-0.252-1.655-0.762c-0.783-0.91-0.68-2.287,0.236-3.074l4.6-3.957
	c0.91-0.775,2.29-0.69,3.08,0.233c0.79,0.906,0.68,2.287-0.23,3.07l-4.6,3.96c-0.41,0.357-0.91,0.529-1.42,0.529H73.36z
	 M121.15,160.454c-0.61,0-1.217-0.255-1.65-0.752c-0.785-0.914-0.68-2.286,0.227-3.077l4.594-3.965c0.92-0.786,2.3-0.69,3.09,0.224
	c0.79,0.915,0.68,2.293-0.22,3.082l-4.6,3.964c-0.41,0.351-0.92,0.525-1.43,0.525L121.15,160.454z M68.798,160.454
	c-0.613,0-1.22-0.255-1.652-0.752c-0.785-0.914-0.684-2.286,0.225-3.077l4.6-3.965c0.91-0.786,2.29-0.69,3.08,0.224
	c0.79,0.915,0.68,2.293-0.23,3.082l-4.59,3.964c-0.42,0.351-0.92,0.525-1.42,0.525L68.798,160.454z M125.515,164.787
	c-0.613,0-1.22-0.258-1.654-0.758c-0.78-0.92-0.68-2.29,0.23-3.08l4.601-3.96c0.92-0.78,2.289-0.69,3.08,0.229
	c0.789,0.91,0.68,2.28-0.23,3.07l-4.59,3.96c-0.42,0.351-0.92,0.521-1.43,0.521L125.515,164.787z"/>
<path fill="#F48B73" d="M114.69,187.607c0.028,5.52-3.76,10.004-8.433,10.026c-4.69,0.015-8.51-4.43-8.53-9.948
	c-0.032-5.506,3.75-9.994,8.427-10.02c4.687-0.02,8.512,4.432,8.535,9.939L114.69,187.607z"/>
<path fill="#333333" d="M105.95,191.84c-1.222,0-2.42-0.117-3.6-0.352c-9.58-1.887-14.005-10.748-14.185-11.131
	c-0.53-1.08-0.08-2.379,0.996-2.909c1.08-0.524,2.4-0.091,2.93,0.995c0.04,0.074,3.71,7.33,11.15,8.77
	c6.17,1.193,13.31-1.775,21.25-8.843c0.9-0.793,2.28-0.724,3.08,0.182c0.8,0.897,0.72,2.28-0.18,3.082
	c-7.61,6.783-14.8,10.206-21.42,10.206H105.95z"/>
<path fill="#999999" d="M203.25,67.375c-3.423,0-6.915,0.743-9.628,2.298c-0.965,0.333-2.558,1.543-3.88,2.633
	c-1.335,1.122-2.122,2.26-3.12,3.382c-0.754,1.22-1.502,2.43-2.05,3.646c-0.415,1.262-0.85,2.48-1.108,3.65
	c-0.151,1.194-0.293,2.32-0.366,3.36c0.036,1.048,0.209,2.007,0.323,2.866c0.149,1.738,0.81,2.97,1.06,3.854
	c0.32,0.865,0.49,1.335,0.49,1.335l0.11,0.27l0.149,0.2l0.601,0.85l0.729,1.01c0.16,0.22,0.26,0.38,0.49,0.68
	c0.19,0.23,0.43,0.46,0.67,0.69c-8.77,10.67-23.41,17.36-23.41,17.36s-0.17,0.14-0.449,0.36l-46.71,14.791
	c-0.02,0.01,0.01,0.209,0.07,0.42c1.77,5.56,11.39,7.49,29.32,1.82c10.609-3.36,21.71-8.61,28.66-13.511
	c9.51-6.27,15.88-13.05,19.1-16.96c0.77,0.24,1.54,0.47,2.34,0.7c1.221,0.22,2.521,0.31,3.811,0.4c2.65-0.18,5.359-0.57,7.93-1.67
	c0.7-0.32,1.18-0.46,2.061-0.92c0.539-0.33,1.1-0.66,1.649-1c1.07-0.62,2.41-1.81,3.49-2.82c2.18-2.12,2.62-4.36,3.64-7.54
	c0.87-3.25-0.05-6.5-1.66-9.61l-1.14-2.22c-0.29-0.56,0.271-1.99-0.34-2.76c-1.19-1.67-2.04-2.97-3.42-4.1
	c-2.99-1.92-5.851-3.38-9.33-3.52L203.25,67.375z M210.3,75.121c0.996,0.78,2.099,1.5,2.785,2.44c0.824,0.64,1.599,2.37,2.179,3.26
	c0.934,2.4,1.325,4.98,0.957,7.5c-0.511,2.47-1.584,4.78-3.181,6.59c-0.383,0.45-0.84,0.75-1.229,1.14
	c-0.386,0.38-0.787,0.77-1.418,1.07c-0.563,0.34-1.131,0.65-1.677,0.98c-0.252,0.12-0.995,0.33-1.45,0.48
	c-2.082,0.78-4.222,0.69-6.121,0.51c-0.92-0.26-1.82-0.47-2.646-0.76c-0.768-0.41-1.553-0.73-2.21-1.13
	c-0.624-0.47-1.204-0.92-1.743-1.32c-0.473-0.44-0.811-0.91-1.172-1.28c-0.76-0.65-1.17-1.79-1.533-2.29l-0.455-0.8
	c-0.027-0.06-0.104-0.32-0.27-0.83c-0.129-0.57-0.622-1.37-0.65-2.49c-0.044-0.56-0.177-1.17-0.197-1.85
	c0.057-0.67,0.109-1.4,0.166-2.18c0.14-0.76,0.42-1.55,0.629-2.4c0.324-0.81,0.774-1.62,1.192-2.479
	c0.627-0.71,1.144-1.65,1.88-2.29c0.74-0.62,1.338-1.37,2.547-1.94c1.869-1.27,4.229-1.73,6.6-1.89c2.41,0.02,4.84,0.75,7.02,2.02
	L210.3,75.121z"/>
<path fill="#0071BC" d="M175.104,111.457c1.188,0.222,1.953,1.37,1.725,2.55c-0.23,1.184-1.38,1.96-2.561,1.727
	c-1.183-0.23-1.947-1.378-1.713-2.56C172.779,112,173.924,111.224,175.104,111.457L175.104,111.457z"/>
<path fill="#B3B3B3" d="M171.191,114.704l-3.444-0.975c-2.113,1.14-3.468,1.76-3.468,1.76l-0.456,0.36l-46.716,14.78
	c-0.02,0.01,0.006,0.21,0.068,0.41c0.39,1.2,1.16,2.23,2.285,3.05c8.816-2.229,30.728-8.43,51.731-19.41V114.704z"/>
<path fill="#999999" d="M196.8,122.238c-0.508,0.324-1.008,0.633-1.489,0.948c-3.666-3.83-15.59-15.026-34.438-21.31
	c-5.703-2.043-12.024-3.805-18.13-4.996c-18.444-3.61-27.94,0.16-29.067,5.89c-0.04,0.208-0.238,1.395-0.213,1.4l49.994,9.77
	c4.426,0.87,18.367,6.467,26.43,15.937c-0.29,0.6-0.36,0.706-0.573,1.1c-0.265,0.613-0.371,0.76-0.371,0.76l-0.045,0.053
	l-0.232,1.08c-0.1,0.74-0.54,1.77-0.45,3.189c0.007,0.7-0.042,1.471,0.034,2.311c0.16,0.83,0.326,1.73,0.512,2.689
	c0.285,0.92,0.721,1.881,1.127,2.9c0.512,0.96,1.18,1.91,1.852,2.91c0.861,0.84,1.591,1.85,2.701,2.63
	c1.109,0.78,2.33,1.67,3.43,2.04c2.439,1.24,5.47,1.561,8.439,1.37c3.01-0.351,5.95-1.601,8.48-3.5
	c1.141-1.101,2.35-2.11,3.24-3.601c1.13-1.51,1.35-2.56,2.109-4.209c0.87-3.101,0.971-6.4,0.131-9.471
	c-0.971-3.02-2.641-5.73-4.9-7.76c-0.551-0.53-1.25-0.94-1.881-1.39c-0.659-0.46-1.299-0.87-1.889-1.08
	c-0.591-0.25-1.181-0.51-1.771-0.76c-0.94-0.34-1.44-0.35-2.17-0.54c-2.71-0.65-5.38-0.26-7.71,0.27
	c-1.12,0.43-2.211,0.82-3.19,1.32L196.8,122.238z M210.34,124.958c0.665,0.208,1.122,0.542,1.542,0.9
	c0.425,0.36,0.91,0.618,1.33,1.036c1.627,1.786,3.79,4.242,4.185,6.608c0.232,2.324,0.224,4.697,0.224,6.83v0.02l-1.104-0.082
	l-0.649,0.14l-0.505,0.44l-0.6,0.939c-0.313,0.77-0.742,1.029-1.044,1.38c-0.46,0.71-1.438,1.39-2.22,2.101
	c-1.807,1.14-3.805,1.85-5.78,1.959c-1.952-0.08-3.819-0.25-5.392-1.299c-1.385-0.591-1.551-1.131-2.04-1.5
	c-0.472-0.381-0.912-1.221-1.365-1.701c-0.29-0.649-0.58-1.279-0.86-1.859c-0.14-0.63-0.379-1.18-0.51-1.721
	c-0.029-0.569-0.07-1.08-0.17-1.549c-0.04-0.48,0.01-0.91-0.029-1.311c-0.141-0.8,0.199-1.4,0.209-1.83
	c0.07-0.43,0.09-0.65,0.09-0.65l-0.18,0.5c0,0,0.11-0.35,0.32-0.99c0.109-0.329,0.24-0.719,0.391-1.189
	c0.08-0.22,0.17-0.54,0.26-0.71c0.08-0.101,0.129-0.239,0.189-0.38c0.141-0.28,0.18-0.62,0.381-1.05
	c0.279-0.45,0.559-0.98,0.879-1.58c0.391-0.52,0.881-1.02,1.4-1.64c0.58-0.53,1.26-0.99,2-1.55c1.55-0.81,3.6-1.62,5.77-1.229
	c0.48,0.07,1.26,0.13,1.53,0.19c0.591,0.25,1.19,0.48,1.79,0.73L210.34,124.958z"/>
<path fill="#4D4D4D" d="M176.41,111.29c1.281,0.25,2.14,1.5,1.884,2.797c-0.254,1.292-1.51,2.137-2.793,1.885
	c-1.3-0.258-2.14-1.508-1.89-2.8c0.26-1.3,1.51-2.136,2.81-1.88L176.41,111.29z"/>
<path fill="#999999" d="M203.729,102.685c-8.918,0-16.179-7.26-16.179-16.183c0-8.918,7.261-16.18,16.179-16.18
	c8.92,0,16.18,7.262,16.18,16.18C219.908,95.424,212.648,102.685,203.729,102.685z M203.729,76.141c-5.715,0-10.36,4.66-10.36,10.37
	c0,5.72,4.646,10.36,10.36,10.36c5.713,0,10.362-4.64,10.362-10.36c0-5.71-4.64-10.36-10.36-10.36L203.729,76.141z M204.962,155.461
	c-9.918,0-17.994-7.891-17.994-17.6c0-9.71,8.076-17.601,17.994-17.601s17.99,7.9,17.99,17.601
	C222.952,147.57,214.88,155.461,204.962,155.461z M204.962,126.591c-6.356,0-11.521,5.06-11.521,11.271
	c0,6.209,5.164,11.27,11.521,11.27c6.36,0,11.521-5.05,11.521-11.27C216.482,131.641,211.322,126.591,204.962,126.591z
	 M209.607,72.031c0,0,7.756,3.88,12.603-16.97c0,0,0.79-4.18,2.787,0.73c2.545,6.24-0.53,22.12-7.504,24.19"/>
<path fill="#333333" d="M103.587,130.561c0,0,28.7,5.572,54.149-3.878l-2.184-12.36L103.587,130.561z"/>
</svg>
