<svg xmlns="http://www.w3.org/2000/svg" width="256" height="256" viewBox="0 0 256 256"><path fill="#999" d="M85.895 209.38l.122-4.117c.22-7.425.31-13.14.31-19.72 0-21.675 3.097-38.512 9.208-50.065 2.65-20.052 14.825-32.96 31.178-32.96.997 0 1.968.048 2.907.145V48.38h25v65h-3.855c.054.707.1 1.38.134 1.984 3.52 4.757 5.87 10.26 7.15 16.763 7.55 11.75 11.37 29.666 11.37 53.27 0 5.78.21 11.226.51 18.764l.2 5.23H85.89z"/><path fill="#333" d="M150.62 52.38v57h-4.313c.317 2 .538 4.885.662 7.437 3.45 4.343 6.01 9.735 7.3 16.837 6.89 10.29 11.16 27.036 11.16 51.743 0 6.133.24 11.984.55 19.984H90.01c.237-8 .31-13.7.31-19.83 0-22.27 3.356-38.39 9.086-48.82 2.334-19.62 13.525-30.2 27.3-30.2 2.566 0 4.908.38 6.908 1.1V52.38h17m8-8h-33v54.154c-17.745.545-30.894 14.386-33.954 35.712-6.2 12.11-9.34 29.356-9.34 51.297 0 6.54-.09 12.22-.307 19.602l-.243 8.236h92.53l-.324-8.31-.042-1.06c-.293-7.49-.505-12.9-.505-18.61 0-23.96-3.91-42.38-11.61-54.78-1.03-4.89-2.64-9.27-4.87-13.23h1.65V44.38z"/><path fill="#fdb" d="M165.985 204.38c-.313-8-.553-13.35-.553-19.483 0-48.99-16.78-65.73-37.49-65.73-20.705 0-37.492 16.887-37.492 65.877 0 6.138-.2 11.338-.436 19.338h75.97z"/><path fill="#C1272D" d="M155.208 144.33c0 24.492-12.533 44.356-27.996 44.356-15.465 0-27.996-19.864-27.996-44.357 0-24.5 12.53-37.82 27.996-37.82 15.463 0 27.996 13.31 27.996 37.81z"/><path fill="#EF8990" d="M127.212 112.334c15.037 0 27.21 12.685 27.87 35.914.075-1.297.126-2.596.126-3.92 0-24.494-12.533-37.81-27.996-37.81-15.465 0-27.996 13.315-27.996 37.81 0 1.324.053 2.623.127 3.92.658-23.23 12.832-35.914 27.87-35.914z"/><path fill="#333" d="M137.026 105.06s-4.36 39.27-19.63 43.63l22.54 14.546s10.906-26.908 5.816-58.903"/><path fill="#B3B3B3" d="M134.62 51.38h17v57h-17z"/><path fill="#C1272D" d="M123.558 157.793s.586-.603 1.393-1.702c.88-1.04 1.98-2.7 3.27-4.71.71-.96 1.23-2.17 1.9-3.36.61-1.22 1.44-2.41 1.93-3.82l1.76-4.23c.68-1.41 1.03-2.97 1.47-4.48.43-1.52.87-3.04 1.29-4.53.38-1.51.49-3.05.73-4.5.22-1.45.42-2.86.62-4.2.28-1.31.13-2.61.18-3.79.03-4.69.03-7.82.03-7.82l5.82-.18-.64 8.42c-.13 1.26-.09 2.63-.48 4.04-.31 1.42-.63 2.9-.98 4.45-.37 1.52-.61 3.14-1.13 4.71-.56 1.55-1.13 3.13-1.7 4.7-.58 1.57-1.07 3.16-1.88 4.61-.74 1.47-1.46 2.91-2.16 4.31-.63 1.43-1.58 2.63-2.3 3.85-.8 1.2-1.42 2.39-2.22 3.36-1.5 1.99-2.77 3.63-3.8 4.7-.97 1.13-1.57 1.65-1.57 1.65l-1.49-1.43z"/><path fill="none" stroke="#333" stroke-width="3" stroke-miterlimit="10" d="M145.753 104.332c5.09 31.995-5.816 58.903-5.816 58.903l-22.54-14.545c15.27-4.36 19.63-43.63 19.63-43.63l8.726-.728z"/><path fill="#B3B3B3" d="M133.62 51.38h18v58h-18z"/><path fill="#999" d="M151.62 57.87l-.376.653c-.326 30.015-11.625 43.79-17.625 49.01v1.848h18V57.87z"/></svg>