<svg xmlns="http://www.w3.org/2000/svg" width="256" height="256" viewBox="0 0 256 256"><path fill="#fff" d="M128.042 222.454c-42.55 0-77.168-28.55-77.168-63.646 0-.682.017-1.38.05-2.123-2-1.764-3.845-3.768-5.7-6.187-.785-1.044-1.53-2.118-2.233-3.22-2.67-.957-4.88-2.94-6.11-5.56 0-.003-.1-.227-.12-.26 0-.008-.39-.923-1.1-2.513l-.09-.24c-.06-.165-.14-.338-.21-.52-.33-.762-.77-1.794-.98-3.11l-.15-.75c-.21-1.028-.46-2.192-.6-3.486-.01-.12-.02-.24-.02-.36l-.02-.89c-.03-1.22-.07-2.6.03-4.04.01-.12.02-.24.04-.36.06-.42.12-.84.18-1.28.16-1.21.34-2.58.71-3.95.13-.42.23-.8.33-1.17.34-1.24.72-2.64 1.3-4 .71-1.88 1.41-3.47 2.15-4.87.41-.82.92-1.76 1.55-2.88l.57-.99c-.09-.3-.14-.61-.16-.93L39.81 96c-.13-.17-.46-.62-.46-.62-1.48-2.03-2.7-4.08-3.614-6.08-.916-2.01-1.546-3.98-1.894-5.9-.335-1.884-.415-3.72-.243-5.495v-.06c.17-1.66.55-3.29 1.15-4.86.44-1.155.96-2.21 1.56-3.225l.05-.095c.15-.242.34-.54.53-.833l.08-.112c.19-.276.39-.563.6-.844l.01-.016c.42-.565.87-1.128 1.35-1.673.26-.3.47-.526.68-.75l2.98 2.67-2.88-2.776c.21-.22.43-.44.65-.66.51-.5 1-.94 1.49-1.36l.72-.59s.03-.02.05-.04c-.29-1.44-.61-3.09-.99-5.08l-.6-3.15c-.43-1.99-.73-4.12-1.05-6.37-.16-1.12-.32-2.27-.51-3.44l-.01-.1c-.15-1.15-.33-2.33-.52-3.52-.37-2.41-.75-4.9-.96-7.53-.05-.5-.1-1.13-.15-1.76-.09-1.05-.19-2.24-.27-2.77-.17-1.15.17-2.32.93-3.2.76-.88 1.86-1.39 3.03-1.39h18.12c2.11 0 3.86 1.64 3.99 3.75.06 1 .12 2.02.19 2.99.11 2.22.39 4.4.65 6.51.15 1.23.3 2.44.42 3.62.14 1.13.27 2.24.39 3.33.22 2 .43 3.89.75 5.58l.76 4.7-3.92.8 3.94-.65.09.58c.6.01 1.2.03 1.78.06h.04c1.64.09 3.22.28 4.71.56l.23.05c1.38.27 2.71.63 3.95 1.05l.52.18c.52.19 1.01.38 1.48.59.3.13.59.25.87.38.28.14.56.28.83.43.25.13.5.27.75.41l.15.09c.19.1.37.21.55.32.41.25.81.52 1.2.79.19.14.38.28.58.43.2.16.41.31.61.48l.18.09c1.24.63 2.02 1.64 2.57 2.54 1.12 1.26 2.1 2.63 2.93 4.1 1.27 1.71 2.76 3.72 3.99 5.4l1.33 1.83.49.69.36.53c1.59 2.34 3.27 4.52 5 6.47 3.64 4.14 7.44 7.17 10.99 8.78.11.04.22.09.29.12l.11.06c1.82.87 3.37 2.17 4.54 3.77 3.36-.37 6.73-.55 10.04-.55 4.52 0 9.07.33 13.57.99 1.2-1.8 2.88-3.26 4.86-4.21.05-.03.22-.1.36-.16 3.56-1.61 7.37-4.64 11.02-8.79 1.71-1.93 3.39-4.1 5.01-6.48l.35-.51 3.33 2.21-3.25-2.32 1.23-1.71 1.49-2.04c1.01-1.37 2.07-2.8 3-4.06.83-1.47 1.82-2.84 2.93-4.1.53-.86 1.34-1.91 2.57-2.53l.16-.08.03-.01c.21-.17.42-.33.63-.49.2-.16.35-.26.49-.37.4-.28.8-.54 1.22-.8.2-.12.41-.24.61-.36.32-.19.64-.36.97-.53.31-.16.63-.32.97-.48.31-.15.62-.28.94-.42.27-.11.55-.23.83-.33.4-.15.8-.29 1.2-.43.38-.12.78-.24 1.18-.35.25-.07.5-.14.75-.2.6-.15 1.22-.29 1.85-.41 0 0 .5-.1.68-.13.41-.07.83-.13 1.25-.19.15-.02.62-.07.62-.07.73-.09 1.49-.15 2.27-.2l.28-.02.48-2.9.43-2.71.42-2.76c.1-.66.19-1.34.29-2.04.65-4.72 1.35-10.83 1.96-17.19.2-2.05 1.92-3.62 3.98-3.62H217c1.145 0 2.24.49 3 1.35.76.86 1.11 2 .97 3.14-.94 7.53-1.96 14.71-2.9 20.2-.13.76-.47 2.64-.47 2.64l-.47 2.59-.36 1.95-.4 2.08-.65 3.24c.47.34.93.69 1.4 1.05.3.24.54.44.78.65.6.51 1.12.98 1.62 1.46l.07.08c.24.24.47.48.71.73l.08.09c.48.5.98 1.08 1.44 1.67l.07.09c.224.29.45.59.674.9.47.66.9 1.35 1.3 2.05.02.03.03.07.05.1.61 1.11 1.12 2.28 1.51 3.47l.04.12c.39 1.23.67 2.58.8 3.93.14 1.47.11 2.96-.08 4.44v.02c-.2 1.53-.58 3.1-1.14 4.66l-.01.03c-.37 1.05-.83 2.12-1.37 3.18l-.03.07c-.27.53-.56 1.08-.88 1.63l-.034.06c-.63 1.07-1.35 2.17-2.14 3.27-.02.02-.37.5-.53.71l-.48 9.13c-.02.32-.07.63-.16.93l.57.98c.64 1.12 1.14 2.06 1.6 2.97.69 1.31 1.38 2.85 2.11 4.77.57 1.34.95 2.73 1.28 3.96.103.38.21.77.32 1.14.39 1.42.57 2.79.73 3.99.06.44.11.88.18 1.3.02.12.03.25.04.38.09 1.47.05 2.89.017 4.14l-.02.76c0 .11-.01.23-.02.35-.14 1.3-.38 2.47-.6 3.5l-.15.73c-.21 1.3-.65 2.33-.976 3.08-.08.19-.16.36-.22.53-.03.09-.07.17-.11.26l-1.11 2.54c-1.71 3.9-5.57 6.43-9.83 6.44-.67 1.11-1.38 2.19-2.11 3.23-1.94 2.69-3.87 4.89-6.01 6.82 0 .29.01.57.01.84 0 35.1-34.62 63.66-77.16 63.66zm41.705-117.19c2.573 1.362 5.042 2.85 7.398 4.454-.717-1.048-1.37-1.938-1.886-2.617-1.23-1.64-2.24-2.85-2.87-3.58l-.37-.42c-.14.14-.63.61-.63.61-.35.34-.71.69-1.08 1.04-.19.18-.39.36-.58.53zm-82.244-1.726c-.397.462-.95 1.123-1.598 1.94.955-.513 1.925-1.01 2.91-1.487-.087-.08-.785-.76-.92-.89l-.392.45z"/><path fill="#333" d="M217.07 28.38c-.868 7-1.888 14.244-2.87 20.023-.128.747-.256 1.473-.382 2.185l-.15.838-.23 1.274-.162.875c-.07.387-.142.763-.212 1.135l-.15.804c-.087.45-.17.884-.254 1.312l-.146.747c-.09.458-.178.905-.264 1.333l-.117.58-.2.988-.102.493c-.07.363-.14.707-.21 1.036l-.05.24-.25 1.18c.63.377 1.3.81 1.99 1.293l.03.02c.46.32.92.662 1.38 1.028l.05.04c.22.17.43.347.65.528l.05.042c.46.387.91.796 1.35 1.23l.07.06c.21.206.42.416.62.63l.03.036c.44.46.86.944 1.26 1.45.02.02.04.043.05.064.2.25.39.503.57.763.01 0 .01.002.01.003.38.537.74 1.098 1.07 1.683l.03.06c.49.88.9 1.81 1.22 2.797l.02.044c.32.995.55 2.046.65 3.152l.01.03c.11 1.113.09 2.282-.07 3.51v.014c-.16 1.232-.47 2.52-.95 3.868v.006c-.32.898-.72 1.823-1.2 2.772v.01c-.24.47-.5.95-.78 1.434V90c-.56.968-1.2 1.96-1.94 2.98l-.05.075c-.35.493-.73.99-1.14 1.495 0 .008-.01.017-.01.025l-.54 10.383-.94 1.003c.53.82 1.04 1.67 1.55 2.54.11.19.21.38.32.57.52.9 1.02 1.82 1.49 2.77.75 1.43 1.4 2.95 1.98 4.5.65 1.49 1.02 3.17 1.47 4.71.43 1.57.56 3.27.8 4.79.1 1.59.03 3.16 0 4.58-.16 1.44-.48 2.79-.71 3.96-.18 1.2-.73 2.15-1.03 2.97l-1.12 2.54c-1.11 2.54-3.59 4.05-6.19 4.05-.71 0-1.43-.11-2.13-.35-.95 1.82-2.02 3.58-3.22 5.26-1.81 2.52-3.85 4.92-6.55 7.13l-.22.18-.06.05c.05.87.08 1.75.08 2.64 0 32.94-32.75 59.64-73.16 59.64s-73.17-26.7-73.17-59.65c0-1.31.07-2.6.18-3.89-2.7-2.12-4.79-4.42-6.65-6.84-1.03-1.37-1.97-2.78-2.84-4.24-2.14-.34-4.07-1.7-5.06-3.81-.02-.04-.05-.1-.07-.15 0 0-.4-.92-1.11-2.53-.3-.81-.84-1.76-1.02-2.96-.23-1.18-.56-2.52-.71-3.96-.03-1.42-.11-3-.01-4.58.24-1.52.37-3.22.79-4.79.45-1.55.82-3.23 1.48-4.71.58-1.55 1.22-3.07 1.98-4.5.48-.95.98-1.87 1.49-2.77l.33-.57c.5-.87 1.02-1.71 1.54-2.53l-.94-1-.54-10.38v-.01c-.37-.47-.73-.94-1.07-1.4l-.06-.09c-1.37-1.89-2.44-3.69-3.22-5.41l-.02-.04c-.78-1.72-1.29-3.35-1.57-4.9l-.01-.03c-.27-1.54-.32-3-.19-4.37 0-.02 0-.03.01-.04.14-1.36.46-2.64.91-3.83l.03-.06c.34-.89.76-1.73 1.23-2.53l.02-.03c.15-.25.3-.49.46-.73l.05-.09c.16-.24.33-.48.5-.71l.01-.01c.37-.49.75-.95 1.14-1.4l.05-.05c.18-.2.36-.39.54-.59l.08-.09.57-.57.03-.03c.42-.41.84-.79 1.27-1.15l.05-.04c.19-.16.39-.32.58-.47l.08-.06c.2-.16.41-.32.61-.47l.01-.01c.43-.33.86-.63 1.29-.92-.48-2.22-.98-4.74-1.51-7.53l-.08-.42-.52-2.72c-.64-2.98-.98-6.25-1.53-9.69-.45-3.44-1.15-7.08-1.46-10.85-.14-1.57-.29-3.8-.44-4.8h18.1c.06 1 .13 2.03.19 3 .19 3.59.76 7.05 1.09 10.32.42 3.26.65 6.38 1.18 9.19l.38 2.35.03.17.34 2.09.02.15c.11.69.23 1.36.34 2.01l.01.05c.11.67.23 1.32.34 1.94h.01c.95-.06 1.87-.08 2.76-.08.74 0 1.47.02 2.17.06h.02c1.49.08 2.89.25 4.19.5l.21.04c1.22.24 2.36.54 3.42.9l.46.16c.43.16.84.32 1.25.5.25.1.5.21.74.32.24.12.46.23.69.35.22.11.43.23.64.34.19.11.39.22.58.34.35.21.68.44 1 .66l.48.35c.22.17.44.35.66.52.13.11.26.21.39.32.11.01.22.04.34.09l.01.01c.35.17.7.59 1.12 1.34h.01l.01.01c1.12 1.22 2.04 2.52 2.79 3.87l.01.03c1.29 1.73 2.84 3.83 4.11 5.57l.11.15.57.79.04.04.49.68.07.1c.16.21.3.41.42.59.02.03.04.06.07.09l.33.48c1.64 2.42 3.42 4.75 5.31 6.88 3.76 4.27 8.05 7.86 12.45 9.83.06.02.15.06.2.08 1.97.95 3.38 2.58 4.11 4.46 3.98-.54 8.06-.84 12.22-.84 5.45 0 10.74.5 15.85 1.42.65-2.13 2.14-3.99 4.31-5.03.05-.02.14-.06.2-.08 4.41-1.97 8.69-5.56 12.46-9.83 1.89-2.13 3.67-4.45 5.32-6.88l.32-.46.08-.12.39-.55.15-.2.34-.48.29-.4.31-.43.32-.43.08-.11.78-1.06c.01-.01.02-.02.02-.03 1.04-1.42 2.15-2.92 3.12-4.22.74-1.36 1.67-2.67 2.81-3.9.42-.75.78-1.17 1.13-1.35l.02-.01c.11-.05.23-.08.34-.09.11-.1.23-.19.35-.29.23-.19.47-.38.72-.56.14-.1.27-.21.41-.31.33-.23.66-.45 1.01-.66l.51-.3c.26-.15.53-.3.8-.44s.54-.27.82-.4c.26-.12.53-.24.8-.35.24-.1.48-.19.72-.29.33-.12.68-.24 1.02-.35.33-.11.67-.21 1.02-.31.21-.06.43-.12.65-.17.52-.13 1.06-.25 1.62-.36.2-.04.39-.07.59-.11.36-.06.73-.11 1.11-.17l.55-.06c.66-.07 1.33-.13 2.03-.17l.61-.03c.54-.02 1.09-.03 1.65-.03.37 0 .74.01 1.12.02h.06v-.01c.06-.31.12-.66.18-1.02l.04-.22.19-1.1.04-.22.23-1.38.1-.59c.05-.31.1-.61.15-.93l.12-.77.15-.9.13-.83.15-1c.04-.28.09-.55.13-.84l.18-1.19.11-.77c.1-.67.2-1.35.29-2.06.7-5.07 1.41-11.36 1.98-17.36h18.06M171.82 98.2l-.53-.04c-.28.3-.57.6-.86.91-.31.328-.61.65-.93.98-.29.29-.59.58-.882.87-.34.33-.67.65-1.02.978-.3.28-.6.552-.91.83-.36.33-.72.65-1.1.962-.3.26-.62.52-.93.77-.397.32-.8.63-1.2.94-.31.24-.63.476-.95.71-.05.034-.096.07-.14.11 7.85 3.4 14.83 7.933 20.65 13.33 1.04-.55 2.1-1.04 3.19-1.49-.13-.324-.25-.645-.4-.967-1.96-4.625-4.92-9.144-7.347-12.34-1.2-1.606-2.27-2.9-3.02-3.78l-1.14-1.36-.19-.2c-.2-.23-.36-.47-.51-.72-.13-.22-.24-.44-.34-.67h-.02c-.22 0-.44.01-.66.034-.23.025-.47.06-.71.11M73.9 118.77c6.27-5.62 13.84-10.27 22.33-13.62-.31-.24-.615-.48-.92-.73-.32-.26-.634-.52-.95-.785-.363-.31-.724-.63-1.08-.95-.31-.28-.62-.555-.923-.84-.34-.315-.67-.64-1-.96-.3-.294-.605-.586-.9-.884-.31-.31-.61-.64-.92-.96-.29-.31-.59-.61-.875-.92l-.53.04c-.24-.05-.472-.08-.704-.11-.23-.02-.457-.03-.68-.04-.1.23-.21.46-.35.68-.146.24-.31.48-.5.69l-.2.23-1.17 1.33c-.754.88-1.824 2.18-3.02 3.78-2.437 3.2-5.396 7.72-7.357 12.34-.24.51-.44 1.02-.63 1.52l.36.2m-19.55-4.69c.67-.05 1.33-.07 1.98-.07 1.36 0 2.68.11 3.96.28-.05-.11-.09-.23-.15-.34-.03-.07-.07-.14-.11-.22-.08-.16-.17-.32-.26-.48-.04-.07-.09-.15-.13-.22-.09-.15-.19-.29-.29-.43-.04-.06-.09-.12-.13-.18-.12-.16-.24-.31-.37-.45l-.07-.08c-.49-.55-1.04-.99-1.61-1.35l-.02-.02c-.19-.12-.38-.23-.57-.33-.32.52-.64 1.05-.95 1.58l-.04.08c-.28.49-.55.99-.82 1.49l-.12.23c-.09.18-.18.36-.27.53m145.16.62l-1.44-.38c.1.24.19.49.29.73.51-.03 1.03-.05 1.55-.05.74 0 1.49.03 2.26.1 1.41.14 2.9.43 4.42.98-.12-.26-.23-.52-.35-.78-.06-.13-.13-.26-.2-.39-.22-.45-.44-.9-.68-1.35l-.13-.24c-.26-.5-.53-.99-.81-1.48l-.05-.08c-.3-.53-.62-1.06-.93-1.57-.19.1-.38.21-.57.33l-.04.02c-.18.12-.37.25-.55.39v.01c-.36.28-.71.6-1.04.96l-.08.09c-.12.14-.25.29-.37.45l-.13.18c-.1.14-.19.28-.29.43-.04.07-.09.15-.13.22l-.27.48c-.03.08-.07.15-.11.22-.12.25-.23.5-.33.76m-137.68-.19l.09-.21-.51.14c.15.02.29.05.43.08M217.05 20.4h-18.08c-4.124 0-7.57 3.136-7.966 7.24-.606 6.31-1.296 12.35-1.942 17.02-.093.68-.19 1.35-.285 2l-.105.746-.05.33-.124.84-.12.8-.154 1.01-.076.5-.05.33-.11.694-.25.03c-.47.06-.94.13-1.39.21-.21.034-.41.07-.61.11l-.13.024c-.756.146-1.438.296-2.096.464-.28.07-.563.144-.842.223-.46.13-.904.26-1.34.41-.46.15-.92.31-1.36.48-.342.13-.66.26-.973.39-.36.16-.72.31-1.07.48-.407.19-.787.37-1.157.57-.36.18-.73.39-1.095.6-.255.15-.488.28-.716.42-.5.31-.97.62-1.42.94-.2.14-.37.27-.55.4l-.07.05-.36.28c-1.94 1.03-3.17 2.59-3.85 3.65-1.15 1.33-2.18 2.77-3.06 4.3-.91 1.21-1.91 2.57-2.85 3.85-.01.01-.02.03-.03.04l-.79 1.08-.05.07-.36.5-.32.43-.19.25-.1.14-.2.27-.17.24-.1.14-.05.07-.32.44-.11.15-.04.06-.04.06-.03.05-.38.55c-1.52 2.24-3.1 4.28-4.69 6.07-3.27 3.71-6.58 6.38-9.6 7.77-.21.09-.4.17-.58.26-1.82.88-3.44 2.08-4.8 3.54-3.94-.49-7.92-.73-11.87-.73-2.77 0-5.57.12-8.37.36-1.29-1.3-2.8-2.38-4.49-3.19l-.23-.11-.33-.13c-3.02-1.39-6.32-4.06-9.56-7.74-1.63-1.84-3.21-3.88-4.7-6.08l-.41-.59-.07-.1-.46-.65-.09-.12-.5-.68-.05-.07-.58-.79-.07-.09-.04-.05c-1.2-1.63-2.63-3.57-3.87-5.24-.88-1.53-1.91-2.97-3.06-4.3-.79-1.22-1.97-2.65-3.84-3.63-.12-.09-.24-.19-.37-.28-.22-.17-.44-.33-.68-.5-.49-.34-.95-.65-1.41-.93-.21-.13-.44-.26-.67-.39l-.12-.07c-.31-.18-.6-.34-.9-.49-.31-.16-.63-.32-.96-.48-.32-.15-.66-.3-.99-.44-.55-.24-1.11-.46-1.69-.67-.22-.08-.42-.15-.62-.21-1.41-.48-2.91-.88-4.47-1.18l-.26-.04c-1.25-.23-2.54-.41-3.86-.52l-.33-2.1-.04-.24c-.29-1.53-.49-3.34-.71-5.26-.12-1.1-.24-2.21-.39-3.35-.13-1.23-.28-2.47-.43-3.66-.27-2.13-.52-4.15-.62-6.16l-.01-.11-.19-2.98c-.26-4.21-3.76-7.5-7.98-7.5H41.5c-2.33 0-4.54 1.02-6.06 2.78-1.52 1.76-2.2 4.1-1.86 6.4.06.4.166 1.67.235 2.51.05.63.1 1.26.152 1.81.23 2.74.62 5.29 1 7.76.19 1.21.36 2.34.5 3.44l.03.21c.18 1.14.34 2.27.5 3.37.31 2.19.63 4.45 1.1 6.65l.51 2.65.06.3.03.12.55 2.82-.63.6-.06.06c-.24.24-.48.48-.72.73l-.084.09-.04.04c-.245.25-.485.51-.72.78l-.04.05c-.587.66-1.116 1.31-1.6 1.97l-.015.02c-.24.33-.48.66-.71 1.01l-.07.1c-.23.35-.45.69-.66 1.04l-.05.08c-.71 1.19-1.33 2.46-1.82 3.74l-.04.1c-.72 1.89-1.18 3.87-1.38 5.87l-.01.1c-.2 2.14-.11 4.33.28 6.53 0 .03.01.06.01.09.4 2.2 1.13 4.49 2.16 6.75.01.02.04.08.047.09.96 2.09 2.23 4.25 3.76 6.4l.41 7.85c-.61 1.07-1.1 1.99-1.54 2.88-.79 1.51-1.54 3.19-2.28 5.15-.68 1.59-1.11 3.17-1.45 4.44-.094.35-.19.7-.29 1.04l-.03.12c-.45 1.63-.65 3.22-.82 4.49-.05.4-.1.79-.16 1.18-.036.23-.06.47-.08.7-.104 1.62-.065 3.1-.03 4.4l.02.85c.005.24.02.48.05.72.165 1.48.44 2.8.66 3.86l.134.64c.29 1.77.89 3.15 1.25 3.98.05.12.1.23.14.33.06.16.12.3.19.46.69 1.57 1.08 2.48 1.09 2.49.03.08.06.15.09.22l.01.04.06.12c1.48 3.15 3.99 5.63 7.06 7.08.54.81 1.11 1.61 1.69 2.38l.04.06c1.58 2.06 3.16 3.85 4.82 5.46l-.01.42c0 18.39 8.66 35.57 24.38 48.38 15.24 12.42 35.41 19.26 56.79 19.26s41.55-6.84 56.79-19.27c15.46-12.61 24.09-29.45 24.36-47.5 1.84-1.81 3.55-3.83 5.25-6.2.41-.57.81-1.16 1.2-1.76 4.9-.79 9.14-4.01 11.16-8.66l1.11-2.52c.07-.17.14-.34.2-.51.03-.08.08-.19.13-.31.36-.83.94-2.19 1.24-3.95.04-.2.08-.41.13-.62.22-1.07.49-2.39.66-3.88.02-.24.04-.47.04-.7l.02-.75c.04-1.33.08-2.85-.02-4.49-.02-.26-.04-.51-.08-.77-.07-.39-.12-.78-.17-1.19-.17-1.27-.37-2.84-.82-4.48l-.03-.1c-.1-.35-.2-.71-.3-1.08-.36-1.33-.77-2.84-1.44-4.41-.76-2-1.49-3.65-2.28-5.15-.44-.89-.94-1.82-1.54-2.88l.41-7.86c.8-1.12 1.53-2.25 2.17-3.35l.06-.1c.35-.61.68-1.23.99-1.83l.04-.09c.61-1.21 1.13-2.42 1.55-3.62l.01-.04c.65-1.82 1.09-3.66 1.33-5.46v-.03c.23-1.78.27-3.56.11-5.3v-.06c-.15-1.61-.48-3.22-.98-4.77l-.05-.17c-.45-1.38-1.06-2.78-1.8-4.13l-.02-.02-.04-.08c-.46-.82-.97-1.62-1.5-2.38l-.03-.03c-.26-.37-.53-.72-.8-1.07l-.1-.12c-.53-.67-1.09-1.32-1.68-1.95l-.03-.03-.03-.03c-.26-.28-.53-.55-.8-.82l-.08-.08-.02-.02c-.56-.54-1.15-1.08-1.76-1.6l-.03-.03-.04-.03-.35-.29.16-.82.15-.77.25-1.33.11-.59.05-.24.22-1.17.16-.9.16-.92.06-.35.08-.43.07-.42c.13-.74.26-1.48.39-2.24.95-5.56 1.98-12.8 2.93-20.39.28-2.28-.43-4.56-1.95-6.28s-3.7-2.7-5.99-2.7zM50 125l-.25.468c-.194.493-.288.88-.4 1.486-.105.688-.1 1.666.054 2.88.285 2.05.943 4.136 2.125 6.683 1.01 2.15 2.27 4.233 3.83 6.29 1.68 2.19 3.27 3.832 5.11 5.27l3.71 2.892-.45 5.57c-.07.75-.14 1.51-.14 2.26 0 28.08 28.91 50.92 64.44 50.92s64.43-22.85 64.43-50.93c0-.28-.04-.56-.06-.84l-.29-5.61 3.89-3.29c1.66-1.38 3.19-3.06 4.82-5.35 1.47-2.07 2.67-4.17 3.64-6.4 1.1-2.55 1.7-4.66 1.93-6.78.11-1.13.09-2.1-.08-2.99-.09-.41-.2-.81-.32-1.08l-.32-.64c-.04-.04-.22-.28-.54-.73-.06-.05-.67-.5-1.35-.79-.67-.28-1.51-.48-2.55-.59-1.7-.14-3.88 0-6.41.56-2.65.64-5.31 1.64-7.77 2.94l-5.49 2.91-4.55-4.23c-12.32-11.46-30.19-18.03-49.02-18.03-18.4 0-36 6.33-48.3 17.37l-4.6 4.13-5.43-2.99c-2.7-1.48-5.75-2.58-9.07-3.29-2.35-.44-4.27-.6-6.35-.33-.97.12-1.81.34-2.57.69-.53.24-1.05.64-1.42 1.07-.12.18-.22.31-.3.42z"/><path fill="#676767" d="M76.558 123.903s-24.408-8.505-29.19-1.57c-4.774 6.95 5.712 23.58 13.903 29.226 0 0-4.79-17.92 15.29-27.66z"/><path fill="#B3B3B3" d="M74.97 126.313c-4.102-2.33-8.955-3.528-13.607-3.828-2.307-.14-4.607.012-6.498.53-1.943.505-3.135 1.5-3.336 2.184-.25.64-.32 1.93.21 3.7.5 1.72 1.46 3.62 2.64 5.42 2.35 3.57 5.76 7.02 8.94 8.78 3.5 1.95 4.75 6.35 2.81 9.85-1.95 3.5-6.36 4.75-9.85 2.81-.33-.18-.62-.37-.89-.59l-.26-.2c-2.76-2.14-4.87-4.47-6.75-6.93-1.87-2.48-3.46-5.07-4.79-7.88-1.31-2.81-2.4-5.81-2.87-9.24-.22-1.73-.3-3.58.01-5.56.18-1.01.42-2.01.84-3.02.16-.46.47-1.08.8-1.68.41-.75.27-.41.8-1.23 1.36-1.81 3.16-3.11 4.92-3.92 1.76-.79 3.47-1.19 5.11-1.4 3.29-.4 6.3-.09 9.19.46 5.7 1.19 11.07 3.36 15.72 6.88 1.27.96 1.53 2.79.56 4.06-.89 1.17-2.5 1.47-3.74.76z"/><path fill="#676767" d="M179.103 125.477c-9.066-4.08 24.16-9.206 29.14-2.396 4.97 6.81-3.08 21.18-11.103 27.05 0 0 2.304-15.48-18.037-24.64z"/><path fill="#B3B3B3" d="M177.45 123.11c4.535-3.65 9.852-5.97 15.52-7.324 2.86-.64 5.863-1.023 9.164-.725 1.643.17 3.38.51 5.164 1.26 1.766.77 3.602 2.02 5.016 3.78.563.8.398.47.846 1.21.352.58.672 1.2.846 1.65.445 1 .713 2.01.922 3 .37 1.97.354 3.82.174 5.55-.373 3.46-1.38 6.48-2.605 9.32-1.238 2.84-2.76 5.49-4.55 8-1.81 2.52-3.853 4.92-6.544 7.13l-.223.18c-3.084 2.53-7.65 2.1-10.19-.99-2.54-3.08-2.09-7.65.995-10.19.277-.23.607-.45.896-.62 3.14-1.86 6.45-5.41 8.69-9.04 1.13-1.83 2.04-3.77 2.48-5.51.49-1.78.38-3.06.11-3.69-.22-.67-1.44-1.63-3.39-2.08-1.9-.47-4.2-.55-6.51-.36-4.64.45-9.46 1.79-13.49 4.23-1.37.84-3.14.39-3.98-.97-.76-1.26-.45-2.87.67-3.76z"/><path fill="#fff" d="M201.202 158.81c0 32.945-32.75 59.645-73.16 59.645s-73.168-26.7-73.168-59.646c0-32.93 32.758-59.63 73.168-59.63s73.16 26.7 73.16 59.62z"/><path fill="#B3B3B3" d="M185.513 157.117c0 26.88-26.547 48.672-59.297 48.672-32.752 0-59.297-21.8-59.297-48.68s26.54-48.67 59.29-48.67 59.29 21.79 59.29 48.66z"/><path fill="#999898" d="M126.216 208.7c-34.303 0-62.205-23.146-62.205-51.583 0-28.438 27.91-51.575 62.21-51.575s62.21 23.138 62.21 51.575-27.91 51.583-62.21 51.583zm0-97.338c-31.092 0-56.39 20.522-56.39 45.755 0 25.236 25.298 45.762 56.39 45.762s56.387-20.53 56.387-45.77c0-25.23-25.295-45.76-56.387-45.76z"/><path fill="#C1272D" d="M103.82 164.816c0 17.303 9.198 31.337 22.706 31.337 13.504 0 22.695-14.034 22.695-31.337l.26-8.478c0 9.684-5.1 17.526-11.39 17.526-11.39 0-11.39-12.458-11.39-22.144 0 9.686 0 22.144-11.4 22.144-6.3 0-11.39-7.843-11.39-17.526l-.08 8.478z"/><path fill="#999898" d="M126.507 199.867c-15.523 0-26.227-10.444-26.96-23.597l-.067 5.862c0 13.814 10.943 25.017 27.027 25.017 16.074 0 27.014-11.21 27.014-25.02l.32-6.78c0 1.73-.35 3.38-.91 4.92-2.47 11.2-12.51 19.59-26.41 19.59z"/><path fill="#333" d="M138.083 176.773c-5.893 0-9.357-2.657-11.39-6.45-2.042 3.793-5.507 6.45-11.4 6.45-8.02 0-14.3-8.976-14.3-20.435 0-1.605 1.3-2.91 2.908-2.91s2.91 1.305 2.91 2.91c0 7.928 3.89 14.62 8.48 14.62 7.22 0 8.49-6.206 8.49-19.237h5.82c0 13.04 1.27 19.24 8.49 19.24 4.6 0 8.5-6.69 8.5-14.62 0-1.6 1.3-2.91 2.91-2.91s2.91 1.31 2.91 2.91c.01 11.46-6.28 20.44-14.3 20.44z"/><path fill="#2974A7" d="M135.71 151.722c0 3.025-4.04 5.485-9.025 5.485s-9.03-2.46-9.03-5.485c0-3.036 4.046-5.482 9.03-5.482s9.025 2.446 9.025 5.482z"/><path fill="#333" d="M154.175 145.224c-6.2 0-12.166-3.115-17.746-9.265-1.08-1.19-.99-3.03.19-4.11 1.19-1.08 3.02-.99 4.1.2 4.72 5.2 9.55 7.67 14.36 7.32 8.49-.61 14.6-9.51 14.66-9.6.9-1.34 2.71-1.69 4.04-.78 1.32.89 1.68 2.7.77 4.04-.32.46-7.79 11.33-19.07 12.13-.45.03-.9.05-1.34.05zm-59.283 0c-6.205 0-12.172-3.115-17.748-9.265-1.08-1.19-.988-3.03.197-4.11 1.19-1.08 3.03-.99 4.11.2 4.72 5.2 9.53 7.67 14.36 7.32 8.49-.61 14.6-9.51 14.67-9.6.91-1.34 2.71-1.69 4.04-.78 1.33.89 1.69 2.7.78 4.04-.31.46-7.78 11.33-19.06 12.13-.44.03-.89.05-1.33.05z"/><path fill="#fdb" d="M168.542 89.61"/><path fill="#E2AB74" d="M185.21 88.675"/><path fill="#fff" d="M184.743 78.123c-1.715 3.542-3.402 6.396-5.355 9.43-1.934 2.973-4.05 5.85-6.404 8.606-4.697 5.47-10.328 10.68-17.71 14.2-4.09 1.96-8.987.22-10.94-3.86-1.955-4.09-.225-8.98 3.867-10.94.05-.03.15-.06.2-.08 4.41-1.97 8.7-5.56 12.46-9.83 1.89-2.14 3.67-4.46 5.32-6.88 1.62-2.38 8.77-11.94 8.77-11.94 1.96-3.85 2.43-1.08 6.29.87 3.83 1.93 5.37 6.57 3.52 10.4zm22.565-16.757s33.145 13.015 1.33 41.015h-24.744s-12.964-10.93-14.146-18c-1.183-7.07 1.73-31.66 37.56-23.01zm4.282 47.948s-9.177-2.3-12.116 5.354l-15.58-4.173s-3.83-14.143-12.08-12.374l-3.537-.3 4.707-10.3s15.623-8.25 17.393-7.07c1.764 1.19 26.215 6.78 26.215 6.78l-.922 17.74-4.08 4.36zm-29.568-17.397s.564.556 1.535 1.55c.943.974 2.244 2.377 3.727 4.132 2.975 3.5 6.7 8.43 9.59 14.23.754 1.42 1.398 2.94 1.982 4.49.652 1.48 1.023 3.16 1.47 4.71.43 1.56.564 3.27.802 4.79.096 1.58.023 3.16-.006 4.58-.16 1.44-.482 2.78-.717 3.96-.178 1.19-.725 2.14-1.02 2.97-.714 1.61-1.112 2.53-1.112 2.53-1.494 3.41-5.484 4.97-8.904 3.47-3.42-1.49-4.98-5.48-3.48-8.9.02-.04.04-.08.05-.13l.58-1.25s.18-.4.5-1.08c.12-.36.49-.7.55-1.26.14-.53.29-1.13.46-1.79.04-.74.1-1.53.15-2.37-.14-.92-.08-1.85-.32-2.9-.27-1.04-.37-2.12-.82-3.25-.35-1.13-.74-2.28-1.28-3.43-1.96-4.63-4.92-9.15-7.35-12.34-1.21-1.61-2.27-2.91-3.03-3.78l-1.17-1.34-.19-.21c-1.99-2.26-1.77-5.71.49-7.7 2.17-1.92 5.45-1.77 7.46.25zm21.213 0s.563.556 1.533 1.55c.943.974 2.244 2.377 3.727 4.132 2.98 3.5 6.7 8.43 9.592 14.23.754 1.42 1.395 2.94 1.982 4.49.65 1.48 1.02 3.16 1.47 4.71.43 1.56.56 3.27.8 4.79.09 1.58.02 3.16-.01 4.58-.16 1.44-.48 2.78-.72 3.96-.18 1.19-.73 2.14-1.03 2.97l-1.12 2.53c-1.49 3.41-5.48 4.97-8.9 3.47-3.42-1.49-4.98-5.48-3.48-8.9l.06-.13.58-1.25s.18-.4.49-1.08c.13-.36.5-.7.55-1.26.14-.53.3-1.13.47-1.79l.15-2.37c-.14-.92-.08-1.85-.31-2.9-.27-1.04-.37-2.12-.82-3.25-.35-1.13-.74-2.28-1.28-3.43-1.96-4.63-4.92-9.15-7.34-12.34-1.21-1.61-2.28-2.91-3.03-3.78-.75-.85-1.17-1.34-1.17-1.34l-.19-.21c-1.99-2.26-1.77-5.71.49-7.7 2.17-1.92 5.45-1.77 7.46.25z"/><path fill="#fdb" d="M91.374 89.61"/><path fill="#E2AB74" d="M74.708 88.675"/><path fill="#fff" d="M75.167 78.123c1.72 3.542 3.408 6.396 5.363 9.43 1.932 2.973 4.05 5.85 6.395 8.606 4.705 5.47 10.334 10.68 17.72 14.2 4.09 1.96 8.98.22 10.933-3.86 1.955-4.09.225-8.98-3.86-10.94-.05-.03-.147-.06-.206-.08-4.402-1.97-8.69-5.56-12.45-9.83-1.892-2.14-3.675-4.46-5.317-6.88-1.62-2.38-8.77-11.94-8.77-11.94-1.954-3.85-2.42-1.08-6.284.87-3.82 1.93-5.36 6.57-3.52 10.4zM52.603 61.366S19.46 74.38 51.28 102.38h24.745s12.965-10.938 14.14-18.005c1.182-7.074-1.732-31.664-37.562-23.01zm-4.273 47.948s9.167-2.3 12.112 5.354l15.582-4.173S79.846 96.352 88.1 98.12l3.533-.3-4.71-10.303S71.31 79.26 69.54 80.444c-1.765 1.183-26.216 6.773-26.216 6.773l.922 17.74 4.085 4.357zm37.337-9.744s-.43.484-1.172 1.33c-.752.875-1.822 2.172-3.02 3.78-2.435 3.194-5.394 7.713-7.355 12.34-.53 1.15-.932 2.3-1.28 3.426-.438 1.133-.55 2.21-.815 3.252-.23 1.047-.174 1.977-.31 2.893.056.85.1 1.64.145 2.37.17.66.332 1.26.465 1.79.05.56.428.91.56 1.26l.497 1.08.574 1.22c1.58 3.38.125 7.4-3.256 8.99-3.38 1.58-7.4.13-8.986-3.25-.018-.04-.05-.11-.066-.15 0 0-.404-.92-1.117-2.53-.29-.81-.84-1.77-1.02-2.96-.23-1.18-.55-2.52-.71-3.96-.03-1.42-.11-2.99-.01-4.58.24-1.52.37-3.22.8-4.78.45-1.54.82-3.22 1.48-4.71.58-1.55 1.22-3.07 1.98-4.49 2.9-5.8 6.62-10.73 9.6-14.23 1.49-1.76 2.79-3.16 3.73-4.13.97-.99 1.53-1.55 1.53-1.55 2.12-2.14 5.57-2.15 7.71-.03 2.06 2.04 2.15 5.32.26 7.46l-.2.23zm-21.215 0l-1.168 1.33c-.752.875-1.826 2.172-3.025 3.78-2.43 3.194-5.39 7.713-7.35 12.34-.54 1.15-.94 2.3-1.29 3.426-.44 1.133-.55 2.21-.82 3.252-.23 1.047-.18 1.977-.31 2.893.05.85.1 1.64.14 2.37.17.66.33 1.26.46 1.79.05.56.42.91.55 1.26l.5 1.08.57 1.22c1.58 3.38.13 7.4-3.25 8.99-3.38 1.58-7.4.13-8.99-3.25l-.07-.15s-.4-.92-1.11-2.53c-.3-.81-.85-1.77-1.02-2.96-.24-1.18-.56-2.52-.72-3.96-.03-1.42-.11-2.99-.01-4.58.23-1.52.36-3.22.79-4.78.45-1.54.82-3.22 1.48-4.71.58-1.55 1.22-3.07 1.98-4.49 2.89-5.8 6.61-10.73 9.59-14.23 1.48-1.76 2.78-3.16 3.73-4.13.97-.99 1.53-1.55 1.53-1.55 2.12-2.14 5.56-2.15 7.71-.03 2.05 2.04 2.14 5.32.26 7.46l-.2.23zm-2.34-48.675c-.535-2.81-.762-5.933-1.184-9.193-.326-3.27-.902-6.725-1.088-10.32-.064-.975-.13-2-.19-3H41.527c.148 1 .297 3.23.443 4.798.31 3.778 1.005 7.413 1.458 10.857.545 3.437.887 6.708 1.527 9.695 1.13 5.976 2.09 10.96 3.004 14.56.82 3.63 1.35 5.416 1.35 5.416l16.29-4.205s-.53-2-1.12-5.13c-.7-3.1-1.47-7.81-2.38-13.478zm136.88-22.515c-.575 6-1.28 12.292-1.98 17.36-1.452 10.366-2.786 17.003-2.786 17.003l16.45 3.568s1.694-7.25 3.524-17.9c.982-5.78 2.002-13.02 2.87-20.02h-18.077zm14.303 118.034c-1.285 0-2.537-.264-3.72-.783-2.263-.98-4.006-2.8-4.906-5.1-.9-2.3-.85-4.82.14-7.08l1.13-2.43c.12-.29.26-.52.37-.69l.02-.03.04-.17.4-1.54.11-1.88c-.05-.35-.07-.71-.09-1.08-.03-.5-.06-.93-.15-1.36-.09-.31-.17-.72-.25-1.13-.13-.62-.25-1.2-.46-1.74-.03-.06-.05-.12-.07-.18-.29-.92-.65-2.02-1.16-3.1-.58-1.36-1.26-2.75-2.04-4.16-.36.48-.66 1.02-.9 1.65-.08.22-.19.42-.32.59.38 1.02.65 2.04.93 3.04.1.39.21.78.31 1.15.36 1.31.53 2.63.68 3.79.06.45.11.88.18 1.31.01.08.02.16.02.24.08 1.39.05 2.77.01 3.98l-.02.81c0 .08 0 .15-.01.23-.14 1.23-.38 2.37-.59 3.38l-.16.75c-.18 1.14-.58 2.07-.88 2.76-.1.22-.19.42-.26.62-.02.06-.04.11-.07.17-.7 1.6-1.1 2.51-1.1 2.52-1.48 3.38-4.81 5.56-8.49 5.56-1.28 0-2.54-.26-3.72-.78-2.26-.99-4-2.8-4.9-5.1-.91-2.3-.86-4.82.14-7.08l.08-.19 1.06-2.24c.12-.29.26-.53.36-.69l.02-.04c.01-.05.02-.11.04-.17l.4-1.54s.09-1.31.12-1.88c-.04-.35-.07-.71-.09-1.08-.03-.5-.06-.94-.15-1.37-.08-.31-.17-.71-.25-1.12-.13-.62-.25-1.21-.46-1.75-.03-.06-.05-.12-.07-.18-.28-.93-.65-2.02-1.15-3.1-2.16-5.1-5.35-9.63-7.07-11.89-1.25-1.67-2.28-2.91-2.93-3.66l-1.16-1.33-.13-.14-.15-.18c-4.97 5.22-10.13 9.06-15.73 11.74-1.46.7-3.01 1.05-4.61 1.05-4.1 0-7.9-2.39-9.66-6.09-2.55-5.32-.29-11.72 5.04-14.28.05-.03.19-.09.31-.13 3.76-1.69 7.75-4.86 11.55-9.17 1.75-1.97 3.47-4.2 5.13-6.63.78-1.15 2.86-4 6.17-8.46.81-1.44 1.78-2.79 2.88-4.02.38-.65 1.12-1.75 2.32-2.23 4.36-3.58 10.15-5.46 17.24-5.6.5-2.9 1.14-6.88 1.81-11.67.65-4.74 1.35-10.62 1.97-17 .12-1.28 1.2-2.01 2.49-2.01H217c.72 0 1.4.06 1.877.6.47.53.69 1.12.6 1.84-.93 7.51-1.957 14.6-2.887 20.07-.95 5.53-1.86 10.12-2.55 13.39 4.424 2.97 9.33 7.67 10.54 14.44 1.06 5.93-.956 12.24-6 18.79l-.494 9.59c-.02.4-.135.78-.33 1.12.92 1.51 1.76 3.02 2.49 4.5.69 1.3 1.35 2.8 2.07 4.67.54 1.25.89 2.54 1.23 3.78.104.39.21.78.32 1.17.36 1.3.54 2.61.69 3.77.06.45.12.9.188 1.33.01.08.02.16.023.24.09 1.41.05 2.79.02 4.02l-.02.77c0 .07-.004.15-.012.22-.136 1.23-.37 2.36-.58 3.36l-.156.77c-.18 1.13-.59 2.07-.88 2.75-.09.22-.19.42-.26.62l-.06.16-1.11 2.54c-1.47 3.36-4.8 5.54-8.48 5.54z"/><path fill="#333" d="M216.844 28.38c-.867 7-1.773 14.244-2.756 20.023-1.14 6.635-2.17 11.95-2.83 15.018 6.75 4.07 18.41 14.26 4.923 31.16l-.52 10.39-.93 1.01c1.18 1.83 2.33 3.79 3.36 5.87.76 1.43 1.4 2.95 1.99 4.5.65 1.49 1.02 3.17 1.47 4.71.43 1.57.56 3.27.8 4.79.1 1.58.03 3.16 0 4.58-.16 1.44-.48 2.78-.71 3.96-.18 1.2-.72 2.15-1.02 2.97l-1.11 2.54c-1.1 2.54-3.58 4.05-6.18 4.05-.91 0-1.83-.18-2.71-.57-3.41-1.49-4.98-5.48-3.47-8.9l.06-.12.59-1.24.5-1.07c.13-.35.5-.7.55-1.26.14-.53.29-1.13.46-1.78l.15-2.36c-.14-.91-.07-1.84-.31-2.89-.27-1.04-.37-2.12-.82-3.25-.35-1.12-.74-2.27-1.28-3.42-1.01-2.37-2.28-4.72-3.6-6.88-1.59.84-3.04 2.23-3.92 4.53l-1.44-.38c.29.68.56 1.36.82 2.05.66 1.48 1.03 3.17 1.47 4.71.43 1.56.57 3.27.81 4.79.09 1.58.02 3.16-.01 4.58-.16 1.44-.48 2.78-.72 3.96-.18 1.2-.72 2.15-1.02 2.97-.71 1.61-1.11 2.54-1.11 2.54-1.1 2.53-3.58 4.04-6.19 4.04-.91 0-1.83-.18-2.71-.57-3.41-1.49-4.98-5.48-3.48-8.9.01-.04.04-.08.05-.13l.59-1.24s.18-.4.5-1.08c.13-.35.5-.7.55-1.26l.47-1.78c.05-.73.1-1.52.15-2.36-.13-.91-.08-1.84-.31-2.89-.27-1.04-.37-2.12-.82-3.26-.34-1.12-.74-2.27-1.28-3.43-1.96-4.62-4.91-9.14-7.34-12.34-1.21-1.6-2.27-2.9-3.03-3.77l-1.17-1.33-.19-.2c-.37-.42-.64-.9-.86-1.39-.45 0-.91.05-1.39.15l-.53-.04c-4.35 4.76-9.49 9.18-16.01 12.3-1.14.54-2.35.8-3.53.8-3.06 0-5.99-1.72-7.4-4.66-1.96-4.08-.23-8.98 3.86-10.94.05-.02.14-.06.2-.08 4.41-1.97 8.69-5.56 12.46-9.83 1.89-2.13 3.67-4.45 5.32-6.87.98-1.44 4-5.52 6.22-8.51.75-1.35 1.67-2.67 2.81-3.89.56-1 1.01-1.42 1.48-1.44 3.65-3.16 9.05-5.37 16.92-5.37.4 0 .81.01 1.23.02.53-2.92 1.34-7.72 2.2-13.83.7-5.07 1.41-11.36 1.98-17.36h17.63m.45-5h-18.08c-2.57 0-4.73 1.96-4.98 4.52-.61 6.35-1.3 12.44-1.95 17.15-.52 3.74-1.03 6.99-1.46 9.6-6.58.45-12.09 2.41-16.41 5.86-1.15.56-2.16 1.52-3.02 2.88-1.13 1.28-2.13 2.68-2.98 4.17-3.28 4.42-5.35 7.25-6.14 8.43-1.59 2.33-3.25 4.48-4.92 6.36-3.56 4.04-7.23 6.98-10.65 8.53-.17.07-.31.13-.44.19-6.56 3.16-9.34 11.05-6.2 17.6 2.18 4.56 6.86 7.51 11.91 7.51 1.98 0 3.9-.43 5.69-1.29 5.16-2.46 9.94-5.85 14.54-10.32.55.65 1.44 1.74 2.48 3.12 2.82 3.71 5.27 7.82 6.74 11.29.02.06.05.12.08.18.44.94.77 1.93 1.03 2.78.04.12.08.24.13.36.13.33.22.79.33 1.32.08.37.16.78.27 1.22.05.24.07.57.09.94.02.3-.2.63-.16.99-.03.48-.32.95-.32 1.4v.01c0 .41.03.8-.06 1.16-.11.18-.11.41-.22.67-.3.64-.41 1-.41 1l-.53 1.2c-.02.05-.03.1-.05.15-.02.04-.03.08-.05.12-1.25 2.87-1.31 6.06-.17 8.98 1.14 2.93 3.36 5.23 6.24 6.49 1.49.66 3.08.99 4.72.99 4.54 0 8.66-2.61 10.6-6.68 1.22 2.55 3.28 4.55 5.89 5.69 1.5.66 3.09.99 4.72.99 4.67 0 8.9-2.76 10.77-7.04l1.11-2.53c.04-.1.09-.21.13-.31.06-.16.13-.31.2-.48.33-.76.81-1.89 1.04-3.31l.15-.7c.22-1.05.47-2.25.62-3.59.02-.15.03-.29.03-.44l.02-.75c.04-1.27.08-2.72-.02-4.23-.01-.16-.02-.32-.05-.48-.06-.41-.12-.83-.18-1.26-.16-1.24-.34-2.64-.74-4.07l-.02-.06c-.1-.37-.21-.75-.31-1.13-.34-1.26-.72-2.67-1.32-4.07-.73-1.93-1.42-3.49-2.17-4.9-.59-1.2-1.25-2.41-1.96-3.62.05-.23.08-.47.09-.71l.46-8.83c5.14-6.91 7.16-13.68 6-20.13-1.23-6.9-5.77-11.83-10.22-15.12.64-3.14 1.42-7.19 2.23-11.9.94-5.52 1.97-12.71 2.9-20.26.18-1.42-.27-2.85-1.22-3.93-.95-1.07-2.31-1.69-3.74-1.69z"/><path fill="#fff" d="M67.84 146.413c-3.577 0-6.87-2.093-8.39-5.332-.037-.08-.513-1.16-1.206-2.73-.023-.05-.045-.1-.064-.16-.07-.19-.158-.39-.25-.61-.295-.69-.698-1.62-.88-2.76l-.155-.75c-.21-1-.45-2.14-.583-3.38-.008-.07-.013-.14-.014-.22l-.022-.87c-.032-1.19-.07-2.55.02-3.92.004-.08.012-.15.024-.23.068-.43.127-.88.187-1.34.15-1.15.323-2.46.667-3.72.118-.41.22-.79.325-1.17.27-1 .55-2.03.93-3.05-.13-.18-.24-.37-.33-.59-.24-.62-.54-1.17-.9-1.65-.78 1.41-1.45 2.77-2 4.08-.56 1.2-.93 2.33-1.2 3.19l-.06.17c-.21.55-.33 1.14-.46 1.76-.08.41-.17.82-.27 1.22-.08.34-.1.77-.13 1.27-.03.37-.05.72-.09 1.08.03.45.12 1.89.12 1.89l.4 1.56.03.15.02.03c.1.17.25.41.37.71l1.04 2.22c2.16 4.63.16 10.15-4.46 12.31-1.24.58-2.56.88-3.92.88-3.58 0-6.87-2.09-8.39-5.33l-.06-.14c-.04-.08-.44-1-1.14-2.6l-.06-.14c-.07-.19-.16-.39-.25-.6-.3-.69-.71-1.63-.89-2.78l-.16-.79c-.21-.99-.44-2.12-.58-3.34-.01-.07-.02-.15-.02-.22l-.02-.89c-.03-1.18-.07-2.53.02-3.89 0-.07.01-.15.02-.22.06-.42.12-.87.18-1.31.15-1.16.32-2.48.67-3.75.11-.41.22-.79.32-1.17.34-1.26.7-2.56 1.25-3.83.69-1.83 1.37-3.37 2.08-4.72.72-1.44 1.55-2.93 2.47-4.45-.2-.34-.31-.72-.33-1.12l-.5-9.59c-4.91-6.38-6.96-12.54-6.08-18.33.96-6.34 5.22-10.91 9.1-13.84-.57-2.77-1.17-5.9-1.78-9.12-.42-1.98-.72-4.08-1.03-6.3-.16-1.13-.32-2.29-.5-3.47-.16-1.23-.34-2.41-.53-3.62-.37-2.39-.74-4.85-.95-7.42-.05-.51-.1-1.14-.15-1.76-.09-1.07-.19-2.29-.27-2.87-.11-.72.1-1.2.58-1.75s1.17-.61 1.89-.61H59.6c1.32 0 2.41.78 2.49 2.1.06 1 .125 1.9.19 2.87.117 2.25.39 4.4.657 6.53.15 1.24.306 2.42.42 3.61.14 1.07.27 2.17.39 3.27.225 2.03.436 3.94.77 5.68.407 2.55.76 4.72 1.084 6.64.23 0 .45-.01.67-.01 7.48 0 13.57 1.88 18.1 5.6 1.21.48 1.94 1.57 2.33 2.23 1.11 1.23 2.07 2.58 2.88 4.02 2.3 3.1 5.2 7.02 6.18 8.46 1.63 2.4 3.35 4.63 5.12 6.63 3.8 4.31 7.78 7.47 11.54 9.17l.26.11c5.39 2.59 7.65 8.99 5.11 14.3-1.77 3.7-5.56 6.09-9.65 6.09-1.6 0-3.15-.35-4.61-1.05-5.6-2.67-10.76-6.52-15.73-11.73l-1.46 1.66c-.65.76-1.7 2.03-2.9 3.63-1.73 2.28-4.93 6.81-7.05 11.82-.44.97-.8 1.93-1.19 3.19-.01.06-.03.11-.05.17-.21.55-.33 1.15-.46 1.78-.08.4-.16.8-.26 1.19-.08.35-.1.79-.14 1.29-.02.36-.04.72-.08 1.07l.12 1.89s.33 1.25.41 1.58l.03.12.02.04c.1.17.25.41.38.71l.47 1.02.57 1.2c2.17 4.64.17 10.16-4.45 12.32-1.24.59-2.56.88-3.92.88z"/><path fill="#333" d="M59.634 28.38c.063 1 .134 2.027.2 3.002.185 3.594.765 7.047 1.09 10.32.423 3.26.65 6.384 1.187 9.192.53 3.288 1.01 6.238 1.45 8.753.96-.058 1.88-.086 2.76-.086 7.86 0 13.27 2.21 16.92 5.38.47.03.92.44 1.48 1.45 1.14 1.23 2.06 2.54 2.81 3.9 2.22 2.99 5.24 7.07 6.22 8.51 1.64 2.42 3.43 4.74 5.32 6.88 3.77 4.27 8.05 7.86 12.45 9.83.06.02.16.06.21.08 4.09 1.97 5.82 6.86 3.86 10.95-1.41 2.95-4.34 4.67-7.4 4.67-1.18 0-2.39-.26-3.53-.8-6.52-3.11-11.66-7.53-16.02-12.29l-.52.05c-.47-.1-.93-.14-1.38-.14-.21.49-.48.95-.85 1.37l-.19.23s-.43.48-1.17 1.33c-.75.87-1.82 2.17-3.02 3.78-2.44 3.19-5.39 7.71-7.36 12.34-.53 1.15-.93 2.3-1.27 3.42-.44 1.14-.55 2.21-.81 3.26-.23 1.05-.17 1.98-.31 2.89.06.84.1 1.63.14 2.36.17.66.34 1.26.47 1.79.05.56.43.91.56 1.26l.5 1.08.57 1.22c1.58 3.38.13 7.4-3.25 8.99-.92.43-1.9.64-2.86.64-2.54 0-4.97-1.44-6.12-3.9-.01-.04-.05-.11-.06-.15l-1.12-2.53c-.29-.82-.84-1.77-1.02-2.97-.23-1.18-.56-2.52-.71-3.96-.03-1.42-.11-3-.01-4.58.24-1.52.37-3.22.8-4.79.45-1.54.82-3.22 1.48-4.71.26-.69.54-1.37.82-2.04l-1.44.39c-.88-2.3-2.33-3.69-3.92-4.53-1.33 2.16-2.6 4.5-3.61 6.88-.53 1.15-.93 2.3-1.28 3.43-.44 1.14-.55 2.21-.82 3.25-.23 1.04-.17 1.97-.31 2.89.06.84.1 1.63.15 2.36.17.66.33 1.26.47 1.79.05.56.43.9.56 1.26l.5 1.07.57 1.22c1.59 3.38.13 7.4-3.25 8.99-.92.44-1.9.64-2.86.64-2.54 0-4.97-1.44-6.12-3.89l-.07-.15s-.4-.92-1.11-2.54c-.3-.81-.84-1.77-1.02-2.96-.23-1.18-.56-2.52-.72-3.96-.03-1.42-.11-3-.01-4.58.24-1.52.36-3.23.79-4.79.45-1.55.82-3.23 1.48-4.71.58-1.55 1.22-3.07 1.98-4.5 1.04-2.08 2.19-4.04 3.36-5.87l-.94-1-.54-10.38C31.2 78.9 40.3 69.01 47.07 64.41c-.65-3.024-1.337-6.61-2.105-10.67-.64-2.99-.98-6.26-1.526-9.698-.46-3.444-1.15-7.08-1.46-10.857-.15-1.564-.3-3.795-.45-4.795h18.09m.02-5.002H41.52c-1.454 0-2.836.634-3.786 1.735s-1.37 2.56-1.16 4c.08.496.18 1.723.26 2.708.05.63.104 1.25.154 1.8.22 2.65.6 5.15.97 7.57.186 1.22.36 2.38.51 3.51.006.05.01.09.02.13.184 1.17.344 2.31.5 3.43.316 2.25.614 4.37 1.063 6.48.5 2.64.99 5.22 1.47 7.6-4.97 4.12-8 9.08-8.82 14.48-.95 6.3 1.1 12.88 6.09 19.6l.46 8.83c.01.24.04.47.09.71-.71 1.21-1.36 2.42-1.96 3.61-.75 1.42-1.46 3.02-2.16 4.9-.61 1.42-1 2.85-1.34 4.11-.1.37-.2.74-.3 1.1-.01.02-.01.05-.02.07-.39 1.44-.58 2.85-.74 4.09-.05.43-.11.85-.17 1.25-.02.15-.04.29-.05.44-.1 1.48-.06 2.89-.03 4.13.01.3.02.59.02.88l.03.45c.15 1.34.4 2.53.62 3.58l.15.72c.24 1.44.73 2.58 1.06 3.34.07.17.14.32.2.47.04.11.08.2.12.3.7 1.59 1.09 2.5 1.1 2.51l.08.17.03.06.04.08c1.93 4.11 6.11 6.77 10.65 6.77 1.73 0 3.41-.37 4.98-1.11 2.56-1.2 4.49-3.21 5.62-5.58 1.95 4.07 6.11 6.69 10.62 6.69 1.73 0 3.41-.37 4.98-1.11 5.87-2.75 8.41-9.76 5.67-15.63l-.57-1.21c-.04-.09-.2-.44-.45-.97-.11-.27-.24-.51-.34-.69-.07-.27-.14-.56-.22-.87l-.07-.27-.01-.15c-.02-.41-.05-.84-.08-1.28.04-.35.06-.67.08-.96.02-.37.04-.7.09-.94.09-.39.18-.79.26-1.2.11-.54.2-1.01.34-1.37.04-.1.08-.22.12-.33.36-1.15.68-2.01 1.04-2.8.03-.04.05-.09.07-.14 1.48-3.48 3.93-7.58 6.73-11.26l.03-.04c.97-1.29 1.84-2.36 2.47-3.11 4.6 4.47 9.39 7.86 14.54 10.33 1.79.85 3.71 1.29 5.69 1.29 5.05 0 9.73-2.95 11.91-7.51 3.14-6.56.36-14.45-6.2-17.61l-.15-.06c-.07-.03-.19-.08-.3-.12-3.42-1.56-7.09-4.5-10.62-8.52-1.71-1.93-3.36-4.07-4.93-6.38-.81-1.18-2.87-4.01-6.15-8.42-.85-1.49-1.85-2.89-2.98-4.17-.86-1.36-1.87-2.32-3.02-2.88-4.66-3.71-10.69-5.7-17.96-5.93-.22-1.36-.46-2.84-.72-4.47l-.03-.15c-.31-1.65-.52-3.51-.74-5.49-.12-1.09-.24-2.2-.39-3.33-.12-1.21-.27-2.44-.42-3.63-.26-2.09-.53-4.25-.64-6.38v-.07c-.06-.97-.13-1.99-.19-2.98-.16-2.63-2.35-4.69-4.99-4.69z"/></svg>