<svg xmlns="http://www.w3.org/2000/svg" width="256" height="256" viewBox="0 0 256 256"><path fill="#ED1E79" d="M148.16 103c.796-1.176 1.588-2.415 2.385-3.723 3.877-6.44 10.813-.755 22.443 3.252 2.486-10.69 4.914-26.13 3.012-40.55-15.073-7.92-28.213-15.38-35.587-15.35-8.785.04-13.448 4.74-15.82 8.64 9.837 15.36 19.874 33.37 23.57 47.71zM62.655 89.5c4.367 12.294 10.77 24.21 20.142 32.37 3.04-2.2 5.605-4.494 7.854-6.63-7.61-8.788-15.16-21.14-17.9-37.407-3.21 3.775-6.59 7.723-10.09 11.667zm58.752-28.865l-3.357.596s-7.896-11.7-21.887-6.18C91.197 57 84.885 63.73 77.595 72.17c1.703 17.51 9.21 30.452 16.917 39.36 4.52-4.31 7.793-6.78 11.798-3.745 3.696 2.796 7.143 4.978 10.33 6.57-4.55-9.983-4.43-19.7-4.417-20.38.042-1.52 1.122-2.86 2.847-2.697 1.526.04 2.735 1.305 2.704 2.844-.007.17-.146 12.655 6.87 22.987 2.168.38 4.2.45 6.07.1l.674-.14c4.126-.8 8.264-3.63 12.427-8.4-1.94-12.66-11.783-31.17-22.408-48.05zm103.577 19.592c-7.706-.648-15.947-3.11-24.198-6.427-.968 5-2.958 10.393-6.496 16.154l-4.717-2.907c3.438-5.597 5.222-10.75 5.978-15.465-4.58-2.023-9.14-4.243-13.57-6.5 1.22 14.294-1.17 28.84-3.6 39.06 6.63 1.626 14.54 2.32 23.96.213 30.68-6.85 22.65-24.128 22.65-24.128zm-166.65 14.02c-8.813 9.487-18.345 18.3-28.26 23.268 0 0-1.085 18.796 29.944 13.77 7.234-1.174 13.028-3.503 17.85-6.262-8.87-8.157-15.12-19.25-19.533-30.775zm41.82 92.813c-2.323-11.312-.17-22.558 3.266-32.068-5.215-1.786-10.52-3.763-15.43-5.68-2.633 5.654-4.457 13.618-3.046 24.544.193 1.522-.88 2.915-2.395 3.104-.13.02-.25.027-.36.027-1.38 0-2.57-1.018-2.75-2.413-1.55-11.952.42-20.85 3.38-27.31-5.09-2.055-9.51-3.93-12.51-5.262-13.37-5.892-27.82 11.948-27.82 11.948 22.12 32.36 46.67 46.24 66.51 51.87-4.45-5.627-7.44-11.88-8.86-18.766zm84.4-.068c-2.512-20.93-12.896-34.48-21.737-42.475-9.904 8.41-19.526 15.39-24.117 15.377-1.104 0-1.874.704-2.417 1.842-.932-.858-1.907-1.22-2.922-.808-3.86 1.55-13.66-.667-24.62-4.17-3.2 8.785-5.24 19.084-3.15 29.21 1.73 8.38 6.17 15.737 13.12 22.075 9.35 1.61 17.11 1.477 22.28 1-3.24-5.23-6.11-13.08-6.11-24.662 0-1.53 1.25-2.77 2.78-2.77 1.54 0 2.77 1.24 2.77 2.77 0 12.22 3.42 19.57 6.65 23.8.57-.1.89-.19.89-.19s0-.11-.01-.14c7.55-2.05 22.12-7.48 36.61-20.85zm5.652-68.068c-2 2.036-4.856 4.874-8.175 8.075 3.2 3.15 6.14 7.35 8.13 13.02.51 1.45-.25 3.02-1.7 3.53-.3.1-.61.16-.9.16-1.15 0-2.22-.72-2.62-1.86-1.68-4.81-4.2-8.36-6.92-11.01-3.43 3.24-7.17 6.69-11 10.04 8.9 8.21 18.92 21.54 22.36 41.33 12.61-13.31 24.56-33.11 31.12-62.55 0 0-20.03-11.21-30.26-.77z"/></svg>