<svg xmlns="http://www.w3.org/2000/svg" width="256" height="256" viewBox="0 0 256 256"><path fill="#333" d="M25.62 234.38c-2.21 0-4-1.79-4-4v-51c0-2.208 1.79-4 4-4h5.44c-4.08-3.147-6.873-6.948-8.35-11.376-2.366-7.1-3.124-30.703 1.608-56.556C28.27 85.85 37.075 57.62 56.606 44.008 58.6 23.012 80.252 23.01 90.83 23.01c10.524 0 35.117 0 35.297 24.042 17.678 14.99 25.568 42.405 29.083 63.04 3.868 22.717 3.72 46.21 1.153 53.896-1.59 4.77-4.635 8.465-8.305 11.393h13.56v-36c0-2.18 1.792-4 4-4h65c2.21 0 4 1.82 4 4v91c0 2.21-1.79 4-4 4h-205 .002zm94.578-59c.104-.33.205-.664.305-1h-8.973c-.02.335-.045.668-.072 1h8.74zm-54.488 0c-.017-.33-.03-.664-.037-1H58.87c.117.336.235.67.354 1h6.486zM90.83 27.01c17.218 0 31.298 3.084 31.298 20.308 0 .52.026 1.163.053 1.677 32.82 25.75 34.62 101.062 30.39 113.73-3.03 9.097-12.64 13.654-20.27 16.654h33.32v-40h65v91h-205v-51h23.99c-7.87-2-19.68-6.37-23.1-16.64-4.37-13.12-2.29-93.58 33.97-116.5.5-16.35 13.47-19.23 30.36-19.23m16.14 152.37h16.12c1.05-3 1.91-6 2.62-9h-18.19c.28 3-.28 7-.56 9m-50.5 0H70.1c-.36-3-.64-6-.22-9H53.4c.87 3 1.88 6 3.055 9"/><path fill="#333" d="M90.83 19.01c-9.7 0-34.586.003-37.985 22.785-19.61 14.735-28.47 43.128-32.46 64.934-4.594 25.08-4.34 49.91-1.47 58.53.816 2.44 1.96 4.71 3.43 6.81-2.786 1.25-4.725 4.05-4.725 7.3v51c0 4.42 3.582 8 8 8h205c4.418 0 8-3.58 8-8v-91c0-4.42-3.582-8-8-8h-65c-1.38 0-2.68.35-3.81.96-.46-7.25-1.318-15.07-2.658-22.93-3.536-20.78-11.444-48.26-29.084-64.24-.72-12.42-7.63-18.59-13.47-21.6-6.15-3.17-14.1-4.58-25.77-4.58l.002.03zm66.345 152.37c.15-.228.3-.46.444-.696v.697h-.45z"/><path fill="#0071BC" d="M122.128 47.192c0-17.224-14.08-20.244-31.297-20.244-17.22 0-30.38 3.02-30.38 20.244 0 1.538-.83 3.032 1.17 4.512v53.677h60V53.87c1-2.153.51-4.383.51-6.678z"/><path fill="#1A1A1A" d="M40.422 83.482l3.584 85.9h90.432l2.508-58.634-12.92-48.446-83.604 21.18z"/><path fill="#EAC7A7" d="M95.62 164.137c0 4.754-2.45 6.696-6.5 6.696-4.058 0-6.5-1.942-6.5-6.696V146.91c0-4.755 2.442-8.608 6.5-8.608 4.05 0 6.5 3.854 6.5 8.61v17.225z"/><path fill="#D3BD8D" d="M123.99 102.327c0 8.355 1.216 15.125 7.076 15.125 5.863 0 14.146-1.568 14.146-15.125 0-8.362-4.748-15.125-10.603-15.125-5.87 0-10.63 6.763-10.63 15.125h.01z"/><path fill="#C69C6D" d="M125.75 102.27c.028-2.344.51-5.015 1.657-7.275.576-1.156 1.312-2.277 2.354-3.25 1.04-.946 2.53-1.757 4.23-1.78.65.064.52.004 1.13.132.49.1.91.252 1.24.408.72.322 1.32.775 1.86 1.24 1.05.973.48 2.094 1.06 3.25 1.15 2.32.36 4.824.36 7.332v.285c0 1.64.01 2.987-1.64 3.01-1.64.018-2.33-1.293-2.35-2.936 0-.118.34-.252.35-.36.19-1.65.22-3.456-.33-4.966-.49-1.587-1.43-2.576-1.72-2.674-.18-.092-.62-.08-1.2.314-.57.404 2.05 1.057 1.56 1.826-1 1.605 1.37 3.396 1.37 5.56v.086c0 .957-4.15 1.657-5.11 1.556-.9-.094-4.76-.873-4.75-1.757h-.07z"/><path fill="#D3BD8D" d="M53.82 102.327c0 8.355-1.218 15.125-7.07 15.125-5.864 0-14.15-1.568-14.15-15.125 0-8.362 4.745-15.125 10.608-15.125 5.86 0 10.61 6.763 10.61 15.125h.002z"/><path fill="#C69C6D" d="M52.06 102.27c-.026-2.344-.51-5.015-1.655-7.275-.58-1.156-1.314-2.277-2.36-3.25-1.026-.946-2.5-1.757-4.222-1.78-.646.064-.514.004-1.12.132-.49.1-.92.252-1.24.408-.726.322-1.315.775-1.853 1.24-1.043.973.733 2.094.143 3.25-1.137 2.32.866 4.824.866 7.332v.285c0 1.64-1.23 2.987.4 3.01 1.65.018 1.74-1.293 1.76-2.936 0-.118-.64-.252-.65-.36-.18-1.65-.36-3.456.18-4.966.5-1.587 1.37-2.576 1.65-2.674.17-.092.58-.08 1.16.314.58.404 1.12 1.057 1.61 1.826 1.01 1.605 1.58 3.396 1.81 5.56v.086c.1.957.95 1.657 1.92 1.556.9-.094 1.58-.873 1.57-1.757h.03z"/><path fill="#fdb" d="M130.652 117.26c0 29.736-28.563 32.305-41.31 32.305-14.507 0-41.3-2.565-41.3-32.306 0-29.73-3.086-67.89 41.3-67.89 44.826 0 41.31 38.16 41.31 67.89z"/><path fill="#333" d="M84.604 129.52c-.926 0-1.787-.593-2.086-1.523-.367-1.15.27-2.38 1.424-2.747 4.184-1.34 5.963-3.44 6.55-4.32l-1.598-23.08c-.08-1.21.83-2.25 2.037-2.33 1.16-.11 2.25.82 2.34 2.03l1.64 23.74c.03.35-.03.7-.17 1.02-.21.48-2.28 4.82-9.46 7.1-.21.07-.44.1-.66.1h-.01v.01z"/><path fill="#D4145A" d="M94.182 139.016c0 3.717-3.012 6.735-6.74 6.735-3.723 0-6.734-3.02-6.734-6.72 0-3.72 3.012-6.74 6.734-6.74 3.728 0 6.74 3.01 6.74 6.74v-.01z"/><path fill="#F5F5F5" d="M81.704 102.28c0 6.79-5.504 12.298-12.29 12.298-6.804 0-12.308-5.508-12.308-12.298 0-6.788 5.504-12.285 12.307-12.285 6.787 0 12.29 5.497 12.29 12.285z"/><path fill="#333" d="M78.053 101.99c0 4.712-3.813 8.528-8.535 8.528-4.71 0-8.54-3.816-8.54-8.528 0-4.716 3.83-8.536 8.54-8.536 4.723 0 8.535 3.82 8.535 8.536z"/><path fill="#F5F5F5" d="M123.885 102.28c0 6.79-5.506 12.298-12.293 12.298-6.8 0-12.303-5.508-12.303-12.298 0-6.788 5.5-12.285 12.3-12.285 6.78 0 12.29 5.497 12.29 12.285z"/><path d="M111.702 93.454c-4.71 0-8.535 3.82-8.535 8.536 0 4.712 3.825 8.528 8.535 8.528 4.723 0 8.533-3.816 8.533-8.528 0-4.716-3.81-8.536-8.533-8.536zM91.647 40.38H87.44c-62.1-7-66.207 106.04-60.937 121.85 5.28 15.82 30.47 17.24 30.47 17.24-9.85-19.708-8.937-70.48-8.396-86.157C54.823 91.05 60.81 87.228 66.2 82.88c2.633.14 5.124.528 7.033.896 2.46.52 3.76 1.02 3.865 1.04l-.01-.007v-.01c1.55.36 3.09-.6 3.45-2.15.35-1.54-.61-3.08-2.15-3.44.106.02-1.968-.28-4.68-.27-.93.01-1.965.05-3.055.12C80.92 69.74 88.3 59.49 89.92 57.17c.913 1.628 6.94 12.115 16.024 22.07-.13 0-.264 0-.39-.003-2.463.078-4.53.582-4.377.558l-.01.005-.02.03c-1.49.53-2.27 2.16-1.73 3.66.52 1.5 2.16 2.28 3.66 1.74.15-.05 1.02-.55 3.13-1.16 1.04-.21 2.26-.58 3.64-.7l.085-.01c5.082 4.938 10.89 9.387 17.152 12.078 1.623 21.272 3.905 67.402-4.98 85.183 0 0 25.197-2.56 30.467-18.39 5.28-15.81 1.18-128.85-60.92-121.85zm8.893 88.18c-.91 0-1.64.74-1.64 1.65 0 3.28-5.08 6.05-11.09 6.05-6.016 0-11.106-2.77-11.106-6.04 0-.91-.734-1.64-1.64-1.64-.906 0-1.64.738-1.64 1.648 0 5.227 6.32 9.326 14.386 9.326v-.006l-.01-.03c8.06 0 14.38-4.1 14.38-9.32 0-.91-.74-1.64-1.64-1.64z" fill="#333"/><path fill="#39B54A" d="M68.663 178.38H68.6h.063zm36.207 0h.066-.066z"/><path fill="#0071BC" d="M94.772 159.334l-6.426 10.582-6.568-10.94-.043-.052c-1.072-.068-2.053-.038-2.953.08-13.47 1.737-8.04 22.796-8.04 22.796l36.065-2.623s5.428-24.216-12.035-19.843z"/><path fill="#29D6F7" d="M83.893 184.158c-.152 0-.305-.063-.414-.19l-7-8.215 2.32-2.8-3.67-1 2.2-12.1c.05-.293.3-.48.63-.44.3.054.49.338.44.64l-2.03 11.104 4.34 1.19-2.83 3.396 6.4 7.514c.19.23.17.578-.06.77-.1.09-.23.13-.36.13h.03zm9.37 0c-.124 0-.25-.044-.354-.13-.24-.193-.26-.54-.06-.77l6.4-7.518-2.83-3.39 4.34-1.19-2.03-11.1c-.06-.3.14-.58.44-.64.31-.04.58.15.64.44l2.2 12.1-3.67 1 2.32 2.8-7 8.22c-.11.13-.26.19-.42.19h.02v-.012z"/><path fill="#FCEE21" d="M26.62 178.38h149v51h-149v-51z"/><path fill="#F7931E" d="M182.62 229.38h-49.696l23.25-51h26.445v51z"/><path fill="#FBB03B" d="M166.62 138.38h65v91h-65v-91z"/></svg>