<svg xmlns="http://www.w3.org/2000/svg" width="256" height="256" viewBox="0 0 256 256"><path fill="#FBB03B" d="M90.802 209.38c-7.352 0-19.195-9.11-27.826-17.74C57 185.663 51.98 179.373 48.84 173.824c-4.025-7.113-4.533-12.225-1.507-15.25.364-.363.72-.594.97-.75l66.713-66.706c.214-.318.452-.603.716-.867.076-.07.154-.14.234-.21.086-.1.174-.19.265-.28.89-.88 2.48-1.94 5.07-1.94 1.63 0 3.46.41 5.56 1.25 15.78-16.99 32.25-29.19 32.97-29.72.25-.18.52-.33.8-.46.42-.18 4.24-1.75 9.09-1.75 5.82 0 16.04 2.36 19.22 18.13 4.53 22.44-10.48 38.68-12.21 40.46l-11.18 11.8c2.04 4.92 1.86 8.62-.53 11l-.12.13c-.22.22-.45.42-.71.61L96 207.46c-.22.3-.48.45-.775.68-1.2.916-2.68 1.266-4.39 1.266z"/><path fill="#333" d="M169.7 61.132c5.648 0 12.82 2.615 15.3 14.92 4.17 20.685-10.195 35.885-11.165 36.883-.034.036-.055.055-.055.055l-13.035 13.76c2.218 4.24 2.86 7.508 1.424 8.944-.05.043-.1.075-.14.113l.01.013c-.13.13-.28.236-.44.332l-29.52 29.515-8.14 8.14-31.21 31.207.03.032c-.5.38-1.17.563-1.98.563-4.9 0-15.02-6.7-25-16.69-11.91-11.91-18.84-24.3-15.65-27.5.21-.22.52-.32.73-.53l29.88-29.88 7.29-7.29 30.12-30.12c.1-.2.22-.38.38-.54l.08.08c.11-.22.24-.42.41-.59.52-.52 1.27-.77 2.23-.77 1.65 0 3.9.74 6.53 2.1 16.28-18.01 34.37-31.34 34.37-31.34s3.34-1.43 7.52-1.43m0-8c-5.53 0-9.85 1.72-10.66 2.07-.57.24-1.11.55-1.6.91-.71.52-16.28 12.05-31.75 28.34-1.56-.43-3.02-.64-4.4-.64-3.95 0-6.48 1.69-7.89 3.11-.09.08-.18.17-.26.27-.08.07-.16.15-.24.23-.34.34-.66.71-.95 1.1L82.4 118.08l-7.285 7.287-29.367 29.365c-.36.25-.796.594-1.243 1.04-4.46 4.46-4.173 11.213.847 20.082 3.314 5.856 8.566 12.508 14.79 18.73 5.72 5.722 20.16 19.028 30.655 19.028 2.57 0 4.925-.758 6.812-2.192.52-.395.98-.85 1.39-1.35l30.6-30.6 8.14-8.14 29.04-29.045c.32-.25.62-.518.91-.804l.1-.1.06-.06c2.27-2.3 4.19-6.27 2.24-12.81l9.4-9.93.07-.07c1.92-1.97 18.18-19.62 13.26-44.03-3.88-19.26-17.48-21.33-23.14-21.33z"/><path fill="#FBB03B" d="M146.396 108.355c-11.903-11.904-24.144-18.964-27.337-15.77-3.2 3.193 3.86 15.43 15.77 27.336 11.9 11.91 24.14 18.97 27.34 15.78 3.19-3.19-3.87-15.43-15.78-27.34zm-7.94 7.94c-7.722-7.72-12.193-14.442-14.038-18.353 3.91 1.844 10.633 6.316 18.354 14.037 7.723 7.72 12.193 14.44 14.04 18.35-3.912-1.85-10.633-6.32-18.356-14.04z"/><path fill="#FCEE21" d="M134.778 119.87c-11.11-11.11-17.615-22.127-16.27-26.58l-67.614 67.614c-.207.207-.52.313-.733.526-3.19 3.193 3.74 15.588 15.65 27.493 11.64 11.634 23.44 18.805 26.98 16.122l-.03-.032 69.37-69.37c-3.19 3.192-15.43-3.87-27.33-15.774z"/><path fill="#ED1E79" d="M155.902 131.864l17.878-18.874S189.315 97.455 185 76.052c-4.313-21.4-22.813-13.493-22.813-13.493s-22.653 16.68-40.058 37.97c3.65 13.68 26.64 27.37 33.77 31.33z"/><path fill="#CC1776" d="M182.014 73.386s-5.727-14.462-16.987-8.25 2.002 39.638 11.728 30.544c9.722-9.093 7.267-18.94 5.26-22.294z"/><path fill="#F7931E" d="M132.092 165.667c-5.013-2.237-15.4-9.47-24.522-18.59-9.295-9.296-16.362-19.236-18.702-24.147l-8.09 8.09c.773 1.3 1.584 2.565 2.413 3.805 4.3 6.432 10.53 13.938 16.66 20.06 6.1 6.097 13.63 12.263 20.18 16.53 1.27.824 2.6 1.65 3.93 2.393l8.14-8.14z"/><path fill="#CC1776" d="M127.13 94.69c-1.7 1.9-3.374 3.853-5 5.845 3.65 13.683 26.642 27.368 33.772 31.33l17.878-18.875s4.65-4.66 8.156-12.38c-7.988 4.57-16.53 1.123-16.53 1.123L127.13 94.69z"/><path fill="#FBB03B" d="M156.812 130.336c-3.91-1.846-10.883-6.067-18.605-13.79-7.722-7.722-12.446-14.19-14.288-18.104l-5.36-5.358c-3.11 3.107 4.11 15.183 16.02 27.087 11.9 11.91 24.27 18.85 27.46 15.65"/></svg>