<?xml version="1.0" encoding="utf-8"?>
<!-- Generator: Adobe Illustrator 16.0.0, SVG Export Plug-In . SVG Version: 6.00 Build 0)  -->
<!DOCTYPE svg PUBLIC "-//W3C//DTD SVG 1.1//EN" "http://www.w3.org/Graphics/SVG/1.1/DTD/svg11.dtd">
<svg version="1.1" id="Layer_1" xmlns="http://www.w3.org/2000/svg" xmlns:xlink="http://www.w3.org/1999/xlink" x="0px" y="0px"
	 width="256px" height="256px" viewBox="0 0 256 256" enable-background="new 0 0 256 256" xml:space="preserve">
<path fill="#333333" d="M128.192,208.08c-53.67,0-97.334-35.926-97.334-80.084c0-1.04,0.027-2.11,0.082-3.2
	c-2.67-2.296-5.094-4.91-7.52-8.093c-2.62-3.464-4.753-6.977-6.538-10.754c-2.143-4.6-3.412-8.71-4.003-12.96
	c-0.39-2.98-0.38-5.67,0.03-8.25c0.21-1.2,0.55-2.9,1.28-4.69c0.39-1.05,0.96-2.11,1.28-2.67c0.35-0.63,0.52-0.88,0.76-1.21
	c0.07-0.09,0.15-0.21,0.36-0.54l0.08-0.14l0.09-0.13c2.52-3.33,5.63-5.22,7.79-6.21c2.32-1.07,4.84-1.77,7.69-2.13
	c1.45-0.18,2.9-0.27,4.36-0.27c2.7,0,5.44,0.28,8.62,0.89c4.76,0.99,9.19,2.47,13.24,4.4c18.27-15.36,43.5-24.14,69.72-24.14
	c26.809,0,52.44,9.12,70.79,25.1c3.44-1.59,7.16-2.86,11.1-3.81c3.601-0.8,6.66-1.16,9.701-1.16c1.09,0,2.189,0.05,3.27,0.15
	c2.9,0.29,5.439,0.92,7.79,1.92c2.22,0.95,5.37,2.76,7.97,5.99l0.09,0.11l0.08,0.11c0.221,0.32,0.32,0.44,0.391,0.53
	c0.279,0.35,0.439,0.59,0.84,1.24c0.539,0.9,1.02,1.83,1.34,2.61c0.59,1.36,1.029,2.81,1.391,4.57c0.5,2.61,0.59,5.3,0.289,8.28
	c-0.47,4.27-1.619,8.41-3.63,13.07c-1.649,3.79-3.69,7.36-6.22,10.93c-2.551,3.54-5.08,6.38-7.891,8.86
	c0.021,0.53,0.021,1.06,0.021,1.57c0,44.15-43.66,80.08-97.33,80.08L128.192,208.08z"/>
<path fill="#333333" d="M211.973,87.2c2.245,3.12,4.229,6.36,5.937,9.698c0.229-0.344,0.45-0.69,0.659-1.037
	c1.291-2.09,2.25-4.2,2.701-5.93c0.239-0.87,0.299-1.52,0.299-1.91c-0.31-0.17-0.81-0.39-1.52-0.55c-1.29-0.32-2.83-0.48-4.51-0.48
	c-0.83,0-1.689,0.04-2.58,0.11c-0.34,0.04-0.68,0.07-1.02,0.11L211.973,87.2z"/>
<path fill="#333333" d="M34.35,86.813c0.01,0.392,0.09,1.026,0.343,1.87c0.507,1.727,1.53,3.812,2.89,5.897
	c0.376,0.57,0.777,1.138,1.198,1.7c1.89-3.592,4.09-7.065,6.6-10.398c-0.82-0.104-1.66-0.183-2.49-0.236
	c-0.57-0.033-1.17-0.052-1.77-0.052c-1.98,0-3.78,0.208-5.19,0.6c-0.74,0.193-1.25,0.435-1.56,0.62L34.35,86.813z"/>
<path fill="#333333" d="M128.192,51.918c27.953,0,53.027,10.02,70.13,25.888c3.979-2.1,8.25-3.635,12.693-4.698
	c2.793-0.62,5.686-1.057,8.771-1.057c0.952,0,1.923,0.05,2.914,0.14c2.102,0.21,4.315,0.65,6.592,1.62
	c2.254,0.97,4.601,2.56,6.403,4.81c0.714,1.02,0.507,0.59,1.072,1.54c0.45,0.75,0.854,1.52,1.092,2.11
	c0.561,1.28,0.9,2.55,1.16,3.82c0.48,2.51,0.451,4.88,0.23,7.08c-0.482,4.41-1.757,8.26-3.32,11.9
	c-1.582,3.62-3.531,6.99-5.812,10.21c-2.31,3.21-4.91,6.26-8.349,9.09l-0.279,0.23c-0.022,0.02-0.049,0.04-0.072,0.06
	c0.061,1.12,0.098,2.25,0.098,3.38c0,42.029-41.775,76.09-93.323,76.09c-51.545,0-93.334-34.061-93.334-76.08
	c0-1.68,0.07-3.34,0.2-4.99c-3.45-2.7-6.1-5.63-8.47-8.73c-2.38-3.14-4.41-6.46-6.1-10.04c-1.67-3.58-3.05-7.41-3.66-11.79
	c-0.29-2.19-0.38-4.55,0.02-7.07c0.22-1.28,0.53-2.57,1.06-3.86c0.21-0.59,0.6-1.38,1.03-2.14c0.53-0.95,0.35-0.51,1.02-1.57
	c1.74-2.3,4.03-3.96,6.27-4.99c2.24-1.03,4.44-1.53,6.53-1.8c1.31-0.16,2.6-0.23,3.85-0.23c2.73,0,5.33,0.34,7.86,0.82
	c5.13,1.07,10.04,2.79,14.58,5.26c17.07-15.33,41.72-24.95,69.12-24.95"/>
<path fill="#333333" d="M39.79,103.5c3.04-7.285,7.403-14.072,12.85-20.18c-3.126-0.9-6.36-1.443-9.526-1.65
	c-0.68-0.04-1.355-0.06-2.025-0.06c-2.25,0-4.41,0.23-6.27,0.75c-2.48,0.643-4,1.91-4.26,2.78c-0.32,0.82-0.4,2.46,0.28,4.717
	c0.64,2.203,1.87,4.63,3.37,6.928c1.57,2.38,3.51,4.71,5.57,6.72"/>
<path fill="#333333" d="M216.93,104.489c1.879-1.98,3.609-4.23,5.02-6.51c1.439-2.33,2.6-4.81,3.18-7.03
	c0.62-2.27,0.48-3.91,0.141-4.72c-0.291-0.87-1.851-2.09-4.34-2.66c-1.621-0.41-3.48-0.58-5.4-0.58c-0.961,0-1.94,0.04-2.91,0.12
	c-2.61,0.25-5.26,0.73-7.85,1.45c5.17,6.05,9.289,12.75,12.149,19.91"/>
<path fill="#333333" d="M128.159,43.909c-26.23,0-51.54,8.51-70.33,23.5c-3.68-1.56-7.61-2.78-11.74-3.64l-0.07-0.02l-0.06-0.02
	c-3.43-0.66-6.4-0.96-9.36-0.96c-1.61,0-3.24,0.09-4.81,0.29h-0.06c-3.26,0.42-6.16,1.23-8.86,2.47c-3.7,1.7-6.92,4.27-9.31,7.43
	l-0.19,0.26l-0.18,0.271c-0.09,0.13-0.14,0.22-0.18,0.27c-0.4,0.54-0.66,0.94-1.07,1.67c-0.36,0.63-1.03,1.88-1.51,3.17
	c-0.87,2.12-1.27,4.07-1.49,5.37l-0.02,0.07l-0.01,0.07c-0.47,2.96-0.48,6.02-0.05,9.35l0.01,0.03l0.01,0.04
	c0.64,4.65,2.02,9.12,4.33,14.07c1.92,4.06,4.19,7.81,6.97,11.48c2.17,2.85,4.33,5.27,6.65,7.43c-0.01,0.49-0.02,0.98-0.02,1.47
	c0,22.77,10.75,44.08,30.28,60c19.05,15.53,44.28,24.08,71.05,24.08s52-8.56,71.041-24.09c19.469-15.88,30.219-37.119,30.27-59.84
	c2.49-2.37,4.8-5.05,7.09-8.24l0.02-0.03l0.01-0.03c2.69-3.8,4.851-7.6,6.611-11.62c2.189-5.08,3.439-9.59,3.939-14.23l0.01-0.04
	v-0.04c0.34-3.36,0.23-6.43-0.33-9.38l-0.01-0.05l-0.01-0.05c-0.42-2.03-0.93-3.73-1.631-5.34c-0.529-1.28-1.239-2.52-1.619-3.15
	c-0.44-0.73-0.7-1.12-1.11-1.63c-0.05-0.05-0.11-0.13-0.239-0.33l-0.15-0.22l-0.17-0.21c-3.11-3.87-6.871-6.03-9.48-7.15
	c-2.77-1.17-5.689-1.9-8.96-2.22h-0.069c-1.201-0.11-2.42-0.17-3.641-0.17c-3.34,0-6.67,0.4-10.5,1.25l-0.061,0.01l-0.069,0.01
	c-3.32,0.79-6.49,1.81-9.49,3.04c-18.899-15.59-44.63-24.45-71.47-24.45L128.159,43.909z"/>
<path fill="#333333" d="M62.51,83.46c0,0-31.134-10.858-37.233-2c-6.09,8.853,7.293,30.075,17.734,37.27c0,0-6.1-22.847,19.5-35.27
	H62.51z"/>
<path fill="#F2D6B6" d="M60.49,86.538c-5.23-2.967-11.42-4.5-17.355-4.884c-2.95-0.172-5.88,0.017-8.29,0.686
	c-2.476,0.644-4,1.91-4.26,2.78c-0.315,0.82-0.403,2.46,0.278,4.718c0.646,2.202,1.87,4.63,3.37,6.927
	c3.005,4.56,7.347,8.953,11.407,11.204c4.465,2.48,6.068,8.1,3.584,12.56c-2.482,4.46-8.107,6.06-12.56,3.58
	c-0.41-0.23-0.786-0.48-1.138-0.75l-0.324-0.25c-3.516-2.73-6.21-5.7-8.604-8.85c-2.377-3.15-4.412-6.46-6.102-10.04
	c-1.67-3.59-3.047-7.41-3.658-11.8c-0.285-2.19-0.377-4.55,0.02-7.08c0.226-1.28,0.53-2.57,1.062-3.86
	c0.213-0.59,0.598-1.38,1.03-2.15c0.532-0.95,0.347-0.51,1.02-1.57c1.74-2.3,4.034-3.96,6.272-4.99c2.244-1.03,4.445-1.53,6.535-1.8
	c4.19-0.51,8.033-0.12,11.715,0.59c7.275,1.52,14.13,4.29,20.06,8.77c1.622,1.24,1.946,3.55,0.706,5.18
	c-1.126,1.5-3.177,1.88-4.77,0.97L60.49,86.538z"/>
<path fill="#333333" d="M193.333,85.47c-11.567-5.205,30.813-11.735,37.16-3.058c6.348,8.683-3.923,27.014-14.154,34.496
	c0,0,2.94-19.743-23.01-31.438H193.333z"/>
<path fill="#F2D6B6" d="M191.214,82.453c5.79-4.65,12.57-7.614,19.804-9.344c3.651-0.82,7.479-1.31,11.684-0.93
	c2.109,0.21,4.32,0.64,6.6,1.61c2.26,0.97,4.6,2.56,6.41,4.81c0.721,1.02,0.51,0.59,1.07,1.53c0.449,0.74,0.859,1.52,1.09,2.1
	c0.57,1.28,0.9,2.55,1.16,3.82c0.48,2.51,0.46,4.87,0.23,7.08c-0.48,4.4-1.75,8.26-3.32,11.89c-1.58,3.62-3.53,6.98-5.811,10.2
	c-2.311,3.2-4.91,6.26-8.35,9.09l-0.27,0.22c-3.941,3.24-9.761,2.67-13-1.27c-3.24-3.94-2.671-9.77,1.27-13
	c0.359-0.29,0.77-0.58,1.15-0.81c4-2.38,8.219-6.89,11.08-11.53c1.439-2.34,2.6-4.82,3.18-7.03c0.619-2.27,0.479-3.91,0.149-4.72
	c-0.28-0.86-1.85-2.09-4.34-2.66c-2.42-0.6-5.36-0.7-8.31-0.46c-5.92,0.56-12.061,2.27-17.211,5.39c-1.739,1.06-4.01,0.5-5.069-1.24
	c-0.97-1.6-0.58-3.66,0.85-4.8L191.214,82.453z"/>
<path fill="#333333" d="M221.516,127.996c0,42.023-41.775,76.084-93.323,76.084c-51.545,0-93.334-34.061-93.334-76.084
	c0-42.016,41.78-76.077,93.33-76.077c51.54-0.01,93.32,34.06,93.32,76.07L221.516,127.996z"/>
<path fill="#F2D6B6" d="M209.896,125.837c0,37.114-36.67,67.21-81.899,67.21c-45.227,0-81.895-30.097-81.895-67.21
	c0-37.12,36.668-67.22,81.895-67.22C173.227,58.617,209.896,88.717,209.896,125.837z"/>
<path fill="#333333" d="M207.773,121.17c0,19.964-16.18,36.145-36.143,36.145s-36.14-16.181-36.14-36.145
	c0-19.965,16.18-36.14,36.149-36.14c19.971,0,36.15,16.176,36.15,36.14H207.773z M120.514,121.17
	c0,19.964-16.177,36.145-36.14,36.145c-19.97,0-36.148-16.181-36.148-36.145c0-19.965,16.178-36.14,36.146-36.14
	c19.965,0,36.14,16.176,36.14,36.14H120.514z"/>
<path fill="#FFFFFF" d="M108.284,119.542c0,13.254-10.74,24.002-24,24.002c-13.262,0-24.004-10.748-24.004-24.002
	c0-13.26,10.742-24.008,24.004-24.008C97.544,95.534,108.284,106.284,108.284,119.542z M80.612,112.61
	c0,4.527-3.664,8.185-8.186,8.185c-4.522,0-8.186-3.657-8.186-8.184c0-4.51,3.664-8.17,8.186-8.17c4.522,0,8.186,3.67,8.186,8.18
	V112.61z M89.634,121.45c0,2.115-1.734,3.837-3.85,3.837c-2.123,0-3.848-1.722-3.848-3.837c0-2.134,1.725-3.848,3.848-3.848
	C87.899,117.602,89.634,119.316,89.634,121.45z M195.542,119.542c0,13.254-10.744,24.002-24,24.002
	c-13.26,0-24.004-10.748-24.004-24.002c0-13.26,10.744-24.008,24.004-24.008C184.798,95.534,195.542,106.284,195.542,119.542z
	 M167.87,112.61c0,4.527-3.666,8.185-8.188,8.185c-4.521,0-8.186-3.657-8.186-8.184c0-4.51,3.664-8.17,8.186-8.17
	c4.522,0,8.188,3.67,8.188,8.18V112.61z M176.893,121.45c0,2.115-1.734,3.837-3.853,3.837c-2.12,0-3.847-1.722-3.847-3.837
	c0-2.134,1.728-3.848,3.847-3.848C175.157,117.602,176.893,119.316,176.893,121.45z"/>
<path fill="#333333" d="M139.52,148.035c0,3.859-5.156,6.99-11.52,6.99c-6.355,0-11.52-3.131-11.52-6.99
	c0-3.865,5.165-6.996,11.52-6.996c6.363,0,11.52,3.13,11.52,6.99V148.035z M101.12,205.436c-3.216,0-6.5-2.601-6.5-5.813V182.17
	c0-3.217,3.284-5.816,6.5-5.816c3.216,0,6.5,2.601,6.5,5.816v17.453C107.62,202.836,104.336,205.436,101.12,205.436L101.12,205.436z
	 M128.12,205.436c-3.216,0-6.5-2.601-6.5-5.813V182.17c0-3.217,3.284-5.816,6.5-5.816c3.216,0,6.5,2.601,6.5,5.816v17.453
	C134.62,202.836,131.336,205.436,128.12,205.436L128.12,205.436z M155.12,205.436c-3.216,0-6.5-2.601-6.5-5.813V182.17
	c0-3.217,3.284-5.816,6.5-5.816s6.5,2.601,6.5,5.816v17.453C161.62,202.836,158.336,205.436,155.12,205.436L155.12,205.436z"/>
</svg>
