<?xml version="1.0" encoding="utf-8"?>
<!-- Generator: Adobe Illustrator 16.0.0, SVG Export Plug-In . SVG Version: 6.00 Build 0)  -->
<!DOCTYPE svg PUBLIC "-//W3C//DTD SVG 1.1//EN" "http://www.w3.org/Graphics/SVG/1.1/DTD/svg11.dtd">
<svg version="1.1" id="Layer_1" xmlns="http://www.w3.org/2000/svg" xmlns:xlink="http://www.w3.org/1999/xlink" x="0px" y="0px"
	 width="256px" height="256px" viewBox="0 0 256 256" enable-background="new 0 0 256 256" xml:space="preserve">
<path fill="#333333" d="M25.62,234.38c-2.21,0-4-1.79-4-4v-51c0-2.208,1.79-4,4-4h5.44c-4.08-3.147-6.873-6.948-8.35-11.376
	c-2.366-7.1-3.124-30.703,1.608-56.556C28.27,85.85,37.075,57.62,56.606,44.008C58.6,23.012,80.252,23.01,90.83,23.01
	c10.524,0,35.117,0,35.297,24.042c17.678,14.99,25.568,42.405,29.083,63.04c3.868,22.717,3.72,46.21,1.153,53.896
	c-1.59,4.772-4.635,8.465-8.305,11.393h13.56v-36c0-2.199,1.792-4,4-4h65c2.21,0,4,1.801,4,4v91c0,2.21-1.79,4-4,4h-205
	L25.62,234.38z"/>
<path fill="#333333" d="M120.198,175.38c0.104-0.33,0.205-0.664,0.305-1h-8.973c-0.02,0.335-0.045,0.668-0.072,1H120.198z"/>
<path fill="#333333" d="M65.71,175.38c-0.017-0.33-0.03-0.664-0.037-1H58.87c0.117,0.336,0.235,0.67,0.354,1H65.71z"/>
<path fill="#333333" d="M90.83,27.01c17.218,0,31.298,3.084,31.298,20.308c0,0.52,0.026,1.163,0.053,1.677
	c32.82,25.75,34.62,101.062,30.389,113.729c-3.029,9.098-12.639,13.657-20.27,16.657h33.32v-40h65v91h-205v-51h23.99
	c-7.87-2-19.68-6.37-23.1-16.643c-4.37-13.12-2.29-93.58,33.97-116.5c0.5-16.35,13.47-19.23,30.36-19.23"/>
<path fill="#333333" d="M106.981,179.379h16.12c1.05-3,1.91-6,2.62-9h-18.19c0.28,3-0.28,7-0.56,9"/>
<path fill="#333333" d="M56.471,179.379H70.1c-0.36-3-0.64-6-0.22-9H53.4c0.87,3,1.88,6,3.055,9"/>
<path fill="#333333" d="M90.83,19.01c-9.7,0-34.586,0.003-37.985,22.785c-19.61,14.735-28.47,43.128-32.46,64.934
	c-4.594,25.089-4.34,49.919-1.47,58.53c0.816,2.44,1.96,4.71,3.43,6.81c-2.786,1.25-4.725,4.051-4.725,7.301v51c0,4.42,3.582,8,8,8
	h205c4.418,0,8-3.58,8-8v-91c0-4.42-3.582-8-8-8h-65c-1.38,0-2.679,0.35-3.81,0.96c-0.459-7.25-1.318-15.07-2.658-22.93
	c-3.536-20.78-11.444-48.26-29.084-64.24c-0.719-12.42-7.629-18.59-13.469-21.6c-6.15-3.17-14.1-4.58-25.77-4.58L90.83,19.01z"/>
<path fill="#333333" d="M157.175,171.38c0.15-0.228,0.3-0.46,0.444-0.696v0.697h-0.45L157.175,171.38z"/>
<path fill="#0071BC" d="M122.128,47.192c0-17.224-14.08-20.244-31.297-20.244c-17.22,0-30.38,3.02-30.38,20.244
	c0,1.538-0.83,3.032,1.17,4.512v53.677h60V53.87c1-2.153,0.51-4.383,0.51-6.678H122.128z"/>
<path fill="#1A1A1A" d="M40.422,83.482l3.584,85.9h90.432l2.508-58.634l-12.92-48.446L40.422,83.482z"/>
<path fill="#EAC7A7" d="M95.62,164.137c0,4.754-2.45,6.696-6.5,6.696c-4.058,0-6.5-1.942-6.5-6.696V146.91
	c0-4.755,2.442-8.608,6.5-8.608c4.05,0,6.5,3.854,6.5,8.61V164.137L95.62,164.137z"/>
<path fill="#D3BD8D" d="M123.99,102.327c0,8.355,1.216,15.125,7.076,15.125c5.863,0,14.146-1.568,14.146-15.125
	c0-8.362-4.748-15.125-10.603-15.125C128.744,87.202,123.99,93.965,123.99,102.327z"/>
<path fill="#C69C6D" d="M125.75,102.27c0.028-2.344,0.51-5.015,1.657-7.275c0.576-1.156,1.312-2.277,2.354-3.25
	c1.04-0.946,2.51-1.757,4.223-1.78c0.65,0.064,0.513,0.004,1.131,0.132c0.484,0.1,0.91,0.252,1.236,0.408
	c0.721,0.322,1.313,0.775,1.853,1.24c1.047,0.973,0.479,2.094,1.062,3.25c1.146,2.32,0.354,4.824,0.354,7.332v0.285
	c0,1.64,0.003,2.987-1.638,3.01c-1.644,0.018-2.328-1.293-2.354-2.936c0-0.118,0.333-0.252,0.343-0.36
	c0.19-1.65,0.211-3.456-0.33-4.966c-0.49-1.587-1.439-2.576-1.72-2.674c-0.18-0.092-0.62-0.08-1.2,0.314
	c-0.57,0.404,2.041,1.057,1.551,1.826c-1,1.605,1.369,3.396,1.369,5.56v0.086c0,0.957-4.149,1.657-5.109,1.556
	c-0.9-0.094-4.76-0.873-4.75-1.757L125.75,102.27z"/>
<path fill="#D3BD8D" d="M53.82,102.327c0,8.355-1.218,15.125-7.07,15.125c-5.864,0-14.15-1.568-14.15-15.125
	c0-8.362,4.745-15.125,10.608-15.125c5.86,0,10.61,6.763,10.61,15.125H53.82z"/>
<path fill="#C69C6D" d="M52.06,102.27c-0.026-2.344-0.51-5.015-1.655-7.275c-0.58-1.156-1.314-2.277-2.36-3.25
	c-1.026-0.946-2.5-1.757-4.222-1.78c-0.646,0.064-0.514,0.004-1.12,0.132c-0.49,0.1-0.92,0.252-1.24,0.408
	c-0.726,0.322-1.315,0.775-1.853,1.24c-1.043,0.973,0.733,2.094,0.143,3.25c-1.137,2.32,0.866,4.824,0.866,7.332v0.285
	c0,1.64-1.23,2.987,0.4,3.01c1.65,0.018,1.74-1.293,1.76-2.936c0-0.118-0.64-0.252-0.65-0.36c-0.18-1.65-0.36-3.456,0.18-4.966
	c0.5-1.587,1.37-2.576,1.65-2.674c0.17-0.092,0.58-0.08,1.16,0.314c0.58,0.404,1.12,1.057,1.61,1.826
	c1.01,1.605,1.58,3.396,1.81,5.56v0.086c0.1,0.957,0.95,1.657,1.92,1.556c0.9-0.094,1.58-0.873,1.57-1.757L52.06,102.27z"/>
<path fill="#FFDDBB" d="M130.652,117.26c0,29.736-28.563,32.305-41.309,32.305c-14.506,0-41.3-2.567-41.3-32.306
	c0-29.73-3.085-67.89,41.3-67.89C134.168,49.369,130.652,87.529,130.652,117.26L130.652,117.26z"/>
<path fill="#333333" d="M84.604,129.521c-0.926,0-1.787-0.594-2.086-1.526c-0.367-1.15,0.27-2.38,1.424-2.747
	c4.184-1.335,5.963-3.438,6.55-4.315L88.894,97.85c-0.08-1.203,0.83-2.245,2.037-2.33c1.16-0.103,2.25,0.826,2.34,2.032l1.64,23.74
	c0.03,0.348-0.03,0.698-0.17,1.02c-0.21,0.486-2.28,4.818-9.46,7.106c-0.21,0.07-0.44,0.104-0.66,0.104H84.604z"/>
<path fill="#D4145A" d="M94.182,139.016c0,3.717-3.012,6.735-6.74,6.735c-3.723,0-6.734-3.021-6.734-6.729
	c0-3.721,3.012-6.74,6.734-6.74c3.728,0,6.74,3.01,6.74,6.74V139.016z"/>
<path fill="#F5F5F5" d="M81.704,102.28c0,6.79-5.504,12.298-12.29,12.298c-6.804,0-12.308-5.508-12.308-12.298
	c0-6.788,5.504-12.285,12.307-12.285C76.2,89.995,81.703,95.492,81.704,102.28L81.704,102.28z"/>
<path fill="#333333" d="M78.053,101.99c0,4.712-3.813,8.528-8.535,8.528c-4.71,0-8.54-3.816-8.54-8.528
	c0-4.716,3.83-8.536,8.54-8.536C74.241,93.454,78.053,97.274,78.053,101.99z"/>
<path fill="#F5F5F5" d="M123.885,102.28c0,6.79-5.506,12.298-12.293,12.298c-6.8,0-12.303-5.508-12.303-12.298
	c0-6.788,5.5-12.285,12.3-12.285c6.78,0,12.29,5.497,12.29,12.285H123.885z"/>
<path fill="#333333" d="M120.235,101.99c0,4.712-3.81,8.528-8.533,8.528c-4.71,0-8.535-3.816-8.535-8.528
	c0-4.716,3.824-8.536,8.535-8.536C116.424,93.454,120.235,97.274,120.235,101.99z"/>
<path fill="#333333" d="M48.768,88.627c0,0-3.51,67.4,8.205,90.844c0,0-25.19-1.42-30.47-17.24
	c-5.27-15.81-1.163-128.85,60.937-121.85h4.207c62.097-7,66.201,106.04,60.925,121.85c-5.271,15.83-30.468,18.371-30.468,18.371
	c11.72-23.451,4.012-96.23,4.012-96.23L100.92,52.04l-24.61,1.01L48.77,88.62L48.768,88.627z"/>
<path fill="#333333" d="M87.81,139.555c-8.065,0-14.386-4.099-14.386-9.326c0-0.91,0.734-1.649,1.64-1.649
	c0.906,0,1.64,0.729,1.64,1.64c0,3.271,5.09,6.04,11.105,6.04c6.01,0,11.09-2.77,11.09-6.05c0-0.91,0.73-1.65,1.64-1.65
	c0.9,0,1.64,0.73,1.64,1.641c0,5.22-6.32,9.32-14.38,9.32L87.81,139.555z"/>
<path fill="#333333" d="M90.256,56.684c0,0-27.346,40.64-55.1,38.73l29.434-40.76l25.57-6.004L90.256,56.684L90.256,56.684z"/>
<path fill="#333333" d="M89.796,56.948c0,0,23.51,43.012,51.265,41.102L115.19,54.653l-26.12-5.458L89.796,56.948L89.796,56.948z"/>
<path fill="#333333" d="M101.178,79.796c-0.152,0.024,1.914-0.48,4.377-0.558c1.26,0.03,2.717-0.052,4.234,0.173
	c1.53,0.11,3.12,0.37,4.69,0.75c1.58,0.26,3.09,0.76,4.5,1.22c1.43,0.4,2.71,0.88,3.78,1.38l3.57,1.54c0,0-1.54-0.26-3.82-0.67
	c-1.12-0.24-2.46-0.39-3.88-0.45c-1.43-0.11-2.93-0.25-4.44-0.15c-1.5,0-2.98,0.11-4.34,0.34c-1.38,0.12-2.6,0.49-3.64,0.7
	c-2.11,0.61-2.98,1.11-3.13,1.16c-1.5,0.54-3.14-0.24-3.66-1.74c-0.54-1.5,0.24-3.13,1.73-3.66L101.178,79.796z"/>
<path fill="#333333" d="M77.098,84.816c-0.105-0.02-1.404-0.52-3.865-1.04c-2.414-0.465-5.754-0.97-9.14-0.953
	c-1.696-0.05-3.41-0.026-4.997,0.16c-1.598,0.14-3.113,0.21-4.37,0.502c-2.563,0.477-4.27,0.8-4.27,0.8l4.04-1.66
	c1.2-0.56,2.685-0.948,4.272-1.426c1.582-0.54,3.313-0.93,5.066-1.25c3.504-0.74,7.123-0.96,9.873-1.01
	c2.713-0.01,4.787,0.29,4.682,0.27c1.54,0.36,2.5,1.9,2.15,3.44c-0.36,1.55-1.9,2.51-3.45,2.15L77.098,84.816z"/>
<path fill="#39B54A" d="M68.663,178.38H68.6H68.663z M104.87,178.38h0.066H104.87z"/>
<path fill="#0071BC" d="M94.772,159.334l-6.426,10.582l-6.568-10.941l-0.043-0.051c-1.072-0.068-2.053-0.038-2.953,0.08
	c-13.47,1.737-8.04,22.796-8.04,22.796l36.065-2.623C106.807,179.177,112.235,154.961,94.772,159.334L94.772,159.334z"/>
<path fill="#29D6F7" d="M83.893,184.158c-0.152,0-0.305-0.063-0.414-0.19l-7-8.215l2.32-2.8l-3.67-1l2.2-12.1
	c0.05-0.293,0.3-0.478,0.63-0.44c0.3,0.054,0.49,0.338,0.44,0.64l-2.03,11.104l4.34,1.189l-2.83,3.397l6.4,7.514
	c0.19,0.229,0.17,0.578-0.06,0.771c-0.1,0.087-0.23,0.13-0.36,0.13L83.893,184.158z M93.263,184.158
	c-0.124,0-0.25-0.044-0.354-0.131c-0.24-0.192-0.26-0.539-0.06-0.77l6.4-7.515l-2.83-3.398l4.34-1.189l-2.03-11.103
	c-0.06-0.302,0.14-0.586,0.44-0.64c0.31-0.043,0.58,0.147,0.64,0.44l2.2,12.1l-3.67,1l2.32,2.8l-7,8.214
	c-0.11,0.131-0.26,0.19-0.42,0.19L93.263,184.158z"/>
<path fill="#FCEE21" d="M26.62,178.38h149v51h-149V178.38z"/>
<path fill="#F7931E" d="M182.62,229.38h-49.696l23.25-51h26.445L182.62,229.38z"/>
<path fill="#FBB03B" d="M166.62,138.38h65v91h-65V138.38z"/>
</svg>
