<svg xmlns="http://www.w3.org/2000/svg" width="256" height="256" viewBox="0 0 256 256"><path d="M202.09 220.925c-7.244 0-12.93-1.253-13.17-1.307-1.444-.323-2.593-1.418-2.984-2.847-.07-.25-.112-.51-.13-.76-2.287.4-4.687.6-7.194.6-7.06 0-14.93-1.58-23.398-4.7-11.89-4.38-20.532-9.78-26.086-16.34-.67.45-1.443.68-2.22.68-.627 0-1.254-.14-1.83-.44-.103-.05-1.95-1.01-4.584-2.73-6.9 6.42-17.02 10.78-30.147 12.97-5.298.89-9.994 1.32-14.356 1.32-19.86 0-32.54-9.1-36.9-26.38-.71.06-1.41.1-2.08.1-6.48 0-14.7-2.89-17-16.67-1.15-6.88.57-13.55 4.29-17.69-4.06-6.06-7.83-13.44-8.25-20.37-.16.02-.32.03-.48.03-.74 0-1.49-.21-2.14-.62-1.38-.88-2.09-2.52-1.78-4.13.09-.43 2.15-10.74 11-21.63 8.07-9.92 23.6-22.3 51.73-24.89.1-.01.21-.01.31-.02h.77c-.35-2.09-.5-4.21-.44-6.34.38-14.94 10.28-27.67 24.65-31.72 3.51-1.27 7.14-1.92 10.79-1.92.28 0 .57 0 .85.01 8.31.22 16.04 3.64 21.81 9.55 5.86-5.4 13.46-8.42 21.46-8.42.27 0 .54 0 .81.01 3.94.1 7.82.94 11.52 2.51 14.15 4.79 23.37 18.01 22.98 32.94-.13 5.81-1.82 11.55-4.87 16.61-.18.44-.37.88-.57 1.33 4.04 1.31 8.1 3.12 12.13 5.41l3.44 1.27c20.23 3.87 33.79 14.72 40.31 32.26 11.22 30.22-2.83 71.67-11.06 81.95-5.45 6.82-14.83 10.42-27.13 10.42zm-91.67-181.85c.244 0 .49.003.737.01 9.006.23 16.828 4.773 21.764 11.548 5.14-6.34 12.89-10.424 21.61-10.424h.71c3.64.09 7.06.91 10.2 2.25 12.15 4.05 20.76 15.64 20.4 29.09-.13 5.48-1.77 10.55-4.47 14.92-.75 1.93-1.72 3.81-2.86 5.65 5.21 1.16 10.65 3.27 16.32 6.52l4.07 1.5c63.83 11.92 37.94 94.42 27.2 107.84-5.79 7.25-15.91 8.91-24 8.91-6.88 0-12.29-1.21-12.29-1.21 2.7-2.54 5.15-5.48 7.36-8.65-5.6 4.12-12.15 5.53-18.53 5.53-8.52 0-16.75-2.52-22.01-4.46-10.14-3.74-26.01-11.06-30.03-25.69-.11 3.27-.01 6.54.34 9.76 0 0-3.06-1.58-6.92-4.39-8.31 9.52-22.29 12.89-30.29 14.23-3.88.65-8.66 1.27-13.69 1.27-14.05 0-30.04-4.8-33.78-27.01-.4.15-.83.29-1.3.37-1.21.2-2.53.35-3.89.35-5.33 0-11.22-2.35-13.06-13.33-1.21-7.23 1.28-13.87 5.73-16.3-4.52-6.15-11.74-17.78-9.13-26.29 0 0 .56-1.27-.4-1.27-.64 0-1.97.57-4.6 2.49 0 0 7.4-38.52 59.18-43.29h.62c.92 0 2.82.01 5.25.13-1.11-3.25-1.7-6.74-1.61-10.37.35-13.46 9.55-24.6 21.88-28.01 3-1.11 6.2-1.74 9.56-1.74m0-8c-4.07 0-8.11.71-12.02 2.11-7.53 2.16-14.35 6.72-19.24 12.88-5.14 6.48-7.97 14.27-8.18 22.55-.02.93-.01 1.86.04 2.79-27.65 3.3-43.23 15.88-51.5 26.04-9.32 11.46-11.59 22.21-11.82 23.4-.62 3.23.8 6.5 3.57 8.26.38.24.78.45 1.18.62 1.04 5.82 3.8 11.65 6.96 16.76-3.2 4.93-4.5 11.6-3.34 18.56 2.07 12.37 9.36 19.61 20.05 19.99 5.53 17.05 19.44 26.32 39.88 26.32 4.59 0 9.5-.45 15.02-1.38 12.52-2.1 22.53-6.11 29.86-11.97 1.33.79 2.2 1.24 2.38 1.34 1.15.59 2.41.89 3.66.89.33 0 .66-.02.99-.07 5.98 6.18 14.58 11.31 25.94 15.49 8.91 3.29 17.25 4.95 24.78 4.95 1.6 0 3.16-.07 4.68-.22 1.13 1.57 2.81 2.71 4.76 3.15.25.05 6.36 1.4 14.04 1.4 13.56 0 24.02-4.12 30.25-11.92 5.1-6.37 10.54-20.4 13.54-34.9 2.79-13.46 4.72-33.22-1.86-50.94-6.9-18.58-21.76-30.58-42.98-34.74l-2.84-1.04c-2.72-1.53-5.46-2.86-8.21-3.97 2.4-4.89 3.72-10.24 3.85-15.65.22-8.26-2.2-16.18-6.99-22.91-4.56-6.4-11.14-11.32-18.55-13.86-4.13-1.72-8.45-2.66-12.84-2.77-.31-.01-.61-.01-.91-.01-7.76 0-15.19 2.52-21.31 7.11-6.11-5.1-13.73-8.02-21.85-8.23-.31-.01-.63-.02-.94-.02z" fill="#333"/><path fill="#ED1E79" d="M185.838 71.57c.354-13.453-8.254-25.046-20.4-29.098-3.145-1.346-6.564-2.16-10.198-2.254-9.008-.228-17.05 3.903-22.318 10.416-4.936-6.775-12.757-11.317-21.764-11.548-3.636-.1-7.09.538-10.298 1.726-12.334 3.413-21.536 14.55-21.88 28.007-.14 5.48 1.233 10.65 3.702 15.12 8.055 24.2 48.26 43.47 48.26 43.47s41.142-17.19 50.43-40.93c2.697-4.37 4.337-9.44 4.466-14.92z"/><path fill="#D3BD8D" d="M206.938 174.806c-2.98 8.08-4.218 15.062 1.444 17.15 5.67 2.09 14.246 3.52 19.076-9.59 2.975-8.087.798-16.326-4.874-18.414-5.666-2.084-12.67 2.77-15.646 10.854z"/><path fill="#C69C6D" d="M208.658 175.375c.85-2.26 2.27-4.667 4.19-6.445.97-.913 2.084-1.73 3.44-2.3 1.334-.547 3.048-.813 4.715-.223.605.29.497.188 1.043.53.44.27.793.567 1.05.84.59.568.997 1.21 1.35 1.862.662 1.3.274 2.39.423 3.71.28 2.65-.83 4.99-1.72 7.42l-.11.28c-.59 1.59-1.61 2.69-3.21 2.12-1.59-.57-2.07-2.19-1.51-3.78.04-.12.27-.18.32-.28.76-1.53 1.36-3.29 1.38-4.94.08-1.71-.52-3.02-.76-3.22-.14-.15-.58-.3-1.3-.13-.7.18-1.49.61-2.24 1.17-1.55 1.19-2.76 2.71-3.75 4.72l-.04.08c-.44.89-1.53 1.26-2.42.82-.85-.42-1.21-1.41-.89-2.27z"/><path fill="#fdb" d="M208.053 191.626c-10.593 28.752-39.134 21.06-51.457 16.52-14.028-5.165-39.04-17.195-28.45-45.946 10.595-28.756 21.213-66.763 64.14-50.95 43.353 15.967 26.355 51.623 15.767 80.376z"/><path fill="#333" d="M163.655 188.59c-.392 0-.784-.123-1.118-.384-5.89-4.58-7.642-10.208-7.713-10.444-.146-.487-.08-1.012.174-1.45l11.187-19.037c.502-.865 1.615-1.157 2.494-.645.86.505 1.15 1.625.64 2.49l-10.75 18.286c.62 1.473 2.39 4.97 6.19 7.93.79.62.93 1.76.31 2.553-.36.46-.9.7-1.44.7zm26.727-76.108s-9.838 36.754-26.03 35.293c0 0-6.02-4.63-21.32-10.26l23.433-29.982 25.82 3.715-1.903 1.234zm-.352.512s-.697 31.6-17.49 36.996c0 0 29.72 10.627 44.63 10.324 0 0 3.998-44.058-27.14-47.32zm-35.893 56.816c-1.662 0-3.35-.292-4.995-.895-3.634-1.338-6.527-4.014-8.15-7.527-1.624-3.513-1.782-7.454-.442-11.086.348-.936 1.39-1.418 2.337-1.08.94.348 1.423 1.396 1.073 2.34-.998 2.72-.88 5.67.332 8.302 1.217 2.632 3.387 4.638 6.11 5.64 5.616 2.05 11.872-.828 13.94-6.438.348-.94 1.393-1.42 2.336-1.076.942.346 1.425 1.392 1.076 2.334-2.155 5.852-7.717 9.487-13.617 9.487zm40.8 15.024c-1.657 0-3.344-.286-4.993-.892-3.63-1.337-6.53-4.014-8.15-7.527-1.622-3.514-1.78-7.454-.44-11.085.347-.947 1.384-1.42 2.334-1.073.945.34 1.427 1.39 1.077 2.33-1 2.72-.886 5.67.33 8.304 1.22 2.64 3.388 4.64 6.11 5.64 2.718 1 5.664.89 8.3-.32 2.63-1.22 4.633-3.39 5.638-6.11.352-.94 1.392-1.42 2.337-1.07.94.35 1.425 1.39 1.074 2.33-2.158 5.86-7.715 9.49-13.616 9.49zm-55.88-50.078s-15.135 30.624-12.15 57.473c0 0-23.28-11.95-22.744-29.13.537-17.18 34.35-96.76 90.66-64.44l4.07 1.5c63.827 11.92 37.937 94.42 27.202 107.84-10.73 13.42-36.3 7.7-36.3 7.7 19.677-18.5 25.734-57.94 25.734-57.94l-12.93-40.03-24.2-7.69-39.35 24.7z"/><path fill="#FF7BAC" d="M131.847 127.475l.47-1.456c.303-.93.982-2.73 1.91-4.51 1.933-3.67 5.357-8.85 11.192-13.13 5.74-4.29 13.58-7.83 22.39-8.91 8.79-1.13 18.35-.04 27.17 3.11 1.26.51 1.93.74 3.17 1.3 1.13.49 2.22 1 3.24 1.53 2.08 1.05 4.1 2.23 6.02 3.52 3.87 2.54 7.29 5.61 10.28 8.87 5.95 6.58 9.77 14.29 11.27 21.33 1.62 7.05.89 13.21-.02 17.25-.47 2.03-1.05 3.57-1.45 4.62l-.65 1.57c-.81 1.97-3.06 2.91-5.03 2.1-1.86-.77-2.8-2.81-2.23-4.69l.03-.08s.56-1.82.96-5.04c.4-3.22.3-7.91-1.34-13.22-1.61-5.29-4.91-11.11-9.82-16.15-2.45-2.54-5.32-4.84-8.43-6.87-1.56-1.02-3.19-1.95-4.88-2.78-.87-.44-1.7-.81-2.5-1.16-.69-.32-2.03-.8-2.73-1.08-7.1-2.71-14.81-3.75-21.81-3.01-7 .73-13.35 2.86-17.97 5.94-4.66 3.01-7.79 6.49-9.57 9.21-.9 1.44-1.46 2.29-1.91 3.2-.44.89-.67 1.37-.67 1.37-.94 1.91-3.25 2.71-5.16 1.77-1.74-.86-2.56-2.86-1.98-4.65z"/><path fill="#333" d="M137.372 163.55c-.738 0-1.436-.456-1.706-1.19-.35-.944.134-1.987 1.076-2.333l4.745-1.753c.956-.34 1.99.13 2.335 1.074.35.944-.132 1.99-1.077 2.337l-4.744 1.75c-.2.077-.42.115-.62.115zm2.148 4.653c-.74 0-1.44-.454-1.708-1.188-.35-.943.133-1.99 1.076-2.333l4.75-1.755c.946-.333 1.988.14 2.335 1.077.35.94-.132 1.986-1.074 2.332l-4.76 1.754c-.21.074-.42.113-.63.113zm38.652 10.374c-.74 0-1.435-.456-1.705-1.19-.35-.945.134-1.988 1.076-2.333l4.745-1.754c.95-.342 1.988.132 2.333 1.073.36.946-.13 1.99-1.07 2.338l-4.74 1.75c-.21.08-.42.12-.63.12zm2.143 4.653c-.737 0-1.433-.453-1.704-1.19-.34-.94.14-1.983 1.08-2.328l4.75-1.756c.96-.335 1.99.137 2.34 1.076.35.94-.13 1.99-1.07 2.332l-4.74 1.755c-.21.07-.42.11-.63.11z"/><path fill="#F4D1B0" d="M45.522 160.11c1.412 8.5 1.34 15.588-4.62 16.593-5.954.99-14.65.81-16.958-12.976-1.42-8.49 2.25-16.184 8.208-17.184 5.958-1.005 11.942 5.075 13.37 13.567z"/><path fill="#C69C6D" d="M43.713 160.354c-.412-2.38-1.364-5.01-2.913-7.118-.787-1.064-1.734-2.077-2.95-2.893-1.216-.785-2.854-1.368-4.598-1.1-.648.18-.533.095-1.12.333-.49.188-.883.4-1.198.63-.676.447-1.197 1.01-1.664 1.58-.896 1.16-1.607 2.45-2 3.718-.77 2.558-1.01 5.222-.583 7.765l.047.29c.285 1.66 1.98 2.78 3.646 2.52 1.672-.26 2.894-1.84 2.634-3.52-.02-.11-.015-.25-.05-.36-.463-1.65-.61-3.51-.31-5.15.228-1.69 1.117-2.88 1.387-3.03.17-.12.66-.19 1.32.11.66.31 1.37.87 2 1.57 1.3 1.45 2.22 3.18 2.81 5.34l.03.08c.27.96 1.27 1.52 2.23 1.26.91-.26 1.46-1.16 1.3-2.07z"/><path fill="#fdb" d="M126.167 162.2c5.062 30.233-23.533 37.712-36.48 39.878-14.745 2.475-42.43 4.42-47.49-25.79-5.076-30.226-14.7-68.492 30.413-76.056 45.562-7.635 48.494 31.762 53.557 61.97z"/><path fill="#333" d="M28.67 144.035l11.932 21.875 7.074-29.04m81.006-8.077l-4.005 23.023-16.162-25.142"/><path fill="#333" d="M87.606 181.442c-.656 0-1.292-.36-1.62-.987-.453-.89-.103-1.995.786-2.45 4.424-2.275 5.717-5.625 6.032-6.726l-5.664-20.01c-.27-.97.286-1.98 1.25-2.25.996-.28 1.98.29 2.247 1.25l5.798 20.46c.075.26.09.53.047.8-.04.25-1.113 6.13-8.04 9.69-.27.13-.553.2-.833.2zm18.12-72.672s-9.96 17.278-36.463 23.56l10.86-15.602s-25.79 24.227-40.682 26.726l-3.49 1.035-2.93 7.15s-16.17-18.41-12.46-30.51c0 0 1.56-3.55-5 1.22 0 0 7.41-38.52 59.18-43.3 0 0 28.25-.45 32.54 8.7 3.27 6.99-1.53 21-1.53 21zm-4.073-2.385s3.44 20.544 11.94 27.393l13.81.258s5.158-21.35 4.264-26.715c-.902-5.35-6.873-21.8-25.34-16.87-18.456 4.93-4.674 15.94-4.674 15.94zm-16.476 30.57s1.576-1.47 4.102-3.177c2.54-1.744 6.14-3.816 10.1-5.214 1.96-.718 4-1.313 5.97-1.653 1.95-.39 3.83-.58 5.45-.6 1.62-.07 2.98 0 3.93.11.95.08 1.5.14 1.5.14 1.8.15 3.13 1.73 2.98 3.52-.15 1.81-1.73 3.15-3.54 3-.1-.01-.19-.02-.28-.04l-.3-.05-1.2-.2c-.75-.16-1.84-.33-3.17-.38-1.33-.1-2.9-.1-4.58.08-1.68.13-3.49.48-5.26.94-3.58.91-7.03 2.47-9.48 3.84-2.51 1.38-3.93 2.48-3.93 2.48-.79.62-1.93.48-2.54-.31-.59-.75-.5-1.79.18-2.43l.03-.02zm-12.437 5.252s-1.704-.592-4.52-1.075c-2.77-.486-6.535-.845-10.21-.54-1.827.14-3.65.405-5.28.83-1.65.375-3.14.89-4.363 1.41-1.24.493-2.202 1.006-2.87 1.402l-1.058.582-.26.146c-1.59.876-3.57.293-4.44-1.28-.88-1.594-.3-3.582 1.28-4.453.08-.05.17-.09.26-.13 0 0 .49-.23 1.37-.61.85-.41 2.11-.93 3.67-1.38 1.53-.51 3.38-.94 5.36-1.21 1.97-.32 4.08-.42 6.18-.39 4.2.04 8.27.1 11.23.92 2.95.79 4.9.94 4.9.94h.03c.89 0 1.33 2.21.92 3.13-.39.85-1.36 1.99-2.24 1.69zm-11.4 29.697c-6.94 0-13.094-5.022-14.282-12.098-.168-.99.5-1.932 1.49-2.096 1.03-.132 1.934.503 2.1 1.49.99 5.898 6.558 9.917 12.498 8.914 2.86-.476 5.36-2.04 7.047-4.397 1.685-2.36 2.348-5.24 1.866-8.104-.17-.986.5-1.932 1.49-2.097 1.02-.144 1.93.51 2.09 1.49.64 3.824-.25 7.665-2.5 10.826-2.25 3.146-5.59 5.232-9.41 5.87-.81.132-1.61.202-2.41.202zm42.856-7.18c-2.984 0-5.89-.93-8.374-2.698-3.154-2.246-5.24-5.59-5.88-9.41-.167-.994.5-1.93 1.495-2.095.97-.13 1.928.51 2.093 1.5.48 2.86 2.043 5.37 4.406 7.05 2.358 1.69 5.242 2.35 8.09 1.87 2.865-.48 5.37-2.05 7.054-4.41 1.682-2.36 2.345-5.23 1.86-8.09-.165-.99.502-1.93 1.493-2.09 1.04-.13 1.93.51 2.1 1.49.638 3.82-.243 7.66-2.493 10.82-2.245 3.15-5.586 5.25-9.41 5.89-.814.14-1.624.21-2.434.21z"/><path fill="#F48B73" d="M164.564 197.78c-1.587 4.312-5.85 6.718-9.51 5.37-3.665-1.354-5.352-5.944-3.76-10.258 1.587-4.31 5.848-6.708 9.51-5.366 3.668 1.356 5.354 5.944 3.76 10.253z"/><radialGradient id="a" cx="-16.27" cy="189.923" r="29.997" gradientTransform="matrix(.375 -.106 .106 .375 51.233 107.777)" gradientUnits="userSpaceOnUse"><stop offset="0" stop-color="#FF585D"/><stop offset="1" stop-color="#FF585D" stop-opacity="0"/></radialGradient><circle opacity=".4" fill="url(#a)" cx="65.261" cy="180.761" r="11.695"/><radialGradient id="b" cx="98.72" cy="189.924" r="29.997" gradientTransform="matrix(.375 -.106 .106 .375 51.233 107.777)" gradientUnits="userSpaceOnUse"><stop offset="0" stop-color="#FF585D"/><stop offset="1" stop-color="#FF585D" stop-opacity="0"/></radialGradient><circle opacity=".4" fill="url(#b)" cx="108.405" cy="168.572" r="11.696"/><radialGradient id="c" cx="175.484" cy="264.151" r="30.003" gradientTransform="matrix(.373 .113 -.113 .373 104.652 58.824)" gradientUnits="userSpaceOnUse"><stop offset="0" stop-color="#FF585D"/><stop offset="1" stop-color="#FF585D" stop-opacity="0"/></radialGradient><circle opacity=".4" fill="url(#c)" cx="140.303" cy="177.19" r="11.696"/><radialGradient id="d" cx="290.499" cy="264.158" r="30.003" gradientTransform="matrix(.373 .113 -.113 .373 104.652 58.824)" gradientUnits="userSpaceOnUse"><stop offset="0" stop-color="#FF585D"/><stop offset="1" stop-color="#FF585D" stop-opacity="0"/></radialGradient><circle opacity=".4" fill="url(#d)" cx="183.214" cy="190.178" r="11.696"/><path fill="#333" d="M87.463 191.23c-9.472 0-17.205-7.8-17.56-8.16-.7-.717-.687-1.865.033-2.568.71-.7 1.868-.686 2.568.026.08.077 8.22 8.196 16.958 6.915 5.27-.816 9.84-4.962 13.58-12.324.454-.9 1.546-1.27 2.448-.8.894.45 1.248 1.55.794 2.44-4.306 8.48-9.784 13.27-16.29 14.27-.854.13-1.698.19-2.53.19zm75.665 8.42c-3.567 0-6.69-.814-9.328-2.438-6.933-4.272-7.8-12.484-7.83-12.83-.102-.998.627-1.885 1.628-1.983 1.065-.1 1.885.63 1.988 1.62.01.06.758 6.8 6.15 10.1 4.468 2.74 10.922 2.49 19.168-.71.957-.37 1.99.1 2.355 1.04.36.93-.11 1.98-1.04 2.35-4.87 1.89-9.25 2.83-13.1 2.83z"/></svg>