<svg xmlns="http://www.w3.org/2000/svg" width="256" height="256" viewBox="0 0 256 256"><path fill="#ED1E79" d="M132.09 209.063c-8.11 0-16.163-1.095-23.938-3.253-14.147-3.864-27.36-11.364-37.187-21.114-2.586-2.567-4.928-5.193-6.983-7.83-11.842-.163-22.305-2.672-22.758-2.782l-1.742-.423-.844-1.58c-.62-1.16-15.033-28.52-9.455-46.68.61-4.2 2.295-8.17 4.884-11.5 4.68-6.04 11.76-9.51 19.42-9.51.208 0 .415.01.622.01.42-1.74.9-3.46 1.46-5.15 1.47-4.84 3.85-10.02 7.05-15.33 2.76-4.77 6.83-9.93 11.72-14.84 5.18-5.06 10.68-9.13 16.84-12.48 6.35-3.44 13.19-6 20.34-7.62 5.9-1.34 12.04-2.03 18.26-2.03 8.53 0 16.89 1.26 24.85 3.75 13.43 4.11 25.42 11.8 33.74 21.65 2.05 2.41 3.88 4.88 5.47 7.35.71-.38 1.45-.73 2.2-1.03 2.43-.97 5.02-1.47 7.71-1.49.56-.04 1.13-.06 1.69-.06 9.35 0 17.61 5.61 21.06 14.29 1.43 3.59 1.9 7.52 1.38 11.38.23 14.94-14.12 31.95-18.82 37.12-.17 1.25-.36 2.44-.57 3.62-.83 5.27-2.47 11.2-4.86 17.54-2.3 6.01-5.59 12.03-10.08 18.41l-.06.09-3.26 4.14-4.02 4.3-.08.08c-2.92 2.81-5.96 5.32-9.02 7.48-6.47 4.51-14.01 8.07-21.83 10.31-7.38 2.14-15.2 3.23-23.25 3.23zm-35.7-42.446c5.274 5.724 12.495 10.697 20.32 13.935 7.74 3.24 16.26 4.95 24.646 4.95 3.12 0 6.215-.24 9.198-.717 5.946-.933 11.545-2.766 16.65-5.45 2.4-1.276 4.795-2.803 7.3-4.654l3.23-2.66 3.29-3.26c4.14-4.66 7.483-9.35 9.67-13.58 2.54-4.86 4.452-9.42 5.7-13.6-10.352-1.43-24.854-4.92-32.56-13.34-3.037-2.45-5.39-5.63-6.812-9.23-3.684-9.27-.954-19.68 6.79-25.95.156-.14.315-.29.478-.43-.253-.43-.52-.88-.8-1.33-3.81-6.09-10.517-11.66-18.404-15.29-7.424-3.47-16.18-5.37-24.674-5.37-1.786 0-3.58.09-5.33.25-5.372.49-10.607 1.69-15.577 3.59-4.63 1.75-9.468 4.43-13.638 7.55-1.83 1.33-4.4 3.52-5.897 5.02l-.118.12c-1.798 1.66-3.497 3.46-5.05 5.37-3.232 3.93-5.747 7.78-7.484 11.44-.563 1.13-1.084 2.26-1.565 3.4 1.418.69 2.75 1.52 3.98 2.48 4.477 3.47 7.445 8.38 8.5 13.88.473-.03.948-.04 1.423-.04 5.173 0 10.06 1.67 14.134 4.83 2.25 1.75 4.15 3.9 5.653 6.41 6.2 8.9 5.907 20.6-.747 29.17-.705.91-1.475 1.77-2.305 2.57z"/><path fill="#333" d="M129.788 50.936c8.1 0 16.154 1.22 23.664 3.567 12.936 3.96 24.285 11.43 31.875 20.413 2.915 3.436 5.373 6.98 7.268 10.485 1.427-1.24 3.075-2.28 4.94-3.02 2.103-.84 4.27-1.21 6.403-1.21.51-.04 1.02-.06 1.53-.06 7.416 0 14.437 4.44 17.34 11.76 1.267 3.19 1.57 6.51 1.09 9.67.465 14.77-16.2 33.02-18.615 35.58-.19 1.53-.42 3.09-.708 4.7-.832 5.32-2.45 10.97-4.66 16.83-2.262 5.92-5.43 11.58-9.604 17.52-1.01 1.3-2.04 2.61-3.08 3.92l-3.83 4.1c-2.63 2.53-5.47 4.93-8.54 7.1-6.17 4.3-13.22 7.61-20.62 9.74-7.22 2.1-14.71 3.07-22.14 3.07-7.84 0-15.6-1.09-22.87-3.1-14.2-3.88-26.6-11.33-35.43-20.1-2.96-2.94-5.59-5.96-7.81-8.98l-.79.01c-11.98 0-23-2.68-23-2.68s-14.5-27.18-9.08-43.93c.46-3.52 1.81-6.94 4.13-9.93 4.05-5.23 10.12-7.96 16.26-7.96 1.27 0 2.53.11 3.78.35.49-2.61 1.17-5.37 2.11-8.25 1.44-4.72 3.73-9.62 6.68-14.51 2.84-4.9 6.85-9.78 11.13-14.08 4.71-4.6 9.91-8.52 15.92-11.78 5.96-3.23 12.5-5.69 19.31-7.23 5.69-1.3 11.54-1.93 17.37-1.93m-55.16 77.3c1.64-.42 3.32-.64 5-.64 4.09 0 8.2 1.29 11.69 3.99 1.98 1.54 3.55 3.4 4.74 5.42 5.1 7.22 5.16 17.2-.54 24.54-1.39 1.8-3.03 3.29-4.83 4.48l.11.14c5.24 6.77 13.65 13.6 24.37 18.04 7.87 3.3 16.95 5.26 26.18 5.26 3.27 0 6.57-.24 9.83-.76 6.23-.97 12.33-2.94 17.88-5.86 2.77-1.47 5.4-3.18 7.91-5.04l3.45-2.84 3.51-3.48c3.9-4.37 7.69-9.4 10.32-14.49 2.67-5.11 4.85-10.23 6.24-15.17.38-1.25.73-2.48 1.04-3.69-7.79-.75-26.66-3.5-34.94-12.84-2.53-1.97-4.58-4.6-5.84-7.78-3.1-7.81-.56-16.46 5.7-21.45.9-.85 1.91-1.6 3-2.26-.69-1.5-1.55-3.05-2.54-4.64-3.84-6.14-10.8-12.52-20.13-16.8-7.7-3.6-16.92-5.73-26.34-5.73-1.89 0-3.8.09-5.7.27-5.67.51-11.31 1.81-16.63 3.84-5.27 1.99-10.38 4.92-14.6 8.08-2.06 1.49-4.75 3.81-6.33 5.39-2 1.84-3.8 3.77-5.44 5.78-3.27 3.99-6.04 8.12-8 12.26-1.26 2.53-2.28 5.02-3.11 7.42.08.03.17.06.25.09 2.27.66 4.45 1.7 6.43 3.25 4.91 3.81 7.41 9.54 7.38 15.33M129.82 43c-6.51 0-12.96.715-19.16 2.13-7.49 1.69-14.68 4.38-21.34 8-6.49 3.53-12.27 7.81-17.69 13.093l-.04.04-.04.04c-5.112 5.13-9.39 10.55-12.35 15.66-3.33 5.54-5.82 10.98-7.41 16.17-.26.8-.5 1.6-.74 2.41-7.94.673-15.16 4.58-20.1 10.96-2.94 3.79-4.88 8.3-5.63 13.07-5.73 19.373 8.21 46.39 9.84 49.44l1.69 3.17 3.49.85c.45.11 10.25 2.46 21.74 2.85 1.86 2.268 3.91 4.516 6.13 6.717 10.31 10.23 24.15 18.09 38.97 22.14 8.09 2.25 16.51 3.39 24.98 3.39 8.42 0 16.62-1.14 24.37-3.39 8.33-2.39 16.06-6.045 22.97-10.854 3.26-2.3 6.45-4.94 9.52-7.89l.15-.15.15-.16 3.83-4.1.23-.25.21-.27 1.137-1.44 1.95-2.48.13-.17.12-.18c4.675-6.65 8.12-12.95 10.53-19.26 2.49-6.59 4.193-12.76 5.08-18.36.14-.81.275-1.63.4-2.46 6.175-6.93 19.105-23.27 19.04-38.66.553-4.45-.02-8.96-1.664-13.1-4.05-10.21-13.78-16.81-24.78-16.81-.614 0-1.24.02-1.855.06-2.882.034-5.68.54-8.33 1.503-1.19-1.66-2.474-3.31-3.853-4.93-8.8-10.41-21.46-18.55-35.63-22.89-8.31-2.6-17.07-3.92-26.01-3.92zm-58.9 62.75l.03-.063c1.6-3.37 3.94-6.933 6.95-10.6 1.46-1.78 3.03-3.444 4.68-4.974l.12-.11.12-.11c1.38-1.37 3.74-3.38 5.38-4.57l.047-.03.04-.03c3.87-2.9 8.36-5.38 12.64-7 4.65-1.78 9.53-2.9 14.52-3.35 1.65-.15 3.32-.23 4.98-.23 7.92 0 16.07 1.77 22.95 4.99l.02.01.02.01c6.54 3 12.15 7.42 15.68 12.29-7.41 7.47-9.76 18.57-5.79 28.56 1.64 4.14 4.32 7.82 7.78 10.67 7.36 7.87 19.74 11.72 29.98 13.61-1.05 2.71-2.36 5.57-3.92 8.55-2.04 3.94-5.16 8.31-9.04 12.7l-3.07 3.05-3.01 2.48c-2.32 1.71-4.52 3.11-6.74 4.29-4.68 2.46-9.86 4.16-15.36 5.02-2.8.45-5.68.67-8.59.67-7.86 0-15.846-1.6-23.09-4.63-6.13-2.54-11.83-6.188-16.383-10.4 7.68-9.92 8.04-23.44.92-33.76-1.75-2.89-3.96-5.37-6.57-7.396-4.34-3.36-9.46-5.28-14.906-5.61-1.65-5.124-4.79-9.66-9.15-13.05-.42-.322-.85-.634-1.28-.933z"/><path fill="#FFB0DA" d="M204.364 107.59s.79 3.423 1.328 9.57c.426 6.12.773 15.048-1.117 25.644-.832 5.315-2.45 10.973-4.66 16.827-2.262 5.92-5.43 11.58-9.604 17.52-1.01 1.3-2.04 2.61-3.08 3.92l-3.83 4.1c-2.63 2.53-5.47 4.93-8.54 7.1-6.17 4.3-13.22 7.61-20.62 9.74-14.84 4.31-30.86 3.9-45.01-.03-14.2-3.88-26.6-11.33-35.43-20.1-4.4-4.37-8.09-8.92-10.75-13.39-2.77-4.41-4.6-8.64-5.98-12.16-1.22-3.59-2.09-6.46-2.47-8.46-.44-1.99-.68-3.06-.68-3.06l27.22-3.61.19 1.89c.04 1.26.39 3.04.81 5.35.59 2.26 1.34 5.03 2.76 8.06 1.29 3.08 3.34 6.36 5.96 9.75 5.24 6.77 13.65 13.6 24.37 18.04 10.66 4.46 23.53 6.48 36 4.49 6.23-.98 12.33-2.94 17.89-5.86 2.77-1.48 5.4-3.19 7.9-5.04l3.45-2.85 3.51-3.48c3.89-4.37 7.68-9.41 10.31-14.49 2.67-5.11 4.85-10.23 6.24-15.17 3.02-9.85 3.75-18.59 4.05-24.65.21-6.1-.17-9.6-.17-9.6zM57.48 132.315s-.897-3.066-1.194-8.668c-.305-5.57.023-13.782 3.086-23.168 1.44-4.73 3.732-9.62 6.676-14.52 2.84-4.91 6.852-9.79 11.133-14.08 4.72-4.6 9.92-8.53 15.92-11.79 5.96-3.24 12.51-5.7 19.31-7.23 13.61-3.11 28.13-2.4 41.05 1.63 12.94 3.96 24.29 11.43 31.88 20.41 3.79 4.46 6.81 9.11 8.82 13.6 2.1 4.45 3.3 8.62 4.11 12.08.68 3.47 1.09 6.25 1.18 8.13l.23 2.9-27.45-.41.09-1.64c.14-1.09.08-2.64.01-4.64-.19-1.98-.49-4.38-1.33-7.06-.74-2.72-2.15-5.64-4.07-8.72-3.84-6.15-10.81-12.53-20.13-16.81-9.25-4.33-20.69-6.54-32.04-5.47-5.67.51-11.31 1.8-16.63 3.83-5.28 2-10.38 4.92-14.61 8.08-2.06 1.49-4.75 3.81-6.33 5.39-2 1.84-3.8 3.77-5.44 5.77-3.28 3.98-6.04 8.12-8 12.25-4.11 8.21-5.64 16.01-6.13 21.44-.52 5.48-.09 8.65-.09 8.65z"/><path fill="#ED1E79" d="M37.228 116.342c5.686-7.342 15.35-9.78 23.617-6.62 2.268.657 4.447 1.702 6.432 3.248 4.912 3.813 7.404 9.54 7.383 15.324 5.594-1.464 11.758-.474 16.682 3.342 1.98 1.534 3.55 3.396 4.742 5.42 5.1 7.217 5.156 17.196-.545 24.54-2.32 2.99-5.32 5.144-8.6 6.456-14.87 9.418-44.78 2.146-44.78 2.146s-14.49-27.17-9.07-43.92c.45-3.52 1.8-6.94 4.12-9.936zm123.512 1.185c-3.103-7.817-.562-16.466 5.692-21.456 1.56-1.46 3.383-2.68 5.492-3.52 5.23-2.07 10.836-1.39 15.336 1.28 1.436-5.02 5.037-9.37 10.275-11.45 2.102-.84 4.27-1.21 6.402-1.21 7.965-.66 15.768 3.88 18.87 11.7 1.267 3.19 1.57 6.51 1.09 9.67.5 15.93-18.915 35.9-18.915 35.9s-27.836-1.19-38.398-13.11c-2.53-1.97-4.583-4.6-5.843-7.78z"/></svg>