<svg xmlns="http://www.w3.org/2000/svg" width="256" height="256" viewBox="0 0 256 256"><path fill="#333" d="M202.09 220.925c-7.244 0-12.93-1.253-13.17-1.307-1.443-.323-2.593-1.418-2.984-2.847-.07-.25-.11-.51-.13-.76-2.286.4-4.687.6-7.194.6-7.06 0-14.93-1.58-23.396-4.7-11.89-4.38-20.53-9.78-26.086-16.34-.67.45-1.45.68-2.22.68-.63 0-1.26-.14-1.83-.44-.11-.05-1.95-1.01-4.59-2.72-6.9 6.42-17.02 10.78-30.15 12.97-5.3.9-10 1.32-14.36 1.32-19.86 0-32.54-9.1-36.9-26.38-.71.06-1.41.11-2.08.11-6.48 0-14.7-2.89-17-16.67-1.15-6.88.57-13.55 4.29-17.69-4.06-6.06-7.83-13.44-8.25-20.37-.16.02-.32.03-.48.03-.74 0-1.49-.21-2.14-.62-1.38-.88-2.09-2.52-1.78-4.13.09-.43 2.15-10.74 11-21.63 8.07-9.92 23.6-22.3 51.73-24.89.1-.01.21-.01.31-.02h.77c-.35-2.09-.5-4.21-.44-6.34.38-14.94 10.28-27.67 24.65-31.72 3.51-1.27 7.14-1.92 10.79-1.92.28 0 .57 0 .85.01 8.31.22 16.04 3.64 21.81 9.55 5.86-5.4 13.46-8.42 21.46-8.42.27 0 .54 0 .81.01 3.94.1 7.82.94 11.523 2.51 14.15 4.79 23.37 18.01 22.98 32.94-.13 5.81-1.82 11.55-4.87 16.61-.18.44-.37.88-.57 1.33 4.042 1.31 8.102 3.12 12.132 5.41l3.44 1.27c20.23 3.87 33.79 14.72 40.31 32.26 11.22 30.22-2.83 71.67-11.06 81.95-5.45 6.82-14.83 10.42-27.13 10.42l-.05-.04.006-.01v-.01zm-91.67-181.85c.244 0 .49.003.737.01 9.006.23 16.828 4.773 21.764 11.548 5.14-6.34 12.89-10.424 21.61-10.424h.71c3.64.09 7.06.91 10.2 2.25 12.15 4.05 20.76 15.64 20.4 29.09-.13 5.48-1.77 10.55-4.47 14.92-.75 1.93-1.72 3.81-2.86 5.65 5.21 1.16 10.65 3.27 16.32 6.52l4.07 1.5c63.83 11.92 37.94 94.41 27.2 107.83-5.79 7.25-15.91 8.91-24 8.91-6.88 0-12.29-1.21-12.29-1.21 2.7-2.54 5.15-5.48 7.36-8.65-5.6 4.12-12.15 5.53-18.53 5.53-8.52 0-16.75-2.52-22.01-4.46-10.14-3.74-26.01-11.06-30.03-25.69-.11 3.27-.01 6.54.34 9.76 0 0-3.06-1.58-6.92-4.39-8.31 9.52-22.29 12.89-30.29 14.23-3.88.64-8.66 1.27-13.69 1.27-14.05 0-30.04-4.8-33.78-27.01-.4.15-.83.29-1.3.37-1.21.2-2.53.35-3.89.35-5.33 0-11.22-2.35-13.06-13.33-1.21-7.23 1.28-13.87 5.73-16.3-4.52-6.15-11.74-17.78-9.13-26.29 0 0 .56-1.27-.4-1.27-.64 0-1.97.57-4.6 2.49 0 0 7.4-38.52 59.18-43.29h.62c.92 0 2.82.01 5.25.13-1.11-3.25-1.7-6.74-1.61-10.37.35-13.46 9.55-24.6 21.88-28.01 3-1.11 6.2-1.74 9.56-1.74"/><path fill="#333" d="M110.49 31.01c-4.07 0-8.11.71-12.02 2.11-7.53 2.16-14.35 6.72-19.24 12.88-5.14 6.48-7.97 14.27-8.18 22.55-.02.93-.01 1.86.04 2.79-27.65 3.3-43.23 15.88-51.5 26.04-9.32 11.46-11.59 22.21-11.82 23.4-.62 3.23.8 6.5 3.57 8.26.38.24.78.448 1.18.62 1.04 5.818 3.8 11.648 6.96 16.76-3.2 4.93-4.5 11.6-3.34 18.56 2.07 12.37 9.36 19.61 20.05 19.99 5.53 17.05 19.44 26.32 39.88 26.32 4.59 0 9.5-.45 15.02-1.38 12.52-2.102 22.53-6.11 29.86-11.97 1.33.788 2.2 1.235 2.38 1.34 1.15.59 2.41.89 3.66.89.33 0 .66-.02.99-.07 5.98 6.18 14.58 11.31 25.94 15.49 8.91 3.29 17.25 4.95 24.78 4.95 1.6 0 3.16-.07 4.68-.222 1.132 1.57 2.812 2.71 4.76 3.15.25.05 6.36 1.4 14.042 1.4 13.56 0 24.02-4.12 30.25-11.92 5.1-6.37 10.54-20.4 13.54-34.9 2.79-13.46 4.72-33.22-1.86-50.94-6.9-18.58-21.76-30.58-42.98-34.74l-2.84-1.04c-2.72-1.53-5.46-2.86-8.21-3.97 2.4-4.89 3.72-10.24 3.85-15.65.226-8.26-2.194-16.18-6.99-22.91-4.56-6.4-11.14-11.32-18.544-13.86-4.13-1.72-8.45-2.66-12.84-2.77-.31-.01-.61-.01-.91-.01-7.76 0-15.19 2.52-21.31 7.11-6.11-5.1-13.73-8.02-21.85-8.23-.31-.01-.63-.02-.94-.02l-.05-.01-.008.002z"/><path fill="#ED1E79" d="M185.838 71.57c.354-13.453-8.254-25.046-20.4-29.098-3.145-1.346-6.563-2.16-10.194-2.254-9-.228-17.05 3.903-22.31 10.416-4.93-6.775-12.75-11.317-21.76-11.548-3.63-.1-7.09.538-10.3 1.726-12.33 3.413-21.53 14.55-21.88 28.007-.14 5.48 1.24 10.65 3.71 15.12 8.06 24.2 48.26 43.47 48.26 43.47s41.14-17.19 50.43-40.93c2.7-4.37 4.34-9.44 4.47-14.92v.01h-.026z"/><path fill="#D3BD8D" d="M206.938 174.807c-2.98 8.08-4.217 15.063 1.444 17.15 5.67 2.09 14.246 3.52 19.076-9.59 2.976-8.088.798-16.327-4.874-18.415-5.666-2.084-12.67 2.77-15.646 10.855z"/><path fill="#C69C6D" d="M208.658 175.375c.85-2.26 2.27-4.667 4.19-6.445.97-.912 2.083-1.73 3.44-2.3 1.33-.547 3.044-.813 4.71-.223.61.29.5.188 1.05.53.44.27.8.563 1.05.84.59.564 1 1.21 1.352 1.86.67 1.302.28 2.392.43 3.712.27 2.64-.83 4.95-1.73 7.42l-.107.27c-.59 1.59-1.61 2.68-3.21 2.12-1.59-.57-2.07-2.19-1.51-3.78.04-.12.27-.18.32-.28.76-1.53 1.36-3.29 1.38-4.94.08-1.71-.52-3.02-.76-3.22-.14-.15-.58-.3-1.3-.13-.7.18-1.49.61-2.24 1.17-1.55 1.19-2.76 2.71-3.75 4.72l-.04.08c-.44.89-1.53 1.26-2.42.82-.85-.42-1.21-1.41-.89-2.27l.04.03.01.01h-.015z"/><path fill="#fdb" d="M208.053 191.626c-10.593 28.752-39.134 21.06-51.457 16.52-14.027-5.165-39.04-17.19-28.45-45.942 10.595-28.75 21.213-66.76 64.14-50.95 43.353 15.97 26.354 51.63 15.767 80.38v-.008z"/><path fill="#333" d="M168.68 156.63c-.88-.51-1.992-.218-2.494.646l-.365.62c-.63.094-1.2.516-1.44 1.163-2.07 5.61-8.32 8.49-13.94 6.44-2.72-1-4.89-3.01-6.11-5.64-1.22-2.65-1.33-5.58-.34-8.32.35-.95-.14-1.99-1.08-2.34-.95-.34-1.99.14-2.34 1.08-1.34 3.63-1.18 7.57.44 11.09 1.63 3.51 4.52 6.19 8.15 7.52 1.65.6 3.33.89 5 .89v-.01l.04-.02c1.81 0 3.58-.35 5.24-.99L155 176.3c-.25.437-.32.96-.17 1.448.07.236 1.82 5.865 7.72 10.445.33.257.718.38 1.104.38.537-.003 1.072-.24 1.43-.7.62-.79.48-1.93-.31-2.55-3.8-2.96-5.57-6.458-6.19-7.93l10.75-18.288c.51-.866.22-1.986-.64-2.49l-.014.015zm-5.026 31.96h-.006.006zm-.006 0l-.008-.002h-.01l.018.002zm31.29-3.756l.004.007-.02.03v.02c5.9 0 11.46-3.63 13.62-9.49.35-.93-.13-1.97-1.07-2.33-.95-.35-1.99.14-2.34 1.07-1 2.72-3 4.89-5.63 6.11-2.64 1.22-5.59 1.32-8.3.32-2.73-1-4.892-3-6.11-5.64-1.218-2.64-1.33-5.59-.33-8.31.35-.94-.13-1.99-1.07-2.33-.95-.35-1.984.13-2.338 1.07-1.34 3.63-1.18 7.57.44 11.08 1.62 3.51 4.52 6.19 8.15 7.52 1.65.61 3.335.89 4.993.89v-.01zm3.957-84.674l-4.07-1.5c-56.31-32.32-90.12 47.26-90.66 64.44-.536 17.18 22.744 29.128 22.744 29.128-2.99-26.85 12.15-57.474 12.15-57.474l-.02-.007h-.01l-.01-.01 12.12-7.607-8.12 10.39c15.3 5.63 21.32 10.26 21.32 10.26 14.34 1.3 23.69-27.37 25.64-33.94-.25 5.02-2.28 31.29-17.46 36.16 0 0 27.12 9.7 42.54 10.3-1.71 8.99-8.6 39.73-25.29 55.42 0 0 25.57 5.722 36.3-7.698 10.73-13.42 36.62-95.92-27.2-107.84v-.022z"/><path fill="#FF7BAC" d="M131.848 127.475l.47-1.456c.306-.93.98-2.73 1.91-4.51 1.936-3.67 5.356-8.85 11.19-13.13 5.74-4.29 13.58-7.83 22.39-8.91 8.792-1.13 18.355-.04 27.17 3.11 1.26.51 1.935.74 3.17 1.3 1.135.49 2.225 1 3.24 1.53 2.08 1.05 4.105 2.23 6.022 3.52 3.87 2.54 7.29 5.61 10.28 8.87 5.95 6.58 9.77 14.29 11.27 21.33 1.62 7.05.89 13.21-.02 17.25-.47 2.03-1.05 3.57-1.45 4.62l-.65 1.56c-.81 1.97-3.06 2.91-5.03 2.1-1.86-.77-2.8-2.81-2.23-4.69l.03-.08s.56-1.82.96-5.04c.4-3.22.3-7.91-1.34-13.22-1.61-5.29-4.91-11.11-9.82-16.15-2.45-2.54-5.32-4.84-8.43-6.87-1.56-1.02-3.19-1.95-4.88-2.78-.87-.44-1.7-.81-2.5-1.16-.69-.32-2.03-.8-2.73-1.08-7.1-2.71-14.81-3.75-21.81-3.01-7 .73-13.35 2.86-17.97 5.94-4.66 3.01-7.79 6.49-9.57 9.21-.9 1.44-1.46 2.29-1.91 3.2-.44.89-.67 1.37-.67 1.37-.94 1.91-3.25 2.71-5.16 1.77-1.74-.86-2.56-2.86-1.98-4.65l.05.04v.01z"/><path fill="#333" d="M137.372 163.55c-.738 0-1.437-.456-1.706-1.19-.35-.94.134-1.983 1.076-2.332l4.744-1.754c.957-.34 1.99.13 2.336 1.074.35.944-.133 1.99-1.077 2.338l-4.744 1.75c-.2.076-.42.114-.62.114zm2.148 4.653c-.74 0-1.44-.454-1.707-1.188-.35-.943.133-1.99 1.076-2.334l4.75-1.75c.94-.33 1.98.14 2.33 1.08s-.13 1.99-1.08 2.33l-4.76 1.76c-.21.08-.42.12-.63.12h.01l.01-.01zm38.652 10.374c-.74 0-1.436-.456-1.705-1.19-.35-.945.135-1.988 1.076-2.332l4.745-1.755c.95-.342 1.987.132 2.333 1.073.36.945-.13 1.99-1.07 2.338l-4.74 1.75c-.18.08-.42.12-.6.12h-.03zm2.142 4.653c-.736 0-1.436-.453-1.703-1.19-.34-.94.14-1.983 1.08-2.328l4.75-1.756c.96-.335 1.99.137 2.34 1.076.35.94-.13 1.99-1.07 2.332l-4.74 1.755c-.21.07-.42.1-.63.1h-.02v.01z"/><path fill="#F4D1B0" d="M45.522 160.11c1.412 8.5 1.34 15.588-4.62 16.593-5.954.99-14.65.81-16.958-12.977-1.42-8.49 2.25-16.187 8.208-17.187s11.942 5.08 13.37 13.57z"/><path fill="#C69C6D" d="M43.713 160.354c-.412-2.38-1.364-5.01-2.913-7.114-.787-1.07-1.734-2.08-2.95-2.9-1.216-.79-2.854-1.37-4.598-1.1-.648.18-.533.09-1.12.33-.49.19-.883.4-1.198.63-.676.44-1.197 1.01-1.664 1.58-.896 1.16-1.607 2.45-2 3.72-.77 2.56-1.01 5.22-.583 7.76l.047.29c.285 1.66 1.98 2.78 3.646 2.52 1.672-.26 2.894-1.84 2.634-3.52-.02-.11-.015-.25-.05-.36-.463-1.65-.61-3.51-.31-5.15.228-1.688 1.117-2.88 1.387-3.03.17-.12.66-.19 1.32.11.66.312 1.37.87 2 1.57 1.3 1.45 2.22 3.18 2.81 5.34l.03.08c.27.96 1.27 1.52 2.23 1.26.91-.26 1.46-1.16 1.3-2.07l-.01.04v-.01.024z"/><path fill="#fdb" d="M126.167 162.2c5.062 30.233-23.533 37.712-36.48 39.878-14.745 2.475-42.43 4.42-47.49-25.79-5.076-30.226-14.7-68.492 30.413-76.056 45.562-7.635 48.494 31.762 53.557 61.97v-.002z"/><path d="M131.674 107.323h-.008c-.87-5.182-6.5-20.775-23.632-17.273-.18-.827-.423-1.606-.753-2.31-4.29-9.15-32.54-8.7-32.54-8.7-51.77 4.78-59.18 43.3-59.18 43.3 6.56-4.77 5-1.22 5-1.22-3.28 10.716 9.02 26.372 11.88 29.813l8.17 14.977 5.35-21.94c.63-.348 1.43-.747 2.41-1.138 1.23-.52 2.72-1.035 4.37-1.41 1.63-.425 3.46-.69 5.28-.83 3.68-.305 7.44.055 10.21.54 2.82.483 4.52 1.075 4.52 1.075v-.008l-.04-.01c.88.3 1.85-.84 2.24-1.69.41-.92-.03-3.13-.92-3.13H74s-1.95-.15-4.9-.94c-2.96-.82-7.03-.88-11.23-.92-.466-.01-.93-.01-1.397 0 12.113-7.93 23.68-18.79 23.68-18.79L69.27 132.33c18.75-4.445 29.212-14.387 33.733-19.827 1.035 4.038 2.703 9.4 5.093 13.982-.886.1-1.808.238-2.747.426-1.97.34-4.01.94-5.97 1.66-3.96 1.4-7.56 3.47-10.1 5.22-2.53 1.71-4.11 3.18-4.11 3.18l-.01.01-.03.03-.03.02c-.68.64-.77 1.68-.18 2.43.61.79 1.75.93 2.54.31 0 0 1.42-1.1 3.93-2.48 2.45-1.37 5.9-2.93 9.48-3.84 1.77-.46 3.58-.81 5.26-.94 1.68-.18 3.25-.18 4.58-.08.56.02 1.07.07 1.54.12.02.03.04.06.07.08l12.35 19.21 4-23.02-.08-.01c1.46-6.68 3.68-17.8 3.07-21.46zm-70.334 64.58zm12.21-18.407c-.99.17-1.66 1.11-1.49 2.1.48 2.87-.182 5.75-1.867 8.11-1.687 2.36-4.187 3.92-7.047 4.4-5.94 1-11.508-3.02-12.498-8.91-.166-.99-1.07-1.63-2.1-1.49-.99.165-1.658 1.11-1.49 2.1 1.188 7.076 7.34 12.098 14.28 12.1v-.03h-.02c.8 0 1.6-.068 2.41-.2 3.82-.64 7.16-2.73 9.41-5.868 2.25-3.16 3.14-7 2.5-10.82-.16-.982-1.07-1.642-2.09-1.492zm42.883-7.146c-.99.16-1.658 1.1-1.493 2.09.485 2.86-.178 5.73-1.86 8.09-1.684 2.36-4.19 3.93-7.054 4.41-2.848.48-5.732-.18-8.09-1.87-2.363-1.68-3.926-4.19-4.406-7.05-.165-.99-1.123-1.63-2.093-1.5-.242.04-.463.125-.66.246l-.14-.496c-.267-.98-1.25-1.53-2.247-1.25-.964.27-1.52 1.27-1.25 2.25l5.664 20.01c-.315 1.1-1.608 4.45-6.032 6.726-.89.455-1.24 1.56-.786 2.45.328.627.964.984 1.62.984l-.007-.01v-.02l.01-.022c.28 0 .56-.07.83-.2 6.92-3.56 8-9.44 8.04-9.69.04-.27.03-.54-.05-.8l-3.11-10.943c.73.84 1.56 1.607 2.49 2.27 2.48 1.77 5.39 2.7 8.37 2.7v.034c.81 0 1.62-.07 2.43-.21 3.82-.64 7.16-2.74 9.41-5.89 2.25-3.16 3.13-7 2.49-10.82-.17-.98-1.06-1.62-2.1-1.49z" fill="#333"/><path fill="#F48B73" d="M164.564 197.78c-1.588 4.312-5.85 6.718-9.51 5.37-3.666-1.354-5.354-5.944-3.76-10.258 1.583-4.31 5.848-6.71 9.51-5.367 3.67 1.357 5.354 5.945 3.76 10.255z"/><radialGradient id="a" cx="-201.926" cy="3499.729" r="30.01" gradientTransform="matrix(.375 -.106 .106 .375 -229.998 -1153.074)" gradientUnits="userSpaceOnUse"><stop offset="0" stop-color="#FF585D"/><stop offset="1" stop-color="#FF585D" stop-opacity="0"/></radialGradient><circle opacity=".4" fill="url(#a)" enable-background="new" cx="65.261" cy="180.761" r="11.695"/><radialGradient id="b" cx="-86.88" cy="3499.726" r="29.965" gradientTransform="matrix(.375 -.106 .106 .375 -229.998 -1153.074)" gradientUnits="userSpaceOnUse"><stop offset="0" stop-color="#FF585D"/><stop offset="1" stop-color="#FF585D" stop-opacity="0"/></radialGradient><circle opacity=".4" fill="url(#b)" enable-background="new" cx="108.405" cy="168.572" r="11.696"/><radialGradient id="c" cx="1522.949" cy="2535.441" r="29.991" gradientTransform="matrix(.373 .113 -.113 .373 -141.296 -940.636)" gradientUnits="userSpaceOnUse"><stop offset="0" stop-color="#FF585D"/><stop offset="1" stop-color="#FF585D" stop-opacity="0"/></radialGradient><circle opacity=".4" fill="url(#c)" enable-background="new" cx="140.303" cy="177.19" r="11.696"/><radialGradient id="d" cx="1637.955" cy="2535.413" r="29.977" gradientTransform="matrix(.373 .113 -.113 .373 -141.296 -940.636)" gradientUnits="userSpaceOnUse"><stop offset="0" stop-color="#FF585D"/><stop offset="1" stop-color="#FF585D" stop-opacity="0"/></radialGradient><circle opacity=".4" fill="url(#d)" enable-background="new" cx="183.214" cy="190.178" r="11.696"/><path fill="#333" d="M87.463 191.23c-9.472 0-17.205-7.8-17.56-8.16-.7-.717-.687-1.865.033-2.568.71-.7 1.868-.686 2.568.025.08.078 8.22 8.197 16.958 6.916 5.27-.816 9.84-4.963 13.58-12.324.454-.9 1.546-1.27 2.448-.82.894.45 1.248 1.55.794 2.44-4.306 8.47-9.784 13.27-16.29 14.27-.854.13-1.698.19-2.53.19v.03zm75.665 8.42c-3.567 0-6.69-.814-9.328-2.438-6.933-4.272-7.8-12.483-7.83-12.83-.102-.998.628-1.885 1.628-1.983 1.065-.1 1.885.63 1.988 1.62.01.06.758 6.8 6.15 10.1 4.468 2.74 10.922 2.49 19.168-.71.957-.37 1.99.1 2.354 1.04.36.93-.11 1.98-1.04 2.35-4.87 1.89-9.25 2.83-13.1 2.83l.01.02z"/></svg>