<svg xmlns="http://www.w3.org/2000/svg" width="256" height="256" viewBox="0 0 256 256"><path fill="none" stroke="#333" stroke-width="8" stroke-linecap="round" stroke-linejoin="round" stroke-miterlimit="10" d="M170.62 39.38h-.112c7.833 0 15.517 1.266 22.88 4.118 28.106 9.1 47.03 34.794 46.886 64.392m-199.22 33.5l-.3-.516c-6.01-10.377-9.153-22.157-9.09-34.065.123-29.61 19.09-55.26 47.29-64.07M201.42 28.19c15.406 5.08 29.187 14.872 38.917 27.914m-224.674 50.64c.073-17.348 5.658-33.84 16.15-47.654"/><path fill="none" stroke="#333" stroke-width="8" stroke-linejoin="round" stroke-miterlimit="10" d="M30.84 147.697"/><path fill="#C1272D" d="M135.48 200.412c-.718 0-1.436-.193-2.072-.58-2.28-1.38-56.085-34.222-77.824-67.285-.042-.063-.08-.128-.12-.193-4.496-7.764-6.848-16.566-6.8-25.455.093-22.32 14.482-41.62 35.825-48.08 5.54-2.15 11.24-3.24 16.93-3.24h.35c13.09.06 25.33 5.74 34.25 15.32 8.96-9.45 21.18-14.53 34.2-14.53h.2c5.89 0 11.69.92 17.25 3.14 21.28 6.67 35.5 25.98 35.39 48.28-.04 8.87-2.47 17.59-7.03 25.31-20.19 33.22-76.22 65.44-78.59 66.79-.62.35-1.3.5-1.99.5z"/><path fill="#333" d="M101.425 59.588h.318c14.04.065 26.36 7.117 34.26 17.485 7.96-10.25 20.265-16.692 34.23-16.692h.186c5.65 0 10.99.94 15.93 2.92 19.02 5.9 32.83 23.55 32.73 44.49-.04 8.55-2.43 16.46-6.47 23.3-19.86 32.68-77.13 65.36-77.13 65.36s-55.07-33.39-76.56-66.08c-4.01-6.91-6.31-14.89-6.27-23.43.09-20.95 14.02-38.59 33.13-44.31 4.86-1.9 10.1-3.02 15.63-3.02m0-8c-6.14 0-12.28 1.16-18.24 3.46-10.83 3.3-20.57 10.1-27.45 19.16-7.19 9.46-11.01 20.76-11.06 32.67-.05 9.59 2.48 19.1 7.34 27.47.07.13.15.26.24.39 22.22 33.81 76.78 67.11 79.09 68.51 1.27.77 2.71 1.16 4.14 1.16 1.37 0 2.74-.35 3.97-1.05 2.41-1.37 59.3-34.12 79.99-68.18.02-.02.03-.05.05-.08 4.92-8.33 7.54-17.81 7.58-27.4.06-11.9-3.67-23.23-10.78-32.76-6.8-9.11-16.48-15.75-27.27-19.17-5.99-2.37-12.23-3.37-18.57-3.37h-.23c-12.76 0-24.81 4.47-34.18 12.92-9.35-8.58-21.43-13.52-34.28-13.58l-.36-.12z"/></svg>