<?xml version="1.0" encoding="utf-8"?>
<!-- Generator: Adobe Illustrator 16.0.0, SVG Export Plug-In . SVG Version: 6.00 Build 0)  -->
<!DOCTYPE svg PUBLIC "-//W3C//DTD SVG 1.1//EN" "http://www.w3.org/Graphics/SVG/1.1/DTD/svg11.dtd">
<svg version="1.1" id="Layer_1" xmlns="http://www.w3.org/2000/svg" xmlns:xlink="http://www.w3.org/1999/xlink" x="0px" y="0px"
	 width="256px" height="256px" viewBox="0 0 256 256" enable-background="new 0 0 256 256" xml:space="preserve">
<path fill="#333333" d="M202.09,220.925c-7.244,0-12.93-1.253-13.17-1.307c-1.443-0.323-2.593-1.418-2.984-2.847
	c-0.069-0.25-0.111-0.511-0.129-0.761c-2.287,0.4-4.688,0.601-7.195,0.601c-7.06,0-14.93-1.58-23.397-4.7
	c-11.89-4.38-20.532-9.78-26.086-16.34c-0.67,0.45-1.443,0.68-2.22,0.68c-0.627,0-1.254-0.14-1.83-0.44
	c-0.103-0.05-1.95-1.01-4.584-2.729c-6.9,6.42-17.02,10.78-30.147,12.97c-5.298,0.891-9.994,1.32-14.356,1.32
	c-19.86,0-32.54-9.1-36.9-26.38c-0.71,0.06-1.41,0.1-2.08,0.1c-6.48,0-14.7-2.89-17-16.67c-1.15-6.88,0.57-13.55,4.29-17.69
	c-4.06-6.06-7.83-13.439-8.25-20.37c-0.16,0.02-0.32,0.03-0.48,0.03c-0.74,0-1.49-0.21-2.14-0.62c-1.38-0.88-2.09-2.52-1.78-4.13
	c0.09-0.43,2.15-10.74,11-21.63c8.07-9.92,23.6-22.3,51.73-24.89c0.1-0.01,0.21-0.01,0.31-0.02h0.77c-0.35-2.09-0.5-4.21-0.44-6.34
	c0.38-14.939,10.28-27.67,24.65-31.72c3.51-1.27,7.14-1.92,10.79-1.92c0.28,0,0.57,0,0.85,0.01c8.31,0.22,16.04,3.64,21.81,9.55
	c5.859-5.4,13.46-8.42,21.46-8.42c0.271,0,0.54,0,0.81,0.01c3.94,0.1,7.82,0.94,11.521,2.51c14.149,4.79,23.37,18.01,22.979,32.94
	c-0.13,5.81-1.82,11.55-4.869,16.61c-0.181,0.44-0.371,0.88-0.57,1.33c4.04,1.31,8.1,3.12,12.13,5.41l3.44,1.27
	c20.229,3.87,33.789,14.72,40.31,32.261c11.22,30.22-2.83,71.67-11.06,81.949c-5.451,6.82-14.83,10.42-27.131,10.42L202.09,220.925z
	"/>
<path fill="#333333" d="M110.42,39.075c0.244,0,0.49,0.003,0.737,0.01c9.006,0.23,16.828,4.773,21.764,11.548
	c5.14-6.34,12.89-10.424,21.61-10.424h0.71c3.64,0.09,7.06,0.91,10.2,2.25c12.149,4.05,20.76,15.64,20.399,29.09
	c-0.13,5.48-1.771,10.55-4.47,14.92c-0.75,1.93-1.721,3.81-2.86,5.65c5.21,1.16,10.65,3.27,16.32,6.52l4.069,1.5
	c63.83,11.92,37.94,94.419,27.201,107.839c-5.791,7.25-15.91,8.91-24,8.91c-6.881,0-12.291-1.21-12.291-1.21
	c2.701-2.54,5.15-5.479,7.36-8.649c-5.601,4.119-12.149,5.529-18.53,5.529c-8.52,0-16.75-2.52-22.01-4.459
	c-10.14-3.74-26.01-11.061-30.03-25.69c-0.11,3.27-0.01,6.54,0.34,9.76c0,0-3.06-1.58-6.92-4.39
	c-8.31,9.52-22.29,12.89-30.29,14.229c-3.88,0.65-8.66,1.271-13.69,1.271c-14.05,0-30.04-4.801-33.78-27.01
	c-0.4,0.149-0.83,0.289-1.3,0.369c-1.21,0.2-2.53,0.351-3.89,0.351c-5.33,0-11.22-2.351-13.06-13.33
	c-1.21-7.23,1.28-13.87,5.73-16.3c-4.52-6.15-11.74-17.78-9.13-26.291c0,0,0.56-1.27-0.4-1.27c-0.64,0-1.97,0.57-4.6,2.49
	c0,0,7.4-38.52,59.18-43.29h0.62c0.92,0,2.82,0.01,5.25,0.13c-1.11-3.25-1.7-6.74-1.61-10.37c0.35-13.46,9.55-24.6,21.88-28.01
	c3-1.11,6.2-1.74,9.56-1.74"/>
<path fill="#333333" d="M110.491,31.009c-4.07,0-8.11,0.71-12.02,2.11c-7.53,2.16-14.35,6.72-19.24,12.88
	c-5.14,6.48-7.97,14.27-8.18,22.55c-0.02,0.93-0.01,1.86,0.04,2.79c-27.65,3.3-43.23,15.88-51.5,26.04
	c-9.32,11.46-11.59,22.21-11.82,23.4c-0.62,3.23,0.8,6.5,3.57,8.26c0.38,0.24,0.78,0.449,1.18,0.62
	c1.04,5.819,3.8,11.649,6.96,16.76c-3.2,4.931-4.5,11.601-3.34,18.56c2.07,12.371,9.36,19.61,20.05,19.99
	c5.53,17.051,19.44,26.32,39.88,26.32c4.59,0,9.5-0.45,15.02-1.38c12.52-2.101,22.53-6.11,29.86-11.97
	c1.33,0.789,2.2,1.239,2.38,1.34c1.15,0.59,2.41,0.89,3.66,0.89c0.33,0,0.66-0.021,0.99-0.069c5.98,6.18,14.58,11.31,25.94,15.489
	c8.91,3.29,17.25,4.95,24.78,4.95c1.6,0,3.16-0.07,4.68-0.221c1.131,1.57,2.811,2.711,4.76,3.15c0.25,0.051,6.36,1.4,14.041,1.4
	c13.56,0,24.02-4.12,30.25-11.92c5.1-6.37,10.539-20.4,13.539-34.9c2.79-13.46,4.721-33.22-1.859-50.94
	c-6.9-18.58-21.76-30.58-42.98-34.74l-2.84-1.04c-2.721-1.53-5.46-2.86-8.21-3.97c2.399-4.89,3.72-10.24,3.851-15.65
	c0.219-8.26-2.201-16.18-6.99-22.91c-4.561-6.4-11.141-11.32-18.551-13.86c-4.13-1.72-8.449-2.66-12.84-2.77
	c-0.31-0.01-0.609-0.01-0.91-0.01c-7.76,0-15.189,2.52-21.31,7.11c-6.11-5.1-13.73-8.02-21.85-8.23c-0.31-0.01-0.63-0.02-0.94-0.02
	L110.491,31.009z"/>
<path fill="#ED1E79" d="M185.838,71.57c0.354-13.453-8.254-25.046-20.4-29.098c-3.145-1.346-6.563-2.16-10.197-2.254
	c-9.008-0.228-17.051,3.903-22.318,10.416c-4.936-6.775-12.757-11.317-21.764-11.548c-3.636-0.1-7.09,0.538-10.298,1.726
	c-12.334,3.413-21.536,14.55-21.88,28.007c-0.14,5.48,1.233,10.65,3.702,15.12c8.055,24.2,48.259,43.47,48.259,43.47
	s41.143-17.19,50.431-40.93c2.696-4.37,4.337-9.44,4.466-14.92V71.57z"/>
<path fill="#D3BD8D" d="M206.938,174.807c-2.979,8.079-4.217,15.062,1.444,17.149c5.67,2.09,14.246,3.521,19.076-9.59
	c2.976-8.087,0.798-16.326-4.874-18.414C216.918,161.868,209.914,166.723,206.938,174.807L206.938,174.807z"/>
<path fill="#C69C6D" d="M208.658,175.375c0.85-2.26,2.27-4.667,4.189-6.445c0.971-0.912,2.084-1.729,3.44-2.3
	c1.334-0.547,3.048-0.813,4.715-0.223c0.604,0.29,0.497,0.188,1.043,0.53c0.44,0.27,0.793,0.566,1.05,0.84
	c0.59,0.567,0.997,1.209,1.35,1.861c0.662,1.301,0.275,2.391,0.424,3.711c0.279,2.649-0.83,4.989-1.721,7.42l-0.109,0.279
	c-0.59,1.59-1.609,2.69-3.21,2.12c-1.59-0.569-2.07-2.19-1.511-3.78c0.041-0.119,0.271-0.18,0.32-0.279
	c0.76-1.53,1.36-3.291,1.381-4.94c0.08-1.71-0.521-3.021-0.761-3.22c-0.14-0.15-0.579-0.301-1.3-0.131
	c-0.7,0.181-1.49,0.61-2.24,1.17c-1.55,1.19-2.76,2.711-3.75,4.721l-0.039,0.08c-0.44,0.89-1.531,1.26-2.421,0.82
	c-0.85-0.42-1.21-1.41-0.89-2.271L208.658,175.375z"/>
<path fill="#FFDDBB" d="M208.053,191.626c-10.593,28.752-39.134,21.06-51.457,16.521c-14.027-5.166-39.04-17.195-28.45-45.946
	c10.595-28.757,21.213-66.763,64.14-50.95C235.639,127.217,218.641,162.873,208.053,191.626z"/>
<path fill="#333333" d="M163.654,188.59c-0.391,0-0.783-0.123-1.117-0.384c-5.891-4.58-7.643-10.208-7.713-10.444
	c-0.146-0.486-0.08-1.012,0.174-1.449l11.188-19.037c0.502-0.865,1.614-1.157,2.494-0.646c0.859,0.505,1.149,1.625,0.639,2.49
	l-10.75,18.286c0.621,1.473,2.391,4.97,6.19,7.93c0.79,0.62,0.931,1.76,0.31,2.553c-0.359,0.461-0.899,0.7-1.439,0.7L163.654,188.59
	z"/>
<path fill="#333333" d="M190.382,112.482c0,0-9.838,36.754-26.03,35.293c0,0-6.02-4.631-21.319-10.26l23.433-29.982l25.82,3.715
	L190.382,112.482z"/>
<path fill="#333333" d="M190.029,112.994c0,0-0.696,31.6-17.489,36.996c0,0,29.72,10.627,44.63,10.324
	C217.17,160.314,221.168,116.256,190.029,112.994z"/>
<path fill="#333333" d="M154.137,169.811c-1.662,0-3.35-0.293-4.994-0.896c-3.635-1.338-6.527-4.015-8.15-7.526
	c-1.624-3.514-1.782-7.455-0.442-11.087c0.349-0.936,1.39-1.418,2.337-1.079c0.94,0.348,1.424,1.396,1.073,2.34
	c-0.998,2.72-0.88,5.67,0.332,8.302c1.217,2.632,3.388,4.638,6.11,5.64c5.615,2.051,11.871-0.828,13.939-6.438
	c0.348-0.94,1.393-1.42,2.336-1.076c0.942,0.346,1.426,1.392,1.076,2.334C165.6,166.176,160.037,169.811,154.137,169.811
	L154.137,169.811z"/>
<path fill="#333333" d="M194.938,184.834c-1.658,0-3.345-0.286-4.994-0.893c-3.629-1.336-6.529-4.014-8.149-7.526
	c-1.622-3.515-1.78-7.454-0.44-11.085c0.348-0.947,1.385-1.42,2.334-1.073c0.945,0.341,1.428,1.39,1.078,2.33
	c-1,2.72-0.887,5.67,0.33,8.304c1.219,2.641,3.387,4.641,6.109,5.641c2.718,1,5.664,0.89,8.3-0.32
	c2.63-1.22,4.634-3.391,5.638-6.109c0.353-0.94,1.393-1.42,2.338-1.07c0.939,0.35,1.424,1.39,1.074,2.33
	c-2.158,5.859-7.716,9.49-13.617,9.49V184.834z"/>
<path fill="#333333" d="M139.057,134.756c0,0-15.135,30.624-12.149,57.473c0,0-23.28-11.949-22.744-29.129
	c0.537-17.181,34.351-96.761,90.66-64.44l4.069,1.5c63.828,11.92,37.938,94.42,27.203,107.84c-10.73,13.42-36.301,7.7-36.301,7.7
	c19.678-18.5,25.734-57.94,25.734-57.94l-12.93-40.03l-24.201-7.69l-39.35,24.7L139.057,134.756z"/>
<path fill="#FF7BAC" d="M131.848,127.475l0.469-1.456c0.304-0.93,0.982-2.73,1.91-4.51c1.934-3.67,5.357-8.85,11.192-13.13
	c5.74-4.29,13.58-7.83,22.39-8.91c8.791-1.13,18.351-0.04,27.17,3.11c1.26,0.51,1.931,0.74,3.17,1.3c1.131,0.49,2.221,1,3.24,1.53
	c2.08,1.05,4.101,2.23,6.021,3.52c3.87,2.54,7.29,5.61,10.28,8.87c5.949,6.58,9.77,14.29,11.27,21.33
	c1.62,7.051,0.891,13.21-0.02,17.25c-0.471,2.03-1.051,3.57-1.45,4.62l-0.65,1.569c-0.81,1.971-3.06,2.91-5.03,2.101
	c-1.859-0.771-2.8-2.81-2.229-4.69l0.03-0.08c0,0,0.56-1.819,0.959-5.039c0.4-3.221,0.301-7.91-1.34-13.221
	c-1.609-5.289-4.91-11.109-9.819-16.149c-2.45-2.54-5.32-4.84-8.431-6.87c-1.56-1.02-3.189-1.95-4.879-2.78
	c-0.871-0.44-1.701-0.81-2.5-1.16c-0.69-0.32-2.031-0.8-2.73-1.08c-7.1-2.71-14.811-3.75-21.811-3.01c-7,0.73-13.35,2.86-17.97,5.94
	c-4.659,3.01-7.79,6.49-9.569,9.21c-0.9,1.44-1.461,2.29-1.91,3.2c-0.44,0.89-0.67,1.369-0.67,1.369
	c-0.94,1.91-3.25,2.711-5.16,1.771c-1.74-0.86-2.561-2.86-1.98-4.65L131.848,127.475z"/>
<path fill="#333333" d="M137.372,163.55c-0.738,0-1.437-0.456-1.706-1.19c-0.35-0.943,0.134-1.986,1.076-2.332l4.744-1.754
	c0.957-0.34,1.99,0.131,2.336,1.074c0.35,0.944-0.133,1.99-1.077,2.338l-4.744,1.75c-0.2,0.076-0.42,0.114-0.62,0.114H137.372z
	 M139.52,168.203c-0.74,0-1.439-0.454-1.707-1.188c-0.351-0.943,0.133-1.99,1.076-2.334l4.75-1.755
	c0.945-0.333,1.987,0.14,2.334,1.077c0.351,0.939-0.132,1.986-1.074,2.332l-4.76,1.754c-0.209,0.074-0.42,0.113-0.63,0.113H139.52z
	 M178.172,178.577c-0.74,0-1.436-0.456-1.705-1.19c-0.35-0.945,0.135-1.988,1.076-2.332l4.745-1.755
	c0.95-0.342,1.987,0.132,2.333,1.073c0.359,0.945-0.13,1.99-1.07,2.338l-4.74,1.75c-0.209,0.08-0.42,0.12-0.629,0.12
	L178.172,178.577z M180.314,183.23c-0.736,0-1.433-0.453-1.703-1.19c-0.34-0.94,0.14-1.983,1.08-2.328l4.75-1.756
	c0.959-0.335,1.99,0.137,2.34,1.076c0.35,0.94-0.131,1.989-1.07,2.332l-4.74,1.755c-0.21,0.07-0.42,0.109-0.63,0.109L180.314,183.23
	z"/>
<path fill="#F4D1B0" d="M45.522,160.109c1.412,8.5,1.34,15.589-4.62,16.594c-5.954,0.99-14.65,0.811-16.958-12.977
	c-1.42-8.49,2.25-16.184,8.208-17.184C38.11,145.538,44.094,151.618,45.522,160.109z"/>
<path fill="#C69C6D" d="M43.713,160.354c-0.412-2.379-1.364-5.01-2.913-7.117c-0.787-1.064-1.734-2.077-2.95-2.894
	c-1.216-0.784-2.854-1.368-4.598-1.1c-0.648,0.18-0.533,0.095-1.12,0.333c-0.49,0.188-0.883,0.4-1.198,0.63
	c-0.676,0.446-1.197,1.01-1.664,1.58c-0.896,1.159-1.607,2.45-2,3.718c-0.77,2.559-1.01,5.223-0.583,7.766l0.047,0.289
	c0.285,1.66,1.98,2.78,3.646,2.521c1.672-0.261,2.894-1.84,2.634-3.521c-0.02-0.109-0.015-0.25-0.05-0.359
	c-0.463-1.65-0.61-3.51-0.31-5.15c0.228-1.689,1.117-2.88,1.387-3.029c0.17-0.121,0.66-0.19,1.32,0.109c0.66,0.311,1.37,0.87,2,1.57
	c1.3,1.449,2.22,3.18,2.81,5.34l0.03,0.08c0.27,0.96,1.27,1.52,2.23,1.26c0.91-0.26,1.46-1.16,1.3-2.07L43.713,160.354z"/>
<path fill="#FFDDBB" d="M126.167,162.2c5.062,30.233-23.533,37.712-36.48,39.878c-14.745,2.475-42.43,4.42-47.49-25.79
	c-5.076-30.226-14.7-68.492,30.413-76.056c45.562-7.635,48.494,31.762,53.557,61.97V162.2z"/>
<path fill="#333333" d="M28.67,144.035l11.932,21.875l7.074-29.04 M128.682,128.793l-4.004,23.023l-16.162-25.143"/>
<path fill="#333333" d="M87.606,181.441c-0.656,0-1.292-0.359-1.62-0.986c-0.453-0.891-0.103-1.995,0.786-2.45
	c4.424-2.274,5.717-5.625,6.032-6.726l-5.664-20.01c-0.27-0.971,0.286-1.98,1.25-2.25c0.996-0.28,1.98,0.289,2.247,1.25
	l5.798,20.459c0.075,0.261,0.09,0.53,0.047,0.801c-0.04,0.25-1.113,6.13-8.04,9.689c-0.27,0.131-0.553,0.2-0.833,0.2L87.606,181.441
	z"/>
<path fill="#333333" d="M105.726,108.77c0,0-9.96,17.278-36.463,23.56l10.86-15.602c0,0-25.79,24.227-40.682,26.726l-3.49,1.035
	l-2.93,7.149c0,0-16.17-18.41-12.46-30.51c0,0,1.56-3.55-5,1.22c0,0,7.41-38.52,59.18-43.3c0,0,28.25-0.45,32.54,8.7
	c3.27,6.99-1.53,21-1.53,21L105.726,108.77z"/>
<path fill="#333333" d="M101.653,106.385c0,0,3.44,20.544,11.94,27.393l13.81,0.259c0,0,5.158-21.35,4.264-26.715
	c-0.901-5.35-6.873-21.8-25.34-16.87c-18.456,4.93-4.674,15.94-4.674,15.94V106.385z"/>
<path fill="#333333" d="M85.177,136.955c0,0,1.576-1.471,4.102-3.178c2.54-1.743,6.14-3.815,10.1-5.213
	c1.96-0.718,4-1.313,5.97-1.653c1.95-0.39,3.83-0.58,5.45-0.6c1.62-0.07,2.98,0,3.93,0.11c0.95,0.08,1.5,0.14,1.5,0.14
	c1.8,0.15,3.13,1.73,2.98,3.52c-0.15,1.81-1.73,3.149-3.54,3c-0.1-0.011-0.19-0.021-0.28-0.04l-0.3-0.05l-1.2-0.2
	c-0.75-0.16-1.84-0.33-3.17-0.38c-1.33-0.101-2.9-0.101-4.58,0.08c-1.68,0.13-3.49,0.479-5.26,0.94
	c-3.58,0.909-7.03,2.469-9.48,3.84c-2.51,1.379-3.93,2.479-3.93,2.479c-0.79,0.62-1.93,0.479-2.54-0.31
	c-0.59-0.75-0.5-1.791,0.18-2.431l0.03-0.02L85.177,136.955z"/>
<path fill="#333333" d="M72.74,142.207c0,0-1.704-0.592-4.52-1.075c-2.77-0.485-6.535-0.845-10.21-0.54
	c-1.827,0.141-3.65,0.405-5.28,0.83c-1.65,0.375-3.14,0.891-4.363,1.41c-1.24,0.493-2.202,1.006-2.87,1.402l-1.058,0.582
	l-0.26,0.146c-1.59,0.876-3.57,0.293-4.44-1.28c-0.88-1.594-0.3-3.582,1.28-4.453c0.08-0.049,0.17-0.09,0.26-0.129
	c0,0,0.49-0.23,1.37-0.61c0.85-0.41,2.11-0.931,3.67-1.38c1.53-0.51,3.38-0.94,5.36-1.211c1.97-0.319,4.08-0.42,6.18-0.39
	c4.2,0.04,8.27,0.101,11.23,0.92c2.95,0.79,4.9,0.94,4.9,0.94h0.03c0.89,0,1.33,2.21,0.92,3.13c-0.39,0.851-1.36,1.99-2.24,1.69
	L72.74,142.207z"/>
<path fill="#333333" d="M61.34,171.904c-6.94,0-13.094-5.022-14.282-12.098c-0.168-0.99,0.5-1.933,1.49-2.097
	c1.03-0.132,1.934,0.503,2.1,1.49c0.99,5.897,6.558,9.917,12.498,8.914c2.86-0.476,5.36-2.04,7.047-4.397
	c1.685-2.359,2.348-5.24,1.866-8.104c-0.17-0.986,0.5-1.932,1.49-2.098c1.02-0.144,1.93,0.51,2.09,1.49
	c0.64,3.824-0.25,7.665-2.5,10.826c-2.25,3.146-5.59,5.232-9.41,5.87c-0.81,0.132-1.61,0.202-2.41,0.202H61.34z"/>
<path fill="#333333" d="M104.196,164.725c-2.984,0-5.89-0.931-8.374-2.699c-3.154-2.245-5.24-5.59-5.88-9.409
	c-0.167-0.994,0.5-1.931,1.495-2.095c0.97-0.131,1.928,0.51,2.093,1.5c0.48,2.859,2.043,5.369,4.406,7.05
	c2.358,1.689,5.242,2.35,8.09,1.87c2.865-0.48,5.37-2.051,7.054-4.41c1.682-2.36,2.345-5.23,1.86-8.09
	c-0.165-0.99,0.502-1.931,1.493-2.09c1.04-0.131,1.93,0.51,2.1,1.489c0.638,3.82-0.243,7.66-2.493,10.82
	c-2.245,3.149-5.586,5.25-9.41,5.89c-0.814,0.141-1.624,0.21-2.434,0.21V164.725z"/>
<path fill="#F48B73" d="M164.564,197.78c-1.588,4.312-5.851,6.718-9.51,5.37c-3.666-1.354-5.353-5.944-3.761-10.258
	c1.587-4.311,5.849-6.709,9.511-5.367C164.473,188.882,166.158,193.47,164.564,197.78L164.564,197.78z"/>
<radialGradient id="SVGID_1_" cx="57.793" cy="-449.874" r="30.0119" gradientTransform="matrix(0.375 -0.106 -0.106 -0.375 -4.1075 18.1498)" gradientUnits="userSpaceOnUse">
	<stop  offset="0" style="stop-color:#FF585D"/>
	<stop  offset="1" style="stop-color:#FF585D;stop-opacity:0"/>
</radialGradient>
<circle opacity="0.4" fill="url(#SVGID_1_)" enable-background="new    " cx="65.261" cy="180.761" r="11.695"/>
<radialGradient id="SVGID_2_" cx="172.8389" cy="-449.874" r="29.9686" gradientTransform="matrix(0.375 -0.106 -0.106 -0.375 -4.1075 18.1498)" gradientUnits="userSpaceOnUse">
	<stop  offset="0" style="stop-color:#FF585D"/>
	<stop  offset="1" style="stop-color:#FF585D;stop-opacity:0"/>
</radialGradient>
<circle opacity="0.4" fill="url(#SVGID_2_)" enable-background="new    " cx="108.405" cy="168.572" r="11.696"/>
<radialGradient id="SVGID_3_" cx="632.8506" cy="-264.4624" r="29.995" gradientTransform="matrix(0.373 0.113 0.113 -0.373 -65.9091 7.0202)" gradientUnits="userSpaceOnUse">
	<stop  offset="0" style="stop-color:#FF585D"/>
	<stop  offset="1" style="stop-color:#FF585D;stop-opacity:0"/>
</radialGradient>
<circle opacity="0.4" fill="url(#SVGID_3_)" enable-background="new    " cx="140.303" cy="177.19" r="11.696"/>
<radialGradient id="SVGID_4_" cx="747.8633" cy="-264.4346" r="29.9782" gradientTransform="matrix(0.373 0.113 0.113 -0.373 -65.9091 7.0202)" gradientUnits="userSpaceOnUse">
	<stop  offset="0" style="stop-color:#FF585D"/>
	<stop  offset="1" style="stop-color:#FF585D;stop-opacity:0"/>
</radialGradient>
<circle opacity="0.4" fill="url(#SVGID_4_)" enable-background="new    " cx="183.214" cy="190.178" r="11.696"/>
<path fill="#333333" d="M87.463,191.23c-9.472,0-17.205-7.801-17.56-8.16c-0.7-0.717-0.687-1.865,0.033-2.568
	c0.71-0.7,1.868-0.686,2.568,0.025c0.08,0.078,8.22,8.197,16.958,6.916c5.27-0.816,9.84-4.963,13.58-12.324
	c0.454-0.9,1.546-1.27,2.448-0.801c0.894,0.451,1.248,1.551,0.794,2.44c-4.306,8.48-9.784,13.271-16.29,14.271
	c-0.854,0.13-1.698,0.189-2.53,0.189L87.463,191.23z M163.128,199.65c-3.567,0-6.69-0.814-9.328-2.438
	c-6.933-4.272-7.8-12.483-7.829-12.83c-0.103-0.998,0.627-1.885,1.627-1.983c1.065-0.1,1.885,0.631,1.988,1.621
	c0.01,0.06,0.758,6.799,6.15,10.1c4.468,2.74,10.922,2.49,19.168-0.71c0.957-0.37,1.99,0.1,2.354,1.04
	c0.36,0.93-0.11,1.979-1.04,2.35c-4.869,1.891-9.25,2.83-13.1,2.83L163.128,199.65z"/>
</svg>
