<svg xmlns="http://www.w3.org/2000/svg" width="256" height="256" viewBox="0 0 256 256"><path fill="#C1272D" d="M141.253 217.004c-2.658-.207-65.49-5.28-99.794-25l-.2-.12c-7.52-4.905-13.58-11.704-17.55-19.66-9.97-19.963-5.82-43.677 10.32-59.06 4.07-4.51 8.77-8.1 13.97-10.676 6.55-3.27 13.58-4.93 20.88-4.93 5.57 0 11.19 1.013 16.49 2.953 3.76-12.54 12.33-22.84 24.06-28.7 5.14-2.56 10.7-4.14 16.51-4.7 4.7-11.78 16.1-19.59 28.92-19.59.22 0 .45.01.68.01.51-.02 1.02-.03 1.53-.03 3.18 0 6.28.5 9.21 1.49 7.14 2.39 12.96 7.37 16.48 13.97 3.89-1.81 8.1-2.76 12.39-2.76 3.11 0 6.2.51 9.18 1.5 3.44 1.16 6.62 2.94 9.45 5.3 11.15 8.03 15.72 22.15 11.35 35.18-1.74 5.2-4.85 9.88-9.02 13.53-7.15 6.11-18.26 11.69-33.06 16.65-8.05 37.04-36.94 81.01-38.2 82.9l-1.3 1.97-2.35-.18z"/><path fill="#333" d="M157.095 51.484c2.63 0 5.293.39 7.928 1.28 7.78 2.6 13.377 8.626 15.87 15.825 4.183-2.82 9.145-4.41 14.28-4.41 2.62 0 5.288.41 7.918 1.29 3.14 1.05 5.89 2.66 8.27 4.66 9.48 6.75 13.9 19.14 10.02 30.74-1.58 4.74-4.36 8.72-7.86 11.78-8.53 7.28-22.27 12.84-33.87 16.57-7.24 37.15-38.08 83.77-38.08 83.77S77.38 208 43.46 188.51c-6.69-4.37-12.34-10.45-16.15-18.1-9.36-18.74-4.87-40.765 9.61-54.48 3.55-3.96 7.82-7.376 12.88-9.884 6.16-3.07 12.68-4.514 19.11-4.514 6.69 0 13.27 1.56 19.25 4.462 2.5-12.797 10.53-24.36 23.09-30.63 5.06-2.52 10.35-3.908 15.65-4.358.69-.117 1.37-.21 2.06-.296.07-.223.12-.45.2-.67 3.8-11.37 14.38-18.556 25.75-18.556.25 0 .49.003.74.01.49-.027.98-.04 1.48-.04m0-8c-.526 0-1.06.01-1.59.035-.21-.01-.42-.01-.63-.01-13.64 0-25.865 7.83-31.662 19.89-5.45.78-10.667 2.39-15.55 4.82C96.16 73.97 87.46 83.65 82.88 95.5c-4.564-1.28-9.286-1.947-13.98-1.948-7.924 0-15.554 1.802-22.676 5.356-5.59 2.77-10.66 6.63-15.04 11.46-8.18 7.846-13.814 18.305-15.874 29.49-2.15 11.685-.48 23.49 4.85 34.15 4.27 8.585 10.82 15.925 18.93 21.22l.19.13.19.114c35.08 20.166 98.78 25.31 101.48 25.52l4.69.366 2.594-3.93c1.244-1.88 29.42-44.75 38.262-82.04 14.24-4.94 25.06-10.53 32.21-16.63l.04-.03.04-.03c4.697-4.12 8.216-9.4 10.175-15.27 2.44-7.28 2.44-14.98 0-22.26-2.31-6.92-6.82-13.062-12.7-17.335-3.18-2.636-6.76-4.63-10.62-5.927-3.4-1.135-6.91-1.71-10.46-1.71-3.67 0-7.28.608-10.73 1.784-4.04-5.96-9.9-10.453-16.89-12.787-3.31-1.12-6.84-1.69-10.46-1.69z"/><path fill="none" d="M30.84 147.697"/><path fill="#A01C26" d="M211.355 70.14c-2.375-2.003-5.132-3.616-8.265-4.667-7.784-2.6-15.88-1.14-22.2 3.117-2.49-7.2-8.087-13.226-15.868-15.826-3.13-1.058-6.303-1.407-9.406-1.238-11.653-.317-22.61 6.932-26.485 18.544-.43 1.307-.75 2.622-.98 3.938 19.2 2.742 35.86 14.6 44.7 32.31 3.6 7.2 5.67 15.094 6.12 23.155 11.73-3.738 25.86-9.373 34.56-16.8 3.5-3.062 6.28-7.048 7.86-11.786 3.89-11.61-.53-23.996-10.02-30.747z"/><path fill="#CE3C46" d="M27.303 170.44c-9.36-18.74-4.875-40.768 9.61-54.484 3.55-3.96 7.812-7.376 12.878-9.884 12.57-6.27 26.63-5.748 38.36-.052 2.5-12.794 10.53-24.357 23.09-30.632 5.06-2.52 10.35-3.903 15.65-4.353 19.65-3.304 39.98 6.337 49.33 25.08 3.82 7.645 5.28 15.836 4.75 23.772-3 38.122-39.39 93.126-39.39 93.126s-64.19-4.983-98.11-24.48c-6.68-4.366-12.34-10.448-16.14-18.093z"/></svg>