<svg xmlns="http://www.w3.org/2000/svg" width="256" height="256" viewBox="0 0 256 256"><path fill="#AA8ED6" d="M127.61 200.412c-.72 0-1.438-.193-2.074-.58-2.28-1.38-56.085-34.222-77.824-67.285-.042-.063-.08-.128-.12-.193-4.496-7.764-6.848-16.566-6.8-25.455.093-22.32 14.482-41.62 35.825-48.08 5.55-2.15 11.246-3.24 16.936-3.24h.35c13.093.06 25.336 5.74 34.256 15.32 8.96-9.45 21.18-14.53 34.2-14.53h.2c5.89 0 11.69.92 17.25 3.14 21.28 6.67 35.5 25.98 35.39 48.28-.04 8.87-2.47 17.59-7.03 25.31-20.19 33.22-76.22 65.44-78.59 66.79-.62.35-1.3.5-1.99.5z"/><path fill="#333" d="M93.553 59.588h.318c14.04.065 26.36 7.117 34.26 17.485 7.96-10.25 20.27-16.692 34.23-16.692h.19c5.66 0 11 .94 15.93 2.92 19.03 5.9 32.84 23.55 32.73 44.49-.03 8.55-2.42 16.46-6.47 23.3-19.85 32.68-77.13 65.36-77.13 65.36s-55.06-33.39-76.55-66.08c-4-6.91-6.31-14.89-6.26-23.43.09-20.95 14.02-38.59 33.13-44.31 4.86-1.9 10.1-3.02 15.64-3.02m0-8c-6.14 0-12.27 1.16-18.24 3.46-10.84 3.31-20.59 10.11-27.47 19.17C40.68 83.7 36.85 95 36.8 106.91c-.05 9.594 2.49 19.097 7.35 27.476.08.13.16.26.24.387 22.23 33.81 76.78 67.11 79.098 68.51 1.274.77 2.71 1.16 4.147 1.16 1.36 0 2.73-.35 3.96-1.054 2.41-1.38 59.305-34.13 80-68.18.02-.03.033-.06.05-.09 4.924-8.34 7.546-17.81 7.583-27.4.054-11.9-3.675-23.23-10.786-32.77-6.8-9.12-16.473-15.76-27.267-19.18-5.99-2.37-12.235-3.38-18.57-3.38h-.23c-12.76 0-24.81 4.47-34.18 12.92-9.34-8.58-21.426-13.52-34.276-13.58l-.36-.13z"/></svg>