<svg xmlns="http://www.w3.org/2000/svg" width="256" height="256" viewBox="0 0 256 256"><path fill="#ED1E79" d="M112.678 215.154c-.563 0-1.127-.12-1.652-.357-.974-.44-23.28-10.636-44.392-26.937l-4.54 3.337 1.393.526c1.58.598 2.615 2.123 2.585 3.812-.03 1.69-1.118 3.178-2.718 3.72l-39.8 13.462c-.42.143-.852.21-1.28.21-1.2 0-2.364-.54-3.137-1.517-1.05-1.325-1.152-3.166-.257-4.6l22.23-35.627c.74-1.188 2.032-1.883 3.392-1.883.28 0 .565.03.848.09 1.65.358 2.898 1.713 3.12 3.387l.47 3.58 2.422-1.854c-9.21-9.274-15.55-18.584-18.882-27.725-4.38-7.683-6.668-16.367-6.618-25.14.09-22.313 14.478-41.613 35.822-48.072 5.55-2.147 11.246-3.237 16.936-3.237h.35c13.092.06 25.336 5.37 34.258 14.94 8.96-9.45 21.18-14.9 34.2-14.9h.203c1.77 0 3.55.24 5.34.46l41.58-29.33c.69-.49 1.5-.71 2.31-.71.84 0 1.67.27 2.38.79 1.39 1.02 1.97 2.83 1.43 4.47l-7.99 24.47 2.88-2.08c.71-.51 1.53-.75 2.34-.75 1.23 0 2.44.56 3.23 1.63l6.9 9.36c.64.86.9 1.93.73 2.99-.16 1.05-.74 2-1.61 2.62l-1.63 1.18L233.39 83c.12-.01.24-.014.356-.014 1.664 0 3.17 1.035 3.75 2.62.627 1.7.03 3.602-1.443 4.646l-36.16 25.56c.28 2.2.417 4.41.406 6.602-.04 8.75-2.4 17.41-6.84 25.06-14.33 38.255-76.49 66.15-79.14 67.32-.52.23-1.07.345-1.62.345z"/><path fill="#333" d="M196.855 44.845l-11.8 36.135 12.833-9.26 6.9 9.364-18.003 12.993c.06.08.123.156.183.235l4.86-3.564 41.897-3.752-38.184 26.99c.49 2.732.75 5.545.73 8.42-.03 8.546-2.42 16.513-6.47 23.36-13.66 37.284-77.12 65.388-77.12 65.388s-24.32-11.024-45.97-28.316l-9.42 6.93-.02-.09-3.47 2.655 8.29 3.132-39.8 13.463L44.5 173.3l1.375 10.438 11.594-8.873c-9.47-8.873-17.5-18.956-21.35-29.772-4.01-6.912-6.32-14.89-6.27-23.43.08-20.947 14.01-38.59 33.12-44.31 4.86-1.898 10.1-3.02 15.63-3.02h.32c14.03.064 26.36 6.744 34.26 17.112 7.96-10.25 20.26-17.064 34.23-17.064h.18c2.3 0 4.55.35 6.75.71l.05-.31 42.44-29.93m0-8c-1.62 0-3.23.49-4.62 1.47l-40.34 28.39c-1.42-.13-2.84-.33-4.23-.33h-.23c-12.77 0-24.81 4.84-34.18 13.29-9.35-8.58-21.43-13.34-34.28-13.39l-.36.03c-6.14 0-12.27 1.18-18.24 3.47C49.52 73.09 39.78 79.9 32.9 88.96c-7.185 9.46-11.01 20.76-11.056 32.67-.05 9.35 2.36 18.62 6.98 26.84 2.3 6.18 5.86 12.4 10.65 18.608-.685.55-1.285 1.22-1.77 1.996L15.48 204.7c-1.79 2.864-1.58 6.55.517 9.2 1.546 1.95 3.875 3.03 6.274 3.03.86 0 1.72-.136 2.56-.42l39.57-13.463c3.2-1.085 5.21-4.06 5.21-7.44v-.206c20 14.02 38.63 22.63 39.53 23.04 1.05.48 2.29.72 3.42.72 1.11 0 2.27-.23 3.3-.69 2.71-1.2 66.03-29.61 81.17-69.26 4.69-8.18 7.19-17.42 7.23-26.76.01-1.55-.05-3.12-.17-4.69l34.26-24.21c2.96-2.09 4.14-5.9 2.9-9.29-1.16-3.16-4.18-5.24-7.5-5.24-.24 0-.48.01-.72.04l-20.22 1.81c-.05-1.61-.58-3.18-1.55-4.5l-6.9-9.36c-1.31-1.78-3.22-2.86-5.25-3.16l5.38-16.48c1.07-3.28-.08-6.87-2.85-8.92-1.41-1.04-3.08-1.56-4.75-1.56z"/><path fill="#C7B299" d="M131.8 132.623L45.614 198.59l-6.9-9.37 86.18-65.962z"/><path fill="#999" d="M44.502 173.3l-22.23 35.628 24.384-19.293z"/><path fill="#ccc" d="M62.072 195.465l-39.8 13.463 24.384-19.293z"/><path fill="#998675" d="M57.286 189.768l35.61-26.172 5.168-4.825-10.528-6.08-33.833 25.09z"/><path fill="#ED1E79" d="M29.86 121.663c.085-20.948 14.015-38.592 33.126-44.31 4.953-1.936 10.3-3.064 15.95-3.02 14.038.063 26.36 6.865 34.263 17.233 7.99-10.297 20.37-17 34.41-16.94 5.65.03 11 1.18 15.92 3.164 19.03 5.9 32.83 23.67 32.73 44.616-.04 8.546-2.43 16.513-6.47 23.36-13.67 37.284-77.13 65.388-77.13 65.388S49.43 182.492 36.1 145.09c-4.008-6.91-6.31-14.88-6.26-23.42z"/><path fill="#D4145A" d="M123.13 112.242s8.644-4.733 14.89 3.657c.186.25.588.31.773.59 0 0 15.61.7 14.398 9.18l-10.31 8.7h-19.64l-.11-22.14z"/><path fill="#C7B299" d="M204.79 81.084L92.603 162.05l-6.903-9.366L197.89 71.72z"/><path fill="#E6E6E6" d="M184.926 81.378l-35.438 26.004 4.93-32.54 42.437-29.997zm6.902 9.372l-35.443 25.996 34.9.25 42.442-30z"/><path fill="#ED1E79" d="M123.242 103.32s9.816 7.272 9.816 23.272c0 0 14.912-7.637 18.305 4 3.39 11.632-61.082 42.173-61.082 42.173l-28.6-31.995 61.57-37.45z"/></svg>