<svg xmlns="http://www.w3.org/2000/svg" width="256" height="256" viewBox="0 0 256 256"><path fill="#ED1E79" d="M106.987 218.563C89.013 209.39 46.1 184.75 34.77 153.64c-4.38-7.68-6.667-16.363-6.62-25.138.09-22.314 14.48-41.615 35.82-48.074 5.55-2.147 11.247-3.237 16.937-3.237l.35.01c11.065.05 21.844 4.08 30.338 11.34l1.908 1.63-12.06 45.78 22.447 14.61-25.336 23.84 17.407 48.76-8.97-4.57zm16.11-45.39l22.886-21.486-11.926-19.19 30.467-47.216 1.62-.34c3.314-.71 6.675-1.07 9.986-1.07 2.916 0 5.84.28 8.69.84 5.774 1.12 11.265 3.32 16.316 6.54 19.676 10.52 30.03 32.26 25.77 54.15-1.667 8.61-5.6 16.68-11.382 23.35-17.415 28.7-64.963 44.49-84.65 49.96l-4.745 1.32-3.04-46.83z"/><path fill="#333" d="M142.616 25.354l-9.22 45.946 25.864-42.852zm-5.088 59.42l49.205-53.757L197.08 45.53zm-11.893-6.19l-9.748-44.023-9 4.09zM107.46 214.31c-17.145-8.885-58.56-32.908-69.048-62.354-4.008-6.914-6.31-14.89-6.264-23.43.085-20.95 14.015-38.498 33.124-44.216 4.86-1.9 10.1-2.927 15.633-2.927h.318c10.482 0 19.99 3.783 27.43 10.01l8.875-3.12-3.336-2.813c-9.212-7.88-20.908-12.23-32.933-12.283l-.36.008c-6.14 0-12.27 1.168-18.24 3.46C51.82 79.96 42.08 86.762 35.2 95.82c-7.185 9.46-11.01 20.76-11.057 32.674-.05 9.355 2.36 18.62 6.978 26.837 12 32.29 55.71 57.45 74.04 66.8l16.7 8.52-14.4-16.33zm118.88-102.373c-4.986-10.22-13.21-18.788-23.18-24.156-5.443-3.45-11.356-5.81-17.58-7.01-3.096-.6-6.277-.91-9.45-.91-3.594 0-7.236.4-10.827 1.17l-1.58.34 4.323 7.28c2.638-.5 5.338-.78 8.085-.78 2.62 0 5.27.25 7.93.77 5.55 1.08 10.59 3.2 15.06 6.07 17.6 9.34 27.87 29.37 23.87 49.93-1.62 8.39-5.45 15.78-10.7 21.75-16.66 27.9-64.87 43.53-81.87 48.3l-7.97 10.13.03.38 9.49-2.63c20.08-5.58 68.52-21.71 86.82-51.44 6.12-7.15 10.29-15.77 12.07-24.95 2.28-11.68.72-23.51-4.49-34.2zm-118.88 102.37l-.096-14.62 14.46 30.917"/><path fill="#333" d="M108.654 91.543l-1.29 19.81 10.166-23.005zm55.07-10.183l-10.693 21.326 15.02-14.044zm-39.026 118.993l-2.24 24.823 7.947-10.514z"/></svg>