<svg xmlns="http://www.w3.org/2000/svg" width="256" height="256" viewBox="0 0 256 256"><path fill="#8DB9C9" d="M59.146 201.004c-8.864 0-15.48-1.712-16.717-2.055-1.53-.43-2.68-1.72-2.91-3.29-.23-1.57.48-3.13 1.82-3.97 6.89-4.32 17.67-12.71 21.11-19.12-22.12-12.35-34.72-30.17-34.72-49.28 0-17.78 10.83-34.37 30.5-46.72 19.09-11.99 44.35-18.59 71.13-18.59s52.04 6.6 71.14 18.58c19.67 12.35 30.5 28.94 30.5 46.71 0 17.78-10.84 34.37-30.51 46.72-19.09 11.99-44.36 18.59-71.14 18.59-11.78 0-23.35-1.28-34.42-3.82-10.92 10.19-24.17 16.22-35.81 16.22z"/><path fill="#333" d="M129.39 61.996c53.838 0 97.64 27.497 97.64 61.304 0 33.813-43.802 61.313-97.64 61.313-12.248 0-24.226-1.42-35.62-4.21-11.314 11.21-24.55 16.602-34.625 16.602-8.957 0-15.4-1.842-15.673-1.916 0 0 21.887-13.7 23.925-24.4C44.717 159 31.75 141.8 31.75 123.3c0-33.807 43.8-61.304 97.64-61.304m0-8c-27.525 0-53.544 6.818-73.264 19.2C35.25 86.3 23.75 104.096 23.75 123.298c0 19.47 11.906 37.57 32.957 50.538-1.482 1.775-3.733 4.07-7.15 6.913-5.252 4.36-10.278 7.52-10.328 7.55-2.7 1.68-4.14 4.8-3.68 7.94.46 3.14 2.74 5.71 5.8 6.55 1.85.51 8.63 2.2 17.78 2.2 12.06 0 25.62-5.87 36.97-15.86 10.74 2.3 21.91 3.46 33.27 3.46 27.52 0 53.54-6.82 73.26-19.2 20.88-13.11 32.37-30.91 32.37-50.11s-11.5-37-32.38-50.11c-19.72-12.38-45.74-19.2-73.27-19.2z"/><path fill="#49656D" d="M106.23 121.002c0 4.17-3.383 7.554-7.554 7.554-4.174 0-7.557-3.384-7.557-7.554 0-4.175 3.38-7.558 7.55-7.558s7.55 3.383 7.55 7.558zm29.325 0c0 4.17-3.382 7.554-7.553 7.554-4.173 0-7.556-3.384-7.556-7.554 0-4.175 3.382-7.558 7.556-7.558 4.17 0 7.553 3.383 7.553 7.558zm29.325 0c0 4.17-3.38 7.554-7.55 7.554-4.175 0-7.558-3.384-7.558-7.554 0-4.175 3.383-7.558 7.557-7.558 4.17 0 7.55 3.383 7.55 7.558z"/></svg>