<svg xmlns="http://www.w3.org/2000/svg" width="256" height="256" viewBox="0 0 256 256"><path fill="#C69C6D" d="M77.38 48.85c2.148 3.32 3.518 5.874 5.07 8.76 1.544 2.76 2.91 5.59 4.252 8.398 2.718 5.608 4.94 11.433 6.785 17.41 3.627 11.89 4.818 25.326 1.116 37.905-3.606 12.637-11.453 23.135-19.954 31.948-8.66 8.84-18.31 16.1-27.92 23.65l-13.27-28.25c10.22-1.82 19.79-5.61 27.92-11 8.16-5.3 14.65-12.66 17.52-21.18 2.96-8.49 1.92-18.14-2.31-26.69-2.04-4.29-4.96-8.25-8.23-11.85-1.66-1.78-3.49-3.44-5.36-4.98-1.86-1.41-4.06-3.04-5.79-3.62l20.16-20.49zm15.84 165.463c1.522-3.646 2.866-6.212 4.37-9.124 1.414-2.84 2.974-5.56 4.543-8.26 3.1-5.4 6.653-10.52 10.536-15.42 7.77-9.71 18.18-18.27 30.66-22.31 12.46-4.15 25.56-3.6 37.64-1.54 12.18 2.14 23.63 6.02 35.27 9.7l-15.83 26.89c-7.28-7.41-15.81-13.16-24.84-16.84-9-3.76-18.73-4.96-27.38-2.53-8.69 2.35-16.07 8.65-20.73 16.96-2.4 4.12-4.02 8.76-5.15 13.49-.56 2.37-.88 4.81-1.1 7.22-.13 2.34-.23 5.07.26 6.82l-28.26-5.07zm128.128-93.578c-3.933.395-6.83.44-10.104.52-3.166.107-6.295.027-9.42-.052-6.22-.155-12.418-.832-18.574-1.922-12.234-2.19-24.738-7.27-34.238-16.32-9.595-8.97-15.354-20.74-19.317-32.33-3.912-11.74-5.952-23.64-8.29-35.64l31.197 1.1c-3.05 9.92-4.04 20.17-2.953 29.86.98 9.7 4.57 18.82 10.83 25.27 6.2 6.53 15.27 10.01 24.8 10.13 4.76.15 9.6-.62 14.3-1.9 2.34-.65 4.64-1.53 6.87-2.49 2.11-1 4.56-2.22 5.86-3.49l9.02 27.3z"/></svg>