<svg xmlns="http://www.w3.org/2000/svg" width="256" height="256" viewBox="0 0 256 256"><path fill="#FCEE21" d="M97.842 204.242c-.208 0-.417-.016-.626-.05-1.504-.237-2.742-1.31-3.194-2.763l-9.383-30.19-30.19-9.39c-1.46-.45-2.53-1.69-2.77-3.2s.4-3.02 1.64-3.89l15.89-11.24c-.41-.8-.82-1.64-1.22-2.52-.03-.07-.06-.13-.09-.2l-1.51-3.8-.24-.61c-.2-.52-.41-1.04-.59-1.57-.02-.06-.19-.62-.19-.62l-.5-1.71c-1.98-6.23-3.01-13.49-2.95-20.91.08-8.22 1.66-16.55 4.57-24.1 3.09-8.08 8.07-15.88 14.38-22.56C84.74 60.83 95 53.58 97.75 52.27l2.92-1.48c.83-.43 1.68-.75 2.42-1.04.31-.12.628-.24.937-.37 7.544-2.98 15.77-4.545 23.85-4.545 1.307 0 2.627.04 3.925.12 9.235.65 18.294 3.33 26.23 7.75.33.196.61.346.89.497.66.356 1.405.76 2.154 1.28l2.49 1.704c1.54.98 2.83 2.09 4.083 3.16.35.3.71.61 1.07.9l1.19 1.017.18.164c.27.266.53.54.8.81l2.43 2.524 1.25 1.32c.09.1.18.2.26.31l2.66 3.45c.22.29.44.57.68.91l.87 1.34 1.61 2.51c.69 1.02 1.17 2 1.6 2.87l-3.52 1.92 3.58-1.78 1.17 2.36c.49.92.83 1.83 1.13 2.63l1.05 2.78c.38.92.62 1.8.83 2.58l.81 3.02c1.61 6.73 1.99 13.63 1.14 20.5-.77 6.02-2.36 11.68-4.59 16.37l-.67 1.52c-.03.07-.07.14-.1.21-.19.37-.4.74-.6 1.1l-1.8 3.21c-.04.07-.09.14-.13.21-.78 1.21-1.57 2.32-2.26 3.3-.32.45-.63.89-.92 1.31-.08.12-.17.23-.27.34l-2.82 3.27c-.52.64-1.05 1.13-1.44 1.5l-3.12 2.95c-.77.73-1.76 1.09-2.75 1.09-.96 0-1.92-.34-2.68-1.03-1.55-1.4-1.76-3.75-.49-5.41l2.64-3.41c.23-.29.43-.55.55-.77l2.22-3.58.66-1.35c.48-.96.96-1.94 1.43-2.98l1.19-3.2c.08-.22.17-.45.25-.68l.41-1.57c1.14-3.79 1.67-8.3 1.53-13.04-.17-5.06-1.26-10.16-3.15-14.74l-1.04-2.31c-.2-.45-.37-.84-.54-1.11l-.09-.15-1.3-2.26c-.25-.44-.47-.83-.68-1.09-.04-.05-.08-.1-.11-.15l-1.39-1.94c-.32-.45-.64-.92-.88-1.16l-.16-.17-1.41-1.61-.68-.79c-.1-.1-.22-.2-.33-.31l-2.78-2.63-3.39-2.55-.85-.52c-.37-.21-.79-.47-1.2-.72-.82-.5-1.59-.98-2.31-1.28l-.21-.09-2.1-1c-.25-.13-.58-.24-.93-.35-.32-.11-.65-.22-.97-.34-4.05-1.47-8.57-2.26-12.99-2.26-1.11 0-2.23.05-3.33.15-5.29.54-10.48 2.25-14.96 4.94-.2.13-.49.29-.79.46-.25.14-.51.28-.63.37l-1.71 1.27c-.07.05-.21.14-.28.19-.5.32-.88.68-1.35 1.14-.35.34-.7.67-1.08.98l-.45.39-.77.81-1.89 2-.6.84-1.16 1.58c-2.47 3.59-4.22 7.7-5.05 11.88-.73 3.64-.8 7.5-.19 11.16.3 1.79.72 3.48 1.23 5.01l8.16 6.09 29.94-10.15c.42-.14.85-.21 1.28-.21 1.04 0 2.07.41 2.83 1.17 1.08 1.08 1.45 2.67.96 4.11l-10.15 29.94 18.9 25.34c.91 1.22 1.05 2.85.36 4.21-.69 1.34-2.06 2.18-3.57 2.18l-31.66-.4-18.24 25.8c-.75 1.07-1.98 1.69-3.26 1.69z"/><path fill="#F15A24" d="M127.912 48.87c1.23 0 2.456.037 3.678.113 8.745.615 17.205 3.17 24.53 7.25.908.525 1.855.967 2.712 1.563l2.566 1.757c1.742 1.104 3.247 2.514 4.8 3.805l1.15.98c.36.35.704.72 1.056 1.077l2.07 2.15 1.222 1.294.804 1.04 1.597 2.07c.27.36.524.65.8 1.06l.832 1.27 1.61 2.52c.57.83.98 1.67 1.39 2.51l1.24 2.48c.43.8.74 1.67 1.06 2.52l.96 2.52c.34.82.55 1.68.79 2.53l.68 2.52c1.61 6.73 1.78 13.26 1.06 19.08-.74 5.82-2.24 10.98-4.26 15.2-.23.53-.47 1.05-.69 1.57-.26.5-.54.98-.8 1.45l-1.53 2.72c-1.09 1.68-2.18 3.16-3.11 4.5l-2.86 3.32c-.4.5-.84.89-1.23 1.26l-1.07 1.01-1.94 1.83 1.63-2.11.88-1.14c.32-.42.69-.87 1-1.42l2.25-3.63c.69-1.45 1.5-3.01 2.27-4.74l1.03-2.79c.17-.48.36-.97.53-1.47l.41-1.56c1.25-4.17 1.84-9.09 1.69-14.31-.17-5.23-1.24-10.82-3.47-16.21-.3-.66-.6-1.33-.9-2-.3-.67-.58-1.35-.98-1.98-.37-.64-.74-1.29-1.11-1.94-.37-.65-.72-1.31-1.19-1.9l-1.32-1.84c-.43-.62-.87-1.24-1.36-1.74l-1.42-1.6-.7-.81c-.26-.28-.61-.59-.92-.89l-1.9-1.8-.96-.91-.06-.06c.17.18.21.23.21.23l-.07-.06.01.01-.12-.09-.23-.18-.47-.35-1.85-1.4c-.31-.23-.61-.48-.92-.7l-1-.6c-1.35-.78-2.61-1.68-4.06-2.28l-2.1-1c-.69-.35-1.46-.54-2.18-.82-4.65-1.69-9.58-2.53-14.45-2.53-1.23 0-2.46.05-3.69.16-6.04.62-11.78 2.56-16.66 5.49-.61.38-1.25.67-1.81 1.11l-1.66 1.29c-1.25.81-1.93 1.66-2.83 2.41l-.65.56-.91.94-1.82 1.93-.45.48-.23.24-.12.12.03-.03-.11.1.47-.45-.04.05-.59.81-1.16 1.59c-2.96 4.3-4.81 8.94-5.7 13.42-.9 4.48-.84 8.8-.22 12.59.42 2.51 1.04 4.8 1.83 6.84l10.81 8.06 31.93-10.83-10.83 31.93L151 173.12l-33.712-.43-19.464 27.53-10.01-32.19-32.196-10.01 18.746-13.25c-.884-1.67-1.832-3.465-2.747-5.442l-1.52-3.805c-.252-.66-.523-1.322-.763-2.012l-.623-2.14c-1.82-5.74-2.85-12.49-2.79-19.75.07-7.25 1.37-15.07 4.31-22.69 2.92-7.62 7.6-14.94 13.56-21.25 3.75-3.95 13.79-10.91 15.73-11.8l2.97-1.5c.99-.5 2.06-.85 3.09-1.27 7.12-2.8 14.76-4.23 22.32-4.23m0-8c-8.57 0-17.31 1.66-25.26 4.8-.04.02-.08.03-.11.05-.27.12-.55.22-.83.33-.8.31-1.79.69-2.83 1.22l-.73.37-2.2 1.11C92.63 50.4 82.23 57.71 78 62.18c-6.676 7.057-11.94 15.316-15.22 23.888-3.077 7.98-4.75 16.797-4.835 25.477-.065 7.82 1.02 15.477 3.137 22.167l.484 1.648.12.41c.038.124.078.247.12.368.218.628.443 1.204.64 1.712l.208.532c.01.035.025.07.04.105l.973 2.442.506 1.26-13.15 9.3c-2.485 1.75-3.758 4.77-3.28 7.78.475 3 2.618 5.48 5.526 6.38l28.18 8.76 8.76 28.18c.9 2.91 3.38 5.05 6.38 5.52.42.06.84.1 1.25.1 2.57 0 5.01-1.24 6.53-3.39l17.04-23.98 29.5.49h.1c3 0 5.76-1.81 7.12-4.49 1.38-2.72 1.1-6.04-.72-8.48l-17.65-23.68 9.48-27.96c.97-2.89.23-6.08-1.92-8.23-1.53-1.53-3.57-2.35-5.66-2.35-.86 0-1.73.14-2.57.42l-27.95 9.47-5.44-4.06c-.29-1.02-.54-2.11-.73-3.27-.52-3.15-.46-6.51.17-9.68.72-3.64 2.24-7.21 4.38-10.35l1.09-1.49.06-.08.44-.61 1.71-1.8.61-.64.31-.28c.49-.41.9-.8 1.22-1.11.38-.36.58-.56.76-.67.14-.09.28-.19.42-.29l.19-.14 1.5-1.11.02-.01c.08-.06.17-.1.26-.15.32-.18.63-.36.94-.56 3.94-2.36 8.52-3.86 13.24-4.35.96-.09 1.94-.13 2.92-.13 3.94 0 7.97.7 11.65 2.03.34.13.69.25 1.04.37.15.05.29.09.44.15l.05.03 2.1 1 .4.18c.42.17 1.06.56 1.73.98.43.26.85.53 1.29.78l.63.38.14.11.43.33.06.05L157 83l.496.37.15.11.35.33 1.86 1.766.41.386c.05.047.1.09.147.136l.54.624.06.07.79.89.63.71.26.28c.105.13.33.45.494.686l.04.06.05.077.243.34 1.08 1.504c.063.09.13.18.196.26.073.11.235.4.355.61l.19.33.33.57.8 1.39.17.27c.06.11.19.4.28.61l.17.38.47 1.04.39.85c1.7 4.13 2.67 8.73 2.82 13.3.13 4.29-.34 8.36-1.36 11.74-.03.09-.05.18-.08.27l-.33 1.29-.16.44-.21.59-.56 1.51-.37.99c-.42.93-.87 1.84-1.3 2.72-.2.41-.4.8-.59 1.19l-2.01 3.28c-.05.07-.09.15-.14.23l-.26.34-.13.16-.89 1.16-1.63 2.11c-2.55 3.3-2.13 8.02.97 10.82 1.52 1.38 3.45 2.06 5.37 2.06 1.98 0 3.95-.73 5.49-2.18l1.94-1.84.5-.47.55-.52.1-.1c.44-.41 1.09-1.02 1.76-1.84l1.1-1.27 1.69-1.96c.19-.22.37-.45.53-.69.29-.41.59-.83.9-1.27.72-1.01 1.53-2.16 2.36-3.44.09-.14.18-.28.26-.43l1.24-2.21.29-.52.04-.07.23-.42c.23-.41.46-.82.68-1.25.08-.14.14-.29.21-.43l.29-.66.35-.8c2.44-5.13 4.09-11.03 4.92-17.52.92-7.38.51-14.75-1.21-21.96-.02-.08-.03-.15-.06-.23l-.28-1.02-.4-1.5-.11-.39c-.23-.84-.51-1.88-.97-3.01l-.92-2.42-.12-.31c-.32-.86-.72-1.92-1.32-3.05l-1.19-2.38-.02-.05c-.45-.92-1.02-2.06-1.84-3.29l-.9-1.42-.66-1.03c-.01-.02-.03-.05-.04-.07l-.83-1.27-.08-.13c-.33-.48-.62-.85-.83-1.12-.06-.07-.11-.15-.17-.23l-.06-.08-1.47-1.91-.12-.16-.81-1.05c-.16-.21-.33-.41-.52-.6l-1.22-1.29-.05-.05-.77-.8-1.3-1.35-.06-.06-.3-.31c-.29-.3-.59-.61-.9-.91-.11-.11-.23-.22-.36-.32l-1.15-.98-.08-.07-1.03-.87c-1.28-1.1-2.72-2.33-4.47-3.46l-2.44-1.67c-.93-.64-1.81-1.12-2.52-1.5-.24-.13-.48-.26-.73-.4l-.11-.07c-8.44-4.71-18.08-7.56-27.86-8.24l-.06-.01c-1.38-.09-2.78-.13-4.17-.13z"/><path fill="#FBB03B" d="M82.38 156.295l-1.625-2.11-.887-1.15c-.163-.21-.334-.43-.51-.662l-.142-.184-.2-.29c-.135-.19-.272-.39-.41-.59-1.115-1.59-2.363-3.44-3.687-5.52-1.03-1.95-2.19-4.08-3.29-6.46l-1.52-3.81c-.25-.66-.53-1.33-.77-2.02-.21-.7-.42-1.41-.63-2.14-1.83-5.74-2.85-12.5-2.79-19.76.07-7.26 1.36-15.07 4.3-22.69 2.91-7.62 7.51-15.03 13.56-21.25l2.33-2.28 1.17-1.13.07-.07c.92-.88.29-.28.52-.48l.13-.1.26-.21.52-.4 2.1-1.62 1.08-.83 1.5-1.02c2-1.32 4.08-2.78 6.03-3.67l2.97-1.5c.98-.5 2.05-.85 3.08-1.27 8.27-3.27 17.26-4.67 26-4.13 8.74.61 17.2 3.17 24.53 7.25.91.52 1.85.97 2.71 1.56l2.57 1.75c1.74 1.11 3.24 2.52 4.8 3.81l1.15.98c.36.35.7.72 1.05 1.07l2.07 2.15 1.22 1.3.8 1.04 1.59 2.07c.27.36.52.65.8 1.06l.83 1.27 1.62 2.52c.56.83.98 1.67 1.39 2.51l1.24 2.49c.43.81.74 1.67 1.06 2.52l.96 2.52c.34.82.56 1.69.79 2.53l.68 2.52c1.61 6.73 1.79 13.26 1.06 19.08-.74 5.82-2.24 10.98-4.25 15.2l-.69 1.57c-.26.5-.54.98-.8 1.46l-1.53 2.72c-1.09 1.68-2.18 3.16-3.11 4.5l-2.86 3.32c-.4.49-.83.89-1.23 1.26l-1.06 1.01-1.94 1.83 1.62-2.11.88-1.15c.33-.42.69-.87 1-1.41l2.25-3.63c.69-1.44 1.51-3 2.28-4.74l1.03-2.79c.17-.48.36-.96.53-1.46L177 125c1.25-4.17 1.845-9.09 1.69-14.317-.17-5.23-1.24-10.82-3.47-16.21-.3-.66-.6-1.33-.9-2-.3-.67-.574-1.35-.98-1.98-.37-.64-.74-1.288-1.11-1.937-.37-.64-.715-1.3-1.186-1.9-.44-.61-.88-1.22-1.32-1.84-.435-.62-.867-1.25-1.36-1.75l-1.42-1.6-.698-.804c-.25-.274-.61-.59-.91-.88l-1.9-1.795-.96-.9-.06-.06c.41.44.08.1.154.183l-.113-.084-.23-.18-.468-.35-1.86-1.4c-.31-.23-.61-.47-.93-.694l-1-.6c-1.34-.78-2.6-1.68-4.05-2.274l-2.1-1c-.69-.34-1.46-.54-2.18-.82-5.83-2.11-12.1-2.9-18.13-2.37-6.04.62-11.79 2.57-16.66 5.5-.61.38-1.25.67-1.81 1.104l-1.7 1.26c-1.25.81-1.93 1.66-2.83 2.41l-.64.56-.9.947c-.61.64-1.22 1.29-1.82 1.93l-.46.48-.23.24-.11.12c.18-.17-.49.47.4-.37l-.04.05-.58.81-1.17 1.59c-2.96 4.29-4.81 8.93-5.7 13.41-.9 4.49-.84 8.8-.22 12.59.64 3.79 1.71 7.11 3.16 9.76l.47 1c.18.31.38.61.57.9.37.59.71 1.16 1.04 1.71.75 1.04 1.5 1.95 2.1 2.79.59.52 1.05 1 1.43 1.43l.13.16.06.08.15.15.6.57 1.05.99 1.94 1.83c7.44 7.05 7.77 18.79.72 26.23-7.04 7.45-18.79 7.77-26.23.73-.69-.65-1.31-1.34-1.88-2.06l-.06-.09z"/><path fill="#FCEE21" d="M141.687 114.193l-10.83 31.93 20.166 27.022-33.713-.43-19.468 27.527-10.007-32.197-32.197-10.008 27.528-19.468-.43-33.72 27.02 20.16z"/><path fill="#F7931E" d="M107.9 129.66c-.315-.3-.667-.632-1.055-1l-.607-.575-.15-.145-.066-.08-.136-.16c-.374-.434-.835-.91-1.426-1.43-.596-.843-1.35-1.75-2.1-2.788-.324-.548-.67-1.118-1.043-1.708-.182-.297-.388-.593-.57-.907-.153-.328-.31-.66-.47-.998-1.444-2.66-2.514-5.98-3.157-9.77-.244-1.48-.397-3.05-.445-4.67-14.267-8.34-20.948-16.11-23.725-22.55-1.01 1.99-1.92 4.01-2.7 6.05-2.94 7.62-4.236 15.44-4.307 22.69-.06 7.25.964 14.01 2.79 19.75.21.72.42 1.44.628 2.14.24.69.51 1.35.77 2.01l1.52 3.8c1.11 2.38 2.26 4.51 3.29 6.46 1.33 2.08 2.58 3.93 3.69 5.52l.41.58.2.28.15.18.51.66.89 1.15 1.63 2.11.07.08c.57.72 1.19 1.41 1.88 2.06l25.51-26.96-1.93-1.83z"/><path fill="#FCEE21" d="M141.687 114.193l-10.83 31.93 20.166 27.022-33.713-.43-19.468 27.527-10.007-32.197-32.197-10.008 27.528-19.468-.43-33.72 27.02 20.16z"/></svg>