<svg xmlns="http://www.w3.org/2000/svg" width="256" height="256" viewBox="0 0 256 256"><path fill="#82DAF9" d="M146.015 214.588c-25.118 0-45.707-19.656-47.026-44.313-5.19-2.04-9.26-3.97-13.32-8.8l-71.12-9.127c-2.08-.267-3.6-2.085-3.49-4.173.1-2.088 1.8-3.74 3.89-3.794l43.17-1.07-43.71-6.97c-2.06-.33-3.53-2.18-3.36-4.26.16-2.08 1.9-3.68 3.98-3.68H69.4l-55.08-10.07c-2.037-.37-3.45-2.23-3.266-4.3.187-2.06 1.915-3.64 3.984-3.64h55.41c-5.69-6.65-8.478-13.6-8.478-21.06 0-16.85 13.564-31.63 29.026-31.63 3.71 0 7.34.73 10.83 2.19 8.076-11.46 21.332-18.44 35.426-18.44 13.4 0 25.94 6.17 34.14 16.65 5.73-1.92 11.67-2.9 17.696-2.9 30.263 0 55.83 26.38 55.83 57.61 0 29.84-23.355 55.26-51.84 57.45-.586 24.96-21.057 44.36-47.085 44.36z"/><path fill="#0071BC" d="M137.272 45.43c13.62 0 25.62 6.933 32.682 17.442 5.932-2.36 12.38-3.692 19.156-3.692 28.625 0 51.83 24.98 51.83 53.603 0 28.63-23.205 53.598-51.83 53.598h-.223c.14 0 .223 1.27.223 2.75 0 23.81-19.295 41.46-43.096 41.46-23.803 0-43.094-19.02-43.094-42.83 0-.1.005-.12.012-.12.003 0 .007.01.01.01.008 0 .015-.01.017-.11-6.86-2.64-10.82-4.06-15.18-9.81l-72.73-9.53 65.05-1.81c-.09 0-1.4-2.35-1.33-4.02l-63.73-9.98h63.38c.34 0 .24-4.18.93-6.25l-64.31-11.75H80.3c-8.434-7-14.307-15.1-14.307-25.06 0-13.81 11.205-27.63 25.025-27.63 4.48 0 8.63 1.27 12.27 3.34 6.818-11.7 19.47-19.59 33.984-19.59m0-8c-14.36 0-27.923 6.63-36.836 17.67-3.06-.94-6.208-1.42-9.417-1.42-17.6 0-33.03 16.65-33.03 35.64 0 5.99 1.55 11.65 4.7 17.07H15.06c-4.14 0-7.594 3.16-7.967 7.28-.374 4.12 2.458 7.85 6.53 8.59l11.66 2.13H15.06c-4.173 0-7.645 3.21-7.975 7.37-.33 4.16 2.594 7.87 6.715 8.53l.734.12c-4.03.27-7.254 3.51-7.463 7.57-.21 4.18 2.83 7.81 6.98 8.35l69.62 8.93c3.65 3.97 7.35 6.03 11.53 7.8 1.2 11.64 6.32 22.4 14.72 30.73 9.63 9.55 22.45 14.81 36.11 14.81 27.01 0 48.5-19.29 50.88-44.73 13.03-1.78 25.12-8.02 34.66-18.01 11.06-11.57 17.4-27.27 17.4-43.06 0-15.78-6.34-31.48-17.39-43.06-11.42-11.96-26.49-18.55-42.44-18.55-5.54 0-11.01.77-16.33 2.29-8.93-10.14-21.81-16.04-35.51-16.04z"/><path fill="#82DAF9" d="M189.11 59.18c-6.777 0-13.225 1.33-19.156 3.692-7.063-10.51-19.06-17.44-32.682-17.44-14.514 0-27.166 7.885-33.982 19.588-3.64-2.068-7.79-3.34-12.27-3.34-13.82 0-25.026 13.818-25.026 27.632 0 9.967 5.873 18.068 14.307 25.068H15.06l64.31 11.75c-.695 2.067-.593 6.25-.935 6.25H15.06l63.727 10.167c-.073 1.708 1.302 4.27 1.333 4.208l-65.06 1.625 72.727 9.333c4.36 5.752 8.32 7.165 15.174 9.81 0 .25-.03-.026-.03.233 0 23.807 19.29 42.83 43.1 42.83 23.8 0 43.1-17.655 43.1-41.456 0-1.48-.08-2.75-.22-2.75h.23c28.63 0 51.83-24.97 51.83-53.598 0-28.62-23.21-53.602-51.83-53.602z"/><path fill="#6CC5DD" d="M189.11 59.18c-4.092 0-8.045.53-11.855 1.443l-.492.363c52.566 50.445.21 84.257.21 84.257-11.632 36.658-52.983 48.52-71.6 36.682 5.88 16.736 21.833 28.643 40.642 28.643 23.8 0 43.096-17.643 43.096-41.445 0-1.48-.08-2.742-.22-2.742h.23c28.63 0 51.83-24.96 51.83-53.59 0-28.62-23.2-53.6-51.83-53.6z"/></svg>