<svg xmlns="http://www.w3.org/2000/svg" width="256" height="256" viewBox="0 0 256 256"><path fill="#29ABE2" d="M127.996 201.285c-29.604 0-53.688-24.088-53.688-53.695 0-28.525 48.512-88.836 50.577-91.39.76-.94 1.902-1.485 3.11-1.485 1.207 0 2.35.545 3.11 1.484 2.065 2.55 50.585 62.86 50.585 91.39 0 29.6-24.086 53.69-53.694 53.69z"/><path fill="#0071BC" d="M127.996 58.715s49.695 61.436 49.695 88.875c0 27.45-22.24 49.695-49.69 49.695-27.44 0-49.69-22.246-49.69-49.695 0-27.44 49.69-88.875 49.69-88.875m0-8c-2.41 0-4.7 1.09-6.22 2.97-.51.638-12.8 15.874-25.29 34.766-17.61 26.64-26.17 45.98-26.17 59.14 0 31.82 25.88 57.7 57.69 57.7 31.82 0 57.7-25.88 57.7-57.69 0-13.15-8.56-32.5-26.17-59.14-12.49-18.89-24.78-34.12-25.3-34.76-1.52-1.87-3.8-2.97-6.22-2.97z"/><ellipse fill="#fff" cx="128" cy="173.984" rx="24.097" ry="15.505"/></svg>