<?xml version="1.0" encoding="utf-8"?>
<!-- Generator: Adobe Illustrator 16.0.0, SVG Export Plug-In . SVG Version: 6.00 Build 0)  -->
<!DOCTYPE svg PUBLIC "-//W3C//DTD SVG 1.1//EN" "http://www.w3.org/Graphics/SVG/1.1/DTD/svg11.dtd">
<svg version="1.1" id="Layer_1" xmlns="http://www.w3.org/2000/svg" xmlns:xlink="http://www.w3.org/1999/xlink" x="0px" y="0px"
	 width="256px" height="256px" viewBox="0 0 256 256" enable-background="new 0 0 256 256" xml:space="preserve">
<path fill="#333333" d="M192.62,221.38l38.666-73.332l15.644-3.68l-3.039-2.938c-0.791-0.766-19.674-18.737-44.716-18.737
	c-14.376,0-27.592,5.756-39.377,17.133c-6.596-4.969-17.86-11.376-32.077-11.377c-9.94,0-19.63,3.07-28.93,9.17L100.64,90
	c2.946,1.008,6.312,1.69,10.03,1.69c2.033,0,4.083-0.21,6.097-0.627c1.55-0.202,2.96-0.5,4.23-0.904l5.68,1.05l5.302,0.98l2.9-4.55
	c0.04-0.07,2.63-4.13,5.51-8.7c1.721,0.57,3.271,0.72,4.43,0.72c3.061,0,6.141-0.97,9.16-2.88l4.25-2.69l-0.58-5l-1.64-14.06
	c5.16-7.99,4.29-18.62,4.16-19.97l-0.521-5.26l-5.049-1.58l-35.571-10.44l-12.66-4.04l-3.49-1.12l-3.12,1.91l-41.65,25.59
	l-2.66,1.62l-0.86,3l-18.71,65.69c-8.93,15.26-22.74,43.879-20.52,72.01l-4.77,16.74l-0.04,0.139l-0.03,0.141
	c-2.17,8.82-1.57,27.51,16.22,35.07c2.18,0.92,5.32,1.5,14.21,1.5c7.45,0,17.59-0.4,28.33-0.83c12.51-0.49,25.45-1,36.42-1
	c12.71,0,18,0.71,20.2,1.32c2.1,0.569,4.14,1.199,6.3,1.859c7.91,2.439,16.869,5.2,29.76,5.2c11.66,0,25.3-2.271,41.689-6.931
	l-11.01-14.299L192.62,221.38z"/>
<path fill="#FFDDBB" d="M50.702,102.23c0,0-34.75,46.552-26.252,87.473L50.702,102.23L50.702,102.23z"/>
<path fill="#E8C5A7" d="M135.25,59.606c0,0,3.471,17.372,14.477,10.42l-2.898-24.9"/>
<path fill="#FFDDBB" d="M103.985,21.39L62.292,46.944L18.284,201.386c0,0-4.643,18.908,11.576,25.802
	c7.605,3.238,81.158-4.002,98.137,0.638c16.985,4.643,30.03,12.61,74.04,0l36.294-80.642c0,0-40.83-39.471-77.979,3.722
	c0,0-32.201-35.34-70.261,4.497l3.09-79.195c0,0,12.36,13.122,28.57,4.636l18.53-47.873l-36.29-11.58H103.985z"/>
<path fill="#FFDDBB" d="M123.984,27.766l28.25,8.101c0,0,1.361,13.612-6.366,18.242c0,0-2.412,4.558-5.505,9.73
	c-3.088,5.173-12.224,19.51-12.224,19.51l-21.85-4.056"/>
<path fill="#E8C5A7" d="M176.559,181.85l25.479,45.976C202.036,227.825,178.107,223.4,176.559,181.85z M95.292,174.93
	c0,0,2.318,19.693,24.32,18.285c0,0,27.205,4.979,32.717-19.857c0,0,2.021,8.492-2.03,16.539c-2.939,5.84-17.369,10.75-34.16,9.717
	c-16.8-1.03-25.18-13.063-20.85-24.682L95.292,174.93z M90.082,155.4c0,0-5.794,35.004-39.38,35.904c0,0,27.22,10.146,37.064-16.375
	C87.766,174.93,92.972,166.07,90.082,155.4L90.082,155.4z M90.96,71.672c0,0-5.514,16.304-14.2,11.675l-5.933,49.45l10.068-42.99
	C80.895,89.807,90.679,89.529,90.96,71.672z M121.35,204.832c0,0,36.774,9.676,40.83-9.146
	C162.18,195.686,156.96,207.034,121.35,204.832z M116.862,210.452c0,0,24.898,4.729,27.654,17.37l-24.326-4.92
	C120.19,222.902,126.276,219.146,116.862,210.452L116.862,210.452z M182.346,163.846c0,0,29.293-23.69,50.17-3.74l-7.82,17.369
	C224.695,177.475,221.723,152.266,182.346,163.846L182.346,163.846z M116.063,160.535c-5.756,0-10.717-3-10.984-3.165l2.42-3.95
	c0.06,0.034,6.38,3.82,11.78,1.969c2.85-0.984,5.06-3.483,6.54-7.423l4.32,1.632c-1.99,5.308-5.15,8.732-9.39,10.181
	c-1.58,0.54-3.17,0.756-4.71,0.756L116.063,160.535z M117.913,182.814l-4.625-0.279c0.008-0.072,0.363-7.471-3.83-11.355
	c-2.207-2.051-5.44-2.82-9.598-2.271l-0.61-4.601c5.593-0.729,10.11,0.431,13.38,3.471c5.795,5.39,5.307,14.619,5.283,15.01V182.814
	z M125.43,183.055c-3.04-4.779-3.87-9.363-2.478-13.623c2.45-7.511,11-10.951,11.37-11.091l1.695,4.31
	c-0.076,0.031-6.914,2.811-8.671,8.25c-0.928,2.881-0.258,6.141,1.99,9.69l-3.907,2.48L125.43,183.055z M140.385,44.258l2.234,14.14
	v2.36l1.33-3.792l1.55-2.858c0,0-2.13-7.822-5.12-9.85H140.385z M119.035,71.672c0,0-2.71,11.503-6.95,11.675
	c0,0,6.08,0.142,8.687-1.88C120.772,81.467,119.182,75.199,119.035,71.672L119.035,71.672z M112.083,52.514
	c0,0,8.885,1.58,8.69,5.884C120.773,58.398,122.123,51.204,112.083,52.514z M48.77,128c0,0-33.583,71.794,1.933,73.505
	C50.703,201.505,27.533,195.62,48.77,128L48.77,128z"/>
<path fill="#FFF3E9" d="M50.222,165.636c-2.32,11.509,0.432,8.998-1.012,8.71c-1.45-0.296-6.547,1.738-4.223-9.771
	c2.332-11.516,16.596-70.417,18.037-70.126C64.472,94.741,52.554,154.118,50.222,165.636z M236.109,152.116
	c0,0-30.81-24.867-65.35,0C170.76,152.116,200.747,134.884,236.109,152.116L236.109,152.116z M80.892,68.482
	c0,1.988-1.61,3.594-3.596,3.594c-1.992,0-3.604-1.605-3.604-3.594c0-1.99,1.61-3.604,3.604-3.604
	C79.282,64.878,80.892,66.492,80.892,68.482z"/>
</svg>
