<svg xmlns="http://www.w3.org/2000/svg" width="256" height="256" viewBox="0 0 256 256"><path fill="#C3EA78" d="M112 236.825c-7.05 0-13.67-.458-20.238-1.4-7.428-1.097-14.08-2.728-20.352-4.986-3.83-1.39-7.304-2.94-10.625-4.72-1.963-1.06-3.78-2.15-5.55-3.34-1.022-.7-1.99-1.41-2.983-2.18-.028-.02-1.593-1.31-1.593-1.31-.05-.04-.44-.39-.44-.39-.47-.41-.95-.83-2.04-1.95-9.34-9.97-8.84-25.6 1.07-34.89 2.27-2.13 4.87-3.78 7.69-4.9-6.11-8.74-4.48-20.87 3.92-27.64 2.08-1.68 4.45-2.92 6.99-3.67-.52-3.45-.95-7.77.15-12.34 1.96-8.36 7.79-14.03 11.09-16.65 7.48-5.76 13.64-7.12 18.59-8.21l.61-.14.18-.04c4.68-.82 9.03-1.21 13.3-1.21 5.12 0 10.02.57 15 1.75l12.21 2.82c1.79.38 3.63.68 5.4.87l1.49.18c.13.02.27.04.4.07l1.06.24c.59.1 1.18.17 1.74.2.1.01.2.01.31.01 1.94 0 3.85-.92 5.23-2.53.56-.66 1.08-1.44 1.52-2.31l.07-.19c.04-.13.09-.27.15-.39.57-1.24.94-2.49 1.11-3.72l.02-.15c.04-.33.07-.91.08-1.3.04-2.16 1.78-4.09 3.94-4.09h.06c2.13 0 3.89 1.83 3.99 3.97.17 3.63.16 8.51-1.51 13.45-1.58 5.06-5.33 9.78-10.25 12.81-1.67 1.09-3.65 1.98-5.1 2.55-.21.11-.4.23-.6.34 3.67-.74 7.42-1.73 11.25-2.97 2.46-.8 5-1.2 7.56-1.2 5.25 0 10.32 1.68 14.5 4.72.37-.41.76-.79 1.18-1.15l.15-.13c2.27-1.91 5.16-2.95 8.12-2.95 3.76 0 7.3 1.65 9.72 4.53l.13.17c1.32 1.58 2.19 3.43 2.61 5.36 1.04-.27 2.11-.41 3.2-.41 3.76 0 7.3 1.65 9.71 4.53l.12.15c2.13 2.55 3.16 5.83 2.86 9.2-.3 3.35-1.87 6.38-4.44 8.55 0 0-.11.1-.14.12-2.27 1.9-5.15 2.95-8.11 2.95-1.31 0-2.6-.2-3.82-.58-.21.19-.42.38-.63.56l-.12.1c-.31.26-.64.5-.97.73 2.94 5.35 3.27 11.57 1.06 17.09 4.39 2.77 7.63 7.01 9.16 12.09 3.37 11.2-2.65 23-13.7 26.86-25.44 8.87-47.02 13.98-67.93 16.09-6.28.61-12.04.9-17.64.9z"/><path fill="#333" d="M161.614 102.697c.186 3.852.064 7.856-1.303 11.905-1.27 4.063-4.34 8.063-8.59 10.67-1.36.893-3.12 1.685-4.64 2.27-4.15 2.255-9.63 5.883-9.99 9.476 7.73-.464 15.69-2.123 23.57-4.67 2.11-.68 4.24-1.002 6.33-1.002 5.95 0 11.61 2.593 15.5 7.012.45-1.667 1.38-3.22 2.81-4.41l.09-.08c1.63-1.357 3.6-2.02 5.56-2.02 2.48 0 4.94 1.055 6.65 3.102l.08.098c2.57 3.068 2.64 7.393.44 10.525.28.15.55.32.81.505.51-.92 1.18-1.768 2.03-2.48l.1-.08c1.62-1.358 3.59-2.02 5.56-2.02 2.47 0 4.93 1.055 6.64 3.1l.08.1c3.07 3.668 2.59 9.135-1.08 12.2l-.09.082c-1.62 1.355-3.58 2.014-5.54 2.014-1.75 0-3.5-.53-4.99-1.568-.5.92-1.17 1.77-2.03 2.483l-.09.07c-1.42 1.18-3.09 1.83-4.8 1.98 1.06 1.04 2 2.23 2.77 3.58 3.13 5.54 2.6 12.15-.78 17.07 5.01 1.89 9.12 5.99 10.78 11.51 2.75 9.15-2.26 18.81-11.19 21.93-21.23 7.39-43.31 13.49-67.01 15.88-5.65.54-11.4.87-17.25.87-6.42 0-12.97-.4-19.66-1.36-6.39-.95-12.92-2.4-19.56-4.79-3.32-1.21-6.67-2.64-10.08-4.48-1.71-.92-3.43-1.94-5.21-3.14-.89-.61-1.79-1.27-2.76-2.02l-1.51-1.25c-.61-.55-.92-.77-2.14-2.03-7.8-8.32-7.38-21.39.94-29.19 3.49-3.27 7.8-5.07 12.21-5.48-1.03-1.08-1.89-2-3.31-3.75-5.69-7.07-4.57-17.42 2.49-23.11 2.69-2.16 5.84-3.33 9.04-3.58-.54-3.9-1.85-9.06-.51-14.6 1.6-6.83 6.29-11.75 9.69-14.46 7.02-5.39 12.61-6.46 17.58-7.56 4.44-.77 8.6-1.15 12.62-1.15 4.85 0 9.48.55 14.07 1.64l12.23 2.83c1.98.42 3.97.74 5.87.95l1.45.17 1.15.26c.77.14 1.55.23 2.34.27.17.01.34.01.51.01 2.94 0 6-1.29 8.26-3.91.84-.99 1.57-2.11 2.17-3.33.07-.18.13-.34.19-.52.7-1.52 1.21-3.16 1.44-4.84l.02-.08c.08-.56.12-1.12.13-1.69m0-8.32h-.11c-4.31 0-7.8 3.69-7.88 8 0 .22-.02.53-.05.78l-.01.06-.01.11c-.12.85-.38 1.74-.79 2.62-.09.2-.18.42-.25.63-.27.51-.58.97-.91 1.35-.86 1-1.81 1.11-2.18 1.11h-.1c-.37-.02-.77-.07-1.17-.14l-.96-.22c-.27-.06-.53-.1-.8-.14l-1.46-.17-.07-.01c-1.62-.18-3.31-.46-5.02-.82l-12.15-2.81c-5.23-1.25-10.44-1.86-15.87-1.86-4.5 0-9.07.41-13.98 1.27-.12.02-.24.04-.36.07l-.61.13c-5.05 1.11-11.97 2.64-20.11 8.9l-.11.08c-3.71 2.95-10.25 9.32-12.5 18.87-.93 3.87-.92 7.48-.63 10.62-1.82.84-3.55 1.9-5.13 3.18-8.82 7.11-11.4 19.15-6.96 29.04-1.74 1.04-3.37 2.27-4.88 3.69-11.52 10.8-12.1 28.97-1.3 40.49l.09.1c1.12 1.14 1.67 1.64 2.27 2.17l.28.24.25.22 1.51 1.24.17.14c1.06.82 2.1 1.58 3.17 2.31l.05.03c1.88 1.26 3.8 2.42 5.89 3.54 3.49 1.88 7.14 3.5 11.15 4.96 6.53 2.35 13.44 4.05 21.12 5.18 6.78.97 13.59 1.44 20.83 1.44 5.73 0 11.62-.3 18.01-.91 21.26-2.15 43.14-7.32 68.88-16.29 13.09-4.58 20.21-18.54 16.22-31.8-1.5-4.99-4.4-9.28-8.3-12.48 1.03-4.06.98-8.31-.16-12.37 3.87-.02 7.64-1.39 10.61-3.88.06-.05.11-.1.17-.15l.02-.02c3.35-2.84 5.41-6.82 5.8-11.22.39-4.41-.95-8.7-3.78-12.11l-.05-.06-.07-.1c-3.17-3.79-7.83-5.96-12.78-5.96-.17 0-.34 0-.51.01-.58-1.24-1.32-2.42-2.23-3.51l-.03-.04-.12-.14c-3.18-3.79-7.83-5.97-12.78-5.97-3.54 0-6.99 1.14-9.84 3.22-4.26-2.41-9.11-3.72-14.1-3.72-.7 0-1.4.03-2.09.08 1.31-1.99 2.34-4.13 3.05-6.34 1.86-5.55 1.88-10.96 1.69-14.93-.21-4.27-3.73-7.77-7.99-7.77z"/><path fill="#C3EA78" d="M49.4 94.723c-4.427 0-8.59-2.357-10.862-6.15l-.097-.166c-1.7-2.845-2.21-6.25-1.39-9.53.83-3.287 2.88-6.054 5.79-7.79l.14-.087c1.73-1.035 3.71-1.64 5.75-1.754-.46-4.72 1.73-9.483 6.01-12.083l.17-.102c1.97-1.18 4.22-1.8 6.51-1.8 4.44 0 8.6 2.36 10.87 6.15l.09.15c2.25 3.75 2.34 8.33.45 12.13.14.21.28.41.41.62l.12.2c3.59 5.98 1.64 13.78-4.34 17.37l-.11.07c-1.96 1.18-4.21 1.8-6.49 1.8-1.99 0-3.93-.46-5.67-1.33-.23.16-.46.32-.71.46l-.13.08c-1.94 1.17-4.19 1.79-6.48 1.79z"/><path fill="#333" d="M61.408 59.26c2.946 0 5.82 1.5 7.44 4.202l.067.116c2.06 3.428 1.45 7.717-1.206 10.467.82.643 1.56 1.44 2.13 2.395l.07.105c2.45 4.1 1.12 9.42-2.98 11.886l-.1.07c-1.4.84-2.93 1.23-4.44 1.23-2.23 0-4.41-.86-6.04-2.44-.64.83-1.44 1.57-2.4 2.14l-.11.07c-1.4.84-2.93 1.24-4.45 1.24-2.94 0-5.81-1.49-7.43-4.2l-.07-.1c-2.46-4.1-1.14-9.43 2.98-11.89l.1-.06c1.39-.83 2.92-1.23 4.43-1.23 2.21 0 4.39.86 6.03 2.44.19-.25.4-.49.62-.72-.83-.64-1.56-1.44-2.14-2.39l-.07-.1c-2.45-4.1-1.13-9.42 2.98-11.88l.1-.06c1.39-.83 2.93-1.23 4.45-1.23m0-8c-3.02 0-5.98.82-8.56 2.38-.08.05-.15.09-.22.14l-.01.01c-4.47 2.74-7.2 7.27-7.83 12.11-1.35.39-2.65.96-3.86 1.68l-.07.04-.08.05c-3.83 2.29-6.53 5.93-7.61 10.25-1.07 4.3-.42 8.75 1.83 12.55l.03.06.06.12c2.99 4.99 8.47 8.09 14.29 8.09 2.66 0 5.29-.64 7.65-1.87 1.7.58 3.5.87 5.34.87 3 0 5.96-.82 8.54-2.37.06-.03.12-.07.18-.11l.03-.02c7.5-4.57 10.12-14.19 6.12-21.9 1.51-4.5 1.07-9.57-1.48-13.83l-.05-.09-.03-.05c-2.99-4.99-8.47-8.09-14.3-8.09z"/><path fill="#C3EA78" d="M171.314 128.023c-.97 0-1.938-.352-2.7-1.048-1.443-1.32-1.72-3.49-.655-5.13 0 0 .45-.695 1.31-2.003.86-1.29 1.92-3.19 2.92-5.23 1.25-2.593 2.08-5.31 2.39-7.84.36-2.762-.23-5.423-1.68-7.53l-.07-.106c-1.41-2.2-4.25-4.268-8.21-5.978-3.87-1.632-8.66-2.766-13.84-3.265-3.28-.376-6.75-.563-10.39-.563-2.02 0-4.13.057-6.27.17-3.18.206-5.94.438-8.61.73-.58.078-1.16.145-1.74.213-1 .118-1.94.23-2.87.395-2.08.405-4.08.606-6.08.606-.69 0-1.39-.025-2.07-.075-6.45-.46-12.6-2.94-17.31-6.99-5-4.21-8.62-10.18-10.15-16.78-3.46-14.07 3.54-26.92 10.6-33.65 7.99-8 17.44-11.12 24.79-12.95 5.37-1.26 10.81-1.84 17.18-1.84 1.35 0 2.66.02 3.94.06h.1c12.17.65 21.07 2.89 28.17 5 2.2.61 3.75 1.18 5 1.64.57.2 1.07.39 1.55.54l2.32.82c11.92 4.21 18.21 17.34 14.01 29.27-3.23 9.17-11.93 15.33-21.64 15.33-2 0-3.98-.26-5.91-.78 3.12 1.35 6.03 2.89 8.72 4.61 6.5 4.24 11.35 9.92 13.69 16.01 3.29 8.04 1.04 15.57-.08 18.43-1.92 5.07-4.95 8.57-6.58 10.45-2.26 2.51-4.29 4.14-5.51 5.12l-1.89 1.47c-.73.57-1.6.85-2.47.85zM126.156 64.03c2.91 0 5.654.08 8.154.235 7.187.412 14.17 1.494 20.735 3.215l.314.085-.62-.208c-2.01-.677-4.29-1.444-7.08-2.27-2.96-.92-6.21-1.645-10.14-2.496-3.58-.6-7.01-.92-9.91-.92l-.51.01c-3.3.07-5.93.76-7.17 1.33l-.11.05c-.67.28-1.07.54-1.32.77l.28.13c.24.06.49.12.76.2.2.01.41.01.61.01.55 0 1.11-.02 1.66-.04.62-.02 1.24-.04 1.85-.05.78-.01 1.62-.01 2.46-.01z"/><path fill="#333" d="M137.902 23.175c1.307 0 2.584.024 3.83.06 11.876.64 20.612 2.877 27.243 4.844 3.21.89 4.924 1.67 6.475 2.16l2.195.77c9.873 3.48 15.047 14.3 11.57 24.17-2.747 7.79-10.06 12.66-17.87 12.66-2.092 0-4.22-.35-6.306-1.09l-.07-.03-8.16-2.91c-2.17-.73-4.77-1.62-8.03-2.59-3.21-1-6.76-1.78-10.51-2.59-3.51-.6-7.23-1-10.67-1h-.57c-3.56.07-6.81.78-8.79 1.69-2.1.89-3.16 1.97-3.82 3.34-.53 1.31-.91 3.11 1.87 4.56.37.12.75.26 1.14.47.46.1.92.21 1.4.36.43.03.87.04 1.31.04 1.18 0 2.36-.09 3.54-.09.81-.01 1.63-.02 2.45-.02 2.66 0 5.35.07 7.9.23 6.8.39 13.53 1.4 19.97 3.09 6.42 1.72 12.55 4.24 17.96 7.7 5.36 3.5 9.92 8.38 12.11 14.07 2.31 5.67 1.51 11.48-.07 15.54-1.59 4.18-3.96 7.07-5.88 9.29-1.98 2.2-3.77 3.64-4.99 4.61l-1.86 1.45s.45-.69 1.3-1.97c.85-1.26 1.97-3.21 3.19-5.7 1.19-2.47 2.33-5.63 2.76-9.1.46-3.48-.25-7.22-2.36-10.29-2.02-3.16-5.65-5.62-9.99-7.49-4.39-1.86-9.53-3.05-15.04-3.58-3.48-.4-7.08-.58-10.77-.58-2.14 0-4.3.06-6.48.18-3.04.19-5.9.43-8.89.75-1.61.22-3.2.35-4.83.64-1.71.33-3.5.54-5.37.54-.59 0-1.18-.02-1.78-.07-4.99-.35-10.57-2.22-14.99-6.03-4.45-3.74-7.57-9.05-8.87-14.65-2.81-11.4 2.34-23.09 9.5-29.88 7.2-7.22 15.67-10.12 22.96-11.93 5.86-1.37 11.26-1.72 16.22-1.72m0-8c-6.69 0-12.42.61-18.05 1.93l-.1.03c-7.83 1.95-17.94 5.29-26.62 13.96-7.82 7.47-15.54 21.73-11.69 37.47 1.73 7.39 5.8 14.09 11.47 18.87 5.34 4.6 12.3 7.41 19.6 7.92.75.06 1.55.09 2.34.09 2.23 0 4.47-.22 6.83-.68.79-.14 1.66-.24 2.58-.35.58-.07 1.17-.14 1.75-.22 2.59-.28 5.26-.51 8.38-.71 2.06-.11 4.08-.16 6.01-.16 3.49 0 6.81.17 9.86.53l.15.01c4.76.46 9.14 1.48 12.66 2.97 4.27 1.84 5.84 3.58 6.39 4.45l.14.21c.87 1.27 1.24 2.99 1.01 4.7l-.01.08c-.33 2.65-1.29 5.05-2.03 6.6-1.29 2.65-2.27 4.18-2.63 4.71-.91 1.36-1.36 2.07-1.36 2.07-2.13 3.28-1.58 7.62 1.31 10.26 1.52 1.39 3.46 2.1 5.4 2.1 1.74 0 3.48-.57 4.94-1.71 0-.01.64-.51 1.84-1.44l.07-.06c1.31-1.05 3.51-2.81 5.94-5.52.03-.04.06-.07.1-.11 2.65-3.07 5.36-6.6 7.29-11.66 2.71-6.95 2.73-14.73.04-21.36-2.24-5.8-6.46-11.24-12.05-15.6 7.91-2.52 14.41-8.62 17.27-16.73 4.93-14.01-2.45-29.43-16.46-34.38l-2.2-.78c-.08-.03-.17-.06-.25-.08-.37-.12-.84-.29-1.38-.49-1.24-.45-2.92-1.07-5.3-1.74-7.32-2.17-16.48-4.47-29.03-5.15h-.2c-1.49-.04-2.81-.06-4.06-.06z"/><path fill="#7A502E" d="M151.716 125.27s-25.244 10.634-9.492 17.42c15.754 6.784-31.754 1.206-31.754 1.206l3.88-20.36 37.366 1.735z"/><path fill="#8C6239" d="M161.614 102.697c.186 3.852.064 7.856-1.303 11.905-1.27 4.063-4.34 8.063-8.59 10.67-1.95 1.28-4.72 2.36-6.46 2.912-1.95.613-3.84 1.298-5.72 2.076-3.74 1.585-7.38 3.4-10.92 5.16-6.94 3.816-4.12 1.435.89 1.656 10.04.48 20.65-1.34 31.14-4.73 10.85-3.498 22.48 2.462 25.98 13.308s-2.45 22.474-13.3 25.975c-.29.09-.59.18-.89.26l-.13.04c-14.39 3.87-29.88 5.96-45.79 4.43-7.93-.76-15.92-2.41-23.7-5.21-3.89-1.4-7.73-3.07-11.51-5.11-1.89-1-3.76-2.11-5.65-3.36-.94-.61-1.89-1.28-2.87-2l-1.51-1.16c-.6-.49-.87-.69-2.03-1.72l-1.14-.19c-2.04-1.81-5.45-4.09-5.45-6.46v-.02c0-4.02-2.37-10.27-.72-17.09 1.6-6.83 6.29-11.75 9.7-14.46 7.02-5.4 12.62-6.46 17.58-7.57 9.8-1.71 18.29-1.5 26.69.49l12.23 2.83c1.98.41 3.96.74 5.86.95l1.46.17 1.15.26c.77.14 1.55.23 2.34.27 3.09.16 6.38-1.12 8.78-3.9 2.35-2.75 3.87-6.58 3.95-10.44zm-74.76 52.4l1.32 1.457c.606.632 1.27 1.28 1.96 1.91 1.373 1.266 2.865 2.488 4.412 3.638 3.113 2.293 6.47 4.288 9.986 5.912 7.033 3.263 14.676 5.05 22.598 5.312 15.885.587 32.71-5.036 48.346-13.877 7.752-4.39 17.594-1.65 21.973 6.1 4.36 7.73 1.64 17.54-6.06 21.94-9.49 5.41-19.66 10.1-30.59 13.45-10.91 3.34-22.66 5.29-34.68 4.95-12-.32-24.18-3.04-35.26-8.11-5.55-2.53-10.82-5.62-15.75-9.21-2.47-1.81-4.85-3.73-7.15-5.82-1.16-1.05-2.29-2.14-3.42-3.29-1.2-1.25-2.09-2.17-3.66-4.11-5.69-7.08-4.58-17.42 2.48-23.12 6.81-5.49 16.66-4.66 22.46 1.73l1.01 1.11zm-5.674 30.426c-.757-.774-.57-.54-.677-.643-.033-.02-.014.012.033.06l.48.406c.42.33 1 .73 1.634 1.116 1.285.783 2.852 1.57 4.55 2.282 3.42 1.43 7.397 2.566 11.614 3.378 8.463 1.638 17.87 2.007 27.455 1.502 19.25-1.045 39.23-5.458 58.88-11.37l.11-.032c9.4-2.836 19.34 2.5 22.17 11.914 2.75 9.15-2.26 18.81-11.19 21.932-21.23 7.398-43.31 13.493-67.01 15.885-11.85 1.134-24.13 1.348-36.92-.488-6.4-.944-12.92-2.396-19.57-4.79-3.32-1.203-6.68-2.64-10.09-4.478-1.71-.92-3.44-1.938-5.22-3.137-.89-.604-1.8-1.264-2.76-2.014l-1.51-1.242c-.61-.55-.92-.768-2.14-2.027-7.8-8.32-7.39-21.385.93-29.185 8.32-7.8 21.39-7.386 29.19.93z"/><path fill="#C7B299" d="M196.47 147.33c-3.668 3.073-9.133 2.587-12.205-1.08l-.08-.098c-3.068-3.67-2.588-9.133 1.084-12.203l.09-.09c3.67-3.07 9.13-2.59 12.21 1.08l.07.09c3.07 3.66 2.58 9.12-1.09 12.2l-.1.08zm15.666 9.65c-3.672 3.07-9.137 2.58-12.21-1.08l-.08-.1c-3.067-3.667-2.585-9.134 1.083-12.203l.1-.078c3.66-3.08 9.12-2.59 12.2 1.07l.08.1c3.06 3.66 2.58 9.13-1.08 12.2l-.1.08z"/><path fill="#1A1A1A" d="M199.478 159.986c-3.672 3.07-9.135 2.587-12.205-1.083l-.078-.1c-3.072-3.662-2.59-9.127 1.08-12.2l.096-.08c3.68-3.068 9.14-2.586 12.21 1.08l.08.098c3.07 3.67 2.59 9.14-1.08 12.21l-.09.08z"/><path fill="#7A502E" d="M138.1 122.33c-29.085-8.728-36.356-.732-36.356-.732-3.152 10.908 4.852 13.333 4.852 13.333 6.48 1.54 12.832 2.13 18.87 2.15.667-.33 1.638-.83 3.15-1.65 3.536-1.76 7.185-3.57 10.923-5.16 1.87-.77 3.76-1.46 5.71-2.07 1.73-.55 4.5-1.63 6.46-2.91 4.25-2.6 7.32-6.6 8.59-10.67 1.36-4.05 1.49-8.05 1.3-11.9-.05 2.3-.65 4.55-1.58 6.6-5.87 17.48-21.94 13.04-21.94 13.04z"/><path fill="#C7B299" d="M56.937 77.537c2.46 4.107 1.125 9.43-2.975 11.884l-.11.07c-4.1 2.47-9.423 1.14-11.882-2.97l-.063-.11c-2.46-4.1-1.133-9.43 2.98-11.89l.106-.06c4.096-2.45 9.416-1.13 11.885 2.98l.06.11zM68.915 63.58c2.46 4.093 1.123 9.423-2.973 11.883l-.105.063c-4.11 2.46-9.434 1.13-11.89-2.978l-.065-.103c-2.453-4.106-1.13-9.423 2.98-11.887l.1-.065c4.103-2.46 9.433-1.124 11.886 2.97l.067.116z"/><path fill="#1A1A1A" d="M69.91 76.546c2.456 4.1 1.128 9.42-2.978 11.886l-.102.064c-4.11 2.46-9.426 1.122-11.885-2.98l-.068-.105c-2.46-4.1-1.125-9.42 2.97-11.88l.11-.06c4.098-2.46 9.428-1.13 11.88 2.98l.072.11z"/><path fill="#603813" d="M103.993 125.753c0-.01-.086.228-.07.235.008.034-.088.357-.064.657-.02.653.13 1.546.91 2.554.34.53.96 1.04 1.64 1.59.82.44 1.58 1.06 2.66 1.41 1.99.89 4.39 1.65 6.91 2.1 2.47.55 5.08.79 7.49 1.2 2.45.17 4.75.48 6.73.68 3.97.26 6.68.67 6.68.67s-2.61.68-6.61 1.36c-2 .34-4.37.56-6.9.76-2.56.04-5.3.24-8.07-.13-1.39-.08-2.78-.25-4.17-.56-1.38-.21-2.76-.57-4.07-1.05-1.32-.37-2.59-1.15-3.77-1.77-1.17-.8-2.26-1.63-3.12-2.71-1.74-2.13-2.24-4.72-2.15-6.36.01-.87.15-1.45.28-2.01l.21-.69c.47-1.53 2.09-2.39 3.63-1.91 1.49.46 2.34 2.03 1.93 3.53l-.11.39zm-28.547 24.085s1.506 1.047 4.146 2.896c1.217.91 2.66 2.05 4.393 3.262.896.56 1.852 1.162 2.86 1.794 1.077.53 2.208 1.085 3.388 1.66 2.428 1.01 5.078 2.123 8.04 2.84 1.47.373 2.985.76 4.532 1.152 1.586.244 3.21.494 4.857.745 3.266.66 6.77.59 10.258.903 3.508.163 7.102.073 10.686.123 3.586-.136 7.176-.463 10.717-.687 3.53-.26 6.988-.903 10.344-1.313 3.363-.386 6.584-1.006 9.63-1.642 3.06-.55 5.952-1.1 8.65-1.49 5.353-.99 9.817-1.89 13.005-2.32 3.17-.48 5.023-.65 5.023-.65s-1.68.77-4.674 1.93c-1.48.63-3.32 1.27-5.44 2.01-2.12.71-4.47 1.69-7.13 2.37-5.35 1.3-11.56 3.05-18.42 3.94-3.42.48-6.92 1.18-10.54 1.51-3.62.29-7.3.69-11 .88-3.7-.01-7.41.22-11.07-.02-3.65-.42-7.26-.48-10.7-1.26l-5.07-.94c-1.63-.46-3.22-.92-4.77-1.36-3.1-.85-5.93-2.13-8.5-3.3-1.25-.66-2.46-1.3-3.6-1.91-1.08-.73-2.1-1.41-3.07-2.06-1.86-1.39-3.46-2.68-4.42-4.1-1.03-1.34-1.58-2.61-1.82-3.52-.29-.89-.27-1.39-.27-1.39zm-9.088 31.632s2.227.53 5.504 1.976c1.688.663 3.568 1.71 5.787 2.813 2.18 1.16 4.73 2.32 7.55 3.49 2.81 1.18 5.95 2.25 9.27 3.31 3.37.93 6.91 1.96 10.67 2.62 3.71.9 7.64 1.29 11.61 1.76 3.98.51 8.07.33 12.13.63 4.06-.19 8.15-.24 12.15-.58 3.98-.57 7.93-.98 11.7-1.64 3.75-.85 7.37-1.67 10.8-2.44 3.4-.91 6.54-2.07 9.48-2.97 5.92-1.76 10.58-3.95 14.12-4.87 3.49-1.03 5.6-1.44 5.6-1.44.14-.03.28.04.31.18.02.09-.02.21-.1.27 0 0-1.69 1.25-4.87 3.12-1.59.93-3.56 1.98-5.85 3.12-2.26 1.21-4.99 2.18-7.98 3.17-3 .99-6.19 2.23-9.66 3.24-3.51.87-7.22 1.79-11.06 2.75-3.88.76-7.94 1.26-12.05 1.92-4.14.44-8.37.59-12.6.86-4.24-.17-8.48-.12-12.63-.64-4.14-.51-8.23-.96-12.1-1.9-3.93-.69-7.58-1.92-11.08-2.95-3.44-1.19-6.68-2.38-9.58-3.69-2.91-1.29-5.53-2.56-7.79-3.84-2.31-1.16-4.12-2.55-5.57-3.74-2.84-2.48-3.83-4.59-3.83-4.59z"/><path fill="#754C24" d="M163.62 210.73c0 1.62-2.428 3.65-4.045 3.65h-.447c-1.615 0-2.51-2.03-2.51-3.65v-.446c0-1.615.895-3.903 2.51-3.903h.447c1.617 0 4.044 2.29 4.044 3.91v.45zm9.914 2.143c0 3.044-2.47 5.515-5.514 5.515-3.045 0-5.516-2.47-5.516-5.515 0-3.047 2.47-5.517 5.516-5.517 3.045 0 5.514 2.47 5.514 5.517zm-51.914-32.086c0 1.62-1.402 3.594-3.018 3.594h-.447c-1.617 0-1.536-1.97-1.536-3.59v-.44c0-1.61-.09-2.96 1.53-2.96h.44c1.61 0 3.01 1.35 3.01 2.96v.45zm10.942 2.145c0 3.045-2.47 5.513-5.516 5.513-3.045 0-5.516-2.468-5.516-5.513 0-3.05 2.47-5.517 5.516-5.517 3.045 0 5.516 2.466 5.516 5.517zM102.62 145.11c0 3.04-2.47 5.512-5.518 5.512-3.045 0-5.514-2.47-5.514-5.513 0-3.05 2.47-5.52 5.514-5.52 3.047 0 5.518 2.47 5.518 5.51zm19-22.63c0 1.618-1.402 2.9-3.018 2.9h-.447c-1.617 0-1.536-1.282-1.536-2.9v-.446c0-1.618-.09-2.653 1.53-2.653h.44c1.61 0 3.01 1.04 3.01 2.66v.45zm10.942 3.718c0 3.045-2.47 5.516-5.516 5.516-3.045 0-5.516-2.47-5.516-5.516 0-3.047 2.47-5.517 5.516-5.517 3.045 0 5.516 2.47 5.516 5.52zm-53.582 80.37c0 3.044-2.472 5.517-5.515 5.517-3.047 0-5.516-2.473-5.516-5.517 0-3.047 2.46-5.518 5.51-5.518 3.04 0 5.51 2.47 5.51 5.518z"/><path fill="#C3EA78" d="M164.978 66.742l-8.158-2.905c-2.164-.727-4.768-1.622-8.025-2.586-3.207-.99-6.758-1.77-10.512-2.58-3.703-.63-7.635-1.04-11.23-.99-3.557.08-6.813.79-8.787 1.7-2.104.9-3.164 1.97-3.824 3.34-.53 1.31-.914 3.11 1.875 4.56.375.13.748.26 1.14.47.456.1.917.21 1.4.36 1.604.12 3.23-.04 4.847-.04 3.45-.05 7.014 0 10.357.21 6.81.39 13.54 1.41 19.98 3.09 6.42 1.73 12.56 4.24 17.97 7.71 5.36 3.5 9.93 8.39 12.11 14.07 2.32 5.67 1.52 11.49-.07 15.54-1.58 4.19-3.95 7.08-5.88 9.3-1.98 2.21-3.77 3.65-4.98 4.61l-1.86 1.46 1.3-1.97c.85-1.26 1.98-3.21 3.19-5.69 1.19-2.47 2.34-5.62 2.77-9.1.47-3.48-.24-7.21-2.35-10.28-2.02-3.15-5.64-5.61-9.98-7.49-4.39-1.85-9.53-3.04-15.04-3.57-5.48-.63-11.31-.72-17.25-.4-3.03.2-5.89.43-8.88.76-1.6.22-3.2.35-4.82.65-2.23.44-4.63.67-7.14.48-4.99-.35-10.56-2.22-14.98-6.03-4.44-3.74-7.57-9.05-8.87-14.64-2.8-11.39 2.35-23.08 9.5-29.88 7.2-7.22 15.68-10.11 22.96-11.92 7.41-1.74 14.08-1.83 20.05-1.66 11.88.64 20.61 2.88 27.25 4.84 3.21.9 4.92 1.67 6.47 2.17l2.2.78c9.87 3.48 15.05 14.31 11.57 24.17-3.48 9.88-14.3 15.06-24.18 11.57l-.06-.02z"/></svg>