<svg xmlns="http://www.w3.org/2000/svg" width="256" height="256" viewBox="0 0 256 256"><path fill="#29ABE2" d="M61.985 143.712c-.7 0-1.405-.183-2.04-.56-1.64-.977-2.366-2.972-1.73-4.77 1.378-3.9 34.412-95.506 91.137-95.506 3.528 0 7.116.365 10.662 1.085 30.682 6.24 39.526 28.76 37.778 46.15-1.914 19.04-16.733 39.27-40.427 39.27-6.15 0-12.49-1.42-18.843-4.22-7.938-3.5-16.08-5.28-24.196-5.28-28.76 0-49.162 22.3-49.364 22.52-.78.87-1.872 1.33-2.977 1.33z"/><path fill="#0071BC" d="M149.353 46.876c3.212 0 6.506.323 9.866 1.005 54.47 11.07 38.06 77.5-1.86 77.5-5.36 0-11.14-1.2-17.23-3.88-9.12-4.02-17.79-5.62-25.81-5.62-31 0-52.34 23.85-52.34 23.85s32.82-92.85 87.37-92.84m0-8c-59.52-.01-93.49 94.17-94.91 98.18-1.27 3.6.18 7.6 3.46 9.55 1.27.75 2.68 1.12 4.07 1.12 2.22 0 4.4-.92 5.97-2.66.17-.19 19.49-21.18 46.38-21.18 7.55 0 15.15 1.66 22.58 4.94 6.86 3.03 13.74 4.56 20.46 4.56 11.67 0 22.66-4.76 30.94-13.4 7.56-7.9 12.35-18.37 13.46-29.46 1.92-19.05-7.66-43.7-40.96-50.47-3.81-.77-7.66-1.16-11.46-1.16z"/><path fill="#29ABE2" d="M147.973 213.123c-11.443 0-21.06-6.188-26.386-16.976-13.213-26.757-38.862-30.088-39.947-30.217-1.78-.21-3.207-1.58-3.486-3.352-.278-1.77.65-3.51 2.28-4.258 1.086-.5 26.905-12.206 51.97-12.206 21.128 0 35.87 8.59 42.63 24.84 4.347 10.45 3.727 20.722-1.745 28.924-5.46 8.17-15.16 13.245-25.32 13.245z"/><path fill="#0071BC" d="M132.402 150.115c16.185 0 31.782 5.178 38.938 22.377 8.922 21.448-7.076 36.63-23.367 36.63-8.814 0-17.715-4.443-22.8-14.745-14.407-29.176-43.073-32.42-43.073-32.42s25.823-11.842 50.302-11.842m0-8c-25.928 0-52.518 12.057-53.637 12.57-3.266 1.497-5.133 4.987-4.565 8.535.567 3.548 3.43 6.28 7 6.686.958.12 24.61 3.33 36.8 28.013 5.935 12.02 17.14 19.2 29.972 19.2 11.485 0 22.46-5.76 28.644-15.03 6.237-9.35 6.986-20.96 2.11-32.68-5.18-12.46-17.424-27.31-46.324-27.31z"/></svg>