<svg xmlns="http://www.w3.org/2000/svg" width="256" height="256" viewBox="0 0 256 256"><path fill="#333" d="M192.62 221.38l38.666-73.332 15.644-3.68-3.04-2.938c-.79-.766-19.673-18.737-44.715-18.737-14.376 0-27.592 5.756-39.377 17.133-6.596-4.97-17.86-11.376-32.077-11.377-9.94 0-19.63 3.07-28.93 9.17L100.64 90c2.946 1.008 6.312 1.69 10.03 1.69 2.033 0 4.083-.21 6.097-.627 1.55-.202 2.96-.5 4.23-.904l5.68 1.05 5.302.98 2.9-4.55c.04-.07 2.63-4.13 5.51-8.7 1.72.57 3.27.72 4.43.72 3.06 0 6.14-.97 9.16-2.88l4.25-2.69-.58-5-1.64-14.06c5.16-7.99 4.29-18.62 4.16-19.97l-.53-5.26-5.05-1.58-35.57-10.44-12.66-4.04-3.49-1.12-3.12 1.91L58.1 40.12l-2.66 1.62-.86 3-18.71 65.69c-8.93 15.26-22.74 43.87-20.52 72.01l-4.77 16.74-.04.13-.03.14c-2.17 8.82-1.57 27.51 16.22 35.07 2.18.92 5.32 1.5 14.21 1.5 7.45 0 17.59-.4 28.33-.83 12.51-.49 25.45-1 36.42-1 12.71 0 18 .71 20.2 1.32 2.1.57 4.14 1.2 6.3 1.86 7.91 2.44 16.87 5.2 29.76 5.2 11.66 0 25.3-2.273 41.69-6.93l-11.01-14.3-.017.033.007.007z"/><path fill="#fdb" d="M50.702 102.23s-34.75 46.552-26.252 87.473l26.252-87.473z"/><path fill="#E8C5A7" d="M135.25 59.606s3.47 17.372 14.477 10.42l-2.896-24.9-11.58 14.48z"/><path fill="#fdb" d="M160.36 150.907s-32.2-35.34-70.26 4.496l3.09-79.194s11.34 12.02 26.54 5.58l8.4 1.56s9.14-14.34 12.23-19.51c3.09-5.18 5.51-9.73 5.51-9.73 7.726-4.63 6.364-18.25 6.364-18.25l-28.087-8.06L104 21.39h-.015L62.292 46.944 18.284 201.386s-4.643 18.908 11.576 25.802c7.605 3.238 81.158-4.002 98.137.64 16.985 4.643 30.03 12.608 74.04 0l36.294-80.644s-40.83-39.47-77.97 3.723z"/><path fill="#E8C5A7" d="M176.56 181.85l25.48 45.978c-.003 0-23.933-4.428-25.48-45.978zm-81.268-6.92s2.318 19.693 24.32 18.285c0 0 27.205 4.98 32.717-19.857 0 0 2.02 8.492-2.03 16.54-2.94 5.84-17.37 10.75-34.16 9.718-16.8-1.03-25.18-13.063-20.85-24.684v-.002zm-5.21-19.53s-5.794 35.004-39.38 35.902c0 0 27.22 10.146 37.064-16.375 0 0 5.206-8.86 2.316-19.53v.003zm.878-83.728s-5.514 16.304-14.2 11.675l-5.933 49.45 10.068-42.99s9.784-.278 10.065-18.135zm30.39 133.16s36.774 9.676 40.83-9.146c0 0-5.22 11.348-40.83 9.146zm-4.488 5.62s24.898 4.73 27.654 17.37l-24.326-4.92s6.086-3.756-3.328-12.45zm65.484-46.606s29.293-23.69 50.17-3.74l-7.82 17.37s-2.973-25.21-42.35-13.63zm-66.283-3.31c-5.756 0-10.717-3-10.984-3.166l2.42-3.95c.06.034 6.38 3.82 11.78 1.97 2.85-.983 5.06-3.482 6.54-7.424l4.32 1.632c-1.99 5.31-5.15 8.732-9.39 10.18-1.58.54-3.17.76-4.71.76h.02zm1.85 22.278l-4.625-.28c.008-.07.363-7.47-3.83-11.354-2.207-2.05-5.44-2.82-9.598-2.27l-.61-4.602c5.593-.73 10.11.43 13.38 3.47 5.795 5.39 5.307 14.62 5.283 15.01v.026zm7.517.24c-3.04-4.778-3.87-9.362-2.478-13.622 2.45-7.51 11-10.95 11.37-11.09l1.695 4.31c-.076.03-6.914 2.81-8.67 8.25-.93 2.88-.26 6.14 1.99 9.69l-3.908 2.48v-.018zM140.385 44.26l2.234 14.14v2.36l1.33-3.792 1.55-2.858s-2.13-7.822-5.12-9.85zm-21.35 27.414s-2.71 11.503-6.95 11.675c0 0 6.08.14 8.687-1.88 0 0-1.59-6.27-1.737-9.8zm-6.952-19.158s8.885 1.58 8.69 5.884c0 0 1.35-7.194-8.69-5.884zM48.77 128s-33.583 71.794 1.933 73.505c0 0-23.17-5.885-1.933-73.505z"/><path fill="#FFF3E9" d="M50.222 165.636c-2.32 11.51.432 8.998-1.012 8.71-1.45-.296-6.547 1.738-4.223-9.77C47.32 153.06 61.583 94.158 63.024 94.45c1.448.29-10.47 59.667-12.802 71.186zm185.887-13.52s-30.82-24.867-65.36 0c0 0 29.97-17.232 65.35 0h.01zM80.89 68.482c0 1.988-1.61 3.594-3.596 3.594-1.992 0-3.604-1.605-3.604-3.594 0-1.99 1.61-3.604 3.604-3.604 1.986 0 3.596 1.614 3.596 3.604z"/></svg>