<svg xmlns="http://www.w3.org/2000/svg" width="256" height="256" viewBox="0 0 256 256"><path fill="#FBB03B" d="M143.31 202.48c-1.174 0-2.308-.52-3.078-1.446l-19.02-22.918-15.428 16.06c-.768.8-1.815 1.23-2.885 1.23-.46 0-.92-.078-1.37-.24-1.49-.538-2.52-1.903-2.63-3.48l-1.45-20.673-19.85 5.33c-.35.093-.7.138-1.04.138-1.15 0-2.26-.49-3.03-1.38-1-1.16-1.25-2.8-.64-4.21l9.58-22-29.87-9.95c-1.52-.5-2.59-1.86-2.72-3.45s.68-3.11 2.09-3.86l26.56-14.28-17.29-13.86c-1.27-1.01-1.8-2.7-1.33-4.26.46-1.56 1.82-2.68 3.44-2.84l19.89-1.97-9.1-35.9c-.43-1.67.27-3.42 1.72-4.35.66-.42 1.41-.63 2.15-.63.9 0 1.8.3 2.53.9l28.23 22.98 2.25-20.31c.19-1.76 1.52-3.18 3.26-3.49.24-.05.48-.07.71-.07 1.49 0 2.88.83 3.57 2.19l9.69 19.13 11.5-19.37c.72-1.22 2.04-1.96 3.43-1.96.2 0 .4.02.6.05 1.61.25 2.91 1.45 3.28 3.03l5.62 23.68 18.64-12.52c.67-.45 1.45-.68 2.23-.68.86 0 1.72.28 2.44.83 1.36 1.05 1.9 2.86 1.34 4.48L172 87.91l22-4.64c.275-.06.55-.09.824-.09 1.284 0 2.513.62 3.27 1.7.92 1.3.973 3.03.134 4.4l-13.98 22.67 19.35 7.765c1.5.603 2.49 2.05 2.51 3.665s-.935 3.09-2.42 3.73l-13.68 5.88 12.63 7.62c1.37.83 2.114 2.39 1.894 3.98s-1.365 2.882-2.908 3.303l-25.457 6.95 7.77 23.324c.47 1.416.115 2.977-.924 4.05-.765.79-1.806 1.214-2.872 1.214-.38 0-.76-.05-1.14-.17l-26.25-7.84-5.54 23.96c-.34 1.48-1.49 2.64-2.97 2.99-.3.07-.61.11-.92.11z"/><path fill="#F15A24" d="M143.217 57.52l6.953 29.287 23.433-15.737-7.68 22.194 28.91-6.083-16.474 26.73 23.75 9.53-20.85 8.96 19.29 11.65-29.54 8.06 9.1 27.34-30.34-9.07-6.5 28.12-21.89-26.36-18.53 19.29-1.78-25.51-24.54 6.59 11.33-26.01-34.02-11.33L85.77 118l-22-17.643 24.513-2.43-10.24-40.404 33.922 27.614 3.055-27.612L128 83.15l15.217-25.63m-28.194-8c-.474 0-.95.043-1.43.13-3.482.63-6.136 3.475-6.525 6.992l-1.44 13.02-22.536-18.346c-1.463-1.19-3.253-1.795-5.05-1.795-1.49 0-2.985.42-4.303 1.26-2.91 1.86-4.3 5.37-3.45 8.71l7.95 31.4-15.27 1.51c-3.24.32-5.96 2.57-6.88 5.69-.93 3.12.12 6.49 2.66 8.52l12.57 10.08-21.24 11.41c-2.82 1.51-4.46 4.55-4.19 7.73.27 3.18 2.41 5.9 5.44 6.91l25.72 8.57-7.84 17.99c-1.23 2.82-.73 6.09 1.27 8.42 1.54 1.79 3.77 2.78 6.06 2.78.69 0 1.39-.09 2.07-.27l15.16-4.07 1.1 15.83c.22 3.16 2.28 5.89 5.26 6.97.89.32 1.81.48 2.72.48 2.14 0 4.24-.86 5.77-2.46l12.33-12.83 16.16 19.47c1.54 1.86 3.81 2.89 6.15 2.89.61 0 1.23-.07 1.84-.21 2.96-.7 5.27-3.02 5.95-5.98l4.58-19.81 22.17 6.63c.75.23 1.52.34 2.29.34 2.13 0 4.21-.85 5.74-2.43 2.08-2.14 2.79-5.26 1.85-8.1l-6.42-19.33 21.38-5.84c3.08-.84 5.37-3.44 5.81-6.61s-1.05-6.3-3.79-7.95l-5.97-3.6 6.53-2.81c2.97-1.27 4.88-4.21 4.84-7.45-.04-3.23-2.02-6.12-5.02-7.32l-14.94-5.99 11.39-18.47c.82-1.26 1.29-2.76 1.29-4.37 0-4.31-3.4-7.82-7.65-8-.12-.01-.24-.01-.35-.01-.16 0-.33 0-.49.01-.45.03-.9.09-1.32.19l-14.92 3.14 2.97-8.59c.34-.89.53-1.7.53-2.71 0-4.42-3.57-7.85-7.98-7.85h-.16.16v-.16c-2 .03-3.23.47-4.48 1.34l-13.81 9.21-4.31-18.08c-.76-3.17-3.37-5.57-6.59-6.07-.4-.06-.81-.09-1.21-.09-2.79 0-5.43 1.47-6.88 3.92l-7.78 13.11-6.4-12.63c-1.38-2.72-4.16-4.38-7.13-4.38z"/></svg>