<svg xmlns="http://www.w3.org/2000/svg" width="256" height="256" viewBox="0 0 256 256"><path fill="#603813" d="M50.243 208.38c-8.907 0-15.624-7.086-15.624-16.483V92.15c0-9.138 6.57-15.77 15.62-15.77h33.38V56.338c0-4.537 3.59-7.958 8.35-7.958h71.61c4.34 0 9.02 3.042 9.02 7.957V76.38H206c9.05 0 15.618 6.632 15.618 15.77v99.745c0 9.398-6.714 16.485-15.618 16.485H50.243zm104.376-132v-2h-53v2h53z"/><path fill="#333" d="M163.596 52.38c2.408 0 5.023 1.55 5.023 3.958v24.044H206c6.83 0 11.62 4.88 11.62 11.768v99.747c0 6.888-4.79 12.484-11.62 12.484H50.244c-6.828 0-11.624-5.59-11.624-12.48V92.15c0-6.89 4.794-11.77 11.623-11.77H87.62V56.338c0-2.41 1.95-3.958 4.358-3.958h71.62m-65.98 28h61v-10h-61v10m65.977-36H91.978c-6.93 0-12.358 5.253-12.358 11.96v16.043H50.243c-11.187 0-19.624 8.498-19.624 19.77v99.744c0 11.487 8.62 20.485 19.62 20.485H206c11.002 0 19.62-8.998 19.62-20.485V92.15c0-11.27-8.435-19.77-19.62-19.77h-29.38V56.338c0-6.593-5.845-11.957-13.024-11.957z"/><path fill="#C69C6D" d="M97.62 87.78c0 2.412-1.916 4.6-4.326 4.6H91.98c-2.41 0-4.36-2.188-4.36-4.6V56.34c0-2.41 1.95-2.958 4.36-2.958h1.314c2.41 0 4.325.548 4.325 2.958v31.44zm71 0c0 2.412-2.616 4.6-5.024 4.6h-1.313c-2.412 0-3.66-2.188-3.66-4.6V56.338c0-2.408 1.248-2.957 3.66-2.957h1.313c2.408 0 5.023.55 5.023 2.96v31.44z"/><path fill="#603813" d="M165.357 52.38H91.785c-2.496 0-5.168 1.822-5.168 4.234v3.433l.017-.005c-.004.105-.017.208-.017.313v1.247c0 4.476 4.5 8.78 9.246 8.78h64.774c4.746 0 8.98-4.305 8.98-8.78v-4.988c.003-2.412-1.762-4.233-4.26-4.233z"/><path fill="#3A1D06" d="M206 80.38h-3.38v46.75c0 4.132-3.355 8.25-7.485 8.25H60.125c-4.132 0-6.505-4.118-6.505-8.25V80.38h-3.377c-2.537 0-4.79.676-6.624 1.875v45.034c0 9.64 8.05 18.09 17.69 18.09h134.66c9.63 0 17.65-8.45 17.65-18.09v-44.3c-1.99-1.66-4.6-2.62-7.62-2.62z"/><path fill="#999" d="M144.62 152.752c0 6.77-5.12 12.63-12.044 12.63H117.8c-6.92 0-13.18-5.86-13.18-12.63v-30.898c0-6.77 6.26-11.473 13.18-11.473h14.776c6.923 0 12.043 4.71 12.043 11.48v30.9z"/><path fill="#808080" d="M138.62 129.98c0 2.52-2.498 5.4-5.978 5.4h-14.917c-3.48 0-4.106-2.88-4.106-5.4v-10.82c0-2.52.62-4.777 4.1-4.777h14.91c3.48 0 5.97 2.256 5.97 4.776v10.82z"/><path fill="#666" d="M111.62 137.38h29v8h-29zm0 10h29v7h-29z"/></svg>