<svg xmlns="http://www.w3.org/2000/svg" width="256" height="256" viewBox="0 0 256 256"><path fill="#FCEE21" d="M128 223.513c-26.08 0-48.556-6.76-65-19.545-17.806-13.843-27.484-34.117-27.99-58.63-.775-37.444 19.922-65.418 34.154-72.535.567-.284 1.18-.422 1.79-.422.93 0 1.85.33 2.588.96 1.222 1.04 1.706 2.71 1.232 4.24-5.478 17.67-4.605 37.6-.165 43.62.89 1.21 1.47 1.2 1.67 1.2.35 0 1.7-.16 4.08-2.42 3.2-3.04 4.36-11.59 5.59-20.65 3.28-24.17 8.23-60.69 58.45-67.56.18-.02.36-.03.54-.03 1.42 0 2.75.76 3.47 2.02.81 1.42.67 3.19-.34 4.47-.69.87-16.67 21.57-3.12 33.9 2.98 2.72 5.68 4.89 8.28 7 12.23 9.89 19.62 15.85 22.34 48.97.23 2.76 2.79 4.84 5.97 4.84 2.57 0 5.18-1.38 7.34-3.88 3.9-4.52 9.8-16.59 5.41-46.71-.23-1.53.45-3.05 1.74-3.9.67-.44 1.44-.67 2.22-.67.71 0 1.43.19 2.06.57 12.89 7.74 20.65 55.67 20.65 66.97 0 24.48-9.55 44.79-27.62 58.73-16.57 12.78-39.17 19.53-65.37 19.53z"/><path fill="#F15A24" d="M144.953 35.714s-19.198 24.304-2.667 39.333c17.063 15.512 26.18 15.015 29.333 53.333.4 4.922 4.77 8.506 9.95 8.506 9.92 0 22.84-13.137 16.71-55.172 10 6 18.71 49.603 18.71 63.54 0 49.15-39.85 74.26-89 74.26s-87.98-25.12-88.99-74.26c-.72-34.874 18.61-62.206 31.94-68.874-6.94 22.4-4.63 50.04 5.33 50.04 1.98 0 4.26-1.09 6.83-3.53 14.05-13.34-5.66-77.94 61.84-87.164m-.01-8c-.36 0-.72.024-1.08.074-23.12 3.16-39.85 12.982-49.74 29.195-8.32 13.64-10.44 29.25-12.14 41.792-.98 7.23-2.2 16.23-4.39 18.303-.18.17-.34.317-.5.45-.85-1.96-1.93-5.907-2.13-12.538-.26-8.466 1.06-18.032 3.6-26.244.95-3.062-.02-6.394-2.47-8.468-1.48-1.253-3.32-1.9-5.18-1.9-1.22 0-2.44.276-3.57.844-8.71 4.354-17.95 14.54-24.73 27.25-5.56 10.426-12.09 27.38-11.64 48.943.53 25.76 10.74 47.1 29.53 61.708 17.15 13.34 40.48 20.39 67.45 20.39 27.09 0 50.54-7.042 67.81-20.363 19.09-14.723 29.18-36.126 29.18-61.895 0-8.154-2.41-23.26-5.86-36.73-6.4-25.02-12.62-31.196-16.74-33.67-1.27-.76-2.7-1.14-4.12-1.14-1.55 0-3.1.45-4.44 1.345-2.58 1.713-3.93 4.754-3.48 7.813 4.31 29.616-1.7 40.303-4.48 43.523-1.39 1.61-2.93 2.497-4.32 2.497-1.02 0-1.93-.533-1.98-1.163-2.74-33.28-10.05-40.634-23.82-51.755-2.56-2.068-5.2-4.205-8.1-6.843-10.78-9.8 3.43-28.288 3.58-28.474 2-2.566 2.26-6.1.64-8.92-1.44-2.506-4.1-4.022-6.93-4.022z"/><path fill="#F7931E" d="M125.602 203.308c-18.613-1.163-43.042-17.45-23.266-53.512 0 0 2.327 16.286 12.796 16.286s25.592-19.776 6.98-47.696c0 0 46.974 9.633 37.225 53.512-5.816 26.174-22.233 32.127-33.735 31.41z"/></svg>