<?xml version="1.0" encoding="utf-8"?>
<!-- Generator: Adobe Illustrator 16.0.0, SVG Export Plug-In . SVG Version: 6.00 Build 0)  -->
<!DOCTYPE svg PUBLIC "-//W3C//DTD SVG 1.1//EN" "http://www.w3.org/Graphics/SVG/1.1/DTD/svg11.dtd">
<svg version="1.1" id="Layer_1" xmlns="http://www.w3.org/2000/svg" xmlns:xlink="http://www.w3.org/1999/xlink" x="0px" y="0px"
	 width="256px" height="256px" viewBox="0 0 256 256" enable-background="new 0 0 256 256" xml:space="preserve">
<g>
	<path fill="#FFFFFF" d="M128.246,208.08c-53.67,0-97.335-35.925-97.335-80.084c0-1.04,0.02-2.11,0.08-3.2
		c-2.66-2.285-5.08-4.896-7.52-8.088c-2.63-3.48-4.76-6.995-6.54-10.762c-2.14-4.584-3.41-8.69-4-12.943
		c-0.39-2.985-0.38-5.67,0.03-8.254c0.32-1.86,0.73-3.33,1.28-4.69c0.38-1.04,0.96-2.11,1.27-2.66c0.36-0.65,0.521-0.89,0.771-1.23
		c0.07-0.09,0.16-0.22,0.36-0.54l0.08-0.13l0.09-0.12c2.52-3.34,5.63-5.22,7.8-6.22c2.32-1.07,4.83-1.76,7.68-2.13
		c1.45-0.18,2.9-0.27,4.36-0.27c2.7,0,5.44,0.28,8.62,0.89c4.771,0.99,9.2,2.47,13.24,4.4c18.25-15.38,43.49-24.16,69.71-24.16
		c26.81,0,52.44,9.12,70.79,25.1c3.431-1.58,7.16-2.86,11.101-3.81c3.601-0.8,6.67-1.17,9.721-1.17c1.08,0,2.18,0.05,3.26,0.14
		c2.9,0.29,5.439,0.91,7.79,1.91c2.2,0.95,5.36,2.75,7.96,5.99l0.08,0.11l0.08,0.11c0.221,0.32,0.32,0.45,0.391,0.54
		c0.26,0.34,0.431,0.57,0.819,1.22c0.53,0.87,1.021,1.83,1.351,2.62c0.59,1.35,1.029,2.81,1.39,4.56c0.5,2.62,0.591,5.31,0.291,8.29
		c-0.472,4.29-1.621,8.43-3.631,13.08c-1.66,3.8-3.689,7.37-6.22,10.93c-2.561,3.54-5.091,6.39-7.891,8.86
		c0.01,0.54,0.02,1.06,0.02,1.58c0,44.15-43.659,80.08-97.33,80.08L128.246,208.08z M212.021,87.204
		c2.246,3.12,4.229,6.358,5.938,9.696c0.23-0.346,0.453-0.692,0.668-1.04c1.295-2.098,2.26-4.207,2.712-5.937
		c0.235-0.87,0.298-1.513,0.298-1.906c-0.309-0.173-0.813-0.397-1.518-0.558c-1.289-0.32-2.829-0.48-4.51-0.48
		c-0.83,0-1.699,0.03-2.58,0.11c-0.34,0.03-0.68,0.07-1.021,0.11L212.021,87.204z M34.402,86.814c0.013,0.39,0.092,1.02,0.346,1.86
		c0.512,1.747,1.534,3.832,2.886,5.9c0.377,0.57,0.778,1.14,1.2,1.704c1.883-3.59,4.086-7.063,6.595-10.396
		c-0.83-0.103-1.664-0.183-2.503-0.238c-0.56-0.032-1.15-0.05-1.736-0.05c-2,0-3.803,0.208-5.214,0.602
		c-0.748,0.195-1.265,0.437-1.575,0.62L34.402,86.814z"/>
	<path fill="#333333" d="M128.246,51.92c27.949,0,53.021,10.018,70.126,25.887c3.979-2.1,8.25-3.633,12.694-4.698
		c2.795-0.62,5.694-1.06,8.787-1.06c0.946,0,1.912,0.04,2.899,0.13c2.101,0.21,4.315,0.64,6.587,1.61c2.25,0.97,4.6,2.56,6.41,4.81
		c0.71,1.02,0.5,0.59,1.061,1.53c0.449,0.74,0.851,1.52,1.09,2.1c0.561,1.28,0.899,2.55,1.16,3.82c0.47,2.51,0.449,4.87,0.229,7.08
		c-0.49,4.4-1.761,8.26-3.33,11.89c-1.58,3.62-3.53,6.99-5.81,10.2c-2.312,3.21-4.91,6.26-8.352,9.09l-0.279,0.23
		c-0.021,0.02-0.051,0.03-0.07,0.05c0.061,1.12,0.091,2.24,0.091,3.38c0,42.021-41.78,76.08-93.32,76.08
		c-51.55,0-93.34-34.06-93.34-76.09c0-1.68,0.07-3.34,0.2-4.99c-3.45-2.71-6.1-5.64-8.46-8.729c-2.38-3.15-4.41-6.46-6.11-10.04
		c-1.67-3.59-3.05-7.41-3.66-11.79c-0.29-2.2-0.38-4.56,0.02-7.08c0.22-1.28,0.53-2.57,1.06-3.86c0.21-0.59,0.6-1.38,1.03-2.14
		c0.53-0.95,0.34-0.52,1.02-1.56c1.74-2.31,4.03-3.97,6.271-4.99c2.24-1.03,4.44-1.53,6.53-1.8c1.31-0.16,2.59-0.23,3.84-0.23
		c2.74,0,5.34,0.33,7.87,0.82c5.13,1.07,10.04,2.78,14.58,5.26c17.09-15.32,41.73-24.95,69.13-24.95 M39.821,103.449
		c3.04-7.29,7.4-14.08,12.85-20.18c-3.13-0.9-6.36-1.45-9.53-1.65c-0.67-0.04-1.34-0.06-2-0.06c-2.25,0-4.43,0.23-6.29,0.75
		c-2.48,0.64-4,1.91-4.26,2.77c-0.32,0.82-0.4,2.45,0.28,4.71c0.64,2.21,1.86,4.64,3.36,6.93c1.57,2.38,3.51,4.71,5.58,6.72
		 M216.95,104.429c1.87-1.979,3.61-4.229,5.021-6.51c1.44-2.34,2.602-4.81,3.182-7.03c0.619-2.27,0.479-3.91,0.14-4.72
		c-0.29-0.86-1.851-2.09-4.341-2.66c-1.619-0.4-3.471-0.58-5.391-0.58c-0.959,0-1.939,0.04-2.92,0.12
		c-2.609,0.24-5.26,0.73-7.85,1.45c5.17,6.05,9.3,12.75,12.148,19.91 M128.222,43.9c-26.23,0-51.54,8.51-70.327,23.496
		c-3.68-1.554-7.61-2.773-11.74-3.64l-0.07-0.01l-0.07-0.01c-3.44-0.66-6.416-0.96-9.37-0.96c-1.61,0-3.23,0.092-4.8,0.282h-0.04
		l-0.04,0.004c-3.25,0.423-6.136,1.23-8.826,2.46c-3.714,1.7-6.938,4.274-9.33,7.44l-0.18,0.24l-0.16,0.25
		c-0.087,0.13-0.14,0.212-0.18,0.27c-0.41,0.55-0.67,0.954-1.09,1.7c-0.44,0.776-1.054,1.95-1.51,3.156
		c-0.656,1.62-1.13,3.335-1.49,5.383l-0.013,0.07l-0.01,0.07c-0.465,2.97-0.482,6.02-0.052,9.35l0.007,0.05l0.01,0.04
		c0.65,4.66,2.03,9.13,4.33,14.06c1.91,4.06,4.19,7.8,6.96,11.48l0.02,0.02l0.01,0.02c2.16,2.83,4.32,5.25,6.63,7.39
		c-0.01,0.5-0.02,0.99-0.02,1.47c0,22.77,10.75,44.08,30.28,60c19.05,15.53,44.28,24.09,71.05,24.09c26.77,0,52-8.549,71.05-24.078
		c19.479-15.881,30.22-37.12,30.279-59.83c2.489-2.37,4.79-5.04,7.09-8.24l0.021-0.02l0.012-0.02c2.688-3.79,4.85-7.59,6.608-11.63
		c2.181-5.06,3.431-9.56,3.939-14.22v-0.07c0.329-3.36,0.221-6.43-0.33-9.37l-0.021-0.06l-0.02-0.06
		c-0.42-2.02-0.939-3.71-1.631-5.32c-0.399-0.97-0.971-2.08-1.619-3.15c-0.439-0.73-0.7-1.11-1.09-1.6
		c-0.051-0.06-0.11-0.14-0.26-0.35l-0.16-0.22l-0.17-0.21c-3.121-3.88-6.881-6.03-9.49-7.15c-2.76-1.17-5.67-1.89-8.95-2.22h-0.08
		c-1.19-0.11-2.41-0.16-3.62-0.16c-3.34,0-6.689,0.4-10.52,1.25l-0.07,0.02l-0.07,0.02c-3.32,0.8-6.49,1.81-9.479,3.04
		c-18.909-15.6-44.64-24.45-71.479-24.45L128.222,43.9z"/>
	<path fill="#676767" d="M62.575,83.464c0,0-31.14-10.854-37.24-1.997c-6.09,8.853,7.293,30.076,17.734,37.27
		C43.069,118.737,36.969,95.889,62.575,83.464z"/>
	<path fill="#B3B3B3" d="M60.542,86.54c-5.23-2.968-11.416-4.5-17.355-4.89c-2.943-0.167-5.88,0.02-8.285,0.69
		c-2.477,0.642-4.002,1.91-4.262,2.776c-0.32,0.825-0.402,2.458,0.28,4.714c0.645,2.205,1.866,4.637,3.366,6.932
		c3.006,4.558,7.346,8.953,11.406,11.202c4.467,2.483,6.07,8.106,3.584,12.568c-2.48,4.458-8.104,6.067-12.557,3.582
		c-0.408-0.22-0.787-0.47-1.14-0.74l-0.32-0.25c-3.52-2.734-6.21-5.707-8.608-8.846c-2.38-3.15-4.41-6.46-6.11-10.042
		c-1.67-3.582-3.05-7.405-3.66-11.79c-0.29-2.19-0.38-4.55,0.02-7.08c0.22-1.277,0.53-2.566,1.06-3.857
		c0.21-0.59,0.59-1.38,1.02-2.15c0.53-0.95,0.34-0.51,1.02-1.56c1.74-2.31,4.03-3.97,6.27-4.99c2.24-1.03,4.44-1.53,6.53-1.8
		c4.19-0.51,8.03-0.11,11.71,0.59c7.28,1.52,14.13,4.29,20.06,8.77c1.62,1.23,1.94,3.55,0.71,5.18c-1.13,1.5-3.18,1.88-4.78,0.98
		L60.542,86.54z"/>
	<path fill="#676767" d="M193.385,85.47c-11.566-5.203,30.811-11.736,37.166-3.057c6.34,8.682-3.931,27.014-14.16,34.493
		c0,0,2.94-19.744-23.01-31.435L193.385,85.47z"/>
	<path fill="#B3B3B3" d="M191.264,82.45c5.791-4.65,12.572-7.608,19.807-9.342c3.648-0.81,7.48-1.307,11.686-0.926
		c2.1,0.21,4.316,0.647,6.588,1.613c2.26,0.97,4.609,2.562,6.41,4.813c0.721,1.02,0.5,0.59,1.07,1.533
		c0.459,0.75,0.859,1.53,1.09,2.11c0.57,1.28,0.91,2.56,1.17,3.83c0.479,2.52,0.449,4.88,0.229,7.08
		c-0.479,4.4-1.75,8.26-3.318,11.9c-1.58,3.62-3.521,6.99-5.801,10.2c-2.311,3.22-4.91,6.271-8.351,9.09l-0.27,0.23
		c-3.94,3.24-9.761,2.67-13-1.26c-3.23-3.94-2.66-9.76,1.27-13c0.359-0.29,0.771-0.58,1.15-0.81c4-2.37,8.209-6.89,11.08-11.52
		c1.438-2.33,2.6-4.81,3.18-7.02c0.619-2.27,0.479-3.91,0.14-4.71c-0.289-0.86-1.84-2.09-4.34-2.66c-2.42-0.6-5.359-0.7-8.31-0.45
		c-5.92,0.56-12.062,2.27-17.2,5.38c-1.74,1.07-4.021,0.51-5.08-1.23c-0.97-1.6-0.58-3.66,0.85-4.8L191.264,82.45z"/>
	<path fill="#FFFFFF" d="M221.566,127.996c0,42.02-41.78,76.085-93.32,76.085c-51.546,0-93.335-34.06-93.335-76.08
		c0-42.01,41.79-76.07,93.335-76.07c51.54,0,93.32,34.06,93.32,76.08V127.996z"/>
	<path fill="#B3B3B3" d="M201.559,120.02c0,34.276-33.869,62.078-75.646,62.078c-41.77,0-75.63-27.801-75.63-62.077
		c0-34.28,33.87-62.08,75.64-62.08c41.779,0,75.65,27.8,75.65,62.09L201.559,120.02z"/>
	<path fill="#999898" d="M125.912,185.003c-43.31,0-78.55-29.151-78.55-64.98c0-35.844,35.24-64.996,78.55-64.996
		c43.316,0,78.553,29.152,78.553,64.995C204.465,155.852,169.229,185.002,125.912,185.003L125.912,185.003z M125.912,60.845
		c-40.104,0-72.733,26.546-72.733,59.177c0,32.625,32.63,59.166,72.734,59.166c40.11,0,72.741-26.541,72.741-59.166
		C198.652,87.392,166.021,60.845,125.912,60.845L125.912,60.845z"/>
	<path fill="#333333" d="M66.057,105.49c-0.84,0-1.688-0.243-2.434-0.75c-1.99-1.35-2.52-4.064-1.17-6.06
		c0.41-0.6,10.11-14.716,24.82-15.766c8.8-0.56,17.11,3.413,24.88,11.975c1.62,1.78,1.49,4.54-0.3,6.16
		c-1.79,1.62-4.54,1.48-6.16-0.3c-5.88-6.49-11.75-9.53-17.79-9.14c-10.35,0.73-18.13,11.83-18.21,11.95
		c-0.84,1.25-2.21,1.92-3.62,1.92L66.057,105.49z M184.021,104.462c-1.353,0-2.681-0.624-3.53-1.798
		c-5.149-7.072-10.773-10.77-16.709-10.984c-0.188-0.013-0.377-0.013-0.562-0.013c-10.132,0-18.744,9.835-18.83,9.937
		c-1.56,1.847-4.32,2.063-6.146,0.512c-1.838-1.556-2.065-4.308-0.513-6.147c0.459-0.54,11.189-13.03,25.479-13.03
		c0.3,0,0.601,0,0.89,0.01c8.76,0.31,16.642,5.22,23.45,14.57c1.431,1.95,0.99,4.67-0.95,6.1c-0.77,0.56-1.68,0.83-2.56,0.83
		L184.021,104.462z"/>
</g>
<path fill="#333333" d="M128,147.266c-3.216,0-6.5-2.6-6.5-5.814v-34.903c0-3.214,3.284-5.817,6.5-5.817
	c3.218,0,6.5,2.604,6.5,5.817v34.903C134.5,144.666,131.218,147.266,128,147.266z"/>
<path fill="#2974A7" d="M139.52,107.312c0,3.865-5.16,6.995-11.521,6.995c-6.361,0-11.524-3.13-11.524-6.995
	c0-3.86,5.17-6.99,11.53-6.99c6.36-0.002,11.521,3.128,11.521,6.99H139.52z"/>
<path fill="#C1272D" d="M110.614,114.692c-0.115-0.114,0.465,0.5,0.377,0.468c0.008,0.04,0.014,0.093,0.022,0.158
	c0.168,0.186,0.354,0.396,0.566,0.637c0.867,0.986,2.432,2.53,4.489,4.15c1.021,0.85,2.171,1.677,3.435,2.482
	c1.229,0.93,2.615,1.512,4.018,2.385c1.435,0.536,2.914,1.508,4.465,1.888l2.345,0.83l2.403,0.522
	c1.621,0.513,3.261,0.455,4.91,0.687c1.67,0.24,3.312-0.108,4.961-0.049c1.648-0.061,3.24-0.571,4.81-0.75
	c1.58-0.12,3.021-0.91,4.42-1.26c1.381-0.48,2.711-0.73,3.812-1.38c1.129-0.55,2.108-1.02,2.93-1.41
	c1.66-0.77,2.601-1.21,2.601-1.21l2.479-1.15c8.391-3.9,18.359-0.25,22.25,8.15c3.381,7.29,1.07,15.762-5.1,20.42
	c0,0-1.291,0.96-3.531,2.66c-1.14,0.852-2.521,1.87-4.109,3.05c-1.52,1.25-3.619,2.302-5.789,3.562
	c-2.24,1.17-4.471,2.75-7.311,3.77c-2.779,1.07-5.641,2.44-8.851,3.33c-3.239,0.78-6.562,1.9-10.11,2.311
	c-3.529,0.42-7.17,1.021-10.81,0.88l-5.48-0.061c-1.81-0.2-3.6-0.39-5.38-0.579c-3.62-0.301-6.93-1.271-10.29-1.961
	c-3.189-0.979-6.399-1.82-9.189-3c-2.88-1.08-5.521-2.25-7.891-3.46c-4.79-2.36-8.569-4.739-11.29-6.649
	c-0.689-0.489-1.29-0.93-1.83-1.311c-0.67-0.529-1.229-0.99-1.68-1.35l-1.02-0.82c-9.94-9.48-10.32-25.21-0.84-35.15
	c9.47-9.94,25.21-10.32,35.149-0.85L110.614,114.692z"/>
<path fill="#FFFFFF" d="M192.6,108.012c0,0-12.603,25.681-2.423,29.563C200.359,141.455,205.2,127.412,192.6,108.012L192.6,108.012z
	"/>
</svg>
