<svg xmlns="http://www.w3.org/2000/svg" xmlns:xlink="http://www.w3.org/1999/xlink" width="256" height="256" viewBox="0 0 256 256"><path fill="#333" d="M128.196 212.807c-56.276 0-102.063-38.045-102.063-84.81 0-.385.006-.77.023-1.15-2.262-2.126-4.38-4.503-6.494-7.272-2.828-3.752-5.127-7.533-7.05-11.597-2.356-5.065-3.753-9.603-4.415-14.32-.453-3.483-.43-6.608.045-9.646.275-1.54.7-3.615 1.615-5.83.2-.578.81-1.897 1.518-3.136.63-1.12.807-1.322 1.086-1.693l.56-.807c2.46-3.25 5.78-5.894 9.58-7.65 2.76-1.267 5.72-2.092 9.06-2.526 5.09-.607 9.18-.344 14.49.67 4.15.87 8.05 2.073 11.7 3.602 18.91-14.96 44.21-23.447 70.37-23.447 26.8 0 52.54 8.833 71.57 24.404 2.98-1.23 6.07-2.22 9.22-2.98 5.44-1.22 9.69-1.57 14.51-1.13 3.44.34 6.43 1.09 9.22 2.27 2.72 1.16 6.59 3.37 9.8 7.37l.38.5c.51.66.67.85 1.36 1.98.71 1.17 1.35 2.44 1.72 3.38.62 1.39 1.17 3.17 1.61 5.3.6 3.15.71 6.28.37 9.71-.52 4.8-1.79 9.38-3.99 14.48-1.79 4.11-3.97 7.96-6.7 11.79-2.28 3.16-4.54 5.82-6.99 8.17-.31 46.54-45.97 84.33-102.05 84.33zM27.084 82.887c-.336.5-.51.728-.64.906-.08.19-.23.478-.323.712-.34.842-.5 1.475-.67 2.393-.18 1.215-.18 2.682.04 4.432.41 2.907 1.32 5.785 2.92 9.23 1.39 2.925 3.09 5.713 5.16 8.463 2.29 2.986 4.44 5.21 6.96 7.173l3.7 2.88-.45 5.912c-.08 1-.18 1.996-.18 3.01 0 37.143 37.96 67.357 84.61 67.357s84.6-30.215 84.6-67.357c0-.447-.05-.885-.08-1.325l-.33-6.002 3.99-3.18c2.59-2.19 4.57-4.4 6.68-7.33 1.98-2.79 3.59-5.62 4.89-8.59 1.5-3.47 2.32-6.37 2.65-9.36.17-1.68.13-3.14-.12-4.5-.16-.77-.35-1.4-.58-1.92-.21-.5-.38-.79-.55-1.08-.08-.12-.25-.33-.58-.8-.73-.85-1.76-1.58-2.89-2.07-1.13-.48-2.42-.78-4.03-.95-2.53-.21-5.45 0-8.91.77-3.59.86-7.18 2.21-10.52 3.98l-5.48 2.91-4.54-4.22c-16.17-15.03-39.56-23.65-64.17-23.65-24.05 0-47.1 8.31-63.23 22.79L60.4 87.6l-5.42-2.98c-3.66-2.01-7.78-3.5-12.25-4.44-3.28-.63-5.94-.82-8.87-.46-1.51.19-2.79.54-3.94 1.06-1.1.51-2.094 1.27-2.802 2.14z"/><path fill="#676767" d="M62.52 83.466s-31.137-10.86-37.238-1.998c-6.09 8.855 7.293 30.076 17.736 37.267 0 0-6.103-22.842 19.502-35.27z"/><path fill="#B3B3B3" d="M60.49 86.542c-5.23-2.967-11.417-4.5-17.354-4.89-2.95-.166-5.88.02-8.285.69-2.47.637-4 1.907-4.26 2.78-.31.82-.4 2.456.28 4.714.65 2.2 1.87 4.635 3.37 6.932 3.01 4.55 7.35 8.947 11.41 11.202 4.47 2.48 6.07 8.104 3.59 12.563s-8.1 6.065-12.56 3.584c-.4-.223-.78-.47-1.13-.743l-.32-.253c-3.52-2.72-6.21-5.7-8.6-8.84-2.37-3.14-4.41-6.46-6.1-10.03-1.67-3.59-3.04-7.4-3.66-11.79-.28-2.19-.37-4.55.02-7.08.23-1.27.53-2.56 1.07-3.85.21-.58.6-1.38 1.03-2.14.53-.95.35-.52 1.02-1.56 1.74-2.29 4.04-3.95 6.27-4.98 2.25-1.03 4.44-1.52 6.53-1.8 4.2-.5 8.03-.11 11.71.59 7.28 1.53 14.14 4.3 20.07 8.78 1.63 1.24 1.95 3.56.71 5.18-1.13 1.5-3.18 1.89-4.77.98z"/><path fill="#676767" d="M193.333 85.474c-11.565-5.203 30.813-11.742 37.162-3.058 6.348 8.68-3.925 27.01-14.156 34.495 0 .01 2.94-19.74-23.01-31.43z"/><path fill="#B3B3B3" d="M191.214 82.457c5.79-4.65 12.57-7.613 19.802-9.346 3.65-.81 7.483-1.3 11.688-.92 2.1.22 4.315.65 6.588 1.62 2.256.97 4.603 2.56 6.408 4.81.71 1.03.498.6 1.067 1.54.455.75.857 1.53 1.088 2.11.563 1.28.906 2.56 1.168 3.82.476 2.52.45 4.88.228 7.08-.48 4.41-1.75 8.26-3.32 11.9-1.58 3.63-3.52 7-5.8 10.21-2.31 3.21-4.91 6.26-8.35 9.09l-.28.23c-3.94 3.24-9.75 2.68-13-1.26-3.23-3.94-2.67-9.76 1.27-13 .36-.29.77-.58 1.15-.81 4-2.37 8.22-6.89 11.08-11.52 1.44-2.33 2.6-4.81 3.18-7.02.62-2.27.48-3.91.15-4.72-.28-.86-1.84-2.09-4.33-2.65-2.43-.6-5.37-.7-8.31-.45-5.92.57-12.06 2.27-17.21 5.39-1.74 1.06-4.02.5-5.08-1.24-.97-1.6-.58-3.65.85-4.8z"/><path fill="#fff" d="M221.516 127.998c0 42.02-41.777 76.086-93.32 76.086-51.548 0-93.335-34.064-93.335-76.086 0-42.018 41.79-76.08 93.34-76.08 51.54 0 93.32 34.062 93.32 76.08z"/><path fill="#B3B3B3" d="M201.505 125.838c0 34.28-33.864 62.074-75.643 62.074-41.77 0-75.64-27.793-75.64-62.074 0-34.288 33.868-62.085 75.64-62.085 41.78 0 75.643 27.797 75.643 62.085z"/><path fill="#999898" d="M125.862 190.824c-43.31 0-78.55-29.156-78.55-64.986 0-35.835 35.24-64.993 78.55-64.993 43.315 0 78.553 29.158 78.553 64.993 0 35.83-35.238 64.986-78.553 64.986zm0-124.16c-40.107 0-72.734 26.545-72.734 59.175 0 32.62 32.627 59.16 72.734 59.16 40.11 0 72.738-26.55 72.738-59.17 0-32.63-32.63-59.18-72.738-59.18z"/><path fill="#FF7BAC" d="M119.153 83.628c-1.96-7.365-8.494-12.29-15.744-12.546-1.93-.228-3.92-.125-5.9.405-4.94 1.317-8.65 4.852-10.47 9.23-3.77-2.89-8.75-4.11-13.67-2.795-1.99.53-3.77 1.428-5.33 2.583-6.15 3.83-9.38 11.353-7.41 18.72.8 3 2.37 5.59 4.43 7.63 8.25 11.858 33.17 15.905 33.17 15.905s19.61-15.918 20.86-30.308c.77-2.796.84-5.82.04-8.824z"/><path fill="#ED1E79" d="M99.067 125.838l-1.285-.206c-1.07-.173-26.246-4.39-35.098-17.114-2.16-2.077-3.953-5.17-4.855-8.543-2.27-8.48 1.22-17.298 8.68-21.937 1.71-1.293 3.84-2.32 6.11-2.926 4.44-1.192 9.23-.636 13.31 1.473 2.5-3.89 6.3-6.7 10.82-7.906 2.25-.61 4.66-.77 6.99-.49 8.53.29 15.95 6.2 18.21 14.69.9 3.37.88 6.95-.05 10.34-1.25 14.91-20.99 31.1-21.83 31.79l-1.02.82zM77.374 80.302c-1.088 0-2.186.146-3.256.43-1.547.414-3.01 1.124-4.338 2.11-5.465 3.413-7.93 9.64-6.328 15.632.63 2.382 1.902 4.565 3.668 6.318 6.732 9.61 25.23 13.855 30.295 14.857 3.898-3.4 17.816-16.23 18.795-27.45.754-2.92.766-5.44.13-7.83-1.597-6-6.83-10.17-13.032-10.39-2.357-.26-3.506-.11-5.05.31-3.85 1.03-6.958 3.77-8.528 7.53l-1.453 3.49-3.006-2.3c-2.28-1.75-5.09-2.72-7.89-2.72z"/><path fill="#FF7BAC" d="M136.266 83.628c1.96-7.365 8.49-12.29 15.74-12.546 1.926-.228 3.915-.125 5.9.405 4.933 1.317 8.642 4.852 10.464 9.23 3.77-2.89 8.74-4.11 13.676-2.795 1.986.53 3.77 1.428 5.32 2.583 6.15 3.83 9.372 11.353 7.407 18.72-.8 3-2.373 5.59-4.432 7.63-8.24 11.858-33.17 15.905-33.17 15.905s-19.61-15.918-20.86-30.308c-.77-2.796-.84-5.82-.04-8.824z"/><path fill="#ED1E79" d="M156.346 125.838l-1.013-.82c-.842-.682-20.582-16.872-21.924-32.312-.85-2.868-.86-6.447.04-9.826 2.26-8.485 9.67-14.393 18.45-14.702 1.59-.22 4.5-.1 6.75.502 4.52 1.205 8.32 4.016 10.82 7.906 4.07-2.108 8.86-2.665 13.31-1.473 2.27.605 4.39 1.633 6.3 3.06 7.26 4.505 10.75 13.32 8.49 21.803-.9 3.374-2.7 6.466-5.19 8.948-8.52 12.32-33.69 16.536-34.77 16.71l-1.29.204zm-2.43-51.96c-.525 0-1.05.03-1.57.093-6.437.24-11.673 4.42-13.27 10.41-.64 2.39-.626 4.91.04 7.3 1.05 11.67 14.99 24.58 18.883 27.97 5.06-1 23.52-5.2 29.95-14.45 2.1-2.15 3.37-4.34 4.01-6.72 1.6-5.99-.87-12.22-6.14-15.5-1.53-1.12-2.98-1.83-4.54-2.24-3.82-1.02-7.98-.14-11.15 2.3l-3.01 2.3-1.46-3.49c-1.57-3.76-4.68-6.51-8.53-7.54-1.05-.28-2.14-.42-3.25-.42z"/><path fill="#333" d="M127.12 164.72c-3.216 0-7.5-2.6-7.5-5.817V124c0-3.213 4.284-5.816 7.5-5.816s7.5 2.604 7.5 5.816v34.902c0 3.217-4.284 5.817-7.5 5.817z"/><path fill="#2974A7" d="M137.982 124.766c0 3.862-5.157 6.992-11.52 6.992-6.355 0-11.52-3.13-11.52-6.992 0-3.864 5.165-6.993 11.52-6.993 6.363 0 11.52 3.13 11.52 6.993z"/><defs><path id="a" d="M110.54 132.88c.023-.212 1.096.753 1.7 1.32l2.26 2.046c1.577 1.352 3.276 2.586 5.017 3.666 3.492 2.152 7.145 3.67 10.885 4.412 7.375 1.53 15.824-.232 24.383-5.42l.475-.287c6.31-3.832 14.535-1.82 18.355 4.492 3.346 5.51 2.225 12.49-2.32 16.71-5.275 4.9-11.46 9.43-18.73 12.72-7.25 3.27-15.547 5.2-23.896 5.3-8.36.13-16.61-1.49-24.16-4.26-3.79-1.39-7.42-3.05-10.92-4.99-1.74-.98-3.49-1.98-5.17-3.16-1.8-1.28-3.07-2.22-5.25-4.52-7.75-7.56-7.9-19.97-.35-27.71 7.55-7.75 19.96-7.9 27.7-.34z"/></defs><clipPath><use xlink:href="#a" overflow="visible"/></clipPath><radialGradient id="b" cx="66" cy="124" r="30" gradientTransform="matrix(1 0 0 -1 0 257)" gradientUnits="userSpaceOnUse"><stop offset="0" stop-color="#FF585D"/><stop offset="1" stop-color="#FF585D" stop-opacity="0"/></radialGradient><circle opacity=".4" fill="url(#b)" enable-background="new" cx="66" cy="133" r="30"/><radialGradient id="c" cx="181" cy="124" r="30" gradientTransform="matrix(1 0 0 -1 0 257)" gradientUnits="userSpaceOnUse"><stop offset="0" stop-color="#FF585D"/><stop offset="1" stop-color="#FF585D" stop-opacity="0"/></radialGradient><circle opacity=".4" fill="url(#c)" enable-background="new" cx="181" cy="133" r="30"/><path fill="#C1272D" d="M110.36 132.7c-.086-.08.418.345.465.315.057.022.12.04.18.102l.604.473c.87.807 2.26 2.19 4.1 3.623 3.67 2.94 9.08 6.04 14.68 7.025 1.41.418 2.82.387 4.25.522 1.44.236 2.83-.172 4.26-.143 1.41-.052 2.77-.578 4.11-.77 1.36-.126 2.58-.835 3.78-1.19 1.18-.458 2.33-.696 3.26-1.3.96-.51 1.81-.956 2.5-1.318 1.41-.73 2.22-1.14 2.22-1.14l1.98-1.02c6.51-3.33 14.48-.76 17.81 5.75 2.86 5.6 1.34 12.31-3.29 16.18l-2.9 2.42L165 165c-1.242 1.13-3.002 2.093-4.81 3.26-1.874 1.086-3.73 2.51-6.134 3.47-2.366.99-4.77 2.265-7.517 3.05-2.77.72-5.6 1.793-8.63 2.125-3.03.44-6.14.93-9.26.84-3.16.136-6.24-.138-9.27-.52-3.07-.307-5.91-1.09-8.74-1.71-2.7-.845-5.42-1.57-7.77-2.595-2.43-.92-4.64-1.94-6.65-2.956-4.02-2.026-7.21-4-9.42-5.698l-1.46-1.203c-.51-.46-.94-.87-1.29-1.19-.76-.723-.65-.71-.74-.786-7.85-7.45-8.16-19.855-.71-27.7 7.46-7.85 19.86-8.163 27.7-.71z"/><path fill="#fff" d="M111.61 133.59l-.605-.473c-.06-.06-.123-.08-.18-.102-.047.03-.55-.396-.465-.316-5.8-5.51-14.086-6.77-21.025-3.88-.055.36-.095.74-.103 1.12-.096 4.82 3.727 8.8 8.545 8.9l5.814.11c3.64.07 6.8-2.1 8.18-5.23-.05-.05-.11-.1-.15-.15zm45.156 4.297l-1.98 1.016s-.81.41-2.22 1.138l-2.505 1.32c-.93.61-2.07.84-3.26 1.3-.62.19-1.25.47-1.91.71 1.12 3.6 4.5 6.19 8.45 6.13l5.83-.09c4.82-.07 8.67-4.03 8.6-8.84-.02-1.22-.29-2.38-.76-3.43-3.26-1.09-6.93-.92-10.23.77z"/></svg>