<svg xmlns="http://www.w3.org/2000/svg" width="256" height="256" viewBox="0 0 256 256"><path fill="#fff" d="M128.087 208.084c-53.668 0-97.33-35.927-97.33-80.086 0-1.04.026-2.11.08-3.198-2.658-2.285-5.084-4.897-7.524-8.09-2.625-3.48-4.758-6.99-6.537-10.758-2.148-4.61-3.418-8.72-4.006-12.954-.39-2.99-.375-5.68.038-8.262.23-1.303.573-2.938 1.28-4.67.288-.78.75-1.747 1.277-2.67.363-.64.523-.88.766-1.206.07-.094.16-.218.38-.547l.09-.13.1-.123c2.52-3.32 5.62-5.204 7.78-6.2 2.36-1.08 4.8-1.758 7.7-2.137 1.46-.176 2.92-.263 4.37-.263 2.71 0 5.44.282 8.61.888 4.78 1.002 9.21 2.478 13.25 4.404 18.25-15.387 43.48-24.165 69.71-24.165 26.82 0 52.44 9.12 70.79 25.106 3.44-1.583 7.16-2.86 11.1-3.803 3.6-.8 6.66-1.167 9.71-1.167 1.09 0 2.19.05 3.27.147 2.92.295 5.45.92 7.8 1.916 2.21.95 5.37 2.75 7.97 5.987l.09.108.08.12c.23.33.32.46.4.55.26.33.42.57.8 1.2.54.89 1.04 1.85 1.36 2.63.59 1.36 1.03 2.82 1.4 4.58.51 2.65.59 5.27.29 8.29-.47 4.28-1.62 8.43-3.63 13.08-1.66 3.8-3.69 7.37-6.22 10.94-2.54 3.53-5.07 6.37-7.89 8.85.02.54.02 1.07.02 1.58 0 44.16-43.66 80.09-97.32 80.09zm83.777-120.88c2.246 3.12 4.23 6.358 5.937 9.695.23-.35.46-.69.67-1.04 1.3-2.1 2.26-4.2 2.71-5.94.24-.88.3-1.52.3-1.91-.3-.17-.81-.4-1.51-.55-1.3-.32-2.83-.49-4.51-.49-.82 0-1.69.03-2.57.11-.34.03-.68.07-1.02.11zm-177.622-.39c.012.39.09 1.025.344 1.87.52 1.757 1.543 3.842 2.888 5.89.378.573.78 1.144 1.204 1.708 1.882-3.59 4.085-7.065 6.593-10.397-.83-.105-1.66-.185-2.5-.24-.55-.032-1.14-.05-1.73-.05-2.01 0-3.81.21-5.22.602-.74.192-1.26.433-1.57.616z"/><path fill="#333" d="M128.087 51.917c27.95 0 53.026 10.02 70.13 25.89 3.977-2.098 8.247-3.632 12.692-4.697 2.79-.622 5.68-1.057 8.77-1.057.95 0 1.92.042 2.9.13 2.1.214 4.31.647 6.59 1.614 2.25.97 4.6 2.56 6.4 4.81.71 1.026.5.596 1.07 1.534.45.75.85 1.53 1.09 2.11.56 1.28.9 2.56 1.16 3.82.48 2.52.45 4.88.23 7.08-.49 4.41-1.76 8.26-3.33 11.9-1.58 3.63-3.53 7-5.81 10.21-2.31 3.21-4.92 6.26-8.35 9.09l-.28.23-.08.06c.06 1.12.09 2.25.09 3.38 0 42.03-41.78 76.09-93.32 76.09-51.55 0-93.33-34.06-93.33-76.08 0-1.67.07-3.33.2-4.98-3.45-2.7-6.11-5.63-8.47-8.73-2.38-3.15-4.41-6.46-6.1-10.04-1.68-3.58-3.06-7.4-3.66-11.79-.29-2.19-.38-4.55.02-7.08.22-1.27.52-2.56 1.06-3.85.21-.58.59-1.38 1.02-2.13.54-.95.35-.52 1.03-1.56 1.74-2.3 4.03-3.96 6.27-4.99 2.24-1.03 4.44-1.53 6.53-1.8 1.32-.16 2.6-.23 3.85-.23 2.73 0 5.33.34 7.85.82 5.14 1.08 10.05 2.79 14.59 5.27 17.07-15.33 41.71-24.95 69.12-24.95m-88.32 51.5c3.04-7.28 7.4-14.07 12.84-20.18-3.13-.9-6.36-1.44-9.53-1.65-.67-.03-1.33-.05-1.99-.05-2.26 0-4.44.23-6.3.75-2.48.64-4 1.91-4.26 2.78-.32.82-.4 2.46.28 4.72.65 2.2 1.86 4.64 3.37 6.93 1.57 2.38 3.51 4.71 5.58 6.72m177.14.99c1.87-1.98 3.61-4.23 5.02-6.51 1.44-2.33 2.59-4.81 3.17-7.02.62-2.27.48-3.9.14-4.71-.28-.87-1.85-2.09-4.34-2.66-1.62-.4-3.47-.58-5.4-.58-.96 0-1.94.05-2.91.13-2.61.25-5.26.73-7.85 1.45 5.17 6.06 9.29 12.76 12.15 19.92m-88.76-60.55c-26.23 0-51.54 8.51-70.33 23.5-3.67-1.55-7.6-2.77-11.73-3.64l-.07-.01-.07-.01c-3.42-.65-6.4-.96-9.36-.96-1.62 0-3.23.1-4.81.29l-.04.01-.04.01c-3.27.43-6.16 1.23-8.84 2.46-3.71 1.71-6.92 4.27-9.31 7.42l-.18.25-.16.26c-.13.2-.18.27-.22.33-.37.5-.63.89-1.04 1.62-.36.64-1.04 1.89-1.53 3.19-.83 2.06-1.23 3.94-1.48 5.35l-.01.07-.01.07c-.48 2.97-.5 6.03-.06 9.38v.04l.01.04c.65 4.64 2.02 9.11 4.34 14.07 1.92 4.06 4.19 7.8 6.96 11.48 2.19 2.86 4.36 5.28 6.67 7.43-.01.5-.02.99-.02 1.47 0 22.78 10.76 44.09 30.28 60 19.05 15.53 44.29 24.09 71.05 24.09s52-8.55 71.05-24.08c19.48-15.88 30.23-37.12 30.28-59.84 2.5-2.37 4.81-5.05 7.1-8.24l.02-.02.02-.02c2.69-3.79 4.86-7.59 6.62-11.64 2.18-5.05 3.43-9.56 3.94-14.21l.01-.04.01-.03c.35-3.36.24-6.43-.32-9.38l-.01-.05-.01-.05c-.41-2.03-.93-3.73-1.63-5.34-.4-.97-.97-2.08-1.62-3.15-.43-.72-.68-1.09-1.07-1.58-.05-.06-.11-.15-.26-.36l-.16-.23-.18-.21c-3.11-3.88-6.87-6.03-9.48-7.15-2.75-1.17-5.67-1.89-8.95-2.22l-.04-.01h-.04c-1.19-.11-2.42-.16-3.63-.16-3.35 0-6.69.4-10.51 1.25l-.07.01-.06.01c-3.31.79-6.48 1.81-9.48 3.03C180.72 52.86 155 44 128.16 44z"/><path fill="#676767" d="M62.41 83.466s-31.137-10.86-37.238-1.998c-6.09 8.855 7.295 30.076 17.732 37.267 0 0-6.094-22.842 19.506-35.27z"/><path fill="#B3B3B3" d="M60.383 86.542c-5.232-2.967-11.418-4.5-17.355-4.89-2.947-.166-5.88.02-8.29.69-2.476.637-3.993 1.907-4.26 2.78-.313.82-.4 2.456.278 4.714.65 2.2 1.866 4.635 3.374 6.932 3.002 4.55 7.342 8.947 11.403 11.202 4.463 2.48 6.063 8.103 3.585 12.562-2.48 4.46-8.106 6.065-12.56 3.584-.407-.223-.783-.47-1.136-.743l-.325-.253c-3.518-2.73-6.21-5.703-8.606-8.84-2.37-3.148-4.4-6.46-6.09-10.037-1.67-3.588-3.05-7.406-3.66-11.796-.28-2.194-.38-4.55.03-7.08.23-1.275.53-2.564 1.06-3.855.21-.584.6-1.382 1.03-2.138.55-.953.35-.52 1.03-1.566 1.75-2.297 4.04-3.956 6.27-4.987 2.25-1.03 4.45-1.52 6.54-1.8 4.2-.5 8.04-.11 11.71.59 7.28 1.53 14.14 4.3 20.07 8.78 1.63 1.24 1.94 3.56.71 5.18-1.13 1.5-3.18 1.89-4.77.98z"/><path fill="#676767" d="M193.224 85.474c-11.567-5.203 30.813-11.742 37.163-3.058 6.347 8.68-3.925 27.01-14.156 34.495 0 .01 2.95-19.74-23-31.43z"/><path fill="#B3B3B3" d="M191.103 82.457c5.792-4.65 12.57-7.613 19.807-9.346 3.65-.81 7.48-1.3 11.684-.92 2.103.22 4.316.65 6.59 1.62 2.255.97 4.603 2.56 6.407 4.81.72 1.03.51.6 1.07 1.54.46.75.86 1.53 1.1 2.11.56 1.28.9 2.56 1.16 3.82.48 2.52.45 4.88.23 7.08-.48 4.41-1.75 8.26-3.32 11.9-1.58 3.63-3.52 7-5.8 10.21-2.31 3.21-4.91 6.26-8.35 9.09l-.28.23c-3.94 3.24-9.76 2.68-13-1.26-3.24-3.94-2.67-9.76 1.27-13 .36-.29.77-.58 1.15-.81 4-2.37 8.22-6.89 11.08-11.52 1.45-2.33 2.6-4.81 3.18-7.02.62-2.27.48-3.91.14-4.72-.28-.86-1.84-2.09-4.33-2.65-2.42-.6-5.37-.7-8.31-.45-5.92.57-12.06 2.27-17.21 5.39-1.74 1.06-4.01.5-5.07-1.24-.98-1.6-.58-3.65.84-4.8z"/><path fill="#fff" d="M221.406 127.998c0 42.022-41.776 76.086-93.32 76.086-51.547 0-93.33-34.064-93.33-76.086 0-42.018 41.783-76.08 93.33-76.08 51.544 0 93.32 34.062 93.32 76.08z"/><path fill="#B3B3B3" d="M201.398 125.838c0 34.28-33.87 62.074-75.646 62.074-41.77 0-75.637-27.793-75.637-62.074 0-34.288 33.868-62.085 75.637-62.085 41.776 0 75.646 27.797 75.646 62.085z"/><path fill="#999898" d="M125.752 190.824c-43.313 0-78.546-29.156-78.546-64.986 0-35.835 35.233-64.993 78.546-64.993 43.315 0 78.555 29.158 78.555 64.993 0 35.83-35.24 64.986-78.555 64.986zm0-124.16c-40.104 0-72.73 26.545-72.73 59.175 0 32.62 32.625 59.16 72.73 59.16 40.106 0 72.74-26.55 72.74-59.17 0-32.63-32.634-59.18-72.74-59.18z"/><path fill="#C1272D" d="M97.195 135.654c0 22.076 11.725 39.973 28.953 39.973 17.23 0 28.956-17.896 28.956-39.973l.33-10.813c0 12.35-6.512 22.36-14.544 22.36-14.53 0-14.53-15.9-14.53-28.25 0 12.35 0 28.25-14.54 28.25-8.03 0-14.537-10.01-14.537-22.36l-.088 10.82z"/><path fill="#999898" d="M126.12 180.363c-19.794 0-33.446-13.318-34.375-30.096l-.092 7.47c0 17.626 13.957 31.923 34.466 31.923 20.51 0 34.46-14.297 34.46-31.922l.38-8.64c0 2.214-.44 4.312-1.16 6.27-3.14 14.298-15.96 24.995-33.7 24.995z"/><path fill="#333" d="M141 151.563c-7.306 0-11.782-3.05-14.53-7.5-2.75 4.45-7.232 7.5-14.538 7.5-10.6 0-18.9-11.736-18.9-26.72 0-2.413 1.952-4.366 4.362-4.366 2.408 0 4.362 1.953 4.362 4.365 0 10.604 5.364 17.995 10.176 17.995 8.65 0 10.173-7.7 10.173-23.887h8.726c0 16.186 1.53 23.887 10.18 23.887 4.82 0 10.18-7.39 10.18-17.995 0-2.412 1.96-4.365 4.37-4.365s4.37 1.953 4.37 4.365c0 14.984-8.3 26.72-18.91 26.72z"/><ellipse fill="#2974A7" cx="126.354" cy="118.949" rx="11.521" ry="6.993"/><path fill="#333" d="M65.906 111.31c-.842 0-1.69-.24-2.44-.746-1.998-1.35-2.523-4.063-1.175-6.06.41-.602 10.12-14.72 24.82-15.77 8.71-.636 17.1 3.4 24.88 11.972 1.62 1.785 1.49 4.546-.3 6.165-1.78 1.62-4.54 1.49-6.16-.3-5.88-6.48-11.83-9.54-17.79-9.13-10.35.74-18.13 11.85-18.2 11.96-.84 1.25-2.22 1.92-3.62 1.92zm75.617 0c-.842 0-1.688-.24-2.438-.746-1.994-1.352-2.522-4.063-1.17-6.06.402-.602 10.11-14.72 24.813-15.77 8.805-.6 17.11 3.412 24.875 11.972 1.62 1.785 1.483 4.546-.3 6.165-1.78 1.62-4.533 1.49-6.165-.3-5.873-6.48-11.86-9.54-17.785-9.13-10.357.74-18.135 11.85-18.215 11.96-.837 1.25-2.212 1.92-3.615 1.92z"/><radialGradient id="a" cx="69" cy="130.531" r="30" gradientUnits="userSpaceOnUse"><stop offset="0" stop-color="#FF585D"/><stop offset="1" stop-color="#FF585D" stop-opacity="0"/></radialGradient><circle opacity=".4" fill="url(#a)" cx="69" cy="130.531" r="30"/><radialGradient id="b" cx="184" cy="130.531" r="30" gradientUnits="userSpaceOnUse"><stop offset="0" stop-color="#FF585D"/><stop offset="1" stop-color="#FF585D" stop-opacity="0"/></radialGradient><circle opacity=".4" fill="url(#b)" cx="184" cy="130.531" r="30"/></svg>