<svg xmlns="http://www.w3.org/2000/svg" width="256" height="256" viewBox="0 0 256 256"><path fill="#C1272D" d="M127.843 221.095c-52.78 0-95.72-35.927-95.72-80.087 0-2.925.193-5.878.576-8.804-9.34-10.293-15.34-20.447-18.34-30.99-4.08-14.364-2.58-29.774 4.48-45.804.64-1.46 2.08-2.39 3.66-2.39.11 0 .23.005.34.015 1.7.148 3.13 1.365 3.54 3.028.05.216 5.58 21.502 25.64 36.045 18.07-19.584 46.12-31.18 75.82-31.18 29.79 0 57.88 11.65 75.95 31.326 20.22-14.547 25.78-35.974 25.84-36.2.41-1.657 1.84-2.872 3.54-3.017.11-.01.23-.014.34-.014 1.57 0 3.02.925 3.66 2.385 16.19 36.805.18 61.485-14.16 77.122.35 2.812.53 5.653.53 8.477 0 44.16-42.94 80.088-95.72 80.088z"/><path fill="#333" d="M233.52 57.02c14.82 33.685 1.354 57.105-14.72 74.183.497 3.21.757 6.482.757 9.806 0 42.02-41.056 76.08-91.714 76.08-50.652 0-91.72-34.07-91.72-76.09 0-3.43.277-6.81.808-10.12C20.99 113.84 7.77 90.5 22.5 57.02c0 0 6.11 24.78 30.18 40.386 16.588-19.64 44.068-32.48 75.166-32.48 31.177 0 58.71 12.904 75.28 32.62 24.254-15.6 30.397-40.53 30.397-40.53m-211.02-8c-3.15 0-6.033 1.857-7.32 4.78-7.44 16.905-9.01 33.227-4.66 48.51 3.036 10.675 8.937 20.918 18 31.215-.263 2.5-.395 5-.395 7.49 0 22.75 10.568 44.04 29.758 59.96 18.758 15.56 43.605 24.13 69.964 24.13 26.36 0 51.206-8.57 69.96-24.13 19.186-15.91 29.75-37.21 29.75-59.95 0-2.37-.12-4.76-.354-7.14 9.164-10.34 15.143-20.61 18.232-31.31 4.435-15.35 2.89-31.76-4.59-48.76-1.285-2.92-4.172-4.78-7.32-4.78-.23 0-.46.01-.693.03-3.402.3-6.24 2.72-7.07 6.03-.093.36-4.92 18.4-21.547 31.83-18.845-18.89-46.822-29.98-76.368-29.98-29.45 0-57.38 11.04-76.22 29.83C34.9 73.19 30.32 55.3 30.27 55.1c-.817-3.324-3.663-5.76-7.075-6.055-.235-.02-.466-.03-.696-.03z"/><path fill="#C1272D" d="M22.5 57.02s11.636 47.266 66.17 52.357l-2.21 3.373-25.422 38.8s-9.537-6.122-19.96-16.394C23.46 117.784 6.502 93.378 22.502 57.02z"/><path fill="#891B23" d="M61.038 151.55l24.646-37.62 1.82-4.722c-1.275-.14-2.45-.36-3.67-.54l-38.6 30.414c8.67 7.875 15.804 12.47 15.804 12.47z"/><path fill="#fff" d="M23.714 68.42s8 31.748 43.148 40.474l-14.79 7.034S21.29 98.714 23.715 68.42z"/><path fill="#7F0E17" d="M47.403 94.108s-17.086 7.633-18.36 27.268l10.728 13.086L57.4 100.47l-9.997-6.362z"/><path fill="#C1272D" d="M233.52 57.02s-11.63 47.266-66.17 52.357l2.21 3.373 25.425 38.8s9.535-6.122 19.953-16.394c17.623-17.372 34.58-41.778 18.582-78.135z"/><path fill="#891B23" d="M194.982 151.55l-24.65-37.62-1.818-4.722c1.272-.14 2.448-.36 3.672-.54l38.602 30.414c-8.672 7.875-15.806 12.47-15.806 12.47z"/><path fill="#fff" d="M232.305 68.42s-7.998 31.748-43.146 40.474l14.78 7.034c-.01 0 30.78-17.214 28.36-47.508z"/><path fill="#7F0E17" d="M208.613 94.108s17.09 7.633 18.363 27.268l-10.727 13.086-17.64-33.993 10-6.37z"/><path fill="#333" d="M167.736 200.922c-1.608 0-3.21-.66-4.358-1.964-.125-.136-13.23-14.593-30.647-15.22-11.01-.312-21.54 4.79-31.54 15.36-2.2 2.333-5.88 2.438-8.22.234s-2.44-5.886-.23-8.222c12.39-13.116 26.07-19.598 40.4-18.997 22.51.804 38.3 18.392 38.96 19.14 2.14 2.408 1.91 6.085-.5 8.21-1.11.978-2.48 1.46-3.85 1.46z"/><path fill="#C1272D" d="M219.557 141.008c0 42.02-41.056 76.087-91.714 76.087-50.652 0-91.72-34.065-91.72-76.087 0-42.015 41.067-76.078 91.72-76.078 50.658 0 91.714 34.063 91.714 76.078z"/><path fill="#B3B3B3" d="M202.77 144.666c0 34.277-33.87 62.076-75.646 62.076s-75.64-27.8-75.64-62.076c0-34.288 33.864-62.085 75.64-62.085s75.646 27.8 75.646 62.09z"/><path fill="#999898" d="M127.124 209.65c-43.31 0-78.55-29.157-78.55-64.984 0-35.84 35.24-64.994 78.55-64.994 43.313 0 78.556 29.155 78.556 64.994 0 35.827-35.242 64.984-78.556 64.984zm0-124.162c-40.105 0-72.732 26.546-72.732 59.178 0 32.626 32.627 59.165 72.732 59.165 40.106 0 72.735-26.53 72.735-59.16 0-32.63-32.63-59.18-72.74-59.18z"/><path fill="#fff" d="M128.62 194.79c0 3.015-2.783 5.59-5.797 5.59h-.125c-3.012 0-5.08-2.575-5.08-5.59v-6.43c0-3.01 2.068-4.98 5.08-4.98h.125c3.014 0 5.796 1.972 5.796 4.98v6.43zm-4.802-56.49c0 19.497-15.797 35.298-35.295 35.298-19.502 0-35.295-15.8-35.295-35.297 0-19.48 15.793-35.29 35.295-35.29 19.5 0 35.295 15.81 35.295 35.3z"/><path fill="#2974A7" d="M108.78 142.743c0 11.224-9.1 20.333-20.335 20.333-11.232 0-20.336-9.11-20.336-20.333 0-11.238 9.1-20.335 20.33-20.335 11.23 0 20.33 9.097 20.33 20.335z"/><path fill="#fff" d="M85.338 136.87c0 3.825-3.104 6.93-6.938 6.93-3.828 0-6.932-3.105-6.932-6.93 0-3.83 3.104-6.933 6.932-6.933 3.834.002 6.938 3.104 6.938 6.933zm7.64 7.485c0 1.797-1.466 3.252-3.263 3.252-1.795 0-3.254-1.455-3.254-3.252 0-1.803 1.46-3.258 3.26-3.258 1.8 0 3.26 1.458 3.26 3.258zM199.44 138.3c0 19.497-15.8 35.298-35.294 35.298-19.506 0-35.297-15.8-35.297-35.297 0-19.48 15.79-35.29 35.29-35.29s35.29 15.81 35.29 35.3z"/><path fill="#2974A7" d="M184.402 142.743c0 11.224-9.103 20.333-20.338 20.333-11.23 0-20.33-9.11-20.33-20.333 0-11.238 9.1-20.335 20.33-20.335 11.24 0 20.338 9.097 20.338 20.335z"/><path fill="#fff" d="M160.96 136.87c0 3.825-3.103 6.93-6.937 6.93-3.828 0-6.93-3.105-6.93-6.93 0-3.83 3.102-6.933 6.93-6.933 3.832.002 6.938 3.104 6.938 6.933zm7.644 7.485c0 1.797-1.47 3.252-3.266 3.252-1.793 0-3.254-1.455-3.254-3.252 0-1.803 1.46-3.258 3.254-3.258 1.797 0 3.266 1.458 3.266 3.258z"/><path fill="#B3B3B3" d="M123.818 138.3c0-19.487-15.65-37.132-35.148-37.132-12.974 0-24.445 8.837-30.58 19.26l64.747 26.124c.634-2.65.98-5.407.98-8.25z"/><path fill="#999898" d="M123.59 142.29l-62.962-25.602c-1.295 1.67-2.442 3.456-3.425 5.344l65.17 26.264c.57-1.94.985-3.944 1.217-6.006z"/><path fill="#B3B3B3" d="M128.453 138.3c0-19.487 16.384-37.132 35.883-37.132 12.975 0 23.71 8.837 29.846 19.26l-64.746 26.124c-.636-2.65-.983-5.407-.983-8.25z"/><path fill="#999898" d="M128.682 142.29l62.963-25.603c1.295 1.67 2.44 3.456 3.424 5.344L129.9 148.3c-.576-1.94-.99-3.943-1.22-6.005zm-8.58-43.49l-17.57 41.272 25.815 10.727 26.988-12.64-13.897-30.86s-13.098 13.55-21.336-8.51z"/><path fill="#fff" d="M122.62 200.38h-.867c-3.008 0-4.134-1.825-4.134-4.835V189c0-3.01 1.12-5.62 4.13-5.62h.73c3.01 0 5.52 2.22 5.52 5.23"/><path fill="#E6E6E6" d="M122.483 183.38h-.73c-3.008 0-4.134 2.61-4.134 5.62v6.545c0 2.322.8 4.27 2.85 5.063-.38-4.744-.8-9.107-.21-11.237.77-2.77 3.42-3.92 6.25-4.29-.99-.99-2.53-1.7-4.04-1.7z"/><path fill="#fff" d="M138.62 194.79c0 3.015-1.754 5.59-4.77 5.59h-.122c-3.012 0-5.11-2.575-5.11-5.59v-6.43c0-3.01 2.1-4.98 5.11-4.98h.123c3.02 0 4.77 1.972 4.77 4.98v6.43z"/><path fill="#E6E6E6" d="M134.116 183.38h-.728c-3.014 0-4.77 2.61-4.77 5.62v6.545c0 2.322 1.12 4.27 3.167 5.063-.377-4.744-.644-9.107-.043-11.237.776-2.77 3.5-3.92 6.325-4.29-.987-.99-2.44-1.7-3.95-1.7zm-10.786.897l5.33 5.82 5.456-6.55-8.12-4.12z"/><path fill="#333" d="M135.568 187.91c-3.782 0-6.434-1.654-8.296-4.182-1.86 2.526-4.514 4.18-8.295 4.18-7.094 0-12.654-7.52-12.654-17.124 0-2.406 1.955-4.36 4.365-4.36 2.408 0 4.363 1.954 4.363 4.36 0 5.212 2.55 8.397 3.93 8.397 1.47 0 3.94-2.29 3.94-17.66h8.73c0 15.37 2.47 17.66 3.93 17.66 1.39 0 3.94-3.18 3.94-8.39 0-2.4 1.96-4.36 4.37-4.36s4.36 1.96 4.36 4.36c0 9.61-5.56 17.13-12.66 17.13z"/><path fill="#2974A7" d="M139.245 155.227c0 3.863-5.158 6.993-11.52 6.993-6.357 0-11.52-3.13-11.52-6.993 0-3.86 5.163-6.994 11.52-6.994 6.362 0 11.52 3.13 11.52 6.994z"/><path fill="#999898" d="M127.124 209.65c-43.31 0-78.55-29.157-78.55-64.984 0-35.84 35.24-64.994 78.55-64.994 43.313 0 78.556 29.155 78.556 64.994 0 35.827-35.242 64.984-78.556 64.984zm0-124.162c-40.105 0-72.732 26.546-72.732 59.178 0 32.626 32.627 59.165 72.732 59.165 40.106 0 72.735-26.53 72.735-59.16 0-32.63-32.63-59.18-72.74-59.18z"/></svg>