<svg xmlns="http://www.w3.org/2000/svg" width="256" height="256" viewBox="0 0 256 256"><path fill="#fff" d="M128.195 208.083c-53.67 0-97.336-35.926-97.336-80.085 0-1.042.02-2.112.08-3.2-2.67-2.296-5.1-4.91-7.52-8.094-2.62-3.472-4.76-6.983-6.54-10.75-2.14-4.597-3.41-8.705-4.01-12.95-.39-2.993-.38-5.68.03-8.26.23-1.304.57-2.938 1.28-4.68.38-1.04.96-2.115 1.28-2.673.35-.63.52-.87.77-1.21.07-.09.15-.21.36-.53l.08-.13.09-.12c2.51-3.33 5.62-5.21 7.79-6.21 2.32-1.06 4.83-1.76 7.68-2.13 1.45-.17 2.91-.26 4.36-.26 2.7 0 5.44.29 8.62.89 4.76 1 9.19 2.48 13.24 4.41 18.26-15.39 43.49-24.16 69.71-24.16 26.81 0 52.44 9.12 70.79 25.11 3.44-1.58 7.16-2.85 11.1-3.8 3.6-.8 6.66-1.16 9.7-1.16 1.09 0 2.2.05 3.28.15 2.9.29 5.44.92 7.79 1.92 2.2.95 5.36 2.75 7.96 5.99l.08.11.07.12c.22.32.32.45.39.54.27.34.43.57.82 1.21.55.91 1.04 1.84 1.35 2.63.59 1.35 1.03 2.8 1.39 4.56.49 2.61.59 5.31.28 8.29-.47 4.28-1.62 8.42-3.63 13.08-1.65 3.79-3.68 7.36-6.21 10.93-2.55 3.54-5.08 6.38-7.89 8.86.01.54.02 1.06.02 1.58 0 44.16-43.66 80.09-97.32 80.09zm83.78-120.88c2.246 3.12 4.23 6.358 5.937 9.694.23-.344.452-.69.667-1.036 1.29-2.09 2.25-4.2 2.71-5.93.23-.87.29-1.51.29-1.9-.31-.17-.81-.39-1.51-.55-1.3-.32-2.83-.48-4.51-.48-.83 0-1.69.04-2.58.11-.34.03-.68.07-1.02.11zm-177.627-.39c.012.39.09 1.022.344 1.862.516 1.744 1.54 3.83 2.893 5.9.376.57.777 1.14 1.2 1.702 1.88-3.59 4.083-7.063 6.592-10.395-.83-.104-1.663-.184-2.5-.238-.567-.033-1.163-.05-1.752-.05-1.993 0-3.792.207-5.204.6-.74.195-1.26.437-1.57.62z"/><path fill="#333" d="M128.195 51.918c27.95 0 53.024 10.02 70.127 25.89 3.98-2.1 8.25-3.634 12.693-4.7 2.79-.62 5.685-1.056 8.77-1.056.953 0 1.926.042 2.918.132 2.102.21 4.316.646 6.588 1.613 2.26.97 4.61 2.562 6.41 4.813.71 1.02.5.59 1.07 1.53.46.747.86 1.524 1.09 2.11.56 1.276.9 2.55 1.17 3.822.48 2.51.45 4.873.23 7.077-.48 4.4-1.75 8.26-3.32 11.89-1.58 3.62-3.53 6.98-5.8 10.2-2.31 3.21-4.91 6.26-8.35 9.09l-.27.22c-.02.02-.05.03-.07.05.06 1.12.1 2.24.1 3.38 0 42.02-41.78 76.08-93.32 76.08-51.54 0-93.33-34.07-93.33-76.09 0-1.68.08-3.34.21-4.99-3.44-2.7-6.1-5.63-8.46-8.73-2.37-3.15-4.4-6.46-6.1-10.04-1.67-3.59-3.04-7.41-3.66-11.8-.28-2.2-.37-4.55.03-7.08.23-1.28.53-2.57 1.06-3.86.21-.59.6-1.38 1.03-2.14.53-.95.35-.51 1.02-1.57 1.74-2.3 4.03-3.96 6.27-4.99 2.24-1.03 4.44-1.53 6.53-1.8 1.31-.16 2.59-.23 3.84-.23 2.74 0 5.35.33 7.87.82 5.14 1.07 10.05 2.78 14.59 5.26 17.04-15.28 41.68-24.91 69.08-24.91m-88.39 51.57c3.04-7.29 7.41-14.08 12.85-20.18-3.12-.9-6.36-1.45-9.52-1.65-.67-.04-1.34-.06-2.01-.06-2.24 0-4.42.23-6.27.75-2.48.64-4 1.91-4.26 2.78-.32.83-.41 2.46.27 4.72.65 2.21 1.87 4.64 3.37 6.94 1.57 2.38 3.5 4.71 5.57 6.72m177.15.99c1.87-1.98 3.61-4.23 5.02-6.5 1.44-2.33 2.6-4.81 3.18-7.02.61-2.27.48-3.91.14-4.71-.29-.86-1.85-2.09-4.33-2.66-1.63-.4-3.48-.58-5.4-.58-.96 0-1.94.04-2.92.13-2.61.25-5.26.73-7.84 1.45 5.17 6.05 9.29 12.75 12.15 19.91M128.2 43.96c-26.23 0-51.54 8.51-70.33 23.5-3.68-1.56-7.61-2.78-11.74-3.64l-.07-.02-.07-.02c-3.44-.65-6.42-.96-9.38-.96-1.61 0-3.23.1-4.8.29h-.04l-.04.006c-3.26.43-6.15 1.23-8.83 2.46-3.72 1.71-6.94 4.28-9.33 7.44l-.186.243-.17.26c-.08.13-.14.21-.18.26-.4.54-.66.95-1.08 1.69-.432.76-1.06 1.95-1.51 3.17-.85 2.09-1.25 4.05-1.48 5.36l-.016.07-.01.07c-.47 2.96-.486 6.02-.056 9.35l.008.05v.04c.65 4.65 2.025 9.12 4.33 14.06l.01.02.01.02c1.9 4.02 4.17 7.75 6.943 11.43 2.18 2.85 4.347 5.27 6.667 7.43-.01.5-.02.99-.02 1.47 0 22.77 10.75 44.08 30.28 60 19.05 15.53 44.28 24.08 71.05 24.08 26.76 0 51.99-8.55 71.04-24.08 19.48-15.88 30.23-37.12 30.28-59.84 2.493-2.37 4.8-5.04 7.093-8.23l.02-.03.02-.03c2.69-3.8 4.855-7.6 6.61-11.63 2.19-5.07 3.433-9.58 3.94-14.22V94c.34-3.37.23-6.435-.327-9.38l-.01-.054-.02-.06c-.414-2.025-.934-3.72-1.63-5.32-.53-1.3-1.25-2.536-1.63-3.168-.432-.71-.69-1.09-1.09-1.592l-.24-.34-.154-.23-.178-.21c-3.11-3.88-6.88-6.03-9.49-7.15-2.75-1.17-5.67-1.896-8.95-2.22h-.06c-1.2-.11-2.426-.16-3.64-.16-3.34 0-6.68.39-10.51 1.243l-.068.01-.07.01c-3.31.79-6.482 1.81-9.48 3.03-18.9-15.6-44.62-24.45-71.46-24.45z"/><path fill="#676767" d="M62.52 83.466s-31.138-10.856-37.24-2c-6.09 8.855 7.296 30.08 17.735 37.272 0 0-6.1-22.847 19.506-35.272z"/><path fill="#B3B3B3" d="M60.492 86.538c-5.23-2.964-11.42-4.498-17.355-4.885-2.947-.17-5.88.018-8.29.688-2.476.65-3.997 1.91-4.26 2.78-.317.83-.405 2.46.276 4.72.652 2.21 1.873 4.64 3.373 6.93 3.004 4.56 7.346 8.96 11.404 11.21 4.465 2.48 6.068 8.11 3.584 12.57-2.48 4.46-8.105 6.07-12.56 3.59-.407-.22-.782-.47-1.136-.74l-.324-.25c-3.516-2.73-6.21-5.7-8.605-8.84-2.38-3.15-4.41-6.46-6.11-10.03-1.67-3.58-3.05-7.4-3.66-11.79-.29-2.19-.38-4.55.02-7.07.22-1.28.52-2.57 1.06-3.86.21-.58.59-1.38 1.02-2.14.53-.95.35-.51 1.02-1.56 1.74-2.3 4.03-3.96 6.27-4.99 2.24-1.02 4.44-1.52 6.53-1.8 4.19-.5 8.03-.11 11.71.6 7.27 1.52 14.13 4.29 20.06 8.77 1.62 1.24 1.95 3.56.71 5.18-1.13 1.5-3.18 1.89-4.77.98z"/><path fill="#676767" d="M193.332 85.472c-11.564-5.206 30.814-11.738 37.164-3.057 6.346 8.68-3.922 27.012-14.156 34.495 0 0 2.943-19.748-23.008-31.438z"/><path fill="#B3B3B3" d="M191.215 82.456c5.785-4.654 12.57-7.614 19.8-9.347 3.655-.82 7.48-1.31 11.69-.93 2.102.21 4.314.64 6.587 1.61 2.256.97 4.603 2.56 6.408 4.81.71 1.02.5.59 1.067 1.53.455.74.857 1.52 1.092 2.11.56 1.27.9 2.55 1.16 3.82.48 2.51.45 4.87.23 7.08-.48 4.4-1.76 8.26-3.32 11.89-1.58 3.62-3.53 6.98-5.81 10.2-2.32 3.21-4.92 6.26-8.36 9.09l-.28.22c-3.95 3.24-9.76 2.67-13.01-1.27-3.24-3.94-2.67-9.76 1.27-13 .35-.29.77-.58 1.14-.81 3.99-2.37 8.21-6.89 11.07-11.53 1.44-2.34 2.6-4.82 3.18-7.03.61-2.27.47-3.91.14-4.71-.29-.87-1.85-2.1-4.33-2.66-2.43-.61-5.37-.71-8.32-.46-5.92.56-12.06 2.27-17.21 5.38-1.75 1.06-4.02.5-5.08-1.24-.98-1.6-.59-3.66.84-4.8z"/><path fill="#fff" d="M221.518 127.998c0 42.02-41.78 76.085-93.322 76.085-51.547 0-93.336-34.063-93.336-76.085 0-42.017 41.79-76.08 93.336-76.08 51.54 0 93.322 34.063 93.322 76.08z"/><path fill="#B3B3B3" d="M201.508 125.84c0 34.277-33.87 62.075-75.647 62.075-41.77 0-75.63-27.798-75.63-62.076 0-34.29 33.87-62.09 75.64-62.09s75.65 27.79 75.65 62.08z"/><path fill="#999898" d="M125.86 190.823c-43.312 0-78.548-29.157-78.548-64.984 0-35.84 35.236-65 78.55-65 43.316 0 78.554 29.15 78.554 64.99 0 35.82-35.238 64.98-78.555 64.98zm0-124.162c-40.106 0-72.733 26.55-72.733 59.18 0 32.63 32.627 59.17 72.734 59.17 40.11 0 72.74-26.54 72.74-59.16 0-32.63-32.63-59.18-72.73-59.18z"/><path fill="#fff" d="M193.627 121.17c0 17.964-14.555 32.533-32.52 32.533-17.978 0-32.543-14.57-32.543-32.532 0-17.96 14.565-32.53 32.543-32.53 17.965 0 32.52 14.57 32.52 32.54z"/><path fill="#2974A7" d="M182.63 119.706c0 11.93-9.677 21.608-21.61 21.608-11.93 0-21.604-9.68-21.604-21.608 0-11.932 9.674-21.6 21.604-21.6 11.933 0 21.61 9.668 21.61 21.6z"/><path fill="#fff" d="M162.95 107.07c0 4.065-3.3 7.367-7.36 7.367-4.076 0-7.367-3.302-7.367-7.368 0-4.07 3.29-7.37 7.367-7.37 4.06 0 7.36 3.29 7.36 7.36zm2.886 7.953c0 1.907-1.557 3.453-3.465 3.453-1.91 0-3.45-1.546-3.45-3.453 0-1.916 1.55-3.465 3.46-3.465s3.47 1.55 3.47 3.465z"/><path fill="#B3B3B3" d="M194.75 120.875c0-1.913-.56-3.678-.875-5.5-19.817 2.83-53.942 11.51-64.75 18.75 4.82 11.934 18.58 21 32.25 21 17.965 0 33.375-16.287 33.375-34.25z"/><path fill="#FF7BAC" d="M163.206 146.146c7.536 10.89 8.044 23.592 1.133 28.373-6.92 4.78-18.62-.17-26.16-11.06s2.97-9.35 9.88-14.13c6.91-4.79 7.59-14.08 15.13-3.19z"/><path fill="#DD629A" d="M153.087 144.32c2.08-1.72 4.056-1.693 7.703 3.578 6.513 9.412 6.956 20.387.98 24.52-5.978 4.14-16.096-.143-22.607-9.553-5.935-8.575.586-8.84 6.313-11.94 1.487 1.685 12.977 14.812 12.237 17.22-.792 2.568-6.338 1.448-6.338 1.448 4.574 5.283 8.274.84 8.416-1.642.37-6.32-11.49-20-11.49-20l-.06.05c1.85-1.28 3.41-2.64 4.59-4.06-1.46 1.22-2.86 3.5-5.06 5.23-1.37.84-2.5 1.49-2.5 1.49s.09.11.12.15c-6.54 3.08-13.8 3.1-7.19 12.65 7.54 10.89 19.25 15.86 26.16 11.07s6.41-17.47-1.12-28.36c-5.2-7.51-7.13-5.41-10.11-1.82z"/><path fill="#B3B3B3" d="M133.62 154.38s18 9 18-18-18 18-18 18z"/><path fill="#333" d="M141 163.195c-7.307 0-11.78-3.05-14.53-7.498-2.75 4.447-7.237 7.498-14.544 7.498-10.594 0-18.896-11.738-18.896-26.723 0-2.408 1.955-4.363 4.365-4.363 2.408 0 4.36 1.95 4.36 4.36 0 10.6 5.36 17.99 10.17 17.99 8.66 0 10.18-7.7 10.18-23.89h8.728c0 16.18 1.522 23.88 10.168 23.88 4.82 0 10.19-7.39 10.19-18 0-2.41 1.96-4.37 4.36-4.37s4.36 1.95 4.36 4.36c0 14.98-8.3 26.72-18.9 26.72z"/><path fill="#2974A7" d="M137.984 130.583c0 3.86-5.158 6.992-11.52 6.992-6.358 0-11.522-3.132-11.522-6.992 0-3.862 5.164-6.994 11.52-6.994 6.364 0 11.522 3.13 11.522 6.99z"/><path fill="#333" d="M93.53 100.592c8.106 0 15.872 4.04 23.126 12.036 1.62 1.78 1.482 4.542-.3 6.163-1.788 1.62-4.548 1.49-6.167-.3-5.88-6.48-11.76-9.56-17.8-9.13-10.35.74-18.13 11.84-18.21 11.95-1.35 2-4.06 2.52-6.06 1.17s-2.53-4.06-1.17-6.06c.4-.6 10.11-14.71 24.81-15.76.58-.04 1.16-.06 1.75-.06z"/></svg>