<?xml version="1.0" encoding="utf-8"?>
<!-- Generator: Adobe Illustrator 16.0.0, SVG Export Plug-In . SVG Version: 6.00 Build 0)  -->
<!DOCTYPE svg PUBLIC "-//W3C//DTD SVG 1.1//EN" "http://www.w3.org/Graphics/SVG/1.1/DTD/svg11.dtd">
<svg version="1.1" id="Layer_1" xmlns="http://www.w3.org/2000/svg" xmlns:xlink="http://www.w3.org/1999/xlink" x="0px" y="0px"
	 width="256px" height="256px" viewBox="0 0 256 256" enable-background="new 0 0 256 256" xml:space="preserve">
<path fill="#FFFFFF" d="M128.195,208.083c-53.67,0-97.336-35.927-97.336-80.086c0-1.042,0.02-2.114,0.08-3.204
	c-2.67-2.29-5.09-4.9-7.52-8.086c-2.61-3.457-4.75-6.968-6.54-10.75c-2.15-4.6-3.41-8.71-4.01-12.957
	c-0.39-2.987-0.38-5.673,0.03-8.255c0.23-1.31,0.57-2.944,1.28-4.682c0.38-1.044,0.96-2.113,1.27-2.667
	c0.36-0.636,0.52-0.88,0.77-1.213c0.07-0.092,0.16-0.216,0.37-0.54l0.08-0.128l0.09-0.122c2.51-3.32,5.62-5.208,7.79-6.206
	c2.31-1.063,4.82-1.76,7.69-2.135c1.46-0.176,2.91-0.263,4.37-0.263c2.7,0,5.44,0.28,8.61,0.88c4.771,1,9.2,2.47,13.24,4.4
	c18.26-15.38,43.49-24.16,69.71-24.16c26.81,0,52.44,9.12,70.79,25.1c3.43-1.59,7.15-2.86,11.1-3.81c3.601-0.8,6.66-1.17,9.711-1.17
	c1.09,0,2.189,0.05,3.27,0.14c2.92,0.3,5.46,0.92,7.79,1.92c2.2,0.95,5.36,2.75,7.96,5.98l0.09,0.11l0.08,0.12
	c0.221,0.32,0.32,0.45,0.391,0.54c0.27,0.33,0.43,0.56,0.81,1.19c0.569,0.92,1.04,1.85,1.36,2.63c0.77,1.76,1.17,3.44,1.399,4.56
	c0.49,2.63,0.58,5.32,0.29,8.29c-0.47,4.27-1.62,8.42-3.63,13.08c-1.649,3.79-3.69,7.36-6.21,10.93c-2.551,3.53-5.08,6.37-7.9,8.85
	c0.01,0.54,0.021,1.06,0.021,1.58c0,44.16-43.66,80.09-97.33,80.09L128.195,208.083z M211.975,87.205
	c2.246,3.12,4.23,6.357,5.938,9.695c0.229-0.346,0.454-0.692,0.668-1.04c1.3-2.09,2.26-4.2,2.71-5.937
	c0.24-0.872,0.3-1.515,0.3-1.908c-0.31-0.17-0.81-0.393-1.51-0.552c-1.3-0.322-2.83-0.482-4.51-0.482c-0.82,0-1.69,0.04-2.56,0.12
	c-0.341,0.03-0.681,0.07-1.021,0.11L211.975,87.205z M34.35,86.815c0.012,0.387,0.09,1.02,0.346,1.863
	c0.515,1.748,1.538,3.834,2.89,5.905c0.375,0.568,0.775,1.136,1.197,1.697c1.882-3.59,4.085-7.064,6.594-10.396
	c-0.828-0.104-1.663-0.185-2.5-0.24c-0.553-0.03-1.144-0.048-1.73-0.048c-2.007,0-3.814,0.208-5.225,0.6
	C35.172,86.389,34.657,86.631,34.35,86.815L34.35,86.815z"/>
<path fill="#333333" d="M128.195,51.918c27.952,0,53.028,10.02,70.13,25.89c3.978-2.1,8.25-3.633,12.69-4.698
	c2.795-0.622,5.689-1.056,8.779-1.056c0.95,0,1.917,0.04,2.905,0.13c2.102,0.213,4.315,0.646,6.59,1.614
	c2.254,0.968,4.604,2.558,6.406,4.808c0.71,1.028,0.5,0.597,1.067,1.536c0.453,0.745,0.857,1.525,1.09,2.107
	c0.564,1.27,0.904,2.55,1.166,3.82c0.478,2.51,0.447,4.87,0.228,7.07c-0.479,4.4-1.754,8.26-3.32,11.89
	c-1.579,3.62-3.53,6.99-5.807,10.2c-2.313,3.21-4.914,6.26-8.354,9.08l-0.276,0.23c-0.03,0.02-0.06,0.03-0.08,0.05
	c0.06,1.12,0.1,2.24,0.1,3.38c0,42.021-41.78,76.08-93.33,76.08c-51.55,0-93.339-34.049-93.339-76.069c0-1.677,0.07-3.34,0.2-4.99
	c-3.445-2.7-6.1-5.63-8.463-8.727c-2.38-3.145-4.408-6.46-6.104-10.034c-1.67-3.59-3.044-7.4-3.657-11.79
	c-0.285-2.19-0.377-4.55,0.02-7.08c0.225-1.27,0.524-2.56,1.06-3.85c0.21-0.59,0.596-1.38,1.025-2.14c0.54-0.95,0.35-0.52,1.02-1.57
	c1.74-2.3,4.04-3.96,6.27-4.99c2.25-1.03,4.45-1.53,6.54-1.8c1.32-0.16,2.6-0.23,3.86-0.23c2.74,0,5.34,0.33,7.86,0.82
	c5.13,1.07,10.05,2.78,14.58,5.26c17.08-15.33,41.72-24.95,69.13-24.95 M39.8,103.48c3.04-7.285,7.402-14.07,12.847-20.175
	c-3.125-0.902-6.357-1.447-9.52-1.656c-0.67-0.04-1.335-0.06-1.994-0.06c-2.256,0-4.433,0.23-6.3,0.74
	c-2.474,0.64-3.994,1.91-4.256,2.78c-0.32,0.82-0.406,2.46,0.278,4.71c0.647,2.2,1.87,4.63,3.367,6.93
	c1.572,2.38,3.51,4.7,5.578,6.71 M216.95,104.449c1.875-1.98,3.612-4.23,5.02-6.51c1.442-2.34,2.597-4.81,3.181-7.03
	c0.615-2.27,0.474-3.91,0.14-4.72c-0.28-0.87-1.849-2.1-4.334-2.66c-1.62-0.41-3.476-0.58-5.399-0.58c-0.959,0-1.937,0.04-2.91,0.12
	c-2.606,0.25-5.256,0.73-7.846,1.45c5.17,6.05,9.301,12.75,12.15,19.91 M128.19,43.9c-26.23,0-51.54,8.51-70.32,23.5
	c-3.67-1.552-7.59-2.77-11.73-3.64l-0.07-0.014L46,63.73c-3.42-0.65-6.4-0.96-9.36-0.96c-1.61,0-3.23,0.1-4.81,0.29l-0.04,0.01
	l-0.04,0.01c-3.27,0.43-6.16,1.235-8.83,2.466c-3.71,1.71-6.92,4.28-9.31,7.43l-0.18,0.247l-0.16,0.253
	c-0.09,0.14-0.14,0.22-0.18,0.273c-0.405,0.55-0.66,0.95-1.08,1.69c-0.35,0.61-1.023,1.87-1.51,3.15
	c-0.844,2.09-1.25,4.05-1.48,5.35L9,84.029l-0.01,0.08c-0.467,2.96-0.485,6.02-0.056,9.35l0.005,0.04v0.04
	c0.65,4.65,2.02,9.12,4.33,14.06l0.01,0.02l0.01,0.02c1.91,4.03,4.18,7.77,6.95,11.43c2.17,2.85,4.34,5.27,6.66,7.42
	c-0.01,0.49-0.02,0.979-0.02,1.47c0,22.77,10.75,44.08,30.28,60c19.05,15.53,44.28,24.08,71.05,24.08c26.77,0,52-8.55,71.04-24.08
	c19.479-15.88,30.22-37.13,30.271-59.84c2.5-2.37,4.799-5.05,7.1-8.23l0.02-0.02l0.021-0.03c2.69-3.8,4.85-7.6,6.61-11.63
	c2.18-5.07,3.43-9.58,3.939-14.23v-0.06c0.33-3.36,0.23-6.42-0.33-9.37l-0.02-0.07l-0.021-0.07c-0.271-1.29-0.729-3.23-1.63-5.32
	c-0.529-1.29-1.24-2.52-1.63-3.15c-0.44-0.72-0.69-1.09-1.07-1.58c-0.05-0.06-0.11-0.14-0.25-0.35l-0.159-0.24l-0.181-0.22
	c-3.12-3.88-6.88-6.03-9.49-7.15c-2.739-1.17-5.649-1.89-8.939-2.22h-0.05l-0.051-0.01c-1.189-0.11-2.42-0.16-3.63-0.16
	c-3.35,0-6.69,0.39-10.521,1.24l-0.06,0.02l-0.06,0.01c-3.311,0.8-6.48,1.81-9.48,3.04c-18.91-15.59-44.63-24.44-71.479-24.44
	L128.19,43.9z"/>
<path fill="#676767" d="M62.52,83.466c0,0-31.135-10.858-37.24-1.998c-6.086,8.855,7.297,30.076,17.737,37.267
	C43.017,118.735,36.917,95.893,62.52,83.466L62.52,83.466z"/>
<path fill="#B3B3B3" d="M60.49,86.542c-5.23-2.967-11.417-4.5-17.352-4.89c-2.95-0.166-5.882,0.02-8.29,0.69
	c-2.477,0.638-3.997,1.907-4.26,2.78c-0.318,0.82-0.405,2.456,0.28,4.715c0.646,2.198,1.867,4.634,3.366,6.93
	c3.007,4.552,7.346,8.948,11.408,11.203c4.465,2.48,6.067,8.104,3.584,12.563c-2.48,4.46-8.106,6.065-12.56,3.584
	c-0.41-0.223-0.783-0.47-1.138-0.743l-0.322-0.253c-3.517-2.72-6.212-5.7-8.606-8.84c-2.377-3.14-4.406-6.46-6.102-10.03
	c-1.67-3.58-3.045-7.4-3.658-11.79c-0.283-2.19-0.375-4.55,0.023-7.08c0.227-1.27,0.526-2.56,1.06-3.85
	c0.212-0.58,0.598-1.38,1.027-2.14c0.536-0.95,0.35-0.52,1.022-1.56c1.738-2.29,4.035-3.95,6.272-4.98
	c2.244-1.03,4.444-1.52,6.534-1.8c4.192-0.5,8.034-0.11,11.714,0.59c7.278,1.53,14.132,4.3,20.06,8.78
	c1.624,1.24,1.947,3.56,0.71,5.18c-1.13,1.5-3.178,1.89-4.77,0.98L60.49,86.542z"/>
<path fill="#676767" d="M193.332,85.475c-11.564-5.204,30.814-11.742,37.166-3.06c6.344,8.68-3.926,27.013-14.158,34.497
	C216.34,116.912,219.283,97.165,193.332,85.475z"/>
<path fill="#B3B3B3" d="M191.215,82.456c5.79-4.65,12.572-7.613,19.801-9.346c3.654-0.813,7.484-1.306,11.689-0.926
	c2.1,0.213,4.316,0.646,6.59,1.614c2.253,0.968,4.602,2.558,6.405,4.808c0.71,1.028,0.5,0.597,1.069,1.536
	c0.453,0.745,0.855,1.525,1.09,2.107c0.563,1.27,0.904,2.55,1.166,3.82c0.476,2.51,0.447,4.87,0.226,7.07
	c-0.47,4.4-1.75,8.26-3.319,11.89c-1.58,3.62-3.531,6.99-5.801,10.2c-2.311,3.21-4.91,6.26-8.35,9.08l-0.271,0.23
	c-3.94,3.23-9.76,2.67-13-1.27c-3.229-3.94-2.67-9.76,1.271-13c0.359-0.3,0.779-0.58,1.15-0.82c4-2.37,8.219-6.89,11.079-11.52
	c1.44-2.34,2.601-4.81,3.181-7.03c0.619-2.28,0.479-3.91,0.14-4.72c-0.28-0.87-1.84-2.09-4.33-2.66c-2.42-0.6-5.37-0.71-8.31-0.46
	c-5.92,0.56-12.061,2.27-17.2,5.39c-1.74,1.06-4.021,0.5-5.08-1.25c-0.97-1.6-0.58-3.65,0.85-4.8L191.215,82.456z"/>
<path fill="#FFFFFF" d="M221.516,127.997c0,42.021-41.774,76.086-93.319,76.086c-51.547,0-93.336-34.063-93.336-76.086
	c0-42.017,41.79-76.08,93.336-76.08C179.738,51.917,221.516,85.98,221.516,127.997z"/>
<path fill="#B3B3B3" d="M201.508,125.838c0,34.28-33.869,62.074-75.646,62.074c-41.77,0-75.64-27.794-75.64-62.074
	c0-34.288,33.868-62.085,75.64-62.085C167.639,63.753,201.508,91.55,201.508,125.838z"/>
<path fill="#999898" d="M125.862,190.823c-43.31,0-78.55-29.156-78.55-64.985c0-35.835,35.24-64.992,78.55-64.992
	c43.316,0,78.552,29.157,78.552,64.992C204.414,161.668,169.178,190.823,125.862,190.823z M125.862,66.663
	c-40.106,0-72.73,26.546-72.73,59.175c0,32.627,32.624,59.17,72.73,59.17c40.107,0,72.738-26.543,72.738-59.17
	C198.6,93.208,165.97,66.663,125.862,66.663z"/>
<path fill="#FFFFFF" d="M123.664,116.536c0,17.965-14.567,32.532-32.537,32.532c-17.973,0-32.526-14.567-32.526-32.532
	c0-17.963,14.56-32.534,32.53-32.534c17.97,0,32.54,14.57,32.54,32.534H123.664z"/>
<path fill="#2974A7" d="M112.647,115.073c0,11.93-9.662,21.604-21.6,21.604c-11.935,0-21.602-9.675-21.602-21.604
	c0-11.938,9.667-21.604,21.603-21.604c11.937,0,21.6,9.66,21.6,21.6L112.647,115.073z"/>
<path fill="#FFFFFF" d="M92.98,102.436c0,4.067-3.297,7.37-7.368,7.37c-4.067,0-7.374-3.303-7.374-7.37
	c0-4.065,3.307-7.363,7.374-7.363c4.072,0,7.37,3.297,7.37,7.363H92.98z M95.867,110.388c0,1.906-1.568,3.455-3.472,3.455
	c-1.902,0-3.468-1.55-3.468-3.455c0-1.915,1.565-3.462,3.468-3.462C94.299,106.926,95.867,108.473,95.867,110.388z"/>
<path fill="#B3B3B3" d="M57.375,112.375c-0.174,1.36-1,2.969-1,4.375C56.375,134.716,73.03,151,91,151
	c13.92,0,29.85-9.091,34.5-21.375c-12.15-7.046-49.55-15.453-68.25-17.5L57.375,112.375z"/>
<path fill="#333333" d="M141,163.198c-7.305,0-11.78-3.056-14.532-7.5c-2.75,4.444-7.236,7.5-14.544,7.5
	c-10.595,0-18.892-11.737-18.892-26.726c0-2.408,1.953-4.363,4.36-4.363c2.41,0,4.366,1.949,4.366,4.359
	c0,10.6,5.354,17.99,10.165,17.99c8.66,0,10.183-7.71,10.183-23.891h8.727c0,16.181,1.521,23.891,10.166,23.891
	c4.81,0,10.181-7.4,10.181-18c0-2.41,1.949-4.37,4.359-4.37s4.359,1.95,4.359,4.36c0,14.99-8.31,26.72-18.909,26.72L141,163.198z"/>
<path fill="#2974A7" d="M137.984,130.582c0,3.859-5.156,6.993-11.521,6.993c-6.358,0-11.52-3.132-11.52-6.993
	c0-3.862,5.16-6.993,11.52-6.993c6.364,0,11.521,3.13,11.521,6.99V130.582z"/>
<path fill="#333333" d="M170.58,123.38h-27.997l5.563-8.443c7.129-11.393,12.43-20.38,12.479-20.473
	c1.599-2.787,5.147-3.638,7.94-2.034c2.787,1.6,3.75,5.07,2.147,7.855c-0.04,0.07-2.89,5.096-7.228,12.096h7.087
	c3.215,0,5.813,2.29,5.813,5.5C176.396,121.101,173.794,123.381,170.58,123.38L170.58,123.38z"/>
</svg>
