<svg xmlns="http://www.w3.org/2000/svg" width="256" height="256" viewBox="0 0 256 256"><path fill="#fff" d="M128.195 208.083c-53.672 0-97.338-35.926-97.338-80.085 0-1.042.027-2.113.082-3.203-2.67-2.296-5.1-4.91-7.52-8.093-2.62-3.47-4.76-6.98-6.54-10.75-2.14-4.593-3.41-8.702-4.01-12.95-.39-2.99-.38-5.675.03-8.255.33-1.89.72-3.316 1.28-4.68.38-1.033.96-2.11 1.27-2.67.36-.64.53-.897.78-1.227.07-.09.15-.208.36-.526l.08-.126.09-.12c2.51-3.33 5.62-5.217 7.79-6.213 2.32-1.062 4.83-1.76 7.68-2.132 1.46-.175 2.91-.262 4.36-.262 2.7 0 5.44.29 8.62.89 4.77 1 9.2 2.48 13.24 4.41 18.25-15.38 43.49-24.16 69.71-24.16 26.81 0 52.43 9.12 70.78 25.11 3.43-1.58 7.16-2.86 11.1-3.8 3.6-.8 6.66-1.16 9.7-1.16 1.09 0 2.19.05 3.27.15 2.9.29 5.44.91 7.79 1.92 2.2.95 5.36 2.75 7.96 5.99l.08.11.08.12c.22.32.32.44.39.54.27.33.43.57.81 1.2.33.55.94 1.61 1.35 2.63.59 1.35 1.03 2.81 1.39 4.58.5 2.61.59 5.3.29 8.28-.47 4.28-1.62 8.43-3.63 13.08-1.65 3.78-3.68 7.35-6.21 10.93-2.55 3.54-5.08 6.38-7.9 8.86.01.54.02 1.06.02 1.58 0 44.16-43.66 80.09-97.32 80.09zM211.97 87.205c2.248 3.12 4.23 6.36 5.94 9.697.23-.346.454-.694.67-1.042 1.29-2.092 2.252-4.202 2.707-5.937.236-.87.297-1.514.298-1.906-.308-.173-.812-.395-1.512-.555-1.295-.32-2.83-.48-4.508-.48-.826 0-1.69.037-2.57.112-.34.032-.682.07-1.024.11zm-177.622-.39c.012.388.09 1.018.345 1.856.514 1.75 1.537 3.84 2.89 5.91.377.57.778 1.14 1.2 1.7 1.882-3.59 4.084-7.06 6.593-10.39-.828-.1-1.662-.18-2.5-.24-.566-.03-1.162-.05-1.75-.05-1.994 0-3.793.21-5.205.6-.74.2-1.26.44-1.57.62z"/><path fill="#333" d="M128.195 51.918c27.95 0 53.024 10.02 70.126 25.89 3.98-2.1 8.26-3.634 12.7-4.7 2.79-.62 5.69-1.056 8.77-1.056.96 0 1.93.042 2.92.132 2.11.21 4.32.646 6.59 1.613 2.26.97 4.61 2.562 6.41 4.813.71 1.02.5.59 1.07 1.53.45.747.86 1.524 1.09 2.11.57 1.276.91 2.55 1.17 3.822.48 2.51.45 4.873.23 7.077-.48 4.4-1.75 8.26-3.32 11.89-1.58 3.62-3.53 6.98-5.8 10.2-2.31 3.21-4.91 6.26-8.35 9.09l-.27.22c-.02.02-.05.03-.07.05.06 1.12.1 2.24.1 3.37 0 42.02-41.77 76.08-93.32 76.08-51.55 0-93.34-34.06-93.34-76.08 0-1.68.08-3.34.21-4.99-3.44-2.7-6.1-5.63-8.46-8.73-2.38-3.15-4.41-6.46-6.1-10.04-1.67-3.59-3.04-7.41-3.66-11.8-.28-2.2-.37-4.55.03-7.08.23-1.28.53-2.57 1.06-3.86.21-.58.6-1.38 1.03-2.14.54-.95.35-.51 1.03-1.56 1.74-2.3 4.03-3.96 6.27-4.99 2.25-1.03 4.45-1.53 6.54-1.8 1.31-.16 2.59-.23 3.84-.23 2.74 0 5.34.33 7.87.82 5.13 1.07 10.05 2.78 14.58 5.26 17.07-15.33 41.71-24.95 69.11-24.95m-88.39 51.57c3.05-7.29 7.41-14.08 12.85-20.18-3.12-.9-6.35-1.45-9.52-1.65-.67-.04-1.34-.06-2.01-.06-2.25 0-4.42.23-6.28.75-2.48.64-4 1.91-4.26 2.78-.32.82-.41 2.46.27 4.71.65 2.21 1.87 4.64 3.37 6.93 1.57 2.38 3.51 4.71 5.58 6.72m177.15.99c1.88-1.98 3.62-4.23 5.03-6.51 1.44-2.34 2.6-4.82 3.18-7.03.62-2.28.48-3.91.14-4.72-.28-.87-1.85-2.1-4.33-2.66-1.62-.41-3.47-.59-5.4-.59-.96 0-1.93.05-2.91.13-2.61.25-5.26.73-7.85 1.45 5.17 6.05 9.29 12.75 12.15 19.91m-88.78-60.53c-26.23 0-51.53 8.51-70.32 23.5-3.67-1.56-7.6-2.78-11.73-3.64l-.06-.02-.07-.01c-3.43-.65-6.41-.96-9.37-.96-1.61 0-3.22.1-4.8.29l-.04.01h-.04c-3.25.42-6.14 1.23-8.83 2.46-3.71 1.71-6.93 4.28-9.32 7.45l-.18.24-.16.25c-.08.13-.13.21-.17.26-.41.55-.67.96-1.1 1.71-.44.78-1.06 1.96-1.51 3.17-.84 2.1-1.24 4.06-1.48 5.36l-.01.07-.01.07c-.47 2.96-.48 6.02-.05 9.35v.08c.65 4.65 2.02 9.12 4.33 14.07 1.91 4.06 4.19 7.8 6.96 11.47 2.17 2.85 4.33 5.27 6.65 7.43-.01.49-.01.98-.01 1.47 0 22.77 10.76 44.08 30.29 60 19.05 15.53 44.29 24.08 71.06 24.08 26.76 0 51.99-8.56 71.04-24.09 19.48-15.88 30.22-37.12 30.27-59.83 2.51-2.38 4.81-5.06 7.1-8.24l.02-.03.02-.03c2.7-3.81 4.86-7.61 6.61-11.63 2.18-5.06 3.43-9.57 3.94-14.22l.01-.04c.34-3.37.23-6.43-.32-9.37l-.01-.06-.01-.06c-.41-2.03-.93-3.73-1.63-5.33-.49-1.19-1.14-2.36-1.61-3.14-.45-.74-.71-1.12-1.1-1.61-.05-.06-.1-.14-.24-.34l-.16-.23-.17-.22c-3.11-3.88-6.88-6.03-9.49-7.15-2.75-1.17-5.67-1.9-8.96-2.22h-.03l-.03-.01c-1.2-.11-2.42-.17-3.64-.17-3.34 0-6.68.39-10.51 1.25l-.06.01-.06.01c-3.31.79-6.48 1.81-9.48 3.03-18.91-15.59-44.63-24.45-71.47-24.45z"/><path fill="#676767" d="M62.52 83.466s-31.137-10.856-37.236-2c-6.09 8.855 7.29 30.08 17.732 37.272 0 0-6.1-22.847 19.504-35.272z"/><path fill="#B3B3B3" d="M60.492 86.538c-5.232-2.964-11.42-4.498-17.355-4.885-2.947-.17-5.88.018-8.29.688-2.476.65-3.997 1.91-4.26 2.78-.317.83-.405 2.46.278 4.72.648 2.21 1.87 4.64 3.37 6.93 3.005 4.56 7.343 8.96 11.405 11.21 4.465 2.48 6.068 8.11 3.586 12.57-2.482 4.46-8.107 6.07-12.563 3.59-.408-.22-.78-.47-1.135-.74l-.324-.25c-3.516-2.73-6.21-5.7-8.604-8.84-2.377-3.15-4.41-6.46-6.102-10.03-1.672-3.58-3.047-7.4-3.66-11.79-.283-2.19-.375-4.55.023-7.07.23-1.28.53-2.57 1.07-3.86.21-.58.6-1.38 1.03-2.14.54-.95.35-.51 1.03-1.56 1.74-2.3 4.03-3.96 6.27-4.99 2.25-1.02 4.45-1.52 6.54-1.8 4.19-.5 8.03-.11 11.71.6 7.28 1.52 14.14 4.29 20.06 8.77 1.63 1.24 1.95 3.56.71 5.18-1.13 1.5-3.17 1.89-4.77.98z"/><path fill="#676767" d="M193.332 85.472c-11.564-5.206 30.813-11.738 37.164-3.057 6.344 8.68-3.924 27.012-14.154 34.495 0 0 2.94-19.748-23.01-31.438z"/><path fill="#B3B3B3" d="M191.215 82.456c5.787-4.654 12.57-7.614 19.8-9.347 3.655-.82 7.483-1.31 11.69-.93 2.103.21 4.317.64 6.587 1.61 2.254.97 4.604 2.56 6.41 4.81.707 1.02.498.59 1.068 1.53.45.74.857 1.52 1.09 2.11.564 1.27.904 2.55 1.164 3.82.477 2.51.447 4.87.227 7.08-.48 4.4-1.75 8.26-3.32 11.89-1.58 3.62-3.53 6.98-5.8 10.2-2.31 3.21-4.91 6.26-8.35 9.09l-.27.22c-3.94 3.24-9.76 2.67-13-1.27-3.23-3.94-2.67-9.76 1.27-13 .36-.29.78-.58 1.15-.81 4-2.37 8.22-6.89 11.08-11.53 1.44-2.34 2.6-4.82 3.18-7.03.62-2.27.48-3.91.14-4.71-.28-.87-1.85-2.1-4.33-2.66-2.43-.61-5.37-.71-8.31-.46-5.92.56-12.06 2.27-17.21 5.38-1.74 1.06-4.01.5-5.08-1.24-.97-1.6-.58-3.66.85-4.8z"/><path fill="#fff" d="M221.514 127.998c0 42.022-41.777 76.085-93.318 76.085-51.547 0-93.338-34.063-93.338-76.085 0-42.017 41.79-76.08 93.338-76.08 51.54 0 93.318 34.063 93.318 76.08z"/><path fill="#B3B3B3" d="M203.644 125.84c0 34.277-33.87 62.075-75.646 62.075-41.77 0-75.64-27.798-75.64-62.076 0-34.29 33.87-62.09 75.64-62.09 41.776 0 75.646 27.79 75.646 62.08z"/><path fill="#999898" d="M127.997 190.823c-43.31 0-78.55-29.157-78.55-64.984 0-35.84 35.24-65 78.55-65 43.316 0 78.555 29.15 78.555 64.99 0 35.82-35.24 64.98-78.555 64.98zm0-124.162c-40.107 0-72.732 26.55-72.732 59.18 0 32.63 32.625 59.17 72.732 59.17 40.105 0 72.736-26.54 72.736-59.16 0-32.63-32.63-59.18-72.736-59.18z"/><path fill="#F4F4F4" d="M136.667 89.61l-8.762.36.47 4.078 10.097-.043 10.855 37.992 56.848-6.534 4.392-48.406z"/><path fill="#333" d="M215.925 77.205c-.164-.05-16.678-4.914-40.813-2.147-12.49 1.437-27.568 4.952-34.006 9.22l.02.167-13.68 1.566 2.19 19.06c2.415-.44 5.144-.24 8.07 1.25 2.6 12.98 5.378 26.31 6.298 28.93 1.084 3.09 4.664 4.58 9.566 4.02.455-.05.72-.1.72-.1.108-.01 19.407-1.98 34.1-3.67 8.64-1 14.048-1.69 16.036-2.08 6.033-1.16 7.498-6.04 7.436-8.47l2.715-33.99c1.48.3 2.303.52 2.313.52.37.11.598.03.893-.22.297-.25.268-.62.223-1l-1.38-12c-.055-.49-.232-.9-.7-1.02zm-68.53 25.87c-.407-2.038-.815-4.1-1.224-6.163l13.93-4.656c1.58-.372 3.1-.705 4.57-1.006.13 1.617.35 3.685.75 5.997-.63.06-1.24.114-1.83.183-8.05.925-13.1 3.373-16.17 5.646zm19.583 24.565c.842-3.915 2.8-7.39 5.855-10.38 2.457 3.643 5.41 6.58 8.824 8.782-4.988.547-10.14 1.108-14.68 1.598zm36.527-25.445c-6.582-.063-19.287-1.688-20.354-13.293 2.49-.137 4.98-.203 7.44-.203l13.89 1.31-.96 12.18z"/><path fill="#F4F4F4" d="M119.333 89.61l8.758.36-.47 4.078-10.09-.043-10.85 37.992-56.84-6.534-4.39-48.406z"/><path fill="#333" d="M39.374 78.23l-1.38 12.003c-.046.38-.07.742.224 1 .295.25.52.326.89.22.01 0 .837-.215 2.314-.516l2.715 33.993c-.063 2.426 1.404 7.307 7.436 8.473 1.988.39 7.396 1.09 16.037 2.088 14.69 1.69 33.988 3.66 34.096 3.67 0 0 .268.05.723.1 4.9.57 8.48-.93 9.56-4.02.92-2.61 3.7-15.95 6.3-28.92 2.92-1.49 5.65-1.68 8.06-1.24l2.19-19.06-13.68-1.56.02-.16c-6.44-4.27-21.52-7.78-34.01-9.22-24.13-2.76-40.65 2.1-40.81 2.15-.47.12-.65.54-.7 1.02zm53.055 19.2c-.61-.068-1.21-.124-1.84-.183.4-2.313.62-4.38.75-5.997 1.46.3 2.97.634 4.56 1.006l13.92 4.656c-.41 2.063-.82 4.125-1.23 6.164-3.07-2.273-8.13-4.72-16.17-5.646zm-18.09 28.612c3.41-2.203 6.36-5.14 8.82-8.78 3.05 2.988 5.01 6.463 5.85 10.378-4.54-.49-9.69-1.05-14.68-1.598zM51.52 90.01l13.89-1.31c2.46 0 4.952.065 7.437.202-1.068 11.604-13.77 13.23-20.355 13.293l-.966-12.185zm64.084 19.628s13.18-7.184 24.905 0c11.72 7.18-7.18-21.996-7.18-21.996l-13.36.27-4.37 21.726zm12.01 55.082c-3.215 0-5-2.603-5-5.818v-29.087c0-3.214 1.785-5.816 5-5.816 3.217 0 5 2.6 5 5.81v29.09c0 3.21-1.783 5.81-5 5.81zm-18.037 5.04c-9.1 0-15.5-.633-16.23-.705-3.19-.33-5.517-3.19-5.187-6.383.324-3.196 3.232-5.465 6.373-5.193.472.04 47.41 4.62 68.544-11.89 2.537-1.98 6.19-1.54 8.166 1 1.975 2.53 1.525 6.19-1.008 8.16-16.276 12.71-43.343 15-60.66 15z"/><path fill="#2974A7" d="M139.52 130.583c0 3.86-5.157 6.992-11.522 6.992-6.354 0-11.516-3.13-11.516-6.992s5.162-6.994 11.516-6.994c6.364 0 11.52 3.13 11.52 6.99z"/></svg>