<svg xmlns="http://www.w3.org/2000/svg" width="256" height="256" viewBox="0 0 256 256"><path fill="#fff" d="M128.195 208.083c-53.67 0-97.336-35.926-97.336-80.085 0-1.042.02-2.113.08-3.202-2.67-2.295-5.1-4.908-7.52-8.092-2.63-3.482-4.76-6.994-6.54-10.754-2.14-4.585-3.41-8.695-4.01-12.95-.39-2.984-.38-5.672.03-8.256.21-1.196.55-2.898 1.28-4.677.38-1.033.96-2.11 1.27-2.67.36-.635.53-.888.77-1.212.06-.09.15-.21.36-.532l.08-.133.09-.126c2.52-3.327 5.62-5.213 7.79-6.21 2.32-1.062 4.83-1.758 7.69-2.13 1.45-.176 2.91-.263 4.36-.263 2.7 0 5.44.29 8.62.89 4.77 1 9.19 2.48 13.24 4.41 18.26-15.39 43.49-24.17 69.71-24.17 26.81 0 52.44 9.12 70.78 25.11 3.44-1.58 7.16-2.86 11.1-3.8 3.6-.8 6.66-1.16 9.7-1.16 1.1 0 2.2.05 3.28.15 2.9.29 5.44.92 7.79 1.92 2.2.95 5.36 2.75 7.96 5.99l.08.11.08.11c.22.32.32.45.39.54.27.34.43.58.82 1.23.55.9 1.03 1.83 1.35 2.62.77 1.77 1.16 3.46 1.39 4.57.5 2.62.59 5.31.29 8.28-.47 4.28-1.62 8.43-3.63 13.08-1.64 3.78-3.67 7.35-6.21 10.93-2.55 3.54-5.08 6.39-7.89 8.86.01.54.02 1.06.02 1.58 0 44.16-43.66 80.09-97.32 80.09zm83.778-120.878c2.246 3.12 4.23 6.357 5.937 9.694.23-.35.454-.7.668-1.04 1.29-2.09 2.254-4.2 2.713-5.94.24-.87.3-1.51.3-1.91-.31-.17-.81-.4-1.51-.56-1.29-.32-2.83-.48-4.51-.48-.82 0-1.69.03-2.57.11-.34.03-.68.06-1.02.11zm-177.624-.39c.01.39.09 1.022.34 1.863.51 1.74 1.53 3.827 2.89 5.898.37.57.78 1.14 1.2 1.702 1.88-3.59 4.08-7.063 6.59-10.395-.83-.104-1.67-.184-2.5-.238-.57-.033-1.17-.05-1.75-.05-1.99 0-3.79.207-5.21.6-.75.194-1.26.436-1.57.62z"/><path fill="#333" d="M128.195 51.918c27.95 0 53.025 10.02 70.128 25.89 3.98-2.1 8.25-3.634 12.694-4.7 2.79-.62 5.686-1.056 8.77-1.056.952 0 1.923.042 2.914.132 2.11.21 4.32.646 6.59 1.613 2.26.97 4.61 2.562 6.41 4.813.71 1.02.5.59 1.07 1.53.46.747.86 1.524 1.1 2.11.57 1.276.9 2.55 1.16 3.822.48 2.51.46 4.873.23 7.077-.48 4.4-1.75 8.26-3.32 11.89-1.58 3.62-3.53 6.98-5.81 10.2-2.31 3.21-4.91 6.26-8.35 9.09l-.27.22c-.02.02-.05.03-.07.05.06 1.12.1 2.24.1 3.37 0 42.02-41.77 76.08-93.32 76.08-51.54 0-93.33-34.07-93.33-76.09 0-1.68.07-3.34.21-4.99-3.44-2.7-6.1-5.63-8.46-8.73-2.37-3.15-4.41-6.46-6.1-10.04-1.67-3.59-3.05-7.41-3.66-11.8-.28-2.19-.37-4.55.03-7.08.23-1.28.53-2.57 1.06-3.86.21-.59.6-1.38 1.03-2.14.54-.95.35-.52 1.02-1.57 1.74-2.3 4.04-3.96 6.27-4.99 2.25-1.03 4.45-1.53 6.54-1.8 1.32-.16 2.6-.23 3.85-.23 2.74 0 5.34.33 7.87.82 5.13 1.07 10.05 2.79 14.58 5.26 17.08-15.33 41.72-24.95 69.12-24.95m-88.39 51.56c3.04-7.29 7.41-14.08 12.85-20.18-3.12-.91-6.36-1.45-9.52-1.66-.67-.04-1.34-.06-2.01-.06-2.25 0-4.41.23-6.27.75-2.47.64-4 1.91-4.26 2.78-.32.82-.4 2.46.28 4.71.65 2.21 1.87 4.64 3.37 6.93 1.58 2.38 3.51 4.7 5.58 6.71m177.15.99c1.88-1.98 3.62-4.23 5.02-6.51 1.45-2.34 2.6-4.82 3.18-7.03.62-2.27.48-3.91.14-4.71-.28-.87-1.84-2.09-4.33-2.66-1.62-.4-3.47-.58-5.4-.58-.96 0-1.93.04-2.91.13-2.61.24-5.25.73-7.84 1.44 5.18 6.06 9.3 12.75 12.15 19.92m-88.8-60.51c-26.23 0-51.54 8.51-70.33 23.5-3.68-1.56-7.6-2.78-11.74-3.64l-.07-.02-.06-.01c-3.44-.66-6.41-.96-9.37-.96-1.61 0-3.22.09-4.8.28l-.04.01-.04.01c-3.25.43-6.14 1.23-8.83 2.46-3.71 1.71-6.93 4.28-9.32 7.44l-.19.25-.17.27c-.08.13-.13.21-.17.27-.4.54-.66.94-1.07 1.68-.44.79-1.06 1.98-1.52 3.19-.86 2.08-1.26 4.04-1.49 5.34l-.03.08-.01.06c-.47 2.96-.48 6.03-.05 9.36v.03l.01.04c.65 4.66 2.03 9.13 4.33 14.07 1.91 4.04 4.18 7.78 6.96 11.47 2.18 2.85 4.35 5.27 6.66 7.43-.01.49-.02.98-.02 1.47 0 22.77 10.75 44.08 30.28 60 19.05 15.53 44.28 24.08 71.05 24.08 26.76 0 51.99-8.56 71.04-24.09 19.47-15.88 30.22-37.13 30.27-59.84 2.49-2.37 4.8-5.05 7.09-8.24l.02-.03.02-.03c2.69-3.82 4.86-7.62 6.61-11.63 2.18-5.06 3.43-9.57 3.94-14.22v-.07c.34-3.37.23-6.43-.33-9.38l-.01-.05-.01-.05c-.27-1.29-.72-3.23-1.63-5.33-.53-1.28-1.23-2.5-1.63-3.15-.44-.74-.7-1.12-1.1-1.62-.04-.06-.1-.14-.24-.34l-.16-.22-.17-.21c-3.11-3.89-6.88-6.04-9.49-7.16-2.75-1.18-5.68-1.9-8.95-2.23h-.06c-1.2-.11-2.43-.16-3.65-.16-3.34 0-6.68.4-10.5 1.25l-.06.01-.06.02c-3.31.8-6.49 1.81-9.48 3.04-18.92-15.59-44.65-24.44-71.49-24.44z"/><path fill="#676767" d="M62.52 83.466s-31.137-10.856-37.24-2c-6.088 8.855 7.297 30.08 17.738 37.272 0 0-6.102-22.847 19.502-35.272z"/><path fill="#B3B3B3" d="M60.492 86.538c-5.232-2.964-11.418-4.498-17.357-4.885-2.947-.17-5.877.018-8.29.688-2.472.65-3.995 1.91-4.26 2.78-.315.83-.4 2.46.278 4.72.65 2.21 1.87 4.64 3.37 6.93 3.01 4.56 7.347 8.96 11.41 11.21 4.464 2.48 6.065 8.11 3.583 12.57-2.482 4.46-8.107 6.07-12.56 3.59-.41-.22-.786-.47-1.138-.74l-.322-.25c-3.518-2.73-6.21-5.7-8.607-8.84-2.38-3.15-4.41-6.46-6.1-10.03-1.68-3.58-3.05-7.4-3.66-11.79-.29-2.19-.38-4.55.02-7.07.22-1.28.52-2.57 1.06-3.86.21-.58.59-1.38 1.02-2.14.53-.95.35-.51 1.02-1.56 1.74-2.3 4.03-3.96 6.27-4.99 2.24-1.02 4.44-1.52 6.53-1.8 4.19-.5 8.03-.11 11.71.6 7.27 1.52 14.13 4.29 20.05 8.77 1.62 1.24 1.95 3.56.71 5.18-1.13 1.5-3.18 1.89-4.77.98z"/><path fill="#676767" d="M193.332 85.472c-11.566-5.206 30.813-11.738 37.166-3.057 6.342 8.68-3.926 27.012-14.158 34.495 0 0 2.943-19.748-23.008-31.438z"/><path fill="#B3B3B3" d="M191.215 82.456c5.79-4.654 12.572-7.614 19.803-9.347 3.652-.82 7.482-1.31 11.684-.93 2.102.21 4.316.64 6.59 1.61 2.256.97 4.602 2.56 6.408 4.81.71 1.02.502.59 1.066 1.53.457.74.86 1.52 1.094 2.11.564 1.27.902 2.55 1.162 3.82.48 2.51.45 4.87.23 7.08-.483 4.4-1.755 8.26-3.323 11.89-1.58 3.62-3.53 6.98-5.81 10.2-2.32 3.21-4.92 6.26-8.35 9.09l-.28.22c-3.94 3.24-9.76 2.67-13-1.27s-2.68-9.76 1.26-13c.36-.29.77-.58 1.15-.81 4-2.37 8.21-6.89 11.07-11.53 1.44-2.34 2.59-4.82 3.18-7.03.61-2.27.47-3.91.14-4.71-.29-.87-1.85-2.1-4.34-2.66-2.43-.61-5.37-.71-8.32-.46-5.92.56-12.07 2.27-17.21 5.38-1.74 1.06-4.02.5-5.08-1.24-.97-1.6-.58-3.66.85-4.8z"/><path fill="#fff" d="M221.516 127.998c0 42.022-41.777 76.085-93.32 76.085-51.547 0-93.336-34.063-93.336-76.085 0-42.017 41.79-76.08 93.336-76.08 51.542 0 93.32 34.063 93.32 76.08z"/><path fill="#B3B3B3" d="M201.508 125.84c0 34.277-33.87 62.075-75.648 62.075-41.77 0-75.64-27.798-75.64-62.076 0-34.29 33.87-62.09 75.64-62.09 41.777 0 75.648 27.79 75.648 62.08z"/><path fill="#999898" d="M125.86 190.823c-43.31 0-78.548-29.157-78.548-64.984 0-35.84 35.238-65 78.548-65 43.314 0 78.55 29.15 78.55 64.99 0 35.82-35.235 64.98-78.554 64.98zm0-124.162c-40.108 0-72.73 26.55-72.73 59.18 0 32.63 32.62 59.17 72.73 59.17 40.108 0 72.74-26.54 72.74-59.16 0-32.63-32.63-59.18-72.74-59.18z"/><path fill="#333" d="M167.395 110.38H139.4l5.567-7.912c7.13-11.393 12.428-20.116 12.48-20.208 1.597-2.788 5.142-3.5 7.942-1.9 2.78 1.602 3.75 5.604 2.14 8.396-.04.065-2.89 4.626-7.23 12.626h7.08c3.21 0 5.81 1.287 5.81 4.5 0 3.216-2.6 4.5-5.82 4.5zm-53.493 0h-27.95c-3.216 0-5.817-1.282-5.817-4.5 0-3.212 2.602-4.5 5.818-4.5h7.043c-4.326-8-7.174-12.447-7.213-12.514-1.596-2.79-.627-6.506 2.162-8.1 2.79-1.597 6.348-.705 7.938 2.083.053.09 5.33 8.27 12.455 19.66l5.564 7.87zm14.218 48.52c-3.216 0-5.5-2.6-5.5-5.816V118.18c0-3.212 2.284-5.816 5.5-5.816s5.5 2.604 5.5 5.817v34.91c0 3.22-2.284 5.82-5.5 5.82z"/><path fill="#2974A7" d="M137.982 118.947c0 3.865-5.158 6.993-11.52 6.993-6.357 0-11.52-3.128-11.52-6.993 0-3.863 5.163-6.993 11.52-6.993 6.362 0 11.52 3.13 11.52 6.993z"/><radialGradient id="a" cx="70.25" cy="127.059" r="30" gradientUnits="userSpaceOnUse"><stop offset="0" stop-color="#FF585D"/><stop offset="1" stop-color="#FF585D" stop-opacity="0"/></radialGradient><circle opacity=".4" fill="url(#a)" cx="70.25" cy="127.059" r="30"/><radialGradient id="b" cx="185.25" cy="127.059" r="30" gradientUnits="userSpaceOnUse"><stop offset="0" stop-color="#FF585D"/><stop offset="1" stop-color="#FF585D" stop-opacity="0"/></radialGradient><circle opacity=".4" fill="url(#b)" cx="185.25" cy="127.059" r="30"/><path fill="#333" d="M125.62 166.173c-41.02 0-66.5-20.728-66.5-54.098 0-3.217 2.603-5.816 5.817-5.816 3.217 0 5.82 2.6 5.82 5.81 0 38.33 38.365 42.46 54.863 42.46 16.5 0 54.86-4.14 54.86-42.47 0-3.22 2.603-5.82 5.817-5.82 3.22 0 5.816 2.6 5.816 5.81.002 33.37-25.476 54.1-66.492 54.1z"/></svg>