<svg xmlns="http://www.w3.org/2000/svg" width="256" height="256" viewBox="0 0 256 256"><path fill="#B3B3B3" d="M128.195 213.992c-53.67 0-97.336-35.926-97.336-80.085 0-1.042.02-2.112.08-3.2-2.67-2.3-5.1-4.913-7.52-8.092-2.63-3.476-4.76-6.99-6.54-10.758-2.15-4.598-3.41-8.707-4.01-12.95-.39-2.972-.38-5.658.03-8.25.33-1.888.72-3.313 1.28-4.678.37-1.03.96-2.11 1.28-2.68.36-.65.53-.9.78-1.23.06-.09.15-.21.36-.53l.07-.13.08-.12c2.51-3.34 5.62-5.22 7.79-6.22 2.32-1.07 4.83-1.77 7.69-2.14 1.45-.18 2.9-.26 4.35-.26 2.71 0 5.45.28 8.63.89 4.77.99 9.2 2.47 13.25 4.4 18.26-15.38 43.49-24.15 69.71-24.15 26.81 0 52.44 9.11 70.78 25.1 3.44-1.59 7.16-2.86 11.11-3.81 3.59-.8 6.65-1.17 9.7-1.17 1.09 0 2.19.05 3.27.15 2.91.29 5.44.91 7.79 1.91 2.22.95 5.37 2.76 7.97 5.99l.08.1.08.11c.22.31.32.44.39.53.27.34.44.58.83 1.23.54.9 1.03 1.83 1.35 2.62.59 1.36 1.03 2.81 1.39 4.58.49 2.6.58 5.29.29 8.27-.47 4.28-1.62 8.42-3.63 13.08-1.67 3.8-3.7 7.37-6.22 10.93-2.55 3.54-5.08 6.38-7.89 8.86.01.54.02 1.06.02 1.58 0 44.16-43.66 80.09-97.33 80.09zm83.778-120.88c2.246 3.12 4.23 6.36 5.938 9.697.24-.35.46-.7.67-1.04 1.3-2.1 2.26-4.2 2.71-5.94.24-.88.3-1.52.3-1.91-.31-.17-.81-.4-1.51-.56-1.29-.32-2.82-.48-4.5-.48-.82 0-1.69.03-2.58.11-.34.03-.68.07-1.02.11zm-177.622-.39c.02.39.09 1.02.35 1.863.51 1.742 1.54 3.827 2.89 5.902.38.57.78 1.14 1.2 1.7 1.88-3.59 4.09-7.062 6.6-10.395-.83-.104-1.66-.183-2.5-.237-.58-.035-1.17-.053-1.76-.053-1.97 0-3.77.208-5.2.602-.73.192-1.25.435-1.56.618z"/><path fill="#333" d="M128.195 57.83c27.95 0 53.025 10.02 70.127 25.887 3.98-2.1 8.25-3.634 12.695-4.698 2.794-.63 5.688-1.06 8.774-1.06.96 0 1.93.04 2.92.13 2.1.21 4.32.64 6.59 1.61 2.26.97 4.6 2.56 6.41 4.81.72 1.02.51.59 1.07 1.53.46.74.86 1.52 1.09 2.1.56 1.27.91 2.55 1.17 3.82.48 2.51.45 4.87.23 7.08-.48 4.4-1.75 8.26-3.32 11.89-1.58 3.61-3.53 6.98-5.81 10.2-2.31 3.21-4.91 6.26-8.35 9.09l-.28.23c-.02.02-.04.03-.07.05.06 1.12.1 2.24.1 3.37 0 42.02-41.77 76.08-93.32 76.08s-93.35-34.04-93.35-76.06c0-1.68.07-3.34.21-4.99-3.44-2.71-6.1-5.64-8.46-8.73-2.38-3.15-4.41-6.46-6.1-10.04-1.67-3.59-3.05-7.41-3.66-11.8-.29-2.19-.38-4.55.02-7.08.23-1.28.53-2.57 1.06-3.86.21-.59.6-1.38 1.03-2.14.54-.96.35-.52 1.03-1.57 1.74-2.31 4.03-3.97 6.27-4.99 2.24-1.03 4.44-1.53 6.54-1.81 1.32-.16 2.59-.23 3.84-.23 2.74 0 5.35.33 7.87.82 5.14 1.07 10.05 2.78 14.59 5.26 17.08-15.33 41.72-24.95 69.12-24.95m-88.39 51.58c3.04-7.29 7.41-14.08 12.85-20.18-3.12-.9-6.36-1.45-9.52-1.65-.68-.04-1.35-.06-2.02-.06-2.24 0-4.41.23-6.26.74-2.47.64-4 1.91-4.26 2.78-.32.82-.4 2.46.28 4.71.65 2.2 1.87 4.63 3.37 6.93 1.57 2.38 3.51 4.71 5.58 6.72m177.15.98c1.88-1.98 3.61-4.23 5.02-6.51 1.44-2.33 2.6-4.81 3.18-7.03.62-2.27.48-3.91.14-4.72-.28-.86-1.84-2.09-4.33-2.66-1.62-.4-3.46-.58-5.39-.58-.96 0-1.94.04-2.92.13-2.6.25-5.25.73-7.84 1.45 5.18 6.05 9.3 12.75 12.16 19.91m-88.83-60.5c-26.22 0-51.53 8.51-70.32 23.5-3.67-1.56-7.6-2.78-11.74-3.64l-.06-.02-.07-.01c-3.43-.65-6.41-.96-9.37-.96-1.61 0-3.23.09-4.8.28h-.09c-3.26.42-6.15 1.23-8.84 2.46-3.72 1.7-6.94 4.28-9.33 7.45l-.18.23-.16.24-.17.26c-.42.55-.68.96-1.11 1.71-.44.78-1.07 1.98-1.52 3.18-.84 2.1-1.24 4.05-1.47 5.35l-.01.08-.01.08c-.47 2.97-.49 6.03-.05 9.34v.07c.64 4.64 2.02 9.12 4.33 14.07 1.91 4.05 4.19 7.79 6.96 11.47 2.17 2.85 4.34 5.27 6.66 7.43-.01.49-.02.98-.02 1.47 0 22.77 10.75 44.08 30.28 60 19.05 15.53 44.29 24.08 71.05 24.08 26.77 0 52-8.56 71.05-24.09 19.47-15.88 30.22-37.13 30.27-59.84 2.5-2.38 4.8-5.06 7.1-8.24l.01-.02.02-.02c2.68-3.79 4.85-7.59 6.61-11.63 2.19-5.08 3.44-9.59 3.94-14.23v-.08c.34-3.37.23-6.44-.33-9.37l-.01-.05-.01-.05c-.41-2.03-.93-3.73-1.63-5.34-.53-1.29-1.23-2.51-1.62-3.15-.45-.74-.71-1.12-1.1-1.63-.04-.06-.1-.14-.24-.34l-.15-.22-.17-.21c-3.1-3.88-6.87-6.03-9.48-7.16-2.76-1.18-5.68-1.9-8.95-2.23l-.04-.01h-.04c-1.2-.11-2.42-.17-3.63-.17-3.35 0-6.69.39-10.51 1.25l-.06.01-.06.01c-3.31.79-6.49 1.81-9.49 3.04-18.9-15.6-44.63-24.45-71.47-24.45z"/><path fill="#fff" d="M221.516 133.907c0 42.02-41.775 76.085-93.32 76.085S34.86 175.928 34.86 133.907c0-42.017 41.79-76.076 93.336-76.076s93.32 34.06 93.32 76.08z"/><path fill="#B3B3B3" d="M203.643 143.382c0 34.28-33.87 62.076-75.645 62.076-41.773 0-75.645-27.797-75.645-62.076 0-34.29 33.87-62.087 75.645-62.087s75.645 27.797 75.645 62.087z"/><path fill="#999898" d="M127.998 208.365c-43.31 0-78.55-29.153-78.55-64.983 0-35.842 35.24-64.992 78.55-64.992 43.316 0 78.553 29.15 78.553 64.992 0 35.83-35.23 64.983-78.55 64.983zm0-124.16c-40.11 0-72.732 26.546-72.732 59.177 0 32.625 32.623 59.168 72.732 59.168 40.104 0 72.734-26.543 72.734-59.168 0-32.63-32.63-59.178-72.734-59.178z"/><path fill="#333" d="M142.53 186.56c-7.304 0-11.782-3.054-14.532-7.502-2.748 4.448-7.238 7.5-14.543 7.5-10.594 0-18.893-11.738-18.893-26.724 0-2.41 1.953-4.363 4.36-4.363s4.364 1.96 4.364 4.37c0 10.61 5.357 18 10.168 18 8.658 0 10.18-7.7 10.18-23.89h8.727c0 16.19 1.53 23.89 10.17 23.89 4.82 0 10.19-7.39 10.19-17.99 0-2.41 1.95-4.36 4.36-4.36s4.37 1.96 4.37 4.37c0 14.99-8.3 26.73-18.91 26.73z"/><path fill="#2974A7" d="M139.52 153.94c0 3.866-5.155 6.993-11.52 6.993-6.355 0-11.52-3.127-11.52-6.992 0-3.86 5.164-6.99 11.52-6.99 6.364 0 11.52 3.13 11.52 6.99z"/><path fill="#333" d="M68.76 146.3c-.84 0-1.687-.24-2.438-.75-1.992-1.345-2.52-4.06-1.168-6.053.4-.604 10.11-14.72 24.81-15.772 8.782-.584 17.108 3.417 24.88 11.977 1.62 1.784 1.482 4.545-.3 6.166-1.78 1.613-4.542 1.48-6.165-.303-5.88-6.48-11.79-9.52-17.8-9.137-10.35.74-18.13 11.84-18.21 11.956-.84 1.248-2.22 1.917-3.62 1.917zm75.622 0c-.84 0-1.686-.24-2.436-.75-1.996-1.345-2.523-4.06-1.172-6.053.404-.604 10.113-14.72 24.814-15.772 8.773-.584 17.105 3.417 24.88 11.977 1.614 1.784 1.48 4.545-.304 6.166-1.775 1.613-4.533 1.48-6.164-.303-5.88-6.48-11.766-9.52-17.793-9.137-10.352.74-18.127 11.84-18.207 11.956-.84 1.248-2.214 1.917-3.618 1.917z"/><path fill="#676767" d="M62.52 89.374S31.383 78.52 25.284 87.376c-6.092 8.854 7.293 30.08 17.734 37.27 0 0-6.102-22.848 19.502-35.272z"/><path fill="#B3B3B3" d="M60.494 92.448c-5.234-2.965-11.422-4.5-17.355-4.885-2.96-.176-5.89.02-8.3.685-2.48.643-4 1.91-4.26 2.78-.32.825-.41 2.46.27 4.714.64 2.206 1.87 4.637 3.36 6.932 3 4.553 7.34 8.95 11.41 11.203 4.46 2.483 6.06 8.106 3.58 12.566-2.48 4.46-8.11 6.065-12.56 3.58-.41-.22-.78-.47-1.14-.74l-.33-.25c-3.52-2.735-6.21-5.704-8.61-8.845-2.38-3.148-4.41-6.46-6.1-10.04-1.67-3.583-3.05-7.405-3.66-11.794-.29-2.192-.38-4.548.02-7.077.22-1.28.53-2.566 1.06-3.857.21-.585.6-1.38 1.03-2.142.53-.95.34-.51 1.02-1.56 1.74-2.304 4.03-3.963 6.27-4.99 2.24-1.027 4.44-1.53 6.54-1.803 4.19-.504 8.03-.112 11.71.594 7.28 1.52 14.13 4.29 20.06 8.77 1.62 1.23 1.95 3.55.71 5.18-1.13 1.5-3.18 1.88-4.77.97z"/><path fill="#676767" d="M193.332 91.38c-11.564-5.202 30.814-11.736 37.164-3.057 6.346 8.68-3.926 27.012-14.156 34.494 0 0 2.943-19.747-23.008-31.437z"/><path fill="#B3B3B3" d="M191.215 88.362c5.79-4.65 12.572-7.61 19.803-9.343 3.654-.82 7.48-1.31 11.686-.93 2.102.21 4.318.64 6.59 1.61 2.256.97 4.602 2.56 6.406 4.81.713 1.02.504.59 1.07 1.53.455.74.857 1.52 1.092 2.1.56 1.27.902 2.55 1.162 3.82.48 2.51.45 4.87.23 7.08-.483 4.4-1.757 8.26-3.323 11.89-1.58 3.61-3.52 6.98-5.8 10.2-2.31 3.21-4.91 6.26-8.35 9.09l-.28.23c-3.94 3.24-9.76 2.67-13-1.27s-2.67-9.77 1.27-13.01c.36-.29.78-.58 1.15-.81 4-2.38 8.22-6.89 11.08-11.53 1.44-2.33 2.6-4.81 3.18-7.03.62-2.27.48-3.91.14-4.71-.28-.87-1.84-2.1-4.33-2.66-2.42-.61-5.37-.71-8.31-.46-5.92.56-12.06 2.27-17.21 5.38-1.74 1.06-4.02.51-5.08-1.24-.97-1.6-.58-3.66.85-4.81z"/><path fill="#F4FF00" d="M212.163 59.96l-.156.906c-.027.155-.057.32-.086.508-.05.22.02.217-.29 1.05-.47 1.306-1.22 2.892-2.32 4.427-3.35 4.14-7.3 6.35-12.1 8.62-4.78 2.18-10.32 3.95-16.68 5.64-6.34 1.68-13.49 3.14-21.29 4.18-7.79 1.11-16.26 1.82-25.2 1.92l-6.91.03-6.72-.21c-4.76-.22-9.65-.5-14.49-.93-9.74-1-19.81-2.27-30.07-4.93-5.13-1.26-10.33-2.85-15.7-5.09-1.33-.55-2.68-1.14-4.1-1.93l-2.08-1.11-2.22-1.49c-1.38-.84-3.15-2.51-4.64-4.18-.86-1.17-1.65-2.44-2.3-3.72-.64-1.65-1.02-3.65-1.12-5.45.38-3.62.13-1.06.22-1.9l.03-.11.06-.22.13-.46.29-1.02c.65-1.79 1.68-3.64 2.89-5.13 1.71-1.72 3.38-3.13 4.84-3.89l2.26-1.3 2.12-.93c1.44-.66 2.8-1.12 4.15-1.56 5.43-1.76 10.63-2.86 15.77-3.63 10.27-1.57 20.2-2.43 29.84-2.77 9.6-.51 18.93-.38 27.65-.23 8.79.23 17.16.51 24.85.92 7.71.5 14.82 1.23 21.19 2.17 6.38.97 11.98 2.2 16.79 3.98 4.79 1.76 9.01 3.91 12.17 7.45.82 1.06 1.48 2.07 2 2.96.52.87.82 2.19 1.03 3.01.4 1.79.44 2.7.44 2.7L212.2 60zm-17.267-1.796s-.1.3.035.9c.02.254.38.746.4.865.02.13.1.27.27.35.12-.07-1.6-1.72-4.97-3.26-3.3-1.6-8.06-3.19-13.67-4.72-5.61-1.53-12.19-2.92-19.48-3.9-7.31-1.06-15.26-1.75-23.73-1.83-8.55-.2-17.46.3-26.66 1.06-9.16.95-18.63 2.19-27.75 4.61-4.56 1.13-9.04 2.59-12.99 4.31-1.01.42-1.97.87-2.77 1.36l-1.27.69-.92.7c-.76.43-.83.9-.94.87.52-.45.86-1.25.81-1.99-.04.06-.09.55-.14.8l-.08.47-.04.23-.02.12c.07-.77-.2 1.87.17-1.68.19-.59.02-1.34-.26-1.79.04-.24-.05-.46-.22-.59.32.03.31.23 1.14.59l.96.52 1.31.51c.82.37 1.8.69 2.82.99 4.01 1.23 8.5 2.2 13.07 2.85 9.13 1.34 18.47 2.15 27.52 2.45 4.56.21 8.94.29 13.24.34l12.96-.15c8.32-.22 16.17-.47 23.38-.83 7.2-.44 13.73-1.1 19.38-1.89 5.63-.8 10.44-1.87 13.78-3.06 3.34-1.03 5.34-2.62 5.04-2.1-.44.56-.62 1.27-.6 1.83 0 .49.08.04.12-.1.05-.19.1-.35.14-.5l.24-.89-.18 1.8z"/></svg>