<svg xmlns="http://www.w3.org/2000/svg" width="256" height="256" viewBox="0 0 256 256"><path fill="#fff" d="M128.195 208.083c-53.67 0-97.336-35.927-97.336-80.086 0-1.042.02-2.114.08-3.204-2.67-2.29-5.09-4.9-7.52-8.086-2.61-3.457-4.75-6.968-6.54-10.75-2.15-4.6-3.41-8.71-4.01-12.957-.39-2.987-.38-5.673.03-8.255.23-1.31.57-2.944 1.28-4.682.38-1.044.96-2.113 1.27-2.667.36-.636.52-.88.77-1.213.07-.092.16-.216.37-.54l.08-.128.09-.122c2.51-3.32 5.62-5.208 7.79-6.206 2.31-1.063 4.82-1.76 7.69-2.135 1.46-.176 2.91-.263 4.37-.263 2.7 0 5.44.28 8.61.88 4.77 1 9.2 2.47 13.24 4.4 18.26-15.38 43.49-24.16 69.71-24.16 26.81 0 52.44 9.12 70.79 25.1 3.43-1.59 7.15-2.86 11.1-3.81 3.6-.8 6.66-1.17 9.71-1.17 1.09 0 2.19.05 3.27.14 2.92.3 5.46.92 7.79 1.92 2.2.95 5.36 2.75 7.96 5.98l.09.11.08.12c.22.32.32.45.39.54.27.33.43.56.81 1.19.57.92 1.04 1.85 1.36 2.63.77 1.76 1.17 3.44 1.4 4.56.49 2.63.58 5.32.29 8.29-.47 4.27-1.62 8.42-3.63 13.08-1.65 3.79-3.69 7.36-6.21 10.93-2.55 3.53-5.08 6.37-7.9 8.85.01.54.02 1.06.02 1.58 0 44.16-43.66 80.09-97.33 80.09zm83.78-120.878c2.246 3.12 4.23 6.357 5.938 9.695.23-.346.454-.692.668-1.04 1.3-2.09 2.26-4.2 2.71-5.937.24-.872.3-1.515.3-1.908-.31-.17-.81-.393-1.51-.552-1.3-.322-2.83-.482-4.51-.482-.82 0-1.69.04-2.56.12-.34.03-.68.07-1.02.11zm-177.625-.39c.012.387.09 1.02.346 1.863.515 1.748 1.538 3.834 2.89 5.905.375.568.775 1.136 1.197 1.697 1.882-3.59 4.085-7.064 6.594-10.396-.828-.104-1.663-.185-2.5-.24-.553-.03-1.144-.048-1.73-.048-2.007 0-3.814.208-5.225.6-.75.193-1.265.435-1.572.618z"/><path fill="#333" d="M128.195 51.918c27.952 0 53.028 10.02 70.13 25.89 3.978-2.1 8.25-3.633 12.69-4.698 2.795-.622 5.69-1.056 8.78-1.056.95 0 1.917.04 2.905.13 2.102.213 4.316.646 6.59 1.614 2.254.968 4.604 2.558 6.406 4.808.71 1.028.5.597 1.068 1.536.453.745.857 1.525 1.09 2.107.564 1.27.904 2.55 1.166 3.82.477 2.51.447 4.87.227 7.07-.48 4.4-1.754 8.26-3.32 11.89-1.58 3.62-3.53 6.99-5.807 10.2-2.313 3.21-4.914 6.26-8.354 9.08l-.277.23c-.03.02-.06.03-.08.05.06 1.12.1 2.24.1 3.38 0 42.02-41.78 76.08-93.33 76.08S34.84 170 34.84 127.98c0-1.677.07-3.34.2-4.99-3.445-2.7-6.1-5.63-8.463-8.727-2.38-3.145-4.408-6.46-6.104-10.034-1.67-3.59-3.044-7.4-3.657-11.79-.285-2.19-.377-4.55.02-7.08.225-1.27.524-2.56 1.06-3.85.21-.59.596-1.38 1.025-2.14.54-.95.35-.52 1.02-1.57 1.74-2.3 4.04-3.96 6.27-4.99 2.25-1.03 4.45-1.53 6.54-1.8 1.32-.16 2.6-.23 3.86-.23 2.74 0 5.34.33 7.86.82 5.13 1.07 10.05 2.78 14.58 5.26 17.08-15.33 41.72-24.95 69.13-24.95M39.8 103.48c3.04-7.285 7.402-14.07 12.847-20.175-3.125-.902-6.357-1.447-9.52-1.656-.67-.04-1.335-.06-1.994-.06-2.256 0-4.433.23-6.3.74-2.474.64-3.994 1.91-4.256 2.78-.32.82-.406 2.46.278 4.71.647 2.2 1.87 4.63 3.367 6.93 1.572 2.38 3.51 4.7 5.578 6.71m177.15.99c1.875-1.98 3.612-4.23 5.02-6.51 1.442-2.34 2.597-4.81 3.18-7.03.616-2.27.474-3.91.14-4.72-.28-.87-1.848-2.1-4.334-2.66-1.62-.41-3.475-.58-5.4-.58-.958 0-1.936.04-2.91.12-2.606.25-5.255.73-7.845 1.45 5.17 6.05 9.3 12.75 12.15 19.91M128.19 43.9c-26.23 0-51.54 8.51-70.32 23.5-3.67-1.552-7.59-2.77-11.73-3.64l-.07-.014-.07-.016c-3.42-.65-6.4-.96-9.36-.96-1.61 0-3.23.1-4.81.29l-.04.01-.04.01c-3.27.43-6.16 1.235-8.83 2.466-3.71 1.71-6.92 4.28-9.31 7.43l-.18.247-.16.253c-.09.14-.14.22-.18.273-.405.55-.66.95-1.08 1.69-.35.61-1.023 1.87-1.51 3.15-.844 2.09-1.25 4.05-1.48 5.35l-.02.09-.01.08c-.467 2.96-.485 6.02-.056 9.35l.005.04v.04c.65 4.65 2.02 9.12 4.33 14.06l.01.02.01.02c1.91 4.03 4.18 7.77 6.95 11.43 2.17 2.85 4.34 5.27 6.66 7.42-.01.49-.02.98-.02 1.47 0 22.77 10.75 44.08 30.28 60 19.05 15.53 44.28 24.08 71.05 24.08 26.77 0 52-8.55 71.04-24.08 19.48-15.88 30.22-37.13 30.27-59.84 2.5-2.37 4.8-5.05 7.1-8.23l.02-.02.02-.03c2.69-3.8 4.85-7.6 6.61-11.63 2.18-5.07 3.43-9.58 3.94-14.23v-.06c.33-3.36.23-6.42-.33-9.37l-.02-.07-.02-.07c-.27-1.29-.73-3.23-1.63-5.32-.53-1.29-1.24-2.52-1.63-3.15-.44-.72-.69-1.09-1.07-1.58-.05-.06-.11-.14-.25-.35l-.16-.24-.18-.22c-3.12-3.88-6.88-6.03-9.49-7.15-2.74-1.17-5.65-1.89-8.94-2.22h-.05l-.05-.01c-1.19-.11-2.42-.16-3.63-.16-3.35 0-6.69.39-10.52 1.24l-.06.02-.06.01c-3.31.8-6.48 1.81-9.48 3.04-18.91-15.59-44.63-24.44-71.48-24.44z"/><path fill="#676767" d="M62.52 83.466s-31.135-10.858-37.24-1.998c-6.086 8.855 7.297 30.076 17.737 37.267 0 0-6.1-22.842 19.503-35.27z"/><path fill="#B3B3B3" d="M60.49 86.542c-5.23-2.967-11.417-4.5-17.352-4.89-2.95-.166-5.882.02-8.29.69-2.477.638-3.997 1.907-4.26 2.78-.318.82-.405 2.456.28 4.715.646 2.198 1.867 4.634 3.366 6.93 3.007 4.552 7.346 8.948 11.408 11.203 4.465 2.48 6.067 8.104 3.584 12.563-2.48 4.46-8.106 6.065-12.56 3.584-.41-.223-.783-.47-1.138-.743l-.322-.253c-3.517-2.72-6.212-5.7-8.606-8.84-2.377-3.14-4.406-6.46-6.102-10.03-1.67-3.58-3.045-7.4-3.658-11.79-.283-2.19-.375-4.55.023-7.08.227-1.27.526-2.56 1.06-3.85.212-.58.598-1.38 1.027-2.14.536-.95.35-.52 1.022-1.56 1.738-2.29 4.035-3.95 6.272-4.98 2.244-1.03 4.444-1.52 6.534-1.8 4.192-.5 8.034-.11 11.714.59 7.278 1.53 14.132 4.3 20.06 8.78 1.624 1.24 1.947 3.56.71 5.18-1.13 1.5-3.178 1.89-4.77.98z"/><path fill="#676767" d="M193.332 85.475c-11.564-5.204 30.814-11.742 37.166-3.06 6.344 8.68-3.926 27.013-14.158 34.497 0 0 2.943-19.747-23.008-31.437z"/><path fill="#B3B3B3" d="M191.215 82.456c5.79-4.65 12.572-7.613 19.8-9.346 3.655-.813 7.485-1.306 11.69-.926 2.1.213 4.316.646 6.59 1.614 2.253.968 4.602 2.558 6.405 4.808.71 1.028.5.597 1.07 1.536.452.745.855 1.525 1.09 2.107.562 1.27.903 2.55 1.165 3.82.476 2.51.447 4.87.226 7.07-.47 4.4-1.75 8.26-3.32 11.89-1.58 3.62-3.53 6.99-5.8 10.2-2.31 3.21-4.91 6.26-8.35 9.08l-.27.23c-3.94 3.23-9.76 2.67-13-1.27-3.23-3.94-2.67-9.76 1.27-13 .36-.3.78-.58 1.15-.82 4-2.37 8.22-6.89 11.08-11.52 1.44-2.34 2.6-4.81 3.18-7.03.62-2.28.48-3.91.14-4.72-.28-.87-1.84-2.09-4.33-2.66-2.42-.6-5.37-.71-8.31-.46-5.92.56-12.06 2.27-17.2 5.39-1.74 1.06-4.02.5-5.08-1.25-.97-1.6-.58-3.65.85-4.8z"/><path fill="#fff" d="M221.516 127.997c0 42.02-41.775 76.086-93.32 76.086-51.547 0-93.336-34.063-93.336-76.086 0-42.017 41.79-76.08 93.336-76.08 51.542 0 93.32 34.063 93.32 76.08z"/><path fill="#B3B3B3" d="M201.508 125.838c0 34.28-33.87 62.074-75.646 62.074-41.77 0-75.64-27.794-75.64-62.074 0-34.288 33.868-62.085 75.64-62.085 41.777 0 75.646 27.797 75.646 62.085z"/><path fill="#999898" d="M125.862 190.823c-43.31 0-78.55-29.156-78.55-64.985 0-35.835 35.24-64.992 78.55-64.992 43.316 0 78.552 29.157 78.552 64.992 0 35.83-35.236 64.985-78.552 64.985zm0-124.16c-40.106 0-72.73 26.546-72.73 59.175 0 32.627 32.624 59.17 72.73 59.17 40.107 0 72.738-26.543 72.738-59.17 0-32.63-32.63-59.175-72.738-59.175z"/><path fill="#fff" d="M123.664 116.536c0 17.965-14.567 32.532-32.537 32.532-17.973 0-32.526-14.567-32.526-32.532 0-17.963 14.56-32.534 32.53-32.534s32.54 14.57 32.54 32.534z"/><path fill="#2974A7" d="M112.647 115.073c0 11.93-9.662 21.604-21.6 21.604-11.935 0-21.602-9.675-21.602-21.604 0-11.938 9.667-21.604 21.603-21.604 11.937 0 21.6 9.66 21.6 21.6z"/><path fill="#fff" d="M92.98 102.436c0 4.067-3.297 7.37-7.368 7.37-4.067 0-7.374-3.303-7.374-7.37 0-4.065 3.307-7.363 7.374-7.363 4.072 0 7.37 3.297 7.37 7.363zm2.887 7.952c0 1.906-1.568 3.455-3.472 3.455-1.902 0-3.468-1.55-3.468-3.455 0-1.915 1.565-3.462 3.468-3.462 1.904 0 3.472 1.547 3.472 3.462z"/><path fill="#B3B3B3" d="M58.874 112.385c-.174 1.36-.273 2.744-.273 4.15 0 17.966 14.56 32.533 32.53 32.533 13.92 0 25.79-8.738 30.44-21.022-12.15-7.046-43.99-13.613-62.69-15.66z"/><path fill="#333" d="M141 163.198c-7.305 0-11.78-3.056-14.532-7.5-2.75 4.444-7.236 7.5-14.544 7.5-10.595 0-18.892-11.737-18.892-26.726 0-2.408 1.953-4.363 4.36-4.363 2.41 0 4.366 1.95 4.366 4.36 0 10.6 5.354 17.99 10.165 17.99 8.66 0 10.183-7.71 10.183-23.89h8.727c0 16.18 1.52 23.89 10.166 23.89 4.81 0 10.18-7.4 10.18-18 0-2.41 1.95-4.37 4.36-4.37s4.36 1.95 4.36 4.36c0 14.99-8.31 26.72-18.91 26.72z"/><path fill="#2974A7" d="M137.984 130.582c0 3.86-5.156 6.993-11.52 6.993-6.358 0-11.52-3.132-11.52-6.993 0-3.862 5.16-6.993 11.52-6.993 6.364 0 11.52 3.13 11.52 6.99z"/><path fill="#333" d="M170.58 123.38h-27.997l5.563-8.443c7.13-11.393 12.43-20.38 12.48-20.473 1.598-2.787 5.147-3.638 7.94-2.034 2.788 1.6 3.75 5.07 2.148 7.855-.04.07-2.89 5.096-7.228 12.096h7.087c3.215 0 5.813 2.29 5.813 5.5.01 3.22-2.592 5.5-5.807 5.5z"/></svg>