<svg xmlns="http://www.w3.org/2000/svg" width="256" height="256" viewBox="0 0 256 256"><path fill="#fff" d="M128.195 208.08c-53.67 0-97.335-35.925-97.335-80.084 0-1.04.027-2.112.082-3.2-2.66-2.29-5.085-4.9-7.52-8.09-2.622-3.476-4.756-6.987-6.54-10.753-2.142-4.605-3.41-8.714-4-12.956-.388-2.976-.376-5.663.03-8.252.234-1.31.576-2.942 1.285-4.682.382-1.032.96-2.107 1.277-2.667.36-.64.522-.884.773-1.218.068-.09.156-.21.362-.533l.08-.128.09-.122c2.51-3.328 5.62-5.215 7.79-6.212 2.33-1.066 4.84-1.762 7.69-2.13 1.45-.177 2.91-.264 4.37-.264 2.7 0 5.44.28 8.6.89 4.77 1 9.19 2.47 13.24 4.4 18.25-15.39 43.49-24.17 69.71-24.17 26.81 0 52.44 9.12 70.79 25.1 3.43-1.59 7.15-2.86 11.1-3.81 3.6-.8 6.67-1.17 9.71-1.17 1.09 0 2.18.05 3.26.14 2.9.29 5.44.91 7.79 1.91 2.21.95 5.36 2.75 7.96 5.99l.08.1.07.11c.22.32.32.45.39.54.26.33.43.57.81 1.21.55.89 1.03 1.83 1.35 2.62.59 1.36 1.03 2.82 1.39 4.58.5 2.6.59 5.29.29 8.28-.47 4.28-1.63 8.43-3.63 13.08-1.65 3.79-3.69 7.36-6.22 10.93-2.54 3.53-5.07 6.38-7.89 8.86.01.53.02 1.06.02 1.57 0 44.16-43.66 80.08-97.32 80.08zm83.777-120.878c2.246 3.12 4.23 6.358 5.938 9.697.23-.35.453-.69.666-1.04 1.294-2.1 2.256-4.21 2.71-5.94.238-.87.3-1.52.3-1.91-.307-.17-.81-.4-1.51-.56-1.3-.32-2.838-.49-4.524-.49-.823 0-1.686.04-2.563.11-.34.03-.68.07-1.02.11zm-177.622-.39c.013.39.09 1.022.346 1.866.512 1.74 1.536 3.826 2.89 5.9.375.57.776 1.138 1.2 1.7 1.88-3.59 4.084-7.064 6.593-10.396-.83-.104-1.67-.184-2.51-.24-.57-.032-1.16-.05-1.75-.05-2 0-3.8.208-5.2.6-.75.194-1.27.437-1.58.62z"/><path fill="#333" d="M128.195 51.917c27.95 0 53.025 10.02 70.128 25.89 3.98-2.1 8.25-3.634 12.694-4.7 2.796-.62 5.693-1.056 8.784-1.056.95 0 1.92.05 2.9.13 2.11.22 4.32.65 6.6 1.62 2.26.97 4.6 2.56 6.41 4.81.72 1.03.5.59 1.07 1.54.46.75.86 1.52 1.1 2.11.56 1.28.9 2.56 1.16 3.83.48 2.51.45 4.87.23 7.08-.48 4.4-1.75 8.26-3.32 11.9-1.58 3.62-3.52 6.99-5.8 10.2-2.31 3.22-4.91 6.27-8.35 9.1l-.28.23c-.02.02-.05.04-.07.06.06 1.12.1 2.25.1 3.38 0 42.02-41.78 76.09-93.32 76.09-51.54 0-93.33-34.06-93.33-76.08 0-1.68.07-3.34.2-4.99-3.44-2.7-6.1-5.63-8.46-8.73-2.37-3.15-4.41-6.46-6.1-10.03-1.67-3.58-3.04-7.41-3.65-11.79-.29-2.19-.38-4.55.02-7.08.23-1.28.53-2.56 1.06-3.85.21-.58.6-1.38 1.03-2.14.53-.95.35-.51 1.02-1.56 1.74-2.3 4.04-3.96 6.27-4.99 2.24-1.03 4.44-1.53 6.53-1.8 1.32-.16 2.61-.23 3.86-.23 2.74 0 5.33.33 7.86.82 5.14 1.07 10.05 2.79 14.59 5.26 17.08-15.33 41.72-24.95 69.12-24.95m-88.39 51.56c3.04-7.29 7.41-14.07 12.85-20.18-3.12-.9-6.36-1.45-9.53-1.65-.67-.04-1.34-.06-2.01-.06-2.25 0-4.42.23-6.27.75-2.48.64-4 1.91-4.26 2.78-.32.82-.4 2.46.28 4.71.65 2.2 1.87 4.63 3.37 6.93 1.58 2.38 3.51 4.71 5.58 6.72m177.15.99c1.88-1.98 3.62-4.23 5.02-6.51 1.45-2.34 2.6-4.81 3.18-7.03.62-2.27.48-3.91.14-4.72-.28-.86-1.84-2.09-4.33-2.65-1.62-.4-3.48-.58-5.41-.58-.95 0-1.92.05-2.9.13-2.6.25-5.25.73-7.84 1.45 5.17 6.05 9.3 12.75 12.15 19.92m-88.79-60.58c-26.23 0-51.54 8.51-70.33 23.5-3.67-1.55-7.6-2.77-11.73-3.64l-.07-.01-.07-.02c-3.42-.66-6.4-.96-9.36-.96-1.62 0-3.24.1-4.82.29l-.04.01-.04.01c-3.25.42-6.15 1.23-8.84 2.46-3.72 1.71-6.94 4.29-9.33 7.45l-.18.25-.17.25c-.08.13-.14.21-.18.27-.41.54-.67.95-1.09 1.7-.44.77-1.06 1.95-1.51 3.16C9.6 80.74 9.19 82.7 8.96 84l-.01.08-.017.08c-.466 2.97-.483 6.03-.05 9.354l.004.036.002.032c.64 4.65 2.02 9.12 4.32 14.07l.01.023.01.026c1.9 4.01 4.17 7.75 6.95 11.43 2.18 2.85 4.35 5.28 6.66 7.43-.01.49-.02.98-.02 1.47 0 22.77 10.75 44.08 30.28 60 19.05 15.53 44.28 24.08 71.05 24.08s51.99-8.55 71.04-24.09c19.48-15.88 30.22-37.12 30.27-59.83 2.51-2.38 4.81-5.05 7.1-8.24l.01-.02.02-.02c2.69-3.79 4.85-7.6 6.61-11.63 2.18-5.05 3.43-9.56 3.94-14.22V94c.34-3.37.23-6.44-.33-9.39l-.01-.04-.01-.04c-.41-2.02-.93-3.72-1.63-5.33-.4-.97-.98-2.09-1.64-3.17-.43-.71-.68-1.09-1.08-1.59-.05-.06-.11-.14-.26-.35l-.15-.22-.17-.21c-3.11-3.88-6.87-6.03-9.48-7.15-2.76-1.18-5.68-1.9-8.96-2.23l-.04-.006h-.04c-1.19-.11-2.41-.162-3.62-.162-3.35 0-6.69.4-10.52 1.25l-.07.01-.07.015c-3.32.796-6.49 1.81-9.48 3.037-18.91-15.6-44.63-24.45-71.47-24.45z"/><path fill="#676767" d="M62.52 83.465s-31.138-10.856-37.238-2c-6.09 8.855 7.294 30.08 17.736 37.273 0 0-6.1-22.848 19.502-35.273z"/><path fill="#B3B3B3" d="M60.493 86.538c-5.232-2.966-11.418-4.5-17.356-4.887-2.946-.17-5.88.02-8.286.69-2.47.64-4 1.91-4.26 2.78-.31.83-.4 2.46.28 4.72.65 2.21 1.87 4.64 3.37 6.93 3.01 4.56 7.35 8.96 11.41 11.2 4.47 2.49 6.07 8.11 3.59 12.57-2.48 4.46-8.1 6.07-12.56 3.59-.41-.22-.78-.47-1.13-.74l-.32-.25c-3.51-2.73-6.21-5.7-8.6-8.84-2.37-3.15-4.4-6.46-6.1-10.04-1.67-3.58-3.04-7.4-3.65-11.79-.28-2.19-.37-4.55.02-7.08.23-1.28.53-2.56 1.07-3.85.21-.58.6-1.38 1.03-2.14.54-.95.35-.51 1.02-1.56 1.74-2.3 4.04-3.96 6.28-4.99 2.25-1.02 4.44-1.52 6.53-1.79 4.2-.5 8.04-.11 11.72.59 7.28 1.53 14.14 4.3 20.06 8.78 1.63 1.24 1.95 3.56.71 5.18-1.13 1.5-3.18 1.89-4.77.98z"/><path fill="#676767" d="M193.332 85.473c-11.566-5.206 30.814-11.738 37.164-3.058 6.346 8.678-3.926 27.01-14.156 34.492 0 0 2.94-19.746-23.008-31.434z"/><path fill="#B3B3B3" d="M191.21 82.455c5.794-4.653 12.573-7.613 19.808-9.348 3.652-.81 7.48-1.306 11.684-.926 2.104.22 4.316.65 6.592 1.62 2.254.97 4.602 2.56 6.406 4.81.713 1.03.5.59 1.068 1.54.455.75.857 1.52 1.094 2.11.56 1.28.9 2.56 1.16 3.83.48 2.51.45 4.87.23 7.08-.485 4.4-1.755 8.26-3.325 11.9-1.578 3.62-3.525 6.99-5.807 10.2-2.31 3.22-4.912 6.27-8.35 9.1l-.277.23c-3.94 3.24-9.76 2.67-13.002-1.26-3.24-3.93-2.67-9.76 1.27-13 .36-.29.77-.57 1.15-.8 4-2.37 8.22-6.89 11.08-11.52 1.45-2.34 2.6-4.81 3.18-7.02.62-2.27.48-3.91.14-4.72-.28-.86-1.84-2.09-4.33-2.65-2.42-.6-5.36-.7-8.31-.45-5.92.56-12.06 2.27-17.21 5.39-1.74 1.06-4.01.5-5.07-1.24-.97-1.61-.58-3.66.84-4.8z"/><path fill="#fff" d="M221.516 127.996c0 42.02-41.777 76.085-93.32 76.085-51.546 0-93.336-34.06-93.336-76.08 0-42.01 41.79-76.08 93.338-76.08 51.542 0 93.32 34.07 93.32 76.08z"/><path fill="#B3B3B3" d="M201.508 137.474c0 34.275-33.87 62.074-75.646 62.074-41.77 0-75.64-27.8-75.64-62.074 0-34.29 33.868-62.088 75.64-62.088 41.775 0 75.646 27.797 75.646 62.088z"/><path fill="#999898" d="M125.862 202.457c-43.313 0-78.55-29.156-78.55-64.983 0-35.842 35.237-64.998 78.55-64.998 43.314 0 78.554 29.156 78.554 64.998 0 35.827-35.24 64.983-78.554 64.983zm0-124.162c-40.105 0-72.73 26.546-72.73 59.18 0 32.622 32.625 59.162 72.73 59.162 40.105 0 72.738-26.54 72.738-59.163 0-32.633-32.633-59.18-72.738-59.18z"/><path fill="#333" d="M165.047 135.632c-3.953 0-8.05-.71-11.9-2.635-8.727-4.363-14.055-13.707-15.84-27.78-.3-2.39 1.393-4.576 3.78-4.88 2.413-.273 4.577 1.393 4.878 3.777 1.393 10.993 5.113 18.074 11.063 21.065 10.416 5.22 25.148-2.96 25.303-3.04 2.09-1.18 4.76-.46 5.95 1.64 1.19 2.09.46 4.75-1.63 5.94-.56.32-10.54 5.9-21.59 5.9zm-80.017 5.345c-7.092 0-14.548-4.222-22.23-12.6-1.63-1.778-1.51-4.532.265-6.164 1.78-1.618 4.536-1.51 6.166.27 7.02 7.65 13.15 10.858 18.21 9.44 9.73-2.658 15.8-21.696 17.15-28.15.5-2.354 2.84-3.862 5.17-3.374 2.36.5 3.87 2.81 3.37 5.17-.64 3.08-6.81 30.23-23.38 34.77-1.55.42-3.12.63-4.71.63zm40.09 48.828c-3.214 0-6.5-2.603-6.5-5.82v-40.718c0-3.215 3.286-5.818 6.5-5.818s6.5 2.6 6.5 5.81v40.72c0 3.21-3.288 5.82-6.5 5.82z"/><path fill="#2974A7" d="M137.984 142.217c0 3.863-5.158 6.993-11.52 6.993-6.357 0-11.522-3.13-11.522-6.993 0-3.862 5.165-6.993 11.522-6.993 6.362 0 11.52 3.13 11.52 6.993z"/><path fill="#C1272D" d="M135.87 191.55c0 9.706-4.66 9.042-10.407 9.042-5.748 0-10.4.663-10.4-9.042 0-9.712 4.652-17.597 10.4-17.597 5.746 0 10.408 7.885 10.408 17.597z"/></svg>