<?xml version="1.0" encoding="utf-8"?>
<!-- Generator: Adobe Illustrator 16.0.0, SVG Export Plug-In . SVG Version: 6.00 Build 0)  -->
<!DOCTYPE svg PUBLIC "-//W3C//DTD SVG 1.1//EN" "http://www.w3.org/Graphics/SVG/1.1/DTD/svg11.dtd">
<svg version="1.1" id="Layer_1" xmlns="http://www.w3.org/2000/svg" xmlns:xlink="http://www.w3.org/1999/xlink" x="0px" y="0px"
	 width="256px" height="256px" viewBox="0 0 256 256" enable-background="new 0 0 256 256" xml:space="preserve">
<path fill="#FFFFFF" d="M128.195,208.083c-53.67,0-97.336-35.926-97.336-80.085c0-1.042,0.02-2.113,0.08-3.202
	c-2.67-2.295-5.1-4.908-7.52-8.092c-2.63-3.482-4.76-6.994-6.54-10.754c-2.14-4.585-3.41-8.695-4.01-12.95
	c-0.39-2.984-0.38-5.672,0.03-8.256c0.21-1.196,0.55-2.898,1.28-4.677c0.38-1.033,0.96-2.11,1.27-2.67
	c0.36-0.635,0.53-0.888,0.77-1.212c0.06-0.09,0.15-0.21,0.36-0.532l0.08-0.133l0.09-0.126c2.52-3.327,5.62-5.213,7.79-6.21
	c2.32-1.062,4.83-1.758,7.69-2.13c1.45-0.176,2.91-0.263,4.36-0.263c2.7,0,5.44,0.29,8.62,0.89c4.77,1,9.19,2.48,13.24,4.41
	c18.26-15.39,43.49-24.17,69.71-24.17c26.81,0,52.44,9.12,70.78,25.11c3.439-1.58,7.16-2.86,11.1-3.8c3.6-0.8,6.66-1.16,9.7-1.16
	c1.1,0,2.2,0.05,3.28,0.15c2.899,0.29,5.439,0.92,7.789,1.92c2.2,0.95,5.36,2.75,7.961,5.99l0.08,0.11l0.08,0.11
	c0.219,0.32,0.319,0.45,0.389,0.54c0.271,0.34,0.431,0.58,0.82,1.23c0.551,0.9,1.03,1.83,1.351,2.62c0.77,1.77,1.159,3.46,1.39,4.57
	c0.5,2.62,0.59,5.31,0.29,8.28c-0.47,4.28-1.62,8.43-3.63,13.08c-1.641,3.78-3.67,7.35-6.21,10.93c-2.55,3.54-5.08,6.39-7.89,8.86
	c0.01,0.54,0.02,1.06,0.02,1.58c0,44.16-43.66,80.09-97.32,80.09L128.195,208.083z M211.973,87.205
	c2.246,3.12,4.23,6.357,5.938,9.694c0.23-0.35,0.454-0.7,0.668-1.04c1.29-2.09,2.254-4.2,2.713-5.94c0.24-0.87,0.3-1.51,0.3-1.91
	c-0.31-0.17-0.81-0.4-1.51-0.56c-1.29-0.32-2.83-0.48-4.51-0.48c-0.82,0-1.69,0.03-2.57,0.11c-0.34,0.03-0.68,0.06-1.021,0.11
	L211.973,87.205z M34.349,86.815c0.01,0.39,0.09,1.022,0.34,1.863c0.51,1.74,1.53,3.827,2.89,5.898c0.37,0.57,0.78,1.14,1.2,1.702
	c1.88-3.59,4.08-7.063,6.59-10.395c-0.83-0.104-1.67-0.184-2.5-0.238c-0.57-0.033-1.17-0.05-1.75-0.05c-1.99,0-3.79,0.207-5.21,0.6
	c-0.75,0.194-1.26,0.436-1.57,0.62H34.349z"/>
<path fill="#333333" d="M128.195,51.918c27.95,0,53.025,10.02,70.128,25.89c3.979-2.1,8.25-3.634,12.694-4.7
	c2.789-0.62,5.686-1.056,8.77-1.056c0.952,0,1.923,0.042,2.914,0.132c2.109,0.21,4.32,0.646,6.59,1.613
	c2.26,0.97,4.609,2.562,6.41,4.813c0.71,1.02,0.5,0.59,1.07,1.53c0.459,0.747,0.859,1.524,1.1,2.11c0.57,1.276,0.9,2.55,1.16,3.822
	c0.479,2.51,0.46,4.873,0.229,7.077c-0.479,4.4-1.75,8.26-3.319,11.89c-1.58,3.62-3.53,6.98-5.811,10.2
	c-2.31,3.21-4.91,6.26-8.35,9.09l-0.271,0.22c-0.02,0.02-0.05,0.03-0.069,0.05c0.06,1.12,0.1,2.24,0.1,3.37
	c0,42.021-41.77,76.08-93.32,76.08c-51.54,0-93.33-34.07-93.33-76.09c0-1.68,0.07-3.34,0.21-4.99c-3.44-2.7-6.1-5.63-8.46-8.729
	c-2.37-3.15-4.41-6.46-6.1-10.04c-1.67-3.59-3.05-7.41-3.66-11.8c-0.28-2.19-0.37-4.55,0.03-7.08c0.23-1.28,0.53-2.57,1.06-3.86
	c0.21-0.59,0.6-1.38,1.03-2.14c0.54-0.95,0.35-0.52,1.02-1.57c1.74-2.3,4.04-3.96,6.27-4.99c2.25-1.03,4.45-1.53,6.54-1.8
	c1.32-0.16,2.6-0.23,3.85-0.23c2.74,0,5.34,0.33,7.87,0.82c5.13,1.07,10.05,2.79,14.58,5.26c17.08-15.33,41.72-24.95,69.12-24.95
	 M39.861,103.419c3.04-7.29,7.41-14.08,12.85-20.18c-3.12-0.91-6.36-1.45-9.52-1.66c-0.67-0.04-1.34-0.06-2.01-0.06
	c-2.25,0-4.41,0.23-6.27,0.75c-2.47,0.64-4,1.91-4.26,2.78c-0.32,0.82-0.4,2.46,0.28,4.71c0.65,2.21,1.87,4.64,3.37,6.93
	c1.58,2.38,3.51,4.7,5.58,6.71 M217.031,104.389c1.88-1.98,3.619-4.23,5.02-6.51c1.45-2.34,2.6-4.82,3.18-7.03
	c0.621-2.27,0.48-3.91,0.141-4.71c-0.28-0.87-1.84-2.09-4.33-2.66c-1.62-0.4-3.471-0.58-5.4-0.58c-0.959,0-1.93,0.04-2.91,0.13
	c-2.609,0.24-5.25,0.73-7.84,1.44c5.18,6.06,9.301,12.75,12.15,19.92 M128.241,43.879c-26.23,0-51.54,8.51-70.33,23.5
	c-3.68-1.56-7.6-2.78-11.74-3.64l-0.07-0.021l-0.06-0.01c-3.44-0.66-6.41-0.96-9.37-0.96c-1.61,0-3.22,0.09-4.8,0.28l-0.04,0.01
	l-0.04,0.01c-3.25,0.43-6.14,1.23-8.83,2.46c-3.71,1.71-6.93,4.28-9.32,7.44l-0.19,0.25l-0.17,0.27c-0.08,0.13-0.13,0.21-0.17,0.271
	c-0.4,0.54-0.66,0.94-1.07,1.68c-0.44,0.79-1.06,1.98-1.52,3.19c-0.86,2.08-1.26,4.04-1.49,5.34l-0.03,0.08l-0.01,0.06
	c-0.47,2.96-0.48,6.03-0.05,9.36v0.03l0.01,0.04c0.65,4.66,2.03,9.13,4.33,14.07c1.91,4.04,4.18,7.78,6.96,11.47
	c2.18,2.85,4.35,5.27,6.66,7.43c-0.01,0.49-0.02,0.979-0.02,1.47c0,22.77,10.75,44.08,30.28,60c19.05,15.53,44.28,24.08,71.05,24.08
	c26.76,0,51.99-8.561,71.04-24.09c19.47-15.881,30.22-37.131,30.271-59.84c2.489-2.37,4.8-5.05,7.09-8.24l0.02-0.03l0.02-0.03
	c2.69-3.82,4.86-7.62,6.61-11.63c2.181-5.06,3.431-9.57,3.94-14.22v-0.07c0.34-3.37,0.23-6.43-0.33-9.38l-0.01-0.05l-0.01-0.05
	c-0.271-1.29-0.721-3.23-1.631-5.33c-0.529-1.28-1.229-2.5-1.63-3.15c-0.44-0.74-0.7-1.12-1.1-1.62c-0.04-0.06-0.101-0.14-0.24-0.34
	l-0.16-0.22l-0.17-0.21c-3.11-3.89-6.88-6.04-9.489-7.16c-2.75-1.18-5.681-1.9-8.951-2.23h-0.06c-1.2-0.11-2.43-0.16-3.649-0.16
	c-3.34,0-6.681,0.4-10.5,1.25l-0.061,0.01l-0.061,0.02c-3.31,0.8-6.489,1.81-9.479,3.04c-18.92-15.59-44.649-24.44-71.49-24.44
	L128.241,43.879z"/>
<path fill="#676767" d="M62.52,83.466c0,0-31.137-10.856-37.24-2c-6.088,8.855,7.297,30.08,17.738,37.272
	C43.018,118.738,36.916,95.891,62.52,83.466z"/>
<path fill="#B3B3B3" d="M60.492,86.538c-5.232-2.964-11.418-4.498-17.357-4.885c-2.947-0.17-5.877,0.018-8.29,0.688
	c-2.472,0.65-3.995,1.91-4.26,2.78c-0.315,0.83-0.4,2.46,0.278,4.72c0.65,2.21,1.87,4.64,3.37,6.93
	c3.01,4.56,7.347,8.96,11.41,11.21c4.464,2.48,6.065,8.11,3.583,12.57s-8.107,6.07-12.56,3.59c-0.41-0.22-0.786-0.47-1.138-0.74
	l-0.322-0.25c-3.518-2.73-6.21-5.7-8.607-8.84c-2.38-3.15-4.41-6.46-6.1-10.03c-1.68-3.58-3.05-7.4-3.66-11.79
	c-0.29-2.19-0.38-4.55,0.02-7.07c0.22-1.28,0.52-2.57,1.06-3.86c0.21-0.58,0.59-1.38,1.02-2.14c0.53-0.95,0.35-0.51,1.02-1.56
	c1.74-2.3,4.03-3.96,6.27-4.99c2.24-1.02,4.44-1.52,6.53-1.8c4.19-0.5,8.03-0.11,11.71,0.6c7.271,1.52,14.13,4.29,20.05,8.77
	c1.62,1.24,1.95,3.56,0.71,5.18c-1.13,1.5-3.18,1.89-4.77,0.98L60.492,86.538z"/>
<path fill="#676767" d="M193.332,85.472c-11.566-5.206,30.813-11.738,37.166-3.057c6.342,8.68-3.926,27.012-14.158,34.495
	C216.34,116.91,219.283,97.162,193.332,85.472z"/>
<path fill="#B3B3B3" d="M191.215,82.456c5.79-4.654,12.572-7.614,19.803-9.347c3.652-0.82,7.482-1.31,11.685-0.93
	c2.103,0.21,4.315,0.64,6.59,1.61c2.256,0.97,4.603,2.56,6.408,4.81c0.71,1.02,0.502,0.59,1.065,1.53
	c0.457,0.74,0.86,1.52,1.094,2.11c0.564,1.27,0.902,2.55,1.162,3.82c0.48,2.51,0.451,4.87,0.23,7.08
	c-0.482,4.4-1.755,8.26-3.323,11.89c-1.579,3.62-3.53,6.98-5.81,10.2c-2.32,3.21-4.92,6.26-8.35,9.09l-0.28,0.22
	c-3.94,3.24-9.761,2.67-13-1.27c-3.24-3.94-2.681-9.76,1.26-13c0.36-0.29,0.771-0.58,1.149-0.81c4-2.37,8.211-6.89,11.07-11.53
	c1.44-2.34,2.59-4.82,3.18-7.03c0.61-2.27,0.471-3.91,0.141-4.71c-0.29-0.87-1.85-2.1-4.34-2.66c-2.43-0.61-5.37-0.71-8.32-0.46
	c-5.92,0.56-12.07,2.27-17.21,5.38c-1.74,1.06-4.021,0.5-5.08-1.24c-0.97-1.6-0.58-3.66,0.851-4.8L191.215,82.456z"/>
<path fill="#FFFFFF" d="M221.516,127.998c0,42.021-41.776,76.085-93.319,76.085c-51.547,0-93.336-34.063-93.336-76.085
	c0-42.017,41.79-76.08,93.336-76.08C179.738,51.918,221.516,85.981,221.516,127.998z"/>
<path fill="#B3B3B3" d="M201.508,125.84c0,34.277-33.869,62.075-75.648,62.075c-41.77,0-75.64-27.798-75.64-62.076
	c0-34.29,33.87-62.09,75.64-62.09c41.777,0,75.648,27.79,75.648,62.08V125.84z"/>
<path fill="#999898" d="M125.86,190.823c-43.31,0-78.548-29.157-78.548-64.984c0-35.84,35.238-65,78.548-65
	c43.314,0,78.55,29.15,78.55,64.99c0,35.819-35.235,64.979-78.554,64.979L125.86,190.823z M125.86,66.661
	c-40.108,0-72.73,26.55-72.73,59.18s32.62,59.17,72.73,59.17c40.108,0,72.74-26.54,72.74-59.16c0-32.63-32.63-59.18-72.74-59.18
	V66.661z"/>
<path fill="#333333" d="M168.732,110.38h-27.994l5.566-7.912c7.131-11.393,12.428-20.116,12.48-20.208
	c1.597-2.788,5.142-3.5,7.941-1.9c2.78,1.602,3.75,5.604,2.141,8.396c-0.04,0.065-2.891,4.626-7.23,12.626h7.08
	c3.21,0,5.811,1.287,5.811,4.5c0,3.216-2.601,4.5-5.82,4.5L168.732,110.38z"/>
<path fill="#333333" d="M115.24,110.38H87.29c-3.216,0-5.817-1.282-5.817-4.5c0-3.212,2.602-4.5,5.818-4.5h7.043
	c-4.326-8-7.174-12.447-7.213-12.514c-1.596-2.79-0.627-6.506,2.162-8.1c2.79-1.597,6.348-0.705,7.938,2.083
	c0.053,0.09,5.33,8.27,12.455,19.66L115.24,110.38L115.24,110.38z"/>
<path fill="#333333" d="M128,158.9c-3.216,0-5.5-2.601-5.5-5.816V118.18c0-3.212,2.284-5.816,5.5-5.816c3.216,0,5.5,2.604,5.5,5.817
	v34.91c0,3.22-2.284,5.82-5.5,5.82V158.9z"/>
<path fill="#2974A7" d="M139.521,118.947c0,3.865-5.158,6.993-11.521,6.993c-6.357,0-11.521-3.128-11.521-6.993
	c0-3.863,5.163-6.993,11.521-6.993C134.362,111.954,139.521,115.084,139.521,118.947z"/>
<radialGradient id="SVGID_1_" cx="-493.75" cy="363.9414" r="30" gradientTransform="matrix(1 0 0 -1 564 491)" gradientUnits="userSpaceOnUse">
	<stop  offset="0" style="stop-color:#FF585D"/>
	<stop  offset="1" style="stop-color:#FF585D;stop-opacity:0"/>
</radialGradient>
<circle opacity="0.4" fill="url(#SVGID_1_)" enable-background="new    " cx="70.25" cy="127.059" r="30"/>
<radialGradient id="SVGID_2_" cx="-378.75" cy="363.9414" r="30" gradientTransform="matrix(1 0 0 -1 564 491)" gradientUnits="userSpaceOnUse">
	<stop  offset="0" style="stop-color:#FF585D"/>
	<stop  offset="1" style="stop-color:#FF585D;stop-opacity:0"/>
</radialGradient>
<circle opacity="0.4" fill="url(#SVGID_2_)" enable-background="new    " cx="185.25" cy="127.059" r="30"/>
<path fill="#333333" d="M125.62,166.173c-41.02,0-66.5-20.728-66.5-54.098c0-3.217,2.603-5.816,5.817-5.816
	c3.217,0,5.82,2.6,5.82,5.81c0,38.33,38.365,42.46,54.863,42.46c16.5,0,54.86-4.141,54.86-42.47c0-3.22,2.603-5.82,5.816-5.82
	c3.221,0,5.816,2.6,5.816,5.81c0.002,33.37-25.477,54.1-66.492,54.1L125.62,166.173z"/>
</svg>
