<svg xmlns="http://www.w3.org/2000/svg" width="256" height="256" viewBox="0 0 256 256"><path fill="#fff" d="M128.197 208.082c-53.67 0-97.336-35.925-97.336-80.083 0-1.05.03-2.12.09-3.21-2.65-2.29-5.08-4.9-7.52-8.09-2.62-3.47-4.75-6.98-6.53-10.75-2.14-4.61-3.41-8.72-4.01-12.96-.38-2.99-.37-5.68.04-8.26.24-1.33.59-2.96 1.29-4.68.39-1.05.98-2.13 1.3-2.69.35-.62.5-.86.76-1.21.07-.1.17-.23.38-.55l.08-.13.09-.12c2.52-3.33 5.63-5.21 7.79-6.21 2.32-1.06 4.83-1.76 7.69-2.13 1.46-.18 2.92-.27 4.38-.27 2.7 0 5.44.28 8.61.89 4.77 1 9.2 2.47 13.24 4.4 18.25-15.39 43.49-24.16 69.71-24.16 26.82 0 52.44 9.12 70.79 25.1 3.44-1.59 7.16-2.86 11.1-3.81 3.6-.8 6.66-1.17 9.71-1.17 1.09 0 2.19.05 3.27.14 2.92.29 5.45.92 7.8 1.91 2.21.94 5.36 2.74 7.97 5.98l.09.11.08.12c.23.32.32.45.4.54.27.33.43.56.81 1.2.56.91 1.03 1.84 1.35 2.61.6 1.36 1.04 2.82 1.4 4.58.5 2.61.59 5.29.29 8.26-.47 4.29-1.62 8.44-3.63 13.09-1.65 3.79-3.69 7.37-6.21 10.93-2.54 3.53-5.07 6.37-7.88 8.86.02.54.02 1.06.02 1.58 0 44.16-43.66 80.08-97.32 80.08zm83.78-120.877c2.246 3.12 4.23 6.357 5.938 9.695.23-.345.454-.69.67-1.038 1.296-2.104 2.257-4.21 2.704-5.928.23-.877.3-1.523.3-1.918-.31-.17-.81-.393-1.51-.55-1.31-.323-2.84-.483-4.53-.483-.83 0-1.69.038-2.57.112-.35.032-.68.07-1.02.11zm-177.627-.39c.013.388.092 1.022.347 1.87.517 1.748 1.54 3.834 2.887 5.895.376.57.778 1.14 1.2 1.7 1.882-3.59 4.084-7.062 6.594-10.396-.83-.104-1.664-.185-2.503-.24-.552-.03-1.143-.048-1.728-.048-2.006 0-3.814.208-5.228.6-.75.193-1.27.436-1.57.62z"/><path fill="#333" d="M128.197 51.918c27.952 0 53.026 10.02 70.13 25.89 3.978-2.098 8.25-3.632 12.692-4.696 2.79-.622 5.68-1.057 8.77-1.057.95 0 1.92.04 2.9.13 2.1.212 4.31.647 6.59 1.612 2.26.97 4.6 2.56 6.41 4.81.71 1.03.5.597 1.06 1.537.45.745.85 1.525 1.09 2.107.56 1.28.9 2.56 1.16 3.82.47 2.52.45 4.88.23 7.08-.49 4.41-1.76 8.27-3.33 11.9-1.58 3.62-3.53 7-5.81 10.21-2.32 3.21-4.92 6.26-8.35 9.09l-.28.23c-.02.02-.05.04-.07.06.06 1.12.09 2.25.09 3.38 0 42.02-41.78 76.08-93.32 76.08-51.55 0-93.34-34.06-93.34-76.08 0-1.68.07-3.34.2-4.99-3.45-2.7-6.1-5.63-8.46-8.73-2.38-3.15-4.41-6.46-6.11-10.03-1.67-3.59-3.05-7.41-3.66-11.79-.28-2.19-.37-4.55.02-7.08.23-1.27.52-2.56 1.06-3.85.21-.58.6-1.38 1.03-2.13.53-.95.34-.51 1.02-1.56 1.74-2.3 4.03-3.95 6.27-4.99 2.24-1.03 4.44-1.52 6.53-1.8 1.32-.16 2.6-.23 3.86-.23 2.73 0 5.33.34 7.86.82 5.13 1.08 10.04 2.79 14.58 5.27 17.08-15.33 41.72-24.95 69.12-24.95M39.8 103.5c3.04-7.285 7.402-14.07 12.85-20.175-3.126-.9-6.358-1.446-9.524-1.655-.666-.036-1.332-.056-1.99-.056-2.257 0-4.434.23-6.3.747-2.473.64-3.998 1.91-4.258 2.78-.327.82-.407 2.46.272 4.72.65 2.2 1.87 4.64 3.37 6.93 1.57 2.38 3.505 4.71 5.575 6.72m177.15.99c1.876-1.98 3.613-4.23 5.02-6.5 1.44-2.33 2.6-4.81 3.18-7.02.62-2.27.474-3.91.142-4.72-.287-.86-1.85-2.09-4.337-2.66-1.627-.4-3.48-.58-5.41-.58-.957 0-1.93.05-2.906.13-2.605.25-5.25.73-7.84 1.45 5.17 6.06 9.293 12.75 12.15 19.92m-88.754-60.6c-26.23 0-51.54 8.51-70.33 23.5-3.667-1.55-7.592-2.77-11.724-3.64l-.07-.01-.066-.02c-3.425-.65-6.4-.96-9.36-.96-1.615 0-3.235.1-4.815.29l-.04.01-.038.01c-3.264.43-6.154 1.23-8.835 2.47-3.707 1.71-6.924 4.28-9.313 7.43l-.18.23-.16.25c-.13.2-.19.28-.23.34-.38.52-.63.9-1.04 1.64-.39.67-1.06 1.92-1.54 3.2-.82 2.04-1.22 3.91-1.48 5.32l-.02.09-.02.1c-.47 2.96-.48 6.01-.06 9.34v.05l.01.05c.65 4.64 2.03 9.11 4.33 14.06 1.92 4.07 4.19 7.81 6.97 11.48 2.18 2.86 4.35 5.28 6.66 7.43-.01.5-.02.99-.02 1.48 0 22.78 10.76 44.09 30.28 60 19.05 15.53 44.28 24.08 71.05 24.08 26.76 0 51.99-8.55 71.04-24.08 19.48-15.88 30.23-37.12 30.27-59.84 2.5-2.38 4.8-5.05 7.09-8.23l.02-.02.01-.02c2.69-3.79 4.85-7.6 6.61-11.63 2.18-5.05 3.43-9.56 3.95-14.21l.01-.04V94c.33-3.355.22-6.416-.34-9.36l-.01-.05-.01-.05c-.41-2.025-.93-3.73-1.64-5.35-.53-1.28-1.23-2.506-1.62-3.136-.44-.72-.69-1.095-1.08-1.59-.05-.06-.11-.14-.25-.34l-.17-.25-.19-.23c-2.47-3.07-5.75-5.54-9.48-7.148-2.75-1.17-5.67-1.89-8.95-2.22l-.05-.002h-.04c-1.2-.105-2.42-.16-3.63-.16-3.36 0-6.7.4-10.52 1.25l-.06.013-.07.013c-3.32.8-6.49 1.81-9.48 3.04-18.91-15.6-44.64-24.45-71.48-24.45z"/><path fill="#676767" d="M62.52 83.468s-31.136-10.86-37.235-2c-6.09 8.855 7.29 30.075 17.736 37.27 0 0-6.1-22.844 19.5-35.27z"/><path fill="#B3B3B3" d="M60.492 86.543c-5.23-2.967-11.416-4.5-17.354-4.89-2.95-.166-5.88.02-8.29.69-2.474.64-4 1.908-4.26 2.78-.32.82-.4 2.457.278 4.715.65 2.198 1.87 4.635 3.37 6.93 3.003 4.55 7.35 8.948 11.407 11.203 4.47 2.48 6.068 8.11 3.584 12.57-2.482 4.46-8.105 6.07-12.56 3.59-.407-.22-.788-.47-1.136-.74l-.32-.25c-3.52-2.73-6.21-5.7-8.6-8.84-2.37-3.15-4.41-6.46-6.1-10.03-1.67-3.59-3.04-7.41-3.66-11.8-.28-2.19-.37-4.55.02-7.08.23-1.27.53-2.56 1.07-3.85.21-.58.6-1.38 1.03-2.13.54-.95.35-.51 1.02-1.56 1.74-2.3 4.04-3.95 6.28-4.99 2.25-1.03 4.45-1.52 6.53-1.8 4.19-.5 8.03-.11 11.72.59 7.28 1.53 14.14 4.3 20.06 8.78 1.63 1.24 1.95 3.56.72 5.18-1.13 1.5-3.18 1.89-4.77.98z"/><path fill="#676767" d="M193.338 85.476c-11.57-5.204 30.81-11.743 37.16-3.06 6.346 8.682-3.924 27.012-14.158 34.498 0 0 2.945-19.747-23.002-31.438z"/><path fill="#B3B3B3" d="M191.215 82.456c5.787-4.65 12.572-7.612 19.805-9.345 3.648-.81 7.48-1.3 11.685-.92 2.103.21 4.317.65 6.59 1.61 2.258.97 4.603 2.56 6.412 4.81.71 1.03.5.6 1.065 1.54.45.75.855 1.53 1.09 2.11.563 1.28.906 2.56 1.162 3.82.478 2.52.45 4.88.232 7.08-.486 4.41-1.758 8.27-3.326 11.9-1.58 3.62-3.53 7-5.807 10.21-2.313 3.21-4.916 6.26-8.348 9.09l-.28.23c-3.942 3.24-9.76 2.68-13.007-1.26-3.236-3.94-2.668-9.76 1.27-13 .36-.29.77-.58 1.148-.81 3.996-2.37 8.213-6.89 11.078-11.52 1.438-2.33 2.598-4.81 3.174-7.02.62-2.27.477-3.9.145-4.72-.287-.86-1.848-2.09-4.336-2.66-2.428-.6-5.37-.7-8.314-.45-5.916.56-12.055 2.27-17.205 5.39-1.743 1.06-4.016.51-5.075-1.24-.977-1.6-.584-3.65.842-4.79z"/><path fill="#fff" d="M221.52 128c0 42.02-41.778 76.083-93.32 76.083-51.548 0-93.337-34.062-93.337-76.083 0-42.02 41.79-76.082 93.336-76.082 51.54 0 93.32 34.063 93.32 76.082z"/><path fill="#B3B3B3" d="M207.293 125.84c0 36.904-36.463 66.82-81.428 66.82-44.967 0-81.424-29.916-81.424-66.82 0-36.91 36.46-66.832 81.43-66.832 44.97 0 81.43 29.922 81.43 66.833z"/><path fill="#999898" d="M125.865 195.564c-46.506 0-84.334-31.277-84.334-69.724 0-38.458 37.83-69.74 84.34-69.74 46.51 0 84.34 31.283 84.34 69.74 0 38.447-37.83 69.724-84.33 69.724zm0-133.646c-43.293 0-78.514 28.676-78.514 63.923 0 35.24 35.23 63.91 78.52 63.91s78.52-28.67 78.52-63.91c0-35.24-35.22-63.92-78.51-63.92z"/><path fill="#333" d="M141.64 111.31c-1.046 0-2.1-.376-2.933-1.132-1.785-1.618-1.92-5.24-.303-7.026 8.38-9.23 17.375-14.77 26.742-14.77h.086c13.315 0 22.135 10.56 22.502 10.97 1.604 1.794 1.46 4.985-.336 6.592-1.785 1.61-4.53 2.46-6.154.67-.148-.162-6.762-6.233-16.094-6.233h-.03c-6.796 0-13.608 2.96-20.247 10.28-.867.95-2.05.66-3.234.66zm-32.773-.01c-1.396 0-2.766-.668-3.61-1.905-.08-.113-7.804-11.243-18.257-11.962-5.898-.412-11.89 2.664-17.752 9.134-1.63 1.78-4.385 1.91-6.16.302-1.785-1.62-1.924-4.39-.305-6.17 7.767-8.56 16.082-12.59 24.877-11.97 14.7 1.05 24.408 15.16 24.814 15.76 1.344 1.99.824 4.69-1.166 6.04-.75.51-1.6.75-2.44.75z"/><path fill="#fff" d="M51.51 120.284c.194 0 .394.018.588.05 24.483 4.138 49.858 6.236 75.405 6.236 43.306 0 72.485-6.127 72.776-6.19.24-.05.48-.076.72-.076 1.03 0 2.01.46 2.76 1.29.92 1.024 1.37 2.518 1.2 3.993-6.34 55.396-70.55 56.996-77.85 56.996l-.49-.005c-40.25-2.33-59.56-17.45-68.68-29.723-10.28-13.842-10.45-27.32-10.45-27.887-.01-1.357.49-2.65 1.37-3.54.73-.737 1.66-1.144 2.62-1.144z"/><path fill="#999898" d="M183.014 123.245h7.5v35.57l-7.75 6.414zm-112.376 0h-7.5v35.57l7.75 6.414zm86.126 0h7.5v52.86l-7.75 3.995zm-33.5 4.255h7.5v54.35l-7.75-1.623zm-24.25-4.255h-7.5v52.86l7.75 3.995z"/><path fill="#333" d="M127.122 179.668l-.364-.002c-39.377-2.28-58.114-16.876-66.91-28.72-9.68-13.038-9.836-25.468-9.838-25.99-.002-.51.187-.994.517-1.328.274-.28.625-.43.983-.43.07 0 .144.006.215.02 24.615 4.158 50.11 6.27 75.778 6.27 43.59 0 72.937-6.176 73.228-6.24.1-.02.19-.027.28-.027.39 0 .76.17 1.04.49.35.39.52.95.46 1.5-6.05 52.94-68.29 54.47-75.36 54.47m-.01 5.83h.01c7.53 0 73.71-1.67 80.33-59.52.28-2.39-.46-4.82-1.96-6.49-1.21-1.34-2.8-2.09-4.48-2.09-.39 0-.78.04-1.17.13-.29.07-29.39 6.14-72.32 6.14-25.42 0-50.68-2.09-75.06-6.2-.28-.05-.61-.08-.93-.08-1.57 0-3.08.66-4.26 1.86-1.43 1.45-2.24 3.55-2.23 5.76.01 1.53.36 15.38 11.06 29.78 9.43 12.7 29.31 28.35 70.44 30.73l.11.01h.48z"/><path fill="#2974A7" d="M137.986 118.95c0 3.863-5.16 6.992-11.52 6.992-6.355 0-11.526-3.13-11.526-6.993 0-3.87 5.172-7 11.525-7 6.36 0 11.52 3.13 11.52 6.99z"/></svg>