<svg xmlns="http://www.w3.org/2000/svg" width="256" height="256" viewBox="0 0 256 256"><path fill="#fff" d="M128.195 208.896c-53.67 0-97.336-35.926-97.336-80.084 0-1.042.02-2.11.08-3.2-2.67-2.293-5.09-4.906-7.52-8.092-2.63-3.484-4.76-6.997-6.54-10.76-2.14-4.577-3.41-8.685-4-12.944-.39-2.974-.38-5.66.03-8.253.33-1.895.73-3.322 1.28-4.686.39-1.05.97-2.122 1.28-2.676.35-.62.51-.87.76-1.2.07-.09.15-.21.36-.53l.08-.12.09-.12c2.51-3.33 5.62-5.22 7.79-6.21 2.32-1.06 4.83-1.76 7.68-2.13 1.45-.17 2.9-.26 4.36-.26 2.7 0 5.44.29 8.62.89 4.77 1 9.2 2.47 13.24 4.4 18.26-15.39 43.49-24.16 69.71-24.16 26.81 0 52.44 9.12 70.79 25.11 3.43-1.58 7.15-2.86 11.1-3.8 3.6-.8 6.67-1.16 9.72-1.16 1.08 0 2.18.05 3.26.15 2.91.29 5.44.92 7.79 1.92 2.2.95 5.36 2.75 7.96 5.99l.09.11.08.12c.22.32.32.45.39.54.26.33.42.57.81 1.2.32.53.93 1.58 1.35 2.63.77 1.77 1.16 3.45 1.39 4.56.49 2.62.59 5.31.29 8.29-.47 4.28-1.63 8.43-3.63 13.08-1.66 3.8-3.69 7.37-6.22 10.93-2.55 3.54-5.08 6.39-7.9 8.86.01.54.02 1.06.02 1.58 0 44.16-43.66 80.08-97.32 80.08z"/><path fill="#333" d="M128.195 52.735c27.952 0 53.024 10.02 70.127 25.888 3.98-2.1 8.25-3.633 12.695-4.698 2.795-.62 5.694-1.056 8.785-1.056.947 0 1.913.04 2.9.13 2.102.21 4.316.64 6.587 1.61 2.25.97 4.6 2.56 6.41 4.81.7 1.02.49.59 1.06 1.53.45.74.85 1.52 1.09 2.1.56 1.28.9 2.55 1.16 3.82.47 2.51.45 4.87.23 7.08-.49 4.4-1.76 8.26-3.33 11.89-1.58 3.62-3.53 6.99-5.81 10.2-2.32 3.21-4.92 6.26-8.36 9.09l-.28.23-.08.05c.06 1.12.1 2.24.1 3.38 0 42.02-41.78 76.08-93.32 76.08-51.55 0-93.34-34.07-93.34-76.09 0-1.68.07-3.34.2-4.99-3.45-2.7-6.1-5.63-8.46-8.73-2.38-3.15-4.41-6.46-6.11-10.04-1.68-3.58-3.05-7.41-3.66-11.79-.29-2.19-.38-4.55.02-7.08.23-1.28.53-2.57 1.06-3.86.21-.59.59-1.38 1.03-2.14.53-.95.34-.52 1.02-1.56 1.73-2.31 4.03-3.97 6.27-4.99 2.24-1.03 4.44-1.53 6.53-1.8 1.31-.16 2.59-.23 3.84-.23 2.74 0 5.34.33 7.87.82 5.13 1.07 10.05 2.78 14.58 5.26 17.08-15.33 41.72-24.96 69.12-24.96m0-8c-26.23 0-51.54 8.51-70.33 23.5-3.68-1.56-7.61-2.78-11.74-3.64l-.07-.02-.07-.02c-3.44-.66-6.41-.96-9.37-.96-1.61 0-3.23.09-4.8.28l-.04.01h-.04c-3.25.43-6.14 1.23-8.83 2.46-2.6 1.19-6.31 3.45-9.33 7.45l-.18.24-.16.26-.18.27c-.41.55-.67.95-1.08 1.69-.35.61-1.03 1.86-1.52 3.16-.85 2.1-1.25 4.06-1.48 5.36l-.02.08-.01.08c-.47 2.97-.48 6.03-.05 9.35v.07c.65 4.66 2.03 9.13 4.33 14.06 1.91 4.05 4.18 7.79 6.96 11.48 2.18 2.86 4.34 5.28 6.66 7.43-.01.5-.02.99-.02 1.47 0 22.78 10.75 44.09 30.28 60 19.05 15.53 44.28 24.09 71.05 24.09 26.76 0 51.99-8.56 71.04-24.09 19.48-15.88 30.22-37.13 30.28-59.84 2.49-2.37 4.8-5.05 7.09-8.24l.02-.03.02-.03c2.69-3.79 4.85-7.59 6.61-11.63 2.19-5.06 3.44-9.57 3.95-14.22v-.08c.34-3.36.23-6.43-.33-9.37l-.01-.06-.01-.06c-.42-2.02-.94-3.71-1.62-5.31-.53-1.29-1.24-2.53-1.63-3.17-.43-.72-.69-1.09-1.08-1.59-.04-.06-.11-.14-.25-.35l-.16-.23-.17-.22c-2.47-3.07-5.75-5.55-9.49-7.15-2.75-1.17-5.67-1.9-8.95-2.23l-.04-.01-.04-.01c-1.19-.1-2.41-.16-3.62-.16-3.34 0-6.68.4-10.52 1.25l-.06.01-.07.02c-3.31.8-6.48 1.81-9.48 3.04C180.73 53.56 155 44.7 128.16 44.7z"/><path fill="#676767" d="M62.52 84.28s-31.137-10.854-37.238-1.997c-6.09 8.853 7.295 30.076 17.736 37.27 0 .002-6.102-22.848 19.502-35.273z"/><path fill="#B3B3B3" d="M60.492 87.355c-5.23-2.967-11.418-4.5-17.355-4.888-2.95-.168-5.88.02-8.29.69-2.476.64-3.997 1.908-4.26 2.775-.317.825-.4 2.458.278 4.714.65 2.205 1.87 4.637 3.37 6.932 3.005 4.558 7.345 8.953 11.405 11.202 4.467 2.483 6.066 8.105 3.586 12.568-2.482 4.458-8.105 6.067-12.56 3.582-.41-.22-.784-.47-1.136-.74l-.324-.25c-3.518-2.734-6.21-5.707-8.605-8.846-2.37-3.15-4.41-6.46-6.1-10.042-1.67-3.582-3.04-7.405-3.65-11.79-.28-2.19-.37-4.55.02-7.08.23-1.277.53-2.566 1.07-3.857.21-.585.6-1.378 1.03-2.142.53-.948.35-.512 1.02-1.56 1.74-2.305 4.04-3.963 6.27-4.99 2.25-1.027 4.44-1.528 6.53-1.8 4.19-.507 8.04-.112 11.72.59 7.28 1.522 14.14 4.296 20.06 8.772 1.63 1.236 1.95 3.554.71 5.18-1.13 1.502-3.18 1.89-4.77.98z"/><path fill="#676767" d="M193.332 86.287c-11.564-5.204 30.814-11.737 37.166-3.058 6.342 8.68-3.926 27.01-14.158 34.49 0 0 2.94-19.75-23.008-31.44z"/><path fill="#B3B3B3" d="M191.215 83.268c5.79-4.65 12.57-7.61 19.803-9.343 3.652-.81 7.482-1.307 11.687-.926 2.103.21 4.317.64 6.588 1.61 2.258.97 4.603 2.56 6.41 4.81.71 1.02.498.59 1.067 1.53.453.74.857 1.52 1.09 2.1.563 1.28.902 2.55 1.164 3.82.478 2.51.45 4.87.23 7.08-.484 4.4-1.757 8.26-3.324 11.89-1.58 3.62-3.527 6.99-5.806 10.2-2.313 3.21-4.916 6.26-8.353 9.09l-.27.23c-3.94 3.23-9.76 2.67-13-1.27-3.23-3.94-2.67-9.77 1.27-13.01.36-.29.77-.58 1.15-.81 4-2.38 8.22-6.9 11.08-11.53 1.45-2.34 2.6-4.81 3.18-7.03.62-2.27.48-3.91.14-4.72-.28-.87-1.84-2.09-4.33-2.66-2.42-.61-5.37-.71-8.31-.46-5.92.56-12.06 2.27-17.2 5.38-1.74 1.06-4.01.51-5.08-1.24-.97-1.6-.58-3.66.85-4.8z"/><path fill="#fff" d="M221.516 128.813c0 42.02-41.774 76.086-93.32 76.086-51.55 0-93.336-34.07-93.336-76.09s41.787-76.08 93.336-76.08c51.544 0 93.32 34.06 93.32 76.07z"/><path fill="#B3B3B3" d="M209.427 120.838c0 36.902-36.46 66.818-81.432 66.818-44.963 0-81.42-29.916-81.42-66.818 0-36.915 36.457-66.83 81.42-66.83 44.97 0 81.432 29.915 81.432 66.83z"/><path fill="#999898" d="M127.995 190.563c-46.5 0-84.33-31.276-84.33-69.726 0-38.453 37.83-69.735 84.33-69.735 46.506 0 84.34 31.282 84.34 69.735 0 38.45-37.834 69.726-84.34 69.726zm0-133.645c-43.293 0-78.514 28.674-78.514 63.92 0 35.24 35.23 63.908 78.52 63.908s78.52-28.67 78.52-63.908c.01-35.246-35.22-63.92-78.52-63.92z"/><path fill="#2974A7" d="M139.52 102.312c0 3.863-5.16 6.992-11.52 6.992-6.355 0-11.52-3.13-11.52-6.992s5.165-6.993 11.52-6.993c6.36-.01 11.52 3.12 11.52 6.99z"/><path fill="#333" d="M143.4 94.67c-1.047 0-2.1-.373-2.934-1.128-1.783-1.62-1.92-5.422-.3-7.202 8.374-9.24 17.37-14.96 26.74-14.96h.083c13.31 0 22.13 10.743 22.5 11.15 1.6 1.8 1.46 5.084-.34 6.69-1.79 1.595-4.54 1.822-6.15.03-.07-.067-6.72-6.87-16.11-6.87h-.03c-6.8 0-13.61 3.628-20.25 10.956-.86.946-2.05 1.335-3.23 1.335zm-32.774-.004c-1.396 0-2.766-.665-3.613-1.904-.078-.11-7.8-11.246-18.252-11.963-5.94-.41-11.89 2.66-17.75 9.13-1.62 1.78-4.38 1.91-6.16.3-1.78-1.62-1.92-4.39-.3-6.17 7.77-8.57 16.1-12.61 24.88-11.98 14.7 1.05 24.41 15.17 24.82 15.77 1.35 1.99.83 4.69-1.16 6.04-.75.51-1.6.75-2.44.75z"/><path fill="#fff" d="M199.555 94.904c0 4.09-5.992 7.407-13.378 7.407-7.393 0-13.385-3.31-13.385-7.4 0-4.08 5.992-7.4 13.385-7.4 7.386 0 13.378 3.32 13.378 7.4zm-116.345 0c0 4.09-5.992 7.407-13.377 7.407-7.39 0-13.387-3.31-13.387-7.4 0-4.08 5.998-7.4 13.387-7.4 7.385 0 13.377 3.32 13.377 7.4zm-31.7 12.88c.194 0 .394.018.588.05 24.483 4.138 49.858 6.236 75.405 6.236 43.306 0 72.485-6.127 72.776-6.19.24-.05.48-.076.72-.076 1.03 0 2.01.46 2.76 1.29.92 1.024 1.37 2.518 1.2 3.993-6.34 55.396-70.55 56.996-77.85 56.996l-.49-.005c-40.25-2.33-59.56-17.45-68.68-29.723-10.28-13.842-10.45-27.32-10.45-27.887-.01-1.357.49-2.65 1.37-3.54.73-.737 1.66-1.144 2.62-1.144z"/><path fill="#999898" d="M183.014 110.745h7.5v35.57l-7.75 6.414zm-112.376 0h-7.5v35.57l7.75 6.414zm86.126 0h7.5v52.86l-7.75 3.995zm-33.5 4.255h7.5v54.35l-7.75-1.623zm-24.25-4.255h-7.5v52.86l7.75 3.995z"/><path fill="#333" d="M127.122 167.168l-.364-.002c-39.377-2.28-58.114-16.876-66.91-28.72-9.68-13.038-9.836-25.468-9.838-25.99-.002-.51.187-.994.517-1.328.274-.28.625-.43.983-.43.07 0 .144.006.215.02 24.615 4.158 50.11 6.27 75.778 6.27 43.59 0 72.937-6.176 73.228-6.24.1-.02.19-.027.28-.027.39 0 .76.17 1.04.49.35.39.52.95.46 1.5-6.05 52.94-68.29 54.47-75.36 54.47m-.01 5.83h.01c7.53 0 73.71-1.67 80.33-59.52.28-2.39-.46-4.82-1.96-6.49-1.21-1.34-2.8-2.09-4.48-2.09-.39 0-.78.04-1.17.13-.29.07-29.39 6.14-72.32 6.14-25.42 0-50.68-2.09-75.06-6.2-.28-.05-.61-.08-.93-.08-1.57 0-3.08.66-4.26 1.86-1.43 1.45-2.24 3.55-2.23 5.76.01 1.53.36 15.38 11.06 29.78 9.43 12.7 29.31 28.35 70.44 30.73l.11.01h.48z"/></svg>