<svg xmlns="http://www.w3.org/2000/svg" width="256" height="256" viewBox="0 0 256 256"><path fill="#676767" d="M62.52 83.466s-31.136-10.86-37.236-1.998c-6.092 8.855 7.292 30.076 17.735 37.267 0 0-6.11-22.842 19.5-35.27z"/><path fill="#B3B3B3" d="M60.49 86.542c-5.23-2.967-11.416-4.5-17.354-4.89-2.947-.166-5.88.02-8.286.69-2.478.637-4 1.907-4.263 2.78-.318.82-.404 2.456.28 4.714.646 2.2 1.866 4.635 3.368 6.932 3.005 4.55 7.346 8.947 11.407 11.202 4.463 2.48 6.066 8.104 3.583 12.563-2.482 4.46-8.107 6.065-12.56 3.584-.408-.223-.784-.47-1.138-.743l-.32-.253c-3.52-2.72-6.21-5.7-8.61-8.84-2.373-3.14-4.405-6.46-6.1-10.03-1.67-3.59-3.045-7.4-3.658-11.79-.29-2.19-.38-4.55.02-7.08.22-1.27.52-2.56 1.06-3.85.21-.58.59-1.38 1.03-2.14.53-.95.34-.52 1.02-1.56 1.73-2.3 4.03-3.96 6.27-4.99 2.24-1.03 4.44-1.52 6.53-1.8 4.19-.5 8.03-.11 11.71.59 7.27 1.53 14.13 4.3 20.06 8.78 1.62 1.24 1.94 3.56.71 5.18-1.13 1.5-3.18 1.89-4.77.98z"/><path fill="#676767" d="M193.334 85.474c-11.568-5.203 30.81-11.742 37.163-3.058 6.346 8.68-3.927 27.01-14.156 34.495 0 0 2.95-19.74-23-31.43z"/><path fill="#B3B3B3" d="M191.214 82.456c5.787-4.65 12.57-7.613 19.804-9.346 3.652-.813 7.48-1.307 11.687-.926 2.103.213 4.315.646 6.59 1.613 2.256.97 4.6 2.56 6.408 4.81.708 1.026.5.596 1.067 1.534.45.75.856 1.53 1.09 2.11.563 1.28.904 2.56 1.164 3.82.478 2.52.45 4.88.23 7.08-.483 4.41-1.756 8.26-3.323 11.9-1.57 3.63-3.52 7-5.8 10.21-2.31 3.21-4.91 6.26-8.35 9.09l-.27.23c-3.94 3.24-9.76 2.68-13-1.27-3.24-3.94-2.67-9.76 1.27-13 .36-.29.78-.58 1.15-.81 4-2.37 8.21-6.89 11.08-11.52 1.44-2.33 2.6-4.81 3.18-7.02.62-2.27.48-3.91.14-4.72-.28-.86-1.84-2.09-4.33-2.65-2.43-.6-5.37-.7-8.31-.45-5.91.56-12.06 2.27-17.21 5.39-1.74 1.06-4.01.5-5.07-1.24-.97-1.6-.58-3.65.85-4.79z"/><path fill="#fff" d="M221.518 127.997c0 42.02-41.78 76.086-93.32 76.086-51.55 0-93.335-34.063-93.335-76.086 0-42.018 41.786-76.08 93.336-76.08 51.53 0 93.31 34.062 93.31 76.08z"/><path fill="#B3B3B3" d="M207.29 125.838c0 36.905-36.46 66.817-81.43 66.817-44.963 0-81.423-29.912-81.423-66.817 0-36.91 36.46-66.83 81.424-66.83 44.97 0 81.43 29.92 81.43 66.83z"/><path fill="#999898" d="M125.86 195.564c-46.504 0-84.33-31.277-84.33-69.728 0-38.456 37.826-69.74 84.33-69.74 46.506 0 84.338 31.284 84.338 69.74 0 38.45-37.832 69.728-84.337 69.728zm0-133.647c-43.294 0-78.516 28.675-78.516 63.92 0 35.24 35.222 63.913 78.517 63.913 43.3 0 78.53-28.674 78.53-63.912 0-35.246-35.23-63.92-78.52-63.92z"/><path fill="#fff" d="M123.664 109.536c0 17.965-14.567 32.532-32.537 32.532-17.973 0-32.526-14.567-32.526-32.532 0-17.963 14.56-32.534 32.53-32.534s32.54 14.57 32.54 32.534z"/><path fill="#2974A7" d="M112.647 108.073c0 11.93-9.662 21.604-21.6 21.604-11.935 0-21.602-9.675-21.602-21.604 0-11.938 9.667-21.604 21.603-21.604 11.937 0 21.6 9.66 21.6 21.6z"/><path fill="#fff" d="M92.98 95.436c0 4.067-3.297 7.37-7.368 7.37-4.067 0-7.374-3.303-7.374-7.37 0-4.065 3.307-7.363 7.374-7.363 4.072 0 7.37 3.297 7.37 7.363zm2.887 7.952c0 1.906-1.568 3.455-3.472 3.455-1.902 0-3.468-1.55-3.468-3.455 0-1.915 1.565-3.462 3.468-3.462 1.904 0 3.472 1.547 3.472 3.462zm97.76 6.148c0 17.965-14.554 32.532-32.52 32.532-17.976 0-32.54-14.567-32.54-32.532 0-17.963 14.564-32.534 32.54-32.534 17.966 0 32.52 14.57 32.52 32.534z"/><path fill="#2974A7" d="M182.63 108.073c0 11.93-9.676 21.604-21.608 21.604-11.93 0-21.604-9.675-21.604-21.604 0-11.938 9.675-21.604 21.604-21.604 11.932 0 21.61 9.66 21.61 21.6z"/><path fill="#fff" d="M162.952 95.436c0 4.067-3.302 7.37-7.362 7.37-4.072 0-7.37-3.303-7.37-7.37 0-4.065 3.298-7.363 7.37-7.363 4.06 0 7.362 3.297 7.362 7.363zm2.886 7.952c0 1.906-1.556 3.455-3.465 3.455-1.916 0-3.46-1.55-3.46-3.455 0-1.915 1.544-3.462 3.46-3.462 1.91 0 3.465 1.547 3.465 3.462z"/><path fill="#333" d="M128.197 51.917c27.95 0 53.026 10.02 70.128 25.89 3.978-2.098 8.25-3.632 12.69-4.697 2.795-.622 5.69-1.057 8.78-1.057.948 0 1.917.042 2.906.13 2.11.214 4.32.647 6.6 1.614 2.26.97 4.6 2.56 6.41 4.81.71 1.026.5.596 1.07 1.534.45.75.86 1.53 1.09 2.11.57 1.28.91 2.56 1.17 3.82.48 2.52.45 4.88.23 7.08-.48 4.41-1.75 8.26-3.32 11.9-1.57 3.63-3.52 7-5.8 10.21-2.31 3.21-4.91 6.26-8.35 9.09l-.28.23c-.02.02-.04.04-.07.06.06 1.12.1 2.25.1 3.38 0 42.02-41.78 76.09-93.32 76.09-51.55 0-93.33-34.06-93.33-76.08 0-1.68.08-3.34.21-4.99-3.45-2.7-6.1-5.63-8.47-8.73-2.37-3.15-4.4-6.46-6.1-10.04-1.67-3.58-3.04-7.4-3.66-11.79-.28-2.19-.37-4.55.03-7.08.23-1.27.53-2.56 1.06-3.85.21-.58.6-1.38 1.03-2.14.53-.95.35-.52 1.02-1.56 1.74-2.29 4.04-3.95 6.27-4.98 2.24-1.03 4.44-1.52 6.53-1.8 1.32-.16 2.6-.23 3.86-.23 2.74 0 5.34.34 7.86.82 5.13 1.08 10.05 2.79 14.59 5.27 17.06-15.35 41.7-24.97 69.1-24.97m0-8c-26.23 0-51.54 8.51-70.33 23.5-3.67-1.55-7.59-2.77-11.73-3.64l-.07-.02-.07-.01c-3.42-.65-6.4-.96-9.36-.96-1.61 0-3.23.1-4.81.29l-.04.01-.04.01c-3.27.43-6.16 1.24-8.83 2.47-3.7 1.71-6.92 4.28-9.31 7.43l-.18.24-.16.25c-.12.19-.17.27-.21.32-.38.51-.64.92-1.05 1.65-.38.67-1.04 1.9-1.52 3.19-.85 2.11-1.25 4.06-1.48 5.36l-.01.07-.01.08c-.46 2.96-.48 6.02-.05 9.34l.01.05.01.04c.65 4.65 2.03 9.13 4.33 14.07 1.93 4.07 4.2 7.81 6.97 11.48l.02.02.02.02c2.17 2.83 4.33 5.24 6.64 7.39-.01.5-.02.99-.02 1.47 0 22.77 10.76 44.08 30.29 60 19.05 15.53 44.28 24.09 71.05 24.09s52-8.56 71.04-24.09c19.48-15.88 30.23-37.12 30.28-59.84 2.5-2.37 4.8-5.05 7.1-8.23l.02-.03.02-.02c2.7-3.8 4.86-7.6 6.62-11.64 2.19-5.05 3.44-9.56 3.94-14.22l.01-.04.01-.03c.34-3.36.23-6.42-.32-9.36l-.01-.06-.01-.06c-.41-2.03-.93-3.73-1.63-5.33-.49-1.2-1.14-2.36-1.61-3.14-.44-.73-.69-1.1-1.08-1.59-.05-.06-.11-.14-.25-.34l-.16-.24-.19-.23c-3.12-3.88-6.88-6.03-9.48-7.15-2.74-1.16-5.66-1.89-8.94-2.22h-.08c-1.19-.11-2.42-.16-3.63-.16-3.35 0-6.69.39-10.51 1.24l-.06.02-.06.02c-3.31.79-6.48 1.81-9.47 3.03-18.91-15.59-44.64-24.44-71.48-24.44z"/><path fill="#B3B3B3" d="M58.874 105.385c-.174 1.36-.273 2.744-.273 4.15 0 17.966 14.56 32.533 32.53 32.533 13.92 0 25.79-8.738 30.44-21.022-12.15-7.046-43.99-13.613-62.69-15.66zm134.706.125c.174 1.36.273 2.744.273 4.15 0 17.966-14.553 32.533-32.526 32.533-13.915 0-25.784-8.738-30.435-21.022 12.152-7.04 43.992-13.61 62.688-15.66z"/><path fill="#fff" d="M51.51 120.284c.194 0 .394.018.588.05 24.483 4.138 49.858 6.236 75.405 6.236 43.306 0 72.486-6.127 72.776-6.19.24-.05.48-.076.72-.076 1.03 0 2.01.46 2.76 1.29.92 1.024 1.37 2.518 1.2 3.993-6.34 55.396-70.55 56.996-77.85 56.996l-.49-.005c-40.25-2.33-59.56-17.45-68.68-29.722-10.28-13.842-10.45-27.32-10.45-27.887-.01-1.36.49-2.65 1.37-3.54.73-.74 1.66-1.15 2.62-1.15z"/><path fill="#999898" d="M183.014 123.245h7.5v35.57l-7.75 6.414zm-112.376 0h-7.5v35.57l7.75 6.414zm86.126 0h7.5v52.86l-7.75 3.995zm-33.5 4.255h7.5v54.35l-7.75-1.624zm-24.25-4.255h-7.5v52.86l7.75 3.995z"/><path fill="#333" d="M127.122 179.668l-.364-.002c-39.377-2.28-58.114-16.876-66.91-28.72-9.68-13.038-9.836-25.468-9.838-25.99-.002-.51.187-.994.517-1.328.274-.28.625-.43.983-.43.07 0 .144.006.215.02 24.615 4.158 50.11 6.268 75.778 6.268 43.59 0 72.937-6.175 73.228-6.238.1-.02.19-.028.28-.028.39 0 .76.17 1.04.483.35.387.52.944.46 1.497-6.05 52.94-68.29 54.468-75.36 54.468m-.01 5.83h.01c7.53 0 73.71-1.67 80.33-59.526.28-2.396-.45-4.823-1.96-6.492-1.21-1.345-2.8-2.09-4.48-2.09-.39 0-.78.04-1.17.124-.29.063-29.39 6.142-72.32 6.142-25.42 0-50.68-2.09-75.06-6.207-.28-.05-.61-.08-.93-.08-1.57 0-3.08.66-4.26 1.86-1.43 1.44-2.24 3.54-2.23 5.75.01 1.53.36 15.38 11.06 29.78 9.43 12.7 29.31 28.34 70.44 30.72h.6z"/><path fill="#2974A7" d="M137.984 118.948c0 3.862-5.157 6.993-11.52 6.993-6.358 0-11.523-3.13-11.523-6.99 0-3.86 5.17-6.99 11.53-6.99 6.37 0 11.52 3.13 11.52 6.99z"/></svg>