<svg xmlns="http://www.w3.org/2000/svg" width="256" height="256" viewBox="0 0 256 256"><path fill="#fff" d="M128.196 208.082c-53.67 0-97.334-35.926-97.334-80.085 0-1.04.027-2.11.08-3.198-2.666-2.3-5.09-4.91-7.52-8.1-2.613-3.46-4.748-6.97-6.54-10.75-2.14-4.59-3.41-8.7-4.003-12.96-.39-2.98-.38-5.66.03-8.25.24-1.34.58-2.98 1.28-4.69.39-1.06.97-2.13 1.28-2.68.35-.63.51-.88.76-1.21.07-.09.15-.21.36-.54l.08-.13.09-.12c2.52-3.33 5.63-5.22 7.79-6.21 2.33-1.07 4.84-1.77 7.68-2.13 1.46-.18 2.91-.26 4.37-.26 2.7 0 5.44.28 8.61.89 4.77.99 9.2 2.47 13.24 4.4C76.7 56.67 101.94 47.9 128.16 47.9c26.81 0 52.44 9.12 70.782 25.1 3.44-1.59 7.16-2.86 11.104-3.81 3.604-.8 6.67-1.17 9.72-1.17 1.09 0 2.187.05 3.26.14 2.896.29 5.43.91 7.785 1.91 2.22.96 5.38 2.76 7.97 5.99l.09.11.08.11c.23.322.33.45.4.544.26.33.43.566.81 1.2.56.91 1.04 1.847 1.36 2.635.59 1.35 1.03 2.81 1.4 4.57.5 2.62.59 5.31.29 8.29-.47 4.27-1.62 8.41-3.63 13.07-1.64 3.77-3.67 7.34-6.21 10.93-2.55 3.54-5.09 6.38-7.89 8.86.02.54.02 1.06.02 1.58 0 44.16-43.65 80.08-97.32 80.08z"/><path fill="#333" d="M128.196 51.92c27.95 0 53.023 10.02 70.126 25.888 3.98-2.1 8.252-3.634 12.695-4.7 2.795-.62 5.693-1.056 8.787-1.056.946 0 1.912.04 2.897.13 2.1.21 4.32.65 6.59 1.612 2.26.975 4.61 2.566 6.41 4.813.71 1.023.5.593 1.07 1.534.46.75.86 1.53 1.09 2.11.56 1.28.9 2.55 1.17 3.83.48 2.51.45 4.88.23 7.08-.48 4.4-1.75 8.26-3.32 11.9-1.57 3.62-3.52 6.99-5.8 10.2-2.31 3.21-4.91 6.26-8.35 9.09l-.28.23c-.02.02-.05.04-.07.06.07 1.12.1 2.25.1 3.38 0 42.02-41.78 76.09-93.32 76.09-51.55 0-93.33-34.06-93.33-76.08 0-1.67.08-3.34.21-4.99-3.45-2.7-6.1-5.63-8.46-8.73-2.37-3.14-4.41-6.46-6.1-10.04-1.67-3.58-3.04-7.4-3.66-11.79-.28-2.19-.37-4.55.02-7.07.23-1.28.53-2.57 1.07-3.86.21-.58.59-1.38 1.03-2.14.53-.95.34-.51 1.02-1.56 1.74-2.3 4.03-3.96 6.27-4.99 2.24-1.02 4.44-1.53 6.53-1.8 1.32-.16 2.6-.23 3.85-.23 2.74 0 5.34.34 7.86.82 5.14 1.08 10.05 2.79 14.59 5.26 17.07-15.32 41.72-24.95 69.12-24.95m0-8c-26.23 0-51.54 8.51-70.33 23.5-3.68-1.55-7.61-2.77-11.74-3.64l-.07-.01-.06-.01c-3.42-.65-6.4-.96-9.37-.96-1.61 0-3.23.1-4.8.29l-.03.01-.04.01c-3.25.43-6.14 1.23-8.83 2.46-3.72 1.71-6.94 4.28-9.33 7.44l-.18.24-.16.26-.18.27c-.4.54-.66.94-1.07 1.68-.37.65-1.04 1.89-1.52 3.18-.83 2.02-1.23 3.91-1.49 5.34l-.01.09-.01.09c-.46 2.97-.48 6.03-.05 9.35l.01.04.01.04c.65 4.66 2.03 9.13 4.33 14.07 1.94 4.07 4.21 7.82 6.98 11.48 2.18 2.85 4.34 5.27 6.66 7.43-.01.49-.01.98-.01 1.47 0 22.77 10.76 44.08 30.28 60 19.05 15.53 44.28 24.08 71.05 24.08 26.76 0 51.99-8.56 71.04-24.09 19.48-15.88 30.22-37.12 30.27-59.83 2.5-2.37 4.8-5.05 7.1-8.23l.02-.03.02-.03c2.7-3.81 4.86-7.61 6.61-11.63 2.18-5.06 3.43-9.57 3.94-14.22V94c.34-3.36.23-6.425-.33-9.38l-.01-.06-.01-.06c-.41-2.02-.93-3.71-1.62-5.31-.54-1.304-1.25-2.542-1.64-3.18-.43-.705-.68-1.08-1.06-1.57-.05-.06-.11-.144-.26-.355l-.16-.23-.18-.22c-3.11-3.87-6.86-6.02-9.47-7.146l-.03-.01-.03-.01c-2.73-1.16-5.64-1.88-8.9-2.21l-.04-.01-.04-.01c-1.19-.11-2.41-.17-3.62-.17-3.35 0-6.69.39-10.52 1.24l-.06.01-.06.01c-3.31.8-6.49 1.81-9.48 3.04-18.91-15.6-44.64-24.45-71.48-24.45z"/><path fill="#676767" d="M62.518 83.465s-31.137-10.855-37.236-2c-6.092 8.856 7.293 30.08 17.736 37.27 0 0-6.1-22.847 19.5-35.27z"/><path fill="#B3B3B3" d="M60.49 86.54c-5.23-2.967-11.417-4.5-17.354-4.888-2.947-.17-5.88.016-8.29.688-2.474.643-3.997 1.91-4.26 2.777-.317.824-.4 2.46.28 4.716.646 2.202 1.87 4.636 3.37 6.93 3.005 4.556 7.345 8.954 11.405 11.202 4.47 2.484 6.07 8.108 3.59 12.566-2.48 4.47-8.1 6.07-12.56 3.59-.41-.22-.78-.47-1.13-.74l-.32-.25c-3.52-2.73-6.21-5.7-8.6-8.84-2.37-3.14-4.41-6.46-6.1-10.04-1.67-3.58-3.04-7.4-3.66-11.79-.28-2.19-.37-4.54.02-7.07.23-1.28.53-2.57 1.07-3.85.21-.58.6-1.38 1.03-2.14.53-.95.35-.51 1.02-1.56 1.74-2.3 4.04-3.96 6.28-4.99 2.25-1.02 4.44-1.53 6.53-1.8 4.2-.5 8.04-.11 11.72.59 7.28 1.53 14.14 4.3 20.06 8.77 1.63 1.24 1.95 3.56.71 5.19-1.13 1.5-3.18 1.89-4.77.98z"/><path fill="#676767" d="M193.333 85.47c-11.565-5.205 30.813-11.735 37.166-3.056 6.34 8.68-3.93 27.014-14.16 34.494 0 0 2.94-19.745-23.01-31.437z"/><path fill="#B3B3B3" d="M191.214 82.453c5.79-4.65 12.572-7.61 19.806-9.345 3.65-.81 7.48-1.307 11.687-.927 2.1.22 4.315.66 6.588 1.62 2.256.98 4.603 2.57 6.408 4.82.71 1.03.498.6 1.067 1.54.455.75.856 1.53 1.092 2.11.562 1.28.902 2.55 1.164 3.82.478 2.52.45 4.88.226 7.08-.48 4.4-1.754 8.26-3.32 11.9-1.577 3.62-3.526 6.99-5.805 10.2-2.313 3.21-4.916 6.26-8.353 9.09l-.278.23c-3.943 3.24-9.763 2.67-13.004-1.26-3.238-3.94-2.67-9.76 1.268-13 .357-.29.773-.58 1.148-.81 3.997-2.37 8.215-6.89 11.075-11.52 1.442-2.33 2.597-4.81 3.177-7.02.62-2.27.475-3.91.14-4.71-.28-.86-1.843-2.09-4.333-2.66-2.424-.6-5.368-.7-8.31-.45-5.922.56-12.062 2.27-17.208 5.38-1.75 1.07-4.02.51-5.08-1.23-.98-1.6-.58-3.66.84-4.8z"/><path fill="#fff" d="M221.518 127.997c0 42.02-41.778 76.085-93.32 76.085-51.55 0-93.335-34.063-93.335-76.085 0-42.016 41.785-76.077 93.334-76.077 51.54 0 93.32 34.06 93.32 76.077z"/><path fill="#B3B3B3" d="M201.51 125.838c0 34.278-33.87 62.074-75.65 62.074-41.77 0-75.64-27.796-75.64-62.074 0-34.29 33.868-62.086 75.64-62.086 41.78 0 75.65 27.796 75.65 62.086z"/><path fill="#999898" d="M125.86 190.823c-43.31 0-78.55-29.157-78.55-64.985 0-35.84 35.24-64.994 78.55-64.994 43.315 0 78.555 29.155 78.555 64.994 0 35.828-35.24 64.985-78.555 64.985zm0-124.16c-40.105 0-72.73 26.546-72.73 59.175 0 32.625 32.625 59.168 72.73 59.168 40.11 0 72.742-26.543 72.742-59.168 0-32.63-32.63-59.175-72.742-59.175z"/><path fill="#fff" d="M200.07 121.168c0 19.962-16.18 36.146-36.144 36.146-19.967 0-36.146-16.187-36.146-36.146s16.18-36.143 36.146-36.143 36.144 16.182 36.144 36.143zm-75.624 0c0 19.962-16.18 36.146-36.14 36.146-19.97 0-36.147-16.187-36.147-36.146S68.33 85.025 88.3 85.025c19.96 0 36.14 16.182 36.14 36.143z"/><path fill="#2974A7" d="M123.848 119.544c0 13.253-10.74 24.005-24 24.005s-24-10.76-24-24.01c0-13.26 10.74-24.01 24-24.01s24 10.75 24 24z"/><path fill="#fff" d="M96.18 112.614c0 4.52-3.666 8.18-8.188 8.18s-8.186-3.658-8.186-8.18 3.664-8.182 8.186-8.182 8.188 3.662 8.188 8.182zm9.02 8.836c0 2.116-1.732 3.837-3.852 3.837-2.117 0-3.846-1.72-3.846-3.838 0-2.14 1.73-3.85 3.846-3.85 2.12 0 3.852 1.71 3.852 3.85z"/><path fill="#2974A7" d="M199.475 119.544c0 13.253-10.742 24.005-24 24.005-13.263 0-24.002-10.76-24.002-24.01 0-13.26 10.74-24.01 24.002-24.01 13.255 0 24 10.75 24 24z"/><path fill="#fff" d="M171.805 112.614c0 4.52-3.666 8.18-8.187 8.18-4.525 0-8.188-3.658-8.188-8.18s3.662-8.182 8.188-8.182c4.52 0 8.187 3.662 8.187 8.182zm9.018 8.836c0 2.116-1.732 3.837-3.853 3.837-2.12 0-3.847-1.72-3.847-3.838 0-2.14 1.728-3.85 3.847-3.85 2.12 0 3.853 1.71 3.853 3.85z"/><path fill="#333" d="M127.62 182.17c-3.216 0-5-2.6-5-5.816V141.45c0-3.216 1.784-5.816 5-5.816 3.214 0 5 2.603 5 5.816v34.903c0 3.217-1.786 5.818-5 5.818z"/><path fill="#2974A7" d="M139.52 142.215c0 3.865-5.157 6.992-11.52 6.992-6.357 0-11.52-3.127-11.52-6.992 0-3.863 5.163-6.99 11.52-6.99 6.363 0 11.52 3.127 11.52 6.99z"/><path fill="#B3B3B3" d="M88.25 82.875c-19.968 0-36.09 18.332-36.09 38.293 0 2.826.334 5.573.947 8.213h70.39c.614-2.64.95-5.38.95-8.21 0-19.96-16.236-38.29-36.197-38.29z"/><path fill="#999898" d="M124.296 124.38H52.31c.15 1.705.42 3.373.797 5h70.39c.378-1.627.65-3.295.8-5z"/><path fill="#B3B3B3" d="M164.125 83.75c-19.968 0-36.403 17.77-36.403 37.73 0 2.826.335 5.573.948 8.213h70.39c.614-2.64.948-5.387.948-8.213 0-19.96-15.922-37.73-35.883-37.73z"/><path fill="#999898" d="M199.857 124.693H127.87c.15 1.704.42 3.372.8 5h70.39c.378-1.628.648-3.296.797-5zm-73.997 66.13c-43.31 0-78.55-29.157-78.55-64.985 0-35.84 35.24-64.994 78.55-64.994 43.315 0 78.555 29.155 78.555 64.994 0 35.828-35.24 64.985-78.555 64.985zm0-124.16c-40.105 0-72.73 26.546-72.73 59.175 0 32.625 32.625 59.168 72.73 59.168 40.11 0 72.742-26.543 72.742-59.168 0-32.63-32.63-59.175-72.742-59.175z"/><path fill="#333" d="M127.026 186.152c-4.848 0-10.168-1.107-15.912-3.81-2.91-1.36-4.158-4.827-2.795-7.737 1.36-2.9 4.82-4.158 7.73-2.793 19.14 9.006 29.26-7.418 30.36-9.32 1.58-2.777 5.12-3.75 7.91-2.17 2.78 1.578 3.77 5.1 2.21 7.89-4.12 7.333-14.54 17.94-29.52 17.94z"/></svg>