<svg xmlns="http://www.w3.org/2000/svg" width="256" height="256" viewBox="0 0 256 256"><path fill="#fff" d="M128.194 208.08c-53.67 0-97.335-35.925-97.335-80.084 0-1.04.02-2.11.08-3.2-2.66-2.285-5.08-4.896-7.52-8.088-2.63-3.48-4.76-6.995-6.54-10.762-2.14-4.584-3.41-8.69-4-12.943-.39-2.985-.38-5.67.03-8.254.32-1.86.73-3.33 1.28-4.69.38-1.04.96-2.11 1.27-2.66.36-.65.52-.89.77-1.23.07-.09.16-.22.36-.54l.08-.13.09-.12c2.52-3.34 5.63-5.22 7.8-6.22 2.32-1.07 4.83-1.76 7.68-2.13 1.45-.18 2.9-.27 4.36-.27 2.7 0 5.44.28 8.62.89 4.77.99 9.2 2.47 13.24 4.4 18.25-15.38 43.49-24.16 69.71-24.16 26.81 0 52.44 9.12 70.79 25.1 3.43-1.58 7.16-2.86 11.1-3.81 3.6-.8 6.67-1.17 9.72-1.17 1.08 0 2.18.05 3.26.14 2.9.29 5.44.91 7.79 1.91 2.2.95 5.36 2.75 7.96 5.99l.08.11.08.11c.22.32.32.45.39.54.26.34.43.57.82 1.22.53.87 1.02 1.83 1.35 2.62.59 1.35 1.03 2.81 1.39 4.56.5 2.62.59 5.31.29 8.29-.47 4.29-1.62 8.43-3.63 13.08-1.66 3.8-3.69 7.37-6.22 10.93-2.56 3.54-5.09 6.39-7.89 8.86.01.54.02 1.06.02 1.58 0 44.15-43.66 80.08-97.33 80.08zM211.97 87.204c2.247 3.12 4.23 6.358 5.938 9.696.23-.346.454-.692.668-1.04 1.295-2.098 2.26-4.207 2.712-5.937.236-.87.298-1.513.298-1.906-.308-.173-.813-.397-1.517-.558-1.29-.32-2.83-.48-4.51-.48-.83 0-1.7.03-2.58.11-.34.03-.68.07-1.02.11zm-177.62-.39c.013.39.092 1.02.346 1.86.512 1.747 1.534 3.832 2.886 5.9.377.57.778 1.14 1.2 1.704 1.883-3.59 4.086-7.063 6.595-10.396-.83-.103-1.664-.183-2.503-.238-.56-.032-1.15-.05-1.736-.05-2 0-3.803.208-5.214.602-.748.195-1.265.437-1.575.62z"/><path fill="#333" d="M128.194 51.92c27.948 0 53.022 10.018 70.126 25.887 3.98-2.1 8.25-3.633 12.696-4.698 2.794-.62 5.694-1.06 8.786-1.06.947 0 1.913.04 2.9.13 2.1.21 4.315.64 6.587 1.61 2.25.97 4.6 2.56 6.41 4.81.71 1.02.5.59 1.06 1.53.45.74.85 1.52 1.09 2.1.56 1.28.9 2.55 1.16 3.82.47 2.51.45 4.87.23 7.08-.49 4.4-1.76 8.26-3.33 11.89-1.58 3.62-3.53 6.99-5.81 10.2-2.31 3.21-4.91 6.26-8.35 9.09l-.28.23c-.02.02-.05.03-.07.05.06 1.12.09 2.24.09 3.38 0 42.02-41.78 76.08-93.32 76.08-51.55 0-93.34-34.06-93.34-76.09 0-1.68.07-3.34.2-4.99-3.45-2.71-6.1-5.64-8.46-8.73-2.38-3.15-4.41-6.46-6.11-10.04-1.67-3.59-3.05-7.41-3.66-11.79-.29-2.2-.38-4.56.02-7.08.22-1.28.53-2.57 1.06-3.86.21-.59.6-1.38 1.03-2.14.53-.95.34-.52 1.02-1.56 1.74-2.31 4.03-3.97 6.27-4.99 2.24-1.03 4.44-1.53 6.53-1.8 1.31-.16 2.59-.23 3.84-.23 2.74 0 5.34.33 7.87.82 5.13 1.07 10.04 2.78 14.58 5.26 17.09-15.32 41.73-24.95 69.13-24.95m-88.38 51.57c3.04-7.29 7.4-14.08 12.85-20.18-3.13-.9-6.36-1.45-9.53-1.65-.67-.04-1.34-.06-2-.06-2.25 0-4.43.23-6.29.75-2.48.64-4 1.91-4.26 2.77-.32.82-.4 2.45.28 4.71.64 2.21 1.86 4.64 3.36 6.93 1.57 2.38 3.51 4.71 5.58 6.72m177.14.99c1.87-1.98 3.61-4.23 5.02-6.51 1.44-2.34 2.6-4.81 3.18-7.03.62-2.27.48-3.91.14-4.72-.29-.86-1.85-2.09-4.34-2.66-1.62-.4-3.47-.58-5.39-.58-.96 0-1.94.04-2.92.12-2.61.24-5.26.73-7.85 1.45 5.17 6.05 9.3 12.75 12.15 19.91M128.17 43.9c-26.23 0-51.54 8.51-70.327 23.496-3.68-1.554-7.61-2.773-11.74-3.64l-.07-.01-.07-.01c-3.44-.66-6.416-.96-9.37-.96-1.61 0-3.23.092-4.8.282h-.04l-.04.004c-3.25.423-6.136 1.23-8.826 2.46-3.714 1.7-6.938 4.274-9.33 7.44l-.18.24-.16.25c-.087.13-.14.212-.18.27-.41.55-.67.954-1.09 1.7-.44.776-1.054 1.95-1.51 3.156-.656 1.62-1.13 3.335-1.49 5.383l-.013.07-.01.07c-.465 2.97-.482 6.02-.052 9.35l.007.05.01.04c.65 4.66 2.03 9.13 4.33 14.06 1.91 4.06 4.19 7.8 6.96 11.48l.02.02.01.02c2.16 2.83 4.32 5.25 6.63 7.39-.01.5-.02.99-.02 1.47 0 22.77 10.75 44.08 30.28 60 19.05 15.53 44.28 24.09 71.05 24.09s52-8.55 71.05-24.08c19.48-15.88 30.22-37.12 30.28-59.83 2.49-2.37 4.79-5.04 7.09-8.24l.02-.02.01-.02c2.69-3.79 4.85-7.59 6.61-11.63 2.18-5.06 3.43-9.56 3.94-14.22v-.07c.33-3.36.22-6.43-.33-9.37l-.02-.06-.02-.06c-.42-2.02-.94-3.71-1.63-5.32-.4-.97-.97-2.08-1.62-3.15-.44-.73-.7-1.11-1.09-1.6-.05-.06-.11-.14-.26-.35l-.16-.22-.17-.21c-3.12-3.88-6.88-6.03-9.49-7.15-2.76-1.17-5.67-1.89-8.95-2.22h-.08c-1.19-.11-2.41-.16-3.62-.16-3.34 0-6.69.4-10.52 1.25l-.07.02-.07.02c-3.32.8-6.49 1.81-9.48 3.04-18.91-15.6-44.64-24.45-71.48-24.45z"/><path fill="#676767" d="M62.523 83.464s-31.14-10.854-37.24-1.997c-6.09 8.853 7.293 30.076 17.734 37.27 0 0-6.1-22.848 19.506-35.273z"/><path fill="#B3B3B3" d="M60.49 86.54c-5.23-2.968-11.416-4.5-17.355-4.89-2.943-.167-5.88.02-8.285.69-2.477.642-4.002 1.91-4.262 2.776-.32.825-.402 2.458.28 4.714.645 2.205 1.866 4.637 3.366 6.932 3.006 4.558 7.346 8.953 11.406 11.202 4.467 2.483 6.07 8.106 3.584 12.568-2.48 4.458-8.104 6.067-12.557 3.582-.408-.22-.787-.47-1.14-.74l-.32-.25c-3.52-2.734-6.21-5.707-8.608-8.846-2.38-3.15-4.41-6.46-6.11-10.042-1.67-3.582-3.05-7.405-3.66-11.79-.29-2.19-.38-4.55.02-7.08.22-1.277.53-2.566 1.06-3.857.21-.59.59-1.38 1.02-2.15.53-.95.34-.51 1.02-1.56 1.74-2.31 4.03-3.97 6.27-4.99 2.24-1.03 4.44-1.53 6.53-1.8 4.19-.51 8.03-.11 11.71.59 7.28 1.52 14.13 4.29 20.06 8.77 1.62 1.23 1.94 3.55.71 5.18-1.13 1.5-3.18 1.88-4.78.98z"/><path fill="#676767" d="M193.333 85.47c-11.568-5.203 30.81-11.736 37.166-3.057 6.34 8.682-3.93 27.014-14.16 34.493 0 0 2.94-19.744-23.01-31.435z"/><path fill="#B3B3B3" d="M191.212 82.45c5.79-4.65 12.572-7.608 19.805-9.342 3.65-.81 7.482-1.307 11.686-.926 2.1.21 4.316.647 6.588 1.613 2.26.97 4.61 2.562 6.41 4.813.72 1.02.5.59 1.07 1.533.46.75.86 1.53 1.09 2.11.57 1.28.91 2.56 1.17 3.83.48 2.52.45 4.88.23 7.08-.48 4.4-1.75 8.26-3.32 11.9-1.58 3.62-3.52 6.99-5.8 10.2-2.31 3.22-4.91 6.27-8.35 9.09l-.27.23c-3.94 3.24-9.76 2.67-13-1.26-3.23-3.94-2.66-9.76 1.27-13 .36-.29.77-.58 1.15-.81 4-2.37 8.21-6.89 11.08-11.52 1.44-2.33 2.6-4.81 3.18-7.02.62-2.27.48-3.91.14-4.71-.29-.86-1.84-2.09-4.34-2.66-2.42-.6-5.36-.7-8.31-.45-5.92.56-12.06 2.27-17.2 5.38-1.74 1.07-4.02.51-5.08-1.23-.97-1.6-.58-3.66.85-4.8z"/><path fill="#fff" d="M221.515 127.996c0 42.02-41.78 76.085-93.32 76.085-51.546 0-93.335-34.06-93.335-76.08 0-42.01 41.79-76.07 93.335-76.07 51.54 0 93.32 34.06 93.32 76.08z"/><path fill="#B3B3B3" d="M201.507 120.02c0 34.276-33.87 62.077-75.646 62.077-41.77 0-75.63-27.8-75.63-62.076 0-34.28 33.87-62.08 75.64-62.08 41.78 0 75.65 27.8 75.65 62.09z"/><path fill="#999898" d="M125.86 185.003c-43.31 0-78.55-29.152-78.55-64.98 0-35.844 35.24-64.996 78.55-64.996 43.317 0 78.553 29.152 78.553 64.995 0 35.83-35.236 64.98-78.552 64.98zm0-124.158c-40.104 0-72.733 26.546-72.733 59.177 0 32.624 32.63 59.165 72.734 59.165 40.11 0 72.74-26.54 72.74-59.165 0-32.63-32.63-59.177-72.74-59.177z"/><path fill="#333" d="M128.12 147.266c-3.216 0-6.5-2.6-6.5-5.816v-34.903c0-3.214 3.284-5.817 6.5-5.817 3.218 0 6.5 2.604 6.5 5.817v34.903c0 3.216-3.282 5.816-6.5 5.816z"/><path fill="#2974A7" d="M137.985 107.312c0 3.865-5.16 6.995-11.52 6.995-6.36 0-11.524-3.13-11.524-6.995 0-3.86 5.17-6.99 11.53-6.99 6.36-.002 11.52 3.128 11.52 6.99z"/><path fill="#C1272D" d="M108.927 114.692c-.115-.114.465.5.377.468.008.04.014.093.023.158.168.186.354.396.566.637.867.986 2.432 2.53 4.49 4.15 1.02.85 2.17 1.677 3.434 2.482 1.23.93 2.615 1.512 4.018 2.385 1.434.536 2.914 1.508 4.465 1.888l2.345.83 2.404.522c1.62.512 3.26.455 4.91.687 1.67.24 3.31-.11 4.96-.05 1.65-.06 3.24-.57 4.81-.75 1.58-.12 3.02-.91 4.42-1.26 1.38-.48 2.71-.73 3.81-1.38 1.13-.55 2.11-1.02 2.93-1.41 1.66-.77 2.6-1.21 2.6-1.21l2.48-1.15c8.39-3.9 18.36-.25 22.25 8.15 3.38 7.29 1.07 15.76-5.1 20.42 0 0-1.29.96-3.53 2.66-1.14.85-2.52 1.87-4.11 3.05-1.52 1.25-3.62 2.3-5.79 3.56-2.24 1.17-4.47 2.75-7.31 3.77-2.78 1.07-5.64 2.44-8.85 3.33-3.24.78-6.56 1.9-10.11 2.31-3.53.42-7.17 1.02-10.81.88l-5.48-.06c-1.81-.2-3.6-.39-5.38-.58-3.62-.3-6.93-1.27-10.29-1.96-3.19-.98-6.4-1.82-9.19-3-2.88-1.08-5.52-2.25-7.89-3.46-4.79-2.36-8.57-4.74-11.29-6.65-.69-.49-1.29-.93-1.83-1.31-.67-.53-1.23-.99-1.68-1.35l-1.02-.82c-9.94-9.48-10.32-25.21-.84-35.15 9.47-9.94 25.21-10.32 35.15-.85z"/><path fill="#333" d="M66.005 105.49c-.84 0-1.688-.243-2.434-.75-1.99-1.35-2.52-4.064-1.17-6.06.41-.6 10.11-14.716 24.82-15.766 8.8-.56 17.11 3.413 24.88 11.975 1.62 1.78 1.49 4.54-.3 6.16s-4.54 1.48-6.16-.3c-5.88-6.49-11.75-9.53-17.79-9.14-10.35.73-18.13 11.83-18.21 11.95-.84 1.25-2.21 1.92-3.62 1.92zm117.965-1.028c-1.352 0-2.68-.624-3.53-1.798-5.15-7.072-10.774-10.77-16.71-10.984-.188-.013-.377-.013-.56-.013-10.132 0-18.745 9.835-18.83 9.937-1.56 1.847-4.32 2.063-6.147.512-1.838-1.556-2.066-4.308-.512-6.147.46-.54 11.19-13.03 25.48-13.03.3 0 .6 0 .89.01 8.76.31 16.64 5.22 23.45 14.57 1.43 1.95.99 4.67-.95 6.1-.77.56-1.68.83-2.56.83z"/><path fill="#fff" d="M192.6 108.012s-12.603 25.682-2.423 29.563c10.183 3.88 15.023-10.163 2.422-29.563z"/></svg>