<svg xmlns="http://www.w3.org/2000/svg" width="256" height="256" viewBox="0 0 256 256"><path fill="#B3B3B3" d="M128.197 208.083c-53.672 0-97.338-35.927-97.338-80.086 0-1.042.02-2.113.08-3.202-2.66-2.282-5.08-4.893-7.52-8.084-2.63-3.48-4.76-7-6.54-10.75-2.14-4.6-3.41-8.71-4.01-12.95-.39-2.98-.38-5.67.03-8.25.23-1.31.58-2.94 1.28-4.67.38-1.02.96-2.11 1.28-2.67.35-.63.52-.88.76-1.21.07-.09.16-.22.37-.54l.08-.12.09-.12c2.52-3.32 5.62-5.21 7.79-6.21 2.31-1.06 4.82-1.76 7.68-2.13 1.46-.17 2.92-.26 4.37-.26 2.7 0 5.43.29 8.61.89 4.77 1.01 9.2 2.48 13.24 4.41 18.26-15.39 43.49-24.17 69.71-24.17 26.81 0 52.44 9.12 70.78 25.11 3.44-1.58 7.16-2.86 11.1-3.8 3.6-.8 6.66-1.16 9.71-1.16 1.09 0 2.19.05 3.27.15 2.92.3 5.45.93 7.79 1.92 2.2.95 5.36 2.75 7.96 5.99l.09.11.08.12c.22.32.32.45.39.54.26.33.42.56.81 1.2.55.91 1.04 1.85 1.35 2.63.58 1.35 1.03 2.8 1.39 4.56.5 2.65.59 5.26.29 8.28-.47 4.27-1.62 8.42-3.63 13.08-1.66 3.79-3.69 7.36-6.22 10.94-2.55 3.53-5.08 6.37-7.89 8.86.01.54.02 1.06.02 1.58 0 44.16-43.66 80.09-97.32 80.09zm83.777-120.88c2.246 3.12 4.23 6.358 5.937 9.696.24-.35.46-.7.67-1.04 1.3-2.1 2.26-4.2 2.71-5.94.24-.88.3-1.52.3-1.91-.3-.18-.81-.4-1.51-.56-1.3-.32-2.83-.49-4.51-.49-.82 0-1.69.04-2.57.11-.34.03-.67.07-1.01.11zm-177.625-.39c.01.39.09 1.023.34 1.868.51 1.75 1.53 3.84 2.89 5.91.37.57.77 1.14 1.2 1.7 1.88-3.59 4.08-7.06 6.59-10.4-.83-.1-1.67-.18-2.5-.24-.56-.03-1.15-.05-1.73-.05-2.01 0-3.82.21-5.23.6-.75.19-1.27.44-1.58.62z"/><path fill="#333" d="M128.197 51.918c27.95 0 53.026 10.02 70.128 25.89 3.978-2.1 8.248-3.633 12.69-4.698 2.794-.622 5.69-1.057 8.778-1.057.95 0 1.918.042 2.906.13 2.1.214 4.31.647 6.59 1.614 2.25.97 4.6 2.56 6.4 4.81.71 1.026.5.596 1.07 1.534.45.75.86 1.53 1.09 2.11.56 1.28.9 2.56 1.16 3.82.48 2.52.45 4.88.23 7.08-.48 4.41-1.76 8.26-3.33 11.9-1.58 3.63-3.53 7-5.81 10.21-2.32 3.21-4.92 6.26-8.35 9.09l-.28.23-.08.06c.06 1.12.09 2.25.09 3.38 0 42.02-41.78 76.09-93.32 76.09-51.55 0-93.34-34.06-93.34-76.08 0-1.67.07-3.34.2-4.99-3.45-2.7-6.1-5.63-8.47-8.72-2.37-3.15-4.41-6.46-6.1-10.03-1.67-3.59-3.04-7.4-3.66-11.79-.28-2.19-.37-4.55.02-7.08.23-1.27.53-2.56 1.06-3.85.21-.58.6-1.38 1.03-2.14.53-.95.34-.52 1.02-1.56 1.74-2.3 4.03-3.96 6.27-4.99 2.24-1.03 4.44-1.53 6.53-1.8 1.32-.16 2.6-.23 3.85-.23 2.73 0 5.33.34 7.86.82 5.13 1.08 10.04 2.79 14.58 5.27 17.08-15.32 41.72-24.95 69.12-24.95m-88.38 51.55c3.04-7.28 7.4-14.07 12.85-20.17-3.13-.9-6.36-1.44-9.52-1.65-.67-.03-1.33-.05-1.99-.05-2.26 0-4.44.23-6.3.75-2.48.64-4 1.91-4.27 2.78-.32.82-.41 2.45.28 4.71.64 2.2 1.86 4.64 3.36 6.93 1.57 2.38 3.51 4.7 5.57 6.71m177.15.99c1.87-1.98 3.61-4.23 5.02-6.51 1.44-2.33 2.6-4.8 3.18-7.02.62-2.28.47-3.91.14-4.72-.29-.87-1.85-2.09-4.34-2.66-1.62-.4-3.47-.58-5.4-.58-.96 0-1.94.04-2.91.13-2.61.25-5.25.73-7.84 1.44 5.17 6.06 9.29 12.76 12.15 19.92m-88.76-60.56c-26.23 0-51.54 8.51-70.33 23.5-3.67-1.55-7.6-2.77-11.73-3.64l-.07-.02-.08-.01c-3.42-.65-6.4-.96-9.36-.96-1.61 0-3.23.1-4.81.29l-.04.01-.04.01c-3.26.43-6.15 1.23-8.83 2.47-3.71 1.71-6.92 4.27-9.31 7.43l-.18.23-.16.25-.22.33c-.38.51-.64.91-1.05 1.65-.46.8-1.08 1.98-1.53 3.18-.8 2.03-1.2 3.9-1.45 5.31l-.02.09-.02.09c-.47 2.97-.49 6.03-.06 9.35v.08c.65 4.65 2.02 9.12 4.32 14.06l.01.03.01.02c1.9 4.01 4.17 7.75 6.94 11.43l.02.03.02.02c2.16 2.83 4.32 5.24 6.63 7.39-.01.5-.02.99-.02 1.47 0 22.78 10.75 44.09 30.28 60.01 19.05 15.53 44.29 24.09 71.06 24.09 26.76 0 51.99-8.55 71.04-24.08 19.47-15.88 30.22-37.12 30.27-59.83 2.5-2.38 4.8-5.05 7.09-8.23l.02-.03.02-.03c2.69-3.8 4.85-7.6 6.61-11.63 2.19-5.07 3.43-9.58 3.94-14.22V94c.34-3.36.23-6.43-.33-9.37l-.01-.06-.01-.06c-.42-2.02-.94-3.71-1.63-5.3-.53-1.294-1.25-2.534-1.64-3.17-.42-.704-.68-1.08-1.07-1.58-.05-.06-.11-.14-.25-.35l-.16-.23-.18-.22c-3.11-3.88-6.88-6.03-9.48-7.15-2.74-1.166-5.66-1.89-8.95-2.22l-.04-.003h-.04c-1.2-.11-2.42-.16-3.63-.16-3.35 0-6.69.4-10.52 1.25l-.07.016-.06.017c-3.31.794-6.48 1.81-9.48 3.035-18.9-15.583-44.63-24.44-71.47-24.44z"/><path fill="#fff" d="M221.516 127.997c0 42.02-41.775 76.086-93.318 76.086-51.55 0-93.338-34.064-93.338-76.086 0-42.018 41.79-76.08 93.338-76.08 51.542 0 93.318 34.062 93.318 76.08z"/><path fill="#B3B3B3" d="M201.506 137.472c0 34.278-33.87 62.074-75.645 62.074-41.77 0-75.63-27.796-75.63-62.074 0-34.288 33.87-62.084 75.64-62.084s75.65 27.796 75.65 62.084z"/><path fill="#999898" d="M125.86 202.458c-43.31 0-78.55-29.155-78.55-64.986 0-35.836 35.24-64.992 78.55-64.992 43.318 0 78.557 29.156 78.557 64.992 0 35.83-35.238 64.986-78.556 64.986zm0-124.162c-40.106 0-72.73 26.546-72.73 59.176 0 32.625 32.624 59.168 72.73 59.168 40.105 0 72.74-26.543 72.74-59.168 0-32.63-32.634-59.176-72.74-59.176z"/><path fill="#333" d="M141 180.647c-7.304 0-11.78-3.05-14.53-7.5-2.75 4.45-7.237 7.5-14.544 7.5-10.594 0-18.896-11.737-18.896-26.723 0-2.41 1.955-4.363 4.365-4.363 2.408 0 4.36 1.96 4.36 4.37 0 10.61 5.358 18 10.17 18 8.66 0 10.18-7.7 10.18-23.89h8.728c0 16.19 1.52 23.89 10.17 23.89 4.814 0 10.178-7.39 10.178-18 0-2.41 1.96-4.36 4.37-4.36s4.36 1.96 4.36 4.37c0 14.99-8.3 26.73-18.9 26.73z"/><path fill="#2974A7" d="M137.983 148.033c0 3.864-5.158 6.994-11.52 6.994-6.356 0-11.52-3.13-11.52-6.994 0-3.86 5.163-6.993 11.52-6.993 6.362 0 11.52 3.132 11.52 6.993z"/><path fill="#333" d="M66.008 140.394c-.842 0-1.688-.244-2.438-.75-2-1.346-2.52-4.06-1.17-6.055.404-.61 10.11-14.73 24.814-15.77 8.806-.6 17.106 3.41 24.877 11.97 1.62 1.78 1.49 4.54-.3 6.16-1.78 1.61-4.53 1.49-6.16-.31-5.87-6.48-11.78-9.59-17.79-9.13-10.35.74-18.13 11.83-18.21 11.95-.84 1.25-2.21 1.92-3.61 1.92zm75.622 0c-.84 0-1.686-.244-2.437-.75-2-1.346-2.52-4.06-1.17-6.055.403-.61 10.11-14.73 24.814-15.77 8.8-.6 17.104 3.41 24.877 11.97 1.617 1.78 1.48 4.54-.3 6.16-1.78 1.61-4.54 1.49-6.165-.31-5.88-6.48-11.77-9.59-17.8-9.13-10.35.74-18.13 11.83-18.21 11.95-.84 1.25-2.22 1.92-3.62 1.92z"/><path fill="#676767" d="M62.52 83.466s-31.137-10.86-37.24-1.998c-6.086 8.855 7.297 30.076 17.737 37.267 0 0-6.102-22.842 19.504-35.27z"/><path fill="#B3B3B3" d="M60.493 86.542c-5.233-2.967-11.42-4.5-17.356-4.89-2.948-.166-5.88.02-8.288.69-2.48.637-4 1.907-4.27 2.78-.32.82-.4 2.456.28 4.714.64 2.2 1.86 4.635 3.36 6.932 3 4.55 7.34 8.947 11.4 11.202 4.46 2.48 6.06 8.103 3.58 12.562-2.48 4.46-8.11 6.065-12.56 3.584-.41-.223-.79-.47-1.14-.743l-.33-.253c-3.52-2.73-6.21-5.703-8.61-8.84-2.38-3.148-4.41-6.46-6.1-10.037-1.67-3.588-3.05-7.406-3.66-11.796-.29-2.194-.38-4.55.02-7.08.23-1.275.53-2.564 1.06-3.855.2-.584.6-1.382 1.03-2.138.53-.953.34-.52 1.02-1.566 1.74-2.297 4.03-3.956 6.27-4.987 2.24-1.03 4.44-1.52 6.53-1.8 4.19-.5 8.03-.11 11.71.59 7.28 1.53 14.14 4.3 20.06 8.78 1.63 1.24 1.95 3.56.71 5.18-1.12 1.5-3.18 1.89-4.77.98z"/><path fill="#676767" d="M193.33 85.474c-11.562-5.203 30.814-11.742 37.166-3.058 6.346 8.68-3.927 27.01-14.157 34.495 0 0 2.94-19.74-23.01-31.43z"/><path fill="#B3B3B3" d="M191.213 82.456c5.79-4.65 12.572-7.613 19.803-9.346 3.653-.813 7.482-1.307 11.685-.926 2.11.213 4.32.646 6.6 1.613 2.26.97 4.6 2.56 6.41 4.81.72 1.026.51.596 1.07 1.534.46.75.86 1.53 1.09 2.11.56 1.28.91 2.56 1.17 3.82.48 2.52.45 4.88.23 7.08-.48 4.41-1.75 8.26-3.32 11.9-1.58 3.63-3.53 7-5.8 10.21-2.31 3.21-4.91 6.26-8.35 9.09l-.28.23c-3.94 3.24-9.75 2.68-13-1.27-3.24-3.94-2.67-9.76 1.27-13 .36-.29.77-.58 1.15-.81 4-2.37 8.22-6.89 11.08-11.52 1.44-2.33 2.6-4.81 3.18-7.02.62-2.27.48-3.91.14-4.72-.28-.86-1.84-2.09-4.33-2.65-2.42-.6-5.36-.7-8.31-.45-5.91.56-12.06 2.27-17.2 5.39-1.74 1.06-4.02.5-5.08-1.24-.97-1.6-.58-3.65.84-4.79z"/><radialGradient id="a" cx="68" cy="153" r="30" gradientUnits="userSpaceOnUse"><stop offset="0" stop-color="#FF585D"/><stop offset="1" stop-color="#FF585D" stop-opacity="0"/></radialGradient><circle opacity=".4" fill="url(#a)" cx="68" cy="153" r="30"/><radialGradient id="b" cx="183" cy="153" r="30" gradientUnits="userSpaceOnUse"><stop offset="0" stop-color="#FF585D"/><stop offset="1" stop-color="#FF585D" stop-opacity="0"/></radialGradient><circle opacity=".4" fill="url(#b)" cx="183" cy="153" r="30"/></svg>