<svg xmlns="http://www.w3.org/2000/svg" width="256" height="256" viewBox="0 0 256 256"><path fill="#333" d="M128.196 212.807c-56.276 0-102.063-38.045-102.063-84.81 0-.385.005-.77.023-1.15-2.262-2.126-4.383-4.503-6.494-7.272-2.828-3.752-5.13-7.533-7.05-11.597-2.354-5.065-3.753-9.603-4.414-14.32-.453-3.483-.433-6.608.046-9.646.273-1.54.7-3.615 1.612-5.83.2-.578.813-1.897 1.52-3.136.628-1.12.805-1.322 1.084-1.693l.557-.807c2.46-3.25 5.77-5.894 9.576-7.65 2.762-1.267 5.72-2.092 9.056-2.526 5.08-.607 9.17-.344 14.48.67 4.14.87 8.04 2.073 11.69 3.602 18.91-14.96 44.21-23.447 70.36-23.447 26.8 0 52.53 8.833 71.56 24.404 2.98-1.23 6.06-2.22 9.22-2.98 5.43-1.22 9.69-1.57 14.51-1.13 3.44.34 6.43 1.09 9.21 2.27 2.71 1.16 6.59 3.37 9.8 7.37l.37.5c.5.66.67.85 1.35 1.98.71 1.17 1.35 2.44 1.72 3.38.62 1.39 1.17 3.17 1.61 5.3.6 3.15.71 6.28.36 9.71-.52 4.8-1.79 9.38-3.99 14.48-1.79 4.11-3.98 7.96-6.7 11.79-2.29 3.16-4.55 5.82-7 8.17-.31 46.54-45.97 84.33-102.04 84.33zM27.082 82.887c-.336.5-.506.728-.634.906-.08.19-.236.478-.325.712-.342.842-.505 1.475-.672 2.393-.18 1.215-.18 2.682.05 4.432.41 2.907 1.31 5.785 2.92 9.23 1.39 2.925 3.09 5.713 5.16 8.463 2.29 2.986 4.44 5.21 6.96 7.173l3.7 2.88-.45 5.912c-.08 1-.18 1.996-.18 3.01 0 37.143 37.96 67.358 84.62 67.358 46.65 0 84.6-30.215 84.6-67.358 0-.447-.04-.885-.08-1.325l-.33-6.002 4-3.18c2.59-2.19 4.57-4.4 6.68-7.33 1.98-2.79 3.59-5.62 4.88-8.59 1.5-3.47 2.32-6.37 2.65-9.36.17-1.68.13-3.14-.12-4.5-.16-.77-.35-1.4-.57-1.92-.22-.5-.38-.79-.56-1.08-.08-.12-.24-.33-.57-.8-.74-.85-1.76-1.58-2.89-2.07-1.13-.48-2.42-.78-4.03-.95-2.53-.21-5.44 0-8.91.77-3.59.86-7.17 2.21-10.52 3.98l-5.48 2.91-4.54-4.22c-16.17-15.02-39.56-23.64-64.17-23.64-24.05 0-47.1 8.31-63.22 22.79l-4.61 4.13L55 84.63c-3.658-2.01-7.78-3.5-12.25-4.44-3.28-.62-5.943-.82-8.875-.46-1.51.2-2.79.54-3.94 1.07-1.1.51-2.1 1.27-2.81 2.14z"/><path fill="#676767" d="M62.517 83.466s-31.134-10.86-37.235-1.998c-6.09 8.855 7.293 30.076 17.734 37.267 0 0-6.1-22.842 19.5-35.27z"/><path fill="#B3B3B3" d="M60.493 86.542c-5.235-2.967-11.42-4.5-17.357-4.89-2.948-.166-5.878.02-8.287.69-2.48.637-4 1.907-4.27 2.78-.32.82-.41 2.456.28 4.714.64 2.2 1.87 4.635 3.36 6.932 3 4.55 7.34 8.947 11.4 11.202 4.46 2.48 6.06 8.103 3.58 12.562s-8.11 6.065-12.56 3.584c-.41-.223-.79-.47-1.14-.743l-.33-.253c-3.52-2.73-6.21-5.703-8.61-8.84-2.38-3.148-4.41-6.46-6.11-10.037-1.67-3.588-3.05-7.406-3.66-11.796-.29-2.194-.38-4.55.02-7.08.23-1.275.53-2.564 1.06-3.855.21-.584.59-1.382 1.02-2.138.53-.953.35-.52 1.02-1.566 1.74-2.297 4.03-3.956 6.27-4.987 2.24-1.03 4.44-1.52 6.53-1.8 4.19-.5 8.03-.11 11.71.59 7.27 1.53 14.13 4.3 20.06 8.78 1.62 1.24 1.95 3.56.71 5.18-1.13 1.5-3.18 1.89-4.77.98z"/><path fill="#676767" d="M193.33 85.474c-11.562-5.203 30.814-11.742 37.167-3.058 6.347 8.68-3.927 27.01-14.158 34.495 0 .01 2.94-19.74-23.01-31.43z"/><path fill="#B3B3B3" d="M191.214 82.457c5.788-4.65 12.57-7.613 19.803-9.346 3.654-.81 7.48-1.3 11.685-.92 2.104.22 4.318.65 6.59 1.62 2.257.97 4.602 2.56 6.41 4.81.71 1.03.5.6 1.068 1.54.454.75.857 1.53 1.088 2.11.564 1.28.904 2.56 1.167 3.82.477 2.52.45 4.88.227 7.08-.482 4.41-1.755 8.26-3.323 11.9-1.58 3.63-3.53 7-5.81 10.21-2.31 3.21-4.92 6.26-8.35 9.09l-.28.23c-3.94 3.24-9.77 2.68-13.01-1.26-3.24-3.94-2.67-9.76 1.26-13 .35-.29.77-.58 1.14-.81 4-2.37 8.21-6.89 11.08-11.52 1.44-2.33 2.59-4.81 3.17-7.02.62-2.27.48-3.91.14-4.72-.29-.86-1.85-2.09-4.34-2.65-2.43-.6-5.37-.7-8.31-.45-5.92.57-12.06 2.27-17.21 5.39-1.74 1.06-4.02.5-5.08-1.24-.97-1.6-.58-3.65.85-4.8z"/><path fill="#fff" d="M221.515 127.998c0 42.022-41.776 76.086-93.318 76.086-51.547 0-93.337-34.064-93.337-76.086 0-42.018 41.79-76.08 93.337-76.08 51.54 0 93.318 34.062 93.318 76.08z"/><path fill="#B3B3B3" d="M201.507 125.838c0 34.28-33.87 62.074-75.646 62.074-41.77 0-75.64-27.793-75.64-62.074 0-34.288 33.87-62.085 75.65-62.085s75.65 27.797 75.65 62.085z"/><path fill="#999898" d="M125.86 190.824c-43.31 0-78.548-29.156-78.548-64.986 0-35.835 35.237-64.993 78.55-64.993 43.317 0 78.556 29.158 78.556 64.993 0 35.83-35.24 64.986-78.557 64.986zm0-124.16c-40.107 0-72.732 26.545-72.732 59.175 0 32.62 32.625 59.16 72.733 59.16 40.11 0 72.74-26.55 72.74-59.17 0-32.63-32.63-59.18-72.73-59.18z"/><path fill="#333" d="M141.002 174.834c-7.308 0-11.783-3.053-14.534-7.5-2.75 4.447-7.236 7.5-14.542 7.5-10.596 0-18.896-11.738-18.896-26.725 0-2.41 1.952-4.37 4.362-4.37s4.362 1.95 4.362 4.36c0 10.6 5.358 17.99 10.17 17.99 8.657 0 10.18-7.7 10.18-23.89h8.727c0 16.18 1.53 23.88 10.17 23.88 4.82 0 10.18-7.39 10.18-17.99 0-2.41 1.96-4.37 4.37-4.37s4.36 1.95 4.36 4.36c0 14.98-8.3 26.72-18.9 26.72z"/><path fill="#fff" d="M200.07 121.17c0 19.962-16.18 36.148-36.14 36.148-19.97 0-36.15-16.186-36.15-36.15 0-19.958 16.18-36.143 36.15-36.143 19.96 0 36.14 16.185 36.14 36.144zm-75.623 0c0 19.962-16.18 36.148-36.144 36.148-19.967 0-36.146-16.186-36.146-36.15 0-19.958 16.18-36.143 36.146-36.143 19.965 0 36.144 16.185 36.144 36.144z"/><path fill="#2974A7" d="M112.215 119.544c0 13.252-10.743 24.002-24 24.002-13.26 0-24.004-10.75-24.004-24.002 0-13.26 10.75-24.006 24.01-24.006 13.26 0 24 10.748 24 24.006z"/><circle fill="#fff" cx="76.358" cy="112.616" r="8.187"/><path fill="#fff" d="M93.564 121.45c0 2.12-1.73 3.838-3.852 3.838-2.118 0-3.846-1.718-3.846-3.84 0-2.127 1.728-3.845 3.846-3.845 2.12 0 3.852 1.718 3.852 3.846z"/><path fill="#2974A7" d="M187.84 119.544c0 13.252-10.744 24.002-24 24.002-13.26 0-24.005-10.75-24.005-24.002 0-13.26 10.744-24.006 24.004-24.006 13.25 0 24 10.748 24 24.006z"/><path fill="#fff" d="M160.17 112.616c0 4.518-3.665 8.183-8.188 8.183-4.524 0-8.187-3.67-8.187-8.19s3.662-8.19 8.187-8.19c4.523 0 8.187 3.66 8.187 8.18zm9.02 8.834c0 2.12-1.733 3.838-3.854 3.838-2.118 0-3.848-1.718-3.848-3.84 0-2.127 1.73-3.845 3.848-3.845 2.12 0 3.853 1.718 3.853 3.846z"/><path fill="#2974A7" d="M137.983 142.22c0 3.86-5.158 6.99-11.52 6.99-6.36 0-11.523-3.13-11.523-6.99 0-3.866 5.164-6.995 11.524-6.995 6.36 0 11.52 3.13 11.52 6.994z"/></svg>