<?xml version="1.0" encoding="utf-8"?>
<!-- Generator: Adobe Illustrator 16.0.0, SVG Export Plug-In . SVG Version: 6.00 Build 0)  -->
<!DOCTYPE svg PUBLIC "-//W3C//DTD SVG 1.1//EN" "http://www.w3.org/Graphics/SVG/1.1/DTD/svg11.dtd">
<svg version="1.1" id="Layer_1" xmlns="http://www.w3.org/2000/svg" xmlns:xlink="http://www.w3.org/1999/xlink" x="0px" y="0px"
	 width="256px" height="256px" viewBox="0 0 256 256" enable-background="new 0 0 256 256" xml:space="preserve">
<path fill="#FFFFFF" d="M128.196,208.082c-53.67,0-97.334-35.926-97.334-80.085c0-1.04,0.027-2.11,0.08-3.198
	c-2.666-2.3-5.09-4.91-7.52-8.1c-2.613-3.46-4.748-6.97-6.54-10.75c-2.14-4.59-3.41-8.7-4.003-12.96c-0.39-2.98-0.38-5.66,0.03-8.25
	c0.24-1.34,0.58-2.98,1.28-4.69c0.39-1.06,0.97-2.13,1.28-2.68c0.35-0.63,0.51-0.88,0.76-1.21c0.07-0.09,0.15-0.21,0.36-0.54
	l0.08-0.13l0.09-0.12c2.52-3.33,5.63-5.22,7.79-6.21c2.33-1.07,4.84-1.77,7.68-2.13c1.46-0.18,2.91-0.26,4.37-0.26
	c2.7,0,5.44,0.28,8.61,0.89c4.77,0.99,9.2,2.47,13.24,4.4C76.7,56.67,101.94,47.9,128.16,47.9c26.81,0,52.439,9.12,70.781,25.1
	c3.44-1.59,7.16-2.86,11.104-3.81c3.604-0.8,6.67-1.17,9.72-1.17c1.09,0,2.188,0.05,3.26,0.14c2.896,0.29,5.431,0.91,7.785,1.91
	c2.221,0.96,5.381,2.76,7.971,5.99l0.09,0.11l0.08,0.11c0.23,0.322,0.33,0.45,0.4,0.544c0.26,0.33,0.43,0.566,0.81,1.2
	c0.56,0.91,1.04,1.847,1.36,2.635c0.59,1.35,1.029,2.81,1.399,4.57c0.5,2.62,0.59,5.31,0.29,8.29c-0.47,4.27-1.62,8.41-3.63,13.07
	c-1.64,3.77-3.67,7.34-6.21,10.93c-2.551,3.54-5.09,6.38-7.891,8.86c0.021,0.54,0.021,1.06,0.021,1.58
	c0,44.16-43.649,80.08-97.32,80.08L128.196,208.082z"/>
<path fill="#333333" d="M128.196,51.92c27.951,0,53.023,10.02,70.126,25.888c3.979-2.1,8.252-3.634,12.695-4.7
	c2.795-0.62,5.692-1.056,8.787-1.056c0.945,0,1.911,0.04,2.896,0.13c2.1,0.21,4.32,0.65,6.59,1.612
	c2.26,0.975,4.609,2.566,6.41,4.813c0.71,1.023,0.5,0.593,1.07,1.534c0.459,0.75,0.859,1.53,1.09,2.11
	c0.56,1.28,0.899,2.55,1.17,3.83c0.479,2.51,0.449,4.88,0.229,7.08c-0.479,4.4-1.75,8.26-3.319,11.9
	c-1.57,3.62-3.521,6.99-5.801,10.2c-2.31,3.21-4.91,6.26-8.35,9.09l-0.28,0.23c-0.02,0.02-0.05,0.04-0.069,0.06
	c0.069,1.12,0.1,2.25,0.1,3.38c0,42.02-41.78,76.09-93.32,76.09c-51.55,0-93.33-34.061-93.33-76.08c0-1.67,0.08-3.34,0.21-4.99
	c-3.45-2.7-6.1-5.63-8.46-8.73c-2.37-3.14-4.41-6.46-6.1-10.04c-1.67-3.58-3.04-7.4-3.66-11.79c-0.28-2.19-0.37-4.55,0.02-7.07
	c0.23-1.28,0.53-2.57,1.07-3.86c0.21-0.58,0.59-1.38,1.03-2.14c0.53-0.95,0.34-0.51,1.02-1.56c1.74-2.3,4.03-3.96,6.27-4.99
	c2.24-1.02,4.44-1.53,6.53-1.8c1.32-0.16,2.6-0.23,3.85-0.23c2.74,0,5.34,0.34,7.86,0.82c5.14,1.08,10.05,2.79,14.59,5.26
	c17.07-15.32,41.72-24.95,69.12-24.95 M128.241,43.961c-26.23,0-51.54,8.51-70.33,23.5c-3.68-1.55-7.61-2.77-11.74-3.64l-0.07-0.01
	l-0.06-0.01c-3.42-0.65-6.4-0.96-9.37-0.96c-1.61,0-3.23,0.1-4.8,0.29l-0.03,0.01l-0.04,0.01c-3.25,0.43-6.14,1.23-8.83,2.46
	c-3.72,1.71-6.94,4.28-9.33,7.44l-0.18,0.24l-0.16,0.26l-0.18,0.27c-0.4,0.54-0.66,0.94-1.07,1.68c-0.37,0.65-1.04,1.89-1.52,3.18
	c-0.83,2.02-1.23,3.91-1.49,5.34l-0.01,0.09l-0.01,0.09c-0.46,2.97-0.48,6.03-0.05,9.35l0.01,0.04l0.01,0.04
	c0.65,4.66,2.03,9.13,4.33,14.07c1.94,4.07,4.21,7.82,6.98,11.48c2.18,2.85,4.34,5.27,6.66,7.43c-0.01,0.49-0.01,0.98-0.01,1.47
	c0,22.771,10.76,44.08,30.28,60c19.05,15.53,44.28,24.08,71.05,24.08c26.76,0,51.99-8.56,71.039-24.091
	c19.48-15.879,30.221-37.119,30.271-59.829c2.5-2.37,4.8-5.05,7.101-8.23l0.02-0.03l0.02-0.03c2.701-3.81,4.86-7.61,6.61-11.63
	c2.181-5.06,3.431-9.57,3.94-14.22V94c0.34-3.36,0.229-6.425-0.33-9.38l-0.01-0.06l-0.01-0.06c-0.41-2.02-0.931-3.71-1.621-5.31
	c-0.539-1.304-1.25-2.542-1.64-3.18c-0.43-0.705-0.68-1.08-1.06-1.57c-0.051-0.06-0.11-0.144-0.26-0.355l-0.16-0.23l-0.18-0.22
	c-3.111-3.87-6.861-6.02-9.471-7.146l-0.029-0.01l-0.031-0.01c-2.729-1.16-5.64-1.88-8.899-2.21l-0.04-0.01l-0.04-0.01
	c-1.19-0.11-2.41-0.17-3.62-0.17c-3.35,0-6.689,0.39-10.52,1.24l-0.061,0.01l-0.06,0.01c-3.31,0.8-6.49,1.81-9.479,3.04
	c-18.91-15.6-44.641-24.45-71.48-24.45L128.241,43.961z"/>
<path fill="#676767" d="M62.518,83.465c0,0-31.137-10.855-37.236-2c-6.092,8.856,7.293,30.08,17.736,37.27
	C43.018,118.735,36.918,95.888,62.518,83.465z"/>
<path fill="#B3B3B3" d="M60.49,86.54c-5.23-2.967-11.417-4.5-17.354-4.888c-2.947-0.17-5.88,0.016-8.29,0.688
	c-2.474,0.643-3.997,1.91-4.26,2.777c-0.317,0.824-0.4,2.46,0.28,4.716c0.646,2.202,1.87,4.636,3.37,6.93
	c3.005,4.556,7.345,8.954,11.405,11.202c4.47,2.484,6.07,8.108,3.59,12.566c-2.48,4.47-8.1,6.07-12.56,3.59
	c-0.41-0.22-0.78-0.47-1.13-0.74l-0.32-0.25c-3.52-2.73-6.21-5.7-8.6-8.84c-2.37-3.14-4.41-6.46-6.1-10.04
	c-1.67-3.58-3.04-7.4-3.66-11.79c-0.28-2.19-0.37-4.54,0.02-7.07c0.23-1.28,0.53-2.57,1.07-3.85c0.21-0.58,0.6-1.38,1.03-2.14
	c0.53-0.95,0.35-0.51,1.02-1.56c1.74-2.3,4.04-3.96,6.28-4.99c2.25-1.02,4.44-1.53,6.53-1.8c4.2-0.5,8.04-0.11,11.72,0.59
	c7.28,1.53,14.14,4.3,20.06,8.77c1.63,1.24,1.95,3.56,0.71,5.19c-1.13,1.5-3.18,1.89-4.77,0.98L60.49,86.54z"/>
<path fill="#676767" d="M193.333,85.47c-11.565-5.205,30.813-11.735,37.166-3.056c6.34,8.68-3.931,27.014-14.16,34.494
	c0,0,2.94-19.745-23.01-31.437L193.333,85.47z"/>
<path fill="#B3B3B3" d="M191.214,82.453c5.79-4.65,12.572-7.61,19.806-9.345c3.65-0.81,7.48-1.307,11.688-0.927
	c2.1,0.22,4.314,0.66,6.588,1.62c2.256,0.98,4.604,2.57,6.408,4.82c0.71,1.03,0.498,0.6,1.066,1.54
	c0.455,0.75,0.856,1.53,1.092,2.11c0.563,1.28,0.902,2.55,1.164,3.82c0.479,2.52,0.451,4.88,0.227,7.08
	c-0.48,4.4-1.754,8.26-3.32,11.9c-1.576,3.62-3.525,6.99-5.805,10.2c-2.313,3.21-4.916,6.26-8.354,9.09l-0.277,0.23
	c-3.943,3.24-9.764,2.67-13.004-1.26c-3.238-3.94-2.67-9.76,1.268-13c0.357-0.29,0.773-0.58,1.148-0.81
	c3.997-2.37,8.215-6.89,11.074-11.52c1.442-2.33,2.598-4.81,3.178-7.02c0.62-2.27,0.475-3.91,0.14-4.71
	c-0.28-0.86-1.843-2.09-4.333-2.66c-2.424-0.6-5.367-0.7-8.31-0.45c-5.923,0.56-12.062,2.27-17.208,5.38
	c-1.75,1.07-4.02,0.51-5.08-1.23c-0.98-1.6-0.58-3.66,0.84-4.8L191.214,82.453z"/>
<path fill="#FFFFFF" d="M221.518,127.997c0,42.021-41.777,76.085-93.319,76.085c-51.55,0-93.335-34.063-93.335-76.085
	c0-42.016,41.785-76.077,93.334-76.077C179.736,51.92,221.518,85.98,221.518,127.997L221.518,127.997z"/>
<path fill="#B3B3B3" d="M201.51,125.838c0,34.278-33.869,62.074-75.65,62.074c-41.77,0-75.64-27.796-75.64-62.074
	c0-34.29,33.868-62.086,75.64-62.086C167.641,63.752,201.51,91.548,201.51,125.838z"/>
<path fill="#999898" d="M125.86,190.823c-43.31,0-78.55-29.157-78.55-64.985c0-35.84,35.24-64.994,78.55-64.994
	c43.315,0,78.555,29.155,78.555,64.994C204.415,161.666,169.175,190.823,125.86,190.823z M125.86,66.663
	c-40.105,0-72.73,26.546-72.73,59.175c0,32.625,32.625,59.168,72.73,59.168c40.11,0,72.742-26.543,72.742-59.168
	C198.602,93.208,165.973,66.663,125.86,66.663z"/>
<path fill="#FFFFFF" d="M200.07,121.168c0,19.962-16.18,36.146-36.145,36.146c-19.967,0-36.146-16.188-36.146-36.146
	s16.18-36.143,36.146-36.143C183.893,85.025,200.07,101.207,200.07,121.168z M124.446,121.168c0,19.962-16.18,36.146-36.14,36.146
	c-19.97,0-36.147-16.188-36.147-36.146S68.33,85.025,88.3,85.025c19.96,0,36.14,16.182,36.14,36.143H124.446z"/>
<path fill="#2974A7" d="M123.848,119.544c0,13.253-10.74,24.005-24,24.005c-13.26,0-24-10.76-24-24.01c0-13.26,10.74-24.01,24-24.01
	c13.26,0,24,10.75,24,24V119.544z"/>
<path fill="#FFFFFF" d="M96.18,112.614c0,4.52-3.666,8.18-8.188,8.18s-8.186-3.658-8.186-8.18c0-4.522,3.664-8.182,8.186-8.182
	S96.18,108.094,96.18,112.614z M105.2,121.45c0,2.116-1.732,3.837-3.852,3.837c-2.117,0-3.846-1.72-3.846-3.838
	c0-2.14,1.73-3.85,3.846-3.85C103.468,117.599,105.2,119.309,105.2,121.45L105.2,121.45z"/>
<path fill="#2974A7" d="M199.475,119.544c0,13.253-10.742,24.005-24,24.005c-13.263,0-24.002-10.76-24.002-24.01
	c0-13.26,10.74-24.01,24.002-24.01c13.256,0,24,10.75,24,24V119.544z"/>
<path fill="#FFFFFF" d="M171.805,112.614c0,4.52-3.666,8.18-8.187,8.18c-4.525,0-8.188-3.658-8.188-8.18
	c0-4.522,3.662-8.182,8.188-8.182C168.139,104.432,171.805,108.094,171.805,112.614z M180.823,121.45
	c0,2.116-1.732,3.837-3.854,3.837c-2.12,0-3.847-1.72-3.847-3.838c0-2.14,1.729-3.85,3.847-3.85
	C179.09,117.599,180.823,119.309,180.823,121.45L180.823,121.45z"/>
<g>
	<path fill="#333333" d="M128,182.17c-3.216,0-5-2.6-5-5.816V141.45c0-3.216,1.784-5.816,5-5.816c3.214,0,5,2.603,5,5.816v34.903
		C133,179.57,131.214,182.171,128,182.17L128,182.17z"/>
	<path fill="#2974A7" d="M139.52,142.215c0,3.865-5.156,6.992-11.52,6.992c-6.356,0-11.52-3.127-11.52-6.992
		c0-3.863,5.163-6.99,11.52-6.99C134.363,135.225,139.52,138.352,139.52,142.215z"/>
</g>
<path fill="#B3B3B3" d="M88.25,82.875c-19.968,0-36.09,18.332-36.09,38.293c0,2.826,0.334,5.573,0.947,8.213h70.39
	c0.614-2.64,0.95-5.38,0.95-8.21c0-19.96-16.236-38.29-36.197-38.29V82.875z"/>
<path fill="#B3B3B3" d="M164.125,83.75c-19.968,0-36.403,17.77-36.403,37.73c0,2.826,0.335,5.573,0.948,8.213h70.391
	c0.613-2.641,0.947-5.387,0.947-8.213C200.008,101.52,184.086,83.75,164.125,83.75z"/>
<path fill="#999898" d="M125.86,60.844c-43.31,0-78.55,29.154-78.55,64.994c0,35.828,35.24,64.985,78.55,64.985
	c43.315,0,78.555-29.157,78.555-64.985C204.415,89.999,169.175,60.844,125.86,60.844z M125.86,185.006
	c-38.642,0-70.327-24.645-72.588-55.626h70.226c0.378-1.627,0.65-3.295,0.8-5h-0.001H53.175
	c0.958-31.956,33.181-57.717,72.685-57.717c39.641,0,71.951,25.928,72.707,58.03H127.87c0.15,1.704,0.42,3.372,0.8,5h69.76
	C195.978,160.526,164.376,185.006,125.86,185.006z"/>
<path fill="#333333" d="M127.026,186.152c-4.848,0-10.168-1.107-15.912-3.811c-2.91-1.359-4.158-4.826-2.795-7.736
	c1.36-2.9,4.82-4.158,7.73-2.793c19.141,9.006,29.26-7.418,30.36-9.32c1.58-2.777,5.12-3.75,7.909-2.17
	c2.781,1.578,3.771,5.1,2.211,7.89c-4.12,7.333-14.54,17.94-29.521,17.94H127.026z"/>
<polygon fill="#B3B3B3" points="85.833,96.5 101.5,77.167 136.834,75.167 162.5,92.833 163.834,114.5 127.87,124.693 
	124.296,124.38 "/>
</svg>
