<svg xmlns="http://www.w3.org/2000/svg" width="256" height="256" viewBox="0 0 256 256"><path fill="#DD629A" d="M125.476 212.97c-7.572 0-14.57-4.223-19.86-11.937-20.558-4.02-39.216-13.61-52.697-27.118-14.23-14.255-22.06-32.295-22.06-50.798 0-1.042.02-2.114.08-3.204-2.66-2.283-5.08-4.893-7.52-8.082-2.63-3.48-4.76-6.99-6.54-10.75-2.14-4.58-3.41-8.69-4.01-12.95-.39-2.98-.38-5.67.03-8.25.23-1.31.57-2.94 1.28-4.68.38-1.04.97-2.12 1.29-2.68.35-.63.51-.87.76-1.2.07-.09.16-.22.37-.54l.08-.12.09-.12c2.51-3.32 5.62-5.21 7.79-6.2 2.31-1.06 4.82-1.76 7.68-2.13 1.46-.17 2.92-.26 4.37-.26 2.7 0 5.44.28 8.61.89 4.77 1 9.2 2.48 13.24 4.4 18.26-15.39 43.49-24.17 69.71-24.17 26.81 0 52.44 9.12 70.78 25.11 3.43-1.58 7.15-2.86 11.1-3.8 3.6-.8 6.66-1.17 9.71-1.17 1.09 0 2.19.05 3.27.15 2.95.3 5.42.91 7.79 1.92 2.2.95 5.35 2.75 7.96 5.98l.09.12.08.12c.22.33.32.45.39.55.26.33.42.56.79 1.19.33.56.94 1.61 1.35 2.63.59 1.35 1.02 2.76 1.39 4.57.5 2.66.59 5.27.29 8.28-.47 4.29-1.63 8.43-3.63 13.08-1.65 3.79-3.69 7.36-6.22 10.93-2.55 3.54-5.08 6.38-7.89 8.86.01.54.02 1.06.02 1.58 0 19.43-8.54 38.15-24.04 52.73-14.77 13.88-34.91 23.16-56.89 26.23-5.21 7.05-11.94 10.9-19.12 10.9zm86.497-130.647c2.246 3.12 4.23 6.357 5.937 9.693.23-.345.453-.69.667-1.038 1.298-2.1 2.26-4.206 2.71-5.93.24-.878.3-1.523.3-1.915-.306-.17-.808-.393-1.507-.55-1.3-.323-2.834-.484-4.514-.484-.826 0-1.69.03-2.57.11-.342.03-.682.07-1.023.11zm-177.625-.39c.013.39.092 1.02.347 1.863.515 1.747 1.538 3.834 2.89 5.906.374.568.775 1.136 1.196 1.696 1.89-3.59 4.09-7.064 6.6-10.397-.83-.1-1.66-.18-2.5-.24-.55-.03-1.14-.04-1.72-.04-2 0-3.81.21-5.22.6-.75.2-1.26.44-1.57.62z"/><path fill="#333" d="M128.196 47.036c27.95 0 53.026 10.02 70.13 25.892 3.977-2.1 8.248-3.634 12.69-4.7 2.795-.62 5.69-1.056 8.778-1.056.95 0 1.917.042 2.905.13 2.1.214 4.31.647 6.59 1.614 2.26.97 4.6 2.56 6.41 4.81.71 1.026.5.596 1.07 1.534.45.746.85 1.525 1.08 2.108.56 1.276.9 2.554 1.16 3.82.47 2.518.44 4.875.23 7.08-.49 4.402-1.76 8.26-3.33 11.894-1.58 3.623-3.53 6.993-5.81 10.205-2.31 3.21-4.92 6.258-8.35 9.087l-.28.23c-.03.02-.05.035-.08.054.06 1.12.09 2.245.09 3.376 0 38.105-34.35 69.667-79.19 75.218-4.38 6.586-10.31 10.637-16.85 10.637-6.84 0-13.01-4.43-17.44-11.56-41.86-7.52-73.17-37.93-73.17-74.3 0-1.68.07-3.34.2-4.99-3.45-2.7-6.1-5.63-8.47-8.73-2.38-3.15-4.41-6.46-6.1-10.04-1.67-3.59-3.05-7.41-3.66-11.8-.29-2.2-.38-4.55.02-7.08.23-1.28.53-2.57 1.06-3.86.21-.59.6-1.39 1.03-2.14.53-.95.35-.52 1.02-1.57 1.74-2.3 4.04-3.96 6.27-4.99 2.24-1.03 4.44-1.53 6.53-1.8 1.31-.16 2.6-.23 3.85-.23 2.74 0 5.33.33 7.86.82 5.13 1.08 10.04 2.79 14.58 5.26C76.11 56.63 100.75 47 128.15 47M39.81 98.6c3.04-7.286 7.403-14.072 12.848-20.176-3.125-.902-6.358-1.447-9.523-1.655-.666-.04-1.33-.06-1.99-.06-2.255 0-4.434.23-6.297.74-2.475.64-3.998 1.91-4.262 2.78-.32.82-.404 2.46.28 4.71.647 2.2 1.868 4.63 3.366 6.93 1.57 2.37 3.508 4.7 5.578 6.71m177.15.99c1.873-1.98 3.61-4.23 5.018-6.51 1.443-2.34 2.6-4.81 3.178-7.03.62-2.28.477-3.91.14-4.72-.282-.87-1.843-2.09-4.33-2.66-1.623-.41-3.475-.59-5.4-.59-.96 0-1.936.04-2.91.13-2.61.25-5.257.73-7.847 1.45 5.17 6.05 9.29 12.75 12.15 19.91M124 203.85c4.023 0 7.78-1.772 10.98-4.848-2.243.13-4.506.2-6.79.2-1.85 0-3.686-.048-5.51-.135-.743.253-1.556.398-2.388.398-1.064 0-2.157-.238-3.17-.798-1.687-.162-3.36-.36-5.018-.594 3.39 3.645 7.482 5.778 11.895 5.778m4.19-164.81c-26.23 0-51.54 8.51-70.33 23.5-3.67-1.55-7.6-2.77-11.73-3.64l-.08-.01-.08-.01c-3.43-.65-6.4-.96-9.36-.96-1.62 0-3.24.1-4.82.29l-.04.01-.04.01c-3.27.43-6.16 1.24-8.84 2.47-3.71 1.71-6.93 4.28-9.31 7.43l-.19.24-.17.25c-.13.2-.18.27-.22.33-.38.51-.63.91-1.05 1.64-.46.8-1.07 1.98-1.53 3.19-.83 2.05-1.22 3.92-1.48 5.33l-.02.09-.01.09c-.47 2.97-.48 6.03-.06 9.35v.05l.01.05c.65 4.66 2.03 9.13 4.33 14.06 1.91 4.05 4.18 7.79 6.96 11.48l.02.02.02.02c2.16 2.83 4.32 5.24 6.63 7.38-.01.5-.02.99-.02 1.47 0 19.57 8.25 38.62 23.23 53.63 13.69 13.73 32.48 23.56 53.2 27.91 5.91 7.88 13.85 12.33 22.19 12.33 8.01 0 15.46-3.94 21.29-11.18 22.16-3.41 42.45-12.93 57.44-27.03 16.27-15.31 25.25-35 25.3-55.48 2.5-2.37 4.8-5.05 7.1-8.24l.02-.02.02-.02c2.69-3.8 4.85-7.6 6.61-11.63 2.18-5.06 3.43-9.57 3.94-14.22v-.09c.33-3.35.23-6.41-.33-9.35l-.01-.07-.01-.06c-.27-1.29-.73-3.23-1.63-5.31-.49-1.2-1.14-2.36-1.61-3.14-.45-.73-.7-1.1-1.08-1.59-.05-.06-.11-.14-.25-.35l-.17-.24-.19-.23c-2.47-3.07-5.75-5.54-9.49-7.14-2.74-1.16-5.66-1.89-8.94-2.22h-.08c-1.2-.11-2.42-.16-3.63-.16-3.35 0-6.69.4-10.52 1.25l-.06.02-.06.01c-3.31.8-6.48 1.81-9.48 3.04-18.91-15.6-44.63-24.45-71.48-24.45z"/><path fill="#676767" d="M62.52 78.584s-31.138-10.86-37.237-1.998c-6.088 8.855 7.295 30.076 17.736 37.267 0 0-6.11-22.842 19.5-35.27z"/><path fill="#B3B3B3" d="M60.492 81.66c-5.23-2.966-11.418-4.5-17.355-4.89-2.945-.165-5.88.02-8.287.69-2.475.638-3.998 1.908-4.262 2.78-.32.82-.404 2.457.28 4.715.647 2.2 1.868 4.635 3.366 6.932 3.006 4.55 7.346 8.947 11.408 11.202 4.465 2.47 6.066 8.1 3.586 12.56-2.484 4.46-8.107 6.06-12.56 3.58-.41-.23-.786-.47-1.14-.75l-.322-.26c-3.516-2.73-6.207-5.71-8.607-8.84-2.38-3.15-4.41-6.46-6.1-10.04-1.68-3.59-3.05-7.41-3.66-11.8-.29-2.2-.38-4.55.02-7.08.23-1.28.53-2.57 1.06-3.86.21-.59.6-1.38 1.03-2.14.53-.95.34-.52 1.02-1.57 1.74-2.29 4.03-3.95 6.27-4.98 2.24-1.03 4.44-1.53 6.53-1.81 4.19-.51 8.03-.12 11.71.58 7.27 1.53 14.13 4.3 20.06 8.78 1.62 1.24 1.95 3.56.71 5.18-1.13 1.5-3.18 1.89-4.78.98z"/><path fill="#676767" d="M193.333 80.592c-11.566-5.203 30.813-11.742 37.166-3.058 6.34 8.68-3.93 27.01-14.16 34.495 0 0 2.94-19.75-23.01-31.44z"/><path fill="#B3B3B3" d="M191.214 77.575c5.79-4.65 12.572-7.613 19.803-9.346 3.654-.82 7.482-1.31 11.684-.93 2.11.21 4.32.64 6.6 1.61 2.26.97 4.6 2.56 6.41 4.81.71 1.02.5.59 1.07 1.53.45.74.86 1.52 1.09 2.1.57 1.27.91 2.55 1.17 3.82.48 2.52.45 4.87.23 7.08-.48 4.4-1.75 8.26-3.32 11.89-1.58 3.62-3.53 6.99-5.8 10.2-2.31 3.21-4.92 6.26-8.35 9.08l-.27.23c-3.94 3.23-9.76 2.67-13-1.27-3.23-3.94-2.66-9.76 1.27-13 .36-.29.78-.58 1.15-.81 4-2.37 8.21-6.89 11.08-11.53 1.45-2.34 2.6-4.81 3.18-7.03.62-2.28.48-3.91.14-4.72-.28-.87-1.84-2.1-4.33-2.66-2.43-.6-5.37-.71-8.31-.46-5.92.56-12.06 2.27-17.21 5.39-1.74 1.06-4.01.5-5.08-1.25-.97-1.6-.58-3.65.85-4.79z"/><path fill="#fff" d="M221.515 123.116c0 42.02-41.777 76.085-93.318 76.085-51.548 0-93.337-34.06-93.337-76.08 0-42.02 41.79-76.08 93.337-76.08 51.54 0 93.318 34.06 93.318 76.08z"/><path fill="#B3B3B3" d="M201.507 120.957c0 34.28-33.87 62.075-75.644 62.075-41.773 0-75.64-27.795-75.64-62.075 0-34.288 33.866-62.085 75.64-62.085 41.775 0 75.644 27.796 75.644 62.085z"/><path fill="#999898" d="M125.863 185.94c-43.31 0-78.55-29.155-78.55-64.984 0-35.835 35.24-64.993 78.55-64.993 43.314 0 78.554 29.158 78.554 64.993 0 35.83-35.24 64.985-78.554 64.985zm0-124.158c-40.107 0-72.734 26.545-72.734 59.175 0 32.627 32.62 59.168 72.73 59.168s72.73-26.54 72.73-59.168c0-32.63-32.63-59.175-72.74-59.175z"/><path fill="#333" d="M161.58 112.38h-27.997l5.564-8.443c7.13-11.393 12.43-20.38 12.482-20.473 1.59-2.787 5.14-3.638 7.94-2.034 2.78 1.6 3.75 5.07 2.14 7.855-.04.07-2.89 5.096-7.23 12.096h7.08c3.21 0 5.81 2.29 5.81 5.5 0 3.22-2.6 5.5-5.81 5.5z"/><path fill="#fff" d="M118.927 101.165c0 16.913-13.71 30.623-30.62 30.623-16.92 0-30.618-13.71-30.618-30.623 0-16.906 13.69-30.618 30.61-30.618 16.91 0 30.62 13.71 30.62 30.618z"/><path fill="#2974A7" d="M108.564 99.79c0 11.227-9.1 20.333-20.336 20.333-11.232 0-20.332-9.106-20.332-20.332 0-11.23 9.1-20.34 20.332-20.34 11.236 0 20.336 9.11 20.336 20.34z"/><path fill="#fff" d="M85.12 93.917c0 3.828-3.105 6.935-6.937 6.935-3.83 0-6.932-3.106-6.932-6.935 0-3.826 3.11-6.93 6.94-6.93 3.83 0 6.94 3.103 6.94 6.93zm7.64 7.486c0 1.797-1.466 3.252-3.263 3.252-1.795 0-3.254-1.455-3.254-3.252 0-1.803 1.46-3.26 3.254-3.26 1.797 0 3.262 1.457 3.262 3.26z"/><path fill="#333" d="M128.12 165.652c-3.216 0-5.5-2.6-5.5-5.816v-34.902c0-3.213 2.284-5.816 5.5-5.816s5.5 2.604 5.5 5.816v34.902c0 3.217-2.286 5.816-5.5 5.816z"/><path fill="#2974A7" d="M137.983 125.7c0 3.863-5.158 6.994-11.52 6.994-6.354 0-11.52-3.13-11.52-6.993s5.166-6.99 11.52-6.99c6.362 0 11.52 3.13 11.52 7z"/><path fill="#C1272D" d="M90.75 131.64l.667.513c.254.205.805.604 1.688 1.2 1.67 1.128 4.242 2.75 7.545 4.323 3.25 1.68 7.27 3.14 11.62 4.432 2.206.47 4.458 1.193 6.804 1.42l3.527.52 3.58.162c2.39.262 4.77-.11 7.12-.162 2.35-.082 4.61-.727 6.84-1.002 2.23-.37 4.29-1.193 6.31-1.693 2.04-.443 3.82-1.46 5.54-2.104 1.69-.76 3.31-1.24 4.61-2.08 1.33-.75 2.5-1.4 3.45-1.94l3.02-1.67 1.14-.63c5.61-3.09 12.65-1.06 15.75 4.55 3.05 5.5 1.11 12.43-4.29 15.6 0 0-1.39.82-3.85 2.25-1.23.72-2.73 1.58-4.44 2.57-1.65 1.07-3.82 1.84-6.06 2.88-2.29.93-4.64 2.21-7.43 2.94-2.75.79-5.58 1.87-8.67 2.48-3.1.51-6.27 1.34-9.58 1.57-3.31.19-6.67.64-10.03.4l-5.05-.17c-1.65-.21-3.31-.41-4.95-.62-3.3-.32-6.42-1.18-9.49-1.84-6.03-1.65-11.53-3.59-16.01-5.79-4.52-2.09-8.1-4.24-10.63-5.88-1.21-.79-2.28-1.54-3.1-2.15-.64-.48-.97-.74-.97-.74-5.46-4.12-6.54-11.88-2.43-17.34 4.12-5.46 11.88-6.54 17.33-2.42.03.01.05.03.07.05l.43.32z"/><path fill="#FF7BAC" d="M149.897 170.477c0 21.26-10.93 38.486-24.42 38.486-13.49 0-24.42-17.227-24.42-38.486 0-21.256 12.462-9.623 25.952-9.623 13.49 0 22.88-11.633 22.88 9.623z"/><path fill="#DD629A" d="M138.208 158.826c4.314-.37 6.898 1.465 6.898 11.76 0 18.37-9.438 33.262-21.1 33.262-11.67 0-21.118-14.89-21.118-33.262 0-16.742 8.854-11.135 19.242-9.998.428 3.584 3.596 31.408.428 33.908-3.395 2.672-9.693-3.875-9.693-3.875 1.215 11.16 10.158 9.75 12.61 6.6 6.26-8.02 3.09-35.83 3.09-35.83h-.117c3.605 0 6.9-1.44 9.76-2.25-3.047.27-6.97 1.46-11.46 1.73-2.574-.14-4.664-.58-4.664-.58s.018.09.02.18c-11.458-1.91-21.048-8.6-21.048 10.06 0 21.26 10.93 38.48 24.42 38.48 13.492 0 24.42-17.23 24.42-38.48 0-14.67-4.475-13.68-11.688-11.66z"/></svg>