<?xml version="1.0" encoding="utf-8"?>
<!-- Generator: Adobe Illustrator 16.0.0, SVG Export Plug-In . SVG Version: 6.00 Build 0)  -->
<!DOCTYPE svg PUBLIC "-//W3C//DTD SVG 1.1//EN" "http://www.w3.org/Graphics/SVG/1.1/DTD/svg11.dtd">
<svg version="1.1" id="Layer_1" xmlns="http://www.w3.org/2000/svg" xmlns:xlink="http://www.w3.org/1999/xlink" x="0px" y="0px"
	 width="256px" height="256px" viewBox="0 0 256 256" enable-background="new 0 0 256 256" xml:space="preserve">
<path fill="#FFFFFF" d="M128.195,208.08c-53.672,0-97.338-35.925-97.338-80.083c0-1.04,0.027-2.11,0.082-3.203
	c-2.67-2.29-5.09-4.902-7.53-8.09c-2.61-3.455-4.74-6.964-6.54-10.746c-2.15-4.608-3.42-8.718-4.01-12.96
	c-0.39-2.97-0.38-5.66,0.03-8.255c0.23-1.32,0.58-2.956,1.28-4.68c0.29-0.784,0.75-1.754,1.29-2.68c0.35-0.624,0.51-0.87,0.76-1.202
	c0.07-0.09,0.16-0.22,0.37-0.54l0.08-0.12l0.09-0.12c2.52-3.32,5.62-5.2,7.78-6.2c2.35-1.08,4.79-1.75,7.69-2.13
	c1.46-0.17,2.92-0.26,4.38-0.26c2.7,0,5.43,0.28,8.6,0.89c4.77,1,9.2,2.48,13.24,4.4c18.26-15.39,43.49-24.17,69.71-24.17
	c26.81,0,52.44,9.12,70.79,25.11c3.43-1.58,7.16-2.86,11.1-3.8c3.59-0.8,6.66-1.16,9.71-1.16c1.091,0,2.19,0.05,3.271,0.15
	c2.92,0.3,5.449,0.93,7.789,1.92c2.211,0.95,5.371,2.75,7.961,5.99l0.09,0.11l0.08,0.12c0.23,0.33,0.33,0.46,0.4,0.56
	c0.26,0.33,0.42,0.56,0.81,1.2c0.53,0.88,1.03,1.84,1.35,2.63c0.591,1.36,1.04,2.82,1.39,4.57c0.5,2.62,0.591,5.31,0.291,8.28
	c-0.471,4.29-1.631,8.44-3.641,13.08c-1.65,3.79-3.689,7.37-6.22,10.93c-2.54,3.54-5.07,6.38-7.88,8.86
	c0.01,0.54,0.02,1.06,0.02,1.58c-0.01,44.16-43.66,80.089-97.33,80.089L128.195,208.08z M211.973,87.203
	c2.246,3.12,4.23,6.357,5.938,9.694c0.23-0.344,0.451-0.69,0.666-1.036c1.297-2.09,2.26-4.2,2.71-5.93c0.239-0.87,0.3-1.52,0.3-1.91
	c-0.307-0.17-0.811-0.39-1.51-0.55c-1.299-0.32-2.833-0.48-4.516-0.48c-0.819,0-1.68,0.04-2.56,0.12
	c-0.34,0.03-0.68,0.07-1.021,0.11L211.973,87.203z M34.349,86.813c0.01,0.39,0.09,1.023,0.34,1.87c0.51,1.74,1.53,3.828,2.89,5.9
	c0.37,0.57,0.77,1.137,1.2,1.698c1.88-3.59,4.08-7.06,6.59-10.39c-0.83-0.1-1.67-0.18-2.51-0.24c-0.55-0.03-1.14-0.05-1.73-0.05
	c-2.01,0-3.82,0.21-5.23,0.6c-0.75,0.19-1.27,0.44-1.57,0.62L34.349,86.813z"/>
<path fill="#333333" d="M128.195,51.917c27.95,0,53.025,10.02,70.128,25.89c3.979-2.1,8.25-3.634,12.692-4.698
	c2.793-0.63,5.689-1.06,8.781-1.06c0.95,0,1.917,0.04,2.905,0.13c2.1,0.21,4.315,0.65,6.588,1.61c2.256,0.97,4.604,2.56,6.408,4.81
	c0.713,1.02,0.5,0.59,1.067,1.53c0.455,0.74,0.855,1.52,1.088,2.1c0.563,1.27,0.906,2.55,1.164,3.82c0.48,2.52,0.455,4.87,0.23,7.08
	c-0.484,4.4-1.754,8.26-3.326,11.89c-1.576,3.62-3.523,6.99-5.805,10.21c-2.313,3.2-4.912,6.25-8.35,9.08l-0.281,0.23
	c-0.021,0.02-0.047,0.03-0.069,0.05c0.06,1.12,0.097,2.24,0.097,3.38c0,42.021-41.779,76.08-93.32,76.08
	c-51.55,0-93.338-34.06-93.338-76.09c0-1.68,0.074-3.34,0.205-4.99c-3.44-2.7-6.1-5.63-8.46-8.729c-2.37-3.15-4.4-6.46-6.1-10.03
	c-1.67-3.59-3.04-7.41-3.65-11.8c-0.28-2.2-0.37-4.55,0.02-7.08c0.23-1.28,0.53-2.57,1.07-3.86c0.21-0.58,0.6-1.38,1.03-2.14
	c0.53-0.95,0.34-0.52,1.021-1.56c1.74-2.3,4.04-3.96,6.27-4.99c2.25-1.04,4.44-1.53,6.53-1.8c1.32-0.16,2.61-0.23,3.86-0.23
	c2.74,0,5.34,0.33,7.86,0.81c5.13,1.08,10.05,2.79,14.58,5.26c17.08-15.32,41.72-24.95,69.12-24.95 M39.821,103.439
	c3.05-7.29,7.41-14.08,12.85-20.18c-3.12-0.9-6.36-1.45-9.52-1.66c-0.67-0.04-1.33-0.06-1.99-0.06c-2.25,0-4.43,0.23-6.3,0.75
	c-2.47,0.64-4,1.91-4.26,2.78c-0.31,0.83-0.4,2.46,0.28,4.72c0.65,2.2,1.87,4.64,3.37,6.93c1.58,2.38,3.51,4.71,5.58,6.72
	 M216.98,104.429c1.881-1.99,3.61-4.23,5.021-6.51c1.45-2.34,2.601-4.81,3.181-7.03c0.619-2.28,0.479-3.91,0.139-4.72
	c-0.279-0.87-1.84-2.09-4.329-2.66c-1.62-0.4-3.47-0.58-5.4-0.58c-0.96,0-1.93,0.04-2.909,0.13c-2.611,0.25-5.25,0.73-7.841,1.44
	c5.181,6.05,9.3,12.75,12.15,19.91 M128.22,43.9c-26.229,0-51.54,8.51-70.33,23.5c-3.67-1.55-7.59-2.77-11.723-3.64l-0.076-0.01
	l-0.07-0.01c-3.42-0.652-6.4-0.96-9.35-0.96c-1.62,0-3.24,0.1-4.82,0.29l-0.04,0.005l-0.03,0.004c-3.271,0.43-6.16,1.23-8.84,2.47
	c-3.7,1.7-6.92,4.27-9.31,7.42l-0.18,0.23l-0.16,0.24c-0.13,0.2-0.18,0.28-0.23,0.34c-0.38,0.51-0.62,0.9-1.04,1.63
	c-0.37,0.65-1.04,1.89-1.52,3.18c-0.83,2.04-1.22,3.92-1.48,5.34l-0.02,0.09l-0.01,0.08c-0.47,2.98-0.49,6.04-0.05,9.36v0.06
	c0.65,4.65,2.03,9.12,4.33,14.07l0.01,0.02l0.02,0.02c1.91,4.03,4.18,7.76,6.94,11.42c2.18,2.85,4.35,5.27,6.66,7.42
	c-0.01,0.5-0.01,0.99-0.01,1.47c0,22.77,10.76,44.081,30.29,60c19.05,15.529,44.29,24.08,71.06,24.08c26.77,0,52-8.561,71.05-24.09
	c19.48-15.881,30.23-37.131,30.279-59.841c2.5-2.38,4.801-5.05,7.091-8.23l0.01-0.02l0.021-0.02c2.689-3.79,4.859-7.6,6.619-11.64
	c2.181-5.03,3.431-9.54,3.94-14.21v-0.06c0.34-3.36,0.229-6.43-0.33-9.39l-0.01-0.05l-0.011-0.05c-0.409-2.02-0.93-3.72-1.629-5.33
	c-0.4-0.98-0.98-2.1-1.641-3.17c-0.42-0.7-0.67-1.07-1.05-1.56c-0.05-0.06-0.12-0.15-0.271-0.36l-0.16-0.23l-0.17-0.22
	c-3.109-3.88-6.879-6.03-9.489-7.15c-2.74-1.17-5.65-1.89-8.931-2.22h-0.039l-0.041-0.01c-1.189-0.11-2.41-0.17-3.619-0.17
	c-3.351,0-6.69,0.4-10.521,1.25l-0.06,0.01l-0.061,0.01c-3.31,0.79-6.479,1.81-9.479,3.03c-18.91-15.59-44.63-24.44-71.47-24.44
	L128.22,43.9z"/>
<path fill="#676767" d="M62.518,83.466c0,0-31.135-10.86-37.236-2c-6.092,8.856,7.293,30.078,17.736,37.27
	C43.018,118.734,36.916,95.893,62.518,83.466z"/>
<path fill="#B3B3B3" d="M60.49,86.543c-5.23-2.97-11.42-4.5-17.355-4.893c-2.95-0.164-5.88,0.02-8.29,0.69
	c-2.474,0.64-3.997,1.908-4.257,2.78c-0.318,0.82-0.404,2.457,0.275,4.715c0.648,2.2,1.87,4.637,3.367,6.932
	c3.008,4.55,7.348,8.946,11.41,11.2c4.467,2.48,6.066,8.105,3.588,12.565c-2.484,4.46-8.11,6.064-12.564,3.584
	c-0.404-0.225-0.78-0.47-1.135-0.743l-0.33-0.254c-3.52-2.73-6.21-5.71-8.61-8.85c-2.38-3.15-4.41-6.46-6.1-10.04
	c-1.67-3.59-3.05-7.41-3.66-11.8c-0.29-2.2-0.38-4.55,0.02-7.08c0.23-1.28,0.52-2.57,1.06-3.86c0.21-0.59,0.59-1.39,1.03-2.14
	c0.53-0.95,0.34-0.52,1.02-1.57c1.74-2.3,4.03-3.96,6.27-4.99c2.24-1.03,4.44-1.53,6.53-1.8c4.19-0.51,8.03-0.12,11.71,0.58
	c7.271,1.53,14.13,4.3,20.06,8.78c1.62,1.23,1.94,3.55,0.71,5.18c-1.14,1.5-3.19,1.88-4.78,0.98L60.49,86.543z"/>
<path fill="#676767" d="M193.332,85.473c-11.566-5.203,30.813-11.742,37.162-3.058c6.348,8.68-3.924,27.013-14.154,34.495
	C216.34,116.91,219.283,97.164,193.332,85.473z"/>
<path fill="#B3B3B3" d="M191.21,82.455c5.792-4.65,12.573-7.613,19.806-9.345c3.652-0.813,7.482-1.307,11.688-0.927
	c2.101,0.214,4.315,0.65,6.588,1.614c2.256,0.97,4.604,2.56,6.408,4.81c0.713,1.026,0.5,0.597,1.067,1.536
	c0.455,0.744,0.855,1.524,1.088,2.106c0.563,1.27,0.906,2.55,1.164,3.82c0.48,2.51,0.455,4.87,0.23,7.07
	c-0.484,4.4-1.754,8.26-3.326,11.89c-1.576,3.62-3.523,6.99-5.805,10.2c-2.32,3.21-4.92,6.25-8.35,9.08l-0.28,0.23
	c-3.94,3.24-9.761,2.67-13.011-1.27c-3.239-3.94-2.67-9.77,1.271-13c0.36-0.3,0.771-0.58,1.149-0.82c4-2.37,8.211-6.89,11.07-11.53
	c1.44-2.34,2.6-4.81,3.18-7.03c0.621-2.27,0.471-3.9,0.141-4.71c-0.29-0.87-1.85-2.09-4.34-2.66c-2.43-0.61-5.37-0.71-8.311-0.46
	c-5.92,0.56-12.06,2.27-17.21,5.39c-1.75,1.06-4.02,0.5-5.079-1.24c-0.971-1.61-0.58-3.66,0.84-4.8L191.21,82.455z"/>
<path fill="#FFFFFF" d="M221.516,127.997c0,42.022-41.779,76.083-93.319,76.083c-51.55,0-93.338-34.061-93.338-76.083
	c0-42.018,41.787-76.08,93.338-76.08C179.736,51.917,221.516,85.979,221.516,127.997z"/>
<path fill="#B3B3B3" d="M201.506,125.84c0,34.276-33.867,62.074-75.648,62.074c-41.768,0-75.637-27.798-75.637-62.075
	c0-34.29,33.87-62.09,75.64-62.09c41.78,0,75.65,27.8,75.65,62.08L201.506,125.84z"/>
<path fill="#999898" d="M125.857,190.82c-43.31,0-78.55-29.152-78.55-64.98c0-35.838,35.24-64.996,78.55-64.996
	c43.32,0,78.557,29.158,78.557,64.995c0,35.82-35.236,64.979-78.557,64.979V190.82z M125.857,66.662
	c-40.105,0-72.73,26.546-72.73,59.177c0,32.62,32.625,59.16,72.73,59.16c40.11,0,72.741-26.54,72.741-59.17
	s-32.628-59.18-72.741-59.18V66.662z"/>
<path fill="#FFFFFF" d="M123.598,106.047c0,19.492-15.797,35.293-35.293,35.293c-19.502,0-35.297-15.8-35.297-35.293
	c0-19.49,15.795-35.295,35.297-35.295C107.801,70.752,123.598,86.556,123.598,106.047z"/>
<path fill="#2974A7" d="M108.56,104.672c0,11.225-9.1,20.332-20.335,20.332c-11.232,0-20.33-9.107-20.33-20.332
	c0-11.232,9.098-20.34,20.33-20.34C99.461,84.332,108.561,93.439,108.56,104.672L108.56,104.672z"/>
<path fill="#FFFFFF" d="M85.12,98.8c0,3.827-3.105,6.93-6.94,6.93c-3.83,0-6.93-3.103-6.93-6.93c0-3.827,3.1-6.933,6.93-6.933
	C82.016,91.867,85.12,94.973,85.12,98.8L85.12,98.8z M92.758,106.28c0,1.8-1.467,3.253-3.262,3.253
	c-1.797,0-3.256-1.453-3.256-3.252c0-1.8,1.46-3.25,3.256-3.25c1.795,0,3.262,1.46,3.262,3.26V106.28z M199.225,106.047
	c0,19.492-15.803,35.293-35.3,35.293c-19.5,0-35.294-15.8-35.294-35.293c0-19.49,15.801-35.295,35.301-35.295
	s35.299,15.804,35.299,35.295H199.225z"/>
<path fill="#2974A7" d="M184.188,104.672c0,11.225-9.102,20.332-20.342,20.332c-11.229,0-20.33-9.107-20.33-20.332
	c0-11.232,9.103-20.34,20.33-20.34C175.086,84.332,184.188,93.439,184.188,104.672z"/>
<path fill="#FFFFFF" d="M160.74,98.8c0,3.827-3.102,6.93-6.936,6.93c-3.83,0-6.931-3.103-6.931-6.93
	c0-3.827,3.101-6.933,6.931-6.933C157.639,91.867,160.74,94.973,160.74,98.8L160.74,98.8z M168.383,106.28
	c0,1.8-1.47,3.253-3.26,3.253c-1.797,0-3.258-1.453-3.258-3.252c0-1.8,1.46-3.25,3.258-3.25c1.79,0,3.26,1.46,3.26,3.26V106.28z"/>
<path fill="#333333" d="M126.793,170.535c-3.212,0-5.5-2.602-5.5-5.816v-34.91c0-3.22,2.288-5.819,5.5-5.819
	c3.216,0,5.5,2.6,5.5,5.81v34.9c0,3.21-2.284,5.81-5.5,5.81V170.535z"/>
<path fill="#2974A7" d="M138.312,130.582c0,3.861-5.158,6.993-11.523,6.993c-6.35,0-11.52-3.13-11.52-6.993s5.17-6.992,11.52-6.992
	c6.37,0,11.53,3.13,11.53,6.992H138.312z"/>
<path fill="#FF7BAC" d="M149.895,163.725c0,21.26-10.93,38.489-24.421,38.489c-13.49,0-24.42-17.229-24.42-38.489
	c0-21.261,12.465-9.623,25.955-9.623C140.502,154.102,149.895,142.465,149.895,163.725z"/>
<path fill="#DD629A" d="M138.205,152.07c4.316-0.367,6.9,1.47,6.9,11.76c0,18.373-9.44,33.264-21.103,33.264
	c-11.672,0-21.117-14.89-21.117-33.263c0-16.729,8.85-11.13,19.242-9.99c0.424,3.591,3.598,31.41,0.424,33.91
	c-3.39,2.67-9.69-3.87-9.69-3.87c1.216,11.15,10.155,8.62,12.61,5.48c6.262-8.021,3.094-36.961,3.094-36.961h-0.12
	c3.605,0,6.899-0.319,9.76-1.129c-3.048,0.27-6.972,2.029-11.462,2.299c-2.572-0.139-4.662-0.31-4.662-0.31s0.018,0.24,0.02,0.32
	c-11.456-1.91-21.05-8.53-21.05,10.12c0,21.26,10.93,38.51,24.42,38.51c13.492,0,24.422-17.21,24.422-38.46
	c0-14.67-4.473-13.66-11.69-11.64L138.205,152.07z"/>
<path fill="#333333" d="M167.393,158.38H85.95c-3.214,0-5.815-1.782-5.815-5c0-3.215,2.602-5,5.816-5H167.4
	c3.221,0,5.82,1.785,5.82,5c0,3.218-2.6,5-5.81,5H167.393z"/>
</svg>
