<svg xmlns="http://www.w3.org/2000/svg" width="256" height="256" viewBox="0 0 256 256"><path fill="#fff" d="M128.195 208.08c-53.672 0-97.338-35.925-97.338-80.083 0-1.04.027-2.11.082-3.203-2.67-2.29-5.09-4.902-7.53-8.09-2.61-3.455-4.74-6.964-6.54-10.746-2.15-4.608-3.42-8.718-4.01-12.96-.39-2.97-.38-5.66.03-8.255.23-1.32.58-2.956 1.28-4.68.29-.784.75-1.754 1.29-2.68.35-.624.51-.87.76-1.202.07-.09.16-.22.37-.54l.08-.12.09-.12c2.52-3.32 5.62-5.2 7.78-6.2 2.35-1.08 4.79-1.75 7.69-2.13 1.46-.17 2.92-.26 4.38-.26 2.7 0 5.43.28 8.6.89 4.77 1 9.2 2.48 13.24 4.4 18.26-15.39 43.49-24.17 69.71-24.17 26.81 0 52.44 9.12 70.79 25.11 3.43-1.58 7.16-2.86 11.1-3.8 3.59-.8 6.66-1.16 9.71-1.16 1.09 0 2.19.05 3.27.15 2.92.3 5.45.93 7.79 1.92 2.21.95 5.37 2.75 7.96 5.99l.09.11.08.12c.23.33.33.46.4.56.26.33.42.56.81 1.2.53.88 1.03 1.84 1.35 2.63.59 1.36 1.04 2.82 1.39 4.57.5 2.62.59 5.31.29 8.28-.47 4.29-1.63 8.44-3.64 13.08-1.65 3.79-3.69 7.37-6.22 10.93-2.54 3.54-5.07 6.38-7.88 8.86.01.54.02 1.06.02 1.58-.01 44.16-43.66 80.09-97.33 80.09zm83.778-120.877c2.246 3.12 4.23 6.357 5.937 9.694.23-.344.452-.69.666-1.036 1.297-2.09 2.26-4.2 2.71-5.93.24-.87.3-1.52.3-1.91-.307-.17-.81-.39-1.51-.55-1.298-.32-2.833-.48-4.515-.48-.82 0-1.68.04-2.56.12-.34.03-.68.07-1.02.11zm-177.624-.39c.01.39.09 1.023.34 1.87.51 1.74 1.53 3.828 2.89 5.9.37.57.77 1.137 1.2 1.698 1.88-3.59 4.08-7.06 6.59-10.39-.83-.1-1.67-.18-2.51-.24-.55-.03-1.14-.05-1.73-.05-2.01 0-3.82.21-5.23.6-.75.19-1.27.44-1.57.62z"/><path fill="#333" d="M128.195 51.917c27.95 0 53.025 10.02 70.128 25.89 3.98-2.1 8.25-3.634 12.692-4.698 2.794-.63 5.69-1.06 8.782-1.06.95 0 1.917.04 2.905.13 2.1.21 4.316.65 6.588 1.61 2.256.97 4.604 2.56 6.408 4.81.713 1.02.5.59 1.068 1.53.455.74.855 1.52 1.088 2.1.563 1.27.906 2.55 1.164 3.82.48 2.52.455 4.87.23 7.08-.484 4.4-1.754 8.26-3.326 11.89-1.576 3.62-3.523 6.99-5.805 10.21-2.313 3.2-4.912 6.25-8.35 9.08l-.28.23c-.022.02-.047.03-.07.05.06 1.12.097 2.24.097 3.38 0 42.02-41.78 76.08-93.32 76.08-51.55 0-93.338-34.06-93.338-76.09 0-1.68.074-3.34.205-4.99-3.44-2.7-6.1-5.63-8.46-8.73-2.37-3.15-4.4-6.46-6.1-10.03-1.67-3.59-3.04-7.41-3.65-11.8-.28-2.2-.37-4.55.02-7.08.23-1.28.53-2.57 1.07-3.86.21-.58.6-1.38 1.03-2.14.53-.95.34-.52 1.02-1.56 1.74-2.3 4.04-3.96 6.27-4.99 2.25-1.04 4.44-1.53 6.53-1.8 1.32-.16 2.61-.23 3.86-.23 2.74 0 5.34.33 7.86.81 5.13 1.08 10.05 2.79 14.58 5.26 17.08-15.32 41.72-24.95 69.12-24.95m-88.39 51.57c3.05-7.29 7.41-14.08 12.85-20.18-3.12-.9-6.36-1.45-9.52-1.66-.67-.04-1.33-.06-1.99-.06-2.25 0-4.43.23-6.3.75-2.47.64-4 1.91-4.26 2.78-.31.83-.4 2.46.28 4.72.65 2.2 1.87 4.64 3.37 6.93 1.58 2.38 3.51 4.71 5.58 6.72m177.15.99c1.88-1.99 3.61-4.23 5.02-6.51 1.45-2.34 2.6-4.81 3.18-7.03.62-2.28.48-3.91.14-4.72-.28-.87-1.84-2.09-4.33-2.66-1.62-.4-3.47-.58-5.4-.58-.96 0-1.93.04-2.91.13-2.61.25-5.25.73-7.84 1.44 5.18 6.05 9.3 12.75 12.15 19.91M128.22 43.9c-26.23 0-51.54 8.51-70.33 23.5-3.67-1.55-7.59-2.77-11.723-3.64l-.076-.01-.07-.01c-3.42-.652-6.4-.96-9.35-.96-1.62 0-3.24.1-4.82.29l-.04.005-.03.004c-3.27.43-6.16 1.23-8.84 2.47-3.7 1.7-6.92 4.27-9.31 7.42l-.18.23-.16.24c-.13.2-.18.28-.23.34-.38.51-.62.9-1.04 1.63-.37.65-1.04 1.89-1.52 3.18-.83 2.04-1.22 3.92-1.48 5.34l-.02.09-.01.08c-.47 2.98-.49 6.04-.05 9.36v.06c.65 4.65 2.03 9.12 4.33 14.07l.01.02.02.02c1.91 4.03 4.18 7.76 6.94 11.42 2.18 2.85 4.35 5.27 6.66 7.42-.01.5-.01.99-.01 1.47 0 22.77 10.76 44.08 30.29 60 19.05 15.53 44.29 24.08 71.06 24.08s52-8.56 71.05-24.09c19.48-15.88 30.23-37.13 30.28-59.84 2.5-2.38 4.8-5.05 7.09-8.23l.01-.02.02-.02c2.69-3.79 4.86-7.6 6.62-11.64 2.18-5.03 3.43-9.54 3.94-14.21v-.06c.34-3.36.23-6.43-.33-9.39l-.01-.05-.01-.05c-.41-2.02-.93-3.72-1.63-5.33-.4-.98-.98-2.1-1.64-3.17-.42-.7-.67-1.07-1.05-1.56-.05-.06-.12-.15-.27-.36l-.16-.23-.17-.22c-3.11-3.88-6.88-6.03-9.49-7.15-2.74-1.17-5.65-1.89-8.93-2.22h-.04l-.04-.01c-1.19-.11-2.41-.17-3.62-.17-3.35 0-6.69.4-10.52 1.25l-.06.01-.06.01c-3.31.79-6.48 1.81-9.48 3.03-18.91-15.59-44.63-24.44-71.47-24.44z"/><path fill="#676767" d="M62.518 83.466s-31.135-10.86-37.236-2c-6.092 8.856 7.293 30.078 17.736 37.27 0-.002-6.102-22.843 19.5-35.27z"/><path fill="#B3B3B3" d="M60.49 86.543c-5.23-2.97-11.42-4.5-17.355-4.893-2.95-.164-5.88.02-8.29.69-2.474.64-3.997 1.908-4.257 2.78-.318.82-.404 2.457.275 4.715.648 2.2 1.87 4.637 3.367 6.932 3.008 4.55 7.348 8.946 11.41 11.2 4.467 2.48 6.066 8.105 3.588 12.565-2.484 4.46-8.11 6.064-12.564 3.584-.404-.225-.78-.47-1.135-.743l-.33-.254c-3.52-2.73-6.21-5.71-8.61-8.85-2.38-3.15-4.41-6.46-6.1-10.04-1.67-3.59-3.05-7.41-3.66-11.8-.29-2.2-.38-4.55.02-7.08.23-1.28.52-2.57 1.06-3.86.21-.59.59-1.39 1.03-2.14.53-.95.34-.52 1.02-1.57 1.74-2.3 4.03-3.96 6.27-4.99 2.24-1.03 4.44-1.53 6.53-1.8 4.19-.51 8.03-.12 11.71.58 7.27 1.53 14.13 4.3 20.06 8.78 1.62 1.23 1.94 3.55.71 5.18-1.14 1.5-3.19 1.88-4.78.98z"/><path fill="#676767" d="M193.332 85.473c-11.566-5.203 30.813-11.742 37.162-3.058 6.348 8.68-3.924 27.013-14.154 34.495 0 0 2.943-19.746-23.008-31.437z"/><path fill="#B3B3B3" d="M191.21 82.455c5.792-4.65 12.573-7.613 19.806-9.345 3.652-.813 7.482-1.307 11.688-.927 2.1.214 4.316.65 6.588 1.614 2.256.97 4.604 2.56 6.408 4.81.713 1.026.5.597 1.068 1.536.455.744.855 1.524 1.088 2.106.563 1.27.906 2.55 1.164 3.82.48 2.51.455 4.87.23 7.07-.484 4.4-1.754 8.26-3.326 11.89-1.576 3.62-3.523 6.99-5.805 10.2-2.32 3.21-4.92 6.25-8.35 9.08l-.28.23c-3.94 3.24-9.76 2.67-13.01-1.27-3.24-3.94-2.67-9.77 1.27-13 .36-.3.77-.58 1.15-.82 4-2.37 8.21-6.89 11.07-11.53 1.44-2.34 2.6-4.81 3.18-7.03.62-2.27.47-3.9.14-4.71-.29-.87-1.85-2.09-4.34-2.66-2.43-.61-5.37-.71-8.31-.46-5.92.56-12.06 2.27-17.21 5.39-1.75 1.06-4.02.5-5.08-1.24-.97-1.61-.58-3.66.84-4.8z"/><path fill="#fff" d="M221.516 127.997c0 42.022-41.78 76.083-93.32 76.083-51.55 0-93.338-34.06-93.338-76.083 0-42.018 41.787-76.08 93.338-76.08 51.54 0 93.32 34.062 93.32 76.08z"/><path fill="#B3B3B3" d="M201.506 125.84c0 34.276-33.867 62.074-75.648 62.074-41.768 0-75.637-27.798-75.637-62.075 0-34.29 33.87-62.09 75.64-62.09 41.78 0 75.65 27.8 75.65 62.08z"/><path fill="#999898" d="M125.857 190.82c-43.31 0-78.55-29.152-78.55-64.98 0-35.838 35.24-64.996 78.55-64.996 43.32 0 78.557 29.158 78.557 64.995 0 35.82-35.236 64.98-78.557 64.98zm0-124.158c-40.105 0-72.73 26.546-72.73 59.177 0 32.62 32.625 59.16 72.73 59.16 40.11 0 72.74-26.54 72.74-59.17s-32.627-59.18-72.74-59.18z"/><path fill="#fff" d="M123.598 106.047c0 19.492-15.797 35.293-35.293 35.293-19.502 0-35.297-15.8-35.297-35.293 0-19.49 15.795-35.295 35.297-35.295 19.496 0 35.293 15.804 35.293 35.295z"/><path fill="#2974A7" d="M108.56 104.672c0 11.225-9.1 20.332-20.335 20.332-11.232 0-20.33-9.107-20.33-20.332 0-11.232 9.098-20.34 20.33-20.34 11.236 0 20.336 9.107 20.336 20.34z"/><path fill="#fff" d="M85.12 98.8c0 3.827-3.105 6.93-6.94 6.93-3.83 0-6.93-3.103-6.93-6.93 0-3.827 3.1-6.933 6.93-6.933 3.836 0 6.94 3.106 6.94 6.932zm7.638 7.48c0 1.8-1.467 3.253-3.262 3.253-1.797 0-3.256-1.453-3.256-3.252 0-1.8 1.46-3.25 3.256-3.25 1.795 0 3.262 1.46 3.262 3.26zm106.467-.233c0 19.492-15.803 35.293-35.3 35.293-19.5 0-35.294-15.8-35.294-35.293 0-19.49 15.8-35.295 35.3-35.295 19.5 0 35.3 15.804 35.3 35.295z"/><path fill="#2974A7" d="M184.188 104.672c0 11.225-9.102 20.332-20.342 20.332-11.23 0-20.33-9.107-20.33-20.332 0-11.232 9.102-20.34 20.33-20.34 11.24 0 20.342 9.107 20.342 20.34z"/><path fill="#fff" d="M160.74 98.8c0 3.827-3.102 6.93-6.936 6.93-3.83 0-6.93-3.103-6.93-6.93 0-3.827 3.1-6.933 6.93-6.933 3.835 0 6.936 3.106 6.936 6.932zm7.643 7.48c0 1.8-1.47 3.253-3.26 3.253-1.797 0-3.258-1.453-3.258-3.252 0-1.8 1.46-3.25 3.258-3.25 1.79 0 3.26 1.46 3.26 3.26z"/><path fill="#333" d="M127.12 170.535c-3.212 0-5.5-2.602-5.5-5.816v-34.91c0-3.22 2.288-5.82 5.5-5.82 3.216 0 5.5 2.6 5.5 5.81v34.9c0 3.21-2.284 5.81-5.5 5.81z"/><path fill="#2974A7" d="M137.984 130.582c0 3.862-5.158 6.993-11.523 6.993-6.35 0-11.52-3.13-11.52-6.993 0-3.863 5.17-6.992 11.52-6.992 6.37 0 11.53 3.13 11.53 6.992z"/><path fill="#FF7BAC" d="M149.895 163.724c0 21.26-10.93 38.49-24.422 38.49-13.49 0-24.42-17.23-24.42-38.49s12.465-9.622 25.955-9.622c13.494 0 22.887-11.637 22.887 9.622z"/><path fill="#DD629A" d="M138.205 152.07c4.316-.367 6.9 1.47 6.9 11.76 0 18.373-9.44 33.264-21.102 33.264-11.672 0-21.117-14.89-21.117-33.263 0-16.73 8.85-11.13 19.242-9.99.424 3.59 3.598 31.41.424 33.91-3.39 2.67-9.69-3.87-9.69-3.87 1.216 11.15 10.155 8.62 12.61 5.48 6.262-8.02 3.094-36.96 3.094-36.96h-.12c3.606 0 6.9-.32 9.76-1.13-3.048.27-6.972 2.03-11.462 2.3-2.572-.14-4.662-.31-4.662-.31s.018.24.02.32c-11.456-1.91-21.05-8.53-21.05 10.12 0 21.26 10.93 38.51 24.42 38.51 13.492 0 24.422-17.21 24.422-38.46 0-14.67-4.472-13.66-11.69-11.64z"/><path fill="#333" d="M167.393 158.38H85.95c-3.214 0-5.815-1.782-5.815-5 0-3.215 2.602-5 5.816-5h81.45c3.22 0 5.82 1.785 5.82 5 0 3.218-2.6 5-5.81 5z"/></svg>