<svg xmlns="http://www.w3.org/2000/svg" width="256" height="256" viewBox="0 0 256 256"><path fill="#fff" d="M128.197 208.084c-53.672 0-97.338-35.927-97.338-80.086 0-1.042.02-2.114.08-3.204-2.66-2.283-5.08-4.893-7.52-8.082-2.62-3.48-4.76-6.99-6.54-10.756-2.15-4.607-3.42-8.718-4.01-12.958-.39-2.97-.38-5.658.03-8.25.23-1.312.58-2.937 1.28-4.673.38-1.046.96-2.124 1.28-2.684.35-.63.51-.87.76-1.21.07-.09.15-.21.36-.53l.08-.13.09-.12c2.51-3.32 5.62-5.21 7.78-6.2 2.31-1.06 4.83-1.76 7.69-2.13 1.46-.17 2.92-.26 4.37-.26 2.7 0 5.44.29 8.61.89 4.77 1.01 9.2 2.48 13.24 4.41 18.25-15.39 43.48-24.17 69.71-24.17 26.81 0 52.44 9.12 70.78 25.11 3.43-1.58 7.15-2.86 11.1-3.8 3.6-.8 6.66-1.16 9.71-1.16 1.09 0 2.19.05 3.27.15 2.92.3 5.46.92 7.8 1.92 2.21.95 5.36 2.75 7.96 5.99l.09.12.08.12c.22.32.32.45.39.54.26.32.43.56.82 1.2.32.53.93 1.58 1.35 2.63.59 1.36 1.03 2.81 1.39 4.57.5 2.63.59 5.32.28 8.29-.47 4.26-1.62 8.41-3.63 13.07-1.66 3.8-3.69 7.38-6.22 10.94-2.54 3.53-5.07 6.38-7.88 8.86.01.54.02 1.06.02 1.58 0 44.16-43.66 80.09-97.32 80.09zm83.78-120.88c2.244 3.12 4.227 6.357 5.935 9.693.23-.344.452-.69.666-1.035 1.296-2.096 2.258-4.203 2.71-5.936.24-.875.3-1.52.3-1.91-.307-.172-.81-.393-1.51-.552-1.298-.322-2.83-.483-4.512-.483-.825 0-1.69.04-2.572.12-.34.03-.68.07-1.018.11zm-177.627-.39c.013.39.092 1.02.348 1.864.514 1.75 1.536 3.834 2.888 5.904.376.57.776 1.136 1.198 1.697 1.882-3.59 4.085-7.07 6.593-10.4-.83-.11-1.664-.19-2.502-.24-.552-.03-1.142-.05-1.727-.05-2.007 0-3.813.21-5.22.6-.753.19-1.27.43-1.578.62z"/><path fill="#333" d="M128.197 51.917c27.95 0 53.026 10.02 70.13 25.89 3.977-2.098 8.246-3.632 12.688-4.697 2.795-.622 5.692-1.057 8.78-1.057.95 0 1.917.042 2.905.13 2.104.214 4.318.647 6.592 1.614 2.254.97 4.6 2.56 6.406 4.81.71 1.026.504.596 1.07 1.534.455.75.86 1.53 1.09 2.11.56 1.28.904 2.56 1.164 3.82.48 2.52.45 4.88.225 7.08-.48 4.41-1.752 8.26-3.318 11.9-1.58 3.63-3.53 7-5.81 10.21-2.32 3.21-4.92 6.26-8.35 9.09l-.28.23-.08.06c.06 1.12.09 2.25.09 3.38 0 42.03-41.78 76.09-93.32 76.09-51.55 0-93.34-34.06-93.34-76.08 0-1.67.07-3.34.2-4.99-3.45-2.7-6.1-5.63-8.47-8.72-2.37-3.15-4.41-6.46-6.1-10.03-1.67-3.59-3.05-7.4-3.66-11.79-.28-2.19-.37-4.55.02-7.08.23-1.27.53-2.56 1.06-3.85.2-.58.59-1.38 1.02-2.14.54-.95.35-.52 1.03-1.56 1.73-2.29 4.03-3.95 6.27-4.98 2.24-1.03 4.44-1.53 6.53-1.8 1.32-.16 2.6-.23 3.85-.23 2.74 0 5.34.34 7.86.82 5.13 1.08 10.05 2.79 14.58 5.27C76.11 61.62 100.76 52 128.16 52M39.8 103.51c3.04-7.29 7.406-14.075 12.85-20.18-3.124-.9-6.36-1.445-9.52-1.653-.67-.04-1.33-.06-1.99-.06-2.257 0-4.436.23-6.298.75-2.476.636-4 1.906-4.26 2.78-.32.82-.403 2.455.28 4.713.646 2.2 1.867 4.63 3.367 6.93 1.57 2.373 3.51 4.7 5.57 6.71m177.15.99c1.87-1.98 3.61-4.23 5.02-6.506 1.44-2.335 2.59-4.81 3.17-7.024.61-2.275.47-3.907.13-4.717-.28-.867-1.85-2.093-4.33-2.66-1.62-.4-3.48-.58-5.4-.58-.96 0-1.94.044-2.91.127-2.61.25-5.26.733-7.85 1.448 5.18 6.056 9.3 12.75 12.15 19.916m-88.75-60.56c-26.23 0-51.54 8.51-70.33 23.5-3.67-1.55-7.6-2.77-11.73-3.64l-.07-.015-.08-.02c-3.43-.66-6.4-.96-9.36-.96-1.62 0-3.24.1-4.82.29h-.08c-3.26.42-6.15 1.23-8.83 2.46-3.72 1.71-6.93 4.28-9.32 7.43l-.19.24-.17.26-.18.27c-.41.54-.67.94-1.08 1.67-.46.8-1.08 1.98-1.53 3.2-.84 2.08-1.24 4.02-1.47 5.32l-.02.08-.01.09c-.47 2.97-.48 6.03-.05 9.35v.06c.65 4.64 2.02 9.12 4.33 14.07 1.93 4.06 4.2 7.8 6.97 11.48l.02.02.02.02c2.17 2.83 4.32 5.24 6.63 7.38-.01.5-.02.99-.02 1.48 0 22.77 10.76 44.08 30.29 60 19.05 15.53 44.28 24.08 71.05 24.08 26.76 0 51.99-8.56 71.04-24.09 19.48-15.88 30.22-37.13 30.27-59.84 2.49-2.37 4.8-5.05 7.09-8.24l.01-.02.02-.03c2.69-3.79 4.85-7.6 6.62-11.64 2.18-5.07 3.43-9.58 3.93-14.23.35-3.41.25-6.48-.32-9.44l-.01-.06-.01-.06c-.41-2.02-.93-3.71-1.62-5.31-.53-1.3-1.24-2.54-1.63-3.18-.42-.7-.69-1.1-1.09-1.59-.05-.06-.1-.13-.23-.33l-.17-.24-.19-.23c-3.12-3.88-6.88-6.03-9.49-7.15-2.75-1.17-5.66-1.89-8.95-2.22l-.04-.01-.04-.01c-1.19-.11-2.42-.17-3.63-.17-3.34 0-6.69.39-10.51 1.25l-.07.01-.06.01c-3.31.79-6.48 1.81-9.48 3.03-18.9-15.59-44.63-24.44-71.47-24.44zM27.08 82.887c-.336.5-.504.728-.637.906-.078.19-.23.478-.324.712-.34.842-.5 1.475-.66 2.393-.19 1.215-.19 2.682.04 4.432.41 2.907 1.31 5.785 2.91 9.23 1.38 2.925 3.08 5.713 5.16 8.463 2.28 2.986 4.43 5.21 6.96 7.173l3.69 2.88-.46 5.912c-.09 1-.18 1.996-.18 3.01 0 37.143 37.95 67.358 84.61 67.358 46.64 0 84.59-30.215 84.59-67.358 0-.447-.05-.885-.09-1.325l-.34-6.002 3.99-3.18c2.59-2.19 4.57-4.4 6.68-7.33 1.98-2.79 3.59-5.62 4.89-8.59 1.5-3.47 2.32-6.37 2.64-9.36.17-1.68.13-3.14-.13-4.5-.16-.77-.35-1.4-.57-1.92-.22-.5-.38-.79-.56-1.08-.08-.12-.24-.33-.57-.8-.74-.85-1.76-1.58-2.9-2.07-1.13-.48-2.42-.78-4.03-.95-2.54-.21-5.46 0-8.92.77-3.59.86-7.18 2.21-10.52 3.98l-5.48 2.91-4.55-4.22c-16.17-15.03-39.56-23.65-64.17-23.65-24.05 0-47.1 8.31-63.23 22.79l-4.6 4.13-5.43-2.97c-3.66-2.01-7.78-3.5-12.25-4.44-3.27-.63-5.93-.82-8.87-.47-1.51.2-2.79.54-3.94 1.07-1.1.51-2.09 1.26-2.8 2.14z"/><path fill="#676767" d="M62.52 83.466s-31.138-10.86-37.24-1.998c-6.087 8.855 7.298 30.076 17.74 37.267 0 0-6.103-22.842 19.5-35.27z"/><path fill="#B3B3B3" d="M60.494 86.542c-5.232-2.967-11.42-4.5-17.357-4.89-2.945-.166-5.88.02-8.285.69-2.48.637-4.002 1.907-4.264 2.78-.318.82-.402 2.456.28 4.714.647 2.2 1.868 4.635 3.368 6.932 3.006 4.55 7.344 8.947 11.408 11.202 4.463 2.48 6.066 8.103 3.584 12.562s-8.107 6.065-12.563 3.584c-.408-.223-.785-.47-1.133-.743l-.326-.253c-3.516-2.73-6.207-5.703-8.607-8.84-2.38-3.148-4.41-6.46-6.1-10.037-1.68-3.588-3.05-7.406-3.66-11.796-.29-2.194-.38-4.55.02-7.08.23-1.275.53-2.564 1.06-3.855.2-.584.59-1.382 1.02-2.138.53-.953.35-.52 1.02-1.566 1.74-2.297 4.03-3.956 6.27-4.987 2.24-1.03 4.44-1.52 6.53-1.8 4.19-.5 8.03-.11 11.71.59 7.27 1.53 14.13 4.3 20.06 8.78 1.62 1.24 1.95 3.56.71 5.18-1.13 1.5-3.18 1.89-4.77.98z"/><path fill="#676767" d="M193.334 85.474c-11.564-5.203 30.813-11.742 37.166-3.058 6.342 8.68-3.928 27.01-14.16 34.495 0 .01 2.945-19.74-23.006-31.43z"/><path fill="#B3B3B3" d="M191.213 82.457c5.79-4.65 12.572-7.613 19.803-9.346 3.654-.81 7.484-1.3 11.686-.92 2.104.22 4.318.65 6.592 1.62 2.254.97 4.6 2.56 6.406 4.81.71 1.03.504.6 1.07 1.54.455.75.86 1.53 1.09 2.11.56 1.28.904 2.56 1.164 3.82.48 2.52.45 4.88.225 7.08-.48 4.41-1.76 8.26-3.32 11.9-1.58 3.63-3.53 7-5.81 10.21-2.32 3.21-4.91 6.26-8.35 9.09l-.28.23c-3.94 3.24-9.76 2.68-13.01-1.26-3.24-3.94-2.67-9.76 1.26-13 .36-.29.77-.58 1.15-.81 4-2.37 8.21-6.89 11.07-11.52 1.44-2.33 2.6-4.81 3.18-7.02.62-2.27.47-3.91.14-4.72-.28-.86-1.85-2.09-4.34-2.65-2.43-.6-5.37-.7-8.31-.45-5.92.57-12.06 2.27-17.21 5.39-1.75 1.06-4.02.5-5.08-1.24-.98-1.6-.58-3.65.84-4.8z"/><path fill="#fff" d="M221.518 127.998c0 42.022-41.777 76.086-93.32 76.086-51.547 0-93.338-34.064-93.338-76.086 0-42.018 41.79-76.08 93.338-76.08 51.542 0 93.32 34.062 93.32 76.08z"/><path fill="#B3B3B3" d="M201.508 125.838c0 34.28-33.87 62.074-75.645 62.074-41.773 0-75.64-27.793-75.64-62.074 0-34.288 33.866-62.085 75.64-62.085 41.776 0 75.645 27.797 75.645 62.085z"/><path fill="#999898" d="M125.863 190.824c-43.313 0-78.55-29.156-78.55-64.986 0-35.835 35.237-64.993 78.55-64.993 43.317 0 78.553 29.158 78.553 64.993 0 35.83-35.236 64.986-78.553 64.986zm0-124.16c-40.107 0-72.73 26.545-72.73 59.175 0 32.62 32.623 59.16 72.73 59.16 40.108 0 72.737-26.55 72.737-59.17 0-32.63-32.63-59.18-72.737-59.18z"/><path fill="#fff" d="M118.927 117.68c0 16.914-13.71 30.623-30.62 30.623-16.92 0-30.622-13.71-30.622-30.622 0-16.9 13.703-30.61 30.62-30.61 16.913 0 30.622 13.71 30.622 30.62z"/><path fill="#2974A7" d="M108.564 116.306c0 11.226-9.1 20.334-20.338 20.334-11.232 0-20.33-9.11-20.33-20.334 0-11.232 9.098-20.338 20.33-20.338 11.238 0 20.338 9.106 20.338 20.338z"/><path fill="#fff" d="M85.12 110.432c0 3.83-3.103 6.933-6.94 6.933-3.825 0-6.93-3.102-6.93-6.933 0-3.824 3.105-6.93 6.93-6.93 3.837 0 6.94 3.106 6.94 6.93zm7.64 7.485c0 1.797-1.468 3.252-3.263 3.252-1.793 0-3.254-1.46-3.254-3.26 0-1.8 1.46-3.26 3.254-3.26 1.795 0 3.264 1.46 3.264 3.26zm101.79-.237c0 16.914-13.71 30.623-30.62 30.623-16.92 0-30.62-13.71-30.62-30.622 0-16.9 13.7-30.61 30.62-30.61 16.91 0 30.62 13.71 30.62 30.62z"/><path fill="#2974A7" d="M184.184 116.306c0 11.226-9.098 20.334-20.332 20.334-11.232 0-20.336-9.11-20.336-20.334 0-11.232 9.104-20.338 20.336-20.338 11.234 0 20.332 9.106 20.332 20.338z"/><path fill="#fff" d="M160.74 110.432c0 3.83-3.1 6.933-6.936 6.933-3.828 0-6.928-3.102-6.928-6.933 0-3.824 3.1-6.93 6.928-6.93 3.837 0 6.936 3.106 6.936 6.93zm7.645 7.485c0 1.797-1.465 3.252-3.262 3.252-1.795 0-3.256-1.46-3.256-3.26 0-1.8 1.46-3.26 3.256-3.26 1.797 0 3.262 1.46 3.262 3.26z"/><path fill="#B3B3B3" d="M58.322 130.582s51.865-11.923 73.2 19.105l-57.202 12.12-15.998-31.225zm137.182 0s-51.865-11.923-73.198 19.105l57.202 12.12 15.996-31.225z"/><path fill="#333" d="M141.666 183.62c-2.047 0-3.87-1.444-4.275-3.522-.46-2.363 1.08-4.658 3.44-5.125 4.9-.957 9.41-3.518 10.5-5.947.19-.432.7-1.566-.6-3.766-.52-.887-1.82-3.346-8.94-3.05-2.58-.046-4.4-1.84-4.47-4.25v-.106c0-2.367 1.88-4.31 4.25-4.37 3.72-.097 7.09-1.257 8.19-2.82.21-.282.74-1.026.14-2.888-.79-2.133-8.57-6.982-14.09-6.982-.12 0-.24.004-.34.004-2.36 0-4.3-1.883-4.36-4.248-.06-2.408 1.84-4.414 4.25-4.475 8.19-.373 20.65 6.088 22.87 13.053 1.59 4.97.15 8.504-1.33 10.594-.44.613-.92 1.176-1.44 1.68 1.1.963 2.03 2.098 2.82 3.414 2.98 5.03 2.22 9.184 1.06 11.78-2.77 6.185-10.48 9.706-16.77 10.944-.28.052-.57.08-.85.08z"/><path fill="#2974A7" d="M144.332 134.77c-.023 3.86-5.197 6.97-11.564 6.93-6.354-.043-11.502-3.197-11.473-7.06.016-3.862 5.2-6.97 11.555-6.93 6.36.038 11.502 3.196 11.482 7.06z"/></svg>