<svg xmlns="http://www.w3.org/2000/svg" width="256" height="256" viewBox="0 0 256 256"><path fill="#fff" d="M128.195 208.08c-53.67 0-97.336-35.925-97.336-80.084 0-1.04.02-2.11.08-3.2-2.67-2.295-5.1-4.908-7.52-8.09-2.63-3.48-4.76-6.993-6.54-10.76-2.15-4.596-3.41-8.704-4.01-12.947-.39-2.98-.38-5.67.03-8.26.23-1.32.57-2.95 1.28-4.68.37-1.02.95-2.1 1.27-2.67.37-.65.53-.9.78-1.23.07-.09.15-.21.36-.54l.08-.12.08-.12c2.52-3.34 5.63-5.22 7.79-6.22 2.33-1.07 4.84-1.76 7.68-2.14 1.45-.18 2.9-.26 4.36-.26 2.69 0 5.43.28 8.62.89 4.77 1 9.2 2.47 13.24 4.4 18.27-15.37 43.5-24.15 69.72-24.15 26.81 0 52.44 9.12 70.78 25.1 3.43-1.58 7.15-2.86 11.1-3.8 3.61-.8 6.68-1.17 9.72-1.17 1.09 0 2.19.05 3.26.15 2.91.29 5.44.91 7.79 1.91 2.2.95 5.36 2.75 7.96 5.99l.09.11.08.11c.22.32.32.44.39.53.27.33.43.57.81 1.21.32.53.93 1.58 1.35 2.63.77 1.77 1.16 3.45 1.39 4.56.5 2.62.59 5.31.29 8.29-.47 4.28-1.62 8.42-3.63 13.07-1.66 3.79-3.69 7.36-6.22 10.93-2.54 3.53-5.07 6.38-7.89 8.86.01.54.02 1.06.02 1.58 0 44.16-43.66 80.08-97.32 80.08zM211.97 87.204c2.247 3.12 4.23 6.36 5.94 9.697.23-.34.452-.69.668-1.04 1.29-2.08 2.25-4.19 2.71-5.94.236-.87.298-1.51.3-1.9-.31-.17-.814-.39-1.517-.56-1.29-.32-2.82-.48-4.5-.48-.82 0-1.69.04-2.57.12-.34.04-.68.07-1.02.11zm-177.62-.39c.012.39.09 1.02.345 1.86.51 1.744 1.534 3.828 2.888 5.9.377.57.778 1.14 1.2 1.704 1.883-3.59 4.086-7.064 6.595-10.396-.83-.103-1.665-.183-2.504-.238-.56-.032-1.152-.05-1.738-.05-1.998 0-3.8.208-5.216.602-.745.195-1.262.437-1.57.62z"/><path fill="#333" d="M128.195 51.92c27.95 0 53.023 10.018 70.125 25.887 3.98-2.1 8.25-3.633 12.695-4.698 2.797-.62 5.694-1.06 8.785-1.06.947 0 1.913.04 2.9.13 2.103.21 4.316.64 6.59 1.61 2.255.97 4.602 2.56 6.41 4.81.708 1.02.5.59 1.066 1.53.453.74.857 1.52 1.088 2.1.564 1.28.904 2.55 1.166 3.82.478 2.51.45 4.87.228 7.08-.48 4.4-1.754 8.26-3.322 11.89-1.58 3.62-3.528 6.99-5.807 10.2-2.32 3.21-4.92 6.26-8.36 9.09l-.28.23c-.03.02-.06.03-.08.05.06 1.12.1 2.24.1 3.37 0 42.02-41.78 76.08-93.32 76.08-51.55 0-93.34-34.06-93.34-76.08 0-1.68.07-3.34.2-4.99-3.45-2.7-6.11-5.64-8.47-8.73-2.38-3.15-4.41-6.46-6.11-10.04-1.67-3.58-3.05-7.41-3.66-11.79-.29-2.19-.38-4.55.02-7.08.23-1.28.53-2.57 1.06-3.86.2-.59.59-1.38 1.02-2.14.53-.95.35-.51 1.02-1.56 1.74-2.31 4.03-3.96 6.27-4.99 2.24-1.03 4.44-1.53 6.53-1.8 1.31-.16 2.59-.23 3.84-.23 2.74 0 5.34.34 7.87.82 5.14 1.07 10.05 2.78 14.58 5.26C76.1 61.52 100.75 51.9 128.15 51.9M39.8 103.48c3.04-7.287 7.402-14.074 12.85-20.18-3.128-.9-6.36-1.446-9.53-1.653-.67-.03-1.337-.05-2-.05-2.25 0-4.424.23-6.29.75-2.475.64-3.996 1.91-4.26 2.78-.316.83-.402 2.46.28 4.72.645 2.21 1.87 4.64 3.37 6.94 1.57 2.38 3.51 4.71 5.58 6.72m177.145.99c1.876-1.985 3.613-4.23 5.02-6.51 1.446-2.338 2.596-4.814 3.18-7.03.616-2.274.48-3.91.14-4.72-.282-.86-1.844-2.09-4.334-2.66-1.61-.4-3.47-.58-5.39-.58-.96 0-1.94.045-2.91.128-2.6.24-5.25.73-7.84 1.45 5.18 6.05 9.3 12.75 12.16 19.91M128.2 43.93c-26.23 0-51.53 8.51-70.32 23.5-3.676-1.56-7.605-2.78-11.74-3.64l-.07-.02-.07-.015c-3.436-.656-6.414-.96-9.37-.96-1.61 0-3.226.095-4.8.285l-.04.004-.035.004c-3.25.42-6.135 1.227-8.83 2.46-3.714 1.704-6.936 4.276-9.326 7.443l-.18.24-.16.24-.18.27c-.41.55-.67.96-1.09 1.7-.45.81-1.07 1.99-1.52 3.19-.83 2.05-1.22 3.93-1.48 5.34l-.01.08-.01.09c-.46 2.97-.48 6.03-.05 9.36l.01.04v.04c.64 4.65 2.02 9.12 4.33 14.07 1.91 4.06 4.19 7.8 6.96 11.48 2.17 2.85 4.34 5.28 6.66 7.43-.01.5-.02.99-.02 1.47 0 22.77 10.75 44.08 30.28 60 19.05 15.53 44.29 24.09 71.05 24.09 26.76 0 51.99-8.55 71.04-24.08 19.47-15.88 30.22-37.12 30.27-59.83 2.51-2.38 4.81-5.06 7.1-8.24l.01-.02.02-.02c2.69-3.79 4.85-7.6 6.61-11.62 2.18-5.06 3.43-9.57 3.94-14.22v-.12c.34-3.36.23-6.43-.33-9.37l-.01-.06-.02-.06c-.27-1.28-.72-3.2-1.62-5.3-.5-1.22-1.16-2.4-1.64-3.18-.43-.71-.69-1.09-1.08-1.59-.05-.06-.11-.14-.25-.34l-.16-.23-.18-.22c-3.11-3.87-6.88-6.03-9.48-7.15-2.76-1.17-5.68-1.89-8.95-2.22h-.08c-1.19-.11-2.41-.16-3.62-.16-3.34 0-6.68.4-10.52 1.25l-.07.02-.07.02c-3.31.8-6.49 1.81-9.48 3.04-18.91-15.6-44.63-24.45-71.47-24.45z"/><path fill="#676767" d="M62.518 83.464S31.383 72.61 25.282 81.467c-6.09 8.853 7.293 30.076 17.734 37.27 0 0-6.102-22.848 19.502-35.273z"/><path fill="#B3B3B3" d="M60.492 86.54c-5.234-2.968-11.418-4.5-17.357-4.89-2.947-.167-5.877.02-8.287.69-2.477.642-3.998 1.91-4.262 2.776-.316.825-.402 2.458.28 4.714.645 2.205 1.868 4.637 3.368 6.932 3.006 4.558 7.344 8.953 11.406 11.202 4.467 2.483 6.066 8.106 3.584 12.568-2.482 4.458-8.105 6.067-12.56 3.582-.41-.22-.784-.47-1.136-.74l-.324-.25c-3.516-2.734-6.21-5.707-8.605-8.846-2.38-3.15-4.41-6.46-6.11-10.042-1.67-3.582-3.05-7.405-3.66-11.79-.29-2.19-.38-4.55.02-7.08.23-1.277.53-2.566 1.06-3.857.2-.59.59-1.38 1.02-2.15.53-.95.34-.51 1.02-1.56 1.74-2.31 4.03-3.97 6.27-4.99 2.24-1.03 4.44-1.53 6.53-1.8 4.19-.51 8.03-.11 11.71.59 7.27 1.52 14.13 4.29 20.05 8.77 1.62 1.23 1.94 3.55.71 5.18-1.13 1.5-3.18 1.88-4.77.98z"/><path fill="#676767" d="M193.33 85.47c-11.563-5.203 30.814-11.736 37.166-3.057 6.348 8.682-3.926 27.014-14.158 34.493 0 0 2.943-19.744-23.008-31.435z"/><path fill="#B3B3B3" d="M191.213 82.45c5.79-4.65 12.572-7.608 19.803-9.342 3.654-.81 7.482-1.307 11.687-.926 2.104.21 4.317.647 6.59 1.613 2.256.97 4.603 2.562 6.41 4.813.71 1.02.5.59 1.067 1.533.453.75.857 1.53 1.088 2.11.564 1.28.904 2.56 1.166 3.83.478 2.52.45 4.88.228 7.08-.48 4.4-1.754 8.26-3.32 11.9-1.58 3.62-3.53 6.99-5.81 10.2-2.31 3.22-4.915 6.27-8.352 9.09l-.276.23c-3.94 3.24-9.763 2.67-13.005-1.26-3.24-3.94-2.67-9.76 1.26-13 .35-.29.77-.58 1.14-.81 4-2.37 8.22-6.89 11.08-11.52 1.44-2.33 2.59-4.81 3.17-7.02.61-2.27.48-3.91.14-4.71-.29-.86-1.85-2.09-4.34-2.66-2.43-.6-5.37-.7-8.31-.45-5.92.56-12.06 2.27-17.21 5.38-1.74 1.07-4.02.51-5.08-1.23-.98-1.6-.58-3.66.84-4.8z"/><path fill="#fff" d="M221.514 127.996c0 42.02-41.774 76.085-93.318 76.085-51.547 0-93.336-34.06-93.336-76.08 0-42.01 41.79-76.07 93.336-76.07 51.542 0 93.318 34.06 93.318 76.08z"/><path fill="#B3B3B3" d="M201.506 125.84c0 34.273-33.87 62.073-75.645 62.073s-75.64-27.8-75.64-62.073c0-34.29 33.87-62.088 75.65-62.088s75.64 27.798 75.64 62.088z"/><path fill="#999898" d="M125.86 190.82c-43.312 0-78.548-29.152-78.548-64.98 0-35.844 35.236-64.995 78.55-64.995 43.315 0 78.556 29.15 78.556 64.995 0 35.828-35.24 64.98-78.557 64.98zm0-124.158c-40.108 0-72.733 26.546-72.733 59.178 0 32.62 32.625 59.163 72.734 59.163 40.11 0 72.74-26.542 72.74-59.163 0-32.632-32.63-59.178-72.73-59.178z"/><path fill="#fff" d="M200.068 121.17c0 19.96-16.178 36.145-36.14 36.145-19.97 0-36.148-16.186-36.148-36.146 0-19.97 16.18-36.15 36.15-36.15 19.96 0 36.138 16.18 36.138 36.14zm-75.62 0c0 19.96-16.18 36.145-36.146 36.145-19.967 0-36.146-16.186-36.146-36.146 0-19.97 16.18-36.15 36.146-36.15s36.145 16.18 36.145 36.14z"/><path fill="#2974A7" d="M123.848 119.543c0 13.254-10.74 24.004-24 24.004s-24.002-10.75-24.002-24.004c0-13.26 10.742-24.007 24.002-24.007 13.26 0 24 10.748 24 24.007z"/><path fill="#fff" d="M96.178 112.612c0 4.522-3.662 8.18-8.188 8.18-4.52 0-8.186-3.657-8.186-8.18 0-4.516 3.664-8.18 8.186-8.18 4.526 0 8.188 3.665 8.188 8.18zm9.022 8.834c0 2.118-1.733 3.842-3.85 3.842-2.122 0-3.85-1.724-3.85-3.842 0-2.13 1.728-3.844 3.85-3.844 2.117 0 3.85 1.714 3.85 3.844z"/><path fill="#2974A7" d="M199.47 119.543c0 13.254-10.74 24.004-24 24.004-13.257 0-24-10.75-24-24.004 0-13.26 10.743-24.007 24-24.007 13.26 0 24 10.748 24 24.007z"/><path fill="#fff" d="M171.8 112.612c0 4.522-3.663 8.18-8.185 8.18-4.52 0-8.188-3.657-8.188-8.18 0-4.516 3.67-8.18 8.188-8.18 4.522 0 8.186 3.665 8.186 8.18zm9.022 8.834c0 2.118-1.732 3.842-3.85 3.842-2.12 0-3.85-1.724-3.85-3.842 0-2.13 1.73-3.844 3.85-3.844 2.118 0 3.85 1.714 3.85 3.844z"/><path fill="#333" d="M127.775 170.38c-3.092 0-5.66-2.024-5.805-5.147l-1.11-23.72c-.147-3.204 2.337-5.827 5.546-5.974 3.22-.17 5.926 2.38 6.08 5.59l1.105 23.54c.15 3.21-2.33 5.7-5.54 5.7h-.27zm-24.365 5.972c-2.188 0-4.285-1.236-5.27-3.345-1.364-2.91-.116-6.377 2.794-7.737 27.014-12.676 52.082-.46 53.136.063 2.878 1.437 4.04 4.93 2.605 7.808-1.434 2.88-4.928 4.03-7.81 2.6-.187-.09-21.188-10.17-42.993.07-.792.38-1.64.55-2.462.55z"/><path d="M200.15 114.167c-6.655-28.708-37.38-50.415-74.29-50.415-36.91 0-67.632 21.707-74.29 50.415h148.58zM50.5 120.66c-.172 1.71-.282 3.434-.282 5.18 0 1.745.11 3.468.282 5.177V120.66z" fill="#B3B3B3"/><path fill="#2974A7" d="M137.982 142.216c0 3.863-5.158 6.994-11.52 6.994-6.36 0-11.524-3.13-11.524-6.994 0-3.862 5.164-6.99 11.525-6.99 6.36 0 11.52 3.128 11.52 6.99z"/><path fill="#999898" d="M125.86 190.82c-43.312 0-78.548-29.152-78.548-64.98 0-35.844 35.236-64.995 78.55-64.995 43.315 0 78.556 29.15 78.556 64.995 0 35.828-35.24 64.98-78.557 64.98zm0-124.158c-40.108 0-72.733 26.546-72.733 59.178 0 32.62 32.625 59.163 72.734 59.163 40.11 0 72.74-26.542 72.74-59.163 0-32.632-32.63-59.178-72.73-59.178zm-74.027 45.505H200.5v5.667H51.833z"/></svg>