<?xml version="1.0" encoding="utf-8"?>
<!-- Generator: Adobe Illustrator 16.0.0, SVG Export Plug-In . SVG Version: 6.00 Build 0)  -->
<!DOCTYPE svg PUBLIC "-//W3C//DTD SVG 1.1//EN" "http://www.w3.org/Graphics/SVG/1.1/DTD/svg11.dtd">
<svg version="1.1" id="Layer_1" xmlns="http://www.w3.org/2000/svg" xmlns:xlink="http://www.w3.org/1999/xlink" x="0px" y="0px"
	 width="256px" height="256px" viewBox="0 0 256 256" enable-background="new 0 0 256 256" xml:space="preserve">
<g>
	<path fill="#FFFFFF" d="M128.289,208.08c-53.671,0-97.336-35.924-97.336-80.082c0-1.04,0.027-2.11,0.08-3.2
		c-2.665-2.29-5.09-4.904-7.522-8.092c-2.62-3.476-4.752-6.987-6.535-10.752c-2.14-4.598-3.41-8.706-4.006-12.952
		c-0.39-2.997-0.38-5.683,0.03-8.256c0.229-1.317,0.58-2.952,1.279-4.68c0.38-1.036,0.96-2.11,1.271-2.668
		c0.359-0.648,0.53-0.89,0.78-1.222c0.069-0.09,0.159-0.213,0.369-0.537l0.08-0.13l0.08-0.12c2.51-3.33,5.62-5.22,7.79-6.22
		c2.311-1.06,4.82-1.76,7.681-2.14c1.46-0.18,2.909-0.26,4.359-0.26c2.71,0,5.45,0.28,8.63,0.89c4.761,0.99,9.19,2.47,13.24,4.4
		c18.26-15.38,43.49-24.16,69.71-24.16c26.811,0,52.431,9.12,70.78,25.1c3.439-1.59,7.16-2.86,11.1-3.81
		c3.59-0.8,6.65-1.17,9.7-1.17c1.091,0,2.19,0.05,3.271,0.14c2.91,0.29,5.439,0.91,7.8,1.92c2.19,0.94,5.351,2.74,7.96,5.98
		l0.09,0.11l0.08,0.12c0.221,0.32,0.32,0.44,0.391,0.54c0.26,0.33,0.42,0.56,0.81,1.2c0.55,0.91,1.03,1.84,1.35,2.62
		c0.591,1.36,1.03,2.82,1.39,4.58c0.49,2.62,0.58,5.3,0.291,8.27c-0.471,4.28-1.631,8.43-3.631,13.08
		c-1.66,3.79-3.689,7.36-6.22,10.93c-2.55,3.54-5.08,6.38-7.89,8.86c0.01,0.53,0.02,1.06,0.02,1.57
		c-0.01,44.161-43.66,80.081-97.32,80.081L128.289,208.08z M212.063,87.204c2.246,3.12,4.229,6.36,5.938,9.697
		c0.23-0.34,0.454-0.69,0.67-1.04c1.288-2.08,2.25-4.19,2.71-5.94c0.235-0.86,0.296-1.51,0.296-1.9
		c-0.309-0.17-0.813-0.39-1.512-0.55c-1.299-0.32-2.833-0.48-4.51-0.48c-0.827,0-1.69,0.04-2.57,0.11
		c-0.34,0.03-0.68,0.07-1.021,0.11V87.204z M34.44,86.814c0.012,0.39,0.09,1.02,0.345,1.857c0.518,1.76,1.54,3.84,2.891,5.91
		c0.377,0.57,0.78,1.14,1.202,1.71c1.882-3.59,4.085-7.06,6.594-10.39c-0.82-0.1-1.66-0.18-2.5-0.23c-0.57-0.03-1.17-0.05-1.76-0.05
		c-1.98,0-3.78,0.21-5.19,0.6c-0.75,0.2-1.26,0.44-1.57,0.62L34.44,86.814z"/>
	<path fill="#333333" d="M128.289,51.92c27.95,0,53.02,10.02,70.124,25.888c3.979-2.1,8.25-3.634,12.693-4.698
		c2.793-0.622,5.688-1.056,8.776-1.056c0.95,0,1.92,0.04,2.907,0.13c2.1,0.21,4.32,0.65,6.59,1.615c2.25,0.96,4.6,2.56,6.41,4.8
		c0.699,1.02,0.5,0.59,1.06,1.53c0.45,0.74,0.851,1.52,1.091,2.1c0.56,1.28,0.899,2.55,1.159,3.82c0.47,2.51,0.45,4.87,0.23,7.07
		c-0.49,4.4-1.761,8.26-3.33,11.9c-1.58,3.61-3.53,6.98-5.81,10.2c-2.311,3.21-4.921,6.26-8.351,9.09l-0.28,0.22l-0.08,0.05
		c0.061,1.12,0.09,2.24,0.09,3.38c0,42.02-41.779,76.08-93.319,76.08c-51.551,0-93.341-34.061-93.341-76.08
		c0-1.68,0.07-3.34,0.2-4.99c-3.45-2.7-6.109-5.63-8.47-8.729c-2.38-3.15-4.41-6.46-6.1-10.04c-1.671-3.59-3.051-7.41-3.66-11.8
		c-0.28-2.19-0.38-4.55,0.02-7.08c0.23-1.27,0.53-2.56,1.061-3.86c0.21-0.58,0.59-1.38,1.02-2.14c0.53-0.95,0.34-0.51,1.021-1.56
		c1.729-2.3,4.029-3.96,6.27-4.99c2.24-1.02,4.44-1.52,6.53-1.8c1.31-0.16,2.59-0.229,3.84-0.229c2.74,0,5.34,0.33,7.87,0.82
		c5.13,1.07,10.05,2.78,14.58,5.26c17.08-15.33,41.72-24.95,69.12-24.95 M39.891,103.48c3.04-7.287,7.407-14.075,12.85-20.18
		c-3.123-0.902-6.359-1.447-9.523-1.652c-0.677-0.04-1.354-0.06-2.022-0.06c-2.247,0-4.414,0.23-6.267,0.75
		c-2.477,0.64-4,1.91-4.26,2.776c-0.32,0.825-0.407,2.464,0.275,4.716c0.65,2.21,1.87,4.64,3.37,6.935
		c1.57,2.38,3.51,4.71,5.58,6.72 M217.036,104.473c1.875-1.98,3.613-4.23,5.021-6.51c1.443-2.332,2.595-4.81,3.177-7.024
		c0.619-2.27,0.479-3.91,0.14-4.72c-0.28-0.86-1.843-2.09-4.33-2.66c-1.62-0.41-3.474-0.59-5.4-0.59c-0.96,0-1.936,0.04-2.909,0.13
		c-2.61,0.25-5.258,0.73-7.846,1.45c5.173,6.05,9.295,12.75,12.15,19.92 M128.277,43.909c-26.229,0-51.537,8.51-70.325,23.5
		c-3.675-1.56-7.604-2.78-11.739-3.64l-0.063-0.02l-0.069-0.02c-3.431-0.66-6.421-0.97-9.391-0.97c-1.609,0-3.229,0.09-4.8,0.28
		h-0.1c-3.261,0.43-6.141,1.23-8.82,2.46c-2.601,1.2-6.32,3.45-9.33,7.44l-0.18,0.23l-0.16,0.24c-0.09,0.13-0.141,0.21-0.181,0.27
		c-0.409,0.54-0.67,0.95-1.09,1.69c-0.449,0.79-1.069,1.97-1.52,3.18c-0.83,2.05-1.23,3.93-1.48,5.34l-0.02,0.09l-0.021,0.08
		c-0.47,2.95-0.489,6.01-0.06,9.34v0.09c0.65,4.65,2.03,9.12,4.33,14.06l0.01,0.02l0.01,0.02c1.9,4.01,4.17,7.75,6.94,11.42
		c2.18,2.85,4.35,5.28,6.67,7.43c-0.021,0.5-0.021,0.99-0.021,1.47c0,22.77,10.75,44.08,30.28,60
		C76.2,203.439,101.431,212,128.2,212c26.761,0,51.99-8.55,71.041-24.08c19.479-15.88,30.22-37.13,30.27-59.84
		c2.5-2.376,4.8-5.05,7.09-8.23l0.021-0.03l0.02-0.03c2.69-3.796,4.851-7.6,6.61-11.623c2.18-5.067,3.43-9.576,3.939-14.23v-0.08
		c0.33-3.36,0.23-6.42-0.33-9.36l-0.01-0.06l-0.01-0.054c-0.42-2.03-0.939-3.73-1.63-5.34c-0.53-1.285-1.24-2.52-1.63-3.15
		c-0.43-0.716-0.69-1.09-1.08-1.59c-0.051-0.06-0.11-0.14-0.25-0.34l-0.17-0.24l-0.18-0.23c-3.131-3.88-6.891-6.03-9.5-7.15
		c-2.75-1.17-5.67-1.89-8.943-2.22l-0.04-0.007h-0.04c-1.189-0.11-2.41-0.16-3.623-0.16c-3.357,0-6.7,0.39-10.52,1.25l-0.061,0.01
		l-0.061,0.012c-3.315,0.79-6.489,1.81-9.479,3.032c-18.864-15.55-44.59-24.4-71.43-24.4L128.277,43.909z"/>
	<path fill="#676767" d="M62.613,83.465c0,0-31.14-10.856-37.239-2c-6.089,8.858,7.295,30.08,17.735,37.273
		c0,0-6.109-22.846,19.5-35.273H62.613z"/>
	<path fill="#B3B3B3" d="M60.585,86.54c-5.234-2.967-11.418-4.5-17.355-4.886c-2.95-0.172-5.89,0.017-8.29,0.687
		c-2.479,0.64-4,1.91-4.26,2.78c-0.32,0.83-0.41,2.47,0.27,4.72c0.65,2.21,1.87,4.64,3.37,6.93c3,4.56,7.34,8.96,11.4,11.21
		c4.46,2.48,6.06,8.11,3.58,12.57c-2.49,4.46-8.11,6.07-12.561,3.59c-0.409-0.22-0.79-0.47-1.14-0.74l-0.33-0.25
		c-3.52-2.73-6.21-5.7-8.61-8.84c-2.369-3.15-4.409-6.46-6.1-10.03c-1.67-3.59-3.05-7.41-3.66-11.8c-0.28-2.19-0.38-4.55,0.021-7.07
		c0.229-1.28,0.529-2.57,1.06-3.86c0.21-0.58,0.59-1.38,1.021-2.14c0.54-0.95,0.34-0.51,1.02-1.56c1.74-2.3,4.03-3.96,6.271-4.99
		c2.239-1.03,4.439-1.53,6.529-1.8c4.19-0.5,8.03-0.11,11.71,0.6c7.28,1.52,14.13,4.29,20.061,8.77c1.62,1.24,1.95,3.56,0.71,5.18
		c-1.13,1.5-3.181,1.89-4.771,0.98L60.585,86.54z"/>
	<path fill="#676767" d="M193.424,85.47c-11.565-5.202,30.81-11.735,37.162-3.054c6.346,8.68-3.925,27.01-14.154,34.495
		c0,0,2.95-19.74-23-31.44L193.424,85.47z"/>
	<path fill="#B3B3B3" d="M191.303,82.455c5.79-4.652,12.572-7.613,19.806-9.346c3.649-0.82,7.479-1.31,11.684-0.93
		c2.109,0.21,4.32,0.65,6.59,1.61c2.26,0.97,4.609,2.56,6.42,4.81c0.71,1.02,0.5,0.59,1.07,1.53c0.46,0.74,0.859,1.52,1.09,2.1
		c0.57,1.28,0.91,2.55,1.17,3.82c0.48,2.51,0.45,4.87,0.23,7.07c-0.48,4.4-1.75,8.26-3.32,11.9c-1.58,3.61-3.53,6.98-5.811,10.2
		c-2.31,3.21-4.91,6.26-8.35,9.09l-0.27,0.22c-3.94,3.24-9.761,2.67-13.011-1.27c-3.229-3.94-2.659-9.77,1.271-13.01
		c0.359-0.29,0.779-0.58,1.15-0.81c4-2.38,8.219-6.89,11.079-11.53c1.45-2.33,2.601-4.81,3.181-7.03
		c0.619-2.27,0.479-3.91,0.14-4.72c-0.28-0.86-1.84-2.09-4.33-2.66c-2.42-0.6-5.36-0.7-8.31-0.45c-5.92,0.56-12.061,2.27-17.2,5.38
		c-1.74,1.06-4.011,0.51-5.08-1.24c-0.97-1.6-0.57-3.66,0.85-4.8L191.303,82.455z"/>
	<path fill="#FFFFFF" d="M221.606,127.998c0,42.02-41.775,76.083-93.316,76.083c-51.551,0-93.341-34.06-93.341-76.08
		c0-42.01,41.78-76.08,93.33-76.08c51.54,0,93.311,34.06,93.311,76.08L221.606,127.998z"/>
	<path fill="#B3B3B3" d="M201.601,125.84c0,34.278-33.871,62.072-75.647,62.072c-41.77,0-75.64-27.794-75.64-62.072
		c0-34.29,33.868-62.085,75.64-62.085C167.729,63.755,201.6,91.549,201.601,125.84L201.601,125.84z"/>
	<path fill="#999898" d="M125.953,190.82c-43.313,0-78.55-29.15-78.55-64.98c0-35.84,35.237-64.996,78.55-64.996
		c43.317,0,78.553,29.156,78.553,64.996C204.506,161.67,169.271,190.82,125.953,190.82L125.953,190.82z M125.953,66.66
		c-40.104,0-72.733,26.547-72.733,59.18c0,32.625,32.62,59.166,72.729,59.166c40.11,0,72.73-26.54,72.73-59.166
		c0-32.633-32.63-59.18-72.74-59.18H125.953z"/>
</g>
<path fill="#333333" d="M128,147.27c-3.214,0-5.5-2.604-5.5-5.816v-29.087c0-3.217,2.286-5.82,5.5-5.82s5.5,2.604,5.5,5.82v29.087
	C133.5,144.665,131.212,147.27,128,147.27L128,147.27z"/>
<path fill="#2974A7" d="M139.521,113.13c0,3.863-5.159,6.996-11.52,6.996c-6.355,0-11.521-3.133-11.521-6.996
	c0-3.86,5.166-6.992,11.52-6.992C134.361,106.138,139.521,109.27,139.521,113.13z"/>
<path fill="#333333" d="M98.305,105.03c0,6.26-5.072,11.334-11.332,11.334c-6.256,0-11.326-5.075-11.326-11.335
	c0-6.26,5.07-11.33,11.326-11.33c6.26,0,11.332,5.07,11.332,11.32V105.03z M179.745,105.03c0,6.26-5.07,11.334-11.333,11.334
	c-6.254,0-11.326-5.075-11.326-11.335c0-6.26,5.08-11.33,11.33-11.33c6.261,0,11.341,5.07,11.341,11.32L179.745,105.03z
	 M180.355,152.38H75.647c-3.22,0-5.818-2.785-5.818-6c0-3.214,2.6-6,5.818-6h104.708c3.213,0,5.815,2.786,5.815,6
	C186.171,149.595,183.568,152.38,180.355,152.38z"/>
</svg>
