<?xml version="1.0" encoding="utf-8"?>
<!-- Generator: Adobe Illustrator 16.0.0, SVG Export Plug-In . SVG Version: 6.00 Build 0)  -->
<!DOCTYPE svg PUBLIC "-//W3C//DTD SVG 1.1//EN" "http://www.w3.org/Graphics/SVG/1.1/DTD/svg11.dtd">
<svg version="1.1" id="Layer_1" xmlns="http://www.w3.org/2000/svg" xmlns:xlink="http://www.w3.org/1999/xlink" x="0px" y="0px"
	 width="256px" height="256px" viewBox="0 0 256 256" enable-background="new 0 0 256 256" xml:space="preserve">
<path fill="#FFFFFF" d="M128.198,208.08c-53.672,0-97.338-35.925-97.338-80.084c0-1.04,0.027-2.11,0.08-3.2
	c-2.655-2.285-5.08-4.896-7.518-8.087c-2.63-3.5-4.765-7.01-6.54-10.77c-2.142-4.59-3.412-8.7-4.004-12.95
	c-0.386-2.97-0.374-5.65,0.03-8.25c0.24-1.33,0.584-2.96,1.287-4.68c0.38-1.04,0.96-2.12,1.28-2.68
	c0.354-0.63,0.526-0.89,0.773-1.22c0.067-0.09,0.153-0.21,0.357-0.53l0.083-0.13l0.093-0.13c2.52-3.33,5.63-5.22,7.8-6.22
	c2.32-1.07,4.84-1.76,7.69-2.13c1.46-0.18,2.91-0.27,4.36-0.27c2.7,0,5.44,0.28,8.63,0.89c4.771,0.99,9.2,2.47,13.25,4.4
	c18.25-15.38,43.48-24.15,69.7-24.15c26.82,0,52.439,9.12,70.79,25.1c3.44-1.58,7.16-2.86,11.11-3.8c3.609-0.8,6.68-1.16,9.72-1.16
	c1.09,0,2.19,0.05,3.26,0.15c2.91,0.29,5.44,0.91,7.8,1.91c2.211,0.95,5.37,2.75,7.971,5.99l0.09,0.1l0.08,0.11
	c0.22,0.32,0.32,0.44,0.39,0.54c0.271,0.34,0.44,0.57,0.82,1.22c0.55,0.89,1.04,1.84,1.36,2.63c0.6,1.36,1.039,2.81,1.39,4.56
	c0.5,2.61,0.59,5.3,0.29,8.28c-0.471,4.27-1.62,8.42-3.631,13.08c-1.649,3.79-3.689,7.36-6.219,10.93
	c-2.541,3.54-5.07,6.38-7.881,8.86c0.02,0.54,0.02,1.06,0.02,1.57c0,44.16-43.649,80.08-97.31,80.08L128.198,208.08z
	 M211.973,87.203c2.247,3.12,4.23,6.358,5.938,9.695c0.229-0.345,0.46-0.692,0.67-1.04c1.3-2.093,2.26-4.2,2.71-5.936
	c0.24-0.872,0.3-1.515,0.3-1.907c-0.31-0.173-0.81-0.397-1.51-0.558c-1.28-0.32-2.82-0.48-4.5-0.48c-0.82,0-1.69,0.04-2.57,0.114
	c-0.34,0.04-0.68,0.07-1.02,0.12L211.973,87.203z M34.35,86.813c0.014,0.39,0.093,1.018,0.347,1.854
	c0.516,1.758,1.537,3.84,2.887,5.904c0.377,0.58,0.778,1.15,1.2,1.71c1.883-3.59,4.086-7.06,6.595-10.39
	c-0.83-0.1-1.67-0.18-2.51-0.24c-0.56-0.03-1.15-0.05-1.74-0.05c-2,0-3.8,0.21-5.22,0.61c-0.75,0.2-1.26,0.44-1.57,0.62
	L34.35,86.813z"/>
<path fill="#333333" d="M128.198,51.92c27.948,0,53.02,10.018,70.124,25.886c3.979-2.1,8.25-3.632,12.693-4.698
	c2.797-0.62,5.696-1.056,8.788-1.056c0.947,0,1.913,0.04,2.9,0.13c2.1,0.21,4.315,0.647,6.59,1.613
	c2.253,0.97,4.601,2.562,6.405,4.813c0.71,1.02,0.5,0.59,1.06,1.533c0.45,0.75,0.86,1.53,1.091,2.11
	c0.56,1.28,0.899,2.56,1.159,3.83c0.47,2.52,0.44,4.88,0.22,7.08c-0.479,4.4-1.75,8.26-3.319,11.9c-1.58,3.62-3.53,6.99-5.81,10.2
	c-2.311,3.22-4.91,6.271-8.351,9.09l-0.28,0.23l-0.08,0.06c0.061,1.12,0.1,2.25,0.1,3.38c0,42.02-41.779,76.09-93.319,76.09
	c-51.55,0-93.34-34.061-93.34-76.08c0-1.67,0.07-3.34,0.2-4.99c-3.45-2.7-6.1-5.63-8.47-8.73c-2.37-3.15-4.41-6.46-6.1-10.04
	c-1.67-3.58-3.05-7.4-3.66-11.79c-0.28-2.19-0.37-4.55,0.02-7.08c0.23-1.27,0.53-2.56,1.07-3.85c0.21-0.58,0.59-1.37,1.02-2.14
	c0.53-0.95,0.35-0.51,1.02-1.56c1.74-2.3,4.04-3.96,6.271-4.99c2.24-1.02,4.44-1.53,6.53-1.8c1.31-0.16,2.59-0.23,3.84-0.23
	c2.74,0,5.34,0.34,7.87,0.82c5.13,1.08,10.04,2.79,14.58,5.27c17.08-15.33,41.72-24.95,69.12-24.95 M39.8,103.48
	c3.04-7.285,7.405-14.072,12.85-20.18c-3.124-0.9-6.36-1.443-9.526-1.65c-0.67-0.033-1.338-0.053-2-0.053
	c-2.25,0-4.425,0.23-6.29,0.75c-2.476,0.64-4,1.9-4.26,2.77c-0.317,0.82-0.403,2.46,0.282,4.71c0.645,2.205,1.864,4.64,3.366,6.932
	c1.57,2.38,3.507,4.71,5.576,6.72 M216.943,104.459c1.877-1.98,3.613-4.23,5.021-6.51c1.442-2.34,2.598-4.81,3.178-7.03
	c0.619-2.27,0.475-3.91,0.14-4.72c-0.28-0.86-1.847-2.09-4.335-2.66c-1.62-0.4-3.471-0.58-5.396-0.58c-0.96,0-1.93,0.04-2.91,0.13
	c-2.609,0.25-5.25,0.73-7.84,1.45c5.18,6.05,9.301,12.75,12.15,19.91 M128.2,43.92c-26.23,0-51.54,8.51-70.328,23.498
	c-3.676-1.556-7.604-2.775-11.737-3.64l-0.07-0.015l-0.07-0.013c-3.438-0.656-6.416-0.96-9.37-0.96c-1.612,0-3.227,0.095-4.8,0.285
	l-0.04,0.005l-0.04,0.005c-3.252,0.424-6.14,1.23-8.828,2.46c-3.713,1.706-6.935,4.278-9.324,7.44l-0.186,0.247l-0.167,0.26
	c-0.08,0.123-0.13,0.202-0.17,0.258c-0.408,0.543-0.668,0.95-1.088,1.697c-0.442,0.776-1.065,1.964-1.516,3.177
	c-0.825,2.04-1.222,3.912-1.477,5.325l-0.021,0.09l-0.02,0.09c-0.47,2.98-0.48,6.03-0.05,9.34v0.06c0.65,4.65,2.02,9.12,4.33,14.07
	c1.9,4.04,4.18,7.78,6.96,11.47l0.01,0.02l0.01,0.02c2.16,2.83,4.32,5.24,6.63,7.39c-0.01,0.49-0.02,0.98-0.02,1.47
	c0,22.771,10.76,44.08,30.28,60c19.05,15.53,44.29,24.08,71.06,24.08c26.76,0,51.989-8.56,71.04-24.09
	c19.47-15.88,30.22-37.12,30.27-59.83c2.5-2.37,4.801-5.05,7.1-8.25l0.021-0.02l0.011-0.02c2.689-3.8,4.85-7.6,6.609-11.63
	c2.189-5.07,3.43-9.58,3.939-14.23v-0.06c0.341-3.37,0.23-6.43-0.33-9.37l-0.01-0.06l-0.01-0.06c-0.41-2-0.93-3.69-1.619-5.3
	c-0.531-1.3-1.24-2.53-1.641-3.18c-0.439-0.73-0.7-1.11-1.09-1.61c-0.051-0.06-0.11-0.14-0.25-0.34l-0.15-0.22l-0.17-0.21
	c-3.109-3.88-6.87-6.04-9.48-7.16c-2.77-1.18-5.68-1.9-8.959-2.23l-0.041-0.01h-0.039c-1.19-0.11-2.41-0.17-3.62-0.17
	c-3.341,0-6.681,0.39-10.521,1.24l-0.07,0.01l-0.069,0.01c-3.32,0.79-6.49,1.81-9.479,3.03c-18.881-15.58-44.601-24.43-71.44-24.43
	L128.2,43.92z"/>
<path fill="#676767" d="M62.52,83.464c0,0-31.137-10.854-37.236-1.997c-6.09,8.853,7.295,30.076,17.738,37.27
	c0,0-6.105-22.848,19.5-35.273H62.52z"/>
<path fill="#B3B3B3" d="M60.495,86.54c-5.234-2.968-11.42-4.5-17.36-4.89c-2.946-0.167-5.876,0.02-8.286,0.69
	c-2.48,0.642-4,1.91-4.27,2.776c-0.32,0.825-0.4,2.458,0.28,4.714c0.64,2.205,1.86,4.637,3.36,6.932
	c3,4.558,7.34,8.953,11.41,11.202c4.46,2.483,6.06,8.106,3.58,12.568c-2.48,4.458-8.11,6.067-12.56,3.582
	c-0.41-0.22-0.79-0.47-1.14-0.74l-0.33-0.25c-3.52-2.734-6.21-5.707-8.61-8.846c-2.38-3.15-4.41-6.46-6.1-10.042
	c-1.68-3.582-3.05-7.405-3.66-11.79c-0.29-2.19-0.38-4.55,0.02-7.08c0.23-1.277,0.53-2.566,1.06-3.857c0.2-0.59,0.59-1.38,1.02-2.15
	c0.53-0.95,0.35-0.51,1.02-1.56c1.74-2.31,4.04-3.97,6.27-4.99c2.24-1.03,4.44-1.53,6.53-1.8c4.19-0.51,8.03-0.11,11.72,0.59
	c7.27,1.52,14.13,4.29,20.06,8.77c1.62,1.23,1.94,3.55,0.71,5.18c-1.13,1.5-3.18,1.88-4.77,0.98L60.495,86.54z"/>
<path fill="#676767" d="M193.335,85.47c-11.567-5.203,30.81-11.736,37.164-3.057c6.34,8.682-3.931,27.014-14.16,34.493
	c0,0,2.94-19.744-23.01-31.435L193.335,85.47z"/>
<path fill="#B3B3B3" d="M191.212,82.45c5.793-4.65,12.574-7.608,19.806-9.342c3.653-0.81,7.483-1.307,11.688-0.926
	c2.102,0.21,4.316,0.647,6.59,1.613c2.254,0.97,4.602,2.562,6.406,4.813c0.72,1.02,0.51,0.59,1.07,1.533
	c0.459,0.75,0.859,1.53,1.09,2.11c0.57,1.28,0.91,2.56,1.17,3.83c0.479,2.52,0.449,4.88,0.229,7.08c-0.479,4.4-1.75,8.26-3.319,11.9
	c-1.58,3.62-3.53,6.99-5.811,10.2c-2.311,3.22-4.91,6.271-8.34,9.09l-0.28,0.23c-3.94,3.24-9.76,2.67-13-1.26
	c-3.239-3.94-2.67-9.76,1.271-13c0.359-0.29,0.77-0.58,1.15-0.81c4-2.37,8.219-6.89,11.079-11.52c1.45-2.33,2.601-4.81,3.181-7.02
	c0.619-2.27,0.479-3.91,0.14-4.71c-0.28-0.86-1.84-2.09-4.33-2.66c-2.42-0.6-5.36-0.7-8.31-0.45c-5.92,0.56-12.061,2.27-17.2,5.38
	c-1.75,1.07-4.021,0.51-5.08-1.23c-0.97-1.6-0.58-3.66,0.84-4.8L191.212,82.45z"/>
<path fill="#FFFFFF" d="M221.518,127.996c0,42.02-41.777,76.085-93.318,76.085c-51.55,0-93.34-34.06-93.34-76.08
	c0-42.01,41.79-76.07,93.34-76.07c51.54,0,93.31,34.06,93.31,76.08L221.518,127.996z"/>
<path fill="#B3B3B3" d="M201.51,125.84c0,34.273-33.869,62.073-75.647,62.073c-41.77,0-75.64-27.8-75.64-62.073
	c0-34.29,33.868-62.088,75.64-62.088C167.641,63.752,201.509,91.549,201.51,125.84L201.51,125.84z"/>
<path fill="#999898" d="M125.862,190.82c-43.31,0-78.55-29.152-78.55-64.98c0-35.844,35.24-64.995,78.55-64.995
	c43.318,0,78.555,29.15,78.555,64.995C204.417,161.668,169.182,190.82,125.862,190.82z M125.862,66.662
	c-40.105,0-72.734,26.546-72.734,59.178c0,32.62,32.63,59.163,72.734,59.163c40.111,0,72.738-26.542,72.738-59.163
	C198.6,93.208,165.973,66.662,125.862,66.662z"/>
<path fill="#333333" d="M128,147.266c-3.216,0-6.5-2.6-6.5-5.815v-29.086c0-3.215,3.284-5.817,6.5-5.817
	c3.216,0,6.5,2.603,6.5,5.817v29.086C134.5,144.666,131.214,147.266,128,147.266z"/>
<path fill="#2974A7" d="M139.52,113.13c0,3.862-5.155,6.994-11.52,6.994c-6.356,0-11.52-3.132-11.52-6.995c0-3.863,5.162-7,11.52-7
	c6.364,0,11.52,3.13,11.52,6.99V113.13z"/>
<path fill="#FFFFFF" d="M192.6,108.012c0,0-12.6,25.681-2.42,29.563C200.359,141.455,205.2,127.412,192.6,108.012L192.6,108.012z"/>
<path fill="#333333" d="M80.13,162.78c-2.676,0-5.076-1.851-5.676-4.573c-0.686-3.134,1.3-6.234,4.44-6.925l93.073-20.39
	c3.12-0.69,6.232,1.297,6.924,4.439c0.69,3.136-1.289,6.234-4.43,6.922l-93.07,20.391c-0.42,0.09-0.83,0.136-1.25,0.136H80.13z
	 M96.98,105.03c0,6.26-5.073,11.33-11.335,11.33c-6.254,0-11.324-5.07-11.324-11.33c0-6.255,5.07-11.328,11.33-11.328
	c6.26,0,11.34,5.073,11.34,11.33L96.98,105.03z"/>
<circle fill="#333333" cx="167.09" cy="105.031" r="11.331"/>
</svg>
