<svg xmlns="http://www.w3.org/2000/svg" width="256" height="256" viewBox="0 0 256 256"><path fill="#fff" d="M128.195 208.084c-53.67 0-97.336-35.927-97.336-80.086 0-1.04.02-2.11.08-3.203-2.65-2.28-5.08-4.89-7.52-8.083-2.62-3.476-4.76-6.986-6.54-10.755-2.14-4.608-3.41-8.715-4.01-12.954-.39-2.984-.37-5.67.03-8.258.23-1.307.57-2.936 1.28-4.675.38-1.033.96-2.11 1.28-2.672.36-.64.52-.888.77-1.223.07-.092.16-.217.37-.54l.08-.122.08-.117c2.51-3.323 5.62-5.21 7.78-6.208 2.31-1.063 4.82-1.76 7.69-2.135 1.46-.176 2.92-.263 4.37-.263 2.7 0 5.43.282 8.61.888 4.77 1.003 9.2 2.478 13.24 4.404 18.25-15.387 43.48-24.165 69.7-24.165 26.82 0 52.44 9.12 70.79 25.107 3.44-1.583 7.16-2.86 11.1-3.804 3.6-.8 6.66-1.167 9.71-1.167 1.09 0 2.19.05 3.27.147 2.92.296 5.46.92 7.8 1.916 2.2.95 5.36 2.75 7.96 5.985l.09.12.08.12c.22.33.32.45.39.54.26.34.42.57.8 1.2.32.53.94 1.59 1.36 2.63.76 1.75 1.16 3.44 1.39 4.55.5 2.66.59 5.27.29 8.29-.47 4.28-1.62 8.43-3.63 13.09-1.66 3.8-3.69 7.37-6.22 10.93-2.55 3.54-5.08 6.38-7.9 8.86.01.54.02 1.06.02 1.58 0 44.16-43.66 80.09-97.32 80.09zm83.778-120.88c2.246 3.12 4.23 6.36 5.938 9.698.24-.346.46-.692.67-1.04 1.3-2.093 2.26-4.2 2.71-5.932.24-.877.3-1.52.3-1.914-.3-.17-.81-.393-1.51-.552-1.3-.322-2.83-.483-4.51-.483-.82 0-1.69.04-2.57.12-.34.04-.68.07-1.02.11zm-177.623-.39c.012.387.09 1.02.346 1.864.516 1.75 1.54 3.835 2.89 5.904.375.57.776 1.137 1.197 1.698 1.882-3.59 4.085-7.063 6.594-10.397-.83-.104-1.663-.185-2.5-.24-.554-.03-1.145-.048-1.73-.048-2.007 0-3.813.208-5.224.6-.75.194-1.266.436-1.573.62z"/><path fill="#333" d="M128.195 51.917c27.952 0 53.027 10.02 70.13 25.892 3.978-2.1 8.25-3.64 12.692-4.7 2.795-.63 5.69-1.06 8.78-1.06.948 0 1.917.04 2.905.13 2.102.21 4.318.64 6.592 1.61 2.252.97 4.6 2.56 6.406 4.81.71 1.02.5.59 1.066 1.53.455.74.86 1.52 1.092 2.11.563 1.27.902 2.55 1.166 3.82.477 2.51.445 4.87.225 7.07-.48 4.4-1.76 8.26-3.33 11.89-1.58 3.62-3.53 6.99-5.81 10.2-2.32 3.21-4.92 6.26-8.35 9.08l-.28.23-.08.05c.06 1.12.09 2.24.09 3.37 0 42.02-41.78 76.08-93.32 76.08-51.55 0-93.34-34.06-93.34-76.08 0-1.68.07-3.34.2-4.99-3.45-2.7-6.1-5.63-8.47-8.73-2.38-3.15-4.41-6.46-6.11-10.04-1.67-3.59-3.04-7.41-3.66-11.8-.28-2.2-.37-4.55.02-7.08.23-1.28.53-2.57 1.06-3.86.21-.58.6-1.38 1.03-2.14.53-.95.35-.52 1.02-1.56 1.73-2.3 4.03-3.95 6.27-4.99 2.24-1.03 4.44-1.53 6.53-1.8 1.31-.16 2.6-.23 3.85-.23 2.74 0 5.34.33 7.86.82 5.13 1.08 10.05 2.79 14.58 5.27 17.08-15.33 41.72-24.96 69.12-24.96M39.8 103.48c3.04-7.286 7.403-14.073 12.85-20.177-3.126-.9-6.36-1.446-9.523-1.654-.67-.04-1.335-.06-1.994-.06-2.255 0-4.432.23-6.296.74-2.48.64-4 1.91-4.26 2.78-.32.82-.406 2.45.277 4.71.65 2.2 1.87 4.63 3.37 6.93 1.57 2.37 3.508 4.7 5.577 6.71m177.15.99c1.88-1.98 3.61-4.23 5.02-6.51 1.44-2.34 2.6-4.81 3.18-7.03.62-2.28.48-3.91.15-4.72-.28-.87-1.85-2.09-4.33-2.66-1.62-.4-3.47-.58-5.4-.58-.95 0-1.93.04-2.91.12-2.61.25-5.25.73-7.84 1.45 5.18 6.06 9.3 12.75 12.15 19.92M128.2 43.9c-26.23 0-51.537 8.51-70.326 23.5-3.67-1.553-7.593-2.77-11.73-3.64l-.07-.016-.07-.016c-3.42-.655-6.394-.96-9.36-.96-1.61 0-3.23.096-4.81.286l-.04.005h-.04c-3.27.43-6.16 1.23-8.84 2.46-3.704 1.71-6.92 4.27-9.31 7.43l-.17.23-.16.24c-.12.19-.17.26-.21.31-.39.52-.65.92-1.074 1.68-.44.76-1.06 1.95-1.52 3.16-.84 2.08-1.25 4.04-1.48 5.34l-.017.08-.01.08c-.47 2.97-.488 6.02-.06 9.35l.005.04.005.04c.65 4.64 2.024 9.11 4.325 14.06l.017.02.014.03c1.9 4.01 4.17 7.75 6.94 11.42l.02.02.01.02c2.16 2.83 4.32 5.24 6.63 7.38-.01.5-.02.99-.02 1.47 0 22.77 10.75 44.08 30.28 60C76.18 203.45 101.41 212 128.18 212s51.99-8.55 71.04-24.08c19.47-15.88 30.22-37.124 30.27-59.835 2.5-2.38 4.8-5.055 7.1-8.24l.02-.026.02-.03c2.68-3.79 4.84-7.6 6.6-11.63 2.18-5.07 3.43-9.58 3.94-14.23v-.08c.33-3.37.23-6.43-.33-9.36l-.02-.07-.01-.07c-.27-1.28-.727-3.22-1.62-5.29-.5-1.22-1.165-2.4-1.64-3.18-.426-.7-.68-1.07-1.067-1.57-.046-.06-.106-.14-.248-.34l-.16-.24-.18-.22c-3.11-3.87-6.878-6.03-9.48-7.15-2.75-1.17-5.67-1.89-8.95-2.23l-.046-.01-.04-.01c-1.2-.11-2.42-.17-3.63-.17-3.35 0-6.69.39-10.52 1.25l-.06.01-.06.01c-3.32.8-6.49 1.81-9.48 3.04-18.9-15.59-44.63-24.44-71.47-24.44z"/><path fill="#676767" d="M62.52 83.466s-31.137-10.86-37.236-1.998c-6.094 8.855 7.295 30.076 17.734 37.267 0 0-6.1-22.842 19.502-35.27z"/><path fill="#B3B3B3" d="M60.492 86.542c-5.232-2.967-11.418-4.5-17.354-4.89-2.95-.166-5.88.02-8.29.69-2.478.637-4 1.907-4.26 2.78-.32.82-.405 2.456.278 4.714.648 2.2 1.87 4.635 3.37 6.932 3 4.55 7.343 8.947 11.405 11.202 4.47 2.48 6.07 8.103 3.59 12.562-2.48 4.46-8.1 6.065-12.56 3.584-.41-.223-.78-.47-1.13-.743l-.32-.253c-3.52-2.73-6.2-5.703-8.6-8.84-2.37-3.148-4.4-6.46-6.1-10.037-1.66-3.588-3.04-7.406-3.65-11.796-.28-2.194-.37-4.55.03-7.08.23-1.275.53-2.564 1.06-3.855.21-.584.6-1.382 1.03-2.138.54-.953.35-.52 1.03-1.566 1.74-2.297 4.03-3.956 6.27-4.987 2.24-1.03 4.44-1.52 6.53-1.8 4.19-.5 8.03-.11 11.71.59 7.28 1.53 14.14 4.3 20.06 8.78 1.63 1.24 1.95 3.56.72 5.18-1.13 1.5-3.18 1.89-4.77.98z"/><path fill="#676767" d="M193.334 85.474c-11.568-5.203 30.813-11.742 37.162-3.058 6.346 8.68-3.926 27.01-14.154 34.495 0 .01 2.94-19.74-23.008-31.43z"/><path fill="#B3B3B3" d="M191.215 82.457c5.787-4.65 12.572-7.613 19.803-9.346 3.654-.81 7.482-1.3 11.686-.92 2.102.22 4.318.65 6.592 1.62 2.252.97 4.6 2.56 6.406 4.81.71 1.03.5.6 1.066 1.54.455.75.86 1.53 1.092 2.11.563 1.28.902 2.56 1.166 3.82.477 2.52.445 4.88.225 7.08-.48 4.41-1.75 8.26-3.32 11.9-1.58 3.63-3.53 7-5.8 10.21-2.31 3.21-4.91 6.26-8.35 9.09l-.28.23c-3.94 3.24-9.76 2.68-13-1.26-3.23-3.94-2.67-9.76 1.27-13 .36-.29.78-.58 1.15-.81 4-2.37 8.22-6.89 11.08-11.52 1.45-2.33 2.6-4.81 3.18-7.02.62-2.27.48-3.91.14-4.72-.28-.86-1.84-2.09-4.33-2.65-2.42-.6-5.36-.7-8.31-.45-5.92.57-12.06 2.27-17.2 5.39-1.74 1.06-4.02.5-5.08-1.24-.97-1.6-.58-3.65.85-4.8z"/><path fill="#fff" d="M221.514 127.998c0 42.022-41.775 76.086-93.318 76.086-51.545 0-93.336-34.064-93.336-76.086 0-42.018 41.79-76.08 93.336-76.08 51.542 0 93.318 34.062 93.318 76.08z"/><path fill="#B3B3B3" d="M201.506 125.838c0 34.28-33.867 62.074-75.643 62.074-41.773 0-75.643-27.793-75.643-62.074 0-34.288 33.87-62.085 75.643-62.085 41.776 0 75.643 27.797 75.643 62.085z"/><path fill="#999898" d="M125.863 190.824c-43.313 0-78.55-29.156-78.55-64.986 0-35.835 35.237-64.993 78.55-64.993 43.314 0 78.553 29.158 78.553 64.993 0 35.83-35.238 64.986-78.553 64.986zm0-124.16c-40.107 0-72.732 26.545-72.732 59.175 0 32.62 32.63 59.16 72.74 59.16s72.74-26.55 72.74-59.17c0-32.63-32.63-59.18-72.73-59.18z"/><path fill="#333" d="M154.02 177.484c-2.358 0-4.3-1.88-4.362-4.25-.06-2.41 1.84-4.406 4.248-4.475 2.54-.07 4.943-.76 6.598-1.9 1.06-.73 1.703-1.59 1.688-2.25-.033-1.38-.29-2.41-.678-2.78-.936-.88-4.527-.79-7.414-.71 0 0-.346 0-.582.02-2.4-.02-4.416-1.85-4.48-4.26v-.11c-.003-2.37 1.874-4.31 4.253-4.37.2-.01.39-.01.58-.02 2.32-.07 5.21-.19 6.67-.93.48-.24 1.29-.65 1.22-3.45-.74-1.56-8.59-6.19-14.12-5.77-2.64-.09-4.41-1.85-4.47-4.25-.06-2.41 1.84-4.42 4.25-4.48 7.4-.35 22.86 5.84 23.08 14.26.11 3.85-.89 6.53-2.3 8.39 1.73 2 2.65 4.75 2.74 8.18.1 3.68-1.89 7.21-5.46 9.67-3.05 2.1-7.07 3.32-11.31 3.43h-.11z"/><path fill="#2974A7" d="M161.094 134.484c.645 3.81-3.924 7.756-10.197 8.814-6.27 1.055-11.885-1.172-12.52-4.982-.648-3.81 3.924-7.756 10.19-8.81 6.277-1.06 11.886 1.168 12.527 4.978z"/><path fill="#FF7BAC" d="M240.957 130.83c-1.7-7.434-8.06-12.582-15.295-13.086-1.92-.298-3.908-.268-5.92.195-4.97 1.14-8.805 4.54-10.78 8.85-3.66-3.02-8.59-4.41-13.567-3.27-2.004.45-3.81 1.29-5.408 2.39-6.28 3.61-9.766 11.02-8.053 18.45.693 3.03 2.172 5.67 4.158 7.78 7.832 12.14 32.605 17.06 32.605 17.06s20.15-15.24 21.906-29.57c.868-2.77 1.045-5.8.354-8.82z"/><path fill="#ED1E79" d="M219.414 172.326l-1.283-.254c-1.05-.21-26.08-5.307-34.48-18.334-2.09-2.16-3.77-5.32-4.55-8.713-1.96-8.55 1.82-17.24 9.44-21.622 1.77-1.235 3.93-2.19 6.21-2.71 4.49-1.026 9.25-.306 13.26 1.933 2.63-3.794 6.54-6.473 11.09-7.523 2.31-.527 4.71-.6 7.03-.232 8.52.59 15.73 6.75 17.68 15.32.79 3.42.64 6.99-.41 10.34-1.77 14.86-22.06 30.37-22.93 31.02l-1.03.79zm-20.54-46.284c-.946 0-1.9.108-2.83.32-1.558.356-3.042 1.015-4.405 1.958-5.59 3.223-8.27 9.366-6.88 15.403.54 2.402 1.74 4.63 3.44 6.447 6.4 9.84 24.74 14.73 29.76 15.906 4.01-3.248 18.37-15.61 19.74-26.78.85-2.884.95-5.41.4-7.817-1.38-6.05-6.47-10.41-12.67-10.84-2.16-.32-3.49-.23-5.07.12-3.89.89-7.09 3.53-8.79 7.24l-1.57 3.43-2.92-2.41c-2.35-1.94-5.27-3-8.24-3z"/><path fill="#fff" d="M136.082 121.17c0 19.962-16.182 36.148-36.14 36.148-19.97 0-36.15-16.186-36.15-36.15 0-19.958 16.18-36.143 36.15-36.143 19.958 0 36.14 16.185 36.14 36.144z"/><path fill="#2974A7" d="M123.852 119.544c0 13.252-10.744 24.002-24.004 24.002s-24-10.75-24-24.002c0-13.26 10.74-24.006 24-24.006s24.004 10.748 24.004 24.006z"/><circle fill="#fff" cx="87.994" cy="112.616" r="8.186"/><path fill="#fff" d="M105.2 121.45c0 2.12-1.733 3.838-3.85 3.838-2.12 0-3.85-1.718-3.85-3.84 0-2.127 1.73-3.845 3.85-3.845 2.117 0 3.85 1.718 3.85 3.846z"/><path fill="#333" d="M163.418 129.06c-.28 0-.563-.025-.848-.082l-18.313-3.59 2.066-4.94c14.582-34.806 39.393-30.57 40.45-30.374 2.368.445 3.923 2.728 3.48 5.093-.44 2.36-2.7 3.916-5.064 3.49-.83-.143-16.9-2.46-28.56 20.267l7.61 1.492c2.36.465 3.9 2.757 3.44 5.123-.41 2.08-2.23 3.52-4.28 3.52z"/><path fill="#B3B3B3" d="M58.32 136.398s51.867-11.922 73.197 19.107l-22.94 22.035-50.257-41.142z"/><radialGradient id="a" cx="88" cy="156" r="30" gradientUnits="userSpaceOnUse"><stop offset="0" stop-color="#FF585D"/><stop offset="1" stop-color="#FF585D" stop-opacity="0"/></radialGradient><circle opacity=".4" fill="url(#a)" cx="88" cy="156" r="30"/><radialGradient id="b" cx="192" cy="132" r="30" gradientUnits="userSpaceOnUse"><stop offset="0" stop-color="#FF585D"/><stop offset="1" stop-color="#FF585D" stop-opacity="0"/></radialGradient><circle opacity=".4" fill="url(#b)" cx="192" cy="132" r="30"/></svg>