<svg xmlns="http://www.w3.org/2000/svg" width="256" height="256" viewBox="0 0 256 256"><path fill="#fff" d="M128.194 208.084c-53.67 0-97.333-35.927-97.333-80.086 0-1.042.03-2.112.09-3.2-2.66-2.29-5.09-4.902-7.52-8.09-2.61-3.467-4.75-6.98-6.53-10.754-2.14-4.593-3.41-8.7-4-12.95-.39-2.986-.37-5.675.04-8.262.23-1.305.58-2.937 1.28-4.68.39-1.042.97-2.11 1.28-2.664.36-.638.53-.884.77-1.218.07-.092.16-.217.37-.54l.08-.126.09-.12c2.52-3.324 5.63-5.21 7.79-6.207 2.31-1.063 4.83-1.76 7.69-2.135 1.46-.176 2.92-.263 4.37-.263 2.71 0 5.44.28 8.61.88 4.78 1 9.2 2.48 13.24 4.4 18.25-15.38 43.48-24.16 69.7-24.16 26.82 0 52.45 9.12 70.79 25.1 3.44-1.59 7.16-2.86 11.1-3.81 3.6-.8 6.66-1.17 9.71-1.17 1.09 0 2.19.05 3.27.15 2.92.3 5.46.92 7.8 1.92 2.21.95 5.37 2.75 7.97 5.99l.09.11.08.11c.22.32.32.45.39.54.26.33.42.56.8 1.19.55.9 1.03 1.83 1.35 2.62.59 1.35 1.04 2.8 1.4 4.57.5 2.62.59 5.31.29 8.28-.46 4.26-1.62 8.41-3.63 13.08-1.65 3.78-3.68 7.35-6.21 10.93-2.54 3.53-5.07 6.37-7.89 8.85.01.53.02 1.06.02 1.58 0 44.16-43.66 80.09-97.32 80.09zm83.78-120.88c2.247 3.12 4.23 6.358 5.938 9.696.23-.346.455-.692.67-1.04 1.29-2.088 2.25-4.194 2.704-5.93.24-.877.3-1.52.302-1.914-.307-.17-.81-.393-1.508-.552-1.3-.322-2.832-.483-4.513-.483-.825 0-1.692.04-2.575.12-.34.03-.678.07-1.017.11zm-177.624-.39c.012.388.09 1.02.345 1.867.513 1.75 1.536 3.83 2.89 5.9.376.57.777 1.14 1.2 1.7 1.882-3.59 4.084-7.06 6.593-10.39-.83-.1-1.663-.18-2.5-.24-.554-.03-1.145-.05-1.73-.05-2.008 0-3.815.21-5.227.6-.74.2-1.26.44-1.57.62z"/><path fill="#333" d="M128.194 51.917c27.953 0 53.03 10.02 70.132 25.892 3.978-2.1 8.25-3.64 12.692-4.7 2.793-.62 5.688-1.06 8.777-1.06.95 0 1.92.04 2.908.13 2.1.21 4.316.64 6.59 1.61 2.256.97 4.604 2.56 6.408 4.81.72 1.02.5.59 1.07 1.53.46.74.86 1.52 1.09 2.11.57 1.27.91 2.55 1.17 3.82.48 2.51.45 4.87.23 7.08-.48 4.4-1.76 8.26-3.32 11.89-1.58 3.62-3.53 6.99-5.8 10.2-2.31 3.21-4.91 6.25-8.35 9.08l-.27.23c-.02.02-.05.03-.07.05.06 1.12.09 2.24.09 3.38 0 42.02-41.78 76.08-93.32 76.08-51.55 0-93.33-34.07-93.33-76.09 0-1.68.08-3.34.21-4.99-3.44-2.7-6.1-5.63-8.46-8.73-2.38-3.15-4.41-6.46-6.1-10.04-1.67-3.59-3.04-7.41-3.66-11.8-.28-2.2-.38-4.55.02-7.08.23-1.28.53-2.57 1.06-3.86.22-.58.6-1.38 1.03-2.14.54-.95.35-.52 1.02-1.57 1.74-2.3 4.04-3.96 6.28-4.99 2.24-1.03 4.44-1.53 6.53-1.8 1.32-.16 2.6-.23 3.86-.23 2.74 0 5.34.33 7.86.82 5.13 1.08 10.04 2.79 14.58 5.26 17.08-15.33 41.72-24.95 69.12-24.95m-88.38 51.57c3.04-7.29 7.4-14.08 12.85-20.18-3.13-.9-6.36-1.45-9.52-1.66-.67-.04-1.34-.06-1.99-.06-2.26 0-4.44.22-6.3.74-2.48.64-4 1.91-4.26 2.78-.32.82-.41 2.46.28 4.71.65 2.2 1.87 4.64 3.37 6.93 1.58 2.38 3.51 4.71 5.58 6.72m177.15.99c1.88-1.98 3.61-4.23 5.02-6.51 1.45-2.34 2.6-4.81 3.17-7.02.62-2.28.48-3.91.15-4.72-.28-.87-1.84-2.1-4.33-2.66-1.62-.4-3.47-.58-5.4-.58-.95 0-1.93.04-2.91.12-2.61.24-5.25.73-7.84 1.44 5.18 6.06 9.3 12.76 12.15 19.92M128.21 43.9c-26.23 0-51.54 8.51-70.326 23.5-3.67-1.55-7.59-2.77-11.723-3.64l-.07-.017-.08-.02c-3.42-.65-6.4-.96-9.36-.96-1.61 0-3.23.1-4.81.29l-.04.01h-.04c-3.27.43-6.16 1.237-8.84 2.47-3.7 1.7-6.92 4.27-9.31 7.42l-.18.24-.16.25c-.12.19-.17.262-.21.316-.39.51-.65.92-1.07 1.67-.35.61-1.02 1.86-1.51 3.15-.85 2.09-1.25 4.05-1.48 5.36l-.02.07-.01.07c-.47 2.97-.48 6.03-.05 9.36l.01.04.01.04c.65 4.65 2.03 9.12 4.33 14.06 1.92 4.06 4.2 7.81 6.97 11.48 2.18 2.85 4.34 5.27 6.66 7.42-.01.49-.02.98-.02 1.47 0 22.77 10.75 44.08 30.28 60 19.05 15.53 44.28 24.08 71.05 24.08s52-8.56 71.04-24.09c19.48-15.88 30.23-37.12 30.28-59.84 2.5-2.37 4.81-5.05 7.1-8.24l.02-.03.02-.03c2.69-3.81 4.85-7.61 6.61-11.63 2.19-5.08 3.44-9.59 3.94-14.23l.01-.04v-.03c.34-3.35.23-6.41-.32-9.36l-.02-.06-.01-.06c-.41-2.03-.93-3.73-1.63-5.33-.53-1.3-1.25-2.54-1.63-3.17-.42-.7-.68-1.07-1.06-1.56-.04-.06-.11-.15-.25-.36l-.16-.23-.18-.22c-3.11-3.88-6.88-6.03-9.49-7.15-2.74-1.17-5.66-1.89-8.94-2.22l-.04-.01h-.04c-1.2-.11-2.42-.16-3.63-.16-3.35 0-6.69.39-10.52 1.25l-.06.01-.06.01c-3.31.79-6.48 1.81-9.48 3.03-18.91-15.59-44.63-24.45-71.48-24.45z"/><path fill="#676767" d="M62.522 83.466s-31.14-10.86-37.238-1.998c-6.092 8.855 7.295 30.076 17.734 37.267 0 0-6.103-22.842 19.504-35.27z"/><path fill="#B3B3B3" d="M60.493 86.542c-5.234-2.967-11.418-4.5-17.354-4.89-2.95-.166-5.89.02-8.3.69-2.48.637-4 1.907-4.26 2.78-.32.82-.41 2.456.27 4.714.64 2.2 1.87 4.635 3.37 6.932 3 4.55 7.34 8.947 11.4 11.202 4.46 2.48 6.06 8.103 3.58 12.562-2.48 4.46-8.11 6.065-12.56 3.584-.41-.223-.79-.47-1.14-.743l-.33-.253c-3.52-2.73-6.21-5.703-8.61-8.84-2.38-3.148-4.41-6.46-6.1-10.037-1.68-3.588-3.05-7.406-3.66-11.796-.29-2.194-.38-4.55.02-7.08.22-1.275.52-2.564 1.06-3.855.21-.584.6-1.382 1.02-2.138.53-.953.34-.52 1.02-1.566 1.74-2.297 4.03-3.956 6.27-4.987 2.24-1.03 4.44-1.52 6.53-1.8 4.19-.5 8.03-.11 11.71.59 7.27 1.53 14.13 4.3 20.06 8.78 1.62 1.24 1.95 3.56.71 5.18-1.13 1.5-3.18 1.89-4.77.98z"/><path fill="#676767" d="M193.333 85.474c-11.564-5.203 30.814-11.742 37.166-3.058 6.34 8.68-3.93 27.01-14.16 34.495 0 .01 2.94-19.74-23.01-31.43z"/><path fill="#B3B3B3" d="M191.216 82.457c5.787-4.65 12.57-7.613 19.803-9.346 3.65-.81 7.47-1.3 11.68-.92 2.1.22 4.31.65 6.59 1.62 2.25.97 4.6 2.56 6.41 4.81.71 1.03.5.6 1.06 1.54.45.75.85 1.53 1.09 2.11.56 1.28.9 2.56 1.16 3.82.47 2.52.45 4.88.23 7.08-.48 4.41-1.76 8.26-3.33 11.9-1.58 3.63-3.53 7-5.81 10.21-2.31 3.21-4.92 6.26-8.35 9.09l-.28.23c-3.94 3.24-9.76 2.68-13-1.26-3.24-3.94-2.67-9.76 1.26-13 .36-.29.78-.58 1.15-.81 4-2.37 8.21-6.89 11.08-11.52 1.44-2.33 2.59-4.81 3.17-7.02.62-2.27.48-3.91.14-4.72-.29-.86-1.85-2.09-4.34-2.65-2.43-.6-5.37-.7-8.32-.45-5.92.57-12.06 2.27-17.21 5.39-1.75 1.06-4.02.5-5.08-1.24-.98-1.6-.58-3.65.84-4.8z"/><path fill="#fff" d="M221.517 127.998c0 42.022-41.777 76.086-93.322 76.086-51.547 0-93.333-34.064-93.333-76.086 0-42.018 41.785-76.08 93.333-76.08 51.544 0 93.322 34.062 93.322 76.08z"/><path fill="#B3B3B3" d="M201.51 125.838c0 34.28-33.872 62.074-75.646 62.074-41.773 0-75.645-27.793-75.645-62.074 0-34.288 33.87-62.085 75.64-62.085s75.64 27.797 75.64 62.085z"/><path fill="#999898" d="M125.864 190.824c-43.313 0-78.55-29.156-78.55-64.986 0-35.835 35.237-64.993 78.55-64.993 43.315 0 78.55 29.158 78.55 64.993 0 35.83-35.235 64.986-78.55 64.986zm0-124.16c-40.11 0-72.734 26.545-72.734 59.175 0 32.62 32.625 59.16 72.734 59.16 40.104 0 72.735-26.55 72.735-59.17 0-32.63-32.64-59.18-72.74-59.18z"/><path fill="#333" d="M136.286 179.262c-2.043 0-3.87-1.443-4.277-3.52-.47-2.364 1.08-4.66 3.44-5.126 4.89-.96 9.4-3.514 10.5-5.947.18-.43.69-1.57-.61-3.77-.53-.89-1.92-3.34-8.95-3.05-2.54.03-4.41-1.85-4.48-4.25v-.11c-.01-2.36 1.87-4.31 4.25-4.37 3.71-.1 7.08-1.26 8.19-2.82.2-.29.73-1.03.14-2.89-.81-2.16-8.73-7.34-14.33-6.98h-.11c-2.36 0-4.3-1.88-4.36-4.25-.07-2.41 1.84-4.42 4.25-4.48 8.1-.32 20.65 6.08 22.87 13.05 1.58 4.97.15 8.5-1.35 10.59-.44.61-.92 1.17-1.45 1.68 1.1.96 2.03 2.09 2.82 3.41 2.97 5.02 2.21 9.18 1.05 11.77-2.77 6.18-10.48 9.7-16.78 10.94-.29.05-.57.08-.85.08z"/><path fill="#2974A7" d="M143.642 128.666c.643 3.81-3.924 7.756-10.195 8.817-6.272 1.055-11.883-1.174-12.522-4.982-.648-3.8 3.926-7.75 10.194-8.81 6.27-1.06 11.88 1.17 12.52 4.98z"/><path fill="#333" d="M93.055 128.674c-.234 0-.47-.007-.71-.013-8.757-.25-16.68-5.1-23.552-14.4-1.434-1.94-1.025-4.67.918-6.1 1.94-1.43 4.68-1.01 6.11.92 5.19 7.02 10.82 10.68 16.75 10.87 10.37.42 19.28-9.97 19.36-10.07 1.55-1.84 4.3-2.07 6.15-.54 1.84 1.55 2.09 4.29.55 6.14-.45.55-11.17 13.21-25.56 13.21zm63.987 0c-.23 0-.467-.007-.71-.013-8.753-.25-16.677-5.1-23.55-14.4-1.432-1.94-1.023-4.67.92-6.1 1.938-1.43 4.67-1.01 6.102.92 5.186 7.02 10.82 10.68 16.746 10.87 10.37.42 19.273-9.97 19.36-10.07 1.558-1.84 4.3-2.07 6.147-.54 1.842 1.55 2.09 4.29.55 6.14-.456.55-11.176 13.21-25.565 13.21z"/><radialGradient id="a" cx="71" cy="146" r="30" gradientUnits="userSpaceOnUse"><stop offset="0" stop-color="#FF585D"/><stop offset="1" stop-color="#FF585D" stop-opacity="0"/></radialGradient><circle opacity=".4" fill="url(#a)" cx="71" cy="146" r="30"/><radialGradient id="b" cx="186" cy="146" r="30" gradientUnits="userSpaceOnUse"><stop offset="0" stop-color="#FF585D"/><stop offset="1" stop-color="#FF585D" stop-opacity="0"/></radialGradient><circle opacity=".4" fill="url(#b)" cx="186" cy="146" r="30"/></svg>