<svg xmlns="http://www.w3.org/2000/svg" width="256" height="256" viewBox="0 0 256 256"><path fill="#fff" d="M128.194 208.08c-53.67 0-97.335-35.925-97.335-80.083 0-1.042.02-2.114.08-3.204-2.66-2.29-5.09-4.9-7.52-8.09-2.62-3.458-4.75-6.97-6.54-10.75-2.14-4.6-3.41-8.71-4.01-12.953-.39-2.982-.37-5.668.03-8.255.23-1.323.58-2.96 1.28-4.682.29-.79.76-1.763 1.29-2.69.34-.614.51-.86.75-1.193.07-.093.16-.22.37-.544l.08-.126.09-.12c2.52-3.324 5.62-5.208 7.78-6.204 2.31-1.063 4.82-1.76 7.69-2.133 1.46-.177 2.92-.264 4.37-.264 2.7 0 5.43.28 8.6.88 4.78 1 9.2 2.48 13.24 4.4C76.7 56.68 101.93 47.9 128.15 47.9c26.82 0 52.44 9.12 70.79 25.1 3.44-1.59 7.16-2.86 11.1-3.81 3.6-.81 6.667-1.17 9.72-1.17 1.09 0 2.19.05 3.268.14 2.92.29 5.45.92 7.79 1.91 2.207.942 5.366 2.743 7.967 5.98l.09.114.084.12c.22.324.32.452.39.55.26.33.42.56.8 1.184.54.886 1.03 1.84 1.35 2.625.58 1.35 1.03 2.8 1.39 4.57.49 2.635.58 5.322.29 8.284-.47 4.292-1.63 8.44-3.63 13.082-1.66 3.79-3.69 7.36-6.21 10.93-2.56 3.53-5.09 6.38-7.89 8.85.01.54.02 1.06.02 1.58 0 44.16-43.66 80.09-97.33 80.09zm83.78-120.877c2.247 3.12 4.23 6.357 5.94 9.695.23-.344.45-.69.665-1.036 1.29-2.1 2.25-4.206 2.7-5.933.23-.88.3-1.52.3-1.92-.31-.17-.81-.4-1.51-.55-1.3-.32-2.84-.48-4.52-.48-.83 0-1.69.04-2.57.11-.34.03-.68.07-1.02.11zm-177.625-.39c.01.39.09 1.023.34 1.87.51 1.745 1.53 3.83 2.88 5.898.37.57.77 1.14 1.2 1.7 1.88-3.59 4.08-7.06 6.59-10.39-.83-.1-1.67-.18-2.5-.24-.55-.03-1.15-.05-1.73-.05-2.01 0-3.82.21-5.23.6-.75.19-1.27.44-1.57.62z"/><path fill="#333" d="M128.194 51.917c27.95 0 53.026 10.02 70.13 25.89 3.98-2.1 8.25-3.634 12.692-4.698 2.793-.63 5.692-1.06 8.782-1.06.95 0 1.918.04 2.905.13 2.1.21 4.316.65 6.588 1.61 2.26.97 4.61 2.56 6.41 4.81.71 1.03.5.6 1.07 1.53.46.74.86 1.52 1.09 2.1.56 1.27.9 2.55 1.17 3.82.48 2.51.45 4.87.23 7.07-.48 4.4-1.75 8.26-3.32 11.89-1.58 3.62-3.52 6.99-5.8 10.2-2.31 3.21-4.92 6.26-8.35 9.09l-.27.23c-.02.02-.04.03-.07.05.06 1.12.1 2.25.1 3.38 0 42.02-41.78 76.08-93.32 76.08-51.54 0-93.33-34.06-93.33-76.08 0-1.68.08-3.34.21-4.99-3.44-2.7-6.1-5.63-8.46-8.73-2.38-3.15-4.41-6.46-6.1-10.04-1.67-3.59-3.05-7.41-3.66-11.8-.28-2.2-.37-4.55.02-7.08.23-1.28.53-2.57 1.07-3.86.21-.59.59-1.39 1.03-2.14.53-.95.34-.52 1.02-1.57 1.74-2.3 4.03-3.96 6.27-4.99 2.24-1.03 4.44-1.53 6.53-1.8 1.32-.16 2.6-.23 3.86-.23 2.73 0 5.33.33 7.86.82 5.13 1.08 10.05 2.79 14.58 5.26 17.07-15.32 41.71-24.94 69.11-24.94m-88.39 51.57c3.04-7.29 7.41-14.07 12.85-20.18-3.12-.9-6.36-1.45-9.52-1.66-.67-.03-1.33-.05-1.99-.05-2.25 0-4.43.23-6.3.75-2.47.64-4 1.91-4.26 2.78-.32.82-.4 2.46.28 4.71.65 2.2 1.87 4.64 3.37 6.93 1.57 2.38 3.51 4.71 5.58 6.72m177.15.99c1.88-1.98 3.61-4.23 5.02-6.5 1.44-2.34 2.6-4.81 3.18-7.03.62-2.28.48-3.91.14-4.72-.28-.87-1.84-2.09-4.33-2.66-1.62-.4-3.47-.58-5.4-.58-.96 0-1.93.04-2.91.13-2.6.25-5.25.73-7.84 1.45 5.17 6.05 9.3 12.75 12.15 19.91m-88.79-60.55c-26.23 0-51.53 8.51-70.32 23.5-3.67-1.56-7.59-2.78-11.72-3.64l-.07-.02-.08-.01c-3.42-.65-6.4-.96-9.35-.96-1.62 0-3.24.1-4.82.29l-.04.01-.04.01c-3.28.43-6.17 1.24-8.85 2.47-3.69 1.71-6.91 4.27-9.3 7.43l-.18.24-.16.25c-.12.19-.18.27-.22.33-.37.5-.63.91-1.03 1.63-.38.66-1.04 1.89-1.53 3.19-.83 2.04-1.22 3.92-1.48 5.34l-.01.09-.02.08c-.46 2.97-.48 6.02-.05 9.34l.01.05.01.04c.65 4.65 2.03 9.12 4.33 14.07l.01.02.01.02c1.91 4.03 4.19 7.77 6.96 11.44 2.18 2.85 4.34 5.27 6.65 7.42-.01.5-.01.99-.01 1.47 0 22.77 10.76 44.08 30.29 60 19.05 15.53 44.28 24.08 71.05 24.08s51.99-8.55 71.04-24.08c19.48-15.89 30.23-37.13 30.28-59.85 2.5-2.38 4.8-5.05 7.09-8.22l.02-.03.02-.03c2.69-3.79 4.85-7.6 6.61-11.63 2.18-5.05 3.43-9.56 3.94-14.22l.01-.04c.34-3.35.23-6.41-.32-9.35l-.01-.07-.01-.07c-.42-2.03-.94-3.73-1.63-5.32-.4-.98-.98-2.09-1.64-3.17-.42-.69-.67-1.06-1.05-1.55-.05-.06-.11-.14-.26-.35l-.17-.24-.18-.23c-3.12-3.88-6.88-6.03-9.49-7.15-2.74-1.17-5.65-1.89-8.93-2.22l-.04-.01-.05-.01c-1.19-.11-2.41-.16-3.63-.16-3.35 0-6.69.39-10.52 1.25l-.06.01-.06.02c-3.31.79-6.48 1.81-9.48 3.03-18.9-15.59-44.63-24.45-71.47-24.45z"/><path fill="#676767" d="M62.52 83.466s-31.136-10.86-37.24-2c-6.09 8.857 7.296 30.078 17.74 37.27 0-.002-6.104-22.843 19.5-35.27z"/><path fill="#B3B3B3" d="M60.492 86.542c-5.23-2.968-11.418-4.5-17.354-4.892-2.947-.165-5.88.02-8.29.69-2.476.64-4 1.908-4.26 2.78-.32.822-.4 2.458.278 4.716.648 2.2 1.87 4.636 3.367 6.93 3.004 4.552 7.35 8.948 11.41 11.203 4.463 2.48 6.068 8.1 3.584 12.56-2.484 4.46-8.105 6.06-12.56 3.58-.41-.23-.788-.47-1.138-.75l-.33-.26c-3.52-2.73-6.21-5.71-8.61-8.85-2.38-3.15-4.41-6.46-6.11-10.04-1.67-3.59-3.05-7.41-3.66-11.8-.29-2.2-.38-4.55.02-7.08.23-1.28.52-2.57 1.06-3.86.21-.59.59-1.39 1.03-2.14.53-.95.34-.52 1.02-1.57 1.74-2.3 4.03-3.96 6.27-4.99 2.24-1.04 4.44-1.53 6.53-1.8 4.19-.51 8.03-.12 11.71.58 7.28 1.53 14.13 4.29 20.06 8.78 1.63 1.23 1.94 3.55.71 5.17-1.13 1.5-3.18 1.88-4.77.98z"/><path fill="#676767" d="M193.333 85.473c-11.568-5.204 30.81-11.742 37.164-3.058 6.346 8.68-3.924 27.013-14.158 34.495 0 0 2.94-19.745-23.01-31.437z"/><path fill="#B3B3B3" d="M191.214 82.455c5.79-4.65 12.572-7.613 19.803-9.345 3.65-.813 7.484-1.307 11.688-.927 2.1.214 4.316.65 6.588 1.614 2.258.97 4.604 2.56 6.41 4.808.71 1.028.498.598 1.066 1.537.45.745.85 1.525 1.09 2.107.56 1.27.9 2.55 1.16 3.82.47 2.51.44 4.87.22 7.08-.49 4.4-1.76 8.26-3.33 11.89-1.58 3.62-3.53 6.99-5.81 10.2-2.32 3.21-4.92 6.25-8.35 9.08l-.28.23c-3.94 3.24-9.76 2.67-13.01-1.27-3.24-3.94-2.67-9.77 1.27-13 .36-.3.77-.58 1.15-.82 3.99-2.37 8.21-6.89 11.07-11.52 1.44-2.34 2.6-4.81 3.17-7.03.62-2.28.48-3.91.14-4.72-.29-.87-1.85-2.09-4.34-2.66-2.43-.6-5.37-.71-8.31-.46-5.92.56-12.06 2.27-17.21 5.39-1.75 1.06-4.02.5-5.08-1.25-.98-1.61-.59-3.66.84-4.8z"/><path fill="#fff" d="M221.52 127.997c0 42.022-41.784 76.083-93.325 76.083-51.546 0-93.335-34.06-93.335-76.083 0-42.018 41.79-76.08 93.335-76.08 51.54 0 93.324 34.062 93.324 76.08z"/><path fill="#B3B3B3" d="M201.505 137.472c0 34.28-33.867 62.074-75.642 62.074-41.773 0-75.64-27.794-75.64-62.074 0-34.288 33.866-62.085 75.64-62.085 41.775 0 75.642 27.797 75.642 62.085z"/><path fill="#999898" d="M125.863 202.457c-43.313 0-78.55-29.156-78.55-64.985 0-35.835 35.237-64.993 78.55-64.993 43.314 0 78.552 29.15 78.552 64.99 0 35.83-35.238 64.98-78.552 64.98zm0-124.16c-40.107 0-72.734 26.544-72.734 59.174 0 32.63 32.62 59.17 72.73 59.17s72.74-26.54 72.74-59.17-32.64-59.17-72.74-59.17z"/><path fill="#333" d="M85.908 140.393c-8.105 0-15.87-4.04-23.125-12.036-1.62-1.78-1.484-4.542.3-6.163 1.79-1.612 4.542-1.48 6.165.3 5.875 6.482 11.797 9.563 17.79 9.134 10.353-.738 18.128-11.838 18.208-11.95 1.346-1.997 4.06-2.522 6.055-1.172 2.01 1.35 2.53 4.063 1.18 6.06-.4.602-10.11 14.717-24.81 15.766-.58.04-1.17.06-1.75.06zm79.06 0c8.104 0 15.87-4.04 23.124-12.036 1.62-1.78 1.484-4.542-.3-6.163-1.79-1.612-4.542-1.48-6.165.3-5.875 6.482-11.797 9.563-17.79 9.134-10.353-.738-18.128-11.838-18.208-11.95-1.35-1.997-4.06-2.522-6.06-1.172-2.01 1.35-2.53 4.063-1.17 6.06.4.602 10.11 14.717 24.81 15.766.59.04 1.17.06 1.75.06zm-38.348 30.142c-3.216 0-6-2.602-6-5.816v-17.46c0-3.22 2.784-5.82 6-5.82 3.212 0 6 2.6 6 5.81v17.45c0 3.21-2.788 5.81-6 5.81zm25.14 18.178c-3.212 0-5.817-2.602-5.817-5.814 0-4.54-8.146-9.61-19.044-9.61-10.91 0-19.05 5.07-19.05 9.6 0 3.21-2.61 5.81-5.82 5.81-3.22 0-5.82-2.6-5.82-5.82 0-11.92 13.47-21.25 30.68-21.25 17.2 0 30.68 9.33 30.68 21.24 0 3.21-2.61 5.81-5.82 5.81z"/><path fill="#2974A7" d="M137.985 142.216c0 3.862-5.162 6.993-11.52 6.993s-11.524-3.14-11.524-7 5.17-7 11.53-7c6.36 0 11.52 3.13 11.52 6.99z"/></svg>