<svg xmlns="http://www.w3.org/2000/svg" width="256" height="256" viewBox="0 0 256 256"><path fill="#DD629A" d="M125.476 212c-4.758 0-9.414-1.734-13.534-5.03-22.112-3.06-42.38-12.4-57.183-26.383-15.42-14.557-23.9-33.233-23.9-52.59 0-1.042.02-2.113.08-3.202-2.66-2.284-5.08-4.895-7.52-8.085-2.62-3.475-4.76-6.986-6.54-10.755-2.14-4.603-3.41-8.71-4.01-12.954-.39-2.97-.38-5.66.03-8.25.23-1.29.56-2.92 1.27-4.67.38-1.04.96-2.12 1.28-2.68.35-.63.52-.87.77-1.21.07-.09.16-.21.36-.53l.08-.12.09-.12c2.52-3.32 5.63-5.21 7.79-6.2 2.31-1.06 4.83-1.76 7.69-2.13 1.46-.17 2.92-.26 4.37-.26 2.71 0 5.44.28 8.61.89 4.78 1.01 9.21 2.48 13.24 4.41 18.25-15.39 43.48-24.16 69.71-24.16 26.81 0 52.43 9.12 70.78 25.11 3.44-1.59 7.16-2.86 11.1-3.81 3.59-.8 6.66-1.17 9.71-1.17 1.09 0 2.19.05 3.26.15 2.92.3 5.46.92 7.8 1.92 2.2.95 5.36 2.75 7.96 5.99l.09.12.08.12c.22.32.32.45.39.54.25.32.42.56.8 1.2.55.91 1.03 1.84 1.35 2.62.59 1.35 1.02 2.76 1.39 4.56.5 2.64.59 5.25.29 8.29-.47 4.3-1.63 8.44-3.64 13.09-1.65 3.78-3.68 7.35-6.21 10.93-2.55 3.53-5.08 6.38-7.9 8.86.01.53.02 1.06.02 1.57 0 20.29-9.21 39.63-25.95 54.47-16.15 14.32-37.93 23.24-61.46 25.2-3.89 2.84-8.23 4.33-12.63 4.33zm86.497-124.795c2.246 3.12 4.23 6.358 5.938 9.696.23-.34.46-.69.67-1.03 1.3-2.1 2.26-4.2 2.71-5.93.24-.88.3-1.52.3-1.91-.3-.17-.81-.39-1.5-.55-1.3-.32-2.83-.48-4.52-.48-.82 0-1.68.04-2.56.12-.34.03-.68.07-1.02.11zM34.35 86.813c.013.39.092 1.024.347 1.873.515 1.747 1.54 3.832 2.887 5.892.376.57.778 1.14 1.2 1.7 1.882-3.59 4.084-7.062 6.593-10.395-.83-.104-1.664-.185-2.503-.24-.55-.03-1.142-.048-1.727-.048-2.007 0-3.814.208-5.226.6-.74.193-1.26.435-1.57.618z"/><path fill="#333" d="M128.198 51.918c27.95 0 53.024 10.02 70.126 25.89 3.98-2.1 8.25-3.633 12.694-4.698 2.794-.622 5.69-1.056 8.78-1.056.95 0 1.918.04 2.907.13 2.1.213 4.316.646 6.59 1.614 2.254.968 4.6 2.558 6.406 4.808.71 1.028.5.597 1.07 1.536.46.745.86 1.525 1.09 2.107.57 1.27.91 2.55 1.17 3.82.48 2.51.45 4.87.23 7.07-.48 4.4-1.75 8.26-3.32 11.89-1.58 3.62-3.52 6.99-5.8 10.2-2.31 3.21-4.91 6.26-8.35 9.08l-.27.23-.07.05c.06 1.12.1 2.24.1 3.37 0 39.71-37.31 72.31-84.9 75.77-3.34 2.69-7.12 4.23-11.13 4.23-4.3 0-8.34-1.77-11.85-4.85-44.62-5.71-78.76-37.18-78.76-75.16 0-1.68.08-3.34.21-4.99-3.44-2.7-6.1-5.63-8.46-8.73-2.37-3.15-4.41-6.46-6.1-10.04-1.67-3.59-3.04-7.4-3.66-11.79-.28-2.2-.37-4.55.03-7.08.23-1.28.53-2.56 1.06-3.86.21-.59.6-1.39 1.03-2.14.53-.96.35-.52 1.02-1.57 1.74-2.3 4.04-3.95 6.27-4.99 2.25-1.03 4.44-1.53 6.54-1.81 1.32-.16 2.6-.23 3.86-.23 2.73 0 5.33.33 7.86.82 5.13 1.08 10.04 2.79 14.58 5.26 17.08-15.33 41.72-24.95 69.12-24.95m-88.4 51.56c3.04-7.29 7.4-14.07 12.85-20.18-3.12-.9-6.35-1.45-9.52-1.66-.66-.03-1.33-.05-1.99-.05-2.25 0-4.43.23-6.3.75-2.47.64-4 1.91-4.26 2.78-.31.82-.4 2.46.28 4.72.65 2.2 1.87 4.63 3.37 6.93 1.57 2.38 3.51 4.71 5.58 6.72m177.15.99c1.88-1.99 3.62-4.23 5.02-6.51 1.45-2.34 2.6-4.81 3.18-7.03.62-2.28.48-3.91.15-4.72-.28-.87-1.84-2.09-4.33-2.66-1.62-.41-3.48-.59-5.4-.59-.96 0-1.93.04-2.91.13-2.61.24-5.26.73-7.85 1.44 5.17 6.05 9.29 12.75 12.15 19.91m-88.8-60.55c-26.23 0-51.54 8.51-70.33 23.5-3.67-1.55-7.59-2.77-11.73-3.64l-.07-.02-.07-.02c-3.42-.65-6.4-.96-9.36-.96-1.61 0-3.23.1-4.81.29l-.04.01h-.04c-3.27.43-6.16 1.23-8.84 2.46-3.7 1.71-6.92 4.28-9.31 7.43l-.18.24-.16.26c-.08.14-.14.22-.18.27-.41.55-.67.96-1.08 1.7-.45.8-1.07 1.98-1.52 3.19-.85 2.09-1.25 4.05-1.48 5.35l-.01.07-.01.07c-.47 2.98-.49 6.04-.05 9.36l.01.04.01.04c.65 4.65 2.03 9.12 4.33 14.06l.01.02.01.02c1.91 4.02 4.18 7.76 6.95 11.43l.02.02.02.02c2.16 2.83 4.32 5.24 6.63 7.38-.01.49-.02.98-.02 1.47 0 20.47 8.93 40.18 25.15 55.5 15.17 14.32 35.8 23.96 58.32 27.28 4.62 3.42 9.81 5.22 15.14 5.22 4.9 0 9.71-1.53 14.05-4.44 23.97-2.21 46.15-11.43 62.7-26.1 17.55-15.57 27.24-35.91 27.29-57.3 2.5-2.38 4.81-5.05 7.1-8.24l.02-.03.02-.03c2.69-3.8 4.85-7.6 6.61-11.63 2.18-5.05 3.43-9.56 3.94-14.22l.01-.04.01-.04c.33-3.42.23-6.39-.33-9.35l-.01-.07-.01-.07c-.26-1.28-.72-3.22-1.62-5.29-.53-1.3-1.25-2.54-1.64-3.18-.42-.7-.67-1.07-1.06-1.57-.04-.06-.1-.13-.24-.33l-.17-.24-.19-.23c-3.11-3.88-6.88-6.03-9.49-7.15-2.74-1.17-5.65-1.89-8.94-2.23l-.04-.01h-.04c-1.2-.11-2.42-.16-3.63-.16-3.35 0-6.69.4-10.52 1.25l-.06.01-.06.01c-3.31.79-6.48 1.81-9.48 3.03-18.91-15.6-44.63-24.45-71.47-24.45z"/><path fill="#676767" d="M62.522 83.466s-31.14-10.858-37.238-1.998c-6.092 8.855 7.293 30.076 17.734 37.267 0 0-6.1-22.842 19.504-35.27z"/><path fill="#B3B3B3" d="M60.49 86.542c-5.23-2.967-11.417-4.5-17.353-4.89-2.947-.166-5.88.02-8.29.69-2.476.638-4 1.907-4.26 2.78-.317.82-.4 2.456.278 4.715.648 2.198 1.867 4.634 3.37 6.93 3.005 4.552 7.343 8.948 11.407 11.203 4.463 2.48 6.066 8.103 3.582 12.562-2.48 4.46-8.105 6.065-12.56 3.584-.41-.223-.782-.47-1.136-.743l-.324-.253c-3.516-2.73-6.207-5.703-8.605-8.84-2.38-3.148-4.41-6.46-6.11-10.037-1.67-3.587-3.05-7.405-3.66-11.796-.29-2.194-.38-4.55.02-7.08.22-1.275.52-2.563 1.06-3.855.21-.584.59-1.382 1.03-2.138.53-.953.34-.52 1.02-1.566 1.74-2.297 4.03-3.956 6.27-4.987 2.24-1.03 4.44-1.52 6.53-1.8 4.19-.5 8.03-.11 11.71.59 7.27 1.53 14.13 4.3 20.06 8.78 1.62 1.24 1.94 3.56.71 5.18-1.13 1.5-3.18 1.89-4.78.98z"/><path fill="#676767" d="M193.333 85.475c-11.564-5.204 30.813-11.742 37.166-3.06 6.34 8.68-3.93 27.012-14.16 34.496 0 0 2.94-19.74-23.01-31.43z"/><path fill="#B3B3B3" d="M191.214 82.456c5.79-4.65 12.572-7.613 19.805-9.346 3.65-.813 7.48-1.306 11.68-.926 2.1.213 4.31.646 6.59 1.614 2.25.968 4.6 2.558 6.4 4.808.7 1.028.5.597 1.06 1.536.45.745.86 1.525 1.09 2.107.56 1.27.9 2.55 1.16 3.82.47 2.51.44 4.87.22 7.07-.48 4.4-1.76 8.26-3.33 11.89-1.58 3.62-3.53 6.99-5.8 10.2-2.32 3.21-4.92 6.26-8.35 9.08l-.28.23c-3.94 3.23-9.76 2.67-13-1.27s-2.67-9.76 1.26-13c.36-.3.77-.58 1.14-.82 4-2.37 8.22-6.89 11.08-11.52 1.44-2.34 2.6-4.81 3.18-7.03.62-2.28.48-3.91.14-4.72-.29-.87-1.85-2.09-4.34-2.66-2.43-.6-5.37-.71-8.31-.46-5.92.56-12.07 2.27-17.21 5.39-1.74 1.06-4.02.5-5.08-1.25-.98-1.6-.58-3.65.84-4.8z"/><path fill="#fff" d="M221.515 127.997c0 42.02-41.777 76.086-93.316 76.086-51.56 0-93.34-34.064-93.34-76.086 0-42.017 41.78-76.08 93.34-76.08 51.53 0 93.31 34.063 93.31 76.08z"/><path fill="#B3B3B3" d="M201.507 125.838c0 34.28-33.867 62.074-75.645 62.074-41.773 0-75.64-27.794-75.64-62.074 0-34.288 33.866-62.085 75.64-62.085 41.778 0 75.645 27.797 75.645 62.085z"/><path fill="#999898" d="M125.862 190.823c-43.31 0-78.55-29.156-78.55-64.985 0-35.835 35.24-64.992 78.55-64.992 43.318 0 78.555 29.157 78.555 64.992 0 35.83-35.236 64.985-78.555 64.985zm0-124.16c-40.107 0-72.73 26.546-72.73 59.175 0 32.627 32.623 59.17 72.73 59.17s72.736-26.543 72.736-59.17c0-32.63-32.628-59.175-72.736-59.175z"/><path fill="#333" d="M167.394 113.38H139.4l5.568-9.408c7.127-11.395 12.43-20.87 12.48-20.96 1.59-2.788 5.145-3.88 7.94-2.275 2.782 1.6 3.75 4.917 2.147 7.703-.04.068-2.893 3.942-7.225 11.942h7.082c3.217 0 5.818 3.287 5.818 6.5s-2.6 6.5-5.816 6.5zm-53.49 0h-27.95c-3.215 0-5.816-3.286-5.816-6.5s2.602-6.5 5.816-6.5H93c-4.33-8-7.177-11.948-7.218-12.013-1.596-2.79-.625-6.256 2.166-7.852 2.785-1.59 6.34-.58 7.936 2.206.053.1 5.328 9.84 12.455 21.24l5.56 9.43zm14.716 45.52c-3.216 0-6-2.6-6-5.815v-34.902c0-3.213 2.784-5.818 6-5.818 3.218 0 6 2.605 6 5.818v34.902c0 3.215-2.782 5.816-6 5.816z"/><ellipse fill="#2974A7" cx="126.466" cy="118.948" rx="11.521" ry="6.993"/><path fill="#C1272D" d="M89.413 132.386l.7.527c.306.234.905.658 1.82 1.266 1.757 1.15 4.43 2.79 7.837 4.39 3.37 1.7 7.52 3.17 12.008 4.45 2.277.46 4.605 1.18 7.025 1.39l3.64.49 3.687.14c2.46.23 4.906-.16 7.322-.25 2.422-.11 4.738-.79 7.027-1.1 2.27-.4 4.38-1.26 6.44-1.8 2.07-.48 3.89-1.52 5.64-2.2 1.71-.8 3.37-1.3 4.68-2.17 1.35-.78 2.53-1.45 3.49-2.01 1.95-1.1 3.05-1.73 3.05-1.73l.97-.55c4.9-2.77 11.13-1.04 13.9 3.86 2.75 4.88 1.05 11.06-3.8 13.85l-3.82 2.19-4.4 2.5c-1.64 1.04-3.78 1.79-5.99 2.79-2.26.9-4.58 2.15-7.33 2.85-2.71.75-5.5 1.79-8.53 2.37-3.05.47-6.15 1.28-9.4 1.47-3.24.17-6.53.59-9.82.32l-4.94-.2c-1.62-.22-3.23-.43-4.85-.64-3.22-.33-6.27-1.2-9.27-1.85-5.89-1.65-11.25-3.59-15.61-5.77-4.41-2.07-7.89-4.2-10.34-5.82-1.18-.78-2.2-1.5-2.96-2.08-.62-.48-.95-.73-.95-.73-4.49-3.43-5.34-9.85-1.91-14.34 3.43-4.49 9.85-5.34 14.33-1.91l.29.23z"/><path fill="#FF7BAC" d="M149.897 169.54c0 21.26-10.93 38.49-24.422 38.49-13.49 0-24.42-17.23-24.42-38.49 0-21.256 12.463-9.622 25.955-9.622 13.49 0 22.887-11.634 22.887 9.622z"/><path fill="#DD629A" d="M138.206 157.892c4.316-.37 6.902 1.465 6.902 11.758 0 18.37-9.44 33.262-21.105 33.262-11.668 0-21.115-14.89-21.115-33.262 0-16.742 8.854-11.135 19.242-10 .428 3.586 3.594 31.412.428 33.912-3.393 2.67-9.693-3.875-9.693-3.875 1.215 11.15 10.156 8.71 12.61 5.562 6.26-8.03 3.093-36.87 3.093-36.87h-.12c3.608 0 6.903-.42 9.76-1.23-3.044.27-6.968 1.98-11.458 2.25-2.574-.15-4.664-.34-4.664-.34l.023.31c-11.46-1.92-21.06-8.54-21.06 10.11 0 21.25 10.93 38.5 24.42 38.5 13.49 0 24.42-17.21 24.42-38.47 0-14.68-4.48-13.67-11.69-11.64z"/></svg>