<svg xmlns="http://www.w3.org/2000/svg" width="256" height="256" viewBox="0 0 256 256"><path fill="#fff" d="M128.197 208.084c-53.672 0-97.338-35.927-97.338-80.086 0-1.042.02-2.114.08-3.204-2.66-2.283-5.08-4.893-7.52-8.082-2.62-3.48-4.76-6.99-6.54-10.756-2.15-4.607-3.42-8.718-4.01-12.958-.39-2.97-.38-5.658.03-8.25.23-1.312.58-2.937 1.28-4.673.38-1.046.96-2.124 1.28-2.684.35-.63.51-.87.76-1.21.07-.09.15-.21.36-.53l.08-.13.09-.12c2.51-3.32 5.62-5.21 7.78-6.2 2.31-1.06 4.83-1.76 7.69-2.13 1.46-.17 2.92-.26 4.37-.26 2.7 0 5.44.29 8.61.89 4.77 1.01 9.2 2.48 13.24 4.41 18.25-15.39 43.48-24.17 69.71-24.17 26.81 0 52.44 9.12 70.78 25.11 3.43-1.58 7.15-2.86 11.1-3.8 3.6-.8 6.66-1.16 9.71-1.16 1.09 0 2.19.05 3.27.15 2.92.3 5.46.92 7.8 1.92 2.21.95 5.36 2.75 7.96 5.99l.09.12.08.12c.22.32.32.45.39.54.26.32.43.56.82 1.2.32.53.93 1.58 1.35 2.63.59 1.36 1.03 2.81 1.39 4.57.5 2.63.59 5.32.28 8.29-.47 4.26-1.62 8.41-3.63 13.07-1.66 3.8-3.69 7.38-6.22 10.94-2.54 3.53-5.07 6.38-7.88 8.86.01.54.02 1.06.02 1.58 0 44.16-43.66 80.09-97.32 80.09zm83.78-120.88c2.244 3.12 4.227 6.357 5.935 9.693.23-.344.452-.69.666-1.035 1.296-2.096 2.258-4.203 2.71-5.936.24-.875.3-1.52.3-1.91-.307-.172-.81-.393-1.51-.552-1.298-.322-2.83-.483-4.512-.483-.825 0-1.69.04-2.572.12-.34.03-.68.07-1.018.11zm-177.627-.39c.013.39.092 1.02.348 1.864.514 1.75 1.536 3.834 2.888 5.904.376.57.776 1.136 1.198 1.697 1.882-3.59 4.085-7.07 6.593-10.4-.83-.11-1.664-.19-2.502-.24-.552-.03-1.142-.05-1.727-.05-2.007 0-3.813.21-5.22.6-.753.19-1.27.43-1.578.62z"/><path fill="#333" d="M128.197 51.917c27.95 0 53.026 10.02 70.13 25.89 3.977-2.098 8.246-3.632 12.688-4.697 2.795-.622 5.692-1.057 8.78-1.057.95 0 1.917.042 2.905.13 2.104.214 4.318.647 6.592 1.614 2.254.97 4.6 2.56 6.406 4.81.71 1.026.504.596 1.07 1.534.455.75.86 1.53 1.09 2.11.56 1.28.904 2.56 1.164 3.82.48 2.52.45 4.88.225 7.08-.48 4.41-1.752 8.26-3.318 11.9-1.58 3.63-3.53 7-5.81 10.21-2.32 3.21-4.92 6.26-8.35 9.09l-.28.23-.08.06c.06 1.12.09 2.25.09 3.38 0 42.03-41.78 76.09-93.32 76.09-51.55 0-93.34-34.06-93.34-76.08 0-1.67.07-3.34.2-4.99-3.45-2.7-6.1-5.63-8.47-8.72-2.37-3.15-4.41-6.46-6.1-10.03-1.67-3.59-3.05-7.4-3.66-11.79-.28-2.19-.37-4.55.02-7.08.23-1.27.53-2.56 1.06-3.85.2-.58.59-1.38 1.02-2.14.54-.95.35-.52 1.03-1.56 1.73-2.29 4.03-3.95 6.27-4.98 2.24-1.03 4.44-1.53 6.53-1.8 1.32-.16 2.6-.23 3.85-.23 2.74 0 5.34.34 7.86.82 5.13 1.08 10.05 2.79 14.58 5.27C76.11 61.62 100.76 52 128.16 52M39.8 103.51c3.04-7.29 7.406-14.075 12.85-20.18-3.124-.9-6.36-1.445-9.52-1.653-.67-.04-1.33-.06-1.99-.06-2.257 0-4.436.23-6.298.75-2.476.636-4 1.906-4.26 2.78-.32.82-.403 2.455.28 4.713.646 2.2 1.867 4.63 3.367 6.93 1.57 2.373 3.51 4.7 5.57 6.71m177.15.99c1.87-1.98 3.61-4.23 5.02-6.506 1.44-2.335 2.59-4.81 3.17-7.024.61-2.275.47-3.907.13-4.717-.28-.867-1.85-2.093-4.33-2.66-1.62-.4-3.48-.58-5.4-.58-.96 0-1.94.044-2.91.127-2.61.25-5.26.733-7.85 1.448 5.18 6.056 9.3 12.75 12.15 19.916m-88.75-60.56c-26.23 0-51.54 8.51-70.33 23.5-3.67-1.55-7.6-2.77-11.73-3.64l-.07-.015-.08-.02c-3.43-.66-6.4-.96-9.36-.96-1.62 0-3.24.1-4.82.29h-.08c-3.26.42-6.15 1.23-8.83 2.46-3.72 1.71-6.93 4.28-9.32 7.43l-.19.24-.17.26-.18.27c-.41.54-.67.94-1.08 1.67-.46.8-1.08 1.98-1.53 3.2-.84 2.08-1.24 4.02-1.47 5.32l-.02.08-.01.09c-.47 2.97-.48 6.03-.05 9.35v.06c.65 4.64 2.02 9.12 4.33 14.07 1.93 4.06 4.2 7.8 6.97 11.48l.02.02.02.02c2.17 2.83 4.32 5.24 6.63 7.38-.01.5-.02.99-.02 1.48 0 22.77 10.76 44.08 30.29 60 19.05 15.53 44.28 24.08 71.05 24.08 26.76 0 51.99-8.56 71.04-24.09 19.48-15.88 30.22-37.13 30.27-59.84 2.49-2.37 4.8-5.05 7.09-8.24l.01-.02.02-.03c2.69-3.79 4.85-7.6 6.62-11.64 2.18-5.07 3.43-9.58 3.93-14.23.35-3.41.25-6.48-.32-9.44l-.01-.06-.01-.06c-.41-2.02-.93-3.71-1.62-5.31-.53-1.3-1.24-2.54-1.63-3.18-.42-.7-.69-1.1-1.09-1.59-.05-.06-.1-.13-.23-.33l-.17-.24-.19-.23c-3.12-3.88-6.88-6.03-9.49-7.15-2.75-1.17-5.66-1.89-8.95-2.22l-.04-.01-.04-.01c-1.19-.11-2.42-.17-3.63-.17-3.34 0-6.69.39-10.51 1.25l-.07.01-.06.01c-3.31.79-6.48 1.81-9.48 3.03-18.9-15.59-44.63-24.44-71.47-24.44z"/><path fill="#676767" d="M62.522 83.466s-31.14-10.86-37.24-1.998c-6.09 8.855 7.295 30.076 17.738 37.267 0 0-6.105-22.842 19.502-35.27z"/><path fill="#B3B3B3" d="M60.495 86.542c-5.234-2.967-11.42-4.5-17.357-4.89-2.947-.166-5.88.02-8.287.69-2.47.637-4 1.907-4.26 2.78-.32.82-.4 2.456.28 4.714.65 2.2 1.87 4.635 3.37 6.932 3.01 4.55 7.35 8.947 11.41 11.202 4.47 2.48 6.07 8.103 3.59 12.562s-8.1 6.065-12.56 3.584c-.41-.223-.78-.47-1.13-.743l-.32-.253c-3.51-2.73-6.21-5.703-8.6-8.84-2.37-3.148-4.41-6.46-6.1-10.037-1.67-3.588-3.05-7.406-3.66-11.796-.28-2.194-.37-4.55.03-7.08.23-1.275.53-2.564 1.07-3.855.21-.584.6-1.382 1.03-2.138.53-.953.35-.52 1.02-1.566 1.74-2.297 4.04-3.956 6.27-4.987 2.25-1.03 4.44-1.52 6.54-1.8 4.19-.5 8.03-.11 11.71.59 7.28 1.53 14.14 4.3 20.07 8.78 1.62 1.24 1.95 3.56.71 5.18-1.12 1.5-3.18 1.89-4.76.98z"/><path fill="#676767" d="M193.333 85.474c-11.564-5.203 30.814-11.742 37.166-3.058 6.34 8.68-3.93 27.01-14.16 34.495 0 .01 2.94-19.74-23.01-31.43z"/><path fill="#B3B3B3" d="M191.214 82.457c5.79-4.65 12.574-7.613 19.805-9.346 3.65-.81 7.48-1.3 11.68-.92 2.1.22 4.32.65 6.59 1.62 2.25.97 4.6 2.56 6.41 4.81.71 1.03.5.6 1.07 1.54.45.75.85 1.53 1.09 2.11.56 1.28.9 2.56 1.16 3.82.47 2.52.44 4.88.22 7.08-.48 4.41-1.75 8.26-3.32 11.9-1.58 3.63-3.53 7-5.81 10.21-2.31 3.21-4.92 6.26-8.36 9.09l-.28.23c-3.95 3.24-9.76 2.68-13.01-1.26-3.24-3.94-2.67-9.76 1.27-13 .36-.29.77-.58 1.15-.81 4-2.37 8.21-6.89 11.07-11.52 1.44-2.33 2.6-4.81 3.18-7.02.62-2.27.48-3.91.14-4.72-.28-.86-1.85-2.09-4.33-2.65-2.43-.6-5.37-.7-8.32-.45-5.92.57-12.06 2.27-17.21 5.39-1.74 1.06-4.02.5-5.08-1.24-.97-1.6-.58-3.65.85-4.8z"/><path fill="#fff" d="M221.517 127.998c0 42.022-41.775 76.086-93.32 76.086-51.55 0-93.334-34.064-93.334-76.086 0-42.018 41.785-76.08 93.334-76.08 51.544 0 93.32 34.062 93.32 76.08z"/><path fill="#B3B3B3" d="M201.51 125.838c0 34.28-33.87 62.074-75.65 62.074-41.77 0-75.64-27.793-75.64-62.074 0-34.288 33.87-62.085 75.64-62.085 41.78 0 75.65 27.797 75.65 62.085z"/><path fill="#999898" d="M125.86 190.824c-43.31 0-78.545-29.156-78.545-64.986 0-35.835 35.236-64.993 78.545-64.993 43.32 0 78.56 29.158 78.56 64.993 0 35.83-35.24 64.986-78.56 64.986zm0-124.16c-40.105 0-72.732 26.545-72.732 59.175 0 32.62 32.627 59.16 72.732 59.16 40.11 0 72.74-26.55 72.74-59.17 0-32.63-32.63-59.18-72.74-59.18z"/><path fill="#333" d="M141.667 166.166c-2.047 0-3.87-1.44-4.28-3.52-.458-2.363 1.08-4.66 3.446-5.123 4.896-.963 9.408-3.518 10.496-5.95.18-.43.69-1.567-.61-3.765-.53-.887-1.84-3.3-8.94-3.05-2.36-.058-4.42-1.843-4.48-4.25v-.11c-.01-2.36 1.87-4.305 4.25-4.367 3.71-.09 7.08-1.25 8.19-2.82.2-.27.73-1.02.13-2.89-.8-2.13-8.57-6.98-14.1-6.98-.11.01-.25.01-.35.01-2.36 0-4.3-1.88-4.37-4.25-.06-2.41 1.84-4.41 4.25-4.47 8.12-.3 20.64 6.09 22.87 13.06 1.58 4.98.14 8.5-1.34 10.6-.44.62-.92 1.18-1.45 1.68 1.1.96 2.04 2.1 2.82 3.42 2.98 5.03 2.21 9.18 1.05 11.78-2.77 6.19-10.48 9.71-16.78 10.95-.29.05-.57.08-.85.08z"/><path fill="#2974A7" d="M144.33 117.318c-.022 3.863-5.198 6.97-11.562 6.93-6.356-.045-11.502-3.198-11.477-7.06.02-3.864 5.21-6.968 11.56-6.927 6.37.04 11.51 3.2 11.49 7.06z"/><path fill="#333" d="M66.008 111.306c-.842 0-1.69-.24-2.438-.746-2-1.352-2.523-4.06-1.17-6.057.404-.604 10.11-14.72 24.814-15.768 8.813-.6 17.104 3.41 24.875 11.97 1.62 1.786 1.48 4.547-.3 6.166-1.79 1.62-4.54 1.49-6.17-.3-5.88-6.48-11.74-9.54-17.79-9.13-10.35.74-18.13 11.84-18.21 11.95-.84 1.25-2.22 1.92-3.62 1.92zm75.624 0c-.84 0-1.686-.24-2.436-.746-2.004-1.352-2.523-4.06-1.172-6.057.404-.604 10.11-14.72 24.816-15.768 8.803-.6 17.102 3.41 24.875 11.97 1.617 1.786 1.48 4.547-.3 6.166-1.78 1.62-4.54 1.49-6.165-.3-5.875-6.48-11.773-9.54-17.79-9.13-10.353.74-18.13 11.84-18.208 11.95-.84 1.25-2.214 1.92-3.62 1.92z"/></svg>