<?xml version="1.0" encoding="utf-8"?>
<!-- Generator: Adobe Illustrator 16.0.0, SVG Export Plug-In . SVG Version: 6.00 Build 0)  -->
<!DOCTYPE svg PUBLIC "-//W3C//DTD SVG 1.1//EN" "http://www.w3.org/Graphics/SVG/1.1/DTD/svg11.dtd">
<svg version="1.1" id="Layer_1" xmlns="http://www.w3.org/2000/svg" xmlns:xlink="http://www.w3.org/1999/xlink" x="0px" y="0px"
	 width="256px" height="256px" viewBox="0 0 256 256" enable-background="new 0 0 256 256" xml:space="preserve">
<path fill="#DD629A" d="M125.476,212c-4.758,0-9.414-1.734-13.534-5.03c-22.112-3.06-42.38-12.399-57.183-26.383
	c-15.42-14.557-23.9-33.233-23.9-52.59c0-1.042,0.02-2.113,0.08-3.202c-2.66-2.284-5.08-4.895-7.52-8.085
	c-2.62-3.475-4.76-6.986-6.54-10.755c-2.14-4.603-3.41-8.71-4.01-12.954c-0.39-2.97-0.38-5.66,0.03-8.25
	c0.23-1.29,0.56-2.92,1.27-4.67c0.38-1.04,0.96-2.12,1.28-2.68c0.35-0.63,0.52-0.87,0.77-1.21c0.07-0.09,0.16-0.21,0.36-0.53
	l0.08-0.12l0.09-0.12c2.52-3.32,5.63-5.21,7.79-6.2c2.31-1.06,4.83-1.76,7.69-2.13c1.46-0.17,2.92-0.26,4.37-0.26
	c2.71,0,5.44,0.28,8.61,0.89c4.78,1.01,9.21,2.48,13.24,4.41c18.25-15.39,43.48-24.16,69.71-24.16c26.81,0,52.43,9.12,70.78,25.11
	c3.439-1.59,7.16-2.86,11.1-3.81c3.59-0.8,6.66-1.17,9.71-1.17c1.09,0,2.19,0.05,3.26,0.15c2.921,0.3,5.46,0.92,7.8,1.92
	c2.2,0.95,5.36,2.75,7.961,5.99l0.09,0.12l0.08,0.12c0.22,0.32,0.319,0.45,0.39,0.54c0.25,0.32,0.42,0.56,0.8,1.2
	c0.551,0.91,1.03,1.84,1.35,2.62c0.59,1.35,1.021,2.76,1.391,4.561c0.5,2.64,0.59,5.25,0.29,8.29c-0.47,4.3-1.63,8.44-3.64,13.09
	c-1.65,3.78-3.681,7.35-6.211,10.93c-2.55,3.53-5.08,6.38-7.899,8.86c0.01,0.53,0.021,1.06,0.021,1.57
	c0,20.291-9.211,39.63-25.951,54.47c-16.149,14.32-37.93,23.24-61.459,25.199c-3.891,2.841-8.23,4.33-12.63,4.33L125.476,212z
	 M211.973,87.205c2.246,3.12,4.23,6.358,5.938,9.696c0.229-0.34,0.46-0.69,0.67-1.03c1.3-2.1,2.26-4.2,2.71-5.93
	c0.24-0.88,0.3-1.52,0.3-1.91c-0.3-0.17-0.81-0.39-1.5-0.55c-1.3-0.32-2.83-0.48-4.521-0.48c-0.819,0-1.68,0.04-2.56,0.12
	c-0.34,0.03-0.68,0.07-1.02,0.11L211.973,87.205z M34.35,86.813c0.013,0.39,0.092,1.024,0.347,1.873
	c0.515,1.747,1.54,3.832,2.887,5.892c0.376,0.57,0.778,1.14,1.2,1.7c1.882-3.59,4.084-7.062,6.593-10.395
	c-0.83-0.104-1.664-0.185-2.503-0.24c-0.55-0.03-1.142-0.048-1.727-0.048c-2.007,0-3.814,0.208-5.226,0.6
	C35.181,86.388,34.661,86.63,34.35,86.813L34.35,86.813z"/>
<path fill="#333333" d="M128.198,51.918c27.95,0,53.024,10.02,70.126,25.89c3.98-2.1,8.25-3.633,12.693-4.698
	c2.795-0.622,5.69-1.056,8.78-1.056c0.95,0,1.918,0.04,2.907,0.13c2.1,0.213,4.316,0.646,6.59,1.614
	c2.254,0.968,4.6,2.558,6.406,4.808c0.71,1.028,0.5,0.597,1.07,1.536c0.459,0.745,0.859,1.525,1.09,2.107
	c0.57,1.27,0.91,2.55,1.17,3.82c0.479,2.51,0.449,4.87,0.229,7.07c-0.479,4.4-1.75,8.26-3.319,11.89
	c-1.58,3.62-3.521,6.99-5.801,10.2c-2.31,3.21-4.91,6.26-8.35,9.08l-0.27,0.23l-0.07,0.05c0.06,1.12,0.1,2.24,0.1,3.37
	c0,39.71-37.31,72.311-84.9,75.77c-3.34,2.69-7.119,4.23-11.129,4.23c-4.3,0-8.34-1.77-11.85-4.85
	c-44.62-5.711-78.76-37.181-78.76-75.16c0-1.68,0.08-3.34,0.21-4.99c-3.44-2.7-6.1-5.63-8.46-8.73c-2.37-3.15-4.41-6.46-6.1-10.04
	c-1.67-3.59-3.04-7.4-3.66-11.79c-0.28-2.2-0.37-4.55,0.03-7.08c0.23-1.28,0.53-2.56,1.06-3.86c0.21-0.59,0.6-1.39,1.03-2.14
	c0.53-0.96,0.35-0.52,1.02-1.57c1.74-2.3,4.04-3.95,6.27-4.99c2.25-1.03,4.44-1.53,6.54-1.81c1.32-0.16,2.6-0.23,3.86-0.23
	c2.73,0,5.33,0.33,7.86,0.82c5.13,1.08,10.04,2.79,14.58,5.26c17.08-15.33,41.72-24.95,69.12-24.95 M39.871,103.409
	c3.04-7.29,7.4-14.07,12.85-20.18c-3.12-0.9-6.35-1.45-9.52-1.66c-0.66-0.03-1.33-0.05-1.99-0.05c-2.25,0-4.43,0.23-6.3,0.75
	c-2.47,0.64-4,1.91-4.26,2.78c-0.31,0.82-0.4,2.46,0.28,4.72c0.65,2.2,1.87,4.63,3.37,6.93c1.57,2.38,3.51,4.71,5.58,6.72
	 M217.031,104.409c1.88-1.99,3.619-4.23,5.02-6.51c1.45-2.34,2.6-4.81,3.18-7.03c0.621-2.28,0.48-3.91,0.15-4.72
	c-0.279-0.87-1.84-2.09-4.33-2.66c-1.619-0.41-3.48-0.59-5.4-0.59c-0.959,0-1.93,0.04-2.909,0.13c-2.61,0.24-5.261,0.73-7.851,1.44
	c5.17,6.05,9.291,12.75,12.15,19.91 M128.241,43.829c-26.23,0-51.54,8.51-70.33,23.5c-3.67-1.55-7.59-2.77-11.73-3.64l-0.07-0.02
	l-0.07-0.02c-3.42-0.65-6.4-0.96-9.36-0.96c-1.61,0-3.23,0.1-4.81,0.29l-0.04,0.01h-0.04c-3.27,0.43-6.16,1.23-8.84,2.46
	c-3.7,1.71-6.92,4.28-9.31,7.43l-0.18,0.24l-0.16,0.26c-0.08,0.14-0.14,0.22-0.18,0.27c-0.41,0.55-0.67,0.96-1.08,1.7
	c-0.45,0.8-1.07,1.98-1.52,3.19c-0.85,2.09-1.25,4.05-1.48,5.35l-0.01,0.07l-0.01,0.07c-0.47,2.98-0.49,6.04-0.05,9.36l0.01,0.04
	l0.01,0.04c0.65,4.65,2.03,9.12,4.33,14.06l0.01,0.02l0.01,0.02c1.91,4.02,4.18,7.76,6.95,11.43l0.02,0.02l0.02,0.02
	c2.16,2.83,4.32,5.24,6.63,7.38c-0.01,0.49-0.02,0.98-0.02,1.47c0,20.47,8.93,40.179,25.15,55.5
	c15.17,14.32,35.8,23.961,58.32,27.28c4.62,3.42,9.81,5.22,15.14,5.22c4.9,0,9.71-1.529,14.051-4.439
	c23.969-2.211,46.149-11.43,62.699-26.1c17.551-15.57,27.24-35.91,27.29-57.301c2.5-2.38,4.81-5.05,7.101-8.24l0.02-0.03l0.02-0.03
	c2.69-3.8,4.851-7.6,6.61-11.63c2.181-5.05,3.431-9.56,3.94-14.22l0.01-0.04l0.01-0.04c0.33-3.42,0.23-6.39-0.33-9.35l-0.01-0.07
	l-0.01-0.07c-0.26-1.28-0.721-3.22-1.62-5.29c-0.53-1.3-1.25-2.54-1.64-3.18c-0.42-0.7-0.67-1.07-1.061-1.57
	c-0.04-0.06-0.1-0.13-0.24-0.33l-0.17-0.24l-0.189-0.23c-3.11-3.88-6.881-6.03-9.49-7.15c-2.74-1.17-5.65-1.89-8.939-2.23
	l-0.041-0.01h-0.039c-1.201-0.11-2.42-0.16-3.631-0.16c-3.35,0-6.689,0.4-10.52,1.25l-0.061,0.01l-0.06,0.01
	c-3.31,0.79-6.479,1.81-9.479,3.03c-18.91-15.6-44.631-24.45-71.471-24.45L128.241,43.829z"/>
<path fill="#676767" d="M62.522,83.466c0,0-31.14-10.858-37.238-1.998c-6.092,8.855,7.293,30.076,17.734,37.267
	C43.018,118.735,36.918,95.893,62.522,83.466L62.522,83.466z"/>
<path fill="#B3B3B3" d="M60.49,86.542c-5.23-2.967-11.417-4.5-17.353-4.89c-2.947-0.166-5.88,0.02-8.29,0.69
	c-2.476,0.638-4,1.907-4.26,2.78c-0.317,0.82-0.4,2.456,0.278,4.715c0.648,2.198,1.867,4.634,3.37,6.93
	c3.005,4.552,7.343,8.948,11.407,11.203c4.463,2.48,6.066,8.103,3.582,12.562c-2.48,4.46-8.105,6.065-12.56,3.584
	c-0.41-0.223-0.782-0.47-1.136-0.743l-0.324-0.253c-3.516-2.73-6.207-5.703-8.605-8.84c-2.38-3.148-4.41-6.46-6.11-10.037
	c-1.67-3.587-3.05-7.405-3.66-11.796c-0.29-2.194-0.38-4.55,0.02-7.08c0.22-1.275,0.52-2.563,1.06-3.855
	c0.21-0.584,0.59-1.382,1.03-2.138c0.53-0.953,0.34-0.52,1.02-1.566c1.74-2.297,4.03-3.956,6.27-4.987c2.24-1.03,4.44-1.52,6.53-1.8
	c4.19-0.5,8.03-0.11,11.71,0.59c7.271,1.53,14.13,4.3,20.06,8.78c1.62,1.24,1.94,3.56,0.71,5.18c-1.13,1.5-3.18,1.89-4.78,0.98
	L60.49,86.542z"/>
<path fill="#676767" d="M193.333,85.475c-11.563-5.204,30.813-11.742,37.166-3.06c6.34,8.68-3.931,27.012-14.16,34.496
	c0,0,2.94-19.74-23.01-31.43L193.333,85.475z"/>
<path fill="#B3B3B3" d="M191.214,82.456c5.79-4.65,12.572-7.613,19.806-9.346c3.649-0.813,7.479-1.306,11.68-0.926
	c2.1,0.213,4.31,0.646,6.59,1.614c2.25,0.968,4.6,2.558,6.4,4.808c0.699,1.028,0.5,0.597,1.06,1.536
	c0.45,0.745,0.86,1.525,1.09,2.107c0.56,1.27,0.9,2.55,1.16,3.82c0.47,2.51,0.44,4.87,0.22,7.07c-0.479,4.4-1.76,8.26-3.33,11.89
	c-1.58,3.62-3.529,6.99-5.8,10.2c-2.319,3.21-4.92,6.26-8.35,9.08l-0.28,0.23c-3.939,3.23-9.76,2.67-13-1.27s-2.67-9.76,1.26-13
	c0.36-0.3,0.771-0.58,1.141-0.82c4-2.37,8.22-6.89,11.08-11.52c1.439-2.34,2.6-4.81,3.18-7.03c0.619-2.28,0.48-3.91,0.14-4.72
	c-0.29-0.87-1.85-2.09-4.34-2.66c-2.43-0.6-5.37-0.71-8.31-0.46c-5.92,0.56-12.07,2.27-17.211,5.39c-1.739,1.06-4.02,0.5-5.08-1.25
	c-0.979-1.6-0.579-3.65,0.841-4.8L191.214,82.456z"/>
<path fill="#FFFFFF" d="M221.516,127.997c0,42.021-41.777,76.086-93.316,76.086c-51.56,0-93.34-34.063-93.34-76.086
	c0-42.017,41.78-76.08,93.34-76.08c51.529,0,93.31,34.063,93.31,76.08H221.516z"/>
<path fill="#B3B3B3" d="M201.507,125.838c0,34.28-33.866,62.074-75.645,62.074c-41.773,0-75.64-27.794-75.64-62.074
	c0-34.288,33.866-62.085,75.64-62.085C167.641,63.753,201.507,91.55,201.507,125.838z"/>
<path fill="#999898" d="M125.862,190.823c-43.31,0-78.55-29.156-78.55-64.985c0-35.835,35.24-64.992,78.55-64.992
	c43.318,0,78.555,29.157,78.555,64.992C204.417,161.668,169.182,190.823,125.862,190.823z M125.862,66.663
	c-40.107,0-72.73,26.546-72.73,59.175c0,32.627,32.623,59.17,72.73,59.17s72.736-26.543,72.736-59.17
	C198.598,93.208,165.97,66.663,125.862,66.663z"/>
<path fill="#333333" d="M167.395,113.38H139.4l5.567-9.408c7.127-11.395,12.431-20.87,12.48-20.96c1.59-2.788,5.145-3.88,7.94-2.275
	c2.781,1.6,3.75,4.917,2.146,7.703c-0.04,0.068-2.893,3.942-7.225,11.942h7.082c3.217,0,5.817,3.287,5.817,6.5s-2.601,6.5-5.815,6.5
	V113.38z"/>
<path fill="#333333" d="M113.904,113.38h-27.95c-3.215,0-5.816-3.286-5.816-6.5s2.602-6.5,5.816-6.5H93
	c-4.33-8-7.177-11.948-7.218-12.013c-1.596-2.79-0.625-6.256,2.166-7.852c2.785-1.59,6.34-0.58,7.936,2.206
	c0.053,0.1,5.328,9.84,12.455,21.24l5.56,9.43L113.904,113.38z"/>
<path fill="#333333" d="M128,158.9c-3.216,0-6-2.601-6-5.815v-34.902c0-3.213,2.784-5.818,6-5.818c3.218,0,6,2.604,6,5.818v34.902
	C134,156.3,131.218,158.9,128,158.9L128,158.9z"/>
<ellipse fill="#2974A7" cx="128" cy="118.948" rx="11.521" ry="6.993"/>
<path fill="#C1272D" d="M89.413,132.386l0.7,0.527c0.306,0.233,0.905,0.657,1.82,1.267c1.757,1.149,4.43,2.789,7.837,4.389
	c3.37,1.701,7.52,3.171,12.008,4.451c2.277,0.459,4.605,1.18,7.025,1.39l3.64,0.489l3.687,0.141c2.46,0.23,4.906-0.16,7.322-0.25
	c2.422-0.109,4.737-0.79,7.026-1.1c2.271-0.4,4.381-1.26,6.44-1.801c2.07-0.479,3.89-1.52,5.64-2.199
	c1.711-0.801,3.37-1.301,4.681-2.17c1.35-0.78,2.53-1.451,3.489-2.011c1.95-1.1,3.051-1.729,3.051-1.729l0.97-0.551
	c4.899-2.77,11.13-1.039,13.899,3.86c2.75,4.88,1.051,11.06-3.799,13.851l-3.82,2.189l-4.4,2.5c-1.64,1.04-3.779,1.79-5.99,2.79
	c-2.26,0.899-4.58,2.149-7.33,2.851c-2.709,0.75-5.5,1.789-8.529,2.369c-3.051,0.471-6.15,1.28-9.4,1.471
	c-3.24,0.17-6.529,0.59-9.82,0.32l-4.94-0.201c-1.62-0.22-3.23-0.43-4.85-0.64c-3.22-0.33-6.27-1.2-9.27-1.85
	c-5.89-1.65-11.25-3.591-15.61-5.771c-4.41-2.07-7.89-4.199-10.34-5.82c-1.18-0.779-2.2-1.5-2.96-2.08
	c-0.62-0.479-0.95-0.729-0.95-0.729c-4.49-3.43-5.34-9.85-1.91-14.34s9.85-5.34,14.33-1.91l0.29,0.229L89.413,132.386z"/>
<path fill="#FF7BAC" d="M149.896,169.54c0,21.26-10.93,38.49-24.421,38.49c-13.49,0-24.42-17.23-24.42-38.49
	c0-21.256,12.463-9.622,25.955-9.622C140.5,159.918,149.896,148.284,149.896,169.54z"/>
<path fill="#DD629A" d="M138.206,157.893c4.315-0.371,6.901,1.465,6.901,11.758c0,18.369-9.439,33.262-21.104,33.262
	c-11.668,0-21.115-14.891-21.115-33.262c0-16.742,8.854-11.135,19.242-10c0.428,3.586,3.594,31.412,0.428,33.912
	c-3.393,2.67-9.693-3.875-9.693-3.875c1.215,11.149,10.156,8.709,12.61,5.562c6.259-8.03,3.093-36.87,3.093-36.87h-0.12
	c3.608,0,6.903-0.42,9.76-1.23c-3.044,0.271-6.968,1.98-11.458,2.25c-2.574-0.149-4.664-0.34-4.664-0.34l0.023,0.311
	c-11.46-1.92-21.06-8.54-21.06,10.109c0,21.25,10.93,38.5,24.42,38.5c13.49,0,24.42-17.209,24.42-38.47
	c0-14.68-4.479-13.67-11.689-11.64L138.206,157.893z"/>
</svg>
