<svg xmlns="http://www.w3.org/2000/svg" width="256" height="256" viewBox="0 0 256 256"><path fill="#fff" d="M128.228 208.08c-24.224 0-47.432-7.353-65.35-20.71-17.313-12.904-28.33-30.34-31.22-49.302-2.96-1.346-5.71-2.866-8.353-4.614-4.21-2.828-7.42-5.69-10.128-9.02-1.876-2.367-3.25-4.67-4.235-7.083-.48-1.25-1.03-2.82-1.322-4.66-.208-1.08-.268-2.3-.285-2.95-.022-.72-.007-1.03.034-1.44.01-.11.02-.25.03-.63v-.15l.01-.15c.42-4.15 2.11-7.38 3.46-9.35 1.44-2.11 3.23-4 5.47-5.79 3.24-2.53 6.86-4.48 11.44-6.17 6.31-2.22 12.52-3.33 18.52-3.33.52 0 1.05.01 1.58.03 18.19-21.83 48.04-34.81 80.32-34.81 32.27 0 62.11 12.97 80.3 34.8.38-.01.76-.01 1.14-.01 6 0 12.22 1.11 18.46 3.3 4.64 1.72 8.27 3.67 11.47 6.17 2.28 1.83 4.07 3.72 5.51 5.82 1.34 1.98 3.03 5.21 3.46 9.36l.01.15v.15c.01.38.02.52.03.63.04.42.06.73.03 1.48-.02.62-.07 1.85-.29 2.94-.3 1.85-.85 3.41-1.29 4.58-1.02 2.5-2.4 4.8-4.24 7.13-2.74 3.37-5.95 6.23-10.13 9.04-2.52 1.66-5.11 3.11-7.91 4.41-2.83 19.02-13.83 36.51-31.16 49.46-17.94 13.4-41.17 20.78-65.44 20.78zM28.36 108.045c.21.325.604.823 1.256 1.41.86.79 1.98 1.593 3.27 2.354.817-3.29 1.883-6.52 3.194-9.69-.344.16-.685.33-1.023.51-2.35 1.23-4.37 2.68-5.664 4.05-.543.55-.862 1.03-1.033 1.35zm192.113-5.65c1.23 3.005 2.24 6.07 3.026 9.185 1.12-.69 2.1-1.405 2.85-2.1.67-.604 1.06-1.11 1.28-1.438-.17-.315-.48-.78-.99-1.304-1.35-1.424-3.36-2.87-5.73-4.114-.15-.078-.31-.155-.46-.23z"/><path fill="#333" d="M128.228 51.92c32.918 0 61.854 13.896 78.467 34.883.994-.066 1.986-.1 2.977-.1 5.83 0 11.576 1.125 17.143 3.077 3.518 1.3 7.014 2.95 10.336 5.545 1.65 1.32 3.28 2.882 4.67 4.92 1.39 2.038 2.5 4.65 2.79 7.518.03 1.24.11.772.07 1.86-.02.877-.1 1.76-.22 2.365-.21 1.382-.62 2.64-1.08 3.852-.96 2.37-2.26 4.338-3.63 6.07-2.8 3.438-5.95 6.002-9.23 8.208-2.98 1.97-6.08 3.6-9.35 4.98-4.4 38.69-44.31 68.98-92.92 68.98-48.52 0-88.4-30.188-92.9-68.783-3.44-1.42-6.69-3.117-9.81-5.18-3.28-2.206-6.44-4.77-9.23-8.207-1.37-1.733-2.67-3.702-3.63-6.07-.46-1.213-.87-2.47-1.08-3.853-.12-.604-.2-1.488-.23-2.364-.03-1.08.04-.62.07-1.86.3-2.86 1.41-5.48 2.79-7.51 1.39-2.04 3.01-3.6 4.67-4.92 3.33-2.6 6.82-4.25 10.34-5.55 5.57-1.95 11.31-3.07 17.14-3.07 1.13 0 2.26.05 3.4.13 16.62-21 45.57-34.91 78.51-34.91M35.8 117.64c1.33-7.96 4.167-15.53 8.276-22.51-3.78.83-7.464 2.22-10.82 3.96-2.613 1.38-5.03 3.05-6.736 4.87-1.79 1.84-2.44 3.71-2.215 4.59.15.87.92 2.31 2.67 3.89 1.69 1.55 3.997 3 6.47 4.19.757.37 1.547.7 2.35 1.02m184.9-.16c.657-.27 1.304-.55 1.934-.85 2.47-1.19 4.78-2.64 6.47-4.19 1.74-1.58 2.52-3.02 2.67-3.89.22-.88-.43-2.75-2.22-4.59-1.71-1.81-4.12-3.49-6.73-4.86-3.21-1.66-6.71-3-10.31-3.84 4.04 6.9 6.84 14.38 8.18 22.24m-92.43-73.56c-32.74 0-63.11 12.93-82.15 34.79-6.38.03-12.95 1.22-19.54 3.53l-.06.02-.06.03c-4.98 1.84-8.95 3.98-12.49 6.75l-.04.024-.04.028c-2.56 2.046-4.62 4.225-6.28 6.66-1.61 2.37-3.63 6.228-4.14 11.21l-.03.304-.01.3-.01.304c-.07.672-.09 1.155-.06 2.012.02.897.1 2.237.34 3.505.35 2.18.98 3.99 1.49 5.338l.03.08.03.08c1.13 2.77 2.69 5.39 4.77 8.014l.03.04.03.04c2.96 3.64 6.45 6.76 10.97 9.8l.02.02.02.01c2.23 1.48 4.53 2.8 6.96 4 3.52 19.18 14.9 36.72 32.43 49.78 18.6 13.86 42.66 21.5 67.74 21.5 25.12 0 49.21-7.66 67.82-21.58 17.54-13.11 28.91-30.72 32.37-49.96 2.26-1.13 4.4-2.38 6.48-3.75l.02-.02.02-.02c4.52-3.03 8.01-6.14 10.98-9.79l.03-.04.03-.04c2.08-2.62 3.64-5.24 4.77-8.02l.03-.08.03-.08c.51-1.33 1.14-3.14 1.49-5.32.24-1.27.32-2.61.34-3.54.02-.84.01-1.34-.06-1.98-.01-.09-.01-.18-.02-.32l-.01-.31-.03-.3c-.52-4.98-2.53-8.84-4.13-11.2-1.67-2.44-3.72-4.62-6.28-6.67l-.04-.03-.04-.03c-3.54-2.76-7.51-4.9-12.49-6.75l-.07-.02-.07-.02c-6.44-2.25-12.85-3.44-19.09-3.52-19.03-21.86-49.4-34.79-82.14-34.79z"/><path fill="#676767" d="M50.747 90.612s-32.268 6.8-32.914 17.534c-.637 10.733 21.797 21.98 34.445 22.74 0 .003-17.028-16.403-1.53-40.274z"/><path fill="#B3B3B3" d="M50.598 94.293c-6.008.163-12.1 2.05-17.383 4.79-2.613 1.373-5.027 3.05-6.736 4.865-1.8 1.84-2.44 3.706-2.22 4.587.15.868.92 2.31 2.67 3.89 1.69 1.553 4 3 6.47 4.19 4.92 2.35 10.91 3.87 15.55 3.696 5.11-.18 9.39 3.8 9.56 8.91.18 5.11-3.81 9.39-8.9 9.56-.47.02-.92.01-1.36-.04l-.41-.05c-4.42-.51-8.26-1.67-11.94-3.12-3.67-1.47-7.12-3.25-10.42-5.43-3.29-2.21-6.44-4.77-9.24-8.21-1.37-1.73-2.67-3.7-3.64-6.07-.47-1.21-.88-2.47-1.09-3.85-.12-.6-.2-1.49-.23-2.36-.04-1.09.03-.62.06-1.86.3-2.87 1.41-5.48 2.79-7.51 1.39-2.04 3.01-3.6 4.66-4.92 3.33-2.6 6.82-4.25 10.34-5.55 7.02-2.46 14.32-3.63 21.71-2.86 2.02.23 3.5 2.04 3.28 4.07-.19 1.87-1.75 3.26-3.58 3.31z"/><path fill="#676767" d="M205.255 90.612s32.267 6.8 32.914 17.534c.64 10.733-21.8 21.98-34.45 22.74 0 .003 17.03-16.403 1.53-40.274z"/><path fill="#B3B3B3" d="M205.4 94.293c6.013.163 12.1 2.05 17.386 4.79 2.612 1.373 5.026 3.05 6.737 4.865 1.79 1.84 2.437 3.706 2.215 4.587-.153.868-.928 2.31-2.676 3.89-1.69 1.553-4 3-6.472 4.19-4.926 2.35-10.91 3.87-15.555 3.696-5.104-.18-9.386 3.8-9.563 8.91-.18 5.11 3.803 9.39 8.9 9.56.466.02.915.01 1.355-.04l.41-.05c4.42-.51 8.258-1.67 11.937-3.12 3.664-1.47 7.11-3.25 10.414-5.43 3.28-2.21 6.434-4.77 9.23-8.21 1.374-1.73 2.667-3.7 3.634-6.07.465-1.21.873-2.47 1.086-3.85.125-.6.205-1.49.228-2.36.035-1.09-.035-.62-.067-1.86-.3-2.87-1.41-5.48-2.79-7.51-1.4-2.04-3.02-3.6-4.67-4.92-3.33-2.59-6.82-4.25-10.34-5.54-7.02-2.46-14.32-3.63-21.71-2.86-2.03.23-3.51 2.05-3.29 4.07.19 1.87 1.75 3.26 3.58 3.31z"/><path fill="#fff" d="M221.55 127.996c0 42.02-41.78 76.085-93.322 76.085-51.547 0-93.336-34.06-93.336-76.08 0-42.01 41.79-76.07 93.336-76.07 51.542 0 93.322 34.06 93.322 76.08z"/><path fill="#B3B3B3" d="M201.54 130.117c0 36.73-33.87 66.507-75.647 66.507-41.77 0-75.64-29.776-75.64-66.507 0-36.737 33.868-66.517 75.64-66.517 41.776 0 75.647 29.78 75.647 66.517z"/><path fill="#999898" d="M125.893 199.38c-43.313 0-78.55-31.07-78.55-69.263 0-38.197 35.237-69.272 78.55-69.272 43.317 0 78.555 31.076 78.555 69.272 0 38.192-35.238 69.264-78.555 69.264zm0-133.02c-40.107 0-72.734 28.598-72.734 63.757 0 35.148 32.62 63.75 72.73 63.75 40.1 0 72.73-28.602 72.73-63.75 0-35.16-32.63-63.758-72.74-63.758z"/><path fill="#333" d="M125.62 163.38c-3.216 0-6-1.724-6-3.856V140.24c0-2.135 2.784-3.857 6-3.857 3.214 0 6 1.725 6 3.857v19.283c0 2.133-2.786 3.858-6 3.858z"/><path fill="#fff" d="M124.48 121.17c0 19.96-16.18 36.145-36.146 36.145-19.967 0-36.145-16.186-36.145-36.146 0-19.97 16.17-36.15 36.14-36.15s36.14 16.18 36.14 36.14z"/><path fill="#2974A7" d="M112.46 129.23c0 9.234-7.483 16.73-16.726 16.73-9.244 0-16.73-7.496-16.73-16.73 0-9.246 7.486-16.734 16.73-16.734 9.243-.003 16.727 7.487 16.727 16.733z"/><path fill="#fff" d="M93.176 124.393c0 3.154-2.557 5.705-5.71 5.705-3.15 0-5.702-2.55-5.702-5.705 0-3.147 2.55-5.696 5.703-5.696 3.152 0 5.71 2.548 5.71 5.696zm6.29 6.16c0 1.478-1.212 2.682-2.69 2.682-1.477 0-2.68-1.204-2.68-2.682 0-1.484 1.203-2.683 2.68-2.683 1.478 0 2.69 1.198 2.69 2.683zm100.638-9.383c0 19.96-16.183 36.145-36.144 36.145-19.97 0-36.146-16.186-36.146-36.146 0-19.97 16.178-36.15 36.146-36.15 19.96 0 36.144 16.18 36.144 36.14z"/><path fill="#2974A7" d="M177.335 130.104c0 9.197-7.448 16.65-16.646 16.65-9.21 0-16.65-7.453-16.65-16.65s7.44-16.65 16.65-16.65c9.19-.002 16.64 7.45 16.64 16.65z"/><path fill="#fff" d="M158.14 125.298c0 3.14-2.54 5.672-5.682 5.672-3.138 0-5.676-2.533-5.676-5.672 0-3.13 2.538-5.676 5.676-5.676 3.142 0 5.68 2.545 5.68 5.676zm6.256 6.128c0 1.467-1.198 2.663-2.67 2.663-1.47 0-2.67-1.2-2.67-2.67 0-1.49 1.2-2.67 2.67-2.67 1.472 0 2.67 1.18 2.67 2.67z"/><path fill="#333" d="M160.688 187.73c-1.605 0-3.21-.665-4.355-1.966-.125-.136-13.23-14.596-30.65-15.22-11.06-.34-21.54 4.79-31.538 15.362-2.207 2.326-5.893 2.436-8.22.232-2.337-2.203-2.444-5.888-.233-8.224 12.39-13.117 26.064-19.624 40.4-18.994 22.505.802 38.298 18.388 38.958 19.14 2.127 2.406 1.9 6.086-.508 8.207-1.106.98-2.483 1.462-3.854 1.462z"/><path fill="#2974A7" d="M137.018 143.216c0 3.863-5.158 6.994-11.52 6.994-6.358 0-11.522-3.13-11.522-6.994 0-3.862 5.164-6.99 11.52-6.99 6.36 0 11.522 3.128 11.522 6.99z"/><path fill="#B3B3B3" d="M117.004 99.167c-6.607-8.596-15.488-17.334-27.17-17.334-19.967 0-37.645 19.372-37.645 39.335 0 4.808.94 9.393 2.65 13.59 21.8-5.703 45.71-16.23 62.16-35.59z"/><path fill="#999898" d="M118.897 101.88c-1.113-1.76-2.368-3.422-3.76-4.96-16.066 19.22-39.675 29.592-61.262 35.18.667 2.105 1.523 4.125 2.545 6.045 21.92-5.957 45.793-16.763 62.477-36.264z"/><path fill="#B3B3B3" d="M135.23 99.167c6.605-8.596 15.486-17.334 27.17-17.334 19.966 0 37.644 19.372 37.644 39.335 0 4.808-.945 9.393-2.65 13.59-21.806-5.703-45.72-16.23-62.165-35.59z"/><path fill="#999898" d="M133.335 101.88c1.113-1.76 2.367-3.422 3.76-4.96 16.066 19.22 39.675 29.592 61.263 35.18-.668 2.104-1.523 4.125-2.547 6.043-21.92-5.955-45.79-16.76-62.47-36.262zm-7.442 97.5c-43.313 0-78.55-31.07-78.55-69.263 0-38.197 35.237-69.272 78.55-69.272 43.317 0 78.555 31.076 78.555 69.272 0 38.192-35.238 69.264-78.555 69.264zm0-133.02c-40.107 0-72.734 28.598-72.734 63.757 0 35.148 32.62 63.75 72.73 63.75 40.1 0 72.73-28.602 72.73-63.75 0-35.16-32.63-63.758-72.74-63.758z"/></svg>