<?xml version="1.0" encoding="utf-8"?>
<!-- Generator: Adobe Illustrator 16.0.0, SVG Export Plug-In . SVG Version: 6.00 Build 0)  -->
<!DOCTYPE svg PUBLIC "-//W3C//DTD SVG 1.1//EN" "http://www.w3.org/Graphics/SVG/1.1/DTD/svg11.dtd">
<svg version="1.1" id="Layer_1" xmlns="http://www.w3.org/2000/svg" xmlns:xlink="http://www.w3.org/1999/xlink" x="0px" y="0px"
	 width="256px" height="256px" viewBox="0 0 256 256" enable-background="new 0 0 256 256" xml:space="preserve">
<path fill="#DD629A" d="M125.476,212.97c-7.572,0-14.57-4.223-19.86-11.937c-20.558-4.02-39.216-13.61-52.697-27.118
	c-14.23-14.255-22.06-32.295-22.06-50.798c0-1.042,0.02-2.114,0.08-3.204c-2.66-2.283-5.08-4.893-7.52-8.082
	c-2.63-3.48-4.76-6.99-6.54-10.75c-2.14-4.58-3.41-8.69-4.01-12.95c-0.39-2.98-0.38-5.67,0.03-8.25c0.23-1.31,0.57-2.94,1.28-4.68
	c0.38-1.04,0.97-2.12,1.29-2.68c0.35-0.63,0.51-0.87,0.76-1.2c0.07-0.09,0.16-0.22,0.37-0.54l0.08-0.12l0.09-0.12
	c2.51-3.32,5.62-5.21,7.79-6.2c2.31-1.06,4.82-1.76,7.68-2.13c1.46-0.17,2.92-0.26,4.37-0.26c2.7,0,5.44,0.28,8.61,0.89
	c4.771,1,9.2,2.48,13.24,4.4c18.26-15.39,43.49-24.17,69.71-24.17c26.81,0,52.44,9.12,70.78,25.11c3.43-1.58,7.15-2.86,11.1-3.8
	c3.6-0.8,6.66-1.17,9.71-1.17c1.091,0,2.19,0.05,3.271,0.15c2.949,0.3,5.42,0.91,7.789,1.92c2.201,0.95,5.351,2.75,7.961,5.979
	l0.09,0.12l0.08,0.12c0.22,0.33,0.32,0.45,0.39,0.55c0.261,0.33,0.42,0.56,0.79,1.19c0.33,0.56,0.939,1.61,1.35,2.63
	c0.59,1.35,1.021,2.76,1.391,4.57c0.5,2.66,0.59,5.27,0.29,8.28c-0.47,4.29-1.63,8.43-3.63,13.08c-1.65,3.79-3.69,7.36-6.221,10.93
	c-2.55,3.54-5.08,6.38-7.89,8.86c0.011,0.54,0.021,1.06,0.021,1.58c0,19.431-8.541,38.15-24.041,52.729
	c-14.77,13.881-34.909,23.16-56.89,26.23c-5.21,7.051-11.94,10.9-19.12,10.9L125.476,212.97z M211.973,82.323
	c2.246,3.12,4.23,6.357,5.938,9.693c0.23-0.345,0.453-0.69,0.667-1.038c1.298-2.1,2.26-4.206,2.71-5.93
	c0.24-0.878,0.3-1.523,0.3-1.915c-0.306-0.17-0.808-0.393-1.507-0.55c-1.3-0.323-2.834-0.484-4.514-0.484
	c-0.826,0-1.69,0.03-2.57,0.11c-0.342,0.03-0.682,0.07-1.023,0.11V82.323z M34.348,81.933c0.013,0.39,0.092,1.02,0.347,1.863
	c0.515,1.747,1.538,3.834,2.89,5.906c0.374,0.568,0.775,1.136,1.196,1.696c1.89-3.59,4.09-7.064,6.6-10.397
	c-0.83-0.1-1.66-0.18-2.5-0.24c-0.55-0.03-1.14-0.04-1.72-0.04c-2,0-3.81,0.21-5.22,0.6c-0.75,0.2-1.26,0.44-1.57,0.62
	L34.348,81.933z"/>
<path fill="#333333" d="M128.196,47.036c27.951,0,53.027,10.02,70.13,25.892c3.977-2.1,8.248-3.634,12.689-4.7
	c2.795-0.62,5.69-1.056,8.778-1.056c0.95,0,1.917,0.042,2.905,0.13c2.1,0.214,4.31,0.647,6.59,1.614c2.26,0.97,4.6,2.56,6.41,4.81
	c0.71,1.026,0.5,0.596,1.07,1.534c0.449,0.746,0.85,1.525,1.08,2.108c0.56,1.276,0.899,2.554,1.159,3.82
	c0.47,2.518,0.44,4.875,0.23,7.08c-0.49,4.402-1.761,8.26-3.33,11.894c-1.58,3.623-3.53,6.993-5.81,10.205
	c-2.311,3.21-4.92,6.258-8.351,9.087l-0.28,0.23c-0.029,0.02-0.05,0.035-0.08,0.054c0.061,1.12,0.09,2.245,0.09,3.376
	c0,38.104-34.35,69.667-79.189,75.218c-4.38,6.586-10.311,10.637-16.85,10.637c-6.84,0-13.01-4.43-17.44-11.56
	c-41.86-7.521-73.17-37.931-73.17-74.3c0-1.68,0.07-3.34,0.2-4.99c-3.45-2.7-6.1-5.63-8.47-8.73c-2.38-3.15-4.41-6.46-6.1-10.04
	c-1.67-3.59-3.05-7.41-3.66-11.8c-0.29-2.2-0.38-4.55,0.02-7.08c0.23-1.28,0.53-2.57,1.06-3.86c0.21-0.59,0.6-1.39,1.03-2.14
	c0.53-0.95,0.35-0.52,1.02-1.57c1.74-2.3,4.04-3.96,6.27-4.99c2.24-1.03,4.44-1.53,6.53-1.8c1.31-0.16,2.6-0.23,3.85-0.23
	c2.74,0,5.33,0.33,7.86,0.82c5.13,1.08,10.04,2.79,14.58,5.26C76.11,56.63,100.75,47,128.15,47 M39.81,98.6
	c3.04-7.286,7.403-14.072,12.848-20.176c-3.125-0.902-6.358-1.447-9.523-1.655c-0.666-0.04-1.33-0.06-1.99-0.06
	c-2.255,0-4.434,0.23-6.297,0.74c-2.475,0.64-3.998,1.91-4.262,2.78c-0.32,0.82-0.404,2.46,0.28,4.71
	c0.647,2.2,1.868,4.63,3.366,6.93c1.57,2.37,3.508,4.7,5.578,6.71 M216.96,99.569c1.873-1.98,3.61-4.23,5.019-6.51
	c1.442-2.34,2.6-4.81,3.178-7.03c0.619-2.28,0.477-3.91,0.14-4.72c-0.282-0.87-1.843-2.09-4.33-2.66
	c-1.623-0.41-3.475-0.59-5.399-0.59c-0.961,0-1.937,0.04-2.91,0.13c-2.61,0.25-5.258,0.73-7.848,1.45
	c5.17,6.05,9.291,12.75,12.15,19.91 M124,203.85c4.023,0,7.78-1.771,10.98-4.848c-2.244,0.13-4.506,0.2-6.791,0.2
	c-1.85,0-3.686-0.048-5.51-0.136c-0.743,0.254-1.556,0.398-2.388,0.398c-1.064,0-2.157-0.238-3.17-0.798
	c-1.687-0.162-3.36-0.36-5.018-0.594c3.39,3.645,7.482,5.778,11.895,5.778 M128.189,39.041c-26.23,0-51.54,8.51-70.33,23.5
	c-3.67-1.55-7.6-2.77-11.73-3.64l-0.08-0.01l-0.08-0.01c-3.43-0.65-6.4-0.96-9.36-0.96c-1.62,0-3.24,0.1-4.82,0.29l-0.04,0.01
	l-0.04,0.01c-3.27,0.43-6.16,1.24-8.84,2.47c-3.71,1.71-6.93,4.28-9.31,7.43l-0.19,0.24l-0.17,0.25c-0.13,0.2-0.18,0.27-0.22,0.33
	c-0.38,0.51-0.63,0.91-1.05,1.64c-0.46,0.8-1.07,1.98-1.53,3.19c-0.83,2.05-1.22,3.92-1.48,5.33l-0.02,0.09l-0.01,0.09
	c-0.47,2.97-0.48,6.03-0.06,9.35v0.05l0.01,0.05c0.65,4.66,2.03,9.13,4.33,14.06c1.91,4.05,4.18,7.79,6.96,11.48l0.02,0.02
	l0.02,0.02c2.16,2.83,4.32,5.24,6.63,7.38c-0.01,0.5-0.02,0.99-0.02,1.47c0,19.57,8.25,38.62,23.23,53.63
	c13.69,13.73,32.48,23.561,53.2,27.91c5.91,7.88,13.85,12.33,22.19,12.33c8.01,0,15.46-3.939,21.291-11.18
	c22.16-3.41,42.449-12.93,57.439-27.03c16.27-15.31,25.25-35,25.301-55.48c2.5-2.37,4.799-5.05,7.1-8.24l0.02-0.02l0.02-0.02
	c2.69-3.8,4.851-7.6,6.611-11.63c2.18-5.06,3.43-9.57,3.939-14.22v-0.09c0.33-3.35,0.23-6.41-0.33-9.35l-0.01-0.07l-0.01-0.06
	c-0.271-1.29-0.73-3.23-1.631-5.31c-0.49-1.2-1.14-2.36-1.609-3.14c-0.45-0.73-0.7-1.1-1.08-1.59c-0.051-0.06-0.11-0.14-0.25-0.35
	l-0.17-0.24l-0.19-0.23c-2.47-3.07-5.75-5.54-9.489-7.14c-2.74-1.16-5.66-1.89-8.94-2.22h-0.08c-1.2-0.11-2.42-0.16-3.63-0.16
	c-3.35,0-6.69,0.4-10.52,1.25l-0.061,0.02l-0.061,0.01c-3.31,0.8-6.479,1.81-9.479,3.04c-18.91-15.6-44.63-24.45-71.48-24.45
	L128.189,39.041z"/>
<path fill="#676767" d="M62.52,78.584c0,0-31.138-10.86-37.237-1.998c-6.088,8.855,7.295,30.076,17.736,37.267
	C43.019,113.853,36.909,91.011,62.52,78.584L62.52,78.584z"/>
<path fill="#B3B3B3" d="M60.492,81.66c-5.23-2.966-11.418-4.5-17.355-4.89c-2.945-0.165-5.88,0.02-8.287,0.69
	c-2.475,0.638-3.998,1.908-4.262,2.78c-0.32,0.82-0.404,2.457,0.28,4.715c0.647,2.2,1.868,4.635,3.366,6.932
	c3.006,4.55,7.346,8.947,11.408,11.202c4.465,2.47,6.066,8.1,3.586,12.56c-2.484,4.46-8.107,6.06-12.56,3.58
	c-0.41-0.23-0.786-0.47-1.14-0.75l-0.322-0.26c-3.516-2.729-6.207-5.71-8.607-8.84c-2.38-3.15-4.41-6.46-6.1-10.04
	c-1.68-3.59-3.05-7.41-3.66-11.8c-0.29-2.2-0.38-4.55,0.02-7.08c0.23-1.28,0.53-2.57,1.06-3.86c0.21-0.59,0.6-1.38,1.03-2.14
	c0.53-0.95,0.34-0.52,1.02-1.57c1.74-2.29,4.03-3.95,6.271-4.98c2.24-1.03,4.44-1.53,6.53-1.81c4.19-0.51,8.03-0.12,11.71,0.58
	c7.27,1.53,14.13,4.3,20.06,8.78c1.62,1.24,1.95,3.56,0.71,5.18c-1.13,1.5-3.18,1.89-4.78,0.98L60.492,81.66z"/>
<path fill="#676767" d="M193.333,80.592c-11.565-5.203,30.813-11.742,37.166-3.058c6.34,8.68-3.931,27.01-14.16,34.495
	c0,0,2.94-19.75-23.01-31.44L193.333,80.592z"/>
<path fill="#B3B3B3" d="M191.214,77.575c5.79-4.65,12.572-7.613,19.804-9.346c3.653-0.82,7.481-1.31,11.684-0.93
	c2.109,0.21,4.32,0.64,6.6,1.61c2.26,0.97,4.6,2.56,6.41,4.81c0.71,1.021,0.5,0.59,1.07,1.53c0.449,0.74,0.859,1.52,1.09,2.1
	c0.57,1.27,0.91,2.55,1.17,3.82c0.48,2.52,0.45,4.87,0.23,7.08c-0.48,4.4-1.75,8.26-3.32,11.89c-1.58,3.62-3.53,6.99-5.801,10.2
	c-2.31,3.21-4.92,6.26-8.35,9.08l-0.27,0.23c-3.94,3.23-9.76,2.67-13-1.27c-3.23-3.94-2.66-9.76,1.27-13
	c0.36-0.29,0.78-0.58,1.15-0.81c4-2.37,8.21-6.89,11.08-11.53c1.449-2.34,2.6-4.81,3.18-7.03c0.62-2.28,0.48-3.91,0.141-4.72
	c-0.281-0.87-1.841-2.1-4.33-2.66c-2.431-0.6-5.371-0.71-8.311-0.46c-5.92,0.56-12.061,2.27-17.21,5.39
	c-1.74,1.06-4.01,0.5-5.08-1.25c-0.97-1.6-0.58-3.65,0.851-4.79L191.214,77.575z"/>
<path fill="#FFFFFF" d="M221.516,123.116c0,42.02-41.777,76.085-93.318,76.085c-51.548,0-93.337-34.061-93.337-76.08
	c0-42.02,41.79-76.08,93.337-76.08c51.539,0,93.318,34.06,93.318,76.08V123.116z"/>
<path fill="#B3B3B3" d="M201.507,120.957c0,34.279-33.87,62.075-75.644,62.075s-75.64-27.796-75.64-62.075
	c0-34.288,33.866-62.085,75.64-62.085C167.639,58.872,201.507,86.668,201.507,120.957z"/>
<path fill="#999898" d="M125.863,185.939c-43.31,0-78.55-29.154-78.55-64.983c0-35.835,35.24-64.993,78.55-64.993
	c43.314,0,78.554,29.158,78.554,64.993c0,35.83-35.24,64.985-78.554,64.985V185.939z M125.863,61.782
	c-40.107,0-72.734,26.545-72.734,59.175c0,32.627,32.62,59.168,72.73,59.168s72.73-26.54,72.73-59.168
	c0-32.63-32.63-59.175-72.74-59.175H125.863z"/>
<path fill="#333333" d="M161.58,112.38h-27.997l5.563-8.443c7.131-11.393,12.431-20.38,12.482-20.473
	c1.59-2.787,5.141-3.638,7.939-2.034c2.781,1.6,3.75,5.07,2.141,7.855c-0.04,0.07-2.891,5.096-7.23,12.096h7.08
	c3.211,0,5.811,2.29,5.811,5.5c0,3.22-2.6,5.5-5.811,5.5L161.58,112.38z"/>
<path fill="#FFFFFF" d="M118.927,101.165c0,16.913-13.71,30.623-30.62,30.623c-16.92,0-30.618-13.71-30.618-30.623
	c0-16.906,13.69-30.618,30.61-30.618c16.91,0,30.62,13.71,30.62,30.618H118.927z"/>
<path fill="#2974A7" d="M108.564,99.79c0,11.227-9.1,20.333-20.336,20.333c-11.232,0-20.332-9.106-20.332-20.332
	c0-11.23,9.1-20.34,20.332-20.34C99.464,79.451,108.564,88.561,108.564,99.79L108.564,99.79z"/>
<path fill="#FFFFFF" d="M85.12,93.917c0,3.828-3.105,6.935-6.937,6.935c-3.83,0-6.932-3.106-6.932-6.935
	c0-3.826,3.11-6.93,6.94-6.93s6.94,3.103,6.94,6.93H85.12z M92.76,101.403c0,1.797-1.466,3.252-3.263,3.252
	c-1.795,0-3.254-1.455-3.254-3.252c0-1.803,1.46-3.26,3.254-3.26C91.294,98.143,92.759,99.6,92.76,101.403L92.76,101.403z"/>
<path fill="#333333" d="M127.292,165.652c-3.216,0-5.5-2.601-5.5-5.816v-34.902c0-3.213,2.284-5.816,5.5-5.816
	c3.215,0,5.5,2.604,5.5,5.816v34.902C132.791,163.053,130.505,165.652,127.292,165.652z"/>
<path fill="#2974A7" d="M138.812,125.7c0,3.862-5.157,6.993-11.52,6.993c-6.354,0-11.52-3.129-11.52-6.992s5.166-6.99,11.52-6.99
	c6.363,0,11.52,3.13,11.52,7V125.7z"/>
<path fill="#C1272D" d="M90.75,131.641l0.667,0.512c0.254,0.205,0.805,0.604,1.688,1.201c1.67,1.127,4.242,2.75,7.545,4.322
	c3.25,1.68,7.27,3.141,11.62,4.432c2.206,0.471,4.458,1.193,6.804,1.42l3.527,0.521l3.58,0.162c2.39,0.263,4.77-0.11,7.12-0.162
	c2.35-0.082,4.61-0.728,6.84-1.002c2.23-0.37,4.291-1.192,6.311-1.692c2.04-0.443,3.82-1.461,5.54-2.104
	c1.69-0.76,3.31-1.24,4.61-2.08c1.33-0.75,2.5-1.399,3.449-1.94l3.02-1.67l1.141-0.629c5.609-3.091,12.65-1.061,15.75,4.549
	c3.05,5.5,1.109,12.431-4.29,15.601c0,0-1.39,0.819-3.851,2.25c-1.229,0.72-2.729,1.58-4.439,2.569
	c-1.65,1.07-3.82,1.841-6.061,2.881c-2.289,0.93-4.639,2.21-7.43,2.939c-2.75,0.79-5.58,1.87-8.67,2.48
	c-3.1,0.51-6.27,1.34-9.58,1.57c-3.31,0.189-6.67,0.64-10.03,0.399l-5.05-0.17c-1.65-0.21-3.31-0.41-4.95-0.62
	c-3.3-0.32-6.42-1.18-9.49-1.84c-6.03-1.65-11.53-3.59-16.01-5.79c-4.52-2.09-8.1-4.24-10.63-5.88c-1.21-0.79-2.28-1.54-3.1-2.15
	c-0.64-0.479-0.97-0.74-0.97-0.74c-5.46-4.119-6.54-11.879-2.43-17.34c4.12-5.459,11.88-6.54,17.33-2.42
	c0.03,0.01,0.05,0.03,0.07,0.051l0.43,0.319L90.75,131.641z"/>
<path fill="#FF7BAC" d="M149.896,170.477c0,21.26-10.93,38.486-24.419,38.486c-13.49,0-24.42-17.227-24.42-38.486
	c0-21.256,12.462-9.623,25.952-9.623c13.49,0,22.88-11.633,22.88,9.623H149.896z"/>
<path fill="#DD629A" d="M138.208,158.826c4.313-0.37,6.897,1.465,6.897,11.76c0,18.37-9.438,33.262-21.1,33.262
	c-11.67,0-21.118-14.89-21.118-33.262c0-16.742,8.854-11.135,19.242-9.998c0.428,3.584,3.596,31.408,0.428,33.908
	c-3.395,2.672-9.693-3.875-9.693-3.875c1.215,11.16,10.158,9.75,12.61,6.6c6.259-8.02,3.089-35.83,3.089-35.83h-0.116
	c3.604,0,6.899-1.439,9.76-2.25c-3.047,0.271-6.97,1.461-11.46,1.73c-2.574-0.141-4.664-0.58-4.664-0.58s0.018,0.09,0.02,0.18
	c-11.458-1.91-21.048-8.6-21.048,10.061c0,21.26,10.93,38.479,24.42,38.479c13.492,0,24.42-17.229,24.42-38.479
	c0-14.67-4.476-13.68-11.688-11.66V158.826z"/>
</svg>
