<svg xmlns="http://www.w3.org/2000/svg" width="256" height="256" viewBox="0 0 256 256"><path fill="#fff" d="M128.198 208.08c-53.67 0-97.335-35.924-97.335-80.082 0-1.04.027-2.11.08-3.2-2.665-2.29-5.09-4.904-7.523-8.092-2.62-3.476-4.752-6.987-6.535-10.752-2.14-4.598-3.41-8.706-4.006-12.952-.39-2.997-.38-5.683.03-8.256.23-1.317.58-2.952 1.28-4.68.38-1.036.96-2.11 1.27-2.668.36-.648.53-.89.78-1.222.07-.09.16-.213.37-.537l.08-.13.08-.12c2.51-3.33 5.62-5.22 7.79-6.22 2.31-1.06 4.82-1.76 7.68-2.14 1.46-.18 2.91-.26 4.36-.26 2.71 0 5.45.28 8.63.89 4.76.99 9.19 2.47 13.24 4.4 18.26-15.38 43.49-24.16 69.71-24.16 26.81 0 52.43 9.12 70.78 25.1 3.44-1.59 7.16-2.86 11.1-3.81 3.59-.8 6.65-1.17 9.7-1.17 1.09 0 2.19.05 3.27.14 2.91.29 5.44.91 7.8 1.92 2.19.94 5.35 2.74 7.96 5.98l.09.11.08.12c.22.32.32.44.39.54.26.33.42.56.81 1.2.55.91 1.03 1.84 1.35 2.62.59 1.36 1.03 2.82 1.39 4.58.49 2.62.58 5.3.29 8.27-.47 4.28-1.63 8.43-3.63 13.08-1.66 3.79-3.69 7.36-6.22 10.93-2.55 3.54-5.08 6.38-7.89 8.86.01.53.02 1.06.02 1.57-.01 44.16-43.66 80.08-97.32 80.08zm83.774-120.876c2.247 3.12 4.23 6.36 5.938 9.697.23-.34.454-.69.67-1.04 1.288-2.08 2.25-4.19 2.71-5.94.235-.86.296-1.51.296-1.9-.308-.17-.812-.39-1.512-.55-1.298-.32-2.833-.48-4.51-.48-.827 0-1.69.04-2.57.11-.34.03-.68.07-1.022.11zm-177.622-.39c.012.39.09 1.02.345 1.857.517 1.76 1.54 3.84 2.89 5.91.377.57.78 1.14 1.202 1.71 1.882-3.59 4.085-7.06 6.594-10.39-.82-.1-1.66-.18-2.5-.23-.57-.03-1.17-.05-1.76-.05-1.98 0-3.78.21-5.19.6-.75.2-1.26.44-1.57.62z"/><path fill="#333" d="M128.198 51.92c27.95 0 53.02 10.02 70.124 25.888 3.98-2.1 8.25-3.634 12.694-4.698 2.792-.622 5.688-1.056 8.776-1.056.95 0 1.92.04 2.907.13 2.1.21 4.32.65 6.59 1.615 2.25.96 4.6 2.56 6.41 4.8.7 1.02.5.59 1.06 1.53.45.74.85 1.52 1.09 2.1.56 1.28.9 2.55 1.16 3.82.47 2.51.45 4.87.23 7.07-.49 4.4-1.76 8.26-3.33 11.9-1.58 3.61-3.53 6.98-5.81 10.2-2.31 3.21-4.92 6.26-8.35 9.09l-.28.22-.08.05c.06 1.12.09 2.24.09 3.38 0 42.02-41.78 76.08-93.32 76.08-51.55 0-93.34-34.06-93.34-76.08 0-1.68.07-3.34.2-4.99-3.45-2.7-6.11-5.63-8.47-8.73-2.38-3.15-4.41-6.46-6.1-10.04-1.67-3.59-3.05-7.41-3.66-11.8-.28-2.19-.38-4.55.02-7.08.23-1.27.53-2.56 1.06-3.86.21-.58.59-1.38 1.02-2.14.53-.95.34-.51 1.02-1.56 1.73-2.3 4.03-3.96 6.27-4.99 2.24-1.02 4.44-1.52 6.53-1.8 1.31-.16 2.59-.23 3.84-.23 2.74 0 5.34.33 7.87.82 5.13 1.07 10.05 2.78 14.58 5.26 17.08-15.33 41.72-24.95 69.12-24.95M39.8 103.48c3.04-7.287 7.407-14.075 12.85-20.18-3.123-.902-6.36-1.447-9.524-1.652-.677-.04-1.353-.06-2.022-.06-2.247 0-4.414.23-6.267.75-2.476.64-4 1.91-4.26 2.776-.32.825-.407 2.464.276 4.716.65 2.21 1.87 4.64 3.37 6.935 1.57 2.38 3.51 4.71 5.58 6.72m177.143.988c1.875-1.98 3.612-4.23 5.02-6.51 1.443-2.332 2.594-4.81 3.176-7.024.62-2.27.48-3.91.14-4.72-.28-.86-1.842-2.09-4.33-2.66-1.62-.41-3.474-.59-5.4-.59-.96 0-1.936.04-2.91.13-2.61.25-5.257.73-7.845 1.45 5.173 6.05 9.295 12.75 12.15 19.92m-88.76-60.56c-26.23 0-51.537 8.51-70.325 23.5-3.675-1.56-7.605-2.78-11.74-3.64l-.063-.02-.07-.02c-3.43-.66-6.42-.97-9.39-.97-1.61 0-3.23.09-4.8.28h-.1c-3.26.43-6.14 1.23-8.82 2.46-2.6 1.2-6.32 3.45-9.33 7.44l-.18.23-.16.24c-.09.13-.14.21-.18.27-.41.54-.67.95-1.09 1.69-.45.79-1.07 1.97-1.52 3.18-.83 2.05-1.23 3.93-1.48 5.34l-.02.09-.02.08c-.47 2.95-.49 6.01-.06 9.34v.09c.65 4.65 2.03 9.12 4.33 14.06l.01.02.01.02c1.9 4.01 4.17 7.75 6.94 11.42 2.18 2.85 4.35 5.28 6.67 7.43-.02.5-.02.99-.02 1.47 0 22.77 10.75 44.08 30.28 60C76.11 203.44 101.34 212 128.11 212c26.76 0 51.99-8.55 71.04-24.08 19.48-15.88 30.22-37.13 30.27-59.84 2.5-2.376 4.8-5.05 7.09-8.23l.02-.03.02-.03c2.69-3.796 4.85-7.6 6.61-11.623 2.18-5.067 3.43-9.576 3.94-14.23v-.08c.33-3.36.23-6.42-.33-9.36l-.01-.06-.01-.054c-.42-2.03-.94-3.73-1.63-5.34-.53-1.285-1.24-2.52-1.63-3.15-.43-.716-.69-1.09-1.08-1.59-.05-.06-.11-.14-.25-.34l-.17-.24-.18-.23c-3.13-3.88-6.89-6.03-9.5-7.15-2.75-1.17-5.67-1.89-8.943-2.22l-.04-.007h-.04c-1.19-.11-2.41-.16-3.623-.16-3.357 0-6.7.39-10.52 1.25l-.06.01-.06.012c-3.316.79-6.49 1.81-9.48 3.032-18.864-15.55-44.59-24.4-71.43-24.4z"/><path fill="#676767" d="M62.523 83.465s-31.14-10.856-37.24-2c-6.088 8.858 7.295 30.08 17.736 37.273 0 0-6.11-22.846 19.5-35.273z"/><path fill="#B3B3B3" d="M60.494 86.54c-5.234-2.967-11.418-4.5-17.355-4.886-2.95-.172-5.89.017-8.29.687-2.48.64-4 1.91-4.26 2.78-.32.83-.41 2.47.27 4.72.65 2.21 1.87 4.64 3.37 6.93 3 4.56 7.34 8.96 11.4 11.21 4.46 2.48 6.06 8.11 3.58 12.57-2.49 4.46-8.11 6.07-12.56 3.59-.41-.22-.79-.47-1.14-.74l-.33-.25c-3.52-2.73-6.21-5.7-8.61-8.84-2.37-3.15-4.41-6.46-6.1-10.03-1.67-3.59-3.05-7.41-3.66-11.8-.28-2.19-.38-4.55.02-7.07.23-1.28.53-2.57 1.06-3.86.21-.58.59-1.38 1.02-2.14.54-.95.34-.51 1.02-1.56 1.74-2.3 4.03-3.96 6.27-4.99 2.24-1.03 4.44-1.53 6.53-1.8 4.19-.5 8.03-.11 11.71.6 7.28 1.52 14.13 4.29 20.06 8.77 1.62 1.24 1.95 3.56.71 5.18-1.13 1.5-3.18 1.89-4.77.98z"/><path fill="#676767" d="M193.333 85.47c-11.566-5.202 30.81-11.735 37.162-3.054 6.346 8.68-3.924 27.01-14.154 34.495 0 0 2.95-19.74-23-31.44z"/><path fill="#B3B3B3" d="M191.212 82.455c5.79-4.652 12.572-7.613 19.805-9.346 3.65-.82 7.48-1.31 11.684-.93 2.11.21 4.32.65 6.59 1.61 2.26.97 4.61 2.56 6.42 4.81.71 1.02.5.59 1.07 1.53.46.74.86 1.52 1.09 2.1.57 1.28.91 2.55 1.17 3.82.48 2.51.45 4.87.23 7.07-.48 4.4-1.75 8.26-3.32 11.9-1.58 3.61-3.53 6.98-5.81 10.2-2.31 3.21-4.91 6.26-8.35 9.09l-.27.22c-3.94 3.24-9.76 2.67-13.01-1.27-3.23-3.94-2.66-9.77 1.27-13.01.36-.29.78-.58 1.15-.81 4-2.38 8.22-6.89 11.08-11.53 1.45-2.33 2.6-4.81 3.18-7.03.62-2.27.48-3.91.14-4.72-.28-.86-1.84-2.09-4.33-2.66-2.42-.6-5.36-.7-8.31-.45-5.92.56-12.06 2.27-17.2 5.38-1.74 1.06-4.01.51-5.08-1.24-.97-1.6-.57-3.66.85-4.8z"/><path fill="#fff" d="M221.515 127.998c0 42.02-41.775 76.083-93.316 76.083-51.55 0-93.34-34.06-93.34-76.08 0-42.01 41.78-76.08 93.33-76.08 51.54 0 93.31 34.06 93.31 76.08z"/><path fill="#B3B3B3" d="M201.51 125.84c0 34.278-33.872 62.072-75.647 62.072-41.77 0-75.64-27.794-75.64-62.072 0-34.29 33.868-62.085 75.64-62.085 41.775 0 75.646 27.794 75.646 62.085z"/><path fill="#999898" d="M125.863 190.82c-43.313 0-78.55-29.15-78.55-64.98 0-35.84 35.237-64.996 78.55-64.996 43.316 0 78.552 29.156 78.552 64.996 0 35.83-35.236 64.98-78.552 64.98zm0-124.16c-40.105 0-72.734 26.547-72.734 59.18 0 32.625 32.62 59.166 72.73 59.166s72.73-26.54 72.73-59.166c0-32.633-32.63-59.18-72.74-59.18z"/><path fill="#333" d="M127.12 147.27c-3.214 0-5.5-2.605-5.5-5.817v-29.087c0-3.217 2.286-5.82 5.5-5.82s5.5 2.604 5.5 5.82v29.087c0 3.212-2.288 5.816-5.5 5.816z"/><path fill="#2974A7" d="M137.985 113.13c0 3.863-5.16 6.996-11.52 6.996-6.356 0-11.522-3.133-11.522-6.996 0-3.86 5.166-6.992 11.52-6.992 6.362 0 11.522 3.132 11.522 6.992z"/><path fill="#333" d="M96.98 105.03c0 6.26-5.072 11.334-11.332 11.334-6.256 0-11.326-5.075-11.326-11.335 0-6.26 5.07-11.33 11.326-11.33 6.26 0 11.332 5.07 11.332 11.32zm81.44 0c0 6.26-5.07 11.334-11.333 11.334-6.254 0-11.326-5.075-11.326-11.335 0-6.26 5.08-11.33 11.33-11.33 6.26 0 11.34 5.07 11.34 11.32zm.61 47.35H74.322c-3.22 0-5.818-2.785-5.818-6 0-3.214 2.6-6 5.818-6H179.03c3.213 0 5.816 2.786 5.816 6 0 3.215-2.603 6-5.816 6z"/></svg>