<svg xmlns="http://www.w3.org/2000/svg" width="256" height="256" viewBox="0 0 256 256"><path fill="#fff" d="M128.198 208.08c-53.672 0-97.338-35.925-97.338-80.084 0-1.04.027-2.11.08-3.2-2.655-2.285-5.08-4.896-7.518-8.087-2.63-3.5-4.765-7.01-6.54-10.77-2.142-4.59-3.412-8.7-4.004-12.95-.386-2.97-.374-5.65.03-8.25.24-1.33.584-2.96 1.287-4.68.38-1.04.96-2.12 1.28-2.68.354-.63.526-.89.773-1.22.067-.09.153-.21.357-.53l.083-.13.093-.13c2.52-3.33 5.63-5.22 7.8-6.22 2.32-1.07 4.84-1.76 7.69-2.13 1.46-.18 2.91-.27 4.36-.27 2.7 0 5.44.28 8.63.89 4.77.99 9.2 2.47 13.25 4.4 18.25-15.38 43.48-24.15 69.7-24.15 26.82 0 52.44 9.12 70.79 25.1 3.44-1.58 7.16-2.86 11.11-3.8 3.61-.8 6.68-1.16 9.72-1.16 1.09 0 2.19.05 3.26.15 2.91.29 5.44.91 7.8 1.91 2.21.95 5.37 2.75 7.97 5.99l.09.1.08.11c.22.32.32.44.39.54.27.34.44.57.82 1.22.55.89 1.04 1.84 1.36 2.63.6 1.36 1.04 2.81 1.39 4.56.5 2.61.59 5.3.29 8.28-.47 4.27-1.62 8.42-3.63 13.08-1.65 3.79-3.69 7.36-6.22 10.93-2.54 3.54-5.07 6.38-7.88 8.86.02.54.02 1.06.02 1.57 0 44.16-43.65 80.08-97.31 80.08zm83.775-120.877c2.247 3.12 4.23 6.358 5.938 9.695.23-.345.46-.692.67-1.04 1.3-2.093 2.26-4.2 2.71-5.936.24-.872.3-1.515.3-1.907-.31-.173-.81-.397-1.51-.558-1.28-.32-2.82-.48-4.5-.48-.82 0-1.69.04-2.57.114-.34.04-.68.07-1.02.12zm-177.623-.39c.014.39.093 1.018.347 1.854.516 1.758 1.537 3.84 2.887 5.904.377.58.778 1.15 1.2 1.71 1.883-3.59 4.086-7.06 6.595-10.39-.83-.1-1.67-.18-2.51-.24-.56-.03-1.15-.05-1.74-.05-2 0-3.8.21-5.22.61-.75.2-1.26.44-1.57.62z"/><path fill="#333" d="M128.198 51.92c27.948 0 53.02 10.018 70.124 25.886 3.98-2.1 8.25-3.632 12.694-4.698 2.797-.62 5.696-1.056 8.788-1.056.947 0 1.913.04 2.9.13 2.1.21 4.315.647 6.59 1.613 2.253.97 4.6 2.562 6.405 4.813.71 1.02.5.59 1.06 1.533.45.75.86 1.53 1.09 2.11.56 1.28.9 2.56 1.16 3.83.47 2.52.44 4.88.22 7.08-.48 4.4-1.75 8.26-3.32 11.9-1.58 3.62-3.53 6.99-5.81 10.2-2.31 3.22-4.91 6.27-8.35 9.09l-.28.23-.08.06c.06 1.12.1 2.25.1 3.38 0 42.02-41.78 76.09-93.32 76.09-51.55 0-93.34-34.06-93.34-76.08 0-1.67.07-3.34.2-4.99-3.45-2.7-6.1-5.63-8.47-8.73-2.37-3.15-4.41-6.46-6.1-10.04-1.67-3.58-3.05-7.4-3.66-11.79-.28-2.19-.37-4.55.02-7.08.23-1.27.53-2.56 1.07-3.85.21-.58.59-1.37 1.02-2.14.53-.95.35-.51 1.02-1.56 1.74-2.3 4.04-3.96 6.27-4.99 2.24-1.02 4.44-1.53 6.53-1.8 1.31-.16 2.59-.23 3.84-.23 2.74 0 5.34.34 7.87.82 5.13 1.08 10.04 2.79 14.58 5.27 17.08-15.33 41.72-24.95 69.12-24.95M39.8 103.48c3.04-7.285 7.405-14.072 12.85-20.18-3.124-.9-6.36-1.443-9.526-1.65-.67-.033-1.338-.053-2-.053-2.25 0-4.425.23-6.29.75-2.476.64-4 1.9-4.26 2.77-.317.82-.403 2.46.282 4.71.645 2.205 1.864 4.64 3.366 6.932 1.57 2.38 3.507 4.71 5.576 6.72m177.145.98c1.877-1.98 3.613-4.23 5.022-6.51 1.442-2.34 2.597-4.81 3.177-7.03.62-2.27.475-3.91.14-4.72-.28-.86-1.847-2.09-4.335-2.66-1.62-.4-3.47-.58-5.396-.58-.96 0-1.93.04-2.91.13-2.61.25-5.25.73-7.84 1.45 5.18 6.05 9.3 12.75 12.15 19.91M128.2 43.92c-26.23 0-51.54 8.51-70.328 23.498-3.676-1.556-7.604-2.775-11.737-3.64l-.07-.015-.07-.013c-3.438-.656-6.416-.96-9.37-.96-1.612 0-3.227.095-4.8.285l-.04.005-.04.005c-3.252.424-6.14 1.23-8.828 2.46-3.713 1.706-6.935 4.278-9.324 7.44l-.186.247-.167.26c-.08.123-.13.202-.17.258-.408.543-.668.95-1.088 1.697-.442.776-1.065 1.964-1.516 3.177-.825 2.04-1.222 3.912-1.477 5.325l-.02.09-.02.09c-.47 2.98-.48 6.03-.05 9.34v.06c.65 4.65 2.02 9.12 4.33 14.07 1.9 4.04 4.18 7.78 6.96 11.47l.01.02.01.02c2.16 2.83 4.32 5.24 6.63 7.39-.01.49-.02.98-.02 1.47 0 22.77 10.76 44.08 30.28 60 19.05 15.53 44.29 24.08 71.06 24.08 26.76 0 51.99-8.56 71.04-24.09 19.47-15.88 30.22-37.12 30.27-59.83 2.5-2.37 4.8-5.05 7.1-8.25l.02-.02.01-.02c2.69-3.8 4.85-7.6 6.61-11.63 2.19-5.07 3.43-9.58 3.94-14.23v-.06c.34-3.37.23-6.43-.33-9.37l-.01-.06-.01-.06c-.41-2-.93-3.69-1.62-5.3-.53-1.3-1.24-2.53-1.64-3.18-.44-.73-.7-1.11-1.09-1.61-.05-.06-.11-.14-.25-.34l-.15-.22-.17-.21c-3.11-3.88-6.87-6.04-9.48-7.16-2.77-1.18-5.68-1.9-8.96-2.23l-.04-.01h-.04c-1.19-.11-2.41-.17-3.62-.17-3.34 0-6.68.39-10.52 1.24l-.07.01-.07.01c-3.32.79-6.49 1.81-9.48 3.03-18.88-15.58-44.6-24.43-71.44-24.43z"/><path fill="#676767" d="M62.52 83.464S31.383 72.61 25.284 81.467c-6.09 8.853 7.295 30.076 17.738 37.27 0 0-6.105-22.848 19.5-35.273z"/><path fill="#B3B3B3" d="M60.495 86.54c-5.234-2.968-11.42-4.5-17.36-4.89-2.946-.167-5.876.02-8.286.69-2.48.642-4 1.91-4.27 2.776-.32.825-.4 2.458.28 4.714.64 2.205 1.86 4.637 3.36 6.932 3 4.558 7.34 8.953 11.41 11.202 4.46 2.483 6.06 8.106 3.58 12.568-2.48 4.458-8.11 6.067-12.56 3.582-.41-.22-.79-.47-1.14-.74l-.33-.25c-3.52-2.734-6.21-5.707-8.61-8.846-2.38-3.15-4.41-6.46-6.1-10.042-1.68-3.582-3.05-7.405-3.66-11.79-.29-2.19-.38-4.55.02-7.08.23-1.277.53-2.566 1.06-3.857.2-.59.59-1.38 1.02-2.15.53-.95.35-.51 1.02-1.56 1.74-2.31 4.04-3.97 6.27-4.99 2.24-1.03 4.44-1.53 6.53-1.8 4.19-.51 8.03-.11 11.72.59 7.27 1.52 14.13 4.29 20.06 8.77 1.62 1.23 1.94 3.55.71 5.18-1.13 1.5-3.18 1.88-4.77.98z"/><path fill="#676767" d="M193.335 85.47c-11.568-5.203 30.81-11.736 37.164-3.057 6.34 8.682-3.93 27.014-14.16 34.493 0 0 2.94-19.744-23.01-31.435z"/><path fill="#B3B3B3" d="M191.212 82.45c5.793-4.65 12.574-7.608 19.805-9.342 3.654-.81 7.484-1.307 11.688-.926 2.102.21 4.316.647 6.59 1.613 2.254.97 4.602 2.562 6.406 4.813.72 1.02.51.59 1.07 1.533.46.75.86 1.53 1.09 2.11.57 1.28.91 2.56 1.17 3.83.48 2.52.45 4.88.23 7.08-.48 4.4-1.75 8.26-3.32 11.9-1.58 3.62-3.53 6.99-5.81 10.2-2.31 3.22-4.91 6.27-8.34 9.09l-.28.23c-3.94 3.24-9.76 2.67-13-1.26-3.24-3.94-2.67-9.76 1.27-13 .36-.29.77-.58 1.15-.81 4-2.37 8.22-6.89 11.08-11.52 1.45-2.33 2.6-4.81 3.18-7.02.62-2.27.48-3.91.14-4.71-.28-.86-1.84-2.09-4.33-2.66-2.42-.6-5.36-.7-8.31-.45-5.92.56-12.06 2.27-17.2 5.38-1.75 1.07-4.02.51-5.08-1.23-.97-1.6-.58-3.66.84-4.8z"/><path fill="#fff" d="M221.517 127.996c0 42.02-41.777 76.085-93.318 76.085-51.55 0-93.34-34.06-93.34-76.08 0-42.01 41.79-76.07 93.34-76.07 51.54 0 93.31 34.06 93.31 76.08z"/><path fill="#B3B3B3" d="M201.51 125.84c0 34.273-33.87 62.073-75.647 62.073-41.77 0-75.64-27.8-75.64-62.073 0-34.29 33.868-62.088 75.64-62.088 41.777 0 75.646 27.797 75.646 62.088z"/><path fill="#999898" d="M125.862 190.82c-43.31 0-78.55-29.152-78.55-64.98 0-35.844 35.24-64.995 78.55-64.995 43.318 0 78.555 29.15 78.555 64.995 0 35.828-35.236 64.98-78.555 64.98zm0-124.158c-40.105 0-72.734 26.546-72.734 59.178 0 32.62 32.63 59.163 72.734 59.163 40.11 0 72.738-26.542 72.738-59.163 0-32.632-32.628-59.178-72.738-59.178z"/><path fill="#333" d="M128.12 147.266c-3.216 0-6.5-2.6-6.5-5.816v-29.086c0-3.215 3.284-5.817 6.5-5.817s6.5 2.603 6.5 5.817v29.086c0 3.216-3.286 5.816-6.5 5.816z"/><path fill="#2974A7" d="M137.983 113.13c0 3.862-5.156 6.994-11.52 6.994-6.357 0-11.52-3.132-11.52-6.995s5.162-7 11.52-7c6.364 0 11.52 3.13 11.52 6.99z"/><path fill="#fff" d="M192.6 108.012s-12.6 25.682-2.42 29.563c10.18 3.88 15.02-10.163 2.42-29.563z"/><path fill="#333" d="M80.13 162.78c-2.676 0-5.076-1.85-5.676-4.573-.686-3.134 1.3-6.235 4.44-6.925l93.073-20.39c3.12-.69 6.232 1.297 6.924 4.44.69 3.136-1.29 6.235-4.43 6.922l-93.07 20.39c-.42.09-.83.136-1.25.136zm16.85-57.75c0 6.26-5.073 11.33-11.335 11.33-6.254 0-11.324-5.07-11.324-11.33 0-6.255 5.07-11.328 11.33-11.328s11.34 5.073 11.34 11.33z"/><circle fill="#333" cx="167.09" cy="105.031" r="11.331"/></svg>