<svg xmlns="http://www.w3.org/2000/svg" width="256" height="256" viewBox="0 0 256 256"><path fill="#fff" d="M128.2 208.086c-53.673 0-97.34-35.927-97.34-80.087 0-1.04.027-2.11.08-3.2-2.663-2.3-5.088-4.91-7.52-8.1-2.622-3.47-4.756-6.99-6.538-10.76-2.14-4.6-3.41-8.7-4.003-12.95-.39-2.96-.38-5.65.03-8.25.23-1.33.58-2.97 1.28-4.7.29-.78.75-1.75 1.28-2.67.35-.64.52-.88.77-1.21.07-.09.16-.22.37-.54l.08-.13.08-.12c2.51-3.33 5.62-5.22 7.79-6.22 2.32-1.07 4.84-1.77 7.69-2.13 1.45-.18 2.91-.27 4.37-.27 2.7 0 5.44.28 8.61.89 4.76.99 9.19 2.47 13.24 4.4 18.25-15.38 43.49-24.16 69.71-24.16 26.81 0 52.43 9.12 70.78 25.1 3.43-1.59 7.15-2.86 11.1-3.81 3.6-.8 6.67-1.16 9.71-1.16 1.09 0 2.18.05 3.26.14 2.9.29 5.44.92 7.79 1.92 2.2.95 5.36 2.75 7.96 5.99l.09.11.08.12c.22.32.31.44.39.53.26.33.42.57.81 1.21.53.87 1.03 1.83 1.35 2.62.77 1.77 1.17 3.45 1.39 4.57.5 2.63.59 5.25.29 8.27-.47 4.29-1.63 8.43-3.64 13.08-1.65 3.78-3.68 7.35-6.22 10.93-2.55 3.54-5.08 6.38-7.89 8.86.01.54.02 1.06.02 1.57 0 44.16-43.66 80.09-97.32 80.09zm83.773-120.88c2.246 3.12 4.23 6.357 5.938 9.695.23-.34.46-.69.67-1.03 1.29-2.08 2.25-4.19 2.71-5.94.24-.87.3-1.51.3-1.9-.31-.17-.81-.39-1.51-.55-1.3-.32-2.83-.48-4.51-.48-.82 0-1.69.04-2.57.12-.34.03-.68.07-1.02.11zm-177.623-.39c.013.39.09 1.022.345 1.864.516 1.75 1.54 3.833 2.887 5.893.377.573.78 1.144 1.203 1.708 1.882-3.59 4.085-7.06 6.594-10.39-.83-.1-1.67-.18-2.5-.23-.57-.03-1.17-.05-1.76-.05-1.99 0-3.79.21-5.2.6-.75.19-1.26.44-1.57.62z"/><path fill="#333" d="M128.2 51.92c27.946 0 53.02 10.02 70.122 25.89 3.978-2.1 8.248-3.634 12.69-4.7 2.798-.62 5.695-1.056 8.785-1.056.95 0 1.915.04 2.902.13 2.1.21 4.31.646 6.59 1.612 2.25.972 4.6 2.564 6.41 4.814.7 1.022.49.588 1.06 1.532.45.74.85 1.524 1.09 2.11.56 1.277.9 2.546 1.16 3.82.47 2.512.44 4.875.22 7.08-.49 4.402-1.76 8.258-3.33 11.894-1.58 3.62-3.53 6.987-5.81 10.202-2.32 3.21-4.92 6.262-8.35 9.092l-.28.227c-.02.02-.05.035-.07.054.06 1.12.09 2.25.09 3.38 0 42.02-41.78 76.09-93.31 76.09-51.56 0-93.34-34.06-93.34-76.08 0-1.67.07-3.33.2-4.98-3.45-2.7-6.1-5.63-8.47-8.73-2.38-3.15-4.41-6.46-6.1-10.04-1.67-3.58-3.05-7.41-3.66-11.79-.29-2.19-.38-4.55.02-7.08.23-1.28.52-2.57 1.06-3.86.21-.58.59-1.38 1.03-2.14.53-.95.34-.51 1.02-1.56 1.73-2.3 4.03-3.95 6.27-4.98 2.24-1.03 4.44-1.53 6.53-1.8 1.32-.16 2.6-.23 3.86-.23 2.73 0 5.33.34 7.85.82 5.13 1.08 10.05 2.79 14.58 5.27 17.07-15.33 41.72-24.95 69.12-24.95m-88.37 51.56c3.04-7.29 7.4-14.07 12.85-20.18-3.13-.9-6.36-1.44-9.53-1.65-.68-.04-1.35-.06-2.02-.06-2.25 0-4.42.23-6.28.75-2.48.65-4 1.91-4.27 2.78-.32.82-.4 2.46.27 4.72.65 2.21 1.87 4.64 3.37 6.94 1.57 2.39 3.51 4.72 5.58 6.73m177.14.99c1.88-1.98 3.61-4.23 5.02-6.51 1.44-2.33 2.6-4.81 3.18-7.02.62-2.27.47-3.91.14-4.72-.28-.86-1.84-2.08-4.33-2.65-1.62-.4-3.48-.58-5.4-.58-.96 0-1.94.05-2.91.13-2.61.25-5.26.73-7.85 1.45 5.18 6.05 9.3 12.75 12.15 19.91m-88.72-60.6c-26.23 0-51.54 8.51-70.33 23.5-3.68-1.55-7.61-2.77-11.74-3.64l-.06-.01-.07-.01c-3.42-.66-6.4-.96-9.36-.96-1.61 0-3.24.1-4.82.29h-.03l-.03.01c-3.25.42-6.15 1.23-8.84 2.46-3.72 1.71-6.94 4.28-9.32 7.44l-.18.23-.16.25c-.09.14-.14.23-.18.28-.41.55-.67.96-1.08 1.7-.34.6-1.01 1.85-1.51 3.15-.83 2.05-1.23 3.94-1.48 5.37l-.01.09-.01.09c-.47 2.99-.49 6.05-.05 9.36v.08c.65 4.65 2.02 9.12 4.33 14.06 1.91 4.06 4.19 7.81 6.96 11.48 2.18 2.86 4.35 5.28 6.66 7.43-.01.5-.01.99-.01 1.47 0 22.77 10.75 44.09 30.28 60 19.05 15.54 44.29 24.09 71.06 24.09 26.76 0 51.99-8.56 71.04-24.09 19.47-15.88 30.22-37.12 30.27-59.83 2.5-2.38 4.8-5.05 7.1-8.24l.02-.03.02-.02c2.69-3.8 4.86-7.61 6.61-11.63 2.18-5.05 3.43-9.56 3.94-14.21l.01-.04V94c.33-3.37.23-6.434-.33-9.36l-.01-.06-.01-.06c-.42-2.03-.94-3.72-1.63-5.32-.4-.98-.98-2.09-1.63-3.16-.44-.72-.69-1.095-1.08-1.59-.05-.054-.11-.13-.24-.33l-.16-.235-.18-.22c-3.12-3.88-6.88-6.03-9.49-7.15-2.77-1.173-5.69-1.9-8.96-2.223l-.04-.008h-.04c-1.19-.11-2.41-.16-3.62-.16-3.34 0-6.69.39-10.52 1.24l-.06.02-.07.015c-3.31.8-6.49 1.81-9.48 3.04C180.78 52.85 155.05 44 128.22 44zm38.28 132.36c-1.61 0-3.21-.66-4.36-1.97-.13-.13-13.23-14.59-30.65-15.22-11.08-.32-21.54 4.79-31.54 15.36-2.21 2.34-5.89 2.44-8.22.23-2.33-2.2-2.44-5.88-.23-8.22 12.4-13.11 26.1-19.61 40.4-18.99 22.5.8 38.3 18.39 38.96 19.14 2.13 2.41 1.91 6.09-.5 8.21-1.11.99-2.48 1.47-3.85 1.47z"/><path fill="#676767" d="M62.52 83.466s-31.136-10.856-37.237-2c-6.09 8.86 7.293 30.083 17.734 37.273 0 0-6.102-22.85 19.504-35.28z"/><path fill="#B3B3B3" d="M60.49 86.54c-5.23-2.965-11.417-4.5-17.353-4.885-2.947-.17-5.88.018-8.29.687-2.474.643-4 1.91-4.26 2.777-.317.82-.403 2.45.276 4.71.65 2.2 1.87 4.64 3.37 6.93 3.005 4.56 7.347 8.95 11.407 11.2 4.465 2.48 6.068 8.1 3.584 12.56-2.482 4.46-8.105 6.06-12.56 3.58-.41-.23-.784-.48-1.138-.75l-.324-.25c-3.514-2.73-6.207-5.71-8.605-8.85-2.375-3.15-4.408-6.46-6.1-10.04-1.67-3.59-3.045-7.41-3.658-11.8-.29-2.19-.38-4.55.02-7.08.23-1.28.52-2.57 1.06-3.86.21-.59.59-1.38 1.03-2.14.53-.95.34-.51 1.02-1.57 1.73-2.3 4.03-3.96 6.27-4.99 2.24-1.03 4.44-1.53 6.53-1.8 4.19-.51 8.03-.12 11.71.59 7.27 1.52 14.13 4.29 20.05 8.77 1.62 1.24 1.95 3.55.71 5.18-1.13 1.49-3.18 1.88-4.77.97z"/><path fill="#676767" d="M193.333 85.472c-11.565-5.202 30.813-11.736 37.166-3.056 6.34 8.68-3.93 27.014-14.17 34.493 0 0 2.94-19.75-23.01-31.44z"/><path fill="#B3B3B3" d="M191.214 82.457c5.79-4.654 12.57-7.613 19.802-9.347 3.653-.81 7.483-1.307 11.688-.926 2.104.21 4.315.646 6.59 1.612 2.258.972 4.603 2.564 6.41 4.814.707 1.022.496.588 1.065 1.532.45.74.85 1.524 1.09 2.11.56 1.277.9 2.546 1.16 3.82.48 2.512.44 4.875.23 7.08-.49 4.402-1.76 8.258-3.33 11.894-1.58 3.62-3.53 6.987-5.81 10.202-2.31 3.21-4.92 6.262-8.35 9.092l-.28.227c-3.94 3.24-9.76 2.67-13.01-1.267-3.24-3.937-2.67-9.765 1.27-13.005.36-.29.77-.58 1.14-.808 3.99-2.372 8.21-6.888 11.07-11.525 1.44-2.333 2.6-4.81 3.18-7.028.61-2.27.47-3.908.14-4.716-.28-.86-1.85-2.088-4.34-2.655-2.43-.604-5.37-.706-8.32-.456-5.92.563-12.06 2.272-17.21 5.387-1.74 1.063-4.02.505-5.08-1.237-.98-1.603-.58-3.658.84-4.8z"/><path fill="#fff" d="M221.518 128c0 42.02-41.778 76.086-93.315 76.086-51.555 0-93.34-34.066-93.34-76.087 0-42.02 41.785-76.08 93.34-76.08 51.533 0 93.315 34.06 93.315 76.08z"/><path fill="#B3B3B3" d="M201.507 120.022c0 34.28-33.866 62.076-75.646 62.076-41.77 0-75.64-27.797-75.64-62.076 0-34.288 33.87-62.084 75.64-62.084 41.78 0 75.65 27.796 75.65 62.084z"/><path fill="#999898" d="M125.86 185.007c-43.31 0-78.55-29.153-78.55-64.984 0-35.838 35.24-64.995 78.55-64.995 43.314 0 78.557 29.157 78.557 64.995 0 35.83-35.242 64.984-78.557 64.984zm0-124.16c-40.105 0-72.73 26.546-72.73 59.176 0 32.627 32.625 59.167 72.73 59.167s72.74-26.54 72.74-59.167c.002-32.63-32.634-59.176-72.74-59.176z"/><path fill="#333" d="M128 153.086c-3.213 0-6-2.604-6-5.816V124c0-3.214 2.787-5.818 6-5.818 3.217 0 6 2.604 6 5.817v23.27c0 3.21-2.783 5.81-6 5.81zm35.387 17.38c-1.61 0-3.212-.665-4.357-1.968-.125-.137-13.23-14.596-30.648-15.22-11.043-.296-21.543 4.788-31.54 15.357-2.21 2.34-5.892 2.44-8.22.236-2.336-2.2-2.445-5.88-.234-8.22 12.39-13.11 26.055-19.66 40.402-18.99 22.502.8 38.295 18.39 38.953 19.14 2.13 2.41 1.903 6.09-.507 8.21-1.106.98-2.48 1.47-3.85 1.47z"/><path fill="#fff" d="M200.068 109.536c0 19.96-16.18 36.146-36.142 36.146-19.97 0-36.146-16.186-36.146-36.146 0-19.963 16.178-36.142 36.146-36.142 19.965 0 36.142 16.18 36.142 36.142z"/><circle fill="#fff" cx="88.303" cy="109.536" r="36.146"/><circle fill="#2974A7" cx="95.701" cy="111.142" r="16.729"/><path fill="#fff" d="M93.146 106.31c0 3.152-2.56 5.704-5.71 5.704-3.153 0-5.702-2.552-5.702-5.704 0-3.146 2.55-5.696 5.703-5.696 3.15 0 5.71 2.55 5.71 5.696zm6.29 6.156c0 1.48-1.21 2.685-2.69 2.685-1.475 0-2.68-1.2-2.68-2.68s1.205-2.68 2.68-2.68c1.48 0 2.69 1.2 2.69 2.68z"/><path fill="#2974A7" d="M177.302 112.02c0 9.197-7.448 16.648-16.645 16.648-9.205 0-16.654-7.45-16.654-16.648s7.45-16.652 16.654-16.652c9.197 0 16.645 7.453 16.645 16.652z"/><path fill="#fff" d="M158.104 107.213c0 3.142-2.54 5.675-5.68 5.675-3.137 0-5.676-2.533-5.676-5.675 0-3.132 2.54-5.673 5.676-5.673 3.14 0 5.68 2.54 5.68 5.673zm6.262 6.127c0 1.47-1.197 2.668-2.67 2.668-1.474 0-2.67-1.2-2.67-2.667 0-1.48 1.196-2.66 2.67-2.66 1.473 0 2.67 1.19 2.67 2.67z"/><path fill="#B3B3B3" d="M88.333 72c-19.963 0-36.176 17.573-36.176 37.536 0 4.627.88 9.046 2.463 13.113 21.666-10.32 46.565-21.15 66.967-27.23-5.5-12.95-18.3-23.42-33.254-23.42z"/><path fill="#999898" d="M120.318 92.76c-20.29 6.102-45.042 16.866-66.645 27.142.562 1.88 1.268 3.695 2.113 5.432C77.478 115 102.388 104.16 122.608 98.15c-.62-1.87-1.386-3.67-2.29-5.39zm-3.342-24.99l5.774 30.355-32.916 6.487s17.452-13.572 27.142-36.842z"/><path fill="#B3B3B3" d="M128.825 100.913c.407-.056.817-.112 1.24-.177 23.687-3.613 48.734.755 69.96 7.112-.88-19.18-17.63-35.514-37.025-35.515-16.994 0-30.31 12.783-34.175 28.58z"/><path fill="#999898" d="M147.995 102.34c17.98 0 36.108 3.746 52.038 8.588.018-.462.035-.925.035-1.392 0-1.65-.12-3.27-.334-4.86-15.836-4.646-33.74-8.155-51.74-8.155-6.247 0-12.324-.13-18.062.72-.84 2.33-1.445 4.76-1.794 7.28.77-.14 1.558-.27 2.363-.4 5.55-.84 11.44-1.77 17.5-1.77zm-25.683-36.023L128 104.5l24.85-7.644s-20.84-8.727-30.538-30.54zm3.548 118.69c-43.31 0-78.55-29.153-78.55-64.984 0-35.838 35.24-64.995 78.55-64.995 43.314 0 78.557 29.157 78.557 64.995 0 35.83-35.242 64.984-78.557 64.984zm0-124.16c-40.105 0-72.73 26.546-72.73 59.176 0 32.627 32.625 59.167 72.73 59.167s72.74-26.54 72.74-59.167c.002-32.63-32.634-59.176-72.74-59.176z"/><path fill="#2974A7" d="M139.522 124.766c0 3.865-5.16 6.993-11.52 6.993-6.358 0-11.524-3.13-11.524-7s5.166-7 11.523-7c6.37 0 11.53 3.13 11.53 6.99z"/></svg>