<svg xmlns="http://www.w3.org/2000/svg" width="256" height="256" viewBox="0 0 256 256"><path fill="#fff" d="M128.196 205.81c-53.672 0-97.338-35.927-97.338-80.086 0-1.042.027-2.112.082-3.2-2.66-2.292-5.086-4.904-7.52-8.092-2.617-3.466-4.75-6.98-6.54-10.756-2.14-4.592-3.41-8.7-4.003-12.95-.385-2.98-.373-5.664.033-8.25.23-1.312.573-2.946 1.285-4.68.39-1.06.97-2.133 1.29-2.69.35-.623.513-.868.763-1.2.068-.092.157-.213.364-.535l.08-.12.092-.12c2.516-3.33 5.628-5.21 7.797-6.21 2.33-1.06 4.84-1.76 7.69-2.13 1.46-.17 2.91-.26 4.37-.26 2.71 0 5.45.28 8.62.89 4.77 1 9.2 2.47 13.24 4.4 18.26-15.38 43.49-24.16 69.71-24.16 26.81 0 52.44 9.12 70.79 25.1 3.44-1.58 7.16-2.85 11.11-3.8 3.61-.8 6.67-1.16 9.72-1.16 1.09 0 2.19.05 3.26.15 2.89.29 5.43.92 7.79 1.91 2.22.96 5.38 2.77 7.97 6l.09.11.08.12c.22.32.32.45.4.55.27.33.43.57.82 1.21.55.9 1.03 1.84 1.35 2.63.6 1.37 1.04 2.82 1.4 4.57.5 2.6.59 5.3.29 8.28-.47 4.28-1.62 8.42-3.63 13.08-1.65 3.79-3.68 7.36-6.21 10.93-2.55 3.54-5.08 6.38-7.89 8.86.01.54.02 1.06.02 1.58 0 44.16-43.66 80.09-97.32 80.09zm83.776-120.88c2.247 3.12 4.23 6.358 5.938 9.696.23-.346.454-.692.67-1.04 1.293-2.1 2.256-4.21 2.71-5.937.236-.88.296-1.52.296-1.91-.307-.17-.81-.4-1.51-.56-1.296-.32-2.827-.48-4.504-.48-.828 0-1.695.03-2.576.11-.342.03-.683.07-1.024.11zM34.35 84.54c.013.39.093 1.023.347 1.867.51 1.736 1.533 3.82 2.89 5.898.374.57.775 1.138 1.197 1.7 1.882-3.59 4.085-7.063 6.594-10.396-.83-.11-1.663-.19-2.5-.24-.567-.04-1.165-.05-1.756-.05-1.995 0-3.79.2-5.195.6-.75.19-1.267.43-1.577.62z"/><path fill="#333" d="M128.196 49.646c27.95 0 53.023 10.02 70.125 25.888 3.98-2.1 8.26-3.634 12.7-4.7 2.8-.62 5.7-1.057 8.79-1.057.95 0 1.92.04 2.9.13 2.11.21 4.32.65 6.6 1.612 2.26.97 4.6 2.56 6.41 4.81.72 1.02.5.59 1.07 1.53.46.74.86 1.52 1.09 2.11.56 1.27.91 2.55 1.17 3.82.48 2.51.45 4.87.23 7.08-.48 4.4-1.75 8.26-3.32 11.89-1.58 3.62-3.52 6.98-5.8 10.2-2.31 3.21-4.91 6.26-8.35 9.09l-.28.23c-.02.02-.05.03-.07.05.06 1.12.1 2.24.1 3.37 0 42.02-41.77 76.08-93.32 76.08-51.55 0-93.34-34.07-93.34-76.09 0-1.68.08-3.34.21-4.99-3.45-2.71-6.1-5.64-8.46-8.73-2.37-3.15-4.4-6.47-6.1-10.04-1.67-3.59-3.04-7.41-3.66-11.8-.28-2.19-.37-4.55.03-7.08.23-1.28.53-2.57 1.07-3.86.21-.59.59-1.39 1.03-2.15.53-.95.35-.51 1.02-1.56 1.74-2.3 4.04-3.96 6.28-4.99 2.25-1.03 4.44-1.53 6.53-1.8 1.32-.16 2.6-.23 3.85-.23 2.74 0 5.34.34 7.87.82 5.13 1.07 10.04 2.79 14.58 5.26 17.06-15.32 41.7-24.94 69.1-24.94m-88.39 51.57c3.04-7.29 7.4-14.07 12.85-20.18-3.13-.9-6.36-1.45-9.53-1.65-.67-.04-1.35-.06-2.01-.06-2.24 0-4.41.23-6.27.74-2.47.64-4 1.91-4.26 2.78-.32.82-.4 2.46.28 4.71.65 2.2 1.87 4.63 3.37 6.93 1.57 2.38 3.51 4.71 5.58 6.72m177.15.99c1.88-1.98 3.62-4.23 5.02-6.51 1.44-2.34 2.6-4.82 3.18-7.03.62-2.28.48-3.91.14-4.72-.28-.87-1.84-2.1-4.33-2.66-1.62-.4-3.47-.58-5.39-.58-.96 0-1.94.04-2.92.12-2.61.25-5.26.73-7.85 1.45 5.18 6.05 9.3 12.75 12.16 19.91M128.25 41.6c-26.23 0-51.54 8.51-70.33 23.5-3.676-1.555-7.604-2.774-11.736-3.64l-.064-.013-.07-.01c-3.43-.66-6.41-.964-9.37-.965-1.62 0-3.23.1-4.81.29l-.04.007h-.04c-3.25.42-6.14 1.22-8.83 2.46-3.71 1.71-6.94 4.28-9.32 7.44l-.18.24-.164.25c-.08.13-.14.21-.18.27-.4.54-.66.94-1.07 1.67-.38.66-1.047 1.9-1.53 3.19-.847 2.09-1.25 4.05-1.48 5.36l-.02.08-.01.08c-.465 2.96-.48 6.02-.05 9.34l.002.04.01.04c.65 4.65 2.03 9.12 4.33 14.06 1.93 4.07 4.2 7.81 6.97 11.48 2.18 2.85 4.345 5.27 6.66 7.43-.01.5-.018.99-.018 1.47 0 22.77 10.752 44.08 30.28 60 19.05 15.53 44.29 24.08 71.053 24.08 26.76 0 51.99-8.56 71.04-24.09 19.472-15.88 30.22-37.13 30.27-59.84 2.494-2.36 4.8-5.04 7.097-8.24l.02-.02.02-.02c2.69-3.8 4.853-7.6 6.61-11.63 2.186-5.07 3.435-9.58 3.946-14.22l.003-.04v-.04c.33-3.38.23-6.44-.34-9.38l-.01-.05-.01-.05c-.41-2.01-.93-3.71-1.63-5.32-.4-.98-.98-2.1-1.64-3.18-.43-.71-.68-1.09-1.07-1.58-.05-.06-.12-.15-.26-.36l-.16-.23-.17-.21c-3.11-3.86-6.87-6.02-9.47-7.14l-.03-.02-.04-.01c-2.74-1.15-5.65-1.87-8.91-2.2l-.04-.01h-.04c-1.19-.11-2.41-.16-3.62-.16-3.35 0-6.69.39-10.52 1.25l-.07.01-.07.01c-3.31.79-6.49 1.81-9.48 3.03-18.91-15.59-44.64-24.44-71.48-24.44z"/><path fill="#676767" d="M62.52 81.19s-31.136-10.854-37.237-2c-6.092 8.857 7.293 30.082 17.734 37.272 0 0-6.102-22.848 19.502-35.27z"/><path fill="#B3B3B3" d="M60.49 84.268c-5.23-2.968-11.417-4.5-17.354-4.89-2.947-.168-5.88.017-8.287.69-2.48.642-4 1.908-4.27 2.776-.32.824-.4 2.46.28 4.716.64 2.202 1.87 4.636 3.37 6.93 3 4.556 7.34 8.954 11.4 11.202 4.46 2.484 6.07 8.108 3.58 12.566-2.48 4.46-8.11 6.067-12.56 3.585-.41-.224-.79-.472-1.14-.743l-.33-.25c-3.52-2.733-6.21-5.705-8.61-8.847-2.38-3.146-4.41-6.46-6.11-10.04-1.67-3.58-3.04-7.403-3.66-11.792-.29-2.19-.38-4.54.02-7.07.23-1.28.53-2.57 1.06-3.85.21-.58.59-1.38 1.03-2.14.53-.95.34-.51 1.02-1.56 1.74-2.3 4.03-3.96 6.27-4.99 2.24-1.02 4.44-1.53 6.53-1.8 4.19-.5 8.03-.11 11.71.59 7.27 1.53 14.13 4.3 20.06 8.77 1.62 1.24 1.95 3.56.71 5.19-1.13 1.5-3.18 1.89-4.77.98z"/><path fill="#676767" d="M193.333 83.197c-11.566-5.206 30.813-11.736 37.162-3.057 6.348 8.68-3.924 27.014-14.156 34.494 0 0 2.94-19.744-23.01-31.437z"/><path fill="#B3B3B3" d="M191.212 80.18c5.793-4.65 12.572-7.61 19.807-9.345 3.65-.81 7.47-1.307 11.68-.927 2.1.21 4.31.65 6.59 1.612 2.25.975 4.6 2.566 6.4 4.813.71 1.023.5.593 1.07 1.534.45.745.85 1.522 1.09 2.11.56 1.276.9 2.55 1.16 3.82.48 2.512.45 4.875.23 7.078-.49 4.402-1.76 8.26-3.33 11.896-1.58 3.62-3.53 6.99-5.81 10.21-2.31 3.21-4.92 6.26-8.36 9.09l-.28.23c-3.95 3.24-9.76 2.67-13.01-1.26s-2.67-9.76 1.27-13c.35-.28.77-.57 1.14-.81 4-2.37 8.21-6.88 11.08-11.52 1.44-2.33 2.59-4.81 3.17-7.02.62-2.27.47-3.91.14-4.71-.29-.86-1.85-2.09-4.34-2.66-2.43-.6-5.37-.7-8.31-.45-5.92.57-12.06 2.27-17.21 5.39-1.75 1.07-4.02.51-5.09-1.23-.97-1.6-.58-3.66.85-4.8z"/><path fill="#fff" d="M221.515 125.724c0 42.02-41.777 76.085-93.318 76.085-51.55 0-93.338-34.07-93.338-76.09s41.78-76.08 93.33-76.08c51.54 0 93.32 34.06 93.32 76.07z"/><path fill="#B3B3B3" d="M203.643 123.564c0 34.278-33.87 62.074-75.646 62.074-41.77 0-75.64-27.796-75.64-62.074 0-34.29 33.868-62.086 75.64-62.086 41.776 0 75.646 27.796 75.646 62.086z"/><path fill="#999898" d="M127.996 188.55c-43.31 0-78.55-29.157-78.55-64.985 0-35.84 35.24-64.994 78.55-64.994 43.316 0 78.557 29.16 78.557 65 0 35.83-35.24 64.99-78.557 64.99zm0-124.16c-40.105 0-72.73 26.546-72.73 59.175 0 32.625 32.625 59.168 72.73 59.168 40.107 0 72.738-26.543 72.738-59.168 0-32.63-32.63-59.175-72.738-59.175z"/><path fill="#333" d="M127.62 168.263c-3.216 0-6-2.603-6-5.818v-34.902c0-3.216 2.784-5.82 6-5.82s6 2.605 6 5.82v34.902c0 3.215-2.784 5.818-6 5.818z"/><path fill="#2974A7" d="M139.522 128.308c0 3.864-5.158 6.996-11.52 6.996-6.358 0-11.524-3.132-11.524-6.996 0-3.86 5.166-6.992 11.523-6.992 6.37 0 11.53 3.132 11.53 6.992z"/><path fill="#333" d="M151.27 168.38h-46.536c-3.217 0-5.818-2.78-5.818-6 0-3.215 2.602-6 5.818-6h46.537c3.22 0 5.82 2.785 5.82 6 0 3.22-2.6 6-5.81 6zm-40.722-41h-46.54c-3.214 0-5.815-2.78-5.815-6 0-3.215 2.602-6 5.816-6h46.53c3.21 0 5.82 2.785 5.82 6 0 3.22-2.61 6-5.82 6zm81.44 0H145.45c-3.217 0-5.818-2.78-5.818-6 0-3.215 2.602-6 5.818-6h46.535c3.215 0 5.82 2.785 5.82 6 0 3.22-2.605 6-5.82 6z"/></svg>