<svg xmlns="http://www.w3.org/2000/svg" width="256" height="256" viewBox="0 0 256 256"><path fill="#fff" d="M128.23 208.08c-24.226 0-47.435-7.355-65.353-20.71-17.313-12.905-28.33-30.338-31.22-49.302-2.97-1.352-5.72-2.872-8.355-4.617-4.204-2.82-7.415-5.68-10.125-9.01-1.87-2.35-3.247-4.66-4.236-7.08-.47-1.24-1.02-2.81-1.32-4.66-.21-1.09-.27-2.32-.28-2.96-.02-.72-.01-1.02.04-1.43.01-.11.03-.26.04-.63l.01-.15.02-.15c.43-4.15 2.12-7.38 3.47-9.35 1.45-2.11 3.24-4.01 5.48-5.8 3.25-2.53 6.87-4.48 11.45-6.17 6.32-2.21 12.53-3.32 18.53-3.32.52 0 1.05.01 1.57.03 18.19-21.83 48.04-34.81 80.33-34.81 32.27 0 62.12 12.98 80.3 34.8.38-.01.76-.01 1.14-.01 6 0 12.22 1.12 18.47 3.31 4.64 1.71 8.27 3.66 11.47 6.16 2.28 1.82 4.07 3.71 5.51 5.83 1.35 1.98 3.04 5.2 3.47 9.36l.02.15.01.15c.01.38.03.53.04.64.04.41.05.72.03 1.47-.02.64-.08 1.87-.29 2.94-.29 1.83-.84 3.41-1.29 4.58-1.02 2.51-2.4 4.81-4.24 7.13-2.74 3.37-5.95 6.23-10.13 9.04-2.5 1.66-5.1 3.11-7.91 4.41-2.83 19.02-13.82 36.51-31.15 49.46-17.92 13.4-41.16 20.77-65.42 20.77zM28.36 108.042c.212.326.605.825 1.257 1.413.857.786 1.976 1.59 3.267 2.352.818-3.288 1.886-6.522 3.197-9.69-.34.167-.68.338-1.02.514-2.35 1.24-4.37 2.69-5.66 4.06-.54.56-.86 1.04-1.03 1.36zm192.107-5.656c1.23 3.008 2.24 6.078 3.028 9.193 1.125-.69 2.104-1.41 2.86-2.1.67-.61 1.07-1.11 1.284-1.44-.17-.32-.48-.78-.99-1.3-1.34-1.43-3.36-2.87-5.74-4.13-.15-.08-.31-.16-.46-.24z"/><path fill="#333" d="M128.23 51.92c32.917 0 61.85 13.896 78.463 34.883.993-.066 1.984-.1 2.974-.1 5.83 0 11.578 1.127 17.145 3.08 3.516 1.295 7.012 2.948 10.334 5.54 1.654 1.32 3.27 2.884 4.664 4.924 1.387 2.037 2.494 4.645 2.79 7.514.034 1.25.103.78.067 1.87-.023.88-.102 1.76-.23 2.37-.208 1.38-.618 2.64-1.08 3.85-.968 2.37-2.263 4.34-3.638 6.08-2.8 3.44-5.95 6-9.23 8.21-2.98 1.98-6.09 3.61-9.36 4.99-4.4 38.69-44.31 68.98-92.91 68.98-48.53 0-88.4-30.19-92.91-68.78-3.44-1.42-6.69-3.12-9.81-5.18-3.29-2.2-6.44-4.77-9.23-8.2-1.38-1.73-2.67-3.7-3.64-6.07-.47-1.21-.88-2.47-1.09-3.85-.13-.6-.21-1.48-.23-2.36-.04-1.09.03-.62.06-1.86.29-2.86 1.4-5.47 2.79-7.51 1.39-2.04 3.01-3.6 4.66-4.92 3.32-2.59 6.81-4.24 10.33-5.54 5.57-1.95 11.31-3.08 17.14-3.08 1.13 0 2.26.05 3.39.13C66.3 65.86 95.25 51.96 128.2 51.96m-92.467 65.7c1.33-7.96 4.167-15.53 8.277-22.51-3.78.83-7.46 2.22-10.815 3.957-2.61 1.377-5.03 3.05-6.735 4.87-1.79 1.835-2.438 3.703-2.216 4.584.15.87.92 2.32 2.67 3.89 1.69 1.56 4 3 6.47 4.2.76.36 1.55.7 2.35 1.01m184.894-.15c.66-.27 1.31-.55 1.94-.85 2.47-1.19 4.775-2.64 6.47-4.19 1.75-1.58 2.52-3.02 2.68-3.89.22-.88-.43-2.75-2.22-4.58-1.71-1.82-4.125-3.49-6.736-4.87-3.2-1.66-6.71-3-10.31-3.84 4.05 6.9 6.85 14.38 8.18 22.24m-92.42-73.56c-32.74 0-63.11 12.93-82.15 34.79-6.37.03-12.944 1.22-19.54 3.53l-.06.02-.06.02c-4.98 1.83-8.95 3.98-12.49 6.74l-.04.03-.03.03c-2.56 2.05-4.61 4.23-6.28 6.67-2.307 3.39-3.736 7.26-4.14 11.21l-.03.3-.01.3-.01.32c-.07.67-.086 1.15-.06 2 .02.92.102 2.26.342 3.53.36 2.21 1.02 4.09 1.495 5.33l.03.08.03.08c1.13 2.78 2.69 5.4 4.77 8.02l.03.04.03.04c2.97 3.65 6.45 6.76 10.98 9.8l.02.02.02.01c2.23 1.48 4.53 2.8 6.96 4 3.52 19.19 14.91 36.73 32.43 49.79 18.6 13.87 42.66 21.51 67.74 21.51 25.12 0 49.21-7.67 67.82-21.58 17.55-13.11 28.91-30.72 32.37-49.96 2.27-1.14 4.41-2.38 6.49-3.76l.02-.01.02-.01c4.52-3.04 8.01-6.15 10.98-9.8l.03-.04.03-.04c2.08-2.62 3.64-5.24 4.77-8.02l.03-.08.03-.08c.51-1.34 1.14-3.15 1.48-5.31.24-1.26.32-2.61.34-3.54.02-.82.01-1.3-.05-1.95-.01-.1-.01-.19-.02-.34l-.01-.3-.03-.3c-.41-3.95-1.84-7.82-4.14-11.2-1.68-2.46-3.73-4.64-6.29-6.68l-.03-.02-.04-.03c-3.54-2.76-7.51-4.91-12.49-6.74l-.06-.02-.06-.02c-6.42-2.27-12.84-3.45-19.08-3.53C191.27 56.94 160.9 44 128.17 44z"/><path fill="#676767" d="M50.747 90.608s-32.267 6.804-32.916 17.54c-.63 10.73 21.8 21.98 34.45 22.74 0 0-17.03-16.404-1.53-40.28z"/><path fill="#B3B3B3" d="M50.598 94.292c-6.01.163-12.102 2.052-17.383 4.788-2.613 1.376-5.028 3.05-6.737 4.87-1.79 1.834-2.438 3.702-2.216 4.583.152.87.926 2.313 2.674 3.892 1.693 1.554 4 3 6.47 4.194 4.93 2.34 10.915 3.86 15.558 3.69 5.105-.19 9.384 3.8 9.564 8.9.178 5.1-3.805 9.38-8.902 9.56-.465.02-.914.01-1.356-.05l-.41-.06c-4.42-.52-8.26-1.67-11.935-3.12-3.664-1.48-7.11-3.26-10.414-5.44-3.28-2.21-6.43-4.77-9.23-8.21-1.37-1.73-2.67-3.71-3.63-6.07-.46-1.22-.87-2.48-1.08-3.86-.12-.61-.2-1.49-.22-2.37-.03-1.09.04-.62.07-1.87.3-2.87 1.41-5.48 2.79-7.52 1.4-2.04 3.01-3.61 4.67-4.93 3.33-2.59 6.82-4.25 10.34-5.54 7.02-2.46 14.32-3.64 21.71-2.87 2.03.22 3.51 2.04 3.28 4.06-.19 1.87-1.74 3.27-3.57 3.31z"/><path fill="#676767" d="M205.255 90.608s32.266 6.804 32.912 17.54c.637 10.73-21.797 21.98-34.445 22.74 0 0 17.03-16.404 1.533-40.28z"/><path fill="#B3B3B3" d="M205.4 94.292c6.01.163 12.1 2.052 17.386 4.788 2.61 1.376 5.025 3.05 6.736 4.87 1.79 1.834 2.438 3.702 2.215 4.583-.154.87-.926 2.313-2.676 3.892-1.69 1.554-4 3-6.46 4.194-4.92 2.34-10.91 3.86-15.55 3.69-5.1-.19-9.38 3.8-9.56 8.9-.17 5.1 3.81 9.38 8.9 9.56.47.02.92.01 1.36-.05l.41-.06c4.42-.52 8.26-1.67 11.94-3.12 3.67-1.48 7.11-3.26 10.42-5.44 3.29-2.21 6.44-4.77 9.23-8.21 1.38-1.73 2.67-3.71 3.64-6.07.47-1.22.88-2.48 1.09-3.86.13-.61.21-1.49.23-2.37.04-1.09-.03-.62-.06-1.87-.3-2.87-1.4-5.48-2.79-7.52-1.39-2.04-3.01-3.61-4.66-4.93-3.32-2.59-6.81-4.25-10.33-5.54-7.01-2.46-14.31-3.64-21.7-2.87-2.03.22-3.51 2.04-3.28 4.06.2 1.87 1.75 3.27 3.58 3.31z"/><path fill="#fff" d="M221.546 127.995c0 42.02-41.777 76.084-93.316 76.084-51.55 0-93.338-34.07-93.338-76.09S76.68 51.91 128.23 51.91c51.54 0 93.316 34.06 93.316 76.075z"/><path fill="#B3B3B3" d="M203.643 130.92c0 38.745-33.87 70.16-75.646 70.16-41.77 0-75.64-31.415-75.64-70.16 0-38.753 33.87-70.17 75.64-70.17 41.774 0 75.646 31.417 75.646 70.17z"/><path fill="#999898" d="M127.997 203.99c-43.312 0-78.55-32.78-78.55-73.07 0-40.292 35.238-73.076 78.55-73.076 43.315 0 78.556 32.784 78.556 73.077 0 40.29-35.24 73.07-78.556 73.07zm0-140.33c-40.104 0-72.73 30.17-72.73 67.26 0 37.082 32.626 67.253 72.73 67.253 40.108 0 72.737-30.17 72.737-67.252 0-37.09-32.63-67.26-72.737-67.26zm0 140.33c-43.312 0-78.55-32.78-78.55-73.07 0-40.292 35.238-73.076 78.55-73.076 43.315 0 78.556 32.784 78.556 73.077 0 40.29-35.24 73.07-78.556 73.07zm0-140.33c-40.104 0-72.73 30.17-72.73 67.26 0 37.082 32.626 67.253 72.73 67.253 40.108 0 72.737-30.17 72.737-67.252 0-37.09-32.63-67.26-72.737-67.26z"/><path fill="#333" d="M127.62 176.352c-3.214 0-6-2.6-6-5.817V141.45c0-3.216 2.786-5.818 6-5.818s6 2.603 6 5.817v29.08c0 3.21-2.788 5.81-6 5.81z"/><path fill="#2974A7" d="M139.52 142.216c0 3.864-5.16 6.993-11.52 6.993-6.357 0-11.52-3.13-11.52-7s5.163-6.99 11.52-6.99c6.36 0 11.52 3.13 11.52 6.99z"/><path fill="#333" d="M163.388 193.73c-1.61 0-3.21-.664-4.36-1.966-.12-.136-13.228-14.597-30.65-15.217-10.884-.315-21.538 4.782-31.535 15.36-2.205 2.333-5.89 2.436-8.225.23-2.334-2.204-2.438-5.884-.23-8.22 12.39-13.118 25.927-19.626 40.4-18.998 22.504.8 38.295 18.39 38.957 19.14 2.127 2.4 1.9 6.08-.508 8.2-1.107.98-2.48 1.46-3.85 1.46zm4.414-40.648c-3.953 0-8.05-.71-11.902-2.635-8.725-4.363-14.052-13.708-15.838-27.776-.3-2.39 1.39-4.58 3.78-4.88 2.44-.27 4.575 1.4 4.878 3.78 1.39 10.99 5.113 18.08 11.06 21.07 10.413 5.23 25.155-2.95 25.304-3.03 2.092-1.17 4.75-.46 5.94 1.65 1.19 2.09.462 4.75-1.63 5.94-.563.33-10.538 5.9-21.592 5.9zm-80.017 5.348c-7.093 0-14.55-4.22-22.232-12.6-1.63-1.78-1.51-4.536.267-6.163 1.775-1.626 4.536-1.507 6.164.266 7.016 7.65 13.15 10.867 18.206 9.442 9.72-2.66 15.793-21.696 17.152-28.147.494-2.36 2.832-3.864 5.168-3.376 2.36.5 3.867 2.813 3.37 5.168-.645 3.084-6.815 30.234-23.386 34.773-1.55.425-3.122.636-4.71.636z"/></svg>