<svg xmlns="http://www.w3.org/2000/svg" width="256" height="256" viewBox="0 0 256 256"><path fill="#fff" d="M128.197 208.08c-53.674 0-97.34-35.926-97.34-80.083 0-1.042.027-2.114.082-3.204-2.67-2.297-5.1-4.91-7.52-8.09-2.63-3.478-4.76-6.99-6.54-10.752-2.14-4.59-3.41-8.7-4.01-12.95-.39-2.97-.38-5.66.03-8.25.23-1.32.58-2.96 1.29-4.69.38-1.04.96-2.11 1.27-2.66.36-.64.52-.88.77-1.22.07-.09.16-.21.36-.53l.08-.12.09-.11c2.51-3.32 5.62-5.21 7.78-6.21 2.33-1.06 4.85-1.76 7.69-2.13 1.46-.18 2.92-.26 4.37-.26 2.7 0 5.44.28 8.61.89 4.76 1 9.19 2.47 13.24 4.4 18.25-15.39 43.49-24.17 69.71-24.17 26.81 0 52.43 9.12 70.78 25.11 3.43-1.58 7.16-2.85 11.1-3.8 3.6-.8 6.67-1.17 9.72-1.17 1.09 0 2.19.05 3.26.15 2.91.3 5.44.92 7.8 1.92 2.2.95 5.36 2.76 7.96 5.99l.08.11.08.12c.22.32.32.45.4.54.26.33.42.56.8 1.2.52.85 1.02 1.82 1.35 2.62.59 1.35 1.02 2.77 1.4 4.57.5 2.62.59 5.31.29 8.29-.47 4.29-1.62 8.43-3.63 13.08-1.65 3.79-3.69 7.36-6.22 10.93-2.55 3.54-5.08 6.38-7.89 8.86.01.54.02 1.06.02 1.58 0 44.15-43.66 80.08-97.32 80.08zm83.778-120.877c2.246 3.12 4.23 6.357 5.938 9.694.23-.344.45-.69.664-1.034 1.296-2.094 2.258-4.202 2.714-5.942.24-.87.3-1.51.3-1.9-.3-.17-.8-.39-1.5-.55-1.3-.32-2.83-.48-4.52-.48-.82 0-1.69.04-2.57.12-.34.03-.68.07-1.02.11zm-177.625-.39c.013.39.092 1.02.346 1.86.51 1.738 1.53 3.823 2.887 5.904.376.57.777 1.138 1.2 1.7 1.88-3.59 4.083-7.062 6.59-10.394-.826-.104-1.66-.183-2.497-.237-.58-.034-1.184-.053-1.78-.053-1.98 0-3.77.207-5.175.598-.74.2-1.26.44-1.57.63z"/><path fill="#333" d="M128.197 51.917c27.95 0 53.024 10.02 70.126 25.89 3.98-2.102 8.25-3.635 12.696-4.7 2.79-.62 5.69-1.057 8.78-1.057.94 0 1.91.04 2.9.13 2.1.21 4.31.648 6.58 1.614 2.25.97 4.6 2.564 6.4 4.813.71 1.023.49.59 1.06 1.532.46.74.86 1.52 1.09 2.1.56 1.28.9 2.55 1.16 3.82.48 2.51.45 4.87.22 7.07-.48 4.4-1.75 8.26-3.32 11.89-1.58 3.62-3.53 6.98-5.81 10.2-2.31 3.21-4.91 6.26-8.35 9.09l-.28.22c-.02.02-.05.03-.08.05.06 1.12.1 2.24.1 3.38 0 42.02-41.78 76.08-93.32 76.08-51.55 0-93.34-34.07-93.34-76.09 0-1.68.07-3.34.2-4.99-3.44-2.7-6.1-5.63-8.46-8.73-2.37-3.15-4.41-6.46-6.1-10.04-1.67-3.59-3.05-7.41-3.66-11.8-.29-2.19-.38-4.55.02-7.08.23-1.28.53-2.56 1.06-3.86.21-.58.59-1.38 1.02-2.14.53-.95.34-.51 1.02-1.56 1.74-2.3 4.03-3.96 6.27-4.99 2.25-1.03 4.44-1.53 6.54-1.8 1.32-.16 2.6-.23 3.85-.23 2.73 0 5.33.34 7.85.82 5.14 1.07 10.05 2.79 14.59 5.26 17.08-15.32 41.72-24.95 69.13-24.95m-88.36 51.6c3.04-7.29 7.4-14.07 12.85-20.18-3.13-.9-6.36-1.45-9.53-1.65-.69-.04-1.37-.07-2.04-.07-2.24 0-4.4.23-6.25.74-2.48.64-4.01 1.91-4.27 2.77-.31.82-.4 2.46.28 4.71.65 2.2 1.87 4.63 3.37 6.93 1.57 2.38 3.51 4.71 5.58 6.72m177.15.99c1.88-1.98 3.62-4.23 5.02-6.51 1.45-2.33 2.6-4.81 3.18-7.03.62-2.27.48-3.91.14-4.72-.28-.87-1.84-2.09-4.33-2.66-1.62-.41-3.47-.59-5.4-.59-.95 0-1.93.04-2.91.12-2.61.24-5.25.73-7.85 1.44 5.18 6.05 9.3 12.75 12.15 19.91M128.2 43.91c-26.23 0-51.54 8.51-70.33 23.5-3.674-1.555-7.602-2.774-11.735-3.64l-.06-.013-.068-.01c-3.423-.656-6.4-.962-9.362-.962-1.615 0-3.235.096-4.815.287l-.036.004-.037.003c-3.25.42-6.14 1.22-8.828 2.45-3.73 1.72-6.95 4.29-9.33 7.44l-.18.23-.16.24c-.09.14-.14.22-.18.27-.41.54-.67.95-1.09 1.7-.44.77-1.06 1.94-1.51 3.16-.84 2.05-1.23 3.93-1.49 5.35l-.02.09-.01.08c-.47 2.97-.49 6.03-.05 9.35v.07c.65 4.65 2.02 9.12 4.33 14.06 1.91 4.05 4.19 7.79 6.96 11.47 2.17 2.85 4.34 5.27 6.66 7.42-.01.5-.02.99-.02 1.47 0 22.77 10.75 44.08 30.28 60 19.05 15.53 44.29 24.08 71.06 24.08 26.76 0 51.99-8.56 71.04-24.09 19.48-15.88 30.23-37.12 30.28-59.83 2.51-2.38 4.81-5.05 7.1-8.24l.02-.02.01-.02c2.69-3.8 4.85-7.6 6.61-11.63 2.18-5.05 3.43-9.56 3.94-14.23v-.06c.34-3.37.23-6.44-.32-9.38l-.01-.06-.02-.07c-.27-1.29-.73-3.24-1.63-5.32-.41-.99-.99-2.11-1.64-3.17-.43-.71-.68-1.08-1.06-1.56-.05-.06-.11-.15-.26-.36l-.16-.23-.18-.22c-3.11-3.88-6.87-6.03-9.48-7.16-2.77-1.18-5.68-1.9-8.95-2.23h-.04l-.04-.01c-1.19-.11-2.41-.16-3.62-.16-3.35 0-6.7.4-10.53 1.25l-.06.01-.06.02c-3.32.79-6.49 1.81-9.49 3.03-18.92-15.6-44.64-24.45-71.48-24.45z"/><path fill="#676767" d="M62.517 83.464s-31.135-10.856-37.236-2c-6.08 8.857 7.3 30.082 17.74 37.272 0 0-6.1-22.847 19.5-35.272z"/><path fill="#B3B3B3" d="M60.49 86.538c-5.23-2.964-11.416-4.498-17.355-4.882-2.945-.174-5.88.014-8.285.684-2.48.642-4.002 1.91-4.262 2.776-.318.826-.402 2.46.28 4.716.645 2.205 1.87 4.637 3.364 6.93 3.008 4.56 7.35 8.953 11.41 11.204 4.463 2.483 6.066 8.106 3.586 12.568-2.484 4.456-8.105 6.065-12.563 3.584-.408-.223-.783-.474-1.137-.744l-.322-.252c-3.516-2.733-6.21-5.7-8.605-8.844-2.37-3.15-4.41-6.46-6.1-10.038-1.67-3.585-3.04-7.407-3.66-11.795-.28-2.19-.37-4.55.02-7.08.23-1.275.53-2.563 1.07-3.856.21-.59.6-1.38 1.03-2.14.54-.95.35-.52 1.03-1.57 1.74-2.3 4.04-3.96 6.27-4.99 2.25-1.03 4.45-1.53 6.54-1.8 4.19-.51 8.03-.12 11.71.59 7.28 1.52 14.14 4.29 20.06 8.77 1.63 1.24 1.95 3.55.71 5.18-1.13 1.5-3.18 1.88-4.77.97z"/><path fill="#676767" d="M193.332 85.47c-11.566-5.205 30.813-11.737 37.168-3.056 6.346 8.68-3.93 27.012-14.158 34.492 0 0 2.943-19.745-23.01-31.435z"/><path fill="#B3B3B3" d="M191.213 82.456c5.79-4.655 12.572-7.615 19.807-9.347 3.65-.82 7.48-1.31 11.688-.93 2.1.21 4.313.65 6.588 1.61 2.252.97 4.603 2.56 6.406 4.81.71 1.02.496.59 1.063 1.53.46.74.86 1.52 1.094 2.1.56 1.28.9 2.55 1.16 3.82.48 2.51.44 4.87.22 7.07-.48 4.4-1.75 8.26-3.32 11.89-1.58 3.61-3.53 6.98-5.81 10.2-2.32 3.21-4.91 6.26-8.36 9.09l-.28.22c-3.95 3.24-9.76 2.67-13.01-1.27-3.24-3.94-2.67-9.77 1.27-13.01.35-.29.77-.58 1.14-.81 4-2.38 8.22-6.9 11.08-11.53 1.44-2.33 2.6-4.81 3.18-7.03.62-2.27.48-3.91.14-4.72-.28-.86-1.84-2.09-4.33-2.65-2.43-.6-5.37-.71-8.32-.46-5.92.56-12.06 2.27-17.21 5.39-1.74 1.06-4.02.51-5.08-1.23-.98-1.61-.59-3.66.84-4.8z"/><path fill="#fff" d="M221.518 127.997c0 42.02-41.778 76.083-93.32 76.083-51.548 0-93.34-34.064-93.34-76.083 0-42.015 41.792-76.08 93.34-76.08 51.54 0 93.32 34.065 93.32 76.08z"/><path fill="#B3B3B3" d="M201.508 125.837c0 34.28-33.865 62.075-75.65 62.075-41.767 0-75.636-27.795-75.636-62.075 0-34.29 33.87-62.085 75.637-62.085 41.78 0 75.64 27.796 75.64 62.085z"/><path fill="#999898" d="M125.86 190.822c-43.312 0-78.55-29.156-78.55-64.985 0-35.84 35.238-64.994 78.55-64.994 43.318 0 78.558 29.155 78.558 64.994 0 35.83-35.24 64.985-78.56 64.985zm0-124.162c-40.106 0-72.73 26.547-72.73 59.178 0 32.625 32.623 59.167 72.73 59.167 40.11 0 72.74-26.54 72.74-59.167 0-32.63-32.63-59.178-72.74-59.178z"/><path fill="#fff" d="M199.225 117.68c0 19.498-15.797 35.294-35.295 35.294-19.502 0-35.3-15.798-35.3-35.293 0-19.49 15.798-35.29 35.3-35.29 19.498 0 35.295 15.81 35.295 35.3z"/><path fill="#2974A7" d="M184.19 122.125c0 11.223-9.104 20.33-20.34 20.33-11.23 0-20.33-9.105-20.33-20.33 0-11.24 9.1-20.337 20.33-20.337 11.238 0 20.34 9.096 20.34 20.337z"/><path fill="#fff" d="M160.742 116.25c0 3.828-3.098 6.93-6.936 6.93-3.828 0-6.935-3.102-6.935-6.93 0-3.83 3.11-6.93 6.94-6.93 3.84 0 6.94 3.1 6.94 6.93zm7.64 7.486c0 1.797-1.466 3.25-3.26 3.25-1.794 0-3.253-1.453-3.253-3.25 0-1.807 1.45-3.26 3.25-3.26s3.26 1.453 3.26 3.26z"/><path fill="#B3B3B3" d="M128.825 109.08c.407-.056.817-.112 1.24-.177 23.687-3.613 48.734.755 69.96 7.112-.88-19.18-17.63-35.515-37.025-35.515-16.994 0-30.31 12.783-34.175 28.58z"/><path fill="#999898" d="M147.995 110.506c17.98 0 36.108 3.746 52.038 8.588.018-.462.035-.925.035-1.392 0-1.65-.12-3.27-.334-4.86-15.836-4.646-33.74-8.155-51.74-8.155-6.247 0-12.324-.13-18.062.713-.84 2.324-1.445 4.76-1.794 7.28.77-.14 1.558-.277 2.363-.4 5.55-.846 11.44-1.774 17.5-1.774z"/><path fill="#333" d="M97.11 179.266c-2.108 0-4.136-1.143-5.17-3.14-1.478-2.853-.364-6.366 2.49-7.84 11.905-6.173 40.45-20.532 48.242-20.532 9.197 0 16.225 6.137 16.998 6.842 2.38 2.156 2.557 5.832.398 8.213-2.166 2.37-5.846 2.54-8.217.4-1.18-1.05-5.18-3.83-9.18-3.83-4.13.3-25.5 10.21-42.89 19.23-.85.44-1.76.65-2.67.65zm29.51-20.366c-3.216 0-6-2.603-6-5.816v-23.27c0-3.215 2.784-5.816 6-5.816 3.214 0 6 2.602 6 5.816v23.27c0 3.215-2.786 5.816-6 5.816z"/><path fill="#999898" d="M146.432 186.332c0 4.086-9.012 1.58-20.124 1.58-11.11 0-20.12 2.506-20.12-1.58 0-4.082 22.95-20.154 34.06-20.154s6.184 16.072 6.184 20.154zm-20.85-113.6s-23.27 16.36-11.63 31.27c11.63 14.904 6.54 23.995 6.54 23.995L128.5 112.5l13-8.25s-15.553-11.885-15.918-31.517z"/><path fill="#fff" d="M123.6 117.68c0 19.498-15.798 35.294-35.296 35.294-19.5 0-35.295-15.798-35.295-35.293 0-19.49 15.79-35.29 35.29-35.29s35.29 15.81 35.29 35.3z"/><path fill="#2974A7" d="M108.564 122.125c0 11.223-9.104 20.33-20.34 20.33-11.23 0-20.332-9.105-20.332-20.33 0-11.24 9.104-20.337 20.332-20.337 11.236 0 20.34 9.096 20.34 20.337z"/><path fill="#fff" d="M85.12 116.25c0 3.828-3.103 6.93-6.94 6.93-3.83 0-6.93-3.102-6.93-6.93 0-3.83 3.1-6.93 6.93-6.93 3.837 0 6.94 3.1 6.94 6.93zm7.635 7.486c0 1.797-1.463 3.25-3.258 3.25s-3.256-1.453-3.256-3.25c0-1.807 1.47-3.26 3.26-3.26s3.26 1.453 3.26 3.26z"/><path fill="#2974A7" d="M137.986 130.582c0 3.86-5.158 6.992-11.522 6.992-6.357 0-11.523-3.13-11.523-6.992 0-3.865 5.17-6.994 11.53-6.994 6.37 0 11.52 3.13 11.52 6.994z"/></svg>