<svg xmlns="http://www.w3.org/2000/svg" width="256" height="256" viewBox="0 0 256 256"><path fill="#333" d="M128.228 51.92c32.92 0 61.854 13.896 78.466 34.884.995-.066 1.988-.1 2.98-.1 5.828 0 11.575 1.125 17.14 3.077 3.516 1.3 7.008 2.95 10.334 5.55 1.652 1.32 3.273 2.88 4.664 4.92 1.385 2.04 2.494 4.65 2.79 7.52.034 1.24.1.77.067 1.86-.03.88-.1 1.76-.23 2.37-.21 1.38-.62 2.64-1.09 3.85-.97 2.37-2.26 4.34-3.64 6.08-2.8 3.44-5.95 6-9.23 8.21-2.98 1.97-6.09 3.6-9.36 4.98-4.4 38.69-44.31 68.98-92.91 68.98-48.53 0-88.4-30.19-92.91-68.78-3.44-1.42-6.69-3.11-9.81-5.18-3.29-2.2-6.44-4.77-9.23-8.2-1.38-1.73-2.67-3.7-3.64-6.07-.47-1.21-.88-2.47-1.09-3.85-.13-.6-.21-1.49-.23-2.36-.04-1.09.03-.62.06-1.86.3-2.87 1.4-5.48 2.79-7.52 1.4-2.04 3.02-3.6 4.67-4.92 3.32-2.6 6.82-4.25 10.34-5.55 5.56-1.95 11.31-3.07 17.14-3.07 1.13 0 2.26.04 3.39.13 16.62-21.01 45.57-34.92 78.51-34.92m-92.47 65.7c1.33-7.96 4.16-15.53 8.27-22.5-3.78.83-7.46 2.22-10.82 3.96-2.61 1.37-5.03 3.05-6.73 4.87-1.79 1.84-2.44 3.71-2.21 4.59.15.87.93 2.31 2.68 3.89 1.69 1.55 4 3 6.47 4.19.76.36 1.55.7 2.34 1.02m184.9-.15c.66-.27 1.31-.56 1.94-.86 2.47-1.19 4.77-2.64 6.47-4.19 1.75-1.58 2.52-3.02 2.68-3.89.22-.88-.43-2.75-2.22-4.59-1.71-1.82-4.12-3.5-6.74-4.87-3.21-1.66-6.71-3-10.32-3.84 4.04 6.9 6.85 14.37 8.18 22.23m-92.43-73.55c-32.74 0-63.11 12.93-82.15 34.78-6.38.03-12.95 1.21-19.54 3.52l-.06.03-.06.02c-4.98 1.84-8.95 3.98-12.49 6.75l-.03.03-.04.03c-2.56 2.05-4.62 4.23-6.28 6.66-2.3 3.39-3.73 7.27-4.14 11.22l-.04.31-.01.31-.01.31c-.07.67-.08 1.15-.06 2 .03.91.11 2.25.35 3.52.35 2.18.98 3.99 1.5 5.33l.03.07.03.07c1.13 2.77 2.69 5.39 4.78 8.03l.03.04.03.04c2.96 3.65 6.45 6.76 10.98 9.8l.03.02.02.01c2.23 1.48 4.53 2.8 6.96 4 3.56 19.16 14.94 36.7 32.47 49.76 18.6 13.87 42.66 21.51 67.74 21.51 25.12 0 49.21-7.66 67.82-21.57 17.55-13.11 28.91-30.71 32.37-49.96 2.27-1.14 4.41-2.38 6.49-3.76l.02-.01.02-.02c4.52-3.04 8.01-6.15 10.98-9.8l.03-.04.03-.04c2.08-2.63 3.64-5.26 4.77-8.03l.03-.07.03-.07c.48-1.23 1.14-3.1 1.5-5.32.25-1.28.33-2.64.35-3.59.02-.81.01-1.29-.05-1.93-.01-.11-.01-.2-.01-.35l-.01-.3-.03-.3c-.51-4.99-2.53-8.84-4.13-11.2-1.67-2.45-3.72-4.63-6.29-6.68l-.03-.03-.04-.03c-3.54-2.77-7.51-4.91-12.48-6.75l-.06-.02-.06-.02c-6.44-2.26-12.86-3.44-19.1-3.52-19.01-21.87-49.39-34.8-82.12-34.8z"/><path fill="#676767" d="M50.747 90.612s-32.27 6.8-32.916 17.534c-.63 10.733 21.8 21.98 34.45 22.74 0 .002-17.03-16.403-1.53-40.274z"/><path fill="#B3B3B3" d="M50.598 94.293c-6.008.163-12.1 2.05-17.383 4.79-2.61 1.373-5.03 3.05-6.738 4.865-1.79 1.84-2.438 3.706-2.215 4.587.152.868.928 2.31 2.676 3.89 1.693 1.553 3.998 3 6.47 4.19 4.927 2.35 10.915 3.87 15.556 3.696 5.105-.18 9.385 3.8 9.564 8.91.178 5.11-3.807 9.39-8.9 9.56-.467.02-.914.01-1.36-.04l-.407-.05c-4.42-.51-8.26-1.67-11.93-3.12-3.66-1.47-7.11-3.25-10.41-5.43-3.28-2.21-6.44-4.77-9.23-8.21-1.37-1.73-2.67-3.7-3.63-6.07-.46-1.21-.87-2.47-1.08-3.85-.12-.6-.2-1.49-.23-2.36-.03-1.09.04-.62.07-1.86.3-2.87 1.4-5.48 2.79-7.52 1.4-2.04 3.02-3.6 4.67-4.92 3.32-2.6 6.81-4.25 10.33-5.55 7.02-2.46 14.32-3.63 21.71-2.86 2.03.23 3.51 2.04 3.28 4.07-.19 1.87-1.75 3.26-3.58 3.31z"/><path fill="#676767" d="M205.255 90.612s32.268 6.8 32.914 17.534c.63 10.733-21.8 21.98-34.46 22.74 0 .002 17.03-16.403 1.53-40.274z"/><path fill="#B3B3B3" d="M205.4 94.293c6.013.163 12.1 2.05 17.386 4.79 2.615 1.373 5.027 3.05 6.738 4.865 1.79 1.84 2.436 3.706 2.215 4.587-.16.868-.93 2.31-2.68 3.89-1.69 1.553-4 3-6.47 4.19-4.93 2.35-10.92 3.87-15.56 3.696-5.11-.18-9.39 3.8-9.57 8.91-.18 5.11 3.8 9.39 8.9 9.56.46.02.91.01 1.35-.04l.4-.05c4.42-.51 8.26-1.67 11.94-3.12 3.66-1.47 7.11-3.25 10.41-5.43 3.28-2.21 6.43-4.77 9.23-8.21 1.37-1.73 2.67-3.7 3.63-6.07.46-1.21.87-2.47 1.08-3.85.12-.6.2-1.49.22-2.36.03-1.09-.04-.62-.07-1.86-.3-2.87-1.41-5.48-2.79-7.52-1.39-2.04-3.01-3.6-4.67-4.92-3.33-2.59-6.82-4.24-10.34-5.54-7.02-2.46-14.32-3.63-21.71-2.86-2.03.22-3.5 2.04-3.28 4.07.19 1.87 1.75 3.26 3.57 3.3z"/><path fill="#fff" d="M221.546 127.996c0 42.02-41.777 76.085-93.318 76.085-51.547 0-93.338-34.06-93.338-76.08 0-42.01 41.79-76.07 93.338-76.07 51.54 0 93.318 34.06 93.318 76.08z"/><path fill="#B3B3B3" d="M201.54 132.137c0 34.762-33.87 62.944-75.647 62.944-41.77 0-75.64-28.18-75.64-62.94s33.87-62.94 75.64-62.94c41.778 0 75.647 28.18 75.647 62.95z"/><path fill="#999898" d="M125.893 198.99c-43.31 0-78.55-29.544-78.55-65.854 0-36.313 35.24-65.857 78.55-65.857 43.317 0 78.555 29.54 78.555 65.85 0 36.31-35.238 65.85-78.555 65.85zm0-125.895c-40.107 0-72.732 26.936-72.732 60.042 0 33.103 32.63 60.035 72.74 60.035s72.74-26.933 72.74-60.035c0-33.107-32.63-60.042-72.73-60.042z"/><path fill="#333" d="M127.62 164.717c-3.214 0-5-2.602-5-5.813V141.45c0-3.217 1.786-5.816 5-5.816 3.218 0 5 2.6 5 5.816v17.454c0 3.21-1.782 5.813-5 5.813z"/><path fill="#2974A7" d="M139.52 142.216c0 3.863-5.157 6.994-11.522 6.994-6.354 0-11.516-3.13-11.516-6.994 0-3.862 5.162-6.992 11.516-6.992 6.364 0 11.52 3.13 11.52 6.992z"/><path fill="#333" d="M163.386 182.098c-1.61 0-3.21-.668-4.357-1.967-.13-.13-13.24-14.59-30.65-15.22-11.04-.28-21.55 4.79-31.54 15.37-2.21 2.34-5.89 2.44-8.22.24-2.34-2.2-2.45-5.88-.23-8.22 12.39-13.11 26.06-19.64 40.4-18.99 22.5.8 38.29 18.39 38.95 19.14 2.12 2.41 1.9 6.09-.51 8.21-1.11.98-2.49 1.46-3.85 1.46z"/><path fill="#fff" d="M182.18 131.28s-12.6 25.683-2.42 29.563c10.18 3.88 15.018-10.162 2.42-29.563z"/><path fill="#333" d="M95.392 155.304c-8.04 0-14.447-8.063-20.168-25.393-.754-2.28.484-4.75 2.77-5.51 2.292-.76 4.76.39 5.513 2.68 6.096 18.47 10.965 19.31 11.88 19.31h.005c3.932 0 10.066-10.12 13.11-19.3.757-2.29 3.216-3.48 5.513-2.72 2.287.76 3.525 3.25 2.77 5.54-1.397 4.24-9.01 25.42-21.393 25.42zm63.988 0c-8.036 0-14.444-8.063-20.165-25.393-.756-2.28.484-4.75 2.77-5.51 2.29-.76 4.762.39 5.512 2.68 6.096 18.47 10.965 19.31 11.88 19.31h.005c3.932 0 10.068-10.12 13.11-19.3.76-2.29 3.228-3.48 5.513-2.72 2.29.76 3.527 3.25 2.77 5.54-1.396 4.24-9.01 25.42-21.394 25.42z"/></svg>