<svg xmlns="http://www.w3.org/2000/svg" width="256" height="256" viewBox="0 0 256 256"><path fill="#fff" d="M128.195 208.08c-53.67 0-97.336-35.925-97.336-80.084 0-1.04.02-2.11.08-3.2-2.67-2.296-5.1-4.91-7.52-8.092-2.63-3.487-4.77-7-6.54-10.758-2.14-4.586-3.41-8.693-4.01-12.945-.39-2.96-.38-5.65.03-8.25.23-1.31.58-2.94 1.28-4.68.37-1.01.95-2.09 1.27-2.66.37-.65.53-.9.78-1.23.06-.09.15-.21.36-.53l.08-.12.09-.11c2.51-3.33 5.62-5.22 7.79-6.21 2.33-1.06 4.84-1.76 7.68-2.13 1.45-.17 2.9-.26 4.35-.26 2.7 0 5.44.29 8.62.89 4.77 1 9.2 2.47 13.24 4.41 18.25-15.39 43.48-24.17 69.71-24.17 26.81 0 52.43 9.12 70.78 25.11 3.44-1.58 7.16-2.85 11.1-3.8 3.61-.8 6.67-1.17 9.72-1.17 1.09 0 2.19.05 3.26.15 2.9.29 5.44.92 7.79 1.92 2.21.96 5.37 2.76 7.96 6l.08.1.07.11c.22.32.33.46.4.55.26.34.42.56.81 1.21.55.9 1.03 1.84 1.36 2.63.76 1.78 1.16 3.45 1.39 4.57.5 2.63.59 5.32.29 8.29-.47 4.27-1.62 8.41-3.63 13.08-1.66 3.79-3.69 7.36-6.22 10.93-2.55 3.54-5.08 6.38-7.89 8.86.01.54.02 1.06.02 1.58 0 44.16-43.66 80.09-97.32 80.09l.07-.07zM211.97 87.204c2.248 3.12 4.23 6.358 5.94 9.696.23-.346.45-.692.666-1.038 1.293-2.092 2.255-4.2 2.71-5.94.24-.872.3-1.515.3-1.906-.31-.173-.813-.396-1.516-.558-1.288-.318-2.822-.48-4.502-.48-.827 0-1.694.04-2.577.114-.33.033-.67.07-1.02.11v.002zm-177.62-.39c.013.393.092 1.026.345 1.87.51 1.734 1.534 3.82 2.888 5.89.377.572.778 1.142 1.2 1.705 1.883-3.59 4.086-7.07 6.595-10.4-.83-.11-1.664-.19-2.503-.24-.56-.03-1.152-.05-1.74-.05-2 0-3.8.21-5.208.6-.75.19-1.268.43-1.578.62z"/><path fill="#333" d="M128.195 51.92c27.948 0 53.022 10.018 70.125 25.886 3.98-2.1 8.248-3.632 12.695-4.697 2.795-.62 5.693-1.06 8.786-1.06.95 0 1.92.04 2.9.13 2.11.21 4.32.64 6.59 1.61 2.25.97 4.61 2.56 6.41 4.81.72 1.02.5.59 1.07 1.53.46.74.86 1.52 1.1 2.1.57 1.28.9 2.55 1.17 3.82.48 2.51.45 4.87.23 7.08-.48 4.4-1.76 8.26-3.32 11.89-1.58 3.62-3.53 6.99-5.8 10.2-2.31 3.21-4.91 6.26-8.35 9.09l-.28.23c-.02.02-.04.03-.07.05.06 1.12.1 2.24.1 3.37 0 42.02-41.78 76.09-93.32 76.09-51.55 0-93.33-34.07-93.33-76.09 0-1.68.08-3.34.21-4.99-3.45-2.7-6.11-5.64-8.46-8.73-2.38-3.15-4.41-6.46-6.11-10.04-1.67-3.59-3.04-7.41-3.65-11.79-.29-2.19-.38-4.55.02-7.08.23-1.28.53-2.57 1.06-3.86.21-.59.59-1.38 1.02-2.15.53-.95.34-.51 1.02-1.56 1.73-2.31 4.03-3.96 6.27-4.99 2.25-1.03 4.44-1.53 6.53-1.8 1.31-.16 2.59-.23 3.84-.23 2.74 0 5.34.34 7.87.82 5.13 1.07 10.04 2.79 14.58 5.26 17.07-15.33 41.72-24.95 69.12-24.95m-88.37 51.6c3.04-7.29 7.4-14.08 12.85-20.18-3.13-.9-6.36-1.45-9.53-1.66-.67-.04-1.34-.06-2-.06-2.26 0-4.43.23-6.29.75-2.48.64-4 1.91-4.27 2.77-.32.82-.4 2.46.28 4.71.64 2.2 1.87 4.64 3.37 6.93 1.57 2.38 3.51 4.71 5.58 6.72m177.15.99c1.87-1.98 3.61-4.23 5.02-6.51 1.44-2.34 2.59-4.81 3.17-7.03.62-2.27.47-3.91.14-4.72-.28-.86-1.85-2.09-4.33-2.66-1.62-.4-3.47-.58-5.4-.58-.96 0-1.94.04-2.92.12-2.61.25-5.26.73-7.85 1.45 5.17 6.05 9.29 12.75 12.15 19.92m-88.8-60.53c-26.23 0-51.54 8.51-70.33 23.5-3.67-1.56-7.6-2.78-11.73-3.64l-.07-.02-.07-.01c-3.43-.66-6.41-.96-9.37-.96-1.61 0-3.22.09-4.8.28h-.07c-3.25.42-6.13 1.22-8.83 2.45-3.73 1.71-6.95 4.28-9.34 7.45l-.18.23-.16.25c-.09.13-.14.21-.18.26-.42.55-.68.96-1.1 1.71-.45.8-1.07 1.98-1.51 3.17-.84 2.09-1.25 4.04-1.48 5.34l-.02.08-.02.08c-.47 2.98-.48 6.04-.05 9.35l.01.03v.03c.65 4.66 2.03 9.12 4.33 14.06 1.91 4.05 4.19 7.79 6.97 11.48 2.17 2.85 4.34 5.27 6.66 7.43-.01.5-.01.99-.01 1.47 0 22.77 10.76 44.08 30.29 60C76.15 203.44 101.38 212 128.15 212c26.77 0 52-8.56 71.04-24.08 19.48-15.89 30.23-37.13 30.28-59.84 2.5-2.37 4.8-5.05 7.1-8.24l.03-.03.02-.03c2.69-3.8 4.85-7.6 6.61-11.63 2.19-5.07 3.44-9.58 3.95-14.22v-.03l.01-.04c.34-3.37.23-6.43-.33-9.37l-.01-.07-.02-.06c-.26-1.27-.72-3.2-1.62-5.29-.53-1.3-1.24-2.53-1.64-3.17-.44-.73-.68-1.09-1.07-1.58-.05-.06-.12-.15-.27-.37l-.15-.21-.16-.2c-3.1-3.87-6.87-6.03-9.48-7.16-2.77-1.17-5.68-1.89-8.96-2.22l-.04-.01h-.03c-1.19-.11-2.41-.16-3.62-.16-3.34 0-6.68.39-10.52 1.24l-.06.01-.07.01c-3.31.79-6.48 1.81-9.48 3.03-18.91-15.6-44.63-24.45-71.47-24.45v.04z"/><path fill="#676767" d="M62.52 83.464S31.383 72.61 25.28 81.467c-6.086 8.853 7.295 30.076 17.736 37.27 0 0-6.1-22.848 19.504-35.273z"/><path fill="#B3B3B3" d="M60.492 86.54c-5.232-2.968-11.422-4.5-17.357-4.89-2.947-.167-5.883.02-8.285.69-2.48.642-4 1.91-4.266 2.776-.316.825-.396 2.458.28 4.714.647 2.205 1.87 4.637 3.37 6.932 3.004 4.558 7.344 8.953 11.406 11.202 4.463 2.483 6.07 8.106 3.586 12.568-2.486 4.458-8.105 6.067-12.557 3.582-.42-.22-.79-.47-1.15-.74l-.33-.25c-3.52-2.734-6.21-5.707-8.61-8.846-2.38-3.15-4.42-6.46-6.11-10.042-1.67-3.582-3.04-7.405-3.66-11.79-.29-2.19-.38-4.55.02-7.08.23-1.277.53-2.566 1.06-3.857.21-.59.59-1.38 1.02-2.15.53-.95.34-.51 1.02-1.56 1.73-2.31 4.03-3.97 6.27-4.99 2.25-1.03 4.44-1.53 6.53-1.8 4.19-.51 8.03-.11 11.71.59 7.27 1.52 14.13 4.29 20.06 8.77 1.62 1.23 1.94 3.55.7 5.18-1.13 1.5-3.18 1.88-4.77.98l.06.01z"/><path fill="#676767" d="M193.33 85.47c-11.564-5.203 30.814-11.736 37.168-3.057 6.346 8.682-3.926 27.014-14.158 34.493 0 0 2.943-19.744-23.01-31.436z"/><path fill="#B3B3B3" d="M191.21 82.45c5.792-4.65 12.57-7.608 19.806-9.342 3.652-.81 7.482-1.307 11.69-.926 2.1.21 4.313.647 6.587 1.613 2.252.97 4.602 2.562 6.404 4.813.715 1.02.498.59 1.068 1.533.457.75.857 1.53 1.092 2.11.563 1.28.9 2.56 1.166 3.83.477 2.52.45 4.88.23 7.08-.486 4.4-1.76 8.26-3.326 11.9-1.58 3.62-3.53 6.99-5.807 10.2-2.31 3.22-4.91 6.28-8.35 9.09l-.28.23c-3.94 3.24-9.75 2.67-13-1.26-3.23-3.94-2.67-9.76 1.27-13 .36-.29.78-.58 1.15-.81 4-2.37 8.22-6.89 11.08-11.52 1.45-2.33 2.6-4.81 3.18-7.02.62-2.27.48-3.91.14-4.71-.28-.86-1.84-2.09-4.33-2.66-2.42-.6-5.37-.7-8.31-.45-5.92.56-12.06 2.27-17.21 5.38-1.74 1.07-4.01.51-5.07-1.23-.97-1.6-.57-3.66.85-4.8l-.03-.05z"/><path fill="#fff" d="M221.516 127.996c0 42.02-41.78 76.085-93.32 76.085-51.55 0-93.336-34.06-93.336-76.08 0-42.01 41.787-76.07 93.336-76.07 51.54 0 93.32 34.06 93.32 76.08V128z"/><path fill="#B3B3B3" d="M201.506 125.84c0 34.273-33.867 62.073-75.646 62.073-41.768 0-75.643-27.8-75.643-62.073 0-34.29 33.875-62.088 75.643-62.088 41.78 0 75.646 27.797 75.646 62.088z"/><path d="M204.416 125.84c0-35.845-35.24-64.995-78.558-64.995-43.308 0-78.55 29.15-78.55 64.995 0 35.828 35.242 64.98 78.55 64.98 43.318 0 78.558-29.152 78.558-64.98zm-78.557 59.163c-40.11 0-72.74-26.543-72.74-59.163 0-32.63 32.62-59.175 72.73-59.178h-.01.01-.01c40.11.002 72.73 26.547 72.73 59.178 0 32.62-32.63 59.163-72.73 59.163zm0 5.817zm24.08-61.44h-41.38l-57.57-13.154c-.4 2.058-.65 4.29-.65 6.458 0 19.944 17.6 36.164 39.3 36.164 16.74 0 31-9.603 36.66-23.14 5.67 13.537 19.92 23.18 36.67 23.18 21.7 0 39.3-16.16 39.3-36.1 0-7.597-2.57-14.84-6.93-20.658l-45.43 27.25z" fill="#999898"/><path fill="#fff" d="M123.598 117.68c0 19.498-15.797 35.296-35.293 35.296-19.5 0-35.293-15.8-35.293-35.298 0-19.49 15.793-35.3 35.293-35.3 19.496 0 35.293 15.8 35.293 35.29v.012z"/><path fill="#2974A7" d="M99.846 126.456c0 6.416-5.2 11.61-11.62 11.61-6.413 0-11.614-5.194-11.614-11.61 0-6.417 5.2-11.62 11.613-11.62 6.42 0 11.62 5.203 11.62 11.62z"/><path fill="#fff" d="M86.45 123.1c0 2.19-1.77 3.96-3.96 3.96s-3.963-1.77-3.963-3.96c0-2.185 1.773-3.96 3.963-3.96 2.192 0 3.96 1.775 3.96 3.96zm4.366 4.278c0 1.028-.836 1.856-1.865 1.856-1.02 0-1.85-.828-1.85-1.856 0-1.035.84-1.864 1.86-1.864 1.03 0 1.87.83 1.87 1.864h-.01zm107.407-9.698c0 19.498-15.798 35.296-35.296 35.296-19.502 0-35.3-15.8-35.3-35.298 0-19.49 15.798-35.3 35.3-35.3 19.498 0 35.296 15.8 35.296 35.29v.012z"/><path fill="#2974A7" d="M177.71 128.213c0 5.512-4.464 9.987-9.987 9.987-5.51 0-9.98-4.478-9.98-9.987 0-5.51 4.473-9.988 9.98-9.988 5.523 0 9.986 4.477 9.987 9.988z"/><path fill="#fff" d="M166.2 125.327c0 1.885-1.524 3.407-3.41 3.407-1.878 0-3.403-1.522-3.403-3.407 0-1.873 1.525-3.396 3.404-3.396 1.9 0 3.41 1.53 3.41 3.4zm3.75 3.683c0 .874-.72 1.59-1.603 1.59s-1.598-.716-1.598-1.59c0-.887.71-1.603 1.59-1.603s1.6.716 1.6 1.603z"/><path fill="#333" d="M99.496 168.113c-2.16 0-4.234-1.202-5.24-3.27-1.402-2.893-.2-6.375 2.69-7.78 3.536-1.714 21.587-10.286 29.728-10.286 8.137 0 26.19 8.572 29.73 10.287 2.887 1.404 4.088 4.89 2.686 7.772-1.402 2.896-4.885 4.097-7.77 2.69-9.028-4.383-21.022-9.115-24.644-9.115-3.633 0-15.617 4.74-24.64 9.12-.825.4-1.688.59-2.54.59zm28.124-15.03c-3.216 0-6-2.603-6-5.817l.13-15.14c0-3.216 2.535.874 5.75.874s5.75-3.59 5.75-.375l.37 14.64c0 3.216-2.786 5.82-6 5.82v-.002z"/><path fill="#B3B3B3" d="M128.453 118.3c0-19.487 14.38-37.633 33.88-37.633 12.976 0 25.714 9.338 31.85 19.76l-64.747 26.125c-.636-2.65-.982-5.407-.982-8.25v-.002z"/><path fill="#999898" d="M128.682 122.29l62.963-25.603c1.295 1.67 2.44 3.456 3.424 5.344L129.9 128.3c-.576-1.94-.99-3.943-1.22-6.005l.002-.005zm17.748 64.045c0 4.083-9.01 1.578-20.12 1.578-11.112 0-20.122 2.505-20.122-1.578 0-4.086 9.01-13.216 20.12-13.216 11.112 0 20.122 9.13 20.122 13.21z"/><path opacity=".5" fill="#fff" d="M94.123 167.898c0-3.883-3.15-7.033-7.027-7.033-1.846 0-3.492.744-4.744 1.908.023-.237.14-.445.14-.69 0-3.888-3.15-7.033-7.03-7.033-3.883 0-7.035 3.146-7.035 7.032 0 2.49 1.365 4.566 3.314 5.816-1.94 1.25-3.31 3.33-3.31 5.816 0 3.885 3.15 7.032 7.04 7.032 1.05 0 2.02-.26 2.91-.67.9.41 1.87.67 2.91.67 3.53 0 6.31-2.638 6.82-6.02 3.39-.507 6.03-3.3 6.03-6.83l-.01.002zm67.37 0c0-3.883 3.153-7.033 7.03-7.033 1.846 0 3.49.744 4.744 1.908-.02-.237-.143-.445-.143-.69 0-3.888 3.15-7.033 7.03-7.033 3.882 0 7.032 3.146 7.032 7.032 0 2.49-1.363 4.566-3.313 5.816 1.947 1.25 3.313 3.33 3.313 5.816 0 3.885-3.15 7.032-7.03 7.032-1.05 0-2.02-.26-2.91-.67-.89.41-1.86.67-2.907.67-3.53 0-6.32-2.638-6.83-6.02-3.39-.507-6.02-3.3-6.02-6.83v.002z"/><path fill="#B3B3B3" d="M88.305 82.387c-10.45 0-19.832 4.542-26.292 11.753 30.128-1.083 52.6 19.367 61.21 28.658.244-1.672.375-3.38.375-5.12 0-19.49-15.797-35.29-35.293-35.29z"/><path fill="#999898" d="M66.62 89.844c-2.218 1.73-4.223 3.717-5.97 5.92 1.396-.097 2.79-.15 4.176-.15 28.113 0 49.747 20.037 58.074 29.074.456-2.266.698-4.61.698-7.01 0-.122-.008-.242-.01-.364-10.182-10.32-30.417-26.718-56.97-27.47h.002zm53.263-11.662l-13.695 28.307 21.062 23.63 26.555-12.71-12.592-30.74s-13.094 13.54-21.33-8.51v.02z"/><path fill="#2974A7" d="M139.535 136.4c0 4.38-5.852 7.93-13.072 7.93-7.21 0-13.064-3.55-13.064-7.93s5.85-7.936 13.06-7.936c7.22.002 13.07 3.555 13.07 7.936zm10.97 2.425c.03 3.926-3.644 7.106-8.24 7.11-4.59 0-8.325-3.18-8.354-7.104-.03-3.93 3.65-7.12 8.25-7.12s8.33 3.19 8.35 7.12z"/><path fill="#333" d="M147.35 142.225c.006.986-2.174 1.772-4.877 1.78-2.71 0-4.908-.788-4.916-1.772-.006-.98 2.18-1.775 4.885-1.775 2.704-.015 4.894.786 4.908 1.767z"/><path fill="#2974A7" d="M121.414 138.825c.033 3.926-3.64 7.106-8.234 7.11-4.59 0-8.328-3.18-8.352-7.104-.037-3.93 3.645-7.12 8.238-7.12 4.602 0 8.325 3.19 8.348 7.12z"/><path fill="#333" d="M118.262 142.225c.008.986-2.172 1.772-4.877 1.78-2.71 0-4.906-.788-4.912-1.772-.004-.98 2.176-1.775 4.885-1.775 2.7-.015 4.898.786 4.904 1.767z"/><path opacity=".5" fill="#fff" d="M116.94 143.64s1.19-1.077-1.067-2.19c-2.754-1.36-3.87 0-3.87 0s-6.544 7.38-17.892 16.163c-1.53-1.47-3.59-2.494-5.88-2.494-1.13 0-2.2.18-3.19.58-1.94-2.61-5.03-4.35-8.53-4.35-5.89 0-10.67 4.76-10.67 10.65 0 1.53.34 2.96.91 4.28-3.17 1.87-5.33 5.3-5.33 9.26 0 5.96 4.83 10.78 10.79 10.78 1.24 0 2.41-.25 3.52-.64 2.63 3.07 6.5 5.06 10.86 5.06 7.95 0 14.38-6.44 14.38-14.39 0-4-1.64-7.51-4.26-10.11 6.48-11.98 16.62-21.99 20.27-22.62l-.04.01zm20.398 0s-1.19-1.077 1.064-2.19c2.758-1.36 3.87 0 3.87 0s6.546 7.38 17.895 16.163c1.533-1.47 3.59-2.494 5.887-2.494 1.135 0 2.203.18 3.19.58 1.944-2.61 5.03-4.35 8.534-4.35 5.89 0 10.66 4.76 10.66 10.65 0 1.53-.33 2.96-.9 4.28 3.16 1.87 5.32 5.3 5.32 9.26 0 5.96-4.83 10.78-10.79 10.78-1.24 0-2.41-.25-3.52-.64-2.63 3.07-6.5 5.06-10.87 5.06-7.94 0-14.39-6.44-14.39-14.39 0-4 1.64-7.51 4.27-10.11-6.47-11.98-16.62-21.99-20.26-22.62l.04.01z"/></svg>