<svg xmlns="http://www.w3.org/2000/svg" width="256" height="256" viewBox="0 0 256 256"><path fill="#fff" d="M128.196 208.08c-53.67 0-97.336-35.926-97.336-80.083 0-1.042.027-2.113.082-3.202-2.668-2.296-5.093-4.908-7.52-8.09-2.618-3.47-4.75-6.982-6.537-10.754-2.145-4.59-3.415-8.7-4.008-12.95-.384-2.99-.37-5.67.033-8.25.235-1.31.58-2.95 1.287-4.68.376-1.02.96-2.1 1.28-2.67.36-.64.526-.89.777-1.22.07-.09.16-.21.368-.53l.08-.12.086-.11c2.51-3.32 5.62-5.21 7.783-6.21 2.34-1.06 4.85-1.76 7.7-2.13 1.46-.18 2.92-.26 4.37-.26 2.71 0 5.44.28 8.61.89 4.77 1 9.2 2.47 13.24 4.4 18.26-15.39 43.49-24.17 69.71-24.17 26.82 0 52.44 9.12 70.79 25.11 3.44-1.58 7.16-2.86 11.1-3.8 3.6-.8 6.67-1.16 9.73-1.16 1.09 0 2.19.05 3.26.15 2.91.29 5.44.92 7.8 1.92 2.21.95 5.36 2.75 7.97 5.99l.1.12.09.13c.22.32.32.45.39.54.25.32.42.56.81 1.2.33.55.95 1.61 1.36 2.64.6 1.38 1.04 2.84 1.39 4.58.5 2.61.59 5.29.29 8.27-.47 4.27-1.62 8.41-3.63 13.08-1.65 3.79-3.68 7.36-6.21 10.93-2.55 3.54-5.07 6.38-7.89 8.86.02.53.02 1.06.02 1.57 0 44.16-43.66 80.08-97.32 80.08z"/><path fill="#333" d="M128.196 51.917c27.95 0 53.023 10.02 70.127 25.89 3.978-2.102 8.247-3.635 12.69-4.7 2.8-.62 5.698-1.057 8.79-1.057.947 0 1.912.04 2.897.13 2.1.21 4.316.648 6.592 1.614 2.254.97 4.6 2.564 6.41 4.813.705 1.023.496.59 1.066 1.532.45.74.856 1.52 1.09 2.1.56 1.28.904 2.55 1.162 3.82.477 2.51.45 4.87.23 7.07-.484 4.4-1.76 8.26-3.327 11.89-1.577 3.62-3.524 6.98-5.803 10.2-2.313 3.21-4.916 6.26-8.353 9.09l-.276.22c-.02.02-.05.03-.07.05.06 1.12.1 2.24.1 3.38 0 42.02-41.78 76.08-93.32 76.08-51.55 0-93.33-34.07-93.33-76.09 0-1.68.08-3.34.21-4.99-3.44-2.7-6.1-5.63-8.46-8.73-2.37-3.15-4.41-6.46-6.1-10.04-1.67-3.59-3.05-7.41-3.66-11.8-.28-2.19-.37-4.55.03-7.08.23-1.28.53-2.57 1.07-3.86.21-.58.6-1.38 1.03-2.14.54-.95.35-.51 1.03-1.56 1.74-2.3 4.03-3.96 6.27-4.99 2.25-1.03 4.45-1.53 6.54-1.8 1.32-.16 2.6-.23 3.86-.23 2.74 0 5.33.33 7.86.82 5.13 1.07 10.05 2.79 14.58 5.26 17.06-15.3 41.71-24.93 69.11-24.93m0-8c-26.23 0-51.54 8.51-70.33 23.5-3.67-1.56-7.6-2.78-11.73-3.64l-.07-.01-.08-.01c-3.43-.66-6.41-.97-9.37-.97-1.62 0-3.24.1-4.82.29h-.07c-3.25.42-6.14 1.22-8.83 2.45-3.72 1.72-6.94 4.29-9.32 7.44l-.17.23-.15.24c-.09.14-.14.22-.18.27-.41.55-.68.96-1.1 1.72-.44.77-1.06 1.96-1.51 3.16-.83 2.05-1.23 3.92-1.48 5.34l-.02.08-.01.08c-.46 2.96-.48 6.01-.05 9.34l.01.04.01.04c.65 4.65 2.03 9.12 4.34 14.07 1.93 4.06 4.2 7.8 6.97 11.47 2.18 2.85 4.35 5.27 6.67 7.43-.01.5-.02.99-.02 1.47 0 22.77 10.76 44.08 30.28 60 19.05 15.53 44.28 24.08 71.05 24.08 26.77 0 52-8.56 71.05-24.09 19.48-15.88 30.23-37.12 30.28-59.84 2.51-2.38 4.81-5.06 7.1-8.24l.02-.02.02-.02c2.69-3.8 4.85-7.6 6.61-11.63 2.19-5.07 3.44-9.58 3.95-14.22l.01-.04v-.04c.33-3.36.23-6.43-.33-9.37l-.01-.05-.01-.04c-.41-2.01-.93-3.7-1.63-5.33-.49-1.21-1.15-2.38-1.63-3.16-.44-.74-.69-1.11-1.08-1.6-.05-.06-.11-.14-.24-.33l-.17-.25-.19-.23c-3.12-3.88-6.88-6.03-9.48-7.15-2.76-1.18-5.68-1.9-8.95-2.23h-.08c-1.19-.1-2.41-.16-3.61-.16-3.35 0-6.7.4-10.53 1.25l-.06.02-.06.02c-3.31.79-6.49 1.81-9.48 3.03-18.92-15.59-44.64-24.44-71.48-24.44z"/><path fill="#676767" d="M62.52 83.464s-31.138-10.856-37.24-2c-6.087 8.857 7.298 30.082 17.74 37.272 0 0-6.105-22.847 19.5-35.272z"/><path fill="#B3B3B3" d="M60.49 86.538c-5.233-2.964-11.415-4.498-17.353-4.882-2.947-.174-5.88.014-8.287.684-2.48.642-4.004 1.91-4.26 2.776-.32.826-.406 2.46.28 4.716.645 2.205 1.866 4.637 3.362 6.93 3.006 4.56 7.348 8.953 11.412 11.204 4.463 2.483 6.063 8.106 3.582 12.568-2.482 4.456-8.105 6.065-12.56 3.584-.41-.223-.786-.474-1.138-.744l-.324-.252c-3.514-2.733-6.207-5.7-8.605-8.844-2.38-3.15-4.41-6.46-6.1-10.038-1.68-3.585-3.05-7.407-3.67-11.795-.28-2.19-.38-4.55.02-7.08.23-1.275.53-2.563 1.06-3.856.2-.59.59-1.38 1.02-2.14.53-.95.34-.52 1.02-1.57 1.73-2.3 4.03-3.96 6.26-4.99 2.24-1.03 4.44-1.53 6.54-1.8 4.19-.51 8.03-.12 11.71.59 7.27 1.52 14.14 4.29 20.06 8.77 1.62 1.24 1.95 3.55.71 5.18-1.13 1.5-3.18 1.88-4.78.97z"/><path fill="#676767" d="M193.33 85.47c-11.564-5.205 30.814-11.737 37.167-3.056 6.344 8.68-3.927 27.012-14.158 34.492 0 0 2.94-19.745-23.01-31.435z"/><path fill="#B3B3B3" d="M191.216 82.456c5.787-4.655 12.568-7.615 19.8-9.347 3.653-.82 7.483-1.31 11.688-.93 2.1.21 4.316.65 6.592 1.61 2.254.97 4.6 2.56 6.41 4.81.705 1.02.496.59 1.066 1.53.45.74.856 1.52 1.09 2.1.56 1.28.904 2.55 1.162 3.82.477 2.51.45 4.87.23 7.07-.484 4.4-1.76 8.26-3.327 11.89-1.577 3.61-3.524 6.98-5.803 10.2-2.313 3.21-4.916 6.26-8.353 9.09l-.27.22c-3.94 3.24-9.76 2.67-13.01-1.27-3.23-3.94-2.67-9.77 1.27-13.01.36-.29.77-.58 1.15-.81 4-2.38 8.22-6.9 11.08-11.53 1.44-2.33 2.6-4.81 3.18-7.03.62-2.27.48-3.91.14-4.72-.28-.86-1.84-2.09-4.33-2.65-2.42-.6-5.36-.71-8.31-.46-5.91.56-12.05 2.27-17.2 5.39-1.74 1.06-4.02.51-5.08-1.23-.97-1.61-.58-3.66.85-4.8z"/><path fill="#fff" d="M221.52 127.997c0 42.02-41.78 76.083-93.323 76.083-51.55 0-93.336-34.064-93.336-76.083 0-42.015 41.79-76.08 93.34-76.08 51.54 0 93.33 34.065 93.33 76.08z"/><path fill="#B3B3B3" d="M203.643 125.837c0 34.28-33.867 62.075-75.645 62.075-41.77 0-75.64-27.795-75.64-62.075 0-34.29 33.868-62.085 75.64-62.085 41.777 0 75.645 27.796 75.645 62.085z"/><path fill="#999898" d="M127.998 190.822c-43.31 0-78.55-29.156-78.55-64.985 0-35.84 35.24-64.994 78.55-64.994 43.316 0 78.553 29.155 78.553 64.994 0 35.83-35.23 64.985-78.55 64.985zm0-124.162c-40.105 0-72.734 26.547-72.734 59.178 0 32.625 32.63 59.167 72.734 59.167 40.105 0 72.738-26.54 72.738-59.167 0-32.63-32.632-59.178-72.738-59.178z"/><path fill="#333" d="M127.62 158.9c-3.214 0-5-2.603-5-5.816v-23.27c0-3.215 1.786-5.816 5-5.816s5 2.602 5 5.816v23.27c0 3.215-1.786 5.816-5 5.816z"/><path fill="#fff" d="M118.382 117.68c0 19.498-8.69 35.294-28.19 35.294-19.503 0-28.196-15.798-28.196-35.293 0-19.49 8.693-35.29 28.195-35.29 19.5 0 28.2 15.81 28.2 35.3z"/><path fill="#2974A7" d="M106.378 117.09c0 11.226-5.03 19.546-16.266 19.546-11.232 0-17.18-9.05-17.18-20.275 0-11.23 5.947-20.39 17.18-20.39 11.237 0 16.266 9.89 16.266 21.13z"/><path fill="#fff" d="M92.82 110.432c0 3.83-3.1 6.93-6.937 6.93-3.826 0-6.926-3.1-6.926-6.93 0-3.83 3.1-6.93 6.926-6.93 3.837 0 6.938 3.1 6.938 6.93zm7.644 7.486c0 1.795-1.467 3.25-3.264 3.25-1.795 0-3.256-1.455-3.256-3.25 0-1.806 1.46-3.264 3.256-3.264 1.797 0 3.264 1.46 3.264 3.264zm93.54-.238c0 19.498-8.693 35.294-28.19 35.294-19.5 0-28.192-15.798-28.192-35.293 0-19.49 8.693-35.29 28.193-35.29 19.496 0 28.19 15.81 28.19 35.3z"/><path fill="#2974A7" d="M182.005 117.09c0 11.226-5.034 19.546-16.27 19.546-11.23 0-17.18-9.05-17.18-20.275 0-11.23 5.947-20.39 17.18-20.39 11.236 0 16.27 9.89 16.27 21.13z"/><path fill="#fff" d="M168.443 110.432c0 3.83-3.104 6.93-6.936 6.93s-6.932-3.1-6.932-6.93c0-3.83 3.102-6.93 6.932-6.93s6.936 3.1 6.936 6.93zm7.642 7.486c0 1.795-1.467 3.25-3.258 3.25-1.8 0-3.26-1.455-3.26-3.25 0-1.806 1.46-3.264 3.26-3.264 1.79 0 3.258 1.46 3.258 3.264z"/><path fill="#2974A7" d="M139.52 130.582c0 3.86-5.16 6.992-11.52 6.992-6.355 0-11.52-3.13-11.52-6.992 0-3.865 5.165-6.994 11.52-6.994 6.36 0 11.52 3.13 11.52 6.994z"/><path fill="#333" d="M112.23 172.58c-.758.005-1.513-.14-2.235-.436l-9.92-4.03-12.19 3.032c-1.84.444-3.75-.008-5.18-1.222l-7.32-6.243c-2.44-2.08-2.735-5.75-.646-8.2 2.09-2.43 5.76-2.73 8.2-.64l5.04 4.31 11.13-2.77c1.18-.29 2.46-.21 3.6.27l8.31 3.39L123 149.35c2.154-1.92 5.387-1.96 7.613-.11l9.26 7.785 7.904-4.734c1.77-1.06 3.97-1.1 5.776-.12l9.483 5.16 7.824-4.34c2.798-1.55 6.343-.55 7.907 2.27 1.563 2.81.548 6.35-2.264 7.91l-10.62 5.9c-1.734.96-3.857.97-5.602.03l-9.37-5.11-8.61 5.16c-2.14 1.28-4.83 1.06-6.73-.53l-8.58-7.21-10.92 9.73c-1.07.96-2.44 1.46-3.82 1.47z"/></svg>