<svg xmlns="http://www.w3.org/2000/svg" width="256" height="256" viewBox="0 0 256 256"><path fill="#fff" d="M128.227 208.08c-24.224 0-47.432-7.354-65.35-20.71-17.312-12.904-28.328-30.336-31.217-49.3-2.97-1.35-5.72-2.87-8.357-4.617-4.208-2.827-7.42-5.688-10.127-9.018-1.873-2.36-3.248-4.665-4.235-7.084-.48-1.25-1.03-2.82-1.32-4.66-.21-1.08-.27-2.31-.28-2.96-.02-.71-.01-1.02.04-1.43.01-.11.03-.25.04-.63l.01-.15.02-.15c.43-4.16 2.12-7.38 3.47-9.36 1.43-2.1 3.22-4 5.47-5.79 3.23-2.52 6.86-4.47 11.44-6.17 6.31-2.21 12.52-3.32 18.53-3.32.53 0 1.05.01 1.58.03 18.19-21.83 48.04-34.81 80.33-34.81 32.28 0 62.12 12.97 80.3 34.8.39-.01.77-.01 1.15-.01 6 0 12.22 1.11 18.46 3.3 4.65 1.72 8.28 3.67 11.47 6.17 2.28 1.81 4.07 3.71 5.51 5.82 1.35 1.98 3.04 5.21 3.47 9.37l.02.15.01.15c.01.37.03.52.04.63.04.42.06.72.03 1.48-.01.62-.07 1.85-.28 2.94-.29 1.85-.84 3.42-1.29 4.58-1.02 2.5-2.4 4.81-4.24 7.13-2.74 3.37-5.95 6.24-10.13 9.04-2.5 1.66-5.1 3.11-7.91 4.41-2.83 19.02-13.82 36.51-31.15 49.46-17.93 13.4-41.16 20.78-65.43 20.78zM28.36 108.044c.213.327.606.825 1.257 1.412.862.79 1.982 1.593 3.27 2.353.817-3.29 1.884-6.53 3.195-9.69-.343.16-.685.34-1.026.51-2.353 1.24-4.374 2.68-5.667 4.05-.55.55-.86 1.03-1.03 1.35zm192.11-5.652c1.228 3.008 2.24 6.075 3.026 9.19 1.123-.688 2.103-1.405 2.866-2.105.665-.602 1.064-1.105 1.278-1.434-.167-.314-.475-.78-.983-1.305-1.342-1.422-3.363-2.867-5.732-4.112l-.456-.232z"/><path fill="#333" d="M128.227 51.92c32.92 0 61.854 13.896 78.467 34.884.996-.066 1.988-.1 2.98-.1 5.826 0 11.574 1.125 17.14 3.077 3.515 1.3 7.01 2.95 10.335 5.55 1.65 1.32 3.27 2.88 4.66 4.92 1.38 2.04 2.49 4.65 2.78 7.52.03 1.24.1.77.07 1.86-.02.88-.1 1.76-.23 2.37-.21 1.38-.62 2.64-1.09 3.85-.97 2.37-2.26 4.34-3.64 6.08-2.8 3.44-5.95 6-9.24 8.21-2.98 1.97-6.08 3.6-9.35 4.98-4.4 38.69-44.31 68.98-92.91 68.98-48.53 0-88.4-30.19-92.91-68.78-3.44-1.42-6.7-3.12-9.81-5.18-3.29-2.21-6.44-4.77-9.23-8.21-1.38-1.73-2.67-3.7-3.64-6.07-.47-1.21-.88-2.47-1.09-3.85-.13-.6-.21-1.49-.23-2.36-.04-1.09.03-.62.06-1.86.29-2.87 1.4-5.48 2.79-7.52 1.39-2.04 3.01-3.6 4.66-4.92 3.32-2.59 6.82-4.24 10.33-5.54 5.56-1.95 11.31-3.07 17.14-3.07 1.13 0 2.26.05 3.4.13 16.65-21.03 45.6-34.94 78.54-34.94m-92.47 65.71c1.33-7.96 4.17-15.53 8.28-22.51-3.78.83-7.46 2.22-10.82 3.96-2.61 1.38-5.03 3.05-6.74 4.87-1.79 1.84-2.44 3.7-2.22 4.58.15.87.92 2.31 2.67 3.89 1.69 1.56 4 3 6.47 4.19.76.37 1.55.7 2.35 1.02m184.89-.15c.66-.27 1.31-.56 1.94-.86 2.47-1.19 4.77-2.64 6.47-4.19 1.75-1.58 2.52-3.02 2.67-3.89.22-.88-.43-2.75-2.22-4.59-1.71-1.82-4.13-3.49-6.74-4.86-3.21-1.66-6.71-3-10.31-3.84 4.04 6.9 6.84 14.38 8.18 22.24M128.2 43.93c-32.74 0-63.11 12.93-82.15 34.784-6.38.03-12.95 1.21-19.54 3.52l-.07.03-.07.024c-4.98 1.84-8.95 3.98-12.48 6.74l-.032.02-.036.02c-2.567 2.04-4.62 4.23-6.28 6.67-1.608 2.35-3.628 6.21-4.14 11.2l-.03.3-.01.3c0 .15-.007.24-.01.31-.07.67-.08 1.15-.056 2 .02.92.102 2.26.34 3.52.35 2.17.98 3.98 1.494 5.33l.03.08.03.08c1.13 2.77 2.694 5.4 4.774 8.02l.03.04.03.04c2.962 3.64 6.45 6.76 10.974 9.8l.02.01.023.01c2.23 1.47 4.54 2.8 6.97 4 3.52 19.183 14.9 36.722 32.43 49.783 18.61 13.86 42.66 21.5 67.74 21.5 25.12 0 49.21-7.66 67.83-21.57 17.55-13.11 28.92-30.71 32.38-49.96 2.27-1.14 4.41-2.38 6.48-3.75l.02-.01.02-.01c4.52-3.03 8.01-6.15 10.98-9.8l.03-.04.03-.03c2.08-2.62 3.64-5.24 4.78-8.01l.04-.08.03-.08c.52-1.33 1.15-3.14 1.5-5.32.24-1.27.32-2.6.35-3.53.03-.85.01-1.34-.06-2-.01-.09-.01-.19-.01-.33l-.01-.29-.03-.29c-.51-4.98-2.53-8.84-4.13-11.19-1.68-2.46-3.73-4.64-6.29-6.68l-.03-.03-.03-.02c-3.53-2.76-7.5-4.9-12.48-6.74l-.06-.02-.06-.02c-6.43-2.25-12.85-3.44-19.09-3.52-19.03-21.85-49.4-34.79-82.13-34.79z"/><path fill="#676767" d="M50.744 90.612s-32.266 6.8-32.91 17.534c-.64 10.733 21.797 21.98 34.445 22.74 0 .002-17.03-16.403-1.54-40.274z"/><path fill="#B3B3B3" d="M50.597 94.293c-6.01.163-12.098 2.05-17.383 4.79-2.61 1.373-5.027 3.05-6.738 4.865-1.79 1.84-2.436 3.706-2.215 4.587.16.868.93 2.31 2.68 3.89 1.7 1.553 4 3 6.47 4.19 4.93 2.35 10.92 3.87 15.56 3.696 5.11-.18 9.39 3.8 9.57 8.91.18 5.11-3.81 9.39-8.9 9.56-.46.02-.91.01-1.36-.04l-.41-.05c-4.42-.51-8.26-1.67-11.93-3.12-3.66-1.47-7.11-3.25-10.41-5.43-3.28-2.21-6.43-4.77-9.23-8.21-1.37-1.73-2.67-3.7-3.63-6.07-.46-1.21-.87-2.47-1.08-3.85-.12-.6-.2-1.49-.22-2.36-.04-1.09.03-.62.07-1.86.3-2.87 1.41-5.48 2.79-7.52 1.39-2.04 3.01-3.6 4.66-4.92 3.33-2.59 6.82-4.24 10.34-5.54 7.02-2.46 14.32-3.63 21.71-2.86 2.03.22 3.51 2.04 3.29 4.07-.19 1.87-1.75 3.26-3.58 3.3z"/><path fill="#676767" d="M205.254 90.612s32.27 6.8 32.914 17.534c.64 10.733-21.797 21.98-34.45 22.74 0 .002 17.034-16.403 1.536-40.274z"/><path fill="#B3B3B3" d="M205.4 94.293c6.012.163 12.102 2.05 17.385 4.79 2.613 1.373 5.027 3.05 6.74 4.865 1.787 1.84 2.436 3.706 2.213 4.587-.152.868-.928 2.31-2.674 3.89-1.695 1.553-3.998 3-6.47 4.19-4.927 2.35-10.915 3.87-15.558 3.696-5.105-.18-9.385 3.8-9.564 8.91-.18 5.11 3.805 9.39 8.9 9.56.465.02.914.01 1.36-.04l.41-.05c4.417-.51 8.257-1.67 11.935-3.12 3.662-1.47 7.11-3.25 10.41-5.43 3.285-2.21 6.438-4.77 9.232-8.21 1.37-1.73 2.66-3.7 3.63-6.07.46-1.21.87-2.47 1.08-3.85.12-.6.2-1.49.22-2.36.03-1.09-.04-.62-.07-1.86-.3-2.87-1.4-5.48-2.79-7.52-1.4-2.04-3.01-3.6-4.67-4.92-3.32-2.59-6.82-4.24-10.33-5.54-7.02-2.46-14.32-3.63-21.71-2.86-2.03.22-3.51 2.04-3.29 4.07.19 1.87 1.75 3.26 3.57 3.3z"/><path fill="#fff" d="M221.547 127.996c0 42.02-41.78 76.085-93.32 76.085-51.55 0-93.334-34.06-93.334-76.08 0-42.01 41.785-76.07 93.334-76.07 51.54 0 93.32 34.06 93.32 76.08z"/><path fill="#B3B3B3" d="M201.537 135.318c0 34.763-33.867 62.943-75.643 62.943-41.773 0-75.643-28.18-75.643-62.94s33.87-62.94 75.65-62.94 75.65 28.18 75.65 62.95z"/><path fill="#999898" d="M125.894 201.172c-43.313 0-78.55-29.54-78.55-65.854 0-36.31 35.237-65.855 78.55-65.855 43.315 0 78.553 29.545 78.553 65.855 0 36.313-35.238 65.854-78.553 65.854zm0-125.893c-40.11 0-72.732 26.93-72.732 60.03s32.62 60.03 72.732 60.03c40.106 0 72.737-26.93 72.737-60.04S166 75.27 125.9 75.27z"/><path fill="#333" d="M126.62 176.35c-3.216 0-6-2.6-6-5.816v-11.63c0-3.22 2.784-5.82 6-5.82 3.218 0 6 2.602 6 5.82v11.63c0 3.215-2.782 5.817-6 5.817z"/><path fill="#C1272D" d="M77.808 168.712s6.38-.357 15.97-.092c4.796.325 10.386.218 16.396 1.217 3.004.54 6.117 1.255 9.27 1.744 3.177.51 6.308.59 9.587.33 6.39-.39 12.75-2.21 18.73-3.73 5.97-1.63 11.56-2.34 16.35-2.55 4.79-.2 8.79.05 11.58.43 2.8.36 4.4.87 4.4.87 4.43 1.4 6.89 6.12 5.49 10.55-.82 2.62-2.82 4.55-5.22 5.4l-.1.04s-1.59.56-4.38.98c-2.79.47-6.78.83-11.56.76-4.79-.08-10.38-.63-16.38-2.11-6.01-1.35-12.41-2.99-18.79-3.21-6.31-.46-12.72 1.47-18.66 2.87-5.96 1.26-11.55 1.39-16.32 1.93-9.56.69-15.96.61-15.96.61-4.42-.05-7.96-3.68-7.91-8.1.06-4.23 3.41-7.66 7.57-7.9z"/><path fill="#333" d="M128.387 155.202l15.79-9.497c14.103-8.48 39.628-21.09 40.704-21.623 2.17-1.068 4.78-.17 5.85 1.982 1.07 2.168.18 4.78-1.98 5.845-.17.08-11.26 5.55-22.78 11.65l13.85-1.06c2.38-.08 4.51 1.61 4.69 4.02.19 2.4-1.61 4.49-4.01 4.68l-52.1 4zm-4.81-.692l-55.272-2.887c-2.406-.125-4.254-2.175-4.127-4.583.115-2.41 2.248-4.312 4.584-4.132l23.637 1.236c-12-5.615-25.04-9.94-25.23-10.008-2.29-.75-3.54-3.214-2.78-5.503.75-2.284 3.19-3.562 5.5-2.78 1.23.406 30.31 10.044 43.03 20.174l10.64 8.483z"/><path fill="#2974A7" d="M138.018 153.852c0 3.863-5.162 6.992-11.524 6.992-6.355 0-11.52-3.13-11.52-6.992s5.164-6.993 11.52-6.993c6.36-.01 11.524 3.12 11.524 6.99z"/><path fill="#fff" d="M82.105 90.56s-12.6 25.686-2.424 29.564c10.19 3.88 15.03-10.164 2.43-29.564z"/></svg>