<?xml version="1.0" encoding="utf-8"?>
<!-- Generator: Adobe Illustrator 16.0.0, SVG Export Plug-In . SVG Version: 6.00 Build 0)  -->
<!DOCTYPE svg PUBLIC "-//W3C//DTD SVG 1.1//EN" "http://www.w3.org/Graphics/SVG/1.1/DTD/svg11.dtd">
<svg version="1.1" id="Layer_1" xmlns="http://www.w3.org/2000/svg" xmlns:xlink="http://www.w3.org/1999/xlink" x="0px" y="0px"
	 width="256px" height="256px" viewBox="0 0 256 256" enable-background="new 0 0 256 256" xml:space="preserve">
<path fill="#FFFFFF" d="M128.226,208.08c-24.223,0-47.43-7.354-65.35-20.71c-17.312-12.905-28.33-30.337-31.218-49.3
	c-2.96-1.348-5.71-2.867-8.353-4.616c-4.208-2.827-7.418-5.688-10.126-9.02c-1.88-2.36-3.26-4.667-4.24-7.085
	c-0.48-1.24-1.03-2.82-1.32-4.66c-0.21-1.08-0.27-2.32-0.29-2.97c-0.02-0.72-0.01-1.02,0.03-1.43c0.01-0.11,0.02-0.26,0.03-0.64
	v-0.15l0.01-0.15c0.43-4.17,2.12-7.39,3.46-9.36c1.44-2.11,3.23-4.01,5.47-5.8c3.23-2.53,6.86-4.48,11.44-6.17
	c6.31-2.21,12.52-3.32,18.53-3.32c0.52,0,1.04,0.01,1.57,0.02c18.19-21.84,48.04-34.81,80.32-34.81c32.27,0,62.11,12.97,80.3,34.8
	c0.38-0.01,0.76-0.02,1.14-0.02c6,0,12.21,1.11,18.46,3.3c4.64,1.72,8.271,3.67,11.47,6.17c2.28,1.83,4.07,3.72,5.5,5.82
	c1.34,1.97,3.041,5.2,3.461,9.36l0.01,0.15l0.01,0.15c0.01,0.38,0.02,0.53,0.029,0.64c0.041,0.41,0.051,0.7,0.031,1.44
	c-0.021,0.79-0.091,1.95-0.291,2.95c-0.289,1.83-0.84,3.41-1.289,4.58c-1.011,2.49-2.391,4.8-4.24,7.13
	c-2.74,3.36-5.95,6.221-10.131,9.04c-2.51,1.66-5.109,3.11-7.909,4.41c-2.83,19.01-13.83,36.5-31.16,49.45
	c-17.931,13.399-41.16,20.77-65.43,20.77L128.226,208.08z M28.362,108.044c0.214,0.328,0.607,0.826,1.257,1.412
	c0.85,0.79,1.97,1.59,3.26,2.352c0.82-3.287,1.88-6.52,3.19-9.686c-0.35,0.167-0.69,0.338-1.03,0.515
	c-2.35,1.237-4.37,2.68-5.67,4.055c-0.54,0.555-0.86,1.034-1.03,1.353L28.362,108.044z M220.468,102.391
	c1.23,3.01,2.24,6.08,3.027,9.19c1.124-0.69,2.103-1.4,2.86-2.1c0.668-0.6,1.067-1.1,1.283-1.43c-0.169-0.31-0.477-0.78-0.984-1.3
	c-1.338-1.42-3.356-2.86-5.73-4.11c-0.152-0.08-0.304-0.15-0.456-0.23V102.391z"/>
<path fill="#333333" d="M128.226,51.92c32.92,0,61.854,13.896,78.467,34.884c0.994-0.066,1.986-0.1,2.979-0.1
	c5.826,0,11.57,1.125,17.14,3.077c3.519,1.3,7.013,2.95,10.336,5.55c1.65,1.32,3.271,2.88,4.66,4.92
	c1.391,2.04,2.49,4.65,2.791,7.52c0.029,1.24,0.1,0.77,0.06,1.86c-0.03,0.88-0.101,1.76-0.23,2.37c-0.21,1.38-0.62,2.64-1.09,3.85
	c-0.97,2.37-2.26,4.34-3.64,6.08c-2.801,3.44-5.95,6-9.23,8.209c-2.979,1.971-6.09,3.601-9.359,4.98
	c-4.4,38.689-44.311,68.98-92.91,68.98c-48.53,0-88.4-30.19-92.91-68.78c-3.44-1.421-6.69-3.12-9.81-5.181
	c-3.28-2.2-6.44-4.77-9.23-8.2c-1.38-1.73-2.67-3.7-3.64-6.07c-0.47-1.21-0.88-2.47-1.09-3.85c-0.13-0.6-0.21-1.48-0.23-2.36
	c-0.03-1.09,0.03-0.62,0.06-1.86c0.3-2.87,1.4-5.479,2.79-7.51c1.39-2.04,3.01-3.6,4.67-4.92c3.32-2.6,6.81-4.25,10.33-5.55
	c5.56-1.95,11.31-3.07,17.14-3.07c1.13,0,2.26,0.04,3.39,0.13c16.62-21.01,45.57-34.92,78.51-34.92 M35.709,117.671
	c1.33-7.96,4.17-15.53,8.28-22.51c-3.78,0.83-7.47,2.22-10.82,3.96c-2.61,1.38-5.03,3.05-6.74,4.87c-1.79,1.84-2.439,3.71-2.22,4.59
	c0.16,0.87,0.93,2.31,2.68,3.89c1.69,1.55,4,3,6.47,4.19c0.76,0.36,1.55,0.7,2.35,1.02 M220.609,117.531
	c0.66-0.27,1.3-0.56,1.93-0.86c2.47-1.19,4.779-2.64,6.47-4.19c1.75-1.58,2.521-3.02,2.67-3.89c0.22-0.88-0.43-2.75-2.22-4.59
	c-1.71-1.81-4.13-3.49-6.74-4.86c-3.21-1.66-6.71-3-10.31-3.84c4.04,6.9,6.84,14.38,8.18,22.24 M128.189,43.951
	c-32.74,0-63.11,12.93-82.15,34.78c-6.38,0.03-12.95,1.22-19.54,3.53l-0.07,0.03l-0.06,0.03c-4.98,1.84-8.94,3.979-12.48,6.75
	l-0.03,0.03l-0.03,0.03c-2.56,2.05-4.62,4.23-6.28,6.67c-2.3,3.38-3.73,7.25-4.14,11.21l-0.03,0.3l-0.01,0.31
	c0,0.15-0.01,0.25-0.01,0.32c-0.07,0.67-0.08,1.15-0.05,2c0.02,0.89,0.1,2.25,0.35,3.52c0.35,2.18,0.99,3.99,1.5,5.33l0.03,0.07
	l0.03,0.07c1.13,2.78,2.69,5.41,4.78,8.03l0.03,0.04l0.03,0.04c2.96,3.65,6.45,6.76,10.97,9.8l0.02,0.021l0.02,0.02
	c2.23,1.48,4.53,2.801,6.96,4c3.52,19.19,14.9,36.73,32.42,49.79c18.61,13.87,42.66,21.511,67.74,21.511
	c25.12,0,49.209-7.66,67.831-21.57c17.549-13.12,28.909-30.721,32.369-49.971c2.26-1.13,4.4-2.38,6.48-3.75l0.029-0.02l0.03-0.02
	c4.511-3.03,8-6.15,10.96-9.791l0.03-0.04l0.03-0.04c2.08-2.63,3.65-5.25,4.77-8.02l0.03-0.08l0.03-0.08
	c0.52-1.34,1.149-3.15,1.5-5.32c0.24-1.25,0.32-2.61,0.35-3.54c0.02-0.83,0.01-1.31-0.05-1.94c-0.011-0.11-0.011-0.21-0.021-0.36
	l-0.01-0.3l-0.029-0.29c-0.4-3.95-1.83-7.83-4.131-11.2c-1.66-2.43-3.72-4.61-6.279-6.66l-0.041-0.03l-0.039-0.03
	c-3.54-2.76-7.51-4.91-12.49-6.75l-0.061-0.02l-0.069-0.02c-6.44-2.25-12.86-3.44-19.091-3.52C191.311,56.93,160.939,44,128.2,44
	L128.189,43.951z M20.1,108.43c-0.023,0.64-0.06,0.926-0.08,1.156c0.035,0.145,0.053,0.47,0.09,0.72
	c0.15,0.913,0.33,1.536,0.666,2.406c0.47,1.147,1.23,2.4,2.327,3.783c1.852,2.278,4.11,4.267,7.26,6.385
	c2.465,1.63,5.2,3.07,8.31,4.358l4.733,1.96l0.6,5.09c3.99,34.25,40.987,61.073,84.21,61.073c43.323,0,80.317-26.9,84.214-61.25
	l0.58-5.061l4.69-1.99c3.007-1.27,5.61-2.65,7.96-4.21c3.109-2.09,5.37-4.08,7.279-6.44c1.039-1.3,1.799-2.55,2.33-3.86
	c0.275-0.71,0.455-1.33,0.53-1.87c0.11-0.63,0.13-0.95,0.14-1.28c-0.01-0.08-0.032-0.34-0.06-0.98c-0.155-1.11-0.61-2.25-1.292-3.27
	c-0.718-1.04-1.638-2-2.895-3c-2.092-1.64-4.553-2.95-7.902-4.18c-5.52-1.93-11.09-2.79-16.55-2.4l-4.58,0.31l-2.851-3.6
	c-15.67-19.81-42.43-31.63-71.589-31.63c-29.17,0-55.93,11.83-71.6,31.64l-2.88,3.65l-4.63-0.36c-5.55-0.43-11.2,0.4-17.03,2.45
	c-3.22,1.18-5.68,2.49-7.84,4.18c-1.19,0.95-2.11,1.91-2.83,2.97c-0.67,1-1.13,2.15-1.29,3.26L20.1,108.43z"/>
<path fill="#676767" d="M50.744,90.612c0,0-32.264,6.8-32.914,17.534c-0.635,10.733,21.8,21.98,34.45,22.74
	C52.28,130.889,35.25,114.483,50.744,90.612z"/>
<path fill="#B3B3B3" d="M50.6,94.293c-6.013,0.163-12.103,2.05-17.386,4.79c-2.61,1.373-5.027,3.05-6.736,4.865
	c-1.79,1.84-2.436,3.706-2.217,4.587c0.16,0.868,0.93,2.31,2.68,3.89c1.69,1.553,4,3,6.47,4.19c4.93,2.35,10.91,3.87,15.56,3.696
	c5.11-0.18,9.39,3.8,9.57,8.91c0.18,5.11-3.8,9.391-8.9,9.561c-0.46,0.02-0.91,0.01-1.36-0.04l-0.4-0.05
	c-4.42-0.51-8.26-1.67-11.94-3.121c-3.66-1.469-7.11-3.25-10.41-5.43c-3.28-2.209-6.43-4.77-9.23-8.209
	c-1.37-1.73-2.67-3.7-3.63-6.07c-0.46-1.21-0.87-2.47-1.08-3.85c-0.12-0.6-0.2-1.49-0.22-2.36c-0.03-1.09,0.04-0.62,0.07-1.86
	c0.3-2.87,1.4-5.48,2.79-7.52s3.01-3.6,4.67-4.92c3.32-2.59,6.81-4.24,10.33-5.54c7.02-2.46,14.32-3.63,21.71-2.86
	c2.03,0.22,3.51,2.04,3.28,4.07c-0.18,1.87-1.74,3.26-3.57,3.3L50.6,94.293z"/>
<path fill="#676767" d="M205.25,90.612c0,0,32.271,6.8,32.92,17.534c0.632,10.733-21.8,21.98-34.45,22.74
	C203.72,130.889,220.75,114.483,205.25,90.612z"/>
<path fill="#B3B3B3" d="M205.4,94.293c6.01,0.163,12.1,2.05,17.386,4.79c2.61,1.373,5.026,3.05,6.735,4.865
	c1.787,1.84,2.438,3.706,2.218,4.587c-0.16,0.868-0.931,2.31-2.681,3.89c-1.689,1.553-4,3-6.47,4.19
	c-4.93,2.35-10.92,3.87-15.56,3.696c-5.11-0.18-9.391,3.8-9.57,8.91c-0.18,5.11,3.8,9.391,8.9,9.561c0.459,0.02,0.91,0.01,1.35-0.04
	l0.4-0.05c4.42-0.51,8.26-1.67,11.93-3.121c3.66-1.469,7.109-3.25,10.42-5.43c3.28-2.209,6.43-4.77,9.23-8.209
	c1.369-1.73,2.67-3.7,3.629-6.07c0.461-1.21,0.871-2.47,1.08-3.85c0.121-0.6,0.201-1.49,0.221-2.36c0.029-1.09-0.04-0.62-0.07-1.86
	c-0.3-2.87-1.4-5.48-2.79-7.52s-3.02-3.6-4.67-4.92c-3.319-2.59-6.819-4.24-10.33-5.54c-7.02-2.46-14.31-3.63-21.7-2.86
	c-2.029,0.22-3.51,2.04-3.279,4.07c0.189,1.87,1.74,3.26,3.57,3.3L205.4,94.293z"/>
<path fill="#FFFFFF" d="M221.546,127.996c0,42.02-41.776,76.085-93.32,76.085c-51.546,0-93.335-34.06-93.335-76.08
	c0-42.01,41.79-76.07,93.34-76.07c51.55,0,93.32,34.06,93.32,76.08L221.546,127.996z"/>
<path fill="#B3B3B3" d="M203.645,135.318c0,34.763-33.871,62.942-75.646,62.942c-41.773,0-75.64-28.18-75.64-62.94
	c0-34.759,33.866-62.939,75.64-62.939c41.775,0,75.646,28.18,75.646,62.95V135.318z"/>
<path fill="#999898" d="M127.997,201.172c-43.313,0-78.55-29.54-78.55-65.854c0-36.311,35.237-65.855,78.55-65.855
	c43.313,0,78.555,29.545,78.555,65.855C206.552,171.631,171.313,201.172,127.997,201.172z M127.997,75.279
	c-40.105,0-72.73,26.93-72.73,60.03c0,33.101,32.625,60.03,72.73,60.03c40.104,0,72.737-26.93,72.737-60.04
	c0-33.11-32.631-60.04-72.737-60.04V75.279z"/>
<path fill="#333333" d="M128,176.35c-3.216,0-6-2.6-6-5.815V141.45c0-3.218,2.784-5.816,6-5.816c3.216,0,6,2.601,6,5.816v29.084
	c0,3.215-2.786,5.817-6,5.817V176.35z"/>
<path fill="#2974A7" d="M139.52,142.216c0,3.863-5.155,6.994-11.52,6.994c-6.356,0-11.52-3.13-11.52-6.994
	c0-3.862,5.162-6.991,11.52-6.991C134.363,135.225,139.52,138.354,139.52,142.216z"/>
<path fill="#C1272D" d="M93.837,160.646c0.11-0.035,0.625-0.035,2.83-0.41c1-0.163,2.21-0.362,3.596-0.592
	c1.264-0.136,2.67-0.295,4.193-0.522c3.06-0.392,6.56-0.63,10.31-1.021c1.88-0.088,3.83-0.109,5.79-0.272c1.97-0.21,3.98-0.2,6-0.11
	c2.02,0.021,4.039,0.03,6.029,0.051c2-0.09,3.96,0.26,5.87,0.399c1.91,0.21,3.78,0.3,5.55,0.45c1.801,0.08,3.45,0.359,4.99,0.67
	c6.15,1.12,10.6,1.55,10.6,1.55c8.771,0.851,15.2,8.66,14.351,17.44c-0.851,8.779-8.66,15.199-17.44,14.34
	c-3.229-0.32-6.15-1.57-8.5-3.48l-0.27-0.229c0,0-2.221-1.8-6.061-4.021c-0.96-0.58-2-1.22-3.22-1.51
	c-1.19-0.39-2.46-0.859-3.8-1.22c-1.34-0.32-2.69-0.979-4.17-1.021c-1.46-0.16-2.95-0.31-4.44-0.46
	c-2.98-0.409-6.02,0.12-8.83,0.311c-1.4,0.149-2.72,0.56-3.979,0.85c-1.26,0.28-2.45,0.56-3.47,1.021
	c-2.14,0.77-3.75,1.57-4.52,2.149l-1.73,1.14c-6.42,4.211-15.04,2.42-19.26-4c-4.21-6.42-2.42-15.039,4-19.26
	c1.13-0.74,2.33-1.289,3.56-1.68l2.07-0.609L93.837,160.646z"/>
<path fill="#333333" d="M87.81,149.572c-4.665,0-9.376-1.868-14.062-5.583c-1.893-1.5-2.203-4.25-0.71-6.14
	c1.505-1.891,4.257-2.201,6.132-0.711c4.088,3.24,7.74,4.32,11.217,3.311c7.846-2.29,13.652-14.62,15.225-19.17
	c0.787-2.28,3.27-3.5,5.55-2.7c2.278,0.79,3.485,3.27,2.698,5.55c-0.732,2.11-7.52,20.75-21.03,24.689
	c-1.664,0.48-3.342,0.721-5.02,0.721V149.572z M168.189,149.572c-1.68,0-3.354-0.244-5.02-0.725
	c-13.51-3.945-20.298-22.583-21.029-24.698c-0.785-2.28,0.42-4.755,2.692-5.546c2.283-0.787,4.754,0.41,5.553,2.687
	c1.587,4.57,7.429,16.91,15.236,19.189c3.481,1.011,7.127-0.08,11.21-3.319c1.88-1.49,4.632-1.181,6.128,0.71
	c1.496,1.89,1.185,4.64-0.71,6.14c-4.686,3.72-9.395,5.591-14.061,5.591V149.572z"/>
</svg>
