<svg xmlns="http://www.w3.org/2000/svg" width="256" height="256" viewBox="0 0 256 256"><path fill="#fff" d="M128.197 208.078c-53.672 0-97.338-35.926-97.338-80.082 0-1.042.02-2.112.08-3.2-2.67-2.3-5.1-4.913-7.52-8.097-2.63-3.47-4.76-6.99-6.54-10.76-2.14-4.6-3.41-8.7-4.01-12.95-.39-2.99-.38-5.67.03-8.26.23-1.32.58-2.96 1.28-4.69.38-1.04.96-2.11 1.28-2.67.36-.64.52-.88.77-1.22.06-.09.15-.22.36-.54l.08-.13.09-.12c2.52-3.33 5.63-5.22 7.79-6.21 2.33-1.08 4.77-1.76 7.68-2.14 1.45-.17 2.9-.26 4.36-.26 2.69 0 5.43.28 8.62.89 4.77 1 9.2 2.47 13.25 4.4 18.25-15.39 43.48-24.16 69.71-24.16 26.81 0 52.43 9.11 70.78 25.1 3.44-1.59 7.16-2.86 11.11-3.8 3.6-.81 6.66-1.17 9.71-1.17 1.09 0 2.19.05 3.26.15 2.89.29 5.44.91 7.8 1.92 2.2.94 5.35 2.75 7.96 5.98l.09.11.07.11c.22.32.32.45.39.54.26.33.42.57.81 1.21.55.9 1.03 1.83 1.35 2.62.59 1.35 1.03 2.81 1.39 4.57.5 2.63.59 5.24.29 8.27-.47 4.29-1.63 8.43-3.64 13.08-1.65 3.78-3.68 7.35-6.21 10.93-2.55 3.53-5.08 6.37-7.89 8.85.01.54.02 1.06.02 1.58 0 44.16-43.66 80.09-97.32 80.09zm83.778-120.874c2.246 3.12 4.23 6.357 5.938 9.695.23-.35.454-.7.67-1.04 1.29-2.09 2.253-4.2 2.707-5.94.236-.87.298-1.52.298-1.91-.308-.18-.812-.4-1.51-.56-1.293-.32-2.822-.48-4.498-.48-.83 0-1.698.03-2.585.11-.34.03-.68.07-1.02.11zM34.35 86.812c.013.392.092 1.025.346 1.87.515 1.742 1.538 3.83 2.887 5.894.376.57.778 1.14 1.2 1.703 1.883-3.59 4.086-7.07 6.595-10.4-.83-.11-1.665-.19-2.504-.24-.565-.03-1.16-.05-1.75-.05-1.993 0-3.79.21-5.2.6-.747.19-1.264.43-1.574.62z"/><path fill="#333" d="M128.197 51.92c27.948 0 53.02 10.018 70.124 25.886 3.98-2.1 8.26-3.633 12.7-4.696 2.79-.62 5.69-1.057 8.78-1.057.95 0 1.92.04 2.91.13 2.11.21 4.32.647 6.6 1.613 2.26.97 4.6 2.56 6.41 4.812.71 1.02.5.59 1.07 1.535.45.74.86 1.52 1.09 2.105.57 1.277.91 2.552 1.17 3.822.48 2.513.45 4.877.23 7.08-.48 4.4-1.75 8.258-3.32 11.894-1.58 3.62-3.53 6.988-5.81 10.207-2.31 3.21-4.91 6.26-8.35 9.09l-.27.23-.07.06c.06 1.12.1 2.25.1 3.38 0 42.02-41.78 76.08-93.32 76.08-51.55 0-93.34-34.06-93.34-76.08 0-1.68.08-3.34.21-4.99-3.44-2.7-6.1-5.63-8.46-8.73-2.37-3.14-4.41-6.46-6.1-10.03-1.66-3.58-3.04-7.4-3.66-11.79-.28-2.19-.37-4.55.03-7.07.23-1.28.53-2.57 1.06-3.85.21-.59.6-1.38 1.03-2.14.54-.95.35-.51 1.02-1.56 1.74-2.3 4.04-3.96 6.28-4.99 2.24-1.03 4.44-1.52 6.53-1.8 1.31-.16 2.59-.23 3.84-.23 2.74 0 5.34.34 7.87.82 5.13 1.08 10.05 2.79 14.58 5.27 17.08-15.33 41.72-24.95 69.12-24.95M39.83 103.5c3.04-7.288 7.4-14.074 12.85-20.18-3.13-.902-6.36-1.446-9.53-1.653-.675-.04-1.347-.06-2.01-.06-2.25 0-4.42.23-6.277.75-2.477.64-4 1.9-4.264 2.77-.32.827-.4 2.46.28 4.718.65 2.207 1.86 4.64 3.36 6.93 1.57 2.38 3.51 4.71 5.58 6.72m177.15.99c1.87-1.98 3.61-4.23 5.02-6.504 1.44-2.33 2.6-4.81 3.18-7.03.62-2.27.48-3.9.14-4.71-.28-.86-1.85-2.09-4.33-2.66-1.62-.4-3.47-.58-5.39-.58-.96 0-1.94.04-2.93.13-2.61.25-5.26.74-7.85 1.45 5.18 6.06 9.3 12.75 12.16 19.92M128.2 43.92c-26.23 0-51.54 8.51-70.33 23.496-3.676-1.556-7.605-2.775-11.74-3.64l-.07-.015-.07-.01c-3.437-.65-6.415-.96-9.37-.96-1.61 0-3.225.1-4.797.29l-.04.01-.042.01c-3.26.43-6.15 1.24-8.83 2.47-3.7 1.7-6.92 4.27-9.31 7.44l-.18.24-.16.25c-.08.13-.13.22-.17.27-.41.55-.67.96-1.09 1.71-.43.76-1.05 1.94-1.51 3.16-.83 2.06-1.23 3.94-1.48 5.36l-.01.08-.01.09c-.46 2.96-.48 6.02-.05 9.34l.01.05v.04c.66 4.65 2.03 9.11 4.33 14.06 1.92 4.06 4.2 7.8 6.98 11.48 2.17 2.85 4.34 5.27 6.66 7.43-.01.5-.01.99-.01 1.47 0 22.78 10.76 44.08 30.29 60 19.05 15.53 44.29 24.08 71.06 24.08 26.76 0 51.99-8.55 71.04-24.08 19.48-15.88 30.23-37.13 30.28-59.84 2.5-2.37 4.8-5.05 7.1-8.23l.02-.03.02-.03c2.69-3.8 4.86-7.61 6.61-11.63 2.18-5.05 3.43-9.56 3.94-14.22l.01-.04v-.04c.33-3.38.23-6.44-.33-9.37l-.01-.05-.01-.06c-.41-2.03-.93-3.73-1.63-5.34-.53-1.29-1.24-2.52-1.62-3.15-.43-.71-.68-1.09-1.07-1.58-.05-.06-.11-.15-.26-.36l-.16-.23-.17-.22c-2.47-3.07-5.75-5.54-9.48-7.14-2.77-1.17-5.69-1.9-8.97-2.22h-.03l-.03-.01c-1.19-.11-2.41-.16-3.63-.16-3.35 0-6.69.4-10.51 1.25l-.06.02-.06.01c-3.32.79-6.49 1.81-9.49 3.03-18.91-15.59-44.63-24.44-71.47-24.44z"/><path fill="#676767" d="M62.52 83.464s-31.138-10.856-37.24-2c-6.087 8.857 7.294 30.08 17.74 37.272 0 0-6.104-22.848 19.5-35.272z"/><path fill="#B3B3B3" d="M60.49 86.538c-5.23-2.967-11.416-4.498-17.355-4.887-2.945-.17-5.88.02-8.285.69-2.477.64-4 1.91-4.264 2.78-.316.83-.398 2.46.28 4.72.65 2.21 1.868 4.64 3.368 6.94 3.006 4.56 7.348 8.95 11.408 11.2 4.465 2.49 6.064 8.11 3.584 12.57-2.484 4.46-8.105 6.07-12.56 3.59-.41-.22-.784-.47-1.136-.74l-.324-.25c-3.518-2.73-6.21-5.7-8.605-8.84-2.37-3.15-4.41-6.46-6.1-10.04-1.67-3.58-3.04-7.41-3.66-11.79-.28-2.19-.37-4.55.03-7.08.23-1.28.53-2.57 1.07-3.85.21-.58.6-1.38 1.03-2.14.53-.95.35-.51 1.02-1.56 1.74-2.3 4.04-3.96 6.28-4.98 2.25-1.03 4.44-1.53 6.53-1.8 4.2-.51 8.04-.11 11.72.59 7.28 1.52 14.14 4.3 20.07 8.77 1.62 1.24 1.95 3.56.71 5.18-1.13 1.51-3.18 1.89-4.77.98z"/><path fill="#676767" d="M193.334 85.468c-11.568-5.2 30.81-11.737 37.164-3.056 6.346 8.683-3.928 27.016-14.158 34.495 0 0 2.943-19.746-23.006-31.44z"/><path fill="#B3B3B3" d="M191.213 82.453c5.79-4.653 12.574-7.614 19.807-9.344 3.648-.82 7.482-1.31 11.68-.93 2.107.21 4.32.64 6.595 1.61 2.258.97 4.6 2.56 6.41 4.81.71 1.02.496.59 1.065 1.53.45.74.855 1.52 1.09 2.1.563 1.27.904 2.55 1.164 3.82.48 2.51.447 4.87.23 7.08-.484 4.4-1.755 8.25-3.324 11.89-1.58 3.62-3.53 6.99-5.808 10.21-2.312 3.2-4.916 6.25-8.353 9.08l-.28.23c-3.95 3.23-9.76 2.67-13.01-1.27-3.24-3.94-2.67-9.77 1.27-13.01.36-.29.77-.58 1.14-.81 4-2.38 8.21-6.89 11.08-11.53 1.44-2.34 2.59-4.82 3.17-7.03.61-2.27.47-3.91.14-4.72-.28-.86-1.85-2.09-4.34-2.66-2.43-.61-5.37-.7-8.32-.45-5.92.56-12.06 2.27-17.21 5.38-1.74 1.06-4.02.5-5.08-1.24-.97-1.6-.58-3.66.84-4.8z"/><path fill="#fff" d="M221.518 127.996c0 42.02-41.778 76.082-93.32 76.082-51.55 0-93.337-34.06-93.337-76.082 0-42.014 41.79-76.077 93.34-76.077 51.54 0 93.32 34.06 93.32 76.07z"/><path fill="#B3B3B3" d="M201.51 125.838c0 34.275-33.87 62.076-75.65 62.076-41.77 0-75.64-27.8-75.64-62.076 0-34.288 33.87-62.087 75.64-62.087 41.78 0 75.65 27.8 75.65 62.09z"/><path fill="#999898" d="M125.86 190.818c-43.308 0-78.55-29.15-78.55-64.98 0-35.843 35.242-64.995 78.55-64.995 43.318 0 78.558 29.152 78.558 64.995 0 35.83-35.24 64.98-78.557 64.98zm0-124.157c-40.104 0-72.73 26.55-72.73 59.18 0 32.63 32.626 59.17 72.73 59.17 40.107 0 72.74-26.54 72.74-59.16 0-32.63-32.633-59.17-72.74-59.17z"/><radialGradient id="a" cx="130.12" cy="224.706" r="149.273" gradientTransform="matrix(1 0 0 -1 0 257)" gradientUnits="userSpaceOnUse"><stop offset="0" stop-color="#0071BC"/><stop offset="1" stop-color="#0071BC" stop-opacity="0"/></radialGradient><path fill="url(#a)" d="M221.518 127.996c0 42.02-41.778 76.082-93.32 76.082-51.55 0-93.337-34.06-93.337-76.082 0-42.014 41.79-76.077 93.34-76.077 51.54 0 93.32 34.06 93.32 76.07z"/><path fill="#fff" d="M123.6 106.047c0 19.495-15.798 35.295-35.294 35.295-19.504 0-35.295-15.8-35.295-35.295 0-19.492 15.8-35.296 35.3-35.296 19.5 0 35.3 15.81 35.3 35.3zm58.785 1.096c0 14.073-11.404 25.478-25.48 25.478-14.075 0-25.478-11.4-25.478-25.47 0-14.07 11.402-25.48 25.48-25.48 14.073 0 25.478 11.41 25.478 25.48z"/><path fill="#2974A7" d="M158.14 104.673c0 6.48-5.255 11.735-11.74 11.735-6.482 0-11.734-5.256-11.734-11.735 0-6.49 5.252-11.745 11.733-11.745 6.48 0 11.74 5.255 11.74 11.745z"/><path fill="#fff" d="M144.604 101.28c0 2.208-1.79 4-3.998 4-2.22 0-4.006-1.792-4.006-4 0-2.213 1.787-4 4.006-4 2.208 0 3.998 1.787 3.998 4zm4.414 4.323c0 1.036-.848 1.875-1.88 1.875-1.04 0-1.88-.84-1.88-1.875 0-1.047.84-1.886 1.88-1.886 1.032 0 1.88.84 1.88 1.886z"/><path fill="#2974A7" d="M117.42 104.673c0 6.48-5.255 11.735-11.745 11.735-6.477 0-11.736-5.256-11.736-11.735 0-6.49 5.26-11.745 11.73-11.745 6.49 0 11.74 5.255 11.74 11.745z"/><path fill="#fff" d="M103.882 101.28c0 2.208-1.79 4-4 4-2.217 0-4.006-1.792-4.006-4 0-2.213 1.79-4 4.006-4 2.21 0 4 1.787 4 4zm4.414 4.323c0 1.036-.846 1.875-1.88 1.875-1.04 0-1.88-.84-1.88-1.875 0-1.047.84-1.886 1.88-1.886 1.035 0 1.88.84 1.88 1.886z"/><path fill="#333" d="M128 170.533c-3.213 0-5.5-2.602-5.5-5.813v-34.903c0-3.218 2.287-5.82 5.5-5.82 3.215 0 5.5 2.603 5.5 5.82v34.903c0 3.212-2.285 5.813-5.5 5.813z"/><path fill="#2974A7" d="M139.52 130.58c0 3.863-5.157 6.994-11.52 6.994-6.356 0-11.522-3.13-11.522-6.993 0-3.86 5.166-6.99 11.522-6.99 6.363 0 11.52 3.13 11.52 6.99z"/><path fill="#C1272D" d="M94.767 160.695s.197-.113.553-.33c.26-.178 1.018-.58 2.137-1.04 1.057-.437 2.336-.966 3.805-1.566 1.29-.49 2.75-1.02 4.37-1.53 1.62-.59 3.364-.97 5.24-1.4 1.864-.41 3.833-.93 5.907-1.2 4.15-.4 8.58-1.17 13.11-.88 2.26.1 4.51.19 6.74.29 2.22.01 4.39.64 6.49.96 2.1.37 4.12.83 6.03 1.25 1.93.32 3.66 1 5.27 1.63 6.42 2.48 10.47 4.47 10.47 4.47 10.26 5.03 14.5 17.42 9.45 27.68-3.88 7.9-12.13 12.23-20.42 11.5l-5.38-.51s-2.62-.24-6.19-1.1c-.89-.25-1.85-.51-2.93-.56-1.06-.11-2.19-.21-3.32-.42-1.15-.14-2.28-.52-3.54-.48-1.23-.07-2.48-.15-3.74-.21-1.25-.17-2.52-.25-3.78-.16-1.26.05-2.5-.01-3.72-.05-1.21.06-2.37.11-3.48.16-1.11.06-2.21.02-3.13.14-.94.09-1.83.13-2.63.15-.59 0-1.09.01-1.51.02-.35-.02-.74-.05-1.25.07-.41.08-.64.11-.64.11l-.3.05c-10.96 1.87-21.36-5.5-23.22-16.46-1.44-8.43 2.62-16.55 9.55-20.68z"/><path fill="#fff" d="M186.78 119.645s-12.6 25.684-2.415 29.564c10.176 3.87 15.016-10.17 2.416-29.57z"/></svg>