<svg xmlns="http://www.w3.org/2000/svg" width="256" height="256" viewBox="0 0 256 256"><path fill="#fff" d="M128.227 208.08c-24.225 0-47.434-7.355-65.352-20.71-17.313-12.904-28.33-30.337-31.218-49.3-2.968-1.35-5.72-2.872-8.355-4.62-4.206-2.823-7.417-5.683-10.125-9.014-1.875-2.363-3.25-4.67-4.236-7.09-.69-1.78-1.09-3.204-1.32-4.657-.21-1.09-.27-2.32-.28-2.97-.02-.73-.01-1.02.04-1.44.01-.11.03-.26.04-.64l.01-.15.02-.15c.43-4.15 2.12-7.38 3.46-9.35 1.45-2.12 3.24-4.01 5.48-5.8 3.24-2.53 6.87-4.49 11.45-6.18 6.31-2.21 12.52-3.32 18.52-3.32.53 0 1.06.01 1.58.02 18.18-21.83 48.03-34.8 80.32-34.8 32.28 0 62.12 12.97 80.31 34.8.39-.01.77-.02 1.15-.02 6 0 12.22 1.11 18.46 3.3 4.65 1.71 8.27 3.67 11.48 6.17 2.27 1.81 4.06 3.7 5.5 5.81 1.35 1.97 3.04 5.2 3.47 9.36l.02.15.01.15c.01.38.02.52.03.63.04.41.06.71.03 1.46-.01.62-.07 1.85-.28 2.93-.29 1.84-.84 3.41-1.29 4.58-1.01 2.5-2.39 4.8-4.23 7.13-2.73 3.36-5.95 6.22-10.13 9.03-2.5 1.66-5.1 3.11-7.9 4.41-2.83 19.02-13.82 36.51-31.15 49.46-17.93 13.4-41.16 20.77-65.43 20.77zM28.36 108.044c.214.327.607.824 1.257 1.41.862.79 1.98 1.593 3.268 2.354.818-3.29 1.886-6.523 3.197-9.69-.344.166-.686.337-1.028.514-2.353 1.24-4.37 2.685-5.658 4.057-.545.55-.864 1.03-1.035 1.35zm192.108-5.656c1.23 3.008 2.24 6.075 3.027 9.19 1.124-.688 2.104-1.405 2.866-2.103.67-.602 1.07-1.105 1.28-1.434-.16-.31-.47-.77-.98-1.29-1.34-1.42-3.36-2.87-5.74-4.12-.15-.08-.3-.15-.45-.23z"/><path fill="#333" d="M128.227 51.92c32.923 0 61.857 13.896 78.47 34.886.995-.066 1.988-.1 2.98-.1 5.825 0 11.57 1.125 17.136 3.074 3.516 1.298 7.012 2.95 10.334 5.547 1.652 1.317 3.27 2.88 4.662 4.92 1.38 2.038 2.49 4.645 2.79 7.513.03 1.248.1.773.06 1.865-.02.875-.1 1.755-.23 2.363-.21 1.38-.62 2.64-1.09 3.852-.97 2.37-2.26 4.34-3.64 6.073-2.8 3.438-5.95 6-9.23 8.203-2.98 1.973-6.09 3.603-9.35 4.985-4.4 38.69-44.31 68.98-92.91 68.98-48.53 0-88.4-30.18-92.91-68.78-3.44-1.42-6.7-3.11-9.81-5.18-3.29-2.2-6.44-4.76-9.23-8.2-1.38-1.73-2.67-3.7-3.64-6.07-.47-1.21-.88-2.47-1.09-3.85-.13-.61-.21-1.49-.23-2.36-.04-1.09.03-.61.07-1.86.29-2.86 1.4-5.47 2.79-7.51 1.39-2.03 3.01-3.6 4.66-4.92 3.33-2.59 6.82-4.24 10.33-5.54 5.57-1.95 11.31-3.07 17.13-3.07 1.13 0 2.26.05 3.4.13C66.3 65.85 95.25 51.94 128.2 51.94m-92.456 65.7c1.33-7.96 4.16-15.53 8.27-22.51-3.78.83-7.46 2.22-10.817 3.96-2.614 1.38-5.03 3.057-6.735 4.876-1.79 1.834-2.435 3.704-2.216 4.583.16.87.93 2.31 2.68 3.89 1.69 1.55 4 3 6.47 4.19.76.36 1.55.69 2.35 1.01m184.9-.16c.66-.27 1.31-.56 1.94-.86 2.47-1.2 4.78-2.65 6.47-4.2 1.75-1.58 2.52-3.02 2.68-3.89.22-.88-.42-2.75-2.21-4.58-1.71-1.82-4.12-3.5-6.74-4.87-3.2-1.66-6.7-3-10.31-3.83 4.05 6.9 6.85 14.37 8.18 22.23m-92.43-73.56c-32.74 0-63.115 12.93-82.15 34.79-6.378.03-12.95 1.21-19.537 3.52l-.06.02-.06.02c-4.98 1.83-8.95 3.98-12.49 6.74l-.03.02-.04.02c-2.56 2.04-4.61 4.22-6.28 6.66-2.3 3.4-3.73 7.26-4.14 11.2l-.03.3-.01.3c0 .15 0 .25-.01.31-.06.67-.08 1.16-.05 2.01.02.88.1 2.23.35 3.51.36 2.23 1.03 4.11 1.51 5.34l.03.06.02.06c1.13 2.78 2.69 5.41 4.78 8.04l.03.04.03.04c2.96 3.65 6.45 6.76 10.98 9.8 2.25 1.5 4.57 2.83 7 4.03 3.52 19.19 14.9 36.73 32.42 49.79 18.6 13.87 42.66 21.51 67.74 21.51 25.12 0 49.21-7.66 67.82-21.57 17.54-13.11 28.91-30.72 32.37-49.96 2.26-1.15 4.41-2.39 6.48-3.76 4.56-3.07 8.05-6.18 11.02-9.83l.03-.04.02-.04c2.08-2.63 3.65-5.25 4.78-8.03l.03-.08.03-.08c.51-1.34 1.14-3.15 1.49-5.32.24-1.27.32-2.61.34-3.54.03-.84.01-1.33-.05-1.97-.01-.1-.01-.19-.02-.34v-.31l-.03-.3c-.41-3.95-1.84-7.82-4.14-11.2-1.68-2.45-3.73-4.63-6.29-6.67l-.03-.02-.03-.03c-3.54-2.77-7.51-4.91-12.49-6.75l-.06-.02-.07-.02c-6.43-2.26-12.85-3.44-19.09-3.52-19.03-21.85-49.4-34.79-82.14-34.79zm-108.12 64.5c-.024.63-.058.92-.08 1.15.034.14.05.46.09.71.147.91.33 1.54.665 2.41.48 1.14 1.24 2.39 2.33 3.78 1.86 2.28 4.11 4.27 7.26 6.38 2.47 1.63 5.2 3.06 8.31 4.35l4.74 1.96.6 5.09c4 34.25 40.99 61.07 84.22 61.07 43.32 0 80.32-26.91 84.22-61.25l.58-5.07 4.69-1.99c3.01-1.27 5.61-2.65 7.96-4.21 3.11-2.09 5.37-4.08 7.28-6.44 1.04-1.31 1.8-2.56 2.34-3.86.27-.72.45-1.34.53-1.87.1-.63.12-.96.13-1.28-.01-.08-.04-.35-.06-.98-.16-1.11-.61-2.26-1.3-3.28-.72-1.04-1.64-2-2.89-3-2.1-1.65-4.56-2.95-7.91-4.19-5.53-1.93-11.1-2.78-16.56-2.4l-4.59.31-2.85-3.6c-15.66-19.8-42.43-31.62-71.58-31.62-29.17 0-55.94 11.82-71.6 31.64l-2.9 3.66-4.64-.36c-5.55-.43-11.2.4-17.03 2.45-3.22 1.18-5.68 2.49-7.84 4.18-1.18.95-2.1 1.91-2.83 2.96-.67.99-1.13 2.14-1.28 3.25z"/><path fill="#676767" d="M50.746 90.61s-32.266 6.8-32.914 17.54c-.637 10.728 21.797 21.978 34.45 22.74 0 0-17.032-16.407-1.536-40.28z"/><path fill="#B3B3B3" d="M50.597 94.29c-6.012.168-12.1 2.054-17.383 4.79-2.615 1.377-5.03 3.052-6.736 4.87-1.79 1.834-2.436 3.704-2.217 4.583.16.87.93 2.314 2.68 3.892 1.69 1.55 4 3 6.47 4.193 4.93 2.347 10.91 3.87 15.56 3.69 5.11-.18 9.39 3.804 9.57 8.902.18 5.104-3.8 9.388-8.9 9.565-.46.02-.91.004-1.35-.048l-.4-.052c-4.42-.52-8.26-1.67-11.94-3.118-3.66-1.472-7.11-3.255-10.41-5.442-3.28-2.204-6.43-4.766-9.23-8.203-1.37-1.732-2.67-3.702-3.63-6.073-.47-1.22-.87-2.48-1.08-3.86-.13-.61-.21-1.49-.23-2.37-.03-1.09.03-.62.07-1.87.3-2.87 1.4-5.48 2.79-7.52 1.4-2.04 3.01-3.6 4.67-4.92 3.32-2.59 6.81-4.25 10.33-5.54 7.01-2.46 14.31-3.63 21.7-2.86 2.03.22 3.51 2.04 3.29 4.06-.19 1.87-1.75 3.26-3.58 3.31z"/><path fill="#676767" d="M205.252 90.61s32.27 6.8 32.918 17.54c.635 10.728-21.8 21.978-34.45 22.74 0 0 17.032-16.407 1.532-40.28z"/><path fill="#B3B3B3" d="M205.402 94.29c6.01.168 12.098 2.054 17.38 4.79 2.616 1.377 5.032 3.052 6.74 4.87 1.79 1.834 2.437 3.704 2.216 4.583-.154.87-.928 2.314-2.676 3.892-1.693 1.55-4 3-6.47 4.193-4.927 2.347-10.913 3.87-15.556 3.69-5.107-.18-9.383 3.804-9.566 8.902-.174 5.104 3.81 9.388 8.902 9.565.465.02.914.004 1.357-.048l.4-.052c4.42-.52 8.26-1.67 11.94-3.118 3.66-1.472 7.11-3.255 10.41-5.442 3.28-2.204 6.43-4.766 9.23-8.203 1.37-1.732 2.67-3.702 3.63-6.073.46-1.22.87-2.48 1.08-3.86.12-.61.2-1.49.22-2.37.03-1.09-.04-.62-.07-1.87-.3-2.87-1.41-5.48-2.79-7.52-1.4-2.04-3.01-3.6-4.67-4.92-3.32-2.6-6.82-4.25-10.33-5.55-7.02-2.46-14.32-3.63-21.71-2.86-2.03.22-3.51 2.04-3.28 4.06.19 1.87 1.75 3.26 3.58 3.31z"/><path fill="#fff" d="M221.547 128c0 42.02-41.775 76.08-93.32 76.08-51.55 0-93.336-34.06-93.336-76.08 0-42.02 41.79-76.08 93.34-76.08 51.55 0 93.32 34.06 93.32 76.08z"/><path fill="#B3B3B3" d="M201.54 137.14c0 34.758-33.872 62.94-75.65 62.94-41.77 0-75.64-28.183-75.64-62.94 0-34.77 33.87-62.952 75.64-62.952 41.778 0 75.65 28.182 75.65 62.95z"/><path fill="#999898" d="M125.89 202.99c-43.31 0-78.55-29.54-78.55-65.852 0-36.314 35.24-65.86 78.55-65.86 43.32 0 78.557 29.546 78.557 65.86 0 36.31-35.238 65.852-78.557 65.852zm0-125.893c-40.105 0-72.73 26.933-72.73 60.042 0 33.1 32.624 60.03 72.73 60.03 40.108 0 72.74-26.94 72.74-60.04 0-33.11-32.632-60.05-72.74-60.05z"/><path fill="#333" d="M127.62 176.353c-3.216 0-5-2.602-5-5.817V141.45c0-3.215 1.784-5.817 5-5.817 3.212 0 5 2.603 5 5.816v29.08c0 3.21-1.788 5.81-5 5.81z"/><path fill="#2974A7" d="M138.016 142.217c0 3.86-5.16 6.992-11.522 6.992-6.355 0-11.52-3.14-11.52-7s5.165-7 11.52-7c6.36 0 11.522 3.13 11.522 6.99z"/><path fill="#333" d="M91.767 142.49c-6.352 0-12.86-2.614-19.398-7.8-1.9-1.502-2.21-4.246-.72-6.13 1.5-1.89 4.24-2.21 6.13-.712 5.84 4.64 11.32 6.533 16.34 5.72 6.93-1.156 11.04-7.314 11.08-7.38 1.29-2.022 3.99-2.63 6.03-1.32 2.03 1.292 2.62 3.992 1.32 6.027-.25.386-6.17 9.467-16.99 11.28-1.26.212-2.53.315-3.81.315zm70.237 0c-1.277 0-2.543-.104-3.803-.313-10.83-1.814-16.75-10.896-16.99-11.28-1.3-2.036-.7-4.736 1.32-6.03 2.03-1.307 4.71-.708 6.02 1.308.08.114 4.22 6.282 11.18 7.408 4.97.8 10.46-1.126 16.27-5.733 1.89-1.498 4.63-1.177 6.13.712 1.5 1.884 1.18 4.628-.71 6.13-6.54 5.184-13.05 7.798-19.4 7.798z"/><path fill="#C1272D" d="M100.566 171.458s.098-.116.273-.333c.26-.313 1.56-1.805 2.95-2.976l1.18-.97c.28-.18.58-.37.89-.57l1.98-1.15c.7-.39 1.52-.84 2.28-1.15.71-.25 1.47-.51 2.26-.77 1.51-.43 3.49-1.17 4.97-1.23 1.59-.19 3.28-.36 5.02-.48 1.82-.21 3.16.1 4.82.17 1.58.14 3.19.28 4.8.43 2.88.59 5.7 1.27 8.36 1.89 2.71.58 4.72 1.57 6.71 2.2 3.81 1.39 6.36 2.31 6.36 2.31 6.99 2.55 10.59 10.28 8.04 17.27-2.45 6.72-9.69 10.31-16.46 8.31l-1.41-.42-4.97-1.48c-1.46-.36-3.28-1.17-4.99-1.37l-5.38-.94-2.32-.02c-.69.03-1.67-.19-2.07 0-.49.12-.95.19-1.4.23-.61-.02-.38.24-.61.23-.06.01-.12.02-.19.01.01.01.18 0 .24-.04.08-.03.16-.08.21-.14.04-.04.02-.04.11-.11.2-.13.39-.27.56-.42.62-.47 1.28-1.45 1.17-1.34l-.27.34-.44.59c-4.85 6.42-13.97 7.69-20.39 2.85-6.42-4.85-7.69-13.97-2.85-20.39.15-.2.34-.43.49-.62z"/><path fill="#fff" d="M125.007 190.167c.186 1.995 4.852.973 5.686 4.164-.8 5.86-2.965 11.41 1.344 13.05 7.057 2.69 8.838-3.23 7.404-13.57 3.35-1.65 4.54 2.55 4.48-.48-.02-1.16-4.08-4.25-8-4.85-4.38-.66-11.11-.39-10.9 1.7z"/></svg>