<?xml version="1.0" encoding="utf-8"?>
<!-- Generator: Adobe Illustrator 16.0.0, SVG Export Plug-In . SVG Version: 6.00 Build 0)  -->
<!DOCTYPE svg PUBLIC "-//W3C//DTD SVG 1.1//EN" "http://www.w3.org/Graphics/SVG/1.1/DTD/svg11.dtd">
<svg version="1.1" id="Layer_1" xmlns="http://www.w3.org/2000/svg" xmlns:xlink="http://www.w3.org/1999/xlink" x="0px" y="0px"
	 width="256px" height="256px" viewBox="0 0 256 256" enable-background="new 0 0 256 256" xml:space="preserve">
<path fill="#FFFFFF" d="M128.195,208.08c-53.67,0-97.335-35.925-97.335-80.084c0-1.04,0.027-2.11,0.08-3.2
	c-2.662-2.29-5.086-4.903-7.52-8.09c-2.62-3.475-4.753-6.988-6.536-10.76c-2.142-4.594-3.412-8.7-4.005-12.945
	c-0.39-2.97-0.38-5.66,0.03-8.25c0.24-1.33,0.58-2.97,1.29-4.68c0.37-1.02,0.95-2.1,1.27-2.66c0.36-0.65,0.53-0.89,0.79-1.23
	c0.06-0.09,0.15-0.21,0.36-0.52l0.07-0.12l0.08-0.11c2.51-3.33,5.62-5.22,7.79-6.22c2.32-1.06,4.84-1.76,7.69-2.13
	c1.45-0.17,2.9-0.26,4.36-0.26c2.69,0,5.43,0.29,8.62,0.89c4.77,1,9.2,2.48,13.24,4.41c18.25-15.39,43.49-24.17,69.71-24.17
	c26.81,0,52.44,9.12,70.78,25.11c3.43-1.58,7.15-2.86,11.1-3.8c3.61-0.8,6.681-1.16,9.721-1.16c1.09,0,2.18,0.05,3.26,0.15
	c2.9,0.29,5.439,0.92,7.79,1.92c2.21,0.95,5.36,2.76,7.96,5.99l0.09,0.11l0.08,0.12c0.221,0.32,0.32,0.45,0.391,0.54
	c0.26,0.33,0.42,0.57,0.799,1.2c0.561,0.91,1.041,1.85,1.36,2.63c0.591,1.37,1.03,2.82,1.39,4.57c0.49,2.61,0.591,5.3,0.291,8.28
	c-0.471,4.28-1.621,8.43-3.631,13.09c-1.649,3.78-3.68,7.36-6.22,10.93c-2.55,3.54-5.09,6.39-7.899,8.86
	c0.01,0.53,0.02,1.06,0.02,1.57c-0.01,44.16-43.66,80.089-97.32,80.089l0.05-0.069L128.195,208.08z M211.97,87.204
	c2.246,3.12,4.23,6.36,5.94,9.7c0.23-0.346,0.454-0.694,0.67-1.042c1.292-2.09,2.252-4.2,2.705-5.935
	c0.236-0.873,0.3-1.516,0.302-1.91c-0.31-0.173-0.813-0.397-1.517-0.56c-1.279-0.317-2.819-0.477-4.5-0.477
	c-0.819,0-1.689,0.04-2.569,0.12c-0.34,0.04-0.681,0.07-1.021,0.11v-0.006H211.97z M34.35,86.814
	c0.013,0.385,0.092,1.014,0.347,1.854c0.512,1.75,1.533,3.833,2.888,5.906c0.376,0.57,0.778,1.14,1.2,1.702
	c1.882-3.59,4.085-7.063,6.594-10.395c-0.83-0.1-1.67-0.18-2.5-0.23c-0.56-0.03-1.16-0.05-1.74-0.05c-2,0-3.81,0.21-5.22,0.6
	c-0.75,0.2-1.27,0.44-1.57,0.62L34.35,86.814z"/>
<path fill="#333333" d="M128.195,51.92c27.95,0,53.023,10.02,70.125,25.887c3.979-2.1,8.25-3.633,12.695-4.7
	c2.797-0.62,5.691-1.055,8.783-1.055c0.94,0,1.91,0.04,2.9,0.13c2.1,0.21,4.31,0.647,6.59,1.613c2.25,0.97,4.6,2.562,6.41,4.813
	c0.699,1.02,0.49,0.59,1.06,1.533c0.45,0.75,0.86,1.53,1.091,2.11c0.56,1.28,0.899,2.56,1.159,3.83c0.47,2.52,0.44,4.88,0.23,7.08
	c-0.49,4.4-1.761,8.26-3.33,11.9c-1.58,3.62-3.53,6.99-5.81,10.2c-2.32,3.22-4.92,6.28-8.36,9.09l-0.28,0.23
	c-0.02,0.02-0.05,0.04-0.07,0.06c0.061,1.12,0.101,2.25,0.101,3.38c0,42.02-41.771,76.09-93.31,76.09
	c-51.54,0-93.33-34.07-93.33-76.09c0-1.67,0.08-3.33,0.21-4.98c-3.44-2.7-6.1-5.63-8.46-8.73c-2.37-3.15-4.4-6.46-6.1-10.04
	c-1.67-3.58-3.04-7.4-3.66-11.79c-0.28-2.19-0.37-4.55,0.02-7.08c0.23-1.27,0.53-2.56,1.07-3.85c0.21-0.58,0.6-1.38,1.03-2.14
	c0.53-0.94,0.35-0.51,1.03-1.56c1.74-2.3,4.03-3.96,6.27-4.99c2.25-1.02,4.44-1.52,6.54-1.8c1.32-0.16,2.6-0.23,3.85-0.23
	c2.74,0,5.35,0.34,7.87,0.82c5.13,1.07,10.05,2.79,14.58,5.26c17.08-15.32,41.72-24.95,69.12-24.95 M39.829,103.521
	c3.04-7.29,7.41-14.07,12.85-20.18c-3.12-0.9-6.35-1.44-9.52-1.65c-0.67-0.03-1.34-0.05-2-0.05c-2.25,0-4.43,0.23-6.29,0.75
	c-2.48,0.64-4,1.9-4.26,2.77c-0.32,0.82-0.41,2.46,0.28,4.71c0.65,2.21,1.87,4.64,3.37,6.94c1.57,2.38,3.51,4.71,5.58,6.72
	 M216.989,104.521c1.88-1.98,3.62-4.23,5.03-6.51c1.439-2.33,2.59-4.81,3.17-7.02c0.619-2.27,0.479-3.91,0.149-4.71
	c-0.28-0.86-1.851-2.09-4.34-2.66c-1.61-0.4-3.47-0.58-5.39-0.58c-0.961,0-1.94,0.04-2.91,0.13c-2.61,0.25-5.26,0.74-7.85,1.45
	c5.18,6.06,9.299,12.75,12.159,19.92 M128.209,43.951c-26.23,0-51.53,8.51-70.32,23.5c-3.68-1.56-7.61-2.78-11.74-3.64l-0.07-0.02
	l-0.07-0.01c-3.44-0.65-6.41-0.96-9.37-0.96c-1.61,0-3.22,0.1-4.8,0.29h-0.07c-3.25,0.43-6.14,1.23-8.83,2.46
	c-3.72,1.71-6.95,4.29-9.33,7.46l-0.17,0.229l-0.16,0.24c-0.08,0.12-0.13,0.2-0.17,0.25c-0.42,0.56-0.69,0.97-1.11,1.73
	c-0.43,0.77-1.05,1.95-1.5,3.15c-0.82,2.04-1.22,3.92-1.48,5.34l-0.01,0.09l-0.01,0.09c-0.46,2.96-0.48,6.02-0.05,9.33l0.01,0.04
	l0.01,0.04c0.65,4.65,2.03,9.11,4.34,14.06c1.92,4.06,4.19,7.8,6.96,11.48c2.18,2.85,4.35,5.27,6.66,7.43
	c-0.01,0.49-0.01,0.98-0.01,1.47c0,22.771,10.76,44.08,30.28,60c19.06,15.53,44.29,24.08,71.06,24.08
	c26.761,0,51.99-8.55,71.04-24.08c19.471-15.88,30.221-37.12,30.27-59.83c2.49-2.37,4.801-5.05,7.101-8.24l0.021-0.02l0.01-0.02
	c2.689-3.8,4.859-7.6,6.609-11.63c2.19-5.06,3.431-9.57,3.94-14.21l0.01-0.04v-0.04c0.33-3.36,0.23-6.42-0.33-9.36l-0.01-0.06
	l-0.01-0.06c-0.41-2.01-0.92-3.7-1.62-5.31c-0.52-1.29-1.23-2.52-1.63-3.17c-0.44-0.72-0.69-1.1-1.07-1.59
	c-0.05-0.06-0.11-0.15-0.25-0.35l-0.16-0.24l-0.18-0.22c-3.11-3.87-6.87-6.03-9.479-7.15c-2.761-1.17-5.67-1.9-8.951-2.23h-0.079
	c-1.2-0.11-2.421-0.17-3.62-0.17c-3.34,0-6.68,0.39-10.52,1.24l-0.07,0.01l-0.07,0.02c-3.311,0.8-6.49,1.81-9.48,3.04
	c-18.91-15.6-44.629-24.45-71.47-24.45L128.209,43.951z"/>
<path fill="#676767" d="M62.522,83.464c0,0-31.14-10.854-37.24-1.997c-6.09,8.853,7.295,30.076,17.736,37.27
	C43.018,118.737,36.915,95.889,62.522,83.464z"/>
<path fill="#B3B3B3" d="M60.493,86.54c-5.232-2.968-11.418-4.5-17.352-4.89c-2.95-0.167-5.88,0.02-8.29,0.69
	c-2.48,0.642-4,1.91-4.25,2.776c-0.32,0.825-0.41,2.458,0.28,4.714c0.65,2.205,1.87,4.637,3.37,6.932
	c3.01,4.558,7.35,8.953,11.41,11.202c4.47,2.483,6.07,8.106,3.59,12.568c-2.48,4.458-8.11,6.067-12.56,3.582
	c-0.41-0.22-0.79-0.47-1.14-0.74l-0.32-0.25c-3.51-2.734-6.21-5.707-8.6-8.846c-2.38-3.15-4.41-6.46-6.1-10.042
	c-1.67-3.582-3.05-7.405-3.66-11.79c-0.28-2.19-0.37-4.55,0.02-7.08c0.23-1.277,0.53-2.566,1.07-3.857
	c0.21-0.59,0.59-1.38,1.02-2.15c0.53-0.95,0.35-0.51,1.03-1.56c1.74-2.31,4.03-3.97,6.271-4.99c2.25-1.03,4.44-1.53,6.54-1.8
	c4.19-0.51,8.03-0.11,11.71,0.59c7.27,1.52,14.13,4.29,20.06,8.77c1.63,1.23,1.95,3.55,0.71,5.18c-1.13,1.5-3.18,1.88-4.77,0.98
	l-0.03,0.01L60.493,86.54z"/>
<path fill="#676767" d="M193.332,85.47c-11.564-5.203,30.813-11.736,37.166-3.057c6.342,8.682-3.93,27.014-14.158,34.493
	C216.34,116.906,219.283,97.162,193.332,85.47z"/>
<path fill="#B3B3B3" d="M191.215,82.45c5.79-4.65,12.57-7.608,19.801-9.342c3.654-0.81,7.479-1.307,11.689-0.926
	c2.1,0.21,4.314,0.647,6.587,1.613c2.254,0.97,4.604,2.562,6.412,4.813c0.707,1.02,0.496,0.59,1.063,1.533
	c0.455,0.75,0.859,1.53,1.092,2.11c0.56,1.28,0.89,2.56,1.16,3.83c0.47,2.52,0.43,4.88,0.22,7.08c-0.49,4.4-1.761,8.26-3.33,11.9
	c-1.58,3.62-3.53,6.99-5.81,10.2c-2.32,3.22-4.92,6.28-8.36,9.09l-0.28,0.23c-3.939,3.24-9.76,2.67-13-1.26
	c-3.24-3.94-2.67-9.76,1.26-13c0.36-0.29,0.771-0.58,1.141-0.81c4-2.37,8.22-6.89,11.08-11.52c1.439-2.33,2.59-4.81,3.17-7.02
	c0.619-2.27,0.479-3.91,0.14-4.71c-0.29-0.86-1.851-2.09-4.34-2.66c-2.431-0.6-5.37-0.7-8.32-0.45c-5.92,0.56-12.06,2.27-17.2,5.38
	c-1.75,1.07-4.02,0.51-5.08-1.23c-0.979-1.6-0.58-3.66,0.84-4.8l0.051-0.05L191.215,82.45z"/>
<path fill="#FFFFFF" d="M221.512,127.996c0,42.02-41.771,76.085-93.316,76.085c-51.546,0-93.335-34.06-93.335-76.08
	c0-42.01,41.79-76.07,93.34-76.07c51.54,0,93.32,34.06,93.32,76.08V128L221.512,127.996z"/>
<path fill="#B3B3B3" d="M201.508,125.84c0,34.273-33.869,62.073-75.646,62.073c-41.77,0-75.643-27.8-75.643-62.073
	c0-34.29,33.87-62.088,75.64-62.088S201.5,91.55,201.5,125.84H201.508z"/>
<path fill="#999898" d="M149.939,129.38h-41.376L51,116.227c-0.404,2.058-0.646,4.29-0.646,6.458
	c0,19.943,17.596,36.165,39.305,36.165c16.74,0,30.99-9.609,36.66-23.149c5.67,13.54,19.93,23.18,36.67,23.18
	c21.71,0,39.3-16.16,39.3-36.1c0-7.6-2.57-14.84-6.93-20.66l-45.43,27.25L149.939,129.38L149.939,129.38z"/>
<path fill="#FFFFFF" d="M199.225,117.68c0,19.498-15.8,35.296-35.297,35.296c-19.502,0-35.295-15.801-35.295-35.299
	c0-19.49,15.793-35.3,35.295-35.3c19.496,0,35.297,15.8,35.297,35.29V117.68z"/>
<path fill="#2974A7" d="M184.188,122.122c0,11.226-9.102,20.334-20.34,20.334c-11.229,0-20.332-9.108-20.332-20.334
	c0-11.236,9.104-20.337,20.332-20.337C175.086,101.785,184.188,110.885,184.188,122.122z"/>
<path fill="#FFFFFF" d="M160.74,116.25c0,3.83-3.1,6.93-6.938,6.93c-3.823,0-6.932-3.1-6.932-6.93s3.106-6.933,6.932-6.933
	C157.643,109.317,160.74,112.417,160.74,116.25z M168.38,123.736c0,1.796-1.462,3.248-3.257,3.248c-1.797,0-3.256-1.452-3.256-3.248
	c0-1.806,1.46-3.263,3.256-3.263C166.918,120.473,168.381,121.931,168.38,123.736z"/>
<path fill="#999898" d="M146.43,186.335c0,4.083-9.01,1.578-20.12,1.578s-20.122,2.505-20.122-1.578
	c0-4.086,9.012-13.216,20.123-13.216c11.11,0,20.13,9.13,20.13,13.21L146.43,186.335z"/>
<path fill="#B3B3B3" d="M128.453,118.3c0-19.487,16.384-37.132,35.883-37.132c12.975,0,24.362,8.66,30.498,19.082l-65.398,26.302
	c-0.636-2.65-0.981-5.407-0.981-8.25L128.453,118.3L128.453,118.3z"/>
<path fill="#999898" d="M128.682,122.29l64.902-26.374c1.295,1.67,2.439,3.456,3.424,5.344L129.9,128.3
	c-0.576-1.94-0.99-3.943-1.221-6.005L128.682,122.29L128.682,122.29z"/>
<path fill="#2974A7" d="M108.563,122.122c0,11.226-9.1,20.334-20.338,20.334c-11.23,0-20.332-9.108-20.332-20.334
	c0-11.236,9.102-20.337,20.332-20.337C99.463,101.785,108.563,110.885,108.563,122.122z"/>
<path fill="#FFFFFF" d="M85.12,116.25c0,3.83-3.102,6.93-6.938,6.93c-3.83,0-6.928-3.1-6.928-6.93s3.098-6.933,6.928-6.933
	C82.018,109.317,85.12,112.417,85.12,116.25z M92.758,123.736c0,1.796-1.463,3.248-3.26,3.248c-1.8,0-3.258-1.452-3.258-3.248
	c0-1.806,1.46-3.263,3.258-3.263C91.295,120.473,92.758,121.931,92.758,123.736z"/>
<path fill="#999898" d="M120.102,78.8l-17.57,41.272l25.815,10.727l26.988-12.64l-13.897-30.86c0,0-13.098,13.55-21.334-8.51
	L120.102,78.8L120.102,78.8z"/>
<path fill="#333333" d="M100.82,173.934c-2.16,0-4.233-1.203-5.233-3.27c-1.406-2.895-0.2-6.375,2.682-7.777
	c3.54-1.717,21.59-10.289,29.73-10.289c8.13,0,26.18,8.572,29.72,10.289c2.881,1.402,4.09,4.887,2.69,7.771
	c-1.4,2.89-4.89,4.104-7.78,2.692c-9.04-4.39-21.029-9.119-24.64-9.119c-3.63,0-15.63,4.729-24.65,9.109
	c-0.83,0.391-1.69,0.58-2.54,0.58l0.01,0.014H100.82z M128,158.902c-3.213,0-5.5-2.604-5.5-5.818v-23.27
	c0-3.214,2.287-5.814,5.5-5.814s5.5,2.6,5.5,5.814v23.27C133.5,156.298,131.213,158.902,128,158.902z"/>
<path fill="#999898" d="M125.862,60.845c-43.313,0-78.55,29.15-78.55,64.995c0,35.828,35.237,64.98,78.55,64.98
	c43.316,0,78.554-29.152,78.554-64.98C204.416,89.995,169.178,60.845,125.862,60.845z M125.862,185.003
	c-40.11,0-72.732-26.543-72.732-59.163c0-32.632,32.622-59.178,72.732-59.178c40.106,0,72.736,26.546,72.736,59.178
	C198.598,158.46,165.968,185.003,125.862,185.003z"/>
<path fill="#FFFFFF" d="M123.818,118.3c0,19.497-15.797,35.298-35.295,35.298c-19.502,0-35.295-15.8-35.295-35.297
	c0-19.47,15.793-35.29,35.295-35.29c19.5,0,35.295,15.82,35.295,35.3V118.3L123.818,118.3z"/>
<path fill="#2974A7" d="M108.78,122.743c0,11.224-9.1,20.333-20.335,20.333c-11.232,0-20.336-9.11-20.336-20.333
	c0-11.238,9.1-20.335,20.33-20.335s20.33,9.097,20.33,20.335h0.01H108.78z"/>
<path fill="#FFFFFF" d="M85.338,116.87c0,3.825-3.104,6.93-6.938,6.93c-3.828,0-6.932-3.105-6.932-6.93
	c0-3.83,3.104-6.932,6.932-6.932C82.234,109.938,85.338,113.041,85.338,116.87z M92.978,124.355c0,1.797-1.466,3.252-3.263,3.252
	c-1.795,0-3.254-1.455-3.254-3.252c0-1.802,1.46-3.258,3.26-3.258c1.8,0,3.26,1.457,3.26,3.258H92.978z"/>
<path fill="#2974A7" d="M139.52,130.582c0,3.859-5.155,6.993-11.52,6.993c-6.358,0-11.52-3.132-11.52-6.993
	c0-3.863,5.162-6.993,11.52-6.993c6.359,0,11.52,3.13,11.52,6.99V130.582z"/>
</svg>
