<?xml version="1.0" encoding="utf-8"?>
<!-- Generator: Adobe Illustrator 16.0.0, SVG Export Plug-In . SVG Version: 6.00 Build 0)  -->
<!DOCTYPE svg PUBLIC "-//W3C//DTD SVG 1.1//EN" "http://www.w3.org/Graphics/SVG/1.1/DTD/svg11.dtd">
<svg version="1.1" id="Layer_1" xmlns="http://www.w3.org/2000/svg" xmlns:xlink="http://www.w3.org/1999/xlink" x="0px" y="0px"
	 width="256px" height="256px" viewBox="0 0 256 256" enable-background="new 0 0 256 256" xml:space="preserve">
<path fill="#FFFFFF" d="M128.195,208.08c-53.67,0-97.336-35.925-97.336-80.084c0-1.04,0.02-2.11,0.08-3.2
	c-2.67-2.296-5.1-4.91-7.52-8.092c-2.63-3.487-4.77-7-6.54-10.758c-2.14-4.586-3.41-8.693-4.01-12.945
	c-0.39-2.96-0.38-5.65,0.03-8.25c0.23-1.31,0.58-2.94,1.28-4.68c0.37-1.01,0.95-2.09,1.27-2.66c0.37-0.65,0.53-0.9,0.78-1.23
	c0.06-0.09,0.15-0.21,0.36-0.53l0.08-0.12l0.09-0.11c2.51-3.33,5.62-5.22,7.79-6.21c2.33-1.06,4.84-1.76,7.68-2.13
	c1.45-0.17,2.9-0.26,4.35-0.26c2.7,0,5.44,0.29,8.62,0.89c4.77,1,9.2,2.47,13.24,4.41c18.25-15.39,43.48-24.17,69.71-24.17
	c26.81,0,52.43,9.12,70.781,25.11c3.439-1.58,7.159-2.85,11.1-3.8c3.609-0.8,6.67-1.17,9.72-1.17c1.09,0,2.19,0.05,3.26,0.15
	c2.9,0.29,5.44,0.92,7.79,1.92c2.21,0.96,5.37,2.76,7.96,6l0.08,0.1l0.07,0.11c0.22,0.32,0.33,0.46,0.399,0.55
	c0.26,0.34,0.42,0.56,0.811,1.21c0.55,0.9,1.029,1.84,1.359,2.63c0.761,1.78,1.16,3.45,1.391,4.57c0.5,2.63,0.59,5.32,0.29,8.29
	c-0.47,4.27-1.62,8.41-3.63,13.08c-1.66,3.79-3.69,7.36-6.221,10.93c-2.55,3.54-5.08,6.38-7.89,8.86
	c0.011,0.54,0.021,1.06,0.021,1.58c0,44.16-43.66,80.09-97.32,80.09l0.07-0.07L128.195,208.08z M211.97,87.204
	c2.248,3.12,4.23,6.358,5.94,9.696c0.23-0.346,0.449-0.692,0.666-1.038c1.293-2.092,2.255-4.2,2.71-5.94
	c0.239-0.872,0.3-1.515,0.3-1.906c-0.311-0.173-0.813-0.396-1.516-0.558c-1.288-0.318-2.822-0.48-4.502-0.48
	c-0.827,0-1.694,0.04-2.577,0.114c-0.33,0.033-0.67,0.07-1.021,0.11L211.97,87.204L211.97,87.204z M34.35,86.814
	c0.013,0.393,0.092,1.026,0.345,1.87c0.51,1.734,1.534,3.82,2.888,5.89c0.377,0.572,0.778,1.142,1.2,1.705
	c1.883-3.59,4.086-7.07,6.595-10.4c-0.83-0.11-1.664-0.19-2.503-0.24c-0.56-0.03-1.152-0.05-1.74-0.05c-2,0-3.8,0.21-5.208,0.6
	c-0.75,0.19-1.268,0.43-1.578,0.62L34.35,86.814z"/>
<path fill="#333333" d="M128.195,51.92c27.948,0,53.022,10.018,70.125,25.886c3.979-2.1,8.248-3.632,12.695-4.697
	c2.795-0.62,5.692-1.06,8.785-1.06c0.95,0,1.92,0.04,2.9,0.13c2.109,0.21,4.32,0.64,6.59,1.61c2.25,0.97,4.609,2.56,6.41,4.81
	c0.72,1.02,0.5,0.59,1.07,1.53c0.459,0.74,0.859,1.52,1.1,2.1c0.57,1.28,0.9,2.55,1.17,3.82c0.48,2.51,0.45,4.87,0.23,7.08
	c-0.48,4.4-1.761,8.26-3.32,11.89c-1.58,3.62-3.53,6.99-5.801,10.2c-2.31,3.21-4.909,6.26-8.35,9.09l-0.279,0.23
	c-0.021,0.02-0.041,0.03-0.07,0.05c0.06,1.12,0.1,2.24,0.1,3.37c0,42.02-41.779,76.09-93.32,76.09c-51.55,0-93.33-34.07-93.33-76.09
	c0-1.68,0.08-3.34,0.21-4.99c-3.45-2.7-6.11-5.64-8.46-8.729c-2.38-3.15-4.41-6.46-6.11-10.04c-1.67-3.59-3.04-7.41-3.65-11.79
	c-0.29-2.19-0.38-4.55,0.02-7.08c0.23-1.28,0.53-2.57,1.06-3.86c0.21-0.59,0.59-1.38,1.02-2.15c0.53-0.95,0.34-0.51,1.02-1.56
	c1.73-2.31,4.03-3.96,6.271-4.99c2.25-1.03,4.44-1.53,6.53-1.8c1.31-0.16,2.59-0.229,3.84-0.229c2.74,0,5.34,0.34,7.87,0.82
	c5.13,1.07,10.04,2.79,14.58,5.26c17.07-15.33,41.72-24.95,69.12-24.95 M39.851,103.469c3.04-7.29,7.4-14.08,12.85-20.18
	c-3.13-0.9-6.36-1.45-9.53-1.66c-0.67-0.04-1.34-0.06-2-0.06c-2.26,0-4.43,0.23-6.29,0.75c-2.48,0.64-4,1.91-4.27,2.77
	c-0.32,0.82-0.4,2.46,0.28,4.71c0.64,2.2,1.87,4.64,3.37,6.93c1.57,2.38,3.51,4.71,5.58,6.72 M216.991,104.439
	c1.87-1.98,3.61-4.23,5.02-6.51c1.44-2.34,2.591-4.81,3.171-7.03c0.619-2.27,0.469-3.91,0.139-4.72
	c-0.279-0.86-1.85-2.09-4.329-2.66c-1.62-0.4-3.47-0.58-5.4-0.58c-0.96,0-1.94,0.04-2.92,0.12c-2.61,0.25-5.26,0.73-7.851,1.45
	c5.171,6.05,9.291,12.75,12.15,19.92 M128.171,43.899c-26.23,0-51.54,8.51-70.33,23.5c-3.67-1.56-7.6-2.78-11.73-3.64l-0.07-0.02
	l-0.07-0.01c-3.43-0.66-6.41-0.96-9.37-0.96c-1.61,0-3.22,0.09-4.8,0.28h-0.07c-3.25,0.42-6.13,1.22-8.83,2.45
	c-3.73,1.71-6.95,4.28-9.34,7.45l-0.18,0.229l-0.16,0.25c-0.09,0.13-0.14,0.21-0.18,0.26c-0.42,0.55-0.68,0.96-1.1,1.71
	c-0.45,0.8-1.07,1.98-1.51,3.17c-0.84,2.09-1.25,4.04-1.48,5.34l-0.02,0.08l-0.02,0.08c-0.47,2.98-0.48,6.04-0.05,9.35l0.01,0.03
	v0.03c0.65,4.66,2.03,9.12,4.33,14.06c1.91,4.05,4.19,7.79,6.97,11.48c2.17,2.85,4.34,5.27,6.66,7.43c-0.01,0.5-0.01,0.99-0.01,1.47
	c0,22.771,10.76,44.08,30.29,60C76.15,203.439,101.38,212,128.15,212s52-8.561,71.04-24.08c19.48-15.89,30.23-37.13,30.28-59.84
	c2.5-2.37,4.8-5.05,7.101-8.24l0.029-0.03l0.021-0.03c2.69-3.8,4.851-7.6,6.61-11.63c2.189-5.07,3.439-9.58,3.949-14.22V93.9
	l0.01-0.04c0.341-3.37,0.23-6.43-0.33-9.37l-0.01-0.07l-0.02-0.06c-0.26-1.27-0.721-3.2-1.62-5.29c-0.53-1.3-1.24-2.53-1.64-3.17
	c-0.44-0.73-0.68-1.09-1.07-1.58c-0.05-0.06-0.12-0.15-0.27-0.37l-0.15-0.21l-0.16-0.2c-3.1-3.87-6.87-6.03-9.48-7.16
	c-2.77-1.17-5.68-1.89-8.959-2.22l-0.041-0.01h-0.029c-1.19-0.11-2.41-0.16-3.62-0.16c-3.34,0-6.681,0.39-10.521,1.24l-0.06,0.01
	l-0.069,0.01c-3.311,0.79-6.48,1.81-9.48,3.03c-18.91-15.6-44.63-24.45-71.47-24.45v0.04L128.171,43.899z"/>
<path fill="#676767" d="M62.52,83.464c0,0-31.137-10.854-37.24-1.997c-6.086,8.853,7.295,30.076,17.736,37.27
	C43.016,118.737,36.916,95.889,62.52,83.464z"/>
<path fill="#B3B3B3" d="M60.492,86.54c-5.232-2.968-11.422-4.5-17.357-4.89c-2.947-0.167-5.883,0.02-8.285,0.69
	c-2.48,0.642-4,1.91-4.266,2.776c-0.316,0.825-0.396,2.458,0.28,4.714c0.646,2.205,1.87,4.637,3.37,6.932
	c3.004,4.558,7.344,8.953,11.406,11.202c4.463,2.483,6.07,8.106,3.586,12.568c-2.486,4.458-8.105,6.067-12.557,3.582
	c-0.42-0.22-0.79-0.47-1.15-0.74l-0.33-0.25c-3.52-2.734-6.21-5.707-8.61-8.846c-2.38-3.15-4.42-6.46-6.11-10.042
	c-1.67-3.582-3.04-7.405-3.66-11.79c-0.29-2.19-0.38-4.55,0.02-7.08c0.23-1.277,0.53-2.566,1.06-3.857
	c0.21-0.59,0.59-1.38,1.02-2.15c0.53-0.95,0.34-0.51,1.02-1.56c1.73-2.31,4.03-3.97,6.27-4.99c2.25-1.03,4.44-1.53,6.53-1.8
	c4.19-0.51,8.03-0.11,11.71,0.59c7.27,1.52,14.13,4.29,20.06,8.77c1.62,1.23,1.94,3.55,0.7,5.18c-1.13,1.5-3.18,1.88-4.77,0.98
	l0.06,0.01L60.492,86.54z"/>
<path fill="#676767" d="M193.33,85.47c-11.564-5.203,30.814-11.736,37.168-3.057c6.346,8.682-3.926,27.014-14.158,34.493
	C216.34,116.906,219.283,97.162,193.33,85.47z"/>
<path fill="#B3B3B3" d="M191.21,82.45c5.792-4.65,12.57-7.608,19.806-9.342c3.652-0.81,7.482-1.307,11.69-0.926
	c2.101,0.21,4.313,0.647,6.587,1.613c2.252,0.97,4.602,2.562,6.404,4.813c0.715,1.02,0.498,0.59,1.068,1.533
	c0.457,0.75,0.856,1.53,1.092,2.11c0.563,1.28,0.899,2.56,1.166,3.83c0.477,2.52,0.449,4.88,0.229,7.08
	c-0.485,4.4-1.76,8.26-3.326,11.9c-1.579,3.62-3.53,6.99-5.807,10.2c-2.31,3.22-4.91,6.28-8.351,9.09l-0.279,0.23
	c-3.94,3.24-9.75,2.67-13-1.26c-3.23-3.94-2.67-9.76,1.27-13c0.36-0.29,0.78-0.58,1.15-0.81c4-2.37,8.22-6.89,11.08-11.52
	c1.449-2.33,2.6-4.81,3.18-7.02c0.62-2.27,0.48-3.91,0.141-4.71c-0.281-0.86-1.841-2.09-4.33-2.66c-2.42-0.6-5.371-0.7-8.311-0.45
	c-5.92,0.56-12.061,2.27-17.21,5.38c-1.74,1.07-4.01,0.51-5.069-1.23c-0.971-1.6-0.57-3.66,0.85-4.8L191.21,82.45L191.21,82.45z"/>
<path fill="#FFFFFF" d="M221.516,127.996c0,42.02-41.779,76.085-93.319,76.085c-51.55,0-93.336-34.06-93.336-76.08
	c0-42.01,41.787-76.07,93.336-76.07c51.54,0,93.319,34.06,93.319,76.08V128V127.996z"/>
<path fill="#B3B3B3" d="M201.506,125.84c0,34.273-33.867,62.073-75.646,62.073c-41.768,0-75.643-27.8-75.643-62.073
	c0-34.29,33.875-62.088,75.643-62.088C167.641,63.752,201.506,91.549,201.506,125.84z"/>
<path fill="#999898" d="M149.939,129.38h-41.38l-57.57-13.154c-0.4,2.058-0.65,4.29-0.65,6.458c0,19.944,17.6,36.164,39.3,36.164
	c16.74,0,31-9.603,36.66-23.14c5.67,13.537,19.92,23.181,36.67,23.181c21.7,0,39.301-16.16,39.301-36.101
	c0-7.597-2.57-14.84-6.931-20.658l-45.43,27.25H149.939z"/>
<path fill="#FFFFFF" d="M123.598,117.68c0,19.498-15.797,35.296-35.293,35.296c-19.5,0-35.293-15.801-35.293-35.299
	c0-19.49,15.793-35.3,35.293-35.3c19.496,0,35.293,15.8,35.293,35.29V117.68z"/>
<path fill="#2974A7" d="M99.846,126.456c0,6.416-5.2,11.61-11.62,11.61c-6.413,0-11.614-5.194-11.614-11.61
	c0-6.417,5.2-11.62,11.613-11.62c6.42,0,11.62,5.203,11.62,11.62H99.846z"/>
<path fill="#FFFFFF" d="M86.45,123.1c0,2.19-1.77,3.96-3.96,3.96c-2.19,0-3.963-1.77-3.963-3.96c0-2.185,1.773-3.96,3.963-3.96
	C84.682,119.14,86.45,120.915,86.45,123.1z M90.816,127.378c0,1.028-0.836,1.856-1.865,1.856c-1.02,0-1.85-0.828-1.85-1.856
	c0-1.035,0.84-1.864,1.86-1.864c1.03,0,1.87,0.83,1.87,1.864h-0.01H90.816z M198.223,117.68c0,19.498-15.798,35.296-35.296,35.296
	c-19.502,0-35.3-15.801-35.3-35.299c0-19.49,15.798-35.3,35.3-35.3c19.498,0,35.296,15.8,35.296,35.29V117.68z"/>
<path fill="#2974A7" d="M177.71,128.213c0,5.512-4.464,9.987-9.987,9.987c-5.51,0-9.979-4.478-9.979-9.987s4.473-9.988,9.979-9.988
	C173.246,118.225,177.709,122.702,177.71,128.213z"/>
<path fill="#FFFFFF" d="M166.2,125.327c0,1.885-1.524,3.407-3.41,3.407c-1.878,0-3.403-1.522-3.403-3.407
	c0-1.873,1.525-3.396,3.404-3.396c1.9,0,3.41,1.53,3.41,3.4L166.2,125.327z M169.95,129.01c0,0.874-0.72,1.59-1.603,1.59
	c-0.884,0-1.599-0.716-1.599-1.59c0-0.887,0.71-1.603,1.59-1.603s1.601,0.716,1.601,1.603H169.95z"/>
<path fill="#333333" d="M99.496,168.113c-2.16,0-4.234-1.202-5.24-3.271c-1.402-2.893-0.2-6.375,2.69-7.78
	c3.536-1.713,21.587-10.285,29.728-10.285c8.137,0,26.19,8.572,29.73,10.287c2.887,1.403,4.088,4.89,2.686,7.771
	c-1.402,2.896-4.885,4.098-7.77,2.689c-9.028-4.383-21.022-9.114-24.645-9.114c-3.633,0-15.617,4.739-24.64,9.12
	c-0.825,0.4-1.688,0.59-2.54,0.59V168.113z M127.62,153.083c-3.216,0-6-2.603-6-5.817l0.13-15.14c0-3.216,2.535,0.874,5.75,0.874
	s5.75-3.59,5.75-0.375l0.37,14.641c0,3.215-2.786,5.819-6,5.819V153.083z"/>
<path fill="#B3B3B3" d="M128.453,118.3c0-19.487,14.38-37.633,33.88-37.633c12.976,0,25.714,9.338,31.851,19.76l-64.748,26.125
	c-0.636-2.65-0.981-5.407-0.981-8.25L128.453,118.3L128.453,118.3z"/>
<path fill="#999898" d="M128.682,122.29l62.963-25.603c1.295,1.67,2.44,3.456,3.424,5.344L129.9,128.3
	c-0.576-1.94-0.99-3.943-1.221-6.005L128.682,122.29L128.682,122.29z M146.43,186.335c0,4.083-9.01,1.578-20.12,1.578
	c-11.112,0-20.122,2.505-20.122-1.578c0-4.086,9.01-13.216,20.12-13.216c11.112,0,20.122,9.13,20.122,13.21V186.335z"/>
<path opacity="0.5" fill="#FFFFFF" enable-background="new    " d="M94.123,167.898c0-3.883-3.15-7.033-7.027-7.033
	c-1.846,0-3.492,0.744-4.744,1.908c0.023-0.237,0.14-0.445,0.14-0.69c0-3.888-3.15-7.033-7.03-7.033
	c-3.883,0-7.035,3.146-7.035,7.032c0,2.49,1.365,4.566,3.314,5.816c-1.94,1.25-3.31,3.33-3.31,5.815c0,3.886,3.15,7.032,7.04,7.032
	c1.05,0,2.02-0.26,2.91-0.67c0.9,0.41,1.87,0.67,2.91,0.67c3.53,0,6.31-2.639,6.82-6.02c3.39-0.508,6.03-3.301,6.03-6.83
	l-0.01,0.002H94.123z M161.493,167.898c0-3.883,3.153-7.033,7.03-7.033c1.846,0,3.49,0.744,4.744,1.908
	c-0.021-0.237-0.144-0.445-0.144-0.69c0-3.888,3.149-7.033,7.03-7.033c3.882,0,7.031,3.146,7.031,7.032
	c0,2.49-1.362,4.566-3.313,5.816c1.947,1.25,3.313,3.33,3.313,5.815c0,3.886-3.149,7.032-7.029,7.032c-1.051,0-2.021-0.26-2.91-0.67
	c-0.891,0.41-1.86,0.67-2.907,0.67c-3.53,0-6.319-2.639-6.83-6.02c-3.39-0.508-6.02-3.301-6.02-6.83v0.002H161.493z"/>
<path fill="#B3B3B3" d="M88.5,81.333c-10.45,0-20.027,5.596-26.487,12.807c30.128-1.083,52.6,19.367,61.21,28.658
	c0.244-1.672,0.375-3.38,0.375-5.12c0-19.49-13.436-35.678-32.931-35.678L88.5,81.333z"/>
<path fill="#999898" d="M66.62,89.844c-2.218,1.73-4.223,3.717-5.97,5.92c1.396-0.097,2.79-0.15,4.176-0.15
	c28.113,0,49.747,20.037,58.074,29.074c0.456-2.266,0.698-4.61,0.698-7.01c0-0.122-0.008-0.242-0.01-0.364
	c-10.182-10.32-30.417-26.718-56.97-27.47H66.62z M119.883,78.182l-13.695,28.307l21.062,23.63l26.555-12.71l-12.592-30.74
	c0,0-13.094,13.54-21.33-8.51v0.02V78.182z"/>
<path fill="#2974A7" d="M139.535,136.4c0,4.38-5.852,7.93-13.072,7.93c-7.21,0-13.064-3.551-13.064-7.93
	c0-4.381,5.85-7.937,13.06-7.937c7.221,0.002,13.07,3.556,13.07,7.937H139.535z M150.505,138.825c0.03,3.926-3.644,7.106-8.239,7.11
	c-4.591,0-8.326-3.181-8.354-7.104c-0.03-3.931,3.649-7.12,8.25-7.12c4.6,0,8.33,3.189,8.35,7.12L150.505,138.825z"/>
<path fill="#333333" d="M147.35,142.225c0.006,0.986-2.174,1.772-4.877,1.78c-2.709,0-4.908-0.788-4.916-1.772
	c-0.006-0.979,2.18-1.774,4.885-1.774C145.146,140.443,147.336,141.244,147.35,142.225z"/>
<path fill="#2974A7" d="M121.414,138.825c0.033,3.926-3.64,7.106-8.234,7.11c-4.59,0-8.328-3.181-8.352-7.104
	c-0.037-3.931,3.645-7.12,8.238-7.12c4.602,0,8.325,3.189,8.348,7.12V138.825z"/>
<path fill="#333333" d="M118.262,142.225c0.008,0.986-2.172,1.772-4.877,1.78c-2.71,0-4.906-0.788-4.912-1.772
	c-0.004-0.979,2.176-1.774,4.885-1.774C116.058,140.443,118.256,141.244,118.262,142.225z"/>
<path opacity="0.5" fill="#FFFFFF" enable-background="new    " d="M116.94,143.641c0,0,1.19-1.078-1.067-2.19
	c-2.754-1.36-3.87,0-3.87,0s-6.544,7.38-17.892,16.163c-1.53-1.471-3.59-2.494-5.88-2.494c-1.13,0-2.2,0.18-3.19,0.58
	c-1.94-2.61-5.03-4.35-8.53-4.35c-5.89,0-10.67,4.76-10.67,10.649c0,1.53,0.34,2.96,0.91,4.28c-3.17,1.869-5.33,5.3-5.33,9.26
	c0,5.96,4.83,10.779,10.79,10.779c1.24,0,2.41-0.25,3.52-0.64c2.63,3.07,6.5,5.06,10.86,5.06c7.95,0,14.38-6.439,14.38-14.389
	c0-4-1.64-7.511-4.26-10.111c6.48-11.979,16.62-21.989,20.27-22.619l-0.04,0.01L116.94,143.641z M137.338,143.641
	c0,0-1.189-1.078,1.064-2.19c2.758-1.36,3.869,0,3.869,0s6.547,7.38,17.896,16.163c1.533-1.471,3.59-2.494,5.887-2.494
	c1.136,0,2.203,0.18,3.19,0.58c1.943-2.61,5.029-4.35,8.533-4.35c5.891,0,10.66,4.76,10.66,10.649c0,1.53-0.33,2.96-0.899,4.28
	c3.16,1.869,5.319,5.3,5.319,9.26c0,5.96-4.83,10.779-10.789,10.779c-1.24,0-2.41-0.25-3.521-0.64c-2.63,3.07-6.5,5.06-10.87,5.06
	c-7.939,0-14.39-6.439-14.39-14.389c0-4,1.64-7.511,4.271-10.111c-6.471-11.979-16.621-21.989-20.261-22.619l0.04,0.01V143.641z"/>
<path fill="#999898" d="M125.858,60.845c-43.308,0-78.55,29.15-78.55,64.995c0,35.828,35.242,64.98,78.55,64.98
	c43.318,0,78.558-29.152,78.558-64.98C204.416,89.995,169.176,60.845,125.858,60.845z M125.849,185.003c0.003,0,0.007,0,0.01,0
	h-0.02C125.842,185.003,125.846,185.003,125.849,185.003c-40.105-0.005-72.729-26.546-72.729-59.163
	c0-32.628,32.617-59.172,72.725-59.178c-0.001,0-0.003,0-0.005,0h0.01c-0.001,0-0.003,0-0.005,0
	c40.108,0.004,72.725,26.548,72.725,59.178C198.568,158.457,165.945,184.998,125.849,185.003z"/>
</svg>
