<svg xmlns="http://www.w3.org/2000/svg" width="256" height="256" viewBox="0 0 256 256"><path fill="#fff" d="M128.194 208.086c-53.67 0-97.336-35.927-97.336-80.087 0-1.05.027-2.12.082-3.21-2.664-2.3-5.088-4.91-7.52-8.09-2.62-3.47-4.752-6.98-6.536-10.76-2.14-4.58-3.41-8.69-4.005-12.95-.39-2.98-.38-5.67.03-8.26.23-1.31.57-2.94 1.28-4.68.38-1.04.96-2.12 1.28-2.68.36-.64.52-.88.77-1.22.07-.09.15-.22.36-.54l.08-.13.09-.12c2.51-3.33 5.62-5.22 7.79-6.21 2.33-1.07 4.85-1.77 7.69-2.14 1.45-.18 2.91-.26 4.37-.26 2.7 0 5.44.28 8.61.89 4.76.99 9.19 2.47 13.24 4.4 18.27-15.36 43.5-24.14 69.72-24.14 26.81 0 52.43 9.12 70.78 25.1 3.43-1.59 7.15-2.86 11.1-3.81 3.6-.8 6.67-1.17 9.72-1.17 1.09 0 2.19.05 3.26.14 2.9.29 5.44.91 7.79 1.91 2.2.95 5.36 2.75 7.96 5.99l.09.11.08.11c.22.31.31.43.38.52.27.34.44.58.83 1.23.54.89 1.02 1.83 1.35 2.62.59 1.36 1.04 2.82 1.39 4.57.5 2.62.59 5.23.29 8.26-.47 4.28-1.63 8.42-3.63 13.08-1.66 3.78-3.69 7.35-6.22 10.93-2.55 3.53-5.08 6.38-7.9 8.86.01.54.02 1.06.02 1.57 0 44.16-43.66 80.09-97.32 80.09l.03.07zm83.777-120.88c2.25 3.12 4.23 6.36 5.94 9.698.23-.346.46-.693.67-1.042 1.3-2.098 2.26-4.207 2.71-5.936.24-.873.3-1.516.3-1.91-.31-.17-.81-.393-1.51-.553-1.3-.323-2.83-.483-4.51-.483-.82 0-1.69.04-2.57.12-.34.03-.68.07-1.02.11l-.01-.004zm-177.62-.39c.02.39.1 1.02.35 1.86.52 1.75 1.54 3.833 2.89 5.897.38.573.78 1.143 1.2 1.706 1.88-3.59 4.09-7.07 6.6-10.4-.83-.11-1.66-.19-2.5-.24-.57-.04-1.17-.05-1.76-.05-1.99 0-3.79.2-5.2.6-.74.19-1.25.43-1.56.62h-.02z"/><path fill="#333" d="M128.194 51.92c27.95 0 53.023 10.02 70.126 25.89 3.98-2.1 8.25-3.634 12.693-4.7 2.797-.62 5.693-1.056 8.784-1.056.948 0 1.915.04 2.902.13 2.1.21 4.31.646 6.58 1.612 2.25.972 4.6 2.564 6.41 4.814.71 1.022.5.588 1.06 1.532.45.74.85 1.524 1.09 2.11.56 1.277.91 2.546 1.17 3.82.47 2.512.44 4.875.23 7.08-.49 4.402-1.76 8.258-3.33 11.894-1.59 3.62-3.53 6.987-5.81 10.202-2.31 3.21-4.92 6.262-8.36 9.092l-.28.227c-.03.02-.05.036-.07.055.06 1.12.1 2.244.1 3.375 0 42.02-41.77 76.087-93.32 76.087-51.55 0-93.33-34.066-93.33-76.087 0-1.677.08-3.34.21-4.99-3.44-2.7-6.1-5.633-8.46-8.73-2.37-3.146-4.41-6.456-6.1-10.036-1.67-3.58-3.05-7.41-3.66-11.79-.28-2.19-.38-4.55.02-7.08.23-1.27.53-2.56 1.06-3.85.21-.58.6-1.38 1.03-2.14.54-.95.35-.51 1.03-1.56 1.74-2.3 4.04-3.96 6.27-4.98 2.25-1.03 4.44-1.53 6.54-1.8 1.32-.16 2.6-.23 3.86-.23 2.73 0 5.33.34 7.85.82 5.13 1.07 10.05 2.79 14.58 5.26 17.08-15.32 41.72-24.95 69.12-24.95M39.8 103.5c3.04-7.29 7.41-14.07 12.85-20.18-3.12-.9-6.36-1.44-9.52-1.65-.68-.04-1.35-.06-2.02-.06-2.25 0-4.42.23-6.27.75-2.47.65-3.99 1.91-4.26 2.78-.31.83-.4 2.46.28 4.72.65 2.21 1.87 4.64 3.37 6.93 1.57 2.39 3.51 4.72 5.58 6.73m177.15.99c1.88-1.97 3.61-4.22 5.02-6.52 1.44-2.33 2.6-4.81 3.17-7.03.62-2.27.48-3.91.15-4.71-.28-.86-1.84-2.09-4.33-2.65-1.62-.4-3.47-.58-5.4-.58-.96 0-1.93.04-2.91.13-2.61.25-5.25.73-7.85 1.45 5.18 6.06 9.3 12.75 12.16 19.92m-88.79-60.6c-26.23 0-51.53 8.51-70.32 23.5-3.68-1.55-7.6-2.77-11.73-3.64l-.06-.01-.06-.01c-3.42-.65-6.4-.96-9.36-.96-1.61 0-3.24.1-4.82.29h-.03l-.03.01c-3.25.42-6.14 1.23-8.84 2.46-3.72 1.71-6.94 4.28-9.32 7.44l-.18.24-.16.26c-.08.14-.14.22-.18.27-.41.55-.67.95-1.09 1.7-.44.78-1.06 1.96-1.51 3.17-.84 2.09-1.24 4.05-1.47 5.35l-.01.07-.01.07c-.47 2.97-.49 6.04-.05 9.36l.01.04.01.04c.66 4.67 2.03 9.14 4.34 14.07 1.92 4.06 4.19 7.8 6.96 11.48 2.18 2.85 4.35 5.27 6.66 7.42-.01.5-.01.99-.01 1.48 0 22.77 10.76 44.09 30.29 60 19.05 15.53 44.29 24.08 71.06 24.08 26.77 0 52-8.55 71.04-24.08 19.478-15.88 30.228-37.13 30.28-59.84 2.5-2.38 4.81-5.06 7.1-8.24l.02-.02.02-.02c2.69-3.8 4.85-7.6 6.6-11.62 2.19-5.07 3.44-9.58 3.95-14.22v-.09c.33-3.38.23-6.43-.33-9.35l-.01-.05-.01-.05c-.41-2.01-.93-3.71-1.63-5.33-.53-1.29-1.23-2.51-1.62-3.15-.45-.74-.71-1.12-1.11-1.63-.04-.05-.1-.13-.23-.31l-.16-.24-.18-.22c-3.11-3.88-6.87-6.03-9.48-7.15-2.76-1.18-5.68-1.9-8.96-2.23h-.07c-1.19-.11-2.41-.17-3.62-.17-3.34 0-6.68.4-10.52 1.25l-.07.02-.06.02c-3.31.8-6.48 1.81-9.48 3.04-18.91-15.59-44.64-24.44-71.48-24.44l-.08-.06zm38.278 132.36c-1.6 0-3.21-.66-4.35-1.96-.12-.13-13.23-14.59-30.64-15.22-10.97-.32-21.55 4.79-31.54 15.36-2.2 2.34-5.89 2.44-8.22.23-2.33-2.2-2.44-5.88-.23-8.21 12.39-13.12 26.03-19.61 40.4-18.99 22.51.8 38.3 18.39 38.96 19.14 2.13 2.41 1.91 6.08-.5 8.2-1.11.98-2.48 1.46-3.85 1.46l-.03-.01z"/><path fill="#676767" d="M62.52 83.466s-31.136-10.856-37.237-2c-6.09 8.86 7.293 30.083 17.734 37.273 0 0-6.102-22.85 19.502-35.28z"/><path fill="#B3B3B3" d="M60.49 86.54c-5.23-2.965-11.42-4.5-17.353-4.885-2.95-.17-5.88.018-8.29.687-2.476.643-4 1.91-4.26 2.777-.317.82-.403 2.45.278 4.71.646 2.2 1.867 4.64 3.37 6.93 3.003 4.56 7.34 8.95 11.405 11.2 4.465 2.48 6.066 8.1 3.584 12.56s-8.105 6.06-12.56 3.58c-.41-.23-.784-.48-1.136-.75l-.324-.25c-3.514-2.73-6.21-5.71-8.607-8.85-2.375-3.15-4.406-6.46-6.098-10.04-1.68-3.59-3.05-7.41-3.66-11.8-.29-2.19-.38-4.55.02-7.08.22-1.28.52-2.57 1.06-3.86.21-.59.59-1.38 1.03-2.14.53-.95.34-.51 1.02-1.57 1.73-2.3 4.03-3.96 6.27-4.99 2.24-1.03 4.44-1.53 6.53-1.8 4.19-.51 8.03-.12 11.71.59 7.27 1.52 14.13 4.29 20.06 8.77 1.62 1.24 1.94 3.55.71 5.18-1.13 1.49-3.18 1.88-4.77.97l.01.06z"/><path fill="#676767" d="M193.33 85.472c-11.563-5.202 30.814-11.736 37.167-3.056 6.344 8.68-3.93 27.014-14.158 34.493 0 0 2.94-19.75-23.01-31.44z"/><path fill="#B3B3B3" d="M191.212 82.457c5.79-4.654 12.572-7.613 19.804-9.347 3.653-.81 7.48-1.307 11.688-.926 2.103.21 4.315.646 6.588 1.612 2.256.972 4.603 2.564 6.41 4.814.71 1.022.502.588 1.067 1.532.45.74.85 1.524 1.08 2.11.56 1.277.91 2.546 1.17 3.82.48 2.512.44 4.875.23 7.08-.49 4.402-1.76 8.258-3.33 11.894-1.58 3.62-3.53 6.987-5.8 10.202-2.31 3.21-4.91 6.262-8.35 9.092l-.27.227c-3.94 3.24-9.76 2.67-13-1.267-3.23-3.937-2.67-9.765 1.27-13.005.36-.29.77-.58 1.15-.808 4.01-2.372 8.22-6.888 11.08-11.525 1.44-2.333 2.6-4.81 3.18-7.028.62-2.27.48-3.908.14-4.716-.28-.86-1.84-2.088-4.33-2.655-2.42-.604-5.37-.706-8.31-.456-5.92.563-12.06 2.272-17.21 5.387-1.74 1.063-4.02.505-5.08-1.237-.97-1.603-.58-3.658.85-4.8h-.04z"/><path fill="#fff" d="M221.516 128c0 42.02-41.776 76.086-93.32 76.086-51.55 0-93.337-34.066-93.337-76.087 0-42.02 41.78-76.08 93.33-76.08 51.54 0 93.32 34.06 93.32 76.08z"/><path fill="#B3B3B3" d="M201.507 120.022c0 34.28-33.868 62.076-75.645 62.076-41.773 0-75.643-27.797-75.643-62.076 0-34.288 33.86-62.084 75.64-62.084 41.77 0 75.64 27.796 75.64 62.084z"/><path fill="#999898" d="M125.862 185.007c-43.313 0-78.55-29.153-78.55-64.984 0-35.838 35.237-64.995 78.55-64.995 43.316 0 78.553 29.157 78.553 64.995 0 35.83-35.235 64.984-78.553 64.984zm0-124.16c-40.11 0-72.734 26.546-72.734 59.176 0 32.627 32.625 59.167 72.734 59.167 40.105 0 72.734-26.54 72.734-59.167.002-32.63-32.628-59.176-72.734-59.176z"/><path fill="#333" d="M128 153.086c-3.215 0-5-2.604-5-5.816V124c0-3.214 1.785-5.818 5-5.818s5 2.604 5 5.817v23.27c0 3.21-1.785 5.81-5 5.81z"/><path fill="#fff" d="M200.068 109.536c0 19.96-16.18 36.146-36.143 36.146-19.97 0-36.146-16.186-36.146-36.146 0-19.963 16.17-36.142 36.14-36.142 19.96 0 36.14 16.18 36.14 36.142z"/><circle fill="#fff" cx="88.303" cy="109.536" r="36.146"/><circle fill="#2974A7" cx="95.701" cy="111.142" r="16.729"/><path fill="#fff" d="M93.146 106.31c0 3.152-2.56 5.704-5.71 5.704-3.153 0-5.702-2.552-5.702-5.704 0-3.146 2.55-5.696 5.703-5.696 3.15 0 5.71 2.55 5.71 5.696zm6.29 6.156c0 1.48-1.21 2.685-2.69 2.685-1.475 0-2.68-1.2-2.68-2.68 0-1.47 1.205-2.68 2.68-2.68 1.48 0 2.69 1.2 2.69 2.68z"/><path fill="#2974A7" d="M177.302 112.02c0 9.197-7.448 16.648-16.645 16.648-9.205 0-16.654-7.45-16.654-16.648s7.45-16.652 16.654-16.652c9.197 0 16.645 7.453 16.645 16.652z"/><path fill="#fff" d="M158.104 107.213c0 3.142-2.54 5.675-5.68 5.675-3.137 0-5.676-2.533-5.676-5.675 0-3.132 2.54-5.673 5.676-5.673 3.14 0 5.68 2.54 5.68 5.673zm6.262 6.127c0 1.47-1.197 2.668-2.67 2.668-1.474 0-2.67-1.2-2.67-2.667 0-1.48 1.196-2.66 2.67-2.66 1.473 0 2.67 1.19 2.67 2.67v-.01z"/><path fill="#B3B3B3" d="M88.333 72c-19.963 0-36.176 17.573-36.176 37.536 0 4.627.88 9.046 2.463 13.113 21.666-10.32 46.565-21.15 66.967-27.23-5.5-12.95-18.3-23.42-33.254-23.42z"/><path fill="#999898" d="M122.75 98.125l-5.774-30.355c-7.774 18.67-20.538 31.09-25.283 35.273-12.768 5.166-25.89 11.09-38.02 16.86.562 1.88 1.268 3.694 2.113 5.43 21.682-10.328 46.58-21.163 66.794-27.174l.17-.04z"/><path fill="#B3B3B3" d="M128.825 100.913c.407-.056.817-.112 1.24-.177 23.687-3.613 48.733.755 69.96 7.112-.88-19.18-17.63-35.514-37.025-35.515-16.994 0-30.31 12.783-34.175 28.58z"/><path fill="#999898" d="M200.068 109.536c0-1.65-.12-3.27-.334-4.86-14.582-4.278-30.92-7.584-47.47-8.083-3.426-1.59-21.212-10.617-29.953-30.277L128 104.5l.15-.046c-.004.022-.01.044-.012.067.77-.14 1.557-.27 2.363-.4 5.55-.84 11.44-1.77 17.5-1.77v-.01c17.98 0 36.11 3.75 52.04 8.59.02-.46.04-.92.04-1.39z"/><path fill="#2974A7" d="M139.52 124.766c0 3.865-5.154 6.993-11.52 6.993-6.354 0-11.52-3.13-11.52-7s5.164-7 11.52-7c6.364 0 11.52 3.13 11.52 6.99v.01z"/><path fill="#999898" d="M125.862 185.007c-43.313 0-78.55-29.153-78.55-64.984 0-35.838 35.237-64.995 78.55-64.995 43.316 0 78.553 29.157 78.553 64.995 0 35.83-35.235 64.984-78.553 64.984zm0-124.16c-40.11 0-72.734 26.546-72.734 59.176 0 32.627 32.625 59.167 72.734 59.167 40.105 0 72.734-26.54 72.734-59.167.002-32.63-32.628-59.176-72.734-59.176z"/><path fill="#C1272D" d="M89.18 158.583c.093-.07-.024-.062.737-.782l1.287-1.18 1.45-1.2c2.2-1.7 5.4-3.67 9.417-5.69 2.01-1.01 4.22-2.03 6.65-2.95 2.35-1.02 5.07-1.75 7.76-2.59 2.83-.62 5.68-1.4 8.74-1.7 3.04-.39 6.12-.66 9.27-.52 3.12-.09 6.23.4 9.26.84 3.04.34 5.86 1.41 8.63 2.13 2.75.79 5.15 2.06 7.52 3.05 2.41.97 4.28 2.39 6.15 3.47 1.81 1.17 3.57 2.14 4.81 3.27 1.3 1.07 2.44 2 3.38 2.77l2.9 2.43c5.61 4.69 6.36 13.04 1.66 18.65-4.04 4.84-10.8 6.05-16.18 3.3l-1.98-1.02-2.22-1.14c-.69-.36-1.53-.8-2.5-1.32-.93-.6-2.08-.84-3.26-1.3-1.19-.35-2.42-1.06-3.78-1.18-1.35-.2-2.69-.73-4.11-.78-1.42.03-2.82-.37-4.26-.14-1.43.13-2.83.1-4.25.52-5.6.99-11 4.08-14.68 7.03-1.83 1.43-3.22 2.82-4.1 3.63-.22.18-.42.34-.6.47-.05.06-.12.08-.18.1-.04-.02-.55.4-.46.32-7.84 7.46-20.24 7.14-27.7-.7-7.45-7.85-7.14-20.25.71-27.71l-.06-.07z"/><path fill="#fff" d="M70.578 77.6s-12.598 25.683-2.42 29.563C78.34 111.043 83.18 97 70.578 77.6z"/></svg>