<svg xmlns="http://www.w3.org/2000/svg" width="256" height="256" viewBox="0 0 256 256"><path fill="#fff" d="M128.196 208.08c-53.67 0-97.336-35.926-97.336-80.083 0-1.04.027-2.11.082-3.2-2.676-2.302-5.1-4.916-7.52-8.097-2.617-3.46-4.753-6.973-6.54-10.75-2.142-4.6-3.41-8.708-4.003-12.95-.39-2.984-.38-5.67.03-8.254.24-1.33.58-2.967 1.28-4.684.38-1.04.96-2.11 1.27-2.667.35-.638.52-.886.77-1.223.07-.09.15-.21.36-.53l.08-.124.09-.12c2.51-3.325 5.62-5.213 7.79-6.212 2.33-1.064 4.84-1.76 7.69-2.13 1.46-.178 2.91-.265 4.37-.265 2.7 0 5.44.29 8.61.9 4.76 1 9.19 2.47 13.24 4.4 18.25-15.39 43.48-24.17 69.7-24.17 26.81 0 52.44 9.12 70.78 25.11 3.44-1.58 7.16-2.86 11.1-3.8 3.59-.8 6.66-1.16 9.72-1.16 1.08 0 2.18.05 3.25.15 2.9.3 5.44.92 7.79 1.92 2.2.95 5.36 2.75 7.96 5.99l.09.11.08.11c.22.32.32.45.39.54.26.34.42.57.81 1.21.55.91 1.03 1.84 1.35 2.62.59 1.36 1.03 2.82 1.39 4.58.5 2.63.59 5.32.29 8.28-.47 4.28-1.62 8.43-3.63 13.09-1.66 3.8-3.69 7.37-6.22 10.93-2.54 3.54-5.07 6.38-7.89 8.86.01.54.02 1.06.02 1.58 0 44.15-43.66 80.08-97.32 80.08zm83.777-120.877c2.246 3.12 4.23 6.357 5.938 9.695.23-.345.46-.692.67-1.04 1.29-2.085 2.26-4.193 2.71-5.937.24-.86.3-1.51.3-1.9-.31-.17-.81-.39-1.5-.55-1.3-.32-2.83-.48-4.51-.48-.82 0-1.69.04-2.57.12-.34.03-.68.07-1.02.11zm-177.622-.39c.02.39.09 1.022.35 1.867.52 1.742 1.54 3.827 2.89 5.89.38.574.78 1.144 1.2 1.708 1.88-3.59 4.09-7.062 6.59-10.394-.82-.104-1.66-.183-2.49-.237-.58-.034-1.18-.053-1.78-.053-1.98 0-3.77.207-5.17.598-.74.194-1.26.437-1.57.62z"/><path fill="#333" d="M128.196 51.917c27.95 0 53.023 10.02 70.126 25.89 3.98-2.1 8.252-3.635 12.695-4.7 2.795-.62 5.694-1.057 8.787-1.057.945 0 1.91.04 2.896.13 2.104.21 4.317.648 6.59 1.614 2.256.97 4.604 2.564 6.408 4.813.713 1.023.5.59 1.067 1.532.453.74.854 1.52 1.092 2.1.562 1.28.9 2.55 1.164 3.82.48 2.51.45 4.87.23 7.07-.48 4.4-1.75 8.26-3.32 11.89-1.57 3.62-3.52 6.98-5.8 10.2-2.31 3.21-4.91 6.26-8.35 9.09l-.27.22c-.02.02-.05.03-.07.05.07 1.12.1 2.24.1 3.38 0 42.02-41.78 76.08-93.32 76.08-51.55 0-93.33-34.07-93.33-76.09 0-1.68.08-3.34.21-4.99-3.44-2.7-6.1-5.63-8.46-8.73-2.38-3.15-4.41-6.46-6.1-10.04-1.67-3.59-3.04-7.41-3.65-11.8-.28-2.19-.37-4.55.02-7.08.23-1.28.53-2.57 1.07-3.86.21-.58.59-1.38 1.02-2.14.54-.95.35-.51 1.03-1.56 1.74-2.3 4.04-3.96 6.28-4.99 2.25-1.03 4.44-1.53 6.53-1.8 1.32-.16 2.6-.23 3.86-.23 2.74 0 5.34.33 7.86.82 5.14 1.07 10.05 2.79 14.58 5.26 17.06-15.31 41.7-24.93 69.11-24.93m-88.39 51.57c3.04-7.29 7.4-14.08 12.85-20.18-3.13-.9-6.36-1.45-9.53-1.65-.68-.04-1.36-.07-2.04-.07-2.24 0-4.4.23-6.25.74-2.48.64-4 1.91-4.26 2.77-.32.82-.4 2.46.28 4.71.65 2.2 1.87 4.64 3.37 6.93 1.57 2.38 3.51 4.71 5.58 6.72m177.15.99c1.88-1.98 3.62-4.23 5.03-6.51 1.44-2.33 2.6-4.81 3.18-7.02.62-2.27.48-3.91.15-4.72-.29-.86-1.85-2.09-4.34-2.65-1.62-.41-3.47-.59-5.4-.59-.96 0-1.93.05-2.91.13-2.6.25-5.25.73-7.84 1.45 5.17 6.06 9.29 12.75 12.15 19.92M128.2 43.91c-26.23 0-51.54 8.51-70.33 23.5-3.674-1.553-7.6-2.77-11.733-3.64l-.065-.01-.065-.012c-3.427-.658-6.404-.964-9.37-.964-1.615 0-3.235.097-4.815.288l-.038.005h-.038c-3.25.42-6.135 1.22-8.82 2.45-3.73 1.715-6.948 4.29-9.333 7.442l-.18.24-.16.25c-.083.12-.135.2-.174.26-.42.55-.68.96-1.11 1.72-.43.75-1.05 1.93-1.5 3.15-.83 2.03-1.23 3.91-1.48 5.33l-.02.09-.02.09c-.47 2.96-.48 6.02-.05 9.34v.08c.65 4.64 2.02 9.11 4.32 14.06l.01.02.01.02c1.9 4.02 4.18 7.77 6.95 11.44 2.16 2.84 4.33 5.26 6.65 7.42-.01.49-.01.99-.01 1.47 0 22.77 10.75 44.08 30.28 60 19.05 15.53 44.29 24.08 71.06 24.08 26.76 0 51.99-8.56 71.04-24.09 19.48-15.88 30.22-37.12 30.28-59.83 2.5-2.37 4.8-5.06 7.09-8.25 2.72-3.83 4.88-7.64 6.64-11.67 2.19-5.07 3.44-9.57 3.95-14.22v-.08c.33-3.36.23-6.42-.33-9.36l-.01-.06-.02-.06c-.42-2.03-.94-3.72-1.63-5.33-.53-1.3-1.24-2.52-1.63-3.15-.44-.73-.69-1.1-1.09-1.6-.05-.06-.11-.15-.26-.35l-.16-.23-.17-.21c-3.12-3.88-6.88-6.03-9.49-7.16-2.76-1.18-5.68-1.9-8.95-2.23l-.04-.01-.04-.01c-1.19-.11-2.41-.16-3.62-.16-3.36 0-6.7.4-10.53 1.25l-.07.02-.06.01c-3.32.79-6.49 1.81-9.49 3.03-18.92-15.6-44.64-24.45-71.48-24.45z"/><path fill="#676767" d="M62.52 83.464s-31.136-10.856-37.237-2c-6.09 8.857 7.295 30.082 17.734 37.272 0 0-6.1-22.847 19.504-35.272z"/><path fill="#B3B3B3" d="M60.49 86.538c-5.23-2.964-11.417-4.498-17.355-4.882-2.947-.174-5.88.014-8.285.684-2.48.642-4.002 1.91-4.262 2.776-.318.826-.402 2.46.275 4.716.65 2.205 1.87 4.637 3.37 6.93 3.003 4.56 7.347 8.953 11.407 11.204 4.465 2.483 6.068 8.106 3.588 12.568-2.484 4.456-8.11 6.065-12.563 3.584-.41-.223-.783-.474-1.137-.744l-.322-.252c-3.52-2.733-6.213-5.7-8.604-8.844-2.38-3.15-4.414-6.46-6.107-10.038-1.668-3.585-3.043-7.407-3.656-11.795-.29-2.19-.38-4.55.02-7.08.23-1.275.53-2.563 1.06-3.856.21-.59.59-1.38 1.02-2.14.53-.95.34-.52 1.02-1.57 1.74-2.3 4.03-3.96 6.27-4.99 2.24-1.03 4.44-1.53 6.53-1.8 4.19-.51 8.03-.12 11.72.59 7.27 1.52 14.13 4.29 20.05 8.77 1.62 1.24 1.94 3.55.71 5.18-1.13 1.5-3.18 1.88-4.77.97z"/><path fill="#676767" d="M193.333 85.47c-11.567-5.205 30.813-11.737 37.164-3.056 6.35 8.68-3.927 27.012-14.158 34.492 0 0 2.94-19.745-23.01-31.435z"/><path fill="#B3B3B3" d="M191.214 82.456c5.79-4.655 12.572-7.615 19.806-9.347 3.65-.82 7.48-1.31 11.685-.93 2.104.21 4.317.65 6.59 1.61 2.256.97 4.604 2.56 6.408 4.81.713 1.02.5.59 1.067 1.53.453.74.854 1.52 1.092 2.1.562 1.28.902 2.55 1.164 3.82.476 2.51.45 4.87.23 7.07-.484 4.4-1.76 8.26-3.326 11.89-1.578 3.61-3.525 6.98-5.808 10.2-2.312 3.21-4.912 6.26-8.35 9.09l-.277.22c-3.943 3.24-9.76 2.67-13.004-1.27-3.23-3.94-2.67-9.77 1.27-13.01.36-.29.78-.58 1.15-.81 4.01-2.38 8.22-6.9 11.08-11.53 1.44-2.33 2.6-4.81 3.18-7.03.62-2.27.48-3.91.15-4.72-.28-.86-1.85-2.09-4.34-2.65-2.42-.6-5.36-.71-8.31-.46-5.92.56-12.06 2.27-17.21 5.39-1.74 1.06-4.01.51-5.07-1.23-.97-1.61-.58-3.66.85-4.8z"/><path fill="#fff" d="M221.518 127.997c0 42.02-41.778 76.083-93.32 76.083-51.552 0-93.337-34.064-93.337-76.083 0-42.015 41.79-76.08 93.34-76.08 51.54 0 93.32 34.065 93.32 76.08z"/><path fill="#B3B3B3" d="M207.292 120.02c0 36.902-36.463 66.818-81.43 66.818-44.963 0-81.426-29.916-81.426-66.817 0-36.91 36.463-66.83 81.426-66.83 44.967 0 81.43 29.92 81.43 66.83z"/><path fill="#999898" d="M125.862 189.75c-46.506 0-84.332-31.28-84.332-69.73 0-38.453 37.826-69.736 84.332-69.736 46.5 0 84.338 31.283 84.338 69.737 0 38.45-37.837 69.73-84.338 69.73zm0-133.65c-43.295 0-78.516 28.675-78.516 63.92 0 35.24 35.22 63.912 78.516 63.912 43.29 0 78.52-28.672 78.52-63.91 0-35.247-35.23-63.922-78.52-63.922z"/><path fill="#333" d="M128.354 97.032l15.794-9.5c14.1-8.475 39.623-21.087 40.7-21.62 2.167-1.072 4.777-.177 5.847 1.98 1.063 2.164.177 4.78-1.98 5.847-.17.08-11.26 5.55-22.78 11.65l13.852-1.07c2.354-.12 4.496 1.61 4.687 4.02.184 2.4-1.613 4.5-4.017 4.68l-52.103 3.99zm-4.802-.696L68.275 93.45c-2.408-.126-4.254-2.175-4.13-4.582.12-2.41 2.272-4.304 4.585-4.13l23.637 1.23c-11.996-5.612-25.033-9.936-25.23-10.004-2.288-.75-3.532-3.215-2.776-5.502.76-2.287 3.2-3.564 5.51-2.78 1.24.404 30.32 10.045 43.04 20.172l10.66 8.482z"/><path fill="#fff" d="M201.003 169.917c-.194 0-.394-.02-.588-.05-24.483-4.138-49.858-6.236-75.405-6.236-43.306 0-72.486 6.13-72.776 6.19-.242.05-.484.08-.725.08-1.04 0-2.02-.46-2.76-1.29-.93-1.02-1.38-2.52-1.21-3.99 6.33-55.39 70.54-56.99 77.84-56.99l.49.01c40.24 2.33 59.56 17.45 68.67 29.72 10.28 13.84 10.45 27.32 10.45 27.89 0 1.36-.5 2.65-1.38 3.54-.73.74-1.66 1.15-2.63 1.15z"/><path fill="#999898" d="M69.5 166.956H62v-35.57l7.75-6.414zm112.375 0h7.5v-35.57l-7.75-6.414zm-86.125 0h-7.5v-52.86L96 110.1zm33.5-4.256h-7.5v-54.347l7.75 1.623zm24.25 4.256h7.5v-52.86l-7.75-3.994z"/><path fill="#333" d="M125.392 110.533l.364.002c39.376 2.28 58.114 16.876 66.91 28.72 9.68 13.038 9.836 25.468 9.838 25.99.002.51-.187.993-.517 1.327-.274.28-.625.43-.983.43-.07 0-.144-.006-.215-.02-24.62-4.158-50.11-6.268-75.78-6.268-43.59 0-72.94 6.175-73.23 6.237-.09.02-.18.03-.27.03-.39 0-.76-.17-1.04-.48-.35-.39-.52-.94-.46-1.49 6.05-52.93 68.29-54.46 75.36-54.46m.01-5.83h-.02c-7.53 0-73.71 1.67-80.33 59.53-.28 2.4.46 4.82 1.96 6.49 1.21 1.35 2.8 2.09 4.48 2.09.39 0 .79-.04 1.17-.12.29-.06 29.38-6.14 72.32-6.14 25.42 0 50.68 2.09 75.06 6.21.28.05.61.08.93.08 1.56 0 3.08-.66 4.26-1.86 1.43-1.45 2.24-3.55 2.23-5.75-.01-1.53-.37-15.38-11.06-29.78-9.44-12.7-29.31-28.34-70.44-30.72l-.11-.01h-.49z"/><path fill="#2974A7" d="M137.986 101.496c0 3.864-5.163 6.993-11.522 6.993-6.357 0-11.52-3.13-11.52-7s5.163-6.99 11.52-6.99c6.36 0 11.522 3.13 11.522 6.99z"/></svg>