<svg xmlns="http://www.w3.org/2000/svg" width="256" height="256" viewBox="0 0 256 256"><path fill="#fff" d="M128.196 208.08c-53.672 0-97.338-35.925-97.338-80.084 0-1.04.027-2.11.082-3.2-2.658-2.288-5.083-4.9-7.52-8.088-2.625-3.48-4.76-6.995-6.54-10.762-2.14-4.59-3.41-8.697-4.003-12.945-.385-2.97-.373-5.66.033-8.25.23-1.31.573-2.94 1.284-4.68.382-1.04.964-2.12 1.285-2.68.35-.63.51-.87.76-1.21.07-.09.16-.21.36-.53l.08-.12.09-.12c2.51-3.33 5.63-5.22 7.8-6.21 2.32-1.06 4.83-1.76 7.68-2.13 1.45-.17 2.9-.26 4.36-.26 2.7 0 5.44.29 8.62.89 4.76 1 9.19 2.47 13.24 4.4 18.25-15.38 43.48-24.16 69.71-24.16 26.81 0 52.44 9.12 70.78 25.1 3.43-1.58 7.16-2.85 11.1-3.8 3.6-.8 6.67-1.16 9.71-1.16 1.09 0 2.19.05 3.26.15 2.9.29 5.44.92 7.79 1.92 2.21.95 5.36 2.76 7.96 5.99l.08.11.07.11c.22.32.32.45.39.54.26.34.43.57.81 1.22.54.88 1.03 1.84 1.35 2.63.59 1.37 1.04 2.82 1.4 4.57.5 2.61.59 5.3.29 8.28-.47 4.28-1.63 8.43-3.64 13.08-1.66 3.8-3.69 7.37-6.22 10.94-2.54 3.54-5.07 6.38-7.89 8.86.02.54.02 1.06.02 1.58 0 44.16-43.66 80.09-97.32 80.09zM211.97 87.204c2.248 3.12 4.23 6.36 5.94 9.697.23-.34.454-.69.668-1.04 1.294-2.09 2.257-4.2 2.71-5.93.237-.87.297-1.51.297-1.9-.307-.17-.812-.39-1.515-.56-1.288-.32-2.82-.48-4.502-.48-.827 0-1.694.04-2.576.12-.34.04-.68.07-1.02.11zm-177.62-.39c.014.39.093 1.022.347 1.864.51 1.735 1.532 3.82 2.89 5.9.374.57.775 1.138 1.197 1.7 1.883-3.59 4.085-7.063 6.594-10.396-.83-.103-1.664-.183-2.502-.238-.56-.032-1.152-.05-1.738-.05-2 0-3.802.208-5.214.602-.748.195-1.264.437-1.574.62z"/><path fill="#333" d="M128.196 51.92c27.948 0 53.022 10.018 70.124 25.887 3.98-2.1 8.252-3.633 12.698-4.698 2.794-.62 5.692-1.06 8.783-1.06.95 0 1.92.04 2.9.13 2.11.21 4.32.64 6.6 1.61 2.26.97 4.6 2.56 6.41 4.81.72 1.02.5.59 1.07 1.53.46.74.86 1.52 1.09 2.1.56 1.28.91 2.55 1.17 3.82.48 2.51.46 4.87.23 7.08-.48 4.4-1.75 8.26-3.32 11.89-1.58 3.62-3.52 6.99-5.8 10.2-2.31 3.21-4.91 6.26-8.35 9.09l-.27.23c-.02.02-.05.03-.07.05.06 1.12.1 2.24.1 3.37 0 42.02-41.77 76.08-93.32 76.08-51.55 0-93.33-34.06-93.33-76.08 0-1.68.07-3.34.2-4.99-3.44-2.7-6.1-5.64-8.46-8.73-2.38-3.15-4.41-6.46-6.1-10.04-1.67-3.58-3.04-7.41-3.65-11.79-.28-2.19-.37-4.55.02-7.08.23-1.28.53-2.57 1.07-3.86.21-.59.59-1.38 1.03-2.14.54-.95.35-.52 1.03-1.56 1.74-2.31 4.04-3.97 6.28-4.99 2.25-1.03 4.44-1.53 6.53-1.8 1.32-.16 2.59-.23 3.84-.23 2.74 0 5.35.33 7.88.82 5.13 1.07 10.05 2.78 14.58 5.26 17.05-15.31 41.69-24.93 69.09-24.93m-88.39 51.58c3.04-7.29 7.41-14.08 12.85-20.18-3.12-.9-6.36-1.45-9.52-1.66-.67-.04-1.33-.06-2-.06-2.25 0-4.42.23-6.28.75-2.48.64-4 1.91-4.26 2.77-.32.82-.4 2.46.28 4.71.65 2.2 1.87 4.63 3.37 6.93 1.57 2.38 3.51 4.71 5.58 6.72m177.15.98c1.88-1.98 3.61-4.23 5.02-6.51 1.44-2.34 2.6-4.81 3.18-7.03.62-2.27.47-3.91.14-4.72-.29-.87-1.85-2.09-4.34-2.66-1.61-.41-3.47-.58-5.39-.58-.96 0-1.94.04-2.91.12-2.61.25-5.25.73-7.84 1.45 5.18 6.05 9.3 12.75 12.16 19.91m-88.76-60.55c-26.23 0-51.54 8.51-70.33 23.5-3.68-1.56-7.61-2.78-11.74-3.64l-.07-.02-.07-.02c-3.44-.66-6.42-.96-9.37-.96-1.61 0-3.23.09-4.8.28h-.08c-3.25.42-6.14 1.23-8.83 2.46-3.71 1.7-6.94 4.28-9.33 7.44l-.18.24-.16.25-.18.27c-.41.55-.67.95-1.09 1.7-.43.76-1.06 1.95-1.51 3.17-.85 2.09-1.25 4.04-1.48 5.35l-.02.08-.01.08c-.47 2.97-.49 6.02-.06 9.34v.08c.65 4.65 2.02 9.12 4.33 14.06 1.91 4.05 4.19 7.79 6.96 11.48l.02.02.01.02c2.16 2.83 4.32 5.24 6.63 7.39-.01.49-.02.98-.02 1.47 0 22.77 10.75 44.08 30.28 60 19 15.54 44.23 24.09 71 24.09 26.76 0 51.99-8.56 71.04-24.09 19.48-15.88 30.22-37.12 30.28-59.84 2.5-2.37 4.81-5.05 7.1-8.24l.02-.02.02-.02c2.69-3.79 4.86-7.59 6.62-11.63 2.19-5.06 3.44-9.57 3.95-14.22l.01-.04v-.03c.34-3.38.23-6.44-.33-9.38l-.01-.05-.01-.05c-.41-2.01-.93-3.71-1.62-5.32-.4-.98-.98-2.09-1.63-3.16-.45-.74-.7-1.11-1.09-1.61-.05-.06-.12-.15-.26-.36l-.16-.22-.17-.21c-3.11-3.88-6.87-6.03-9.48-7.16-2.77-1.17-5.69-1.9-8.96-2.23h-.08c-1.19-.11-2.41-.17-3.62-.17-3.34 0-6.68.4-10.52 1.25l-.06.01-.07.02c-3.31.79-6.48 1.81-9.48 3.03-18.89-15.57-44.61-24.42-71.45-24.42z"/><path fill="#676767" d="M62.52 83.464S31.383 72.61 25.282 81.467c-6.092 8.853 7.293 30.076 17.734 37.27 0 0-6.102-22.848 19.502-35.273z"/><path fill="#B3B3B3" d="M60.49 86.54c-5.23-2.968-11.417-4.5-17.354-4.89-2.947-.167-5.88.02-8.287.69-2.48.642-4 1.91-4.27 2.776-.32.825-.4 2.458.28 4.714.64 2.205 1.87 4.637 3.37 6.932 3 4.558 7.34 8.953 11.4 11.202 4.46 2.483 6.07 8.106 3.58 12.568-2.48 4.458-8.11 6.067-12.56 3.582-.41-.22-.79-.47-1.14-.74l-.33-.25c-3.52-2.734-6.21-5.707-8.61-8.846-2.38-3.15-4.41-6.46-6.11-10.042-1.67-3.582-3.04-7.405-3.66-11.79-.29-2.19-.38-4.55.02-7.08.23-1.277.53-2.566 1.06-3.857.21-.59.59-1.38 1.03-2.15.53-.95.34-.51 1.02-1.56 1.74-2.31 4.03-3.97 6.27-4.99 2.24-1.03 4.44-1.53 6.53-1.8 4.19-.51 8.03-.11 11.71.59 7.27 1.52 14.13 4.29 20.06 8.77 1.62 1.23 1.95 3.55.71 5.18-1.13 1.5-3.18 1.88-4.77.98z"/><path fill="#676767" d="M193.333 85.47c-11.566-5.203 30.813-11.736 37.162-3.057 6.348 8.682-3.924 27.014-14.156 34.493 0 0 2.94-19.744-23.01-31.435z"/><path fill="#B3B3B3" d="M191.212 82.45c5.793-4.65 12.572-7.608 19.807-9.342 3.65-.81 7.47-1.307 11.68-.926 2.1.21 4.31.647 6.59 1.613 2.25.97 4.6 2.562 6.4 4.813.71 1.02.5.59 1.07 1.533.45.75.85 1.53 1.09 2.11.56 1.28.9 2.56 1.16 3.83.48 2.52.45 4.88.23 7.08-.49 4.4-1.76 8.26-3.33 11.9-1.58 3.62-3.53 6.99-5.81 10.2-2.31 3.22-4.92 6.27-8.36 9.09l-.28.23c-3.95 3.24-9.76 2.67-13.01-1.26s-2.67-9.76 1.27-13c.35-.29.77-.58 1.14-.81 4-2.37 8.21-6.89 11.08-11.52 1.44-2.33 2.59-4.81 3.17-7.02.62-2.27.47-3.91.14-4.71-.29-.86-1.85-2.09-4.34-2.66-2.43-.6-5.37-.7-8.31-.45-5.92.56-12.06 2.27-17.21 5.38-1.75 1.07-4.02.51-5.09-1.23-.97-1.6-.58-3.66.85-4.8z"/><path fill="#fff" d="M221.515 127.996c0 42.02-41.777 76.085-93.318 76.085-51.55 0-93.338-34.06-93.338-76.08 0-42.01 41.78-76.07 93.33-76.07 51.54 0 93.32 34.06 93.32 76.08z"/><path fill="#B3B3B3" d="M201.507 128.104c0 38.742-33.87 70.157-75.646 70.157-41.77 0-75.64-31.41-75.64-70.15 0-38.75 33.87-70.17 75.64-70.17 41.78 0 75.65 31.42 75.65 70.17z"/><path fill="#999898" d="M125.86 201.172c-43.31 0-78.55-32.776-78.55-73.067 0-40.293 35.24-73.078 78.55-73.078 43.316 0 78.557 32.785 78.557 73.078 0 40.29-35.24 73.067-78.557 73.067zm0-140.327c-40.105 0-72.73 30.17-72.73 67.26 0 37.077 32.625 67.25 72.73 67.25 40.107 0 72.738-30.173 72.738-67.25 0-37.09-32.63-67.26-72.738-67.26z"/><path fill="#333" d="M126.62 127.38c-3.216 0-6-2.274-6-5.082V96.876c0-2.812 2.784-5.084 6-5.084s6 2.273 6 5.084v25.422c0 2.807-2.784 5.083-6 5.083z"/><path fill="#2974A7" d="M137.985 95.678c0 3.862-5.158 6.994-11.52 6.994-6.358 0-11.524-3.132-11.524-6.994 0-3.86 5.17-6.994 11.53-6.994 6.37 0 11.52 3.132 11.52 6.994z"/><path fill="#333" d="M161.838 158.826c-2.365 0-4.586-1.768-5.455-4.108-.092-.24-9.633-25.337-29.107-25.337h-.193c-13.88 0-21.043 8.75-30.963 26.19-1.594 2.8-5.14 3.92-7.93 2.34-2.795-1.59-3.77-5.55-2.18-8.34 9.463-16.63 19.72-32.18 40.98-32.18h.302c27.593 0 39.503 31.77 39.998 33.12 1.12 3.01-.418 6.6-3.43 7.72-.667.25-1.354.62-2.022.62zm5.558-53.446H139.4l5.566-8.318c7.127-11.398 12.428-20.324 12.48-20.417 1.598-2.787 5.146-3.595 7.94-2 2.786 1.6 3.75 4.962 2.15 7.75-.04.067-2.892 5.986-7.228 11.986h7.086c3.213 0 5.816 2.29 5.816 5.5.002 3.22-2.602 5.5-5.814 5.5zm-53.496 0H85.953c-3.213 0-5.816-2.28-5.816-5.5 0-3.215 2.604-5.5 5.816-5.5h7.045c-4.33-6-7.176-11.857-7.215-11.924-1.598-2.793-.625-6.208 2.164-7.805 2.783-1.6 6.342-.55 7.94 2.24.048.09 5.323 8.76 12.448 20.15l5.567 8.35z"/><radialGradient id="a" cx="69.251" cy="122.477" r="30" gradientUnits="userSpaceOnUse"><stop offset="0" stop-color="#FF585D"/><stop offset="1" stop-color="#FF585D" stop-opacity="0"/></radialGradient><circle opacity=".4" fill="url(#a)" cx="69.251" cy="122.477" r="30"/><radialGradient id="b" cx="184.251" cy="122.477" r="30" gradientUnits="userSpaceOnUse"><stop offset="0" stop-color="#FF585D"/><stop offset="1" stop-color="#FF585D" stop-opacity="0"/></radialGradient><circle opacity=".4" fill="url(#b)" cx="184.251" cy="122.477" r="30"/></svg>