<svg xmlns="http://www.w3.org/2000/svg" width="256" height="256" viewBox="0 0 256 256"><path fill="#fff" d="M128.228 208.08c-24.224 0-47.432-7.354-65.35-20.71-17.313-12.904-28.33-30.337-31.22-49.3-2.96-1.348-5.71-2.868-8.353-4.616-4.206-2.824-7.417-5.686-10.128-9.02-1.875-2.363-3.25-4.667-4.237-7.083-.477-1.24-1.024-2.81-1.32-4.66-.206-1.07-.27-2.29-.288-2.94-.022-.74-.007-1.05.036-1.46.012-.11.024-.25.034-.62l.004-.15.016-.15c.428-4.16 2.12-7.38 3.46-9.35 1.437-2.1 3.227-4 5.476-5.8 3.233-2.52 6.858-4.47 11.443-6.17 6.31-2.21 12.52-3.32 18.53-3.32.53 0 1.06.01 1.58.03 18.18-21.84 48.03-34.81 80.32-34.81 32.27 0 62.12 12.97 80.3 34.8.39-.01.77-.01 1.15-.01 6.01 0 12.22 1.11 18.47 3.3 4.65 1.72 8.28 3.67 11.47 6.17 2.29 1.83 4.08 3.72 5.51 5.82 1.35 1.98 3.04 5.21 3.47 9.36l.01.15.01.15c.01.38.03.52.04.63.05.41.06.73.04 1.48-.01.62-.07 1.85-.28 2.94-.29 1.83-.84 3.41-1.29 4.59-1.01 2.49-2.39 4.8-4.23 7.13-2.74 3.37-5.96 6.24-10.14 9.04-2.51 1.66-5.11 3.11-7.91 4.41-2.83 19.02-13.82 36.51-31.15 49.46-17.93 13.4-41.16 20.78-65.43 20.78zM28.36 108.043c.214.328.608.827 1.26 1.416.856.78 1.975 1.58 3.265 2.35.818-3.29 1.884-6.52 3.195-9.69-.343.16-.684.34-1.022.51-2.35 1.23-4.37 2.68-5.668 4.05-.54.55-.858 1.03-1.03 1.35zm192.11-5.65c1.228 3.006 2.238 6.073 3.025 9.187 1.125-.69 2.104-1.406 2.865-2.104.667-.602 1.065-1.106 1.28-1.434-.17-.315-.477-.782-.986-1.307-1.34-1.422-3.36-2.867-5.73-4.112l-.455-.232z"/><path fill="#333" d="M128.228 51.92c32.92 0 61.854 13.896 78.466 34.884.995-.066 1.988-.1 2.98-.1 5.824 0 11.572 1.125 17.14 3.077 3.514 1.3 7.01 2.95 10.334 5.55 1.65 1.32 3.27 2.88 4.662 4.92 1.385 2.04 2.494 4.65 2.79 7.52.034 1.24.103.77.067 1.86-.02.88-.102 1.76-.227 2.37-.21 1.38-.62 2.64-1.086 3.85-.965 2.37-2.26 4.34-3.633 6.08-2.79 3.44-5.94 6-9.23 8.21-2.97 1.97-6.08 3.6-9.35 4.98-4.39 38.69-44.31 68.98-92.91 68.98-48.52 0-88.39-30.19-92.9-68.78-3.43-1.42-6.69-3.12-9.81-5.18-3.28-2.2-6.44-4.77-9.23-8.2-1.37-1.73-2.67-3.7-3.63-6.07-.46-1.21-.87-2.47-1.08-3.85-.12-.6-.2-1.48-.23-2.36-.03-1.09.04-.62.07-1.86.3-2.87 1.41-5.48 2.79-7.51 1.39-2.04 3.01-3.6 4.67-4.92 3.32-2.6 6.82-4.25 10.33-5.55 5.57-1.95 11.31-3.07 17.14-3.07 1.13 0 2.27.04 3.4.13 16.61-21.01 45.56-34.92 78.5-34.92m-92.47 65.71c1.33-7.96 4.17-15.53 8.28-22.51-3.78.83-7.46 2.22-10.81 3.96-2.61 1.37-5.02 3.05-6.74 4.87-1.79 1.84-2.44 3.71-2.22 4.59.16.87.93 2.31 2.68 3.89 1.7 1.56 4.01 3 6.48 4.19.76.37 1.55.7 2.35 1.02m184.9-.15c.66-.27 1.31-.56 1.94-.86 2.47-1.19 4.78-2.64 6.47-4.19 1.75-1.58 2.52-3.02 2.68-3.89.23-.88-.43-2.75-2.21-4.59-1.71-1.82-4.12-3.49-6.73-4.87-3.21-1.66-6.71-3-10.31-3.84 4.04 6.9 6.84 14.38 8.18 22.24M128.3 43.96c-32.74 0-63.11 12.94-82.15 34.79-6.38.03-12.95 1.22-19.534 3.53l-.06.03-.06.03c-4.98 1.84-8.95 3.99-12.48 6.74l-.04.03-.03.03c-2.567 2.05-4.62 4.23-6.28 6.67-2.3 3.38-3.73 7.26-4.14 11.21l-.03.3-.01.31-.01.3c-.07.67-.09 1.17-.06 2.03.02.92.11 2.26.34 3.51.36 2.22 1.02 4.1 1.493 5.33l.03.08.03.08c1.13 2.77 2.69 5.398 4.77 8.02l.03.04.04.04c2.97 3.65 6.45 6.76 10.98 9.8l.02.015.02.015c2.23 1.48 4.53 2.8 6.96 4 3.52 19.18 14.9 36.72 32.42 49.78 18.6 13.87 42.66 21.505 67.74 21.505 25.12 0 49.2-7.66 67.82-21.57 17.54-13.117 28.91-30.72 32.37-49.96 2.26-1.14 4.4-2.38 6.48-3.76l.02-.014.02-.01c4.52-3.04 8.01-6.15 10.98-9.8l.03-.04.04-.04c2.08-2.63 3.64-5.26 4.77-8.02l.03-.08.03-.07c.51-1.35 1.14-3.16 1.49-5.33.24-1.26.32-2.59.34-3.52.02-.85.01-1.33-.05-1.98-.01-.1-.01-.19-.01-.33l-.01-.29-.03-.3c-.51-4.98-2.53-8.84-4.13-11.19-1.66-2.44-3.72-4.62-6.28-6.67l-.03-.03-.03-.03c-3.53-2.76-7.5-4.9-12.48-6.74l-.06-.02-.07-.02c-6.43-2.25-12.85-3.44-19.09-3.52C191.43 56.94 161.06 44 128.33 44z"/><path fill="#676767" d="M50.747 90.612s-32.266 6.8-32.914 17.534c-.64 10.733 21.797 21.98 34.447 22.74 0 .002-17.03-16.403-1.533-40.274z"/><path fill="#B3B3B3" d="M50.6 94.293c-6.01.163-12.103 2.05-17.384 4.79-2.613 1.373-5.027 3.05-6.738 4.865-1.79 1.84-2.436 3.706-2.215 4.587.154.868.928 2.31 2.674 3.89 1.693 1.553 4.002 3 6.473 4.19 4.924 2.35 10.912 3.87 15.553 3.696 5.107-.18 9.385 3.8 9.566 8.91.17 5.11-3.81 9.39-8.91 9.56-.47.02-.92.01-1.36-.04l-.41-.05c-4.42-.51-8.26-1.67-11.94-3.12-3.66-1.47-7.11-3.25-10.41-5.43-3.29-2.21-6.44-4.77-9.23-8.21-1.38-1.73-2.67-3.7-3.64-6.07-.47-1.21-.87-2.47-1.09-3.85-.13-.6-.21-1.49-.23-2.36-.04-1.09.03-.62.07-1.86.29-2.87 1.4-5.48 2.79-7.52 1.39-2.04 3.01-3.6 4.66-4.92 3.32-2.59 6.82-4.24 10.33-5.54 7.04-2.49 14.34-3.66 21.73-2.89 2.02.23 3.5 2.04 3.28 4.07-.2 1.87-1.75 3.26-3.58 3.31z"/><path fill="#676767" d="M205.253 90.612s32.268 6.8 32.914 17.534c.64 10.733-21.797 21.98-34.445 22.74 0 .002 17.03-16.403 1.53-40.274z"/><path fill="#B3B3B3" d="M205.403 94.293c6.01.163 12.098 2.05 17.38 4.79 2.614 1.373 5.028 3.05 6.74 4.865 1.786 1.84 2.438 3.706 2.214 4.587-.152.868-.924 2.31-2.674 3.89-1.693 1.553-4.002 3-6.473 4.19-4.924 2.35-10.914 3.87-15.55 3.696-5.11-.18-9.388 3.8-9.57 8.91-.175 5.11 3.806 9.39 8.9 9.56.468.02.917.01 1.358-.04l.41-.05c4.418-.51 8.258-1.67 11.934-3.12 3.666-1.47 7.115-3.25 10.416-5.43 3.283-2.21 6.436-4.77 9.232-8.21 1.373-1.73 2.668-3.7 3.633-6.07.465-1.21.877-2.47 1.086-3.85.12-.6.2-1.49.22-2.36.03-1.09-.04-.62-.07-1.86-.3-2.87-1.41-5.48-2.79-7.52-1.39-2.04-3.01-3.6-4.66-4.92-3.33-2.59-6.82-4.24-10.34-5.54-7.02-2.46-14.32-3.63-21.71-2.86-2.03.22-3.51 2.04-3.29 4.07.19 1.87 1.75 3.26 3.58 3.3z"/><path fill="#fff" d="M221.546 127.996c0 42.02-41.777 76.085-93.318 76.085-51.55 0-93.336-34.06-93.336-76.08 0-42.01 41.787-76.07 93.336-76.07 51.54 0 93.318 34.06 93.318 76.08z"/><path fill="#B3B3B3" d="M203.642 140.137c0 34.762-33.865 62.944-75.643 62.944s-75.65-28.18-75.65-62.94S86.22 77.2 127.99 77.2c41.776 0 75.642 28.18 75.642 62.946z"/><path fill="#999898" d="M128 205.99c-43.312 0-78.552-29.544-78.552-65.854 0-36.313 35.24-65.857 78.55-65.857 43.315 0 78.554 29.54 78.554 65.85 0 36.31-35.24 65.85-78.553 65.85zm0-125.895c-40.108 0-72.735 26.936-72.735 60.042 0 33.103 32.627 60.035 72.734 60.035s72.73-26.933 72.73-60.035c0-33.107-32.63-60.042-72.74-60.042z"/><path fill="#333" d="M128.12 164.717c-3.216 0-7.5-2.602-7.5-5.813V141.45c0-3.217 4.284-5.816 7.5-5.816s7.5 2.6 7.5 5.816v17.454c0 3.21-4.284 5.813-7.5 5.813z"/><path fill="#2974A7" d="M139.52 142.216c0 3.863-5.157 6.994-11.52 6.994-6.354 0-11.52-3.13-11.52-6.994 0-3.862 5.166-6.992 11.52-6.992 6.362 0 11.52 3.13 11.52 6.992z"/><path fill="#333" d="M87.808 155.39c-4.666 0-9.375-1.867-14.06-5.584-1.894-1.5-2.204-4.244-.712-6.13 1.512-1.893 4.256-2.197 6.13-.71 4.087 3.243 7.75 4.335 11.22 3.316 7.848-2.288 13.65-14.61 15.227-19.167.79-2.276 3.28-3.49 5.55-2.697 2.278.79 3.48 3.273 2.696 5.548-.74 2.116-7.53 20.754-21.03 24.698-1.67.48-3.35.726-5.03.726zm80.382 0c-1.68 0-3.354-.246-5.02-.726-13.51-3.944-20.3-22.582-21.03-24.698-.783-2.274.422-4.753 2.69-5.543 2.284-.788 4.76.41 5.556 2.688 1.588 4.57 7.428 16.91 15.238 19.18 3.477 1.01 7.13-.08 11.21-3.32 1.884-1.49 4.63-1.18 6.128.71 1.494 1.89 1.182 4.63-.71 6.13-4.688 3.72-9.397 5.59-14.06 5.59z"/><path fill="#fff" d="M186.813 137.097s-12.602 25.684-2.42 29.564c10.18 3.88 15.02-10.16 2.42-29.56zm-29.085-52.354s-12.6 25.682-2.418 29.563c10.175 3.882 15.017-10.163 2.418-29.563zm-87.26 23.27s-12.598 25.68-2.42 29.562c10.18 3.88 15.02-10.163 2.42-29.563z"/><path fill="#C1272D" d="M85.11 175.813s.275-.304.787-.86c.764-.84 1.613-1.633 2.623-2.56 2.102-1.802 5.063-4.248 9.03-6.42 1.964-1.136 4.194-2.172 6.585-3.153 2.426-.914 5.006-1.826 7.773-2.385 2.734-.763 5.617-.947 8.53-1.296 2.888-.09 5.868-.16 8.728.12 2.813.41 5.775.56 8.373 1.34 2.61.72 5.36 1.21 7.64 2.21 2.34.91 4.68 1.73 6.74 2.68 1.98 1.02 3.87 1.99 5.6 2.88 3.52 1.75 5.93 3.67 7.85 4.81 1.84 1.21 2.9 1.9 2.9 1.9 6.22 4.08 7.96 12.43 3.88 18.66-3.99 6.07-12.04 7.88-18.2 4.17l-1.14-.69-2.23-1.35c-1.44-.77-3.41-2.3-5.89-3.38-1.22-.59-2.55-1.24-3.96-1.91-1.41-.59-2.89-1.01-4.41-1.59-1.53-.67-3.08-.75-4.64-1.2-1.58-.51-3.1-.35-4.65-.62-1.52-.11-2.99.03-4.44.06-1.38.29-2.81.31-4.05.77-1.3.27-2.47.78-3.59 1.22-1.09.5-2.13 1-3.01 1.56-1.83 1.04-3.09 2.24-3.9 2.95-.26.25-.45.45-.58.58.06-.1-.35.41-.29.32-5.22 6.11-14.4 6.83-20.5 1.61s-6.83-14.4-1.61-20.5z"/></svg>