<svg xmlns="http://www.w3.org/2000/svg" width="256" height="256" viewBox="0 0 256 256"><path fill="#fff" d="M128.226 208.08c-24.223 0-47.43-7.354-65.35-20.71-17.312-12.905-28.33-30.337-31.218-49.3-2.96-1.348-5.71-2.867-8.353-4.616-4.208-2.827-7.418-5.688-10.126-9.02-1.88-2.36-3.26-4.667-4.24-7.085-.48-1.24-1.03-2.82-1.32-4.66-.21-1.08-.27-2.32-.29-2.97-.02-.72-.01-1.02.03-1.43.01-.11.02-.26.03-.64v-.15l.01-.15c.43-4.17 2.12-7.39 3.46-9.36 1.44-2.11 3.23-4.01 5.47-5.8 3.23-2.53 6.86-4.48 11.44-6.17 6.31-2.21 12.52-3.32 18.53-3.32.52 0 1.04.01 1.57.02 18.19-21.84 48.04-34.81 80.32-34.81 32.27 0 62.11 12.97 80.3 34.8.38-.01.76-.02 1.14-.02 6 0 12.21 1.11 18.46 3.3 4.64 1.72 8.27 3.67 11.47 6.17 2.28 1.83 4.07 3.72 5.5 5.82 1.34 1.97 3.04 5.2 3.46 9.36l.01.15.01.15c.01.38.02.53.03.64.04.41.05.7.03 1.44-.02.79-.09 1.95-.29 2.95-.29 1.83-.84 3.41-1.29 4.58-1.01 2.49-2.39 4.8-4.24 7.13-2.74 3.36-5.95 6.22-10.13 9.04-2.51 1.66-5.11 3.11-7.91 4.41-2.83 19.01-13.83 36.5-31.16 49.45-17.93 13.4-41.16 20.77-65.43 20.77zM28.362 108.044c.214.328.607.826 1.257 1.412.85.79 1.97 1.59 3.26 2.352.82-3.287 1.88-6.52 3.19-9.686-.35.167-.69.338-1.03.515-2.35 1.237-4.37 2.68-5.67 4.055-.54.555-.86 1.034-1.03 1.353zm192.106-5.653c1.23 3.01 2.24 6.08 3.027 9.19 1.124-.69 2.103-1.4 2.86-2.1.668-.6 1.068-1.1 1.283-1.43-.168-.31-.476-.78-.984-1.3-1.338-1.42-3.356-2.86-5.73-4.11-.152-.08-.304-.15-.456-.23z"/><path fill="#333" d="M128.226 51.92c32.92 0 61.854 13.896 78.467 34.884.995-.066 1.987-.1 2.98-.1 5.826 0 11.57 1.125 17.14 3.077 3.518 1.3 7.012 2.95 10.336 5.55 1.65 1.32 3.27 2.88 4.66 4.92 1.39 2.04 2.49 4.65 2.79 7.52.03 1.24.1.77.06 1.86-.03.88-.1 1.76-.23 2.37-.21 1.38-.62 2.64-1.09 3.85-.97 2.37-2.26 4.34-3.64 6.08-2.8 3.44-5.95 6-9.23 8.21-2.98 1.97-6.09 3.6-9.36 4.98-4.4 38.69-44.31 68.98-92.91 68.98-48.53 0-88.4-30.19-92.91-68.78-3.44-1.42-6.69-3.12-9.81-5.18-3.28-2.2-6.44-4.77-9.23-8.2-1.38-1.73-2.67-3.7-3.64-6.07-.47-1.21-.88-2.47-1.09-3.85-.13-.6-.21-1.48-.23-2.36-.03-1.09.03-.62.06-1.86.3-2.87 1.4-5.48 2.79-7.51 1.39-2.04 3.01-3.6 4.67-4.92 3.32-2.6 6.81-4.25 10.33-5.55 5.56-1.95 11.31-3.07 17.14-3.07 1.13 0 2.26.04 3.39.13 16.62-21.01 45.57-34.92 78.51-34.92m-92.47 65.71c1.33-7.96 4.17-15.53 8.28-22.51-3.78.83-7.47 2.22-10.82 3.96-2.61 1.38-5.03 3.05-6.74 4.87-1.79 1.84-2.44 3.71-2.22 4.59.16.87.93 2.31 2.68 3.89 1.69 1.55 4 3 6.47 4.19.76.36 1.55.7 2.35 1.02m184.9-.15c.66-.27 1.3-.56 1.93-.86 2.47-1.19 4.78-2.64 6.47-4.19 1.75-1.58 2.52-3.02 2.67-3.89.22-.88-.43-2.75-2.22-4.59-1.71-1.81-4.13-3.49-6.74-4.86-3.21-1.66-6.71-3-10.31-3.84 4.04 6.9 6.84 14.38 8.18 22.24m-92.4-73.59c-32.74 0-63.11 12.93-82.15 34.78-6.38.03-12.95 1.22-19.54 3.53l-.07.03-.06.03c-4.98 1.84-8.94 3.98-12.48 6.75l-.03.03-.03.03c-2.56 2.05-4.62 4.23-6.28 6.67-2.3 3.38-3.73 7.25-4.14 11.21l-.03.3-.01.31c0 .15-.01.25-.01.32-.07.67-.08 1.15-.05 2 .02.89.1 2.25.35 3.52.35 2.18.99 3.99 1.5 5.33l.03.07.03.07c1.13 2.78 2.69 5.41 4.78 8.03l.03.04.03.04c2.96 3.65 6.45 6.76 10.97 9.8l.02.02.02.02c2.23 1.48 4.53 2.8 6.96 4 3.52 19.19 14.9 36.73 32.42 49.79 18.61 13.87 42.66 21.51 67.74 21.51 25.12 0 49.21-7.66 67.83-21.57 17.55-13.12 28.91-30.72 32.37-49.97 2.26-1.13 4.4-2.38 6.48-3.75l.03-.02.03-.02c4.51-3.03 8-6.15 10.96-9.79l.03-.04.03-.04c2.08-2.63 3.65-5.25 4.77-8.02l.03-.08.03-.08c.52-1.34 1.15-3.15 1.5-5.32.24-1.25.32-2.61.35-3.54.02-.83.01-1.31-.05-1.94-.01-.11-.01-.21-.02-.36l-.01-.3-.03-.29c-.4-3.95-1.83-7.83-4.13-11.2-1.66-2.43-3.72-4.61-6.28-6.66l-.04-.03-.04-.03c-3.54-2.76-7.51-4.91-12.49-6.75l-.06-.02-.07-.02c-6.44-2.25-12.86-3.44-19.09-3.52C191.31 56.93 160.94 44 128.2 44zM20.1 108.43c-.023.64-.06.926-.08 1.156.035.145.053.47.09.72.15.913.33 1.536.666 2.406.47 1.147 1.23 2.4 2.327 3.783 1.852 2.278 4.11 4.267 7.26 6.385 2.465 1.63 5.2 3.07 8.31 4.358l4.733 1.96.6 5.09c3.99 34.25 40.987 61.073 84.21 61.073 43.323 0 80.317-26.9 84.214-61.25l.58-5.06 4.69-1.99c3.007-1.27 5.61-2.65 7.96-4.21 3.11-2.09 5.37-4.08 7.28-6.44 1.038-1.3 1.798-2.55 2.33-3.86.275-.71.455-1.33.53-1.87.11-.63.13-.95.14-1.28-.01-.08-.033-.34-.06-.98-.155-1.11-.61-2.25-1.292-3.27-.718-1.04-1.638-2-2.894-3-2.093-1.64-4.554-2.95-7.903-4.18-5.52-1.93-11.09-2.79-16.55-2.4l-4.58.31-2.85-3.6c-15.67-19.81-42.43-31.63-71.59-31.63-29.17 0-55.93 11.83-71.6 31.64l-2.88 3.65-4.63-.36c-5.55-.43-11.2.4-17.03 2.45-3.22 1.18-5.68 2.49-7.84 4.18-1.19.95-2.11 1.91-2.83 2.97-.67 1-1.13 2.15-1.29 3.26z"/><path fill="#676767" d="M50.744 90.612s-32.264 6.8-32.914 17.534c-.635 10.733 21.8 21.98 34.45 22.74 0 .002-17.03-16.403-1.536-40.274z"/><path fill="#B3B3B3" d="M50.6 94.293c-6.013.163-12.103 2.05-17.386 4.79-2.61 1.373-5.027 3.05-6.736 4.865-1.79 1.84-2.436 3.706-2.217 4.587.16.868.93 2.31 2.68 3.89 1.69 1.553 4 3 6.47 4.19 4.93 2.35 10.91 3.87 15.56 3.696 5.11-.18 9.39 3.8 9.57 8.91.18 5.11-3.8 9.39-8.9 9.56-.46.02-.91.01-1.36-.04l-.4-.05c-4.42-.51-8.26-1.67-11.94-3.12-3.66-1.47-7.11-3.25-10.41-5.43-3.28-2.21-6.43-4.77-9.23-8.21-1.37-1.73-2.67-3.7-3.63-6.07-.46-1.21-.87-2.47-1.08-3.85-.12-.6-.2-1.49-.22-2.36-.03-1.09.04-.62.07-1.86.3-2.87 1.4-5.48 2.79-7.52 1.39-2.04 3.01-3.6 4.67-4.92 3.32-2.59 6.81-4.24 10.33-5.54 7.02-2.46 14.32-3.63 21.71-2.86 2.03.22 3.51 2.04 3.28 4.07-.18 1.87-1.74 3.26-3.57 3.3z"/><path fill="#676767" d="M205.25 90.612s32.272 6.8 32.92 17.534c.632 10.733-21.8 21.98-34.45 22.74 0 .002 17.03-16.403 1.53-40.274z"/><path fill="#B3B3B3" d="M205.4 94.293c6.01.163 12.1 2.05 17.386 4.79 2.61 1.373 5.027 3.05 6.736 4.865 1.787 1.84 2.438 3.706 2.217 4.587-.16.868-.93 2.31-2.68 3.89-1.69 1.553-4 3-6.47 4.19-4.93 2.35-10.92 3.87-15.56 3.696-5.11-.18-9.39 3.8-9.57 8.91-.18 5.11 3.8 9.39 8.9 9.56.46.02.91.01 1.35-.04l.4-.05c4.42-.51 8.26-1.67 11.93-3.12 3.66-1.47 7.11-3.25 10.42-5.43 3.28-2.21 6.43-4.77 9.23-8.21 1.37-1.73 2.67-3.7 3.63-6.07.46-1.21.87-2.47 1.08-3.85.12-.6.2-1.49.22-2.36.03-1.09-.04-.62-.07-1.86-.3-2.87-1.4-5.48-2.79-7.52-1.39-2.04-3.02-3.6-4.67-4.92-3.32-2.59-6.82-4.24-10.33-5.54-7.02-2.46-14.31-3.63-21.7-2.86-2.03.22-3.51 2.04-3.28 4.07.19 1.87 1.74 3.26 3.57 3.3z"/><path fill="#fff" d="M221.546 127.996c0 42.02-41.777 76.085-93.32 76.085-51.546 0-93.335-34.06-93.335-76.08 0-42.01 41.79-76.07 93.34-76.07 51.55 0 93.32 34.06 93.32 76.08z"/><path fill="#B3B3B3" d="M203.644 135.318c0 34.763-33.87 62.943-75.646 62.943-41.773 0-75.64-28.18-75.64-62.94s33.866-62.94 75.64-62.94c41.776 0 75.646 28.18 75.646 62.95z"/><path fill="#999898" d="M127.997 201.172c-43.313 0-78.55-29.54-78.55-65.854 0-36.31 35.237-65.855 78.55-65.855 43.314 0 78.555 29.545 78.555 65.855 0 36.313-35.24 65.854-78.555 65.854zm0-125.893c-40.105 0-72.73 26.93-72.73 60.03s32.625 60.03 72.73 60.03 72.738-26.93 72.738-60.04-32.632-60.04-72.738-60.04z"/><path fill="#333" d="M127.62 176.35c-3.216 0-6-2.6-6-5.816V141.45c0-3.217 2.784-5.816 6-5.816s6 2.6 6 5.816v29.084c0 3.215-2.786 5.817-6 5.817z"/><path fill="#2974A7" d="M139.52 142.216c0 3.863-5.156 6.994-11.52 6.994-6.357 0-11.52-3.13-11.52-6.994 0-3.862 5.162-6.992 11.52-6.992 6.363 0 11.52 3.13 11.52 6.992z"/><path fill="#C1272D" d="M93.882 160.646c.11-.035.625-.035 2.83-.41 1-.163 2.21-.362 3.596-.592 1.264-.135 2.67-.295 4.193-.522 3.06-.392 6.56-.63 10.31-1.02 1.88-.088 3.83-.11 5.79-.273 1.97-.21 3.98-.2 6-.11 2.02.02 4.04.03 6.03.05 2-.09 3.96.26 5.87.4 1.91.21 3.78.3 5.55.45 1.8.08 3.45.36 4.99.67 6.15 1.12 10.6 1.55 10.6 1.55 8.77.85 15.2 8.66 14.35 17.44-.85 8.78-8.66 15.2-17.44 14.34-3.23-.32-6.15-1.57-8.5-3.48l-.27-.23s-2.22-1.8-6.06-4.02c-.96-.58-2-1.22-3.22-1.51-1.19-.39-2.46-.86-3.8-1.22-1.34-.32-2.69-.98-4.17-1.02-1.46-.16-2.95-.31-4.44-.46-2.98-.41-6.02.12-8.83.31-1.4.15-2.72.56-3.98.85-1.26.28-2.45.56-3.47 1.02-2.14.77-3.75 1.57-4.52 2.15l-1.73 1.14c-6.42 4.21-15.04 2.42-19.26-4-4.21-6.42-2.42-15.04 4-19.26 1.13-.74 2.33-1.29 3.56-1.68l2.07-.61z"/><path fill="#333" d="M87.81 149.572c-4.665 0-9.376-1.868-14.062-5.583-1.893-1.5-2.203-4.25-.71-6.14 1.505-1.89 4.257-2.2 6.132-.71 4.088 3.24 7.74 4.32 11.217 3.31 7.846-2.29 13.652-14.62 15.225-19.17.787-2.28 3.27-3.5 5.55-2.7 2.278.79 3.485 3.27 2.698 5.55-.732 2.11-7.52 20.75-21.03 24.69-1.664.48-3.342.72-5.02.72zm80.38 0c-1.68 0-3.354-.244-5.02-.725-13.51-3.944-20.298-22.582-21.03-24.697-.785-2.28.42-4.755 2.693-5.546 2.283-.787 4.754.41 5.553 2.687 1.586 4.57 7.428 16.91 15.236 19.19 3.482 1.01 7.127-.08 11.21-3.32 1.88-1.49 4.632-1.18 6.128.71 1.496 1.89 1.184 4.64-.71 6.14-4.686 3.72-9.395 5.59-14.06 5.59z"/></svg>