<svg xmlns="http://www.w3.org/2000/svg" width="256" height="256" viewBox="0 0 256 256"><path fill="#fff" d="M128.23 208.08c-24.226 0-47.435-7.354-65.352-20.71-17.312-12.904-28.328-30.338-31.218-49.3-2.966-1.35-5.717-2.87-8.357-4.616-4.21-2.83-7.42-5.692-10.125-9.02-1.87-2.355-3.248-4.66-4.236-7.083-.48-1.25-1.03-2.82-1.32-4.66-.21-1.08-.27-2.31-.286-2.96-.023-.71-.01-1.02.033-1.43.01-.11.02-.25.03-.63v-.15l.01-.15c.43-4.15 2.12-7.38 3.46-9.35 1.44-2.12 3.23-4.01 5.47-5.8 3.23-2.52 6.86-4.48 11.44-6.17 6.31-2.21 12.52-3.32 18.52-3.32.52 0 1.05.01 1.57.03 18.2-21.84 48.05-34.82 80.34-34.82 32.27 0 62.11 12.97 80.3 34.8.38-.01.76-.01 1.14-.01 6 0 12.22 1.11 18.46 3.3 4.65 1.72 8.27 3.67 11.47 6.17 2.27 1.82 4.06 3.71 5.5 5.82 1.34 1.98 3.03 5.21 3.46 9.36l.02.16v.15c.01.38.02.53.03.64.04.41.05.72.03 1.45-.02.65-.08 1.88-.29 2.95-.29 1.84-.84 3.41-1.29 4.58-1.03 2.5-2.4 4.81-4.24 7.13-2.74 3.36-5.95 6.23-10.14 9.04-2.51 1.66-5.11 3.11-7.91 4.41-2.83 19.02-13.83 36.51-31.16 49.46-17.93 13.4-41.17 20.78-65.43 20.78z"/><path fill="#333" d="M128.23 51.92c32.917 0 61.852 13.895 78.465 34.883.994-.066 1.985-.1 2.976-.1 5.83 0 11.58 1.125 17.15 3.077 3.52 1.3 7.01 2.95 10.34 5.545 1.65 1.32 3.27 2.882 4.67 4.92 1.39 2.038 2.49 4.65 2.79 7.518.03 1.24.1.772.07 1.86-.02.877-.1 1.76-.23 2.365-.21 1.382-.62 2.64-1.08 3.852-.97 2.37-2.26 4.338-3.64 6.07-2.79 3.438-5.94 6.002-9.23 8.208-2.97 1.97-6.08 3.6-9.35 4.98-4.39 38.69-44.31 68.982-92.91 68.982-48.53 0-88.39-30.188-92.9-68.782-3.44-1.422-6.69-3.117-9.81-5.18-3.28-2.207-6.43-4.772-9.23-8.208-1.37-1.733-2.67-3.702-3.63-6.07-.47-1.213-.88-2.47-1.08-3.853-.12-.604-.2-1.488-.22-2.364-.03-1.09.04-.62.07-1.86.29-2.87 1.4-5.48 2.79-7.518 1.4-2.04 3.02-3.602 4.67-4.92 3.33-2.596 6.82-4.247 10.34-5.546 5.57-1.96 11.31-3.08 17.14-3.08 1.13 0 2.26.04 3.4.13 16.61-21.01 45.56-34.92 78.5-34.92m0-8c-32.75 0-63.12 12.93-82.16 34.79-6.38.03-12.95 1.21-19.54 3.52l-.06.02-.06.02c-4.98 1.84-8.94 3.99-12.48 6.75l-.04.03-.04.03c-2.56 2.04-4.61 4.22-6.28 6.65-1.61 2.37-3.63 6.22-4.14 11.21l-.03.3-.01.3-.01.3c-.07.67-.08 1.15-.06 2 .03.93.11 2.26.35 3.52.35 2.18.98 3.99 1.49 5.33l.03.08.04.08c1.14 2.77 2.7 5.4 4.78 8.02l.03.03.03.03c2.96 3.65 6.45 6.76 10.97 9.8l.03.02.03.02c2.23 1.48 4.53 2.8 6.96 4 3.52 19.19 14.9 36.72 32.43 49.79 18.6 13.86 42.66 21.5 67.74 21.5 25.12 0 49.21-7.67 67.82-21.58 17.54-13.12 28.91-30.72 32.37-49.97 2.26-1.14 4.4-2.38 6.48-3.75l.02-.02.02-.02c4.53-3.05 8.01-6.16 10.98-9.8l.03-.04.03-.04c2.08-2.62 3.64-5.24 4.78-8.02l.04-.08.04-.09c.51-1.33 1.14-3.13 1.49-5.3.24-1.27.33-2.62.35-3.56.03-.82.02-1.3-.05-1.94-.01-.09-.01-.19-.01-.33l-.01-.31-.03-.31c-.52-4.98-2.53-8.84-4.13-11.19-1.68-2.45-3.73-4.63-6.29-6.67l-.03-.03-.03-.02c-3.53-2.76-7.5-4.9-12.48-6.75l-.06-.02-.06-.03c-6.44-2.26-12.85-3.44-19.09-3.52-19.03-21.86-49.4-34.79-82.13-34.79z"/><path fill="#676767" d="M50.75 90.612s-32.272 6.8-32.917 17.534c-.637 10.733 21.797 21.98 34.45 22.74 0 .002-17.033-16.403-1.534-40.274z"/><path fill="#B3B3B3" d="M50.598 94.293c-6.01.163-12.098 2.05-17.383 4.79-2.613 1.373-5.027 3.05-6.736 4.865-1.8 1.84-2.44 3.706-2.22 4.587.15.868.92 2.31 2.67 3.89 1.69 1.553 4 3 6.47 4.19 4.92 2.35 10.91 3.87 15.55 3.696 5.1-.18 9.38 3.8 9.56 8.91.17 5.11-3.81 9.39-8.9 9.56-.47.02-.91.01-1.36-.04l-.41-.05c-4.42-.51-8.26-1.67-11.94-3.12-3.67-1.47-7.11-3.25-10.42-5.43-3.28-2.21-6.44-4.77-9.23-8.21-1.38-1.73-2.67-3.7-3.64-6.07-.47-1.21-.88-2.47-1.09-3.85-.13-.6-.21-1.49-.23-2.36-.04-1.09.03-.62.06-1.86.29-2.87 1.4-5.48 2.79-7.52 1.39-2.04 3.01-3.6 4.66-4.92 3.32-2.59 6.82-4.24 10.33-5.54 7.01-2.46 14.31-3.63 21.7-2.86 2.02.22 3.5 2.04 3.28 4.07-.2 1.87-1.75 3.26-3.58 3.3z"/><path fill="#676767" d="M205.255 90.612s32.268 6.8 32.916 17.534c.64 10.733-21.79 21.98-34.44 22.74 0 .002 17.03-16.403 1.54-40.274z"/><path fill="#B3B3B3" d="M205.4 94.293c6.013.163 12.1 2.05 17.386 4.79 2.615 1.373 5.027 3.05 6.736 4.865 1.79 1.84 2.436 3.706 2.217 4.587-.16.868-.93 2.31-2.68 3.89-1.7 1.553-4 3-6.47 4.19-4.93 2.35-10.92 3.87-15.56 3.696-5.11-.18-9.39 3.8-9.57 8.91-.18 5.11 3.8 9.39 8.9 9.56.46.02.91.01 1.35-.04l.41-.05c4.42-.51 8.26-1.67 11.93-3.12 3.66-1.47 7.11-3.25 10.41-5.43 3.28-2.21 6.44-4.77 9.23-8.21 1.37-1.73 2.67-3.7 3.64-6.07.46-1.21.87-2.47 1.08-3.85.12-.6.2-1.49.23-2.36.03-1.09-.04-.62-.07-1.86-.3-2.87-1.41-5.48-2.79-7.52-1.4-2.04-3.02-3.6-4.67-4.92-3.32-2.59-6.82-4.24-10.34-5.54-7.02-2.46-14.32-3.63-21.71-2.86-2.03.22-3.51 2.04-3.29 4.07.2 1.87 1.75 3.26 3.58 3.3z"/><path fill="#fff" d="M221.55 127.996c0 42.02-41.78 76.085-93.32 76.085-51.55 0-93.336-34.06-93.336-76.08 0-42.01 41.785-76.07 93.336-76.07 51.54 0 93.32 34.06 93.32 76.08z"/><path fill="#B3B3B3" d="M203.645 117.868c0 34.76-33.87 62.942-75.646 62.942-41.77 0-75.65-28.182-75.65-62.942 0-34.767 33.87-62.948 75.64-62.948s75.64 28.182 75.64 62.948z"/><path fill="#999898" d="M127.998 183.72c-43.31 0-78.55-29.54-78.55-65.852 0-36.313 35.24-65.857 78.55-65.857 43.316 0 78.555 29.55 78.555 65.86s-35.24 65.85-78.555 65.85zm0-125.892c-40.107 0-72.732 26.93-72.732 60.04 0 33.103 32.625 60.033 72.732 60.033 40.104 0 72.738-26.93 72.738-60.03 0-33.11-32.634-60.04-72.738-60.04z"/><path fill="#333" d="M128.12 129c-3.214 0-5.5-2.604-5.5-5.82V94.095c0-3.218 2.286-5.82 5.5-5.82 3.216 0 5.5 2.603 5.5 5.82v29.085c0 3.216-2.284 5.82-5.5 5.82z"/><path fill="#2974A7" d="M139.52 94.86c0 3.864-5.155 6.994-11.52 6.994-6.355 0-11.52-3.13-11.52-6.994 0-3.86 5.164-6.993 11.52-6.993 6.364 0 11.52 3.132 11.52 6.993z"/><path fill="#C1272D" d="M75.907 116.977s.404-.165 1.166-.47c.477-.19 1.06-.416 1.754-.69.568-.202 1.215-.437 1.95-.7 2.913-1.04 6.907-2.323 11.74-3.56 9.647-2.505 22.714-4.84 36.316-4.857 3.39-.026 6.787.008 10.166.313 3.36.16 6.68.546 9.91 1.073 3.21.392 6.32 1.027 9.26 1.755 2.94.65 5.7 1.33 8.22 2.22 2.52.83 4.84 1.57 6.86 2.3 1.99.87 3.72 1.62 5.15 2.23l4.46 1.99c11.57 5.15 16.77 18.7 11.63 30.28-4.96 11.13-17.71 16.38-28.97 12.16l-2.56-.96s-.96-.36-2.64-1c-.83-.32-1.84-.72-3-1.18-1.21-.34-2.58-.72-4.07-1.14-1.46-.49-3.13-.8-4.91-1.1-1.76-.37-3.63-.7-5.64-.82-1.98-.26-4.04-.42-6.2-.41-2.11-.13-4.32-.04-6.53.07-8.82.34-17.9 2.33-24.42 4.31-3.27.97-5.9 1.95-7.58 2.63l-1.11.45c-.19.09-.35.17-.48.22-.45.21-.69.32-.69.32l-.39.17c-12.48 5.61-27.15.04-32.75-12.44-5.6-12.48-.03-27.14 12.45-32.74.25-.11.6-.26.86-.37z"/><path fill="#fff" d="M167.504 92.924s24.445 19.785 29.85 9.924c7.917-14.473-11.135-11.935-29.85-9.924zm-78.94-.18s-24.736 19.432-29.994 9.5c-7.725-14.587 11.305-11.778 29.994-9.5z"/><path fill="#333" d="M170.248 99.38h-27.994l5.568-8.637c7.127-11.395 12.428-20.483 12.48-20.573 1.596-2.79 5.14-3.675 7.943-2.08 2.783 1.6 3.746 4.237 2.145 7.026-.04.066-2.893 4.265-7.225 11.265h7.082c3.217 0 5.818 3.29 5.818 6.5 0 3.22-2.6 6.5-5.817 6.5zm-53.488 0H88.807c-3.217 0-5.816-3.28-5.816-6.5 0-3.215 2.6-6.5 5.82-6.5h7.05c-4.33-7-7.17-11.176-7.21-11.24-1.6-2.79-.62-5.868 2.17-7.464 2.79-1.607 6.35-.388 7.94 2.4.06.094 5.33 9.16 12.46 20.55l5.57 8.755z"/></svg>