<svg xmlns="http://www.w3.org/2000/svg" width="256" height="256" viewBox="0 0 256 256"><path fill="#fff" d="M128.195 208.08c-53.67 0-97.335-35.925-97.335-80.084 0-1.04.027-2.11.08-3.2-2.662-2.29-5.086-4.903-7.52-8.09-2.62-3.475-4.753-6.988-6.536-10.76-2.142-4.594-3.412-8.7-4.005-12.945-.39-2.97-.38-5.66.03-8.25.24-1.33.58-2.97 1.29-4.68.37-1.02.95-2.1 1.27-2.66.36-.65.53-.89.79-1.23.06-.09.15-.21.36-.52l.07-.12.08-.11c2.51-3.33 5.62-5.22 7.79-6.22 2.32-1.06 4.84-1.76 7.69-2.13 1.45-.17 2.9-.26 4.36-.26 2.69 0 5.43.29 8.62.89 4.77 1 9.2 2.48 13.24 4.41 18.25-15.39 43.49-24.17 69.71-24.17 26.81 0 52.44 9.12 70.78 25.11 3.43-1.58 7.15-2.86 11.1-3.8 3.61-.8 6.68-1.16 9.72-1.16 1.09 0 2.18.05 3.26.15 2.9.29 5.44.92 7.79 1.92 2.21.95 5.36 2.76 7.96 5.99l.09.11.08.12c.22.32.32.45.39.54.26.33.42.57.8 1.2.56.91 1.04 1.85 1.36 2.63.59 1.37 1.03 2.82 1.39 4.57.49 2.61.59 5.3.29 8.28-.47 4.28-1.62 8.43-3.63 13.09-1.65 3.78-3.68 7.36-6.22 10.93-2.55 3.54-5.09 6.39-7.9 8.86.01.53.02 1.06.02 1.57-.01 44.16-43.66 80.09-97.32 80.09zM211.97 87.204c2.246 3.12 4.23 6.36 5.938 9.7.23-.346.455-.694.67-1.042 1.293-2.09 2.253-4.2 2.706-5.934.237-.873.3-1.516.302-1.91-.31-.173-.814-.397-1.516-.56-1.288-.317-2.822-.477-4.502-.477-.827 0-1.694.04-2.577.12-.34.04-.68.07-1.02.11zm-177.62-.39c.013.385.092 1.014.347 1.854.512 1.75 1.533 3.833 2.888 5.906.376.57.778 1.14 1.2 1.702 1.882-3.59 4.085-7.063 6.594-10.395-.83-.1-1.67-.18-2.5-.23-.56-.03-1.16-.05-1.74-.05-2 0-3.81.21-5.22.6-.75.2-1.27.44-1.57.62z"/><path fill="#333" d="M128.195 51.92c27.95 0 53.023 10.02 70.125 25.887 3.98-2.1 8.25-3.633 12.695-4.7 2.797-.62 5.693-1.055 8.785-1.055.948 0 1.914.04 2.9.13 2.102.21 4.316.647 6.59 1.613 2.253.97 4.603 2.562 6.41 4.813.708 1.02.497.59 1.064 1.533.455.75.86 1.53 1.092 2.11.562 1.28.904 2.56 1.164 3.83.476 2.52.447 4.88.23 7.08-.484 4.4-1.76 8.26-3.325 11.9-1.577 3.62-3.526 6.99-5.805 10.2-2.313 3.22-4.914 6.27-8.354 9.09l-.28.23c-.022.02-.05.04-.073.06.06 1.12.098 2.25.098 3.38 0 42.02-41.77 76.09-93.31 76.09s-93.33-34.07-93.33-76.09c0-1.67.08-3.33.21-4.98-3.44-2.7-6.1-5.63-8.46-8.73-2.37-3.15-4.4-6.46-6.1-10.04-1.67-3.58-3.04-7.4-3.66-11.79-.28-2.19-.37-4.55.02-7.08.23-1.27.53-2.56 1.07-3.85.21-.58.6-1.38 1.03-2.14.53-.94.35-.51 1.03-1.56 1.74-2.3 4.03-3.96 6.27-4.99 2.25-1.02 4.44-1.52 6.54-1.8 1.32-.16 2.6-.23 3.85-.23 2.74 0 5.35.34 7.87.82 5.13 1.07 10.05 2.79 14.58 5.26 17.08-15.32 41.72-24.95 69.12-24.95m-88.39 51.56c3.04-7.29 7.41-14.07 12.85-20.18-3.12-.9-6.35-1.44-9.52-1.65-.67-.03-1.34-.05-2-.05-2.25 0-4.43.23-6.29.75-2.48.64-4 1.9-4.26 2.77-.32.82-.41 2.46.28 4.71.65 2.21 1.87 4.64 3.37 6.94 1.57 2.38 3.51 4.71 5.58 6.72m177.15.99c1.88-1.98 3.62-4.23 5.03-6.51 1.44-2.33 2.59-4.81 3.17-7.02.62-2.27.48-3.91.15-4.71-.28-.86-1.85-2.09-4.34-2.66-1.61-.4-3.47-.58-5.39-.58-.96 0-1.94.04-2.91.13-2.61.25-5.26.74-7.85 1.45 5.18 6.06 9.3 12.75 12.16 19.92m-88.8-60.59c-26.23 0-51.53 8.51-70.32 23.5-3.68-1.56-7.61-2.78-11.74-3.64l-.07-.02-.07-.01c-3.44-.65-6.41-.96-9.37-.96-1.61 0-3.22.1-4.8.29h-.07c-3.25.43-6.14 1.23-8.83 2.46-3.72 1.71-6.95 4.29-9.33 7.46l-.17.23-.16.24c-.08.12-.13.2-.17.25-.42.56-.69.97-1.11 1.73-.43.77-1.05 1.95-1.5 3.15-.82 2.04-1.22 3.92-1.48 5.34l-.01.09-.01.09c-.46 2.96-.48 6.02-.05 9.33l.01.04.01.04c.65 4.65 2.03 9.11 4.34 14.06 1.92 4.06 4.19 7.8 6.96 11.48 2.18 2.85 4.35 5.27 6.66 7.43-.01.49-.01.98-.01 1.47 0 22.77 10.76 44.08 30.28 60 19.06 15.53 44.29 24.08 71.06 24.08 26.76 0 51.99-8.55 71.04-24.08 19.47-15.88 30.22-37.12 30.27-59.83 2.49-2.37 4.8-5.05 7.1-8.24l.02-.02.01-.02c2.69-3.8 4.86-7.6 6.61-11.63 2.19-5.06 3.43-9.57 3.94-14.21l.01-.04v-.04c.33-3.36.23-6.42-.33-9.36l-.01-.06-.01-.06c-.41-2.01-.92-3.7-1.62-5.31-.52-1.29-1.23-2.52-1.63-3.17-.44-.72-.69-1.1-1.07-1.59-.05-.06-.11-.15-.25-.35l-.16-.24-.18-.22c-3.11-3.87-6.87-6.03-9.48-7.15-2.76-1.17-5.67-1.9-8.95-2.23h-.08c-1.2-.11-2.42-.17-3.62-.17-3.34 0-6.68.39-10.52 1.24l-.07.01-.07.02c-3.31.8-6.49 1.81-9.48 3.04-18.91-15.6-44.63-24.45-71.47-24.45z"/><path fill="#676767" d="M62.522 83.464s-31.14-10.854-37.24-1.997c-6.09 8.853 7.295 30.076 17.736 37.27 0 0-6.103-22.848 19.504-35.273z"/><path fill="#B3B3B3" d="M60.493 86.54c-5.232-2.968-11.418-4.5-17.352-4.89-2.95-.167-5.88.02-8.29.69-2.48.642-4 1.91-4.25 2.776-.32.825-.41 2.458.28 4.714.65 2.205 1.87 4.637 3.37 6.932 3.01 4.558 7.35 8.953 11.41 11.202 4.47 2.483 6.07 8.106 3.59 12.568-2.48 4.458-8.11 6.067-12.56 3.582-.41-.22-.79-.47-1.14-.74l-.32-.25c-3.51-2.734-6.21-5.707-8.6-8.846-2.38-3.15-4.41-6.46-6.1-10.042-1.67-3.582-3.05-7.405-3.66-11.79-.28-2.19-.37-4.55.02-7.08.23-1.277.53-2.566 1.07-3.857.21-.59.59-1.38 1.02-2.15.53-.95.35-.51 1.03-1.56 1.74-2.31 4.03-3.97 6.27-4.99 2.25-1.03 4.44-1.53 6.54-1.8 4.19-.51 8.03-.11 11.71.59 7.27 1.52 14.13 4.29 20.06 8.77 1.63 1.23 1.95 3.55.71 5.18-1.13 1.5-3.18 1.88-4.77.98z"/><path fill="#676767" d="M193.332 85.47c-11.564-5.203 30.813-11.736 37.166-3.057 6.342 8.682-3.93 27.014-14.158 34.493 0 0 2.943-19.744-23.008-31.435z"/><path fill="#B3B3B3" d="M191.215 82.45c5.79-4.65 12.57-7.608 19.8-9.342 3.655-.81 7.48-1.307 11.69-.926 2.1.21 4.314.647 6.587 1.613 2.254.97 4.604 2.562 6.412 4.813.707 1.02.496.59 1.063 1.533.455.75.86 1.53 1.092 2.11.56 1.28.9 2.56 1.16 3.83.47 2.52.44 4.88.23 7.08-.49 4.4-1.76 8.26-3.33 11.9-1.58 3.62-3.53 6.99-5.81 10.2-2.32 3.22-4.92 6.27-8.36 9.09l-.28.23c-3.94 3.24-9.76 2.67-13-1.26-3.24-3.94-2.67-9.76 1.26-13 .36-.29.77-.58 1.14-.81 4-2.37 8.22-6.89 11.08-11.52 1.44-2.33 2.59-4.81 3.17-7.02.62-2.27.48-3.91.14-4.71-.29-.86-1.85-2.09-4.34-2.66-2.43-.6-5.37-.7-8.32-.45-5.92.56-12.06 2.27-17.2 5.38-1.75 1.07-4.02.51-5.08-1.23-.98-1.6-.58-3.66.84-4.8z"/><path fill="#fff" d="M221.512 127.996c0 42.02-41.773 76.085-93.316 76.085-51.546 0-93.335-34.06-93.335-76.08 0-42.01 41.79-76.07 93.34-76.07 51.54 0 93.32 34.06 93.32 76.08z"/><path fill="#B3B3B3" d="M201.508 125.84c0 34.273-33.87 62.073-75.646 62.073-41.77 0-75.643-27.8-75.643-62.073 0-34.29 33.87-62.088 75.64-62.088S201.5 91.55 201.5 125.84z"/><path fill="#999898" d="M125.862 190.82c-43.313 0-78.55-29.152-78.55-64.98 0-35.844 35.237-64.995 78.55-64.995 43.316 0 78.554 29.15 78.554 64.995 0 35.828-35.238 64.98-78.554 64.98zm0-124.158c-40.11 0-72.732 26.546-72.732 59.178 0 32.62 32.623 59.163 72.732 59.163 40.107 0 72.736-26.542 72.736-59.163 0-32.632-32.63-59.178-72.736-59.178zm24.078 62.718h-41.377L51 116.227c-.404 2.058-.646 4.29-.646 6.458 0 19.943 17.596 36.164 39.305 36.164 16.74 0 30.99-9.61 36.66-23.15 5.67 13.54 19.93 23.18 36.67 23.18 21.71 0 39.3-16.16 39.3-36.1 0-7.6-2.57-14.84-6.93-20.66l-45.43 27.25z"/><path fill="#fff" d="M199.225 117.68c0 19.498-15.8 35.296-35.297 35.296-19.502 0-35.295-15.8-35.295-35.297 0-19.49 15.793-35.3 35.295-35.3 19.496 0 35.297 15.8 35.297 35.29z"/><path fill="#2974A7" d="M184.188 122.122c0 11.226-9.102 20.334-20.34 20.334-11.23 0-20.332-9.108-20.332-20.334 0-11.236 9.104-20.337 20.332-20.337 11.238 0 20.34 9.1 20.34 20.337z"/><path fill="#fff" d="M160.74 116.25c0 3.83-3.1 6.93-6.938 6.93-3.823 0-6.932-3.1-6.932-6.93s3.106-6.933 6.932-6.933c3.84 0 6.938 3.1 6.938 6.932zm7.64 7.486c0 1.796-1.462 3.248-3.257 3.248-1.797 0-3.256-1.452-3.256-3.248 0-1.806 1.46-3.263 3.256-3.263 1.795 0 3.258 1.458 3.258 3.263z"/><path fill="#999898" d="M146.43 186.335c0 4.083-9.01 1.578-20.12 1.578-11.11 0-20.122 2.505-20.122-1.578 0-4.086 9.012-13.216 20.123-13.216 11.11 0 20.12 9.13 20.12 13.21z"/><path fill="#fff" d="M123.602 117.68c0 19.498-15.8 35.296-35.297 35.296-19.5 0-35.293-15.8-35.293-35.297 0-19.49 15.793-35.3 35.293-35.3 19.496 0 35.297 15.8 35.297 35.29z"/><path fill="#B3B3B3" d="M128.453 118.3c0-19.487 16.384-37.132 35.883-37.132 12.975 0 23.71 8.837 29.846 19.26l-64.746 26.124c-.636-2.65-.983-5.407-.983-8.25z"/><path fill="#999898" d="M128.682 122.29l62.963-25.603c1.295 1.67 2.44 3.456 3.424 5.344L129.9 128.3c-.576-1.94-.99-3.943-1.22-6.005z"/><path fill="#2974A7" d="M108.563 122.122c0 11.226-9.1 20.334-20.338 20.334-11.23 0-20.332-9.108-20.332-20.334 0-11.236 9.102-20.337 20.332-20.337 11.238 0 20.338 9.1 20.338 20.337z"/><path fill="#fff" d="M85.12 116.25c0 3.83-3.102 6.93-6.938 6.93-3.83 0-6.928-3.1-6.928-6.93s3.098-6.933 6.928-6.933c3.836 0 6.938 3.1 6.938 6.932zm7.638 7.486c0 1.796-1.463 3.248-3.26 3.248-1.8 0-3.258-1.452-3.258-3.248 0-1.806 1.46-3.263 3.258-3.263 1.797 0 3.26 1.458 3.26 3.263z"/><path fill="#999898" d="M120.102 78.8l-17.57 41.272 25.815 10.727 26.988-12.64-13.897-30.86s-13.098 13.55-21.336-8.51z"/><path fill="#333" d="M100.82 173.934c-2.16 0-4.233-1.203-5.233-3.27-1.406-2.894-.2-6.375 2.682-7.777 3.54-1.717 21.59-10.29 29.73-10.29 8.13 0 26.18 8.573 29.72 10.29 2.88 1.402 4.09 4.886 2.69 7.77-1.4 2.89-4.89 4.104-7.77 2.692-9.04-4.39-21.03-9.12-24.64-9.12-3.63 0-15.63 4.73-24.65 9.11-.83.39-1.69.58-2.54.58zM128 158.902c-3.213 0-5.5-2.604-5.5-5.818v-23.27c0-3.214 2.287-5.814 5.5-5.814s5.5 2.6 5.5 5.814v23.27c0 3.214-2.287 5.818-5.5 5.818z"/><path fill="#fff" d="M123.818 118.3c0 19.497-15.797 35.298-35.295 35.298-19.502 0-35.295-15.8-35.295-35.297 0-19.48 15.793-35.29 35.295-35.29 19.5 0 35.295 15.81 35.295 35.3z"/><path fill="#2974A7" d="M108.78 122.743c0 11.224-9.1 20.333-20.335 20.333-11.232 0-20.336-9.11-20.336-20.333 0-11.238 9.1-20.335 20.33-20.335 11.23 0 20.33 9.097 20.33 20.335z"/><path fill="#fff" d="M85.338 116.87c0 3.825-3.104 6.93-6.938 6.93-3.828 0-6.932-3.105-6.932-6.93 0-3.83 3.104-6.932 6.932-6.932 3.834 0 6.938 3.103 6.938 6.932zm7.64 7.485c0 1.797-1.466 3.252-3.263 3.252-1.795 0-3.254-1.455-3.254-3.252 0-1.802 1.46-3.258 3.26-3.258 1.8 0 3.26 1.457 3.26 3.258z"/><path fill="#2974A7" d="M139.52 130.582c0 3.86-5.157 6.993-11.52 6.993-6.358 0-11.52-3.132-11.52-6.993 0-3.863 5.162-6.993 11.52-6.993 6.362 0 11.52 3.13 11.52 6.99z"/></svg>