<svg xmlns="http://www.w3.org/2000/svg" width="256" height="256" viewBox="0 0 256 256"><path fill="#fff" d="M128.677 211.34c-40.182-.002-73.594-21.736-83.142-54.084-.294-.998-.57-2.032-.827-3.093-3.212-1.448-6.28-3.27-9.507-5.638-3.47-2.57-6.51-5.333-9.3-8.454-3.35-3.79-5.73-7.37-7.5-11.29-1.21-2.75-1.96-5.33-2.3-7.93-.14-1.31-.28-2.97-.09-4.85.08-1.07.33-2.28.48-2.91.17-.72.26-1 .4-1.39.04-.11.09-.25.2-.62l.05-.14.05-.13c1.47-3.91 3.92-6.6 5.72-8.17 1.95-1.68 4.16-3.06 6.77-4.21 3.78-1.63 7.79-2.6 12.64-3.07 1.77-.14 3.47-.21 5.13-.21 3.01 0 5.96.23 8.81.69 13.16-19.92 34.87-35.48 60.02-42.9 10.82-3.19 21.87-4.81 32.84-4.81 14.97 0 29.47 3.06 42.15 8.87 2.85-2.49 6.07-4.77 9.59-6.8 4.3-2.38 8.15-3.85 12.16-4.64 1.88-.36 3.59-.53 5.27-.53.92 0 1.85.06 2.75.16 2.38.28 5.92 1.12 9.34 3.49l.12.08.11.09c.3.24.44.34.53.41.35.25.57.43 1.13.94.77.7 1.5 1.46 2.03 2.12.95 1.14 1.79 2.41 2.64 4 1.22 2.37 2.07 4.92 2.62 7.86.76 4.22.83 8.52.22 13.57-.51 4.1-1.45 8.09-2.86 12.24-1.45 4.13-3.08 7.58-5.06 10.74.17.53.33 1.02.47 1.5 12.5 42.35-19.21 89.17-70.67 104.36-10.84 3.2-21.9 4.82-32.88 4.82zm-91.45-94.57c.124.368.378.95.86 1.687.986 1.53 2.557 3.24 4.44 4.838.522.442 1.068.875 1.632 1.295.78-3.976 1.91-7.93 3.38-11.835-.83.134-1.65.294-2.46.48-2.58.597-4.91 1.485-6.52 2.494-.67.39-1.09.77-1.34 1.04zm170.455-49.89c3.043 2.36 5.865 4.907 8.45 7.628.127-.402.244-.803.353-1.2.648-2.384.974-4.677.916-6.455-.02-.91-.14-1.547-.25-1.924-.27-.07-.66-.12-1.17-.12-.14 0-.28 0-.43.01-1.95.09-4.38.68-6.89 1.65-.32.13-.64.26-.96.4z"/><path fill="#333" d="M218.224 48.98c.743 0 1.507.04 2.29.13 2.44.29 5.14 1.154 7.512 2.8.97.78.646.428 1.453 1.173.65.587 1.25 1.217 1.64 1.71.9 1.067 1.59 2.19 2.2 3.342 1.16 2.272 1.81 4.545 2.22 6.72.78 4.36.65 8.418.18 12.35-.49 3.92-1.41 7.703-2.68 11.432-1.32 3.73-2.95 7.396-5.44 11.082l-.21.29-.06.08c.37 1.05.73 2.12 1.05 3.2 11.89 40.3-18.54 84.8-67.97 99.38-10.7 3.15-21.42 4.65-31.76 4.65-37.44 0-69.99-19.64-79.31-51.22-.48-1.61-.88-3.23-1.22-4.84-4.07-1.62-7.45-3.68-10.59-5.98-3.17-2.35-6.06-4.95-8.69-7.9-2.62-2.97-5.02-6.24-6.85-10.28-.89-2.03-1.65-4.27-1.98-6.8-.15-1.29-.22-2.61-.08-4 .03-.62.18-1.49.38-2.34.24-1.07.19-.59.54-1.79 1.01-2.7 2.74-4.94 4.6-6.57 1.86-1.62 3.83-2.72 5.75-3.57 3.88-1.68 7.67-2.39 11.41-2.75 1.58-.13 3.16-.2 4.73-.2 3.62 0 7.21.35 10.73 1.11 12.05-19.52 32.96-35.73 59.24-43.48 10.68-3.16 21.38-4.65 31.7-4.65 15.57 0 30.3 3.4 42.87 9.64 3.22-3.15 6.89-5.84 10.86-8.12 3.27-1.81 6.81-3.37 10.94-4.19 1.41-.27 2.9-.46 4.48-.46m-.86 33.05c1.24-2.44 2.27-5.09 2.98-7.68.72-2.65 1.13-5.35 1.05-7.64-.06-2.36-.65-3.89-1.2-4.57-.47-.68-2.04-1.35-4.22-1.35-.22 0-.45 0-.69.02-2.5.11-5.35.84-8.1 1.92-2.44.98-4.85 2.19-7.13 3.62 6.68 4.34 12.53 9.6 17.3 15.66M47.17 131.2c.854-7.85 3.12-15.595 6.614-22.99-3.26.02-6.51.41-9.6 1.11-2.89.667-5.64 1.68-7.76 3.004-2.2 1.317-3.3 2.963-3.3 3.873-.08.87.3 2.465 1.6 4.44 1.24 1.93 3.1 3.913 5.19 5.69 2.18 1.84 4.693 3.53 7.25 4.87m171.05-90.22c-1.93 0-3.89.19-5.98.59l-.03.006-.04.006c-4.427.88-8.64 2.48-13.256 5.04l-.053.03-.05.03c-2.96 1.7-5.72 3.58-8.25 5.61-12.63-5.38-26.854-8.21-41.486-8.21-11.36 0-22.78 1.67-33.97 4.97-25.16 7.42-47.02 22.75-60.8 42.44-2.26-.26-4.57-.39-6.9-.39-1.77 0-3.58.07-5.39.22h-.12c-5.28.51-9.66 1.58-13.8 3.36l-.04.02-.03.02c-2.99 1.32-5.52 2.9-7.76 4.84-3.09 2.7-5.46 6.08-6.85 9.8l-.11.27-.08.28c-.05.16-.07.26-.1.32-.23.64-.37 1.1-.56 1.92-.21.9-.47 2.22-.56 3.48-.22 2.25-.05 4.25.1 5.56l.01.07.01.08c.39 2.98 1.24 5.92 2.59 8.99l.01.04.02.03c1.94 4.29 4.53 8.19 8.13 12.27 3 3.36 6.24 6.3 9.93 9.03 2.88 2.11 5.65 3.82 8.49 5.24.12.48.26.95.39 1.41 5.07 17.18 16.31 31.69 32.5 41.94 15.5 9.82 34.33 15.01 54.47 15.01 11.36 0 22.81-1.68 34.01-4.98 25.67-7.58 47.45-22.92 61.32-43.21 14.19-20.74 18.48-44.16 12.11-65.96 1.71-2.97 3.16-6.19 4.47-9.9l.02-.04.01-.04c1.5-4.41 2.49-8.67 3.04-13.02.66-5.5.58-10.17-.24-14.76l-.01-.03v-.04c-.63-3.32-1.6-6.23-2.96-8.89l-.03-.05-.03-.05c-.97-1.83-1.95-3.32-3.08-4.67-.86-1.07-1.88-2.04-2.44-2.54-.62-.57-.98-.86-1.49-1.23-.06-.04-.15-.1-.34-.26l-.22-.18-.23-.16c-4.1-2.84-8.32-3.84-11.13-4.17-1.08-.13-2.16-.19-3.24-.19zm-189.07 74.077c-.18.585-.284.857-.36 1.067-.01.18-.08.5-.105.75-.09.91-.07 1.54.04 2.51.16 1.21.58 2.62 1.29 4.24 1.23 2.69 2.9 5.19 5.41 8.02 2.17 2.43 4.58 4.61 7.35 6.66 3.03 2.22 5.74 3.75 8.71 4.92l4.37 1.72 1.22 5.78c.2.98.4 1.97.68 2.94 7.94 26.91 36.45 44.97 70.94 44.97 9.76 0 19.62-1.44 29.28-4.29 44.74-13.2 72.59-52.92 62.07-88.55-.12-.42-.3-.84-.47-1.26l-2.16-5.97 3.03-3.78c1.72-2.56 3.09-5.36 4.37-9 1.1-3.23 1.85-6.4 2.26-9.62.45-3.75.42-6.76-.12-9.71-.32-1.66-.76-3.04-1.4-4.27-.38-.7-.73-1.25-1.1-1.7-.35-.42-.58-.65-.83-.86-.12-.11-.34-.26-.77-.6-.95-.62-2.14-1.03-3.38-1.18-1.26-.13-2.55-.06-4.12.23-2.64.53-5.24 1.53-8.34 3.26-3.21 1.85-6.27 4.16-8.96 6.8l-4.44 4.34-5.56-2.77c-19.56-9.73-44.76-11.44-68.24-4.51C96.74 71.96 77 86.44 65.63 104.9l-3.243 5.27-6.044-1.32c-4.103-.9-8.534-1.17-12.997-.8-3.404.33-6.12.98-8.66 2.07-1.38.61-2.51 1.3-3.48 2.14-.52.46-1.48 1.44-2.07 2.83z"/><path fill="#676767" d="M63.3 105.584s-32.937-1.6-36.284 8.62c-3.334 10.22 15.512 26.785 27.56 30.727 0 .01-12.314-20.18 8.723-39.34z"/><path fill="#B3B3B3" d="M62.22 109.105c-5.856-1.363-12.226-1.08-18.02.227-2.883.668-5.637 1.68-7.756 3.005-2.2 1.317-3.297 2.963-3.303 3.873-.07.874.31 2.468 1.61 4.44 1.25 1.932 3.1 3.916 5.2 5.693 4.17 3.522 9.58 6.51 14.11 7.516 4.99 1.12 8.12 6.06 7 11.03-1.12 4.98-6.06 8.11-11.03 6.99-.46-.1-.89-.23-1.3-.39l-.38-.15c-4.14-1.63-7.57-3.72-10.76-6.05-3.17-2.35-6.05-4.95-8.69-7.9-2.62-2.97-5.02-6.25-6.85-10.28-.89-2.03-1.65-4.27-1.98-6.8-.14-1.29-.22-2.61-.07-4 .04-.62.19-1.49.39-2.34.25-1.06.19-.59.54-1.79 1.02-2.7 2.74-4.94 4.6-6.56 1.87-1.62 3.83-2.72 5.76-3.57 3.88-1.68 7.68-2.39 11.41-2.75 7.41-.61 14.77.11 21.72 2.73 1.9.72 2.87 2.85 2.15 4.76-.66 1.75-2.52 2.71-4.31 2.28z"/><path fill="#676767" d="M189.33 70.484c-12.568-1.716 26.23-19.975 34.78-13.448 8.54 6.528 3.878 27.02-3.812 37.093 0-.01-2.767-19.78-30.968-23.65z"/><path fill="#B3B3B3" d="M186.443 68.195c4.232-6.1 9.904-10.863 16.352-14.572 3.27-1.812 6.807-3.368 10.943-4.19 2.076-.397 4.326-.605 6.775-.32 2.44.29 5.14 1.153 7.512 2.8.97.78.646.427 1.453 1.172.65.587 1.258 1.217 1.648 1.71.9 1.067 1.588 2.19 2.2 3.342 1.165 2.272 1.808 4.545 2.218 6.72.783 4.36.65 8.418.18 12.35-.492 3.92-1.408 7.703-2.678 11.432-1.314 3.72-2.945 7.39-5.44 11.08l-.204.29c-2.863 4.22-8.605 5.32-12.832 2.46-4.215-2.86-5.32-8.62-2.465-12.84.262-.38.58-.78.873-1.1 3.164-3.41 5.932-8.94 7.365-14.19.72-2.65 1.13-5.35 1.055-7.64-.053-2.36-.646-3.89-1.2-4.57-.517-.75-2.364-1.48-4.905-1.33-2.498.11-5.346.84-8.102 1.92-5.51 2.21-10.92 5.59-14.98 10.03-1.36 1.51-3.71 1.62-5.22.25-1.38-1.27-1.59-3.35-.54-4.85z"/><path fill="#fff" d="M228.396 103.296c11.89 40.305-18.535 84.798-67.967 99.387-49.45 14.59-99.17-6.256-111.06-46.56-11.89-40.3 18.55-84.793 67.99-99.384 49.43-14.59 99.14 6.26 111.03 46.55z"/><path fill="#B3B3B3" d="M208.594 106.893c9.705 32.876-14.916 69.12-54.986 80.94-40.058 11.82-80.412-5.247-90.11-38.13-9.706-32.886 14.91-69.13 54.976-80.952 40.063-11.82 80.417 5.25 90.12 38.15z"/><path fill="#999898" d="M128.025 194.492c-32.5 0-59.558-17.667-67.322-43.965-10.14-34.374 15.406-72.305 56.945-84.565 8.697-2.567 17.582-3.868 26.406-3.868 32.51 0 59.566 17.67 67.328 43.975 4.945 16.75 1.668 34.8-9.213 50.82-10.77 15.85-27.72 27.82-47.74 33.73-8.7 2.56-17.58 3.87-26.41 3.87zm16.03-126.582c-8.266 0-16.595 1.224-24.757 3.63-38.465 11.35-62.246 46.044-53.016 77.34 7.02 23.804 31.842 39.795 61.744 39.795 8.27 0 16.596-1.22 24.76-3.63 18.736-5.53 34.563-16.687 44.572-31.422 9.89-14.556 12.89-30.856 8.445-45.91-7.02-23.805-31.84-39.803-61.748-39.803z"/><path fill="#fff" d="M205.896 102.818c5.646 19.146-5.29 39.252-24.436 44.897-19.154 5.654-39.248-5.296-44.898-24.44-5.65-19.145 5.287-39.242 24.436-44.895 19.152-5.645 39.246 5.29 44.898 24.438zM133.36 124.22c5.653 19.15-5.288 39.248-24.428 44.902-19.152 5.644-39.252-5.296-44.902-24.446-5.65-19.144 5.287-39.237 24.44-44.888 19.148-5.656 39.247 5.287 44.89 24.43z"/><path fill="#2974A7" d="M121.172 126.125c3.756 12.713-3.508 26.06-16.223 29.81-12.73 3.756-26.07-3.516-29.82-16.225-3.76-12.72 3.5-26.07 16.22-29.818 12.71-3.755 26.06 3.518 29.81 16.233z"/><path fill="#fff" d="M92.672 127.31c1.277 4.333-1.2 8.88-5.533 10.163-4.35 1.277-8.9-1.194-10.18-5.534-1.28-4.33 1.2-8.88 5.53-10.17 4.34-1.28 8.89 1.2 10.17 5.53zm11.15 5.92c.603 2.027-.573 4.168-2.61 4.77-2.023.596-4.174-.562-4.77-2.595-.602-2.045.568-4.178 2.598-4.78 2.033-.595 4.18.56 4.783 2.604z"/><path fill="#2974A7" d="M193.703 104.72c3.752 12.71-3.51 26.06-16.23 29.814-12.71 3.75-26.055-3.517-29.81-16.227-3.75-12.715 3.51-26.063 16.23-29.82 12.712-3.748 26.056 3.516 29.81 16.234z"/><path fill="#fff" d="M165.205 105.904c1.277 4.338-1.2 8.885-5.54 10.163-4.337 1.28-8.886-1.192-10.163-5.528-1.28-4.34 1.197-8.89 5.53-10.17 4.34-1.28 8.894 1.19 10.173 5.52zm11.15 5.92c.6 2.03-.574 4.177-2.607 4.77-2.035.605-4.174-.562-4.777-2.59-.6-2.044.57-4.18 2.61-4.778 2.04-.6 4.18.56 4.78 2.598z"/><path fill="#333" d="M148.05 166.002c-1.757 0-3.415-1.068-4.08-2.806l-6.794-17.802c-.86-2.252.27-4.774 2.52-5.637 2.25-.84 4.778.27 5.636 2.52l6.793 17.806c.855 2.25-.27 4.77-2.52 5.636-.513.19-1.04.28-1.556.28z"/><path fill="#C1272D" d="M161.53 164.515c2.343 5.686-1.868 8.563-7.562 10.913-5.688 2.348-10.705 3.28-13.053-2.41-2.344-5.692.365-12.21 6.053-14.56 5.694-2.348 12.214.364 14.56 6.057z"/><path fill="#2974A7" d="M152.305 140.576c1.094 3.702-2.967 8.168-9.068 9.967-6.1 1.803-11.936.255-13.03-3.444-1.093-3.71 2.976-8.18 9.07-9.97 6.102-1.8 11.934-.26 13.028 3.44z"/></svg>