<svg xmlns="http://www.w3.org/2000/svg" width="256" height="256" viewBox="0 0 256 256"><path fill="#fff" d="M128.197 208.08c-53.672 0-97.338-35.925-97.338-80.084 0-1.04.02-2.11.08-3.2-2.66-2.29-5.09-4.903-7.52-8.09-2.63-3.484-4.77-6.998-6.54-10.762-2.14-4.58-3.41-8.688-4.01-12.943-.39-2.97-.38-5.66.03-8.25.23-1.31.57-2.95 1.28-4.68.34-.95.88-1.96 1.27-2.66.37-.65.53-.89.78-1.22.06-.09.15-.21.36-.53l.08-.13.09-.12c2.52-3.33 5.63-5.22 7.8-6.21 2.32-1.06 4.84-1.76 7.68-2.13 1.45-.17 2.91-.26 4.36-.26 2.7 0 5.44.28 8.62.89 4.77 1 9.2 2.47 13.25 4.4 18.26-15.4 43.5-24.17 69.72-24.17 26.81 0 52.43 9.12 70.78 25.11 3.43-1.58 7.15-2.85 11.1-3.8 3.6-.8 6.67-1.16 9.71-1.16 1.09 0 2.18.05 3.26.15 2.9.3 5.44.92 7.79 1.92 2.2.95 5.36 2.75 7.96 5.99l.09.11.08.11c.22.32.31.45.39.54.26.34.43.57.81 1.21.55.9 1.03 1.84 1.35 2.62.59 1.36 1.02 2.77 1.39 4.57.5 2.65.59 5.26.29 8.29-.47 4.28-1.63 8.43-3.63 13.08-1.67 3.81-3.7 7.37-6.22 10.94-2.54 3.53-5.07 6.37-7.89 8.86.01.54.02 1.06.02 1.58 0 44.16-43.66 80.09-97.33 80.09zm83.778-120.877c2.246 3.12 4.23 6.357 5.938 9.695.23-.345.454-.69.668-1.038 1.3-2.1 2.26-4.207 2.71-5.935.24-.874.3-1.517.3-1.91-.3-.174-.81-.397-1.51-.56-1.29-.317-2.82-.478-4.5-.478-.82 0-1.69.038-2.57.113-.34.035-.68.07-1.02.113zm-177.625-.39c.013.39.092 1.022.346 1.86.515 1.753 1.538 3.837 2.887 5.9.377.57.78 1.14 1.2 1.703 1.883-3.59 4.086-7.063 6.595-10.395-.83-.1-1.665-.18-2.504-.23-.56-.03-1.15-.05-1.736-.05-2 0-3.8.21-5.212.6-.748.2-1.265.44-1.576.62z"/><path fill="#333" d="M128.197 51.92c27.952 0 53.024 10.018 70.127 25.886 3.98-2.1 8.252-3.632 12.697-4.697 2.8-.62 5.7-1.06 8.79-1.06.95 0 1.92.04 2.9.13 2.11.21 4.32.64 6.59 1.61 2.26.97 4.61 2.56 6.41 4.81.71 1.02.5.59 1.07 1.53.46.74.86 1.52 1.09 2.1.57 1.28.91 2.55 1.17 3.82.48 2.51.45 4.87.23 7.08-.48 4.4-1.75 8.26-3.32 11.89-1.58 3.62-3.53 6.99-5.81 10.2-2.31 3.21-4.91 6.26-8.35 9.09l-.28.23c-.02.02-.05.03-.07.05.06 1.12.1 2.24.1 3.38 0 42.02-41.77 76.08-93.32 76.08-51.55 0-93.34-34.06-93.34-76.09 0-1.68.08-3.34.21-4.99-3.44-2.71-6.1-5.64-8.46-8.73-2.37-3.15-4.41-6.46-6.1-10.04-1.67-3.59-3.04-7.41-3.66-11.79-.28-2.2-.37-4.56.03-7.08.23-1.28.53-2.57 1.06-3.86.21-.59.6-1.38 1.03-2.14.54-.95.35-.52 1.02-1.56 1.74-2.31 4.04-3.97 6.28-4.99 2.25-1.03 4.45-1.53 6.54-1.8 1.31-.16 2.59-.23 3.84-.23 2.74 0 5.35.33 7.87.82 5.14 1.07 10.05 2.78 14.59 5.26 17.07-15.33 41.72-24.95 69.12-24.95m-88.4 51.57c3.04-7.29 7.4-14.08 12.85-20.18-3.12-.9-6.36-1.45-9.53-1.66-.67-.04-1.33-.06-2-.06-2.25 0-4.42.23-6.28.75-2.47.64-4 1.9-4.26 2.77-.31.82-.4 2.46.28 4.71.65 2.2 1.87 4.63 3.37 6.93 1.58 2.38 3.51 4.71 5.58 6.72m177.15.99c1.88-1.98 3.61-4.23 5.02-6.51 1.44-2.34 2.6-4.81 3.18-7.03.62-2.27.48-3.91.15-4.72-.28-.86-1.85-2.09-4.34-2.66-1.62-.4-3.47-.58-5.39-.58-.95 0-1.93.04-2.91.12-2.6.25-5.25.73-7.84 1.45 5.17 6.06 9.29 12.75 12.15 19.92m-88.77-60.54c-26.23 0-51.54 8.51-70.33 23.5-3.68-1.56-7.61-2.78-11.74-3.64l-.07-.02-.07-.02c-3.43-.66-6.41-.96-9.37-.96-1.61 0-3.22.09-4.8.28h-.07c-3.25.43-6.13 1.23-8.83 2.46-3.71 1.71-6.93 4.28-9.33 7.44l-.18.25-.16.26c-.08.13-.13.21-.17.27-.4.54-.66.94-1.08 1.68-.46.81-1.08 2-1.52 3.18-.84 2.06-1.23 3.94-1.49 5.36l-.01.07-.01.07c-.47 2.97-.48 6.03-.05 9.36l.01.04.01.03c.65 4.66 2.03 9.13 4.33 14.06 1.91 4.05 4.18 7.79 6.97 11.48 2.17 2.85 4.34 5.27 6.66 7.43-.01.49-.02.98-.02 1.47 0 22.77 10.75 44.08 30.28 60C76.27 203.45 101.51 212 128.28 212s52-8.55 71.05-24.08c19.475-15.88 30.22-37.12 30.274-59.833 2.51-2.38 4.82-5.06 7.11-8.245l.01-.02.017-.02c2.68-3.78 4.85-7.58 6.61-11.62 2.18-5.07 3.43-9.58 3.94-14.22v-.04l.01-.04c.33-3.37.23-6.435-.33-9.36l-.02-.07-.01-.066c-.26-1.29-.72-3.225-1.62-5.31-.53-1.3-1.24-2.53-1.63-3.16-.43-.71-.69-1.09-1.08-1.595-.05-.06-.11-.14-.24-.33l-.16-.23-.17-.22c-3.11-3.88-6.88-6.04-9.49-7.16-2.75-1.17-5.67-1.9-8.95-2.23h-.08c-1.19-.11-2.41-.16-3.62-.16-3.34 0-6.68.39-10.52 1.24l-.06.02-.06.02c-3.32.8-6.49 1.81-9.48 3.04-18.95-15.57-44.67-24.42-71.51-24.42z"/><path fill="#676767" d="M62.52 83.464S31.385 72.61 25.284 81.467c-6.092 8.853 7.29 30.076 17.732 37.27 0 0-6.1-22.848 19.502-35.273z"/><path fill="#B3B3B3" d="M60.492 86.54c-5.232-2.968-11.416-4.5-17.357-4.89-2.943-.167-5.877.02-8.283.69-2.48.642-4.002 1.91-4.264 2.776-.316.825-.402 2.458.28 4.714.647 2.205 1.866 4.637 3.368 6.932 3.006 4.558 7.344 8.953 11.406 11.202 4.467 2.483 6.068 8.106 3.584 12.568-2.482 4.458-8.105 6.067-12.56 3.582-.41-.22-.78-.47-1.136-.74l-.324-.25c-3.518-2.734-6.21-5.707-8.604-8.846-2.377-3.15-4.412-6.46-6.104-10.042-1.672-3.582-3.045-7.405-3.658-11.79-.285-2.19-.375-4.55.023-7.08.227-1.277.525-2.566 1.063-3.857.207-.59.596-1.38 1.025-2.15.54-.95.35-.51 1.03-1.56 1.74-2.31 4.04-3.97 6.28-4.99 2.25-1.03 4.45-1.53 6.54-1.8 4.19-.51 8.04-.11 11.72.59 7.28 1.52 14.14 4.29 20.06 8.77 1.63 1.23 1.95 3.55.71 5.18-1.13 1.5-3.18 1.88-4.77.98z"/><path fill="#676767" d="M193.336 85.47c-11.57-5.203 30.813-11.736 37.164-3.057 6.344 8.682-3.926 27.014-14.156 34.493 0 0 2.94-19.744-23.008-31.435z"/><path fill="#B3B3B3" d="M191.213 82.45c5.79-4.65 12.574-7.608 19.81-9.342 3.65-.81 7.48-1.307 11.684-.926 2.104.21 4.317.647 6.588 1.613 2.258.97 4.604 2.562 6.41 4.813.71 1.02.5.59 1.067 1.533.453.75.855 1.53 1.09 2.11.564 1.28.902 2.56 1.166 3.83.478 2.52.445 4.88.228 7.08-.485 4.4-1.758 8.26-3.32 11.9-1.585 3.62-3.532 6.99-5.81 10.2-2.31 3.22-4.917 6.27-8.352 9.09l-.278.23c-3.943 3.24-9.763 2.67-13.002-1.26-3.24-3.94-2.673-9.76 1.268-13 .357-.29.773-.58 1.146-.81 4-2.37 8.215-6.89 11.075-11.52 1.44-2.33 2.6-4.81 3.177-7.02.62-2.27.48-3.91.146-4.71-.285-.86-1.847-2.09-4.337-2.66-2.43-.6-5.37-.7-8.32-.45-5.92.56-12.06 2.27-17.21 5.38-1.74 1.07-4.02.51-5.08-1.23-.98-1.6-.58-3.66.84-4.8z"/><path fill="#fff" d="M221.518 127.996c0 42.02-41.772 76.085-93.32 76.085-51.548 0-93.337-34.06-93.337-76.08 0-42.01 41.79-76.07 93.34-76.07 51.55 0 93.32 34.06 93.32 76.08z"/><path fill="#B3B3B3" d="M201.512 125.84c0 34.273-33.87 62.073-75.65 62.073-41.772 0-75.64-27.8-75.64-62.073 0-34.29 33.867-62.088 75.64-62.088 41.78 0 75.65 27.797 75.65 62.088z"/><path fill="#999898" d="M125.86 190.82c-43.31 0-78.55-29.152-78.55-64.98 0-35.844 35.24-64.995 78.55-64.995 43.32 0 78.558 29.15 78.558 64.995 0 35.828-35.238 64.98-78.557 64.98zm0-124.158c-40.104 0-72.73 26.546-72.73 59.178 0 32.62 32.626 59.163 72.73 59.163 40.11 0 72.742-26.542 72.742-59.163 0-32.632-32.633-59.178-72.74-59.178zm24.08 62.718h-41.378l-57.564-13.154c-.398 2.058-.646 4.29-.646 6.458 0 19.944 17.6 36.164 39.307 36.164 16.74 0 31-9.6 36.66-23.14 5.67 13.54 19.92 23.18 36.67 23.18 21.7 0 39.3-16.16 39.3-36.1 0-7.597-2.57-14.84-6.93-20.658l-45.44 27.25z"/><path fill="#fff" d="M123.6 117.68c0 19.498-15.798 35.296-35.296 35.296-19.504 0-35.295-15.8-35.295-35.297 0-19.49 15.79-35.3 35.29-35.3s35.3 15.8 35.3 35.29z"/><path fill="#2974A7" d="M108.562 122.122c0 11.226-9.1 20.334-20.338 20.334-11.232 0-20.33-9.108-20.33-20.334 0-11.236 9.098-20.337 20.33-20.337 11.238 0 20.338 9.1 20.338 20.337z"/><path fill="#fff" d="M85.117 116.25c0 3.83-3.1 6.93-6.938 6.93-3.83 0-6.93-3.1-6.93-6.93s3.1-6.933 6.93-6.933c3.83 0 6.93 3.1 6.93 6.932zm7.643 7.486c0 1.796-1.466 3.248-3.26 3.248s-3.257-1.452-3.257-3.248c0-1.806 1.46-3.263 3.256-3.263s3.26 1.458 3.26 3.263zm106.47-6.056c0 19.498-15.798 35.296-35.3 35.296-19.5 0-35.295-15.8-35.295-35.297 0-19.49 15.795-35.3 35.295-35.3 19.502 0 35.3 15.8 35.3 35.29z"/><path fill="#2974A7" d="M184.19 122.122c0 11.226-9.105 20.334-20.337 20.334s-20.336-9.108-20.336-20.334c0-11.236 9.104-20.337 20.336-20.337s20.336 9.1 20.336 20.337z"/><path fill="#fff" d="M160.744 116.25c0 3.83-3.104 6.93-6.936 6.93-3.83 0-6.935-3.1-6.935-6.93s3.104-6.933 6.935-6.933c3.833 0 6.936 3.1 6.936 6.932zm7.64 7.486c0 1.796-1.466 3.248-3.263 3.248-1.79 0-3.25-1.452-3.25-3.248 0-1.806 1.46-3.263 3.25-3.263 1.8 0 3.27 1.458 3.27 3.263z"/><path fill="#333" d="M100.824 173.934c-2.158 0-4.232-1.203-5.24-3.27-1.404-2.894-.2-6.375 2.69-7.777 3.536-1.717 21.585-10.29 29.726-10.29 8.143 0 26.19 8.573 29.73 10.29 2.884 1.402 4.09 4.886 2.688 7.77-1.404 2.89-4.89 4.104-7.773 2.692-9.028-4.39-21.018-9.12-24.646-9.12-3.64 0-15.62 4.73-24.64 9.11-.83.39-1.69.58-2.54.58zm26.796-15.032c-3.214 0-7-2.604-7-5.818v-23.27c0-3.214 3.786-5.814 7-5.814s7 2.6 7 5.814v23.27c0 3.214-3.788 5.818-7 5.818z"/><path fill="#999898" d="M146.432 186.335c0 4.083-9.01 1.578-20.124 1.578-11.11 0-20.12 2.505-20.12-1.578 0-4.086 9.01-13.216 20.12-13.216 11.114 0 20.124 9.13 20.124 13.21z"/><path fill="#fff" d="M123.818 118.3c0 19.497-15.797 35.298-35.295 35.298-19.502 0-35.295-15.8-35.295-35.297 0-19.48 15.793-35.29 35.295-35.29 19.5 0 35.295 15.81 35.295 35.3z"/><path fill="#2974A7" d="M108.78 122.743c0 11.224-9.1 20.333-20.335 20.333-11.232 0-20.336-9.11-20.336-20.333 0-11.238 9.1-20.335 20.33-20.335 11.23 0 20.33 9.097 20.33 20.335z"/><path fill="#fff" d="M85.338 116.87c0 3.825-3.104 6.93-6.938 6.93-3.828 0-6.932-3.105-6.932-6.93 0-3.83 3.104-6.932 6.932-6.932 3.834 0 6.938 3.103 6.938 6.932zm7.64 7.485c0 1.797-1.466 3.252-3.263 3.252-1.795 0-3.254-1.455-3.254-3.252 0-1.802 1.46-3.258 3.26-3.258 1.8 0 3.26 1.457 3.26 3.258zM199.44 118.3c0 19.497-15.8 35.298-35.294 35.298-19.506 0-35.297-15.8-35.297-35.297 0-19.48 15.79-35.29 35.29-35.29s35.29 15.81 35.29 35.3z"/><path fill="#2974A7" d="M184.402 122.743c0 11.224-9.103 20.333-20.338 20.333-11.23 0-20.33-9.11-20.33-20.333 0-11.238 9.1-20.335 20.33-20.335 11.24 0 20.338 9.097 20.338 20.335z"/><path fill="#fff" d="M160.96 116.87c0 3.825-3.103 6.93-6.937 6.93-3.828 0-6.93-3.105-6.93-6.93 0-3.83 3.102-6.932 6.93-6.932 3.832 0 6.938 3.103 6.938 6.932zm7.644 7.485c0 1.797-1.47 3.252-3.266 3.252-1.793 0-3.254-1.455-3.254-3.252 0-1.802 1.46-3.258 3.254-3.258 1.797 0 3.266 1.457 3.266 3.258z"/><path fill="#B3B3B3" d="M123.818 118.3c0-19.487-15.65-37.132-35.148-37.132-12.974 0-24.445 8.837-30.58 19.26l64.747 26.124c.634-2.65.98-5.407.98-8.25z"/><path fill="#999898" d="M123.59 122.29L60.628 96.688c-1.295 1.67-2.442 3.456-3.425 5.344l65.17 26.264c.57-1.94.985-3.944 1.217-6.006z"/><path fill="#B3B3B3" d="M128.453 118.3c0-19.487 16.384-37.132 35.883-37.132 12.975 0 23.71 8.837 29.846 19.26l-64.746 26.124c-.636-2.65-.983-5.407-.983-8.25z"/><path fill="#999898" d="M128.682 122.29l62.963-25.603c1.295 1.67 2.44 3.456 3.424 5.344L129.9 128.3c-.576-1.94-.99-3.943-1.22-6.005zm-8.58-43.49l-17.57 41.272 25.815 10.727 26.988-12.64-13.897-30.86s-13.098 13.55-21.336-8.51zm5.758 112.02c-43.31 0-78.55-29.152-78.55-64.98 0-35.844 35.24-64.995 78.55-64.995 43.32 0 78.558 29.15 78.558 64.995 0 35.828-35.238 64.98-78.557 64.98zm0-124.158c-40.104 0-72.73 26.546-72.73 59.178 0 32.62 32.626 59.163 72.73 59.163 40.11 0 72.742-26.542 72.742-59.163 0-32.632-32.633-59.178-72.74-59.178z"/><path fill="#2974A7" d="M139.52 130.582c0 3.86-5.157 6.993-11.52 6.993-6.355 0-11.52-3.132-11.52-6.993 0-3.863 5.164-6.993 11.52-6.993 6.36 0 11.52 3.13 11.52 6.99z"/></svg>