<svg xmlns="http://www.w3.org/2000/svg" width="256" height="256" viewBox="0 0 256 256"><path fill="#0071BC" d="M129.06 222.246c-8.54 0-17.03-.915-25.24-2.72-22.568-4.43-43.138-15.26-57.83-30.48-15.07-15.61-23.37-35.29-23.37-55.416 0-1.796.07-3.61.212-5.545l.274-3.705H34.13c2.112-7.7 5.573-15.03 10.326-21.875-2.077-1.342-4.01-2.906-5.782-4.677-12.87-12.874-14.403-55.182-14.536-59.963l-.117-4.226 4.23.11c4.78.13 47.1 1.66 59.97 14.53 4.96 4.95 8.28 11.21 9.61 18 10.04-2.8 20.53-4.21 31.25-4.21 10.13 0 20.08 1.27 29.63 3.78 1.39-6.63 4.67-12.74 9.51-17.58 12.88-12.87 55.19-14.4 59.97-14.54l4.23-.12-.11 4.22c-.13 4.78-1.66 47.09-14.53 59.96-1.44 1.43-2.99 2.74-4.64 3.9 5.04 7.06 8.68 14.66 10.88 22.65h9.16l.27 3.7c.15 1.93.22 3.75.22 5.54 0 32.73-21.46 62.6-56.01 77.96-14.7 6.97-31.49 10.66-48.55 10.66z"/><path fill="#333" d="M228.27 37.754S227.02 82.88 214.907 95c-2.315 2.316-4.908 4.186-7.67 5.616 6.633 8.278 11.342 17.672 13.606 27.764h8.573c.13 1.737.202 3.486.202 5.25 0 32.177-21.733 60.136-53.68 74.326-13.774 6.54-29.79 10.29-46.882 10.29-8.436 0-16.606-.92-24.38-2.628-44.754-8.783-78.06-42.155-78.06-81.988 0-1.764.074-3.513.203-5.25h10.43c2.21-9.85 6.74-19.035 13.12-27.166-3.21-1.49-6.23-3.564-8.88-6.214-12.11-12.12-13.36-57.246-13.36-57.246s45.13 1.248 57.24 13.366c5.66 5.658 8.67 12.963 9.05 20.376 10.7-3.49 22.39-5.41 34.62-5.41 11.6 0 22.71 1.73 32.95 4.885.48-7.23 3.48-14.32 9.01-19.85 12.12-12.11 57.24-13.36 57.24-13.36m8.23-8.23l-8.45.24c-.48.02-11.89.35-24.99 2.22-19 2.71-31.33 7.13-37.7 13.49-4.4 4.4-7.65 9.75-9.53 15.59-8.69-1.97-17.66-2.96-26.78-2.96-9.69 0-19.19 1.12-28.36 3.33C98.8 55.47 95.5 49.99 91 45.49 84.66 39.13 72.33 34.71 53.33 32c-13.1-1.87-24.51-2.207-24.985-2.22l-8.45-.235.236 8.453c.02.48.35 11.89 2.22 24.988 2.72 19 7.13 31.33 13.49 37.696 1.01 1.01 2.07 1.955 3.17 2.84-3.35 5.375-5.98 11.02-7.86 16.88H19.4l-.548 7.41c-.15 2.034-.226 3.94-.226 5.84 0 21.167 8.698 41.834 24.49 58.194 15.24 15.783 36.522 27.014 59.94 31.627 8.464 1.86 17.214 2.8 26.008 2.8 17.637 0 35-3.81 50.225-11.02 35.98-16.023 58.33-47.28 58.33-81.6 0-1.9-.08-3.81-.23-5.842l-.55-7.41h-9.9c-1.99-6.2-4.82-12.15-8.45-17.8.71-.61 1.39-1.25 2.06-1.92 6.36-6.36 10.77-18.69 13.48-37.69 1.87-13.09 2.2-24.5 2.22-24.98l.23-8.45z"/><path fill="#0071BC" d="M26.82 128.38c-.127 1.738-.2 3.487-.2 5.25 0 46.53 45.442 84.25 101.5 84.25 56.056 0 101.5-37.72 101.5-84.25 0-1.763-.074-3.512-.203-5.25H26.82zm58.562-77.26C97.5 63.23 97.5 82.88 85.382 95c-12.116 12.116-31.767 12.116-43.88 0-12.115-12.12-13.365-57.246-13.365-57.246s45.13 1.248 57.245 13.367z"/><path fill="#29ABE2" d="M84.496 64.727c8.116 8.117 8.116 21.278 0 29.387-8.113 8.118-21.27 8.118-29.39 0-8.114-8.11-8.944-38.333-8.944-38.333s30.22.83 38.334 8.95z"/><path fill="#0071BC" d="M171.025 51.12c-12.117 12.11-12.117 31.762 0 43.88 12.12 12.117 31.766 12.117 43.88 0 12.116-12.118 13.366-57.245 13.366-57.245s-45.12 1.247-57.24 13.365z"/><path fill="#29ABE2" d="M171.912 64.727c-8.117 8.117-8.117 21.278 0 29.387 8.113 8.118 21.268 8.118 29.387 0 8.11-8.11 8.94-38.333 8.94-38.333s-30.22.83-38.34 8.95z"/><path fill="#0071BC" d="M222.375 142.164c0 42.018-41.777 76.082-93.316 76.082-51.56 0-93.34-34.064-93.34-76.082 0-42.018 41.78-76.08 93.33-76.08 51.54 0 93.31 34.062 93.31 76.08z"/><path fill="#B3B3B3" d="M203.643 140.006c0 34.275-33.87 62.07-75.646 62.07-41.77 0-75.64-27.795-75.64-62.07 0-34.29 33.87-62.09 75.64-62.09 41.774 0 75.646 27.8 75.646 62.09z"/><path fill="#999898" d="M127.997 204.986c-43.312 0-78.55-29.152-78.55-64.98 0-35.843 35.238-65 78.55-65 43.315 0 78.556 29.156 78.556 65 0 35.828-35.24 64.98-78.556 64.98zm0-124.16c-40.104 0-72.73 26.548-72.73 59.18 0 32.623 32.626 59.164 72.73 59.164 40.108 0 72.737-26.54 72.737-59.164 0-32.632-32.63-59.18-72.737-59.18z"/><path fill="#333" d="M128 161.402c-3.215 0-6-2.603-6-5.818v-29.087c0-3.213 2.785-5.817 6-5.817s6 2.604 6 5.817v29.087c0 3.217-2.785 5.818-6 5.818z"/><path fill="#2974A7" d="M139.52 127.263c0 3.864-5.157 7-11.52 7-6.356 0-11.52-3.136-11.52-7 0-3.857 5.163-6.992 11.52-6.992 6.36 0 11.52 3.14 11.52 7z"/><path fill="#333" d="M145.93 125.44c-1.046 0-2.097-.374-2.93-1.132-1.786-1.615-1.923-4.8-.305-6.585 8.375-9.237 17.373-14.343 26.738-14.343h.088c13.32 0 22.14 10.124 22.5 10.534 1.61 1.8 1.46 4.774-.33 6.383-1.78 1.598-4.53 2.28-6.15.492-.06-.07-6.71-6.41-16.1-6.41h-.02c-6.79 0-13.6 3.01-20.24 10.34-.86.94-2.04.72-3.23.72zm-32.77-.005c-1.4 0-2.77-.665-3.616-1.9-.08-.116-7.8-11.248-18.254-11.964-5.93-.41-11.89 2.67-17.754 9.14-1.623 1.79-4.38 1.92-6.162.3-1.783-1.62-1.922-4.37-.3-6.16 7.767-8.56 16.093-12.6 24.876-11.98 14.7 1.05 24.41 15.17 24.814 15.77 1.346 1.99.822 4.69-1.166 6.05-.747.51-1.6.76-2.44.76z"/><path fill="#fff" d="M79.33 125.38c0 3.314-2.687 6-6 6h-12c-3.313 0-6-2.687-6-6 0-3.312 2.687-6 6-6h12c3.314 0 6 2.687 6 6zm121.34.5c0 3.045-2.472 6.5-5.516 6.5h-12.608c-3.047 0-5.517-3.455-5.517-6.5 0-3.046 2.47-6.5 5.51-6.5h12.61c3.04 0 5.51 3.454 5.51 6.5zM53.254 139.284c.194 0 .394.018.588.05 24.483 4.14 49.858 6.236 75.405 6.236 43.306 0 72.485-6.127 72.776-6.19.242-.05.484-.075.725-.075 1.032 0 2.014.46 2.76 1.29.922 1.023 1.373 2.517 1.204 3.992-6.334 55.396-70.544 56.996-77.846 56.996l-.488-.005c-40.25-2.33-59.56-17.45-68.674-29.723-10.28-13.842-10.447-27.32-10.45-27.888-.004-1.356.497-2.65 1.376-3.54.73-.736 1.66-1.143 2.624-1.143z"/><path fill="#999898" d="M184.758 142.245h7.5v35.57l-7.75 6.414zm-112.376 0h-7.5v35.57l7.75 6.414zm86.126 0h7.5v52.86l-7.75 3.995zm-33.5 4.255h7.5v54.35l-7.75-1.623zm-24.25-4.255h-7.5v52.86l7.75 3.995z"/><path fill="#333" d="M128.866 198.668l-.364-.002c-39.377-2.28-58.114-16.876-66.91-28.72-9.68-13.038-9.836-25.468-9.838-25.99-.002-.51.187-.994.517-1.328.28-.278.63-.43.99-.43.07 0 .15.006.22.02 24.62 4.158 50.11 6.27 75.78 6.27 43.59 0 72.94-6.175 73.23-6.238.09-.02.19-.028.27-.028.39 0 .76.17 1.04.483.35.387.52.944.45 1.497-6.05 52.94-68.29 54.466-75.36 54.466m-.01 5.83h.02c7.53 0 73.71-1.67 80.33-59.525.27-2.396-.46-4.824-1.96-6.492-1.21-1.34-2.8-2.09-4.48-2.09-.39 0-.79.04-1.17.13-.28.07-29.38 6.15-72.32 6.15-25.43 0-50.68-2.09-75.06-6.2-.28-.05-.61-.08-.93-.08-1.57 0-3.08.66-4.27 1.86-1.43 1.45-2.24 3.55-2.23 5.76.01 1.53.36 15.38 11.06 29.78 9.43 12.71 29.31 28.35 70.44 30.73l.11.01h.11l.37.01h.01z"/></svg>