<svg xmlns="http://www.w3.org/2000/svg" width="256" height="256" viewBox="0 0 256 256"><path fill="#ccc" d="M129.652 215.337c-20.16 0-41.31-2.76-62.858-8.2l-.12-.03c-.476-.138-11.746-3.458-18.303-14.112-3.32-5.407-3.59-16.428-3.37-23.395-9.25-12.513-14.13-26.865-14.13-41.602 0-1.04.03-2.112.08-3.2-2.66-2.292-5.09-4.906-7.52-8.093-2.62-3.476-4.75-6.987-6.53-10.753-2.14-4.593-3.41-8.702-4-12.95-.38-2.972-.37-5.658.04-8.252.33-1.887.73-3.316 1.29-4.686.39-1.04.97-2.115 1.28-2.673.36-.63.52-.88.77-1.21.07-.09.16-.21.37-.53l.08-.12.09-.12c2.52-3.33 5.63-5.21 7.8-6.21 2.32-1.06 4.83-1.76 7.69-2.13 1.46-.17 2.91-.26 4.36-.26 2.7 0 5.44.29 8.62.89 4.77 1 9.2 2.47 13.25 4.4 18.25-15.39 43.48-24.17 69.7-24.17 26.81 0 52.44 9.12 70.78 25.11 3.44-1.58 7.16-2.85 11.11-3.8 3.59-.8 6.66-1.16 9.7-1.16 1.1 0 2.2.05 3.28.15 2.9.29 5.44.92 7.79 1.92 2.2.95 5.36 2.75 7.96 5.99l.09.11.08.12c.22.32.32.45.39.54.27.34.43.57.82 1.2.56.92 1.04 1.85 1.36 2.64.6 1.36 1.04 2.82 1.4 4.58.5 2.62.59 5.31.29 8.28-.47 4.28-1.62 8.43-3.63 13.08-1.65 3.79-3.68 7.36-6.22 10.94-2.55 3.54-5.08 6.38-7.89 8.86.02.54.02 1.06.02 1.58 0 17.66-7.16 34.96-20.21 48.89.08 7.59-.86 12.87-2.85 16.1-6.1 9.93-16.3 13.49-18.06 14.04-2.29.93-21.64 8.31-54.74 8.31h-.01zm82.32-128.132c2.247 3.12 4.23 6.357 5.94 9.694.23-.35.452-.7.667-1.04 1.29-2.09 2.25-4.2 2.71-5.94.23-.87.29-1.52.29-1.91-.31-.17-.81-.4-1.51-.56-1.3-.32-2.83-.48-4.51-.48-.83 0-1.69.03-2.57.11-.34.03-.68.07-1.03.11zm-177.624-.39c.013.388.092 1.018.346 1.853.516 1.754 1.538 3.84 2.89 5.908.376.57.778 1.14 1.2 1.704 1.882-3.59 4.085-7.064 6.594-10.397-.83-.104-1.663-.184-2.5-.238-.568-.033-1.164-.05-1.754-.05-1.993 0-3.79.207-5.2.6-.748.194-1.266.436-1.576.62z"/><path fill="#333" d="M128.197 51.918c27.95 0 53.024 10.02 70.126 25.89 3.978-2.1 8.25-3.634 12.692-4.698 2.79-.62 5.687-1.057 8.77-1.057.953 0 1.924.042 2.915.132 2.104.21 4.317.646 6.592 1.613 2.256.97 4.603 2.562 6.408 4.813.707 1.02.498.59 1.067 1.54.455.75.857 1.53 1.088 2.11.564 1.28.906 2.55 1.164 3.83.47 2.51.45 4.88.22 7.08-.48 4.41-1.76 8.27-3.32 11.9-1.58 3.62-3.53 6.99-5.81 10.21-2.32 3.21-4.92 6.26-8.35 9.09l-.28.23-.08.06c.06 1.12.1 2.25.1 3.38 0 17.89-7.58 34.33-20.24 47.32.19 6.85-.42 12.64-2.23 15.58-5.82 9.46-16 12.36-16 12.36s-19.24 8.08-53.4 8.08c-17.08 0-37.89-2.02-61.88-8.08 0 0-10.18-2.9-16-12.36-2.33-3.79-3.15-12.77-2.73-22.57-8.99-11.69-14.18-25.52-14.18-40.33 0-1.67.07-3.34.2-4.99-3.45-2.7-6.1-5.63-8.47-8.73-2.38-3.15-4.41-6.46-6.1-10.03-1.68-3.58-3.05-7.41-3.66-11.79-.29-2.19-.38-4.55.02-7.08.22-1.28.52-2.57 1.06-3.86.21-.58.59-1.38 1.02-2.14.53-.95.34-.51 1.02-1.56 1.73-2.3 4.03-3.96 6.27-4.99 2.24-1.02 4.44-1.52 6.53-1.8 1.31-.16 2.59-.23 3.84-.23 2.74 0 5.34.34 7.87.82 5.13 1.08 10.04 2.79 14.58 5.26 17.08-15.32 41.72-24.95 69.12-24.95m-88.38 51.56c3.04-7.29 7.4-14.07 12.85-20.18-3.13-.9-6.36-1.44-9.53-1.65-.67-.04-1.34-.06-2.01-.06-2.25 0-4.42.23-6.27.75-2.48.64-4 1.91-4.27 2.77-.32.83-.41 2.46.28 4.72.65 2.21 1.87 4.64 3.37 6.93 1.57 2.38 3.51 4.71 5.58 6.72m177.15.99c1.87-1.98 3.61-4.23 5.02-6.51 1.44-2.33 2.59-4.81 3.18-7.02.61-2.27.47-3.91.14-4.71-.28-.87-1.85-2.09-4.33-2.66-1.62-.4-3.48-.58-5.4-.58-.96 0-1.94.05-2.92.13-2.61.25-5.26.73-7.85 1.45 5.17 6.06 9.29 12.75 12.15 19.91m-88.7-60.6c-26.23 0-51.54 8.51-70.33 23.5-3.68-1.55-7.61-2.77-11.74-3.64l-.07-.01-.07-.01c-3.44-.65-6.41-.96-9.37-.96-1.61 0-3.23.1-4.8.29h-.04l-.04.01c-3.26.43-6.15 1.23-8.83 2.46-3.71 1.7-6.93 4.27-9.33 7.44l-.18.24-.16.25c-.08.14-.14.22-.18.27-.41.55-.67.96-1.09 1.71-.44.77-1.06 1.95-1.52 3.17-.85 2.11-1.26 4.07-1.48 5.37l-.02.07-.01.08c-.47 2.98-.49 6.04-.05 9.35v.08c.65 4.65 2.03 9.12 4.33 14.07 1.91 4.06 4.19 7.8 6.96 11.48 2.18 2.86 4.35 5.28 6.66 7.43-.01.5-.02.99-.02 1.47 0 15.16 4.86 29.92 14.1 42.86-.17 8.41.49 18.54 4 24.24 7.23 11.77 19.26 15.48 20.61 15.87l.12.04.12.03c21.87 5.52 43.34 8.32 63.83 8.32 33.01 0 52.88-7.27 56.06-8.53 2.64-.84 13.44-4.83 20.14-15.72 2.27-3.69 3.38-9.02 3.44-16.64 13.02-14.42 20.16-32.15 20.21-50.28 2.49-2.37 4.79-5.05 7.09-8.24l.02-.02.01-.02c2.69-3.8 4.86-7.6 6.61-11.64 2.18-5.05 3.43-9.56 3.94-14.22V94c.34-3.36.24-6.43-.33-9.383l-.01-.05-.01-.045c-.41-2.02-.92-3.72-1.62-5.33-.53-1.3-1.25-2.54-1.64-3.176-.43-.72-.69-1.097-1.08-1.59l-.24-.34-.16-.23-.18-.218c-3.12-3.886-6.88-6.037-9.49-7.157-2.76-1.17-5.68-1.89-8.96-2.22h-.06c-1.2-.11-2.43-.16-3.64-.16-3.35 0-6.69.4-10.51 1.25l-.07.02-.06.02c-3.31.79-6.49 1.81-9.48 3.03-18.91-15.59-44.63-24.45-71.47-24.45z"/><path fill="#676767" d="M62.52 83.466s-31.137-10.856-37.238-2c-6.088 8.855 7.295 30.08 17.736 37.272 0 0-6.104-22.847 19.502-35.272z"/><path fill="#B3B3B3" d="M60.492 86.538c-5.232-2.964-11.418-4.498-17.355-4.885-2.95-.17-5.88.018-8.287.688-2.48.65-4.002 1.91-4.264 2.78-.316.83-.404 2.46.28 4.72.65 2.21 1.868 4.64 3.368 6.93 3.006 4.56 7.346 8.96 11.406 11.21 4.465 2.48 6.066 8.11 3.584 12.57-2.48 4.46-8.105 6.07-12.56 3.59-.407-.22-.782-.47-1.138-.74l-.32-.25c-3.518-2.73-6.21-5.7-8.607-8.84-2.38-3.15-4.41-6.46-6.1-10.03-1.68-3.58-3.05-7.4-3.66-11.79-.29-2.19-.38-4.55.02-7.07.22-1.28.52-2.57 1.06-3.86.21-.58.59-1.38 1.02-2.14.53-.95.34-.51 1.02-1.56 1.74-2.3 4.03-3.96 6.27-4.99 2.24-1.02 4.44-1.52 6.53-1.8 4.19-.5 8.03-.11 11.71.6 7.28 1.52 14.13 4.29 20.06 8.77 1.62 1.24 1.95 3.56.71 5.18-1.13 1.5-3.18 1.89-4.77.98z"/><path fill="#676767" d="M193.332 85.472c-11.566-5.206 30.813-11.738 37.166-3.057 6.344 8.68-3.926 27.012-14.158 34.495 0 0 2.94-19.748-23.008-31.438z"/><path fill="#B3B3B3" d="M191.215 82.456c5.79-4.654 12.57-7.614 19.8-9.347 3.653-.82 7.485-1.31 11.688-.93 2.104.21 4.317.64 6.592 1.61 2.256.97 4.603 2.56 6.408 4.81.707 1.02.498.59 1.067 1.53.455.74.857 1.52 1.088 2.11.564 1.27.906 2.55 1.164 3.82.48 2.51.453 4.87.23 7.08-.482 4.4-1.755 8.26-3.322 11.89-1.578 3.62-3.525 6.98-5.808 10.2-2.313 3.21-4.914 6.26-8.35 9.09l-.28.22c-3.94 3.24-9.76 2.67-13.004-1.27-3.237-3.94-2.668-9.76 1.27-13 .355-.29.772-.58 1.147-.81 3.998-2.37 8.214-6.89 11.076-11.53 1.45-2.34 2.6-4.82 3.18-7.03.62-2.27.48-3.91.14-4.71-.28-.87-1.84-2.1-4.33-2.66-2.43-.61-5.37-.71-8.31-.46-5.92.56-12.06 2.27-17.21 5.38-1.74 1.06-4.01.5-5.07-1.24-.97-1.6-.58-3.66.85-4.8z"/><path fill="#fff" d="M221.516 127.998c0 42.02-41.776 76.085-93.317 76.085-51.56 0-93.34-34.063-93.34-76.085 0-42.017 41.78-76.08 93.33-76.08 51.54 0 93.31 34.063 93.31 76.08z"/><path fill="#B3B3B3" d="M201.508 125.84c0 34.277-33.87 62.075-75.648 62.075-41.77 0-75.637-27.798-75.637-62.076 0-34.29 33.867-62.09 75.637-62.09 41.777 0 75.648 27.79 75.648 62.08z"/><path fill="#999898" d="M125.86 190.823c-43.31 0-78.55-29.157-78.55-64.984 0-35.84 35.24-65 78.55-65 43.317 0 78.556 29.15 78.556 64.99 0 35.82-35.238 64.98-78.557 64.98zm0-124.162c-40.105 0-72.73 26.55-72.73 59.18 0 32.63 32.626 59.17 72.73 59.17 40.108 0 72.74-26.54 72.74-59.16 0-32.63-32.63-59.18-72.74-59.18z"/><path fill="#fff" d="M200.068 121.17c0 19.962-16.18 36.147-36.14 36.147-19.97 0-36.145-16.186-36.145-36.146s16.176-36.14 36.146-36.14c19.96 0 36.13 16.18 36.13 36.14zm-75.623 0c0 19.962-16.178 36.147-36.143 36.147-19.967 0-36.143-16.186-36.143-36.146S68.33 85.03 88.3 85.03c19.967 0 36.144 16.18 36.144 36.14z"/><path fill="#2974A7" d="M112.432 116.96c0 9.235-7.488 16.73-16.73 16.73s-16.73-7.496-16.73-16.73c0-9.24 7.487-16.735 16.73-16.735s16.73 7.494 16.73 16.735z"/><path fill="#fff" d="M93.146 112.125c0 3.153-2.56 5.703-5.71 5.703-3.153 0-5.704-2.55-5.704-5.703 0-3.146 2.55-5.697 5.705-5.697 3.15 0 5.71 2.55 5.71 5.697zm6.288 6.16c0 1.475-1.21 2.68-2.688 2.68-1.475 0-2.68-1.205-2.68-2.68 0-1.484 1.205-2.684 2.68-2.684 1.48.01 2.688 1.2 2.688 2.69z"/><path fill="#2974A7" d="M177.3 117.832c0 9.2-7.444 16.652-16.642 16.652-9.205 0-16.654-7.453-16.654-16.652 0-9.197 7.45-16.646 16.654-16.646 9.197 0 16.643 7.45 16.643 16.646z"/><path fill="#fff" d="M158.105 113.03c0 3.14-2.54 5.674-5.683 5.674-3.135 0-5.676-2.533-5.676-5.675 0-3.14 2.54-5.68 5.676-5.68 3.144 0 5.683 2.54 5.683 5.67zm6.26 6.13c0 1.464-1.197 2.663-2.67 2.663-1.47 0-2.67-1.2-2.67-2.664 0-1.49 1.2-2.68 2.67-2.68 1.473 0 2.67 1.19 2.67 2.67z"/><path fill="#ccc" d="M25.965 126.906l-.086 5.51s20.73 21.414 34.01 21.414c.26 0 .8 0 1.06-.02l-.62-5.81c-8.92.64-34.37-21.09-34.37-21.09zm.815 10.09s-.544.184-.544.818c0 .64 2.182 12.36 3.908 14.543.006.014.018.006.02.018l-.054.052c.668.788 16.11 19.927 29.572 19.927.285 0 .81.2 1.092.184l-.44-7.085c-8.807.438-33.098-22.82-33.553-28.457zm203.51-9.26l-4.813 4.86s.033.323.066.405l-.12-.01c-6.413 5.85-24.812 20.78-34.112 20.78-.16 0-.31.03-.47.02l-.34 5.83c.25.02.49.03.74.03 13.32 0 35.58-20.9 38.12-23.21l-.06-1.05h.01c1.82.01 1-7.64 1-7.64zm-1.09 12.714s-31.01 29.872-38.753 29.597l-.148 6.416c.23.014.57.328.81.328 13.36 0 34.27-22.7 34.27-22.7 4.28-5.87 3.81-13.63 3.81-13.63zM67.773 203.26s-10.178-2.908-15.996-12.363c-5.816-9.453-2.25-51.162 6.545-57.444 5.09-3.638 9.45.728 9.45.728s39.312 23.27 115.276 0c0 0 7.613-3.63 9.455-.72 5.783 9.14 12.358 47.99 6.543 57.45s-15.998 12.36-15.998 12.36-43.288 18.18-115.275 0z"/><path fill="#D9F5FF" d="M129.656 205.52c-19.355 0-39.69-2.658-60.455-7.902.03 0-8-2.504-12.47-9.77-4.67-7.59-.9-45.19 4.98-49.66.23-.167.56-.364.83-.364.42 0 1.01.375 1.23.574l.42.37.63.417c.77.453 19.26 11.152 54.59 11.152 20.41 0 42.4-3.563 65.35-10.596l.42-.12.39-.19c.84-.39 2.02-.82 2.99-1.07 4.91 10.76 9.47 43.14 5.56 49.49-4.5 7.33-12.56 9.8-12.64 9.82l-.33.1-.31.14c-.18.07-18.78 7.62-51.14 7.62z"/><path fill="#B7DBE5" d="M135.398 156.963s-9.21 8.727-22.295 1.938c0 0 15.506 23.27 22.295-1.93z"/><path fill="#B3B3B3" d="M111.28 93.242c-6.24-5.132-14.23-8.215-22.944-8.215-19.967 0-36.145 16.178-36.145 36.142 0 2.3.23 4.54.64 6.72 20.79-5.92 42.96-16.35 58.46-34.66z"/><path fill="#999898" d="M113.167 94.918c-1.31-1.24-2.71-2.38-4.194-3.415-14.978 17.685-36.364 27.81-56.566 33.595.18 1.656.47 3.278.865 4.86 21.21-5.868 43.88-16.352 59.895-35.04z"/><path fill="#B3B3B3" d="M141.078 93.242c6.24-5.132 14.23-8.215 22.943-8.215 19.97 0 36.15 16.178 36.15 36.142 0 2.3-.22 4.54-.63 6.72-20.78-5.92-42.95-16.35-58.45-34.66z"/><path fill="#999898" d="M139.19 94.918c1.31-1.24 2.71-2.38 4.194-3.415 14.98 17.685 36.363 27.81 56.565 33.595-.18 1.656-.47 3.278-.87 4.86-21.21-5.868-43.88-16.352-59.9-35.04z"/></svg>