<svg xmlns="http://www.w3.org/2000/svg" width="256" height="256" viewBox="0 0 256 256"><path fill="#fff" d="M128.23 208.08c-24.225 0-47.434-7.353-65.352-20.71-17.313-12.905-28.33-30.34-31.22-49.302-2.965-1.35-5.716-2.868-8.354-4.614-4.214-2.835-7.423-5.696-10.125-9.02-1.88-2.36-3.26-4.667-4.24-7.085-.48-1.26-1.04-2.84-1.32-4.67-.21-1.07-.27-2.3-.29-2.95-.03-.74-.01-1.03.03-1.45.01-.12.02-.26.03-.64v-.15l.01-.15c.43-4.16 2.12-7.39 3.46-9.36 1.44-2.11 3.23-4.01 5.47-5.8 3.23-2.53 6.85-4.48 11.44-6.17 6.31-2.21 12.52-3.33 18.53-3.33.52 0 1.05.01 1.57.02 18.19-21.84 48.04-34.81 80.33-34.81 32.27 0 62.12 12.97 80.3 34.8.38-.01.76-.02 1.14-.02 6 0 12.22 1.11 18.46 3.3 4.64 1.72 8.27 3.67 11.47 6.17 2.27 1.82 4.07 3.71 5.5 5.81 1.34 1.97 3.03 5.19 3.46 9.36l.02.15v.15c.01.37.02.52.04.63.04.41.05.72.03 1.46-.02.62-.08 1.84-.29 2.94-.29 1.84-.84 3.41-1.29 4.58-1.01 2.49-2.39 4.79-4.23 7.12-2.74 3.37-5.95 6.23-10.14 9.04-2.51 1.66-5.11 3.11-7.91 4.41-2.83 19.01-13.82 36.5-31.15 49.45-17.94 13.4-41.17 20.78-65.44 20.78zM28.36 108.043c.213.326.606.825 1.258 1.413.86.79 1.978 1.59 3.265 2.352.818-3.286 1.885-6.52 3.195-9.685-.343.166-.685.337-1.023.513-2.35 1.235-4.37 2.68-5.664 4.055-.54.56-.86 1.04-1.03 1.36zm192.11-5.65c1.228 3.007 2.237 6.073 3.024 9.188 1.124-.68 2.104-1.4 2.86-2.1.67-.6 1.068-1.1 1.284-1.43-.168-.31-.476-.78-.984-1.3-1.346-1.42-3.365-2.87-5.732-4.11-.153-.08-.303-.15-.453-.23z"/><path fill="#333" d="M128.23 51.92c32.918 0 61.853 13.896 78.463 34.884.996-.066 1.988-.1 2.98-.1 5.826 0 11.573 1.125 17.143 3.077 3.516 1.3 7.01 2.95 10.332 5.55 1.65 1.32 3.27 2.88 4.664 4.92 1.39 2.04 2.492 4.65 2.79 7.52.03 1.24.1.77.066 1.86-.02.88-.104 1.76-.23 2.37-.208 1.38-.615 2.64-1.08 3.85-.968 2.37-2.265 4.34-3.638 6.08-2.795 3.44-5.947 6-9.23 8.21-2.978 1.97-6.084 3.6-9.352 4.98-4.395 38.69-44.31 68.98-92.91 68.98-48.526 0-88.4-30.19-92.908-68.78-3.437-1.42-6.694-3.11-9.81-5.18-3.28-2.2-6.437-4.77-9.23-8.2-1.377-1.73-2.672-3.7-3.637-6.07-.465-1.21-.877-2.47-1.086-3.85-.123-.6-.2-1.49-.225-2.36-.035-1.09.03-.62.068-1.86.295-2.87 1.402-5.48 2.79-7.51 1.39-2.04 3.01-3.6 4.66-4.92 3.323-2.6 6.817-4.25 10.333-5.55 5.567-1.95 11.313-3.07 17.14-3.07 1.13 0 2.263.05 3.398.13 16.62-21.01 45.57-34.92 78.51-34.92m-92.47 65.71c1.33-7.96 4.17-15.53 8.28-22.51-3.78.83-7.46 2.23-10.82 3.96-2.61 1.38-5.02 3.05-6.73 4.87-1.79 1.84-2.44 3.71-2.21 4.59.15.87.93 2.31 2.68 3.89 1.69 1.55 4 3 6.47 4.19.76.36 1.55.7 2.35 1.02m184.9-.15c.66-.27 1.31-.56 1.94-.86 2.47-1.19 4.78-2.64 6.47-4.19 1.75-1.58 2.53-3.02 2.68-3.89.22-.88-.43-2.75-2.21-4.58-1.71-1.82-4.12-3.49-6.74-4.87-3.2-1.66-6.7-3-10.31-3.84 4.05 6.9 6.85 14.38 8.18 22.24m-92.43-73.56c-32.74 0-63.11 12.94-82.15 34.79-6.38.03-12.95 1.22-19.54 3.53l-.06.03-.06.03c-4.98 1.84-8.95 3.98-12.48 6.74l-.03.03-.03.03c-2.56 2.04-4.61 4.22-6.28 6.66-2.3 3.38-3.73 7.26-4.14 11.21l-.03.29-.01.29c0 .15 0 .25-.01.31-.07.69-.08 1.18-.05 2.05.02.88.1 2.22.34 3.48.35 2.18.98 3.99 1.5 5.34l.03.08.03.08c1.13 2.78 2.7 5.41 4.79 8.03l.03.04.03.04c2.96 3.64 6.45 6.76 10.97 9.8l.03.02.02.02c2.23 1.48 4.53 2.8 6.96 4 3.52 19.19 14.9 36.73 32.43 49.79 18.6 13.87 42.66 21.5 67.74 21.5 25.12 0 49.21-7.66 67.82-21.57 17.55-13.11 28.91-30.72 32.37-49.96 2.26-1.14 4.4-2.38 6.48-3.75l.02-.01.03-.01c4.52-3.04 8.01-6.15 10.98-9.8l.03-.04.03-.04c2.08-2.63 3.65-5.25 4.77-8.02l.03-.08.03-.08c.51-1.34 1.14-3.14 1.49-5.33.24-1.29.32-2.63.35-3.55.03-.81.02-1.3-.05-1.94-.01-.1-.01-.19-.01-.33l-.01-.31-.03-.31c-.41-3.96-1.84-7.83-4.14-11.2-1.67-2.44-3.73-4.62-6.28-6.67l-.03-.02-.03-.02c-3.53-2.76-7.5-4.91-12.48-6.75l-.06-.02-.06-.02c-6.43-2.26-12.85-3.44-19.09-3.52-19.03-21.86-49.4-34.79-82.14-34.79z"/><path fill="#676767" d="M50.747 90.612s-32.268 6.8-32.914 17.534c-.637 10.733 21.8 21.98 34.447 22.74 0 .003-17.03-16.403-1.533-40.274z"/><path fill="#B3B3B3" d="M50.598 94.293c-6.008.163-12.1 2.05-17.383 4.79-2.613 1.373-5.027 3.05-6.736 4.865-1.8 1.84-2.44 3.706-2.22 4.587.15.868.92 2.31 2.67 3.89 1.69 1.553 3.99 3 6.47 4.19 4.92 2.35 10.91 3.87 15.55 3.696 5.11-.18 9.38 3.8 9.57 8.91.17 5.11-3.81 9.39-8.91 9.56-.47.02-.92.01-1.36-.04l-.41-.05c-4.42-.51-8.26-1.67-11.94-3.12-3.66-1.47-7.12-3.25-10.42-5.43-3.28-2.21-6.44-4.77-9.23-8.21-1.38-1.73-2.68-3.7-3.64-6.07-.47-1.21-.88-2.47-1.09-3.85-.13-.6-.2-1.49-.23-2.36-.04-1.09.03-.62.07-1.86.29-2.87 1.4-5.48 2.79-7.51 1.39-2.04 3.01-3.6 4.66-4.92 3.32-2.59 6.82-4.25 10.33-5.54 7.02-2.46 14.32-3.63 21.71-2.86 2.03.23 3.5 2.05 3.28 4.07-.19 1.87-1.75 3.26-3.58 3.31z"/><path fill="#676767" d="M205.254 90.612s32.268 6.8 32.916 17.534c.633 10.733-21.8 21.98-34.45 22.74 0 .003 17.034-16.403 1.534-40.274z"/><path fill="#B3B3B3" d="M205.402 94.293c6.01.163 12.1 2.05 17.38 4.79 2.616 1.373 5.028 3.05 6.74 4.865 1.79 1.84 2.437 3.706 2.216 4.587-.152.868-.926 2.31-2.676 3.89-1.69 1.553-4 3-6.472 4.19-4.922 2.35-10.914 3.87-15.555 3.696-5.106-.18-9.386 3.8-9.568 8.91-.174 5.11 3.81 9.39 8.904 9.56.47.02.92.01 1.36-.04l.41-.05c4.42-.51 8.26-1.67 11.94-3.12 3.67-1.47 7.11-3.25 10.42-5.43 3.28-2.21 6.44-4.77 9.23-8.21 1.37-1.73 2.67-3.7 3.64-6.07.47-1.21.88-2.47 1.08-3.85.13-.6.21-1.49.23-2.36.04-1.09-.03-.62-.06-1.86-.3-2.87-1.4-5.48-2.79-7.51-1.39-2.04-3.01-3.6-4.66-4.92-3.32-2.59-6.81-4.25-10.33-5.54-7.02-2.46-14.31-3.63-21.7-2.86-2.03.23-3.5 2.05-3.28 4.07.2 1.87 1.76 3.26 3.59 3.31z"/><path fill="#fff" d="M221.547 127.996c0 42.02-41.777 76.085-93.318 76.085-51.55 0-93.34-34.06-93.34-76.08 0-42.01 41.79-76.07 93.33-76.07s93.31 34.06 93.31 76.08z"/><path fill="#B3B3B3" d="M201.54 128.104c0 38.742-33.87 70.157-75.65 70.157-41.77 0-75.638-31.41-75.638-70.15 0-38.75 33.867-70.17 75.64-70.17 41.778 0 75.647 31.42 75.647 70.17z"/><path fill="#999898" d="M125.89 201.172c-43.308 0-78.546-32.775-78.546-73.067 0-40.293 35.238-73.078 78.547-73.078 43.32 0 78.56 32.785 78.56 73.078 0 40.29-35.24 73.067-78.56 73.067zm0-140.327c-40.103 0-72.73 30.17-72.73 67.26 0 37.077 32.628 67.25 72.73 67.25 40.108 0 72.74-30.173 72.74-67.25 0-37.09-32.632-67.26-72.74-67.26z"/><path fill="#fff" d="M200.1 121.17c0 19.96-16.178 36.145-36.14 36.145-19.968 0-36.147-16.186-36.147-36.146 0-19.97 16.18-36.15 36.148-36.15 19.97 0 36.14 16.18 36.14 36.14zm-75.62 0c0 19.96-16.18 36.145-36.144 36.145-19.967 0-36.145-16.186-36.145-36.146 0-19.97 16.18-36.15 36.15-36.15s36.15 16.18 36.15 36.14z"/><path fill="#2974A7" d="M90.485 141.488c-11.102-3.66-17.133-15.623-13.47-26.733 3.663-11.1 15.634-17.123 26.73-13.458 11.104 3.658 17.14 15.622 13.47 26.73-3.664 11.105-15.63 17.125-26.73 13.46z"/><path fill="#fff" d="M103.938 120.236c-3.787-1.25-5.842-5.334-4.592-9.116 1.25-3.796 5.328-5.845 9.115-4.596 3.79 1.25 5.84 5.323 4.59 9.118-1.25 3.783-5.33 5.846-9.11 4.594zm-9.893 5.112c-1.777-.59-2.742-2.516-2.158-4.287.586-1.77 2.512-2.74 4.28-2.15 1.78.59 2.747 2.51 2.163 4.29-.583 1.77-2.505 2.75-4.285 2.16z"/><path fill="#2974A7" d="M176.45 121.396c0 11.684-9.468 21.167-21.165 21.167-11.69 0-21.16-9.482-21.16-21.167 0-11.693 9.47-21.173 21.16-21.173 11.697 0 21.164 9.48 21.164 21.173z"/><path fill="#fff" d="M152.053 115.278c0 3.987-3.232 7.22-7.22 7.22-3.993 0-7.222-3.232-7.222-7.22 0-3.983 3.23-7.21 7.23-7.21 3.99 0 7.22 3.227 7.22 7.21zm7.953 7.794c0 1.868-1.53 3.393-3.398 3.393-1.866 0-3.39-1.524-3.39-3.393 0-1.876 1.522-3.393 3.39-3.393 1.87 0 3.398 1.51 3.398 3.39z"/><path fill="#333" d="M128 176.352c-3.213 0-6.5-2.603-6.5-5.817V141.45c0-3.218 3.287-5.816 6.5-5.816 3.217 0 6.5 2.6 6.5 5.816v29.084c0 3.215-3.283 5.818-6.5 5.818z"/><path fill="#2974A7" d="M139.52 142.216c0 3.863-5.157 6.994-11.52 6.994-6.354 0-11.52-3.13-11.52-6.994 0-3.862 5.165-6.99 11.52-6.99 6.362 0 11.52 3.128 11.52 6.99z"/><path fill="#B3B3B3" d="M111.28 93.242c-6.24-5.132-14.23-8.215-22.944-8.215-19.967 0-36.145 16.178-36.145 36.142 0 2.3.23 4.54.64 6.72 20.79-5.92 42.96-16.35 58.46-34.66z"/><path fill="#999898" d="M113.167 94.918c-1.31-1.24-2.71-2.38-4.194-3.415-14.978 17.685-36.364 27.81-56.566 33.595.18 1.656.47 3.278.865 4.86 21.21-5.868 43.88-16.352 59.895-35.04z"/><path fill="#B3B3B3" d="M141.078 93.242c6.24-5.132 14.23-8.215 22.944-8.215 19.967 0 36.145 16.178 36.145 36.142 0 2.3-.224 4.54-.635 6.72-20.785-5.92-42.954-16.35-58.454-34.66z"/><path fill="#999898" d="M139.19 94.918c1.31-1.24 2.71-2.38 4.195-3.415 14.978 17.685 36.363 27.81 56.565 33.595-.18 1.656-.47 3.278-.865 4.86-21.208-5.868-43.88-16.352-59.894-35.04z"/><path fill="#fff" d="M82.106 73.108s-12.602 25.685-2.422 29.563c10.184 3.89 15.024-10.16 2.422-29.56z"/><path fill="#999898" d="M125.89 201.172c-43.308 0-78.546-32.775-78.546-73.067 0-40.293 35.238-73.078 78.547-73.078 43.32 0 78.56 32.785 78.56 73.078 0 40.29-35.24 73.067-78.56 73.067zm0-140.327c-40.103 0-72.73 30.17-72.73 67.26 0 37.077 32.628 67.25 72.73 67.25 40.108 0 72.74-30.173 72.74-67.25 0-37.09-32.632-67.26-72.74-67.26z"/><path fill="#C1272D" d="M142.146 182.434c.02 9.036-6.65 16.387-14.896 16.41-8.26.03-14.975-7.267-14.996-16.313-.03-9.04 6.652-16.38 14.904-16.41 8.252-.03 14.965 7.28 14.988 16.32z"/></svg>