<svg xmlns="http://www.w3.org/2000/svg" width="256" height="256" viewBox="0 0 256 256"><path fill="#B3B3B3" d="M134.394 208.08c-24.224 0-47.432-7.354-65.35-20.71-17.313-12.905-28.33-30.337-31.217-49.3-2.962-1.35-5.713-2.868-8.355-4.616-4.207-2.826-7.417-5.687-10.127-9.02-1.873-2.355-3.25-4.66-4.237-7.083-.478-1.24-1.027-2.81-1.322-4.66-.204-1.06-.267-2.29-.286-2.94-.024-.74-.008-1.05.036-1.47.01-.1.024-.25.035-.62l.01-.15.02-.14c.43-4.16 2.12-7.38 3.46-9.36 1.44-2.1 3.23-4 5.48-5.79 3.24-2.52 6.86-4.48 11.44-6.17 6.32-2.21 12.53-3.32 18.53-3.32.53 0 1.05.01 1.58.03 18.19-21.83 48.04-34.81 80.33-34.81 21.96 0 43.3 6.13 60.44 17.3 3.31-2.31 6.99-4.32 10.96-5.99 4.59-1.84 8.59-2.82 12.65-3.11.68-.04 1.33-.06 2-.06 2.11 0 4.07.23 5.99.69 2.33.57 5.75 1.83 8.85 4.62l.12.1.11.12c.26.27.37.37.45.45.32.28.53.49 1.01 1.08.65.74 1.3 1.6 1.75 2.34.81 1.23 1.46 2.56 2.12 4.29.92 2.51 1.44 5.14 1.63 8.12.23 4.32-.23 8.6-1.46 13.5-1.03 4.05-2.46 7.91-4.36 11.8-1.98 3.99-4.07 7.27-6.54 10.25 1.07 4.8 1.62 9.71 1.62 14.6 0 44.16-43.65 80.09-97.32 80.09zM34.527 108.044c.213.327.606.825 1.256 1.412.86.79 1.98 1.593 3.27 2.353.817-3.29 1.884-6.52 3.194-9.69-.343.17-.684.34-1.022.51-2.35 1.23-4.37 2.68-5.668 4.05-.54.55-.86 1.03-1.03 1.35zm174.936-31.037c2.953 2.94 5.646 6.05 8.058 9.303.36-.725.7-1.454 1-2.183.93-2.29 1.54-4.536 1.71-6.303.09-.89.05-1.532-.01-1.92-.33-.12-.87-.26-1.59-.304-.42-.034-.78-.047-1.14-.047-1.71 0-3.74.29-5.87.835-.72.19-1.43.395-2.13.618z"/><path fill="#333" d="M134.394 51.92c23.11 0 44.253 6.85 60.552 18.192 3.753-2.95 7.936-5.324 12.403-7.203 3.48-1.4 7.18-2.51 11.38-2.82.56-.04 1.13-.06 1.71-.06 1.6 0 3.29.15 5.05.58 2.39.58 4.96 1.77 7.11 3.7.86.9.59.5 1.29 1.34.57.66 1.1 1.37 1.42 1.9.76 1.16 1.3 2.37 1.77 3.58.87 2.4 1.23 4.73 1.37 6.94.23 4.42-.39 8.44-1.35 12.27-.98 3.83-2.35 7.47-4.08 11.02-1.76 3.54-3.84 6.97-6.77 10.31l-.27.31c-.09.1-.2.18-.29.27 1.3 5.06 1.99 10.31 1.99 15.7 0 42.02-41.78 76.08-93.32 76.08-48.53 0-88.4-30.19-92.9-68.78-3.44-1.42-6.69-3.12-9.81-5.18-3.29-2.21-6.44-4.77-9.23-8.21-1.38-1.74-2.67-3.71-3.64-6.08-.47-1.21-.88-2.47-1.09-3.85-.13-.6-.2-1.49-.23-2.36-.04-1.09.03-.62.07-1.86.29-2.87 1.4-5.48 2.79-7.52 1.38-2.04 3.01-3.61 4.66-4.92 3.32-2.6 6.82-4.25 10.33-5.55 5.57-1.95 11.32-3.08 17.15-3.08 1.13 0 2.26.05 3.39.13 16.61-21 45.56-34.91 78.5-34.91m83.33 41.8c1.77-2.47 3.34-5.27 4.49-8.06 1.03-2.54 1.77-5.17 1.99-7.45.23-2.35-.16-3.93-.63-4.68-.43-.8-2.16-1.76-4.72-1.92-.45-.04-.92-.06-1.4-.06-2.15 0-4.53.36-6.87.96-2.87.75-5.75 1.8-8.48 3.14 6.22 5.34 11.49 11.42 15.61 18.06M41.91 117.62c1.33-7.96 4.17-15.53 8.278-22.51-3.78.83-7.46 2.22-10.816 3.96-2.615 1.37-5.03 3.05-6.74 4.862-1.79 1.84-2.44 3.71-2.217 4.59.156.867.928 2.31 2.678 3.89 1.695 1.552 4 3 6.47 4.19.76.364 1.55.7 2.35 1.017m92.47-73.71c-32.74 0-63.11 12.93-82.15 34.78-6.375.03-12.95 1.21-19.536 3.52l-.064.02-.067.02c-4.98 1.84-8.946 3.98-12.48 6.74l-.035.02-.03.03c-2.57 2.05-4.62 4.23-6.28 6.67-2.3 3.37-3.73 7.25-4.13 11.2l-.03.29v.29l-.01.29c-.07.67-.08 1.18-.05 2.05.03.9.11 2.24.35 3.49.35 2.19.98 3.99 1.49 5.33l.03.08.03.08c1.13 2.78 2.7 5.4 4.78 8.03l.03.03.03.03c2.97 3.64 6.46 6.76 10.98 9.8l.02.01.03.01c2.23 1.47 4.53 2.8 6.96 4 3.52 19.18 14.9 36.72 32.42 49.78 18.6 13.87 42.66 21.5 67.74 21.5 26.77 0 52-8.55 71.04-24.08 19.52-15.92 30.27-37.23 30.27-60 0-4.55-.44-9.1-1.31-13.58 2.15-2.8 4.03-5.88 5.81-9.47l.02-.02.01-.02c2.02-4.14 3.53-8.25 4.64-12.55 1.34-5.34 1.84-9.99 1.59-14.68v-.09c-.21-3.36-.81-6.37-1.84-9.17l-.02-.06-.02-.06c-.47-1.24-1.24-3.09-2.47-4.99-.55-.9-1.3-1.9-2.11-2.84-.53-.63-.86-.98-1.34-1.41-.07-.07-.13-.14-.23-.24l-.22-.23-.23-.21c-2.94-2.65-6.6-4.56-10.56-5.53-2.25-.55-4.52-.81-6.94-.81-.71 0-1.45.02-2.2.07h-.08c-4.48.32-8.86 1.39-13.79 3.37l-.06.02-.06.03c-3.36 1.41-6.53 3.06-9.46 4.91-17.39-10.7-38.6-16.53-60.39-16.53zm-108.12 64.5c-.02.64-.055.92-.08 1.15.037.15.055.47.094.72.148.91.33 1.54.664 2.41.48 1.14 1.24 2.4 2.34 3.78 1.85 2.28 4.11 4.27 7.26 6.38 2.47 1.63 5.2 3.07 8.32 4.36l4.73 1.96.6 5.09c4 34.25 40.99 61.07 84.22 61.07 46.65 0 84.6-30.22 84.6-67.36 0-4.49-.58-9.04-1.73-13.51l-1.19-4.65 3.61-3.82c2.24-2.6 3.9-5.16 5.56-8.5 1.48-3.05 2.62-6.11 3.44-9.31.9-3.64 1.24-6.63 1.09-9.65-.11-1.67-.38-3.11-.86-4.42-.28-.73-.56-1.32-.86-1.77-.32-.5-.51-.75-.71-.98-.11-.12-.31-.31-.74-.75-.86-.72-1.97-1.26-3.16-1.56-1.24-.3-2.7-.36-4.15-.29-2.66.2-5.36.87-8.68 2.2-3.63 1.53-7.12 3.58-10.24 6.04l-5.08 4-5.31-3.69c-15.44-10.77-35.17-16.7-55.56-16.7-29.17 0-55.94 11.83-71.6 31.64l-2.89 3.65-4.63-.36c-5.54-.43-11.19.4-17.03 2.45-3.22 1.18-5.68 2.49-7.84 4.18-1.19.95-2.11 1.91-2.83 2.97-.68 1-1.13 2.15-1.29 3.26z"/><path fill="#676767" d="M191.915 77.983s28.5-16.587 36.174-9.058c7.66 7.535-1.44 30.922-10.32 39.966 0 .01 1.64-23.59-25.86-30.9z"/><path fill="#B3B3B3" d="M194.487 80.612c4.57-3.906 10.355-6.587 16.11-8.1 2.858-.73 5.776-1.107 8.26-.904 2.562.16 4.294 1.113 4.722 1.915.46.75.86 2.334.62 4.68-.22 2.285-.96 4.908-1.99 7.45-2.09 5.044-5.51 10.185-9.07 13.166-3.91 3.29-4.42 9.11-1.13 13.02 3.29 3.9 9.11 4.41 13.01 1.12.35-.3.68-.61.97-.94l.27-.32c2.93-3.35 5.01-6.78 6.77-10.32 1.73-3.55 3.09-7.19 4.07-11.02.95-3.84 1.58-7.86 1.35-12.28-.15-2.21-.5-4.54-1.38-6.94-.47-1.22-1.01-2.42-1.77-3.59-.32-.53-.85-1.25-1.43-1.91-.71-.84-.44-.44-1.3-1.34-2.15-1.93-4.72-3.12-7.11-3.71-2.4-.58-4.65-.66-6.77-.53-4.2.3-7.9 1.41-11.38 2.81-6.86 2.88-13.06 6.9-18.03 12.43-1.35 1.52-1.23 3.86.3 5.21 1.39 1.26 3.48 1.25 4.87.05z"/><path fill="#fff" d="M227.714 127.996c0 42.02-41.777 76.085-93.32 76.085-51.55 0-93.334-34.06-93.334-76.08 0-42.01 41.785-76.07 93.334-76.07 51.543 0 93.32 34.06 93.32 76.08z"/><path fill="#B3B3B3" d="M219.34 129.5c0 34.764-33.868 62.946-75.645 62.946-41.77 0-75.64-28.183-75.64-62.946 0-34.765 33.87-62.948 75.64-62.948 41.777 0 75.646 28.183 75.646 62.948z"/><path fill="#999898" d="M143.694 195.354c-43.31 0-78.55-29.538-78.55-65.854 0-36.31 35.24-65.854 78.55-65.854 43.316 0 78.555 29.545 78.555 65.854 0 36.315-35.24 65.854-78.56 65.854zm0-125.89c-40.108 0-72.733 26.933-72.733 60.036 0 33.105 32.63 60.037 72.74 60.037 40.11 0 72.74-26.932 72.74-60.037 0-33.104-32.62-60.037-72.73-60.037z"/><path fill="none" stroke="#333" stroke-width="2" stroke-linecap="round" stroke-miterlimit="10" d="M127.282 163.265m28.86-27.632"/><path fill="#333" d="M121.07 132.035c-8.036 0-14.444-8.063-20.165-25.393-.756-2.29.482-4.755 2.773-5.51 2.295-.768 4.762.015 5.51 2.306 6.094 18.472 10.965 18.942 11.877 18.942h.006c3.94 0 10.07-9.762 13.12-18.942.76-2.295 3.22-3.29 5.51-2.537 2.29.76 3.53 3.34 2.78 5.63-1.4 4.24-9.01 25.51-21.39 25.51zm63.992 0c-8.04 0-14.445-8.063-20.168-25.393-.754-2.29.484-4.755 2.775-5.51 2.29-.768 4.76.015 5.5 2.306 6.09 18.472 10.96 18.942 11.88 18.942 3.93 0 10.06-9.762 13.11-18.942.76-2.295 3.22-3.29 5.51-2.537 2.29.76 3.52 3.34 2.77 5.63-1.4 4.24-9.01 25.51-21.4 25.51z"/><path fill="#676767" d="M56.913 90.612S24.647 97.412 24 108.146c-.638 10.733 21.798 21.98 34.448 22.74 0 .002-17.03-16.403-1.535-40.274z"/><path fill="#B3B3B3" d="M56.766 94.293c-6.012.163-12.102 2.05-17.383 4.79-2.613 1.373-5.027 3.05-6.738 4.865-1.79 1.84-2.438 3.706-2.217 4.587.154.868.926 2.31 2.676 3.89 1.693 1.553 3.998 3 6.47 4.19 4.925 2.35 10.913 3.87 15.556 3.696 5.107-.18 9.383 3.8 9.566 8.91.176 5.11-3.805 9.39-8.902 9.56-.465.02-.914.01-1.357-.04l-.408-.05c-4.42-.51-8.26-1.67-11.94-3.12-3.67-1.47-7.11-3.25-10.42-5.43-3.29-2.21-6.44-4.77-9.23-8.21-1.38-1.73-2.67-3.7-3.64-6.07-.47-1.21-.88-2.47-1.09-3.85-.13-.6-.2-1.49-.23-2.36-.04-1.09.03-.62.07-1.86.29-2.87 1.4-5.48 2.79-7.52 1.39-2.04 3.01-3.6 4.66-4.92 3.32-2.59 6.82-4.24 10.33-5.54 7.01-2.46 14.32-3.63 21.71-2.86 2.02.22 3.5 2.04 3.28 4.07-.19 1.87-1.75 3.26-3.58 3.3z"/><path fill="#C1272D" d="M173.52 163.265c0 10.896-10.29 19.717-22.968 19.717-12.688 0-22.975-8.82-22.975-19.717s10.288-19.718 22.975-19.718c12.677 0 22.97 8.822 22.97 19.718z"/><path fill="#fff" d="M174.563 137.865s5.486 3.843 10.555-1.244c5.063-5.09 22.2-20.82 34.018-3.09 11.822 17.73-15.032 40.85-44.573 4.34z"/><path fill="#2974A7" d="M179.087 136.4c0 3.862-5.16 6.992-11.523 6.992-6.355 0-11.52-3.13-11.52-6.992 0-3.864 5.164-6.994 11.52-6.994 6.363 0 11.523 3.13 11.523 6.994z"/></svg>