<svg xmlns="http://www.w3.org/2000/svg" width="256" height="256" viewBox="0 0 256 256"><path fill="#fff" d="M109.593 222.764c-11.35 0-21.798-12.306-25.407-29.925-.58-2.82-.965-5.69-1.154-8.56C50.78 170.4 30.86 143.41 30.86 113.31c0-1.042.026-2.112.08-3.2-2.67-2.3-5.095-4.913-7.52-8.097-2.622-3.47-4.757-6.983-6.538-10.75-2.138-4.597-3.408-8.703-4.005-12.946-.386-2.985-.373-5.67.033-8.256.235-1.32.58-2.95 1.287-4.68.385-1.04.964-2.11 1.28-2.67.36-.63.522-.88.772-1.21.06-.09.15-.21.36-.53l.08-.12.09-.11c2.52-3.33 5.63-5.22 7.79-6.21 2.33-1.07 4.77-1.75 7.68-2.13 1.45-.17 2.9-.26 4.36-.26 2.69 0 5.43.29 8.62.89 4.77 1 9.2 2.48 13.24 4.41 18.25-15.38 43.48-24.16 69.71-24.16 26.81 0 52.43 9.12 70.78 25.1 3.44-1.58 7.16-2.86 11.1-3.8 3.6-.8 6.66-1.17 9.71-1.17 1.09 0 2.19.04 3.26.14 2.89.29 5.43.91 7.79 1.92 2.2.95 5.36 2.75 7.96 5.99l.09.11.08.12c.22.32.32.45.4.55.26.33.42.57.81 1.21.55.91 1.03 1.84 1.35 2.62.6 1.36 1.04 2.81 1.4 4.58.5 2.63.59 5.25.29 8.28-.47 4.29-1.62 8.44-3.63 13.09-1.65 3.78-3.68 7.35-6.22 10.93-2.55 3.53-5.08 6.37-7.89 8.85.01.54.02 1.06.02 1.58 0 26.85-15.99 51.5-42.92 66.43.6 5.76.42 11.56-.52 16.93-2.68 15.28-11.16 25.16-21.6 25.16-.26 0-.52-.01-.79-.02l-5.47-.3c-.3-.02-3.22-.2-7.26-1.4l-.22-.07c-.48-.17-1.13-.41-1.51-.41l-.22.01-.79-.05c-.93-.06-1.98-.14-3.12-.35-.58-.07-1.11-.19-1.54-.28-.31-.07-.72-.16-.87-.16l-.32.06h-.25l-4.02.03-.26-.03c-.43-.05-.81-.08-1.16-.08-.45 0-.84.04-1.19.13l-.12.03-.12.02c-1.24.22-2.41.28-3.45.33l-.49.03c-1.1.21-2.16.41-3.18.6-.45.09-.91.15-1.37.22-.42.06-.95.13-1.15.2l-.11.04-.11.03c-1.18.34-2.28.52-3.1.64l-.12.02c-.41.05-.79.1-1.12.15l-.52.07h-.12l-.55.23-.29.11c-1.92.79-3.96 1.2-6.03 1.2zM211.975 72.52c2.246 3.12 4.23 6.358 5.938 9.696.23-.345.454-.69.67-1.038 1.29-2.092 2.253-4.2 2.707-5.938.236-.87.298-1.513.298-1.906-.308-.173-.812-.395-1.51-.555-1.293-.33-2.82-.49-4.498-.49-.828 0-1.698.04-2.585.11-.34.03-.68.06-1.02.11zM34.35 72.13c.013.39.092 1.024.346 1.868.515 1.743 1.538 3.83 2.887 5.895.377.57.778 1.14 1.2 1.703 1.883-3.59 4.086-7.063 6.595-10.396-.83-.104-1.665-.184-2.504-.24-.565-.032-1.16-.05-1.75-.05-1.993 0-3.79.208-5.2.6-.747.195-1.264.436-1.574.62z"/><path fill="#333" d="M128.197 37.236c27.948 0 53.02 10.02 70.124 25.887 3.98-2.1 8.26-3.633 12.7-4.696 2.79-.62 5.69-1.057 8.78-1.057.95 0 1.92.04 2.91.13 2.11.21 4.32.647 6.6 1.613 2.26.97 4.6 2.56 6.41 4.812.71 1.02.5.59 1.07 1.535.45.74.86 1.52 1.09 2.105.57 1.277.91 2.552 1.17 3.822.48 2.513.45 4.877.23 7.08-.48 4.4-1.75 8.258-3.32 11.894-1.58 3.62-3.53 6.99-5.81 10.21-2.31 3.21-4.91 6.26-8.35 9.09l-.27.23-.07.06c.06 1.12.1 2.25.1 3.38 0 26.99-17.23 50.7-43.22 64.2.9 6.06.91 12.42-.15 18.47-2.38 13.64-9.53 21.85-17.66 21.85-.19 0-.39 0-.59-.01l-5.44-.3s-2.64-.14-6.35-1.23c-.88-.32-1.83-.64-2.86-.64h-.15c-1.07-.08-2.21-.13-3.37-.36-.98-.09-1.98-.49-3.01-.49-.19 0-.4.02-.6.05l-3.75.03c-.55-.06-1.1-.1-1.65-.1-.71 0-1.42.07-2.12.24-1.24.22-2.49.24-3.7.31-1.19.23-2.34.44-3.43.65-1.09.22-2.19.26-3.09.57-.92.27-1.79.42-2.58.53-.58.07-1.08.14-1.49.19-.36.01-.75-.01-1.23.25-.39.18-.61.26-.61.26l-.29.12c-1.5.62-3.02.91-4.54.91-9.17 0-18.22-10.77-21.49-26.73-.72-3.52-1.11-7.04-1.19-10.47-30.84-12.42-52.05-38.31-52.05-68.25 0-1.68.07-3.34.21-4.99-3.44-2.7-6.1-5.63-8.46-8.73-2.37-3.14-4.41-6.46-6.1-10.03-1.66-3.59-3.04-7.41-3.66-11.8-.28-2.19-.37-4.55.03-7.07.23-1.28.53-2.57 1.07-3.86.21-.58.6-1.38 1.03-2.14.53-.95.35-.51 1.02-1.56 1.74-2.3 4.03-3.96 6.27-4.99 2.24-1.03 4.44-1.53 6.53-1.8 1.32-.16 2.59-.23 3.84-.23 2.74 0 5.35.33 7.88.82 5.12 1.07 10.03 2.79 14.57 5.26 17.06-15.34 41.7-24.96 69.1-24.96M39.81 88.8c3.04-7.287 7.405-14.073 12.85-20.178-3.125-.902-6.36-1.446-9.527-1.653-.673-.04-1.345-.06-2.01-.06-2.248 0-4.418.23-6.275.75-2.477.64-4 1.9-4.264 2.77-.316.82-.398 2.46.28 4.71.65 2.2 1.868 4.63 3.368 6.93 1.57 2.38 3.51 4.71 5.58 6.72m177.148.98c1.876-1.98 3.612-4.23 5.02-6.51 1.444-2.34 2.598-4.81 3.178-7.03.616-2.27.478-3.91.14-4.72-.28-.86-1.845-2.09-4.333-2.66-1.618-.41-3.465-.59-5.387-.59-.962 0-1.942.04-2.925.13-2.607.25-5.254.73-7.844 1.45 5.18 6.05 9.3 12.75 12.16 19.91M128.2 29.23c-26.23 0-51.54 8.51-70.33 23.5-3.675-1.557-7.604-2.776-11.74-3.64l-.07-.016-.07-.014c-3.436-.65-6.414-.96-9.37-.96-1.61 0-3.224.1-4.796.29l-.04.006-.042.006c-3.26.43-6.15 1.236-8.83 2.468-3.7 1.7-6.92 4.27-9.31 7.432l-.18.24-.163.25c-.09.13-.14.213-.18.27-.42.55-.68.96-1.1 1.705-.44.762-1.06 1.943-1.51 3.156-.84 2.056-1.23 3.938-1.49 5.357l-.02.083-.02.084c-.47 2.965-.49 6.02-.06 9.34v.092c.65 4.64 2.03 9.11 4.33 14.05 1.92 4.06 4.19 7.8 6.97 11.48 2.17 2.85 4.33 5.27 6.66 7.43-.01.49-.02.98-.02 1.47 0 16.26 5.58 32.03 16.15 45.61 9.12 11.71 21.57 21.34 36.23 28.05.23 2.24.57 4.47 1.02 6.67 4.05 19.8 15.84 33.11 29.32 33.11 2.57 0 5.11-.5 7.55-1.5l.26-.11.07-.03.16-.02c.31-.05.66-.09 1.06-.14l.12-.02.12-.02c.94-.14 2.2-.35 3.6-.75l.21-.06.02-.01c.15-.03.39-.06.58-.09.44-.06.98-.14 1.57-.25.93-.17 1.9-.36 2.91-.55l.2-.01c1.1-.05 2.47-.12 3.95-.38l.23-.04.23-.06s.08-.02.25-.02c.18 0 .41.02.67.05l.52.06.52-.01c.74-.01 1.48-.02 2.22-.02l1.53-.01.44-.01.08.02c.47.1 1.08.24 1.8.34 1.32.24 2.5.32 3.46.39l.52.04.43.03.03-.01.46.16.22.08.22.06c4.48 1.33 7.84 1.54 8.2 1.56l5.41.3h.06c.32.02.65.02.97.02 12.49 0 22.51-11.18 25.54-28.48.86-4.91 1.12-10.16.78-15.41 26.8-15.73 42.65-40.98 42.71-68.48 2.49-2.37 4.8-5.05 7.09-8.23l.02-.03.02-.03c2.69-3.8 4.86-7.61 6.61-11.62 2.18-5.06 3.43-9.57 3.94-14.22v-.09c.33-3.38.23-6.44-.33-9.37l-.01-.06-.01-.05c-.42-2.03-.94-3.73-1.64-5.34-.53-1.29-1.24-2.52-1.63-3.15-.43-.72-.69-1.09-1.07-1.58-.05-.07-.12-.15-.27-.37L242 59l-.175-.22c-2.47-3.07-5.75-5.54-9.485-7.15-2.77-1.18-5.69-1.9-8.97-2.22l-.03-.01h-.03c-1.2-.11-2.42-.16-3.63-.16-3.35 0-6.69.39-10.52 1.25l-.06.01-.06.02c-3.31.79-6.49 1.81-9.49 3.03-18.9-15.59-44.63-24.44-71.47-24.44z"/><path fill="#676767" d="M62.52 68.78s-31.138-10.855-37.24-2c-6.087 8.858 7.294 30.08 17.74 37.272 0 .002-6.104-22.847 19.5-35.27z"/><path fill="#B3B3B3" d="M60.49 71.855c-5.23-2.967-11.416-4.498-17.355-4.887-2.945-.17-5.88.018-8.285.69-2.477.64-4 1.904-4.264 2.774-.316.825-.398 2.46.28 4.716.65 2.204 1.868 4.636 3.368 6.932 3.006 4.556 7.348 8.952 11.408 11.2 4.465 2.483 6.064 8.108 3.584 12.568-2.484 4.46-8.105 6.065-12.56 3.584-.41-.22-.784-.47-1.136-.744l-.324-.25c-3.518-2.733-6.21-5.703-8.605-8.847-2.37-3.14-4.41-6.45-6.1-10.03-1.67-3.58-3.04-7.41-3.66-11.79-.28-2.19-.37-4.55.03-7.07.23-1.28.53-2.57 1.07-3.85.21-.58.6-1.38 1.03-2.14.53-.95.35-.51 1.02-1.56 1.74-2.3 4.04-3.96 6.28-4.98 2.25-1.03 4.44-1.53 6.53-1.8 4.2-.5 8.04-.11 11.72.59 7.28 1.53 14.14 4.3 20.07 8.77 1.62 1.24 1.95 3.56.71 5.18-1.13 1.51-3.18 1.89-4.77.98z"/><path fill="#676767" d="M193.334 70.785c-11.568-5.2 30.81-11.737 37.164-3.056 6.346 8.68-3.928 27.01-14.158 34.49 0 0 2.943-19.75-23.006-31.44z"/><path fill="#B3B3B3" d="M191.213 67.77c5.79-4.652 12.574-7.613 19.807-9.343 3.648-.812 7.482-1.308 11.68-.926 2.107.21 4.32.65 6.595 1.62 2.258.97 4.6 2.56 6.41 4.81.71 1.02.496.59 1.065 1.54.45.74.855 1.52 1.09 2.11.563 1.28.904 2.55 1.164 3.82.48 2.52.447 4.88.23 7.08-.484 4.4-1.755 8.26-3.324 11.9-1.58 3.62-3.53 6.99-5.808 10.21-2.312 3.21-4.916 6.26-8.353 9.09l-.28.23c-3.95 3.24-9.76 2.67-13.01-1.27-3.24-3.94-2.67-9.77 1.27-13 .36-.29.77-.58 1.14-.81 4-2.37 8.21-6.89 11.08-11.52 1.44-2.33 2.59-4.81 3.17-7.03.61-2.27.47-3.9.14-4.71-.28-.86-1.85-2.09-4.34-2.66-2.43-.6-5.37-.7-8.32-.45-5.92.56-12.06 2.27-17.21 5.39-1.74 1.07-4.02.51-5.08-1.24-.97-1.6-.58-3.65.84-4.8z"/><path fill="#fff" d="M221.518 113.313c0 42.02-41.778 76.082-93.32 76.082-51.55 0-93.337-34.06-93.337-76.082 0-42.014 41.79-76.077 93.34-76.077 51.54 0 93.32 34.064 93.32 76.077z"/><path fill="#B3B3B3" d="M201.51 111.155c0 34.274-33.87 62.075-75.65 62.075-41.77 0-75.64-27.8-75.64-62.075 0-34.288 33.87-62.087 75.64-62.087 41.78 0 75.65 27.8 75.65 62.087z"/><path fill="#999898" d="M125.86 176.137c-43.308 0-78.55-29.152-78.55-64.98 0-35.843 35.242-64.995 78.55-64.995 43.318 0 78.558 29.152 78.558 64.995 0 35.827-35.24 64.98-78.557 64.98zm0-124.158c-40.104 0-72.73 26.54-72.73 59.17 0 32.62 32.626 59.16 72.73 59.16 40.107 0 72.74-26.54 72.74-59.17s-32.633-59.18-72.74-59.18z"/><path fill="#fff" d="M201.954 82.978c0 19.96-8.315 50.82-36.14 50.82-33.254 0-36.146-30.86-36.146-50.82 0-19.962 16.18-36.14 36.146-36.14 19.965 0 36.14 16.178 36.14 36.14zm-75.617 0c0 19.96-2.14 50.82-32.766 50.82-30.09 0-39.52-30.86-39.52-50.82 0-19.962 17.16-35.145 37.12-35.145 19.97 0 35.17 15.183 35.17 35.145z"/><path fill="#333" d="M127.12 155.852c-3.214 0-5.5-2.603-5.5-5.813v-34.91c0-3.22 2.286-5.82 5.5-5.82s5.5 2.6 5.5 5.82v34.9c0 3.21-2.286 5.81-5.5 5.81z"/><path fill="#2974A7" d="M137.984 115.898c0 3.863-5.158 6.993-11.52 6.993-6.358 0-11.524-3.13-11.524-6.99s5.166-6.99 11.523-6.99c6.363 0 11.52 3.13 11.52 6.99zm10.336-17.663c0 3.64-2.953 6.596-6.596 6.596-3.646 0-6.597-2.95-6.597-6.59 0-3.64 2.95-6.6 6.597-6.6 3.643 0 6.596 2.96 6.596 6.6z"/><path fill="#fff" d="M140.715 96.326c0 1.246-1.006 2.252-2.25 2.252-1.242 0-2.248-1.006-2.248-2.252 0-1.24 1.006-2.245 2.248-2.245 1.244 0 2.25 1.01 2.25 2.25zm2.48 2.43c0 .584-.48 1.058-1.06 1.058-.584 0-1.06-.474-1.06-1.058s.476-1.058 1.06-1.058c.582 0 1.06.474 1.06 1.058z"/><path fill="#2974A7" d="M116.32 98.235c0 3.64-2.953 6.596-6.596 6.596-3.645 0-6.596-2.95-6.596-6.59 0-3.64 2.95-6.6 6.596-6.6 3.643 0 6.596 2.96 6.596 6.6z"/><path fill="#fff" d="M108.715 96.326c0 1.246-1.006 2.252-2.25 2.252-1.242 0-2.248-1.006-2.248-2.252 0-1.24 1.006-2.245 2.248-2.245 1.244 0 2.25 1.01 2.25 2.25zm2.48 2.43c0 .584-.48 1.058-1.06 1.058-.583 0-1.058-.474-1.058-1.058s.475-1.058 1.06-1.058c.58 0 1.058.474 1.058 1.058z"/><path fill="#C1272D" d="M101.663 160.344s.14-.173.392-.496c.18-.268.726-.883 1.55-1.604.776-.688 1.717-1.518 2.8-2.464.954-.773 2.04-1.616 3.254-2.45 1.2-.934 2.53-1.607 3.96-2.34 1.42-.715 2.91-1.586 4.52-2.135 3.24-.888 6.66-2.313 10.3-2.293 1.81-.053 3.61-.107 5.4-.156 1.76-.174 3.58.512 5.29.783 1.73.33 3.39.8 4.97 1.21 1.58.28 3.06 1.07 4.42 1.79 5.46 2.86 8.96 5.26 8.96 5.26 8.87 6.05 14.01 22.68 11.47 37.15-1.96 11.15-7.9 17.77-14.58 17.44l-4.35-.24s-2.12-.11-5.07-.99c-.75-.27-1.54-.54-2.41-.51-.87-.07-1.77-.11-2.7-.29-.94-.1-1.89-.53-2.89-.36l-3 .02c-1.01-.13-2.03-.14-3.02.1-.99.17-1.99.19-2.96.24-.95.18-1.87.35-2.74.51-.88.17-1.75.2-2.47.45-.74.21-1.44.33-2.06.42-.46.05-.86.11-1.19.15-.28.01-.6-.01-.99.2-.32.14-.49.2-.49.2l-.23.09c-8.44 3.46-17.76-5.77-20.8-20.63-2.35-11.42-.28-22.88 4.63-29.12z"/><radialGradient id="a" cx="130.122" cy="239.389" r="149.271" gradientTransform="matrix(1 0 0 -1 0 257)" gradientUnits="userSpaceOnUse"><stop offset="0" stop-color="#0071BC"/><stop offset="1" stop-color="#0071BC" stop-opacity="0"/></radialGradient><path fill="url(#a)" d="M128.197 37.236c-51.55 0-93.338 34.063-93.338 76.077 0 42.02 41.78 76.082 93.33 76.082 51.54 0 93.32-34.06 93.32-76.082 0-42.013-41.78-76.077-93.32-76.077zM93.57 133.798c-26.836 0-37.234-24.54-39.17-44.01 20.866-5.908 43.166-16.344 58.736-34.737 8.06 6.63 13.2 16.68 13.2 27.93 0 19.96-2.138 50.82-32.765 50.82zm72.244 0c-33.254 0-36.146-30.86-36.146-50.82 0-11.745 5.604-22.175 14.28-28.776 15.178 18.413 37.05 29.01 57.736 35.095-1.606 19.544-10.846 44.5-35.87 44.5z"/></svg>