<?xml version="1.0" encoding="utf-8"?>
<!-- Generator: Adobe Illustrator 16.0.0, SVG Export Plug-In . SVG Version: 6.00 Build 0)  -->
<!DOCTYPE svg PUBLIC "-//W3C//DTD SVG 1.1//EN" "http://www.w3.org/Graphics/SVG/1.1/DTD/svg11.dtd">
<svg version="1.1" id="Layer_1" xmlns="http://www.w3.org/2000/svg" xmlns:xlink="http://www.w3.org/1999/xlink" x="0px" y="0px"
	 width="256px" height="256px" viewBox="0 0 256 256" enable-background="new 0 0 256 256" xml:space="preserve">
<path fill="#CCCCCC" d="M129.652,215.337c-20.16,0-41.311-2.76-62.858-8.2l-0.12-0.029c-0.476-0.139-11.746-3.459-18.303-14.11
	c-3.32-5.408-3.59-16.431-3.37-23.397c-9.25-12.513-14.13-26.865-14.13-41.602c0-1.04,0.03-2.112,0.08-3.2
	c-2.66-2.292-5.09-4.906-7.52-8.093c-2.62-3.476-4.75-6.987-6.53-10.753c-2.14-4.593-3.41-8.702-4-12.95
	c-0.38-2.972-0.37-5.658,0.04-8.252c0.33-1.887,0.73-3.316,1.29-4.686c0.39-1.04,0.97-2.115,1.28-2.673
	c0.36-0.63,0.521-0.88,0.771-1.21c0.07-0.09,0.16-0.21,0.37-0.53l0.08-0.12l0.09-0.12c2.52-3.33,5.63-5.21,7.8-6.21
	c2.32-1.06,4.83-1.76,7.69-2.13c1.46-0.17,2.91-0.26,4.36-0.26c2.7,0,5.44,0.29,8.62,0.89c4.77,1,9.2,2.47,13.25,4.4
	c18.25-15.39,43.48-24.17,69.7-24.17c26.81,0,52.44,9.12,70.78,25.11c3.439-1.58,7.16-2.85,11.109-3.8c3.59-0.8,6.66-1.16,9.7-1.16
	c1.101,0,2.2,0.05,3.28,0.15c2.899,0.29,5.439,0.92,7.789,1.92c2.201,0.95,5.36,2.75,7.961,5.99l0.09,0.11l0.08,0.12
	c0.22,0.32,0.32,0.45,0.39,0.54c0.271,0.34,0.431,0.57,0.82,1.2c0.56,0.92,1.04,1.85,1.36,2.64c0.6,1.36,1.039,2.82,1.399,4.58
	c0.5,2.62,0.59,5.31,0.29,8.28c-0.471,4.28-1.62,8.43-3.63,13.08c-1.65,3.79-3.681,7.36-6.22,10.94
	c-2.551,3.54-5.08,6.38-7.891,8.86c0.02,0.54,0.02,1.06,0.02,1.58c0,17.659-7.159,34.96-20.209,48.89
	c0.08,7.59-0.86,12.87-2.851,16.1c-6.1,9.94-16.3,13.49-18.06,14.051c-2.29,0.93-21.641,8.31-54.74,8.31h-0.01l-0.04-0.069
	L129.652,215.337z M211.973,87.205c2.246,3.12,4.229,6.357,5.939,9.694c0.23-0.35,0.449-0.7,0.667-1.04
	c1.29-2.09,2.25-4.2,2.71-5.94c0.23-0.87,0.29-1.52,0.29-1.91c-0.31-0.17-0.81-0.4-1.521-0.56c-1.3-0.32-2.83-0.48-4.51-0.48
	c-0.83,0-1.689,0.03-2.57,0.11c-0.34,0.03-0.68,0.07-1.029,0.11l0.01,0.01L211.973,87.205z M34.348,86.815
	c0.013,0.388,0.092,1.018,0.346,1.853c0.516,1.754,1.538,3.84,2.89,5.908c0.376,0.57,0.778,1.14,1.2,1.704
	c1.882-3.59,4.085-7.064,6.594-10.397c-0.83-0.104-1.663-0.184-2.5-0.238c-0.568-0.033-1.164-0.05-1.754-0.05
	c-1.993,0-3.79,0.207-5.2,0.6C35.176,86.389,34.658,86.631,34.348,86.815L34.348,86.815z"/>
<path fill="#333333" d="M128.197,51.918c27.949,0,53.022,10.02,70.126,25.89c3.978-2.1,8.25-3.634,12.692-4.698
	c2.789-0.62,5.687-1.057,8.77-1.057c0.953,0,1.924,0.042,2.915,0.132c2.104,0.21,4.317,0.646,6.592,1.613
	c2.256,0.97,4.603,2.562,6.408,4.813c0.707,1.02,0.498,0.59,1.067,1.54c0.455,0.75,0.855,1.53,1.088,2.11
	c0.563,1.28,0.904,2.55,1.164,3.83c0.47,2.51,0.439,4.88,0.22,7.08c-0.48,4.41-1.771,8.27-3.32,11.9
	c-1.58,3.62-3.53,6.99-5.81,10.21c-2.32,3.21-4.92,6.26-8.36,9.09l-0.28,0.23l-0.08,0.06c0.061,1.12,0.101,2.25,0.101,3.38
	c0,17.9-7.58,34.33-20.24,47.32c0.19,6.85-0.42,12.64-2.229,15.58c-5.82,9.459-16,12.359-16,12.359s-19.24,8.08-53.4,8.08
	c-17.08,0-37.89-2.02-61.88-8.08c0,0-10.18-2.9-16-12.359c-2.33-3.791-3.15-12.771-2.73-22.57c-8.99-11.68-14.18-25.52-14.18-40.33
	c0-1.67,0.07-3.34,0.2-4.99c-3.45-2.7-6.1-5.63-8.47-8.72c-2.38-3.15-4.41-6.46-6.1-10.03c-1.68-3.58-3.05-7.41-3.66-11.79
	c-0.29-2.19-0.38-4.55,0.02-7.08c0.22-1.28,0.52-2.57,1.06-3.86c0.21-0.58,0.59-1.38,1.02-2.14c0.53-0.95,0.34-0.51,1.02-1.56
	c1.73-2.3,4.03-3.96,6.27-4.99c2.24-1.02,4.44-1.52,6.53-1.8c1.31-0.16,2.59-0.23,3.84-0.23c2.74,0,5.34,0.34,7.87,0.82
	c5.13,1.08,10.04,2.79,14.58,5.26c17.08-15.32,41.72-24.95,69.12-24.95 M39.749,103.541c3.04-7.29,7.4-14.07,12.85-20.18
	c-3.13-0.9-6.36-1.44-9.53-1.65c-0.67-0.04-1.34-0.06-2.01-0.06c-2.25,0-4.42,0.23-6.27,0.75c-2.48,0.64-4,1.91-4.27,2.77
	c-0.32,0.83-0.41,2.46,0.28,4.72c0.65,2.21,1.87,4.64,3.37,6.93C35.739,99.201,37.679,101.531,39.749,103.541 M216.898,104.531
	c1.871-1.98,3.61-4.23,5.021-6.51c1.44-2.33,2.59-4.81,3.181-7.02c0.609-2.27,0.469-3.91,0.14-4.71c-0.28-0.87-1.851-2.09-4.33-2.66
	c-1.62-0.4-3.48-0.58-5.4-0.58c-0.96,0-1.94,0.05-2.92,0.13c-2.61,0.25-5.26,0.73-7.85,1.45c5.17,6.06,9.29,12.75,12.149,19.91
	 M128.189,43.941c-26.23,0-51.54,8.51-70.33,23.5c-3.68-1.55-7.61-2.77-11.74-3.64l-0.07-0.01l-0.07-0.01
	c-3.44-0.65-6.41-0.96-9.37-0.96c-1.61,0-3.23,0.1-4.8,0.29h-0.04l-0.04,0.01c-3.26,0.43-6.15,1.23-8.83,2.46
	c-3.71,1.7-6.93,4.27-9.33,7.44l-0.18,0.24l-0.16,0.25c-0.08,0.14-0.14,0.22-0.18,0.27c-0.41,0.55-0.67,0.96-1.09,1.71
	c-0.44,0.77-1.06,1.95-1.52,3.17c-0.85,2.11-1.26,4.07-1.48,5.37l-0.02,0.07l-0.01,0.08c-0.47,2.98-0.49,6.04-0.05,9.35v0.08
	c0.65,4.65,2.03,9.12,4.33,14.07c1.91,4.06,4.19,7.8,6.96,11.48c2.18,2.86,4.35,5.28,6.66,7.43c-0.01,0.5-0.02,0.99-0.02,1.47
	c0,15.16,4.86,29.919,14.1,42.86c-0.17,8.41,0.49,18.54,4,24.24c7.23,11.771,19.26,15.479,20.61,15.87l0.12,0.04l0.12,0.03
	c21.87,5.52,43.34,8.319,63.83,8.319c33.011,0,52.88-7.271,56.06-8.53c2.641-0.84,13.44-4.83,20.141-15.72
	c2.27-3.69,3.38-9.021,3.439-16.64c13.021-14.42,20.16-32.15,20.211-50.28c2.49-2.37,4.789-5.05,7.09-8.24l0.02-0.02l0.01-0.02
	c2.69-3.8,4.86-7.6,6.61-11.64c2.181-5.05,3.431-9.56,3.94-14.22V94c0.34-3.36,0.24-6.43-0.33-9.383l-0.01-0.05l-0.011-0.045
	c-0.409-2.02-0.92-3.72-1.62-5.33c-0.529-1.3-1.25-2.54-1.64-3.176c-0.431-0.72-0.69-1.097-1.08-1.59l-0.239-0.34l-0.16-0.23
	l-0.181-0.218c-3.12-3.886-6.88-6.037-9.489-7.157c-2.761-1.17-5.681-1.89-8.961-2.22h-0.06c-1.2-0.11-2.431-0.16-3.64-0.16
	c-3.351,0-6.69,0.4-10.51,1.25l-0.07,0.02l-0.07,0.02c-3.311,0.79-6.49,1.81-9.48,3.03c-18.91-15.59-44.63-24.45-71.47-24.45
	l0.09-0.04L128.189,43.941z"/>
<path fill="#676767" d="M62.52,83.466c0,0-31.137-10.856-37.238-2c-6.088,8.855,7.295,30.08,17.736,37.272
	C43.018,118.738,36.914,95.891,62.52,83.466z"/>
<path fill="#B3B3B3" d="M60.492,86.538c-5.232-2.964-11.418-4.498-17.355-4.885c-2.95-0.17-5.88,0.018-8.287,0.688
	c-2.48,0.65-4.002,1.91-4.264,2.78c-0.316,0.83-0.404,2.46,0.28,4.72c0.65,2.21,1.868,4.64,3.368,6.93
	c3.006,4.56,7.346,8.96,11.406,11.21c4.465,2.48,6.066,8.11,3.584,12.57c-2.48,4.46-8.105,6.07-12.56,3.59
	c-0.407-0.22-0.782-0.47-1.138-0.74l-0.32-0.25c-3.518-2.73-6.21-5.7-8.607-8.84c-2.38-3.15-4.41-6.46-6.1-10.03
	c-1.68-3.58-3.05-7.4-3.66-11.79c-0.29-2.19-0.38-4.55,0.02-7.07c0.22-1.28,0.52-2.57,1.06-3.86c0.21-0.58,0.59-1.38,1.02-2.14
	c0.53-0.95,0.34-0.51,1.02-1.56c1.74-2.3,4.03-3.96,6.27-4.99c2.24-1.02,4.44-1.52,6.53-1.8c4.19-0.5,8.03-0.11,11.71,0.6
	c7.28,1.52,14.13,4.29,20.06,8.77c1.62,1.24,1.95,3.56,0.71,5.18c-1.13,1.5-3.18,1.89-4.78,0.98l0.02-0.06L60.492,86.538z"/>
<path fill="#676767" d="M193.332,85.472c-11.566-5.206,30.813-11.738,37.166-3.057c6.344,8.68-3.926,27.012-14.158,34.495
	C216.34,116.91,219.28,97.162,193.332,85.472z"/>
<path fill="#B3B3B3" d="M191.215,82.456c5.79-4.654,12.57-7.614,19.801-9.347c3.652-0.82,7.484-1.31,11.689-0.93
	c2.104,0.21,4.314,0.64,6.59,1.61c2.257,0.97,4.605,2.56,6.41,4.81c0.706,1.02,0.497,0.59,1.064,1.53
	c0.455,0.74,0.857,1.52,1.088,2.11c0.564,1.27,0.906,2.55,1.164,3.82c0.48,2.51,0.453,4.87,0.23,7.08
	c-0.482,4.4-1.755,8.26-3.322,11.89c-1.578,3.62-3.524,6.97-5.808,10.2c-2.313,3.21-4.914,6.26-8.351,9.09l-0.279,0.22
	c-3.94,3.24-9.76,2.67-13.004-1.27c-3.237-3.94-2.668-9.76,1.27-13c0.355-0.29,0.77-0.58,1.146-0.81
	c3.998-2.37,8.215-6.89,11.076-11.53c1.449-2.34,2.6-4.82,3.18-7.03c0.619-2.27,0.48-3.91,0.14-4.71c-0.278-0.87-1.84-2.1-4.33-2.66
	c-2.43-0.61-5.368-0.71-8.31-0.46c-5.92,0.56-12.061,2.27-17.21,5.38c-1.74,1.06-4.011,0.5-5.07-1.24c-0.97-1.6-0.58-3.66,0.851-4.8
	l-0.016,0.04V82.456z"/>
<path fill="#FFFFFF" d="M221.516,127.998c0,42.02-41.774,76.085-93.315,76.085c-51.56,0-93.34-34.063-93.34-76.085
	c0-42.017,41.78-76.08,93.33-76.08c51.541,0,93.31,34.063,93.31,76.08H221.516z"/>
<path fill="#B3B3B3" d="M201.508,125.84c0,34.277-33.869,62.075-75.648,62.075c-41.77,0-75.637-27.798-75.637-62.076
	c0-34.29,33.867-62.09,75.637-62.09c41.777,0,75.648,27.79,75.648,62.08V125.84L201.508,125.84z"/>
<path fill="#FFFFFF" d="M200.068,121.17c0,19.962-16.18,36.146-36.141,36.146c-19.97,0-36.146-16.187-36.146-36.146
	s16.176-36.14,36.146-36.14c19.961,0,36.131,16.18,36.131,36.14H200.068z M124.445,121.17c0,19.962-16.178,36.146-36.143,36.146
	c-19.967,0-36.143-16.187-36.143-36.146S68.33,85.03,88.3,85.03C108.267,85.03,124.444,101.21,124.445,121.17z"/>
<path fill="#2974A7" d="M112.432,116.96c0,9.235-7.488,16.729-16.73,16.729c-9.242,0-16.73-7.497-16.73-16.729
	c0-9.24,7.487-16.735,16.73-16.735C104.945,100.225,112.432,107.719,112.432,116.96z"/>
<path fill="#FFFFFF" d="M93.146,112.125c0,3.153-2.56,5.703-5.71,5.703c-3.153,0-5.704-2.55-5.704-5.703
	c0-3.146,2.55-5.697,5.705-5.697C90.587,106.428,93.147,108.978,93.146,112.125L93.146,112.125z M99.434,118.285
	c0,1.475-1.21,2.68-2.688,2.68c-1.475,0-2.68-1.205-2.68-2.68c0-1.484,1.205-2.684,2.68-2.684c1.48,0.01,2.688,1.2,2.688,2.69
	V118.285z"/>
<path fill="#2974A7" d="M177.3,117.832c0,9.2-7.444,16.652-16.642,16.652c-9.205,0-16.654-7.453-16.654-16.652
	c0-9.197,7.45-16.646,16.654-16.646C169.855,101.186,177.301,108.636,177.3,117.832z"/>
<path fill="#FFFFFF" d="M158.105,113.03c0,3.14-2.541,5.674-5.685,5.674c-3.13,0-5.67-2.533-5.67-5.675c0-3.14,2.54-5.68,5.681-5.68
	c3.149,0,5.689,2.54,5.689,5.67v0.01L158.105,113.03z M164.365,119.16c0,1.464-1.197,2.663-2.67,2.663c-1.471,0-2.67-1.2-2.67-2.664
	c0-1.49,1.199-2.68,2.67-2.68c1.473,0,2.67,1.19,2.67,2.67V119.16L164.365,119.16z"/>
<path fill="#B3B3B3" d="M111.28,93.242c-6.24-5.132-12.941-9.867-21.655-9.867c-19.967,0-37.434,17.83-37.434,37.794
	c0,2.3,0.23,4.54,0.64,6.72c20.79-5.92,42.96-16.35,58.46-34.66l-0.01,0.01L111.28,93.242z"/>
<path fill="#999898" d="M113.167,94.918c-1.31-1.24-2.71-2.38-4.194-3.415c-14.978,17.685-36.364,27.81-56.566,33.595
	c0.18,1.656,0.47,3.278,0.865,4.86C74.482,124.09,97.152,113.606,113.167,94.918z"/>
<path fill="#B3B3B3" d="M140,92.625c6.24-5.132,14.787-9,23.5-9c19.97,0,36.671,17.58,36.671,37.544c0,2.3-0.22,4.54-0.63,6.72
	c-20.78-5.92-42.95-16.35-58.45-34.66l-0.01,0.01L140,92.625z"/>
<path fill="#999898" d="M139.189,94.918c1.311-1.24,2.711-2.38,4.193-3.415c14.98,17.685,36.363,27.81,56.565,33.595
	c-0.181,1.656-0.47,3.278-0.87,4.86c-21.21-5.868-43.88-16.352-59.9-35.04h0.01H139.189z"/>
<path fill="#999898" d="M125.86,190.823c-43.31,0-78.55-29.157-78.55-64.984c0-35.84,35.24-65,78.55-65
	c43.317,0,78.556,29.15,78.556,64.99c0,35.81-35.238,64.97-78.557,64.97v0.01L125.86,190.823z M125.86,66.661
	c-40.105,0-72.73,26.55-72.73,59.18s32.626,59.17,72.73,59.17c40.108,0,72.74-26.54,72.74-59.16c0-32.63-32.63-59.18-72.74-59.18
	V66.661z"/>
<path fill="#CCCCCC" d="M25.96,126.91l0.005,0.005v-0.01L25.96,126.91z M230.311,127.75l-0.021-0.014l-4.813,4.86
	c0,0,0.033,0.323,0.066,0.405l-0.12-0.01c-5.028,4.59-17.425,14.76-27.026,18.94c-1.666-8.141-3.83-15.201-5.894-18.461
	c-1.842-2.91-9.455,0.721-9.455,0.721c-75.964,23.27-115.276,0-115.276,0s-4.36-4.36-9.45-0.73c-2.456,1.76-4.502,6.28-6.052,12.08
	c-10.996-5.561-26.21-18.53-26.305-18.61l-0.086,5.5c0,0,13.04,13.469,25.06,19.039c-0.57,2.99-1.02,6.141-1.35,9.32
	c-10.26-7-22.49-19.78-22.82-23.77c-0.33-3.99-0.55,0.189-0.55,0.819c0,0.64,2.18,12.36,3.91,14.54c0,0.02,0.01,0.01,0.02,0.02
	l-0.06,0.061c0.49,0.58,9.04,11.16,18.9,16.66c-0.35,9.5,0.49,18.12,2.76,21.811c5.82,9.459,15.99,12.359,15.99,12.359v0.02
	c71.979,18.181,115.27,0,115.27,0s10.181-2.899,16-12.359c1.95-3.17,2.5-9.641,2.16-17.19c11.79-6.2,24.17-19.63,24.17-19.63
	c4.28-5.87,3.81-13.63,3.81-13.63l0.011-0.01c0,0-16.761,16.14-28.71,24.58c-0.28-2.431-0.631-4.89-1.03-7.311
	c12.729-5.229,27.82-19.39,29.89-21.27l-0.06-1.05h0.01c1.81,0.01,0.99-7.641,0.99-7.641L230.311,127.75z"/>
<path fill="#D9F5FF" d="M129.656,205.52c-19.355,0-39.69-2.656-60.455-7.899c0.03,0-8-2.505-12.47-9.772
	c-4.67-7.59-0.9-45.189,4.98-49.66c0.23-0.166,0.56-0.362,0.83-0.362c0.42,0,1.01,0.375,1.23,0.573l0.42,0.36l0.63,0.421
	c0.77,0.449,19.26,11.149,54.59,11.149c20.409,0,42.399-3.56,65.35-10.601l0.431-0.119l0.39-0.19c0.84-0.39,2.021-0.819,2.989-1.069
	c4.91,10.76,9.471,43.14,5.561,49.489c-4.5,7.33-12.561,9.8-12.64,9.82l-0.33,0.1l-0.31,0.14c-0.181,0.07-18.781,7.621-51.141,7.621
	l-0.04-0.011L129.656,205.52z"/>
<path fill="#B7DBE5" d="M135.398,156.963c0,0-9.21,8.727-22.295,1.938c0,0,15.506,23.281,22.295-1.93V156.963z"/>
</svg>
