<svg xmlns="http://www.w3.org/2000/svg" width="256" height="256" viewBox="0 0 256 256"><path fill="#fff" d="M128.23 208.08c-24.226 0-47.434-7.355-65.352-20.71-17.313-12.905-28.33-30.337-31.218-49.3-2.97-1.353-5.722-2.874-8.358-4.618-4.21-2.827-7.42-5.688-10.125-9.017-1.867-2.348-3.243-4.654-4.235-7.082-.48-1.25-1.032-2.83-1.32-4.67-.212-1.088-.27-2.314-.287-2.96-.023-.717-.01-1.025.033-1.436.01-.11.024-.257.034-.634l.004-.153.016-.152c.43-4.154 2.12-7.378 3.46-9.35 1.448-2.12 3.237-4.013 5.477-5.8 3.24-2.533 6.87-4.484 11.44-6.17 6.31-2.213 12.52-3.325 18.52-3.325.52 0 1.05.01 1.57.025 18.19-21.834 48.03-34.81 80.32-34.81 32.27 0 62.11 12.972 80.3 34.798.38-.01.76-.013 1.14-.013 6 0 12.21 1.112 18.46 3.304 4.64 1.708 8.26 3.66 11.47 6.163 2.27 1.818 4.06 3.712 5.5 5.82 1.35 1.98 3.03 5.204 3.46 9.358l.02.155v.156c.01.37.02.52.03.63.04.4.06.71.03 1.45-.02.64-.08 1.87-.29 2.94-.29 1.83-.84 3.4-1.29 4.57-1.03 2.51-2.41 4.81-4.24 7.13-2.74 3.36-5.95 6.22-10.14 9.04-2.5 1.65-5.1 3.1-7.91 4.4-2.83 19.01-13.83 36.5-31.16 49.45-17.93 13.4-41.17 20.78-65.43 20.78zM28.36 108.043c.213.325.605.823 1.257 1.41.857.788 1.977 1.59 3.27 2.354.817-3.29 1.885-6.524 3.196-9.692-.343.167-.687.34-1.028.516-2.35 1.24-4.37 2.69-5.66 4.06-.545.56-.864 1.04-1.034 1.36zm192.112-5.655c1.23 3.006 2.24 6.074 3.027 9.188 1.12-.69 2.1-1.405 2.86-2.1.66-.604 1.06-1.108 1.28-1.436-.17-.314-.48-.778-.98-1.3-1.35-1.43-3.37-2.874-5.74-4.122-.15-.078-.3-.155-.45-.23z"/><path fill="#333" d="M128.23 51.92c32.917 0 61.853 13.896 78.465 34.883.993-.066 1.983-.1 2.973-.1 5.83 0 11.578 1.127 17.146 3.08 3.516 1.295 7.012 2.948 10.334 5.54 1.652 1.32 3.27 2.884 4.666 4.924 1.385 2.037 2.492 4.645 2.79 7.514.03 1.25.1.78.065 1.87-.03.88-.11 1.76-.23 2.37-.21 1.38-.62 2.64-1.09 3.85-.97 2.37-2.26 4.34-3.64 6.08-2.8 3.44-5.95 6-9.23 8.21-2.98 1.98-6.09 3.6-9.35 4.99-4.4 38.69-44.32 68.98-92.91 68.98-48.53 0-88.4-30.18-92.91-68.78-3.44-1.42-6.7-3.12-9.82-5.18-3.28-2.2-6.44-4.76-9.23-8.2-1.38-1.73-2.67-3.7-3.64-6.07-.47-1.21-.88-2.47-1.09-3.85-.13-.61-.21-1.49-.23-2.36-.04-1.09.03-.62.06-1.86.29-2.87 1.4-5.48 2.78-7.51 1.39-2.04 3.01-3.6 4.66-4.92 3.32-2.59 6.82-4.24 10.33-5.54 5.56-1.95 11.31-3.08 17.14-3.08 1.13 0 2.26.04 3.39.13 16.62-21.01 45.58-34.92 78.52-34.92m-92.47 65.71c1.33-7.96 4.16-15.53 8.27-22.51-3.78.83-7.46 2.22-10.82 3.96-2.61 1.38-5.03 3.05-6.74 4.87-1.79 1.84-2.44 3.71-2.21 4.59.15.87.92 2.32 2.67 3.9 1.69 1.55 4 3 6.47 4.19.76.36 1.55.7 2.35 1.02m184.9-.15c.66-.27 1.31-.55 1.94-.85 2.47-1.19 4.78-2.64 6.47-4.19 1.75-1.58 2.52-3.02 2.68-3.89.22-.88-.43-2.75-2.22-4.58-1.71-1.81-4.12-3.49-6.74-4.87-3.21-1.66-6.71-3-10.31-3.84 4.04 6.9 6.84 14.38 8.18 22.24M128.19 44c-32.74 0-63.11 12.93-82.15 34.783-6.38.03-12.95 1.22-19.54 3.53l-.06.02-.06.02c-4.98 1.83-8.94 3.98-12.49 6.74l-.04.03-.04.03c-2.55 2.04-4.6 4.22-6.27 6.66-2.31 3.39-3.74 7.26-4.14 11.2l-.03.3-.01.31-.01.31c-.07.67-.09 1.154-.06 1.997.022.92.102 2.25.34 3.52.35 2.18.98 3.99 1.5 5.33l.03.08.03.08c1.14 2.78 2.7 5.41 4.78 8.02l.03.04.03.04c2.96 3.643 6.45 6.76 10.97 9.8l.024.01.02.017c2.23 1.47 4.53 2.8 6.965 4 3.52 19.19 14.91 36.73 32.43 49.79 18.6 13.86 42.66 21.5 67.74 21.5 25.12 0 49.21-7.66 67.82-21.57 17.55-13.12 28.92-30.72 32.37-49.97 2.27-1.144 4.41-2.387 6.48-3.76 4.57-3.07 8.06-6.187 11.02-9.83l.03-.04.03-.04c2.07-2.61 3.64-5.23 4.77-8.01l.04-.084.03-.09c.51-1.34 1.14-3.14 1.49-5.31.24-1.27.32-2.62.34-3.55.03-.82.02-1.3-.05-1.94-.01-.1-.01-.19-.01-.34l-.01-.31-.03-.31c-.4-3.94-1.83-7.81-4.13-11.19-1.68-2.45-3.73-4.63-6.29-6.67l-.03-.03-.04-.02c-3.54-2.766-7.51-4.91-12.49-6.74l-.06-.023-.06-.02c-6.43-2.255-12.85-3.44-19.09-3.523-19.03-21.86-49.4-34.79-82.14-34.79z"/><path fill="#676767" d="M50.75 90.608s-32.272 6.804-32.917 17.54c-.637 10.73 21.797 21.98 34.45 22.74 0 0-17.033-16.404-1.534-40.28z"/><path fill="#B3B3B3" d="M50.598 94.292c-6.01.163-12.098 2.052-17.383 4.788-2.613 1.376-5.027 3.05-6.736 4.87-1.8 1.834-2.44 3.702-2.22 4.583.15.87.92 2.313 2.67 3.892 1.69 1.554 4 3 6.47 4.194 4.92 2.34 10.91 3.86 15.55 3.69 5.1-.19 9.38 3.8 9.56 8.9.17 5.1-3.81 9.38-8.9 9.56-.47.02-.91.01-1.36-.05l-.41-.06c-4.42-.52-8.26-1.67-11.94-3.12-3.67-1.48-7.11-3.26-10.42-5.44-3.28-2.21-6.44-4.77-9.23-8.21-1.38-1.73-2.67-3.71-3.64-6.07-.47-1.22-.88-2.48-1.09-3.86-.13-.61-.21-1.49-.23-2.37-.04-1.09.03-.62.06-1.87.29-2.87 1.4-5.48 2.79-7.52 1.39-2.04 3.01-3.61 4.66-4.93 3.32-2.59 6.82-4.25 10.33-5.54 7.02-2.46 14.32-3.63 21.71-2.87 2.02.22 3.5 2.04 3.28 4.06-.19 1.87-1.75 3.26-3.58 3.31z"/><path fill="#676767" d="M205.255 90.608s32.268 6.804 32.916 17.54c.64 10.73-21.79 21.98-34.44 22.74 0 0 17.03-16.404 1.54-40.28z"/><path fill="#B3B3B3" d="M205.4 94.292c6.013.163 12.1 2.052 17.386 4.788 2.615 1.376 5.027 3.05 6.736 4.87 1.79 1.834 2.436 3.702 2.217 4.583-.16.87-.93 2.313-2.68 3.892-1.7 1.554-4 3-6.47 4.194-4.93 2.34-10.92 3.86-15.56 3.69-5.11-.19-9.39 3.8-9.57 8.9-.18 5.1 3.8 9.38 8.9 9.56.46.02.91.01 1.35-.05l.41-.06c4.42-.52 8.26-1.67 11.93-3.12 3.66-1.48 7.11-3.26 10.41-5.44 3.28-2.21 6.44-4.77 9.23-8.21 1.37-1.73 2.67-3.71 3.64-6.07.46-1.22.87-2.48 1.08-3.86.12-.61.2-1.49.23-2.37.03-1.09-.04-.62-.07-1.87-.3-2.87-1.41-5.48-2.79-7.52-1.4-2.04-3.02-3.61-4.67-4.93-3.32-2.59-6.82-4.25-10.34-5.54-7.02-2.46-14.32-3.64-21.71-2.87-2.03.22-3.51 2.04-3.29 4.06.2 1.87 1.75 3.27 3.58 3.31z"/><path fill="#fff" d="M221.55 127.995c0 42.02-41.78 76.084-93.32 76.084-51.55 0-93.336-34.07-93.336-76.09S76.68 51.91 128.23 51.91c51.54 0 93.32 34.06 93.32 76.075z"/><path fill="#B3B3B3" d="M201.54 117.87c0 34.758-33.87 62.938-75.647 62.938-41.77 0-75.64-28.18-75.64-62.94 0-34.768 33.87-62.95 75.64-62.95 41.778 0 75.647 28.183 75.647 62.95z"/><path fill="#999898" d="M125.893 183.72c-43.31 0-78.55-29.54-78.55-65.85 0-36.314 35.24-65.86 78.55-65.86 43.317 0 78.555 29.546 78.555 65.86 0 36.31-35.238 65.85-78.555 65.85zm0-125.894c-40.107 0-72.732 26.934-72.732 60.043 0 33.1 32.63 60.03 72.74 60.03 40.11 0 72.74-26.94 72.74-60.04 0-33.11-32.63-60.05-72.74-60.05z"/><path fill="#333" d="M182.937 107.034c-.934 0-1.87-.295-2.666-.915C123.05 61.83 74.24 81.59 72.18 82.44c-2.22.943-4.78-.103-5.71-2.318-.942-2.215.085-4.77 2.302-5.716 2.23-.95 55.415-22.74 116.843 24.81 1.91 1.47 2.257 4.213.78 6.12-.857 1.11-2.15 1.69-3.452 1.69zm-112.462 0c-1.305 0-2.594-.58-3.45-1.69-1.48-1.907-1.132-4.65.776-6.122 61.43-47.547 114.62-25.757 116.85-24.808 2.22.945 3.24 3.5 2.3 5.715-.93 2.21-3.49 3.25-5.71 2.31-2.06-.86-50.88-20.63-108.09 23.67-.79.62-1.73.91-2.66.91zm54.645 16.962c-3.214 0-5.5-2.6-5.5-5.815V89.1c0-3.216 2.286-5.82 5.5-5.82 3.216 0 5.5 2.604 5.5 5.82v29.085c0 3.216-2.284 5.816-5.5 5.816z"/><path fill="#2974A7" d="M138.017 89.863c0 3.86-5.156 6.992-11.522 6.992-6.355 0-11.52-3.13-11.52-6.992 0-3.864 5.164-6.994 11.52-6.994 6.365 0 11.522 3.13 11.522 6.99z"/><path fill="#C1272D" d="M72.05 157.016c.413-.995 1.034-2.552 1.718-4.012 1.396-3.205 3.723-7.357 7.324-11.93 1.893-2.195 3.938-4.612 6.553-6.842 2.48-2.323 5.486-4.474 8.77-6.564 3.27-2.063 7.112-3.826 11.07-5.407 4.198-1.29 8.388-2.8 13.073-3.21 2.303-.27 4.6-.63 6.912-.71l7.01.26c4.672.15 9.064 1.39 13.303 2.52 2.162.49 4.105 1.3 5.94 2.17 1.864.83 3.657 1.69 5.374 2.58 3.588 1.63 6.127 3.89 8.69 5.81 2.46 1.97 4.77 3.86 6.245 5.73 1.63 1.79 2.863 3.53 3.926 4.89 2.053 2.78 3.02 4.48 3.02 4.48 6.306 11.16 2.376 25.33-8.788 31.64-4.08 2.3-8.56 3.24-12.912 2.96l-9.28-.59s-1.28-.09-3.147-.44c-.9-.22-2.06-.36-3.16-.76-1.11-.52-2.44-.29-3.63-.58-1.22-.12-2.46-.72-3.62-.58-1.16.12-2.26-.53-3.3-.33-1.04.15-2.01-.39-3.03-.14-.49-.02-1-.09-1.51-.2-.53.07-1.09.06-1.65.04-1.08-.21-2.41.1-3.74-.06-.69-.04-1.42.16-2.16.16-.75.01-1.52-.06-2.31.14-1.61.15-3.3.25-5 .55-1.73.12-3.42.52-5.12.7-3.32.53-6.49 1.02-8.7 1.31-1.16.25-20.25 7.58-27.07 1.37s-1.19-23.88-.77-24.89z"/></svg>