<?xml version="1.0" encoding="utf-8"?>
<!-- Generator: Adobe Illustrator 16.0.0, SVG Export Plug-In . SVG Version: 6.00 Build 0)  -->
<!DOCTYPE svg PUBLIC "-//W3C//DTD SVG 1.1//EN" "http://www.w3.org/Graphics/SVG/1.1/DTD/svg11.dtd">
<svg version="1.1" id="Layer_1" xmlns="http://www.w3.org/2000/svg" xmlns:xlink="http://www.w3.org/1999/xlink" x="0px" y="0px"
	 width="256px" height="256px" viewBox="0 0 256 256" enable-background="new 0 0 256 256" xml:space="preserve">
<path fill="#FFFFFF" d="M128.23,208.08c-24.226,0-47.434-7.355-65.352-20.71c-17.313-12.905-28.33-30.337-31.218-49.3
	c-2.97-1.354-5.722-2.875-8.358-4.618c-4.21-2.827-7.42-5.688-10.125-9.017c-1.867-2.348-3.243-4.654-4.235-7.082
	c-0.48-1.25-1.032-2.83-1.32-4.67c-0.212-1.088-0.27-2.314-0.287-2.96c-0.023-0.717-0.01-1.025,0.033-1.436
	c0.01-0.11,0.024-0.257,0.034-0.634l0.004-0.153l0.016-0.152c0.43-4.154,2.12-7.378,3.46-9.35c1.448-2.12,3.237-4.013,5.477-5.8
	c3.24-2.533,6.87-4.484,11.44-6.17c6.31-2.213,12.52-3.325,18.52-3.325c0.52,0,1.05,0.01,1.57,0.025
	c18.19-21.834,48.03-34.81,80.32-34.81c32.27,0,62.109,12.972,80.3,34.798c0.38-0.01,0.761-0.013,1.14-0.013
	c6,0,12.211,1.112,18.461,3.304c4.64,1.708,8.26,3.66,11.47,6.163c2.271,1.818,4.06,3.712,5.5,5.82
	c1.351,1.98,3.03,5.204,3.46,9.358l0.02,0.155v0.156c0.01,0.37,0.021,0.52,0.03,0.63c0.04,0.4,0.06,0.71,0.03,1.45
	c-0.02,0.64-0.08,1.87-0.29,2.94c-0.29,1.83-0.84,3.4-1.29,4.57c-1.03,2.51-2.41,4.81-4.24,7.13c-2.74,3.36-5.949,6.221-10.14,9.04
	c-2.5,1.649-5.101,3.101-7.91,4.399c-2.83,19.011-13.83,36.5-31.16,49.451c-17.93,13.399-41.17,20.779-65.43,20.779L128.23,208.08z
	 M28.36,108.043c0.213,0.325,0.605,0.823,1.257,1.41c0.857,0.788,1.977,1.59,3.27,2.354c0.817-3.29,1.885-6.524,3.196-9.692
	c-0.343,0.167-0.687,0.34-1.028,0.516c-2.35,1.24-4.37,2.69-5.66,4.06c-0.545,0.56-0.864,1.04-1.034,1.36L28.36,108.043z
	 M220.473,102.388c1.229,3.006,2.239,6.074,3.026,9.188c1.12-0.69,2.101-1.405,2.86-2.1c0.66-0.604,1.06-1.108,1.279-1.436
	c-0.17-0.314-0.479-0.778-0.979-1.3c-1.351-1.43-3.37-2.874-5.74-4.122c-0.149-0.078-0.3-0.155-0.45-0.23H220.473z"/>
<path fill="#333333" d="M128.23,51.92c32.917,0,61.853,13.896,78.465,34.883c0.992-0.066,1.982-0.1,2.973-0.1
	c5.83,0,11.578,1.127,17.146,3.08c3.516,1.295,7.012,2.948,10.334,5.54c1.651,1.32,3.27,2.884,4.666,4.924
	c1.385,2.037,2.492,4.645,2.789,7.514c0.03,1.25,0.101,0.78,0.065,1.87c-0.03,0.88-0.11,1.76-0.229,2.37
	c-0.211,1.38-0.621,2.64-1.09,3.85c-0.971,2.37-2.261,4.34-3.641,6.08c-2.8,3.44-5.95,6-9.23,8.209
	c-2.979,1.98-6.09,3.601-9.35,4.99c-4.4,38.69-44.32,68.98-92.91,68.98c-48.53,0-88.4-30.18-92.91-68.78
	c-3.44-1.42-6.7-3.12-9.82-5.181c-3.28-2.199-6.44-4.759-9.23-8.199c-1.38-1.73-2.67-3.7-3.64-6.07c-0.47-1.21-0.88-2.47-1.09-3.85
	c-0.13-0.61-0.21-1.49-0.23-2.36c-0.04-1.09,0.03-0.62,0.06-1.86c0.29-2.87,1.4-5.48,2.78-7.51c1.39-2.04,3.01-3.6,4.66-4.92
	c3.32-2.59,6.82-4.24,10.33-5.54c5.56-1.95,11.31-3.08,17.14-3.08c1.13,0,2.26,0.04,3.39,0.13c16.62-21.01,45.58-34.92,78.52-34.92
	 M35.709,117.681c1.33-7.96,4.16-15.53,8.27-22.51c-3.78,0.83-7.46,2.22-10.82,3.96c-2.61,1.38-5.03,3.05-6.74,4.87
	c-1.79,1.84-2.44,3.71-2.21,4.59c0.15,0.87,0.92,2.32,2.67,3.9c1.69,1.55,4,3,6.47,4.19c0.76,0.36,1.55,0.7,2.35,1.02
	 M220.6,117.551c0.659-0.27,1.31-0.55,1.939-0.85c2.47-1.19,4.779-2.64,6.47-4.19c1.75-1.58,2.521-3.02,2.681-3.89
	c0.22-0.88-0.431-2.75-2.221-4.58c-1.71-1.81-4.119-3.49-6.74-4.87c-3.209-1.66-6.709-3-10.31-3.84c4.04,6.9,6.84,14.38,8.181,22.24
	 M128.19,44c-32.74,0-63.11,12.93-82.15,34.783c-6.38,0.03-12.95,1.22-19.54,3.53l-0.06,0.02l-0.06,0.02
	c-4.98,1.83-8.94,3.98-12.49,6.74l-0.04,0.03l-0.04,0.03c-2.55,2.04-4.6,4.22-6.27,6.66c-2.31,3.39-3.74,7.26-4.14,11.2l-0.03,0.3
	l-0.01,0.31l-0.01,0.31c-0.07,0.67-0.09,1.154-0.06,1.997c0.022,0.92,0.102,2.25,0.34,3.52c0.35,2.18,0.98,3.99,1.5,5.33l0.03,0.08
	l0.03,0.08c1.14,2.78,2.7,5.41,4.78,8.02L10,127l0.03,0.04c2.96,3.644,6.45,6.76,10.97,9.8l0.024,0.01l0.02,0.018
	c2.23,1.47,4.53,2.8,6.965,4c3.52,19.189,14.91,36.73,32.43,49.79c18.6,13.86,42.66,21.5,67.74,21.5
	c25.12,0,49.209-7.66,67.82-21.57c17.55-13.12,28.92-30.72,32.37-49.97c2.27-1.145,4.41-2.387,6.48-3.76
	c4.569-3.07,8.06-6.188,11.02-9.831l0.029-0.04l0.03-0.04c2.07-2.61,3.64-5.23,4.771-8.01l0.04-0.084l0.03-0.09
	c0.51-1.34,1.14-3.14,1.489-5.31c0.24-1.27,0.32-2.62,0.341-3.55c0.029-0.82,0.02-1.3-0.051-1.94c-0.01-0.1-0.01-0.19-0.01-0.34
	l-0.01-0.31l-0.03-0.31c-0.399-3.94-1.83-7.81-4.13-11.19c-1.68-2.45-3.73-4.63-6.29-6.67l-0.03-0.03l-0.04-0.02
	c-3.54-2.766-7.51-4.91-12.489-6.74l-0.061-0.023l-0.061-0.02c-6.43-2.255-12.85-3.44-19.09-3.523
	c-19.029-21.86-49.399-34.79-82.14-34.79L128.19,44z"/>
<path fill="#676767" d="M50.75,90.608c0,0-32.272,6.804-32.917,17.54c-0.637,10.73,21.797,21.98,34.45,22.741
	C52.283,130.889,35.25,114.484,50.75,90.608L50.75,90.608z"/>
<path fill="#B3B3B3" d="M50.598,94.292c-6.01,0.163-12.098,2.052-17.383,4.788c-2.613,1.376-5.027,3.05-6.736,4.87
	c-1.8,1.834-2.44,3.702-2.22,4.583c0.15,0.87,0.92,2.313,2.67,3.892c1.69,1.554,4,3,6.47,4.194c4.92,2.34,10.91,3.86,15.55,3.69
	c5.1-0.19,9.38,3.8,9.56,8.9c0.17,5.1-3.81,9.38-8.9,9.561c-0.47,0.02-0.91,0.01-1.36-0.051l-0.41-0.06
	c-4.42-0.521-8.26-1.67-11.94-3.12c-3.67-1.48-7.11-3.26-10.42-5.439c-3.28-2.21-6.44-4.771-9.23-8.21
	c-1.38-1.73-2.67-3.71-3.64-6.07c-0.47-1.22-0.88-2.48-1.09-3.86c-0.13-0.61-0.21-1.49-0.23-2.37c-0.04-1.09,0.03-0.62,0.06-1.87
	c0.29-2.87,1.4-5.479,2.79-7.52c1.39-2.04,3.01-3.61,4.66-4.93c3.32-2.59,6.82-4.25,10.33-5.54c7.02-2.46,14.32-3.63,21.71-2.87
	c2.02,0.22,3.5,2.04,3.28,4.06c-0.19,1.87-1.75,3.26-3.58,3.31L50.598,94.292z"/>
<path fill="#676767" d="M205.255,90.608c0,0,32.269,6.804,32.916,17.54c0.64,10.73-21.79,21.98-34.44,22.741
	c0,0,17.03-16.405,1.541-40.281H205.255z"/>
<path fill="#B3B3B3" d="M205.4,94.292c6.013,0.163,12.1,2.052,17.386,4.788c2.614,1.376,5.026,3.05,6.735,4.87
	c1.791,1.834,2.437,3.702,2.218,4.583c-0.16,0.87-0.931,2.313-2.681,3.892c-1.699,1.554-4,3-6.47,4.194
	c-4.93,2.34-10.92,3.86-15.56,3.69c-5.11-0.19-9.391,3.8-9.57,8.9c-0.18,5.1,3.8,9.38,8.9,9.561c0.459,0.02,0.91,0.01,1.35-0.051
	l0.41-0.06c4.42-0.521,8.26-1.67,11.93-3.12c3.66-1.48,7.11-3.26,10.41-5.439c3.28-2.21,6.439-4.771,9.23-8.21
	c1.369-1.73,2.67-3.71,3.64-6.07c0.46-1.22,0.87-2.48,1.08-3.86c0.12-0.61,0.2-1.49,0.229-2.37c0.03-1.09-0.039-0.62-0.07-1.87
	c-0.299-2.87-1.409-5.479-2.789-7.52c-1.4-2.04-3.021-3.61-4.67-4.93c-3.32-2.59-6.82-4.25-10.34-5.54
	c-7.021-2.46-14.32-3.64-21.711-2.87c-2.029,0.22-3.51,2.04-3.289,4.06c0.199,1.87,1.75,3.27,3.58,3.31L205.4,94.292z"/>
<path fill="#FFFFFF" d="M221.55,127.995c0,42.021-41.78,76.084-93.32,76.084c-51.55,0-93.336-34.07-93.336-76.09
	c0-42.021,41.786-76.079,93.336-76.079c51.54,0,93.32,34.06,93.32,76.075V127.995z"/>
<path fill="#B3B3B3" d="M201.54,117.87c0,34.758-33.87,62.938-75.647,62.938c-41.77,0-75.64-28.181-75.64-62.94
	c0-34.768,33.87-62.95,75.64-62.95c41.778,0,75.647,28.183,75.647,62.95V117.87z"/>
<path fill="#999898" d="M125.893,183.72c-43.31,0-78.55-29.54-78.55-65.85c0-36.314,35.24-65.86,78.55-65.86
	c43.317,0,78.555,29.546,78.555,65.86C204.448,154.18,169.21,183.72,125.893,183.72z M125.893,57.826
	c-40.107,0-72.732,26.934-72.732,60.043c0,33.1,32.63,60.029,72.74,60.029s72.74-26.939,72.74-60.04
	c0-33.11-32.63-60.05-72.74-60.05L125.893,57.826z"/>
<path fill="#333333" d="M185.615,99.216c-13.142-10.173-25.903-17.164-37.872-21.872c19.689-0.515,32.466,4.664,33.498,5.095
	c2.22,0.94,4.78-0.1,5.71-2.31c0.939-2.215-0.08-4.77-2.301-5.715c-1.46-0.622-24.764-10.173-57.921-3.355
	c-33.177-6.835-56.497,2.725-57.958,3.347c-2.217,0.946-3.244,3.501-2.302,5.716c0.93,2.215,3.49,3.261,5.71,2.318
	c1.032-0.426,13.8-5.598,33.481-5.083c-11.965,4.708-24.723,11.697-37.86,21.866c-1.908,1.472-2.256,4.215-0.776,6.122
	c0.856,1.11,2.145,1.69,3.45,1.69l0.016-0.015c0.93,0,1.87-0.29,2.66-0.91c19.287-14.934,37.616-22.581,53.525-26.131
	c15.925,3.544,34.279,11.19,53.596,26.141c0.795,0.62,1.731,0.915,2.666,0.915l0.006-0.008c1.302,0,2.595-0.58,3.451-1.69
	C187.872,103.429,187.525,100.686,185.615,99.216z"/>
<path fill="#333333" d="M125.808,123.996c-3.214,0-5.5-2.6-5.5-5.815V89.1c0-3.216,2.286-5.82,5.5-5.82c3.216,0,5.5,2.604,5.5,5.82
	v29.085c0,3.216-2.284,5.816-5.5,5.816V123.996z"/>
<path fill="#2974A7" d="M137.329,89.863c0,3.86-5.156,6.992-11.522,6.992c-6.355,0-11.52-3.13-11.52-6.992
	c0-3.864,5.164-6.994,11.52-6.994c6.364,0,11.522,3.13,11.522,6.99V89.863z"/>
<path fill="#C1272D" d="M72.05,157.016c0.413-0.994,1.034-2.552,1.718-4.012c1.396-3.205,3.723-7.357,7.324-11.93
	c1.893-2.195,3.938-4.612,6.553-6.842c2.48-2.323,5.486-4.475,8.77-6.564c3.27-2.063,7.112-3.826,11.07-5.407
	c4.198-1.29,8.388-2.8,13.073-3.21c2.303-0.27,4.6-0.63,6.912-0.71l7.01,0.26c4.672,0.15,9.063,1.39,13.303,2.52
	c2.162,0.49,4.105,1.3,5.939,2.17c1.864,0.83,3.657,1.69,5.375,2.58c3.588,1.63,6.127,3.89,8.689,5.811
	c2.46,1.969,4.77,3.859,6.245,5.729c1.63,1.79,2.862,3.53,3.926,4.89c2.053,2.78,3.021,4.48,3.021,4.48
	c6.306,11.16,2.375,25.33-8.789,31.64c-4.08,2.3-8.56,3.24-12.912,2.96l-9.279-0.59c0,0-1.28-0.09-3.146-0.439
	c-0.9-0.221-2.061-0.36-3.16-0.761c-1.11-0.52-2.44-0.29-3.631-0.58c-1.22-0.12-2.459-0.72-3.619-0.579
	c-1.16,0.119-2.26-0.531-3.301-0.33c-1.039,0.149-2.01-0.391-3.029-0.141c-0.49-0.02-1-0.09-1.51-0.2
	c-0.531,0.07-1.091,0.061-1.65,0.04c-1.08-0.21-2.41,0.1-3.74-0.06c-0.69-0.04-1.42,0.159-2.16,0.159
	c-0.75,0.011-1.52-0.06-2.31,0.141c-1.61,0.15-3.3,0.25-5,0.55c-1.73,0.12-3.42,0.521-5.12,0.7c-3.32,0.53-6.49,1.02-8.7,1.311
	c-1.16,0.25-20.25,7.58-27.07,1.369c-6.82-6.21-1.19-23.88-0.77-24.89L72.05,157.016z"/>
</svg>
