<svg xmlns="http://www.w3.org/2000/svg" width="256" height="256" viewBox="0 0 256 256"><path fill="#0071BC" d="M129.06 222.246c-8.54 0-17.03-.915-25.24-2.72-22.568-4.43-43.138-15.26-57.83-30.48-15.07-15.61-23.37-35.29-23.37-55.416 0-1.796.07-3.61.212-5.545l.274-3.705H34.13c2.112-7.7 5.573-15.03 10.326-21.875-2.077-1.342-4.01-2.906-5.782-4.677-12.87-12.874-14.403-55.182-14.536-59.963l-.117-4.226 4.23.11c4.78.13 47.1 1.66 59.97 14.53 4.96 4.95 8.28 11.21 9.61 18 10.04-2.8 20.53-4.21 31.25-4.21 10.14 0 20.08 1.27 29.63 3.78 1.39-6.63 4.68-12.74 9.51-17.58 12.87-12.87 55.18-14.41 59.97-14.54l4.23-.12-.11 4.22c-.13 4.78-1.66 47.09-14.53 59.96-1.43 1.44-2.99 2.74-4.64 3.9 5.04 7.07 8.68 14.66 10.88 22.65h9.17l.28 3.7c.15 1.93.21 3.75.21 5.55 0 32.73-21.46 62.59-56.01 77.96-14.7 6.97-31.48 10.65-48.55 10.65z"/><path fill="#333" d="M228.27 37.754S227.02 82.88 214.907 95c-2.315 2.316-4.908 4.186-7.67 5.616 6.633 8.278 11.342 17.672 13.607 27.764h8.573c.13 1.737.202 3.486.202 5.25 0 32.177-21.74 60.136-53.68 74.326-13.78 6.54-29.79 10.29-46.89 10.29-8.44 0-16.61-.92-24.38-2.628-44.76-8.783-78.06-42.155-78.06-81.988 0-1.764.07-3.513.2-5.25h10.44c2.21-9.85 6.74-19.035 13.12-27.166-3.21-1.49-6.23-3.564-8.88-6.214-12.11-12.12-13.36-57.246-13.36-57.246s45.13 1.248 57.24 13.366c5.66 5.658 8.67 12.963 9.05 20.376 10.71-3.49 22.39-5.41 34.63-5.41 11.6 0 22.71 1.73 32.95 4.885.48-7.23 3.48-14.32 9.01-19.85 12.12-12.11 57.24-13.36 57.24-13.36m8.23-8.23l-8.45.24c-.48.02-11.89.35-24.99 2.22-19 2.71-31.33 7.13-37.7 13.49-4.4 4.4-7.65 9.75-9.54 15.59-8.69-1.97-17.66-2.96-26.78-2.96-9.68 0-19.19 1.12-28.36 3.33-1.86-5.97-5.15-11.45-9.66-15.95-6.36-6.36-18.69-10.77-37.69-13.48-13.1-1.87-24.51-2.2-24.99-2.21l-8.45-.23.23 8.45c.01.48.34 11.89 2.21 24.99 2.71 19 7.12 31.33 13.49 37.7 1.01 1.01 2.06 1.96 3.16 2.84-3.36 5.38-5.99 11.02-7.87 16.88h-11.7l-.55 7.41c-.15 2.04-.23 3.94-.23 5.84 0 21.17 8.7 41.84 24.49 58.2 15.24 15.79 36.52 27.02 59.94 31.63 8.46 1.86 17.21 2.8 26.01 2.8 17.63 0 35-3.81 50.22-11.02 35.98-16.02 58.33-47.28 58.33-81.6 0-1.9-.07-3.81-.23-5.84l-.55-7.4h-9.9c-1.99-6.2-4.81-12.15-8.45-17.8.71-.61 1.4-1.25 2.06-1.92 6.36-6.37 10.77-18.7 13.49-37.7 1.87-13.09 2.2-24.5 2.21-24.98l.23-8.45z"/><path fill="#0071BC" d="M26.82 128.38c-.127 1.738-.2 3.487-.2 5.25 0 46.53 45.442 84.25 101.5 84.25s101.5-37.72 101.5-84.25c0-1.763-.074-3.512-.203-5.25H26.82zm58.562-77.26C97.5 63.23 97.5 82.88 85.382 95c-12.116 12.116-31.767 12.116-43.88 0-12.115-12.12-13.365-57.246-13.365-57.246s45.13 1.248 57.245 13.367z"/><path fill="#29ABE2" d="M84.496 64.727c8.116 8.117 8.116 21.278 0 29.387-8.113 8.118-21.27 8.118-29.39 0-8.114-8.11-8.944-38.333-8.944-38.333s30.22.83 38.334 8.95z"/><path fill="#0071BC" d="M171.025 51.12c-12.117 12.11-12.117 31.762 0 43.88 12.12 12.117 31.766 12.117 43.88 0 12.116-12.118 13.366-57.245 13.366-57.245s-45.12 1.247-57.24 13.365z"/><path fill="#29ABE2" d="M171.912 64.727c-8.117 8.117-8.117 21.278 0 29.387 8.113 8.118 21.268 8.118 29.387 0 8.11-8.11 8.94-38.333 8.94-38.333s-30.22.83-38.34 8.95z"/><path fill="#0071BC" d="M222.375 142.164c0 42.018-41.777 76.082-93.316 76.082-51.56 0-93.34-34.064-93.34-76.082 0-42.018 41.78-76.08 93.34-76.08 51.53 0 93.31 34.062 93.31 76.08z"/><path fill="#B3B3B3" d="M203.643 149.006c0 34.275-33.87 62.07-75.646 62.07-41.77 0-75.64-27.795-75.64-62.07 0-34.29 33.87-62.09 75.64-62.09 41.774 0 75.646 27.8 75.646 62.09z"/><path fill="#999898" d="M127.997 213.986c-43.312 0-78.55-29.152-78.55-64.98 0-35.843 35.238-65 78.55-65 43.315 0 78.556 29.156 78.556 65 0 35.828-35.24 64.98-78.556 64.98zm0-124.16c-40.104 0-72.73 26.548-72.73 59.18 0 32.623 32.626 59.164 72.73 59.164 40.108 0 72.737-26.54 72.737-59.164 0-32.632-32.63-59.18-72.737-59.18z"/><path fill="#333" d="M127.62 184.38c-3.214 0-5-3.865-5-8.64V149.8c0-4.78 1.786-8.644 5-8.644 3.218 0 5 3.863 5 8.645v25.94c0 4.78-1.782 8.64-5 8.64z"/><path fill="#2974A7" d="M139.52 147.74c0 3.862-5.157 6.993-11.522 6.993-6.354 0-11.516-3.13-11.516-6.994s5.162-7 11.516-7c6.364 0 11.52 3.13 11.52 6.99z"/><path fill="#333" d="M163.387 206.62c-1.61 0-3.21-.667-4.357-1.966-.125-.14-13.232-14.596-30.65-15.222-11.04-.278-21.542 4.792-31.54 15.363-2.21 2.334-5.885 2.438-8.22.233-2.335-2.207-2.442-5.885-.23-8.222 12.39-13.117 26.067-19.644 40.4-18.996 22.502.8 38.297 18.387 38.957 19.138 2.127 2.41 1.9 6.087-.508 8.21-1.11.98-2.49 1.463-3.86 1.463z"/><path fill="#fff" d="M178.193 136.804s-12.6 25.683-2.42 29.563c10.182 3.878 15.02-10.163 2.42-29.563z"/><path fill="#333" d="M95.392 160.827c-8.04 0-14.447-8.063-20.168-25.393-.754-2.29.484-4.755 2.77-5.51 2.292-.767 4.76.62 5.513 2.912 6.096 18.467 10.965 19.544 11.88 19.544h.005c3.932 0 10.066-10.366 13.11-19.544.757-2.29 3.216-3.597 5.513-2.843 2.287.758 3.525 3.188 2.77 5.477-1.397 4.24-9.008 25.357-21.393 25.357zm63.988 0c-8.036 0-14.444-8.063-20.165-25.393-.756-2.29.484-4.755 2.77-5.51 2.29-.767 4.762.62 5.512 2.912 6.096 18.467 10.965 19.544 11.88 19.544h.005c3.932 0 10.068-10.366 13.11-19.544.76-2.29 3.228-3.597 5.513-2.843 2.29.758 3.527 3.188 2.77 5.477-1.396 4.24-9.01 25.357-21.394 25.357z"/></svg>