<svg xmlns="http://www.w3.org/2000/svg" width="256" height="256" viewBox="0 0 256 256"><path fill="#fff" d="M128.194 208.086c-53.67 0-97.334-35.927-97.334-80.087 0-1.05.027-2.12.082-3.21-2.666-2.3-5.09-4.91-7.52-8.1-2.615-3.46-4.75-6.97-6.537-10.75-2.14-4.59-3.41-8.7-4.006-12.95-.39-3-.38-5.69.03-8.26.23-1.31.57-2.95 1.28-4.69.38-1.04.96-2.11 1.28-2.67.35-.64.52-.89.77-1.22.06-.09.15-.21.36-.54l.08-.13.09-.12c2.51-3.33 5.62-5.21 7.79-6.21 2.33-1.07 4.84-1.77 7.69-2.13 1.45-.18 2.91-.27 4.37-.27 2.7 0 5.44.28 8.61.89 4.76.99 9.19 2.47 13.24 4.4 18.25-15.38 43.49-24.15 69.71-24.15 26.81 0 52.44 9.12 70.79 25.1 3.43-1.59 7.16-2.86 11.1-3.81 3.6-.8 6.67-1.16 9.71-1.16 1.09 0 2.18.05 3.26.14 2.9.29 5.44.91 7.79 1.91 2.21.95 5.36 2.76 7.96 5.99l.08.1.08.11c.22.31.32.44.39.53.27.33.43.57.82 1.21.54.89 1.04 1.85 1.35 2.63.77 1.78 1.16 3.46 1.39 4.57.5 2.61.59 5.3.29 8.28-.47 4.28-1.62 8.42-3.63 13.08-1.66 3.8-3.69 7.37-6.22 10.93-2.55 3.54-5.08 6.38-7.89 8.87.01.53.02 1.05.02 1.57 0 44.16-43.66 80.09-97.32 80.09zm83.777-120.88c2.25 3.12 4.23 6.36 5.94 9.698.23-.346.46-.694.67-1.042 1.3-2.093 2.26-4.2 2.71-5.935.24-.87.3-1.513.3-1.908-.31-.18-.81-.4-1.51-.56-1.29-.33-2.83-.49-4.51-.49-.82 0-1.69.04-2.57.11-.34.03-.68.07-1.02.11zm-177.62-.39c.02.387.1 1.02.35 1.86.51 1.746 1.53 3.828 2.89 5.9.38.57.78 1.14 1.2 1.705 1.88-3.59 4.09-7.06 6.6-10.39-.83-.1-1.66-.18-2.5-.23-.57-.03-1.16-.05-1.76-.05-1.99 0-3.78.21-5.2.6-.74.19-1.26.44-1.56.62z"/><path fill="#333" d="M128.194 51.92c27.95 0 53.025 10.02 70.128 25.89 3.98-2.1 8.253-3.634 12.698-4.7 2.795-.62 5.69-1.056 8.78-1.056.95 0 1.916.04 2.903.13 2.102.21 4.316.646 6.59 1.612 2.254.972 4.602 2.564 6.406 4.814.71 1.022.5.588 1.07 1.532.45.74.85 1.524 1.09 2.11.56 1.277.9 2.546 1.16 3.82.48 2.512.45 4.875.23 7.08-.49 4.402-1.76 8.258-3.33 11.894-1.59 3.62-3.53 6.987-5.81 10.202-2.31 3.21-4.91 6.262-8.35 9.092l-.28.227-.08.055c.06 1.12.09 2.244.09 3.375 0 42.02-41.78 76.087-93.32 76.087-51.55 0-93.34-34.066-93.34-76.087 0-1.677.07-3.34.2-4.99-3.44-2.7-6.1-5.633-8.46-8.73-2.38-3.146-4.41-6.456-6.1-10.036-1.67-3.58-3.05-7.41-3.66-11.79-.28-2.19-.38-4.55.02-7.08.23-1.27.53-2.56 1.06-3.85.21-.58.6-1.38 1.03-2.14.53-.95.34-.51 1.02-1.56 1.73-2.3 4.03-3.96 6.27-4.98 2.24-1.03 4.44-1.53 6.53-1.8 1.32-.16 2.6-.23 3.86-.23 2.73 0 5.33.34 7.85.82 5.13 1.07 10.04 2.79 14.58 5.26 17.07-15.33 41.72-24.95 69.12-24.95M39.79 103.5c3.04-7.29 7.402-14.07 12.85-20.18-3.127-.9-6.36-1.442-9.527-1.65-.677-.04-1.35-.06-2.02-.06-2.244 0-4.41.23-6.27.75-2.48.643-4 1.91-4.26 2.777-.32.827-.4 2.46.28 4.718.645 2.21 1.867 4.64 3.367 6.93 1.57 2.386 3.51 4.716 5.58 6.726m177.15.99c1.88-1.98 3.62-4.23 5.026-6.51 1.44-2.33 2.594-4.81 3.172-7.03.62-2.27.476-3.91.144-4.72-.286-.86-1.85-2.09-4.337-2.65-1.62-.4-3.47-.58-5.4-.58-.957 0-1.933.05-2.91.13-2.607.25-5.256.73-7.847 1.45 5.172 6.06 9.294 12.75 12.15 19.92m-88.77-60.56c-26.23 0-51.536 8.51-70.324 23.5-3.677-1.55-7.607-2.77-11.74-3.64l-.06-.01-.065-.01c-3.43-.66-6.4-.96-9.36-.96-1.62 0-3.24.1-4.82.29h-.03l-.03.01c-3.26.42-6.15 1.23-8.85 2.46-3.72 1.71-6.94 4.28-9.32 7.44l-.18.24-.17.25c-.09.13-.14.22-.18.27-.41.55-.67.96-1.09 1.7-.45.8-1.07 1.96-1.52 3.16-.83 2.08-1.24 4.04-1.47 5.35l-.02.08-.01.07c-.47 2.96-.49 6.01-.06 9.34l.01.05v.05c.66 4.66 2.03 9.13 4.33 14.07 1.92 4.07 4.19 7.81 6.97 11.48 2.17 2.85 4.34 5.27 6.66 7.43-.01.49-.02.98-.02 1.47 0 22.77 10.75 44.08 30.28 60 19.05 15.53 44.28 24.08 71.05 24.08s51.99-8.55 71.04-24.09c19.48-15.88 30.22-37.12 30.28-59.83 2.5-2.37 4.8-5.05 7.1-8.24l.01-.02.01-.02c2.69-3.79 4.85-7.59 6.61-11.62 2.18-5.07 3.43-9.58 3.94-14.22V94c.34-3.37.23-6.43-.33-9.37l-.01-.055-.01-.05c-.42-2.023-.94-3.716-1.63-5.315-.54-1.31-1.25-2.55-1.64-3.18-.43-.71-.69-1.096-1.09-1.598-.05-.06-.11-.14-.25-.34l-.15-.22-.17-.21c-3.11-3.877-6.87-6.03-9.48-7.156-2.77-1.18-5.69-1.9-8.96-2.23h-.03l-.04-.004c-1.2-.11-2.42-.16-3.63-.16-3.34 0-6.68.4-10.51 1.25l-.07.016-.06.01c-3.32.795-6.49 1.81-9.48 3.036-18.91-15.6-44.64-24.45-71.48-24.45z"/><path fill="#676767" d="M62.52 83.466s-31.137-10.856-37.236-2c-6.092 8.86 7.29 30.083 17.734 37.273 0 0-6.1-22.85 19.502-35.28z"/><path fill="#B3B3B3" d="M60.49 86.54c-5.23-2.965-11.417-4.5-17.353-4.885-2.95-.17-5.88.018-8.29.687-2.476.643-3.997 1.91-4.257 2.777-.32.82-.404 2.45.277 4.71.645 2.2 1.867 4.64 3.367 6.93 3.006 4.56 7.344 8.95 11.408 11.2 4.465 2.48 6.066 8.1 3.584 12.56-2.484 4.46-8.107 6.06-12.56 3.58-.41-.23-.784-.48-1.138-.75l-.322-.25c-3.518-2.73-6.21-5.71-8.605-8.85-2.37-3.15-4.4-6.46-6.1-10.04-1.67-3.59-3.04-7.41-3.66-11.8-.28-2.19-.37-4.55.03-7.08.23-1.28.53-2.57 1.07-3.86.21-.59.6-1.38 1.03-2.14.53-.95.35-.51 1.02-1.57 1.74-2.3 4.04-3.96 6.27-4.99 2.25-1.03 4.45-1.53 6.54-1.8 4.19-.51 8.03-.12 11.72.59 7.28 1.52 14.14 4.29 20.06 8.77 1.62 1.24 1.95 3.55.71 5.18-1.12 1.49-3.17 1.88-4.77.97z"/><path fill="#676767" d="M193.335 85.472c-11.568-5.202 30.813-11.736 37.162-3.056 6.346 8.68-3.926 27.014-14.154 34.493 0 0 2.94-19.75-23.008-31.44z"/><path fill="#B3B3B3" d="M191.216 82.457c5.787-4.654 12.572-7.613 19.805-9.347 3.66-.81 7.48-1.307 11.69-.926 2.1.21 4.32.646 6.59 1.612 2.26.972 4.6 2.564 6.41 4.814.72 1.022.5.588 1.07 1.532.46.74.86 1.524 1.09 2.11.57 1.277.91 2.546 1.17 3.82.48 2.512.45 4.875.23 7.08-.48 4.402-1.75 8.258-3.32 11.894-1.58 3.62-3.53 6.987-5.81 10.202-2.31 3.21-4.91 6.262-8.35 9.092l-.28.227c-3.94 3.24-9.76 2.67-13-1.267s-2.67-9.765 1.27-13.005c.36-.29.78-.58 1.15-.808 4-2.372 8.22-6.888 11.08-11.525 1.44-2.333 2.6-4.81 3.18-7.028.62-2.27.48-3.908.15-4.716-.28-.86-1.85-2.088-4.33-2.655-2.42-.604-5.37-.706-8.31-.456-5.92.563-12.06 2.272-17.21 5.387-1.74 1.063-4.01.505-5.08-1.237-.97-1.603-.58-3.658.85-4.8z"/><path fill="#fff" d="M221.515 128c0 42.02-41.775 76.086-93.32 76.086-51.545 0-93.334-34.066-93.334-76.087 0-42.02 41.79-76.08 93.34-76.08 51.55 0 93.32 34.06 93.32 76.08z"/><path fill="#B3B3B3" d="M201.51 120.022c0 34.28-33.87 62.075-75.648 62.075-41.77 0-75.64-27.796-75.64-62.075 0-34.288 33.87-62.084 75.64-62.084 41.778 0 75.647 27.796 75.647 62.084z"/><path fill="#999898" d="M125.862 185.007c-43.31 0-78.55-29.153-78.55-64.984 0-35.838 35.24-64.995 78.55-64.995 43.317 0 78.555 29.157 78.555 64.995 0 35.83-35.238 64.984-78.555 64.984zm0-124.16c-40.107 0-72.732 26.546-72.732 59.176 0 32.627 32.625 59.167 72.732 59.167 40.108 0 72.737-26.54 72.737-59.167 0-32.63-32.63-59.176-72.74-59.176z"/><path fill="#333" d="M127.62 153.086c-3.214 0-7-2.604-7-5.816V124c0-3.214 3.786-5.818 7-5.818 3.216 0 7 2.604 7 5.817v23.27c0 3.21-3.784 5.81-7 5.81z"/><path fill="#C1272D" d="M106.16 129.652s.27.05.75.197c.626.24.895.25 1.188.38.42.15.465.36 1.307.84.79.41 1.643 1.07 2.596 1.84.9.93 2.14 1.45 3.28 2.84 1.19 1.23 2.4 3.31 3.88 4.84 1.46 1.63 3.11 3.18 4.89 3.95 1.78.85 3.63.61 5.45.34 1.82-.33 3.62-1 5.29-1.87 1.68-.9 3.2-2.32 4.7-3.22 1.48-1.04 2.9-1.77 4.31-2.23 1.43-.34 2.7-1.07 3.99-1.31 2.53-.62 4.94-.41 6.78-.05 1.83.34 3.11.94 3.11.94l3.48 1.64c8.17 3.85 11.66 13.58 7.82 21.75-.14.32-.33.67-.5.97 0 0-.73 1.32-2.42 2.91-1.67 1.62-4.28 3.61-7.77 5.15-1.76.7-3.64 1.57-5.86 1.72-2.19.25-4.55.27-6.99.02-2.44-.21-4.92-.54-7.41-1.02-2.51-.62-4.98-1.03-7.41-1.1-2.43-.05-4.82.23-7.24.6-2.41.52-4.88 1.81-7.41 3.21-5.08 2.94-10.16 4.3-14.38 4.18-2.14-.04-4.12-.13-5.83-.38-1.68-.14-3.73-.85-5.08-1.26-1.48-.47-2.59-.94-2.87-1.11-.45-.24-.67-.4-.67-.4-11.25-7.64-14.19-22.95-6.56-34.21 5.73-8.44 15.78-12.2 25.19-10.33l.46.09z"/><path fill="#fff" d="M181.706 97.902c0 13.03-10.563 23.6-23.594 23.6-13.037 0-23.6-10.568-23.6-23.6 0-13.034 10.563-23.588 23.6-23.588 13.032 0 23.594 10.554 23.594 23.588zm-57.98 0c0 16.35-13.253 29.61-29.605 29.61s-29.6-13.26-29.6-29.61c0-16.352 13.26-29.6 29.61-29.6 16.35.002 29.61 13.25 29.61 29.6z"/><path fill="#2974A7" d="M103.036 96.276c0 4.972-4.03 9-9.004 9-4.97 0-9.004-4.028-9.004-9 0-4.977 4.033-9.004 9.004-9.004 4.972 0 9.004 4.028 9.004 9.004z"/><path fill="#fff" d="M92.657 93.676c0 1.698-1.375 3.068-3.074 3.068-1.693 0-3.068-1.37-3.068-3.068 0-1.692 1.375-3.067 3.068-3.067 1.7-.01 3.074 1.37 3.074 3.06zm3.38 3.312c0 .796-.647 1.442-1.444 1.442-.793 0-1.44-.646-1.44-1.442 0-.794.647-1.444 1.44-1.444.796 0 1.445.65 1.445 1.444z"/><path fill="#2974A7" d="M174.298 96.276c0 8.987-7.29 16.27-16.277 16.27-8.98 0-16.27-7.282-16.27-16.27 0-8.992 7.29-16.273 16.28-16.273 8.99 0 16.28 7.28 16.28 16.273z"/><path fill="#fff" d="M155.532 91.58c0 3.062-2.482 5.543-5.55 5.543-3.067 0-5.552-2.48-5.552-5.543s2.484-5.55 5.553-5.55c3.067 0 5.55 2.488 5.55 5.55zm6.118 5.987c0 1.438-1.173 2.6-2.61 2.6-1.44 0-2.61-1.162-2.61-2.6 0-1.443 1.17-2.608 2.61-2.608 1.438 0 2.61 1.16 2.61 2.6z"/><path fill="#2974A7" d="M139.52 124.766c0 3.865-5.155 6.993-11.52 6.993-6.357 0-11.52-3.13-11.52-7s5.162-7 11.52-7c6.364 0 11.52 3.13 11.52 6.99z"/></svg>