<svg xmlns="http://www.w3.org/2000/svg" width="256" height="256" viewBox="0 0 256 256"><path fill="#0071BC" d="M129.06 222.246c-8.54 0-17.03-.915-25.24-2.72-22.568-4.43-43.138-15.26-57.83-30.48-15.07-15.61-23.37-35.29-23.37-55.416 0-1.796.07-3.61.212-5.545l.274-3.705H34.13c2.112-7.7 5.573-15.03 10.326-21.875-2.077-1.342-4.01-2.906-5.782-4.677-12.87-12.874-14.403-55.182-14.536-59.963l-.117-4.226 4.23.11c4.78.13 47.1 1.66 59.97 14.53 4.96 4.95 8.28 11.21 9.61 18 10.04-2.8 20.53-4.21 31.25-4.21 10.14 0 20.08 1.27 29.63 3.78 1.39-6.63 4.68-12.74 9.51-17.58 12.87-12.87 55.18-14.41 59.97-14.54l4.23-.12-.11 4.22c-.13 4.78-1.66 47.09-14.53 59.96-1.43 1.44-2.99 2.74-4.64 3.9 5.04 7.07 8.68 14.66 10.88 22.65h9.17l.28 3.7c.15 1.93.21 3.75.21 5.55 0 32.73-21.46 62.59-56.01 77.96-14.7 6.97-31.48 10.65-48.55 10.65z"/><path fill="#333" d="M228.27 37.754S227.02 82.88 214.907 95c-2.315 2.316-4.908 4.186-7.67 5.616 6.633 8.278 11.342 17.672 13.607 27.764h8.573c.13 1.737.202 3.486.202 5.25 0 32.177-21.74 60.136-53.68 74.326-13.78 6.54-29.79 10.29-46.89 10.29-8.44 0-16.61-.92-24.38-2.628-44.76-8.783-78.06-42.155-78.06-81.988 0-1.764.07-3.513.2-5.25h10.44c2.21-9.85 6.74-19.035 13.12-27.166-3.21-1.49-6.23-3.564-8.88-6.214-12.11-12.12-13.36-57.246-13.36-57.246s45.13 1.248 57.24 13.366c5.66 5.658 8.67 12.963 9.05 20.376 10.71-3.49 22.39-5.41 34.63-5.41 11.6 0 22.71 1.73 32.95 4.885.48-7.23 3.48-14.32 9.01-19.85 12.12-12.11 57.24-13.36 57.24-13.36m8.23-8.23l-8.45.24c-.48.02-11.89.35-24.99 2.22-19 2.71-31.33 7.13-37.7 13.49-4.4 4.4-7.65 9.75-9.54 15.59-8.69-1.97-17.66-2.96-26.78-2.96-9.68 0-19.19 1.12-28.36 3.33-1.86-5.97-5.15-11.45-9.66-15.95-6.36-6.36-18.69-10.77-37.69-13.48-13.1-1.87-24.51-2.2-24.99-2.21l-8.45-.23.23 8.45c.01.48.34 11.89 2.21 24.99 2.71 19 7.12 31.33 13.49 37.7 1.01 1.01 2.06 1.96 3.16 2.84-3.36 5.38-5.99 11.02-7.87 16.88h-11.7l-.55 7.41c-.15 2.04-.23 3.94-.23 5.84 0 21.17 8.7 41.84 24.49 58.2 15.24 15.79 36.52 27.02 59.94 31.63 8.46 1.86 17.21 2.8 26.01 2.8 17.63 0 35-3.81 50.22-11.02 35.98-16.02 58.33-47.28 58.33-81.6 0-1.9-.07-3.81-.23-5.84l-.55-7.4h-9.9c-1.99-6.2-4.81-12.15-8.45-17.8.71-.61 1.4-1.25 2.06-1.92 6.36-6.37 10.77-18.7 13.49-37.7 1.87-13.09 2.2-24.5 2.21-24.98l.23-8.45z"/><path fill="#0071BC" d="M26.82 128.38c-.127 1.738-.2 3.487-.2 5.25 0 46.53 45.442 84.25 101.5 84.25s101.5-37.72 101.5-84.25c0-1.763-.074-3.512-.203-5.25H26.82zm58.562-77.26C97.5 63.23 97.5 82.88 85.382 95c-12.116 12.116-31.767 12.116-43.88 0-12.115-12.12-13.365-57.246-13.365-57.246s45.13 1.248 57.245 13.367z"/><path fill="#29ABE2" d="M84.496 64.727c8.116 8.117 8.116 21.278 0 29.387-8.113 8.118-21.27 8.118-29.39 0-8.114-8.11-8.944-38.333-8.944-38.333s30.22.83 38.334 8.95z"/><path fill="#0071BC" d="M171.025 51.12c-12.117 12.11-12.117 31.762 0 43.88 12.12 12.117 31.766 12.117 43.88 0 12.116-12.118 13.366-57.245 13.366-57.245s-45.12 1.247-57.24 13.365z"/><path fill="#29ABE2" d="M171.912 64.727c-8.117 8.117-8.117 21.278 0 29.387 8.113 8.118 21.268 8.118 29.387 0 8.11-8.11 8.94-38.333 8.94-38.333s-30.22.83-38.34 8.95z"/><path fill="#0071BC" d="M222.375 142.164c0 42.018-41.777 76.082-93.316 76.082-51.56 0-93.34-34.064-93.34-76.082 0-42.018 41.78-76.08 93.34-76.08 51.53 0 93.31 34.062 93.31 76.08z"/><path fill="#B3B3B3" d="M203.643 140.006c0 34.275-33.87 62.07-75.646 62.07-41.77 0-75.64-27.795-75.64-62.07 0-34.29 33.87-62.09 75.64-62.09 41.774 0 75.646 27.8 75.646 62.09z"/><path fill="#999898" d="M127.997 204.986c-43.312 0-78.55-29.152-78.55-64.98 0-35.843 35.238-65 78.55-65 43.315 0 78.556 29.156 78.556 65 0 35.828-35.24 64.98-78.556 64.98zm0-124.16c-40.104 0-72.73 26.548-72.73 59.18 0 32.623 32.626 59.164 72.73 59.164 40.108 0 72.737-26.54 72.737-59.164 0-32.632-32.63-59.18-72.737-59.18z"/><path fill="#C1272D" d="M98.88 149.82c0 22.076 11.723 39.97 28.956 39.97 17.23 0 28.955-17.894 28.955-39.97l.33-10.816c0 12.35-6.51 22.36-14.54 22.36-14.53 0-14.53-15.9-14.53-28.253 0 12.36 0 28.26-14.54 28.26-8.02 0-14.53-10.01-14.53-22.36l-.09 10.82z"/><path fill="#999898" d="M127.81 194.527c-19.79 0-33.448-13.32-34.38-30.094l-.09 7.467c0 17.63 13.962 31.92 34.47 31.92 20.507 0 34.466-14.29 34.466-31.92l.385-8.643c0 2.22-.43 4.313-1.15 6.275-3.14 14.302-15.96 24.995-33.7 24.995z"/><path fill="#333" d="M142.532 165.73c-7.3 0-11.785-3.054-14.532-7.503-2.753 4.45-7.235 7.502-14.542 7.502-10.595 0-18.895-11.74-18.895-26.73 0-2.41 1.955-4.37 4.36-4.37 2.41 0 4.364 1.95 4.364 4.36 0 10.6 5.36 18 10.17 18 8.657 0 10.18-7.71 10.18-23.89h8.726c0 16.18 1.524 23.89 10.17 23.89 4.815 0 10.18-7.4 10.18-18 0-2.41 1.954-4.36 4.362-4.36s4.36 1.95 4.36 4.36c.002 14.99-8.3 26.72-18.903 26.72z"/><path fill="#fff" d="M190.083 117.88c0 16.76-13.58 30.35-30.34 30.35S129.4 134.64 129.4 117.88c0-16.756 13.583-30.34 30.343-30.34s30.34 13.585 30.34 30.34zm-63.483 0c0 16.76-13.58 30.35-30.34 30.35-16.76 0-30.343-13.59-30.343-30.35 0-16.756 13.583-30.34 30.344-30.34 16.76 0 30.34 13.585 30.34 30.34z"/><path fill="#2974A7" d="M116.335 116.52c0 11.122-9.02 20.148-20.15 20.148s-20.15-9.026-20.15-20.148c0-11.13 9.02-20.157 20.15-20.157s20.15 9.028 20.15 20.157z"/><path fill="#fff" d="M93.106 110.703c0 3.792-3.08 6.868-6.873 6.868-3.797 0-6.875-3.07-6.875-6.86 0-3.79 3.078-6.87 6.875-6.87 3.794 0 6.873 3.08 6.873 6.87zm7.574 7.412c0 1.78-1.455 3.226-3.233 3.226-1.783 0-3.232-1.44-3.232-3.22 0-1.79 1.45-3.22 3.232-3.22 1.778 0 3.232 1.44 3.232 3.23z"/><path fill="#2974A7" d="M179.817 116.52c0 11.122-9.02 20.148-20.148 20.148s-20.16-9.026-20.16-20.148c0-11.13 9.02-20.157 20.15-20.157s20.14 9.027 20.14 20.157z"/><path fill="#fff" d="M156.59 110.703c0 3.792-3.08 6.868-6.874 6.868s-6.875-3.07-6.875-6.86c0-3.79 3.08-6.87 6.88-6.87s6.88 3.08 6.88 6.87zm7.573 7.412c0 1.78-1.455 3.226-3.236 3.226-1.775 0-3.23-1.44-3.23-3.22 0-1.79 1.455-3.22 3.23-3.22 1.78 0 3.236 1.44 3.236 3.23z"/><path fill="#2974A7" d="M139.52 133.11c0 3.866-5.16 6.993-11.52 6.993-6.357 0-11.52-3.127-11.52-6.992 0-3.86 5.163-6.99 11.52-6.99 6.36 0 11.52 3.13 11.52 7z"/></svg>