<svg xmlns="http://www.w3.org/2000/svg" width="256" height="256" viewBox="0 0 256 256"><path fill="#0071BC" d="M129.06 222.246c-8.54 0-17.03-.915-25.24-2.72-22.568-4.43-43.138-15.26-57.83-30.48-15.07-15.61-23.37-35.29-23.37-55.416 0-1.796.07-3.61.212-5.545l.274-3.705H34.13c2.112-7.7 5.573-15.03 10.326-21.875-2.077-1.342-4.01-2.906-5.782-4.677-12.87-12.874-14.403-55.182-14.536-59.963l-.117-4.226 4.23.11c4.78.13 47.1 1.66 59.97 14.53 4.96 4.95 8.28 11.21 9.61 18 10.04-2.8 20.53-4.21 31.25-4.21 10.14 0 20.08 1.27 29.63 3.78 1.39-6.63 4.68-12.74 9.51-17.58 12.87-12.87 55.18-14.41 59.97-14.54l4.23-.12-.11 4.22c-.13 4.78-1.66 47.09-14.53 59.96-1.43 1.44-2.99 2.74-4.64 3.9 5.04 7.07 8.68 14.66 10.88 22.65h9.17l.28 3.7c.15 1.93.21 3.75.21 5.55 0 32.73-21.46 62.59-56.01 77.96-14.7 6.97-31.48 10.65-48.55 10.65z"/><path fill="#333" d="M228.27 37.754S227.02 82.88 214.907 95c-2.315 2.316-4.908 4.186-7.67 5.616 6.633 8.278 11.342 17.672 13.607 27.764h8.573c.13 1.737.202 3.486.202 5.25 0 32.177-21.74 60.136-53.68 74.326-13.78 6.54-29.79 10.29-46.89 10.29-8.44 0-16.61-.92-24.38-2.628-44.76-8.783-78.06-42.155-78.06-81.988 0-1.764.07-3.513.2-5.25h10.44c2.21-9.85 6.74-19.035 13.12-27.166-3.21-1.49-6.23-3.564-8.88-6.214-12.11-12.12-13.36-57.246-13.36-57.246s45.13 1.248 57.24 13.366c5.66 5.658 8.67 12.963 9.05 20.376 10.71-3.49 22.39-5.41 34.63-5.41 11.6 0 22.71 1.73 32.95 4.885.48-7.23 3.48-14.32 9.01-19.85 12.12-12.11 57.24-13.36 57.24-13.36m8.23-8.23l-8.45.24c-.48.02-11.89.35-24.99 2.22-19 2.71-31.33 7.13-37.7 13.49-4.4 4.4-7.65 9.75-9.54 15.59-8.69-1.97-17.66-2.96-26.78-2.96-9.68 0-19.19 1.12-28.36 3.33-1.86-5.97-5.15-11.45-9.66-15.95-6.36-6.36-18.69-10.77-37.69-13.48-13.1-1.87-24.51-2.2-24.99-2.21l-8.45-.23.23 8.45c.01.48.34 11.89 2.21 24.99 2.71 19 7.12 31.33 13.49 37.7 1.01 1.01 2.06 1.96 3.16 2.84-3.36 5.38-5.99 11.02-7.87 16.88h-11.7l-.55 7.41c-.15 2.04-.23 3.94-.23 5.84 0 21.17 8.7 41.84 24.49 58.2 15.24 15.79 36.52 27.02 59.94 31.63 8.46 1.86 17.21 2.8 26.01 2.8 17.63 0 35-3.81 50.22-11.02 35.98-16.02 58.33-47.28 58.33-81.6 0-1.9-.07-3.81-.23-5.84l-.55-7.4h-9.9c-1.99-6.2-4.81-12.15-8.45-17.8.71-.61 1.4-1.25 2.06-1.92 6.36-6.37 10.77-18.7 13.49-37.7 1.87-13.09 2.2-24.5 2.21-24.98l.23-8.45z"/><path fill="#0071BC" d="M26.82 128.38c-.127 1.738-.2 3.487-.2 5.25 0 46.53 45.442 84.25 101.5 84.25s101.5-37.72 101.5-84.25c0-1.763-.074-3.512-.203-5.25H26.82zm58.562-77.26C97.5 63.23 97.5 82.88 85.382 95c-12.116 12.116-31.767 12.116-43.88 0-12.115-12.12-13.365-57.246-13.365-57.246s45.13 1.248 57.245 13.367z"/><path fill="#29ABE2" d="M84.496 64.727c8.116 8.117 8.116 21.278 0 29.387-8.113 8.118-21.27 8.118-29.39 0-8.114-8.11-8.944-38.333-8.944-38.333s30.22.83 38.334 8.95z"/><path fill="#0071BC" d="M171.025 51.12c-12.117 12.11-12.117 31.762 0 43.88 12.12 12.117 31.766 12.117 43.88 0 12.116-12.118 13.366-57.245 13.366-57.245s-45.12 1.247-57.24 13.365z"/><path fill="#29ABE2" d="M171.912 64.727c-8.117 8.117-8.117 21.278 0 29.387 8.113 8.118 21.268 8.118 29.387 0 8.11-8.11 8.94-38.333 8.94-38.333s-30.22.83-38.34 8.95z"/><path fill="#0071BC" d="M222.375 142.164c0 42.018-41.777 76.082-93.316 76.082-51.56 0-93.34-34.064-93.34-76.082 0-42.018 41.78-76.08 93.34-76.08 51.53 0 93.31 34.062 93.31 76.08z"/><path fill="#B3B3B3" d="M203.643 140.006c0 34.275-33.87 62.07-75.646 62.07-41.77 0-75.64-27.795-75.64-62.07 0-34.29 33.87-62.09 75.64-62.09 41.774 0 75.646 27.8 75.646 62.09z"/><path fill="#999898" d="M127.997 204.986c-43.312 0-78.55-29.152-78.55-64.98 0-35.843 35.238-65 78.55-65 43.315 0 78.556 29.156 78.556 65 0 35.828-35.24 64.98-78.556 64.98zm0-124.16c-40.104 0-72.73 26.548-72.73 59.18 0 32.623 32.626 59.164 72.73 59.164 40.108 0 72.737-26.54 72.737-59.164 0-32.632-32.63-59.18-72.737-59.18z"/><path fill="#FF7BAC" d="M119.443 97.18c-1.96-7.367-8.492-12.295-15.74-12.55-1.924-.226-3.912-.124-5.902.404-4.93 1.318-8.64 4.85-10.46 9.23-3.77-2.89-8.74-4.104-13.68-2.797-1.98.533-3.76 1.428-5.32 2.588-6.15 3.83-9.37 11.35-7.4 18.72.8 3.005 2.38 5.587 4.43 7.627 8.24 11.863 33.17 15.908 33.17 15.908s19.61-15.917 20.86-30.31c.78-2.798.85-5.822.05-8.82z"/><path fill="#ED1E79" d="M99.363 139.39l-1.29-.212c-1.067-.17-26.245-4.384-35.097-17.117-2.158-2.07-3.953-5.16-4.855-8.53-2.26-8.48 1.23-17.3 8.68-21.94 1.73-1.29 3.85-2.32 6.12-2.92 4.43-1.17 9.22-.63 13.31 1.48 2.5-3.89 6.31-6.7 10.82-7.91 2.27-.6 4.68-.76 7-.47 8.54.29 15.95 6.2 18.22 14.69.9 3.38.88 6.96-.05 10.35-1.25 14.92-20.99 31.11-21.83 31.8l-1.01.82zm-21.69-45.54c-1.095 0-2.192.146-3.26.432-1.558.41-3.01 1.12-4.335 2.107-5.47 3.41-7.938 9.64-6.334 15.63.63 2.38 1.902 4.56 3.67 6.31 6.72 9.6 25.23 13.86 30.297 14.86 3.9-3.4 17.82-16.24 18.8-27.45.76-2.92.77-5.44.13-7.82-1.59-6-6.83-10.18-13.03-10.39-2.32-.24-3.49-.11-5.05.3-3.84 1.03-6.96 3.78-8.52 7.54l-1.46 3.49-3-2.31c-2.28-1.76-5.09-2.73-7.89-2.73z"/><path fill="#FF7BAC" d="M136.555 97.18c1.96-7.367 8.494-12.295 15.742-12.55 1.926-.226 3.916-.124 5.904.404 4.93 1.318 8.64 4.85 10.47 9.23 3.77-2.89 8.75-4.104 13.68-2.797 1.99.533 3.77 1.428 5.33 2.588 6.16 3.83 9.38 11.35 7.41 18.72-.8 3.005-2.37 5.587-4.43 7.627-8.24 11.863-33.17 15.908-33.17 15.908S137.85 120.393 136.6 106c-.772-2.798-.846-5.822-.045-8.82z"/><path fill="#ED1E79" d="M156.637 139.39l-1.012-.816c-.84-.683-20.582-16.88-21.922-32.323-.842-2.86-.86-6.44.04-9.81 2.26-8.48 9.675-14.4 18.452-14.71 1.566-.21 4.482-.1 6.75.5 4.52 1.22 8.332 4.02 10.824 7.91 4.09-2.11 8.86-2.65 13.31-1.47 2.26.61 4.39 1.64 6.31 3.06 7.25 4.51 10.74 13.33 8.48 21.81-.91 3.38-2.7 6.47-5.2 8.95-8.52 12.32-33.69 16.54-34.76 16.71l-1.29.21zm-2.42-51.965c-.533 0-1.055.036-1.578.094-6.44.23-11.68 4.41-13.28 10.41-.64 2.38-.63 4.9.04 7.3.96 10.64 13.11 23.02 18.87 27.97 5.04-1 23.54-5.21 29.97-14.46 2.1-2.16 3.37-4.34 4-6.72 1.6-6-.87-12.22-6.14-15.5-1.53-1.13-2.98-1.84-4.53-2.25-3.81-1-7.98-.16-11.16 2.29l-3.01 2.3-1.46-3.5c-1.57-3.76-4.68-6.51-8.53-7.54-1.05-.28-2.14-.42-3.24-.42z"/><path fill="#333" d="M142.532 174.392c-7.307 0-11.78-3.05-14.53-7.5-2.75 4.45-7.24 7.5-14.544 7.5-10.596 0-18.896-11.74-18.896-26.726 0-2.408 1.957-4.36 4.365-4.36 2.41 0 4.365 1.952 4.365 4.36 0 10.605 5.355 18 10.166 18 8.656 0 10.182-7.707 10.182-23.89h8.727c0 16.183 1.52 23.89 10.166 23.89 4.818 0 10.18-7.395 10.18-18 0-2.408 1.957-4.36 4.365-4.36s4.36 1.952 4.36 4.36c0 14.985-8.304 26.726-18.906 26.726z"/><path fill="#2974A7" d="M139.52 138.317c0 3.863-5.157 6.993-11.52 6.993-6.357 0-11.52-3.13-11.52-6.993s5.163-6.993 11.52-6.993c6.363 0 11.52 3.13 11.52 6.993z"/><radialGradient id="a" cx="70.5" cy="141.868" r="30" gradientUnits="userSpaceOnUse"><stop offset="0" stop-color="#FF585D"/><stop offset="1" stop-color="#FF585D" stop-opacity="0"/></radialGradient><circle opacity=".4" fill="url(#a)" cx="70.5" cy="141.868" r="30"/><radialGradient id="b" cx="185.5" cy="141.868" r="30" gradientUnits="userSpaceOnUse"><stop offset="0" stop-color="#FF585D"/><stop offset="1" stop-color="#FF585D" stop-opacity="0"/></radialGradient><circle opacity=".4" fill="url(#b)" cx="185.5" cy="141.868" r="30"/></svg>