<svg xmlns="http://www.w3.org/2000/svg" width="256" height="256" viewBox="0 0 256 256"><path fill="#fff" d="M128.197 208.08c-53.67 0-97.336-35.925-97.336-80.083 0-1.042.03-2.112.09-3.2-2.66-2.288-5.08-4.9-7.52-8.09-2.62-3.486-4.76-7-6.53-10.76-2.14-4.586-3.41-8.694-4-12.945-.38-2.977-.37-5.664.04-8.254.24-1.312.58-2.948 1.29-4.687.39-1.05.97-2.12 1.29-2.67.35-.62.51-.87.76-1.2.07-.09.16-.21.37-.54l.08-.12.1-.12c2.52-3.33 5.63-5.21 7.79-6.2 2.31-1.06 4.83-1.75 7.68-2.13 1.46-.17 2.92-.26 4.37-.26 2.71 0 5.45.29 8.62.9 4.77 1 9.2 2.47 13.24 4.4 18.26-15.39 43.49-24.16 69.71-24.16 26.81 0 52.44 9.12 70.78 25.11 3.44-1.58 7.16-2.85 11.1-3.8 3.6-.8 6.67-1.17 9.71-1.17 1.09 0 2.19.05 3.27.15 2.91.29 5.45.92 7.8 1.92 2.2.95 5.36 2.75 7.96 5.99l.09.11.08.12c.22.32.32.44.39.54.27.34.43.57.82 1.21.56.91 1.03 1.84 1.35 2.63.6 1.36 1.04 2.81 1.4 4.57.5 2.64.59 5.25.29 8.28-.47 4.27-1.62 8.42-3.62 13.08-1.66 3.81-3.69 7.38-6.22 10.94-2.54 3.53-5.07 6.37-7.89 8.85.02.54.03 1.06.03 1.58 0 44.15-43.66 80.08-97.32 80.08zM211.97 87.2c2.248 3.122 4.23 6.36 5.94 9.7.23-.347.455-.694.67-1.042 1.293-2.094 2.255-4.202 2.705-5.932.238-.874.3-1.518.3-1.91-.307-.173-.81-.395-1.51-.555-1.3-.32-2.84-.48-4.524-.48-.82 0-1.68.04-2.56.11-.34.04-.67.07-1.02.12zm-177.62-.387c.01.39.09 1.02.344 1.86.516 1.748 1.54 3.836 2.89 5.906.377.57.778 1.13 1.2 1.7 1.883-3.59 4.086-7.07 6.596-10.4-.83-.11-1.663-.19-2.5-.24-.565-.03-1.16-.05-1.747-.05-1.998 0-3.8.2-5.213.6-.745.19-1.262.43-1.57.62z"/><path fill="#333" d="M128.197 51.92c27.947 0 53.02 10.017 70.124 25.886 3.98-2.1 8.26-3.633 12.7-4.698 2.8-.62 5.69-1.056 8.78-1.056.95 0 1.92.042 2.91.13 2.11.212 4.32.648 6.59 1.614 2.26.97 4.6 2.563 6.41 4.812.71 1.022.5.59 1.07 1.533.45.75.86 1.53 1.09 2.11.57 1.28.91 2.55 1.17 3.83.48 2.51.45 4.87.23 7.08-.48 4.4-1.75 8.26-3.32 11.9-1.58 3.62-3.53 6.99-5.81 10.2-2.31 3.21-4.91 6.26-8.35 9.09l-.27.23-.07.06c.06 1.12.1 2.25.1 3.38 0 42.02-41.78 76.09-93.31 76.09-51.55 0-93.33-34.06-93.33-76.08 0-1.67.08-3.34.21-4.99-3.45-2.7-6.1-5.63-8.47-8.73-2.37-3.14-4.41-6.46-6.1-10.04-1.67-3.58-3.05-7.4-3.66-11.79-.28-2.19-.37-4.55.02-7.08.23-1.27.53-2.56 1.07-3.86.21-.58.59-1.38 1.03-2.14.53-.95.34-.51 1.02-1.56 1.73-2.29 4.03-3.95 6.27-4.98 2.24-1.03 4.44-1.53 6.53-1.81 1.31-.16 2.6-.23 3.85-.23 2.74 0 5.33.34 7.86.82 5.13 1.08 10.05 2.79 14.58 5.26 17.08-15.32 41.72-24.95 69.12-24.95m-88.4 51.55c3.04-7.28 7.41-14.07 12.85-20.18-3.12-.9-6.36-1.45-9.52-1.65-.67-.03-1.34-.05-2-.05-2.25 0-4.43.23-6.29.75-2.48.65-4 1.91-4.26 2.78-.32.82-.41 2.46.27 4.71.65 2.21 1.87 4.64 3.37 6.94 1.57 2.38 3.51 4.71 5.58 6.72m177.15.99c1.88-1.98 3.61-4.23 5.02-6.51 1.44-2.33 2.6-4.81 3.18-7.02.62-2.27.48-3.91.15-4.71-.28-.86-1.84-2.09-4.33-2.66-1.63-.4-3.48-.58-5.41-.58-.95 0-1.93.05-2.9.13-2.61.25-5.26.74-7.85 1.45 5.18 6.06 9.3 12.75 12.16 19.92m-88.78-60.6c-26.23 0-51.54 8.51-70.33 23.5-3.67-1.55-7.6-2.77-11.74-3.64l-.06-.01-.06-.01c-3.43-.65-6.41-.96-9.37-.96-1.62 0-3.23.09-4.81.28l-.04.01-.04.01c-3.26.43-6.15 1.24-8.83 2.46-3.71 1.7-6.93 4.27-9.32 7.43l-.19.25-.17.26c-.09.14-.15.23-.19.28-.41.55-.66.95-1.07 1.68-.38.66-1.05 1.9-1.53 3.18C9.63 80.73 9.23 82.7 9 84l-.02.08-.02.08c-.463 2.97-.48 6.03-.05 9.35v.04l.01.04c.65 4.655 2.026 9.124 4.33 14.064 1.91 4.044 4.18 7.79 6.96 11.47l.015.02.013.02c2.165 2.84 4.326 5.25 6.64 7.4-.01.5-.02.99-.02 1.47 0 22.77 10.757 44.08 30.286 60 19.05 15.53 44.285 24.08 71.05 24.08 26.76 0 51.99-8.55 71.04-24.08 19.48-15.88 30.23-37.12 30.28-59.83 2.49-2.36 4.8-5.04 7.1-8.24l.02-.02.016-.02c2.69-3.78 4.856-7.59 6.62-11.63 2.18-5.07 3.43-9.58 3.94-14.22V94l.004-.04c.34-3.37.23-6.43-.33-9.36l-.01-.05-.01-.05c-.41-2.02-.93-3.722-1.63-5.333-.53-1.29-1.24-2.52-1.62-3.15-.44-.725-.7-1.104-1.09-1.606-.05-.06-.104-.13-.24-.33l-.16-.23-.18-.22c-3.12-3.88-6.88-6.03-9.48-7.15-2.757-1.17-5.677-1.89-8.957-2.22h-.08c-1.195-.11-2.42-.16-3.63-.16-3.34 0-6.684.4-10.51 1.25l-.07.02-.06.02c-3.31.79-6.48 1.81-9.48 3.03-18.91-15.59-44.63-24.44-71.47-24.44z"/><path fill="#676767" d="M62.52 83.465s-31.137-10.856-37.237-2c-6.09 8.855 7.295 30.083 17.734 37.272 0 0-6.1-22.847 19.503-35.272z"/><path fill="#B3B3B3" d="M60.492 86.537c-5.232-2.963-11.418-4.5-17.355-4.885-2.947-.168-5.88.02-8.287.687-2.477.64-4 1.9-4.262 2.77-.318.82-.404 2.46.277 4.71.65 2.21 1.87 4.64 3.37 6.93 3.005 4.55 7.346 8.95 11.407 11.2 4.465 2.48 6.065 8.1 3.584 12.56-2.482 4.46-8.106 6.06-12.56 3.58-.41-.23-.784-.47-1.138-.75l-.323-.25c-3.517-2.73-6.208-5.71-8.606-8.85-2.38-3.15-4.41-6.46-6.1-10.04-1.68-3.59-3.05-7.41-3.66-11.79-.29-2.2-.38-4.56.02-7.08.22-1.28.52-2.57 1.06-3.86.21-.59.59-1.38 1.03-2.14.53-.95.34-.52 1.02-1.57 1.74-2.3 4.03-3.96 6.27-4.99 2.24-1.03 4.44-1.53 6.53-1.8 4.19-.51 8.03-.12 11.71.59 7.27 1.52 14.13 4.29 20.06 8.77 1.62 1.24 1.95 3.56.71 5.18-1.13 1.5-3.18 1.88-4.77.97z"/><path fill="#676767" d="M193.332 85.47c-11.566-5.203 30.814-11.736 37.166-3.06 6.344 8.686-3.928 27.015-14.158 34.5 0 0 2.943-19.748-23.008-31.44z"/><path fill="#B3B3B3" d="M191.213 82.45c5.79-4.65 12.572-7.608 19.803-9.342 3.654-.812 7.482-1.307 11.686-.925 2.104.21 4.32.647 6.59 1.613 2.258.97 4.602 2.563 6.41 4.812.71 1.022.5.59 1.068 1.533.45.75.855 1.53 1.09 2.11.563 1.28.904 2.55 1.164 3.83.477 2.51.447 4.87.227 7.08-.48 4.4-1.75 8.26-3.32 11.9-1.58 3.62-3.52 6.99-5.8 10.2-2.31 3.21-4.91 6.26-8.35 9.09l-.27.23c-3.94 3.24-9.76 2.67-13-1.26-3.24-3.93-2.67-9.76 1.27-13 .36-.29.77-.58 1.15-.8 4-2.37 8.21-6.89 11.08-11.53 1.44-2.33 2.6-4.81 3.18-7.02.62-2.27.48-3.9.14-4.71-.28-.86-1.84-2.09-4.33-2.66-2.43-.6-5.37-.7-8.31-.46-5.92.57-12.06 2.28-17.21 5.39-1.74 1.07-4.01.51-5.08-1.23-.97-1.6-.58-3.66.85-4.8z"/><path fill="#fff" d="M221.516 127.998c0 42.02-41.78 76.083-93.318 76.083-51.55 0-93.336-34.06-93.336-76.08 0-42.02 41.787-76.08 93.336-76.08 51.538 0 93.318 34.06 93.318 76.08z"/><path fill="#B3B3B3" d="M203.644 125.838c0 34.277-33.87 62.074-75.646 62.074-41.77 0-75.64-27.797-75.64-62.074 0-34.29 33.87-62.085 75.64-62.085 41.776 0 75.646 27.795 75.646 62.085z"/><path fill="#999898" d="M127.997 190.82c-43.31 0-78.55-29.152-78.55-64.982 0-35.84 35.24-64.995 78.55-64.995 43.316 0 78.555 29.154 78.555 64.995 0 35.83-35.24 64.982-78.555 64.982zm0-124.16c-40.104 0-72.732 26.548-72.732 59.18 0 32.624 32.63 59.166 72.732 59.166 40.105 0 72.736-26.543 72.736-59.167 0-32.64-32.63-59.18-72.736-59.18z"/><path fill="#333" d="M127.62 158.9c-3.214 0-5-2.602-5-5.816V124c0-3.217 1.786-5.816 5-5.816s5 2.6 5 5.815v29.08c0 3.21-1.788 5.81-5 5.81z"/><path fill="#2974A7" d="M139.52 124.764c0 3.863-5.158 6.994-11.52 6.994-6.356 0-11.52-3.13-11.52-6.994s5.164-6.992 11.52-6.992c6.362 0 11.52 3.13 11.52 6.992z"/><path fill="#333" d="M96.98 105.032c0 6.26-5.072 11.33-11.334 11.33-6.256 0-11.328-5.07-11.328-11.33 0-6.258 5.072-11.33 11.328-11.33 6.262 0 11.333 5.072 11.333 11.33zm81.44 0c0 6.26-5.072 11.33-11.334 11.33-6.254 0-11.326-5.07-11.326-11.33 0-6.258 5.072-11.33 11.326-11.33 6.262 0 11.334 5.072 11.334 11.33z"/></svg>