<?xml version="1.0" encoding="utf-8"?>
<!-- Generator: Adobe Illustrator 16.0.0, SVG Export Plug-In . SVG Version: 6.00 Build 0)  -->
<!DOCTYPE svg PUBLIC "-//W3C//DTD SVG 1.1//EN" "http://www.w3.org/Graphics/SVG/1.1/DTD/svg11.dtd">
<svg version="1.1" id="Layer_1" xmlns="http://www.w3.org/2000/svg" xmlns:xlink="http://www.w3.org/1999/xlink" x="0px" y="0px"
	 width="256px" height="256px" viewBox="0 0 256 256" enable-background="new 0 0 256 256" xml:space="preserve">
<path fill="#0071BC" d="M129.061,222.246c-8.541,0-17.031-0.915-25.241-2.721c-22.568-4.43-43.138-15.26-57.83-30.479
	c-15.07-15.61-23.37-35.29-23.37-55.416c0-1.796,0.07-3.61,0.212-5.545l0.274-3.705H34.13c2.112-7.7,5.573-15.03,10.326-21.875
	c-2.077-1.342-4.01-2.906-5.782-4.677c-12.87-12.874-14.403-55.182-14.536-59.963l-0.117-4.226l4.23,0.11
	c4.78,0.13,47.1,1.66,59.97,14.53c4.96,4.95,8.28,11.21,9.61,18c10.04-2.8,20.53-4.21,31.25-4.21c10.13,0,20.08,1.27,29.63,3.78
	c1.391-6.63,4.67-12.74,9.51-17.58c12.881-12.87,55.19-14.4,59.971-14.54l4.229-0.12l-0.11,4.22
	c-0.129,4.78-1.66,47.09-14.529,59.96c-1.44,1.43-2.99,2.74-4.641,3.9c5.041,7.06,8.68,14.66,10.881,22.65h9.16l0.27,3.7
	c0.15,1.93,0.22,3.75,0.22,5.54c0,32.729-21.46,62.6-56.01,77.96c-14.7,6.97-31.49,10.66-48.55,10.66L129.061,222.246z"/>
<path fill="#333333" d="M228.27,37.754c0,0-1.25,45.126-13.362,57.246c-2.315,2.316-4.908,4.186-7.671,5.616
	c6.634,8.278,11.343,17.672,13.606,27.764h8.573c0.13,1.737,0.202,3.486,0.202,5.25c0,32.177-21.733,60.136-53.681,74.326
	c-13.773,6.54-29.789,10.29-46.881,10.29c-8.437,0-16.606-0.92-24.381-2.628c-44.754-8.783-78.06-42.155-78.06-81.988
	c0-1.764,0.074-3.513,0.203-5.25h10.43c2.21-9.85,6.74-19.035,13.12-27.166c-3.21-1.49-6.23-3.564-8.88-6.214
	c-12.11-12.12-13.36-57.246-13.36-57.246s45.13,1.248,57.24,13.366c5.66,5.658,8.67,12.963,9.05,20.376
	c10.7-3.49,22.39-5.41,34.62-5.41c11.6,0,22.71,1.73,32.949,4.885c0.48-7.23,3.48-14.32,9.011-19.85
	c12.12-12.11,57.239-13.36,57.239-13.36 M236.469,29.531l-8.449,0.24c-0.48,0.02-11.891,0.35-24.99,2.22
	c-19,2.71-31.33,7.13-37.7,13.49c-4.399,4.4-7.649,9.75-9.53,15.59c-8.689-1.97-17.66-2.96-26.779-2.96
	c-9.69,0-19.19,1.12-28.36,3.33C98.8,55.47,95.5,49.99,91,45.49C84.66,39.13,72.33,34.71,53.33,32
	c-13.1-1.87-24.51-2.207-24.985-2.22l-8.45-0.235l0.236,8.453c0.02,0.48,0.35,11.89,2.22,24.988c2.72,19,7.13,31.33,13.49,37.696
	c1.01,1.01,2.07,1.955,3.17,2.84c-3.35,5.375-5.98,11.02-7.86,16.88H19.4l-0.548,7.41c-0.15,2.034-0.226,3.94-0.226,5.84
	c0,21.166,8.698,41.834,24.49,58.193c15.24,15.783,36.522,27.014,59.94,31.627c8.464,1.86,17.214,2.801,26.008,2.801
	c17.637,0,35-3.811,50.225-11.021c35.98-16.022,58.33-47.28,58.33-81.601c0-1.899-0.08-3.81-0.23-5.841l-0.55-7.41h-9.899
	c-1.99-6.2-4.82-12.15-8.45-17.8c0.71-0.61,1.39-1.25,2.06-1.92c6.36-6.36,10.77-18.69,13.48-37.69
	c1.869-13.09,2.199-24.5,2.22-24.98l0.229-8.45L236.469,29.531z"/>
<path fill="#0071BC" d="M26.82,128.38c-0.127,1.738-0.2,3.487-0.2,5.25c0,46.53,45.442,84.25,101.5,84.25
	c56.056,0,101.5-37.72,101.5-84.25c0-1.763-0.074-3.512-0.203-5.25H26.82z M85.382,51.12C97.5,63.23,97.5,82.88,85.382,95
	c-12.116,12.116-31.767,12.116-43.88,0C29.387,82.88,28.137,37.754,28.137,37.754S73.267,39.002,85.382,51.12L85.382,51.12z"/>
<path fill="#29ABE2" d="M84.496,64.727c8.116,8.117,8.116,21.278,0,29.387c-8.113,8.118-21.27,8.118-29.39,0
	c-8.114-8.11-8.944-38.333-8.944-38.333s30.22,0.83,38.334,8.95V64.727z"/>
<path fill="#0071BC" d="M171.025,51.12c-12.117,12.11-12.117,31.762,0,43.88c12.119,12.117,31.766,12.117,43.879,0
	c12.117-12.118,13.367-57.245,13.367-57.245s-45.121,1.247-57.24,13.365H171.025z"/>
<path fill="#29ABE2" d="M171.912,64.727c-8.117,8.117-8.117,21.278,0,29.387c8.113,8.118,21.268,8.118,29.387,0
	c8.11-8.11,8.939-38.333,8.939-38.333s-30.219,0.83-38.34,8.95L171.912,64.727z"/>
<path fill="#0071BC" d="M222.375,142.164c0,42.018-41.777,76.082-93.316,76.082c-51.56,0-93.34-34.064-93.34-76.082
	c0-42.018,41.78-76.08,93.33-76.08c51.54,0,93.311,34.062,93.311,76.08H222.375z"/>
<path fill="#B3B3B3" d="M203.643,140.006c0,34.275-33.869,62.07-75.646,62.07c-41.77,0-75.64-27.795-75.64-62.07
	c0-34.29,33.87-62.09,75.64-62.09C169.771,77.916,203.643,105.716,203.643,140.006z"/>
<path fill="#999898" d="M151.617,140.38h-41.38l-57.562-12.92c-0.404,2.06-0.646,4.41-0.646,6.577
	c0,19.943,17.59,36.222,39.3,36.222c16.74,0,31-9.579,36.66-23.12c5.67,13.541,19.93,23.19,36.67,23.19
	c21.71,0,39.3-16.149,39.3-36.09c0-7.6-2.57-15.08-6.93-20.89l-45.43,27.02L151.617,140.38z"/>
<path fill="#FFFFFF" d="M200.9,129.148c0,19.498-15.801,35.297-35.297,35.297c-19.502,0-35.295-15.801-35.295-35.297
	c0-19.49,15.793-35.292,35.295-35.292C185.1,93.856,200.9,109.659,200.9,129.148z"/>
<path fill="#2974A7" d="M185.863,133.592c0,11.227-9.102,20.334-20.34,20.334c-11.23,0-20.332-9.107-20.332-20.334
	c0-11.236,9.109-20.337,20.34-20.337c11.24,0,20.34,9.1,20.34,20.337H185.863z"/>
<path fill="#FFFFFF" d="M162.416,127.72c0,3.83-3.1,6.931-6.938,6.931c-3.824,0-6.934-3.101-6.934-6.931
	c0-3.832,3.105-6.933,6.934-6.933C159.316,120.787,162.416,123.887,162.416,127.72L162.416,127.72z M170.057,135.206
	c0,1.796-1.463,3.248-3.258,3.248c-1.8,0-3.26-1.452-3.26-3.248c0-1.806,1.46-3.263,3.25-3.263s3.25,1.457,3.25,3.263H170.057z"/>
<path fill="#333333" d="M100.818,185.402c-2.158,0-4.232-1.203-5.232-3.271c-1.406-2.893-0.2-6.375,2.682-7.776
	c3.543-1.717,21.59-10.289,29.734-10.289c8.137,0,26.186,8.572,29.725,10.289c2.885,1.4,4.09,4.886,2.688,7.771
	c-1.397,2.89-4.89,4.104-7.771,2.69c-9.033-4.387-21.023-9.114-24.642-9.114c-3.63,0-15.623,4.729-24.643,9.114
	C102.536,185.215,101.67,185.402,100.818,185.402z M128,170.372c-3.213,0-5.5-2.604-5.5-5.817v-23.27c0-3.215,2.287-5.815,5.5-5.815
	s5.5,2.601,5.5,5.815v23.27C133.5,167.768,131.213,170.373,128,170.372L128,170.372z"/>
<path fill="#999898" d="M148.105,197.805c0,4.084-9.01,1.578-20.121,1.578c-11.11,0-20.123,2.506-20.123-1.578
	c0-4.086,9.012-13.216,20.123-13.216s20.121,9.13,20.121,13.21V197.805z M71.443,104.532L60,109.25l69.859,30.216l25.619-10.577
	l-12.584-30.74c0,0-23,24.62-29.254,22.28c-11.53-4.31-18.863-22.55-42.197-15.91V104.532z"/>
<path fill="#B3B3B3" d="M130.118,128.966c0-19.488,16.384-37.133,35.883-37.133c12.979,0,23.72,8.837,29.851,19.26l-64.75,26.123
	c-0.631-2.649-0.98-5.407-0.98-8.25H130.118z"/>
<path fill="#999898" d="M130.346,134.622l64.988-26.29c1.295,1.67,2.35,3.113,3.333,5l-67.103,27.294
	C130.992,138.688,130.578,136.684,130.346,134.622L130.346,134.622z"/>
<path fill="#999898" d="M121.766,91.132l-17.57,41.271l25.816,10.729L157,130.5l-13.898-30.862
	C143.102,99.638,130.005,113.188,121.766,91.132L121.766,91.132z"/>
<path fill="#999898" d="M127.996,75.006c-43.31,0-78.55,29.157-78.55,65c0,35.828,35.24,64.98,78.55,64.98h0.001
	c43.315,0,78.556-29.152,78.556-64.98C206.553,104.162,171.313,75.006,127.996,75.006z M127.996,199.17
	c-40.103,0-72.73-26.541-72.73-59.164c0-32.632,32.627-59.18,72.73-59.18h0.001c40.106,0,72.737,26.548,72.737,59.18
	C200.734,172.63,168.105,199.17,127.996,199.17z"/>
<path fill="#FFFFFF" d="M125.277,129.148c0,19.498-15.8,35.297-35.297,35.297c-19.5,0-35.293-15.801-35.293-35.297
	c0-19.49,15.793-35.292,35.293-35.292C109.477,93.856,125.277,109.659,125.277,129.148z"/>
<path fill="#2974A7" d="M110.238,133.592c0,11.227-9.1,20.334-20.338,20.334c-11.23,0-20.332-9.107-20.332-20.334
	c0-11.236,9.102-20.337,20.332-20.337C101.14,113.255,110.238,122.355,110.238,133.592z"/>
<path fill="#FFFFFF" d="M86.795,127.72c0,3.83-3.102,6.931-6.938,6.931c-3.83,0-6.928-3.101-6.928-6.931
	c0-3.832,3.09-6.933,6.92-6.933s6.94,3.1,6.94,6.932L86.795,127.72z M94.435,135.206c0,1.796-1.464,3.248-3.26,3.248
	c-1.8,0-3.26-1.452-3.26-3.248c0-1.806,1.46-3.263,3.26-3.263C92.971,131.943,94.435,133.4,94.435,135.206z"/>
<path fill="#2974A7" d="M139.66,142.052c0,3.862-5.158,6.993-11.52,6.993c-6.36,0-11.52-3.13-11.52-6.993
	c0-3.862,5.16-6.993,11.52-6.993c6.362,0,11.52,3.121,11.52,6.99V142.052z"/>
</svg>
