<svg xmlns="http://www.w3.org/2000/svg" width="256" height="256" viewBox="0 0 256 256"><path fill="#0071BC" d="M129.06 222.246c-8.54 0-17.03-.915-25.24-2.72-22.568-4.43-43.138-15.26-57.83-30.48-15.07-15.61-23.37-35.29-23.37-55.416 0-1.796.07-3.61.212-5.545l.274-3.705H34.13c2.112-7.7 5.573-15.03 10.326-21.875-2.077-1.342-4.01-2.906-5.782-4.677-12.87-12.874-14.403-55.182-14.536-59.963l-.117-4.226 4.23.11c4.78.13 47.1 1.66 59.97 14.53 4.96 4.95 8.28 11.21 9.61 18 10.04-2.8 20.53-4.21 31.25-4.21 10.13 0 20.08 1.27 29.63 3.78 1.39-6.63 4.67-12.74 9.51-17.58 12.88-12.87 55.19-14.4 59.97-14.54l4.23-.12-.11 4.22c-.13 4.78-1.66 47.09-14.53 59.96-1.44 1.43-2.99 2.74-4.64 3.9 5.04 7.06 8.68 14.66 10.88 22.65h9.16l.27 3.7c.15 1.93.22 3.75.22 5.54 0 32.73-21.46 62.6-56.01 77.96-14.7 6.97-31.49 10.66-48.55 10.66z"/><path fill="#333" d="M228.27 37.754S227.02 82.88 214.907 95c-2.315 2.316-4.908 4.186-7.67 5.616 6.633 8.278 11.342 17.672 13.606 27.764h8.573c.13 1.737.202 3.486.202 5.25 0 32.177-21.733 60.136-53.68 74.326-13.774 6.54-29.79 10.29-46.882 10.29-8.436 0-16.606-.92-24.38-2.628-44.754-8.783-78.06-42.155-78.06-81.988 0-1.764.074-3.513.203-5.25h10.43c2.21-9.85 6.74-19.035 13.12-27.166-3.21-1.49-6.23-3.564-8.88-6.214-12.11-12.12-13.36-57.246-13.36-57.246s45.13 1.248 57.24 13.366c5.66 5.658 8.67 12.963 9.05 20.376 10.7-3.49 22.39-5.41 34.62-5.41 11.6 0 22.71 1.73 32.95 4.885.48-7.23 3.48-14.32 9.01-19.85 12.12-12.11 57.24-13.36 57.24-13.36m8.23-8.23l-8.45.24c-.48.02-11.89.35-24.99 2.22-19 2.71-31.33 7.13-37.7 13.49-4.4 4.4-7.65 9.75-9.53 15.59-8.69-1.97-17.66-2.96-26.78-2.96-9.69 0-19.19 1.12-28.36 3.33C98.8 55.47 95.5 49.99 91 45.49 84.66 39.13 72.33 34.71 53.33 32c-13.1-1.87-24.51-2.207-24.985-2.22l-8.45-.235.236 8.453c.02.48.35 11.89 2.22 24.988 2.72 19 7.13 31.33 13.49 37.696 1.01 1.01 2.07 1.955 3.17 2.84-3.35 5.375-5.98 11.02-7.86 16.88H19.4l-.548 7.41c-.15 2.034-.226 3.94-.226 5.84 0 21.167 8.698 41.834 24.49 58.194 15.24 15.783 36.522 27.014 59.94 31.627 8.464 1.86 17.214 2.8 26.008 2.8 17.637 0 35-3.81 50.225-11.02 35.98-16.023 58.33-47.28 58.33-81.6 0-1.9-.08-3.81-.23-5.842l-.55-7.41h-9.9c-1.99-6.2-4.82-12.15-8.45-17.8.71-.61 1.39-1.25 2.06-1.92 6.36-6.36 10.77-18.69 13.48-37.69 1.87-13.09 2.2-24.5 2.22-24.98l.23-8.45z"/><path fill="#0071BC" d="M26.82 128.38c-.127 1.738-.2 3.487-.2 5.25 0 46.53 45.442 84.25 101.5 84.25 56.056 0 101.5-37.72 101.5-84.25 0-1.763-.074-3.512-.203-5.25H26.82zm58.562-77.26C97.5 63.23 97.5 82.88 85.382 95c-12.116 12.116-31.767 12.116-43.88 0-12.115-12.12-13.365-57.246-13.365-57.246s45.13 1.248 57.245 13.367z"/><path fill="#29ABE2" d="M84.496 64.727c8.116 8.117 8.116 21.278 0 29.387-8.113 8.118-21.27 8.118-29.39 0-8.114-8.11-8.944-38.333-8.944-38.333s30.22.83 38.334 8.95z"/><path fill="#0071BC" d="M171.025 51.12c-12.117 12.11-12.117 31.762 0 43.88 12.12 12.117 31.766 12.117 43.88 0 12.116-12.118 13.366-57.245 13.366-57.245s-45.12 1.247-57.24 13.365z"/><path fill="#29ABE2" d="M171.912 64.727c-8.117 8.117-8.117 21.278 0 29.387 8.113 8.118 21.268 8.118 29.387 0 8.11-8.11 8.94-38.333 8.94-38.333s-30.22.83-38.34 8.95z"/><path fill="#0071BC" d="M222.375 142.164c0 42.018-41.777 76.082-93.316 76.082-51.56 0-93.34-34.064-93.34-76.082 0-42.018 41.78-76.08 93.33-76.08 51.54 0 93.31 34.062 93.31 76.08z"/><path fill="#B3B3B3" d="M203.643 140.006c0 34.275-33.87 62.07-75.646 62.07-41.77 0-75.64-27.795-75.64-62.07 0-34.29 33.87-62.09 75.64-62.09 41.774 0 75.646 27.8 75.646 62.09z"/><path fill="#999898" d="M127.997 204.986c-43.312 0-78.55-29.152-78.55-64.98 0-35.843 35.238-65 78.55-65 43.315 0 78.556 29.156 78.556 65 0 35.828-35.24 64.98-78.556 64.98zm0-124.16c-40.104 0-72.73 26.548-72.73 59.18 0 32.623 32.626 59.164 72.73 59.164 40.108 0 72.737-26.54 72.737-59.164 0-32.632-32.63-59.18-72.737-59.18z"/><path fill="#333" d="M144.39 115.752c-1.048 0-2.097-.38-2.93-1.133-1.788-1.62-1.925-4.96-.304-6.75 8.373-9.24 17.373-14.5 26.738-14.5h.088c13.313 0 22.133 10.28 22.5 10.69 1.606 1.79 1.46 4.85-.334 6.46-1.793 1.59-4.535 1.67-6.146-.13-.07-.07-6.715-7.03-16.107-7.03h-.026c-6.8 0-13.61 3.66-20.25 10.99-.87.94-2.05 1.37-3.23 1.37zm-32.772-.007c-1.398 0-2.768-.667-3.613-1.905-.08-.112-7.803-11.246-18.254-11.963-5.93-.39-11.89 2.666-17.75 9.135-1.63 1.783-4.38 1.91-6.16.303-1.78-1.62-1.92-4.38-.3-6.166 7.76-8.57 16.06-12.59 24.88-11.98 14.7 1.05 24.41 15.17 24.81 15.77 1.35 1.99.82 4.69-1.16 6.04-.75.51-1.6.75-2.44.75zM128 153.395c-3.215 0-6-2.603-6-5.818V118.49c0-3.213 2.785-5.817 6-5.817s6 2.604 6 5.817v29.087c0 3.216-2.785 5.818-6 5.818z"/><path fill="#2974A7" d="M139.52 119.255c0 3.864-5.157 7-11.52 7-6.356 0-11.52-3.136-11.52-7 0-3.857 5.163-6.992 11.52-6.992 6.36 0 11.52 3.134 11.52 6.992z"/><path fill="#fff" d="M53.254 128.778c.194 0 .394.018.588.05 24.483 4.14 49.858 6.236 75.405 6.236 43.306 0 72.485-6.127 72.776-6.19.242-.05.484-.075.725-.075 1.032 0 2.014.45 2.76 1.29.922 1.02 1.373 2.51 1.204 3.99-6.334 55.39-70.544 56.99-77.846 56.99l-.488-.01c-40.25-2.33-59.56-17.45-68.674-29.73-10.28-13.85-10.447-27.32-10.45-27.89-.004-1.36.497-2.65 1.376-3.54.73-.74 1.66-1.14 2.624-1.14z"/><path fill="#999898" d="M184.758 131.74h7.5v35.57l-7.75 6.413zm-112.376 0h-7.5v35.57l7.75 6.413zm86.126 0h7.5v52.86l-7.75 3.994zm-33.5 4.254h7.5v54.35l-7.75-1.623zm-24.25-4.254h-7.5v52.86l7.75 3.994z"/><path fill="#333" d="M128.866 188.162l-.364-.002c-39.377-2.28-58.114-16.876-66.91-28.72-9.68-13.038-9.836-25.468-9.838-25.99-.002-.51.187-.994.517-1.328.28-.278.63-.43.99-.43.07 0 .15.006.22.02 24.62 4.158 50.11 6.27 75.78 6.27 43.59 0 72.94-6.175 73.23-6.238.09-.02.19-.028.27-.028.39 0 .76.17 1.04.483.35.38.52.94.45 1.49-6.05 52.94-68.29 54.46-75.36 54.46m-.01 5.83h.02c7.53 0 73.71-1.67 80.33-59.53.27-2.4-.46-4.83-1.96-6.49-1.21-1.35-2.8-2.09-4.48-2.09-.39 0-.79.04-1.17.12-.28.06-29.38 6.14-72.32 6.14-25.43 0-50.68-2.09-75.06-6.21-.28-.05-.61-.08-.93-.08-1.57 0-3.08.66-4.27 1.86-1.43 1.45-2.24 3.54-2.23 5.75.01 1.53.36 15.38 11.06 29.78 9.43 12.7 29.31 28.34 70.44 30.72h.6z"/></svg>