<?xml version="1.0" encoding="utf-8"?>
<!-- Generator: Adobe Illustrator 16.0.0, SVG Export Plug-In . SVG Version: 6.00 Build 0)  -->
<!DOCTYPE svg PUBLIC "-//W3C//DTD SVG 1.1//EN" "http://www.w3.org/Graphics/SVG/1.1/DTD/svg11.dtd">
<svg version="1.1" id="Layer_1" xmlns="http://www.w3.org/2000/svg" xmlns:xlink="http://www.w3.org/1999/xlink" x="0px" y="0px"
	 width="256px" height="256px" viewBox="0 0 256 256" enable-background="new 0 0 256 256" xml:space="preserve">
<path fill="#FFFFFF" d="M128.23,208.08c-24.225,0-47.434-7.354-65.352-20.71c-17.313-12.905-28.33-30.34-31.22-49.302
	c-2.965-1.351-5.716-2.868-8.354-4.614c-4.214-2.835-7.423-5.696-10.125-9.02c-1.88-2.36-3.26-4.667-4.24-7.085
	c-0.48-1.26-1.04-2.84-1.32-4.67c-0.21-1.07-0.27-2.3-0.29-2.95c-0.03-0.74-0.01-1.03,0.03-1.45c0.01-0.12,0.02-0.26,0.03-0.64
	v-0.15l0.01-0.15c0.43-4.16,2.12-7.39,3.46-9.36c1.44-2.11,3.23-4.01,5.47-5.8c3.23-2.53,6.85-4.48,11.44-6.17
	c6.31-2.21,12.52-3.33,18.53-3.33c0.52,0,1.05,0.01,1.57,0.02c18.19-21.84,48.04-34.81,80.33-34.81c32.27,0,62.119,12.97,80.3,34.8
	c0.38-0.01,0.76-0.02,1.14-0.02c6,0,12.221,1.11,18.461,3.3c4.64,1.72,8.27,3.67,11.469,6.17c2.271,1.82,4.07,3.71,5.5,5.81
	c1.341,1.97,3.031,5.19,3.461,9.36l0.02,0.15v0.15c0.01,0.37,0.02,0.52,0.04,0.63c0.04,0.41,0.05,0.72,0.03,1.46
	c-0.02,0.62-0.08,1.84-0.29,2.94c-0.29,1.84-0.84,3.41-1.29,4.58c-1.01,2.49-2.391,4.79-4.23,7.12
	c-2.74,3.37-5.949,6.229-10.14,9.04c-2.51,1.66-5.11,3.11-7.91,4.41c-2.829,19.01-13.819,36.5-31.149,49.45
	c-17.94,13.399-41.17,20.78-65.44,20.78L128.23,208.08z M28.36,108.043c0.213,0.326,0.606,0.825,1.258,1.413
	c0.86,0.79,1.978,1.59,3.265,2.352c0.818-3.286,1.885-6.52,3.195-9.685c-0.343,0.166-0.685,0.337-1.023,0.513
	c-2.35,1.235-4.37,2.68-5.664,4.055c-0.54,0.56-0.86,1.04-1.03,1.36L28.36,108.043z M220.47,102.393
	c1.229,3.007,2.237,6.073,3.024,9.188c1.124-0.68,2.104-1.4,2.859-2.1c0.67-0.6,1.068-1.1,1.285-1.43
	c-0.169-0.31-0.477-0.78-0.984-1.3c-1.346-1.42-3.365-2.87-5.732-4.11c-0.152-0.08-0.303-0.15-0.453-0.23L220.47,102.393z"/>
<path fill="#333333" d="M128.23,51.92c32.918,0,61.853,13.896,78.463,34.884c0.996-0.066,1.988-0.1,2.979-0.1
	c5.826,0,11.573,1.125,17.144,3.077c3.516,1.3,7.01,2.95,10.332,5.55c1.649,1.32,3.27,2.88,4.664,4.92
	c1.39,2.04,2.492,4.65,2.789,7.52c0.03,1.24,0.101,0.77,0.066,1.86c-0.02,0.88-0.104,1.76-0.23,2.37
	c-0.207,1.38-0.614,2.64-1.08,3.85c-0.967,2.37-2.265,4.34-3.638,6.08c-2.795,3.44-5.946,6-9.229,8.209
	c-2.979,1.971-6.084,3.601-9.352,4.98c-4.396,38.689-44.311,68.98-92.911,68.98c-48.526,0-88.4-30.19-92.908-68.78
	c-3.437-1.421-6.694-3.11-9.81-5.181c-3.28-2.2-6.437-4.77-9.23-8.2c-1.377-1.73-2.672-3.7-3.637-6.07
	c-0.465-1.21-0.877-2.47-1.086-3.85c-0.123-0.6-0.2-1.49-0.225-2.36c-0.035-1.09,0.03-0.62,0.068-1.86
	c0.295-2.87,1.402-5.479,2.79-7.51c1.39-2.04,3.01-3.6,4.66-4.92c3.323-2.6,6.817-4.25,10.333-5.55
	c5.567-1.95,11.313-3.07,17.14-3.07c1.13,0,2.263,0.05,3.398,0.13c16.62-21.01,45.57-34.92,78.51-34.92 M35.761,117.671
	c1.33-7.96,4.17-15.53,8.28-22.51c-3.78,0.83-7.46,2.23-10.82,3.96c-2.61,1.38-5.02,3.05-6.73,4.87c-1.79,1.84-2.44,3.71-2.21,4.59
	c0.15,0.87,0.93,2.31,2.68,3.89c1.69,1.55,4,3,6.47,4.19c0.76,0.36,1.55,0.7,2.35,1.02 M220.682,117.531
	c0.659-0.27,1.31-0.56,1.939-0.86c2.47-1.19,4.779-2.64,6.47-4.19c1.75-1.58,2.53-3.02,2.681-3.89c0.22-0.88-0.431-2.75-2.211-4.58
	c-1.709-1.82-4.119-3.49-6.74-4.87c-3.199-1.66-6.699-3-10.31-3.84c4.05,6.9,6.851,14.38,8.181,22.24 M128.261,43.981
	c-32.74,0-63.11,12.94-82.15,34.79c-6.38,0.03-12.95,1.22-19.54,3.53l-0.06,0.03l-0.06,0.03c-4.98,1.84-8.95,3.98-12.48,6.74
	l-0.03,0.03l-0.03,0.03c-2.56,2.04-4.61,4.22-6.28,6.66c-2.3,3.38-3.73,7.26-4.14,11.21l-0.03,0.29l-0.01,0.29
	c0,0.15,0,0.25-0.01,0.31c-0.07,0.69-0.08,1.18-0.05,2.05c0.02,0.88,0.1,2.22,0.34,3.48c0.35,2.18,0.98,3.99,1.5,5.34l0.03,0.08
	l0.03,0.08c1.13,2.78,2.7,5.41,4.79,8.03l0.03,0.04l0.03,0.04c2.96,3.64,6.45,6.76,10.97,9.8l0.03,0.02l0.02,0.02
	c2.23,1.48,4.53,2.801,6.96,4c3.52,19.19,14.9,36.73,32.43,49.791c18.6,13.869,42.66,21.5,67.74,21.5
	c25.12,0,49.21-7.66,67.82-21.57c17.55-13.109,28.91-30.721,32.369-49.96c2.261-1.14,4.4-2.38,6.48-3.75l0.02-0.011l0.03-0.01
	c4.521-3.039,8.011-6.149,10.98-9.8l0.03-0.04l0.029-0.04c2.08-2.63,3.65-5.25,4.77-8.02l0.031-0.08l0.029-0.08
	c0.51-1.34,1.141-3.14,1.49-5.33c0.24-1.29,0.32-2.63,0.35-3.55c0.03-0.81,0.021-1.3-0.05-1.94c-0.01-0.1-0.01-0.19-0.01-0.33
	l-0.011-0.31l-0.029-0.31c-0.41-3.96-1.84-7.83-4.141-11.2c-1.67-2.44-3.729-4.62-6.279-6.67l-0.03-0.02l-0.03-0.02
	c-3.529-2.76-7.5-4.91-12.479-6.75l-0.06-0.02l-0.061-0.02c-6.43-2.26-12.85-3.44-19.09-3.521c-19.03-21.86-49.4-34.79-82.14-34.79
	L128.261,43.981z"/>
<path fill="#676767" d="M50.747,90.612c0,0-32.268,6.8-32.914,17.534c-0.637,10.733,21.8,21.98,34.447,22.74
	C52.28,130.889,35.25,114.483,50.747,90.612z"/>
<path fill="#B3B3B3" d="M50.598,94.293c-6.008,0.163-12.1,2.05-17.383,4.79c-2.613,1.373-5.027,3.05-6.736,4.865
	c-1.8,1.84-2.44,3.706-2.22,4.587c0.15,0.868,0.92,2.31,2.67,3.89c1.69,1.553,3.99,3,6.47,4.19c4.92,2.35,10.91,3.87,15.55,3.696
	c5.11-0.18,9.38,3.8,9.57,8.91c0.17,5.11-3.81,9.391-8.91,9.561c-0.47,0.02-0.92,0.01-1.36-0.04l-0.41-0.05
	c-4.42-0.51-8.26-1.67-11.94-3.121c-3.66-1.469-7.12-3.25-10.42-5.43c-3.28-2.209-6.44-4.77-9.23-8.209
	c-1.38-1.73-2.68-3.7-3.64-6.07c-0.47-1.21-0.88-2.47-1.09-3.85c-0.13-0.6-0.2-1.49-0.23-2.36c-0.04-1.09,0.03-0.62,0.07-1.86
	c0.29-2.87,1.4-5.48,2.79-7.51c1.39-2.04,3.01-3.6,4.66-4.92c3.32-2.59,6.82-4.25,10.33-5.54c7.02-2.46,14.32-3.63,21.71-2.86
	c2.03,0.23,3.5,2.05,3.28,4.07c-0.19,1.87-1.75,3.26-3.58,3.31L50.598,94.293z"/>
<path fill="#676767" d="M205.254,90.612c0,0,32.268,6.8,32.916,17.534c0.633,10.733-21.8,21.98-34.45,22.74
	C203.72,130.889,220.754,114.483,205.254,90.612z"/>
<path fill="#B3B3B3" d="M205.402,94.293c6.01,0.163,12.1,2.05,17.38,4.79c2.616,1.373,5.028,3.05,6.739,4.865
	c1.791,1.84,2.438,3.706,2.217,4.587c-0.152,0.868-0.926,2.31-2.676,3.89c-1.69,1.553-4,3-6.473,4.19
	c-4.922,2.35-10.914,3.87-15.555,3.696c-5.105-0.18-9.387,3.8-9.568,8.91c-0.174,5.11,3.811,9.391,8.904,9.561
	c0.47,0.02,0.92,0.01,1.359-0.04l0.41-0.05c4.42-0.51,8.26-1.67,11.94-3.121c3.67-1.469,7.11-3.25,10.42-5.43
	c3.28-2.209,6.44-4.77,9.229-8.209c1.371-1.73,2.67-3.7,3.641-6.07c0.47-1.21,0.88-2.47,1.08-3.85c0.13-0.6,0.21-1.49,0.23-2.36
	c0.039-1.09-0.031-0.62-0.061-1.86c-0.3-2.87-1.4-5.48-2.79-7.51c-1.39-2.04-3.01-3.6-4.66-4.92c-3.319-2.59-6.81-4.25-10.33-5.54
	c-7.02-2.46-14.31-3.63-21.7-2.86c-2.029,0.23-3.5,2.05-3.279,4.07c0.199,1.87,1.76,3.26,3.59,3.31L205.402,94.293z"/>
<path fill="#FFFFFF" d="M221.547,127.996c0,42.02-41.777,76.085-93.318,76.085c-51.55,0-93.34-34.06-93.34-76.08
	c0-42.01,41.79-76.07,93.33-76.07c51.54,0,93.311,34.06,93.311,76.08L221.547,127.996z"/>
<path fill="#B3B3B3" d="M201.54,128.104c0,38.742-33.87,70.157-75.65,70.157c-41.77,0-75.638-31.409-75.638-70.15
	c0-38.75,33.867-70.17,75.64-70.17c41.778,0,75.647,31.42,75.647,70.17L201.54,128.104z"/>
<path fill="#999898" d="M125.89,201.172c-43.308,0-78.546-32.775-78.546-73.067c0-40.293,35.238-73.078,78.547-73.078
	c43.32,0,78.56,32.785,78.56,73.078C204.451,168.395,169.211,201.172,125.89,201.172L125.89,201.172z M125.89,60.845
	c-40.103,0-72.73,30.17-72.73,67.26c0,37.077,32.628,67.25,72.73,67.25c40.108,0,72.74-30.174,72.74-67.25
	C198.63,91.015,165.998,60.845,125.89,60.845L125.89,60.845z"/>
<path fill="#FFFFFF" d="M200.1,121.17c0,19.96-16.178,36.145-36.14,36.145c-19.968,0-36.147-16.186-36.147-36.146
	c0-19.97,16.18-36.15,36.148-36.15c19.971,0,36.141,16.18,36.141,36.14L200.1,121.17z M124.48,121.17
	c0,19.96-16.18,36.145-36.144,36.145c-19.967,0-36.145-16.186-36.145-36.146c0-19.97,16.18-36.15,36.15-36.15
	c19.97,0,36.15,16.18,36.15,36.14L124.48,121.17z"/>
<path fill="#2974A7" d="M90.485,141.488c-11.102-3.66-17.133-15.623-13.47-26.733c3.663-11.1,15.634-17.123,26.73-13.458
	c11.104,3.658,17.14,15.622,13.47,26.73c-3.664,11.105-15.63,17.125-26.73,13.459V141.488z"/>
<path fill="#FFFFFF" d="M103.938,120.236c-3.787-1.25-5.842-5.334-4.592-9.116c1.25-3.796,5.328-5.845,9.115-4.596
	c3.79,1.25,5.84,5.323,4.59,9.118c-1.25,3.783-5.33,5.846-9.11,4.594H103.938z M94.045,125.348c-1.777-0.59-2.742-2.516-2.158-4.287
	c0.586-1.77,2.512-2.74,4.28-2.15c1.78,0.59,2.747,2.51,2.163,4.29c-0.583,1.77-2.505,2.75-4.285,2.16V125.348z"/>
<path fill="#2974A7" d="M176.45,121.396c0,11.684-9.468,21.167-21.165,21.167c-11.69,0-21.16-9.481-21.16-21.167
	c0-11.693,9.47-21.173,21.16-21.173C166.982,100.223,176.449,109.703,176.45,121.396L176.45,121.396z"/>
<path fill="#FFFFFF" d="M152.053,115.278c0,3.987-3.232,7.22-7.22,7.22c-3.993,0-7.222-3.232-7.222-7.22
	c0-3.983,3.229-7.21,7.229-7.21c3.99,0,7.22,3.227,7.22,7.21H152.053z M160.006,123.072c0,1.868-1.529,3.393-3.398,3.393
	c-1.865,0-3.39-1.524-3.39-3.393c0-1.876,1.522-3.393,3.39-3.393c1.871,0,3.398,1.51,3.398,3.39V123.072z"/>
<path fill="#333333" d="M128,176.352c-3.213,0-6.5-2.603-6.5-5.816V141.45c0-3.218,3.287-5.816,6.5-5.816
	c3.217,0,6.5,2.601,6.5,5.816v29.084C134.5,173.749,131.217,176.352,128,176.352z"/>
<path fill="#2974A7" d="M139.52,142.216c0,3.863-5.156,6.994-11.52,6.994c-6.354,0-11.52-3.13-11.52-6.994
	c0-3.862,5.165-6.989,11.52-6.989C134.361,135.227,139.52,138.354,139.52,142.216z"/>
<path fill="#B3B3B3" d="M114.167,90c-6.24-5.132-16.286-6.5-25-6.5c-19.967,0-36.976,17.705-36.976,37.669
	c0,2.3,0.23,4.54,0.64,6.72c20.79-5.92,42.96-16.35,58.46-34.66L114.167,90z"/>
<path fill="#999898" d="M113.167,94.918c-1.31-1.24-2.71-2.38-4.194-3.415c-14.978,17.685-36.364,27.81-56.566,33.595
	c0.18,1.656,0.47,3.278,0.865,4.86C74.482,124.09,97.152,113.606,113.167,94.918z"/>
<path fill="#B3B3B3" d="M140.667,92c6.24-5.132,14.62-9.333,23.333-9.333c19.968,0,36.167,18.538,36.167,38.502
	c0,2.3-0.224,4.54-0.635,6.72c-20.785-5.92-44.698-20.412-60.198-38.722L140.667,92z"/>
<path fill="#999898" d="M139.189,94.918c1.311-1.24,2.711-2.38,4.195-3.415c14.979,17.685,36.363,27.81,56.565,33.595
	c-0.181,1.656-0.47,3.278-0.865,4.86c-21.208-5.868-43.88-16.352-59.894-35.04H139.189z"/>
<path fill="#FFFFFF" d="M82.106,73.108c0,0-12.602,25.685-2.422,29.563c10.184,3.89,15.024-10.16,2.422-29.56V73.108z"/>
<path fill="#999898" d="M125.89,201.172c-43.308,0-78.546-32.775-78.546-73.067c0-40.293,35.238-73.078,78.547-73.078
	c43.32,0,78.56,32.785,78.56,73.078C204.451,168.395,169.211,201.172,125.89,201.172L125.89,201.172z M125.89,60.845
	c-40.103,0-72.73,30.17-72.73,67.26c0,37.077,32.628,67.25,72.73,67.25c40.108,0,72.74-30.174,72.74-67.25
	C198.63,91.015,165.998,60.845,125.89,60.845L125.89,60.845z"/>
<path fill="#C1272D" d="M142.146,182.434c0.02,9.036-6.65,16.387-14.896,16.41c-8.26,0.03-14.975-7.267-14.996-16.313
	c-0.03-9.04,6.652-16.381,14.904-16.41c8.252-0.03,14.965,7.279,14.988,16.32V182.434z"/>
</svg>
