<svg xmlns="http://www.w3.org/2000/svg" width="256" height="256" viewBox="0 0 256 256"><path fill="#0071BC" d="M129.06 222.246c-8.54 0-17.03-.915-25.24-2.72-22.568-4.43-43.138-15.26-57.83-30.48-15.07-15.61-23.37-35.29-23.37-55.416 0-1.796.07-3.61.212-5.545l.274-3.705H34.13c2.112-7.7 5.573-15.03 10.326-21.875-2.077-1.342-4.01-2.906-5.782-4.677-12.87-12.874-14.403-55.182-14.536-59.963l-.117-4.226 4.23.11c4.78.13 47.1 1.66 59.97 14.53 4.96 4.95 8.28 11.21 9.61 18 10.04-2.8 20.53-4.21 31.25-4.21 10.13 0 20.08 1.27 29.63 3.78 1.39-6.63 4.67-12.74 9.51-17.58 12.88-12.87 55.19-14.4 59.97-14.54l4.23-.12-.11 4.22c-.13 4.78-1.66 47.09-14.53 59.96-1.44 1.43-2.99 2.74-4.64 3.9 5.04 7.06 8.68 14.66 10.88 22.65h9.16l.27 3.7c.15 1.93.22 3.75.22 5.54 0 32.73-21.46 62.6-56.01 77.96-14.7 6.97-31.49 10.66-48.55 10.66z"/><path fill="#333" d="M228.27 37.754S227.02 82.88 214.907 95c-2.315 2.316-4.908 4.186-7.67 5.616 6.633 8.278 11.342 17.672 13.606 27.764h8.573c.13 1.737.202 3.486.202 5.25 0 32.177-21.733 60.136-53.68 74.326-13.774 6.54-29.79 10.29-46.882 10.29-8.436 0-16.606-.92-24.38-2.628-44.754-8.783-78.06-42.155-78.06-81.988 0-1.764.074-3.513.203-5.25h10.43c2.21-9.85 6.74-19.035 13.12-27.166-3.21-1.49-6.23-3.564-8.88-6.214-12.11-12.12-13.36-57.246-13.36-57.246s45.13 1.248 57.24 13.366c5.66 5.658 8.67 12.963 9.05 20.376 10.7-3.49 22.39-5.41 34.62-5.41 11.6 0 22.71 1.73 32.95 4.885.48-7.23 3.48-14.32 9.01-19.85 12.12-12.11 57.24-13.36 57.24-13.36m8.23-8.23l-8.45.24c-.48.02-11.89.35-24.99 2.22-19 2.71-31.33 7.13-37.7 13.49-4.4 4.4-7.65 9.75-9.53 15.59-8.69-1.97-17.66-2.96-26.78-2.96-9.69 0-19.19 1.12-28.36 3.33C98.8 55.47 95.5 49.99 91 45.49 84.66 39.13 72.33 34.71 53.33 32c-13.1-1.87-24.51-2.207-24.985-2.22l-8.45-.235.236 8.453c.02.48.35 11.89 2.22 24.988 2.72 19 7.13 31.33 13.49 37.696 1.01 1.01 2.07 1.955 3.17 2.84-3.35 5.375-5.98 11.02-7.86 16.88H19.4l-.548 7.41c-.15 2.034-.226 3.94-.226 5.84 0 21.167 8.698 41.834 24.49 58.194 15.24 15.783 36.522 27.014 59.94 31.627 8.464 1.86 17.214 2.8 26.008 2.8 17.637 0 35-3.81 50.225-11.02 35.98-16.023 58.33-47.28 58.33-81.6 0-1.9-.08-3.81-.23-5.842l-.55-7.41h-9.9c-1.99-6.2-4.82-12.15-8.45-17.8.71-.61 1.39-1.25 2.06-1.92 6.36-6.36 10.77-18.69 13.48-37.69 1.87-13.09 2.2-24.5 2.22-24.98l.23-8.45z"/><path fill="#0071BC" d="M26.82 128.38c-.127 1.738-.2 3.487-.2 5.25 0 46.53 45.442 84.25 101.5 84.25 56.056 0 101.5-37.72 101.5-84.25 0-1.763-.074-3.512-.203-5.25H26.82zm58.562-77.26C97.5 63.23 97.5 82.88 85.382 95c-12.116 12.116-31.767 12.116-43.88 0-12.115-12.12-13.365-57.246-13.365-57.246s45.13 1.248 57.245 13.367z"/><path fill="#29ABE2" d="M84.496 64.727c8.116 8.117 8.116 21.278 0 29.387-8.113 8.118-21.27 8.118-29.39 0-8.114-8.11-8.944-38.333-8.944-38.333s30.22.83 38.334 8.95z"/><path fill="#0071BC" d="M171.025 51.12c-12.117 12.11-12.117 31.762 0 43.88 12.12 12.117 31.766 12.117 43.88 0 12.116-12.118 13.366-57.245 13.366-57.245s-45.12 1.247-57.24 13.365z"/><path fill="#29ABE2" d="M171.912 64.727c-8.117 8.117-8.117 21.278 0 29.387 8.113 8.118 21.268 8.118 29.387 0 8.11-8.11 8.94-38.333 8.94-38.333s-30.22.83-38.34 8.95z"/><path fill="#0071BC" d="M222.375 142.164c0 42.018-41.777 76.082-93.316 76.082-51.56 0-93.34-34.064-93.34-76.082 0-42.018 41.78-76.08 93.33-76.08 51.54 0 93.31 34.062 93.31 76.08z"/><path fill="#B3B3B3" d="M203.643 140.006c0 34.275-33.87 62.07-75.646 62.07-41.77 0-75.64-27.795-75.64-62.07 0-34.29 33.87-62.09 75.64-62.09 41.774 0 75.646 27.8 75.646 62.09z"/><path fill="#999898" d="M151.617 140.38h-41.38l-57.562-12.92c-.404 2.06-.646 4.41-.646 6.577 0 19.943 17.59 36.222 39.3 36.222 16.74 0 31-9.58 36.66-23.12 5.67 13.54 19.93 23.19 36.67 23.19 21.71 0 39.3-16.15 39.3-36.09 0-7.6-2.57-15.08-6.93-20.89l-45.43 27.02z"/><path fill="#fff" d="M200.9 129.148c0 19.498-15.8 35.297-35.297 35.297-19.502 0-35.295-15.8-35.295-35.297 0-19.49 15.793-35.292 35.295-35.292 19.497 0 35.297 15.803 35.297 35.292z"/><path fill="#2974A7" d="M185.863 133.592c0 11.227-9.102 20.334-20.34 20.334-11.23 0-20.332-9.107-20.332-20.334 0-11.236 9.11-20.337 20.34-20.337 11.24 0 20.34 9.1 20.34 20.337z"/><path fill="#fff" d="M162.416 127.72c0 3.83-3.1 6.93-6.938 6.93-3.824 0-6.933-3.1-6.933-6.93 0-3.832 3.106-6.933 6.933-6.933 3.838 0 6.938 3.1 6.938 6.932zm7.64 7.486c0 1.796-1.462 3.248-3.257 3.248-1.8 0-3.26-1.452-3.26-3.248 0-1.806 1.46-3.263 3.25-3.263s3.25 1.457 3.25 3.263z"/><path fill="#333" d="M100.818 185.402c-2.158 0-4.232-1.203-5.232-3.27-1.406-2.893-.2-6.375 2.682-7.776 3.543-1.717 21.59-10.29 29.734-10.29 8.137 0 26.186 8.573 29.725 10.29 2.885 1.4 4.09 4.885 2.688 7.77-1.398 2.89-4.89 4.104-7.77 2.69-9.034-4.386-21.024-9.114-24.642-9.114-3.63 0-15.623 4.73-24.643 9.115-.824.398-1.69.585-2.542.585zM128 170.372c-3.213 0-5.5-2.604-5.5-5.817v-23.27c0-3.215 2.287-5.815 5.5-5.815s5.5 2.6 5.5 5.815v23.27c0 3.213-2.287 5.818-5.5 5.818z"/><path fill="#999898" d="M148.105 197.805c0 4.084-9.01 1.578-20.12 1.578-11.11 0-20.123 2.506-20.123-1.578 0-4.086 9.012-13.216 20.123-13.216 11.11 0 20.12 9.13 20.12 13.21zm-76.662-93.273L60 109.25l69.86 30.216 25.618-10.577-12.584-30.74s-23 24.62-29.254 22.28c-11.53-4.31-18.863-22.55-42.197-15.91z"/><path fill="#B3B3B3" d="M130.118 128.966c0-19.488 16.384-37.133 35.883-37.133 12.98 0 23.72 8.837 29.85 19.26l-64.75 26.123c-.63-2.65-.98-5.408-.98-8.25z"/><path fill="#999898" d="M130.346 134.622l64.988-26.29c1.295 1.67 2.35 3.113 3.333 5l-67.103 27.294c-.572-1.938-.986-3.942-1.218-6.004zm-8.58-43.49l-17.57 41.27 25.816 10.73L157 130.5l-13.898-30.862s-13.097 13.55-21.335-8.505zm6.23 113.854c-43.31 0-78.55-29.152-78.55-64.98 0-35.843 35.24-65 78.55-65 43.316 0 78.557 29.156 78.557 65 0 35.828-35.24 64.98-78.556 64.98zm0-124.16c-40.103 0-72.73 26.548-72.73 59.18 0 32.623 32.627 59.164 72.73 59.164 40.11 0 72.738-26.54 72.738-59.164 0-32.632-32.63-59.18-72.737-59.18z"/><path fill="#fff" d="M125.277 129.148c0 19.498-15.8 35.297-35.297 35.297-19.5 0-35.293-15.8-35.293-35.297 0-19.49 15.793-35.292 35.293-35.292 19.497 0 35.297 15.803 35.297 35.292z"/><path fill="#2974A7" d="M110.238 133.592c0 11.227-9.1 20.334-20.338 20.334-11.23 0-20.332-9.107-20.332-20.334 0-11.236 9.102-20.337 20.332-20.337 11.24 0 20.338 9.1 20.338 20.337z"/><path fill="#fff" d="M86.795 127.72c0 3.83-3.102 6.93-6.938 6.93-3.83 0-6.928-3.1-6.928-6.93 0-3.832 3.09-6.933 6.92-6.933s6.94 3.1 6.94 6.932zm7.64 7.486c0 1.796-1.464 3.248-3.26 3.248-1.8 0-3.26-1.452-3.26-3.248 0-1.806 1.46-3.263 3.26-3.263 1.796 0 3.26 1.457 3.26 3.263z"/><path fill="#2974A7" d="M139.66 142.052c0 3.862-5.158 6.993-11.52 6.993-6.36 0-11.52-3.13-11.52-6.993s5.16-6.993 11.52-6.993c6.362 0 11.52 3.12 11.52 6.99z"/></svg>