<svg xmlns="http://www.w3.org/2000/svg" width="256" height="256" viewBox="0 0 256 256"><path fill="#0071BC" d="M129.06 222.246c-8.54 0-17.03-.915-25.24-2.72-22.568-4.43-43.138-15.26-57.83-30.48-15.07-15.61-23.37-35.29-23.37-55.416 0-1.796.07-3.61.212-5.545l.274-3.705H34.13c2.112-7.7 5.573-15.03 10.326-21.875-2.077-1.342-4.01-2.906-5.782-4.677-12.87-12.874-14.403-55.182-14.536-59.963l-.117-4.226 4.23.11c4.78.13 47.1 1.66 59.97 14.53 4.96 4.95 8.28 11.21 9.61 18 10.04-2.8 20.53-4.21 31.25-4.21 10.13 0 20.08 1.27 29.63 3.78 1.4-6.63 4.67-12.74 9.51-17.58 12.9-12.87 55.19-14.4 59.98-14.54l4.23-.12-.11 4.22c-.13 4.78-1.66 47.09-14.53 59.96-1.43 1.43-2.99 2.74-4.64 3.9 5.04 7.06 8.68 14.66 10.88 22.65h9.16l.27 3.7c.15 1.93.23 3.75.23 5.54 0 32.72-21.46 62.6-56.01 77.96-14.7 6.97-31.49 10.66-48.55 10.66l-.05.04h-.02z"/><path fill="#333" d="M228.27 37.754S227.02 82.88 214.91 95c-2.315 2.316-4.91 4.186-7.67 5.616 6.633 8.278 11.34 17.672 13.604 27.764h8.573c.13 1.737.202 3.486.202 5.25 0 32.177-21.74 60.136-53.69 74.326-13.78 6.54-29.79 10.29-46.88 10.29-8.44 0-16.61-.92-24.38-2.628-44.76-8.783-78.06-42.155-78.06-81.988 0-1.764.07-3.513.2-5.25h10.43c2.21-9.85 6.74-19.035 13.12-27.166-3.21-1.49-6.23-3.564-8.88-6.214-12.11-12.12-13.36-57.246-13.36-57.246s45.13 1.248 57.24 13.366c5.66 5.658 8.67 12.963 9.05 20.376 10.7-3.49 22.39-5.41 34.62-5.41 11.6 0 22.71 1.73 32.95 4.885.48-7.22 3.48-14.32 9.01-19.85 12.12-12.11 57.24-13.36 57.24-13.36m8.23-8.23l-8.45.24c-.48.02-11.89.35-24.99 2.22-19 2.71-31.33 7.13-37.7 13.49-4.4 4.4-7.65 9.75-9.53 15.59-8.69-1.97-17.66-2.96-26.78-2.96-9.69 0-19.19 1.12-28.36 3.33C98.8 55.47 95.5 49.99 91 45.49 84.66 39.13 72.33 34.71 53.33 32c-13.1-1.87-24.51-2.207-24.985-2.22l-8.45-.235.236 8.453c.02.48.35 11.89 2.22 24.988 2.72 19 7.13 31.33 13.49 37.696 1.01 1.01 2.07 1.955 3.17 2.84-3.35 5.375-5.97 11.02-7.86 16.88H19.4l-.548 7.41c-.15 2.034-.226 3.94-.226 5.84 0 21.166 8.698 41.834 24.49 58.19 15.24 15.784 36.522 27.017 59.94 31.63 8.464 1.86 17.214 2.8 26.008 2.8 17.637 0 35-3.81 50.225-11.02 35.98-16.022 58.33-47.28 58.33-81.6 0-1.9-.08-3.814-.23-5.844l-.55-7.41h-9.9c-1.99-6.2-4.82-12.15-8.45-17.8.71-.61 1.39-1.25 2.06-1.92 6.36-6.36 10.77-18.69 13.48-37.69 1.87-13.09 2.2-24.5 2.22-24.98l.23-8.45-.02-.03v.003z"/><path fill="#0071BC" d="M26.82 128.38c-.127 1.738-.2 3.487-.2 5.25 0 46.53 45.442 84.25 101.5 84.25 56.056 0 101.5-37.72 101.5-84.25 0-1.763-.074-3.512-.203-5.25H26.82zm58.562-77.26C97.5 63.23 97.5 82.88 85.382 95c-12.116 12.116-31.767 12.116-43.88 0-12.115-12.12-13.365-57.246-13.365-57.246s45.13 1.248 57.245 13.366z"/><path fill="#29ABE2" d="M84.496 64.727c8.116 8.117 8.116 21.278 0 29.387-8.113 8.118-21.27 8.118-29.39 0-8.114-8.11-8.944-38.333-8.944-38.333s30.22.83 38.334 8.95z"/><path fill="#0071BC" d="M171.025 51.12c-12.117 12.11-12.117 31.762 0 43.88 12.12 12.117 31.766 12.117 43.88 0 12.116-12.118 13.366-57.245 13.366-57.245s-45.12 1.247-57.24 13.365z"/><path fill="#29ABE2" d="M171.912 64.727c-8.117 8.117-8.117 21.278 0 29.387 8.113 8.118 21.268 8.118 29.387 0 8.11-8.11 8.93-38.333 8.93-38.333s-30.22.83-38.34 8.95h.02z"/><path fill="#0071BC" d="M222.375 142.164c0 42.018-41.777 76.082-93.316 76.082-51.56 0-93.34-34.064-93.34-76.082 0-42.018 41.78-76.08 93.33-76.08 51.54 0 93.31 34.062 93.31 76.08h.01z"/><path fill="#B3B3B3" d="M203.643 140.006c0 34.275-33.87 62.07-75.646 62.07-41.77 0-75.64-27.795-75.64-62.07 0-34.29 33.87-62.09 75.64-62.09 41.774 0 75.646 27.8 75.646 62.09z"/><path fill="#999898" d="M127.997 204.986c-43.312 0-78.55-29.152-78.55-64.98 0-35.843 35.238-65 78.55-65 43.315 0 78.556 29.156 78.556 65 0 35.828-35.24 64.98-78.556 64.98zm0-124.16c-40.104 0-72.73 26.548-72.73 59.18 0 32.623 32.626 59.164 72.73 59.164 40.108 0 72.737-26.54 72.737-59.164 0-32.632-32.63-59.18-72.737-59.18z"/><path fill="#fff" d="M125.483 132.633c0 19.496-15.797 35.297-35.295 35.297-19.502 0-35.295-15.8-35.295-35.297 0-19.488 15.793-35.296 35.295-35.296 19.5 0 35.295 15.808 35.295 35.296z"/><path fill="#2974A7" d="M110.446 137.075c0 11.224-9.102 20.333-20.336 20.333-11.232 0-20.336-9.11-20.336-20.333 0-11.238 9.104-20.335 20.336-20.335 11.235 0 20.336 9.097 20.336 20.335z"/><path fill="#fff" d="M87.003 131.202c0 3.825-3.104 6.93-6.938 6.93-3.828 0-6.932-3.104-6.932-6.93 0-3.83 3.104-6.932 6.932-6.932 3.834 0 6.938 3.103 6.938 6.932zm7.64 7.486c0 1.797-1.466 3.252-3.263 3.252-1.795 0-3.254-1.455-3.254-3.252 0-1.802 1.46-3.258 3.254-3.258 1.797 0 3.262 1.456 3.263 3.258zm106.462-6.055c0 19.496-15.8 35.297-35.293 35.297-19.506 0-35.297-15.8-35.297-35.297 0-19.488 15.79-35.296 35.297-35.296 19.497 0 35.293 15.808 35.293 35.296z"/><path fill="#2974A7" d="M186.068 137.075c0 11.224-9.104 20.333-20.338 20.333-11.23 0-20.33-9.11-20.33-20.333 0-11.238 9.1-20.335 20.33-20.335 11.238 0 20.338 9.097 20.338 20.335z"/><path fill="#fff" d="M162.626 131.202c0 3.825-3.104 6.93-6.938 6.93-3.828 0-6.93-3.104-6.93-6.93 0-3.83 3.102-6.932 6.93-6.932 3.833 0 6.938 3.103 6.938 6.932zm7.642 7.486c0 1.797-1.468 3.252-3.265 3.252-1.793 0-3.254-1.455-3.254-3.252 0-1.802 1.46-3.258 3.25-3.258s3.26 1.456 3.26 3.258z"/><path fill="#B3B3B3" d="M125.483 132.633c0-19.488-15.65-37.133-35.148-37.133-12.974 0-24.445 8.837-30.58 19.26l64.747 26.124c.634-2.65.98-5.407.98-8.25zm4.635 0c0-19.488 16.384-37.133 35.883-37.133 12.98 0 23.72 8.837 29.86 19.26l-64.75 26.123c-.63-2.65-.98-5.408-.98-8.25h-.01z"/><path fill="#999898" d="M196.73 116.36c-.98-1.89-2.13-3.68-3.42-5.34l-38.866 15.803-11.342-25.186s-13.097 13.55-21.335-8.506L106.5 129l-44.208-17.98c-1.295 1.67-2.442 3.456-3.425 5.344l63.49 25.587 7.653 3.19 66.72-28.77z"/><path fill="#333" d="M128.12 185.484c-3.218 0-5.5-2.6-5.5-5.815v-34.91c0-3.22 2.282-5.82 5.5-5.82 3.212 0 5.5 2.6 5.5 5.81v34.9c0 3.21-2.288 5.81-5.5 5.81v.02z"/><path fill="#2974A7" d="M139.52 145.534c0 3.86-5.154 6.99-11.52 6.99-6.355 0-11.52-3.13-11.52-6.99 0-3.864 5.164-6.994 11.52-6.994 6.36 0 11.52 3.13 11.52 6.994z"/><path fill="#333" d="M126.286 190.328c-19.477 0-33.37-9.354-33.586-9.508-2.643-1.827-3.307-5.442-1.482-8.094 1.824-2.646 5.44-3.31 8.082-1.49 1.193.82 27.787 18.336 57.304-2.838 2.608-1.88 6.244-1.284 8.117 1.336 1.9 2.61 1.28 6.244-1.33 8.117-13.17 9.46-26.02 12.48-37.1 12.48z"/><path fill="#999898" d="M127.997 204.986c-43.312 0-78.55-29.152-78.55-64.98 0-35.843 35.238-65 78.55-65 43.315 0 78.556 29.156 78.556 65 0 35.828-35.24 64.98-78.556 64.98zm0-124.16c-40.104 0-72.73 26.548-72.73 59.18 0 32.623 32.626 59.164 72.73 59.164 40.108 0 72.737-26.54 72.737-59.164 0-32.632-32.63-59.18-72.737-59.18z"/></svg>