<?xml version="1.0" encoding="utf-8"?>
<!-- Generator: Adobe Illustrator 16.0.0, SVG Export Plug-In . SVG Version: 6.00 Build 0)  -->
<!DOCTYPE svg PUBLIC "-//W3C//DTD SVG 1.1//EN" "http://www.w3.org/Graphics/SVG/1.1/DTD/svg11.dtd">
<svg version="1.1" id="Layer_1" xmlns="http://www.w3.org/2000/svg" xmlns:xlink="http://www.w3.org/1999/xlink" x="0px" y="0px"
	 width="256px" height="256px" viewBox="0 0 256 256" enable-background="new 0 0 256 256" xml:space="preserve">
<path fill="#333333" d="M109.36,224.756c-14.493,0.001-26.906-13.08-30.89-32.552c-0.72-3.5-1.134-7.068-1.236-10.639
	c-28.671-14.514-46.374-40.465-46.374-68.252c0-1.041,0.027-2.111,0.082-3.2c-2.67-2.296-5.096-4.911-7.523-8.098
	c-2.63-3.484-4.765-6.995-6.535-10.746c-2.13-4.566-3.399-8.672-4.003-12.937c-0.384-3-0.368-5.684,0.04-8.257
	c0.238-1.327,0.586-2.974,1.297-4.688c0.38-1.016,0.956-2.087,1.272-2.646c0.354-0.635,0.529-0.896,0.782-1.23
	c0.065-0.086,0.149-0.201,0.348-0.512l0.085-0.134l0.096-0.127c2.527-3.341,5.643-5.219,7.812-6.207
	c2.322-1.063,4.835-1.76,7.675-2.126c1.455-0.174,2.907-0.259,4.355-0.259c2.707,0,5.448,0.281,8.625,0.886
	c4.757,1,9.172,2.468,13.205,4.384c18.256-15.396,43.497-24.179,69.728-24.179c26.811,0,52.435,9.119,70.783,25.103
	c3.438-1.583,7.16-2.858,11.104-3.802c3.597-0.801,6.661-1.167,9.707-1.167c1.092,0,2.19,0.049,3.267,0.147
	c2.899,0.289,5.439,0.917,7.802,1.924c2.196,0.944,5.352,2.744,7.957,5.982l0.087,0.108l0.08,0.114
	c0.222,0.319,0.323,0.451,0.397,0.546c0.268,0.342,0.423,0.567,0.816,1.226c0.313,0.514,0.92,1.565,1.346,2.614
	c0.592,1.357,1.035,2.811,1.395,4.567c0.502,2.628,0.591,5.241,0.292,8.273c-0.472,4.291-1.624,8.437-3.632,13.092
	c-1.652,3.786-3.683,7.358-6.215,10.937c-2.544,3.532-5.072,6.374-7.887,8.854c0.014,0.532,0.021,1.048,0.021,1.557v4h-0.126
	c-1.611,26.441-19.118,50.687-46.674,64.472c0.226,4.495-0.041,8.935-0.796,13.234c-3.1,17.637-14.049,29.031-27.893,29.031
	c-0.387,0-0.773-0.01-1.162-0.028l-4.438-0.245c-0.609-0.031-3.959-0.257-8.304-1.554l-0.023-0.008
	c-0.778-0.057-1.927-0.145-3.236-0.37c-0.413-0.06-0.789-0.128-1.123-0.194l-3.458,0.023l-0.26-0.033
	c-1.221,0.187-2.299,0.259-3.241,0.306l-1.837,0.341c-0.427,0.083-0.967,0.165-1.504,0.238c-1.424,0.385-2.639,0.585-3.551,0.718
	l-0.398,0.05C114.871,224.265,112.136,224.756,109.36,224.756L109.36,224.756C109.36,224.756,109.36,224.756,109.36,224.756z
	 M211.998,72.549c2.238,3.111,4.214,6.34,5.917,9.668c0.226-0.337,0.444-0.675,0.653-1.013c1.283-2.076,2.243-4.184,2.7-5.934
	c0.232-0.866,0.293-1.508,0.293-1.904c-0.31-0.173-0.814-0.396-1.515-0.556c-1.306-0.322-2.798-0.477-4.501-0.477
	c-0.829,0-1.701,0.039-2.589,0.114C212.638,72.477,212.318,72.511,211.998,72.549z M34.351,72.129
	c0.014,0.392,0.093,1.025,0.346,1.867c0.515,1.746,1.538,3.833,2.886,5.896c0.377,0.572,0.779,1.141,1.202,1.705
	c1.882-3.591,4.085-7.064,6.595-10.398c-0.83-0.104-1.666-0.185-2.506-0.239c-0.564-0.033-1.159-0.051-1.747-0.051
	c-1.994,0-3.792,0.208-5.199,0.602C35.179,71.704,34.661,71.946,34.351,72.129z"/>
<path fill="#FFFFFF" d="M221.518,113.313c0,42.02-41.777,76.082-93.319,76.082c-51.55,0-93.337-34.06-93.337-76.082
	c0-42.014,41.79-76.077,93.34-76.077c51.54,0,93.32,34.064,93.32,76.077H221.518z"/>
<path fill="#676767" d="M62.52,68.78c0,0-31.138-10.855-37.24-2c-6.087,8.858,7.294,30.08,17.74,37.271
	c0,0.002-6.104-22.847,19.5-35.27V68.78z"/>
<path fill="#B3B3B3" d="M60.49,71.855c-5.23-2.967-11.416-4.498-17.355-4.887c-2.945-0.17-5.88,0.018-8.285,0.69
	c-2.477,0.64-4,1.904-4.264,2.774c-0.316,0.825-0.398,2.46,0.28,4.716c0.65,2.204,1.868,4.636,3.368,6.932
	c3.006,4.556,7.348,8.952,11.408,11.2c4.465,2.483,6.064,8.108,3.584,12.568c-2.484,4.46-8.105,6.065-12.56,3.584
	c-0.41-0.22-0.784-0.47-1.136-0.744l-0.324-0.25c-3.518-2.733-6.21-5.703-8.605-8.847c-2.37-3.14-4.41-6.45-6.1-10.03
	c-1.67-3.58-3.04-7.41-3.66-11.79c-0.28-2.19-0.37-4.55,0.03-7.07c0.23-1.28,0.53-2.57,1.07-3.85c0.21-0.58,0.6-1.38,1.03-2.14
	c0.53-0.95,0.35-0.51,1.02-1.56c1.74-2.3,4.04-3.96,6.28-4.98c2.25-1.03,4.44-1.53,6.53-1.8c4.2-0.5,8.04-0.11,11.72,0.59
	c7.28,1.53,14.14,4.3,20.07,8.77c1.62,1.24,1.95,3.56,0.71,5.18c-1.13,1.51-3.18,1.89-4.77,0.98L60.49,71.855z"/>
<path fill="#676767" d="M193.334,70.785c-11.568-5.2,30.811-11.737,37.164-3.056c6.346,8.68-3.928,27.01-14.158,34.49
	c0,0,2.943-19.75-23.006-31.44V70.785z"/>
<path fill="#B3B3B3" d="M191.213,67.77c5.79-4.652,12.574-7.613,19.807-9.343c3.648-0.812,7.482-1.308,11.681-0.926
	c2.106,0.21,4.319,0.65,6.595,1.62c2.258,0.97,4.6,2.56,6.41,4.81c0.71,1.02,0.496,0.59,1.064,1.54c0.45,0.74,0.855,1.52,1.09,2.11
	c0.563,1.28,0.904,2.55,1.164,3.82c0.48,2.52,0.447,4.88,0.23,7.08c-0.484,4.4-1.755,8.26-3.324,11.9
	c-1.58,3.62-3.529,6.99-5.808,10.21c-2.312,3.21-4.916,6.26-8.353,9.09l-0.28,0.23c-3.95,3.24-9.761,2.67-13.011-1.27
	c-3.239-3.94-2.67-9.77,1.271-13c0.36-0.29,0.771-0.58,1.14-0.81c4-2.37,8.211-6.89,11.08-11.52c1.44-2.33,2.59-4.81,3.17-7.03
	c0.61-2.271,0.471-3.9,0.141-4.71c-0.28-0.86-1.851-2.09-4.34-2.66c-2.431-0.6-5.371-0.7-8.32-0.45
	c-5.92,0.56-12.061,2.27-17.21,5.39c-1.74,1.07-4.021,0.51-5.08-1.24c-0.97-1.6-0.58-3.65,0.84-4.8L191.213,67.77z"/>
<path fill="#FFFFFF" d="M128.201,37.236c-51.55,0-93.34,34.063-93.34,76.077c0,28.056,18.63,52.56,46.354,65.75
	c-0.054,4.032,0.321,8.19,1.174,12.339c3.592,17.558,14.431,29.354,26.971,29.354c2.446,0,4.854-0.461,7.16-1.37
	c0.143-0.019,0.801-0.101,0.801-0.101c0.855-0.124,2.004-0.314,3.323-0.688c0.051-0.007,0.103-0.014,0.154-0.021
	c0.496-0.066,1.003-0.141,1.428-0.223c0.674-0.124,1.376-0.254,2.099-0.39c0.969-0.045,2.148-0.11,3.483-0.34l0.148-0.025
	l0.573,0.073l3.619-0.024c0.365,0.08,0.818,0.172,1.343,0.245c1.18,0.207,2.217,0.283,2.994,0.34l0.39,0.029l0.137,0.049
	l0.262,0.079c3.901,1.165,6.863,1.366,7.381,1.393l4.408,0.244c0.324,0.016,0.647,0.023,0.97,0.023
	c11.805,0,21.206-10.096,23.953-25.723c0.869-4.952,1.02-10.025,0.551-14.962c28.07-13.117,46.98-37.783,46.98-66.053h0.004
	C221.521,71.3,179.741,37.236,128.201,37.236z"/>
<path fill="#B3B3B3" d="M201.51,111.155c0,34.274-33.869,62.075-75.65,62.075c-41.77,0-75.64-27.801-75.64-62.075
	c0-34.288,33.87-62.087,75.64-62.087C167.641,49.068,201.51,76.868,201.51,111.155z"/>
<path fill="#999898" d="M125.86,176.137c-43.308,0-78.55-29.152-78.55-64.979c0-35.843,35.242-64.995,78.55-64.995
	c43.318,0,78.558,29.152,78.558,64.995C204.418,146.984,169.178,176.137,125.86,176.137L125.86,176.137z M125.86,51.979
	c-40.104,0-72.73,26.54-72.73,59.17c0,32.621,32.626,59.16,72.73,59.16c40.107,0,72.74-26.539,72.74-59.169
	s-32.633-59.18-72.74-59.18V51.979z"/>
<path fill="#FFFFFF" d="M201.954,82.978c0,19.96-8.315,50.82-36.14,50.82c-33.254,0-36.146-30.86-36.146-50.82
	c0-19.962,16.18-36.14,36.146-36.14C185.779,46.838,201.954,63.016,201.954,82.978z M126.337,82.978
	c0,19.96-2.14,50.82-32.766,50.82c-30.09,0-39.52-30.86-39.52-50.82c0-19.962,17.16-35.145,37.12-35.145
	c19.97,0,35.17,15.183,35.17,35.145H126.337z"/>
<path fill="#2974A7" d="M148.32,98.235c0,3.64-2.953,6.596-6.596,6.596c-3.646,0-6.598-2.95-6.598-6.59c0-3.64,2.95-6.6,6.598-6.6
	c3.643,0,6.596,2.96,6.596,6.6V98.235z"/>
<path fill="#FFFFFF" d="M140.715,96.326c0,1.246-1.006,2.252-2.25,2.252c-1.242,0-2.248-1.006-2.248-2.252
	c0-1.24,1.006-2.245,2.248-2.245c1.244,0,2.25,1.01,2.25,2.25V96.326z M143.195,98.756c0,0.584-0.48,1.058-1.061,1.058
	c-0.584,0-1.06-0.474-1.06-1.058s0.476-1.058,1.06-1.058C142.717,97.698,143.195,98.172,143.195,98.756z"/>
<path fill="#2974A7" d="M116.32,98.235c0,3.64-2.953,6.596-6.596,6.596c-3.645,0-6.596-2.95-6.596-6.59c0-3.64,2.95-6.6,6.596-6.6
	c3.643,0,6.596,2.96,6.596,6.6V98.235z"/>
<path fill="#FFFFFF" d="M108.715,96.326c0,1.246-1.006,2.252-2.25,2.252c-1.242,0-2.248-1.006-2.248-2.252
	c0-1.24,1.006-2.245,2.248-2.245c1.244,0,2.25,1.01,2.25,2.25V96.326z M111.195,98.756c0,0.584-0.48,1.058-1.06,1.058
	c-0.583,0-1.058-0.474-1.058-1.058s0.475-1.058,1.06-1.058C110.717,97.698,111.195,98.172,111.195,98.756z"/>
<radialGradient id="SVGID_1_" cx="-433.8779" cy="606.6113" r="149.271" gradientTransform="matrix(1 0 0 1 564 -589)" gradientUnits="userSpaceOnUse">
	<stop  offset="0" style="stop-color:#0071BC"/>
	<stop  offset="1" style="stop-color:#0071BC;stop-opacity:0"/>
</radialGradient>
<path fill="url(#SVGID_1_)" d="M128.197,37.236c-51.55,0-93.338,34.063-93.338,76.077c0,42.02,41.78,76.082,93.33,76.082
	c51.54,0,93.32-34.06,93.32-76.082c0-42.013-41.78-76.077-93.32-76.077H128.197z M93.57,133.798c-26.836,0-37.234-24.54-39.17-44.01
	c20.866-5.908,43.166-16.344,58.736-34.737c8.06,6.63,13.2,16.68,13.2,27.93c0,19.96-2.138,50.82-32.765,50.82L93.57,133.798z
	 M165.814,133.798c-33.254,0-36.146-30.86-36.146-50.82c0-11.745,5.604-22.175,14.28-28.776
	c15.178,18.413,37.05,29.01,57.735,35.095C200.078,108.841,190.838,133.797,165.814,133.798L165.814,133.798z"/>
<path fill="#333333" d="M126.791,155.852c-3.214,0-5.5-2.603-5.5-5.813v-34.91c0-3.22,2.286-5.82,5.5-5.82s5.5,2.6,5.5,5.82v34.9
	c0,3.21-2.286,5.81-5.5,5.81V155.852z"/>
<path fill="#C1272D" d="M96.849,160.344c0,0,0.14-0.173,0.393-0.496c0.18-0.268,0.726-0.883,1.55-1.604
	c0.775-0.688,1.717-1.518,2.8-2.465c0.954-0.772,2.04-1.615,3.254-2.449c1.2-0.934,2.53-1.607,3.96-2.34
	c1.42-0.715,2.91-1.586,4.521-2.135c3.239-0.889,6.659-2.313,10.3-2.293c1.81-0.054,3.609-0.107,5.399-0.156
	c1.761-0.174,3.58,0.512,5.29,0.783c1.73,0.33,3.391,0.8,4.971,1.209c1.579,0.281,3.06,1.07,4.42,1.791
	c5.459,2.859,8.959,5.26,8.959,5.26c8.871,6.05,14.011,22.68,11.471,37.15c-1.96,11.149-7.9,17.77-14.58,17.439l-4.35-0.24
	c0,0-2.121-0.109-5.07-0.99c-0.75-0.27-1.54-0.539-2.41-0.51c-0.87-0.07-1.77-0.109-2.7-0.29c-0.94-0.1-1.89-0.53-2.89-0.36
	l-3,0.021c-1.01-0.13-2.03-0.14-3.021,0.101c-0.989,0.17-1.989,0.189-2.96,0.239c-0.949,0.181-1.869,0.351-2.739,0.511
	c-0.88,0.17-1.75,0.199-2.471,0.449c-0.739,0.211-1.439,0.33-2.06,0.42c-0.46,0.051-0.86,0.11-1.19,0.15
	c-0.279,0.01-0.6-0.01-0.989,0.2c-0.32,0.14-0.49,0.2-0.49,0.2l-0.23,0.09c-8.439,3.46-17.76-5.771-20.8-20.631
	c-2.35-11.42-0.28-22.879,4.63-29.119L96.849,160.344z"/>
<path fill="#2974A7" d="M138.313,115.898c0,3.863-5.158,6.993-11.521,6.993c-6.358,0-11.524-3.13-11.524-6.99
	s5.166-6.99,11.523-6.99c6.363,0,11.52,3.13,11.52,6.99L138.313,115.898z"/>
<path fill="#333333" d="M128.201,37.236c27.947,0,53.021,10.019,70.123,25.887c3.979-2.099,8.251-3.632,12.695-4.696
	c2.79-0.621,5.689-1.057,8.776-1.057c0.949,0,1.917,0.041,2.904,0.131c2.106,0.21,4.319,0.65,6.595,1.62
	c2.258,0.97,4.6,2.56,6.41,4.81c0.71,1.02,0.496,0.59,1.064,1.54c0.45,0.74,0.855,1.52,1.09,2.11c0.563,1.28,0.904,2.55,1.164,3.82
	c0.48,2.52,0.447,4.88,0.23,7.08c-0.484,4.4-1.755,8.26-3.324,11.9c-1.58,3.62-3.529,6.99-5.808,10.21
	c-2.312,3.21-4.916,6.26-8.353,9.09l-0.28,0.23c-0.021,0.017-0.042,0.03-0.063,0.047c0.06,1.112,0.096,2.23,0.096,3.355h-0.004
	c0,28.27-18.91,52.936-46.98,66.053c0.469,4.937,0.318,10.01-0.551,14.962c-2.747,15.627-12.148,25.723-23.953,25.723
	c-0.322,0-0.646-0.008-0.97-0.023l-4.408-0.244c-0.518-0.026-3.479-0.228-7.381-1.393l-0.262-0.079l-0.137-0.049l-0.39-0.029
	c-0.777-0.057-1.814-0.133-2.994-0.34c-0.524-0.073-0.978-0.165-1.343-0.245l-3.619,0.024l-0.573-0.073l-0.148,0.025
	c-1.335,0.229-2.515,0.295-3.483,0.34c-0.723,0.136-1.425,0.266-2.099,0.39c-0.425,0.082-0.932,0.156-1.428,0.223
	c-0.052,0.007-0.104,0.014-0.154,0.021c-1.319,0.373-2.468,0.563-3.323,0.688c0,0-0.658,0.082-0.801,0.101
	c-2.307,0.909-4.714,1.37-7.16,1.37c-0.001,0-0.001,0-0.001,0c-12.539,0-23.377-11.797-26.969-29.354
	c-0.854-4.148-1.229-8.307-1.174-12.339c-27.724-13.19-46.354-37.694-46.354-65.75c0-1.677,0.074-3.339,0.205-4.988
	c-3.448-2.702-6.103-5.633-8.465-8.734c-2.37-3.14-4.41-6.45-6.1-10.03c-1.67-3.58-3.04-7.41-3.66-11.79
	c-0.28-2.19-0.37-4.55,0.03-7.07c0.23-1.28,0.53-2.57,1.07-3.85c0.21-0.58,0.6-1.38,1.03-2.14c0.53-0.95,0.35-0.51,1.02-1.56
	c1.74-2.3,4.04-3.96,6.28-4.98c2.25-1.03,4.44-1.53,6.53-1.8c1.314-0.156,2.593-0.226,3.843-0.226c2.744,0,5.349,0.334,7.877,0.815
	c5.117,1.076,10.019,2.781,14.543,5.241C76.141,46.867,100.791,37.236,128.201,37.236 M128.201,29.236
	c-26.242,0-51.56,8.516-70.352,23.518c-3.659-1.544-7.569-2.757-11.682-3.622l-0.075-0.016l-0.076-0.014
	c-3.43-0.653-6.408-0.957-9.373-0.957c-1.606,0-3.217,0.095-4.788,0.282l-0.04,0.004l-0.04,0.005
	c-3.244,0.419-6.133,1.224-8.833,2.459c-2.576,1.173-6.299,3.42-9.331,7.428l-0.192,0.254l-0.171,0.269
	c-0.072,0.113-0.121,0.188-0.159,0.242c-0.404,0.534-0.68,0.965-1.096,1.71c-0.447,0.791-1.052,1.948-1.497,3.119
	c-0.84,2.042-1.242,3.937-1.5,5.369l-0.014,0.08L8.97,69.447c-0.469,2.954-0.49,6.008-0.064,9.337l0.007,0.054l0.008,0.054
	c0.661,4.668,2.037,9.132,4.331,14.05c1.905,4.036,4.178,7.776,6.965,11.468c2.172,2.852,4.34,5.274,6.661,7.432
	c-0.011,0.495-0.017,0.985-0.017,1.47c0,15.23,4.941,30.142,14.289,43.125c8.014,11.13,19.08,20.606,32.198,27.614
	c0.195,3.009,0.599,6.008,1.207,8.963c4.373,21.374,18.36,35.741,34.805,35.741c3.095,0,6.144-0.521,9.078-1.549l0.032-0.005
	c0.898-0.13,2.224-0.345,3.768-0.747c0.576-0.081,1.047-0.158,1.464-0.237c0.505-0.094,1.027-0.189,1.561-0.289
	c0.718-0.038,1.694-0.105,2.804-0.253l0.519-0.003l2.796-0.02c0.262,0.049,0.552,0.098,0.864,0.144
	c1.241,0.211,2.321,0.313,3.142,0.377c4.481,1.292,7.899,1.55,8.862,1.599l4.373,0.242l0.028,0.002l0.028,0.001
	c0.453,0.022,0.905,0.033,1.355,0.033c7.955,0,15.493-3.392,21.228-9.549c5.321-5.715,8.988-13.595,10.604-22.789
	c0.661-3.763,0.972-7.622,0.931-11.528c13.108-6.96,24.181-16.378,32.23-27.461c7.825-10.773,12.604-22.882,14.036-35.411h0.455
	l0.004-7.815c2.502-2.376,4.802-5.051,7.093-8.232l0.019-0.027l0.02-0.027c2.691-3.804,4.854-7.608,6.609-11.631
	c2.184-5.063,3.432-9.573,3.944-14.225l0.005-0.045l0.004-0.045c0.333-3.377,0.225-6.44-0.333-9.363l-0.01-0.053l-0.011-0.052
	c-0.413-2.019-0.931-3.713-1.627-5.318c-0.523-1.279-1.228-2.504-1.617-3.146c-0.444-0.741-0.688-1.104-1.077-1.602
	c-0.05-0.065-0.118-0.155-0.269-0.371l-0.159-0.229l-0.175-0.217c-2.471-3.071-5.751-5.542-9.485-7.146
	c-2.76-1.177-5.685-1.904-8.958-2.23l-0.035-0.003l-0.034-0.003c-1.196-0.108-2.417-0.164-3.629-0.164
	c-3.346,0-6.687,0.396-10.514,1.248l-0.063,0.014l-0.062,0.015c-3.314,0.793-6.487,1.808-9.484,3.033
	C180.763,38.088,155.039,29.236,128.201,29.236L128.201,29.236z"/>
</svg>
