<?xml version="1.0" encoding="utf-8"?>
<!-- Generator: Adobe Illustrator 16.0.0, SVG Export Plug-In . SVG Version: 6.00 Build 0)  -->
<!DOCTYPE svg PUBLIC "-//W3C//DTD SVG 1.1//EN" "http://www.w3.org/Graphics/SVG/1.1/DTD/svg11.dtd">
<svg version="1.1" id="Layer_1" xmlns="http://www.w3.org/2000/svg" xmlns:xlink="http://www.w3.org/1999/xlink" x="0px" y="0px"
	 width="256px" height="256px" viewBox="0 0 256 256" enable-background="new 0 0 256 256" xml:space="preserve">
<path fill="#333333" d="M128.195,208.08c-53.67,0-97.336-35.925-97.336-80.083c0-1.042,0.02-2.113,0.08-3.203
	c-2.66-2.29-5.09-4.9-7.52-8.088c-2.62-3.472-4.76-6.982-6.54-10.75c-2.14-4.606-3.41-8.716-4-12.956
	c-0.39-2.964-0.38-5.652,0.03-8.253c0.23-1.322,0.58-2.96,1.28-4.685c0.39-1.045,0.96-2.114,1.28-2.667
	c0.35-0.636,0.52-0.88,0.77-1.214c0.07-0.09,0.16-0.21,0.37-0.54l0.08-0.12l0.09-0.12c2.51-3.32,5.62-5.21,7.79-6.21
	c2.31-1.06,4.82-1.76,7.68-2.13c1.46-0.17,2.92-0.26,4.38-0.26c2.7,0,5.43,0.28,8.6,0.89c4.77,1,9.2,2.48,13.24,4.41
	c18.25-15.38,43.49-24.16,69.71-24.16c26.81,0,52.44,9.12,70.79,25.11c3.44-1.58,7.16-2.86,11.1-3.8
	c3.601-0.8,6.671-1.16,9.721-1.16c1.09,0,2.189,0.05,3.27,0.15c2.91,0.3,5.44,0.92,7.791,1.92c2.199,0.95,5.359,2.75,7.959,5.99
	l0.09,0.12l0.08,0.12c0.221,0.33,0.32,0.45,0.391,0.55c0.26,0.33,0.42,0.56,0.8,1.19c0.55,0.9,1.04,1.84,1.36,2.63
	c0.58,1.35,1.029,2.8,1.39,4.56c0.5,2.64,0.59,5.25,0.29,8.28c-0.47,4.27-1.62,8.42-3.63,13.08c-1.649,3.78-3.681,7.35-6.21,10.94
	c-2.561,3.54-5.09,6.38-7.9,8.86c0.01,0.54,0.021,1.06,0.021,1.58c-0.011,44.16-43.66,80.089-97.32,80.089L128.195,208.08z"/>
<path fill="#333333" d="M211.968,87.203c2.247,3.122,4.23,6.36,5.94,9.7c0.23-0.346,0.453-0.693,0.67-1.04
	c1.292-2.092,2.253-4.2,2.706-5.935c0.239-0.877,0.3-1.52,0.3-1.913c-0.307-0.172-0.811-0.394-1.51-0.553
	c-1.299-0.32-2.834-0.482-4.516-0.482c-0.824,0-1.688,0.038-2.57,0.112C212.65,87.125,212.311,87.162,211.968,87.203L211.968,87.203
	z"/>
<path fill="#333333" d="M34.35,86.813c0.012,0.388,0.09,1.02,0.346,1.864c0.514,1.75,1.537,3.833,2.89,5.9
	c0.375,0.57,0.776,1.14,1.198,1.7c1.882-3.59,4.084-7.063,6.593-10.395c-0.828-0.104-1.662-0.185-2.5-0.24
	c-0.55-0.03-1.143-0.048-1.728-0.048c-2.01,0-3.82,0.208-5.23,0.6c-0.75,0.194-1.27,0.436-1.58,0.62L34.35,86.813z"/>
<path fill="#333333" d="M128.195,51.917c27.95,0,53.024,10.02,70.125,25.89c3.98-2.1,8.25-3.634,12.701-4.698
	c2.799-0.63,5.699-1.06,8.789-1.06c0.951,0,1.92,0.04,2.91,0.13c2.1,0.21,4.32,0.65,6.59,1.61c2.26,0.97,4.601,2.56,6.41,4.81
	c0.711,1.03,0.5,0.6,1.07,1.53c0.46,0.74,0.859,1.52,1.09,2.1c0.561,1.27,0.91,2.55,1.17,3.82c0.48,2.51,0.45,4.87,0.23,7.07
	c-0.48,4.4-1.75,8.26-3.32,11.89c-1.57,3.62-3.52,6.99-5.8,10.2c-2.31,3.21-4.91,6.26-8.351,9.09l-0.27,0.23
	c-0.02,0.02-0.05,0.03-0.07,0.05c0.061,1.12,0.1,2.24,0.1,3.37c0,42.02-41.77,76.08-93.31,76.08c-51.55,0-93.33-34.061-93.33-76.09
	c0-1.68,0.07-3.34,0.21-4.99c-3.44-2.7-6.1-5.64-8.46-8.73c-2.38-3.15-4.41-6.46-6.1-10.04c-1.67-3.59-3.05-7.41-3.66-11.8
	c-0.29-2.2-0.38-4.55,0.02-7.08c0.23-1.28,0.53-2.57,1.06-3.86c0.21-0.59,0.6-1.38,1.03-2.14c0.54-0.95,0.35-0.52,1.02-1.57
	c1.74-2.3,4.04-3.96,6.27-4.99c2.25-1.04,4.45-1.53,6.54-1.8c1.32-0.16,2.6-0.23,3.86-0.23c2.74,0,5.33,0.33,7.85,0.81
	c5.13,1.08,10.05,2.79,14.58,5.26c17.08-15.32,41.72-24.95,69.12-24.95"/>
<path fill="#333333" d="M39.871,103.409c3.04-7.29,7.41-14.07,12.85-20.18c-3.12-0.9-6.35-1.45-9.52-1.66
	c-0.66-0.04-1.33-0.06-1.99-0.06c-2.26,0-4.43,0.23-6.3,0.75c-2.48,0.64-4,1.9-4.26,2.78c-0.32,0.82-0.4,2.45,0.28,4.71
	c0.65,2.2,1.87,4.64,3.37,6.93c1.57,2.38,3.51,4.71,5.58,6.71"/>
<path fill="#333333" d="M217.021,104.389c1.879-1.98,3.619-4.23,5.029-6.51c1.45-2.34,2.6-4.81,3.18-7.03
	c0.621-2.28,0.48-3.91,0.15-4.72c-0.279-0.87-1.85-2.09-4.34-2.66c-1.62-0.4-3.471-0.58-5.4-0.58c-0.959,0-1.93,0.04-2.91,0.12
	c-2.609,0.25-5.26,0.73-7.85,1.45c5.17,6.06,9.301,12.75,12.15,19.92"/>
<path fill="#333333" d="M128.2,43.9c-26.23,0-51.54,8.51-70.33,23.5c-3.67-1.55-7.593-2.77-11.73-3.64l-0.07-0.015L46,63.735
	c-3.42-0.65-6.394-0.96-9.352-0.96c-1.617,0-3.24,0.1-4.82,0.29l-0.04,0.01l-0.037,0.004c-3.27,0.42-6.17,1.23-8.84,2.46
	c-2.59,1.19-6.3,3.44-9.31,7.43l-0.19,0.24l-0.17,0.25l-0.19,0.28c-0.41,0.56-0.67,0.96-1.09,1.71c-0.35,0.62-1.03,1.87-1.51,3.15
	c-0.83,2.05-1.23,3.94-1.49,5.36l-0.02,0.08l-0.02,0.09c-0.47,2.98-0.48,6.04-0.05,9.35l0.01,0.04v0.04
	c0.65,4.64,2.03,9.11,4.33,14.06l0.01,0.02l0.01,0.03c1.9,4.01,4.17,7.75,6.94,11.42c2.19,2.86,4.35,5.28,6.67,7.43
	c-0.01,0.5-0.02,0.99-0.02,1.47c0,22.77,10.76,44.079,30.29,60c19.05,15.53,44.29,24.079,71.06,24.079
	c26.761,0,51.99-8.549,71.04-24.079c19.471-15.88,30.221-37.12,30.27-59.83c2.5-2.37,4.801-5.05,7.101-8.24l0.021-0.03l0.02-0.03
	c2.699-3.81,4.859-7.61,6.609-11.64c2.19-5.07,3.44-9.58,3.94-14.22l0.011-0.04l0.01-0.04c0.33-3.37,0.229-6.43-0.33-9.36
	l-0.01-0.06l-0.011-0.07c-0.409-2.02-0.93-3.7-1.62-5.3c-0.529-1.3-1.24-2.53-1.64-3.18c-0.431-0.71-0.681-1.08-1.06-1.56
	c-0.051-0.06-0.101-0.14-0.25-0.35l-0.17-0.25l-0.181-0.23c-3.12-3.88-6.88-6.03-9.479-7.15c-2.76-1.16-5.67-1.89-8.94-2.22h-0.05
	l-0.04-0.01c-1.2-0.1-2.42-0.16-3.63-0.16c-3.35,0-6.69,0.4-10.52,1.25l-0.061,0.02l-0.061,0.02c-3.31,0.79-6.479,1.81-9.479,3.03
	c-18.899-15.59-44.63-24.44-71.47-24.44L128.2,43.9z"/>
<path fill="#676767" d="M62.52,83.466c0,0-31.138-10.86-37.237-2c-6.092,8.857,7.295,30.078,17.734,37.27
	C43.017,118.734,36.917,95.893,62.52,83.466L62.52,83.466z"/>
<path fill="#B3B3B3" d="M60.49,86.542c-5.23-2.968-11.418-4.5-17.35-4.892c-2.95-0.165-5.883,0.02-8.29,0.69
	c-2.48,0.64-4,1.908-4.26,2.78c-0.32,0.822-0.407,2.458,0.276,4.716c0.646,2.2,1.87,4.636,3.37,6.93
	c3.005,4.552,7.343,8.948,11.407,11.203c4.463,2.48,6.064,8.1,3.582,12.56c-2.48,4.46-8.107,6.06-12.56,3.58
	c-0.41-0.23-0.784-0.47-1.136-0.75l-0.33-0.26c-3.52-2.73-6.21-5.71-8.61-8.85c-2.38-3.15-4.41-6.46-6.1-10.04
	c-1.67-3.59-3.05-7.41-3.66-11.8c-0.29-2.2-0.38-4.55,0.02-7.08c0.23-1.28,0.52-2.57,1.06-3.86c0.21-0.59,0.6-1.39,1.03-2.14
	c0.53-0.95,0.35-0.52,1.02-1.57c1.73-2.3,4.03-3.96,6.27-4.99c2.24-1.03,4.44-1.53,6.53-1.8c4.19-0.51,8.03-0.12,11.71,0.59
	c7.28,1.53,14.13,4.29,20.06,8.78c1.62,1.23,1.95,3.55,0.71,5.18c-1.13,1.5-3.18,1.88-4.77,0.98L60.49,86.542z"/>
<path fill="#676767" d="M193.33,85.473c-11.564-5.204,30.814-11.742,37.164-3.058c6.35,8.68-3.924,27.013-14.156,34.495
	C216.338,116.91,219.281,97.165,193.33,85.473z"/>
<path fill="#B3B3B3" d="M191.215,82.455c5.787-4.65,12.568-7.613,19.801-9.345c3.654-0.813,7.479-1.307,11.688-0.927
	c2.1,0.214,4.314,0.65,6.59,1.614c2.254,0.97,4.598,2.56,6.406,4.808c0.699,1.028,0.49,0.598,1.06,1.537
	c0.45,0.745,0.86,1.525,1.091,2.107c0.56,1.27,0.899,2.55,1.159,3.82c0.47,2.51,0.44,4.87,0.22,7.08
	c-0.479,4.4-1.76,8.26-3.33,11.89c-1.58,3.62-3.529,6.99-5.81,10.2c-2.319,3.21-4.92,6.25-8.36,9.08l-0.279,0.23
	c-3.94,3.24-9.76,2.67-13-1.27s-2.67-9.77,1.27-13c0.35-0.3,0.771-0.58,1.141-0.82c4-2.37,8.209-6.89,11.08-11.52
	c1.439-2.34,2.59-4.81,3.17-7.03c0.619-2.28,0.479-3.91,0.149-4.72c-0.29-0.87-1.85-2.09-4.34-2.66c-2.43-0.6-5.37-0.71-8.31-0.46
	c-5.92,0.56-12.07,2.27-17.211,5.39c-1.739,1.06-4.02,0.5-5.08-1.25c-0.969-1.6-0.579-3.65,0.851-4.8L191.215,82.455z"/>
<path fill="#FFFFFF" d="M221.51,127.997c0,42.022-41.773,76.083-93.314,76.083c-51.55,0-93.336-34.061-93.336-76.083
	c0-42.018,41.787-76.08,93.336-76.08C179.736,51.917,221.51,85.979,221.51,127.997L221.51,127.997z"/>
<path fill="#B3B3B3" d="M201.506,137.473c0,34.279-33.869,62.073-75.647,62.073c-41.78,0-75.64-27.794-75.64-62.073
	c0-34.289,33.86-62.085,75.64-62.085s75.64,27.797,75.64,62.085H201.506z"/>
<path fill="#999898" d="M125.86,202.457c-43.31,0-78.548-29.156-78.548-64.984c0-35.835,35.238-64.994,78.547-64.994
	c43.31,0,78.55,29.15,78.55,64.99c0,35.83-35.24,64.98-78.56,64.98L125.86,202.457z M125.86,78.297
	c-40.108,0-72.728,26.545-72.728,59.174c0,32.631,32.62,59.17,72.727,59.17c40.1,0,72.73-26.539,72.73-59.17
	c0-32.63-32.629-59.171-72.739-59.171L125.86,78.297z"/>
<path fill="#333333" d="M134.764,173.893c-3.785,0-6.436-1.651-8.294-4.182c-1.87,2.53-4.52,4.189-8.31,4.189
	c-7.1,0-12.65-7.52-12.65-17.119c0-2.4,1.95-4.36,4.36-4.36c2.41,0,4.36,1.96,4.36,4.36c0,5.21,2.53,8.4,3.92,8.4
	c1.47,0,3.93-2.301,3.93-17.66h8.72c0,15.369,2.46,17.67,3.93,17.67c1.381,0,3.931-3.19,3.931-8.4c0-2.4,1.96-4.359,4.36-4.359
	c2.41,0,4.359,1.959,4.359,4.359c0,9.6-5.561,17.13-12.66,17.13L134.764,173.893z"/>
<path fill="#2974A7" d="M137.984,142.216c0,3.862-5.16,6.993-11.522,6.993c-6.36,0-11.52-3.141-11.52-7s5.16-7,11.52-7
	c6.362,0,11.522,3.13,11.522,6.99V142.216z"/>
<radialGradient id="SVGID_1_" cx="-757.8569" cy="262.1982" r="29.9758" gradientTransform="matrix(0.723 0 0 -0.723 630.7935 346.0358)" gradientUnits="userSpaceOnUse">
	<stop  offset="0" style="stop-color:#FF585D"/>
	<stop  offset="1" style="stop-color:#FF585D;stop-opacity:0"/>
</radialGradient>
<circle opacity="0.7" fill="url(#SVGID_1_)" enable-background="new    " cx="82.615" cy="156.467" r="21.697"/>
<radialGradient id="SVGID_2_" cx="-642.8638" cy="262.1982" r="29.9761" gradientTransform="matrix(0.723 0 0 -0.723 630.7935 346.0358)" gradientUnits="userSpaceOnUse">
	<stop  offset="0" style="stop-color:#FF585D"/>
	<stop  offset="1" style="stop-color:#FF585D;stop-opacity:0"/>
</radialGradient>
<circle opacity="0.7" fill="url(#SVGID_2_)" enable-background="new    " cx="165.789" cy="156.467" r="21.697"/>
<path fill="#333333" d="M85.906,140.393c-8.107,0-15.873-4.039-23.127-12.036c-1.63-1.78-1.49-4.542,0.3-6.163
	c1.78-1.612,4.54-1.48,6.16,0.3c5.87,6.482,11.76,9.563,17.79,9.133c10.35-0.738,18.13-11.837,18.21-11.95
	c1.35-1.997,4.05-2.523,6.05-1.172c2,1.35,2.52,4.063,1.17,6.06c-0.41,0.602-10.11,14.717-24.82,15.766
	c-0.59,0.05-1.17,0.069-1.75,0.069L85.906,140.393z M163.963,140.393c8.107,0,15.873-4.039,23.127-12.036
	c1.62-1.78,1.482-4.542-0.3-6.163c-1.788-1.612-4.548-1.48-6.167,0.3c-5.87,6.482-11.758,9.563-17.79,9.133
	c-10.353-0.738-18.128-11.837-18.208-11.95c-1.348-1.997-4.057-2.523-6.055-1.172c-2,1.35-2.525,4.063-1.172,6.06
	c0.403,0.602,10.112,14.717,24.815,15.766c0.585,0.05,1.167,0.069,1.75,0.069L163.963,140.393z"/>
</svg>
