<svg xmlns="http://www.w3.org/2000/svg" width="256" height="256" viewBox="0 0 256 256"><path fill="#333" d="M128.195 208.08c-53.67 0-97.336-35.925-97.336-80.083 0-1.042.02-2.113.08-3.203-2.66-2.29-5.09-4.9-7.52-8.088-2.62-3.472-4.76-6.982-6.54-10.75-2.14-4.606-3.41-8.716-4-12.956-.39-2.964-.38-5.652.03-8.253.23-1.322.58-2.96 1.28-4.685.39-1.045.96-2.114 1.28-2.667.35-.636.52-.88.77-1.214.07-.09.16-.21.37-.54l.08-.12.09-.12c2.51-3.32 5.62-5.21 7.79-6.21 2.31-1.06 4.82-1.76 7.68-2.13 1.46-.17 2.92-.26 4.38-.26 2.7 0 5.43.28 8.6.89 4.77 1 9.2 2.48 13.24 4.41 18.25-15.38 43.49-24.16 69.71-24.16 26.81 0 52.44 9.12 70.79 25.11 3.44-1.58 7.16-2.86 11.1-3.8 3.6-.8 6.67-1.16 9.72-1.16 1.09 0 2.19.05 3.27.15 2.91.3 5.44.92 7.79 1.92 2.2.95 5.36 2.75 7.96 5.99l.09.12.08.12c.22.33.32.45.39.55.26.33.42.56.8 1.19.55.9 1.04 1.84 1.36 2.63.58 1.35 1.03 2.8 1.39 4.56.5 2.64.59 5.25.29 8.28-.47 4.27-1.62 8.42-3.63 13.08-1.65 3.78-3.68 7.35-6.21 10.94-2.56 3.54-5.09 6.38-7.9 8.86.01.54.02 1.06.02 1.58-.01 44.16-43.66 80.09-97.32 80.09l.02-.07zm83.773-120.877c2.247 3.122 4.23 6.36 5.94 9.7.23-.346.453-.693.67-1.04 1.292-2.092 2.253-4.2 2.706-5.935.24-.877.3-1.52.3-1.913-.307-.172-.81-.394-1.51-.553-1.3-.32-2.834-.482-4.516-.482-.824 0-1.688.038-2.57.112-.338.033-.677.07-1.02.11zm-177.618-.39c.012.388.09 1.02.346 1.864.514 1.75 1.537 3.833 2.89 5.9.375.57.776 1.14 1.198 1.7 1.882-3.59 4.084-7.063 6.593-10.395-.828-.104-1.662-.185-2.5-.24-.55-.03-1.143-.048-1.728-.048-2.01 0-3.82.208-5.23.6-.75.194-1.27.436-1.58.62h.01zm93.845-34.896c27.95 0 53.024 10.02 70.125 25.89 3.98-2.1 8.25-3.634 12.7-4.698 2.8-.63 5.7-1.06 8.79-1.06.95 0 1.92.04 2.91.13 2.1.21 4.32.65 6.59 1.61 2.26.97 4.6 2.56 6.41 4.81.71 1.03.5.6 1.07 1.53.46.74.86 1.52 1.09 2.1.56 1.27.91 2.55 1.17 3.82.48 2.51.45 4.87.23 7.07-.48 4.4-1.75 8.26-3.32 11.89-1.57 3.62-3.52 6.99-5.8 10.2-2.31 3.21-4.91 6.26-8.35 9.09l-.27.23c-.02.02-.05.03-.07.05.06 1.12.1 2.24.1 3.37 0 42.02-41.77 76.08-93.31 76.08-51.55 0-93.33-34.07-93.33-76.09 0-1.68.07-3.34.21-4.99-3.44-2.7-6.1-5.64-8.46-8.73-2.38-3.15-4.41-6.46-6.1-10.04-1.67-3.59-3.05-7.41-3.66-11.8-.29-2.2-.38-4.55.02-7.08.23-1.28.53-2.57 1.06-3.86.21-.59.6-1.38 1.03-2.14.54-.95.35-.52 1.02-1.57 1.74-2.3 4.04-3.96 6.27-4.99 2.25-1.04 4.45-1.53 6.54-1.8 1.32-.16 2.6-.23 3.86-.23 2.74 0 5.33.33 7.85.81 5.13 1.08 10.05 2.79 14.58 5.26 17.08-15.32 41.72-24.95 69.12-24.95m-88.4 51.58c3.04-7.29 7.41-14.07 12.85-20.18-3.12-.9-6.35-1.45-9.52-1.66-.66-.04-1.33-.06-1.99-.06-2.26 0-4.43.23-6.3.75-2.48.64-4 1.9-4.26 2.78-.32.82-.4 2.45.28 4.71.65 2.2 1.87 4.64 3.37 6.93 1.57 2.38 3.51 4.71 5.58 6.71m177.14 1c1.88-1.98 3.62-4.23 5.03-6.51 1.45-2.34 2.6-4.81 3.18-7.03.62-2.28.48-3.91.15-4.72-.28-.87-1.85-2.09-4.34-2.66-1.62-.4-3.47-.58-5.4-.58-.96 0-1.93.04-2.91.12-2.61.25-5.26.73-7.85 1.45 5.17 6.06 9.3 12.75 12.15 19.92"/><path fill="#333" d="M128.2 43.9c-26.23 0-51.54 8.51-70.33 23.5-3.67-1.55-7.593-2.77-11.73-3.64l-.07-.015-.07-.01c-3.42-.65-6.394-.96-9.352-.96-1.617 0-3.24.1-4.82.29l-.04.01-.037.004c-3.27.42-6.17 1.23-8.84 2.46-2.59 1.19-6.3 3.44-9.31 7.43l-.19.24-.17.25-.19.28c-.41.56-.67.96-1.09 1.71-.35.62-1.03 1.87-1.51 3.15-.83 2.05-1.23 3.94-1.49 5.36l-.02.08-.02.09c-.47 2.98-.48 6.04-.05 9.35l.01.04v.04c.65 4.64 2.03 9.11 4.33 14.06l.01.02.01.03c1.9 4.01 4.17 7.75 6.94 11.42 2.19 2.86 4.35 5.28 6.67 7.43-.01.5-.02.99-.02 1.47 0 22.77 10.76 44.07 30.29 60 19.05 15.53 44.29 24.07 71.06 24.07 26.77 0 51.99-8.55 71.04-24.08 19.48-15.88 30.23-37.12 30.27-59.83 2.5-2.37 4.81-5.05 7.11-8.24l.02-.03.02-.03c2.7-3.81 4.86-7.61 6.61-11.64 2.19-5.07 3.44-9.58 3.94-14.22l.01-.04.01-.04c.33-3.37.23-6.43-.33-9.36l-.01-.06-.01-.07c-.41-2.02-.93-3.7-1.62-5.3-.53-1.3-1.24-2.53-1.64-3.18-.43-.71-.68-1.08-1.06-1.56-.05-.06-.1-.14-.25-.35l-.17-.25-.18-.23c-3.12-3.88-6.88-6.03-9.48-7.15-2.76-1.16-5.67-1.89-8.94-2.22h-.05l-.04-.01c-1.2-.1-2.42-.16-3.63-.16-3.35 0-6.69.4-10.52 1.25l-.06.02-.06.02c-3.31.79-6.48 1.81-9.48 3.03-18.89-15.59-44.63-24.44-71.47-24.44h.01z"/><path fill="#676767" d="M62.52 83.466s-31.138-10.86-37.237-2c-6.092 8.857 7.295 30.078 17.734 37.27 0-.002-6.1-22.843 19.503-35.27z"/><path fill="#B3B3B3" d="M60.49 86.542c-5.23-2.968-11.418-4.5-17.35-4.892-2.95-.165-5.883.02-8.29.69-2.48.64-4 1.908-4.26 2.78-.32.822-.407 2.458.276 4.716.646 2.2 1.87 4.636 3.37 6.93 3.005 4.552 7.343 8.948 11.407 11.203 4.463 2.48 6.064 8.1 3.582 12.56-2.48 4.46-8.107 6.06-12.56 3.58-.41-.23-.784-.47-1.136-.75l-.33-.26c-3.52-2.73-6.21-5.71-8.61-8.85-2.38-3.15-4.41-6.46-6.1-10.04-1.67-3.59-3.05-7.41-3.66-11.8-.29-2.2-.38-4.55.02-7.08.23-1.28.52-2.57 1.06-3.86.21-.59.6-1.39 1.03-2.14.53-.95.35-.52 1.02-1.57 1.73-2.3 4.03-3.96 6.27-4.99 2.24-1.03 4.44-1.53 6.53-1.8 4.19-.51 8.03-.12 11.71.59 7.28 1.53 14.13 4.29 20.06 8.78 1.62 1.23 1.95 3.55.71 5.18-1.13 1.5-3.18 1.88-4.77.98l.02.04z"/><path fill="#676767" d="M193.33 85.473c-11.564-5.204 30.814-11.742 37.164-3.058 6.35 8.68-3.924 27.013-14.156 34.495 0 0 2.943-19.745-23.008-31.437z"/><path fill="#B3B3B3" d="M191.215 82.455c5.787-4.65 12.568-7.613 19.8-9.345 3.655-.813 7.48-1.307 11.69-.927 2.1.214 4.313.65 6.59 1.614 2.253.97 4.597 2.56 6.405 4.808.7 1.028.49.598 1.06 1.537.45.745.86 1.525 1.09 2.107.56 1.27.9 2.55 1.16 3.82.47 2.51.44 4.87.22 7.08-.48 4.4-1.76 8.26-3.33 11.89-1.58 3.62-3.53 6.99-5.81 10.2-2.32 3.21-4.92 6.25-8.36 9.08l-.28.23c-3.94 3.24-9.76 2.67-13-1.27s-2.67-9.77 1.27-13c.35-.3.772-.58 1.142-.82 4-2.37 8.21-6.89 11.08-11.52 1.44-2.34 2.59-4.81 3.17-7.03.62-2.28.48-3.91.15-4.72-.29-.87-1.85-2.09-4.34-2.66-2.43-.6-5.37-.71-8.31-.46-5.92.56-12.07 2.27-17.212 5.39-1.74 1.06-4.02.5-5.08-1.25-.97-1.6-.58-3.65.85-4.8l.045.04z"/><path fill="#fff" d="M221.51 127.997c0 42.022-41.773 76.083-93.314 76.083-51.55 0-93.336-34.06-93.336-76.083 0-42.018 41.787-76.08 93.336-76.08 51.54 0 93.314 34.062 93.314 76.08z"/><path fill="#B3B3B3" d="M201.506 137.473c0 34.28-33.87 62.073-75.647 62.073-41.78 0-75.64-27.794-75.64-62.073 0-34.29 33.86-62.085 75.64-62.085s75.64 27.797 75.64 62.085z"/><path fill="#999898" d="M125.86 202.457c-43.31 0-78.548-29.156-78.548-64.984 0-35.835 35.238-64.994 78.547-64.994 43.31 0 78.55 29.15 78.55 64.99 0 35.83-35.24 64.98-78.56 64.98h.01zm0-124.16c-40.108 0-72.728 26.545-72.728 59.174 0 32.64 32.62 59.17 72.727 59.17 40.1 0 72.73-26.53 72.73-59.17 0-32.63-32.63-59.17-72.74-59.17h.01z"/><path fill="#333" d="M134.764 173.893c-3.785 0-6.436-1.65-8.294-4.182-1.87 2.53-4.52 4.19-8.31 4.19-7.1 0-12.65-7.52-12.65-17.12 0-2.4 1.95-4.36 4.36-4.36s4.36 1.96 4.36 4.36c0 5.21 2.53 8.4 3.92 8.4 1.47 0 3.93-2.3 3.93-17.66h8.72c0 15.37 2.46 17.67 3.93 17.67 1.38 0 3.93-3.19 3.93-8.4 0-2.4 1.96-4.35 4.36-4.35 2.41 0 4.36 1.96 4.36 4.36 0 9.6-5.56 17.13-12.66 17.13l.044-.03z"/><path fill="#2974A7" d="M137.984 142.216c0 3.862-5.16 6.993-11.522 6.993-6.36 0-11.52-3.15-11.52-7s5.16-7 11.52-7c6.362 0 11.522 3.13 11.522 6.99v.01z"/><radialGradient id="a" cx="-757.857" cy="262.198" r="29.976" gradientTransform="matrix(.723 0 0 -.723 630.793 346.036)" gradientUnits="userSpaceOnUse"><stop offset="0" stop-color="#FF585D"/><stop offset="1" stop-color="#FF585D" stop-opacity="0"/></radialGradient><circle opacity=".7" fill="url(#a)" enable-background="new" cx="82.615" cy="156.467" r="21.697"/><radialGradient id="b" cx="-642.864" cy="262.198" r="29.976" gradientTransform="matrix(.723 0 0 -.723 630.793 346.036)" gradientUnits="userSpaceOnUse"><stop offset="0" stop-color="#FF585D"/><stop offset="1" stop-color="#FF585D" stop-opacity="0"/></radialGradient><circle opacity=".7" fill="url(#b)" enable-background="new" cx="165.789" cy="156.467" r="21.697"/><path fill="#333" d="M85.906 140.393c-8.107 0-15.873-4.04-23.127-12.036-1.63-1.78-1.49-4.542.3-6.163 1.78-1.612 4.54-1.48 6.16.3 5.87 6.482 11.76 9.563 17.79 9.133 10.35-.738 18.13-11.837 18.21-11.95 1.35-1.997 4.05-2.523 6.05-1.172 2 1.35 2.52 4.063 1.17 6.06-.41.602-10.11 14.717-24.82 15.766-.59.05-1.17.07-1.75.07h.01zm78.057 0c8.107 0 15.873-4.04 23.127-12.036 1.62-1.78 1.482-4.542-.3-6.163-1.788-1.612-4.548-1.48-6.167.3-5.87 6.482-11.758 9.563-17.79 9.133-10.353-.738-18.128-11.837-18.208-11.95-1.348-1.997-4.057-2.523-6.055-1.172-2 1.35-2.525 4.063-1.172 6.06.403.602 10.112 14.717 24.815 15.766.585.05 1.167.07 1.75.07z"/></svg>