<?xml version="1.0" encoding="utf-8"?>
<!-- Generator: Adobe Illustrator 16.0.0, SVG Export Plug-In . SVG Version: 6.00 Build 0)  -->
<!DOCTYPE svg PUBLIC "-//W3C//DTD SVG 1.1//EN" "http://www.w3.org/Graphics/SVG/1.1/DTD/svg11.dtd">
<svg version="1.1" id="Layer_1" xmlns="http://www.w3.org/2000/svg" xmlns:xlink="http://www.w3.org/1999/xlink" x="0px" y="0px"
	 width="256px" height="256px" viewBox="0 0 256 256" enable-background="new 0 0 256 256" xml:space="preserve">
<path fill="#0071BC" d="M129.061,222.246c-8.541,0-17.031-0.915-25.241-2.721c-22.568-4.43-43.138-15.26-57.83-30.479
	c-15.07-15.61-23.37-35.29-23.37-55.416c0-1.796,0.07-3.61,0.212-5.545l0.274-3.705H34.13c2.112-7.7,5.573-15.03,10.326-21.875
	c-2.077-1.342-4.01-2.906-5.782-4.677c-12.87-12.874-14.403-55.182-14.536-59.963l-0.117-4.226l4.23,0.11
	c4.78,0.13,47.1,1.66,59.97,14.53c4.96,4.95,8.28,11.21,9.61,18c10.04-2.8,20.53-4.21,31.25-4.21c10.13,0,20.08,1.27,29.63,3.78
	c1.391-6.63,4.67-12.74,9.51-17.58c12.881-12.87,55.19-14.4,59.971-14.54l4.229-0.12l-0.11,4.22
	c-0.129,4.78-1.66,47.09-14.529,59.96c-1.44,1.43-2.99,2.74-4.641,3.9c5.041,7.06,8.68,14.66,10.881,22.65h9.16l0.27,3.7
	c0.15,1.93,0.22,3.75,0.22,5.54c0,32.729-21.46,62.6-56.01,77.96c-14.7,6.97-31.49,10.66-48.55,10.66L129.061,222.246z"/>
<path fill="#333333" d="M228.27,37.754c0,0-1.25,45.126-13.362,57.246c-2.315,2.316-4.908,4.186-7.671,5.616
	c6.634,8.278,11.343,17.672,13.606,27.764h8.573c0.13,1.737,0.202,3.486,0.202,5.25c0,32.177-21.733,60.136-53.681,74.326
	c-13.773,6.54-29.789,10.29-46.881,10.29c-8.437,0-16.606-0.92-24.381-2.628c-44.754-8.783-78.06-42.155-78.06-81.988
	c0-1.764,0.074-3.513,0.203-5.25h10.43c2.21-9.85,6.74-19.035,13.12-27.166c-3.21-1.49-6.23-3.564-8.88-6.214
	c-12.11-12.12-13.36-57.246-13.36-57.246s45.13,1.248,57.24,13.366c5.66,5.658,8.67,12.963,9.05,20.376
	c10.7-3.49,22.39-5.41,34.62-5.41c11.6,0,22.71,1.73,32.949,4.885c0.48-7.23,3.48-14.32,9.011-19.85
	c12.12-12.11,57.239-13.36,57.239-13.36 M236.469,29.531l-8.449,0.24c-0.48,0.02-11.891,0.35-24.99,2.22
	c-19,2.71-31.33,7.13-37.7,13.49c-4.399,4.4-7.649,9.75-9.53,15.59c-8.689-1.97-17.66-2.96-26.779-2.96
	c-9.69,0-19.19,1.12-28.36,3.33C98.8,55.47,95.5,49.99,91,45.49C84.66,39.13,72.33,34.71,53.33,32
	c-13.1-1.87-24.51-2.207-24.985-2.22l-8.45-0.235l0.236,8.453c0.02,0.48,0.35,11.89,2.22,24.988c2.72,19,7.13,31.33,13.49,37.696
	c1.01,1.01,2.07,1.955,3.17,2.84c-3.35,5.375-5.98,11.02-7.86,16.88H19.4l-0.548,7.41c-0.15,2.034-0.226,3.94-0.226,5.84
	c0,21.166,8.698,41.834,24.49,58.193c15.24,15.783,36.522,27.014,59.94,31.627c8.464,1.86,17.214,2.801,26.008,2.801
	c17.637,0,35-3.811,50.225-11.021c35.98-16.022,58.33-47.28,58.33-81.601c0-1.899-0.08-3.81-0.23-5.841l-0.55-7.41h-9.899
	c-1.99-6.2-4.82-12.15-8.45-17.8c0.71-0.61,1.39-1.25,2.06-1.92c6.36-6.36,10.77-18.69,13.48-37.69
	c1.869-13.09,2.199-24.5,2.22-24.98l0.229-8.45L236.469,29.531z"/>
<path fill="#0071BC" d="M26.82,128.38c-0.127,1.738-0.2,3.487-0.2,5.25c0,46.53,45.442,84.25,101.5,84.25
	c56.056,0,101.5-37.72,101.5-84.25c0-1.763-0.074-3.512-0.203-5.25H26.82z M85.382,51.12C97.5,63.23,97.5,82.88,85.382,95
	c-12.116,12.116-31.767,12.116-43.88,0C29.387,82.88,28.137,37.754,28.137,37.754S73.267,39.002,85.382,51.12L85.382,51.12z"/>
<path fill="#29ABE2" d="M84.496,64.727c8.116,8.117,8.116,21.278,0,29.387c-8.113,8.118-21.27,8.118-29.39,0
	c-8.114-8.11-8.944-38.333-8.944-38.333s30.22,0.83,38.334,8.95V64.727z"/>
<path fill="#0071BC" d="M171.025,51.12c-12.117,12.11-12.117,31.762,0,43.88c12.119,12.117,31.766,12.117,43.879,0
	c12.117-12.118,13.367-57.245,13.367-57.245s-45.121,1.247-57.24,13.365H171.025z"/>
<path fill="#29ABE2" d="M171.912,64.727c-8.117,8.117-8.117,21.278,0,29.387c8.113,8.118,21.268,8.118,29.387,0
	c8.11-8.11,8.939-38.333,8.939-38.333s-30.219,0.83-38.34,8.95L171.912,64.727z"/>
<path fill="#0071BC" d="M222.375,142.164c0,42.018-41.777,76.082-93.316,76.082c-51.56,0-93.34-34.064-93.34-76.082
	c0-42.018,41.78-76.08,93.33-76.08c51.54,0,93.311,34.062,93.311,76.08H222.375z"/>
<path fill="#B3B3B3" d="M203.643,140.006c0,34.275-33.869,62.07-75.646,62.07c-41.77,0-75.64-27.795-75.64-62.07
	c0-34.29,33.87-62.09,75.64-62.09C169.771,77.916,203.643,105.716,203.643,140.006z"/>
<path fill="#999898" d="M127.997,204.986c-43.312,0-78.55-29.152-78.55-64.98c0-35.843,35.238-65,78.55-65
	c43.315,0,78.556,29.156,78.556,65C206.553,175.834,171.313,204.986,127.997,204.986z M127.997,80.826
	c-40.104,0-72.73,26.548-72.73,59.18c0,32.623,32.626,59.164,72.73,59.164c40.108,0,72.737-26.54,72.737-59.164
	C200.734,107.374,168.104,80.826,127.997,80.826z"/>
<path fill="#FFFFFF" d="M125.483,132.633c0,19.496-15.797,35.297-35.295,35.297c-19.502,0-35.295-15.8-35.295-35.297
	c0-19.488,15.793-35.296,35.295-35.296C109.688,97.337,125.483,113.145,125.483,132.633z"/>
<path fill="#2974A7" d="M110.446,137.075c0,11.224-9.102,20.333-20.336,20.333c-11.232,0-20.336-9.11-20.336-20.333
	c0-11.238,9.104-20.335,20.336-20.335C101.345,116.74,110.446,125.837,110.446,137.075L110.446,137.075z"/>
<path fill="#FFFFFF" d="M87.003,131.202c0,3.825-3.104,6.93-6.938,6.93c-3.828,0-6.932-3.104-6.932-6.93
	c0-3.83,3.104-6.932,6.932-6.932C83.899,124.27,87.003,127.373,87.003,131.202z M94.643,138.688c0,1.797-1.466,3.252-3.263,3.252
	c-1.795,0-3.254-1.455-3.254-3.252c0-1.802,1.46-3.258,3.254-3.258C93.177,135.43,94.642,136.886,94.643,138.688L94.643,138.688z
	 M201.105,132.633c0,19.496-15.801,35.297-35.293,35.297c-19.506,0-35.297-15.8-35.297-35.297c0-19.488,15.789-35.296,35.297-35.296
	C185.309,97.337,201.105,113.145,201.105,132.633z"/>
<path fill="#2974A7" d="M186.068,137.075c0,11.224-9.103,20.333-20.338,20.333c-11.23,0-20.33-9.11-20.33-20.333
	c0-11.238,9.1-20.335,20.33-20.335C176.968,116.74,186.068,125.837,186.068,137.075L186.068,137.075z"/>
<path fill="#FFFFFF" d="M162.626,131.202c0,3.825-3.104,6.93-6.938,6.93c-3.828,0-6.93-3.104-6.93-6.93
	c0-3.83,3.102-6.932,6.93-6.932C159.521,124.27,162.626,127.373,162.626,131.202z M170.268,138.688c0,1.797-1.468,3.252-3.265,3.252
	c-1.793,0-3.254-1.455-3.254-3.252c0-1.802,1.46-3.258,3.25-3.258s3.26,1.456,3.26,3.258H170.268z"/>
<path fill="#B3B3B3" d="M125.483,132.633c0-19.488-15.65-37.133-35.148-37.133c-12.974,0-24.445,8.837-30.58,19.26l64.747,26.124
	C125.136,138.234,125.482,135.477,125.483,132.633L125.483,132.633z"/>
<path fill="#999898" d="M125.255,136.622L62.293,111.02c-1.295,1.67-2.442,3.456-3.425,5.344l65.17,26.264
	C124.608,140.688,125.023,138.684,125.255,136.622z"/>
<path fill="#B3B3B3" d="M130.118,132.633c0-19.488,16.384-37.133,35.883-37.133c12.979,0,23.72,8.837,29.851,19.26l-64.75,26.123
	c-0.631-2.65-0.98-5.408-0.98-8.25H130.118z"/>
<path fill="#999898" d="M130.346,136.622l62.963-25.603c1.291,1.66,2.44,3.45,3.42,5.34l-65.17,26.26
	c-0.58-1.94-0.99-3.95-1.22-6.01L130.346,136.622z"/>
<path fill="#999898" d="M121.766,93.132l-17.57,41.271l25.816,10.729L157,132.5l-13.898-30.862
	C143.102,101.638,130.005,115.188,121.766,93.132L121.766,93.132z"/>
<path fill="#333333" d="M128.12,185.484c-3.218,0-5.5-2.601-5.5-5.815v-34.91c0-3.22,2.282-5.819,5.5-5.819
	c3.212,0,5.5,2.6,5.5,5.81v34.899c0,3.211-2.288,5.811-5.5,5.811V185.484z"/>
<path fill="#2974A7" d="M139.52,145.534c0,3.86-5.156,6.989-11.52,6.989c-6.355,0-11.52-3.129-11.52-6.989
	c0-3.864,5.164-6.994,11.52-6.994C134.359,138.54,139.52,141.67,139.52,145.534z"/>
<path fill="#333333" d="M126.286,190.328c-19.477,0-33.37-9.354-33.586-9.508c-2.643-1.827-3.307-5.442-1.482-8.094
	c1.824-2.646,5.44-3.311,8.082-1.49c1.193,0.82,27.787,18.336,57.304-2.838c2.608-1.881,6.244-1.284,8.117,1.336
	c1.881,2.609,1.28,6.244-1.33,8.117c-13.17,9.459-26.039,12.479-37.1,12.479L126.286,190.328z"/>
<path fill="#999898" d="M127.997,204.986c-43.312,0-78.55-29.152-78.55-64.98c0-35.843,35.238-65,78.55-65
	c43.315,0,78.556,29.156,78.556,65C206.553,175.834,171.313,204.986,127.997,204.986z M127.997,80.826
	c-40.104,0-72.73,26.548-72.73,59.18c0,32.623,32.626,59.164,72.73,59.164c40.108,0,72.737-26.54,72.737-59.164
	C200.734,107.374,168.104,80.826,127.997,80.826z"/>
</svg>
