<svg xmlns="http://www.w3.org/2000/svg" width="256" height="256" viewBox="0 0 256 256"><path fill="#fff" d="M160.818 229.756c-4.688 0-9.102-2.492-11.518-6.502-1.854-3.07-2.4-6.682-1.54-10.166.81-3.27 2.768-6.062 5.547-7.926-.324.023-.65.035-.978.035-4.55 0-8.75-2.264-11.24-6.055-1.98-2.988-2.67-6.574-1.94-10.09.71-3.46 2.71-6.444 5.63-8.42l.24-.167 2.35-1.52c1.73-1.2 4.04-2.344 6.7-3.664l.27-.13.09-.04c3.19-1.39 6.42-2.58 9.6-3.54l.58-.16c-4.2-1.48-7.48-5-8.57-9.55-1.73-7.2 2.73-14.48 9.94-16.22 1.89-.45 3.86-.68 5.85-.68 9.9 0 19.07 5.66 25.13 10.52 1.69.83 4.27 1.31 6.99 1.82 2.96.56 6.22 1.17 9.48 2.37l.1-.25.14-.24c.41-.69.56-1.47.71-2.43-.08-1.07-.13-1.73-.55-2.58-.67-1.38-1.56-3.01-3.11-4.67l-.12-.13c-1.4-1.64-3.31-3.43-5.69-5.33-4.17-3.31-9.43-6.68-15.19-9.75-4.64-2.47-9.76-4.89-15.2-7.18-3.76-1.58-7.53-3.04-11.2-4.34-2.62-.89-4.15-1.4-4.16-1.4l-3.88-1.29 12.19-33.83 8.86 3.73c4.33 1.91 8.58 3.94 12.71 6.04 6.25 3.19 11.93 6.41 17.35 9.83 7.44 4.71 13.71 9.45 19.17 14.5 3.7 3.45 6.59 6.63 9.07 10.02 2.99 3.86 5.46 8.46 7.15 13.3 1.74 4.79 2.31 10.61 1.6 16.36l-.03.2c-.88 4.99-2.65 9.71-5.01 13.32-1.8 3.1-3.75 5.27-5.48 7.18l-1.01 1.13-.93.86c.76 5.79-.46 10.98-3.63 15.44-7.11 10.04-22.1 13.45-30.72 14.6-1.13.42-2.29.84-3.51 1.33l-6.81 3.18-3.63 1.68-.11.04c-.53.21-1.1.56-1.75.98-.31.2-.62.39-.93.57l-5.56 3.39c-3.3 2-5.5 3.32-5.5 3.32l-1.09.66c-2.1 1.27-4.5 1.94-6.94 1.94z"/><path fill="#333" d="M169.868 91.512s1.807.764 4.974 2.095c3.063 1.353 7.366 3.325 12.438 5.913 5.067 2.585 10.91 5.78 17.037 9.645 6.118 3.877 12.528 8.457 18.59 14.055 3.025 2.82 5.966 5.905 8.598 9.495 2.683 3.457 4.983 7.67 6.57 12.21 1.658 4.57 1.99 9.838 1.406 14.548-.82 4.684-2.45 8.857-4.47 11.918-1.89 3.31-4.08 5.5-5.93 7.59-.85.77-1.64 1.52-2.39 2.22 4.51 21.1-21.52 26.38-31 27.59-1.29.48-2.68.98-4.14 1.57-2.2 1.03-4.56 2.12-6.91 3.22-1.18.54-2.35 1.09-3.51 1.63-1.19.48-2.2 1.21-3.24 1.82l-5.6 3.42c-3.28 1.99-5.48 3.31-5.48 3.31l-1.1.66c-1.52.92-3.21 1.36-4.87 1.36-3.2 0-6.32-1.63-8.09-4.57-2.69-4.46-1.26-10.26 3.21-12.96.04-.02.12-.06.16-.09 0 0 2.57-1.49 6.43-3.72l6.61-3.78c.91-.49 1.81-1.06 2.76-1.53.99-1.42 1.46-3.52-1.23-5.9l.01-.18c-2.59.87-4.86 1.86-6.74 2.71-1.76.96-3.27 1.73-4.1 2.38-.9.6-1.42.96-1.42.96l-.88.58c-1.6 1.06-3.4 1.56-5.19 1.56-3.06 0-6.07-1.49-7.88-4.25-2.88-4.35-1.67-10.2 2.69-13.07l.06-.05 2.42-1.56c1.53-1.07 3.76-2.16 6.44-3.49 2.68-1.16 5.81-2.36 9.16-3.38 3.35-.95 6.9-1.84 10.45-2.49 1.02-.19 2.03-.36 3.04-.52.43-.6.26-1.36-1.03-2.34l.14-.02c-2.26-1.33-4.34-2.17-5.78-2.17-.24 0-.45.02-.65.07-.74.18-1.48.26-2.2.26-4.27 0-8.15-2.91-9.19-7.25-1.22-5.08 1.91-10.18 6.99-11.4 1.64-.4 3.28-.57 4.91-.57 8.82 0 17.22 5.23 22.94 9.88 4.82 2.61 13.05 2.19 20.13 5.8.82-1.08 1.73-2.24 2.23-3.45.88-1.48 1.09-2.94 1.29-4.32-.11-1.39-.13-2.77-.97-4.5-.82-1.7-1.92-3.65-3.77-5.63-1.68-1.98-3.86-3.97-6.23-5.87-4.78-3.79-10.33-7.24-15.8-10.16-5.48-2.92-10.86-5.37-15.52-7.34-4.67-1.96-8.65-3.44-11.41-4.43-2.69-.91-4.23-1.42-4.23-1.42l9.37-26M165.3 80.9l-2.86 7.95L153 114.8l-2.77 7.705 7.765 2.595c.01.003 1.512.505 4.135 1.396 3.53 1.254 7.31 2.72 10.94 4.246 5.32 2.247 10.327 4.61 14.865 7.03 5.548 2.952 10.59 6.19 14.59 9.36 2.155 1.723 3.884 3.34 5.112 4.785l.114.133.12.13c.68.724 1.19 1.44 1.61 2.133-1.66-.39-3.25-.69-4.71-.963-2.15-.406-4.36-.824-5.64-1.335-6.56-5.19-16.4-11.07-27.23-11.07-2.3 0-4.58.267-6.78.793-9.36 2.25-15.14 11.69-12.9 21.045.68 2.808 1.99 5.31 3.78 7.375-1.03.406-2.06.834-3.09 1.28l-.18.08-.18.09-.18.09c-2.78 1.376-5.19 2.57-7.15 3.92l-2.3 1.486-.3.197-.12.1c-3.73 2.57-6.27 6.41-7.19 10.85-.94 4.57-.04 9.22 2.53 13.11 1.93 2.94 4.65 5.17 7.8 6.49-.74 1.34-1.3 2.77-1.68 4.29-1.12 4.52-.41 9.21 2 13.2 3.13 5.2 8.86 8.43 14.94 8.43 3.17 0 6.28-.86 9-2.51l1.11-.67s2.2-1.32 5.48-3.3l5.59-3.4c.32-.19.64-.39.96-.59.39-.24.91-.57 1.1-.64l.21-.08.21-.1 1.11-.51c.79-.37 1.59-.74 2.39-1.1l6.22-2.9.54-.25c.98-.4 1.95-.75 2.89-1.1 9.34-1.3 25.15-5.1 33.02-16.19 3.34-4.71 4.87-10.24 4.52-16.21l.76-.84c1.75-1.94 3.92-4.35 5.92-7.77 2.65-4.09 4.56-9.18 5.54-14.73l.03-.2.03-.2c.78-6.34.14-12.8-1.81-18.21-1.83-5.21-4.49-10.16-7.72-14.34-2.63-3.58-5.67-6.93-9.53-10.53-5.66-5.23-12.12-10.12-19.76-14.96-5.54-3.49-11.32-6.77-17.68-10.01-4.19-2.14-8.51-4.19-12.84-6.1l-.06-.03-.06-.03c-3.15-1.32-4.95-2.08-4.96-2.09l-7.78-3.29z"/><path fill="#fff" d="M98.15 229.758c-2.347 0-4.667-.623-6.71-1.8l-.152-.088-.076-.053-1.095-.66s-2.195-1.32-5.48-3.308l-5.62-3.43c-.263-.16-.57-.35-.88-.55-.654-.41-1.218-.77-1.748-.98l-.11-.04L65.84 214c-1.23-.494-2.41-.926-3.52-1.33-8.47-1.13-23.24-4.47-30.47-14.23-3.137-4.235-4.486-9.144-4.02-14.617l-.35-.307c-1.62-1.317-3.154-3.02-4.775-4.82l-1.08-1.194-.81-1.095c-.68-.917-1.376-1.86-2.09-2.834l-.087-.116-.08-.12c-.878-1.398-1.7-2.923-2.5-4.397l-.3-.552-.068-.16c-1.33-3.06-3.117-7.744-3.356-13.16-.37-4.595.33-9.613 2.02-14.52 1.557-4.77 3.95-8.664 6.084-11.83 4.116-5.85 9.03-10.99 15.51-16.24 4.48-3.63 9.39-7.08 14.595-10.26 3.53-2.165 7.158-4.206 10.78-6.06l1.32-.656c.736-.365 1.344-.666 1.806-.9l5.13-2.384 13.67 33.34-4.7 1.65-2.47.97c-2.93 1.195-5.9 2.54-8.8 3.987-4.16 2.064-8.04 4.315-11.56 6.693-4.11 2.74-7.7 5.814-10.11 8.665-.46.57-2.03 2.496-2.57 3.82l.13.154c-.52 1.11-.57 1.953-.57 2.57v.255l-.23.25c-.07.47.07 1.387.3 2.285l.67 1.63.96 1.623c3.64-1.51 7.32-2.204 10.67-2.835 2.71-.51 5.27-.995 6.97-1.813C68.02 150.6 77.2 144.94 87.1 144.94c1.994 0 3.963.23 5.855.684 7.21 1.735 11.67 9.013 9.944 16.223-1.09 4.543-4.38 8.06-8.57 9.548l.52.148c3.23.98 6.46 2.174 9.66 3.562l.39.188c2.65 1.316 4.95 2.455 6.68 3.653l2.36 1.52c6.22 4.022 8.01 12.36 3.99 18.59-2.49 3.85-6.72 6.148-11.3 6.148-.32 0-.64-.012-.96-.034 5.8 3.9 7.67 11.712 4.13 17.86-2.41 4.15-6.87 6.725-11.66 6.725z"/><path fill="#333" d="M67.477 97.616l10.48 25.562-.803.285-2.528.996c-2.213.9-5.41 2.27-9.12 4.12-3.71 1.84-7.912 4.18-12.012 6.96-4.124 2.75-8.07 6.02-10.92 9.39-1.356 1.67-2.587 3.36-3.213 4.88-.7 1.54-1.12 2.91-1.13 4.23-.17 1.32.21 2.68.58 4.12.33.74.65 1.45.96 2.16.44.72.87 1.42 1.28 2.1.76.93 1.38 1.85 2.08 2.68 7.28-4.15 16-3.58 21.04-6.3 5.72-4.65 14.13-9.9 22.96-9.9 1.63 0 3.28.18 4.92.57 5.08 1.22 8.21 6.32 6.99 11.4-1.04 4.34-4.92 7.25-9.19 7.25-.72 0-1.47-.09-2.21-.26-.2-.05-.42-.08-.66-.08-1.43 0-3.5.85-5.77 2.17l.14.02c-1.29.98-1.46 1.74-1.03 2.34 1.01.16 2.02.34 3.04.53 3.54.65 7.1 1.53 10.44 2.49 3.35 1.02 6.48 2.22 9.17 3.39 2.68 1.33 4.91 2.42 6.44 3.49l2.42 1.55c4.38 2.83 5.64 8.68 2.81 13.06-1.81 2.79-4.84 4.31-7.94 4.31-1.76 0-3.54-.49-5.12-1.51l-.06-.04-.88-.59-1.42-.94c-.83-.66-2.35-1.4-4.1-2.35-1.87-.85-4.14-1.79-6.73-2.65l.01.06c-2.69 2.38-2.22 4.48-1.24 5.91.96.47 1.86 1.03 2.76 1.53l6.61 3.78c3.86 2.23 6.43 3.72 6.43 3.72 4.52 2.61 6.06 8.38 3.46 12.9-1.75 3.03-4.92 4.72-8.19 4.72-1.6 0-3.22-.41-4.71-1.27-.04-.03-.07-.05-.11-.07l-1.14-.69s-2.19-1.32-5.48-3.31L81.11 217c-1.04-.614-2.044-1.347-3.24-1.82-1.158-.536-2.333-1.084-3.51-1.627l-6.917-3.22c-1.465-.592-2.855-1.096-4.146-1.57-9.33-1.19-34.665-6.308-31.21-26.547-.63-.55-1.293-1.138-2.01-1.758-1.68-1.355-3.42-3.395-5.33-5.498-.89-1.204-1.816-2.45-2.775-3.755-.883-1.41-1.726-2.99-2.586-4.578-1.49-3.43-2.85-7.407-3.03-11.82-.368-4.38.413-8.926 1.81-12.966 1.35-4.14 3.43-7.65 5.617-10.9 4.483-6.37 9.694-11.3 14.71-15.36 5.024-4.07 9.896-7.35 14.16-9.95 4.26-2.61 7.9-4.57 10.516-5.91 1.34-.66 2.39-1.18 3.11-1.54l1.2-.55m4.22-10.79l-7.6 3.54-1.16.54-.15.07-.15.08c-.46.23-1.05.53-1.77.88l-1.28.64-.05.02-.05.02c-3.71 1.9-7.43 3.99-11.05 6.21-5.35 3.27-10.4 6.82-15.02 10.56-6.78 5.49-11.93 10.88-16.22 16.98l-.05.07-.05.07c-2.15 3.19-4.83 7.52-6.57 12.83-1.85 5.38-2.62 10.91-2.21 16.01.28 6.05 2.23 11.17 3.67 14.51l.14.32.16.3.21.4c.83 1.53 1.68 3.11 2.63 4.62l.15.25.17.23c.72.99 1.42 1.94 2.11 2.86l.68.92.24.33.27.3.93 1.03c1.35 1.5 2.63 2.93 4.02 4.21-.05 5.62 1.6 10.82 4.88 15.25 7.97 10.76 23.53 14.48 32.71 15.75.94.35 1.91.71 2.89 1.1l3.19 1.49 3.53 1.64c.81.38 1.6.74 2.38 1.11l1.14.53.21.1.21.09c.19.08.71.41 1.09.65.32.2.65.4.97.59l5.57 3.4c3.32 2 5.52 3.32 5.52 3.32l.98.59.09.07.31.18c2.65 1.53 5.66 2.34 8.71 2.34 6.21 0 12-3.34 15.11-8.71 3.17-5.49 3-12.01.14-17.19 3.18-1.33 5.94-3.61 7.89-6.62 5.21-8.08 2.89-18.9-5.19-24.12l-2.31-1.49c-1.96-1.35-4.36-2.53-7.12-3.9l-.21-.11-.18-.09-.19-.08c-1.03-.44-2.06-.87-3.1-1.28 1.78-2.06 3.1-4.56 3.77-7.37 2.24-9.36-3.55-18.8-12.9-21.05-2.2-.53-4.49-.79-6.8-.79-10.83 0-20.67 5.88-27.24 11.08-1.28.51-3.49.92-5.63 1.33-2.4.45-5.12.96-7.94 1.82-.04-.16-.07-.3-.09-.41l.02-.16v-.39c.03-.11.12-.42.4-1.03l.07-.15.06-.15c.08-.18.44-.91 1.98-2.82 2.18-2.55 5.44-5.34 9.2-7.84l.02-.02.02-.01c3.36-2.27 7.09-4.43 11.08-6.42 2.8-1.4 5.67-2.69 8.54-3.86l1.41-.55.94-.37.65-.23 7.95-2.79-3.2-7.8-10.42-25.6-3.18-7.75z"/><path fill="#fff" d="M125.315 173.74c-21.116 0-41.35-6.414-56.977-18.062-15.035-11.208-24.637-26.336-27.23-42.806-2.507-1.156-4.834-2.452-7.064-3.93-3.688-2.472-6.51-4.986-8.9-7.924-1.66-2.093-2.877-4.133-3.752-6.275-.43-1.12-.918-2.52-1.177-4.156-.188-.983-.24-2.072-.255-2.645-.02-.65-.007-.933.032-1.313.01-.09.02-.21.026-.51l.004-.16.016-.16c.382-3.72 1.893-6.6 3.092-8.36 1.28-1.88 2.87-3.57 4.86-5.15 2.843-2.23 6.033-3.95 10.063-5.43 5.542-1.94 10.99-2.92 16.253-2.92.38 0 .763 0 1.145.01C71.34 45.04 97.28 33.8 125.32 33.8c28.023 0 53.958 11.24 69.845 30.17.257-.006.514-.008.77-.008 5.266 0 10.713.972 16.19 2.89 4.087 1.505 7.28 3.226 10.102 5.436 2.007 1.594 3.598 3.275 4.883 5.16 1.203 1.775 2.71 4.66 3.09 8.36l.016.15.005.15c.01.294.02.41.03.495.04.386.06.674.04 1.36-.01.558-.07 1.648-.25 2.618-.26 1.63-.74 3.03-1.14 4.07-.91 2.23-2.13 4.27-3.75 6.33-2.41 2.97-5.23 5.49-8.91 7.95-2.12 1.41-4.32 2.64-6.68 3.75-2.54 16.52-12.12 31.69-27.17 42.94-15.63 11.69-35.89 18.12-57.04 18.12zm-85.96-87.297c.173.222.432.513.813.856.587.53 1.32 1.08 2.154 1.61.57-2.19 1.266-4.35 2.084-6.47-1.826.99-3.385 2.12-4.405 3.21-.29.3-.5.57-.64.78zM206.31 82.72c.75 1.965 1.394 3.962 1.93 5.984.694-.46 1.307-.927 1.805-1.384.395-.355.66-.653.835-.877-.137-.204-.33-.454-.6-.73-.967-1.028-2.345-2.062-3.97-2.994z"/><path fill="#333" d="M125.315 37.808c28.54 0 53.607 12.055 68.01 30.25.87-.06 1.737-.088 2.603-.088 5.056 0 10.04.975 14.867 2.667 3.048 1.122 6.078 2.554 8.96 4.81 1.435 1.14 2.837 2.495 4.044 4.263 1.19 1.77 2.16 4.03 2.41 6.517.03 1.08.09.67.06 1.618-.02.754-.09 1.518-.2 2.05-.19 1.194-.54 2.286-.94 3.338-.84 2.053-1.96 3.763-3.15 5.263-2.43 2.98-5.16 5.205-8.01 7.115-2.59 1.72-5.28 3.13-8.12 4.33-3.82 33.54-38.41 59.81-80.55 59.81-42.08 0-76.64-26.17-80.55-59.63-2.99-1.23-5.81-2.7-8.51-4.49-2.85-1.91-5.58-4.13-8.01-7.11-1.19-1.5-2.31-3.21-3.15-5.26-.4-1.05-.76-2.14-.94-3.33-.11-.53-.18-1.29-.2-2.05-.03-.95.03-.54.06-1.62.25-2.48 1.21-4.75 2.42-6.51 1.2-1.77 2.61-3.12 4.04-4.26 2.88-2.25 5.91-3.68 8.95-4.81 4.83-1.7 9.82-2.68 14.87-2.68.98 0 1.97.04 2.96.12 14.42-18.22 39.5-30.29 68.06-30.29M45.14 94.8c1.154-6.903 3.6-13.47 7.163-19.523-3.27.72-6.47 1.925-9.38 3.433-2.27 1.188-4.36 2.643-5.84 4.218-1.55 1.59-2.12 3.215-1.93 3.978.14.757.81 2.006 2.32 3.376 1.47 1.346 3.47 2.602 5.61 3.64.66.312 1.35.603 2.05.882m160.29-.138c.58-.238 1.15-.487 1.7-.75 2.15-1.035 4.14-2.29 5.61-3.637 1.52-1.37 2.19-2.62 2.32-3.38.19-.77-.37-2.39-1.92-3.98-1.48-1.58-3.58-3.03-5.84-4.22-2.78-1.44-5.82-2.6-8.95-3.33 3.51 5.98 5.93 12.47 7.09 19.28M125.31 29.8c-28.494 0-54.96 11.208-71.69 30.167-5.5.08-11.16 1.125-16.833 3.11l-.06.02-.063.024c-4.43 1.63-7.966 3.54-11.123 6.01l-.02.02-.02.02c-2.32 1.84-4.17 3.81-5.68 6.03-2.09 3.08-3.4 6.6-3.77 10.2l-.03.31-.01.31c0 .1 0 .17-.01.22-.06.59-.07 1.06-.05 1.83.02.84.09 2.04.31 3.21.32 1.98.89 3.61 1.35 4.82l.03.08.04.08c1.02 2.5 2.42 4.86 4.29 7.21l.04.04.04.04c2.65 3.26 5.75 6.02 9.76 8.71 1.85 1.22 3.74 2.33 5.72 3.33 3.21 16.69 13.18 31.93 28.43 43.3 16.31 12.16 37.4 18.85 59.37 18.85 22.01 0 43.12-6.71 59.44-18.91 15.28-11.41 25.23-26.71 28.38-43.46 1.83-.94 3.58-1.96 5.27-3.08l.02-.01.03-.01c4.01-2.69 7.11-5.46 9.76-8.71l.03-.03.03-.04c1.87-2.35 3.27-4.71 4.29-7.21l.04-.09.03-.08c.46-1.21 1.03-2.84 1.35-4.8.22-1.16.29-2.38.32-3.21.03-.77.01-1.25-.05-1.87V86l-.01-.3-.03-.296c-.37-3.586-1.66-7.11-3.75-10.187-1.53-2.24-3.38-4.21-5.69-6.04l-.02-.014-.02-.02c-3.16-2.473-6.7-4.385-11.13-6.017l-.06-.025-.06-.02c-5.53-1.94-11.06-2.98-16.44-3.1-16.72-18.96-43.19-30.17-71.68-30.17zm-93.75 57c-.02.55-.05.804-.07 1.006.03.124.047.402.08.623.13.78.286 1.33.577 2.08.4.99 1.07 2.08 2.02 3.28 1.6 1.97 3.56 3.7 6.29 5.53 2.13 1.41 4.5 2.66 7.2 3.78l4.103 1.7.516 4.41c3.464 29.7 35.537 52.96 73.02 52.96 37.562 0 69.64-23.33 73.017-53.11l.5-4.38 4.07-1.73c2.604-1.11 4.86-2.3 6.9-3.65 2.694-1.82 4.653-3.54 6.313-5.59.9-1.13 1.56-2.22 2.02-3.35.24-.62.4-1.16.47-1.63.09-.55.11-.83.12-1.11 0-.07-.027-.31-.05-.85-.137-.97-.53-1.97-1.12-2.84-.62-.91-1.414-1.74-2.503-2.61-1.82-1.42-3.95-2.55-6.856-3.63-4.79-1.68-9.613-2.41-14.35-2.09l-3.98.27-2.47-3.13c-13.58-17.17-36.786-27.42-62.063-27.42-25.298 0-48.506 10.25-62.087 27.44l-2.5 3.16-4.02-.32C51.9 75.27 47 76 41.94 77.77c-2.79 1.026-4.923 2.16-6.8 3.627-1.03.82-1.83 1.654-2.452 2.57-.59.86-.982 1.86-1.12 2.82z"/><path fill="#676767" d="M58.13 71.353S30.152 77.255 29.595 86.56c-.552 9.307 18.897 19.06 29.865 19.717 0 0-14.765-14.222-1.33-34.924z"/><path fill="#B3B3B3" d="M58.003 74.548c-5.21.14-10.49 1.78-15.07 4.153-2.268 1.19-4.36 2.65-5.844 4.22-1.55 1.59-2.12 3.21-1.93 3.98.13.76.8 2.01 2.32 3.38 1.47 1.35 3.46 2.6 5.61 3.64 4.27 2.03 9.46 3.36 13.48 3.2 4.42-.16 8.14 3.3 8.29 7.72.15 4.43-3.3 8.14-7.72 8.29-.41.02-.8.01-1.18-.04l-.36-.04c-3.83-.45-7.16-1.45-10.35-2.7-3.18-1.27-6.17-2.82-9.03-4.72-2.85-1.91-5.58-4.13-8.01-7.11-1.19-1.5-2.31-3.21-3.15-5.26-.4-1.05-.76-2.14-.94-3.33-.11-.53-.18-1.29-.2-2.05-.03-.95.03-.54.05-1.62.26-2.48 1.22-4.75 2.42-6.51 1.2-1.77 2.61-3.12 4.04-4.26 2.88-2.25 5.91-3.69 8.95-4.81 6.08-2.13 12.42-3.15 18.82-2.48 1.76.2 3.04 1.78 2.85 3.53-.17 1.62-1.52 2.83-3.11 2.87z"/><path fill="#676767" d="M192.102 71.353s27.98 5.902 28.54 15.206c.553 9.3-18.902 19.06-29.87 19.71 0 0 14.77-14.22 1.33-34.93z"/><path fill="#B3B3B3" d="M192.23 74.548c5.212.14 10.492 1.78 15.073 4.153 2.266 1.19 4.36 2.65 5.84 4.22 1.554 1.59 2.114 3.21 1.923 3.98-.132.76-.804 2.01-2.32 3.38-1.468 1.35-3.466 2.6-5.608 3.64-4.27 2.03-9.465 3.36-13.488 3.2-4.428-.16-8.136 3.3-8.294 7.72-.155 4.43 3.3 8.14 7.718 8.29.403.02.793.01 1.18-.04l.353-.04c3.83-.45 7.16-1.45 10.352-2.7 3.17-1.27 6.16-2.82 9.02-4.72 2.84-1.91 5.58-4.13 8-7.11 1.19-1.5 2.31-3.21 3.15-5.26.4-1.05.75-2.14.94-3.33.1-.53.17-1.29.19-2.05.03-.95-.03-.54-.07-1.62-.26-2.48-1.22-4.75-2.42-6.51-1.21-1.77-2.61-3.12-4.05-4.26-2.88-2.25-5.91-3.69-8.96-4.81-6.09-2.13-12.41-3.15-18.82-2.48-1.76.2-3.04 1.78-2.85 3.53.16 1.62 1.52 2.83 3.1 2.87z"/><path fill="#fff" d="M206.228 103.77c0 36.434-36.223 65.97-80.913 65.97-44.698 0-80.93-29.536-80.93-65.97 0-36.43 36.232-65.963 80.93-65.963 44.69 0 80.913 29.534 80.913 65.964z"/><path fill="#B3B3B3" d="M188.88 120.517c0 24.405-29.368 44.18-65.59 44.18-36.218 0-65.587-19.774-65.587-44.18 0-24.395 29.37-44.172 65.588-44.172 36.23 0 65.59 19.777 65.59 44.172z"/><path fill="#999898" d="M123.29 167.218c-37.556 0-68.108-20.946-68.108-46.7 0-25.747 30.553-46.694 68.11-46.694 37.555 0 68.112 20.947 68.112 46.693 0 25.754-30.557 46.7-68.113 46.7zm0-88.352c-34.777 0-63.067 18.684-63.067 41.65 0 22.97 28.29 41.66 63.068 41.66s63.07-18.69 63.07-41.66c0-22.967-28.29-41.65-63.07-41.65z"/><path fill="#333" d="M124.62 160.83c-2.79 0-5-2.256-5-5.04V145.7c0-2.79 2.21-5.044 5-5.044 2.786 0 5 2.255 5 5.043v10.09c0 2.78-2.214 5.04-5 5.04zm.832-18.34l13.692-8.236c12.227-7.343 34.36-18.282 35.292-18.745 1.873-.93 4.15-.16 5.07 1.71.922 1.88.152 4.14-1.72 5.06-.146.07-9.764 4.82-19.748 10.11l12.005-.92c2.118-.09 3.907 1.39 4.063 3.48.16 2.08-1.396 3.9-3.48 4.06l-45.174 3.46zm-4.168-.597l-47.926-2.504c-2.088-.11-3.69-1.89-3.583-3.98.11-2.09 1.842-3.68 3.975-3.59l20.498 1.07c-10.403-4.87-21.708-8.62-21.875-8.68-1.985-.65-3.063-2.79-2.41-4.78.648-1.98 2.77-3.08 4.772-2.41 1.07.35 26.287 8.71 37.313 17.49l9.236 7.35z"/><ellipse fill="#2974A7" cx="123.812" cy="141.323" rx="9.989" ry="6.063"/><path fill="#fff" d="M194.744 182.625c-3.058 0-6-1.288-8.07-3.534-4.64-5.01-11.763-9.75-14.657-9.75-.124 0-.23.01-.315.03-.828.2-1.688.3-2.544.3-5.09 0-9.47-3.45-10.653-8.4-1.408-5.87 2.224-11.79 8.097-13.21 1.7-.4 3.47-.61 5.265-.61 14.373 0 27.32 12.87 30.945 16.82 4.085 4.45 3.787 11.4-.664 15.48-2.034 1.87-4.663 2.89-7.404 2.89z"/><path fill="#333" d="M171.865 148.944c14.097-.002 27.124 13.374 29.84 16.33 3.535 3.85 3.272 9.83-.573 13.362-1.82 1.665-4.108 2.488-6.388 2.488-2.56 0-5.102-1.027-6.968-3.05-4.637-5.01-12.16-10.235-15.76-10.235-.235 0-.453.02-.653.06-.738.17-1.48.26-2.206.26-4.27 0-8.154-2.91-9.194-7.25-1.218-5.08 1.91-10.18 6.988-11.4 1.65-.4 3.29-.58 4.92-.58m0-2.57c-1.91 0-3.8 0-5.61.44-6.68 1.6-10.81 8.23-9.2 14.9 1.35 5.62 6.33 9.49 12.11 9.49.96 0 1.91-.14 2.85-.36 2.05.01 8.61 3.89 13.58 9.26 2.35 2.55 5.7 4 9.17 4 3.12 0 6.11-1.17 8.42-3.28 5.07-4.65 5.4-12.33.76-17.39-3.73-4.06-17.06-17.09-32.05-17.09z"/><path fill="#fff" d="M192.334 209.11s43.528-2.403 33.352-31.512c-7.033-20.118-26.574-13.565-32.948-20.326 0 0-35.92 55.345-.404 51.838zm11.486-22.73s-.743.96-2.05.976c-1.333.04-3.29.607-5.63.76-4.686.343-10.93 1.296-16.91 2.554-2.995.613-5.886 1.518-8.526 2.33-2.61.87-4.893 1.87-6.777 2.725-1.76.955-3.276 1.727-4.104 2.38-.905.597-1.424.954-1.424.954l-.89.58c-4.36 2.86-10.21 1.67-13.08-2.7-2.88-4.36-1.67-10.21 2.69-13.07l.06-.05 2.41-1.56c1.53-1.07 3.75-2.17 6.43-3.5 2.68-1.17 5.81-2.37 9.17-3.39 3.34-.96 6.9-1.84 10.44-2.49 7.09-1.33 14.11-1.98 19.39-2.25 2.64-.12 4.85-.19 6.42-.19 1.6.01 2.52.01 2.52.01 4.91.02 8.87 3.07 8.86 7.98-.02 4.84-3.91 7.92-8.72 7.92h-.33zm.06 19.566s-.662.204-1.818.556c-1.22.334-2.718.894-4.468 1.56-1.768.685-3.837 1.387-6.054 2.283-2.207 1.027-4.562 2.123-6.913 3.22-1.18.543-2.355 1.09-3.515 1.628-1.195.473-2.203 1.205-3.243 1.82l-5.61 3.414c-3.29 1.986-5.48 3.306-5.48 3.306l-1.1.664c-4.47 2.692-10.27 1.262-12.97-3.207-2.7-4.46-1.26-10.263 3.2-12.96.03-.023.12-.067.15-.09 0 0 2.57-1.49 6.43-3.72 1.93-1.11 4.19-2.4 6.61-3.785 1.21-.666 2.43-1.464 3.77-1.976 1.32-.59 2.67-1.18 4.02-1.76 2.69-1.16 5.38-2.33 7.91-3.43 2.61-.99 5.15-1.8 7.28-2.53 2.15-.75 3.92-1.33 5.04-1.6l1.83-.52c4.73-1.32 9.64 1.44 10.96 6.18 1.3 4.65-1.35 9.47-5.95 10.89l-.14.04zm-34.02-4.92s5.752-3.44.797-7.83l1.255-18.812s10.55-.735 5.753-4.353l19.467-2.97 18.067 14.31.92 15.13-29.86 4.72-16.41-.19zM64.23 182.38c-2.743 0-5.37-.9-7.402-2.757-4.454-4.09-4.75-10.975-.667-15.424 2.58-2.81 16.16-16.79 30.94-16.79 1.8 0 3.57.22 5.27.63 5.88 1.41 9.51 7.34 8.1 13.22-1.19 4.94-5.57 8.4-10.65 8.4-.85 0-1.72-.1-2.56-.3-.06-.02-.16-.04-.32-.04-2.87 0-10.11 4.7-14.63 9.62-2.06 2.25-5.01 3.42-8.07 3.42z"/><path fill="#333" d="M87.1 148.94c1.63 0 3.275.18 4.92.576 5.077 1.222 8.205 6.324 6.99 11.4-1.044 4.34-4.92 7.253-9.193 7.253-.73 0-1.47-.09-2.21-.27-.203-.05-.426-.08-.667-.08-3.588 0-11.235 5.45-15.734 10.35-1.867 2.03-4.413 3.19-6.972 3.19h-.003c-2.28 0-4.56-.96-6.39-2.62-3.84-3.53-4.1-9.58-.57-13.43 2.71-2.96 15.74-16.4 29.83-16.4m0-3c-15.02 0-28.32 13.24-32.04 17.3-4.64 5.05-4.3 12.95.76 17.6 2.32 2.11 5.3 3.27 8.42 3.27 3.49 0 6.84-1.7 9.19-4.26 4.85-5.28 11.55-9.49 13.53-9.49h.01c.96 1 1.92.56 2.88.56 5.78 0 10.76-3.82 12.11-9.44 1.6-6.68-2.53-13.36-9.2-14.96-1.81-.44-3.71-.6-5.62-.6z"/><path fill="#fff" d="M66.64 209.11s-43.532-2.403-33.355-31.512c7.037-20.118 26.576-13.565 32.952-20.326 0 0 35.914 55.345.403 51.838zm-11.675-38.634s.92 0 2.527-.01c1.577.005 3.78.07 6.42.19 5.287.27 12.31.913 19.4 2.243 3.542.65 7.1 1.53 10.443 2.49 3.35 1.01 6.482 2.22 9.167 3.38 2.68 1.33 4.908 2.42 6.437 3.49l2.41 1.55c4.38 2.83 5.63 8.68 2.8 13.06-2.83 4.37-8.68 5.63-13.06 2.8l-.06-.04-.88-.59-1.43-.94c-.83-.66-2.35-1.4-4.11-2.36-1.89-.86-4.17-1.8-6.78-2.67-2.64-.82-5.53-1.6-8.52-2.22-5.98-1.26-12.23-1.98-16.91-2.32-2.34-.15-4.3-1.19-5.63-1.23-1.31-.02-2.06-.98-2.06-.98h-.31c-4.92 0-8.83-3.21-8.73-8.12.09-4.84 4.04-7.77 8.86-7.79zm5.003 18.357l1.832.514c1.125.275 2.893.855 5.047 1.602 2.127.73 4.666 1.54 7.28 2.53 2.527 1.09 5.22 2.26 7.912 3.42 1.34.58 2.69 1.17 4.02 1.75 1.35.51 2.56 1.31 3.78 1.97l6.61 3.78c3.86 2.23 6.43 3.72 6.43 3.72 4.51 2.61 6.06 8.38 3.46 12.9-2.61 4.51-8.39 6.06-12.91 3.45-.04-.03-.08-.05-.11-.07l-1.15-.69s-2.2-1.32-5.48-3.31l-5.61-3.4c-1.04-.62-2.05-1.35-3.24-1.82l-3.51-1.63c-2.36-1.1-4.71-2.19-6.92-3.22-2.22-.9-4.29-1.6-6.06-2.29-1.75-.66-3.25-1.22-4.47-1.56l-1.82-.55-.13-.04c-4.7-1.45-7.34-6.42-5.9-11.11 1.42-4.62 6.26-7.25 10.9-5.96zm29.142 12.192s-5.75-3.44-.795-7.828l-1.253-18.813s-10.55-.735-5.754-4.353l-19.465-2.97-18.068 14.31-.928 15.13 29.856 4.72 16.408-.19z"/></svg>