<svg xmlns="http://www.w3.org/2000/svg" width="256" height="256" viewBox="0 0 256 256"><path d="M146.048 207.466c-.358 0-.748-.028-1.163-.085H109.33c-2.126 0-4.658-1.25-4.658-7.22 0-.76.063-1.81.2-2.73-.044-.31-.088-.64-.13-.99-.246-.55-.372-1.15-.347-1.79.03-.8-.082-1.6-.236-2.25H97.5c.532 1.42 1.134 2.8 1.833 4.19.633 1.27.55 2.78-.224 3.97-.74 1.14-2.01 1.82-3.36 1.82h-.18c-1.14-.05-28.02-1.45-34.09-19.67-2.32-6.95-3.06-30.46 1.36-55.82-2.44-1.86-3.95-4.82-3.86-8.01 0-.14.01-.3.02-.45l3.16-46.92c.18-2.7 1.6-5.12 3.75-6.63l.47-4.55c.61-6.06 5.69-10.63 11.8-10.63.4 0 .81.02 1.21.06 6.5.67 11.24 6.51 10.6 13.04-.03.35-.09.86-.15 1.18l-.78 4c8.11-7.62 17.62-11.46 28.41-11.46 2.94 0 6 .3 9.11.88h3.4c3.24-.68 6.44-1.03 9.52-1.03 6.28 0 12.21 1.42 17.72 4.24.16-4.92 3.43-9.47 8.44-10.98 1.12-.33 2.27-.51 3.43-.51 5.27 0 9.84 3.4 11.36 8.45.1.33.19.68.26 1.02l.93 4.54c2.27 1.3 3.92 3.56 4.38 6.22l7.84 46.45c.36 2.17-.01 4.36-1.03 6.25 5.25 26.3 4.9 53.05 2.27 60.94-6.04 18.09-32.76 20.82-33.89 20.93-.13.01-.26.02-.38.02-1.31 0-2.55-.65-3.3-1.74-.83-1.2-.93-2.75-.28-4.05.73-1.46 1.44-3.37 2.15-5.71h-8.27c-.42 1.44-.88 3.22-1.33 5.17.2.98.31 2 .32 3 .02.17.07.34.11.51.14.6.32 1.34.32 2.18-.01 2.06-1.62 4.23-4.57 4.23zm23.078-154.373c3.38 0 6.507 2.19 7.535 5.6.07.226.14.465.18.695l1.36 6.63c1.97.367 3.57 1.906 3.93 3.965l7.85 46.435c.3 1.766-.24 3.48-1.34 4.733 5.56 26.61 5.07 53.52 2.73 60.52-5.27 15.82-30.47 18.21-30.47 18.21 1.6-3.18 2.83-7.49 3.77-11.49H148.3c-.79 2-1.696 5.51-2.352 8.35l-.026-.6c-.075.52-.146 1.02-.205 1.35.302.96.467 2.1.467 3.16 0 .82.435 1.85.436 2.61 0 .18-.27.23-.57.23-.398 0-.857-.08-.864-.08H109.33c-.41 0-.656-1.95-.656-3.23 0-.78.092-1.97.252-2.67-.148-.98-.29-2.01-.384-3.27l-.15.58c.102-2.58-.744-5.4-1.763-6.4H92.08c1.018 4 2.23 7.09 3.678 9.98 0 0-25.198-1.12-30.476-16.94-2.23-6.69-2.78-31.35 2.027-56.75-2.56-.65-4.41-2.99-4.32-5.73 0-.06 0-.14.01-.2l3.16-46.98c.14-2.1 1.6-3.78 3.51-4.33l.69-6.72c.41-4.05 3.83-7.04 7.82-7.04.27 0 .54.01.81.04 4.32.45 7.47 4.38 7.02 8.7-.02.23-.06.61-.11.84L82.06 83.2c8.17-13.423 19.62-22.67 35.42-22.667 2.77 0 5.68.285 8.73.88h4.21c3.18-.7 6.21-1.033 9.09-1.032 9.42 0 17.28 3.54 23.82 9.18l-1.75-6.28c-1.26-4.16 1.09-8.55 5.25-9.81.75-.23 1.52-.34 2.27-.34m0-8c-1.55 0-3.1.23-4.59.68-4.77 1.44-8.36 4.93-10.11 9.21-4.72-1.75-9.71-2.63-14.91-2.63-3.22 0-6.56.34-9.93 1.03h-2.62c-3.22-.59-6.4-1-9.47-1-8.542 0-16.47 2.35-23.58 6.81-1.04-7.03-6.71-12.72-14.07-13.48-.55-.06-1.1-.07-1.635-.07-8.17 0-14.96 6.12-15.78 14.23l-.305 2.93c-2.26 2.17-3.71 5.14-3.93 8.38l-3.16 46.88c-.02.24-.03.48-.04.71-.09 3.59 1.26 6.98 3.56 9.53-3.85 23.58-3.653 47.25-.854 55.64 6.94 20.8 36.46 22.35 37.71 22.41.12.01.24.01.36.01 1.998 0 3.9-.74 5.35-2.05 1.59 6.68 6.99 7.07 8.22 7.07h35.31c.49.06.96.09 1.41.09 4.72 0 7.78-3.25 8.435-6.79 1.52 2.02 3.89 3.2 6.4 3.2.25 0 .51-.01.76-.04.3-.03 7.43-.73 15.28-3.63 11.46-4.24 19.08-11.16 22.03-20.01 3.08-9.25 2.98-36.38-1.89-61.7.94-2.32 1.23-4.88.8-7.42l-7.84-46.44c-.55-3.21-2.29-6.01-4.74-7.95l-.6-2.93-.01-.05c-.09-.44-.21-.89-.34-1.35-2.04-6.75-8.14-11.29-15.2-11.29zm-22.5 161.64c-2.21 0-4-1.79-4-4s1.79-4 4-4 4 1.79 4 4-1.795 4-4 4zm0-12c-4.42 0-8 3.58-8 8v.01c0 4.42 3.58 8 8 8s8-3.58 8-8-3.586-8-8-8z" fill="#333"/><path fill="#1A1A1A" d="M79.204 101.672l3.584 85.71h90.428l2.508-58.445-12.92-48.444z"/><path fill="#fdb" d="M109.52 200.516s-6.94-28.135 14.177-22.135h9.854c17.47-6 12.04 19.68 12.04 19.68"/><path fill="#fdb" d="M128.62 178.146c0 4.755-.948 6.695-5 6.695s-5-1.94-5-6.69v-17.22c0-4.75.948-8.61 5-8.61s5 3.86 5 8.62v17.23z"/><path fill="#D3BD8D" d="M162.776 120.712c0 8.355 1.207 15.127 7.068 15.127s14.146-1.57 14.146-15.13c0-8.37-4.744-15.13-10.604-15.13-5.864 0-10.61 6.76-10.61 15.12z"/><path fill="#C69C6D" d="M164.528 120.657c.03-2.345.506-5.012 1.662-7.277.57-1.15 1.313-2.28 2.355-3.248 1.03-.947 2.514-1.76 4.215-1.785.654.068.523.007 1.135.135.492.103.91.25 1.234.413.72.315 1.31.77 1.85 1.237 1.04.968 1.6 2.097 2.16 3.248 1.16 2.32 1.47 4.824 1.47 7.332v.283c0 1.643-1.1 2.992-2.74 3.012-1.65.018-2.89-1.295-2.91-2.933 0-.12.05-.252.06-.362.18-1.653.06-3.457-.48-4.966-.5-1.585-1.51-2.574-1.79-2.673-.18-.094-.66-.08-1.25.315-.56.4.64 1.054.15 1.824-1 1.602-.05 3.392-.05 5.556v.09c0 .96-2.76 1.658-3.72 1.553-.91-.09-3.38-.86-3.38-1.75z"/><path fill="#D3BD8D" d="M92.6 120.712c0 8.355-1.216 15.127-7.075 15.127s-14.145-1.57-14.145-15.13c0-8.37 4.742-15.13 10.605-15.13 5.86 0 10.614 6.76 10.614 15.12z"/><path fill="#C69C6D" d="M90.84 120.657c-.03-2.345-.507-5.012-1.653-7.277-.58-1.15-1.32-2.28-2.36-3.248-1.032-.947-2.505-1.76-4.22-1.785-.646.068-.518.007-1.123.135-.494.103-.922.25-1.238.413-.73.315-1.316.77-1.857 1.237-1.05.968-1.16 2.097-1.74 3.248-1.15 2.32-1.03 4.824-1.03 7.332v.283c0 1.643.66 2.992 2.3 3.012 1.65.018 2.68-1.295 2.7-2.933 0-.12-.18-.252-.19-.362-.18-1.653-.12-3.457.42-4.966.5-1.585 1.49-2.574 1.77-2.673.17-.094.63-.08 1.22.315.58.4 2.29 1.054 2.78 1.824 1 1.602 2.97 3.392 2.97 5.556v.09c0 .96-.18 1.658.78 1.553.9-.09.44-.86.43-1.75z"/><path fill="#fdb" d="M169.43 135.646c0 29.733-28.564 32.3-41.308 32.3-14.5 0-41.305-2.566-41.305-32.3 0-29.725-3.074-67.89 41.305-67.89 44.824 0 41.307 38.165 41.307 67.89z"/><path fill="#333" d="M123.575 147.877c-.928 0-1.793-.592-2.086-1.525-.37-1.15.27-2.38 1.42-2.748 4.4-1.402 4.35-3.456 4.35-3.548l-1.69-21.537c-.1-1.21.8-2.26 2-2.36 1.18-.18 2.26.8 2.35 2.01l1.68 21.48c.01.07.75 5.53-7.39 8.12-.22.07-.45.1-.66.1z"/><path fill="#DDB99B" d="M85.897 116.433s14.59 34.44 39.473 40.424c0 0 27.03-22.958 40.664-39.705l4.31 5.5-40.188 53.583-38.275-30.86-6.45-27.987"/><path fill="#D4145A" d="M132.96 157.4c0 3.718-3.014 6.738-6.734 6.738-3.725 0-6.74-3.02-6.74-6.74s3.016-6.74 6.74-6.74c3.72 0 6.734 3.02 6.734 6.74z"/><path fill="#F5F5F5" d="M120.48 120.667c0 6.788-5.507 12.294-12.292 12.294-6.795 0-12.3-5.5-12.3-12.29 0-6.79 5.505-12.28 12.3-12.28 6.786 0 12.293 5.5 12.293 12.29z"/><path fill="#333" d="M116.837 120.375c0 4.716-3.818 8.53-8.53 8.53-4.72 0-8.546-3.814-8.546-8.53s3.83-8.534 8.55-8.534c4.72 0 8.53 3.82 8.53 8.54z"/><path fill="#F5F5F5" d="M156.925 120.667c0 6.788-5.506 12.294-12.293 12.294-6.793 0-12.3-5.5-12.3-12.29 0-6.79 5.507-12.28 12.3-12.28 6.787 0 12.293 5.5 12.293 12.29z"/><path fill="#333" d="M153.278 120.375c0 4.716-3.818 8.53-8.535 8.53-4.713 0-8.54-3.814-8.54-8.53s3.827-8.534 8.54-8.534c4.717 0 8.535 3.82 8.535 8.54zm-65.732-13.358s-3.508 67.398 8.215 90.842c0 0-25.19-.63-30.47-16.45-5.27-15.81-1.17-132.03 60.93-121.03h4.21c62.1-11 66.2 105.22 60.94 121.03-5.27 15.82-30.47 17.96-30.47 17.96 11.72-23.45 4-96.43 4-96.43l-25.2-32.41-24.6.96-27.55 35.52zm51.78 56.663c-.91 0-1.644-.733-1.644-1.642 0-1.638-4.32-4.014-11.094-4.014-6.78 0-11.104 2.376-11.104 4.014 0 .908-.736 1.642-1.64 1.642-.91 0-1.644-.733-1.644-1.642 0-4.16 6.184-7.295 14.387-7.295 8.195 0 14.377 3.136 14.377 7.295.002.908-.735 1.642-1.64 1.642zm-12.52-87.558S101.69 115.71 73.936 113.8l29.437-40.765 24.746-5.645-1.32 8.732zm-5.186-.59s26.626 42.814 54.38 40.9l-27.793-43.397-26.588-5.278v7.775zm12.246 30.308c-.076.09 1.83-1.175 4.705-2.325 1.4-.672 3.16-1.147 4.97-1.768.92-.286 1.92-.44 2.89-.664 1-.164 1.96-.51 3-.534 2.06-.05 4.05-.51 5.95-.17 1.88.28 3.65.21 5.06.74l4.69 1.54s-1.93-.26-4.82-.66c-1.41-.27-3.11.13-4.87.18-1.77-.01-3.59.8-5.4 1.16-.9.18-1.75.67-2.61.98-.83.37-1.69.65-2.46 1.07-1.53.87-2.99 1.55-4.11 2.38-2.35 1.48-3.52 2.67-3.63 2.71-1.29.92-3.08.62-4-.67-.93-1.29-.63-3.09.66-4.01zm-16.88 4.663c-.104-.038-1.26-1.223-3.595-2.715-1.11-.828-2.56-1.512-4.07-2.39-.77-.41-1.62-.69-2.45-1.063-.85-.312-1.69-.805-2.6-.98-1.79-.358-3.61-1.164-5.37-1.16-1.75-.046-3.45-.448-4.86-.178-2.87.394-4.79.65-4.79.65s1.86-.615 4.66-1.53c1.41-.55 3.18-.472 5.05-.75 1.89-.346 3.87.118 5.92.16 1.04.016 1.99.363 2.98.527.98.227 1.97.38 2.89.663 1.8.63 3.56 1.096 4.95 1.776 2.86 1.157 4.76 2.422 4.68 2.333 1.29.935 1.58 2.724.65 4.01-.93 1.288-2.72 1.577-4.01.647z"/><path fill="#DDB99B" d="M127.284 190.464l-2.244 6.88 4.668.267z"/><path fill="#39B54A" d="M66.5 194.38h-.063.064zm36.21 0h.063-.063zm13.096 2.82c-.137 0-.273-.017-.412-.042-1.188-.227-1.97-1.37-1.742-2.558l3.77-19.913c.224-1.19 1.394-1.966 2.556-1.742 1.186.226 1.97 1.363 1.742 2.554l-3.77 19.91c-.195 1.05-1.113 1.78-2.144 1.78zm22.954 0c-1.013 0-1.92-.707-2.138-1.74l-4.303-20.456c-.25-1.18.5-2.34 1.69-2.59 1.16-.272 2.33.505 2.59 1.692l4.3 20.454c.25 1.18-.51 2.343-1.69 2.59-.15.034-.31.05-.46.05z"/><path fill="#fdb" d="M112.48 171.392c-.034-.016.44.06.952.06.053-.19-.115-.32.035-.282.787-.333 1.736-.71 2.846-1.066 1.16-.54 2.61-1.546 4.13-2.385 1.546-.73 3.177-2.17 4.91-3.59 1.718-1.46 3.6-2.8 5.43-4.51 1.786-1.83 3.616-3.73 5.48-5.66 1.826-1.99 3.88-3.71 5.57-5.97 3.498-4.35 6.992-8.7 10.27-12.78 1.704-1.96 3.024-4.23 4.444-6.18 1.377-2 2.68-3.9 3.875-5.65l8.016-11.64.348-.52c3.158-4.59 9.44-5.75 14.023-2.59 4.59 3.16 5.74 9.43 2.58 14.01-.07.09-.15.23-.22.32l-8.88 11.9c-1.33 1.78-2.78 3.71-4.31 5.75-1.58 2.01-3.01 4.26-4.94 6.34-3.71 4.25-7.65 8.79-11.6 13.32-1.9 2.3-4.36 4.3-6.48 6.43-2.2 2.08-4.35 4.13-6.44 6.11-2.22 1.91-4.67 3.58-6.83 5.25-2.2 1.63-4.2 3.22-6.61 4.37-2.31 1.19-4.25 2.36-6.31 3.21-2.24.76-4.23 1.35-5.84 1.81-2.35.4-4.52.41-5.81.38l-1.12-.13c-4.54-.52-7.81-4.63-7.29-9.18.52-4.54 4.62-7.8 9.17-7.29l.17.03.39.05zm-9.06 11.508s5.214 5.173 4.972 11.388l3.705-8.25-8.678-3.138zm46.595-1.167s-2.635 8.245-4.066 14.465l-2.51-12.194 6.57-2.27z"/><path fill="#DDB99B" d="M121.194 164.812c-1.752 1.512-3.402 2.957-4.938 4.295-1.525 1.158-2.94 2.23-4.188 3.176-1.28 1.047-.094-.35-.932.247-1.227.75-.467-1.065-.36-.838.052.025.104-.384.122-.354 1.584-3.972-1.57.918-1.557.833.48-3.43-.96-.6-.96-.6l-.71 1.2c-.13.03-.7.09-.83.12 1.01 4.3 2.85 12.43 11.66 14.23.6-.34 2.52-.44 3.05-.83 1.56-1.08 3.31-2.31 5.22-3.65 1.75-1.4 3.64-2.9 5.64-4.5 1.98-1.61 5.6-1.6 7.57-3.45 1.02-.92 4.92-4.19 5.98-5.14-3.18-.95-11.46-2.27-17.94-7.53-1.3 1.21-5.56 1.72-6.8 2.81z"/><path fill="#fdb" d="M140.286 187.115c.123.028-1.674-.382-4.418-1.21-2.744-.798-6.533-2.113-11.033-3.853-4.447-1.868-9.63-4.073-14.924-7.114-2.7-1.406-5.35-3.162-8.07-4.91-2.71-1.735-5.29-3.876-7.94-5.842-2.46-2.287-5.09-4.37-7.35-6.838-2.2-2.525-4.61-4.792-6.39-7.533-1.88-2.647-3.81-5.13-5.11-7.87-1.36-2.68-2.92-5.095-3.69-7.645-.9-2.495-1.72-4.777-2.45-6.807-.44-2.102-.83-3.94-1.14-5.444-.59-3.03-.94-4.77-.94-4.77-1.06-5.46 2.49-10.74 7.94-11.81 5.45-1.07 10.74 2.48 11.81 7.93.02.07.03.13.04.2l.26 1.48s.21 1.23.58 3.38l.62 3.89c.47 1.44 1 3.07 1.57 4.85.41 1.84 1.57 3.58 2.44 5.55.81 2.01 2.23 3.88 3.52 5.9 1.18 2.09 3.05 3.88 4.64 5.9 1.65 1.97 3.74 3.7 5.59 5.62 2.14 1.66 4.12 3.5 6.35 5.02 2.22 1.54 4.37 3.11 6.65 4.39 4.4 2.77 8.87 4.86 12.69 6.64 3.87 1.66 7.14 2.94 9.44 3.69 2.27.79 3.41 1.09 3.53 1.12 4.42 1.14 7.08 5.66 5.94 10.09-1.15 4.43-5.66 7.08-10.1 5.94zM176.84 59.388l9.347 45.59c.64 3.106-1.363 6.143-4.475 6.777-2.922.604-5.79-1.16-6.645-3.96l-13.475-44.55c-1.258-4.166 1.096-8.556 5.256-9.815 4.16-1.253 8.555 1.094 9.813 5.262.07.226.14.465.18.696zm5.282 10.594l7.844 46.435c.527 3.122-1.574 6.086-4.7 6.614-3.126.53-6.09-1.58-6.618-4.69-.008-.07-.025-.15-.03-.21l-6.136-46.69c-.355-2.67 1.53-5.12 4.195-5.47 2.61-.35 5.004 1.45 5.445 4.02zM170.614 82.31s-5.4 27.81-2.678 35.86c2.715 8.056 6.92 9.294 12.473 7.793 5.55-1.487 11.65-12.595 3.93-29.885 0 0-5.12-16.307-13.73-13.77z"/><path fill="#fff" d="M161.52 60.967s3.276-4.327 5.1-1.72c1.827 2.597 2.524 7.473 2.524 7.473l-5.336 1.038-2.29-6.79zm10.397 9.775s2.166-2.854 3.37-1.136c1.198 1.72 1.67 4.953 1.67 4.953l-3.524.68-1.516-4.5z"/><path fill="#F4D1B0" d="M170.993 72.214s4.44 17.095 3.518 23.89c0 0-4.32.64-3.39-6.7.93-7.348-.12-17.19-.12-17.19z"/><path fill="#fdb" d="M85.927 62.99l-8.963 45.668c-.61 3.11-3.63 5.14-6.734 4.532-2.936-.576-4.902-3.313-4.615-6.227l4.76-46.294c.44-4.33 4.313-7.47 8.633-7.03 4.32.44 7.467 4.31 7.02 8.64-.017.23-.06.48-.1.71zm-10.014 9.226l-1.453 47.07c-.094 3.16-2.744 5.655-5.912 5.56-3.174-.104-5.66-2.75-5.56-5.915 0-.06.005-.14.013-.2l3.17-46.98c.19-2.68 2.51-4.71 5.2-4.53 2.62.17 4.63 2.41 4.55 5.01zm2.94 10.638s8.143 27.134 6.242 35.422c-1.898 8.276-5.963 9.927-11.635 8.988-5.682-.927-12.855-11.37-6.898-29.345 0 0 3.466-16.74 12.29-15.07z"/><path fill="#fff" d="M85.763 60.707s-3.688-3.974-5.238-1.196c-1.555 2.77-1.766 7.7-1.766 7.7l5.4.51 1.59-7zM76.4 71.472s-2.437-2.62-3.466-.79c-1.025 1.835-1.164 5.09-1.164 5.09l3.574.335 1.055-4.635z"/><path fill="#F4D1B0" d="M77.464 72.854s-2.71 17.45-1.11 24.116c0 0 4.366.21 2.714-7.006-1.655-7.21-1.604-17.11-1.604-17.11z"/><path fill="none" stroke="#333" stroke-width=".75" stroke-linecap="round" stroke-linejoin="round" stroke-miterlimit="10" d="M85.897 116.433"/><path fill="#39B54A" d="M145.185 202.38c.012 0 1.435.768 1.435.36v.003c0-.755-.436-1.536-.436-2.354 0-5.68-4.75-10.29-10.16-10.29-3.75 0-7.146 2.23-8.798 5.46-1.654-3.23-4.95-5.46-8.698-5.46-5.424 0-9.855 3.81-9.855 9.49 0 1.28.247 2.79.657 2.79h35.855z"/></svg>