<svg xmlns="http://www.w3.org/2000/svg" width="256" height="256" viewBox="0 0 256 256"><path fill="#fff" d="M128.195 208.077c-53.672 0-97.337-35.925-97.337-80.083 0-1.04.027-2.11.08-3.2-2.666-2.296-5.09-4.908-7.52-8.09-2.6-3.44-4.733-6.95-6.535-10.748-2.142-4.602-3.41-8.71-4.004-12.956-.39-3.003-.38-5.69.03-8.256.23-1.316.58-2.952 1.28-4.68.35-.955.88-1.97 1.27-2.663.36-.64.53-.89.77-1.22.07-.09.16-.21.37-.54l.08-.12.09-.12c2.52-3.33 5.63-5.21 7.79-6.2 2.33-1.06 4.84-1.76 7.68-2.13 1.46-.17 2.91-.26 4.37-.26 2.7 0 5.44.29 8.61.89 4.76 1 9.19 2.47 13.24 4.4 18.26-15.39 43.49-24.16 69.71-24.16 26.81 0 52.44 9.12 70.79 25.11 3.43-1.58 7.15-2.86 11.09-3.8 3.6-.8 6.66-1.17 9.71-1.17 1.09 0 2.19.05 3.27.15 2.92.29 5.46.92 7.8 1.92 2.2.95 5.36 2.75 7.95 5.98l.08.11.08.12c.21.31.31.44.38.53.27.35.44.59.83 1.25.54.89 1.02 1.82 1.34 2.6.77 1.78 1.16 3.46 1.39 4.57.5 2.62.59 5.32.29 8.28-.47 4.28-1.62 8.42-3.63 13.08-1.67 3.81-3.7 7.38-6.23 10.94-2.54 3.53-5.07 6.38-7.89 8.86.02.53.02 1.06.02 1.57 0 44.16-43.65 80.09-97.32 80.09zM211.97 87.2c2.248 3.12 4.232 6.36 5.94 9.698.23-.345.455-.692.67-1.04 1.292-2.093 2.253-4.2 2.703-5.933.237-.874.3-1.517.3-1.91-.308-.17-.81-.39-1.507-.55-1.308-.325-2.85-.486-4.545-.486-.81 0-1.67.03-2.54.11-.33.03-.67.06-1.01.11zm-177.62-.386c.012.387.09 1.016.344 1.853.51 1.746 1.532 3.832 2.89 5.913.375.57.776 1.136 1.198 1.698 1.882-3.59 4.086-7.064 6.595-10.397-.828-.1-1.66-.18-2.497-.23-.576-.03-1.175-.05-1.77-.05-1.984 0-3.78.21-5.19.6-.745.2-1.262.44-1.57.62z"/><path fill="#333" d="M128.195 51.918c27.95 0 53.025 10.02 70.128 25.89 3.98-2.1 8.25-3.633 12.692-4.7 2.794-.622 5.688-1.056 8.775-1.056.95 0 1.92.04 2.91.13 2.104.212 4.32.646 6.59 1.615 2.254.97 4.602 2.56 6.406 4.808.713 1.026.506.59 1.072 1.54.45.74.855 1.52 1.088 2.1.564 1.285.902 2.55 1.164 3.826.48 2.52.453 4.88.23 7.08-.484 4.41-1.758 8.27-3.322 11.9-1.582 3.62-3.53 6.99-5.81 10.21-2.31 3.21-4.913 6.26-8.35 9.09l-.28.23-.07.06c.06 1.12.096 2.25.096 3.38 0 42.02-41.78 76.08-93.32 76.08-51.544 0-93.337-34.06-93.337-76.08 0-1.67.074-3.33.205-4.98-3.444-2.71-6.102-5.64-8.464-8.73-2.375-3.15-4.404-6.46-6.102-10.04-1.67-3.59-3.043-7.41-3.656-11.79-.28-2.19-.377-4.55.02-7.08.23-1.27.53-2.57 1.064-3.85.21-.58.598-1.37 1.03-2.14.532-.95.343-.51 1.022-1.56 1.736-2.29 4.03-3.96 6.268-4.98 2.248-1.03 4.44-1.53 6.533-1.8 1.316-.16 2.598-.23 3.85-.23 2.74 0 5.34.33 7.867.82 5.13 1.07 10.047 2.78 14.583 5.26 17.076-15.33 41.72-24.96 69.118-24.96M39.81 103.48c3.043-7.286 7.406-14.072 12.852-20.177-3.126-.902-6.36-1.448-9.524-1.652-.68-.04-1.356-.06-2.026-.06-2.244 0-4.408.23-6.265.75-2.475.65-3.996 1.91-4.256 2.78-.32.82-.4 2.46.28 4.71.65 2.21 1.87 4.64 3.37 6.94 1.57 2.38 3.51 4.71 5.58 6.72m177.15.99c1.88-1.98 3.62-4.23 5.02-6.51 1.44-2.33 2.6-4.81 3.17-7.03.62-2.27.48-3.9.15-4.71-.28-.86-1.84-2.08-4.33-2.65-1.63-.4-3.49-.58-5.43-.58-.95 0-1.91.04-2.88.13-2.61.25-5.25.74-7.85 1.45 5.18 6.05 9.3 12.75 12.16 19.92M128.2 43.93c-26.23 0-51.532 8.51-70.32 23.497-3.68-1.55-7.61-2.77-11.74-3.64l-.067-.01-.067-.02c-3.43-.65-6.41-.96-9.37-.96-1.613 0-3.23.1-4.81.29l-.04.01-.04.01c-3.24.424-6.125 1.228-8.816 2.456-3.714 1.704-6.936 4.275-9.328 7.44l-.18.236-.16.25c-.09.14-.147.22-.187.28-.412.55-.67.95-1.087 1.69-.454.8-1.075 1.99-1.518 3.17-.83 2.05-1.227 3.93-1.48 5.34l-.014.08-.013.08c-.46 2.94-.48 6-.05 9.34l.01.04.01.05c.65 4.65 2.03 9.12 4.33 14.06l.02.03.016.02c1.92 4.05 4.19 7.79 6.94 11.43 2.17 2.85 4.34 5.27 6.66 7.43-.02.49-.02.98-.02 1.47 0 22.77 10.75 44.08 30.28 60 19.05 15.53 44.28 24.08 71.05 24.08 26.76 0 51.99-8.56 71.04-24.08 19.47-15.88 30.22-37.12 30.27-59.83 2.5-2.38 4.8-5.06 7.1-8.25l.01-.02.02-.02c2.68-3.79 4.85-7.59 6.61-11.64 2.18-5.07 3.43-9.58 3.94-14.22v-.07c.34-3.36.23-6.43-.33-9.38l-.01-.06-.01-.06c-.27-1.28-.72-3.22-1.63-5.33-.52-1.26-1.22-2.48-1.61-3.12-.45-.75-.71-1.14-1.12-1.65-.04-.05-.1-.13-.23-.32l-.16-.22-.17-.22c-3.11-3.88-6.88-6.03-9.49-7.15-2.74-1.17-5.66-1.9-8.95-2.23l-.04-.01h-.04c-1.2-.11-2.42-.16-3.64-.16-3.35 0-6.69.4-10.51 1.25l-.07.01-.07.02c-3.31.8-6.48 1.81-9.47 3.04-18.91-15.59-44.64-24.44-71.48-24.44zM27.088 82.88c-.342.516-.518.744-.648.927-.058.156-.216.458-.317.7-.34.837-.51 1.47-.67 2.39-.186 1.22-.186 2.68.04 4.43.407 2.915 1.313 5.783 2.91 9.226 1.39 2.928 3.08 5.715 5.16 8.468 2.28 2.99 4.435 5.21 6.97 7.18l3.696 2.88-.47 5.9c-.08 1-.17 2-.17 3.02 0 37.15 37.96 67.36 84.61 67.36s84.6-30.22 84.6-67.36c0-.44-.05-.88-.08-1.32l-.34-5.99 3.94-3.15c2.52-2.1 4.55-4.34 6.74-7.38 1.98-2.79 3.59-5.62 4.88-8.59 1.5-3.47 2.33-6.37 2.65-9.35.17-1.69.13-3.14-.13-4.5-.16-.77-.35-1.41-.58-1.93-.21-.51-.38-.8-.56-1.07-.08-.12-.24-.33-.57-.79-.74-.86-1.77-1.6-2.91-2.09-1.13-.48-2.41-.79-4-.95-2.59-.23-5.47-.01-8.92.76-3.59.86-7.18 2.22-10.52 3.98l-5.48 2.91-4.54-4.23c-16.17-15.03-39.56-23.64-64.18-23.64-24.05 0-47.1 8.31-63.22 22.78l-4.6 4.13-5.44-2.98c-3.67-2.01-7.79-3.51-12.25-4.44-3.3-.62-5.93-.81-8.88-.46-1.51.2-2.79.54-3.95 1.07-1.11.51-2.09 1.26-2.8 2.13z"/><path fill="#676767" d="M62.518 83.466S31.38 72.61 25.282 81.463c-6.09 8.854 7.295 30.086 17.736 37.275 0 0-6.103-22.85 19.5-35.272z"/><path fill="#B3B3B3" d="M60.493 86.535c-5.232-2.96-11.422-4.5-17.355-4.884-2.95-.17-5.88.02-8.29.69-2.476.65-3.997 1.91-4.257 2.78-.32.82-.4 2.46.28 4.71.65 2.21 1.87 4.64 3.37 6.94 3.01 4.56 7.35 8.95 11.41 11.2 4.47 2.49 6.07 8.11 3.59 12.57-2.48 4.47-8.1 6.07-12.56 3.59-.41-.22-.78-.47-1.14-.74l-.32-.24c-3.51-2.73-6.21-5.71-8.6-8.84-2.37-3.14-4.4-6.46-6.1-10.03-1.67-3.58-3.04-7.4-3.65-11.79-.28-2.19-.38-4.55.02-7.08.23-1.27.53-2.57 1.07-3.85.21-.58.6-1.38 1.03-2.14.53-.94.35-.51 1.02-1.56 1.74-2.3 4.03-3.96 6.27-4.98 2.25-1.02 4.44-1.52 6.54-1.8 4.19-.51 8.03-.11 11.72.59 7.28 1.52 14.13 4.3 20.06 8.77 1.62 1.24 1.95 3.56.71 5.19-1.13 1.5-3.18 1.89-4.77.98z"/><path fill="#676767" d="M193.332 85.466c-11.564-5.203 30.814-11.735 37.162-3.05 6.346 8.68-3.924 27.01-14.154 34.49 0 0 2.943-19.746-23.008-31.44z"/><path fill="#B3B3B3" d="M191.213 82.452c5.79-4.65 12.572-7.607 19.803-9.346 3.654-.812 7.48-1.305 11.686-.924 2.104.21 4.32.645 6.59 1.614 2.254.97 4.602 2.56 6.406 4.808.713 1.026.506.59 1.072 1.54.45.74.855 1.52 1.088 2.1.564 1.285.902 2.55 1.164 3.826.48 2.513.453 4.874.23 7.077-.484 4.404-1.758 8.265-3.322 11.896-1.582 3.62-3.53 6.992-5.81 10.208-2.31 3.21-4.913 6.27-8.35 9.09l-.28.23c-3.94 3.24-9.756 2.67-13-1.26-3.238-3.93-2.672-9.76 1.264-13 .36-.29.775-.57 1.148-.8 4-2.38 8.215-6.89 11.08-11.53 1.44-2.33 2.596-4.81 3.172-7.02.62-2.27.477-3.9.143-4.71-.283-.86-1.846-2.09-4.334-2.65-2.424-.6-5.367-.71-8.31-.46-5.92.57-12.064 2.27-17.208 5.39-1.744 1.06-4.016.5-5.078-1.24-.972-1.6-.58-3.65.846-4.8z"/><path fill="#fff" d="M221.516 127.994c0 42.023-41.78 76.083-93.32 76.083-51.544 0-93.337-34.06-93.337-76.083 0-42.017 41.79-76.076 93.33-76.076s93.32 34.06 93.32 76.076z"/><path fill="#B3B3B3" d="M203.644 125.84c0 34.278-33.87 62.073-75.645 62.073s-75.65-27.795-75.65-62.073c0-34.295 33.87-62.09 75.64-62.09s75.64 27.795 75.64 62.087z"/><path fill="#999898" d="M128 190.82c-43.314 0-78.552-29.153-78.552-64.98 0-35.842 35.238-64.995 78.55-64.995s78.554 29.153 78.554 64.994c0 35.82-35.24 64.98-78.553 64.98zm0-124.16c-40.112 0-72.737 26.546-72.737 59.18 0 32.622 32.625 59.167 72.736 59.167 40.1 0 72.73-26.545 72.73-59.168 0-32.64-32.63-59.18-72.73-59.18z"/><path fill="#333" d="M128.12 170.532c-3.218 0-7.5-2.6-7.5-5.815v-34.903c0-3.213 4.282-5.816 7.5-5.816s7.5 2.604 7.5 5.816v34.903c0 3.216-4.284 5.815-7.5 5.815z"/><path fill="#2974A7" d="M139.52 130.58c0 3.866-5.157 6.993-11.52 6.993-6.354 0-11.52-3.127-11.52-6.992 0-3.86 5.166-6.99 11.52-6.99 6.362 0 11.52 3.13 11.52 6.99z"/><path fill="#333" d="M151.268 171.38H104.73c-3.215 0-5.816-3.786-5.816-7s2.602-7 5.816-7h46.537c3.215 0 5.818 3.788 5.818 7s-2.603 7-5.817 7zm-40.72-41H64.01c-3.216 0-5.817-3.786-5.817-7s2.602-7 5.818-7h46.54c3.22 0 5.82 3.788 5.82 7s-2.6 7-5.82 7zm81.442 0h-46.54c-3.215 0-5.818-3.786-5.818-7s2.604-7 5.818-7h46.537c3.214 0 5.817 3.788 5.817 7s-2.603 7-5.818 7z"/><path fill="#666" d="M139.676 69.864c.488.758.8 1.34 1.152 1.986.348.632.66 1.268.963 1.907.62 1.276 1.12 2.594 1.54 3.947.82 2.694 1.09 5.744.25 8.59-.81 2.87-2.6 5.24-4.52 7.244-1.96 2.004-4.15 3.644-6.33 5.354l-3.01-6.407c2.33-.41 4.49-1.27 6.34-2.488 1.86-1.206 3.33-2.87 3.98-4.8.67-1.92.44-4.113-.52-6.052-.46-.972-1.12-1.868-1.86-2.687-.37-.4-.79-.78-1.21-1.128-.42-.322-.92-.688-1.31-.82l4.57-4.646zm3.584 37.51c.35-.832.648-1.412.99-2.064.324-.645.674-1.258 1.035-1.87.703-1.226 1.51-2.39 2.39-3.496 1.767-2.204 4.126-4.144 6.96-5.056 2.826-.94 5.8-.813 8.537-.35 2.76.493 5.36 1.37 7.998 2.207l-3.59 6.094c-1.648-1.69-3.584-2.99-5.63-3.82-2.046-.85-4.25-1.13-6.214-.58-1.973.53-3.646 1.96-4.703 3.85-.545.93-.916 1.98-1.172 3.05-.11.53-.19 1.09-.24 1.64-.03.52-.06 1.15.06 1.54l-6.41-1.16zm29.07-21.2c-.893.093-1.545.103-2.29.12-.722.02-1.427.004-2.136-.012-1.406-.037-2.818-.193-4.215-.444-2.78-.494-5.62-1.647-7.77-3.704-2.17-2.027-3.48-4.702-4.38-7.327-.89-2.66-1.36-5.357-1.88-8.08l7.07.25c-.69 2.253-.92 4.573-.67 6.772.22 2.19 1.03 4.26 2.45 5.72 1.41 1.48 3.46 2.27 5.63 2.29 1.08.03 2.17-.14 3.24-.43.52-.15 1.05-.35 1.55-.57.48-.23 1.04-.5 1.33-.79l2.04 6.19z"/></svg>