<?xml version="1.0" encoding="utf-8"?>
<!-- Generator: Adobe Illustrator 16.0.0, SVG Export Plug-In . SVG Version: 6.00 Build 0)  -->
<!DOCTYPE svg PUBLIC "-//W3C//DTD SVG 1.1//EN" "http://www.w3.org/Graphics/SVG/1.1/DTD/svg11.dtd">
<svg version="1.1" id="Layer_1" xmlns="http://www.w3.org/2000/svg" xmlns:xlink="http://www.w3.org/1999/xlink" x="0px" y="0px"
	 width="256px" height="256px" viewBox="0 0 256 256" enable-background="new 0 0 256 256" xml:space="preserve">
<path fill="#333333" d="M146.048,207.466c-0.358,0-0.748-0.028-1.163-0.085H109.33c-2.126,0-4.658-1.25-4.658-7.22
	c0-0.761,0.063-1.81,0.2-2.729c-0.044-0.311-0.088-0.641-0.13-0.99c-0.246-0.551-0.372-1.15-0.347-1.791
	c0.03-0.799-0.082-1.6-0.236-2.25H97.5c0.532,1.42,1.134,2.801,1.833,4.19c0.633,1.271,0.55,2.78-0.224,3.97
	c-0.74,1.141-2.01,1.82-3.36,1.82h-0.18c-1.14-0.05-28.02-1.449-34.09-19.67c-2.32-6.95-3.06-30.46,1.36-55.82
	c-2.44-1.86-3.95-4.82-3.86-8.01c0-0.14,0.01-0.3,0.02-0.45l3.16-46.92c0.18-2.7,1.6-5.12,3.75-6.63l0.47-4.55
	c0.61-6.06,5.69-10.63,11.8-10.63c0.4,0,0.81,0.02,1.21,0.06c6.5,0.67,11.24,6.51,10.6,13.04c-0.03,0.35-0.09,0.86-0.15,1.18
	l-0.78,4c8.11-7.62,17.62-11.46,28.41-11.46c2.94,0,6,0.3,9.11,0.88h3.399c3.24-0.68,6.44-1.03,9.521-1.03
	c6.28,0,12.21,1.42,17.72,4.24c0.16-4.92,3.43-9.47,8.44-10.98c1.12-0.33,2.271-0.51,3.43-0.51c5.271,0,9.841,3.4,11.36,8.45
	c0.1,0.33,0.189,0.68,0.26,1.02l0.93,4.54c2.271,1.3,3.92,3.56,4.381,6.22l7.84,46.45c0.359,2.17-0.01,4.36-1.03,6.25
	c5.25,26.301,4.899,53.051,2.271,60.94c-6.041,18.09-32.761,20.819-33.891,20.93c-0.13,0.011-0.26,0.021-0.38,0.021
	c-1.31,0-2.55-0.65-3.3-1.74c-0.83-1.2-0.93-2.75-0.28-4.051c0.729-1.459,1.44-3.369,2.149-5.709h-8.27
	c-0.42,1.439-0.88,3.22-1.33,5.17c0.2,0.979,0.311,2,0.32,3c0.02,0.17,0.07,0.34,0.109,0.51c0.141,0.6,0.32,1.34,0.32,2.18
	c-0.01,2.061-1.619,4.23-4.57,4.23L146.048,207.466z"/>
<path fill="#333333" d="M169.126,53.093c3.38,0,6.507,2.19,7.535,5.6c0.069,0.226,0.14,0.465,0.18,0.695l1.36,6.63
	c1.97,0.367,3.57,1.906,3.93,3.965l7.85,46.435c0.301,1.766-0.239,3.48-1.34,4.733c5.561,26.61,5.07,53.52,2.73,60.52
	c-5.27,15.82-30.471,18.21-30.471,18.21c1.601-3.18,2.83-7.49,3.771-11.49H148.3c-0.79,2-1.696,5.51-2.352,8.351l-0.026-0.601
	c-0.074,0.521-0.146,1.021-0.205,1.351c0.303,0.96,0.467,2.1,0.467,3.159c0,0.82,0.436,1.851,0.437,2.61
	c0,0.181-0.271,0.23-0.57,0.23c-0.397,0-0.856-0.08-0.864-0.08H109.33c-0.41,0-0.656-1.95-0.656-3.229
	c0-0.781,0.092-1.971,0.252-2.671c-0.148-0.979-0.29-2.01-0.384-3.27l-0.15,0.58c0.102-2.58-0.744-5.4-1.763-6.4H92.08
	c1.018,4,2.23,7.09,3.678,9.979c0,0-25.198-1.119-30.476-16.939c-2.23-6.689-2.78-31.35,2.027-56.75c-2.56-0.65-4.41-2.99-4.32-5.73
	c0-0.06,0-0.14,0.01-0.2l3.16-46.98c0.14-2.1,1.6-3.78,3.51-4.33l0.69-6.72c0.41-4.05,3.83-7.04,7.82-7.04
	c0.27,0,0.54,0.01,0.81,0.04c4.32,0.45,7.47,4.38,7.02,8.7c-0.02,0.23-0.06,0.61-0.11,0.84L82.06,83.2
	c8.17-13.423,19.62-22.67,35.42-22.667c2.77,0,5.68,0.285,8.73,0.88h4.21c3.18-0.7,6.21-1.033,9.09-1.032
	c9.42,0,17.28,3.54,23.82,9.18l-1.75-6.28c-1.26-4.16,1.09-8.55,5.25-9.81c0.75-0.23,1.52-0.34,2.27-0.34"/>
<path fill="#333333" d="M169.1,45.131c-1.55,0-3.1,0.23-4.59,0.68c-4.77,1.44-8.359,4.93-10.109,9.21
	c-4.721-1.75-9.711-2.63-14.91-2.63c-3.221,0-6.561,0.34-9.93,1.03h-2.621c-3.22-0.59-6.4-1-9.47-1c-8.542,0-16.47,2.35-23.58,6.81
	c-1.04-7.03-6.71-12.72-14.07-13.48c-0.55-0.06-1.1-0.07-1.635-0.07c-8.17,0-14.96,6.12-15.78,14.23l-0.305,2.93
	c-2.26,2.17-3.71,5.14-3.93,8.38l-3.16,46.88c-0.02,0.24-0.03,0.48-0.04,0.71c-0.09,3.59,1.26,6.98,3.56,9.53
	c-3.85,23.58-3.653,47.25-0.854,55.64c6.94,20.801,36.46,22.351,37.71,22.41c0.12,0.01,0.24,0.01,0.36,0.01
	c1.998,0,3.9-0.739,5.35-2.049c1.59,6.68,6.99,7.069,8.22,7.069h35.31c0.49,0.06,0.96,0.09,1.41,0.09c4.72,0,7.78-3.25,8.435-6.79
	c1.521,2.021,3.891,3.2,6.4,3.2c0.25,0,0.51-0.01,0.76-0.04c0.301-0.029,7.43-0.73,15.28-3.63c11.46-4.24,19.08-11.16,22.03-20.01
	c3.08-9.25,2.979-36.38-1.891-61.7c0.94-2.32,1.23-4.88,0.801-7.42l-7.841-46.44c-0.55-3.21-2.29-6.01-4.739-7.95l-0.601-2.93
	l-0.01-0.05c-0.091-0.44-0.21-0.89-0.341-1.35c-2.039-6.75-8.139-11.29-15.199-11.29L169.1,45.131z"/>
<circle fill="#333333" cx="146.6" cy="202.771" r="4"/>
<path fill="#333333" d="M146.6,194.771c-4.42,0-8,3.58-8,8v0.01c0,4.42,3.58,8,8,8s8-3.58,8-8s-3.586-8-8-8V194.771z"/>
<path fill="#1A1A1A" d="M79.204,101.672l3.584,85.71h90.428l2.509-58.444l-12.92-48.444L79.204,101.672z"/>
<path fill="#FFDDBB" d="M109.52,200.516c0,0-6.94-28.135,14.177-22.135h9.854c17.471-6,12.04,19.68,12.04,19.68"/>
<path fill="#FFDDBB" d="M128.62,178.146c0,4.754-0.948,6.694-5,6.694c-4.052,0-5-1.94-5-6.69v-17.219c0-4.75,0.948-8.611,5-8.611
	c4.052,0,5,3.861,5,8.621v17.229V178.146z"/>
<path fill="#D3BD8D" d="M162.775,120.712c0,8.354,1.207,15.127,7.068,15.127s14.146-1.569,14.146-15.13
	c0-8.37-4.744-15.13-10.604-15.13c-5.864,0-10.61,6.76-10.61,15.12V120.712z"/>
<path fill="#C69C6D" d="M164.527,120.657c0.031-2.345,0.507-5.012,1.662-7.277c0.57-1.15,1.313-2.28,2.355-3.248
	c1.03-0.947,2.514-1.76,4.215-1.785c0.654,0.068,0.523,0.007,1.135,0.135c0.492,0.103,0.91,0.25,1.234,0.413
	c0.721,0.315,1.311,0.77,1.85,1.237c1.041,0.968,1.601,2.097,2.16,3.248c1.16,2.32,1.471,4.824,1.471,7.332v0.283
	c0,1.643-1.101,2.992-2.74,3.012c-1.65,0.018-2.891-1.295-2.91-2.933c0-0.12,0.05-0.252,0.061-0.362
	c0.18-1.653,0.06-3.457-0.48-4.966c-0.5-1.585-1.51-2.574-1.79-2.673c-0.181-0.094-0.66-0.08-1.25,0.315
	c-0.56,0.4,0.64,1.054,0.149,1.824c-1,1.602-0.049,3.392-0.049,5.556v0.09c0,0.96-2.761,1.658-3.721,1.553
	c-0.91-0.09-3.38-0.86-3.38-1.75L164.527,120.657z"/>
<path fill="#D3BD8D" d="M92.6,120.712c0,8.354-1.216,15.127-7.075,15.127s-14.145-1.569-14.145-15.13
	c0-8.37,4.742-15.13,10.605-15.13c5.86,0,10.614,6.76,10.614,15.12L92.6,120.712z"/>
<path fill="#C69C6D" d="M90.84,120.657c-0.03-2.345-0.507-5.012-1.653-7.277c-0.58-1.15-1.32-2.28-2.36-3.248
	c-1.032-0.947-2.505-1.76-4.22-1.785c-0.646,0.068-0.518,0.007-1.123,0.135c-0.494,0.103-0.922,0.25-1.238,0.413
	c-0.73,0.315-1.316,0.77-1.857,1.237c-1.05,0.968-1.16,2.097-1.74,3.248c-1.15,2.32-1.03,4.824-1.03,7.332v0.283
	c0,1.643,0.66,2.992,2.3,3.012c1.65,0.018,2.68-1.295,2.7-2.933c0-0.12-0.18-0.252-0.19-0.362c-0.18-1.653-0.12-3.457,0.42-4.966
	c0.5-1.585,1.49-2.574,1.77-2.673c0.17-0.094,0.63-0.08,1.22,0.315c0.58,0.4,2.29,1.054,2.78,1.824c1,1.602,2.97,3.392,2.97,5.556
	v0.09c0,0.96-0.18,1.658,0.78,1.553c0.9-0.09,0.44-0.86,0.43-1.75L90.84,120.657z"/>
<path fill="#FFDDBB" d="M169.43,135.646c0,29.732-28.563,32.299-41.308,32.299c-14.5,0-41.305-2.565-41.305-32.299
	c0-29.726-3.074-67.891,41.305-67.891C172.945,67.756,169.43,105.921,169.43,135.646L169.43,135.646z"/>
<path fill="#333333" d="M123.575,147.877c-0.928,0-1.793-0.592-2.086-1.525c-0.37-1.149,0.27-2.379,1.42-2.748
	c4.4-1.401,4.35-3.455,4.35-3.547l-1.69-21.538c-0.1-1.21,0.8-2.26,2-2.36c1.18-0.18,2.26,0.8,2.35,2.01l1.681,21.479
	c0.01,0.07,0.75,5.531-7.391,8.121c-0.22,0.069-0.45,0.1-0.66,0.1L123.575,147.877z"/>
<path fill="#DDB99B" d="M85.897,116.433c0,0,14.59,34.44,39.473,40.424c0,0,27.03-22.959,40.664-39.706l4.31,5.5l-40.188,53.583
	l-38.275-30.859l-6.45-27.987"/>
<path fill="#D4145A" d="M132.96,157.4c0,3.718-3.015,6.738-6.734,6.738c-3.725,0-6.74-3.021-6.74-6.74c0-3.721,3.016-6.74,6.74-6.74
	c3.719,0,6.734,3.02,6.734,6.74V157.4z"/>
<path fill="#F5F5F5" d="M120.48,120.667c0,6.788-5.507,12.294-12.292,12.294c-6.795,0-12.3-5.5-12.3-12.29s5.505-12.28,12.3-12.28
	c6.786,0,12.293,5.5,12.293,12.29L120.48,120.667z"/>
<path fill="#333333" d="M116.837,120.375c0,4.716-3.818,8.53-8.53,8.53c-4.72,0-8.546-3.814-8.546-8.53s3.83-8.534,8.55-8.534
	s8.53,3.82,8.53,8.54L116.837,120.375z"/>
<path fill="#F5F5F5" d="M156.925,120.667c0,6.788-5.506,12.294-12.293,12.294c-6.793,0-12.3-5.5-12.3-12.29s5.507-12.28,12.3-12.28
	c6.787,0,12.293,5.5,12.293,12.29V120.667z"/>
<path fill="#333333" d="M153.277,120.375c0,4.716-3.817,8.53-8.534,8.53c-4.714,0-8.54-3.814-8.54-8.53s3.826-8.534,8.54-8.534
	c4.717,0,8.534,3.82,8.534,8.54V120.375z"/>
<path fill="#333333" d="M87.546,107.017c0,0-3.508,67.398,8.215,90.842c0,0-25.19-0.631-30.47-16.45
	c-5.27-15.81-1.17-132.03,60.93-121.03h4.21c62.1-11,66.199,105.221,60.939,121.03c-5.27,15.819-30.471,17.96-30.471,17.96
	c11.721-23.45,4-96.43,4-96.43l-25.4-30.272l-24.399-1.178l-27.55,35.52L87.546,107.017z"/>
<path fill="#333333" d="M139.326,163.68c-0.91,0-1.645-0.732-1.645-1.642c0-1.638-4.32-4.015-11.094-4.015
	c-6.78,0-11.104,2.377-11.104,4.015c0,0.907-0.736,1.642-1.64,1.642c-0.91,0-1.644-0.732-1.644-1.642
	c0-4.16,6.184-7.295,14.387-7.295c8.195,0,14.377,3.136,14.377,7.295c0.002,0.907-0.735,1.642-1.64,1.642H139.326z"/>
<path fill="#333333" d="M126.806,76.122c0,0-25.116,39.588-52.87,37.678l29.437-40.765l24.746-5.645l-1.32,8.732H126.806z"/>
<path fill="#333333" d="M121.62,75.532c0,0,26.626,42.814,54.38,40.9l-27.793-43.397l-26.588-5.278L121.62,75.532L121.62,75.532z"/>
<path fill="#333333" d="M133.866,105.84c-0.076,0.09,1.829-1.175,4.704-2.325c1.4-0.672,3.16-1.147,4.971-1.768
	c0.92-0.286,1.92-0.44,2.891-0.664c1-0.164,1.959-0.51,3-0.534c2.06-0.05,4.049-0.51,5.949-0.17c1.88,0.28,3.65,0.21,5.061,0.74
	l4.689,1.54c0,0-1.93-0.26-4.82-0.66c-1.41-0.27-3.109,0.13-4.869,0.18c-1.771-0.01-3.59,0.8-5.4,1.16
	c-0.9,0.18-1.75,0.67-2.609,0.98c-0.83,0.37-1.69,0.65-2.461,1.07c-1.529,0.87-2.99,1.55-4.109,2.38
	c-2.351,1.48-3.521,2.67-3.631,2.71c-1.289,0.92-3.08,0.62-4-0.67c-0.93-1.29-0.629-3.09,0.66-4.01L133.866,105.84z"/>
<path fill="#333333" d="M116.986,110.503c-0.104-0.038-1.26-1.223-3.595-2.715c-1.11-0.828-2.56-1.512-4.07-2.39
	c-0.77-0.41-1.62-0.69-2.45-1.063c-0.85-0.312-1.69-0.805-2.6-0.98c-1.79-0.358-3.61-1.164-5.37-1.16
	c-1.75-0.046-3.45-0.448-4.86-0.178c-2.87,0.394-4.79,0.65-4.79,0.65s1.86-0.615,4.66-1.53c1.41-0.55,3.18-0.472,5.05-0.75
	c1.89-0.346,3.87,0.118,5.92,0.16c1.04,0.016,1.99,0.363,2.98,0.527c0.98,0.227,1.97,0.38,2.89,0.663
	c1.8,0.63,3.56,1.096,4.95,1.776c2.86,1.157,4.76,2.422,4.68,2.333c1.29,0.935,1.58,2.724,0.65,4.01
	c-0.93,1.288-2.72,1.577-4.01,0.647H116.986z"/>
<path fill="#DDB99B" d="M127.284,190.464l-2.244,6.88l4.668,0.268L127.284,190.464z"/>
<path fill="#39B54A" d="M66.5,194.38h-0.063H66.5L66.5,194.38z M102.71,194.38h0.063H102.71z M115.806,197.2
	c-0.137,0-0.273-0.017-0.412-0.042c-1.188-0.227-1.97-1.37-1.742-2.559l3.77-19.912c0.224-1.19,1.394-1.967,2.556-1.742
	c1.186,0.226,1.97,1.363,1.742,2.554l-3.77,19.91c-0.195,1.05-1.113,1.78-2.144,1.78V197.2z M138.76,197.2
	c-1.013,0-1.92-0.707-2.138-1.74l-4.304-20.456c-0.25-1.18,0.5-2.34,1.69-2.59c1.16-0.271,2.33,0.505,2.591,1.691l4.299,20.455
	c0.25,1.18-0.51,2.342-1.689,2.59c-0.15,0.033-0.311,0.05-0.46,0.05H138.76z"/>
<path fill="#FFDDBB" d="M112.48,171.393c-0.034-0.017,0.44,0.06,0.952,0.06c0.053-0.19-0.115-0.32,0.035-0.282
	c0.787-0.333,1.736-0.71,2.846-1.066c1.16-0.539,2.61-1.545,4.13-2.385c1.546-0.729,3.177-2.17,4.91-3.59
	c1.718-1.46,3.6-2.8,5.43-4.51c1.785-1.83,3.615-3.73,5.48-5.66c1.825-1.99,3.879-3.71,5.569-5.97
	c3.498-4.351,6.992-8.7,10.271-12.78c1.703-1.96,3.023-4.23,4.443-6.18c1.377-2,2.68-3.9,3.875-5.65l8.016-11.64l0.349-0.521
	c3.157-4.59,9.44-5.75,14.022-2.59c4.59,3.16,5.74,9.43,2.58,14.01c-0.07,0.09-0.149,0.23-0.22,0.32l-8.88,11.9
	c-1.33,1.779-2.78,3.709-4.311,5.75c-1.58,2.01-3.01,4.26-4.939,6.34c-3.71,4.25-7.65,8.79-11.6,13.32
	c-1.9,2.299-4.36,4.299-6.48,6.43c-2.2,2.08-4.35,4.13-6.439,6.109c-2.221,1.91-4.67,3.58-6.83,5.25
	c-2.2,1.631-4.2,3.221-6.61,4.371c-2.31,1.189-4.25,2.359-6.31,3.209c-2.24,0.76-4.23,1.351-5.84,1.811
	c-2.35,0.4-4.52,0.41-5.81,0.38l-1.12-0.13c-4.54-0.52-7.81-4.631-7.29-9.18c0.52-4.541,4.62-7.801,9.17-7.291l0.17,0.03l0.39,0.05
	L112.48,171.393z"/>
<path fill="#FFDDBB" d="M103.42,182.9c0,0,5.214,5.173,4.972,11.388l3.705-8.25L103.42,182.9L103.42,182.9z"/>
<path fill="#FFDDBB" d="M150.016,181.732c0,0-2.636,8.246-4.066,14.466l-2.51-12.194l6.569-2.27L150.016,181.732z"/>
<path fill="#DDB99B" d="M121.194,164.813c-1.752,1.512-3.402,2.957-4.938,4.295c-1.525,1.158-2.94,2.229-4.188,3.176
	c-1.28,1.047-0.094-0.35-0.932,0.246c-1.227,0.75-0.467-1.064-0.36-0.838c0.052,0.025,0.104-0.383,0.122-0.354
	c1.584-3.972-1.57,0.918-1.557,0.833c0.48-3.43-0.96-0.601-0.96-0.601l-0.71,1.201c-0.13,0.029-0.7,0.09-0.83,0.119
	c1.01,4.301,2.85,12.43,11.66,14.23c0.6-0.34,2.52-0.439,3.05-0.83c1.56-1.08,3.31-2.311,5.22-3.65c1.75-1.399,3.64-2.899,5.64-4.5
	c1.979-1.609,5.601-1.6,7.569-3.449c1.021-0.92,4.92-4.19,5.98-5.141c-3.18-0.949-11.46-2.27-17.94-7.529
	c-1.3,1.209-5.56,1.72-6.8,2.81L121.194,164.813z"/>
<path fill="#FFDDBB" d="M140.286,187.115c0.123,0.027-1.675-0.383-4.418-1.21c-2.744-0.798-6.533-2.113-11.033-3.854
	c-4.447-1.868-9.63-4.073-14.924-7.114c-2.7-1.405-5.35-3.162-8.07-4.91c-2.71-1.734-5.29-3.875-7.94-5.842
	c-2.46-2.287-5.09-4.369-7.35-6.838c-2.2-2.524-4.61-4.791-6.39-7.533c-1.88-2.646-3.81-5.129-5.11-7.869
	c-1.36-2.68-2.92-5.096-3.69-7.646c-0.9-2.495-1.72-4.776-2.45-6.807c-0.44-2.102-0.83-3.94-1.14-5.444
	c-0.59-3.03-0.94-4.77-0.94-4.77c-1.06-5.46,2.49-10.74,7.94-11.81c5.45-1.07,10.74,2.48,11.81,7.93c0.02,0.07,0.03,0.13,0.04,0.2
	l0.26,1.48c0,0,0.21,1.23,0.58,3.38l0.62,3.89c0.47,1.44,1,3.07,1.57,4.85c0.41,1.84,1.57,3.58,2.44,5.55
	c0.81,2.01,2.23,3.88,3.52,5.899c1.18,2.091,3.05,3.881,4.64,5.9c1.65,1.971,3.74,3.7,5.59,5.62c2.14,1.66,4.12,3.5,6.35,5.021
	c2.22,1.539,4.37,3.109,6.65,4.39c4.4,2.771,8.87,4.86,12.69,6.64c3.869,1.66,7.14,2.94,9.439,3.69c2.271,0.79,3.41,1.09,3.53,1.12
	c4.42,1.14,7.08,5.66,5.94,10.09c-1.15,4.43-5.66,7.08-10.101,5.939L140.286,187.115z"/>
<path fill="#FFDDBB" d="M176.84,59.388l9.348,45.59c0.64,3.106-1.363,6.143-4.476,6.777c-2.922,0.604-5.79-1.16-6.646-3.96
	l-13.475-44.55c-1.258-4.166,1.096-8.556,5.256-9.815c4.16-1.253,8.555,1.094,9.813,5.262
	C176.73,58.918,176.801,59.157,176.84,59.388L176.84,59.388z"/>
<path fill="#FFDDBB" d="M182.122,69.982l7.844,46.435c0.527,3.122-1.573,6.086-4.7,6.614c-3.125,0.53-6.09-1.58-6.617-4.69
	c-0.008-0.07-0.025-0.15-0.03-0.21l-6.136-46.69c-0.355-2.67,1.529-5.12,4.194-5.47c2.61-0.35,5.005,1.45,5.445,4.02V69.982z"/>
<path fill="#FFDDBB" d="M170.613,82.31c0,0-5.399,27.81-2.678,35.86c2.715,8.056,6.92,9.294,12.474,7.793
	c5.55-1.487,11.649-12.595,3.93-29.885c0,0-5.12-16.307-13.729-13.77L170.613,82.31z"/>
<path fill="#FFFFFF" d="M161.52,60.967c0,0,3.276-4.327,5.101-1.72c1.827,2.597,2.524,7.473,2.524,7.473l-5.336,1.038l-2.291-6.79
	L161.52,60.967z M171.917,70.742c0,0,2.166-2.854,3.37-1.136c1.197,1.72,1.67,4.953,1.67,4.953l-3.523,0.68l-1.517-4.5V70.742z"/>
<path fill="#F4D1B0" d="M170.993,72.214c0,0,4.44,17.095,3.519,23.89c0,0-4.32,0.64-3.391-6.7c0.93-7.348-0.12-17.19-0.12-17.19
	H170.993z"/>
<path fill="#FFDDBB" d="M85.927,62.99l-8.963,45.668c-0.61,3.11-3.63,5.14-6.734,4.532c-2.936-0.576-4.902-3.313-4.615-6.227
	l4.76-46.294c0.44-4.33,4.313-7.47,8.633-7.03c4.32,0.44,7.467,4.31,7.02,8.64c-0.017,0.23-0.06,0.48-0.1,0.71L85.927,62.99z
	 M75.913,72.216l-1.453,47.07c-0.094,3.16-2.744,5.655-5.912,5.56c-3.174-0.104-5.66-2.75-5.56-5.915c0-0.06,0.005-0.14,0.013-0.2
	l3.17-46.98c0.19-2.68,2.51-4.71,5.2-4.53c2.62,0.17,4.63,2.41,4.55,5.01L75.913,72.216z M78.853,82.854
	c0,0,8.143,27.134,6.242,35.422c-1.898,8.276-5.963,9.927-11.635,8.988c-5.682-0.927-12.855-11.37-6.898-29.345
	c0,0,3.466-16.74,12.29-15.07L78.853,82.854z"/>
<path fill="#FFFFFF" d="M85.763,60.707c0,0-3.688-3.974-5.238-1.196c-1.555,2.771-1.766,7.7-1.766,7.7l5.4,0.51l1.59-7
	L85.763,60.707z M76.4,71.472c0,0-2.437-2.62-3.466-0.79c-1.025,1.835-1.164,5.09-1.164,5.09l3.574,0.335L76.4,71.472L76.4,71.472z"
	/>
<path fill="#F4D1B0" d="M77.464,72.854c0,0-2.71,17.45-1.11,24.116c0,0,4.366,0.21,2.714-7.006
	C77.413,82.754,77.464,72.854,77.464,72.854z"/>
<path fill="none" stroke="#333333" stroke-width="0.75" stroke-linecap="round" stroke-linejoin="round" stroke-miterlimit="10" d="
	M85.897,116.433"/>
<path fill="#39B54A" d="M145.186,202.38c0.012,0,1.435,0.769,1.435,0.36v0.003c0-0.755-0.437-1.536-0.437-2.354
	c0-5.68-4.75-10.289-10.16-10.289c-3.75,0-7.146,2.229-8.797,5.459c-1.654-3.229-4.95-5.459-8.698-5.459
	c-5.424,0-9.855,3.81-9.855,9.489c0,1.28,0.247,2.79,0.657,2.79L145.186,202.38L145.186,202.38z"/>
</svg>
