<svg xmlns="http://www.w3.org/2000/svg" width="256" height="256" viewBox="0 0 256 256"><path fill="#A67C52" d="M128.45 212.48c-25.415 0-49.518-10.267-65.438-27.67-1.672 1.64-3.73 3.33-5.986 4.468-2.63 1.328-7.686 2.747-13.98 2.747-6.496 0-16.307-1.548-26.164-8.925-.478-.357-.87-.816-1.146-1.345-1.36-2.576-3.538-5.322-4.61-5.84-.105.01-.212.014-.317.014-1.44 0-2.78-.77-3.5-2.05-.83-1.48-.64-3.31.47-4.58l.56-.65c-1.14-.51-2-1.53-2.29-2.78-.36-1.57.26-3.2 1.57-4.13.23-.17 1.52-1.06 3.39-1.82-1.47-1.74-3.55-4.3-1.04-6.9.88-.94 2.35-2.03 4.6-2.53.1-.4.19-.82.29-1.26l-1.18-2.07c-.8-1.39-.68-3.12.28-4.39.57-.76 1.38-1.28 2.27-1.49.21-1.77.32-3.43.35-4.97.07-2.18-.03-4.16-.3-5.76-.02-.12-.03-.23-.04-.34-.03-.32-.12-.66-.23-1.09-.09-.34-.18-.68-.26-1.02-.01-.04-.02-.09-.02-.13-.04-.11-.09-.21-.14-.3-.12-.25-.26-.57-.4-.96-.14-.2-.3-.42-.45-.7l-.02-.01c-.6-.6-.95-1.09-1.07-1.27l-1.49-2.26c-3.49-5.27-2.03-12.4 3.24-15.89l.06-.04c-2-7.05 1.98-14.49 9.01-16.71 1.33-.42 2.71-.63 4.1-.63 2.31 0 4.55.58 6.53 1.67.88-.52 1.82-.95 2.79-1.26 1.36-.44 2.76-.66 4.17-.66 4.92 0 9.35 2.61 11.76 6.73 1.47.21 2.91.65 4.24 1.32 9.58-12.91 23.23-22.72 39.27-28.33-.29-.93-.41-2.09-.15-3.49.44-2.42 1.57-4.35 3.24-5.66-.58-1.87-.5-3.78-.07-5.21.18-.59.49-1.13.91-1.58 3.14-3.37 7.48-5.07 12.91-5.07 3.27 0 6.59.64 9.54 1.49.06-.43.17-.85.32-1.28 1.07-2.94 4.02-4.2 6.22-4.39.11-.01.22-.01.33-.01.26 0 .52.03.78.08 12.65 2.53 18.23 14.37 19.93 22.68 19.18 4.81 36.11 15.74 47.2 30.45 1.13-.5 2.33-.84 3.56-1.01 2.4-4.12 6.83-6.73 11.75-6.73.87 0 1.75.08 2.62.25 1.55.3 3.02.87 4.35 1.66 1.98-1.09 4.22-1.67 6.52-1.67.86 0 1.72.08 2.57.24 7.39 1.43 12.24 8.59 10.81 15.97-.08.41-.17.78-.27 1.14.46.3.91.64 1.33 1.01 4.25 3.77 5.1 10.18 1.96 14.91l-1.49 2.26c-.12.17-.47.67-1.07 1.26-.17.3-.33.54-.46.71-.14.39-.28.71-.4.96-.05.1-.1.2-.14.32-.09.45-.18.79-.28 1.14-.12.43-.21.76-.23 1.07-.01.11-.02.22-.04.34-.27 1.62-.38 3.6-.31 5.71.03 1.57.15 3.25.36 5.02.89.21 1.7.72 2.27 1.48.96 1.27 1.07 3 .28 4.39l-1.18 2.06c.1.44.19.86.29 1.25 2.25.51 3.73 1.61 4.63 2.57 2.5 2.53.33 5.21-1.07 6.86 1.87.76 3.16 1.65 3.4 1.82 1.31.93 1.93 2.56 1.57 4.13-.28 1.25-1.15 2.27-2.29 2.78l.56.65c1.11 1.27 1.3 3.1.48 4.57-.72 1.28-2.06 2.05-3.49 2.05-.11 0-.21 0-.32-.01-1.07.52-3.25 3.26-4.61 5.84-.28.52-.67.98-1.14 1.34-9.86 7.37-19.67 8.92-26.16 8.92-6.3 0-11.35-1.42-13.98-2.75-2.03-1.02-3.9-2.49-5.51-4.01-15.92 17.11-39.88 27.2-65.02 27.2z"/><path fill="#333" d="M130.646 47.52c14.838 2.97 17.054 20.85 17.185 22.038 20.84 4.55 38.45 16.252 49.27 31.984.44-.075.89-.136 1.34-.188 1.6-1.128 3.52-1.77 5.55-1.77.25 0 .5.01.75.03 1.3-3.97 5.02-6.633 9.14-6.633.61 0 1.23.06 1.86.18 1.99.39 3.71 1.37 5.03 2.72 1.76-1.66 4.11-2.65 6.62-2.65.6 0 1.21.06 1.82.18 5.23 1.01 8.65 6.06 7.64 11.29-.07.36-.16.72-.27 1.07l-.38 1.21-.59 1.89c1.29.24 2.53.81 3.59 1.74 2.82 2.5 3.31 6.66 1.28 9.71l-1.49 2.27s-.16.26-.53.62c-.19.18-.45.37-.63.8-.18.43-.57.68-.75 1.33-.18.64-.57 1.14-.72 1.99-.17.82-.48 1.6-.56 2.62-.32 1.91-.43 4.17-.36 6.5.06 3.23.48 6.57.99 9.52 1.46-.5 2.44-.74 2.44-.74l-1.93 3.4c.07.34.14.69.21 1.01.39 1.81.78 3.31 1.06 4.34l.08.29c.15 0 .3-.01.46-.01 1.64 0 3.29.38 4.44 1.6.12.12-6.64 7.75-6.53 7.75h.01c.99-.54 2.04-.75 3.06-.75 3.32 0 6.38 2.19 6.38 2.19-3.44.62-4.82 2.35-4.82 2.35l3.99 4.59c-.14-.02-.29-.03-.43-.03-3.84 0-8.03 8.01-8.03 8.01-8.41 6.29-16.98 8.12-23.76 8.12-5.71 0-10.15-1.29-12.18-2.32-3.16-1.59-6.02-4.72-7.41-6.38-14.57 17.66-38.21 29.16-64.92 29.16-26.99 0-50.84-11.74-65.37-29.72-1.11 1.4-4.3 5.15-7.86 6.95-2.02 1.02-6.47 2.32-12.18 2.32-6.79 0-15.36-1.83-23.77-8.13 0 0-4.2-8-8.04-8-.15 0-.29.01-.44.03l3.99-4.58s-1.38-1.73-4.82-2.35c0 0 3.05-2.19 6.37-2.19 1.02 0 2.07.21 3.06.75.11 0-6.66-7.63-6.54-7.75 1.15-1.22 2.81-1.6 4.44-1.6.15 0 .3.01.46.01l.08-.28c.27-1.03.67-2.53 1.06-4.34.07-.32.14-.66.21-1l-1.94-3.39s.98.24 2.44.74c.51-2.95.93-6.29.99-9.52.08-2.32-.04-4.58-.35-6.49-.08-1.02-.38-1.8-.56-2.62-.15-.85-.54-1.36-.73-1.99-.18-.65-.57-.9-.75-1.32-.19-.43-.45-.62-.64-.79-.37-.36-.53-.61-.53-.61l-1.5-2.26c-2.27-3.44-1.33-8.07 2.11-10.34.86-.57 1.8-.93 2.76-1.1l-.59-1.88-.38-1.2c-1.61-5.08 1.21-10.48 6.28-12.08.96-.31 1.94-.45 2.9-.45 2.48 0 4.85.97 6.62 2.64 1.06-1.08 2.39-1.93 3.93-2.43.98-.31 1.97-.46 2.94-.46 4.05 0 7.82 2.58 9.15 6.63.25-.02.49-.03.74-.03 2.1 0 4.13.69 5.79 1.94.61.1 1.2.23 1.78.37 10.57-15.59 27.78-27.28 48.2-32.05-4.04-.23-7.22-.55-6.61-3.91.65-3.54 3.31-4.38 5.7-4.38.26 0 .52.01.77.03-4.69-1.75-3.39-6.09-3.39-6.09 2.63-2.82 6.24-3.8 9.98-3.8 8.48 0 17.65 5.03 17.65 5.03-8.6-8.6-1.23-9.21-1.23-9.21m0-8c-.22 0-.44.01-.66.03-2.83.23-6.49 1.68-8.61 4.93-2.29-.47-4.71-.77-7.14-.77-8.19 0-13.13 3.45-15.83 6.35-.84.9-1.46 1.98-1.81 3.16-.47 1.58-.63 3.32-.43 5.06-1.42 1.7-2.4 3.82-2.85 6.24-.09.51-.15 1.01-.18 1.51-14.54 5.6-27.05 14.61-36.36 26.2l-.47-.12c-3.26-4.41-8.46-7.13-14.17-7.13-1.82 0-3.63.29-5.38.85-.56.18-1.12.39-1.66.63-2.03-.8-4.22-1.22-6.46-1.22-1.79 0-3.58.27-5.3.82-8.21 2.59-13.2 10.67-12.2 18.92-5.33 5.07-6.44 13.4-2.25 19.74l1.48 2.23c.23.35.63.9 1.22 1.53l.07.11c.1.25.2.47.27.64.08.36.17.67.24.93.04.15.09.35.11.44.02.2.05.4.08.6.22 1.33.31 3.08.25 4.92v.11c-.01.79-.05 1.61-.12 2.46-.64.46-1.21 1.02-1.7 1.67-1.69 2.25-2.06 5.2-1.04 7.78-1.13.67-2.02 1.44-2.69 2.16-1.44 1.53-2.99 4.62-1.71 8.15-.01.01-.02.02-.04.02-2.61 1.87-3.85 5.12-3.14 8.26.21.93.58 1.79 1.08 2.57-.73 2.11-.55 4.48.58 6.51 1.22 2.19 3.37 3.63 5.76 4 .78.85 1.9 2.44 2.62 3.79.56 1.04 1.34 1.97 2.28 2.67 10.74 8.04 21.46 9.73 28.57 9.73 5.94 0 11.85-1.19 15.79-3.18 1.4-.7 2.72-1.58 3.94-2.52 16.63 16.51 40.55 26.15 65.69 26.15 14.02 0 27.97-3 40.35-8.68 9.35-4.3 17.85-10.12 24.94-17.08 1.08.8 2.23 1.52 3.43 2.13 3.94 1.99 9.84 3.18 15.78 3.18 7.1 0 17.82-1.69 28.56-9.72.95-.71 1.74-1.63 2.29-2.69.71-1.33 1.83-2.93 2.61-3.78 2.39-.37 4.54-1.81 5.77-4 1.13-2.02 1.31-4.39.58-6.5.5-.77.87-1.64 1.08-2.57.71-3.14-.53-6.39-3.14-8.26l-.03-.03c1.28-3.52-.26-6.6-1.71-8.15-.68-.72-1.57-1.48-2.7-2.16 1.03-2.57.66-5.52-1.04-7.78-.49-.65-1.07-1.21-1.71-1.67-.06-.85-.1-1.67-.12-2.45v-.11c-.06-1.82.03-3.57.25-4.92.03-.2.06-.4.08-.6l.11-.42c.07-.27.16-.59.24-.95.08-.18.17-.39.28-.64l.07-.12c.59-.63.99-1.17 1.23-1.54l1.48-2.25c4.13-6.21 3.14-14.6-2.25-19.73 1.11-9.1-5.03-17.66-14.17-19.42-1.1-.21-2.22-.32-3.33-.32-2.23 0-4.41.42-6.44 1.22-1.16-.51-2.39-.89-3.65-1.14-1.12-.22-2.26-.33-3.39-.33-5.62 0-10.75 2.64-14.01 6.93-11.14-13.63-27.14-23.87-45.18-28.89-2.49-9.15-9.03-20.65-22.46-23.34-.51-.1-1.04-.16-1.57-.16z"/><path fill="#C69C6D" d="M221.534 135.592c0 17.4-15.387 27.107-29.305 28.576-17.31 1.822-13.19-14.105-13.19-31.504 0-17.395 5.31-31.5 22.71-31.5s19.78 17.036 19.78 34.428z"/><path fill="#A67C52" d="M179.005 126.75c2.863-3.886 5.766-7.53 9.037-11.044 1.67-1.727 3.402-3.42 5.467-4.883 2.06-1.36 4.51-2.87 7.76-2.63.78.06 1.59.286 2.31.56.49.16 1.2.46 1.83.782 1.21.62 2.38 1.42 3.42 2.392 2.11 1.918 3.58 4.51 4.45 7.18 1.67 5.415 1.38 11.01.2 16.435l-.09.39c-.68 3.106-3.74 5.07-6.84 4.396-3.11-.676-5.07-3.738-4.4-6.84.18-.83.54-1.6 1.02-2.24 2.31-3.07 3.82-7.006 3.55-10.703-.12-1.834-.69-3.578-1.76-5.033-.55-.72-1.21-1.37-1.98-1.927-.37-.275-.69-.495-1.26-.8-.34-.176-.65-.298-1.01-.363-1.43-.293-3.44.357-5.18 1.492-1.78 1.137-3.46 2.588-5 4.21-3.08 3.214-5.74 7.015-7.84 10.934l-.02.04c-.58 1.072-1.92 1.478-2.98.902-1.08-.574-1.49-1.91-.91-2.982.05-.1.11-.19.18-.27z"/><path fill="#C69C6D" d="M33.503 135.592c0 17.4 15.39 27.107 29.31 28.576 17.3 1.822 13.185-14.105 13.185-31.504 0-17.395-5.314-31.5-22.707-31.5S33.51 118.2 33.51 135.592z"/><path fill="#A67C52" d="M76.034 126.75c-2.86-3.886-5.764-7.53-9.035-11.044-1.67-1.727-3.41-3.42-5.47-4.883-2.07-1.36-4.52-2.87-7.77-2.63-.79.06-1.59.286-2.32.56-.49.16-1.21.46-1.83.782-1.22.62-2.39 1.42-3.43 2.392-2.12 1.918-3.59 4.51-4.46 7.18-1.67 5.415-1.38 11.01-.2 16.435l.08.39c.67 3.106 3.74 5.07 6.84 4.396 3.1-.676 5.07-3.738 4.39-6.84-.18-.83-.55-1.6-1.03-2.24-2.32-3.07-3.83-7.006-3.55-10.703.12-1.834.68-3.578 1.75-5.033.54-.72 1.21-1.37 1.97-1.927.37-.275.68-.495 1.26-.8.34-.176.65-.298 1.01-.363 1.43-.293 3.43.357 5.18 1.492 1.77 1.137 3.46 2.588 4.99 4.21 3.07 3.214 5.73 7.015 7.84 10.934l.02.04c.58 1.072 1.91 1.478 2.98.902 1.08-.574 1.48-1.91.91-2.982-.06-.1-.12-.19-.18-.27z"/><path fill="#082031" d="M208.618 137.975c0 38.945-35.89 70.506-80.168 70.506-44.27 0-80.162-31.56-80.162-70.5s35.89-70.5 80.162-70.5c44.278 0 80.168 31.56 80.168 70.51zm-60.78-68.35s-1.843-19.033-17.19-22.105c0 0-7.37.614 1.227 9.212 0 0-19.03-10.44-27.625-1.228 0 0-1.844 6.138 6.752 6.75 0 0-8.596-3.066-9.822 3.686-1.23 6.75 12.893 1.23 18.418 7.365"/><path fill="none" d="M169.53 178.496m36.836-57.302"/><path fill="#B3B3B3" d="M192.6 139.936c0 28.943-28.593 52.412-63.866 52.412-35.268 0-63.863-23.47-63.863-52.412 0-28.95 28.6-52.418 63.87-52.418 35.28 0 63.87 23.47 63.87 52.418z"/><path fill="#999898" d="M128.733 194.803c-36.568 0-66.32-24.615-66.32-54.867 0-30.258 29.752-54.875 66.32-54.875 36.572 0 66.324 24.62 66.324 54.88 0 30.25-29.75 54.87-66.324 54.87zm0-104.83c-33.86 0-61.408 22.412-61.408 49.962 0 27.547 27.547 49.955 61.408 49.955 33.863 0 61.412-22.408 61.412-49.955 0-27.55-27.548-49.96-61.412-49.96z"/><path fill="#333" d="M128.12 177.676c-2.716 0-4.5-2.2-4.5-4.914v-34.377c0-2.715 1.784-4.914 4.5-4.914 2.712 0 4.5 2.2 4.5 4.92v34.38c0 2.72-1.788 4.92-4.5 4.92zm24.438-.296h-49.113c-2.715 0-4.912-1.786-4.912-4.5s2.197-4.5 4.912-4.5h49.113c2.717 0 4.91 1.786 4.91 4.5s-2.194 4.5-4.91 4.5z"/><path fill="#fff" d="M181.362 121.26c0 14.148-11.467 25.62-25.615 25.62-14.15 0-25.617-11.472-25.617-25.62 0-14.148 11.467-25.615 25.617-25.615s25.615 11.467 25.615 25.614zm-53.597 0c0 14.148-11.47 25.62-25.617 25.62s-25.62-11.472-25.62-25.62c0-14.148 11.472-25.615 25.62-25.615s25.617 11.467 25.617 25.614z"/><path fill="#2974A7" d="M119.097 120.108c0 9.392-7.617 17.013-17.014 17.013-9.395 0-17.01-7.62-17.01-17.01s7.615-17.01 17.01-17.01c9.396 0 17.014 7.63 17.014 17.02z"/><path fill="#fff" d="M99.485 115.2c0 3.2-2.602 5.797-5.805 5.797s-5.803-2.596-5.803-5.798c0-3.21 2.6-5.81 5.803-5.81s5.805 2.59 5.805 5.8zm6.39 6.257c0 1.502-1.224 2.726-2.726 2.726-1.51 0-2.73-1.224-2.73-2.726 0-1.51 1.22-2.722 2.73-2.722 1.5 0 2.72 1.212 2.72 2.722z"/><path fill="#2974A7" d="M172.696 120.108c0 9.392-7.617 17.013-17.014 17.013-9.395 0-17.012-7.62-17.012-17.01s7.617-17.01 17.012-17.01c9.397 0 17.014 7.63 17.014 17.02z"/><path fill="#fff" d="M153.083 115.2c0 3.2-2.596 5.797-5.803 5.797-3.203 0-5.8-2.596-5.8-5.798 0-3.21 2.597-5.81 5.8-5.81 3.207 0 5.803 2.59 5.803 5.8zm6.395 6.257c0 1.502-1.23 2.726-2.73 2.726-1.498 0-2.727-1.224-2.727-2.726 0-1.51 1.23-2.722 2.73-2.722s2.73 1.212 2.73 2.722z"/><path fill="#2974A7" d="M137.728 134.12c0 3.26-4.355 5.903-9.73 5.903-5.366 0-9.726-2.643-9.726-5.902 0-3.26 4.36-5.9 9.727-5.9 5.37 0 9.72 2.64 9.72 5.91z"/><path fill="#C69C6D" d="M225.71 159.762s-.234-.71-.643-1.934c-.383-1.213-.9-2.916-1.438-4.99-1.09-4.14-2.3-9.73-2.69-15.727-.21-2.98-.22-6.07.14-9.11.08-1.48.48-3.02.76-4.44.24-1.41.89-2.85 1.31-4.11.4-1.27 1.22-2.47 1.75-3.49.53-1.05 1.23-1.89 1.82-2.58l1.88-2.13c2.73-3.09 7.45-3.37 10.53-.64 2.82 2.5 3.3 6.65 1.28 9.71l-1.5 2.27s-.17.26-.54.62c-.19.17-.45.37-.64.79-.18.43-.57.68-.76 1.33-.19.64-.58 1.14-.73 1.99-.17.82-.48 1.6-.56 2.62-.32 1.91-.44 4.17-.36 6.49.09 4.66.91 9.58 1.71 13.19.39 1.81.78 3.31 1.06 4.34l.44 1.56.08.27c1.03 3.61-1.06 7.36-4.66 8.39-3.51 1-7.15-.96-8.3-4.38zm-5.744-6.22s-.2-.76-.547-2.1c-.36-1.423-.83-3.437-1.28-5.767-.53-2.355-.91-5.135-1.39-8.113-.27-1.488-.35-3.063-.54-4.64-.15-1.59-.3-3.207-.46-4.825l-.15-4.91c-.02-1.625-.18-3.2-.02-4.796l.28-4.56c.13-1.45.1-2.81.36-4.11l1.66-8.67c1-5.22 6.05-8.64 11.27-7.64 5.23 1.01 8.64 6.06 7.64 11.29-.08.36-.16.72-.27 1.07l-.39 1.21-1.92 6.08c-.32.91-.41 2.04-.65 3.16l-.67 3.59c-.3 1.23-.29 2.61-.44 3.97-.12 1.37-.25 2.76-.37 4.16l-.09 4.23c0 1.4-.1 2.78-.01 4.12.13 2.68.17 5.21.4 7.35.16 2.18.36 3.9.51 5.08.12 1.17.27 2 .27 2 .68 3.69-1.75 7.23-5.44 7.91-3.53.65-6.91-1.54-7.81-4.94l-.02-.1z"/><path fill="#fff" d="M234.858 105.82c1.135-3.342-1.676-6.81-5.2-7.47-3.52-.66-6.9 1.61-7.56 5.082 0 0-.354 2.976 6.375 2.816 0 0 5.473 2.248 6.385-.428z"/><path fill="#C69C6D" d="M205.77 152.293s-.185-.756-.5-2.074c-.335-1.41-.753-3.4-1.16-5.7-.485-2.33-.802-5.06-1.233-7.99-.34-2.95-.602-6.12-.816-9.31-.01-3.23-.23-6.44-.02-9.52.11-1.55.22-3.04.33-4.47.15-1.43.12-2.76.41-4.02.99-5.08 1.66-8.45 1.66-8.45 1.02-5.23 6.09-8.63 11.31-7.61 5.22 1.02 8.63 6.09 7.61 11.31-.06.35-.16.7-.26 1.04l-.37 1.17-1.93 6.02c-.35.88-.42 2-.68 3.1-.22 1.12-.45 2.3-.69 3.53-.48 2.46-.59 5.24-.92 7.96-.14 2.76-.24 5.56-.25 8.18.08 2.63.07 5.11.25 7.21.12 2.14.28 3.84.41 4.99.1 1.14.23 1.96.23 1.96.62 3.69-1.88 7.19-5.58 7.81-3.53.59-6.88-1.66-7.71-5.08l-.02-.11z"/><path fill="#fff" d="M220.2 104.122c1.137-3.344-1.678-6.815-5.205-7.475-3.516-.66-6.9 1.616-7.553 5.083 0 0-.355 2.98 6.37 2.82 0 0 5.478 2.243 6.388-.428z"/><path fill="#C69C6D" d="M191.444 151.613s-.064-.686-.18-1.887c-.125-1.3-.223-3.04-.318-5.104-.178-4.14-.195-9.656.2-15.194.233-2.77.372-5.552.804-8.148.41-2.603.6-5.057 1.12-7.136.903-4.175 1.503-6.962 1.503-6.962 1.123-5.204 6.25-8.516 11.45-7.39 5.206 1.12 8.517 6.246 7.394 11.453-.09.41-.2.81-.34 1.195l-.238.66-2.02 5.583c-.69 1.65-1.11 3.735-1.77 5.903-.69 2.164-1.12 4.57-1.66 6.957-1.01 4.79-1.66 9.703-2 13.37-.16 1.847-.29 3.368-.33 4.345l-.07 1.7-.02.27c-.15 3.75-3.31 6.667-7.06 6.52-3.43-.14-6.17-2.805-6.49-6.135z"/><path fill="#fff" d="M210.022 112.225c1.14-3.346-1.674-6.813-5.2-7.48-3.52-.657-6.9 1.62-7.558 5.09 0 0-.355 2.976 6.38 2.815 0 0 5.466 2.25 6.378-.425z"/><path fill="#082031" d="M241.198 167.344s1.383-1.73 4.826-2.35c0 0-5.223-3.744-9.43-1.44-.24.136 6.648-7.626 6.527-7.75-3.17-3.356-10.12-.417-10.12-.417l5.82-10.2s-14.16 3.427-14.88 11.68l4.24-16.864-10.39 6.193-6.29-9.17s-6.93 5.258-4.54 9.78c0 0-2.61-5.468-7.25-5.253l-.39 7.977s-4.06-2.822-8.7-2.605l1.94 6.02-7.31-.938 3.31 7.99-4.82 2.348 3.93 8.05-5.74 2.274 10.61 5.54s3.86 5.26 8.29 7.49c4.43 2.24 20.45 5.78 35.94-5.81 0 0 4.53-8.62 8.47-7.97l-3.99-4.59z"/><path fill="#A67C52" d="M211.997 111.37l-.92 25.884 3.377 4.098s3.686-22.516-2.457-29.98zm10.54-2.25l.82 33.152 4.81-2.27-3.79 14.14s3.278-4.3 8.19-6.755c0 0-5.12-35.398-10.03-38.267zm12.685 0s-2.86 10.64.207 19.85c0 0 2.46-6.754 3.89-7.16 0 0 2.65-7.168-3.49-6.96 0-.002-.82-2.66-.62-5.73z"/><path fill="#C69C6D" d="M17.403 155.482s.164-.563.447-1.557c.277-1.03.672-2.527 1.06-4.34.802-3.61 1.622-8.525 1.712-13.184.076-2.32-.037-4.58-.355-6.49-.082-1.02-.387-1.79-.56-2.61-.153-.85-.542-1.35-.73-1.99-.188-.64-.57-.9-.752-1.32-.188-.43-.45-.62-.64-.79-.368-.36-.536-.61-.536-.61l-1.5-2.26c-2.28-3.44-1.33-8.07 2.11-10.34 3.14-2.07 7.28-1.46 9.71 1.28l1.88 2.13c.59.69 1.3 1.53 1.82 2.58.53 1.02 1.35 2.22 1.76 3.5.41 1.26 1.06 2.7 1.3 4.12.28 1.42.68 2.97.76 4.45.36 3.03.35 6.12.14 9.11-.39 6-1.6 11.59-2.69 15.73-.54 2.08-1.06 3.78-1.44 4.99l-.64 1.94c-1.18 3.55-5.02 5.48-8.58 4.29-3.46-1.14-5.38-4.81-4.39-8.28l.08-.29zm5.364-4.804s.154-.828.273-1.996c.152-1.182.352-2.904.514-5.084.23-2.14.27-4.668.393-7.346.096-1.342-.016-2.72-.004-4.12-.03-1.395-.06-2.81-.086-4.226-.12-1.396-.244-2.784-.367-4.152-.148-1.353-.143-2.734-.44-3.964-.23-1.244-.45-2.447-.66-3.59-.24-1.12-.323-2.253-.644-3.156-1.152-3.647-1.918-6.08-1.918-6.08l-.38-1.207c-1.603-5.075 1.214-10.478 6.288-12.08 5.076-1.6 10.484 1.22 12.082 6.288.117.354.21.717.273 1.08 0 0 .67 3.467 1.67 8.67.27 1.3.23 2.66.37 4.118l.29 4.56c.16 1.596 0 3.17-.01 4.796l-.15 4.91c-.16 1.61-.31 3.23-.46 4.82-.18 1.57-.27 3.15-.54 4.64-.48 2.98-.86 5.75-1.39 8.11-.45 2.33-.92 4.34-1.27 5.77l-.54 2.1-.02.08c-.94 3.62-4.65 5.8-8.28 4.86-3.46-.9-5.6-4.34-4.97-7.81z"/><path fill="#fff" d="M21.14 105.82c-1.135-3.342 1.674-6.81 5.2-7.47 3.52-.66 6.9 1.61 7.56 5.082 0 0 .355 2.976-6.375 2.816 0 0-5.473 2.248-6.385-.428z"/><path fill="#C69C6D" d="M36.915 149.666c0-.006.133-.822.23-1.967.13-1.15.283-2.85.408-4.99.188-2.1.168-4.58.25-7.22-.01-2.63-.117-5.42-.254-8.19-.34-2.72-.45-5.5-.93-7.96-.24-1.23-.47-2.41-.69-3.53-.26-1.11-.33-2.22-.69-3.11-1.17-3.62-1.94-6.02-1.94-6.02l-.36-1.12c-1.63-5.07 1.16-10.5 6.22-12.13 5.06-1.62 10.49 1.16 12.11 6.23.11.34.21.74.28 1.09l1.65 8.44c.29 1.26.25 2.6.4 4.02l.32 4.46c.21 3.08-.02 6.29-.03 9.52-.21 3.19-.47 6.36-.81 9.31-.44 2.93-.75 5.66-1.24 7.99-.41 2.3-.83 4.28-1.16 5.69l-.5 2.07-.02.08c-.88 3.64-4.55 5.88-8.19 5.01-3.49-.84-5.67-4.25-5.11-7.72z"/><path fill="#fff" d="M35.8 104.122c-1.137-3.344 1.678-6.815 5.203-7.475 3.516-.66 6.902 1.616 7.555 5.083 0 0 .354 2.98-6.375 2.82 0 0-5.473 2.243-6.383-.428z"/><path fill="#C69C6D" d="M51 150.96l-.07-1.7c-.04-.977-.16-2.498-.325-4.344-.346-3.668-.992-8.58-1.998-13.37-.543-2.387-.975-4.793-1.66-6.958-.664-2.168-1.086-4.254-1.77-5.903l-2.017-5.583-.217-.61c-1.813-5.007.78-10.53 5.787-12.34 5.006-1.812 10.533.78 12.342 5.788.14.393.268.848.354 1.243l1.502 6.962c.525 2.08.71 4.533 1.123 7.136.43 2.6.57 5.38.81 8.15.4 5.54.38 11.06.2 15.2-.09 2.07-.19 3.81-.31 5.11l-.18 1.89c-.36 3.74-3.68 6.47-7.41 6.11-3.42-.33-6-3.14-6.13-6.48l-.01-.27z"/><path fill="#fff" d="M45.978 112.225c-1.143-3.346 1.674-6.813 5.197-7.48 3.52-.657 6.904 1.62 7.56 5.09 0 0 .355 2.976-6.378 2.815 0 0-5.47 2.25-6.38-.425z"/><path fill="#082031" d="M14.8 167.344s-1.383-1.73-4.824-2.35c0 0 5.22-3.744 9.43-1.44.24.136-6.648-7.626-6.53-7.75 3.173-3.356 10.132-.417 10.132-.417l-5.818-10.2s14.164 3.427 14.883 11.68l-4.24-16.864 10.398 6.193 6.29-9.17s6.94 5.258 4.55 9.78c0 0 2.61-5.468 7.25-5.253l.39 7.977s4.07-2.822 8.71-2.605l-1.94 6.02 7.32-.938-3.31 7.99 4.83 2.348-3.92 8.05 5.75 2.274-10.61 5.54s-3.85 5.26-8.28 7.49c-4.43 2.24-20.45 5.78-35.94-5.81 0 0-4.52-8.62-8.47-7.97l3.99-4.59z"/><path fill="#A67C52" d="M44 111.37l.92 25.884-3.376 4.098S37.86 118.836 44 111.372zm-10.538-2.25l-.818 33.152-4.813-2.27 3.8 14.14s-3.27-4.3-8.19-6.755c0 0 5.12-35.398 10.03-38.267zm-12.686 0s2.865 10.64-.205 19.85c0 0-2.46-6.754-3.89-7.16 0 0-2.65-7.168 3.49-6.96 0-.002.82-2.66.62-5.73z"/></svg>