<?xml version="1.0" encoding="utf-8"?>
<!-- Generator: Adobe Illustrator 16.0.0, SVG Export Plug-In . SVG Version: 6.00 Build 0)  -->
<!DOCTYPE svg PUBLIC "-//W3C//DTD SVG 1.1//EN" "http://www.w3.org/Graphics/SVG/1.1/DTD/svg11.dtd">
<svg version="1.1" id="Layer_1" xmlns="http://www.w3.org/2000/svg" xmlns:xlink="http://www.w3.org/1999/xlink" x="0px" y="0px"
	 width="256px" height="256px" viewBox="0 0 256 256" enable-background="new 0 0 256 256" xml:space="preserve">
<path fill="#F4D1B0" d="M52.097,215.38c-1.438,0-2.766-0.771-3.477-2.021c-0.71-1.252-0.696-2.786,0.04-4.022l22.97-38.614
	c-1.42-3.887-2.297-8.188-2.62-12.853c-15.783-1.013-19.184-12.706-19.184-22.587c0-8.368,3.44-15.878,8.73-19.788
	c-3.8-8.273-7.01-18.26-5.783-26.75c-0.224,0.04-0.45,0.058-0.675,0.058c-0.966,0-1.922-0.35-2.672-1.023
	c-1.223-1.097-1.65-2.83-1.078-4.37c0.164-0.44,4.142-10.925,15.223-21.375C73.71,52.478,92,41.087,121.58,41.087
	c2.996,0,6.095,0.117,9.21,0.348c0.103,0.008,0.203,0.02,0.304,0.034c6,0.9,36.114,6.11,39.91,19.55
	c18.346,1.24,25.077,17.77,25.077,29.02c0,1.44,0,5.79-7.83,25.41l-0.03,0.19c5.19,3.96,8.49,11.36,8.49,19.62
	c0,9.65-3.24,21.03-18.1,22.5c-0.2,2.761-0.6,5.4-1.211,7.91c4.98,7.31,20.4,29.95,29.811,43.39c0.859,1.221,0.96,2.811,0.27,4.141
	c-0.689,1.32-2.049,2.15-3.549,2.15H52.1L52.097,215.38z"/>
<path fill="#333333" d="M121.572,45.085c2.86,0,5.833,0.11,8.917,0.337c0,0,33.41,5.056,36.664,16.707
	c0.248,0.88,0.383,1.84,0.433,2.84c0.401-0.02,0.798-0.02,1.188-0.02c19.875,0,23.302,18.9,23.302,25.09
	c0,4.43-4.81,17.12-7.858,24.71l0.09,0.02l-0.926,2.63c5.391,2.3,9.32,9.42,9.32,17.86c0,16.72-10.221,18.66-17.439,18.66
	c-0.181,0-0.341-0.03-0.511-0.04c-0.01,4.71-0.62,8.86-1.69,12.53c1.82,2.67,20.221,29.75,30.871,44.95H52.1l23.98-40.311
	c-2.025-4.72-3.2-10.42-3.208-17.31c-0.51,0.1-1.03,0.17-1.6,0.17c-7.23,0-17.45-1.94-17.45-18.66c0-8.78,4.25-16.12,9.98-18.11
	c-4.115-8.16-10.335-23.3-5.57-32.83c0,0,1.04-1.6-0.5-1.6c-0.864,0-2.53,0.5-5.64,2.05c0,0,14.757-39.72,69.476-39.72
	 M121.568,37.039c-30.89,0-50.09,11.98-60.75,22.03C49.07,70.2,44.77,81.53,44.593,82.01c-1.148,3.08-0.29,6.546,2.153,8.74
	c0.546,0.49,1.146,0.893,1.78,1.21c-0.124,7.44,2.21,15.394,5.166,22.416c-4.898,4.896-7.875,12.452-7.875,20.899
	c0,10.047,3.11,17.453,9.24,22.016c2.873,2.141,6.27,3.529,10.284,4.189c0.4,3.08,1.03,6.021,1.91,8.78l-22.03,37.03
	c-1.47,2.47-1.5,5.55-0.08,8.05c1.43,2.5,4.08,4.05,6.96,4.05H203.9c2.99,0,5.721-1.66,7.101-4.31c1.38-2.64,1.17-5.84-0.54-8.28
	c-8.859-12.64-23.029-33.43-28.8-41.91c0.239-1.17,0.44-2.369,0.601-3.59c3.549-0.72,6.59-2.04,9.209-3.99
	c6.131-4.56,9.24-11.97,9.24-22.01c0-8.25-2.949-15.82-7.77-20.76c7.16-18.3,7.16-22.74,7.16-24.47c0-4.93-1.41-12.51-5.36-19.02
	c-4.66-7.67-11.96-12.42-20.87-13.71c-3.15-6.44-11-11.55-23.859-15.54c-9.23-2.87-17.921-4.2-18.281-4.25
	c-0.199-0.03-0.399-0.05-0.6-0.07c-3.21-0.23-6.41-0.35-9.51-0.35L121.568,37.039z"/>
<path fill="#082031" d="M52.097,211.38l25.725-43.241l15.063,8.295l75.967-7.598l4.027-2.637c0,0,19.811,29.18,31.02,45.18H52.09
	L52.097,211.38z"/>
<path fill="#F4D1B0" d="M166.525,135.282c0,10.306,1.494,18.657,8.721,18.657s17.443-1.94,17.443-18.66
	c0-10.311-5.85-18.66-13.076-18.66c-7.223,0-13.088,8.35-13.088,18.65V135.282z"/>
<path fill="#C69C6D" d="M168.693,135.207c0.031-2.889,0.627-6.172,2.041-8.967c0.718-1.428,1.627-2.8,2.91-4
	c1.273-1.168,3.094-2.176,5.207-2.206c0.801,0.082,0.635,0.007,1.385,0.167c0.604,0.13,1.127,0.31,1.531,0.51
	c0.896,0.4,1.617,0.96,2.289,1.53c1.277,1.2,2.498,2.58,3.215,4c1.42,2.87,2.35,5.96,2.35,9.05v0.359c0,2.031-1.9,3.681-3.93,3.711
	c-2.01,0.029-3.83-1.601-3.851-3.61c0-0.14-0.069-0.31-0.06-0.44c0.229-2.029,0.02-4.25-0.65-6.119c-0.609-1.95-1.9-3.17-2.25-3.291
	c-0.21-0.12-0.82-0.09-1.54,0.39c-0.71,0.5-1.44,1.31-2.04,2.25c-1.24,1.98-1.98,4.189-2.25,6.85l-0.02,0.11
	c-0.131,1.19-1.19,2.06-2.381,1.931c-1.109-0.121-1.939-1.07-1.939-2.181L168.693,135.207z"/>
<path fill="#F4D1B0" d="M79.995,135.282c0,10.306-1.5,18.657-8.725,18.657c-7.23,0-17.445-1.94-17.445-18.66
	c0-10.311,5.85-18.66,13.078-18.66c7.223,0,13.092,8.35,13.092,18.65V135.282z"/>
<path fill="#C69C6D" d="M77.82,135.207c-0.028-2.889-0.624-6.172-2.036-8.967c-0.72-1.428-1.623-2.8-2.908-4
	c-1.27-1.168-3.1-2.176-5.21-2.206c-0.798,0.082-0.634,0.007-1.386,0.167c-0.604,0.13-1.123,0.31-1.525,0.51
	c-0.9,0.4-1.62,0.96-2.29,1.53c-1.278,1.2-2.143,2.58-2.858,4c-1.418,2.87-1.988,5.96-1.988,9.05v0.359
	c0,2.031,1.54,3.681,3.56,3.711c2.02,0.029,3.65-1.601,3.68-3.61c0-0.14-0.03-0.31-0.04-0.44c-0.23-2.029-0.06-4.25,0.6-6.119
	c0.62-1.95,1.87-3.17,2.23-3.291c0.21-0.12,0.79-0.09,1.52,0.39c0.7,0.5,1.44,1.31,2.04,2.25c1.24,1.98,1.97,4.189,2.25,6.85v0.11
	c0.13,1.19,1.2,2.06,2.38,1.931c1.12-0.121,1.94-1.07,1.94-2.181L77.82,135.207z"/>
<path fill="#FFDDBB" d="M174.734,153.707c0,36.66-35.223,39.818-50.934,39.818c-17.88,0-50.93-3.158-50.93-39.818
	c0-36.658-3.79-83.72,50.94-83.72c55.27,0,50.94,47.062,50.94,83.72H174.734z"/>
<path fill="#333333" d="M63.294,112.974l9.754,28.184l14.088-32.88 M184.307,114.786l-9.277,26.372l-14.09-32.88"/>
<path opacity="0.61" fill="#D3BD8D" enable-background="new    " d="M114.73,130.6c0,0-10.94-1.06-11.42,25.606
	c-0.483,26.666-13.06,30.461-13.06,30.461s13.25,8.084,33.552,6.856c3.506-0.717,22.455-0.692,34.79-8.097
	c0,0-15.771-14.06-15.771-23.336c0-9.271-0.07-33.26-14.818-33.51l-13.272,2.021V130.6z"/>
<path fill="#333333" d="M99.212,153.296c-9.97,0-18.074-8.104-18.074-18.069c0-1.604,1.3-2.91,2.906-2.91
	c1.61,0,2.91,1.306,2.91,2.91c0,6.754,5.502,12.256,12.258,12.256s12.256-5.502,12.256-12.256c0-1.604,1.303-2.91,2.91-2.91
	s2.906,1.306,2.906,2.91C117.284,145.191,109.181,153.297,99.212,153.296L99.212,153.296z"/>
<path fill="#333333" d="M151.232,153.296c-9.971,0-18.073-8.104-18.073-18.069c0-1.604,1.29-2.91,2.899-2.91
	c1.601,0,2.9,1.306,2.9,2.91c0,6.754,5.5,12.256,12.26,12.256c6.75,0,12.25-5.502,12.25-12.256c0-1.604,1.301-2.91,2.91-2.91
	s2.91,1.306,2.91,2.91c0,9.965-8.109,18.07-18.08,18.07L151.232,153.296z"/>
<path fill="#333333" d="M121.456,168.79c-0.916,0-1.775-0.59-2.07-1.521c-0.355-1.135,0.268-2.354,1.414-2.711
	c5.965-1.902,5.732-5.314,5.73-5.464l-0.017-26.252c0-1.194,1.85-2.161,3.057-2.161c1.201,0,3.051,0.969,3.051,2.17v26.01
	c0,0-0.03,6.789-9.61,9.83c-0.22,0.069-1.32,0.109-1.54,0.109L121.456,168.79z"/>
<path fill="#333333" d="M122.312,179.305c-13.2,0-21.488-5.863-22-6.24c-0.967-0.701-1.184-2.047-0.48-3.021
	c0.7-0.962,2.046-1.18,3.024-0.48c0.688,0.496,17.2,12.021,41.089-0.174c1.064-0.537,2.371-0.128,2.918,0.946
	c0.546,1.063,0.125,2.373-0.944,2.917c-8.89,4.533-16.89,6.053-23.61,6.053H122.312z"/>
<path fill="#333333" d="M161.188,86.612c0,0-15.164,18.422-47.68,20.583l15.895-16.253c0,0-35.219,23.48-53.29,23.48l-4.33,0.54
	l-4.88,7.86c0,0-15.443-24.928-8.668-38.478c0,0,2.53-3.883-6.14,0.454c0,0,16.343-43.98,78.391-39.38c0,0,33.41,5.05,36.664,16.7
	c2.49,8.91-5.959,24.48-5.959,24.48L161.188,86.612z"/>
<path fill="#333333" d="M156.855,82.99c0,0,0,24.93,8.67,34.684l16.24,3.036c0,0,10.308-24.174,10.308-30.665
	c0-6.508-3.79-27.1-26.548-24.936C142.77,67.279,156.855,82.989,156.855,82.99L156.855,82.99z"/>
<path fill="#333333" d="M131.357,115.815c2.9-1.822,5.793-3.192,8.884-4.402c3.069-1.173,6.26-2.246,9.55-2.858
	c6.561-1.238,13.609,0.826,20.3,0.826h0.04c2.061,0,3.23,2.96,2.6,5.03c-0.629,2.07-2.819,3.3-4.879,2.67
	c-0.121-0.04-0.23-0.03-0.341-0.08c-5.159-2.12-10.989-2.83-16.84-2.29c-2.92,0.26-5.851,0.83-8.729,1.64
	c-2.851,0.81-5.76,1.91-8.311,3.19l-0.1,0.06c-1.061,0.54-2.37,0.11-2.91-0.95c-0.51-1-0.15-2.23,0.779-2.81L131.357,115.815z"/>
<path fill="#333333" d="M115.644,120.38c-2.56,0-5.467-2.796-8.31-3.608c-2.882-0.81-5.813-1.596-8.73-1.846
	c-5.86-0.557-11.683,0.077-16.853,2.2c-1.99,0.825-4.28-0.178-5.1-2.178c-0.82-2.004,0.13-4.46,2.13-5.28
	c0.12-0.043,0.23-0.287,0.34-0.287h0.04c6.69,0,13.74-2.06,20.3-0.82c3.29,0.61,6.48,1.61,9.55,2.79c3.09,1.21,5.98,2.62,8.88,4.44
	c1.02,0.64,1.32,2.42,0.69,3.43c-0.6,0.96-1.81,1.17-2.8,1.17h-0.1L115.644,120.38z"/>
<path fill="#FFDDBB" d="M123.13,145.775l-5.78,46.81c-0.394,3.192-3.298,5.46-6.49,5.062c-3.003-0.367-5.187-2.994-5.1-5.957
	l1.49-47.143c0.134-4.4,3.813-7.859,8.218-7.72c4.404,0.14,7.86,3.823,7.72,8.223C123.181,145.292,123.158,145.54,123.13,145.775z"
	/>
<path fill="#FFDDBB" d="M124.778,157.66l-7.5,47.13c-0.506,3.172-3.49,5.333-6.656,4.83c-3.176-0.511-5.334-3.488-4.83-6.663
	c0.012-0.055,0.023-0.146,0.037-0.2l9.22-46.823c0.52-2.681,3.12-4.427,5.8-3.897c2.62,0.521,4.34,3.016,3.92,5.625L124.778,157.66z
	"/>
<path fill="#FFDDBB" d="M109.733,165.77c0,0-14.178,24.965-14.178,33.576c0,8.614,3.637,11.155,9.453,11.521
	c5.816,0.366,15.27-8.326,13.453-27.431c0.01,0,0.37-17.312-8.72-17.666H109.733z"/>
<path fill="#FFFFFF" d="M109.62,142.333c0,0,3.694-3.093,4.604,0c0.908,3.088,0.427,7.997,0.427,7.997l-5.03-0.727L109.62,142.333
	L109.62,142.333z M115.62,155.087c0,0,2.56-2.042,3.16,0c0.6,2.04,0.223,5.292,0.223,5.292l-3.384-0.48v-4.819L115.62,155.087z"/>
<path fill="#F4D1B0" d="M113.372,156.206c0,0-1.275,17.851-4.365,24.076c0,0-4.357-0.782-1.092-7.534
	C111.185,165.994,113.372,156.206,113.372,156.206z"/>
<path fill="#D3BD8D" d="M116.665,137.573c0,0,4.943,1.135,3.25,14.94c-1.69,13.805,1.998,22.456,1.998,22.456l1.455-33.926
	C123.368,141.044,119.052,136.63,116.665,137.573L116.665,137.573z"/>
<path fill="#FFDDBB" d="M137.311,144.547l1.487,47.143c0.103,3.217-2.418,5.9-5.63,5.998c-3.025,0.098-5.59-2.157-5.958-5.103
	l-5.785-46.81c-0.54-4.37,2.563-8.351,6.936-8.889c4.38-0.543,8.36,2.566,8.901,6.934c0.039,0.236,0.049,0.492,0.059,0.727H137.311z
	 M129.505,155.934l9.226,46.822c0.619,3.146-1.433,6.206-4.584,6.828c-3.154,0.617-6.21-1.434-6.829-4.584
	c-0.01-0.064-0.027-0.148-0.04-0.21l-7.5-47.13c-0.43-2.693,1.41-5.229,4.1-5.66C126.513,151.586,128.993,153.34,129.505,155.934z
	 M134.823,165.77c0,0,14.177,24.965,14.177,33.576c0,8.614-3.634,11.155-9.45,11.521c-5.817,0.366-15.27-8.326-13.453-27.431
	C126.097,183.436,125.733,166.124,134.823,165.77z"/>
<path fill="#FFFFFF" d="M137.62,142.333c0,0-5.034-3.093-5.944,0c-0.91,3.088,0.245,7.997,0.245,7.997l5.7-0.727L137.62,142.333
	L137.62,142.333z M131.62,155.087c0,0-3.9-2.042-4.505,0c-0.594,2.04,0.45,5.292,0.45,5.292l4.055-0.48v-4.819V155.087z"/>
<path fill="#F4D1B0" d="M131.186,156.206c0,0,1.274,17.851,4.362,24.076c0,0,4.356-0.782,1.095-7.534
	C133.372,165.994,131.186,156.206,131.186,156.206z"/>
</svg>
