<svg xmlns="http://www.w3.org/2000/svg" width="256" height="256" viewBox="0 0 256 256"><path fill="#082031" d="M125.875 212.482c-18.947 0-36.81-5.438-51.715-15.735-2.574-.63-5.975-1.563-9.905-2.718-4.23-1.3-9.833-3.12-16.055-5.78l-4.497-2.01c-.074-.03-.146-.07-.218-.11-1.516-.79-4.682-2.44-4.718-2.46-3.728-2.09-7.032-4.25-10.1-6.62-3.25-2.62-6.963-5.88-10.405-10.63-3.69-4.89-6.4-10.86-7.58-16.75-1.273-5.94-1.152-12.59.353-18.68 1.125-4.65 2.908-9.02 5.448-13.35 4.327-7.28 8.678-11.54 11.016-13.83 1.31-1.27 2.56-2.37 3.72-3.31l1.67-1.3c.68-.53 1.52-.82 2.37-.83 1.87-1.69 3.52-3.69 3.78-4.64-.4-1.5.11-3.12 1.32-4.12.73-.61 1.63-.92 2.54-.92.7 0 1.41.18 2.04.56l.74.44c.29-1.22 1.14-2.25 2.32-2.75.5-.22 1.03-.32 1.56-.32 1.02 0 2.02.39 2.78 1.12l.16.16c.19-.58.38-1.22.57-1.88.14-.49.29-.99.45-1.49.42-1.58.8-3.34 1.16-5.05.07-.69.17-1.38.27-2.07.15-1.04.3-2.03.31-2.82l.04-2.38c-.01-.35 0-.71.02-1.06.01-.12.02-.24.02-.36-.02-.08-.03-.15-.04-.23l-.72-5.47c-.41-3.09.41-6.15 2.3-8.62s4.64-4.06 7.73-4.46c.5-.07 1.02-.1 1.53-.1 5.81 0 10.78 4.35 11.54 10.12l.06.55.54 6.49c.11 1.02.04 1.91-.02 2.69-.03.29-.05.59-.06.9 0 .05-.25 3.56-.25 3.56-.01.14-.03.28-.04.43 5.26-3.22 10.93-5.91 16.87-8-.29-.94-.41-2.1-.16-3.5.44-2.42 1.57-4.35 3.24-5.66-.58-1.87-.5-3.78-.07-5.21.18-.59.49-1.13.91-1.58 3.14-3.36 7.48-5.07 12.9-5.07 3.27 0 6.59.64 9.54 1.49.06-.43.17-.85.33-1.27 1.07-2.94 4.02-4.2 6.22-4.39.11-.01.22-.02.33-.02.26 0 .52.03.78.08 12.64 2.53 18.22 14.37 19.92 22.68 7.58 1.9 14.89 4.77 21.61 8.47-.03-.19-.07-.37-.1-.55-.15-.78-.33-1.66-.33-2.69l-.17-6.52c-.09-3.15 1.42-6.29 4.13-8.61 2.39-2.04 5.48-3.26 8.47-3.34h.32c6.1 0 12.91 4.7 12.91 11.45v.33c0 1.05-.42 2.06-1.16 2.81l-.59.59c-.11.51-.25 1.28-.27 2.22l-.03.42c-.05.37-.12.89-.1 1.24.06.52.07.99.08 1.42.01.28.01.57.05.87.11.92.37 1.98.64 3.11.13.57.27 1.14.4 1.72l.32.98c.45 1.38.87 2.69 1.34 3.89.23.53.45 1.06.67 1.58.24.57.47 1.13.69 1.63l.13-.16c.77-.93 1.9-1.45 3.08-1.45.38 0 .77.06 1.15.17 1.23.37 2.19 1.3 2.61 2.48l.68-.52c.71-.54 1.56-.81 2.41-.81.76 0 1.52.22 2.19.65 1.31.86 2 2.41 1.76 3.94.44 1.1 3.07 3.51 5.5 5.02.5.31.93.73 1.26 1.23.33.51.65 1.04.99 1.63.98.67 2.03 1.44 3.16 2.31 3.56 2.8 7.71 6.24 12.49 12.07 2.27 2.87 5.14 6.82 7.57 12.43 1.65 3.79 4.28 11.52 3.26 20.68-.69 6.95-3.62 14.23-8.07 19.95-.89 1.26-1.88 2.44-3.01 3.59l-.37.39c-.81.86-1.64 1.74-2.51 2.54-.04.04-.9.77-1.29 1.1-1.48 1.27-3.02 2.6-4.59 3.61-3.32 2.37-6.8 4.42-10.93 6.44-3.37 1.7-6.58 2.98-9.68 4.21l-.31.12c-5.6 2.08-11.17 3.84-17.12 5.42-4.18 1.1-8.04 2.04-11 2.65-14.81 10.09-32.51 15.41-51.24 15.41z"/><path fill="#333" d="M128.072 47.518c14.834 2.967 17.05 20.845 17.183 22.038C156.9 72.1 167.54 76.876 176.55 83.35c-.573-1.854-1.185-3.666-1.54-5.507-.21-1.16-.418-2.282-.61-3.346-.153-1.077-.45-2.035-.44-3.038-.105-3.95-.172-6.58-.172-6.58-.115-4.22 4.486-7.74 8.707-7.85.07-.01.144-.01.216-.01 4.18 0 8.91 3.29 8.91 7.44v.33l-1.29 1.3s-.66 1.69-.71 4.23c-.08.62-.17 1.38-.1 2.14.1.77.04 1.58.15 2.42.22 1.69.76 3.52 1.15 5.36.6 1.82 1.17 3.66 1.83 5.36.74 1.68 1.34 3.29 2.03 4.59.65 1.36 1.04 2.37 1.42 3.04.34.65.56 1.21.56 1.21 1 1.17 1.24 2.48 1.22 3.77.48.47.87.78.9.78h.04c-2-4.36 2.12-9.31 2.12-9.31.38 3.48 2.02 4.98 2.02 4.98l4.86-3.66c-.92 3.89 7.36 9.01 7.36 9.01.49.75.93 1.5 1.35 2.26.03.02.05.03.08.05.94.63 2.16 1.49 3.67 2.65 2.99 2.35 7.11 5.68 11.83 11.43 2.33 2.94 4.86 6.54 7 11.48 2.12 4.85 3.75 11.54 2.96 18.66-.7 7.14-3.86 13.6-7.3 18-.86 1.24-1.75 2.27-2.65 3.18-.88.94-1.81 1.95-2.72 2.78-1.77 1.49-3.67 3.24-5.42 4.36-3.59 2.57-7.08 4.52-10.44 6.16-3.37 1.71-6.59 2.98-9.71 4.22-6.18 2.29-11.85 3.99-16.66 5.26-4.8 1.27-8.78 2.2-11.55 2.76l-.02.01c-13.65 9.48-30.88 15.16-49.63 15.16-18.93 0-36.33-5.79-50.04-15.45-2.57-.61-6.15-1.58-10.44-2.84-4.51-1.39-9.81-3.14-15.61-5.62l-4.44-1.99c-1.52-.8-3.06-1.6-4.61-2.4-3.12-1.75-6.35-3.78-9.61-6.29-3.25-2.63-6.57-5.63-9.6-9.82-3.01-3.99-5.71-9.28-6.89-15.19-1.26-5.86-.92-11.96.31-16.93 1.22-5.02 3.13-9.06 5.02-12.28 3.85-6.47 7.62-10.3 10.37-12.99 1.39-1.33 2.54-2.33 3.45-3.06l1.6-1.24.78 1.14c.16-.35.32-.69.49-1.04 0 0 7.67-6 6.32-9.77l5.22 3.1s1.46-1.67 1.45-5.17c0 0 4.62 4.46 3.11 9.01v.01c.03 0 .31-.34.74-.86-.16-1.29.04-2.63.66-3.88-.01 0 .29-.59.55-1.27.3-.71.73-1.78 1.22-3.2.55-1.36.98-3.03 1.52-4.78.48-1.76.88-3.66 1.27-5.53.19-1.87.61-3.76.63-5.46.02-.85.03-1.67.05-2.44-.03-.77.12-1.54-.03-2.15l-.55-4.2-.16-1.27c-.56-4.19 2.39-8.04 6.58-8.59.34-.05.68-.07 1.01-.07 3.78 0 7.07 2.8 7.58 6.65.01.12.03.25.04.37l.55 6.55c.12.99-.07 1.98-.1 3.07-.08 1.08-.15 2.22-.24 3.39-.19 2.35-.79 4.68-1.2 7.09-.22.87-.45 1.73-.69 2.58 9.31-7.4 20.6-12.9 33.09-15.82-4.04-.23-7.22-.56-6.61-3.92.64-3.54 3.31-4.38 5.7-4.38.26 0 .52.01.77.03-4.69-1.75-3.39-6.08-3.39-6.08 2.63-2.82 6.24-3.8 9.99-3.8 8.48 0 17.65 5.02 17.65 5.02-8.6-8.6-1.23-9.21-1.23-9.21m0-8c-.23 0-.45.01-.67.03-2.83.24-6.49 1.69-8.61 4.93-2.3-.47-4.71-.77-7.14-.77-8.2 0-13.13 3.45-15.83 6.34-.84.9-1.46 1.98-1.81 3.16-.47 1.58-.62 3.31-.43 5.05-1.41 1.71-2.4 3.82-2.84 6.25-.1.51-.16 1.03-.18 1.53-2.79 1.09-5.52 2.31-8.17 3.65-.01-.3-.03-.61-.06-.93l-.54-6.44c-.02-.21-.04-.46-.07-.66l-.01-.08c-1.02-7.75-7.69-13.6-15.5-13.6-.68 0-1.37.05-2.05.14-4.14.54-7.83 2.67-10.38 5.99-2.55 3.32-3.65 7.44-3.1 11.58l.17 1.27.54 4.1c-.02.31-.03.73-.03 1.2l-.02 1.18-.02 1.11c0 .57-.14 1.47-.26 2.33-.09.62-.19 1.3-.28 2.01-.28 1.34-.55 2.6-.84 3.78h-.32c-1.06 0-2.12.2-3.13.63-.88.38-1.66.9-2.33 1.53-.4-.06-.8-.09-1.2-.09-1.82 0-3.62.61-5.09 1.82-1.94 1.6-2.98 3.98-2.91 6.4-.36.47-.9 1.08-1.5 1.68-1.07.26-2.08.74-2.97 1.43L29 97.26l-.138.11c-1.25 1.01-2.58 2.19-3.94 3.5l-.06.06c-3.67 3.59-7.62 7.84-11.65 14.62-2.763 4.7-4.69 9.43-5.913 14.49-1.63 6.61-1.77 13.87-.37 20.43 1.66 8.23 5.42 14.5 8.3 18.33 3.7 5.1 7.64 8.56 11.02 11.28.04.04.09.07.14.11 3.23 2.49 6.69 4.76 10.59 6.94l.22.12c1.55.8 3.09 1.6 4.6 2.39.15.07.29.15.44.21l2.3 1.03 2.13.95.12.06c6.39 2.73 12.13 4.59 16.4 5.91l.09.03c3.63 1.07 6.83 1.95 9.37 2.59 15.45 10.49 33.87 16.02 53.38 16.02 19.25 0 37.48-5.4 52.82-15.65 2.91-.63 6.55-1.51 10.43-2.54 6.08-1.61 11.77-3.41 17.4-5.5.06-.02.12-.04.18-.07l.31-.12c3.17-1.26 6.44-2.56 10-4.36 4.28-2.1 7.9-4.23 11.37-6.7 1.77-1.153 3.45-2.602 4.94-3.89.38-.33.76-.66 1.13-.97l.24-.21c.98-.9 1.91-1.89 2.73-2.75l.37-.4c1.23-1.27 2.32-2.563 3.3-3.953 4.85-6.27 8.06-14.25 8.83-21.94 1.1-10.06-1.77-18.53-3.58-22.68-2.61-6.02-5.68-10.24-8.06-13.25l-.09-.11c-5.46-6.65-10.4-10.55-13.06-12.64l-.1-.08c-.91-.7-1.78-1.34-2.59-1.92-.21-.35-.42-.68-.64-1.01-.65-1-1.51-1.84-2.52-2.47-1.29-.81-2.8-2.03-3.59-2.87-.2-2.41-1.49-4.66-3.6-6.03-1.33-.87-2.86-1.31-4.38-1.31-.69 0-1.39.09-2.06.27-.73-.55-1.57-.98-2.49-1.25-.76-.23-1.53-.34-2.3-.34-.39 0-.78.03-1.16.08-.31-.88-.62-1.83-.94-2.82l-.27-.81c-.12-.54-.24-1.07-.37-1.6-.24-1.02-.48-1.98-.56-2.66-.01-.09-.02-.33-.02-.51-.01-.4-.03-.92-.08-1.51.01-.15.04-.41.06-.53.03-.28.06-.56.06-.85 0-.15.01-.29.02-.42 1.28-1.46 1.99-3.33 1.99-5.28v-.34c0-9.11-8.91-15.45-16.91-15.45-.15 0-.29 0-.43.01-3.88.1-7.88 1.67-10.95 4.29-3.64 3.102-5.65 7.39-5.53 11.77l.07 2.872c-4.42-2-9.02-3.66-13.79-4.98-.58-2.15-1.45-4.7-2.71-7.3-4.26-8.76-11.08-14.3-19.73-16.03-.52-.1-1.04-.15-1.57-.15z"/><path fill="#C69C6D" d="M218.96 135.59c0 17.4-15.388 27.11-29.306 28.578-17.303 1.822-13.188-14.105-13.188-31.506 0-17.394 5.316-31.5 22.707-31.5 17.4 0 19.788 17.037 19.788 34.428z"/><path fill="#A67C52" d="M176.428 126.747c2.865-3.88 5.768-7.525 9.04-11.042 1.667-1.727 3.403-3.42 5.464-4.884 2.063-1.36 4.514-2.87 7.768-2.63.785.07 1.588.3 2.316.56.488.17 1.21.46 1.826.78 1.22.63 2.39 1.43 3.426 2.4 2.115 1.92 3.588 4.51 4.45 7.19 1.67 5.42 1.382 11.01.202 16.44l-.086.39c-.676 3.11-3.742 5.07-6.842 4.4-3.102-.67-5.068-3.73-4.39-6.84.175-.83.544-1.6 1.022-2.24 2.318-3.07 3.828-7.01 3.55-10.7-.118-1.83-.687-3.57-1.753-5.03-.54-.72-1.2-1.36-1.97-1.92-.37-.27-.68-.49-1.25-.79-.34-.18-.64-.3-1.01-.37-1.42-.29-3.43.36-5.18 1.5-1.77 1.14-3.46 2.59-4.99 4.21-3.07 3.22-5.73 7.01-7.84 10.93l-.01.04c-.57 1.08-1.91 1.48-2.98.9-1.07-.57-1.48-1.9-.9-2.98.06-.1.12-.19.18-.27z"/><path fill="#C69C6D" d="M30.932 135.59c0 17.4 15.385 27.11 29.305 28.578 17.3 1.822 13.186-14.105 13.186-31.506 0-17.394-5.314-31.5-22.705-31.5-17.396 0-19.786 17.037-19.786 34.428z"/><path fill="#A67C52" d="M73.46 126.747c-2.862-3.88-5.767-7.525-9.036-11.042-1.67-1.727-3.406-3.42-5.467-4.884-2.063-1.36-4.514-2.87-7.766-2.63-.78.07-1.59.3-2.31.56-.49.17-1.21.46-1.83.78-1.22.63-2.39 1.43-3.42 2.4-2.11 1.92-3.59 4.51-4.45 7.19-1.66 5.42-1.38 11.01-.2 16.44l.09.39c.68 3.11 3.74 5.07 6.84 4.4 3.11-.67 5.07-3.73 4.4-6.84-.17-.83-.54-1.6-1.02-2.24-2.32-3.07-3.83-7.01-3.55-10.7.12-1.83.69-3.57 1.76-5.03.55-.72 1.21-1.36 1.98-1.92.37-.27.69-.49 1.26-.79.34-.18.65-.3 1.02-.37 1.43-.29 3.44.36 5.18 1.5 1.78 1.14 3.46 2.59 5 4.21 3.07 3.22 5.74 7.01 7.84 10.93l.02.04c.57 1.08 1.91 1.48 2.98.9 1.08-.57 1.48-1.9.91-2.98-.05-.1-.12-.19-.18-.27z"/><path fill="#082031" d="M206.04 137.97c0 38.948-35.888 70.513-80.165 70.513-44.27 0-80.162-31.564-80.162-70.512 0-38.93 35.893-70.5 80.162-70.5 44.277 0 80.166 31.57 80.166 70.5zm-60.778-68.348s-1.842-19.034-17.19-22.104c0 0-7.368.617 1.23 9.21 0 0-19.033-10.437-27.627-1.226 0 0-1.844 6.14 6.752 6.75 0 0-8.596-3.067-9.822 3.682-1.23 6.754 12.89 1.23 18.418 7.37"/><path fill="#082031" d="M214.916 101.343s.56.36 1.617 1.03c.943.63 2.156 1.492 3.672 2.648 2.992 2.36 7.113 5.69 11.824 11.44 2.33 2.95 4.85 6.54 6.99 11.49 2.11 4.85 3.74 11.54 2.96 18.66-.7 7.15-3.86 13.61-7.3 18.01-.87 1.24-1.76 2.27-2.65 3.18-.89.94-1.82 1.95-2.73 2.78-1.77 1.49-3.67 3.24-5.42 4.36-3.6 2.58-7.08 4.52-10.44 6.16-3.37 1.71-6.6 2.98-9.71 4.22-6.19 2.3-11.86 3.99-16.66 5.27-4.81 1.27-8.79 2.21-11.56 2.77l-4.37.95-8.43-31.54 3.74-1.34c2.41-.83 5.75-2.1 9.67-3.7 3.91-1.6 8.3-3.61 12.64-5.91 2.08-1.19 4.25-2.39 6.1-3.7 1.91-1.27 3.6-2.62 4.82-3.84.78-.62.96-1.15 1.49-1.66.17-.24.19-.42.32-.6.15-.2.21-.35.13-.4.1-.45-.67.32-.98 1.72-.32 1.38-.09 2.5-.21 2.62-.11.18-.54-.27-1.2-.81-1.4-1.14-3.43-2.46-4.81-3.19-.68-.36-1.24-.65-1.52-.76-.21-.1-.13-.03-.12-.01.02.02-.2-.09-.16-.07l22.25-39.7zM60.98 139.983c.057-.034-.2.13-.1.05.09-.07.186-.164.033-.084-.168.06-.568.29-1.057.6-.988.61-2.445 1.78-3.256 2.53-.44.37-.63.54-.71.25-.083-.26-.167-1.07-.483-1.65-.334-.61-.72-.71-.51-.11.047.53.807 1.62 1.81 2.79 1.097 1.19 2.53 2.48 4.157 3.74.863.62 1.72 1.26 2.57 1.87.95.59 1.887 1.19 2.807 1.77 3.79 2.32 7.77 4.32 11.27 5.96 3.56 1.6 6.58 2.92 8.77 3.76 2.17.87 3.41 1.37 3.41 1.37l-9.38 31.27-4.08-1c-2.59-.6-6.33-1.61-10.83-2.94-4.51-1.39-9.81-3.14-15.61-5.62l-4.43-1.99-4.61-2.4c-3.12-1.75-6.35-3.78-9.61-6.29-3.25-2.63-6.57-5.63-9.6-9.81-3.01-3.99-5.71-9.28-6.89-15.19-1.26-5.86-.92-11.96.31-16.93 1.22-5.03 3.13-9.07 5.02-12.28 3.85-6.48 7.62-10.31 10.37-13 1.39-1.34 2.54-2.33 3.45-3.06l1.6-1.24L61 139.96z"/><path fill="#B3B3B3" d="M190.025 139.938c0 28.94-28.594 52.406-63.87 52.406-35.267 0-63.86-23.467-63.86-52.406 0-28.953 28.594-52.423 63.86-52.423 35.277 0 63.87 23.47 63.87 52.423z"/><path fill="#999898" d="M126.156 194.8c-36.566 0-66.318-24.612-66.318-54.862 0-30.26 29.752-54.878 66.318-54.878 36.574 0 66.328 24.617 66.328 54.878 0 30.25-29.754 54.863-66.328 54.863zm0-104.828c-33.86 0-61.406 22.413-61.406 49.965 0 27.543 27.547 49.953 61.406 49.953 33.863 0 61.416-22.41 61.416-49.953 0-27.552-27.552-49.965-61.416-49.965z"/><path fill="#333" d="M128.12 177.674c-2.718 0-4.5-2.197-4.5-4.914v-34.38c0-2.712 1.782-4.91 4.5-4.91 2.714 0 4.5 2.198 4.5 4.91v34.38c0 2.717-1.786 4.914-4.5 4.914zm24.44.706h-49.116c-2.715 0-4.912-1.786-4.912-4.5s2.197-4.5 4.912-4.5h49.115c2.71 0 4.91 1.788 4.91 4.5s-2.2 4.5-4.91 4.5z"/><path fill="#fff" d="M178.79 121.257c0 14.15-11.47 25.624-25.618 25.624-14.15 0-25.617-11.47-25.617-25.62s11.467-25.62 25.617-25.62c14.148 0 25.617 11.47 25.617 25.62zm-53.602 0c0 14.15-11.467 25.624-25.615 25.624s-25.617-11.47-25.617-25.62 11.47-25.62 25.617-25.62 25.615 11.47 25.615 25.62z"/><path fill="#2974A7" d="M116.523 120.108c0 9.39-7.617 17.01-17.016 17.01-9.395 0-17.01-7.62-17.01-17.01 0-9.398 7.615-17.02 17.01-17.02 9.4 0 17.016 7.62 17.016 17.02z"/><circle fill="#fff" cx="91.105" cy="115.196" r="5.803"/><path fill="#fff" d="M103.303 121.457c0 1.5-1.227 2.722-2.73 2.722-1.505 0-2.73-1.23-2.73-2.73 0-1.52 1.226-2.73 2.73-2.73 1.503 0 2.73 1.21 2.73 2.72z"/><path fill="#2974A7" d="M170.123 120.108c0 9.39-7.62 17.01-17.014 17.01-9.4 0-17.02-7.62-17.02-17.01 0-9.398 7.61-17.02 17.01-17.02 9.39 0 17.01 7.62 17.01 17.02z"/><circle fill="#fff" cx="144.706" cy="115.196" r="5.804"/><path fill="#fff" d="M156.904 121.457c0 1.5-1.23 2.722-2.73 2.722s-2.73-1.23-2.73-2.73c0-1.52 1.228-2.73 2.73-2.73s2.73 1.21 2.73 2.72z"/><path fill="#2974A7" d="M137.728 134.115c0 3.262-4.355 5.904-9.73 5.904-5.364 0-9.726-2.65-9.726-5.91s4.36-5.91 9.727-5.91c5.37 0 9.72 2.64 9.72 5.9z"/><path fill="#C69C6D" d="M185.443 101.786s-.314-.488-.86-1.326c-.6-.948-1.4-2.276-2.224-3.805-.91-1.53-1.76-3.413-2.74-5.402-.92-2.026-1.8-4.254-2.65-6.495-.67-2.353-1.52-4.608-1.97-6.915-.21-1.16-.42-2.282-.61-3.346-.16-1.077-.45-2.035-.44-3.038-.11-3.95-.18-6.58-.18-6.58-.12-4.22 4.48-7.74 8.7-7.85 4.23-.12 9.12 3.22 9.12 7.44v.33l-1.3 1.31s-.66 1.69-.72 4.23c-.08.62-.17 1.38-.11 2.14.09.77.04 1.58.15 2.42.21 1.69.75 3.52 1.15 5.36.59 1.82 1.16 3.66 1.83 5.36.73 1.68 1.33 3.29 2.02 4.59.64 1.36 1.17 2.37 1.55 3.05.35.67.72 1.24.69 1.2 2.03 3.15 1.12 7.35-2.03 9.38-3.15 2.03-7.35 1.12-9.38-2.03l-.04-.05zm-3.968 10.777s-.533-.53-1.457-1.457c-.955-.95-2.418-2.297-4.203-3.85-3.596-3.082-8.666-6.895-13.986-9.84-2.68-1.427-5.37-2.707-7.91-3.607-1.28-.39-2.49-.94-3.65-1.16-1.16-.24-2.24-.6-3.23-.72-1.99-.28-3.61-.48-4.71-.4-1.1-.03-1.73-.04-1.73-.04l-.98-.02c-5.32-.11-9.53-4.51-9.43-9.81.11-5.32 4.5-9.54 9.81-9.43.29 0 .61.02.89.06l2.92.33c1.88.14 4.44.68 7.44 1.48 1.51.37 3.01 1.01 4.66 1.57 1.66.53 3.21 1.39 4.91 2.14 3.31 1.6 6.58 3.59 9.7 5.72 6.17 4.32 11.51 9.33 15.27 13.28 1.86 2 3.36 3.7 4.39 4.96 1.04 1.29 1.63 2.04 1.63 2.04 2.34 2.91 1.88 7.18-1.04 9.53-2.72 2.18-6.62 1.92-9.04-.49l-.32-.33z"/><path fill="#fff" d="M141.424 77.06c-3.252-1.37-6.91 1.188-7.824 4.657-.902 3.467 1.125 7.004 4.543 7.9 0 0 2.947.567 3.258-6.16 0 0 2.63-5.3.03-6.396zm46.2-10.83c-.13-3.53-3.56-5.895-6.677-5.376-3.12.522-5.174 3.76-4.6 7.24 0 0 .66 2.932 6.152.603 0 0 5.23.348 5.12-2.466z"/><path fill="#C69C6D" d="M180.668 127.83l-1.807-1.08c-1.09-.627-2.66-1.524-4.69-2.564-1.97-1.1-4.36-2.183-6.9-3.394-2.53-1.197-5.32-2.212-8.04-3.364-1.38-.458-2.77-.908-4.13-1.35-1.36-.407-2.68-.974-3.98-1.227-1.28-.28-2.52-.56-3.7-.82-1.17-.24-2.28-.57-3.28-.69-3.92-.35-6.52-.58-6.52-.58l-1.37-.12c-5.29-.46-9.21-5.14-8.74-10.44.47-5.29 5.15-9.21 10.44-8.74.36.03.72.08 1.06.16 0 0 3.63.73 9.08 1.83 1.33.33 2.64.86 4.09 1.33 1.43.49 2.93 1.02 4.49 1.56 1.57.52 3.01 1.31 4.56 1.98l4.64 2.12c2.94 1.65 5.95 3.16 8.61 4.8 2.65 1.65 5.15 3.14 7.18 4.58 2.05 1.37 3.79 2.63 5 3.52l1.79 1.36c2.99 2.27 3.58 6.53 1.32 9.52-2.11 2.78-5.95 3.49-8.88 1.74l-.18-.1z"/><path fill="#fff" d="M138.348 96.46c-3.256-1.367-6.914 1.195-7.82 4.66-.908 3.466 1.123 7.005 4.537 7.903 0 0 2.95.562 3.26-6.164 0 0 2.628-5.3.023-6.4z"/><path fill="#C69C6D" d="M188.47 141.416s-.618.604-1.704 1.66c-1.064 1.02-2.605 2.383-4.518 3.967-1.93 1.555-4.23 3.328-6.873 5.053-2.61 1.754-5.598 3.432-8.773 4.924-3.176 1.494-6.623 2.68-10.06 3.492-1.77.297-3.448.693-5.136.816-1.707.082-3.314.22-4.834.158-1.54-.154-2.955-.29-4.203-.414-1.25-.143-2.33-.527-3.23-.73l-2.8-.776c-5.12-1.42-8.12-6.725-6.7-11.846 1.42-5.125 6.72-8.12 11.84-6.703.31.09.61.186.9.3l1.14.446 1.18.455c.38.127.8.432 1.37.545.57.117 1.22.266 1.93.457.74.135 1.6.12 2.49.234.9.068 1.94-.092 2.99-.094 2.14-.25 4.54-.727 6.97-1.54 4.87-1.595 9.76-4.2 13.23-6.437 1.74-1.123 3.17-2.115 4.11-2.826.9-.69 1.42-1.092 1.42-1.092l.37-.285c2.97-2.28 7.23-1.71 9.5 1.26 2.1 2.757 1.77 6.617-.65 8.976z"/><path fill="#fff" d="M140.125 146.104c-3.256-1.373-6.916 1.193-7.828 4.662-.9 3.46 1.127 6.998 4.54 7.896 0 0 2.946.566 3.263-6.16 0 0 2.632-5.3.025-6.398z"/><path fill="#082031" d="M202.896 94.71s-1.627-1.503-2.006-4.983c0 0-4.102 4.947-2.096 9.307.115.25-7.145-7.173-7.275-7.062-3.57 2.93-1.14 10.076-1.14 10.076l-9.77-6.518s2.42 14.37 10.61 15.666l-16.53-5.417 5.44 10.81-9.59 5.63s4.75 7.27 9.43 5.22c0 0-5.64 2.21-5.76 6.85l7.93.95s-3.1 3.86-3.22 8.5l6.15-1.51-1.46 7.23 8.2-2.74 2.01 4.98 8.3-3.35 1.86 5.89 6.28-10.2s5.53-3.48 8.06-7.74c2.54-4.26 7.22-19.99-3.26-36.26 0 0-8.28-5.12-7.35-9.02l-4.85 3.66z"/><path fill="#C69C6D" d="M54.098 94.945c-.03.034.283-.568.55-1.276.304-.71.735-1.78 1.224-3.2.547-1.37.98-3.03 1.523-4.78.477-1.77.875-3.66 1.27-5.54.19-1.87.61-3.76.63-5.46.017-.85.026-1.67.042-2.45-.025-.77.12-1.54-.03-2.15l-.552-4.21-.168-1.27c-.557-4.19 2.395-8.04 6.586-8.59 4.188-.55 8.033 2.39 8.586 6.58l.03.36.55 6.55c.12.99-.07 1.98-.1 3.07-.08 1.07-.16 2.21-.24 3.39-.19 2.34-.79 4.68-1.2 7.09-.6 2.32-1.23 4.63-1.92 6.74-.76 2.08-1.4 4.04-2.13 5.66-.65 1.61-1.3 3.02-1.79 4.02-.45.9-.71 1.41-.71 1.41l-.04.07c-1.68 3.35-5.75 4.71-9.11 3.03-3.35-1.68-4.72-5.75-3.04-9.1zm10.442 5.83l1.913-.495c1.154-.304 2.844-.78 4.91-1.4 4.107-1.195 9.53-3.032 14.797-5.062 2.588-1.106 5.254-2.077 7.588-3.214 2.326-1.146 4.572-2.114 6.355-3.096l5.844-3.32.62-.352c4.624-2.627 10.507-1.014 13.134 3.617 2.63 4.624 1.01 10.504-3.61 13.132-.32.183-.69.36-1.02.502 0 0-2.98 1.253-7.44 3.136-2.23.896-4.86 1.687-7.65 2.66-2.79.96-5.8 1.675-8.79 2.537-6 1.526-12 2.785-16.54 3.54-2.24.392-4.17.697-5.55.89l-2.08.276c-3.71.5-7.14-2.11-7.63-5.826-.46-3.45 1.74-6.64 5.03-7.483l.16-.043z"/><path fill="#fff" d="M108.924 86.168c3.086-1.72 7.004.423 8.29 3.77 1.28 3.342-.347 7.082-3.647 8.352 0 0-2.863.88-3.918-5.767-.01 0-3.2-4.978-.73-6.355zM60.19 65.848c-.26-3.522 2.89-6.253 6.046-6.085 3.152.18 5.555 3.166 5.367 6.698 0 0-.334 2.98-6.053 1.28 0 0-5.16.92-5.36-1.88z"/><path fill="#C69C6D" d="M69.518 114.405s.83-.01 1.97-.126c1.163-.08 2.86-.24 4.985-.5 2.102-.2 4.537-.66 7.137-1.05 2.586-.49 5.318-1.09 8.008-1.73 2.62-.82 5.338-1.43 7.668-2.35 1.164-.46 2.287-.9 3.354-1.32 1.033-.45 2.123-.73 2.928-1.23 3.344-1.8 5.574-2.99 5.574-2.99l1.04-.56c4.692-2.51 10.534-.75 13.042 3.94 2.514 4.69.748 10.53-3.94 13.04-.323.17-.696.34-1.028.47 0 0-3.205 1.25-8.01 3.15-1.2.51-2.512.72-3.89 1.11-1.378.36-2.825.74-4.327 1.12-3 .76-6.2 1.11-9.38 1.69-3.18.36-6.35.67-9.31.87-2.97.1-5.71.28-8.08.22-2.34.01-4.37 1.16-5.82 1.08-1.36-.08-2.13 1.08-2.13 1.08h-.09c-3.75 0-6.61-4.62-6.4-8.36.2-3.58 3.15-7.55 6.67-7.61z"/><path fill="#fff" d="M114.12 105.114c3.083-1.72 7.003.422 8.288 3.77 1.28 3.344-.346 7.082-3.645 8.35 0 0-2.865.884-3.92-5.766 0 0-3.195-4.98-.724-6.354z"/><path fill="#C69C6D" d="M73.365 128.638c-.05-.02.805.194 1.828.306 1.035.15 2.568.35 4.564.493 1.94.237 4.242.187 6.666.27 1.22.058 2.457-.124 3.713-.164 1.252-.105 2.547-.09 3.79-.282 2.43-.51 4.987-.64 7.112-1.36 1.064-.33 2.098-.65 3.07-.96.95-.34 1.947-.46 2.646-.95 2.994-1.6 4.97-2.53 4.97-2.53l1.554-.73c4.8-2.25 10.514-.18 12.766 4.62 2.248 4.8.182 10.51-4.617 12.76-.188.09-.402.18-.588.26 0 0-3.29 1.28-8.2 2.98-1.21.52-2.57.61-3.99.91-1.41.25-2.91.51-4.44.78-3.08.56-6.3.41-9.51.61-1.61.04-3.17-.15-4.73-.22-1.54-.12-3.09-.13-4.52-.37-2.9-.44-5.61-.75-7.87-1.3-2.25-.45-4.21-.95-5.61-1.35-1.43-.37-1.94-.59-2-.59-3.64-.93-5.82-4.63-4.89-8.26.93-3.63 4.63-5.81 8.26-4.88z"/><path fill="#fff" d="M114.574 125.358c3.086-1.72 7.002.424 8.29 3.772 1.28 3.338-.347 7.083-3.642 8.348 0 0-2.867.885-3.918-5.762 0 0-3.195-4.98-.73-6.358z"/><path fill="#082031" d="M48.145 95.834s1.455-1.67 1.45-5.172c0 0 4.618 4.462 3.106 9.016-.08.26 6.31-7.915 6.46-7.817 3.88 2.52 2.24 9.9 2.24 9.9l8.99-7.56s-.82 14.55-8.81 16.75l15.83-7.2-4.22 11.35 10.15 4.54s-3.92 7.77-8.8 6.23c0 0 5.84 1.59 6.47 6.19l-7.77 1.81s3.51 3.5 4.13 8.11l-6.27-.82 2.24 7.02-8.45-1.81-1.45 5.17-8.61-2.42-1.21 6.06-7.36-9.44s-5.87-2.84-8.87-6.79c-2.99-3.96-9.36-19.07-.74-36.4 0 0 7.67-6 6.32-9.77l5.22 3.1z"/></svg>