<?xml version="1.0" encoding="utf-8"?>
<!-- Generator: Adobe Illustrator 16.0.0, SVG Export Plug-In . SVG Version: 6.00 Build 0)  -->
<!DOCTYPE svg PUBLIC "-//W3C//DTD SVG 1.1//EN" "http://www.w3.org/Graphics/SVG/1.1/DTD/svg11.dtd">
<svg version="1.1" id="Layer_1" xmlns="http://www.w3.org/2000/svg" xmlns:xlink="http://www.w3.org/1999/xlink" x="0px" y="0px"
	 width="256px" height="256px" viewBox="0 0 256 256" enable-background="new 0 0 256 256" xml:space="preserve">
<path fill="#333333" d="M178.76,19.865c0.131,0,0.26,0.004,0.393,0.012c3.482,0.212,4.979,3.212,4.753,6.7L182.003,57.1
	c0.573,0.3,1.17,0.42,1.763,0.42c0.604,0,1.198-0.125,1.758-0.32c1.091-3.42,2.16-6.85,3.261-10.27
	c1.897-6.29,3.89-12.55,5.7-18.865c0.06-0.196,0.117-0.4,0.197-0.59c1.021-2.605,3.521-4.193,6.16-4.193
	c0.811,0,1.62,0.146,2.41,0.456c3.398,1.33,5.068,5.17,3.73,8.563c-2.394,6.12-4.623,12.3-6.94,18.45
	c-1.38,3.85-2.78,7.69-4.16,11.54l0.75,0.21c1.341-3.56,2.69-7.12,4.021-10.69c2.279-5.81,4.49-11.66,6.83-17.44
	c0.933-2.29,3.149-3.71,5.513-3.71c0.7,0,1.42,0.13,2.11,0.39c3.069,1.17,4.619,4.59,3.449,7.66c-2.22,5.83-4.57,11.62-6.859,17.43
	c-1.28,3.15-2.561,6.29-3.84,9.43l0.699,0.19l12.36-17.43c0.92-1.29,2.39-2,3.89-2c0.881,0,1.76,0.24,2.551,0.75
	c2.209,1.42,2.859,4.35,1.439,6.56L215.4,74.54c-0.285,1.088-0.681,2.315-1.229,3.69c0,0-1.457,4.24-2.939,7.465l-1.396,3.02
	c0,0-0.5,1.69-1.93,3.7c0.979,3.87,2.13,8.896,3.22,14.82c2.535,13.884,4.692,32.781,2.899,52.16
	c-0.399,4.836-1.159,9.688-2.049,14.44c-0.996,4.76-2.175,9.431-3.681,13.897c-1.5,4.457-3.217,8.729-5.19,12.64
	c-1.91,3.944-4.072,7.536-6.239,10.729c-0.11,0.166-0.22,0.313-0.33,0.477c1.55,3.359,2.13,6.68,0.899,9.561h-0.09
	c0.053,0.029,0.104,0.066,0.16,0.1l-22.672,6.262l-83.334,2l-24.8-8.279l-0.023,0.03c0,0-0.25-2.64,0.677-6.37
	c-0.92-1.189-1.84-2.47-2.747-3.83c-2.14-3.189-4.29-6.79-6.162-10.72c-1.955-3.92-3.642-8.19-5.112-12.64
	c-1.478-4.45-2.63-9.12-3.598-13.87c-0.86-4.75-1.588-9.591-1.96-14.41c-1.683-19.32,0.575-38.16,3.182-51.99
	c0.68-3.57,1.377-6.81,2.045-9.67c-5.334-3.01-6.825-8.11-6.825-8.11l-1.4-3.02c-1.49-3.22-2.95-7.46-2.95-7.46
	c-0.542-1.38-0.936-2.61-1.22-3.7L27.24,54.49c-1.416-2.214-0.768-5.15,1.436-6.56c0.79-0.503,1.674-0.744,2.548-0.744
	c1.498,0,2.966,0.706,3.888,2l12.36,17.424l0.7-0.19c-1.283-3.143-2.557-6.288-3.842-9.427c-2.284-5.813-4.636-11.597-6.86-17.437
	c-1.16-3.065,0.38-6.494,3.45-7.662c0.693-0.263,1.404-0.387,2.103-0.387c2.356,0,4.578,1.414,5.507,3.712
	c2.344,5.78,4.553,11.62,6.83,17.44c1.334,3.57,2.683,7.13,4.02,10.7l0.753-0.21c-1.377-3.85-2.782-7.69-4.16-11.54
	c-2.32-6.15-4.546-12.33-6.945-18.44c-1.336-3.4,0.34-7.23,3.736-8.57c0.793-0.31,1.61-0.46,2.414-0.46c2.64,0,5.13,1.59,6.147,4.19
	c0.08,0.19,0.146,0.4,0.2,0.59c1.815,6.31,3.795,12.58,5.697,18.87c1.094,3.42,2.167,6.85,3.256,10.27
	c0.56,0.19,1.156,0.32,1.76,0.32c0.59,0,1.188-0.12,1.76-0.42l-1.9-30.53c-0.226-3.48,4.38-6.49,7.867-6.7
	c0.133-0.01,0.27-0.02,0.407-0.02c3.454,0,8.246,2.57,8.246,5.92v0.21l-0.73,38.98c0.416-0.53,0.84-1.05,1.28-1.56
	c3.392-3.95,7.458-7.71,12.79-10.26c0.825-0.4,1.694-0.59,2.55-0.59c2.21,0,4.33,1.25,5.347,3.37c1.41,2.95,0.16,6.47-2.793,7.89
	c-0.036,0.01-0.104,0.04-0.144,0.06c-3.18,1.42-6.275,4.01-8.99,7.09c-1.37,1.54-2.654,3.21-3.84,4.96
	c-0.147,0.21-0.293,0.44-0.44,0.66c0.542,3.98-1.79,8.23-4.012,11.26c-0.994,1.66-2.226,3.04-3.582,4.16h-0.005
	c-1.69,1.4-3.56,2.42-5.38,3.17l-0.56,1.79c-1.02,3.4-2.35,8.37-3.65,14.4c3.06-3.53,7.16-4.78,12.45-4.78
	c10.83,0,26.66,5.23,48.69,6.87c0,0,19.109,0.27,22,10.5c0,0.01,0.01,0.02,0.02,0.02c0.561,0,9.26-16.85,9.71-16.85
	c0.01,0,0.01,0.01,0.01,0.03c0.351-0.01,0.7-0.02,1.04-0.02c6.43,0,10.9,2.26,13.98,5.39l-0.18-0.82
	c-1.381-6.09-2.73-11.11-3.801-14.52l-0.46-1.44c-2.91-0.63-6.81-1.93-10.04-4.61h-0.01l-0.02-0.03c-1.351-1.13-2.58-2.49-3.57-4.15
	c-2.23-3.03-4.551-7.28-4.01-11.26c-0.15-0.23-0.301-0.45-0.451-0.67c-1.189-1.76-2.469-3.43-3.84-4.97
	c-2.709-3.08-5.81-5.67-8.989-7.09l-0.14-0.06c-2.961-1.42-4.201-4.95-2.791-7.9c1.01-2.13,3.131-3.37,5.34-3.37
	c0.851,0,1.721,0.19,2.551,0.58c5.33,2.55,9.4,6.3,12.79,10.26c1.13,1.33,2.19,2.7,3.18,4.11l1.39-2.83l2.301-38.61v-0.22
	c0-3.35,1.899-5.93,5.14-5.93 M72.63,158.65c1.504-2.311,3.465-3.995,5.684-4.771c-1.947-3.853-4.42-9.487-5.64-15.18
	c-0.43,6.153-0.536,12.522-0.126,18.803c0.02,0.388,0.055,0.767,0.08,1.146 M188.296,158.6c0.021-0.381,0.05-0.75,0.07-1.131
	c0.329-5.71,0.239-11.48-0.13-17.09c-1.36,3.96-3,8.18-4.28,11.37l0.08,0.021l-0.82,2.31c1.96,0.85,3.7,2.42,5.06,4.51
	 M176.076,186.129c-0.16,0-0.311-0.02-0.46-0.029l-0.011,0.079c-0.029,3.351-0.399,6.36-1.029,9.091l4.1-3.9l0.01-0.02l0.01,0.01
	l0.011-0.01v0.02c0.05,0.04,0.489,0.38,1.19,0.97c0.39-0.78,0.77-1.58,1.14-2.42c0.7-1.521,1.36-3.14,1.96-4.819
	c-2.32,0.85-4.79,1.049-6.96,1.049 M83.436,196.459c1.14-0.54,2.35-1.061,3.65-1.55c-0.55-2.671-0.87-5.61-0.88-8.86V186
	c-0.17,0.04-0.35,0.07-0.53,0.09c-0.28,0.04-0.56,0.07-0.87,0.07c-2.12,0-4.53-0.19-6.8-0.99c0.62,1.689,1.29,3.32,2.01,4.85
	c1.05,2.36,2.22,4.5,3.4,6.461 M178.7,11.9c-3.96,0-7.49,1.64-9.95,4.6c-2.061,2.49-3.189,5.79-3.2,9.31L164.23,50
	c-2.15-1.59-4.381-2.925-6.74-4.053c-1.891-0.9-3.9-1.36-5.99-1.36c-5.33,0-10.26,3.106-12.561,7.91
	c-3.313,6.928-0.373,15.257,6.551,18.57c0.063,0.033,0.13,0.063,0.193,0.09c0.058,0.026,0.14,0.063,0.228,0.098
	c1.89,0.87,4.069,2.654,6.17,5.037c0.78,0.87,1.53,1.81,2.25,2.79c0.29,4.25,2.11,8.69,5.39,13.27c1.33,2.15,3,4.07,4.98,5.73
	c0.1,0.09,0.21,0.18,0.32,0.27c0.85,0.7,1.739,1.33,2.629,1.9c-3.59,0.747-5.289,3.77-6.699,6.26c-0.78,1.38-1.74,3.146-2.77,5.02
	c-7.83-4.55-17.82-5.06-20.15-5.12c-11.05-0.83-20.42-2.592-28.7-4.15c-7.05-1.324-13.23-2.49-18.71-2.69
	c0.19-0.146,0.37-0.29,0.54-0.438l0.03-0.026c2.04-1.69,3.76-3.667,5.13-5.875c3.3-4.58,5.11-9.027,5.4-13.275
	c0.72-0.982,1.47-1.904,2.22-2.753c2.12-2.41,4.31-4.19,6.18-5.05l0.12-0.053c0.11-0.04,0.21-0.09,0.31-0.14
	c6.92-3.32,9.86-11.64,6.55-18.56c-2.3-4.81-7.23-7.92-12.56-7.92c-2.09,0-4.11,0.46-6,1.37c-0.77,0.37-1.53,0.76-2.28,1.18
	l0.4-20.97v-0.36c0-8.2-8.56-13.92-16.24-13.92c-0.31,0-0.61,0.01-0.9,0.03c-4.42,0.27-9.02,2.53-11.99,5.9
	c-0.6,0.68-1.12,1.4-1.57,2.15c-2.7-2.93-6.53-4.66-10.72-4.66c-1.83,0-3.62,0.34-5.33,1.01c-3.15,1.24-5.71,3.47-7.36,6.36
	c-1.5,0.06-2.98,0.36-4.4,0.9c-6.18,2.35-9.73,8.65-8.87,14.94c-1.71,0.27-3.36,0.9-4.84,1.84c-2.87,1.84-4.86,4.68-5.59,8.01
	c-0.73,3.33-0.12,6.74,1.72,9.61l12.73,19.91c0.31,1.03,0.68,2.09,1.1,3.17c0.31,0.87,1.71,4.84,3.19,8.04l1.23,2.66
	c0.56,1.55,2.1,5.04,5.35,8.3c-0.35,1.65-0.69,3.32-1.01,5c-3.64,19.28-4.74,37.489-3.3,54.14c0.35,4.53,1.01,9.36,2.06,15.19
	l0.03,0.17c1.14,5.608,2.4,10.448,3.85,14.8c1.65,5.01,3.51,9.6,5.52,13.63c1.86,3.88,4.05,7.7,6.71,11.681
	c0.3,0.439,0.6,0.89,0.91,1.34c-0.34,2.779-0.2,4.699-0.15,5.18c0.27,2.85,2.04,5.32,4.62,6.51l24.2,13.813
	c1.21,0.689,2.58,1.06,3.97,1.06h85.04c1.6,0,3.15-0.479,4.48-1.37l20.949-14.158c1.78-1.199,2.98-3.05,3.381-5.119
	c0.979-3.141,1-6.51,0.049-10.09c1.84-2.91,3.471-5.841,4.871-8.73c2.029-4.03,3.909-8.61,5.6-13.641
	c1.48-4.359,2.76-9.209,3.93-14.81l0.03-0.16c1.09-5.819,1.78-10.659,2.159-15.21c1.541-16.689,0.531-34.96-3-54.29
	c-0.77-4.17-1.619-8.24-2.549-12.15c0.379-0.79,0.649-1.47,0.83-1.96l1.219-2.63c1.48-3.2,2.871-7.15,3.181-8.04
	c0.42-1.07,0.79-2.12,1.11-3.15L235.52,58c3.78-5.917,2.051-13.815-3.859-17.606c-1.49-0.95-3.141-1.58-4.86-1.85
	c0.86-6.3-2.69-12.58-8.87-14.93c-1.41-0.54-2.89-0.84-4.399-0.9c-1.645-2.89-4.21-5.12-7.351-6.35c-1.72-0.67-3.51-1.01-5.33-1.01
	c-3.93,0-7.56,1.53-10.229,4.15c-0.544-1.22-1.261-2.33-2.12-3.31c-2.22-2.52-5.359-4.02-8.833-4.23
	c-0.29-0.024-0.59-0.033-0.88-0.033L178.7,11.9L178.7,11.9z"/>
<path fill="#031119" d="M178.744,191.35c0,0,23.563,18.342,18.688,29.78l-13.382-0.257l-8.33-21.385L178.744,191.35z
	 M66.682,221.234c0,0-1.747-18.067,20.472-26.326C109.374,186.648,66.682,221.234,66.682,221.234z"/>
<path fill="#FFDDBB" d="M81.76,92.726l-0.422,1.25c-0.284,0.9-0.698,2.23-1.22,3.913c-1.023,3.44-2.38,8.47-3.688,14.59
	c-2.618,12.2-4.925,28.9-3.875,45.02c0.21,4.03,0.73,7.99,1.326,11.851c0.7,3.81,1.51,7.529,2.58,10.979
	c1.06,3.46,2.26,6.72,3.64,9.64c1.33,2.971,2.84,5.61,4.33,7.971c1.48,2.369,3.05,4.379,4.47,6.119c1.43,1.74,2.86,3.101,3.93,4.32
	l3.79,3.42l-14.56,18.09l-5.37-4.63c-1.56-1.63-3.58-3.51-5.63-5.89c-2.05-2.4-4.29-5.16-6.43-8.38c-2.14-3.2-4.29-6.8-6.16-10.74
	c-1.96-3.94-3.65-8.19-5.12-12.649c-1.47-4.461-2.63-9.131-3.59-13.881c-0.86-4.75-1.59-9.59-1.96-14.41
	c-1.68-19.33,0.58-38.16,3.18-51.99c1.32-6.93,2.71-12.63,3.8-16.66l1.36-4.72l0.57-1.78l25.07,8.53l-0.021,0.03L81.76,92.726z
	 M205.512,83.932l0.551,1.8c0.31,1.1,0.77,2.707,1.34,4.756c1.076,4.053,2.439,9.788,3.725,16.747
	c2.536,13.882,4.691,32.781,2.9,52.16c-0.398,4.834-1.158,9.687-2.053,14.44c-0.994,4.76-2.173,9.431-3.678,13.896
	c-1.5,4.48-3.217,8.73-5.189,12.65c-1.91,3.939-4.073,7.54-6.24,10.73c-2.153,3.22-4.408,5.97-6.479,8.359
	c-2.08,2.37-4.109,4.24-5.68,5.86l-5.4,4.601l-14.56-18.08c0,0,1.38-1.25,3.771-3.451c1.06-1.219,2.479-2.58,3.899-4.34
	c1.41-1.76,2.96-3.77,4.42-6.149c1.47-2.36,2.96-5.011,4.271-7.97c1.359-2.94,2.529-6.2,3.55-9.66c1.04-3.45,1.83-7.15,2.5-10.971
	c0.569-3.85,1.06-7.789,1.239-11.81c0.951-16.069-1.459-32.7-4.149-44.85c-1.34-6.08-2.729-11.1-3.76-14.51
	c-0.53-1.67-0.95-2.99-1.24-3.88l-0.431-1.229l26.73-9.07l-0.05-0.02h0.01L205.512,83.932z"/>
<path fill="#082031" d="M66.7,221.21l20.065-24.407l17.07,9.072l66.649-6.666l8.281-7.859c0,0-1.631,17.739,18.731,29.869
	l-20.96,14.15H91.5L66.7,221.21L66.7,221.21z"/>
<path fill="#F4D1B0" d="M168.447,169.77c0,9.045,1.31,16.371,7.654,16.371c6.34,0,15.31-1.701,15.31-16.371
	c0-9.037-5.13-16.362-11.47-16.362s-11.48,7.325-11.48,16.364l-0.01-0.002H168.447z"/>
<path fill="#C69C6D" d="M170.354,169.706c0.024-2.533,0.547-5.415,1.791-7.868c0.625-1.25,1.424-2.457,2.549-3.51
	c1.117-1.023,2.721-1.907,4.572-1.936c0.697,0.069,0.551,0.008,1.217,0.146c0.526,0.101,0.984,0.26,1.341,0.44
	c0.786,0.34,1.42,0.84,2.01,1.34c1.12,1.05,2.649,2.26,3.272,3.51c1.244,2.51,2.521,5.22,2.521,7.93v0.311
	c0,1.77-2.128,3.229-3.901,3.25c-1.771,0.02-3.591-1.41-3.61-3.18c0-0.131-0.175-0.281-0.164-0.4c0.2-1.79-0.048-3.73-0.625-5.37
	c-0.54-1.72-1.7-2.79-2-2.9c-0.19-0.104-0.73-0.077-1.36,0.345c-0.62,0.432-1.27,1.142-1.8,1.972c-1.08,1.729-1.728,3.67-1.978,6.01
	l-0.021,0.09c-0.11,1.04-1.05,1.8-2.093,1.69c-0.98-0.11-1.71-0.94-1.7-1.91l-0.01,0.046h-0.011V169.706z"/>
<path fill="#F4D1B0" d="M92.526,169.77c0,9.045-1.314,16.371-7.655,16.371c-6.34,0-15.3-1.701-15.3-16.371
	c0-9.037,5.13-16.362,11.47-16.362c6.35,0,11.49,7.325,11.49,16.364v-0.002H92.526z"/>
<path fill="#C69C6D" d="M90.618,169.706c-0.027-2.533-0.548-5.415-1.782-7.868c-0.636-1.25-1.428-2.457-2.554-3.51
	c-1.12-1.023-2.723-1.907-4.574-1.936c-0.7,0.069-0.555,0.008-1.214,0.146c-0.53,0.101-0.985,0.26-1.342,0.44
	c-0.79,0.34-1.417,0.84-2.008,1.34c-1.12,1.05-1.513,2.26-2.144,3.51c-1.245,2.51-1.382,5.22-1.382,7.93v0.311
	c0,1.77,0.995,3.229,2.767,3.25c1.774,0.02,3.023-1.41,3.052-3.18c0-0.131-0.12-0.281-0.13-0.4c-0.194-1.79-0.087-3.73,0.497-5.37
	c0.536-1.72,1.615-2.79,1.93-2.9c0.19-0.104,0.688-0.077,1.328,0.345c0.617,0.432,1.255,1.142,1.79,1.972
	c1.085,1.729,1.723,3.67,1.973,6.01l0.007,0.09c0.112,1.04,1.05,1.8,2.086,1.69c0.985-0.11,1.706-0.94,1.7-1.91V169.706z"/>
<path fill="#FFDDBB" d="M175.65,185.938c0,32.166-30.902,34.938-44.69,34.938c-15.688,0-44.69-2.771-44.69-34.938
	c0-32.162-3.322-73.455,44.69-73.455C179.454,112.483,175.65,153.773,175.65,185.938z"/>
<g>
	<path fill="#333333" d="M120.497,169.723c0,1.213,0.983,2.193,2.193,2.193l-0.001-0.007h-0.01c1.21,0,2.2-0.979,2.2-2.19
		c0-8.539-6.95-15.479-15.49-15.479c-8.55,0-15.5,6.944-15.5,15.483c0,1.213,0.981,2.193,2.193,2.193s2.194-0.98,2.194-2.193
		c0-6.119,4.984-11.1,11.114-11.1C115.514,158.623,120.497,163.604,120.497,169.723z"/>
	<path fill="#333333" d="M155.009,154.239c-8.55,0-15.5,6.944-15.5,15.483c0,1.213,0.99,2.193,2.2,2.193c1.221,0,2.2-0.98,2.2-2.193
		c0-6.119,4.989-11.1,11.12-11.1c6.119,0,11.109,4.98,11.109,11.1c0,1.213,0.981,2.193,2.193,2.193l-0.003-0.007h-0.03
		c1.21,0,2.2-0.979,2.2-2.19C170.499,161.18,163.559,154.239,155.009,154.239z"/>
	<path fill="#333333" d="M128.329,195.458c-1.007,0.312-1.555,1.385-1.243,2.382c0.254,0.813,1.014,1.33,1.814,1.33l-0.002-0.001
		v-0.021l-0.01-0.01c0.19,0,0.631-0.029,0.82-0.09c8.41-2.64,7.9-8.6,7.9-8.6v-22.817c0-1.048-1.09-1.896-2.141-1.896
		c-1.06,0-2.14,0.848-2.14,1.896l0.021,23.033C133.35,190.796,133.549,193.788,128.329,195.458z"/>
	<path fill="#333333" d="M148.65,199.698c-20.969,10.694-35.459,0.588-36.06,0.151c-0.86-0.615-2.04-0.425-2.66,0.42
		c-0.61,0.855-0.42,2.035,0.42,2.653c0.449,0.329,7.72,13.457,19.305,13.457h0.015l0.011,0.002h0.01l0.01,0.002
		c5.88,0,13.34-5.942,20.689-13.296c0.75-0.748,1.311-1.626,0.83-2.561C150.73,199.588,149.591,199.229,148.65,199.698z"/>
	<path fill="#333333" d="M190.859,130.082c0-5.532-3.169-23.249-21.525-22.582c-0.043-0.876-0.12-1.13-0.338-1.909
		c-2.855-10.22-32.166-14.66-32.166-14.66c-54.44-4.03-68.78,34.55-68.78,34.55c7.606-3.8,5.386-0.39,5.386-0.39
		c-5.318,10.64,4.96,29.261,7.182,33.06l5.812,16.791l9.26-21.611c4.115-1.361,8.626-1.68,13.16-1.247
		c2.563,0.22,5.133,1.08,7.663,1.79c2.494,0.713,5.05,3.507,7.29,3.507l-0.004-0.011v-0.01h0.1c0.864,0,1.934-0.57,2.454-1.41
		c0.56-0.881,0.291-2.82-0.597-3.381c-2.548-1.6-5.082-2.92-7.79-3.979c-2.694-1.03-5.492-2.08-8.378-2.61
		c-0.226-0.043-0.454-0.074-0.682-0.109c13.642-6.096,26.972-14.979,26.972-14.979l-13.944,14.26
		c20.187-1.34,32.74-9.819,38.36-14.67c0.37,4.36,1.16,10.211,2.836,15.371c-3.17-0.261-6.333-0.4-9.373,0.17
		c-2.885,0.539-5.68,1.819-8.37,2.85c-2.715,1.061-5.25,2.26-7.797,3.859v0.041c-0.818,0.52-1.133,1.59-0.683,2.47
		c0.476,0.93,1.616,1.3,2.55,0.83l0.088-0.061c2.238-1.13,4.795-2.1,7.298-2.81c2.526-0.7,5.093-1.23,7.66-1.46
		c4.024-0.39,8.038-0.101,11.771,0.93c0.067,0.101,0.14,0.2,0.209,0.29l9.426,22l8.142-23.13l-0.083-0.021
		c2.674-6.66,6.893-17.789,6.893-21.68V130.082z"/>
</g>
<path fill="#FFDDBB" d="M40.29,68.572c0,0-1.402,3.07,1.538,10.527c0,0,1.46,4.23,2.95,7.46l1.396,3.02c0,0,4.445,15.31,25.617,8.55
	c0,0,19.2-0.56,20.23-17.47L80.66,57.55L40.29,68.57V68.572z M79.838,85.807c0,0,0.413,6.838,6.21,7.126
	c0,0,11.558-10.977,6.33-18.808"/>
<path fill="#FFDDBB" d="M62.592,70.17c-2.115-6.218-4.406-12.37-6.62-18.555c-2.32-6.146-4.545-12.324-6.944-18.442
	c-1.336-3.398,0.34-7.23,3.736-8.563c3.4-1.332,7.236,0.338,8.56,3.735c0.08,0.195,0.147,0.398,0.2,0.592
	c1.817,6.314,3.797,12.577,5.698,18.867c2,6.255,3.924,12.535,6.02,18.756c0.994,2.94-0.586,6.135-3.532,7.127
	C66.777,74.673,63.59,73.103,62.592,70.17z M74.652,68.46L72.1,27.444c-0.225-3.48,4.38-6.482,7.868-6.696
	c3.47-0.217,8.653,2.428,8.653,5.907v0.212l-0.77,41.08c0.09,3.108-3.34,5.7-6.44,5.788c-3.04,0.084-6.56-2.263-6.75-5.274
	L74.652,68.46z M67.3,56.178c0,0,6.334,5.8,9.184-1.352l-2.068,11.897L67.3,56.178z M51.452,74.32
	c-2.447-5.748-4.757-11.552-7.122-17.326c-2.284-5.813-4.636-11.597-6.86-17.437c-1.16-3.065,0.38-6.494,3.45-7.662
	c3.028-1.148,6.405,0.345,7.61,3.325c2.344,5.788,4.553,11.63,6.83,17.44c2.187,5.853,4.44,11.68,6.557,17.553
	c1.054,2.925-0.463,6.143-3.388,7.194c-2.82,1.02-5.92-0.37-7.08-3.088L51.452,74.32z M46.715,84.956L27.238,54.492
	c-1.416-2.214-0.768-5.15,1.436-6.56c2.144-1.367,4.977-0.793,6.436,1.255L56.035,78.68c1.8,2.532,1.196,6.04-1.328,7.835
	c-2.538,1.8-6.05,1.207-7.845-1.33C46.816,85.118,46.752,85.03,46.715,84.956L46.715,84.956z"/>
<path fill="#E2AB74" d="M80.346,74.797"/>
<path fill="#FFDDBB" d="M80.678,77.308c1.244-2.558,2.46-4.614,3.87-6.802c1.395-2.15,2.927-4.226,4.62-6.218
	c3.393-3.95,7.46-7.71,12.79-10.255c2.954-1.413,6.485-0.16,7.897,2.787c1.41,2.95,0.16,6.482-2.793,7.898
	c-0.036,0.015-0.104,0.046-0.144,0.06c-3.18,1.42-6.275,4.007-8.99,7.093c-1.37,1.55-2.654,3.22-3.84,4.97
	c-1.166,1.71-2.346,3.69-3.174,5.32l-0.092,0.18c-1.41,2.79-4.813,3.9-7.6,2.49c-2.762-1.39-3.872-4.74-2.544-7.5v-0.02
	L80.678,77.308z"/>
<path fill="#FFFFFF" d="M104.97,65.526c0,0-0.61-2.503-2.313-2.94c0,0,1.973-2.88,4.106-2.334c2.128,0.554,2.173,2.542,2.173,2.542
	S107.628,64.604,104.97,65.526L104.97,65.526z"/>
<path fill="#FFDDBB" d="M215.714,67.7c0,0,1.402,3.067-1.548,10.526c0,0-1.458,4.242-2.943,7.463l-1.396,3.02
	c0,0-4.444,15.31-25.62,8.55c0,0-19.193-0.57-20.221-17.46l11.354-23.12l40.37,11.01l0.01,0.01L215.714,67.7L215.714,67.7z
	 M176.164,84.935c0,0-0.414,6.838-6.21,7.13c0,0-11.558-10.984-6.33-18.808"/>
<path fill="#FFDDBB" d="M193.408,69.3c2.113-6.215,4.406-12.372,6.619-18.556c2.317-6.148,4.543-12.328,6.942-18.442
	c1.335-3.395-0.34-7.233-3.729-8.563c-3.4-1.33-7.24,0.34-8.566,3.72c-0.076,0.19-0.145,0.39-0.197,0.59
	c-1.813,6.31-3.8,12.57-5.696,18.86c-2.005,6.26-3.923,12.54-6.021,18.76c-0.996,2.95,0.588,6.14,3.533,7.13
	c2.93,0.99,6.12-0.58,7.115-3.51l-0.01-0.01l0.01,0.01V69.3z M181.348,67.588l2.561-41.01c0.223-3.488-1.27-6.488-4.756-6.7
	c-3.479-0.217-5.529,2.426-5.529,5.91v0.214l-2.35,41.08c-0.09,3.1,1.787,5.692,4.89,5.78c3.04,0.088,5-2.26,5.19-5.274H181.348z
	 M188.7,55.303c0,0-6.33,5.802-9.183-1.35l2.069,11.897L188.7,55.303z M204.55,73.45c2.446-5.75,4.755-11.55,7.12-17.332
	c2.284-5.808,4.637-11.6,6.86-17.427c1.163-3.07-0.38-6.5-3.45-7.66c-3.025-1.15-6.402,0.34-7.609,3.32
	c-2.344,5.79-4.553,11.64-6.83,17.45c-2.188,5.85-4.44,11.67-6.561,17.55c-1.05,2.93,0.466,6.15,3.393,7.2
	c2.813,1.03,5.916-0.37,7.076-3.08L204.55,73.45L204.55,73.45z M209.284,84.085l19.479-30.465c1.41-2.208,0.768-5.146-1.439-6.56
	c-2.141-1.366-4.971-0.794-6.432,1.256l-20.931,29.49c-1.8,2.532-1.196,6.043,1.33,7.835c2.533,1.8,6.045,1.21,7.849-1.33
	c0.045-0.06,0.1-0.15,0.144-0.22V84.085z"/>
<path fill="#E2AB74" d="M175.652,73.926"/>
<path fill="#FFDDBB" d="M175.322,76.435c-1.243-2.553-2.457-4.615-3.868-6.803c-1.396-2.143-2.927-4.224-4.622-6.21
	c-3.391-3.957-7.454-7.715-12.788-10.26c-2.95-1.412-6.483-0.162-7.896,2.786c-1.41,2.948-0.166,6.483,2.789,7.896l0.146,0.06
	c3.181,1.424,6.272,4.01,8.99,7.09c1.37,1.545,2.649,3.218,3.837,4.973c1.17,1.705,2.35,3.677,3.18,5.314l0.1,0.18
	c1.41,2.79,4.82,3.9,7.601,2.49c2.76-1.39,3.88-4.74,2.55-7.51h-0.018V76.435z"/>
<path fill="#FFFFFF" d="M151.033,64.66c0,0,0.605-2.508,2.313-2.947c0,0-1.977-2.88-4.104-2.334c-2.131,0.55-2.18,2.54-2.18,2.54
	S148.372,63.729,151.033,64.66l0.009-0.001L151.033,64.66L151.033,64.66z"/>
<path fill="#333333" d="M179.694,147.952c-1.756-11.32-5.204-19.718-10.768-26.287c-6.727-7.937-16.112-12.585-28.533-14.091
	l1.126-0.563h-10.59c-28.313,0-44.264,13.414-48.688,40.987c-0.413-0.038-0.827-0.057-1.242-0.057
	c-9.516,0-16.97,9.606-16.97,21.869c0,12.651,6.001,20.262,16.966,21.646c1.354,13.396,7.807,23.133,19.205,28.96
	c7.893,4.04,17.941,6.004,30.719,6.004c29.908,0,47.542-12.44,49.903-35.097c10.359-1.691,16.027-9.251,16.027-21.504
	C196.85,157.482,189.258,147.824,179.694,147.952z M130.939,218.381c-28.37,0-42.17-10.593-42.19-32.382l-0.003-3.06l-2.997,0.612
	c-0.331,0.067-0.616,0.099-0.9,0.099c-6.334,0-12.81-1.647-12.81-13.869c0-7.513,4.107-13.86,8.97-13.86
	c1.449,0,2.871,0.574,4.227,1.708l3.667,3.065l0.427-4.76c1.815-20.236,8.177-40.924,41.601-40.924v-2.5l0.032-0.029v2.5
	c33.441,0,39.809,20.321,41.628,40.198l0.383,4.188l3.496-2.337c1.118-0.747,2.282-1.126,3.461-1.126
	c4.861,0,8.969,6.351,8.969,13.867c0,12.222-6.476,13.869-12.798,13.869l-2.963-0.196l-0.009,2.658
	C173.038,212.781,150.136,218.381,130.939,218.381z"/>
</svg>
