<svg xmlns="http://www.w3.org/2000/svg" width="256" height="256" viewBox="0 0 256 256"><path fill="#333" d="M178.76 19.865c.13 0 .26.004.393.012 3.482.212 4.978 3.212 4.752 6.7L182.003 57.1c.573.3 1.17.42 1.763.42.604 0 1.198-.125 1.758-.32 1.09-3.42 2.16-6.85 3.26-10.27 1.898-6.29 3.89-12.55 5.7-18.865.06-.196.118-.4.198-.59 1.02-2.605 3.52-4.193 6.16-4.193.81 0 1.62.146 2.41.456 3.398 1.33 5.068 5.17 3.73 8.563-2.393 6.12-4.623 12.3-6.94 18.45-1.38 3.85-2.78 7.69-4.16 11.54l.75.21c1.34-3.56 2.69-7.12 4.02-10.69 2.28-5.81 4.49-11.66 6.83-17.44.933-2.29 3.15-3.71 5.513-3.71.7 0 1.42.13 2.11.39 3.07 1.17 4.62 4.59 3.45 7.66-2.22 5.83-4.57 11.62-6.86 17.43-1.28 3.15-2.56 6.29-3.84 9.43l.7.19 12.36-17.43c.92-1.29 2.39-2 3.89-2 .88 0 1.76.24 2.55.75 2.21 1.42 2.86 4.35 1.44 6.56L215.4 74.54c-.285 1.088-.68 2.315-1.228 3.69 0 0-1.457 4.24-2.94 7.465l-1.396 3.02s-.5 1.69-1.93 3.7c.98 3.87 2.13 8.896 3.22 14.82 2.535 13.884 4.692 32.78 2.9 52.16-.4 4.836-1.16 9.688-2.05 14.44-.996 4.76-2.174 9.43-3.68 13.897-1.5 4.457-3.217 8.73-5.19 12.64-1.91 3.944-4.073 7.536-6.24 10.73-.11.165-.22.312-.33.476 1.55 3.36 2.13 6.68.9 9.56h-.09c.052.03.103.067.16.1l-20.96 14.153H91.5l-24.8-14.17-.023.03s-.25-2.64.677-6.37c-.92-1.19-1.84-2.47-2.747-3.83-2.14-3.19-4.29-6.79-6.162-10.72-1.955-3.92-3.642-8.19-5.112-12.64-1.478-4.45-2.63-9.12-3.598-13.87-.86-4.75-1.588-9.59-1.96-14.41-1.683-19.32.575-38.16 3.182-51.99.68-3.57 1.377-6.81 2.045-9.67-5.334-3.01-6.825-8.11-6.825-8.11l-1.4-3.02c-1.49-3.22-2.95-7.46-2.95-7.46-.542-1.38-.936-2.61-1.22-3.7L27.24 54.49c-1.416-2.214-.768-5.15 1.436-6.56.79-.503 1.674-.744 2.548-.744 1.498 0 2.966.706 3.888 2l12.36 17.424.7-.19c-1.283-3.143-2.557-6.288-3.842-9.427-2.284-5.813-4.636-11.597-6.86-17.437-1.16-3.065.38-6.494 3.45-7.662.693-.263 1.404-.387 2.103-.387 2.356 0 4.578 1.414 5.507 3.712 2.344 5.78 4.553 11.62 6.83 17.44 1.334 3.57 2.683 7.13 4.02 10.7l.753-.21c-1.377-3.85-2.782-7.69-4.16-11.54-2.32-6.15-4.546-12.33-6.945-18.44-1.336-3.4.34-7.23 3.736-8.57.793-.31 1.61-.46 2.414-.46 2.64 0 5.13 1.59 6.147 4.19.08.19.146.4.2.59 1.815 6.31 3.795 12.58 5.697 18.87 1.094 3.42 2.167 6.85 3.256 10.27.56.19 1.156.32 1.76.32.59 0 1.188-.12 1.76-.42l-1.9-30.53c-.226-3.48 4.38-6.49 7.867-6.7.133-.01.27-.02.407-.02 3.454 0 8.246 2.57 8.246 5.92v.21l-.73 38.98c.416-.53.84-1.05 1.28-1.56 3.392-3.95 7.458-7.71 12.79-10.26.825-.4 1.694-.59 2.55-.59 2.21 0 4.33 1.25 5.347 3.37 1.41 2.95.16 6.47-2.793 7.89-.036.01-.104.04-.144.06-3.18 1.42-6.275 4.01-8.99 7.09-1.37 1.54-2.654 3.21-3.84 4.96-.147.21-.293.44-.44.66.542 3.98-1.79 8.23-4.012 11.26-.994 1.66-2.226 3.04-3.582 4.16h-.005c-1.69 1.4-3.56 2.42-5.38 3.17l-.56 1.79c-1.02 3.4-2.35 8.37-3.65 14.4 3.06-3.53 7.16-4.78 12.45-4.78 10.83 0 26.66 5.23 48.69 6.87 0 0 19.11.27 22 10.5 0 .01.01.02.02.02.56 0 9.26-16.85 9.71-16.85.01 0 .01.01.01.03.35-.01.7-.02 1.04-.02 6.43 0 10.9 2.26 13.98 5.39l-.18-.82c-1.38-6.09-2.73-11.11-3.8-14.52l-.46-1.44c-2.91-.63-6.81-1.93-10.04-4.61h-.01l-.02-.03c-1.35-1.13-2.58-2.49-3.57-4.15-2.23-3.03-4.55-7.28-4.01-11.26-.15-.23-.3-.45-.45-.67-1.19-1.76-2.47-3.43-3.84-4.97-2.71-3.08-5.81-5.67-8.99-7.09l-.14-.06c-2.96-1.42-4.2-4.95-2.79-7.9 1.01-2.13 3.13-3.37 5.34-3.37.85 0 1.72.19 2.55.58 5.33 2.55 9.4 6.3 12.79 10.26 1.13 1.33 2.19 2.7 3.18 4.11l1.39-2.83 2.3-38.61v-.22c0-3.35 1.9-5.93 5.14-5.93M72.63 158.65c1.504-2.31 3.465-3.995 5.684-4.77-1.947-3.853-4.42-9.488-5.64-15.18-.43 6.154-.536 12.522-.126 18.803.02.387.055.766.08 1.146m115.668-.05c.02-.38.05-.75.07-1.13.33-5.71.24-11.48-.13-17.09-1.36 3.96-3 8.18-4.28 11.37l.08.02-.82 2.31c1.96.85 3.7 2.42 5.06 4.51m-12.2 27.54c-.16 0-.31-.02-.46-.03l-.01.08c-.03 3.35-.4 6.36-1.03 9.09l4.1-3.9.01-.02.01.01.01-.01v.02c.05.04.49.38 1.19.97.39-.78.77-1.58 1.14-2.42.7-1.52 1.36-3.14 1.96-4.82-2.32.85-4.79 1.05-6.96 1.05m-92.6 10.31c1.14-.54 2.35-1.06 3.65-1.55-.55-2.67-.87-5.61-.88-8.86V186c-.17.04-.35.07-.53.09-.28.04-.56.07-.87.07-2.12 0-4.53-.19-6.8-.99.62 1.69 1.29 3.32 2.01 4.85 1.05 2.36 2.22 4.5 3.4 6.46M178.7 11.9c-3.96 0-7.49 1.64-9.95 4.6-2.06 2.49-3.19 5.79-3.2 9.31L164.23 50c-2.15-1.59-4.38-2.925-6.74-4.053-1.89-.9-3.9-1.36-5.99-1.36-5.33 0-10.26 3.106-12.56 7.91-3.314 6.928-.374 15.257 6.55 18.57.064.033.13.063.193.09.058.026.14.063.228.098 1.89.87 4.07 2.654 6.17 5.037.78.87 1.53 1.81 2.25 2.79.29 4.25 2.11 8.69 5.39 13.27 1.33 2.15 3 4.07 4.98 5.73.1.09.21.18.32.27.85.7 1.74 1.33 2.63 1.9-3.59.747-5.29 3.77-6.7 6.26-.78 1.38-1.74 3.146-2.77 5.02-7.83-4.55-17.82-5.06-20.15-5.12-11.05-.83-20.42-2.592-28.7-4.15-7.05-1.324-13.23-2.49-18.71-2.69.19-.146.37-.29.54-.438l.03-.026c2.04-1.69 3.76-3.667 5.13-5.875 3.3-4.58 5.11-9.027 5.4-13.275.72-.982 1.47-1.904 2.22-2.753 2.12-2.41 4.31-4.19 6.18-5.05l.12-.053c.11-.04.21-.09.31-.14 6.92-3.32 9.86-11.64 6.55-18.56-2.3-4.81-7.23-7.92-12.56-7.92-2.09 0-4.11.46-6 1.37-.77.37-1.53.76-2.28 1.18l.4-20.97v-.36c0-8.2-8.56-13.92-16.24-13.92-.31 0-.61.01-.9.03-4.42.27-9.02 2.53-11.99 5.9-.6.68-1.12 1.4-1.57 2.15-2.7-2.93-6.53-4.66-10.72-4.66-1.83 0-3.62.34-5.33 1.01-3.15 1.24-5.71 3.47-7.36 6.36-1.5.06-2.98.36-4.4.9-6.18 2.35-9.73 8.65-8.87 14.94-1.71.27-3.36.9-4.84 1.84-2.87 1.84-4.86 4.68-5.59 8.01-.73 3.33-.12 6.74 1.72 9.61l12.73 19.91c.31 1.03.68 2.09 1.1 3.17.31.87 1.71 4.84 3.19 8.04l1.23 2.66c.56 1.55 2.1 5.04 5.35 8.3-.35 1.65-.69 3.32-1.01 5-3.64 19.28-4.74 37.49-3.3 54.14.35 4.53 1.01 9.36 2.06 15.19l.03.17c1.14 5.608 2.4 10.448 3.85 14.8 1.65 5.01 3.51 9.6 5.52 13.63 1.86 3.88 4.05 7.7 6.71 11.68.3.44.6.89.91 1.34-.34 2.78-.2 4.7-.15 5.18.27 2.85 2.04 5.32 4.62 6.51l24.2 13.812c1.21.69 2.58 1.06 3.97 1.06h85.04c1.6 0 3.15-.48 4.48-1.37l20.95-14.158c1.78-1.2 2.98-3.05 3.38-5.12.98-3.14 1-6.51.05-10.09 1.84-2.91 3.47-5.84 4.87-8.73 2.03-4.03 3.91-8.61 5.6-13.64 1.48-4.36 2.76-9.21 3.93-14.81l.03-.16c1.09-5.82 1.78-10.66 2.16-15.21 1.54-16.69.53-34.96-3-54.29-.77-4.17-1.62-8.24-2.55-12.15.38-.79.65-1.47.83-1.96l1.22-2.63c1.48-3.2 2.87-7.15 3.18-8.04.42-1.07.79-2.12 1.11-3.15L235.52 58c3.78-5.917 2.05-13.815-3.86-17.606-1.49-.95-3.14-1.58-4.86-1.85.86-6.3-2.69-12.58-8.87-14.93-1.41-.54-2.89-.84-4.4-.9-1.644-2.89-4.21-5.12-7.35-6.35-1.72-.67-3.51-1.01-5.33-1.01-3.93 0-7.56 1.53-10.23 4.15-.544-1.22-1.26-2.33-2.12-3.31-2.22-2.52-5.36-4.02-8.833-4.23-.29-.024-.59-.033-.88-.033l-.087-.03z"/><path fill="#031119" d="M178.744 191.35s23.563 18.342 18.688 29.78l-13.382-.257-8.33-21.385 3.024-8.138zM66.682 221.234s-1.747-18.067 20.472-26.326c22.22-8.26-20.472 26.326-20.472 26.326z"/><path fill="#fdb" d="M81.76 92.726l-.422 1.25c-.284.9-.698 2.23-1.22 3.913-1.023 3.44-2.38 8.47-3.688 14.59-2.618 12.2-4.925 28.9-3.875 45.02.21 4.03.73 7.99 1.326 11.85.7 3.81 1.51 7.53 2.58 10.98 1.06 3.46 2.26 6.72 3.64 9.64 1.33 2.97 2.84 5.61 4.33 7.97 1.48 2.37 3.05 4.38 4.47 6.12 1.43 1.74 2.86 3.1 3.93 4.32l3.79 3.42-14.56 18.09-5.37-4.63c-1.56-1.63-3.58-3.51-5.63-5.89-2.05-2.4-4.29-5.16-6.43-8.38-2.14-3.2-4.29-6.8-6.16-10.74-1.96-3.94-3.65-8.19-5.12-12.65-1.47-4.46-2.63-9.13-3.59-13.88-.86-4.75-1.59-9.59-1.96-14.41-1.68-19.33.58-38.16 3.18-51.99 1.32-6.93 2.71-12.63 3.8-16.66l1.36-4.72.57-1.78 25.07 8.53-.02.03zm123.752-8.794l.55 1.8c.31 1.1.77 2.707 1.34 4.756 1.077 4.053 2.44 9.788 3.725 16.747 2.536 13.882 4.692 32.78 2.9 52.16-.398 4.834-1.158 9.686-2.052 14.44-.994 4.76-2.173 9.43-3.678 13.896-1.5 4.48-3.217 8.73-5.19 12.65-1.91 3.94-4.073 7.54-6.24 10.73-2.153 3.22-4.408 5.97-6.478 8.36-2.08 2.37-4.11 4.24-5.68 5.86l-5.4 4.6-14.56-18.08s1.38-1.25 3.77-3.45c1.06-1.22 2.48-2.58 3.9-4.34 1.41-1.76 2.96-3.77 4.42-6.15 1.47-2.36 2.96-5.01 4.27-7.97 1.36-2.94 2.53-6.2 3.55-9.66 1.04-3.45 1.83-7.15 2.5-10.97.57-3.85 1.06-7.79 1.24-11.81.95-16.07-1.46-32.7-4.15-44.85-1.34-6.08-2.73-11.1-3.76-14.51-.53-1.67-.95-2.99-1.24-3.88l-.43-1.23 26.73-9.07-.05-.02h.01z"/><path fill="#082031" d="M66.7 221.21l20.065-24.407 17.07 9.072 66.65-6.666 8.28-7.86s-1.63 17.74 18.732 29.87l-20.96 14.15H91.5l-24.8-14.16z"/><path fill="#F4D1B0" d="M168.447 169.77c0 9.045 1.31 16.37 7.654 16.37 6.34 0 15.31-1.7 15.31-16.37 0-9.037-5.13-16.363-11.47-16.363s-11.48 7.326-11.48 16.365l-.01-.002z"/><path fill="#C69C6D" d="M170.354 169.706c.024-2.533.547-5.415 1.79-7.868.626-1.25 1.425-2.457 2.55-3.51 1.117-1.023 2.72-1.907 4.572-1.936.697.07.55.008 1.217.146.526.1.984.26 1.34.44.787.34 1.42.84 2.01 1.34 1.12 1.05 2.65 2.26 3.273 3.51 1.244 2.51 2.52 5.22 2.52 7.93v.31c0 1.77-2.128 3.23-3.902 3.25-1.77.02-3.59-1.41-3.61-3.18 0-.13-.175-.28-.164-.4.2-1.79-.048-3.73-.625-5.37-.54-1.72-1.7-2.79-2-2.9-.19-.105-.73-.078-1.36.344-.62.432-1.27 1.142-1.8 1.972-1.08 1.73-1.728 3.67-1.978 6.01l-.02.09c-.11 1.04-1.05 1.8-2.093 1.69-.98-.11-1.71-.94-1.7-1.91l-.01.046h-.01v-.004z"/><path fill="#F4D1B0" d="M92.526 169.77c0 9.045-1.314 16.37-7.655 16.37-6.34 0-15.3-1.7-15.3-16.37 0-9.037 5.13-16.363 11.47-16.363 6.35 0 11.49 7.326 11.49 16.365v-.002z"/><path fill="#C69C6D" d="M90.618 169.706c-.027-2.533-.548-5.415-1.782-7.868-.636-1.25-1.428-2.457-2.554-3.51-1.12-1.023-2.723-1.907-4.574-1.936-.7.07-.555.008-1.214.146-.53.1-.985.26-1.342.44-.79.34-1.417.84-2.008 1.34-1.12 1.05-1.513 2.26-2.144 3.51-1.245 2.51-1.382 5.22-1.382 7.93v.31c0 1.77.995 3.23 2.767 3.25 1.774.02 3.023-1.41 3.052-3.18 0-.13-.12-.28-.13-.4-.194-1.79-.087-3.73.497-5.37.536-1.72 1.615-2.79 1.93-2.9.19-.105.688-.078 1.328.344.617.432 1.255 1.142 1.79 1.972 1.085 1.73 1.723 3.67 1.973 6.01l.007.09c.112 1.04 1.05 1.8 2.086 1.69.985-.11 1.706-.94 1.7-1.91v.042z"/><path fill="#fdb" d="M175.65 185.938c0 32.166-30.902 34.938-44.69 34.938-15.688 0-44.69-2.77-44.69-34.938 0-32.162-3.322-73.455 44.69-73.455 48.494 0 44.69 41.29 44.69 73.455z"/><path fill="#333" d="M122.69 171.916c-1.21 0-2.193-.98-2.193-2.193 0-6.12-4.983-11.1-11.107-11.1-6.13 0-11.114 4.98-11.114 11.1 0 1.213-.982 2.193-2.194 2.193s-2.193-.98-2.193-2.193c0-8.54 6.95-15.484 15.5-15.484 8.54 0 15.49 6.94 15.49 15.48 0 1.21-.99 2.19-2.2 2.19h.01zm45.642 0c-1.212 0-2.193-.98-2.193-2.193 0-6.12-4.99-11.1-11.11-11.1-6.13 0-11.12 4.98-11.12 11.1 0 1.213-.98 2.193-2.2 2.193-1.21 0-2.2-.98-2.2-2.193 0-8.54 6.95-15.484 15.5-15.484s15.49 6.94 15.49 15.48c0 1.21-.99 2.19-2.2 2.19h.03zM128.9 199.17c-.8 0-1.56-.518-1.814-1.33-.312-.997.236-2.07 1.243-2.382 5.22-1.67 5.02-4.662 5.02-4.793l-.02-23.033c0-1.048 1.08-1.896 2.14-1.896 1.05 0 2.14.848 2.14 1.896v22.817s.51 5.96-7.9 8.6c-.19.06-.63.09-.82.09l.01.01v.02zm.756 17.21c-11.585 0-18.856-13.128-19.305-13.457-.84-.618-1.03-1.798-.42-2.653.62-.845 1.8-1.035 2.66-.42.6.436 15.09 10.543 36.06-.152.94-.47 2.08-.11 2.57.83.48.934-.08 1.812-.83 2.56-7.35 7.354-14.81 13.296-20.69 13.296l-.01-.002h-.01l-.01-.002zm61.204-86.298c0-5.532-3.127-22.664-21.484-21.997-.043-.876-.162-1.715-.38-2.494-2.855-10.22-32.166-14.66-32.166-14.66-54.44-4.03-68.78 34.55-68.78 34.55 7.606-3.8 5.386-.39 5.386-.39-5.318 10.64 4.96 29.26 7.182 33.06l5.812 16.79 10.576-24.68c16.445-4.42 38.872-19.37 38.872-19.37l-13.944 14.26c20.187-1.34 32.74-9.82 38.36-14.67.37 4.36 1.16 10.21 2.836 15.37-3.17-.26-6.333-.4-9.373.17-2.885.54-5.68 1.82-8.37 2.85-2.715 1.06-5.25 2.26-7.797 3.86v.04c-.818.52-1.133 1.59-.683 2.47.476.93 1.616 1.3 2.55.83l.088-.06c2.238-1.13 4.795-2.1 7.298-2.81 2.526-.7 5.093-1.23 7.66-1.46 4.025-.39 8.038-.1 11.77.93.068.1.14.2.21.29l9.425 22 8.142-23.13-.083-.02c2.674-6.66 6.892-17.79 6.892-21.68zm-67.057 27.298c-2.24 0-4.796-2.794-7.29-3.507-2.53-.71-5.1-1.57-7.663-1.79-5.138-.49-10.248-.02-14.784 1.845-1.748.723-3.756-.2-4.476-1.953-.723-1.76.11-4.27 1.866-4.986.098-.04.2-.61.296-.61h.03c5.874 0 12.053-1.48 17.806-.4 2.886.53 5.684 1.58 8.378 2.61 2.708 1.06 5.242 2.38 7.79 3.98.888.56 1.157 2.5.597 3.38-.52.84-1.59 1.41-2.454 1.41h-.1v.01z"/><path fill="#fdb" d="M40.29 68.572s-1.402 3.07 1.538 10.527c0 0 1.46 4.23 2.95 7.46l1.396 3.02s4.445 15.31 25.617 8.55c0 0 19.2-.56 20.23-17.47L80.66 57.55 40.29 68.57v.002zm39.548 17.235s.413 6.838 6.21 7.126c0 0 11.558-10.977 6.33-18.808"/><path fill="#fdb" d="M62.592 70.17c-2.115-6.218-4.406-12.37-6.62-18.555-2.32-6.146-4.545-12.324-6.944-18.442-1.336-3.398.34-7.23 3.736-8.563 3.4-1.332 7.236.338 8.56 3.735.08.195.147.398.2.592 1.817 6.314 3.797 12.577 5.698 18.867 2 6.255 3.924 12.535 6.02 18.756.994 2.94-.586 6.135-3.532 7.127-2.933.986-6.12-.584-7.118-3.517zm12.06-1.71L72.1 27.444c-.225-3.48 4.38-6.482 7.868-6.696 3.47-.217 8.653 2.428 8.653 5.907v.212l-.77 41.08c.09 3.108-3.34 5.7-6.44 5.788-3.04.084-6.56-2.263-6.75-5.274zM67.3 56.178s6.334 5.8 9.184-1.352l-2.068 11.897L67.3 56.178zM51.452 74.32c-2.447-5.748-4.757-11.552-7.122-17.326-2.284-5.813-4.636-11.597-6.86-17.437-1.16-3.065.38-6.494 3.45-7.662 3.028-1.148 6.405.345 7.61 3.325 2.344 5.788 4.553 11.63 6.83 17.44 2.187 5.853 4.44 11.68 6.557 17.553 1.054 2.925-.463 6.143-3.388 7.194-2.82 1.02-5.92-.37-7.08-3.088zm-4.737 10.636L27.238 54.492c-1.416-2.214-.768-5.15 1.436-6.56 2.144-1.367 4.977-.793 6.436 1.255L56.035 78.68c1.8 2.532 1.196 6.04-1.328 7.835-2.538 1.8-6.05 1.207-7.845-1.33-.046-.067-.11-.155-.147-.23z"/><path fill="#E2AB74" d="M80.346 74.797"/><path fill="#fdb" d="M80.678 77.308c1.244-2.558 2.46-4.614 3.87-6.802 1.395-2.15 2.927-4.226 4.62-6.218 3.393-3.95 7.46-7.71 12.79-10.255 2.954-1.413 6.485-.16 7.897 2.787 1.41 2.95.16 6.482-2.793 7.898-.036.015-.104.046-.144.06-3.18 1.42-6.275 4.007-8.99 7.093-1.37 1.55-2.654 3.22-3.84 4.97-1.166 1.71-2.346 3.69-3.174 5.32l-.092.18c-1.41 2.79-4.813 3.9-7.6 2.49-2.762-1.39-3.872-4.74-2.544-7.5v-.02z"/><path fill="#fff" d="M104.97 65.526s-.61-2.503-2.313-2.94c0 0 1.973-2.88 4.106-2.334 2.128.554 2.173 2.542 2.173 2.542s-1.308 1.81-3.967 2.732z"/><path fill="#fdb" d="M215.714 67.7s1.402 3.067-1.548 10.526c0 0-1.458 4.242-2.943 7.463l-1.396 3.02s-4.444 15.31-25.62 8.55c0 0-19.193-.57-20.22-17.46l11.353-23.12 40.37 11.01.01.01h-.006zm-39.55 17.235s-.414 6.838-6.21 7.13c0 0-11.558-10.984-6.33-18.808"/><path fill="#fdb" d="M193.408 69.3c2.113-6.215 4.406-12.372 6.62-18.556 2.317-6.148 4.542-12.328 6.942-18.442 1.334-3.395-.34-7.233-3.73-8.563-3.4-1.33-7.24.34-8.566 3.72-.076.19-.145.39-.197.59-1.813 6.31-3.8 12.57-5.697 18.86-2.004 6.26-3.922 12.54-6.02 18.76-.996 2.95.588 6.14 3.533 7.13 2.93.99 6.12-.58 7.115-3.51l-.01-.01.01.01zm-12.06-1.712l2.56-41.01c.223-3.488-1.27-6.488-4.755-6.7-3.48-.217-5.53 2.426-5.53 5.91v.214l-2.35 41.08c-.09 3.1 1.788 5.692 4.89 5.78 3.04.088 5-2.26 5.19-5.274h-.005zm7.352-12.285s-6.33 5.802-9.183-1.35l2.07 11.897 7.113-10.547zm15.85 18.147c2.446-5.75 4.755-11.55 7.12-17.332 2.284-5.808 4.637-11.6 6.86-17.427 1.163-3.07-.38-6.5-3.45-7.66-3.025-1.15-6.402.34-7.61 3.32-2.343 5.79-4.552 11.64-6.83 17.45-2.187 5.85-4.44 11.67-6.56 17.55-1.05 2.93.466 6.15 3.393 7.2 2.813 1.03 5.916-.37 7.076-3.08v-.02zm4.734 10.635l19.48-30.465c1.41-2.208.767-5.146-1.44-6.56-2.14-1.366-4.97-.794-6.432 1.256l-20.93 29.49c-1.8 2.532-1.197 6.043 1.33 7.835 2.533 1.8 6.045 1.21 7.848-1.33.045-.06.1-.15.144-.22z"/><path fill="#E2AB74" d="M175.652 73.926"/><path fill="#fdb" d="M175.322 76.435c-1.243-2.553-2.457-4.615-3.868-6.803-1.396-2.143-2.927-4.224-4.622-6.21-3.39-3.957-7.454-7.715-12.788-10.26-2.95-1.412-6.483-.162-7.896 2.786-1.41 2.948-.166 6.483 2.79 7.896l.145.06c3.18 1.424 6.272 4.01 8.99 7.09 1.37 1.545 2.65 3.218 3.837 4.973 1.17 1.705 2.35 3.677 3.18 5.314l.1.18c1.41 2.79 4.82 3.9 7.6 2.49 2.76-1.39 3.88-4.74 2.55-7.51h-.018z"/><path fill="#fff" d="M151.033 64.66s.605-2.508 2.313-2.947c0 0-1.977-2.88-4.104-2.334-2.13.55-2.18 2.54-2.18 2.54s1.31 1.81 3.97 2.74h.01-.01z"/><path fill="#333" d="M130.962 112.482c33.487 0 42.033 19.692 44.117 42.47 1.47-.982 3.11-1.548 4.85-1.548 6.34 0 11.47 7.328 11.47 16.367 0 14.67-8.97 16.37-15.31 16.37-.16 0-.31-.02-.46-.03-.11 32-30.92 34.77-44.69 34.77-15.68 0-44.66-2.77-44.69-34.88-.44.09-.9.15-1.4.15-6.34 0-15.31-1.7-15.31-16.37 0-9.04 5.13-16.36 11.47-16.36 2.13 0 4.12.86 5.83 2.29 2.07-23.08 10.58-43.2 44.09-43.2m0-3c-35.63 0-44.12 22.46-46.59 41.44-1.09-.34-2.21-.51-3.34-.51-8.12 0-14.47 8.51-14.47 19.37 0 8.54 2.96 18.66 16.79 19.34.8 13.57 6.85 23.33 18.02 29.04 7.54 3.86 17.21 5.73 29.58 5.73 29.41 0 46.19-12.33 47.58-34.83 13.02-1.08 15.85-10.93 15.85-19.27 0-10.86-6.36-19.37-14.48-19.37-.78 0-1.55.08-2.31.24-1.56-12.03-4.95-20.81-10.54-27.41-7.84-9.25-19.66-13.75-36.13-13.75l.04-.02z"/></svg>