<?xml version="1.0" encoding="utf-8"?>
<!-- Generator: Adobe Illustrator 16.0.0, SVG Export Plug-In . SVG Version: 6.00 Build 0)  -->
<!DOCTYPE svg PUBLIC "-//W3C//DTD SVG 1.1//EN" "http://www.w3.org/Graphics/SVG/1.1/DTD/svg11.dtd">
<svg version="1.1" id="Layer_1" xmlns="http://www.w3.org/2000/svg" xmlns:xlink="http://www.w3.org/1999/xlink" x="0px" y="0px"
	 width="256px" height="256px" viewBox="0 0 256 256" enable-background="new 0 0 256 256" xml:space="preserve">
<path fill="#333333" d="M178.76,19.865c0.129,0,0.26,0.004,0.393,0.012c3.482,0.212,4.976,3.212,4.752,6.7L182.003,57.1
	c0.573,0.3,1.17,0.42,1.763,0.42c0.603,0,1.198-0.125,1.758-0.32c1.09-3.42,2.16-6.85,3.258-10.27c1.9-6.29,3.89-12.55,5.699-18.865
	c0.061-0.196,0.121-0.4,0.201-0.59c1.02-2.605,3.52-4.193,6.159-4.193c0.81,0,1.62,0.147,2.41,0.456
	c3.399,1.33,5.069,5.17,3.729,8.564c-2.39,6.114-4.619,12.294-6.939,18.442c-1.38,3.85-2.779,7.692-4.16,11.542l0.75,0.205
	c1.34-3.56,2.689-7.12,4.02-10.69c2.281-5.81,4.49-11.66,6.83-17.44c0.931-2.29,3.15-3.71,5.511-3.71c0.7,0,1.42,0.13,2.11,0.39
	c3.069,1.17,4.619,4.59,3.449,7.66c-2.22,5.83-4.57,11.62-6.859,17.43c-1.28,3.15-2.561,6.29-3.84,9.43l0.699,0.19l12.36-17.43
	c0.92-1.29,2.39-2,3.89-2c0.881,0,1.76,0.24,2.551,0.75c2.209,1.42,2.859,4.35,1.439,6.56L215.4,74.54
	c-0.285,1.088-0.68,2.315-1.226,3.69c0,0-1.457,4.24-2.942,7.465l-1.395,3.02c0,0-0.5,1.69-1.93,3.7
	c0.98,3.87,2.13,8.896,3.22,14.82c2.535,13.884,4.694,32.781,2.899,52.16c-0.399,4.836-1.159,9.686-2.049,14.44
	c-0.994,4.76-2.172,9.431-3.681,13.897c-1.5,4.457-3.214,8.729-5.19,12.641c-1.91,3.943-4.072,7.535-6.239,10.73
	c-0.11,0.164-0.22,0.313-0.33,0.475c1.55,3.359,2.13,6.68,0.899,9.561h-0.09c0.055,0.029,0.104,0.066,0.16,0.1l-20.958,14.152H91.5
	L66.7,221.22l-0.023,0.021c0,0-0.25-2.643,0.677-6.37c-0.92-1.203-1.84-2.47-2.747-3.834c-2.14-3.2-4.29-6.795-6.162-10.736
	c-1.955-3.927-3.642-8.19-5.112-12.647c-1.478-4.453-2.63-9.121-3.598-13.871c-0.86-4.75-1.588-9.59-1.96-14.41
	c-1.683-19.32,0.575-38.16,3.182-51.99c0.68-3.57,1.377-6.81,2.045-9.67c-5.334-3.01-6.825-8.11-6.825-8.11l-1.4-3.02
	c-1.49-3.22-2.95-7.46-2.95-7.46c-0.542-1.38-0.936-2.61-1.22-3.7L27.24,54.49c-1.416-2.214-0.768-5.15,1.436-6.56
	c0.79-0.503,1.674-0.744,2.548-0.744c1.498,0,2.966,0.706,3.888,2l12.36,17.424l0.7-0.19c-1.283-3.143-2.557-6.288-3.842-9.427
	c-2.284-5.813-4.636-11.597-6.86-17.437c-1.16-3.065,0.38-6.494,3.45-7.662c0.693-0.263,1.404-0.387,2.103-0.387
	c2.356,0,4.578,1.414,5.507,3.712c2.344,5.78,4.553,11.62,6.83,17.44c1.334,3.57,2.683,7.13,4.02,10.7l0.753-0.21
	c-1.377-3.85-2.782-7.69-4.16-11.54c-2.32-6.15-4.546-12.33-6.945-18.44c-1.336-3.4,0.34-7.23,3.736-8.57
	c0.793-0.31,1.61-0.46,2.414-0.46c2.64,0,5.13,1.59,6.147,4.19c0.08,0.19,0.146,0.4,0.2,0.59c1.815,6.31,3.795,12.58,5.697,18.87
	c1.094,3.42,2.167,6.85,3.256,10.27c0.56,0.19,1.156,0.32,1.76,0.32c0.59,0,1.188-0.12,1.76-0.42l-1.9-30.53
	c-0.226-3.48,4.38-6.49,7.867-6.7c0.133-0.01,0.27-0.02,0.407-0.02c3.454,0,8.246,2.57,8.246,5.92v0.21l-0.73,38.98
	c0.416-0.53,0.84-1.05,1.28-1.56c3.392-3.95,7.458-7.71,12.79-10.26c0.825-0.4,1.694-0.59,2.55-0.59c2.21,0,4.33,1.25,5.347,3.37
	c1.41,2.95,0.16,6.48-2.793,7.9c-0.036,0.01-0.104,0.04-0.144,0.06c-3.18,1.42-6.275,4.01-8.99,7.09
	c-1.37,1.54-2.654,3.21-3.84,4.96c-0.147,0.21-0.293,0.44-0.44,0.66c0.542,3.98-1.79,8.23-4.012,11.26
	c-0.994,1.66-2.226,3.04-3.582,4.16h-0.005c-1.69,1.4-3.56,2.42-5.38,3.17l-0.56,1.79c-1.02,3.4-2.35,8.37-3.65,14.4
	c3.06-3.53,7.16-4.78,12.45-4.78c10.83,0,26.66,5.23,48.69,6.87c0,0,19.139,0.27,22,10.5c0,0.01,0.01,0.02,0.02,0.02
	c0.561,0,9.26-16.85,9.71-16.85c0.01,0,0.01,0.01,0.01,0.03c0.351-0.01,0.7-0.02,1.04-0.02c6.43,0,10.9,2.26,13.98,5.39l-0.18-0.82
	c-1.351-6.09-2.73-11.11-3.771-14.52l-0.46-1.44c-2.91-0.63-6.811-1.93-10.04-4.61h-0.011l-0.02-0.03
	c-1.35-1.13-2.58-2.49-3.57-4.15c-2.229-3.03-4.55-7.28-4.01-11.26c-0.15-0.23-0.3-0.45-0.449-0.67
	c-1.19-1.76-2.471-3.43-3.841-4.97c-2.71-3.08-5.81-5.67-8.989-7.09l-0.141-0.06c-2.96-1.42-4.199-4.95-2.79-7.9
	c1.011-2.13,3.13-3.37,5.341-3.37c0.85,0,1.719,0.19,2.549,0.58c5.33,2.55,9.4,6.3,12.791,10.26c1.129,1.33,2.189,2.7,3.18,4.11
	l1.39-2.83L173.62,26v-0.213c0-3.35,1.899-5.926,5.14-5.925 M72.634,158.65c1.504-2.311,3.465-3.995,5.684-4.767
	c-1.947-3.856-4.42-9.489-5.64-15.18c-0.43,6.155-0.536,12.521-0.126,18.802c0.02,0.385,0.054,0.764,0.08,1.145 M188.299,158.602
	c0.02-0.375,0.051-0.748,0.07-1.123c0.33-5.703,0.24-11.473-0.13-17.09c-1.36,3.961-3,8.182-4.28,11.379l0.08,0.021l-0.82,2.313
	c1.961,0.85,3.7,2.42,5.061,4.51 M176.079,186.15c-0.16,0-0.31-0.02-0.46-0.029l-0.01,0.08c-0.021,3.35-0.381,6.359-1.021,9.09
	l4.101-3.9l0.01-0.02l0.01,0.01l0.01-0.01v0.02c0.051,0.041,0.49,0.381,1.19,0.971c0.39-0.78,0.771-1.58,1.14-2.42
	c0.7-1.521,1.36-3.141,1.96-4.82c-2.319,0.85-4.79,1.05-6.96,1.05 M83.449,196.48c1.14-0.539,2.35-1.06,3.65-1.549
	c-0.55-2.671-0.87-5.601-0.88-8.851v-0.06c-0.17,0.039-0.35,0.069-0.53,0.09c-0.28,0.039-0.56,0.07-0.87,0.07
	c-2.12,0-4.53-0.19-6.8-0.99c0.62,1.689,1.29,3.319,2.01,4.85c1.05,2.359,2.22,4.5,3.4,6.46 M178.7,11.9c-3.96,0-7.49,1.64-9.95,4.6
	c-2.061,2.49-3.189,5.79-3.2,9.31L164.23,50c-2.15-1.59-4.381-2.925-6.74-4.053c-1.891-0.9-3.9-1.36-5.99-1.36
	c-5.33,0-10.26,3.106-12.561,7.91c-3.313,6.928-0.373,15.257,6.551,18.57c0.064,0.033,0.13,0.063,0.193,0.09
	c0.058,0.026,0.141,0.063,0.228,0.098c1.89,0.87,4.069,2.654,6.17,5.037c0.78,0.87,1.521,1.81,2.25,2.79
	c0.29,4.25,2.101,8.69,5.39,13.27c1.33,2.15,3,4.07,4.961,5.73c0.1,0.09,0.209,0.18,0.319,0.27c0.851,0.7,1.74,1.33,2.63,1.9
	c-3.59,0.747-5.29,3.77-6.699,6.26c-0.781,1.38-1.74,3.145-2.771,5.02c-7.83-4.55-17.82-5.06-20.149-5.12
	c-11.051-0.83-20.421-2.593-28.701-4.15c-7.05-1.325-13.23-2.49-18.71-2.692c0.19-0.145,0.37-0.29,0.54-0.437l0.03-0.026
	c2.04-1.69,3.76-3.667,5.13-5.875c3.3-4.58,5.11-9.027,5.4-13.275c0.72-0.982,1.47-1.904,2.22-2.753c2.12-2.41,4.31-4.19,6.18-5.05
	l0.12-0.053c0.11-0.04,0.21-0.09,0.31-0.14c6.92-3.32,9.86-11.64,6.55-18.56c-2.3-4.81-7.23-7.92-12.56-7.92
	c-2.09,0-4.11,0.46-6,1.37c-0.77,0.37-1.53,0.76-2.28,1.18l0.4-20.97v-0.36c0-8.2-8.56-13.92-16.24-13.92
	c-0.31,0-0.61,0.01-0.9,0.03c-4.42,0.27-9.02,2.53-11.99,5.9c-0.6,0.68-1.12,1.4-1.57,2.15c-2.7-2.93-6.53-4.66-10.72-4.66
	c-1.83,0-3.62,0.34-5.33,1.01c-3.15,1.24-5.71,3.47-7.36,6.36c-1.5,0.06-2.98,0.36-4.4,0.9c-6.18,2.35-9.73,8.65-8.87,14.94
	c-1.71,0.27-3.36,0.9-4.84,1.84c-2.87,1.84-4.86,4.68-5.59,8.01c-0.73,3.33-0.12,6.74,1.72,9.61l12.73,19.91
	c0.31,1.03,0.68,2.09,1.1,3.17c0.31,0.87,1.71,4.84,3.19,8.04l1.23,2.66c0.56,1.55,2.1,5.04,5.35,8.3c-0.35,1.65-0.69,3.32-1.01,5
	c-3.64,19.28-4.74,37.49-3.3,54.14c0.35,4.53,1.01,9.351,2.06,15.181l0.03,0.17c1.14,5.609,2.4,10.449,3.85,14.8
	c1.65,5.01,3.51,9.6,5.52,13.63c1.86,3.88,4.05,7.699,6.71,11.68c0.3,0.44,0.6,0.891,0.91,1.34c-0.34,2.78-0.2,4.7-0.15,5.18
	c0.27,2.851,2.04,5.32,4.62,6.511L87.6,242.4c1.21,0.689,2.58,1.06,3.97,1.06h85.04c1.596,0,3.15-0.479,4.48-1.37l20.95-14.16
	c1.78-1.199,2.979-3.05,3.38-5.119c0.98-3.141,1-6.511,0.051-10.091c1.84-2.909,3.469-5.84,4.869-8.729
	c2.03-4.03,3.91-8.61,5.6-13.641c1.476-4.359,2.761-9.209,3.931-14.81l0.03-0.16c1.09-5.819,1.779-10.66,2.16-15.21
	c1.539-16.689,0.529-34.96-3.004-54.29c-0.77-4.17-1.619-8.24-2.55-12.15c0.38-0.79,0.65-1.47,0.83-1.96l1.218-2.63
	c1.479-3.2,2.869-7.15,3.18-8.04c0.42-1.07,0.785-2.12,1.096-3.15L235.52,58c3.78-5.917,2.051-13.815-3.859-17.606
	c-1.49-0.95-3.141-1.58-4.86-1.85c0.86-6.3-2.69-12.58-8.87-14.93c-1.41-0.54-2.894-0.84-4.404-0.9
	c-1.643-2.89-4.211-5.12-7.351-6.35c-1.72-0.67-3.51-1.01-5.329-1.01c-3.931,0-7.561,1.53-10.23,4.15
	c-0.545-1.22-1.26-2.33-2.12-3.31c-2.22-2.52-5.36-4.02-8.834-4.23c-0.29-0.024-0.591-0.033-0.88-0.033L178.7,11.9z"/>
<path fill="#031119" d="M178.744,191.35c0,0,23.563,18.342,18.688,29.78l-13.382-0.257l-8.329-21.385L178.744,191.35z
	 M66.682,221.234c0,0-1.747-18.067,20.472-26.326C109.374,186.648,66.682,221.234,66.682,221.234z"/>
<path fill="#FFDDBB" d="M81.76,92.726l-0.422,1.25c-0.284,0.9-0.698,2.23-1.22,3.913c-1.023,3.44-2.38,8.47-3.688,14.59
	c-2.618,12.2-4.925,28.9-3.875,45.02c0.21,4.03,0.73,7.99,1.326,11.851c0.7,3.81,1.51,7.529,2.58,10.979
	c1.06,3.46,2.26,6.72,3.64,9.649c1.33,2.971,2.84,5.61,4.33,7.971c1.48,2.369,3.05,4.38,4.47,6.119c1.43,1.74,2.86,3.101,3.93,4.32
	l3.79,3.42l-14.56,18.09l-5.37-4.629c-1.56-1.631-3.58-3.511-5.63-5.891c-2.05-2.4-4.29-5.16-6.43-8.38
	c-2.14-3.2-4.29-6.8-6.16-10.74c-1.96-3.93-3.65-8.19-5.12-12.649c-1.47-4.461-2.63-9.131-3.59-13.881
	c-0.86-4.75-1.59-9.59-1.96-14.41c-1.68-19.329,0.58-38.159,3.18-51.989c1.32-6.93,2.71-12.63,3.8-16.66l1.36-4.72l0.57-1.78
	l25.07,8.53L81.76,92.726z M205.512,83.932l0.551,1.8c0.31,1.1,0.766,2.707,1.338,4.756c1.078,4.053,2.441,9.788,3.724,16.747
	c2.536,13.882,4.694,32.781,2.903,52.16c-0.4,4.834-1.16,9.684-2.053,14.44c-0.994,4.76-2.173,9.431-3.678,13.896
	c-1.5,4.461-3.217,8.73-5.189,12.65c-1.91,3.939-4.076,7.54-6.244,10.73c-2.152,3.22-4.407,5.97-6.475,8.359
	c-2.074,2.37-4.107,4.24-5.678,5.86l-5.391,4.601l-14.56-18.08c0,0,1.38-1.25,3.771-3.451c1.06-1.219,2.479-2.58,3.9-4.34
	c1.409-1.76,2.959-3.77,4.42-6.149c1.479-2.36,2.959-5.011,4.27-7.97c1.359-2.94,2.529-6.2,3.55-9.66
	c1.04-3.45,1.83-7.15,2.5-10.971c0.57-3.85,1.06-7.789,1.24-11.81c0.95-16.069-1.46-32.7-4.149-44.85
	c-1.341-6.08-2.73-11.1-3.761-14.51c-0.53-1.67-0.95-2.99-1.239-3.88l-0.431-1.229l26.729-9.07L205.512,83.932z"/>
<path fill="#082031" d="M66.7,221.21l20.065-24.407l17.07,9.072l66.649-6.666l8.281-7.859c0,0-1.629,17.739,18.734,29.869
	l-20.953,14.15H91.504L66.7,221.21z"/>
<path fill="#F4D1B0" d="M168.447,169.77c0,9.045,1.31,16.371,7.654,16.371c6.34,0,15.31-1.701,15.31-16.371
	c0-9.037-5.13-16.365-11.47-16.365s-11.48,7.328-11.48,16.367L168.447,169.77z"/>
<path fill="#C69C6D" d="M170.354,169.706c0.024-2.533,0.547-5.415,1.789-7.868c0.627-1.25,1.426-2.457,2.551-3.51
	c1.117-1.023,2.717-1.907,4.572-1.936c0.697,0.072,0.551,0.008,1.217,0.146c0.526,0.1,0.984,0.26,1.34,0.439
	c0.787,0.34,1.42,0.84,2.01,1.34c1.117,1.051,2.65,2.261,3.27,3.511c1.244,2.51,2.519,5.22,2.519,7.93v0.31
	c0,1.771-2.127,3.23-3.902,3.25c-1.77,0.021-3.59-1.409-3.61-3.18c0-0.13-0.174-0.279-0.164-0.399c0.199-1.79-0.047-3.73-0.625-5.37
	c-0.541-1.721-1.7-2.79-2.008-2.9c-0.189-0.109-0.729-0.08-1.359,0.34c-0.62,0.431-1.27,1.141-1.801,1.971
	c-1.08,1.729-1.729,3.67-1.979,6.01l-0.021,0.09c-0.109,1.04-1.049,1.801-2.09,1.689c-0.979-0.109-1.709-0.939-1.699-1.909
	L170.354,169.706z"/>
<path fill="#F4D1B0" d="M92.526,169.77c0,9.045-1.314,16.371-7.655,16.371c-6.34,0-15.3-1.701-15.3-16.371
	c0-9.037,5.13-16.365,11.47-16.365c6.35,0,11.49,7.328,11.49,16.367L92.526,169.77z"/>
<path fill="#C69C6D" d="M90.618,169.706c-0.027-2.533-0.548-5.415-1.782-7.868c-0.636-1.25-1.428-2.457-2.554-3.51
	c-1.12-1.023-2.723-1.907-4.574-1.936c-0.7,0.072-0.555,0.008-1.214,0.146c-0.53,0.1-0.985,0.26-1.342,0.439
	c-0.79,0.34-1.417,0.84-2.008,1.34c-1.12,1.051-1.513,2.261-2.144,3.511c-1.245,2.51-1.382,5.22-1.382,7.93v0.31
	c0,1.771,0.995,3.23,2.767,3.25c1.774,0.021,3.023-1.409,3.052-3.18c0-0.13-0.12-0.279-0.13-0.399
	c-0.194-1.79-0.087-3.73,0.497-5.37c0.536-1.721,1.615-2.79,1.93-2.9c0.19-0.109,0.688-0.08,1.328,0.34
	c0.617,0.431,1.255,1.141,1.79,1.971c1.085,1.729,1.723,3.67,1.973,6.01l0.007,0.09c0.112,1.04,1.05,1.801,2.086,1.689
	c0.985-0.109,1.706-0.939,1.7-1.909V169.706z"/>
<path fill="#FFDDBB" d="M175.65,185.938c0,32.166-30.902,34.937-44.69,34.937c-15.688,0-44.69-2.771-44.69-34.937
	c0-32.162-3.322-73.455,44.69-73.455C179.454,112.483,175.65,153.773,175.65,185.938z"/>
<path fill="#333333" d="M77.87,150.2l8.56,24.727l12.36-28.847 M184.05,151.79l-8.142,23.137L163.55,146.08"/>
<path fill="#333333" d="M122.69,171.916c-1.21,0-2.193-0.98-2.193-2.193c0-6.119-4.983-11.1-11.107-11.1
	c-6.13,0-11.114,4.979-11.114,11.1c0,1.213-0.982,2.193-2.194,2.193s-2.193-0.98-2.193-2.193c0-8.539,6.95-15.486,15.5-15.486
	c8.54,0,15.49,6.947,15.49,15.486c0,1.213-0.99,2.193-2.2,2.193H122.69z"/>
<path fill="#333333" d="M168.332,171.916c-1.212,0-2.193-0.98-2.193-2.193c0-6.119-4.99-11.1-11.109-11.1
	c-6.131,0-11.12,4.979-11.12,11.1c0,1.213-0.979,2.193-2.2,2.193c-1.21,0-2.2-0.98-2.2-2.193c0-8.539,6.95-15.486,15.5-15.486
	s15.49,6.947,15.49,15.486c0,1.213-0.99,2.193-2.2,2.193H168.332z"/>
<path fill="#333333" d="M128.9,199.17c-0.8,0-1.557-0.518-1.814-1.33c-0.312-0.997,0.236-2.07,1.243-2.382
	c5.229-1.67,5.021-4.662,5.021-4.793l-0.021-23.033c0-1.048,1.08-1.896,2.14-1.896c1.051,0,2.141,0.848,2.141,1.896v22.817
	c0,0,0.51,5.96-7.9,8.619c-0.189,0.061-0.63,0.091-0.82,0.091L128.9,199.17z"/>
<path fill="#333333" d="M129.656,216.38c-11.585,0-18.856-13.128-19.305-13.457c-0.84-0.618-1.03-1.798-0.42-2.653
	c0.62-0.845,1.8-1.035,2.66-0.42c0.6,0.434,15.09,10.543,36.06-0.154c0.94-0.471,2.08-0.11,2.561,0.83
	c0.48,0.934-0.08,1.813-0.83,2.56c-7.35,7.354-14.811,13.296-20.71,13.296L129.656,216.38z"/>
<path fill="#333333" d="M163.762,127.07c0,0-13.303,16.163-41.828,18.06l13.944-14.26c0,0-30.903,20.603-46.756,20.603l-3.8,0.471
	l-4.286,6.896c0,0-13.543-21.869-7.6-33.757c0,0,2.22-3.407-5.386,0.398c0,0,14.34-38.58,68.78-34.55c0,0,29.311,4.44,32.167,14.66
	c2.18,7.82-5.235,21.48-5.235,21.48V127.07z"/>
<path fill="#333333" d="M159.965,123.892c0,0,0,21.874,7.604,30.43l14.25,2.666c0,0,9.041-21.211,9.041-26.906
	c0-5.71-3.33-23.777-23.301-21.877c-19.97,1.907-7.609,15.687-7.609,15.687H159.965z"/>
<path fill="#333333" d="M137.59,152.689c2.547-1.597,5.082-2.799,7.797-3.859c2.69-1.03,5.485-2.305,8.37-2.842
	c5.754-1.086,11.94,0.393,17.806,0.393h0.029c1.811,0,2.83,2.93,2.28,4.74c-0.56,1.82-2.479,3.061-4.29,2.51
	c-0.1-0.029-0.203,0.061-0.305,0.01c-4.532-1.859-9.646-2.439-14.774-1.959c-2.567,0.229-5.134,0.76-7.66,1.459
	c-2.503,0.711-5.06,1.68-7.298,2.811l-0.088,0.06c-0.934,0.47-2.074,0.101-2.55-0.829c-0.45-0.881-0.136-1.951,0.684-2.471
	L137.59,152.689z"/>
<path fill="#333333" d="M123.803,157.38c-2.24,0-4.796-2.794-7.29-3.507c-2.53-0.71-5.1-1.57-7.663-1.79
	c-5.138-0.49-10.248-0.021-14.784,1.845c-1.748,0.723-3.756-0.199-4.476-1.953c-0.723-1.759,0.11-4.271,1.866-4.988
	c0.098-0.036,0.2-0.604,0.296-0.604h0.03c5.874,0,12.053-1.479,17.806-0.393c2.886,0.53,5.684,1.579,8.378,2.61
	c2.708,1.06,5.242,2.379,7.79,3.979c0.888,0.56,1.157,2.5,0.597,3.38c-0.52,0.84-1.59,1.41-2.454,1.41h-0.1L123.803,157.38z"/>
<path fill="#FFDDBB" d="M40.29,68.572c0,0-1.402,3.07,1.538,10.527c0,0,1.46,4.23,2.95,7.46l1.396,3.02c0,0,4.445,15.31,25.617,8.55
	c0,0,19.2-0.56,20.23-17.47L80.66,57.55L40.29,68.57V68.572z M79.838,85.807c0,0,0.413,6.838,6.21,7.126
	c0,0,11.558-10.977,6.33-18.808"/>
<path fill="#FFDDBB" d="M62.592,70.17c-2.115-6.218-4.406-12.37-6.62-18.555c-2.32-6.146-4.545-12.324-6.944-18.442
	c-1.336-3.398,0.34-7.23,3.736-8.563c3.4-1.332,7.236,0.338,8.56,3.735c0.08,0.195,0.147,0.398,0.2,0.592
	c1.817,6.314,3.797,12.577,5.698,18.867c2,6.255,3.924,12.535,6.02,18.756c0.994,2.94-0.586,6.135-3.532,7.127
	C66.777,74.673,63.59,73.103,62.592,70.17L62.592,70.17z M74.652,68.46L72.1,27.444c-0.225-3.48,4.38-6.482,7.868-6.696
	c3.47-0.217,8.653,2.428,8.653,5.907v0.212l-0.77,41.08c0.09,3.108-3.34,5.7-6.44,5.788c-3.04,0.084-6.56-2.263-6.75-5.274
	L74.652,68.46z M67.3,56.178c0,0,6.334,5.8,9.184-1.352l-2.068,11.897L67.3,56.178z M51.452,74.32
	c-2.447-5.748-4.757-11.552-7.122-17.326c-2.284-5.813-4.636-11.597-6.86-17.437c-1.16-3.065,0.38-6.494,3.45-7.662
	c3.028-1.148,6.405,0.345,7.61,3.325c2.344,5.788,4.553,11.63,6.83,17.44c2.187,5.853,4.44,11.68,6.557,17.553
	c1.054,2.925-0.463,6.143-3.388,7.194c-2.82,1.022-5.92-0.37-7.08-3.088L51.452,74.32z M46.715,84.956L27.238,54.492
	c-1.416-2.214-0.768-5.15,1.436-6.56c2.144-1.367,4.977-0.793,6.436,1.255L56.035,78.68c1.8,2.532,1.196,6.04-1.328,7.835
	c-2.538,1.8-6.05,1.207-7.845-1.33C46.816,85.118,46.752,85.03,46.715,84.956L46.715,84.956z"/>
<path fill="#E2AB74" d="M80.346,74.797"/>
<path fill="#FFDDBB" d="M80.678,77.308c1.244-2.558,2.46-4.614,3.87-6.802c1.395-2.15,2.927-4.226,4.62-6.218
	c3.393-3.95,7.46-7.71,12.79-10.255c2.954-1.413,6.485-0.16,7.897,2.787c1.41,2.95,0.16,6.482-2.793,7.898
	c-0.036,0.015-0.104,0.046-0.144,0.06c-3.18,1.42-6.275,4.007-8.99,7.093c-1.37,1.55-2.654,3.22-3.84,4.97
	c-1.166,1.71-2.346,3.69-3.174,5.32l-0.092,0.18c-1.41,2.79-4.812,3.9-7.6,2.49c-2.762-1.39-3.872-4.74-2.544-7.5V77.308z"/>
<path fill="#FFFFFF" d="M104.97,65.526c0,0-0.61-2.503-2.313-2.94c0,0,1.973-2.88,4.106-2.334c2.128,0.554,2.173,2.542,2.173,2.542
	s-1.308,1.81-3.967,2.732H104.97z"/>
<path fill="#FFDDBB" d="M215.714,67.7c0,0,1.402,3.067-1.548,10.526c0,0-1.458,4.242-2.943,7.463l-1.396,3.02
	c0,0-4.444,15.31-25.62,8.55c0,0-19.193-0.57-20.221-17.46l11.356-23.12l40.37,11.01L215.714,67.7z M176.164,84.935
	c0,0-0.414,6.838-6.21,7.13c0,0-11.558-10.984-6.33-18.808"/>
<path fill="#FFDDBB" d="M193.408,69.3c2.113-6.215,4.406-12.372,6.619-18.556c2.318-6.148,4.543-12.328,6.943-18.442
	c1.334-3.395-0.341-7.233-3.73-8.564c-3.4-1.327-7.24,0.34-8.566,3.737c-0.076,0.19-0.145,0.394-0.197,0.59
	c-1.813,6.315-3.8,12.575-5.697,18.866c-2.004,6.26-3.922,12.54-6.021,18.76c-0.996,2.95,0.588,6.14,3.534,7.13
	c2.929,0.99,6.12-0.58,7.116-3.51V69.3z M181.348,67.588l2.557-41.01c0.224-3.488-1.27-6.488-4.752-6.7
	c-3.479-0.217-5.532,2.426-5.532,5.91v0.214l-2.351,41.08c-0.092,3.1,1.782,5.692,4.887,5.78
	C179.198,72.95,181.159,70.602,181.348,67.588z M188.7,55.303c0,0-6.33,5.802-9.183-1.35l2.072,11.897L188.7,55.303z M204.55,73.45
	c2.446-5.75,4.755-11.55,7.12-17.332c2.284-5.808,4.637-11.6,6.859-17.427c1.164-3.07-0.379-6.5-3.449-7.66
	c-3.025-1.15-6.402,0.34-7.609,3.32c-2.344,5.79-4.553,11.64-6.83,17.45c-2.188,5.85-4.44,11.67-6.561,17.55
	c-1.051,2.93,0.466,6.15,3.393,7.2c2.813,1.02,5.916-0.37,7.076-3.08L204.55,73.45z M209.284,84.085l19.479-30.465
	c1.412-2.208,0.768-5.146-1.439-6.56c-2.141-1.366-4.971-0.794-6.432,1.256l-20.931,29.49c-1.8,2.532-1.196,6.043,1.33,7.835
	c2.536,1.8,6.048,1.21,7.849-1.33c0.045-0.06,0.1-0.15,0.144-0.22V84.085z"/>
<path fill="#E2AB74" d="M175.652,73.926"/>
<path fill="#FFDDBB" d="M175.322,76.435c-1.243-2.553-2.457-4.615-3.868-6.803c-1.396-2.143-2.927-4.224-4.622-6.21
	c-3.391-3.957-7.454-7.715-12.788-10.26c-2.95-1.412-6.483-0.162-7.896,2.786c-1.41,2.948-0.166,6.483,2.789,7.898l0.147,0.06
	c3.177,1.423,6.274,4.008,8.99,7.09c1.37,1.544,2.653,3.217,3.837,4.972c1.17,1.705,2.35,3.677,3.175,5.314l0.095,0.174
	c1.409,2.786,4.819,3.896,7.6,2.487c2.76-1.394,3.88-4.74,2.55-7.508H175.322z"/>
<path fill="#FFFFFF" d="M151.033,64.66c0,0,0.605-2.508,2.313-2.947c0,0-1.977-2.88-4.106-2.334c-2.13,0.55-2.181,2.54-2.181,2.54
	s1.311,1.81,3.971,2.74L151.033,64.66z"/>
<path fill="#333333" d="M130.962,112.482c33.487,0,42.033,19.692,44.117,42.47c1.47-0.982,3.11-1.548,4.851-1.548
	c6.34,0,11.469,7.328,11.469,16.367c0,14.67-8.969,16.369-15.31,16.369c-0.159,0-0.31-0.02-0.46-0.029
	c-0.109,32-30.92,34.77-44.689,34.77c-15.681,0-44.661-2.77-44.69-34.88c-0.44,0.09-0.9,0.149-1.4,0.149
	c-6.34,0-15.31-1.699-15.31-16.369c0-9.04,5.13-16.36,11.47-16.36c2.13,0,4.12,0.851,5.83,2.29c2.07-23.08,10.58-43.2,44.091-43.2
	 M130.93,109.511c-35.631,0-44.121,22.46-46.591,41.44c-1.09-0.34-2.21-0.51-3.34-0.51c-8.12,0-14.47,8.51-14.47,19.369
	c0,8.541,2.96,18.66,16.79,19.34c0.8,13.57,6.85,23.33,18.02,29.041c7.54,3.859,17.21,5.729,29.58,5.729
	c29.41,0,46.19-12.33,47.58-34.83c13.021-1.08,15.851-10.93,15.851-19.271c0-10.859-6.36-19.369-14.48-19.369
	c-0.78,0-1.551,0.08-2.311,0.24c-1.56-12.03-4.949-20.811-10.539-27.41c-7.84-9.25-19.66-13.75-36.131-13.75L130.93,109.511z"/>
</svg>
