<svg xmlns="http://www.w3.org/2000/svg" width="256" height="256" viewBox="0 0 256 256"><path fill="#fff" d="M128.197 208.077c-53.672 0-97.338-35.925-97.338-80.083 0-1.04.02-2.11.08-3.2-2.66-2.287-5.09-4.9-7.52-8.088-2.61-3.455-4.75-6.966-6.54-10.75-2.14-4.608-3.41-8.715-4.01-12.954-.39-2.986-.37-5.673.03-8.258.23-1.31.57-2.947 1.28-4.683.38-1.02.96-2.1 1.28-2.66.36-.64.52-.88.77-1.21.07-.09.15-.21.36-.54l.08-.13.09-.12c2.52-3.33 5.63-5.21 7.79-6.2 2.32-1.06 4.83-1.76 7.68-2.13 1.45-.17 2.91-.26 4.37-.26 2.7 0 5.44.28 8.61.89 4.76 1 9.19 2.47 13.24 4.4 18.25-15.38 43.48-24.16 69.7-24.16 26.81 0 52.44 9.12 70.78 25.1 3.43-1.58 7.15-2.85 11.1-3.8 3.6-.8 6.66-1.16 9.71-1.16 1.09 0 2.19.05 3.27.15 2.91.3 5.45.92 7.79 1.92 2.2.95 5.36 2.75 7.96 5.98l.09.11.08.12c.22.33.32.45.39.55.26.34.42.57.81 1.22.53.85 1.02 1.81 1.35 2.61.6 1.37 1.03 2.78 1.4 4.57.5 2.66.59 5.27.29 8.28-.47 4.3-1.63 8.45-3.64 13.09-1.64 3.78-3.67 7.35-6.21 10.93-2.56 3.55-5.09 6.39-7.9 8.87.01.54.02 1.06.02 1.57 0 44.16-43.66 80.09-97.32 80.09zM211.973 87.2c2.245 3.12 4.23 6.357 5.938 9.696.23-.345.46-.69.67-1.038 1.3-2.093 2.26-4.2 2.71-5.937.24-.87.3-1.51.3-1.9-.31-.17-.81-.39-1.5-.55-1.31-.32-2.85-.48-4.54-.48-.81 0-1.67.04-2.54.11-.34.04-.67.07-1.01.11zM34.35 86.812c.013.39.092 1.02.345 1.86.513 1.743 1.537 3.83 2.89 5.904.377.57.777 1.136 1.2 1.698 1.88-3.59 4.084-7.063 6.592-10.396-.828-.105-1.66-.184-2.497-.238-.576-.034-1.175-.052-1.768-.052-1.987 0-3.78.208-5.188.6-.747.197-1.264.44-1.574.623z"/><path fill="#333" d="M128.197 51.918c27.952 0 53.026 10.02 70.128 25.89 3.978-2.1 8.25-3.633 12.694-4.7 2.79-.622 5.68-1.056 8.77-1.056.95 0 1.92.04 2.91.13 2.1.212 4.31.646 6.59 1.615 2.25.97 4.6 2.56 6.4 4.808.71 1.026.49.59 1.06 1.54.45.74.85 1.52 1.09 2.1.56 1.285.9 2.55 1.17 3.826.47 2.52.44 4.88.23 7.08-.49 4.41-1.76 8.27-3.33 11.9-1.58 3.62-3.53 6.99-5.8 10.21-2.32 3.21-4.92 6.26-8.36 9.09l-.28.23-.08.06c.06 1.12.1 2.25.1 3.38 0 42.03-41.78 76.09-93.32 76.09-51.55 0-93.34-34.06-93.34-76.08 0-1.67.07-3.34.2-4.98-3.45-2.7-6.1-5.64-8.47-8.73-2.38-3.14-4.41-6.46-6.11-10.04-1.67-3.59-3.04-7.41-3.66-11.79-.29-2.19-.38-4.55.02-7.08.22-1.27.52-2.56 1.06-3.85.21-.59.59-1.38 1.03-2.14.53-.95.34-.51 1.02-1.57 1.74-2.3 4.03-3.96 6.27-4.99 2.24-1.02 4.44-1.52 6.53-1.8 1.31-.16 2.6-.23 3.85-.23 2.74 0 5.34.34 7.86.82 5.13 1.07 10.05 2.79 14.58 5.26 17.08-15.33 41.72-24.95 69.12-24.95M39.78 103.5c3.04-7.288 7.4-14.075 12.85-20.18-3.13-.907-6.36-1.45-9.53-1.657-.68-.04-1.356-.06-2.026-.06-2.245 0-4.41.23-6.265.75-2.48.647-4 1.91-4.26 2.78-.32.82-.4 2.46.27 4.71.65 2.205 1.87 4.64 3.37 6.937 1.57 2.38 3.51 4.7 5.58 6.71m177.15.99c1.87-1.98 3.61-4.23 5.02-6.51 1.44-2.334 2.6-4.81 3.18-7.028.61-2.275.47-3.91.14-4.72-.28-.86-1.85-2.09-4.34-2.65-1.63-.405-3.5-.586-5.44-.585-.95 0-1.92.043-2.88.124-2.61.25-5.26.74-7.85 1.45 5.17 6.06 9.29 12.75 12.15 19.92m-88.76-60.55c-26.23 0-51.54 8.51-70.33 23.5-3.68-1.56-7.61-2.78-11.75-3.64l-.07-.01-.07-.01c-3.43-.65-6.41-.96-9.37-.96-1.62 0-3.23.1-4.81.29l-.04.01-.04.01c-3.25.43-6.14 1.23-8.82 2.46-3.71 1.7-6.93 4.27-9.32 7.43l-.19.25-.17.26c-.09.14-.14.22-.18.28-.41.54-.67.94-1.08 1.68-.45.79-1.07 1.97-1.52 3.17-.85 2.09-1.25 4.05-1.48 5.36l-.01.07-.01.08c-.47 2.97-.49 6.02-.06 9.35v.09c.65 4.64 2.02 9.1 4.32 14.05l.01.03.01.03c1.91 4.04 4.18 7.78 6.95 11.43 2.18 2.86 4.35 5.28 6.66 7.43-.01.5-.02.99-.02 1.47 0 22.78 10.75 44.09 30.28 60 19.05 15.53 44.28 24.09 71.05 24.09 26.76 0 51.99-8.56 71.04-24.09 19.47-15.87 30.22-37.11 30.27-59.83 2.49-2.36 4.79-5.04 7.1-8.23l.02-.03.02-.03c2.7-3.81 4.86-7.61 6.61-11.63 2.18-5.04 3.43-9.55 3.94-14.21l.01-.04V94c.33-3.36.23-6.42-.33-9.35l-.02-.065-.01-.064c-.27-1.29-.73-3.22-1.63-5.32-.41-.98-.98-2.09-1.63-3.15-.44-.72-.69-1.09-1.07-1.58-.05-.07-.11-.15-.26-.36l-.16-.23-.18-.22c-3.11-3.88-6.88-6.03-9.49-7.16-2.74-1.17-5.66-1.89-8.94-2.22l-.04-.01h-.04c-1.2-.11-2.42-.16-3.63-.16-3.35 0-6.69.4-10.51 1.25l-.07.02-.07.02c-3.31.8-6.48 1.81-9.47 3.04-18.89-15.6-44.62-24.45-71.46-24.45z"/><path fill="#676767" d="M62.52 83.466S31.383 72.61 25.284 81.463c-6.092 8.854 7.293 30.086 17.734 37.275 0 0-6.102-22.85 19.502-35.272z"/><path fill="#B3B3B3" d="M60.49 86.535c-5.23-2.96-11.418-4.5-17.354-4.884-2.95-.17-5.88.02-8.29.69-2.476.65-4 1.91-4.26 2.78-.32.82-.4 2.46.278 4.71.648 2.21 1.87 4.64 3.37 6.94 3.01 4.56 7.345 8.95 11.405 11.2 4.46 2.49 6.06 8.11 3.58 12.57-2.48 4.47-8.11 6.07-12.56 3.59-.41-.22-.78-.47-1.14-.74l-.33-.24c-3.52-2.73-6.21-5.71-8.61-8.84-2.38-3.14-4.41-6.46-6.11-10.03-1.67-3.58-3.05-7.4-3.66-11.79-.29-2.19-.38-4.55.02-7.08.22-1.27.52-2.57 1.06-3.85.21-.58.6-1.38 1.03-2.14.53-.94.35-.51 1.02-1.56 1.74-2.3 4.03-3.96 6.27-4.98 2.24-1.02 4.44-1.52 6.53-1.8 4.19-.51 8.03-.11 11.71.59 7.28 1.52 14.13 4.3 20.06 8.77 1.62 1.24 1.94 3.56.71 5.19-1.13 1.5-3.18 1.89-4.77.98z"/><path fill="#676767" d="M193.332 85.466c-11.568-5.203 30.814-11.735 37.164-3.05 6.35 8.68-3.924 27.01-14.154 34.49 0 0 2.94-19.746-23.01-31.44z"/><path fill="#B3B3B3" d="M191.213 82.452c5.79-4.65 12.572-7.607 19.807-9.346 3.652-.812 7.48-1.305 11.688-.924 2.102.21 4.313.645 6.588 1.614 2.256.97 4.604 2.56 6.408 4.808.71 1.026.496.59 1.064 1.54.457.74.857 1.52 1.09 2.1.566 1.285.904 2.55 1.168 3.826.477 2.513.445 4.874.23 7.077-.483 4.404-1.757 8.265-3.327 11.896-1.58 3.62-3.53 6.992-5.81 10.208-2.32 3.21-4.91 6.27-8.36 9.09l-.28.23c-3.95 3.24-9.76 2.67-13-1.26s-2.68-9.76 1.26-13c.36-.29.77-.57 1.14-.8 4-2.38 8.21-6.89 11.08-11.53 1.44-2.33 2.6-4.81 3.18-7.02.61-2.27.47-3.9.14-4.71-.29-.86-1.85-2.09-4.34-2.65-2.43-.6-5.37-.71-8.31-.46-5.93.57-12.06 2.27-17.21 5.39-1.74 1.06-4.02.5-5.08-1.24-.97-1.6-.58-3.65.84-4.8z"/><path fill="#fff" d="M221.516 127.994c0 42.023-41.773 76.083-93.316 76.083-51.55 0-93.338-34.06-93.338-76.083 0-42.017 41.787-76.076 93.338-76.076 51.54 0 93.316 34.06 93.316 76.076z"/><path fill="#B3B3B3" d="M201.51 125.84c0 34.278-33.87 62.073-75.648 62.073-41.77 0-75.64-27.795-75.64-62.074 0-34.3 33.87-62.09 75.64-62.09 41.777 0 75.648 27.79 75.648 62.08z"/><path fill="#fff" d="M123.6 117.68c0 19.498-15.8 35.298-35.293 35.298-19.504 0-35.297-15.802-35.297-35.297 0-19.49 15.793-35.29 35.297-35.29 19.494 0 35.293 15.81 35.293 35.3z"/><path fill="#2974A7" d="M108.563 122.122c0 11.222-9.1 20.334-20.336 20.334-11.23 0-20.33-9.112-20.33-20.334 0-11.234 9.1-20.34 20.33-20.34 11.236 0 20.336 9.106 20.336 20.34z"/><path fill="#fff" d="M85.117 116.247c0 3.828-3.1 6.932-6.936 6.932-3.82 0-6.93-3.11-6.93-6.94s3.11-6.93 6.93-6.93c3.84 0 6.94 3.1 6.94 6.93zm7.643 7.49c0 1.79-1.467 3.25-3.262 3.25s-3.256-1.46-3.256-3.25c0-1.807 1.46-3.26 3.256-3.26s3.262 1.454 3.262 3.26zm106.465-6.057c0 19.498-15.8 35.298-35.297 35.298-19.502 0-35.297-15.802-35.297-35.297 0-19.49 15.8-35.29 35.3-35.29 19.5 0 35.3 15.81 35.3 35.3z"/><path fill="#2974A7" d="M184.186 122.122c0 11.222-9.1 20.334-20.338 20.334-11.23 0-20.33-9.112-20.33-20.334 0-11.234 9.104-20.34 20.33-20.34 11.238 0 20.338 9.106 20.338 20.34z"/><path fill="#fff" d="M160.742 116.247c0 3.828-3.102 6.932-6.938 6.932-3.83 0-6.934-3.11-6.934-6.94s3.104-6.93 6.934-6.93c3.837 0 6.938 3.1 6.938 6.93zm7.638 7.49c0 1.79-1.466 3.25-3.26 3.25s-3.253-1.46-3.253-3.25c0-1.807 1.46-3.26 3.254-3.26s3.26 1.454 3.26 3.26z"/><path fill="#999898" d="M146.432 186.33c0 4.087-9.01 1.583-20.12 1.583-11.11 0-20.122 2.504-20.122-1.582 0-4.08 9.012-13.21 20.123-13.21 11.11 0 20.12 9.13 20.12 13.21z"/><path fill="#fff" d="M123.818 118.3c0 19.497-15.797 35.298-35.295 35.298-19.502 0-35.295-15.8-35.295-35.297 0-19.48 15.793-35.29 35.295-35.29 19.5 0 35.295 15.81 35.295 35.3z"/><path fill="#2974A7" d="M108.78 122.743c0 11.224-9.1 20.333-20.335 20.333-11.232 0-20.336-9.11-20.336-20.333 0-11.238 9.1-20.335 20.33-20.335 11.23 0 20.33 9.097 20.33 20.335z"/><path fill="#fff" d="M85.338 116.87c0 3.825-3.104 6.93-6.938 6.93-3.828 0-6.932-3.105-6.932-6.93 0-3.83 3.104-6.932 6.932-6.932 3.834 0 6.938 3.103 6.938 6.932zm7.64 7.485c0 1.797-1.466 3.252-3.263 3.252-1.795 0-3.254-1.455-3.254-3.252 0-1.802 1.46-3.258 3.26-3.258 1.8 0 3.26 1.457 3.26 3.258zM199.44 118.3c0 19.497-15.8 35.298-35.294 35.298-19.506 0-35.297-15.8-35.297-35.297 0-19.48 15.79-35.29 35.29-35.29s35.29 15.81 35.29 35.3z"/><path fill="#2974A7" d="M184.402 122.743c0 11.224-9.103 20.333-20.338 20.333-11.23 0-20.33-9.11-20.33-20.333 0-11.238 9.1-20.335 20.33-20.335 11.24 0 20.338 9.097 20.338 20.335z"/><path fill="#fff" d="M160.96 116.87c0 3.825-3.103 6.93-6.937 6.93-3.828 0-6.93-3.105-6.93-6.93 0-3.83 3.102-6.932 6.93-6.932 3.832 0 6.938 3.103 6.938 6.932zm7.644 7.485c0 1.797-1.47 3.252-3.266 3.252-1.793 0-3.254-1.455-3.254-3.252 0-1.802 1.46-3.258 3.254-3.258 1.797 0 3.266 1.457 3.266 3.258z"/><path fill="#B3B3B3" d="M123.818 118.3c0-19.487-15.65-37.132-35.148-37.132-12.974 0-24.445 8.837-30.58 19.26l64.747 26.124c.634-2.65.98-5.407.98-8.25z"/><path fill="#999898" d="M123.59 122.29L60.628 96.688c-1.295 1.67-2.442 3.456-3.425 5.344l65.17 26.264c.57-1.94.985-3.944 1.217-6.006z"/><path fill="#B3B3B3" d="M128.453 118.3c0-19.487 16.384-37.132 35.883-37.132 12.975 0 23.71 8.837 29.846 19.26l-64.746 26.124c-.636-2.65-.983-5.407-.983-8.25z"/><path fill="#999898" d="M128.682 122.29l62.963-25.603c1.295 1.67 2.44 3.456 3.424 5.344L129.9 128.3c-.576-1.94-.99-3.943-1.22-6.005zm-8.58-43.49l-17.57 41.272 25.815 10.727 26.988-12.64-13.897-30.86s-13.098 13.55-21.336-8.51zm5.758 112.018c-43.31 0-78.548-29.15-78.548-64.98 0-35.84 35.238-64.993 78.55-64.993 43.313 0 78.554 29.153 78.554 64.994 0 35.82-35.24 64.97-78.555 64.97zm0-124.16c-40.106 0-72.73 26.548-72.73 59.18 0 32.624 32.624 59.17 72.73 59.17 40.11 0 72.74-26.546 72.74-59.17 0-32.632-32.63-59.18-72.74-59.18z"/><path fill="#333" d="M134.762 188.318c-2.048 0-3.87-1.44-4.28-3.525-.462-2.36 1.077-4.652 3.443-5.117 4.896-.963 9.406-3.523 10.498-5.95.188-.433.697-1.565-.604-3.767-.53-.89-1.88-3.28-8.94-3.06-2.36.06-4.42-1.84-4.48-4.25v-.11c-.01-2.37 1.87-4.31 4.25-4.37 3.71-.11 7.08-1.26 8.19-2.82.2-.29.73-1.03.14-2.9-.81-2.16-8.76-7.3-14.33-6.98h-.11c-2.36 0-4.3-1.88-4.37-4.25-.07-2.41 1.84-4.41 4.25-4.48 8.34-.04 20.64 6.08 22.87 13.06 1.58 4.97.14 8.5-1.34 10.59-.44.61-.92 1.17-1.45 1.68 1.1.96 2.03 2.09 2.82 3.42 2.97 5.02 2.21 9.18 1.05 11.77-2.77 6.18-10.48 9.7-16.78 10.95-.3.05-.58.07-.85.07z"/><path fill="#2974A7" d="M137.984 130.58c0 3.865-5.158 6.993-11.52 6.993-6.36 0-11.522-3.128-11.522-6.992 0-3.86 5.162-6.99 11.52-6.99 6.364 0 11.522 3.13 11.522 6.99z"/></svg>