<svg xmlns="http://www.w3.org/2000/svg" width="256" height="256" viewBox="0 0 256 256"><path fill="#333" d="M146.048 207.466c-.358 0-.748-.028-1.163-.085H109.33c-2.126 0-4.658-1.25-4.658-7.22 0-.76.063-1.81.2-2.72-.044-.31-.088-.64-.13-.99-.246-.55-.372-1.15-.347-1.79.03-.8-.082-1.6-.236-2.25H97.5c.532 1.42 1.134 2.8 1.833 4.19.633 1.27.55 2.78-.224 3.97-.74 1.14-2.01 1.82-3.36 1.82h-.18c-1.14-.05-28.02-1.45-34.09-19.67-2.32-6.95-3.06-30.46 1.36-55.82-2.44-1.86-3.95-4.82-3.86-8.01 0-.14.01-.3.02-.45l3.16-46.92c.18-2.7 1.6-5.12 3.75-6.63l.47-4.55c.61-6.06 5.69-10.63 11.8-10.63.4 0 .81.02 1.21.06 6.5.67 11.24 6.51 10.6 13.04-.03.35-.09.86-.15 1.18l-.78 4c8.11-7.62 17.62-11.46 28.41-11.46 2.94 0 6 .3 9.11.88h3.39c3.24-.68 6.44-1.03 9.52-1.03 6.28 0 12.21 1.42 17.72 4.24.16-4.92 3.43-9.47 8.43-10.98 1.12-.33 2.27-.51 3.43-.51 5.27 0 9.84 3.4 11.36 8.45.1.33.18.68.26 1.02l.93 4.54c2.27 1.3 3.92 3.56 4.38 6.22l7.84 46.45c.36 2.17-.01 4.36-1.03 6.25 5.25 26.3 4.9 53.05 2.27 60.94-6.04 18.09-32.76 20.82-33.89 20.93-.13.01-.26.02-.38.02-1.31 0-2.55-.65-3.3-1.74-.83-1.2-.93-2.75-.28-4.05.73-1.46 1.44-3.37 2.15-5.71h-8.27c-.42 1.44-.89 3.22-1.33 5.17.19.98.31 2 .32 3 .02.17.07.34.1.51.14.6.32 1.34.32 2.18-.01 2.07-1.62 4.23-4.57 4.23l.07-.06.01-.01zm23.078-154.373c3.38 0 6.507 2.19 7.535 5.6.07.226.14.465.18.695l1.36 6.63c1.97.367 3.57 1.906 3.93 3.965l7.85 46.435c.32 1.766-.22 3.48-1.34 4.733 5.57 26.61 5.07 53.52 2.73 60.52-5.27 15.82-30.47 18.21-30.47 18.21 1.6-3.18 2.83-7.49 3.77-11.49H148.3c-.79 2-1.696 5.51-2.352 8.36l-.026-.6c-.074.52-.146 1.02-.205 1.35.303.96.467 2.11.467 3.16 0 .82.438 1.85.438 2.61 0 .18-.27.23-.57.23-.39 0-.85-.08-.86-.08h-35.858c-.41 0-.65-1.95-.65-3.23 0-.78.09-1.97.25-2.67-.15-.98-.29-2.01-.38-3.27l-.15.58c.1-2.58-.74-5.39-1.76-6.39H92.08c1.018 4 2.23 7.09 3.678 9.98 0 0-25.198-1.12-30.476-16.94-2.23-6.68-2.78-31.35 2.027-56.75-2.56-.65-4.41-2.99-4.32-5.73 0-.06 0-.14.01-.2l3.16-46.98c.14-2.1 1.6-3.78 3.51-4.33l.69-6.72c.41-4.05 3.83-7.04 7.82-7.04.27 0 .54.01.81.04 4.32.45 7.47 4.38 7.02 8.7-.02.23-.06.61-.11.84l-3.84 19.9c8.17-13.42 19.62-22.67 35.42-22.66 2.77 0 5.68.29 8.73.88h4.21c3.18-.7 6.21-1.03 9.09-1.03 9.42 0 17.28 3.54 23.82 9.18l-1.75-6.28c-1.28-4.16 1.09-8.55 5.25-9.81.75-.23 1.52-.34 2.27-.34"/><path fill="#333" d="M169.1 45.13c-1.55 0-3.1.23-4.59.68-4.77 1.44-8.36 4.93-10.11 9.21-4.72-1.75-9.71-2.63-14.908-2.63-3.222 0-6.562.34-9.93 1.03h-2.622c-3.22-.59-6.4-1-9.47-1-8.542 0-16.47 2.35-23.58 6.81-1.04-7.03-6.71-12.72-14.07-13.48-.55-.06-1.1-.07-1.635-.07-8.17 0-14.96 6.12-15.78 14.23l-.305 2.93c-2.26 2.17-3.71 5.14-3.93 8.38l-3.16 46.88c-.02.24-.03.48-.04.71-.09 3.59 1.26 6.98 3.56 9.53-3.85 23.58-3.653 47.25-.854 55.64 6.94 20.805 36.46 22.355 37.71 22.41.12.01.24.01.36.01 1.998 0 3.9-.735 5.35-2.048 1.59 6.682 6.99 7.07 8.22 7.07h35.31c.49.06.96.09 1.41.09 4.72 0 7.78-3.25 8.435-6.79 1.53 2.022 3.9 3.2 6.4 3.2.25 0 .51-.01.76-.04.32-.03 7.43-.73 15.28-3.63 11.46-4.24 19.08-11.16 22.03-20.01 3.08-9.25 2.98-36.38-1.89-61.7.94-2.32 1.23-4.88.8-7.42l-7.84-46.44c-.55-3.21-2.29-6.01-4.74-7.95l-.6-2.93-.01-.05c-.09-.44-.21-.89-.34-1.35-2.04-6.75-8.14-11.29-15.2-11.29l-.02.02v-.002z"/><circle fill="#333" cx="146.6" cy="202.771" r="4"/><path fill="#333" d="M146.6 194.77c-4.42 0-8 3.58-8 8v.012c0 4.42 3.58 8 8 8s8-3.58 8-8c0-4.422-3.586-8-8-8v-.012z"/><path fill="#1A1A1A" d="M79.204 101.672l3.584 85.71h90.428l2.51-58.444-12.92-48.44-83.602 21.174z"/><path fill="#fdb" d="M109.52 200.516s-6.94-28.135 14.177-22.135h9.854c17.48-6 12.04 19.68 12.04 19.68"/><path fill="#fdb" d="M128.62 178.146c0 4.754-.948 6.69-5 6.69s-5-1.938-5-6.688v-17.22c0-4.75.948-8.61 5-8.61s5 3.86 5 8.62v17.23-.03.008z"/><path fill="#D3BD8D" d="M162.775 120.712c0 8.354 1.207 15.127 7.065 15.127 5.86 0 14.146-1.57 14.146-15.13 0-8.37-4.75-15.13-10.61-15.13-5.87 0-10.606 6.76-10.606 15.12v.01h.006z"/><path fill="#C69C6D" d="M164.527 120.657c.03-2.345.507-5.012 1.662-7.277.56-1.15 1.31-2.28 2.35-3.248 1.02-.947 2.51-1.76 4.21-1.785.64.068.52.007 1.13.135.49.103.91.25 1.23.413.72.315 1.31.77 1.85 1.237 1.04.968 1.6 2.097 2.16 3.248 1.16 2.32 1.47 4.824 1.47 7.332v.283c0 1.643-1.1 2.992-2.74 3.012-1.65.018-2.89-1.295-2.91-2.933 0-.12.05-.252.06-.362.18-1.653.06-3.457-.48-4.966-.5-1.585-1.51-2.574-1.79-2.673-.18-.094-.66-.08-1.25.313-.56.4.64 1.054.15 1.824-1 1.61-.05 3.4-.05 5.56v.09c0 .96-2.77 1.66-3.72 1.56-.91-.09-3.39-.86-3.39-1.75h.04l.01-.013z"/><path fill="#D3BD8D" d="M92.6 120.712c0 8.354-1.216 15.127-7.075 15.127s-14.145-1.57-14.145-15.13c0-8.37 4.742-15.13 10.605-15.13 5.86 0 10.614 6.76 10.614 15.12v.01z"/><path fill="#C69C6D" d="M90.84 120.657c-.03-2.345-.507-5.012-1.653-7.277-.58-1.15-1.32-2.28-2.36-3.248-1.032-.947-2.505-1.76-4.22-1.785-.646.068-.518.007-1.123.135-.494.103-.922.25-1.238.413-.73.315-1.316.77-1.857 1.237-1.05.968-1.16 2.097-1.74 3.248-1.15 2.32-1.03 4.824-1.03 7.332v.283c0 1.643.66 2.992 2.3 3.012 1.65.018 2.68-1.295 2.7-2.933 0-.12-.18-.252-.19-.362-.18-1.653-.12-3.457.42-4.966.5-1.585 1.49-2.574 1.77-2.673.17-.094.63-.08 1.22.313.58.4 2.29 1.054 2.78 1.824 1 1.61 2.97 3.4 2.97 5.56v.09c0 .96-.18 1.66.78 1.56.9-.09.44-.86.43-1.75h.04v-.013z"/><path fill="#fdb" d="M169.43 135.646c0 29.73-28.563 32.3-41.308 32.3-14.5 0-41.305-2.566-41.305-32.3 0-29.73-3.074-67.892 41.305-67.892 44.823.002 41.308 38.167 41.308 67.892z"/><path fill="#333" d="M123.575 147.877c-.928 0-1.793-.592-2.086-1.525-.37-1.148.27-2.38 1.42-2.748 4.4-1.398 4.35-3.455 4.35-3.547l-1.69-21.538c-.1-1.21.8-2.26 2-2.36 1.18-.18 2.26.8 2.35 2.01l1.68 21.47c.01.07.75 5.53-7.39 8.12-.22.07-.45.1-.66.1l.02.01z"/><path fill="#DDB99B" d="M85.897 116.433s14.59 34.44 39.473 40.424c0 0 27.03-22.96 40.664-39.708l4.31 5.5-40.188 53.59-38.275-30.86-6.45-27.98"/><path fill="#D4145A" d="M132.96 157.4c0 3.718-3.015 6.735-6.734 6.735-3.725 0-6.74-3.02-6.74-6.74s3.016-6.738 6.74-6.738c3.72 0 6.734 3.02 6.734 6.74v.003z"/><path fill="#F5F5F5" d="M120.48 120.667c0 6.788-5.507 12.294-12.292 12.294-6.795 0-12.3-5.5-12.3-12.29s5.505-12.28 12.3-12.28c6.786 0 12.293 5.5 12.293 12.29v-.01z"/><path fill="#333" d="M116.837 120.375c0 4.716-3.818 8.53-8.53 8.53-4.72 0-8.546-3.814-8.546-8.53s3.83-8.534 8.55-8.534 8.53 3.82 8.53 8.54z"/><path fill="#F5F5F5" d="M156.925 120.667c0 6.788-5.506 12.294-12.293 12.294-6.793 0-12.3-5.5-12.3-12.29s5.507-12.28 12.3-12.28c6.787 0 12.293 5.5 12.293 12.29v-.01z"/><path d="M144.743 111.84c-4.714 0-8.54 3.82-8.54 8.535s3.826 8.53 8.54 8.53c4.716 0 8.532-3.813 8.534-8.527-.002-4.718-3.818-8.537-8.534-8.537zm8.534 8.54v-.005.003zm-22.845-60h-4.21c-62.1-11-66.2 105.22-60.93 121.03 5.28 15.8 30.47 16.45 30.47 16.45-9.853-19.706-8.945-70.454-8.405-86.146 5.414-1.973 10.558-5.137 15.236-8.79.562.162 1.122.317 1.68.43.91.174 1.75.667 2.6.98.83.372 1.68.652 2.45 1.062 1.51.878 2.96 1.562 4.07 2.39 2.335 1.492 3.49 2.677 3.595 2.715h.035c1.29.93 3.08.64 4.01-.64.93-1.28.64-3.07-.65-4.01.08.09-1.82-1.17-4.68-2.33-1.39-.68-3.15-1.14-4.95-1.77-.92-.28-1.91-.43-2.89-.66-.808-.13-1.592-.38-2.417-.48 8.73-7.45 15.53-16.18 18.943-20.94 3.61 5.14 10.51 14.22 19.21 22.08l-.06.02c-1.81.62-3.57 1.1-4.97 1.77-2.88 1.15-4.78 2.42-4.71 2.33l.02-.04c-1.29.92-1.59 2.72-.66 4.01.92 1.29 2.71 1.59 4 .67.11-.04 1.28-1.23 3.63-2.71 1.12-.83 2.58-1.51 4.11-2.38.59-.33 1.24-.57 1.89-.84 5.84 4.8 12.34 8.84 19.1 10.75 1.61 21.85 3.64 66.64-5.07 84.07 0 0 25.2-2.15 30.47-17.96 5.26-15.81 1.16-132.03-60.94-121.03zm-3.832 94.363c-8.2 0-14.39 3.135-14.39 7.295 0 .912.73 1.642 1.64 1.642.91 0 1.64-.733 1.64-1.642 0-1.638 4.32-4.015 11.1-4.015 6.772 0 11.092 2.377 11.092 4.015 0 .912.735 1.642 1.646 1.642h.014c.91 0 1.64-.733 1.64-1.642-.002-4.16-6.18-7.295-14.38-7.295z" fill="#333"/><path fill="#DDB99B" d="M127.284 190.464l-2.244 6.88 4.668.27-2.424-7.15z"/><path fill="#39B54A" d="M66.5 194.38h-.063.063zm36.21 0h.063-.063zm13.096 2.82c-.137 0-.273-.017-.412-.042-1.188-.227-1.97-1.37-1.742-2.562l3.77-19.91c.224-1.188 1.394-1.97 2.556-1.74 1.186.225 1.97 1.362 1.742 2.553l-3.77 19.91c-.195 1.05-1.113 1.78-2.144 1.78v.01zm22.954 0c-1.013 0-1.92-.707-2.138-1.74l-4.304-20.456c-.25-1.18.5-2.34 1.688-2.59 1.16-.27 2.33.505 2.59 1.69l4.302 20.456c.25 1.18-.51 2.342-1.69 2.59-.15.033-.31.05-.46.05h.012z"/><path d="M182.81 108.64c-4.58-3.16-10.86-2-14.02 2.59l-.35.52-8.022 11.64c-1.194 1.75-2.498 3.65-3.875 5.65-1.42 1.96-2.737 4.22-4.44 6.18-3.28 4.08-6.775 8.43-10.27 12.78-1.69 2.26-3.747 3.98-5.57 5.97-1.864 1.93-3.694 3.83-5.48 5.66-1.83 1.71-3.71 3.062-5.43 4.51-1.732 1.42-3.363 2.87-4.91 3.59-1.52.845-2.97 1.845-4.13 2.385-1.11.35-2.058.73-2.845 1.06-.15-.04.018.09-.035.28-.51 0-.98-.077-.95-.062v.02l-.04-.09-.39-.05-.17-.03c-4.55-.51-8.65 2.75-9.17 7.29-.336 2.95.927 5.71 3.09 7.432 1.34 2.09 2.717 5.06 2.59 8.325l2.894-6.445c1.305.025 3.39.002 5.647-.383 1.61-.46 3.6-1.05 5.84-1.81 2.06-.852 4-2.022 6.31-3.21 2.41-1.15 4.41-2.74 6.608-4.37 2.16-1.67 4.61-3.34 6.83-5.25 2.088-1.98 4.24-4.03 6.438-6.11 2.12-2.13 4.58-4.13 6.48-6.43 3.95-4.53 7.89-9.07 11.6-13.32 1.93-2.08 3.36-4.33 4.94-6.34 1.53-2.04 2.98-3.97 4.31-5.75l8.88-11.9c.073-.09.15-.23.22-.32 3.16-4.58 2.01-10.85-2.58-14.01zm-70.33 62.753zm30.96 12.61l2.512 12.195c1.427-6.215 4.06-14.45 4.063-14.465h-.004l-6.57 2.27zm6.576-2.27h.005z" fill="#fdb"/><path fill="#DDB99B" d="M121.194 164.813c-1.752 1.515-3.402 2.957-4.938 4.295l-4.188 3.18c-1.28 1.046-.094-.352-.932.245-1.227.75-.467-1.062-.36-.83.052.028.104-.38.122-.35 1.584-3.972-1.57.92-1.557.84.48-3.432-.96-.602-.96-.602l-.71 1.2c-.13.03-.7.09-.83.12 1.01 4.3 2.85 12.43 11.66 14.23.6-.34 2.52-.44 3.05-.83 1.56-1.08 3.31-2.31 5.22-3.65 1.75-1.4 3.64-2.9 5.64-4.5 1.98-1.61 5.61-1.6 7.57-3.45 1.02-.92 4.92-4.18 5.98-5.14-3.18-.95-11.46-2.27-17.94-7.53-1.3 1.21-5.56 1.72-6.8 2.82l-.02-.01v-.03z"/><path d="M144.5 171.06c-.12-.028-1.26-.33-3.53-1.118-2.3-.75-5.57-2.03-9.438-3.69-3.82-1.78-8.29-3.87-12.69-6.64-2.28-1.28-4.43-2.852-6.65-4.392-2.23-1.52-4.21-3.36-6.35-5.02-1.85-1.92-3.94-3.65-5.59-5.62-1.59-2.02-3.46-3.81-4.64-5.898-1.29-2.02-2.71-3.89-3.52-5.9-.87-1.97-2.03-3.71-2.44-5.55-.57-1.78-1.1-3.41-1.57-4.85l-.62-3.89c-.37-2.15-.58-3.38-.58-3.38l-.26-1.48c-.01-.07-.02-.13-.04-.2-1.07-5.45-6.36-9-11.81-7.93-5.45 1.07-9 6.35-7.94 11.81 0 0 .35 1.74.94 4.77.31 1.5.7 3.34 1.14 5.44.73 2.03 1.55 4.31 2.45 6.8.77 2.55 2.33 4.96 3.69 7.64 1.3 2.74 3.23 5.23 5.11 7.87 1.78 2.74 4.19 5.01 6.39 7.53 2.26 2.47 4.89 4.56 7.35 6.84 2.65 1.97 5.23 4.11 7.94 5.84 2.72 1.75 5.37 3.51 8.07 4.91 5.294 3.03 10.477 5.25 14.924 7.1 4.5 1.74 8.29 3.057 11.033 3.854 2.74.827 4.54 1.237 4.41 1.21v.045l.05-.06c4.44 1.14 8.95-1.51 10.1-5.94 1.14-4.43-1.52-8.95-5.94-10.09zm45.466-54.643l-7.844-46.435-.003.01-.01.01c-.36-2.06-1.96-3.602-3.91-3.97l-1.36-6.645h.01c-.04-.23-.11-.47-.18-.696-1.26-4.16-5.66-6.51-9.82-5.26-4.16 1.26-6.51 5.65-5.26 9.82l7.83 25.89c-1.41 8.78-3.35 23.53-1.49 29.04 2.71 8.06 6.92 9.3 12.47 7.8 1.38-.37 2.8-1.34 4.03-2.86.27 0 .54-.02.82-.07 3.12-.52 5.22-3.49 4.7-6.61z" fill="#fdb"/><path fill="#fff" d="M161.52 60.967s3.276-4.327 5.102-1.72c1.83 2.597 2.523 7.473 2.523 7.473l-5.336 1.038-2.3-6.79h.01zm10.397 9.775s2.166-2.854 3.37-1.136c1.197 1.72 1.67 4.953 1.67 4.953l-3.523.68-1.517-4.5z"/><path fill="#F4D1B0" d="M170.993 72.214s4.44 17.095 3.52 23.89c0 0-4.32.64-3.392-6.7.93-7.348-.12-17.19-.12-17.19z"/><path fill="#fdb" d="M85.927 62.99l-8.963 45.668c-.61 3.11-3.63 5.14-6.734 4.532-2.936-.576-4.902-3.313-4.615-6.227l4.76-46.294c.44-4.33 4.313-7.47 8.633-7.03 4.32.44 7.467 4.31 7.02 8.64-.017.22-.06.47-.1.71zm-10.014 9.226l-1.453 47.07c-.094 3.16-2.744 5.655-5.912 5.56-3.174-.104-5.66-2.75-5.56-5.915 0-.06.005-.14.013-.2l3.17-46.98c.19-2.68 2.51-4.71 5.2-4.53 2.62.17 4.63 2.41 4.55 5.01v-.01zm2.94 10.638s8.143 27.134 6.242 35.422c-1.898 8.276-5.963 9.927-11.635 8.988-5.682-.927-12.855-11.37-6.898-29.345 0 0 3.466-16.74 12.29-15.07z"/><path fill="#fff" d="M85.763 60.707s-3.688-3.974-5.238-1.196c-1.555 2.78-1.766 7.7-1.766 7.7l5.4.51 1.59-7 .01-.01zM76.4 71.472s-2.437-2.62-3.466-.79c-1.025 1.835-1.164 5.09-1.164 5.09l3.574.335 1.056-4.635z"/><path fill="#F4D1B0" d="M77.464 72.854s-2.71 17.45-1.11 24.116c0 0 4.366.21 2.714-7.006-1.655-7.21-1.604-17.11-1.604-17.11z"/><path fill="none" stroke="#333" stroke-width=".75" stroke-linecap="round" stroke-linejoin="round" stroke-miterlimit="10" d="M85.897 116.433"/><path fill="#39B54A" d="M145.186 202.38c.015 0 1.438.77 1.438.36v.003c0-.755-.432-1.536-.432-2.354 0-5.68-4.75-10.29-10.158-10.29-3.75 0-7.14 2.23-8.79 5.46-1.65-3.23-4.95-5.46-8.7-5.46-5.42 0-9.85 3.81-9.85 9.49 0 1.28.25 2.79.66 2.79h35.85-.018z"/></svg>