<svg xmlns="http://www.w3.org/2000/svg" width="256" height="256" viewBox="0 0 256 256"><path fill="#fff" d="M133.56 239.076c-42.553 0-77.17-28.55-77.17-63.646 0-.68.016-1.378.05-2.122-2.003-1.763-3.848-3.768-5.702-6.19-2.114-2.806-3.817-5.61-5.226-8.6-1.73-3.718-2.746-7.02-3.208-10.405-.317-2.434-.31-4.624.022-6.72.193-1.087.475-2.42 1.057-3.85.292-.787.73-1.62 1.054-2.192.27-.48.425-.73.676-1.06.046-.06.106-.14.244-.36l.08-.12.086-.11c2.076-2.76 4.65-4.32 6.446-5.14 1.95-.88 4-1.44 6.28-1.73.9-.11 1.8-.17 2.71-.2-.08-4-.08-7.97 0-11.85-8.04-2.96-12.92-8.91-13.96-17.09l-2.74-2.86c-2.02-2.11-4.05-4.22-6.06-6.34-2.16-2.19-4.35-4.44-6.54-6.69-4.08-4.19-8.3-8.52-12.51-12.69-2.5-2.47-3.89-5.77-3.91-9.29-.02-3.51 1.33-6.82 3.81-9.31 2.49-2.51 5.81-3.9 9.36-3.9 3.49 0 6.77 1.35 9.24 3.81.29.28.59.62.83.91 3.89 4.66 7.95 9.34 11.87 13.85l1.82 2.1c.23.04.52.07.81.07.63 0 .93-.12.98-.17.06-.08.23-.5.22-1.41l-12.62-24.3c-1.39-2.66-1.61-5.86-.61-9.01 1.17-3.71 3.89-6.97 7.26-8.71 2-1.03 4.35-1.58 6.79-1.58 5.38 0 9.87 2.57 11.71 6.72L79.62 57.6c2.9 2.96 5.86 4.773 7.82 4.773.4 0 .74-.075 1.073-.24 2.5-6.932 5.74-12.672 9.885-17.51 2.32-2.71 5.7-4.262 9.27-4.262 2.9 0 5.72 1.05 7.93 2.94 2.476 2.11 3.98 5.07 4.23 8.32s-.78 6.4-2.9 8.88c-.084.1-.175.2-.26.29-2.61 2.92-4.866 7.24-6.52 12.49-.81 2.55-1.47 5.22-1.957 7.95-.35 1.93-1.59 7.42-2.59 11.82-.88 12.13-7.94 20.32-19.58 22.92.01 3.06.06 6.15.17 9.23 13.5-8.67 30.03-13.37 47.36-13.37 21.01 0 41.11 7.09 55.62 19.53 2.6-1.16 5.41-2.1 8.38-2.81 2.88-.64 5.34-.94 7.8-.94.89 0 1.78.04 2.65.12 2.34.23 4.41.74 6.36 1.55 1.85.81 4.45 2.3 6.59 4.96l.09.1.08.11c.16.23.23.32.28.38.26.32.41.55.72 1.07.27.45.77 1.32 1.11 2.17.6 1.37.93 2.7 1.14 3.7.42 2.21.49 4.4.25 6.79-.37 3.43-1.29 6.76-2.91 10.5-1.32 3.03-2.99 5.96-4.96 8.74-1.93 2.69-3.86 4.89-6.01 6.82.01.29.01.57.01.85 0 35.1-34.61 63.65-77.15 63.65zm67.22-94.896c1.15 1.68 2.206 3.4 3.164 5.16.837-1.427 1.454-2.822 1.753-3.97.08-.292.13-.536.16-.736-.136-.047-.294-.094-.474-.135-.964-.24-2.102-.36-3.357-.36-.404 0-.82.01-1.245.03zm-139.868-.52c.035.197.09.437.173.72.21.713.544 1.513.972 2.348-.1-1.1-.194-2.207-.282-3.317l-.34.09c-.202.05-.376.11-.523.17z"/><path fill="#333" d="M55.01 26.117c3.382 0 6.763 1.428 8.05 4.338.034.074.084.188.118.266l13.088 29.12c2.013 2.15 6.658 6.51 11.186 6.51 1.308 0 2.606-.36 3.828-1.25l.5-.17c2.055-6.11 4.966-12.23 9.67-17.72 1.62-1.89 3.92-2.87 6.232-2.86 1.888 0 3.786.65 5.333 1.98 3.44 2.95 3.838 8.12.89 11.57-.033.05-.104.12-.148.16-3.227 3.59-5.7 8.6-7.41 14.03-.864 2.73-1.56 5.57-2.077 8.45-.37 1.99-1.806 8.36-2.622 11.95-.567 8.94-5.117 18.38-19.592 20.13-.056 4.94.006 11.46.435 19.03.03.36.05.73.07 1.09 13.18-10.44 31.16-16.89 51-16.89 21.91 0 41.55 7.86 54.96 20.29 3.13-1.65 6.48-2.85 9.97-3.68 2.19-.49 4.45-.83 6.87-.83.75 0 1.51.04 2.29.11 1.65.16 3.38.51 5.17 1.26 1.77.77 3.61 2.01 5.02 3.78.56.8.4.47.85 1.21.35.58.68 1.2.85 1.65.45 1 .71 2.01.92 3 .37 1.97.36 3.82.18 5.55-.37 3.46-1.38 6.48-2.61 9.32s-2.76 5.49-4.55 8c-1.8 2.52-3.85 4.92-6.54 7.13l-.22.18c-.02.02-.04.03-.06.05.05.88.09 1.75.09 2.64 0 32.95-32.75 59.65-73.16 59.65s-73.17-26.7-73.17-59.64c0-1.31.07-2.61.17-3.9-2.7-2.12-4.79-4.42-6.64-6.85-1.86-2.47-3.46-5.06-4.78-7.87-1.3-2.81-2.39-5.81-2.86-9.24-.22-1.73-.3-3.57.01-5.56.18-1 .42-2.01.84-3.02.16-.45.47-1.08.81-1.67.42-.74.27-.4.8-1.22 1.36-1.81 3.17-3.11 4.92-3.92 1.76-.8 3.48-1.2 5.12-1.4 1.03-.13 2.03-.18 3.01-.18 1.13 0 2.23.07 3.31.19-.24-7.55-.18-14.02-.03-18.96-6.14-1.54-13.48-5.55-14.19-15.92-3.25-3.4-6.51-6.78-9.75-10.19-6.38-6.49-12.68-13.07-19.14-19.48-3.6-3.55-3.63-9.35-.07-12.94 1.79-1.81 4.16-2.72 6.52-2.72 2.32 0 4.64.88 6.42 2.65.21.2.4.43.58.64 4.9 5.86 9.93 11.61 14.93 17.38l.04-.29s1.17.36 2.6.36c2.36 0 5.44-.97 5.18-6.06l.23-.09-13.28-25.58c-2.24-4.29.64-10.11 4.94-12.33 1.46-.76 3.21-1.14 4.96-1.14m9.26 130.1c.68-1.63 1.46-3.23 2.3-4.79-.15-1.3-.29-2.58-.42-3.85-.28-2.94-.5-5.78-.68-8.53h-.22c-1.75 0-3.44.17-4.89.57-1.95.5-3.14 1.5-3.34 2.18-.25.64-.32 1.93.21 3.7.51 1.73 1.46 3.63 2.65 5.43 1.23 1.87 2.76 3.7 4.38 5.28m138.85.76c1.47-1.56 2.84-3.33 3.94-5.12 1.13-1.83 2.03-3.76 2.49-5.51.49-1.77.37-3.06.11-3.69-.22-.68-1.44-1.64-3.4-2.08-1.27-.31-2.73-.45-4.25-.45-.74 0-1.5.03-2.26.09-2.05.2-4.13.58-6.16 1.14 4.07 4.75 7.3 10 9.54 15.61M55.01 18.12c-3.082 0-6.07.71-8.64 2.04-4.29 2.22-7.743 6.357-9.23 11.06-1.318 4.17-1.005 8.46.882 12.076l1.98 3.82c-3.166-2.92-7.256-4.52-11.59-4.52-4.615 0-8.95 1.81-12.2 5.09-3.223 3.24-4.988 7.56-4.965 12.14.02 4.59 1.83 8.89 5.095 12.12 4.178 4.14 8.384 8.46 12.452 12.63 2.18 2.24 4.36 4.48 6.553 6.71 2.004 2.11 4.015 4.21 6.025 6.3.624.65 1.248 1.3 1.87 1.96 1.428 8.04 6.23 14.27 13.68 17.85-.02 1.85-.024 3.708-.01 5.58-2.374.37-4.52 1.003-6.57 1.93l-.024.01-.022.01c-3.174 1.46-5.93 3.664-7.97 6.374l-.175.23-.15.247-.09.14c-.35.464-.59.854-.96 1.517-.54.97-.97 1.87-1.28 2.68-.71 1.75-1.04 3.33-1.25 4.52l-.01.08-.01.09c-.39 2.48-.4 5.04-.04 7.84.53 3.85 1.65 7.51 3.54 11.59 1.55 3.28 3.39 6.31 5.65 9.31l.02.03.02.03c1.58 2.06 3.16 3.86 4.83 5.47v.42c0 18.38 8.66 35.56 24.38 48.38 15.25 12.42 35.42 19.26 56.8 19.26 21.38 0 41.54-6.84 56.78-19.263 15.47-12.61 24.1-29.44 24.37-47.5 1.85-1.81 3.56-3.84 5.25-6.2 2.15-3.02 3.96-6.19 5.38-9.46 1.8-4.15 2.82-7.85 3.23-11.66l.01-.03.01-.03c.28-2.78.19-5.35-.28-7.83l-.02-.1-.02-.1c-.25-1.18-.63-2.74-1.36-4.41-.42-1.04-.98-2.04-1.39-2.71-.38-.64-.63-1-1-1.47-.04-.06-.08-.11-.13-.19l-.15-.21-.16-.2c-2.1-2.62-4.89-4.73-8.07-6.11l-.04-.02-.04-.02c-2.32-.97-4.76-1.57-7.48-1.84h-.06c-.99-.09-2.01-.13-3.01-.13-2.76 0-5.5.32-8.61 1.02l-.06.01-.06.01c-2.34.56-4.6 1.26-6.75 2.08-15.05-12.07-35.27-18.91-56.31-18.91-11.91 0-23.49 2.14-34.03 6.19 1.37-1.11 2.62-2.36 3.74-3.74 3.61-4.42 5.79-10.16 6.32-16.63 1-4.38 2.2-9.74 2.55-11.67.47-2.6 1.08-5.11 1.84-7.49 1.46-4.63 3.46-8.52 5.64-10.99.15-.15.31-.33.48-.53 2.75-3.27 4.08-7.4 3.75-11.66-.33-4.32-2.33-8.25-5.62-11.06-2.93-2.51-6.67-3.9-10.54-3.9-4.74 0-9.22 2.06-12.31 5.66-3.82 4.46-6.92 9.61-9.41 15.65-.79-.49-1.82-1.26-2.98-2.38l-12.5-27.8-.07-.16-.03-.08c-2.49-5.62-8.38-9.11-15.37-9.11z"/><path fill="#fff" d="M82.394 102.375s-.044.702-.114 2.024c-.042 1.36-.108 3.36-.19 5.91-.1 5.13-.096 12.5.402 21.28.255 4.39.645 9.13 1.225 14.1.624 4.96 1.318 10.19 2.436 15.45 2.06 10.56 5.45 21.49 10.588 30.77 2.7 4.5 5.73 8.63 9.24 11.75 3.59 2.96 7.39 5.25 11.52 6.39 4.14 1.08 8.44 1.48 12.72 1.03 4.26-.29 8.43-1.41 12.25-2.46 3.82-1.4 7.35-2.49 10.41-4.08 3.08-1.41 5.77-2.6 7.91-3.92l6.81-3.82.62-.34c4.92-2.76 11.13-1 13.88 3.91s1 11.13-3.92 13.88c-.03.02-.12.06-.15.08l-7.81 4.19c-2.42 1.41-5.64 2.79-9.3 4.39-3.56 1.73-8 3.11-12.77 4.69-4.95 1.28-10.36 2.63-16.53 2.96-6.08.49-12.89-.12-19.67-2.11-6.83-2.04-13.23-5.98-18.66-10.79-5.34-4.95-9.4-10.79-12.79-16.76-6.39-12.09-9.85-24.71-11.95-36.45-1.12-5.88-1.78-11.57-2.35-16.95-.52-5.38-.85-10.46-1.03-15.15-.36-9.37-.23-17.17-.01-22.64l.32-6.38.17-2.32c.35-4.64 4.38-8.12 9.01-7.78 4.58.34 8.04 4.28 7.79 8.85l-.01.19z"/><path fill="#fdb" d="M97.72 71.554m-9.333 21.83s4.356 8.428 11.86 5.55"/><path fill="#fff" d="M59.895 105.507c-6.17-6.693-12.522-13.2-18.79-19.793-6.38-6.486-12.672-13.066-19.135-19.468-3.6-3.557-3.63-9.354-.074-12.94 3.56-3.593 9.356-3.634 12.94-.075.21.2.405.43.585.64 5.84 6.99 11.87 13.8 17.8 20.71 6.04 6.81 12 13.68 18.14 20.39 2.91 3.17 2.7 8.1-.47 11.02-3.16 2.89-8.08 2.69-10.98-.46zm11.458-15.394l-26.237-50.52c-2.24-4.29.64-10.114 4.937-12.337 4.283-2.22 11.053-1.216 13.008 3.2.04.074.09.188.12.266L86.51 82.62c1.85 3.89-.4 8.812-4.287 10.667-3.795 1.81-8.945.53-10.87-3.174z"/><path fill="#E2AB74" d="M82.854 79.152"/><path fill="#fff" d="M87.548 88.614c.14-3.933.524-7.222 1.083-10.79.57-3.5 1.34-6.997 2.37-10.462 2.09-6.91 5.12-13.947 10.45-20.166 2.95-3.44 8.13-3.842 11.57-.893 3.44 2.943 3.84 8.12.89 11.567-.03.044-.1.115-.15.16-3.22 3.583-5.7 8.592-7.41 14.023-.86 2.723-1.56 5.562-2.07 8.445-.52 2.82-3.19 14.453-3.19 14.453-.23 4.32-1.78 1.97-6.1 1.75-4.27-.22-7.56-3.83-7.43-8.08zm-13.994 24.13s-35.315 2.095-17.96-37.302L78.22 65.426S94.57 70.34 98.51 76.33c3.943 5.983 10.548 38.746-24.956 36.415zM50.384 70.96s8.196 2.49 7.79-5.704L75.23 58.67s9.22 11.38 16.05 6.425l3.357-1.157-.14 11.33s-10.938 13.87-13.03 13.5c-2.098-.36-26.715 4.42-26.715 4.42l-5.574-13.32 1.207-8.908zm83.176 166.618c-41.726 0-75.67-27.878-75.67-62.146 0-.873.027-1.776.087-2.777-2.14-1.81-4.086-3.886-6.047-6.445-2.044-2.715-3.695-5.434-5.06-8.33-1.66-3.57-2.638-6.733-3.08-9.968-.3-2.312-.294-4.304.018-6.284.177-.988.438-2.23.974-3.537.257-.7.663-1.47.962-2 .26-.47.376-.65.57-.9.057-.07.133-.18.305-.44l.04-.07.05-.07c1.89-2.51 4.23-3.93 5.87-4.68 1.8-.81 3.71-1.34 5.84-1.61 1.1-.13 2.23-.2 3.35-.2 2.07 0 4.18.22 6.62.69 3.82.8 7.37 2 10.6 3.58 14.22-12.12 33.99-19.05 54.54-19.05 21 0 41.07 7.19 55.36 19.79 2.76-1.3 5.77-2.35 8.98-3.12 2.74-.61 5.1-.89 7.45-.89.84 0 1.68.04 2.51.12 2.18.22 4.1.69 5.9 1.45 1.67.73 4.05 2.09 6 4.51l.09.13c.19.27.27.38.33.45.2.25.31.42.6.91.25.41.71 1.22 1.01 1.98.55 1.25.84 2.44 1.05 3.44.38 2.03.45 4.07.22 6.33-.35 3.26-1.24 6.46-2.8 10.06-1.27 2.93-2.89 5.77-4.81 8.46-2.01 2.81-4.03 5.06-6.31 7.03.02.55.03 1.04.03 1.51 0 34.26-33.94 62.14-75.65 62.14zm64.512-94.604c2.226 2.978 4.137 6.098 5.716 9.335.415-.57.806-1.16 1.165-1.74 1.05-1.71 1.83-3.42 2.196-4.83.3-1.11.26-1.77.22-2.02-.23-.18-.77-.5-1.66-.7-1.07-.27-2.3-.4-3.69-.4-.66 0-1.35.03-2.05.09-.63.06-1.27.14-1.91.24zm-138.71-.166c-.02.214-.05.876.286 2.002.42 1.413 1.25 3.106 2.343 4.77.49.74 1.03 1.473 1.6 2.186 1.72-3.42 3.8-6.702 6.23-9.815-1.02-.16-2.06-.28-3.1-.34-.47-.03-.96-.04-1.44-.04-1.6 0-3.06.17-4.23.49-.92.24-1.46.58-1.67.76z"/><path fill="#333" d="M133.56 115.805c21.906 0 41.548 7.858 54.955 20.292 3.124-1.65 6.48-2.854 9.97-3.688 2.187-.49 4.45-.83 6.87-.83.75 0 1.512.03 2.292.1 1.645.16 3.38.51 5.164 1.26 1.77.77 3.61 2.01 5.02 3.77.57.8.4.46.85 1.2.35.58.68 1.19.85 1.65.45 1 .71 2 .92 3 .37 1.96.36 3.82.18 5.54-.37 3.45-1.38 6.48-2.61 9.32-1.23 2.83-2.76 5.49-4.55 8-1.8 2.52-3.85 4.91-6.54 7.13l-.22.17-.06.04c.05.87.09 1.75.09 2.64 0 32.94-32.75 59.64-73.16 59.64s-73.17-26.7-73.17-59.65c0-1.31.07-2.61.17-3.9-2.7-2.12-4.79-4.43-6.64-6.85-1.86-2.48-3.46-5.07-4.78-7.88-1.31-2.82-2.39-5.81-2.86-9.24-.22-1.73-.3-3.58.01-5.56.18-1.01.42-2.01.84-3.03.17-.46.47-1.08.81-1.68.42-.75.27-.41.8-1.23 1.37-1.81 3.17-3.11 4.92-3.92 1.76-.79 3.48-1.19 5.12-1.4 1.04-.12 2.05-.18 3.04-.18 2.15 0 4.18.26 6.15.64 4.03.84 7.88 2.19 11.44 4.13 13.38-12.01 32.7-19.56 54.18-19.56m-69.29 40.45c2.39-5.72 5.8-11.04 10.07-15.83-2.46-.71-5-1.14-7.49-1.3-.53-.03-1.07-.05-1.6-.05-1.75 0-3.44.18-4.89.58-1.95.5-3.13 1.5-3.34 2.18-.25.64-.31 1.93.21 3.7.52 1.73 1.47 3.63 2.65 5.43 1.24 1.87 2.76 3.7 4.39 5.28m138.85.76c1.48-1.56 2.84-3.33 3.95-5.12 1.13-1.83 2.04-3.77 2.49-5.51.49-1.78.37-3.07.11-3.7-.22-.67-1.44-1.64-3.4-2.08-1.27-.32-2.73-.46-4.25-.46-.74 0-1.5.04-2.25.1-2.05.2-4.13.58-6.17 1.15 4.06 4.74 7.3 9.99 9.54 15.61m-69.6-46.17c-20.55 0-40.36 6.75-54.93 18.61-3-1.33-6.24-2.36-9.66-3.08l-.04-.01h-.04c-2.6-.5-4.85-.73-7.08-.73-1.22 0-2.44.07-3.64.22-2.41.3-4.55.89-6.57 1.8-1.93.89-4.65 2.54-6.85 5.46l-.11.14-.1.15c-.11.18-.16.25-.2.3-.28.37-.46.65-.77 1.21-.32.56-.77 1.44-1.09 2.28-.61 1.51-.9 2.9-1.09 3.95l-.01.05-.01.05c-.34 2.19-.35 4.47-.03 6.98.48 3.52 1.53 6.91 3.29 10.7 1.45 3.07 3.19 5.94 5.33 8.77 1.8 2.35 3.59 4.31 5.5 6.04-.02.58-.03 1.14-.03 1.69 0 17.46 8.26 33.82 23.27 46.05 14.7 12 34.2 18.6 54.89 18.6 20.69 0 40.18-6.61 54.89-18.6 15-12.23 23.27-28.58 23.27-46.05v-.4c2.07-1.91 3.94-4.06 5.81-6.66 2.02-2.84 3.73-5.84 5.07-8.92 1.66-3.86 2.61-7.28 2.99-10.78.26-2.53.18-4.81-.23-7.01l-.01-.07-.01-.06c-.23-1.05-.56-2.44-1.19-3.88-.34-.87-.83-1.73-1.19-2.32-.32-.54-.5-.8-.79-1.16-.04-.06-.11-.14-.24-.33l-.09-.13-.1-.13c-2.27-2.82-5.02-4.4-6.93-5.23l-.03-.01-.02-.01c-2.04-.86-4.2-1.39-6.61-1.63-.94-.09-1.87-.13-2.78-.13-2.54 0-5.07.3-7.96.95l-.04.01-.04.01c-2.81.67-5.48 1.54-7.98 2.61-14.65-12.34-34.78-19.36-55.79-19.36zm-71.44 33.56c.87-.19 1.92-.3 3.08-.3-.65.96-1.27 1.95-1.86 2.94-.53-.94-.95-1.85-1.21-2.65zm141.79 2.9c-.41-.71-.84-1.41-1.29-2.11.76.02 1.45.09 2.04.21-.17.58-.42 1.22-.75 1.9zM55.53 141.6l-.24.47c-.19.492-.29.88-.4 1.485-.1.69-.09 1.67.06 2.88.29 2.05.95 4.14 2.13 6.69 1.02 2.143 2.28 4.23 3.84 6.29 1.69 2.19 3.27 3.83 5.12 5.27l3.71 2.89-.447 5.573c-.07.76-.15 1.51-.15 2.27 0 28.08 28.91 50.93 64.45 50.93 35.52 0 64.43-22.84 64.43-50.92 0-.27-.03-.55-.06-.83l-.29-5.6 3.9-3.29c1.668-1.38 3.19-3.063 4.83-5.35 1.47-2.06 2.67-4.17 3.64-6.395 1.1-2.55 1.7-4.65 1.93-6.77.12-1.13.09-2.1-.08-2.99-.08-.41-.19-.81-.32-1.08l-.31-.64c-.04-.04-.222-.28-.54-.73-.06-.05-.67-.5-1.353-.79-.66-.28-1.5-.48-2.556-.59-1.69-.13-3.88.01-6.405.562-2.64.63-5.3 1.64-7.77 2.947l-5.48 2.914-4.55-4.23c-12.32-11.46-30.19-18.026-49.02-18.026-18.4 0-36.01 6.33-48.31 17.37l-4.61 4.13-5.43-2.98c-2.7-1.48-5.75-2.58-9.07-3.28-2.35-.44-4.27-.598-6.35-.33-.97.12-1.81.344-2.58.69-.52.24-1.05.64-1.42 1.07-.12.18-.22.31-.3.42z"/><path fill="#676767" d="M82.072 140.525s-24.412-8.505-29.195-1.57c-4.77 6.95 5.715 23.58 13.908 29.226 0 0-4.783-17.91 15.287-27.65z"/><path fill="#B3B3B3" d="M80.482 142.936c-4.104-2.33-8.953-3.528-13.61-3.828-2.304-.14-4.603.012-6.495.53-1.945.505-3.133 1.5-3.336 2.184-.25.64-.31 1.93.22 3.7.51 1.727 1.47 3.628 2.65 5.43 2.36 3.57 5.77 7.024 8.94 8.778 3.5 1.95 4.76 6.356 2.82 9.856-1.94 3.498-6.36 4.757-9.85 2.81-.32-.177-.61-.37-.88-.587l-.25-.2c-2.75-2.14-4.87-4.48-6.74-6.93-1.86-2.48-3.46-5.07-4.78-7.88-1.31-2.82-2.39-5.81-2.86-9.24-.22-1.73-.3-3.58.01-5.56.18-1.01.42-2.01.84-3.03.16-.46.47-1.08.81-1.68.42-.75.27-.41.8-1.23 1.37-1.81 3.17-3.11 4.92-3.92 1.76-.8 3.48-1.2 5.12-1.4 3.29-.4 6.31-.1 9.19.46 5.71 1.19 11.08 3.36 15.73 6.87 1.27.97 1.52 2.79.55 4.06-.89 1.17-2.5 1.47-3.74.76z"/><path fill="#676767" d="M184.617 142.1c-9.068-4.08 24.16-9.207 29.137-2.397 4.97 6.802-3.078 21.18-11.1 27.042 0 0 2.305-15.484-18.037-24.646z"/><path fill="#B3B3B3" d="M182.96 139.733c4.538-3.652 9.854-5.97 15.524-7.325 2.863-.64 5.86-1.023 9.162-.725 1.645.162 3.38.51 5.164 1.258 1.768.77 3.602 2.02 5.018 3.78.563.8.398.47.844 1.21.352.58.674 1.2.848 1.65.445 1 .707 2.01.92 3 .37 1.97.354 3.82.178 5.55-.375 3.46-1.38 6.48-2.61 9.32-1.235 2.84-2.76 5.49-4.548 8.01-1.807 2.52-3.854 4.92-6.545 7.13l-.223.18c-3.084 2.53-7.652 2.1-10.19-.99-2.54-3.08-2.09-7.65.995-10.19.28-.23.607-.45.898-.62 3.133-1.86 6.44-5.41 8.686-9.04 1.13-1.83 2.04-3.77 2.49-5.51.49-1.78.37-3.06.11-3.69-.22-.67-1.44-1.64-3.4-2.08-1.89-.47-4.2-.55-6.51-.36-4.64.44-9.46 1.79-13.49 4.23-1.36.83-3.14.39-3.98-.98-.76-1.26-.45-2.87.67-3.76z"/><path fill="#fff" d="M206.715 175.43c0 32.947-32.75 59.647-73.156 59.647-40.42 0-73.17-26.7-73.17-59.646 0-32.92 32.75-59.62 73.17-59.62 40.4 0 73.15 26.7 73.15 59.63z"/><path fill="#B3B3B3" d="M191.025 173.74c0 26.88-26.545 48.67-59.3 48.67-32.747 0-59.296-21.79-59.296-48.67 0-26.876 26.54-48.667 59.29-48.667s59.3 21.79 59.3 48.666z"/><path fill="#999898" d="M131.727 225.322c-34.3 0-62.203-23.146-62.203-51.583 0-28.44 27.904-51.58 62.203-51.58 34.3 0 62.207 23.14 62.207 51.57s-27.907 51.58-62.207 51.58zm0-97.338c-31.088 0-56.385 20.522-56.385 45.755 0 25.23 25.297 45.76 56.385 45.76 31.096 0 56.39-20.53 56.39-45.76-.002-25.24-25.295-45.76-56.39-45.76z"/><path fill="#C1272D" d="M109.336 181.438c0 17.303 9.197 31.337 22.705 31.337s22.7-14.034 22.7-31.337l.26-8.478c0 9.684-5.1 17.526-11.4 17.526-11.39 0-11.39-12.458-11.39-22.144 0 9.686 0 22.144-11.4 22.144-6.29 0-11.38-7.843-11.38-17.526l-.08 8.478z"/><path fill="#999898" d="M132.018 216.49c-15.518 0-26.223-10.445-26.955-23.598l-.066 5.862c0 13.814 10.94 25.017 27.02 25.017s27.02-11.2 27.02-25.01l.308-6.78c0 1.74-.346 3.38-.91 4.93-2.468 11.21-12.51 19.59-26.417 19.59z"/><path fill="#333" d="M143.596 193.396c-5.89 0-9.355-2.657-11.393-6.45-2.037 3.793-5.502 6.45-11.4 6.45-8.014 0-14.297-8.976-14.297-20.435 0-1.6 1.3-2.9 2.91-2.9 1.605 0 2.908 1.31 2.908 2.91 0 7.93 3.885 14.62 8.48 14.62 7.22 0 8.495-6.2 8.495-19.23h5.81c0 13.03 1.26 19.24 8.48 19.24 4.6 0 8.49-6.69 8.49-14.62 0-1.6 1.3-2.9 2.91-2.9s2.91 1.31 2.91 2.91c0 11.46-6.28 20.44-14.31 20.44z"/><path fill="#2974A7" d="M141.227 168.344c0 3.025-4.045 5.485-9.027 5.485-4.988 0-9.033-2.46-9.033-5.49 0-3.04 4.045-5.48 9.033-5.48 4.982 0 9.027 2.44 9.027 5.48z"/><path fill="#333" d="M84.81 161.842c-.562 0-1.128-.162-1.628-.503-1.33-.9-1.684-2.71-.777-4.04.313-.47 7.78-11.33 19.06-12.14 6.646-.5 13.108 2.63 19.085 9.22 1.08 1.18.988 3.02-.2 4.1-1.187 1.08-3.02.99-4.103-.2-4.725-5.21-9.57-7.73-14.363-7.32-8.492.6-14.602 9.5-14.664 9.59-.564.83-1.478 1.28-2.41 1.28zm59.286 0c-.563 0-1.13-.162-1.63-.503-1.33-.9-1.68-2.71-.778-4.04.31-.47 7.783-11.33 19.064-12.14 6.662-.5 13.104 2.63 19.082 9.22 1.076 1.18.986 3.02-.2 4.1-1.18 1.08-3.017.99-4.106-.2-4.72-5.21-9.537-7.73-14.36-7.32-8.495.6-14.6 9.5-14.663 9.59-.564.83-1.476 1.28-2.41 1.28z"/></svg>