<?xml version="1.0" encoding="utf-8"?>
<!-- Generator: Adobe Illustrator 16.0.0, SVG Export Plug-In . SVG Version: 6.00 Build 0)  -->
<!DOCTYPE svg PUBLIC "-//W3C//DTD SVG 1.1//EN" "http://www.w3.org/Graphics/SVG/1.1/DTD/svg11.dtd">
<svg version="1.1" id="Layer_1" xmlns="http://www.w3.org/2000/svg" xmlns:xlink="http://www.w3.org/1999/xlink" x="0px" y="0px"
	 width="256px" height="256px" viewBox="0 0 256 256" enable-background="new 0 0 256 256" xml:space="preserve">
<path fill="#333333" d="M111.26,216.38c-1.752,0-4.693-0.942-4.693-7.26c0-0.715,0.06-1.78,0.217-2.777
	c-0.175-1.26-0.35-2.836-0.406-4.614c-1.047-0.197-2.104-0.348-3.145-0.348h-3.615c0.52,1.46,1.068,2.86,1.642,4.01
	c0.633,1.271,0.55,2.771-0.22,3.961c-0.738,1.149-2.004,1.83-3.357,1.83h-0.164c-1.15-0.041-28.02-1.351-34.1-19.58
	c-1.06-3.17-1.52-8.351-1.72-12.65c-3.01-2.99-5.71-6.26-8.05-9.74c-3.36-4.95-6-11-7.85-17.96l-0.03-0.12
	c-1.48-6.33-2.06-12.689-1.72-18.88c0.21-5.29,1.03-10.91,2.51-17.13c1.63-6.31,3.07-10.87,4.71-14.85
	c1.67-4.59,3.63-8.71,5.36-12.35c1.12-2.55,2.4-4.87,3.53-6.91c0.57-1.04,1.12-2.03,1.62-3.01c1.27-2.47,2.51-4.5,3.61-6.29
	l1.05-1.73c-5.17-8.25-0.07-16.18,1.96-19.34c0.42-0.65,0.89-1.23,1.4-1.73c3.62-5.77,7.26-8.58,11.13-8.58
	c0.9,0,1.78,0.16,2.63,0.48c0.52,0.2,1.62,0.61,2.65,1.41c1.71-1.17,3.56-1.88,5.52-1.88c0.9,0,1.79,0.15,2.64,0.45
	c1.03,0.36,4.17,1.46,5.07,4.53c0.1,0.33,0.16,0.65,0.2,0.96c0.3,0.07,0.59,0.16,0.88,0.26c0.13,0.05,0.25,0.09,0.37,0.14
	c0.98-0.39,1.98-0.58,2.98-0.58c0.9,0,1.79,0.16,2.64,0.48c3.46,1.3,5.94,4.6,6.46,8.62c0.55,4.26-1.13,8.5-4.55,11.73
	c3.34-0.91,6.93-1.4,10.77-1.4c2.99,0,6.11,0.31,9.28,0.92h3.4c3.24-0.65,6.43-0.99,9.49-0.99c2.369,0,4.699,0.2,6.97,0.6
	c-2.841-3.11-4.2-6.98-3.69-10.87c0.521-4.01,2.99-7.31,6.461-8.61c0.84-0.32,1.729-0.48,2.629-0.48c1,0,2,0.2,2.99,0.59l0.37-0.13
	c0.29-0.1,0.591-0.19,0.89-0.25c0.041-0.32,0.101-0.63,0.201-0.96c0.899-3.07,4.039-4.17,5.069-4.53c0.851-0.29,1.74-0.45,2.64-0.45
	c1.961,0,3.811,0.72,5.51,1.89c1.041-0.8,2.131-1.21,2.65-1.41c0.85-0.31,1.74-0.48,2.641-0.48c3.869,0,7.52,2.81,11.129,8.58
	c0.521,0.51,0.99,1.09,1.41,1.74c1.65,2.57,5.23,8.13,3.9,14.54c0.801,0.87,1.48,1.83,2.051,2.89c0.059,0.09,0.109,0.18,0.149,0.27
	l3.05,6.05c1.12,2.09,2.28,4.57,3.439,7.39c1.57,3.48,2.801,6.6,3.861,9.8c1.189,3.09,2.1,6.42,3.049,9.95l0.59,2.17
	c0.021,0.08,0.041,0.15,0.051,0.23c0.88,4.19,1.85,9.1,2.27,14.42c0.43,4.98,0.36,10.41-0.209,16.13
	c-0.011,0.07-0.011,0.14-0.021,0.199c-0.75,4.99-1.83,10.851-4.14,16.561c-1.891,5.16-4.59,10.26-8.011,15.16l-0.5,0.74
	c0.31,11.069-0.36,20.479-1.79,24.75c-6.02,18.09-32.76,20.77-33.89,20.879c-0.13,0.011-0.25,0.021-0.37,0.021
	c-1.311,0-2.55-0.649-3.3-1.739c-0.82-1.201-0.931-2.75-0.28-4.051c0.73-1.449,1.439-3.31,2.12-5.57h-9.16
	c-0.21,3.701-0.88,6.451-0.92,6.601c-0.021,0.069-0.04,0.14-0.06,0.2c-0.01,0.199-0.03,0.39-0.041,0.56
	c-0.01,0.15-0.029,0.31-0.029,0.47c0,0.73-0.13,1.36-0.28,1.871c0.32,0.899,0.32,1.909-0.05,2.819c-0.62,1.5-2.08,2.49-3.71,2.49
	h-35.8L111.26,216.38z"/>
<path fill="#333333" d="M165.973,44.28c4.473,0,8.889,7.36,10.609,10.582c0.216-0.287,0.428-0.593,0.63-0.923
	c-4.274-5.87-5.835-7.88-1.667-9.44c0.41-0.16,0.82-0.23,1.232-0.23c3.011,0,5.99,3.82,8.022,7.16c0.398,0.32,0.784,0.75,1.146,1.31
	c2.082,3.25,5.055,8.28,2.671,13.66c1.26,0.88,2.34,2.05,3.114,3.5c0.031,0.05,0.08,0.15,0.11,0.2c0,0,1.13,2.21,3.08,6.08
	c1.03,1.9,2.149,4.29,3.32,7.13c1.25,2.77,2.569,5.95,3.78,9.57c1.369,3.52,2.39,7.59,3.549,11.82c0.921,4.35,1.82,8.96,2.211,13.9
	c0.43,4.92,0.33,10.129-0.2,15.41c-0.79,5.261-1.86,10.64-3.91,15.71c-1.87,5.12-4.521,9.961-7.56,14.301
	c-0.41,0.6-0.83,1.26-1.26,1.84c0.41,11.72-0.311,20.99-1.541,24.68c-5.27,15.82-30.47,18.16-30.47,18.16
	c1.58-3.16,2.8-7.36,3.74-11.36H150.4c-0.75,0-1.521,0.011-2.193,0.229c0.29,5.011-0.811,9.4-0.811,9.4l-0.22,0.01
	c0.15,0.711-0.02,1.44-0.02,2.19c0,0.82-0.527,1.601-0.53,2.351c0.003,0.41,0.508,0.83,0.494,0.83h-35.85
	c-0.41,0-0.69-1.98-0.69-3.261c0-0.81,0.1-1.96,0.27-2.69c-0.32-2.18-0.61-4.939-0.4-7.949c-2.14-0.41-4.55-1.1-7.19-1.1h-9.18
	c1.01,3,2.21,6.939,3.63,9.789c0,0-25.19-1.029-30.47-16.85c-0.79-2.37-1.36-7.02-1.57-13.141c-3.15-2.979-6.1-6.409-8.66-10.22
	c-3.41-5.03-5.73-10.86-7.3-16.76c-1.39-5.94-1.93-12-1.62-17.76c0.23-5.78,1.19-11.27,2.41-16.43c1.32-5.1,2.76-9.98,4.55-14.34
	c1.62-4.47,3.52-8.45,5.26-12.12c1.65-3.75,3.59-6.85,5.09-9.78c1.51-2.92,3.03-5.29,4.24-7.29c0.64-1.05,1.21-1.97,1.69-2.77
	c-5.8-6.57-2-13.07,0.5-16.97c0.37-0.57,0.75-0.99,1.15-1.32c2.04-3.35,5.02-7.17,8.03-7.17c0.41,0,0.83,0.07,1.24,0.23
	c4.17,1.56,2.6,3.57-1.67,9.43c0.21,0.33,0.42,0.64,0.63,0.92c1.73-3.23,6.14-10.58,10.62-10.58c0.44,0,0.88,0.07,1.32,0.22
	c5.45,1.91,1.74,4.49-5.25,13.96c0.21,0.02,0.42,0.05,0.64,0.07c2.14-3.56,5.77-8.5,9.44-8.5c0.45,0,0.89,0.07,1.33,0.22
	c0.76,0.27,1.35,0.55,1.77,0.86c0.94-0.67,1.93-1.08,2.91-1.08c0.41,0,0.82,0.07,1.23,0.22c4.66,1.74,6.25,9.86-0.99,14.97
	c-0.06,1.65-0.44,2.96-0.44,2.96c-4.99,8.56-10.31,11.04-14.74,11.11c-0.59,0.93-1.38,2.17-2.36,3.69
	c-1.15,1.81-2.63,3.99-4.03,6.59c-1.39,2.6-3.27,5.45-4.77,8.71c-1.6,3.23-3.37,6.75-4.82,10.53c-1.66,3.74-2.91,7.84-4.1,11.98
	c-1.08,4.15-1.92,8.57-2.18,12.85c-0.32,4.021-0.04,8.22,0.67,12.01C72,111,85.92,69.4,119.32,69.41c2.82,0,5.79,0.29,8.89,0.92
	h4.21c3.18-0.67,6.21-0.99,9.09-0.99c5.711,0,10.84,1.25,15.461,3.53c-0.971-1.21-1.931-3.11-2.881-4.74c0,0-0.39-1.31-0.449-2.96
	c-7.23-5.11-5.641-13.23-0.98-14.97c0.41-0.15,0.82-0.22,1.23-0.22c0.979,0,1.969,0.41,2.92,1.08c0.42-0.31,1-0.59,1.76-0.86
	c0.439-0.156,0.88-0.23,1.326-0.23c3.67,0,7.299,4.94,9.433,8.5c0.22-0.02,0.43-0.044,0.64-0.07
	c-6.99-9.47-10.699-12.042-5.24-13.954c0.44-0.16,0.881-0.23,1.32-0.23"/>
<path fill="#333333" d="M169.02,79.226c-0.82,0-1.69-0.09-2.57-0.28c11.189,10.315,18.359,27.087,22.71,44.605
	c-0.06-1.09-0.14-2.17-0.261-3.25c-0.379-3.81-1.209-7.5-2.02-11.01c-1.09-3.48-1.939-6.78-3.22-9.78
	c-1.07-3.03-2.29-5.75-3.44-8.15c-1.06-2.42-2.09-4.5-3.06-6.18c-1.82-3.4-2.851-5.33-2.851-5.33l-0.27-0.5
	c-0.17-0.31-0.311-0.63-0.45-0.96c-1.34,0.49-2.88,0.83-4.56,0.83"/>
<path fill="#333333" d="M166.059,36.221c-1.35,0-2.689,0.23-3.959,0.68c-3.19,1.12-5.451,2.85-6.74,5.17
	c-0.48-0.06-0.971-0.09-1.461-0.09c-1.39,0-2.75,0.25-4.06,0.74c-4.84,1.81-8.3,6.35-9.01,11.84c-0.3,2.31-0.11,4.6,0.53,6.78
	c-3.15,0.01-6.42,0.35-9.73,0.99H129c-3.29-0.61-6.53-0.92-9.66-0.92h-0.01c-0.95,0-1.89,0.03-2.82,0.09
	c0.67-2.23,0.88-4.57,0.57-6.93c-0.71-5.49-4.17-10.04-9.03-11.86c-1.29-0.48-2.65-0.73-4.04-0.73c-0.48,0-0.97,0.03-1.45,0.09
	c-1.297-2.31-3.555-4.05-6.74-5.16c-1.28-0.45-2.61-0.68-3.964-0.68c-1.884,0-3.723,0.42-5.512,1.26c-0.4-0.19-0.81-0.36-1.25-0.52
	c-1.3-0.49-2.66-0.73-4.05-0.73c-5.26,0-9.94,3.3-14.28,10.08c-0.59,0.63-1.13,1.32-1.612,2.07c-1.8,2.8-3.75,6.23-4.504,10.36
	c-0.71,3.84-0.25,7.56,1.31,11c-1.058,1.72-2.34,3.83-3.62,6.32c-0.47,0.92-1.01,1.89-1.58,2.91c-1.16,2.1-2.47,4.46-3.68,7.2
	c-1.76,3.71-3.73,7.87-5.45,12.56c-1.69,4.14-3.186,8.85-4.83,15.23l-0.038,0.15c-1.533,6.45-2.39,12.31-2.62,17.9
	c-0.354,6.56,0.26,13.27,1.815,19.949c0.02,0.08,0.035,0.16,0.06,0.24c1.96,7.41,4.79,13.86,8.404,19.2
	c2.19,3.26,4.69,6.35,7.44,9.21c0.31,5.38,0.92,9.48,1.83,12.2c6.95,20.819,36.48,22.26,37.73,22.31c0.11,0.01,0.22,0.01,0.33,0.01
	c1.98,0,3.86-0.72,5.3-2c1.56,6.82,7.04,7.221,8.28,7.221h35.851c3.25,0,6.18-1.971,7.409-4.98c0.58-1.42,0.72-2.939,0.46-4.39
	l0.061-0.36c0.229,0.92,0.619,1.801,1.17,2.6c1.5,2.19,3.979,3.48,6.6,3.48c0.25,0,0.5-0.01,0.75-0.029
	c0.301-0.031,7.43-0.721,15.28-3.61c11.47-4.23,19.09-11.14,22.04-19.99c1.52-4.57,2.26-13.729,2.02-24.83
	c3.49-5.05,6.25-10.31,8.221-15.64c2.439-6.07,3.569-12.2,4.359-17.4c0.02-0.13,0.03-0.26,0.051-0.4
	c0.59-5.949,0.659-11.62,0.209-16.859c-0.439-5.54-1.439-10.59-2.35-14.89c-0.029-0.16-0.07-0.32-0.12-0.48l-0.59-2.16
	c-0.979-3.6-1.899-7.01-3.149-10.26c-1.101-3.27-2.36-6.47-3.951-10.02c-1.199-2.9-2.399-5.47-3.569-7.65
	c-1.931-3.83-3.04-6.02-3.04-6.02c-0.05-0.1-0.1-0.2-0.16-0.3l-0.029-0.05c-0.4-0.75-0.86-1.46-1.36-2.15
	c0.659-7.12-3.12-13-4.75-15.54c-0.49-0.76-1.03-1.45-1.62-2.07c-4.34-6.78-9.02-10.08-14.28-10.08c-1.39,0-2.739,0.25-4.04,0.74
	c-0.439,0.17-0.859,0.34-1.26,0.53c-1.79-0.83-3.63-1.26-5.51-1.26L166.059,36.221z"/>
<path fill="#1A1A1A" d="M81.13,110.58l3.585,85.8h90.43l2.51-58.536l-12.92-48.445L81.13,110.58z"/>
<path fill="#FFDDBB" d="M111.448,209.422c0,0-6.945-28.04,14.172-22.04h9.86c17.461-6,12.033,19.63,12.033,19.63"/>
<path fill="#FFDDBB" d="M135.62,186.958c0,4.755-1.95,6.694-6,6.694c-4.058,0-6-1.939-6-6.694v-17.224c0-4.758,1.942-8.613,6-8.613
	c4.05,0,6,3.859,6,8.62v17.229V186.958z"/>
<path fill="#D3BD8D" d="M164.7,129.525c0,8.354,1.214,15.125,7.073,15.125c5.863,0,14.145-1.569,14.145-15.119
	c0-8.36-4.746-15.12-10.602-15.12c-5.863,0-10.617,6.76-10.617,15.13L164.7,129.525z"/>
<path fill="#C69C6D" d="M166.455,129.47c0.029-2.345,0.51-5.02,1.658-7.277c0.576-1.152,1.313-2.28,2.357-3.248
	c1.036-0.947,2.508-1.76,4.223-1.785c0.647,0.068,0.51,0.007,1.13,0.135c0.483,0.103,0.909,0.25,1.237,0.413
	c0.719,0.315,1.313,0.77,1.85,1.237c1.05,0.968,0.125,2.096,0.71,3.248c1.144,2.32,0,4.824,0,7.333v0.283
	c0,1.642,0.356,2.991-1.284,3.01c-1.641,0.02-2.152-1.295-2.178-2.93c0-0.121,0.42-0.254,0.43-0.363
	c0.18-1.653,0.253-3.458-0.292-4.966c-0.496-1.59-1.414-2.58-1.7-2.68c-0.18-0.1-0.609-0.08-1.193,0.31
	c-0.577,0.4,1.191,1.05,0.701,1.82c-1.004,1.6,0.517,3.39,0.517,5.55v0.09c0,0.961-3.295,1.66-4.263,1.551
	c-0.909-0.09-3.904-0.87-3.902-1.75V129.47z"/>
<path fill="#D3BD8D" d="M94.528,129.525c0,8.354-1.217,15.125-7.074,15.125c-5.86,0-14.145-1.569-14.145-15.119
	c0-8.36,4.74-15.12,10.6-15.12c5.86,0,10.61,6.76,10.61,15.13L94.528,129.525z"/>
<path fill="#C69C6D" d="M92.768,129.47c-0.027-2.345-0.51-5.02-1.656-7.277c-0.58-1.152-1.314-2.28-2.357-3.248
	c-1.03-0.947-2.506-1.76-4.223-1.785c-0.646,0.068-0.516,0.007-1.12,0.135c-0.49,0.103-0.92,0.25-1.24,0.413
	c-0.728,0.315-1.315,0.77-1.854,1.237c-1.043,0.968-1.124,2.096-1.71,3.248c-1.138,2.32-0.987,4.824-0.987,7.333v0.283
	c0,1.642,0.63,2.991,2.26,3.01c1.66,0.02,2.68-1.295,2.7-2.93c0-0.121-0.17-0.254-0.18-0.363c-0.18-1.653-0.12-3.458,0.42-4.966
	c0.5-1.59,1.49-2.58,1.77-2.68c0.18-0.1,0.64-0.08,1.23,0.31c0.58,0.4,1.15,1.05,1.64,1.82c1,1.6,1.6,3.39,1.83,5.55l0.01,0.09
	c0.11,0.961,0.96,1.66,1.92,1.551c0.91-0.09,1.58-0.87,1.58-1.75L92.768,129.47z"/>
<path fill="#FFDDBB" d="M171.359,144.458c0,29.733-28.564,32.3-41.31,32.3c-14.503,0-41.3-2.566-41.3-32.3
	c0-29.724-3.084-67.888,41.3-67.888C174.875,76.57,171.359,114.734,171.359,144.458z"/>
<path fill="#333333" d="M125.313,156.72c-0.93,0-1.787-0.595-2.086-1.524c-0.37-1.15,0.268-2.381,1.422-2.75
	c4.18-1.33,5.96-3.435,6.541-4.313l-1.601-23.08c-0.08-1.207,0.83-2.25,2.03-2.336c1.18-0.093,2.25,0.83,2.33,2.035l1.63,23.736
	c0.021,0.353-0.04,0.701-0.181,1.022c-0.219,0.49-2.279,4.82-9.459,7.11c-0.22,0.07-0.45,0.1-0.67,0.1L125.313,156.72z"/>
<path fill="#D4145A" d="M134.891,166.212c0,3.72-3.014,6.74-6.741,6.74c-3.72,0-6.735-3.022-6.735-6.74
	c0-3.722,3.014-6.739,6.734-6.739c3.72,0,6.74,3.018,6.74,6.739H134.891z"/>
<path fill="#F5F5F5" d="M122.41,129.48c0,6.787-5.503,12.293-12.29,12.293c-6.8,0-12.305-5.506-12.305-12.293
	c0-6.792,5.504-12.288,12.305-12.288C116.907,117.193,122.41,122.688,122.41,129.48z"/>
<path fill="#333333" d="M118.76,129.188c0,4.715-3.81,8.53-8.535,8.53c-4.71,0-8.54-3.813-8.54-8.53c0-4.715,3.83-8.534,8.54-8.534
	C114.95,120.654,118.76,124.472,118.76,129.188z"/>
<path fill="#F5F5F5" d="M164.594,129.48c0,6.787-5.506,12.293-12.293,12.293c-6.789,0-12.3-5.506-12.3-12.293
	c0-6.792,5.51-12.288,12.31-12.288c6.791,0,12.301,5.495,12.301,12.288H164.594z"/>
<path fill="#333333" d="M160.939,129.188c0,4.715-3.81,8.53-8.529,8.53c-4.713,0-8.537-3.813-8.537-8.53
	c0-4.715,3.824-8.534,8.537-8.534C157.13,120.654,160.939,124.472,160.939,129.188z"/>
<path fill="#333333" d="M89.475,115.83c0,0-3.508,67.398,8.207,90.84c0,0-25.19-0.527-30.47-16.35
	c-5.27-15.811-1.165-131.94,60.932-120.94h4.208c62.1-11,66.209,105.13,60.93,120.94c-5.27,15.822-30.471,17.914-30.471,17.914
	c11.721-23.444,4.01-96.449,4.01-96.449l-25.189-32.43l-24.61,0.955l-27.54,35.52H89.475z"/>
<path fill="#333333" d="M128.516,166.754c-8.061,0-14.384-4.097-14.384-9.33c0-0.906,0.734-1.642,1.64-1.642
	c0.91,0,1.642,0.735,1.642,1.64c0,3.282,5.088,6.053,11.104,6.053c6.014,0,11.098-2.771,11.098-6.051
	c0-0.906,0.732-1.642,1.64-1.642s1.642,0.735,1.642,1.64c-0.002,5.235-6.319,9.332-14.379,9.332H128.516z"/>
<path fill="#333333" d="M130.963,83.884c0,0-27.345,40.64-55.1,38.73L105.3,81.846l25.57-5.997l0.095,8.03L130.963,83.884z"/>
<path fill="#333333" d="M130.506,84.144c0,0,23.508,43.016,51.262,41.102L155.9,81.848l-26.123-5.454L130.506,84.144L130.506,84.144
	z"/>
<path fill="#FFDDBB" d="M121.424,199.514c0,0-0.736-0.063-2.113-0.188c-1.33-0.135-3.21-0.387-5.6-0.76
	c-4.75-0.791-11.49-2.123-19.38-4.848c-7.86-2.72-17.01-6.869-25.66-13.869c-4.28-3.551-8.31-7.891-11.68-12.9
	c-3.4-5.03-5.73-10.86-7.3-16.76c-1.38-5.95-1.93-12-1.61-17.76c0.24-5.791,1.19-11.271,2.42-16.431c1.32-5.1,2.76-9.99,4.55-14.34
	c1.62-4.47,3.52-8.44,5.26-12.12c1.65-3.75,3.59-6.85,5.09-9.78c1.51-2.93,3.04-5.3,4.24-7.3c2.44-3.98,3.82-6.25,3.82-6.25
	c2.91-4.76,9.11-6.26,13.86-3.36s6.26,9.1,3.35,13.85c-0.02,0.04-0.05,0.09-0.08,0.14l-0.28,0.43l-3.63,5.68
	c-1.15,1.81-2.63,3.98-4.03,6.58c-1.4,2.59-3.27,5.43-4.78,8.689c-1.6,3.22-3.37,6.71-4.82,10.49c-1.66,3.74-2.91,7.77-4.1,11.91
	c-1.08,4.15-1.92,8.449-2.18,12.73c-0.34,4.299,0,8.52,0.82,12.56c1.01,3.97,2.37,7.819,4.58,11.21c2.19,3.38,4.86,6.449,7.91,9.109
	c6.2,5.261,13.49,8.891,20.05,11.291c6.57,2.43,12.42,3.729,16.46,4.5c2.04,0.359,3.64,0.609,4.69,0.739l1.55,0.171l0.38,0.039
	c4.54,0.53,7.801,4.641,7.27,9.18c-0.52,4.471-4.529,7.69-8.979,7.281L121.424,199.514z"/>
<path fill="#333333" d="M141.887,106.996c-0.154,0.023,1.914-0.475,4.375-0.56c1.262,0.033,2.721-0.05,4.238,0.174
	c1.533,0.105,3.125,0.365,4.689,0.743c1.58,0.26,3.096,0.76,4.5,1.213c1.431,0.402,2.719,0.878,3.783,1.385l3.573,1.53
	c0,0-1.53-0.26-3.817-0.67c-1.121-0.24-2.453-0.39-3.881-0.45c-1.427-0.11-2.933-0.25-4.437-0.14c-1.5,0-2.97,0.11-4.33,0.33
	c-1.37,0.12-2.59,0.49-3.63,0.7c-2.1,0.61-2.971,1.11-3.12,1.16c-1.49,0.54-3.13-0.24-3.66-1.73c-0.53-1.49,0.25-3.13,1.74-3.66
	L141.887,106.996z M117.807,112.016c-0.107-0.022-1.406-0.52-3.867-1.045c-2.414-0.46-5.754-0.96-9.14-0.94
	c-1.694-0.05-3.41-0.021-4.995,0.16c-1.598,0.15-3.115,0.21-4.37,0.51l-4.272,0.8l4.04-1.65c1.202-0.56,2.685-0.95,4.276-1.42
	c1.57-0.53,3.31-0.92,5.06-1.24c3.5-0.74,7.12-0.96,9.87-1.01c2.71,0,4.78,0.3,4.68,0.27c1.54,0.36,2.5,1.9,2.15,3.45
	c-0.36,1.55-1.9,2.51-3.45,2.16L117.807,112.016z"/>
<path fill="#FFDDBB" d="M136.664,183.191c0,0,0.465-0.117,1.346-0.359c0.914-0.25,2.316-0.696,4.082-1.298
	c3.533-1.24,8.62-3.192,14.28-6.25c5.66-3.03,11.899-7.16,17.407-12.54c2.67-2.721,5.34-5.635,7.42-8.93
	c2.14-3.264,3.98-6.754,5.22-10.459c1.41-3.645,2.021-7.547,2.54-11.386c0.27-3.904,0.279-7.79-0.16-11.6
	c-0.39-3.815-1.21-7.504-2.02-11.01c-1.09-3.48-1.95-6.783-3.221-9.782c-1.07-3.03-2.3-5.75-3.449-8.15
	c-1.061-2.425-2.09-4.5-3.061-6.185c-1.82-3.397-2.85-5.33-2.85-5.33l-0.27-0.493c-2.631-4.903-0.781-11.01,4.129-13.644
	c4.9-2.625,11.01-0.774,13.641,4.133c0.02,0.05,0.07,0.15,0.1,0.2c0,0,1.12,2.21,3.07,6.08c1.02,1.9,2.15,4.29,3.32,7.13
	c1.25,2.77,2.569,5.95,3.77,9.57c1.37,3.52,2.38,7.59,3.55,11.82c0.91,4.35,1.81,8.97,2.2,13.9c0.43,4.92,0.32,10.12-0.2,15.39
	c-0.79,5.25-1.86,10.63-3.92,15.69c-1.87,5.119-4.521,9.93-7.56,14.26c-2.98,4.41-6.551,8.17-10.1,11.58
	c-7.24,6.72-14.941,11.479-21.721,14.899c-6.79,3.44-12.721,5.561-16.93,6.94c-2.131,0.66-3.811,1.14-5.01,1.439
	c-1.25,0.311-1.91,0.471-1.91,0.471c-4.45,1.08-8.92-1.641-10.01-6.07c-1.07-4.37,1.549-8.77,5.85-9.96l0.4-0.12L136.664,183.191z"
	/>
<path fill="#DDB99B" d="M129.207,198.704l-2.242,7.45l4.668,0.27L129.207,198.704z"/>
<path fill="#39B54A" d="M109.37,203.38h-0.064H109.37z M145.578,203.38h0.064H145.578z M117.735,206.014
	c-0.094,0-0.188-0.008-0.287-0.019c-1.195-0.156-2.043-1.252-1.89-2.456l2.69-20.82c0.16-1.199,1.21-2.06,2.454-1.89
	c1.195,0.149,2.04,1.25,1.89,2.45L119.9,204.1c-0.144,1.101-1.085,1.91-2.165,1.91V206.014z M140.689,206.014
	c-1.041,0-1.967-0.75-2.149-1.813l-3.497-20.009c-0.21-1.187,0.588-2.327,1.78-2.529c1.17-0.244,2.319,0.583,2.528,1.777l3.5,20.009
	c0.209,1.187-0.58,2.321-1.781,2.53c-0.119,0.022-0.25,0.035-0.379,0.035H140.689z"/>
<path fill="#F4D1B0" d="M70.364,56.347c0,0,6.098-13.995,11.844-11.843c5.742,2.156,0.598,5.15-7.535,17.942 M80.41,56.346
	c0,0,6.54-13.994,12.69-11.842c6.156,2.156,0.646,5.15-8.078,17.942 M86.56,62.086c0,0,6.54-13.994,12.696-11.834
	c6.148,2.15,0.64,5.142-8.084,17.935"/>
<path fill="#FFDDBB" d="M80.053,53.118c0,0-5.023-5.384-8.25-0.36c-3.23,5.025-8.615,14.354,7.17,22.61c0,0,13.28,12.556,24.76-7.18
	c0,0,2.87-9.69-5.738-9.69C89.383,58.498,83.641,59.938,80.053,53.118z"/>
<path fill="#FFDDBB" d="M93.33,62.088c0,0,6.1-13.996,11.84-11.836c5.74,2.15,6.82,13.986-7.534,17.935"/>
<path fill="#FFFFFF" d="M101.846,53.475c0,0,4.936,0.626,5.656,4.843c0,0,2.33-3.403-1.256-6.096
	C102.661,49.532,101.846,53.475,101.846,53.475z"/>
<path fill="#F4D1B0" d="M187.385,56.347c0,0-6.098-13.995-11.84-11.843c-5.748,2.156-0.605,5.15,7.533,17.942 M177.336,56.346
	c0,0-6.536-13.993-12.686-11.84c-6.156,2.155-0.646,5.15,8.076,17.94 M171.186,62.086c0,0-6.535-13.993-12.689-11.833
	c-6.15,2.15-0.639,5.142,8.08,17.935"/>
<path fill="#FFDDBB" d="M177.697,53.118c0,0,5.02-5.384,8.25-0.36c3.229,5.025,8.609,14.354-7.174,22.61
	c0,0-13.275,12.556-24.765-7.18c0,0-2.87-9.69,5.74-9.69s14.351,1.44,17.94-5.38H177.697z"/>
<path fill="#FFDDBB" d="M164.417,62.088c0,0-6.101-13.996-11.837-11.836c-5.742,2.15-6.818,13.986,7.537,17.935"/>
<path fill="#FFFFFF" d="M155.9,53.475c0,0-4.938,0.626-5.65,4.843c0,0-2.338-3.403,1.252-6.096
	C155.092,49.532,155.9,53.475,155.9,53.475z"/>
<path fill="#39B54A" d="M147.109,211.38c0.016,0,0.511,0.58,0.511,0.173v0.004c0-0.756,0.028-1.537,0.028-2.354
	c0-5.681-4.521-10.287-9.937-10.287c-3.741,0-7.032,2.229-8.677,5.46c-1.65-3.23-4.896-5.46-8.642-5.46
	c-5.418,0-9.827,3.901-9.827,9.582c0,1.28,0.283,2.885,0.693,2.885h35.851V211.38z"/>
</svg>
