<?xml version="1.0" encoding="utf-8"?>
<!-- Generator: Adobe Illustrator 16.0.0, SVG Export Plug-In . SVG Version: 6.00 Build 0)  -->
<!DOCTYPE svg PUBLIC "-//W3C//DTD SVG 1.1//EN" "http://www.w3.org/Graphics/SVG/1.1/DTD/svg11.dtd">
<svg version="1.1" id="Layer_1" xmlns="http://www.w3.org/2000/svg" xmlns:xlink="http://www.w3.org/1999/xlink" x="0px" y="0px"
	 width="256px" height="256px" viewBox="0 0 256 256" enable-background="new 0 0 256 256" xml:space="preserve">
<g>
	<path fill="#FFFFFF" d="M160.786,229.756c-4.688,0-9.104-2.492-11.52-6.502c-1.854-3.07-2.398-6.682-1.54-10.166
		c0.812-3.27,2.769-6.063,5.548-7.926c-0.324,0.023-0.649,0.035-0.979,0.035c-4.551,0-8.75-2.264-11.24-6.055
		c-1.979-2.988-2.67-6.574-1.939-10.092c0.711-3.46,2.711-6.443,5.631-8.42l0.24-0.167l2.35-1.521
		c1.73-1.199,4.04-2.344,6.699-3.663l0.271-0.132l0.091-0.039c3.189-1.391,6.42-2.579,9.601-3.539l0.579-0.16
		c-4.199-1.479-7.479-5-8.569-9.551c-1.729-7.199,2.729-14.479,9.938-16.221c1.892-0.449,3.86-0.68,5.852-0.68
		c9.898,0,19.068,5.66,25.13,10.52c1.688,0.83,4.271,1.312,6.99,1.82c2.96,0.561,6.22,1.17,9.479,2.37l0.101-0.25l0.14-0.239
		c0.41-0.689,0.561-1.471,0.71-2.431c-0.08-1.069-0.13-1.729-0.55-2.58c-0.67-1.38-1.561-3.01-3.109-4.67l-0.119-0.13
		c-1.4-1.641-3.312-3.43-5.69-5.33c-4.17-3.311-9.431-6.68-15.19-9.75c-4.64-2.471-9.76-4.891-15.199-7.18
		c-3.761-1.58-7.529-3.04-11.201-4.34c-2.618-0.89-4.148-1.4-4.158-1.4l-3.88-1.29l12.188-33.83l8.86,3.73
		c4.33,1.91,8.58,3.94,12.71,6.04c6.25,3.19,11.93,6.41,17.35,9.83c7.44,4.71,13.711,9.45,19.17,14.5c3.7,3.45,6.59,6.63,9.07,10.02
		c2.99,3.859,5.46,8.46,7.15,13.3c1.74,4.79,2.31,10.61,1.6,16.36l-0.029,0.199c-0.881,4.989-2.649,9.711-5.011,13.319
		c-1.8,3.101-3.75,5.271-5.479,7.181l-1.01,1.131l-0.931,0.858c0.761,5.79-0.46,10.98-3.63,15.44
		c-7.109,10.04-22.1,13.449-30.721,14.601c-1.129,0.421-2.289,0.841-3.51,1.329l-6.811,3.182l-3.63,1.68l-0.11,0.04
		c-0.529,0.21-1.1,0.56-1.75,0.979c-0.31,0.2-0.619,0.392-0.93,0.57l-5.561,3.392c-3.301,2-5.5,3.318-5.5,3.318l-1.09,0.66
		c-2.101,1.271-4.5,1.939-6.939,1.939L160.786,229.756z"/>
	<path fill="#333333" d="M169.836,91.512c0,0,1.807,0.764,4.974,2.095c3.063,1.353,7.366,3.325,12.438,5.913
		c5.067,2.585,10.909,5.78,17.036,9.645c6.119,3.877,12.527,8.457,18.591,14.055c3.024,2.82,5.966,5.905,8.598,9.495
		c2.683,3.457,4.983,7.67,6.57,12.21c1.657,4.57,1.989,9.839,1.405,14.548c-0.819,4.686-2.449,8.857-4.471,11.918
		c-1.89,3.312-4.078,5.5-5.93,7.59c-0.852,0.771-1.641,1.521-2.391,2.222c4.511,21.1-21.521,26.38-31,27.59
		c-1.291,0.479-2.68,0.979-4.141,1.569c-2.199,1.029-4.56,2.119-6.91,3.221c-1.18,0.54-2.35,1.09-3.51,1.63
		c-1.189,0.479-2.199,1.21-3.24,1.82l-5.6,3.42c-3.28,1.989-5.48,3.312-5.48,3.312l-1.1,0.658c-1.52,0.92-3.21,1.36-4.87,1.36
		c-3.2,0-6.319-1.632-8.09-4.57c-2.69-4.46-1.26-10.26,3.21-12.96c0.04-0.021,0.12-0.061,0.16-0.09c0,0,2.57-1.49,6.43-3.721
		l6.61-3.779c0.909-0.49,1.81-1.061,2.76-1.53c0.99-1.42,1.46-3.521-1.229-5.899l0.011-0.181c-2.591,0.87-4.86,1.86-6.74,2.712
		c-1.76,0.959-3.271,1.729-4.101,2.379c-0.899,0.601-1.42,0.961-1.42,0.961l-0.881,0.58c-1.6,1.06-3.398,1.56-5.188,1.56
		c-3.062,0-6.07-1.49-7.88-4.25c-2.881-4.351-1.672-10.2,2.689-13.07l0.061-0.05l2.42-1.561c1.529-1.069,3.76-2.16,6.439-3.489
		c2.68-1.16,5.811-2.36,9.159-3.38c3.351-0.95,6.9-1.84,10.45-2.49c1.02-0.189,2.03-0.36,3.04-0.52
		c0.431-0.602,0.26-1.36-1.03-2.342l0.141-0.02c-2.26-1.33-4.34-2.172-5.779-2.172c-0.24,0-0.45,0.021-0.648,0.07
		c-0.74,0.18-1.48,0.26-2.201,0.26c-4.271,0-8.149-2.908-9.189-7.25c-1.221-5.08,1.91-10.18,6.99-11.398
		c1.64-0.398,3.279-0.568,4.91-0.568c8.818,0,17.22,5.229,22.938,9.879c4.82,2.609,13.052,2.189,20.13,5.801
		c0.82-1.08,1.73-2.24,2.23-3.45c0.88-1.479,1.09-2.94,1.289-4.32c-0.109-1.39-0.131-2.771-0.971-4.5
		c-0.818-1.7-1.92-3.649-3.77-5.63c-1.68-1.98-3.859-3.97-6.23-5.87c-4.779-3.79-10.33-7.239-15.8-10.159
		c-5.479-2.921-10.86-5.371-15.52-7.341c-4.671-1.96-8.65-3.44-11.41-4.43c-2.69-0.91-4.229-1.42-4.229-1.42l9.369-26 M165.268,80.9
		l-2.86,7.95l-9.439,25.95l-2.77,7.705l7.765,2.595c0.01,0.003,1.512,0.505,4.135,1.396c3.53,1.254,7.31,2.72,10.94,4.246
		c5.32,2.247,10.326,4.609,14.865,7.029c5.547,2.953,10.59,6.189,14.59,9.359c2.154,1.725,3.884,3.342,5.11,4.785l0.114,0.133
		l0.12,0.131c0.68,0.725,1.188,1.439,1.608,2.133c-1.66-0.391-3.25-0.689-4.709-0.963c-2.149-0.406-4.359-0.824-5.641-1.334
		c-6.561-5.19-16.4-11.07-27.23-11.07c-2.299,0-4.58,0.267-6.778,0.793c-9.36,2.25-15.142,11.688-12.9,21.045
		c0.681,2.808,1.99,5.31,3.78,7.375c-1.03,0.406-2.061,0.834-3.09,1.279l-0.182,0.08l-0.18,0.09l-0.18,0.091
		c-2.78,1.376-5.189,2.569-7.15,3.92l-2.3,1.485l-0.3,0.196l-0.12,0.101c-3.729,2.57-6.271,6.41-7.19,10.851
		c-0.938,4.57-0.039,9.22,2.53,13.11c1.931,2.938,4.65,5.17,7.8,6.49c-0.74,1.34-1.3,2.77-1.68,4.289
		c-1.12,4.521-0.41,9.211,2,13.199c3.13,5.2,8.859,8.432,14.939,8.432c3.17,0,6.281-0.86,9-2.512l1.11-0.67
		c0,0,2.199-1.318,5.479-3.3l5.59-3.399c0.318-0.189,0.64-0.391,0.96-0.591c0.392-0.239,0.91-0.569,1.101-0.64l0.211-0.08
		l0.209-0.102l1.109-0.51c0.79-0.369,1.591-0.74,2.391-1.1l6.221-2.9l0.539-0.25c0.979-0.398,1.951-0.75,2.891-1.1
		c9.34-1.301,25.15-5.1,33.02-16.189c3.342-4.711,4.871-10.24,4.521-16.211l0.761-0.84c1.75-1.939,3.921-4.35,5.921-7.77
		c2.648-4.09,4.56-9.18,5.538-14.73l0.03-0.199l0.029-0.201c0.779-6.34,0.141-12.799-1.811-18.209
		c-1.83-5.211-4.49-10.16-7.72-14.339c-2.63-3.58-5.67-6.93-9.53-10.53c-5.66-5.23-12.119-10.12-19.76-14.96
		c-5.54-3.49-11.32-6.77-17.68-10.01c-4.19-2.14-8.51-4.19-12.84-6.1l-0.062-0.03l-0.06-0.03c-3.15-1.32-4.95-2.08-4.961-2.09
		l-7.779-3.29L165.268,80.9z"/>
	<path fill="#FFFFFF" d="M98.118,229.758c-2.347,0-4.667-0.623-6.71-1.8l-0.152-0.088l-0.076-0.054l-1.095-0.659
		c0,0-2.195-1.32-5.48-3.308l-5.62-3.432c-0.263-0.16-0.57-0.352-0.88-0.55c-0.654-0.41-1.218-0.771-1.748-0.979l-0.11-0.039
		L65.808,214c-1.23-0.494-2.41-0.926-3.52-1.33c-8.47-1.13-23.24-4.47-30.47-14.23c-3.137-4.233-4.486-9.144-4.02-14.615
		l-0.35-0.309c-1.62-1.315-3.154-3.02-4.775-4.82l-1.08-1.192l-0.81-1.095c-0.68-0.917-1.376-1.86-2.09-2.834l-0.087-0.116
		l-0.08-0.12c-0.878-1.396-1.7-2.923-2.5-4.396l-0.3-0.551l-0.068-0.16c-1.33-3.062-3.117-7.744-3.356-13.16
		c-0.37-4.596,0.33-9.613,2.02-14.521c1.557-4.771,3.95-8.664,6.084-11.83c4.116-5.85,9.03-10.99,15.51-16.24
		c4.479-3.63,9.39-7.08,14.595-10.26c3.53-2.165,7.158-4.206,10.78-6.06l1.32-0.656c0.736-0.365,1.344-0.666,1.806-0.9l5.13-2.384
		l13.67,33.34l-4.7,1.65l-2.47,0.97c-2.93,1.195-5.9,2.54-8.8,3.987c-4.16,2.063-8.04,4.314-11.56,6.691
		c-4.11,2.74-7.7,5.814-10.11,8.666c-0.46,0.569-2.03,2.496-2.57,3.819l0.13,0.154c-0.52,1.11-0.57,1.953-0.57,2.569v0.256
		l-0.23,0.25c-0.07,0.47,0.07,1.387,0.3,2.285l0.67,1.629l0.96,1.623c3.64-1.51,7.32-2.203,10.67-2.834
		c2.71-0.51,5.271-0.996,6.97-1.813c6.081-4.862,15.261-10.522,25.161-10.522c1.994,0,3.963,0.229,5.855,0.685
		c7.21,1.735,11.67,9.013,9.944,16.224c-1.09,4.543-4.38,8.061-8.57,9.547l0.52,0.148c3.23,0.98,6.46,2.174,9.66,3.563l0.39,0.188
		c2.65,1.315,4.95,2.455,6.68,3.653l2.36,1.52c6.22,4.022,8.01,12.36,3.99,18.592c-2.49,3.85-6.72,6.146-11.3,6.146
		c-0.32,0-0.64-0.014-0.96-0.034c5.8,3.899,7.67,11.712,4.13,17.86c-2.41,4.148-6.87,6.725-11.66,6.725L98.118,229.758z"/>
	<path fill="#333333" d="M67.445,97.616l10.48,25.562l-0.803,0.285l-2.528,0.996c-2.213,0.9-5.41,2.27-9.12,4.12
		c-3.71,1.84-7.912,4.18-12.012,6.96c-4.124,2.75-8.07,6.02-10.92,9.391c-1.356,1.67-2.587,3.359-3.213,4.879
		c-0.7,1.541-1.12,2.91-1.13,4.23c-0.17,1.32,0.21,2.68,0.58,4.12c0.33,0.739,0.65,1.45,0.96,2.159
		c0.44,0.721,0.87,1.421,1.28,2.101c0.76,0.931,1.38,1.851,2.08,2.681c7.28-4.149,16-3.58,21.04-6.301
		c5.72-4.65,14.13-9.9,22.96-9.9c1.63,0,3.28,0.182,4.92,0.57c5.08,1.221,8.21,6.32,6.99,11.4c-1.04,4.34-4.92,7.25-9.19,7.25
		c-0.72,0-1.47-0.09-2.21-0.26c-0.2-0.051-0.42-0.08-0.66-0.08c-1.43,0-3.5,0.85-5.77,2.17l0.14,0.02
		c-1.29,0.98-1.46,1.74-1.03,2.34c1.01,0.16,2.02,0.34,3.04,0.53c3.54,0.65,7.1,1.53,10.44,2.49c3.35,1.021,6.48,2.22,9.17,3.39
		c2.68,1.33,4.91,2.42,6.44,3.49l2.42,1.55c4.38,2.83,5.64,8.681,2.81,13.06c-1.81,2.791-4.84,4.312-7.94,4.312
		c-1.76,0-3.54-0.489-5.12-1.51l-0.06-0.04l-0.88-0.59l-1.42-0.94c-0.83-0.659-2.35-1.399-4.1-2.35c-1.87-0.851-4.14-1.79-6.73-2.65
		l0.01,0.062c-2.69,2.38-2.22,4.479-1.24,5.91c0.96,0.47,1.86,1.028,2.76,1.528l6.61,3.78c3.86,2.229,6.43,3.72,6.43,3.72
		c4.52,2.61,6.06,8.382,3.46,12.9c-1.75,3.028-4.92,4.72-8.19,4.72c-1.6,0-3.22-0.41-4.71-1.271c-0.04-0.028-0.07-0.049-0.11-0.068
		l-1.14-0.689c0,0-2.19-1.32-5.48-3.311L81.078,217c-1.04-0.614-2.044-1.348-3.24-1.82c-1.158-0.535-2.333-1.084-3.51-1.627
		l-6.917-3.22c-1.465-0.592-2.855-1.097-4.146-1.569c-9.33-1.189-34.665-6.309-31.21-26.548c-0.63-0.55-1.293-1.138-2.01-1.758
		c-1.68-1.354-3.42-3.396-5.33-5.498c-0.89-1.204-1.816-2.45-2.775-3.755c-0.883-1.41-1.726-2.99-2.586-4.578
		c-1.49-3.43-2.85-7.407-3.03-11.82c-0.368-4.38,0.413-8.926,1.81-12.966c1.35-4.14,3.43-7.649,5.617-10.899
		c4.483-6.371,9.694-11.299,14.71-15.359c5.024-4.07,9.896-7.35,14.16-9.95c4.26-2.61,7.9-4.57,10.516-5.91
		c1.34-0.66,2.39-1.18,3.11-1.54l1.2-0.55 M71.667,86.841l-7.6,3.54l-1.16,0.54l-0.15,0.07l-0.15,0.08
		c-0.46,0.23-1.05,0.53-1.77,0.88l-1.28,0.64l-0.05,0.02l-0.05,0.02c-3.71,1.9-7.43,3.99-11.05,6.21
		c-5.35,3.27-10.4,6.82-15.02,10.56c-6.78,5.49-11.93,10.88-16.22,16.98l-0.05,0.07l-0.05,0.07c-2.15,3.19-4.83,7.52-6.57,12.831
		c-1.85,5.379-2.62,10.909-2.21,16.01c0.28,6.051,2.23,11.171,3.67,14.511l0.14,0.319l0.16,0.301l0.21,0.398
		c0.83,1.53,1.68,3.11,2.63,4.62l0.15,0.25l0.17,0.23c0.72,0.989,1.42,1.94,2.11,2.86l0.68,0.92l0.24,0.33l0.27,0.299l0.93,1.031
		c1.35,1.5,2.63,2.93,4.02,4.209c-0.05,5.619,1.6,10.819,4.88,15.25c7.97,10.76,23.53,14.479,32.71,15.75
		c0.94,0.351,1.91,0.711,2.89,1.101l3.19,1.489l3.53,1.641c0.81,0.38,1.6,0.74,2.38,1.109l1.14,0.529l0.21,0.102l0.21,0.09
		c0.19,0.08,0.71,0.41,1.09,0.65c0.32,0.198,0.65,0.398,0.97,0.59l5.57,3.398c3.32,2,5.521,3.32,5.521,3.32l0.979,0.59l0.09,0.068
		l0.31,0.182c2.65,1.529,5.66,2.34,8.71,2.34c6.21,0,12-3.34,15.11-8.71c3.17-5.489,3-12.01,0.14-17.188
		c3.18-1.33,5.94-3.61,7.89-6.621c5.21-8.079,2.89-18.899-5.19-24.119l-2.31-1.49c-1.96-1.35-4.36-2.529-7.12-3.9l-0.21-0.108
		l-0.18-0.091l-0.19-0.079c-1.03-0.44-2.06-0.87-3.1-1.28c1.78-2.061,3.1-4.561,3.77-7.37c2.24-9.358-3.55-18.8-12.9-21.05
		c-2.2-0.53-4.49-0.79-6.8-0.79c-10.83,0-20.67,5.88-27.24,11.08c-1.28,0.51-3.49,0.92-5.63,1.33c-2.4,0.448-5.12,0.96-7.94,1.819
		c-0.04-0.16-0.07-0.301-0.09-0.41l0.02-0.159v-0.392c0.03-0.108,0.12-0.42,0.4-1.028l0.07-0.15l0.06-0.149
		c0.08-0.181,0.44-0.91,1.98-2.819c2.18-2.55,5.44-5.341,9.2-7.841l0.02-0.021l0.02-0.01c3.36-2.271,7.09-4.431,11.08-6.42
		c2.8-1.399,5.67-2.688,8.54-3.86l1.41-0.55l0.94-0.37l0.65-0.229l7.95-2.792l-3.2-7.8l-10.42-25.6l-3.18-7.75L71.667,86.841z"/>
	<path fill="#FFFFFF" d="M125.283,173.74c-21.116,0-41.35-6.414-56.977-18.063c-15.035-11.208-24.637-26.336-27.23-42.806
		c-2.507-1.156-4.834-2.452-7.064-3.93c-3.688-2.472-6.51-4.986-8.9-7.924c-1.66-2.093-2.877-4.133-3.752-6.275
		c-0.43-1.12-0.918-2.52-1.177-4.156c-0.188-0.983-0.24-2.072-0.255-2.645c-0.02-0.65-0.007-0.933,0.032-1.313
		c0.01-0.09,0.02-0.21,0.026-0.51l0.004-0.16l0.016-0.16c0.382-3.72,1.893-6.6,3.092-8.36c1.28-1.88,2.87-3.57,4.86-5.15
		c2.843-2.23,6.033-3.95,10.063-5.43c5.542-1.94,10.99-2.92,16.253-2.92c0.38,0,0.763,0,1.145,0.01
		C71.308,45.04,97.248,33.8,125.288,33.8c28.023,0,53.958,11.24,69.845,30.17c0.257-0.006,0.515-0.008,0.771-0.008
		c5.267,0,10.713,0.972,16.189,2.89c4.087,1.505,7.28,3.226,10.102,5.436c2.008,1.594,3.6,3.275,4.883,5.16
		c1.203,1.775,2.711,4.66,3.092,8.36l0.016,0.15l0.006,0.15c0.01,0.294,0.021,0.41,0.029,0.495c0.04,0.386,0.061,0.674,0.04,1.36
		c-0.01,0.558-0.069,1.648-0.25,2.618c-0.26,1.63-0.74,3.03-1.142,4.07c-0.908,2.23-2.129,4.27-3.75,6.33
		c-2.408,2.97-5.229,5.49-8.908,7.95c-2.12,1.41-4.32,2.64-6.682,3.75c-2.539,16.52-12.119,31.69-27.17,42.94
		c-15.63,11.689-35.89,18.12-57.04,18.12L125.283,173.74z M39.323,86.443c0.173,0.222,0.432,0.513,0.813,0.856
		c0.587,0.53,1.32,1.08,2.154,1.61c0.57-2.19,1.266-4.35,2.084-6.47c-1.826,0.99-3.385,2.12-4.405,3.21
		c-0.29,0.3-0.5,0.57-0.64,0.78L39.323,86.443z M206.278,82.72c0.75,1.965,1.395,3.962,1.931,5.984
		c0.692-0.46,1.307-0.927,1.805-1.384c0.396-0.355,0.66-0.653,0.835-0.877c-0.137-0.204-0.33-0.454-0.601-0.73
		C209.28,84.685,207.903,83.651,206.278,82.72L206.278,82.72z"/>
	<path fill="#333333" d="M125.283,37.808c28.541,0,53.607,12.055,68.01,30.25c0.87-0.06,1.737-0.088,2.603-0.088
		c5.057,0,10.04,0.975,14.867,2.667c3.048,1.122,6.078,2.554,8.96,4.81c1.435,1.14,2.837,2.495,4.044,4.263
		c1.19,1.77,2.16,4.03,2.41,6.517c0.03,1.08,0.09,0.67,0.061,1.618c-0.021,0.754-0.09,1.518-0.201,2.05
		c-0.188,1.194-0.538,2.286-0.938,3.338c-0.84,2.053-1.96,3.763-3.149,5.263c-2.431,2.98-5.16,5.205-8.01,7.115
		c-2.591,1.72-5.279,3.13-8.119,4.33c-3.82,33.54-38.41,59.81-80.552,59.81c-42.08,0-76.64-26.17-80.55-59.63
		c-2.99-1.23-5.81-2.7-8.51-4.49c-2.85-1.91-5.58-4.13-8.01-7.11c-1.19-1.5-2.31-3.21-3.15-5.26c-0.4-1.05-0.76-2.14-0.94-3.33
		c-0.11-0.53-0.18-1.29-0.2-2.05c-0.03-0.95,0.03-0.54,0.06-1.62c0.25-2.479,1.21-4.75,2.42-6.51c1.2-1.77,2.61-3.12,4.04-4.26
		c2.88-2.25,5.91-3.68,8.95-4.81c4.83-1.7,9.82-2.68,14.87-2.68c0.979,0,1.97,0.04,2.96,0.12c14.42-18.22,39.5-30.29,68.06-30.29
		 M45.108,94.8c1.154-6.903,3.6-13.47,7.163-19.523c-3.27,0.72-6.47,1.925-9.38,3.433c-2.27,1.188-4.36,2.643-5.84,4.218
		c-1.55,1.59-2.12,3.215-1.93,3.979c0.14,0.757,0.81,2.006,2.32,3.376c1.47,1.346,3.47,2.602,5.61,3.64
		c0.66,0.312,1.35,0.603,2.05,0.882 M205.391,94.666c0.58-0.238,1.15-0.487,1.7-0.75c2.15-1.035,4.141-2.29,5.609-3.637
		c1.521-1.37,2.189-2.62,2.319-3.38c0.19-0.77-0.368-2.39-1.92-3.98c-1.479-1.58-3.58-3.03-5.84-4.22
		c-2.778-1.44-5.819-2.6-8.95-3.33c3.512,5.98,5.932,12.47,7.092,19.28 M125.278,29.8c-28.494,0-54.96,11.208-71.69,30.167
		c-5.5,0.08-11.16,1.125-16.833,3.11l-0.06,0.02l-0.063,0.024c-4.43,1.63-7.966,3.54-11.123,6.01l-0.02,0.02l-0.02,0.02
		c-2.32,1.84-4.17,3.81-5.68,6.03c-2.09,3.08-3.4,6.6-3.77,10.2l-0.03,0.31l-0.01,0.31c0,0.1,0,0.17-0.01,0.22
		c-0.06,0.59-0.07,1.06-0.05,1.83c0.02,0.84,0.09,2.04,0.31,3.21c0.32,1.979,0.89,3.61,1.35,4.82l0.03,0.08l0.04,0.08
		c1.02,2.5,2.42,4.86,4.29,7.21l0.04,0.04l0.04,0.04c2.65,3.26,5.75,6.02,9.76,8.71c1.85,1.22,3.74,2.33,5.72,3.33
		c3.21,16.69,13.18,31.931,28.43,43.3c16.31,12.16,37.4,18.852,59.37,18.852c22.01,0,43.12-6.71,59.44-18.91
		c15.278-11.41,25.229-26.71,28.379-43.46c1.83-0.94,3.58-1.96,5.271-3.08l0.021-0.01l0.029-0.01c4.01-2.69,7.11-5.46,9.76-8.71
		l0.03-0.03l0.03-0.04c1.87-2.35,3.27-4.71,4.29-7.21l0.04-0.09l0.029-0.08c0.461-1.21,1.031-2.84,1.351-4.8
		c0.22-1.16,0.29-2.38,0.319-3.21c0.031-0.77,0.011-1.25-0.049-1.87V86l-0.012-0.3l-0.029-0.296c-0.369-3.586-1.66-7.11-3.75-10.187
		c-1.529-2.24-3.379-4.21-5.689-6.04l-0.02-0.014l-0.021-0.02c-3.16-2.473-6.7-4.385-11.13-6.017l-0.062-0.025l-0.06-0.02
		c-5.53-1.94-11.06-2.98-16.44-3.1c-16.72-18.96-43.188-30.17-71.68-30.17L125.278,29.8z M31.528,86.8
		c-0.02,0.55-0.05,0.804-0.07,1.006c0.03,0.124,0.047,0.402,0.08,0.623c0.13,0.78,0.286,1.33,0.577,2.08
		c0.4,0.99,1.07,2.08,2.02,3.28c1.6,1.97,3.56,3.7,6.29,5.53c2.13,1.41,4.5,2.66,7.2,3.78l4.103,1.7l0.516,4.41
		c3.464,29.7,35.537,52.96,73.02,52.96c37.562,0,69.64-23.33,73.017-53.11l0.5-4.38l4.07-1.73c2.604-1.11,4.86-2.3,6.9-3.65
		c2.693-1.82,4.652-3.54,6.313-5.59c0.9-1.13,1.562-2.22,2.021-3.35c0.238-0.62,0.398-1.16,0.47-1.63
		c0.09-0.55,0.108-0.83,0.12-1.11c0-0.07-0.025-0.31-0.05-0.85c-0.138-0.97-0.53-1.97-1.12-2.84c-0.62-0.91-1.414-1.74-2.503-2.61
		c-1.82-1.42-3.95-2.55-6.856-3.63c-4.789-1.68-9.611-2.41-14.35-2.09l-3.979,0.27l-2.472-3.13
		c-13.58-17.17-36.786-27.42-62.063-27.42c-25.298,0-48.506,10.25-62.087,27.44l-2.5,3.16l-4.02-0.32
		C51.868,75.27,46.968,76,41.908,77.77c-2.79,1.026-4.923,2.16-6.8,3.627c-1.03,0.82-1.83,1.654-2.452,2.57
		c-0.59,0.86-0.982,1.86-1.12,2.82L31.528,86.8z"/>
	<path fill="#676767" d="M58.098,71.353c0,0-27.978,5.902-28.535,15.207c-0.552,9.307,18.897,19.06,29.865,19.717
		C59.428,106.277,44.663,92.055,58.098,71.353z"/>
	<path fill="#B3B3B3" d="M57.971,74.548c-5.21,0.14-10.49,1.78-15.07,4.153c-2.268,1.19-4.36,2.65-5.844,4.22
		c-1.55,1.59-2.12,3.21-1.93,3.98c0.13,0.76,0.8,2.01,2.32,3.38c1.47,1.35,3.46,2.6,5.61,3.64c4.27,2.03,9.46,3.36,13.48,3.2
		c4.42-0.16,8.14,3.3,8.29,7.72c0.15,4.43-3.3,8.14-7.72,8.29c-0.41,0.02-0.8,0.01-1.18-0.04l-0.36-0.04
		c-3.83-0.45-7.16-1.45-10.35-2.7c-3.18-1.27-6.17-2.82-9.03-4.72c-2.85-1.91-5.58-4.13-8.01-7.11c-1.19-1.5-2.31-3.21-3.15-5.26
		c-0.4-1.05-0.76-2.14-0.94-3.33c-0.11-0.53-0.18-1.29-0.2-2.05c-0.03-0.95,0.03-0.54,0.05-1.62c0.26-2.479,1.22-4.75,2.42-6.51
		c1.2-1.77,2.61-3.12,4.04-4.26c2.88-2.25,5.91-3.69,8.95-4.81c6.08-2.13,12.42-3.15,18.82-2.48c1.76,0.2,3.04,1.78,2.85,3.53
		c-0.17,1.62-1.52,2.83-3.11,2.87L57.971,74.548z"/>
	<path fill="#676767" d="M192.069,71.353c0,0,27.98,5.902,28.541,15.206c0.553,9.3-18.901,19.06-29.871,19.71
		c0,0,14.771-14.22,1.33-34.93V71.353z"/>
	<path fill="#B3B3B3" d="M192.198,74.548c5.211,0.14,10.492,1.78,15.071,4.153c2.267,1.19,4.36,2.65,5.841,4.22
		c1.555,1.59,2.113,3.21,1.924,3.98c-0.133,0.76-0.806,2.01-2.32,3.38c-1.469,1.35-3.467,2.6-5.607,3.64
		c-4.271,2.03-9.466,3.36-13.488,3.2c-4.428-0.16-8.137,3.3-8.295,7.72c-0.153,4.43,3.302,8.14,7.72,8.29
		c0.401,0.02,0.793,0.01,1.18-0.04l0.354-0.04c3.83-0.45,7.16-1.45,10.352-2.7c3.17-1.27,6.16-2.82,9.02-4.72
		c2.84-1.91,5.58-4.13,8-7.11c1.19-1.5,2.312-3.21,3.15-5.26c0.4-1.05,0.75-2.14,0.939-3.33c0.101-0.53,0.17-1.29,0.189-2.05
		c0.03-0.95-0.029-0.54-0.068-1.62c-0.262-2.479-1.222-4.75-2.42-6.51c-1.211-1.77-2.61-3.12-4.052-4.26
		c-2.88-2.25-5.909-3.69-8.96-4.81c-6.09-2.13-12.408-3.15-18.818-2.48c-1.762,0.2-3.041,1.78-2.852,3.53
		c0.16,1.62,1.521,2.83,3.102,2.87L192.198,74.548z"/>
	<path fill="#FFFFFF" d="M206.196,103.77c0,36.434-36.224,65.97-80.914,65.97c-44.698,0-80.93-29.536-80.93-65.97
		c0-36.43,36.232-65.963,80.93-65.963C169.973,37.807,206.196,67.341,206.196,103.77L206.196,103.77z"/>
	<path fill="#B3B3B3" d="M188.848,120.517c0,24.405-29.368,44.18-65.59,44.18c-36.218,0-65.587-19.774-65.587-44.18
		c0-24.395,29.37-44.172,65.588-44.172C159.489,76.345,188.849,96.122,188.848,120.517L188.848,120.517z"/>
	<path fill="#999898" d="M123.258,167.218c-37.556,0-68.108-20.946-68.108-46.7c0-25.747,30.553-46.694,68.11-46.694
		c37.556,0,68.112,20.947,68.112,46.693C191.372,146.271,160.815,167.217,123.258,167.218L123.258,167.218z M123.258,78.866
		c-34.777,0-63.067,18.684-63.067,41.65c0,22.97,28.29,41.66,63.068,41.66c34.777,0,63.07-18.689,63.07-41.66
		C186.329,97.549,158.038,78.866,123.258,78.866L123.258,78.866z"/>
	<g>
		<path fill="#333333" d="M206.495,161.051c-3.928-4.273-18.034-18.222-34.627-18.222l-1.515,0.03l-0.005,0.007
			c-1.514,0.021-3.215,0.11-4.938,0.528c-4.168,0.998-7.688,3.547-9.908,7.176c-2.203,3.597-2.87,7.84-1.878,11.947
			c1.722,7.166,8.102,12.172,15.513,12.172c0.946,0,1.915-0.1,2.95-0.303c1.435,0.479,6.508,3.32,10.905,8.073
			c3.004,3.259,7.285,5.128,11.744,5.128c3.989,0,7.819-1.49,10.785-4.201c3.141-2.878,4.971-6.772,5.153-10.969
			C210.858,168.227,209.374,164.189,206.495,161.051z M169.125,164.659c-2.765,0-5.146-1.877-5.79-4.565
			c-0.768-3.193,1.21-6.414,4.408-7.183c1.097-0.267,2.233-0.423,3.389-0.468h0.704c12.649,0,24.927,12.66,27.259,15.197
			c2.221,2.418,2.059,6.192-0.357,8.412c-1.106,1.014-2.535,1.57-4.024,1.57c-1.69,0-3.253-0.684-4.4-1.928
			c-3.429-3.705-12.422-11.357-18.327-11.357c-0.476,0-0.918,0.044-1.438,0.148C170.052,164.602,169.573,164.659,169.125,164.659z"
			/>
		<path fill="#333333" d="M93.557,143.089c-1.935-0.472-4.044-0.7-6.448-0.7l-0.888,0.024l-0.017,0.009
			c-16.092,0.48-29.888,14.201-33.752,18.419c-2.877,3.132-4.361,7.205-4.177,11.47c0.184,4.263,2.014,8.197,5.159,11.088
			c2.965,2.695,6.792,4.182,10.775,4.182c4.333,0,8.622-1.966,11.767-5.393c3.794-4.131,8.354-7.114,10.421-8.084
			c0.986,0.388,2.141,0.422,3.202,0.306c0.073-0.009,0.146-0.021,0.22-0.021c7.419,0,13.798-4.984,15.513-12.123
			C107.375,153.738,102.09,145.136,93.557,143.089z M59.82,167.672c2.268-2.477,13.93-14.548,26.173-15.232h1.075
			c1.401,0,2.78,0.162,4.1,0.479c3.193,0.771,5.17,3.991,4.407,7.181c-0.648,2.692-3.005,4.573-5.733,4.573
			c-0.48,0-0.966-0.059-1.449-0.177c-0.49-0.117-0.989-0.178-1.485-0.178c-5.299,0-14.06,6.853-18.31,11.481
			c-1.204,1.31-2.807,2.06-4.399,2.06c-1.387,0-2.817-0.604-4.021-1.696C57.741,173.923,57.581,170.114,59.82,167.672z"/>
	</g>
	<g>
		<path fill="#FFFFFF" d="M225.653,177.598c-5.439-15.562-18.36-15.166-26.887-17.317c-5.793-5.31-15.943-12.828-26.932-12.828
			c-1.795,0-3.565,0.21-5.266,0.608c-5.873,1.42-9.504,7.34-8.098,13.211c1.184,4.949,5.563,8.399,10.653,8.399
			c0.854,0,1.716-0.101,2.544-0.3c0.085-0.02,0.189-0.03,0.314-0.03c1.449,0,3.959,1.188,6.688,3.005
			c-1.021,0.166-2.046,0.342-3.075,0.533c-3.54,0.65-7.101,1.53-10.438,2.49c-3.36,1.02-6.49,2.22-9.17,3.39
			c-2.682,1.33-4.9,2.431-6.432,3.5l-2.408,1.56l-0.062,0.052c-4.36,2.858-5.57,8.71-2.688,13.069
			c2.868,4.369,8.719,5.561,13.078,2.699l0.891-0.58c0,0,0.52-0.355,1.425-0.953c0.827-0.652,2.344-1.426,4.104-2.381
			c1.875-0.851,4.147-1.845,6.743-2.711l-0.013,0.182c2.673,2.369,2.229,4.46,1.253,5.885c-0.975,0.475-1.896,1.052-2.811,1.556
			c-2.42,1.386-4.682,2.677-6.61,3.785c-3.86,2.229-6.431,3.722-6.431,3.722c-0.029,0.021-0.119,0.065-0.149,0.09
			c-4.46,2.695-5.9,8.5-3.2,12.959c2.7,4.47,8.5,5.898,12.971,3.207l1.101-0.664c0,0,2.188-1.319,5.479-3.307l5.61-3.412
			c1.04-0.615,2.048-1.349,3.242-1.82c1.16-0.538,2.336-1.086,3.516-1.629c2.352-1.098,4.706-2.192,6.913-3.221
			c1.467-0.593,2.858-1.097,4.149-1.57C205.663,207.497,234.082,201.71,225.653,177.598z"/>
		<path fill="#FFFFFF" d="M111.737,183.809l-2.41-1.55c-1.529-1.069-3.757-2.159-6.437-3.489c-2.685-1.16-5.817-2.371-9.167-3.381
			c-3.343-0.959-6.901-1.84-10.443-2.49c-1.016-0.189-2.028-0.362-3.036-0.525c-0.018-0.025-0.029-0.053-0.045-0.079
			c2.739-1.795,5.272-2.976,6.71-2.976c0.16,0,0.26,0.021,0.32,0.041c0.84,0.199,1.71,0.301,2.56,0.301c5.08,0,9.46-3.46,10.65-8.4
			c1.41-5.88-2.22-11.81-8.1-13.22c-1.7-0.41-3.47-0.63-5.27-0.63c-11.018,0-21.365,7.766-26.989,12.885
			c-8.526,2.135-21.396,1.779-26.827,17.305c-8.442,24.146,20.068,29.914,30.038,31.182c1.275,0.468,2.643,0.965,4.086,1.55
			c2.21,1.03,4.56,2.12,6.92,3.22l3.51,1.631c1.19,0.469,2.2,1.199,3.24,1.819l5.61,3.399c3.28,1.99,5.48,3.311,5.48,3.311
			l1.15,0.689c0.03,0.021,0.07,0.041,0.11,0.07c4.52,2.609,10.3,1.061,12.91-3.449c2.6-4.521,1.05-10.291-3.46-12.9
			c0,0-2.57-1.49-6.43-3.721l-6.61-3.779c-0.909-0.492-1.812-1.061-2.772-1.53c-0.979-1.424-1.432-3.519,1.248-5.892l-0.007-0.108
			c2.584,0.865,4.846,1.798,6.721,2.65c1.76,0.96,3.28,1.7,4.11,2.36l1.43,0.938l0.88,0.59l0.06,0.04
			c4.38,2.83,10.23,1.57,13.06-2.8C117.367,192.489,116.117,186.639,111.737,183.809z"/>
	</g>
</g>
<g>
	<path fill="#333333" d="M128,160.83c-2.79,0-5-2.256-5-5.04V145.7c0-2.79,2.21-5.044,5-5.044c2.786,0,5,2.255,5,5.043v10.09
		C133,158.568,130.786,160.829,128,160.83L128,160.83z"/>
	<g>
		<path fill="#333333" d="M128.62,142.49l13.692-8.236c12.227-7.343,34.358-18.282,35.291-18.745c1.873-0.93,4.149-0.16,5.069,1.71
			c0.922,1.88,0.152,4.14-1.72,5.06c-0.146,0.07-9.766,4.82-19.748,10.11l12.005-0.92c2.118-0.09,3.907,1.391,4.063,3.48
			c0.16,2.08-1.396,3.9-3.479,4.06l-45.174,3.46V142.49z"/>
		<path fill="#333333" d="M124.452,141.893l-47.927-2.504c-2.088-0.108-3.689-1.89-3.583-3.979c0.11-2.092,1.843-3.682,3.976-3.592
			l20.498,1.07c-10.403-4.87-21.708-8.62-21.875-8.68c-1.985-0.65-3.063-2.79-2.41-4.78c0.647-1.98,2.77-3.08,4.771-2.41
			c1.07,0.35,26.287,8.71,37.313,17.49l9.236,7.351V141.893z"/>
	</g>
	<ellipse fill="#2974A7" cx="128" cy="141.323" rx="9.988" ry="6.063"/>
</g>
</svg>
