<svg xmlns="http://www.w3.org/2000/svg" width="256" height="256" viewBox="0 0 256 256"><path fill="#082031" d="M130.295 214.88c-.463 0-.896-.026-1.32-.077l-.763-.295c-1.187.078-2.412-.127-3.735-.127h-.774c-.16 0-.318.24-.478.24-3.646-.06-7.49-.36-11.34-1.11-.21-.04-.415-.04-.612-.11-.757-.17-1.515-.32-2.275-.51-.994-.24-1.992-.47-3-.68-.058-.01-.115-.01-.17-.03-1.216-.31-2.313-.69-3.374-1.06l-1.39-.48-.13-.04c-.464-.17-.93-.32-1.393-.48-1.03-.34-2.09-.7-3.16-1.19-.66-.29-1.35-.59-2.02-.88-1.74-.76-3.39-1.47-4.91-2.27-.19 1.1-.83 2.07-1.79 2.68-.65.41-1.4.62-2.14.62-.63 0-1.26-.15-1.84-.45l-4.33-2.25-.82 1.38c-.75 1.25-2.07 1.94-3.43 1.94-.7 0-1.41-.18-2.05-.57l-3.97-2.38-.83 1.67c-.68 1.36-2.06 2.21-3.57 2.21h-.14c-1.56-.06-2.95-1.02-3.55-2.46l-4.27-10.24c-1.62-1.53-5.36-5.39-7.11-9.76-1.56-3.9-3.23-14 1.02-25.32-.27-.6-.53-1.22-.78-1.83-.54-.02-1.09-.07-1.65-.13-16.34-1.72-32.89-13.46-32.89-32.56 0-11.5 0-38.42 23.79-38.42 7.44 0 13.57 2.38 18.03 6.95C66.63 83 80.99 72.29 97.91 66.35c-.29-.93-.41-2.09-.16-3.49.44-2.413 1.57-4.34 3.247-5.66-.58-1.87-.5-3.78-.07-5.21.18-.59.49-1.13.91-1.58 3.14-3.36 7.48-5.07 12.91-5.07 3.27 0 6.585.64 9.535 1.49.06-.424.17-.85.32-1.276 1.08-2.94 4.03-4.2 6.23-4.383.11-.01.22-.01.33-.01.27 0 .53.02.79.07 12.64 2.53 18.23 14.37 19.927 22.68 19.92 4.98 37.12 16.36 48.21 31.83 4.33-3.89 9.99-5.85 16.92-5.85 23.78 0 23.78 26.93 23.78 38.43 0 18.99-16.36 30.7-32.61 32.53-.93 2.27-1.98 4.52-3.17 6.72 2.33 9.45.86 17.31-.45 20.6-1.75 4.37-5.5 8.23-7.12 9.77l-4.27 10.24c-.61 1.45-1.99 2.41-3.56 2.46h-.14c-1.51 0-2.9-.85-3.58-2.21l-.83-1.66-3.97 2.38c-.65.39-1.36.58-2.06.58-1.36 0-2.69-.69-3.44-1.94l-.83-1.37-4.34 2.25c-.58.3-1.22.45-1.85.45-.75 0-1.49-.21-2.15-.62-.96-.61-1.61-1.59-1.8-2.68-1.52.8-3.17 1.52-4.91 2.27-.67.29-1.36.59-2.06.9-1.03.47-2.1.83-3.12 1.18-.47.15-.94.31-1.4.48l-.14.05c-.47.15-.93.32-1.4.48-1.06.38-2.15.76-3.37 1.07-.06.02-.12.03-.17.04-1.01.21-2.01.45-3 .7-2.17.53-4.41 1.08-6.78 1.3-1.55.14-3.05.28-4.48.42-.06 0-.11.01-.16.01-.4.02-.78.06-1.16.1-.67.06-1.42.14-2.22.14z"/><path fill="#333" d="M131.127 45.12c14.838 2.97 17.054 20.854 17.185 22.04 22.194 4.846 40.733 17.817 51.296 35.125 3.535-5.23 9.073-8.432 17.355-8.432 17.396 0 19.785 17.035 19.785 34.427 0 17.402-15.387 27.112-29.307 28.58-.75.078-1.44.11-2.11.125-1.25 3.465-2.81 6.81-4.63 10.018 2.59 8.958 1.3 16.683.12 19.632-1.84 4.604-6.75 8.9-6.75 8.9l-4.6 11.05-2.76-5.523-7.67 4.604-2.76-4.604-7.67 3.99.26-6.195c-.15.09-.31.186-.49.29-1.24.76-3.01 1.756-5.05 2.78-2.04 1.14-4.56 2.146-7.24 3.34-1.33.61-2.81 1.022-4.26 1.555-1.48.483-2.94 1.08-4.5 1.473-3.15.652-6.22 1.65-9.33 1.93-1.56.143-3.06.285-4.49.42-1.1.06-2.14.237-3.15.237-.31 0-.62-.017-.92-.06-.4-.025-.78-.052-1.15-.08-1.25.09-2.5.127-3.73.127-.17 0-.34-.01-.51-.01h-.27c-.1 0-.21-.01-.31-.01-3.67-.07-7.26-.49-10.73-1.17l-.02-.05c-1.93-.42-3.85-.96-5.82-1.37-1.55-.39-3.02-.99-4.5-1.47-1.45-.53-2.94-.95-4.26-1.56-2.67-1.2-5.19-2.2-7.24-3.34-2.05-1.03-3.8-2.02-5.05-2.78-.18-.11-.35-.2-.5-.29l.26 6.19-7.67-3.99-2.76 4.6-7.67-4.61-2.77 5.52-4.6-11.05s-4.91-4.3-6.75-8.9c-1.36-3.41-2.89-13.23 1.65-23.95-.89-1.88-1.69-3.8-2.4-5.75-.47.04-.97.06-1.49.06-.77 0-1.59-.04-2.48-.14-13.92-1.47-29.3-11.18-29.3-28.58 0-17.39 2.39-34.43 19.79-34.43 9.08 0 14.86 3.84 18.32 9.99 10.16-17.73 28.61-31.17 50.89-36.38-4.04-.23-7.22-.56-6.61-3.91.64-3.54 3.31-4.38 5.7-4.38.26 0 .51.01.76.02-4.7-1.75-3.4-6.09-3.4-6.09 2.63-2.82 6.24-3.8 9.98-3.8 8.48 0 17.65 5.03 17.65 5.03-8.6-8.6-1.23-9.21-1.23-9.21m0-8c-.22 0-.44 0-.67.02-2.83.23-6.49 1.68-8.62 4.93-2.3-.47-4.71-.77-7.14-.77-8.19 0-13.13 3.45-15.83 6.34-.84.9-1.46 1.98-1.81 3.16-.48 1.58-.63 3.32-.43 5.06-1.42 1.71-2.41 3.82-2.85 6.24-.1.52-.16 1.03-.18 1.53-14.99 5.84-27.9 15.3-37.22 27.32-4.72-3.36-10.58-5.09-17.36-5.09-11.17 0-19.39 5.37-23.77 15.53-3.56 8.27-4.02 18.72-4.02 26.9 0 20.69 17.05 33.67 34.51 36.29-3.29 11.1-1.64 20.71.09 25.04 1.84 4.59 5.38 8.53 7.46 10.59l3.95 9.47c1.2 2.89 3.98 4.81 7.11 4.92h.28c2.19 0 4.25-.89 5.73-2.41l.59.36c1.29.77 2.71 1.14 4.11 1.14 2.02 0 3.99-.76 5.49-2.18l1.27.65c1.16.61 2.42.9 3.69.9 1.49 0 2.98-.41 4.29-1.25.42-.26.81-.56 1.16-.9.59.27 1.19.53 1.8.79.65.28 1.31.57 1.99.87 1.24.57 2.45.98 3.52 1.33.43.15.86.29 1.29.45l.26.09c.43.14.86.29 1.29.45 1.09.38 2.33.82 3.73 1.17l.34.07c.91.18 1.86.42 2.86.66.7.17 1.41.34 2.14.51.31.1.62.18.94.24 4.05.79 8.1 1.23 12.05 1.31.18.01.36.01.54.01h.77c1.31 0 2.53-.03 3.72-.11l.43.03c.54.06 1.09.09 1.67.09 1 0 1.9-.09 2.62-.16.32-.03.64-.06.97-.08.11 0 .22-.01.32-.02l4.48-.42c2.65-.24 5.15-.85 7.36-1.39 1-.25 1.94-.48 2.85-.67.11-.03.23-.05.34-.08 1.39-.35 2.63-.79 3.72-1.18l1.3-.45.27-.09c.43-.16.87-.3 1.3-.45 1.07-.35 2.27-.76 3.51-1.32.68-.3 1.35-.59 2-.88.61-.26 1.2-.52 1.79-.79.36.33.75.64 1.17.9 1.31.83 2.8 1.25 4.29 1.25 1.27 0 2.53-.3 3.69-.9l1.26-.65c1.5 1.41 3.48 2.18 5.49 2.18 1.4 0 2.82-.36 4.11-1.14l.6-.35c1.49 1.52 3.54 2.41 5.73 2.41.09 0 .19-.01.28-.01 3.13-.11 5.91-2.03 7.11-4.92l3.95-9.47c2.08-2.05 5.62-5.99 7.45-10.58 1.88-4.7 2.77-12.89.96-21.53.61-1.2 1.19-2.41 1.74-3.63 17.22-2.85 33.82-15.76 33.82-36.17 0-8.18-.45-18.63-4.02-26.9-4.38-10.15-12.6-15.52-23.77-15.52-6.9 0-12.15 1.8-16.12 4.29-11.17-13.99-27.25-24.42-45.7-29.53-.58-2.15-1.44-4.69-2.71-7.29-4.25-8.76-11.08-14.3-19.73-16.03-.52-.11-1.04-.16-1.57-.16z"/><path fill="#C69C6D" d="M236.748 128.28c0 17.4-15.387 27.11-29.307 28.578-17.3 1.82-13.18-14.106-13.18-31.5 0-17.4 5.32-31.505 22.71-31.505 17.4 0 19.79 17.034 19.79 34.426z"/><path fill="#A67C52" d="M194.22 119.435c2.862-3.88 5.765-7.524 9.038-11.04 1.666-1.727 3.402-3.422 5.465-4.884 2.063-1.36 4.512-2.87 7.766-2.63.78.07 1.58.3 2.31.57.49.17 1.21.46 1.83.78 1.21.62 2.39 1.42 3.42 2.4 2.11 1.92 3.59 4.51 4.45 7.18 1.67 5.42 1.38 11.01.2 16.43l-.09.39c-.68 3.11-3.74 5.08-6.84 4.4-3.11-.68-5.07-3.74-4.39-6.84.17-.83.54-1.6 1.02-2.24 2.31-3.07 3.82-7.01 3.54-10.7-.12-1.84-.69-3.57-1.76-5.03-.55-.72-1.21-1.37-1.98-1.92-.37-.27-.69-.49-1.26-.79-.35-.18-.65-.3-1.02-.36-1.43-.29-3.44.36-5.18 1.49-1.78 1.14-3.46 2.59-4.99 4.21-3.08 3.22-5.74 7.02-7.85 10.94l-.02.04c-.58 1.07-1.92 1.48-2.99.9-1.08-.57-1.48-1.91-.91-2.98.05-.1.11-.19.18-.27z"/><path fill="#C69C6D" d="M19.252 128.28c0 17.4 15.387 27.11 29.305 28.578 17.3 1.82 13.188-14.106 13.188-31.5 0-17.4-5.314-31.505-22.71-31.505s-19.783 17.034-19.783 34.426z"/><path fill="#A67C52" d="M61.78 119.435c-2.86-3.88-5.763-7.524-9.036-11.04-1.666-1.727-3.406-3.422-5.47-4.884-2.06-1.36-4.51-2.87-7.763-2.63-.78.07-1.58.3-2.31.57-.49.17-1.21.46-1.83.78-1.21.62-2.38 1.42-3.42 2.4-2.11 1.92-3.59 4.51-4.45 7.18-1.67 5.42-1.38 11.01-.2 16.43l.09.39c.68 3.11 3.74 5.08 6.84 4.4 3.11-.68 5.07-3.74 4.4-6.84-.18-.83-.54-1.6-1.02-2.24-2.31-3.07-3.82-7.01-3.55-10.7.13-1.84.69-3.57 1.76-5.03.55-.72 1.21-1.37 1.98-1.92.37-.27.69-.49 1.26-.79.34-.18.65-.3 1.01-.36 1.43-.29 3.44.36 5.18 1.49 1.78 1.14 3.46 2.59 5 4.21 3.07 3.22 5.74 7.02 7.84 10.94l.02.04c.58 1.07 1.92 1.48 2.99.9 1.08-.57 1.49-1.91.91-2.98-.06-.1-.12-.19-.18-.27z"/><path fill="#082031" d="M209.098 135.573c0 38.946-35.893 70.507-80.168 70.507-44.27 0-80.16-31.56-80.16-70.507 0-38.942 35.89-70.5 80.16-70.5 44.275 0 80.168 31.558 80.168 70.5zm-60.78-68.35s-1.844-19.032-17.19-22.104c0 0-7.368.61 1.226 9.21 0 0-19.03-10.44-27.625-1.23 0 0-1.85 6.14 6.75 6.75 0 0-8.6-3.07-9.82 3.68-1.23 6.75 12.89 1.23 18.41 7.36"/><path fill="none" d="M170.012 176.095m36.836-57.302"/><path fill="#B3B3B3" d="M193.08 137.535c0 28.942-28.594 52.41-63.865 52.41-35.27 0-63.865-23.468-63.865-52.41 0-28.95 28.596-52.418 63.865-52.418 35.27 0 63.865 23.47 63.865 52.418z"/><path fill="#999898" d="M129.215 192.402c-36.57 0-66.32-24.615-66.32-54.867 0-30.258 29.75-54.875 66.32-54.875 36.572 0 66.322 24.616 66.322 54.875 0 30.252-29.75 54.867-66.322 54.867zm0-104.828c-33.865 0-61.41 22.41-61.41 49.96 0 27.548 27.545 49.956 61.41 49.956 33.86 0 61.41-22.408 61.41-49.955 0-27.55-27.55-49.96-61.41-49.96z"/><path fill="#333" d="M130.62 175.275c-2.714 0-5-2.2-5-4.914v-34.37c0-2.71 2.286-4.91 5-4.91s5 2.2 5 4.92v34.38c0 2.72-2.286 4.92-5 4.92zm23.837.105h-49.115c-2.715 0-4.91-1.787-4.91-4.5 0-2.714 2.195-4.5 4.91-4.5h49.115c2.713 0 4.912 1.786 4.912 4.5 0 2.713-2.2 4.5-4.92 4.5z"/><path fill="#fff" d="M181.844 118.86c0 14.148-11.467 25.62-25.62 25.62-14.147 0-25.614-11.472-25.614-25.62 0-14.148 11.467-25.615 25.615-25.615 14.152 0 25.62 11.466 25.62 25.614zm-53.598 0c0 14.148-11.47 25.62-25.62 25.62S77.01 133.01 77.01 118.86c0-14.148 11.467-25.615 25.617-25.615 14.148 0 25.62 11.466 25.62 25.614z"/><path fill="#2974A7" d="M119.576 117.708c0 9.392-7.613 17.013-17.01 17.013-9.398 0-17.014-7.62-17.014-17.01s7.615-17.01 17.014-17.01c9.397 0 17.01 7.63 17.01 17.02z"/><path fill="#fff" d="M99.967 112.798c0 3.202-2.6 5.798-5.807 5.798-3.203 0-5.803-2.596-5.803-5.798 0-3.205 2.6-5.8 5.803-5.8 3.207 0 5.807 2.595 5.807 5.8zm6.393 6.258c0 1.502-1.23 2.726-2.73 2.726-1.507 0-2.728-1.224-2.728-2.726 0-1.51 1.22-2.722 2.727-2.722 1.5 0 2.73 1.212 2.73 2.722z"/><path fill="#2974A7" d="M173.178 117.708c0 9.392-7.617 17.013-17.014 17.013s-17.012-7.62-17.012-17.01 7.615-17.01 17.012-17.01 17.014 7.63 17.014 17.02z"/><path fill="#fff" d="M153.564 112.798c0 3.202-2.602 5.798-5.805 5.798s-5.81-2.596-5.81-5.798c0-3.205 2.6-5.8 5.8-5.8 3.2 0 5.8 2.595 5.8 5.8zm6.396 6.258c0 1.502-1.23 2.726-2.73 2.726-1.502 0-2.732-1.224-2.732-2.726 0-1.51 1.23-2.722 2.732-2.722 1.5 0 2.73 1.212 2.73 2.722z"/><path fill="#2974A7" d="M139.45 131.72c0 3.26-4.356 5.903-9.73 5.903-5.365 0-9.725-2.643-9.725-5.903 0-3.262 4.36-5.904 9.725-5.904 5.374 0 9.73 2.642 9.73 5.904z"/><path fill="#C69C6D" d="M77.83 149.988s.617-.187 1.697-.503c1.025-.323 2.482-.757 4.29-1.392 3.604-1.178 8.317-3.012 12.862-5.02 2.26-1.016 4.38-2.184 6.45-3.178 1.87-1.147 3.62-2.215 5.12-3.14 2.5-1.996 4.17-3.335 4.17-3.335l.86-.698c3.29-2.636 8.1-2.103 10.74 1.19 2.64 3.296 2.11 8.108-1.19 10.745l-.04.026s-2.5 1.974-6.31 4.658c-1.93 1.08-4.17 2.33-6.58 3.66-2.43 1.08-5 2.33-7.6 3.37-5.2 2.05-10.42 3.82-14.39 4.94-1.95.6-3.68 1.04-4.88 1.36l-1.8.46c-3.64.92-7.32-1.29-8.23-4.92-.89-3.54 1.17-7.13 4.63-8.16l.14-.03zm11.733 5.392s.725.845 1.98.864c1.194.017 2.946.428 5.106.375 4.28-.07 9.98-.2 15.61-.77 2.78-.39 5.61-.51 8.17-.99 2.54-.49 4.96-.78 6.94-1.25 3.91-1 6.52-1.64 6.52-1.64l.69-.16c5.15-1.31 10.39 1.81 11.7 6.97 1.31 5.15-1.81 10.39-6.96 11.7-.36.09-.77.17-1.13.22l-8.02 1.05c-2.39.27-5.13.34-8.09.54-2.95.19-6.05.08-9.15.13-6.19-.12-12.32-.49-16.9-.97-2.27-.21-4.21-.43-5.6-.61l-2.07-.28c-3.73-.5-6.33-4.75-5.83-8.48.46-3.44 3.44-6.72 6.82-6.72h.16z"/><path fill="#fff" d="M136.236 154.703c3.428-.847 6.645 2.26 6.996 5.83.352 3.562-2.205 6.737-5.723 7.086 0 0-3 .09-2.26-6.6 0 0-1.77-5.65.98-6.32zm-25.263-17.923c1.29-3.288 5.314-4.384 8.082-2.865 2.768 1.525 3.64 5.264 1.945 8.366 0 0-1.59 2.54-6.008-1.47 0 0-5.056-1.4-4.02-4.02z"/><path fill="#C69C6D" d="M90.77 171.52s.8.206 1.927.4c1.145.225 2.82.527 4.94.833 2.08.37 4.554.563 7.16.877 2.624.215 5.417.35 8.183.453 2.74-.1 5.518.034 8.012-.233 1.242-.135 2.44-.26 3.582-.384 1.12-.158 2.24-.14 3.15-.405l6.164-1.4 1.152-.26c5.19-1.18 10.352 2.07 11.535 7.26 1.18 5.19-2.068 10.35-7.252 11.54-.355.08-.764.15-1.117.19 0 0-3.424.37-8.557.92-1.3.19-2.62.04-4.05.06-1.43-.02-2.93-.03-4.48-.06-3.09-.05-6.27-.56-9.49-.85-3.16-.49-6.3-1.02-9.21-1.62-2.89-.69-5.59-1.23-7.86-1.92-2.25-.6-4.19-1.19-5.57-1.64-1.29-.43-2.03-.68-2.03-.68l-.08-.02c-3.55-1.19-5.47-5.04-4.28-8.59 1.14-3.39 4.72-5.29 8.14-4.41z"/><path fill="#fff" d="M136.236 174.35c3.428-.845 6.645 2.257 6.996 5.826.352 3.563-2.205 6.74-5.723 7.09 0 0-3 .097-2.26-6.597 0 0-1.77-5.65.98-6.32z"/><path fill="#C69C6D" d="M90.713 186.26c-.04-.034.73.402 1.68.78.96.423 2.39 1.01 4.28 1.677 1.806.75 4.034 1.31 6.35 2.027 1.165.377 2.4.53 3.628.824 1.24.23 2.49.586 3.73.73 2.49.152 4.99.694 7.23.565 1.11-.04 2.2-.08 3.22-.114 1-.08 2.01.06 2.81-.23 3.31-.76 5.47-1.13 5.47-1.13l1.69-.29c5.23-.9 10.19 2.6 11.09 7.83.91 5.21-2.59 10.18-7.82 11.08-.2.03-.43.06-.64.08 0 0-3.5.37-8.68.71-1.31.17-2.64-.1-4.08-.18-1.43-.14-2.94-.28-4.49-.42-3.11-.28-6.17-1.28-9.33-1.93-1.55-.4-3.02-.99-4.5-1.48-1.45-.53-2.93-.95-4.26-1.56-2.67-1.2-5.2-2.2-7.24-3.34-2.05-1.03-3.81-2.02-5.05-2.78-1.28-.74-1.71-1.08-1.77-1.1-3.25-1.86-4.38-6.01-2.53-9.26 1.86-3.25 6.01-4.39 9.27-2.53z"/><path fill="#fff" d="M131.324 193.994c3.43-.844 6.643 2.26 6.998 5.828.35 3.563-2.21 6.736-5.725 7.09 0 0-2.996.096-2.252-6.597 0 0-1.765-5.644.98-6.32z"/><path fill="#082031" d="M75.066 147.954s1.84-1.228 2.764-4.606c0 0 3.277 5.53.613 9.52-.154.228 8.174-5.965 8.29-5.834 3.07 3.455-.462 10.128-.462 10.128l10.67-4.908s-4.64 13.813-12.93 13.813l17.17-2.763-7.06 9.82 8.59 7.062s-5.84 6.448-10.13 3.687c0 0 5.22 3.067 4.6 7.67l-7.98-.305s2.46 4.298 1.85 8.903l-5.83-2.45.31 7.37-7.67-3.99-2.76 4.61-7.67-4.6-2.76 5.53-4.6-11.05s-4.91-4.3-6.75-8.9c-1.84-4.61-3.99-20.87 8.91-35.3 0 0 8.98-3.76 8.67-7.75l4.23 4.37z"/><path fill="#A67C52" d="M133.4 210.104l.326-.05c.402-.08.805-.183 1.203-.303 5.07-1.61 7.86-7.03 6.25-12.1-1.2-3.76-4.5-6.26-8.19-6.65 1.72-.17 3.45-.33 5.21-.64l.2-.03c.37-.06.74-.16 1.11-.27 5.08-1.56 7.94-6.94 6.38-12.02-1.56-5.08-6.94-7.94-12.02-6.38-6.27 1.92-13.55 2.58-20.9 2.45-.34 0-.67-.03-1.01-.04-3.28 2.33-8.98 7.71-3.26 14.11l4.9 2.45c5.24.61 10.59.94 16.12.65-.22.06-.44.07-.66.14-4.26 1.36-9.14 1.76-14.22 1.41-2.14.96-5.34 3.17-4.93 7.95.25 2.93 1.09 6.15 2.7 8.95 6.55 1.28 13.54 1.68 20.75.41zm-22.945-54.277c-.824 1.58-6.125 12.572 2.686 16.617 8.2.092 16.5-.268 25.07-1.742l.13-.034c.37-.066.73-.17 1.09-.276 5.09-1.527 7.98-6.942 6.45-12.03-.56-1.875-1.65-3.458-3.05-4.644-.9-.45-1.77-.976-2.61-1.543-1.95-.79-4.14-1-6.31-.347-6.75 2.025-14.13 3.102-21.62 3.887-.6.063-1.2.076-1.81.112z"/><path fill="#C69C6D" d="M166.754 159.85s-.564-.094-1.563-.27c-1.08-.198-2.6-.5-4.28-.916-3.45-.77-7.96-2.157-12.44-3.87-2.21-1.01-4.45-1.84-6.49-2.97l-2.93-1.648c-.92-.566-1.83-.96-2.6-1.58l-5.17-3.91c-3.37-2.553-4.04-7.354-1.49-10.728s7.36-4.04 10.73-1.493c.09.074.18.142.27.215l.89.742s1.37 1.133 3.4 2.833c.47.46 1.21.796 1.87 1.247.68.43 1.4.89 2.14 1.36 1.5.947 3.33 1.71 5.04 2.627 3.61 1.58 7.4 2.97 10.3 3.77 1.47.44 2.62.73 3.41.92l1.38.31.24.05c3.65.82 5.94 4.46 5.12 8.11-.8 3.53-4.24 5.79-7.77 5.18zm-1.074 10.726s-.754.104-2.072.28c-1.38.18-3.318.402-5.592.613-4.582.47-10.7.84-16.895.96-3.1-.05-6.2.06-9.14-.13-2.95-.2-5.69-.27-8.09-.55l-8.01-1.05c-5.27-.69-8.99-5.53-8.3-10.81.69-5.28 5.53-8.99 10.81-8.3.36.04.72.11 1.07.2l.75.19 6.52 1.65c1.98.47 4.4.81 6.94 1.3 2.56.48 5.38.71 8.17 1.09 5.63.56 11.34.9 15.62.97 2.16.05 3.91-.78 5.1-.79 1.26-.02 1.99-.87 1.99-.87h.16c3.75 0 6.84 3.78 6.89 7.53.05 3.48-2.52 7.22-5.89 7.66z"/><path fill="#fff" d="M117.846 154.703c-3.43-.847-6.643 2.26-6.998 5.83-.35 3.562 2.207 6.737 5.723 7.086 0 0 3 .09 2.26-6.6 0 0 1.77-5.65-.98-6.32zm25.26-17.923c-1.29-3.288-5.313-4.384-8.08-2.865-2.767 1.525-3.64 5.264-1.946 8.366 0 0 1.592 2.54 6.01-1.47 0 0 5.056-1.4 4.017-4.02z"/><path fill="#C69C6D" d="M167.092 184.558s-.74.25-2.025.68c-1.38.45-3.318 1.04-5.574 1.646-2.273.683-4.97 1.23-7.855 1.918-2.908.594-6.045 1.128-9.205 1.617-3.22.28-6.393.79-9.48.85l-4.477.06c-1.436-.02-2.752.12-4.045-.06l-8.55-.92c-5.29-.57-9.12-5.32-8.56-10.61.58-5.29 5.32-9.12 10.61-8.55.37.03.72.09 1.07.17l1.21.27 6.16 1.41c.91.26 2.04.25 3.15.4l3.58.38c2.5.27 5.27.13 8.01.23 2.77-.11 5.56-.24 8.19-.46 2.61-.32 5.08-.51 7.16-.88 2.13-.31 3.81-.61 4.95-.83 1.13-.2 1.93-.4 1.93-.4 3.64-.94 7.34 1.24 8.27 4.87.9 3.47-1.05 7-4.39 8.13l-.1.03z"/><path fill="#fff" d="M117.846 174.35c-3.43-.845-6.643 2.257-6.998 5.826-.35 3.563 2.207 6.74 5.723 7.09 0 0 3 .097 2.26-6.597 0 0 1.77-5.65-.98-6.32z"/><path fill="#C69C6D" d="M170.1 198.052c-.05.016-.482.36-1.762 1.094-1.246.76-3.008 1.755-5.057 2.78-2.04 1.14-4.56 2.145-7.24 3.34-1.33.608-2.81 1.02-4.26 1.554-1.48.483-2.94 1.08-4.5 1.473-3.15.652-6.22 1.65-9.33 1.93-1.56.143-3.06.285-4.49.42-1.44.08-2.77.356-4.08.18-5.18-.35-8.69-.717-8.69-.717-5.27-.544-9.1-5.265-8.55-10.536.55-5.27 5.28-9.098 10.54-8.555.21.026.41.057.61.09l1.72.294s2.15.37 5.46 1.13c.81.28 1.81.14 2.81.22 1.03.03 2.11.07 3.22.11 2.24.13 4.74-.42 7.23-.57 1.25-.15 2.49-.5 3.73-.73 1.23-.3 2.47-.45 3.63-.83 2.32-.72 4.55-1.28 6.36-2.03 1.89-.67 3.32-1.26 4.28-1.68.95-.38 1.72-.81 1.68-.78 3.26-1.86 7.4-.73 9.27 2.53 1.86 3.25.73 7.39-2.53 9.26z"/><path fill="#fff" d="M122.758 193.994c-3.428-.844-6.643 2.26-6.998 5.828-.35 3.563 2.207 6.736 5.72 7.09 0 0 3 .096 2.257-6.597 0 0 1.763-5.644-.98-6.32z"/><path fill="#082031" d="M179.014 147.954s-1.842-1.228-2.764-4.606c0 0-3.275 5.53-.613 9.52.154.228-8.174-5.965-8.287-5.834-3.07 3.455.46 10.128.46 10.128l-10.67-4.908s4.646 13.813 12.933 13.813l-17.17-2.763 7.07 9.82-8.59 7.062s5.836 6.448 10.135 3.687c0 0-5.22 3.067-4.605 7.67l7.98-.305s-2.455 4.298-1.842 8.903l5.84-2.45-.3 7.37 7.67-3.99 2.77 4.61 7.68-4.6 2.77 5.53 4.61-11.05s4.91-4.3 6.75-8.9c1.84-4.61 3.99-20.87-8.9-35.3 0 0-8.98-3.76-8.67-7.75l-4.22 4.37z"/></svg>