<svg xmlns="http://www.w3.org/2000/svg" width="256" height="256" viewBox="0 0 256 256"><path fill="#F4D1B0" d="M52.097 215.38c-1.438 0-2.766-.77-3.477-2.02-.71-1.252-.696-2.787.04-4.023l22.97-38.615c-1.42-3.886-2.297-8.188-2.62-12.852-15.783-1.012-19.184-12.706-19.184-22.587 0-8.368 3.44-15.878 8.73-19.788-3.8-8.273-7.01-18.26-5.783-26.75-.224.04-.45.058-.675.058-.966 0-1.922-.35-2.672-1.023-1.223-1.097-1.65-2.83-1.078-4.37.164-.44 4.142-10.925 15.223-21.375C73.71 52.478 92 41.087 121.58 41.087c2.996 0 6.095.117 9.21.348.103.008.203.02.304.034 6 .9 36.114 6.11 39.91 19.55 18.346 1.24 25.077 17.77 25.077 29.02 0 1.44 0 5.79-7.83 25.41l-.03.19c5.19 3.96 8.49 11.36 8.49 19.62 0 9.65-3.24 21.03-18.1 22.5-.2 2.76-.6 5.4-1.21 7.91 4.98 7.31 20.4 29.95 29.81 43.39.86 1.22.96 2.81.27 4.14-.69 1.32-2.05 2.15-3.55 2.15H52.1z"/><path fill="#333" d="M121.572 45.085c2.86 0 5.833.11 8.916.337 0 0 33.41 5.056 36.664 16.707.248.88.383 1.84.433 2.84.402-.02.798-.02 1.188-.02 19.876 0 23.302 18.9 23.302 25.09 0 4.43-4.81 17.12-7.858 24.71l.09.02-.926 2.63c5.39 2.3 9.32 9.42 9.32 17.86 0 16.72-10.22 18.66-17.44 18.66-.18 0-.34-.03-.51-.04-.01 4.71-.62 8.86-1.69 12.53 1.82 2.67 20.22 29.75 30.87 44.95H52.1l23.98-40.31c-2.025-4.72-3.2-10.42-3.208-17.31-.51.1-1.03.17-1.6.17-7.23 0-17.45-1.94-17.45-18.66 0-8.78 4.25-16.12 9.98-18.11-4.115-8.16-10.335-23.3-5.57-32.83 0 0 1.04-1.6-.5-1.6-.864 0-2.53.5-5.64 2.05 0 0 14.757-39.72 69.476-39.72m0-8c-30.89 0-50.09 11.98-60.75 22.03C49.07 70.2 44.77 81.53 44.593 82.01c-1.148 3.08-.29 6.546 2.153 8.74.546.49 1.146.893 1.78 1.21-.124 7.44 2.21 15.394 5.166 22.416-4.898 4.896-7.875 12.452-7.875 20.9 0 10.046 3.11 17.453 9.24 22.015 2.873 2.14 6.27 3.53 10.284 4.19.4 3.08 1.03 6.02 1.91 8.78l-22.03 37.03c-1.47 2.47-1.5 5.55-.08 8.05 1.43 2.5 4.08 4.05 6.96 4.05h151.8c2.99 0 5.72-1.66 7.1-4.31 1.38-2.64 1.17-5.84-.54-8.28-8.86-12.64-23.03-33.43-28.8-41.91.24-1.17.44-2.37.6-3.59 3.55-.72 6.59-2.04 9.21-3.99 6.13-4.56 9.24-11.97 9.24-22.01 0-8.25-2.95-15.82-7.77-20.76 7.16-18.3 7.16-22.74 7.16-24.47 0-4.93-1.41-12.51-5.36-19.02-4.66-7.67-11.96-12.42-20.87-13.71-3.15-6.44-11-11.55-23.86-15.54-9.23-2.87-17.92-4.2-18.28-4.25-.2-.03-.4-.05-.6-.07-3.21-.23-6.41-.35-9.51-.35z"/><path fill="#082031" d="M52.097 211.38l25.725-43.242 15.063 8.296 75.967-7.598 4.027-2.637s19.81 29.18 31.02 45.18H52.09z"/><path fill="#F4D1B0" d="M166.526 135.282c0 10.306 1.494 18.657 8.72 18.657 7.226 0 17.444-1.94 17.444-18.66 0-10.31-5.85-18.66-13.076-18.66-7.224 0-13.088 8.35-13.088 18.65z"/><path fill="#C69C6D" d="M168.694 135.207c.03-2.888.627-6.172 2.04-8.967.718-1.428 1.628-2.8 2.91-4 1.274-1.168 3.095-2.176 5.208-2.206.8.082.635.007 1.385.167.604.13 1.127.31 1.53.51.897.4 1.618.96 2.29 1.53 1.277 1.2 2.497 2.58 3.214 4 1.42 2.87 2.35 5.96 2.35 9.05v.36c0 2.03-1.9 3.68-3.93 3.71-2.01.03-3.83-1.6-3.85-3.61 0-.14-.07-.31-.06-.44.23-2.03.02-4.25-.65-6.12-.61-1.95-1.9-3.17-2.25-3.29-.21-.12-.82-.09-1.54.39-.71.5-1.44 1.31-2.04 2.25-1.24 1.98-1.98 4.19-2.25 6.85l-.02.11c-.13 1.19-1.19 2.06-2.38 1.93-1.11-.12-1.94-1.07-1.94-2.18z"/><path fill="#F4D1B0" d="M79.995 135.282c0 10.306-1.5 18.657-8.725 18.657-7.23 0-17.445-1.94-17.445-18.66 0-10.31 5.85-18.66 13.078-18.66 7.223 0 13.092 8.35 13.092 18.65z"/><path fill="#C69C6D" d="M77.82 135.207c-.028-2.888-.624-6.172-2.036-8.967-.72-1.428-1.623-2.8-2.908-4-1.27-1.168-3.1-2.176-5.21-2.206-.798.082-.634.007-1.386.167-.604.13-1.123.31-1.525.51-.9.4-1.62.96-2.29 1.53-1.278 1.2-2.143 2.58-2.858 4-1.418 2.87-1.988 5.96-1.988 9.05v.36c0 2.03 1.54 3.68 3.56 3.71 2.02.03 3.65-1.6 3.68-3.61 0-.14-.03-.31-.04-.44-.23-2.03-.06-4.25.6-6.12.62-1.95 1.87-3.17 2.23-3.29.21-.12.79-.09 1.52.39.7.5 1.44 1.31 2.04 2.25 1.24 1.98 1.97 4.19 2.25 6.85v.11c.13 1.19 1.2 2.06 2.38 1.93 1.12-.12 1.94-1.07 1.94-2.18z"/><path fill="#fdb" d="M174.735 153.707c0 36.66-35.223 39.818-50.934 39.818-17.88 0-50.93-3.158-50.93-39.818 0-36.658-3.79-83.72 50.94-83.72 55.27 0 50.94 47.062 50.94 83.72z"/><path fill="#333" d="M63.294 112.974l9.754 28.184 14.088-32.88m97.17 6.508l-9.276 26.372-14.09-32.88"/><path fill="#333" d="M99.212 153.296c-9.97 0-18.074-8.104-18.074-18.07 0-1.604 1.3-2.91 2.906-2.91 1.61 0 2.91 1.306 2.91 2.91 0 6.755 5.502 12.257 12.258 12.257s12.256-5.502 12.256-12.256c0-1.605 1.303-2.91 2.91-2.91s2.906 1.305 2.906 2.91c0 9.964-8.103 18.07-18.072 18.07zm52.02 0c-9.97 0-18.073-8.104-18.073-18.07 0-1.604 1.29-2.91 2.9-2.91 1.6 0 2.9 1.306 2.9 2.91 0 6.755 5.5 12.257 12.26 12.257 6.75 0 12.25-5.502 12.25-12.256 0-1.605 1.3-2.91 2.91-2.91s2.91 1.305 2.91 2.91c0 9.964-8.11 18.07-18.08 18.07zm-29.776 15.494c-.916 0-1.775-.59-2.07-1.52-.355-1.135.268-2.355 1.414-2.712 5.965-1.902 5.732-5.314 5.73-5.463l-.017-26.252c0-1.195 1.85-2.162 3.058-2.162 1.2 0 3.05.97 3.05 2.17v26.01s-.03 6.79-9.61 9.83c-.22.07-1.32.11-1.54.11zm.856 10.515c-13.2 0-21.488-5.863-22-6.24-.967-.702-1.184-2.048-.48-3.022.7-.962 2.046-1.18 3.024-.48.688.495 17.2 12.02 41.09-.175 1.064-.537 2.37-.127 2.918.947.545 1.063.125 2.373-.945 2.917-8.89 4.533-16.89 6.053-23.61 6.053zm38.876-92.693s-15.164 18.422-47.68 20.583l15.895-16.253s-35.22 23.48-53.29 23.48l-4.33.54-4.88 7.86S51.46 97.894 58.235 84.345c0 0 2.53-3.883-6.14.454 0 0 16.343-43.98 78.392-39.38 0 0 33.41 5.05 36.664 16.7 2.49 8.91-5.96 24.48-5.96 24.48zm-4.332-3.622s0 24.93 8.67 34.684l16.24 3.036s10.307-24.174 10.307-30.665c0-6.508-3.79-27.1-26.547-24.936-22.757 2.17-8.67 17.88-8.67 17.88zm-25.498 32.825c2.9-1.822 5.793-3.192 8.883-4.402 3.07-1.173 6.26-2.246 9.55-2.858 6.56-1.238 13.61.826 20.3.826h.04c2.06 0 3.23 2.96 2.6 5.03-.63 2.07-2.82 3.3-4.88 2.67-.12-.04-.23-.03-.34-.08-5.16-2.12-10.99-2.83-16.84-2.29-2.92.26-5.85.83-8.73 1.64-2.85.81-5.76 1.91-8.31 3.19l-.1.06c-1.06.54-2.37.11-2.91-.95-.51-1-.15-2.23.78-2.81zm-15.714 4.565c-2.56 0-5.467-2.796-8.31-3.608-2.882-.81-5.813-1.596-8.73-1.846-5.86-.557-11.683.077-16.853 2.2-1.99.825-4.28-.178-5.1-2.178-.82-2.004.13-4.46 2.13-5.28.12-.043.23-.287.34-.287h.04c6.69 0 13.74-2.06 20.3-.82 3.29.61 6.48 1.61 9.55 2.79 3.09 1.21 5.98 2.62 8.88 4.44 1.02.64 1.32 2.42.69 3.43-.6.96-1.81 1.17-2.8 1.17h-.1z"/><path fill="#D3BD8D" d="M114.73 130.6s-10.94-1.06-11.42 25.606c-.483 26.666-12.362 32.118-12.362 32.118s29.346 5.928 32.854 5.2c3.506-.717 22.455-.693 34.79-8.097 0 0-15.772-14.06-15.772-23.336 0-9.27-.07-33.26-14.818-33.51l-13.272 2.02z" opacity=".61"/><path fill="#fdb" d="M123.13 145.775l-5.78 46.81c-.394 3.192-3.298 5.46-6.49 5.062-3.003-.367-5.187-2.994-5.1-5.957l1.49-47.143c.134-4.4 3.813-7.86 8.218-7.72 4.404.14 7.86 3.824 7.72 8.223-.007.242-.03.49-.058.725zm1.648 11.885l-7.5 47.13c-.506 3.172-3.49 5.333-6.656 4.83-3.176-.51-5.334-3.488-4.83-6.663.012-.055.023-.146.037-.2l9.22-46.824c.52-2.68 3.12-4.426 5.8-3.897 2.62.52 4.34 3.016 3.92 5.625zm-15.045 8.11s-14.178 24.964-14.178 33.576c0 8.614 3.637 11.155 9.453 11.52 5.816.367 15.27-8.326 13.453-27.43.01 0 .37-17.312-8.72-17.666z"/><path fill="#fff" d="M109.62 142.333s3.694-3.093 4.604 0c.908 3.088.427 7.997.427 7.997l-5.03-.726v-7.27zm6 12.754s2.56-2.042 3.16 0c.6 2.04.223 5.292.223 5.292l-3.384-.48v-4.82z"/><path fill="#F4D1B0" d="M113.372 156.206s-1.275 17.85-4.365 24.076c0 0-4.357-.782-1.092-7.534 3.27-6.754 5.457-16.542 5.457-16.542z"/><path fill="#D3BD8D" d="M116.665 137.573s4.943 1.135 3.25 14.94c-1.69 13.806 1.998 22.457 1.998 22.457l1.455-33.926s-4.316-4.414-6.703-3.47z"/><path fill="#fdb" d="M137.31 144.547l1.488 47.143c.102 3.216-2.418 5.9-5.63 5.997-3.026.098-5.59-2.157-5.958-5.102l-5.785-46.81c-.54-4.37 2.563-8.35 6.936-8.888 4.38-.543 8.36 2.566 8.9 6.933.04.236.05.492.06.727zm-7.805 11.386l9.225 46.823c.62 3.146-1.432 6.206-4.584 6.828-3.154.617-6.21-1.434-6.828-4.584-.01-.065-.027-.148-.04-.21l-7.5-47.13c-.43-2.693 1.41-5.228 4.1-5.66 2.635-.414 5.115 1.34 5.627 3.933zm5.318 9.837S149 190.734 149 199.346c0 8.614-3.634 11.155-9.45 11.52-5.818.367-15.27-8.326-13.453-27.43 0 0-.364-17.312 8.726-17.666z"/><path fill="#fff" d="M137.62 142.333s-5.034-3.093-5.944 0c-.91 3.088.245 7.997.245 7.997l5.7-.726v-7.27zm-6 12.754s-3.9-2.042-4.505 0c-.594 2.04.45 5.292.45 5.292l4.055-.48v-4.82z"/><path fill="#F4D1B0" d="M131.185 156.206s1.275 17.85 4.363 24.076c0 0 4.357-.782 1.094-7.534-3.27-6.754-5.457-16.542-5.457-16.542z"/></svg>