<svg xmlns="http://www.w3.org/2000/svg" width="256" height="256" viewBox="0 0 256 256"><path fill="#333" d="M111.26 216.38c-1.752 0-4.693-.942-4.693-7.26 0-.715.06-1.78.217-2.777-.175-1.26-.35-2.836-.406-4.614-1.047-.2-2.104-.35-3.145-.35h-3.615c.52 1.46 1.068 2.86 1.642 4.01.633 1.27.55 2.77-.22 3.96-.738 1.15-2.004 1.83-3.357 1.83h-.164c-1.15-.04-28.02-1.35-34.1-19.58-1.06-3.17-1.52-8.35-1.72-12.65-3.01-2.99-5.71-6.26-8.05-9.74-3.36-4.95-6-11-7.85-17.96l-.03-.12c-1.48-6.33-2.06-12.69-1.72-18.88.21-5.29 1.03-10.91 2.51-17.13 1.63-6.31 3.07-10.87 4.71-14.85 1.67-4.59 3.63-8.71 5.36-12.35 1.12-2.55 2.4-4.87 3.53-6.91.57-1.04 1.12-2.03 1.62-3.01 1.27-2.47 2.51-4.5 3.61-6.29l1.05-1.73c-5.17-8.25-.07-16.18 1.96-19.34.42-.65.89-1.23 1.4-1.73 3.62-5.77 7.26-8.58 11.13-8.58.9 0 1.78.16 2.63.48.52.2 1.62.61 2.65 1.41 1.71-1.17 3.56-1.88 5.52-1.88.9 0 1.79.15 2.64.45 1.03.36 4.17 1.46 5.07 4.53.1.33.16.65.2.96.3.07.59.16.88.26.13.05.25.09.37.14.98-.39 1.98-.58 2.98-.58.9 0 1.79.16 2.64.48 3.46 1.3 5.94 4.6 6.46 8.62.55 4.26-1.13 8.5-4.55 11.73 3.34-.91 6.93-1.4 10.77-1.4 2.99 0 6.11.31 9.28.92h3.4c3.24-.65 6.43-.99 9.49-.99 2.35 0 4.68.2 6.97.6-2.86-3.11-4.2-6.98-3.69-10.87.52-4.01 2.99-7.31 6.46-8.61.84-.32 1.73-.48 2.63-.48 1 0 2 .2 2.99.59l.37-.13c.29-.1.59-.19.89-.25.04-.32.1-.63.2-.96.9-3.07 4.04-4.17 5.07-4.53.85-.29 1.73-.45 2.64-.45 1.96 0 3.81.72 5.51 1.89 1.04-.8 2.13-1.21 2.65-1.41.85-.31 1.74-.48 2.64-.48 3.87 0 7.52 2.81 11.13 8.58.52.51.99 1.09 1.41 1.74 1.65 2.57 5.23 8.13 3.9 14.54.8.87 1.48 1.83 2.05 2.89.06.09.11.18.15.27l3.05 6.05c1.12 2.09 2.28 4.57 3.43 7.39 1.57 3.48 2.8 6.6 3.86 9.8 1.19 3.09 2.1 6.42 3.05 9.95l.59 2.17c.02.08.04.15.05.23.88 4.19 1.85 9.1 2.27 14.42.43 4.98.36 10.41-.21 16.13-.01.07-.01.14-.02.2-.75 4.99-1.83 10.85-4.14 16.56-1.9 5.16-4.59 10.26-8.03 15.16l-.5.74c.31 11.07-.36 20.48-1.79 24.75-6.02 18.09-32.76 20.77-33.89 20.88-.13.01-.25.02-.37.02-1.31 0-2.55-.65-3.3-1.74-.82-1.2-.93-2.75-.28-4.05.73-1.45 1.44-3.31 2.12-5.57h-9.16c-.21 3.7-.88 6.45-.92 6.6-.02.07-.04.14-.06.2-.01.2-.03.39-.04.56-.01.15-.03.31-.03.47 0 .73-.13 1.36-.28 1.87.32.9.32 1.91-.05 2.82-.62 1.5-2.08 2.49-3.71 2.49h-35.8l.06-.12.02.01h.01zm54.713-172.1c4.473 0 8.892 7.36 10.61 10.582.215-.287.427-.593.63-.923-4.275-5.87-5.836-7.88-1.668-9.44.41-.16.82-.23 1.232-.23 3.01 0 5.99 3.82 8.02 7.16.393.32.78.75 1.143 1.31 2.08 3.25 5.05 8.28 2.67 13.66 1.26.88 2.34 2.05 3.1 3.5.03.05.08.15.11.2 0 0 1.13 2.21 3.08 6.08 1.03 1.9 2.15 4.29 3.32 7.13 1.25 2.77 2.57 5.95 3.78 9.57 1.37 3.52 2.39 7.59 3.55 11.82.92 4.35 1.82 8.96 2.21 13.9.43 4.92.33 10.12-.2 15.41-.79 5.26-1.86 10.64-3.91 15.71-1.87 5.12-4.52 9.96-7.56 14.3-.41.6-.83 1.26-1.26 1.84.41 11.72-.31 20.99-1.54 24.68-5.27 15.82-30.472 18.16-30.472 18.16 1.58-3.16 2.8-7.36 3.74-11.36H150.4c-.75 0-1.52.01-2.193.23.29 5.01-.81 9.4-.81 9.4l-.222.01c.15.71-.02 1.44-.02 2.19 0 .82-.53 1.6-.53 2.35 0 .41.506.83.492.83h-35.85c-.41 0-.69-1.98-.69-3.26 0-.81.1-1.96.27-2.69-.32-2.18-.61-4.94-.4-7.95-2.14-.41-4.55-1.1-7.19-1.1h-9.18c1.01 3 2.21 6.94 3.63 9.79 0 0-25.19-1.03-30.47-16.85-.79-2.37-1.36-7.02-1.57-13.15-3.15-2.98-6.1-6.41-8.66-10.22-3.41-5.03-5.73-10.86-7.3-16.76-1.39-5.94-1.93-12-1.62-17.77.23-5.78 1.19-11.27 2.41-16.43 1.32-5.1 2.76-9.98 4.55-14.34 1.62-4.47 3.52-8.45 5.26-12.12 1.65-3.75 3.59-6.85 5.09-9.78 1.51-2.92 3.03-5.29 4.24-7.29.64-1.05 1.21-1.97 1.69-2.77-5.8-6.57-2-13.07.5-16.97.37-.57.75-.99 1.15-1.32 2.04-3.35 5.02-7.17 8.03-7.17.41 0 .83.07 1.24.23 4.17 1.56 2.6 3.57-1.67 9.43.21.33.42.64.63.92 1.73-3.23 6.14-10.58 10.62-10.58.44 0 .88.07 1.32.22 5.45 1.91 1.74 4.49-5.25 13.96.21.02.42.05.64.07 2.14-3.56 5.77-8.5 9.44-8.5.45 0 .89.07 1.33.22.76.27 1.35.55 1.77.86.94-.67 1.93-1.08 2.91-1.08.41 0 .82.07 1.22.22 4.66 1.74 6.25 9.86-.99 14.97-.06 1.65-.44 2.96-.44 2.96-4.99 8.56-10.31 11.04-14.74 11.11-.59.93-1.38 2.17-2.36 3.69-1.15 1.81-2.63 3.99-4.03 6.59-1.39 2.6-3.27 5.45-4.77 8.71-1.6 3.23-3.37 6.75-4.82 10.53-1.66 3.74-2.91 7.84-4.1 11.97-1.08 4.15-1.92 8.57-2.18 12.85-.32 4.02-.04 8.22.67 12.01C72 111 85.92 69.4 119.32 69.41c2.82 0 5.79.29 8.89.92h4.21c3.18-.67 6.21-.99 9.09-.99 5.71 0 10.84 1.25 15.46 3.53-.97-1.21-1.93-3.11-2.88-4.74 0 0-.39-1.31-.45-2.96-7.228-5.11-5.64-13.23-.978-14.97.41-.15.82-.22 1.23-.22.978 0 1.968.41 2.92 1.08.42-.31 1-.59 1.76-.86.438-.156.88-.23 1.325-.23 3.67 0 7.302 4.94 9.436 8.5.22-.02.43-.044.648-.07-6.98-9.47-10.69-12.042-5.23-13.954.44-.16.88-.23 1.32-.23m2.97 35.01c-.82 0-1.69-.09-2.57-.28 11.19 10.313 18.36 27.087 22.71 44.604-.06-1.09-.14-2.17-.26-3.25-.38-3.81-1.21-7.5-2.02-11.01-1.09-3.48-1.94-6.78-3.22-9.78-1.07-3.03-2.29-5.75-3.44-8.15-1.06-2.42-2.09-4.5-3.06-6.18l-2.85-5.33-.27-.5c-.17-.31-.31-.63-.45-.96-1.34.49-2.88.83-4.56.83"/><path fill="#333" d="M166.06 36.22c-1.35 0-2.688.23-3.96.68-3.188 1.12-5.45 2.85-6.74 5.17-.48-.06-.97-.09-1.46-.09-1.39 0-2.75.25-4.06.74-4.84 1.812-8.3 6.35-9.01 11.84-.3 2.31-.11 4.6.53 6.78-3.15.01-6.42.35-9.73.99H129c-3.29-.61-6.53-.92-9.66-.92h-.01c-.95 0-1.89.03-2.82.09.67-2.23.88-4.57.57-6.93-.71-5.49-4.17-10.04-9.03-11.86-1.29-.48-2.65-.73-4.04-.73-.48 0-.97.03-1.45.09-1.297-2.31-3.555-4.05-6.74-5.16-1.28-.45-2.61-.68-3.964-.68-1.884 0-3.723.42-5.512 1.26-.4-.19-.81-.36-1.25-.52-1.3-.49-2.66-.73-4.05-.73-5.26 0-9.94 3.3-14.28 10.08-.59.63-1.13 1.32-1.612 2.07-1.8 2.8-3.75 6.23-4.504 10.36-.71 3.84-.25 7.56 1.31 11-1.058 1.72-2.34 3.83-3.62 6.32-.47.92-1.01 1.89-1.58 2.91-1.16 2.1-2.47 4.46-3.68 7.2-1.76 3.71-3.73 7.87-5.45 12.56-1.69 4.14-3.186 8.85-4.83 15.23l-.038.15c-1.533 6.45-2.39 12.31-2.62 17.895-.354 6.562.26 13.27 1.815 19.95.02.08.035.16.06.24 1.96 7.41 4.79 13.86 8.404 19.2 2.19 3.26 4.69 6.35 7.44 9.21.31 5.38.92 9.48 1.83 12.2 6.95 20.818 36.48 22.26 37.73 22.31.11.01.22.01.33.01 1.98 0 3.86-.72 5.3-2 1.56 6.82 7.04 7.22 8.28 7.22h35.85c3.25 0 6.18-1.97 7.41-4.98.58-1.42.72-2.937.46-4.39l.06-.36c.23.92.62 1.806 1.17 2.605 1.5 2.188 3.98 3.48 6.6 3.48.25 0 .5-.01.75-.03.3-.027 7.43-.72 15.28-3.607 11.47-4.23 19.09-11.14 22.04-19.99 1.52-4.57 2.26-13.73 2.02-24.83 3.49-5.05 6.25-10.31 8.22-15.64 2.44-6.07 3.57-12.2 4.36-17.4.02-.13.03-.26.05-.4.59-5.948.66-11.62.21-16.858-.44-5.54-1.44-10.59-2.35-14.89-.03-.16-.07-.32-.12-.48l-.59-2.16c-.98-3.6-1.9-7.01-3.15-10.26-1.1-3.27-2.36-6.47-3.95-10.02-1.2-2.9-2.4-5.47-3.57-7.65-1.93-3.83-3.04-6.02-3.04-6.02-.05-.1-.1-.2-.16-.3l-.03-.05c-.4-.75-.86-1.46-1.36-2.15.66-7.12-3.12-13-4.75-15.54-.49-.76-1.03-1.45-1.62-2.07-4.34-6.78-9.02-10.08-14.28-10.08-1.39 0-2.74.25-4.04.74-.44.17-.86.34-1.26.53-1.79-.83-3.63-1.26-5.51-1.26l.02-.07.01-.002-.01-.003z"/><path fill="#1A1A1A" d="M81.13 110.58l3.585 85.8h90.43l2.51-58.536-12.92-48.445-83.605 21.18z"/><path fill="#fdb" d="M111.448 209.422s-6.945-28.04 14.172-22.04h9.86c17.46-6 12.033 19.63 12.033 19.63"/><path fill="#fdb" d="M135.62 186.958c0 4.755-1.95 6.694-6 6.694-4.058 0-6-1.94-6-6.694v-17.224c0-4.758 1.942-8.613 6-8.613 4.05 0 6 3.86 6 8.62v17.23-.01z"/><path fill="#D3BD8D" d="M164.7 129.525c0 8.354 1.214 15.125 7.073 15.125 5.86 0 14.145-1.57 14.145-15.12 0-8.36-4.746-15.12-10.602-15.12-5.863 0-10.617 6.76-10.617 15.13v-.015z"/><path fill="#C69C6D" d="M166.455 129.47c.03-2.345.51-5.02 1.658-7.277.576-1.152 1.313-2.28 2.357-3.248 1.033-.947 2.508-1.76 4.223-1.785.646.068.51.007 1.13.135.483.103.91.25 1.237.413.72.315 1.313.77 1.85 1.237 1.05.968.125 2.096.71 3.248 1.144 2.32 0 4.824 0 7.333v.283c0 1.64.356 2.99-1.284 3.01-1.64.02-2.152-1.3-2.178-2.93 0-.13.42-.26.43-.37.18-1.66.253-3.46-.292-4.97-.496-1.59-1.414-2.58-1.7-2.68-.18-.1-.61-.08-1.193.31-.574.4 1.19 1.05.7 1.82-1.003 1.6.522 3.39.522 5.55v.09c0 .96-3.29 1.66-4.26 1.55-.91-.09-3.9-.87-3.9-1.75v.02l-.01.01z"/><path fill="#D3BD8D" d="M94.528 129.525c0 8.354-1.217 15.125-7.074 15.125-5.86 0-14.145-1.57-14.145-15.12 0-8.36 4.74-15.12 10.6-15.12 5.86 0 10.61 6.76 10.61 15.13v-.015z"/><path fill="#C69C6D" d="M92.768 129.47c-.027-2.345-.51-5.02-1.656-7.277-.58-1.152-1.314-2.28-2.357-3.248-1.03-.947-2.506-1.76-4.223-1.785-.646.068-.516.007-1.12.135-.49.103-.92.25-1.24.413-.728.315-1.315.77-1.854 1.237-1.043.968-1.124 2.096-1.71 3.248-1.138 2.32-.987 4.824-.987 7.333v.283c0 1.64.63 2.99 2.26 3.01 1.66.02 2.68-1.3 2.7-2.93 0-.13-.17-.26-.18-.37-.18-1.66-.12-3.46.42-4.97.5-1.59 1.49-2.58 1.77-2.68.18-.1.64-.08 1.23.31.58.4 1.15 1.05 1.64 1.82 1 1.6 1.6 3.39 1.83 5.55l.01.09c.11.96.96 1.66 1.92 1.55.91-.09 1.58-.87 1.58-1.75l-.03.02v.01z"/><path fill="#fdb" d="M171.36 144.458c0 29.733-28.565 32.3-41.312 32.3-14.505 0-41.3-2.566-41.3-32.3 0-29.724-3.086-67.888 41.3-67.888 44.827 0 41.31 38.164 41.31 67.888z"/><path fill="#333" d="M125.313 156.72c-.93 0-1.787-.595-2.086-1.52-.37-1.15.268-2.383 1.422-2.75 4.18-1.33 5.96-3.44 6.54-4.314l-1.6-23.08c-.08-1.207.83-2.25 2.03-2.336 1.18-.093 2.25.83 2.33 2.035l1.63 23.736c.02.35-.04.69-.19 1.02-.22.49-2.28 4.82-9.46 7.11-.22.07-.45.1-.67.1h.05z"/><path fill="#D4145A" d="M134.89 166.212c0 3.72-3.013 6.74-6.74 6.74-3.72 0-6.735-3.022-6.735-6.74 0-3.722 3.014-6.74 6.734-6.74s6.74 3.022 6.74 6.74z"/><path fill="#F5F5F5" d="M122.41 129.48c0 6.787-5.503 12.293-12.29 12.293-6.8 0-12.305-5.506-12.305-12.293 0-6.792 5.504-12.292 12.305-12.292 6.787.004 12.29 5.5 12.29 12.292z"/><path fill="#333" d="M118.76 129.188c0 4.715-3.81 8.53-8.535 8.53-4.71 0-8.54-3.813-8.54-8.53 0-4.712 3.83-8.53 8.54-8.53 4.725-.003 8.535 3.814 8.535 8.53z"/><path fill="#F5F5F5" d="M164.594 129.48c0 6.787-5.506 12.293-12.293 12.293-6.77 0-12.3-5.506-12.3-12.293 0-6.792 5.51-12.292 12.31-12.292 6.82 0 12.32 5.496 12.32 12.292h-.03z"/><path d="M152.41 120.655c-4.713 0-8.537 3.82-8.537 8.532 0 4.718 3.824 8.53 8.537 8.53 4.72 0 8.53-3.815 8.53-8.53s-3.81-8.532-8.53-8.532zM132.352 69.38h-4.208c-62.097-11-66.202 105.13-60.932 120.94 5.28 15.822 30.47 16.35 30.47 16.35-9.85-19.71-8.938-70.486-8.398-86.158 20.793-7.536 38.718-32.377 41.346-36.145 1.507 2.685 16.985 29.587 37.144 38.26 1.625 21.23 3.96 67.766-4.96 85.607 0 0 25.198-2.092 30.47-17.914 5.28-15.81 1.168-131.94-60.932-120.94zm8.906 86.402c-.91 0-1.64.735-1.64 1.643 0 3.28-5.085 6.05-11.1 6.05-6.018 0-11.105-2.77-11.105-6.053 0-.904-.732-1.64-1.642-1.64-.9 0-1.64.735-1.64 1.642 0 5.233 6.33 9.33 14.39 9.33h.01c8.06 0 14.38-4.097 14.38-9.332 0-.904-.73-1.64-1.64-1.64z" fill="#333"/><path fill="#fdb" d="M121.424 199.514s-.736-.063-2.113-.188c-1.33-.135-3.21-.387-5.6-.76-4.75-.79-11.49-2.123-19.38-4.852-7.86-2.72-17.01-6.87-25.66-13.87-4.28-3.55-8.31-7.89-11.68-12.896-3.4-5.03-5.73-10.86-7.3-16.76-1.38-5.95-1.93-12-1.61-17.762.24-5.79 1.19-11.27 2.42-16.43 1.32-5.1 2.76-9.99 4.55-14.34 1.62-4.47 3.52-8.44 5.26-12.12 1.65-3.75 3.59-6.85 5.09-9.78 1.51-2.93 3.04-5.3 4.24-7.3 2.44-3.98 3.82-6.25 3.82-6.25 2.91-4.76 9.11-6.26 13.86-3.36s6.26 9.1 3.35 13.85c-.02.04-.05.09-.08.14l-.28.43-3.63 5.68c-1.15 1.81-2.63 3.978-4.03 6.58-1.4 2.59-3.27 5.43-4.78 8.688-1.6 3.22-3.37 6.71-4.82 10.49-1.66 3.74-2.91 7.77-4.1 11.91-1.08 4.15-1.92 8.447-2.18 12.73-.34 4.298 0 8.52.82 12.56 1.01 3.97 2.37 7.818 4.58 11.21 2.19 3.38 4.86 6.448 7.91 9.108 6.2 5.26 13.49 8.89 20.05 11.29 6.57 2.43 12.42 3.73 16.46 4.5 2.04.36 3.64.61 4.69.74l1.55.17.38.04c4.54.53 7.82 4.64 7.27 9.18-.52 4.47-4.52 7.69-8.95 7.28l-.08.086h-.01l-.01.006z"/><path fill="#333" d="M141.887 106.996c-.154.023 1.914-.475 4.375-.56 1.262.033 2.72-.05 4.238.174 1.533.105 3.125.365 4.69.743 1.58.26 3.095.76 4.5 1.213 1.43.402 2.718.878 3.782 1.385l3.57 1.53s-1.53-.26-3.814-.67c-1.12-.24-2.453-.39-3.88-.45-1.432-.11-2.937-.25-4.44-.14-1.5 0-2.97.11-4.33.33-1.37.12-2.59.49-3.63.7-2.1.61-2.97 1.11-3.12 1.16-1.49.54-3.13-.24-3.66-1.73-.527-1.49.25-3.13 1.74-3.66l-.02-.02zm-24.08 5.02c-.107-.022-1.406-.52-3.867-1.045-2.414-.46-5.754-.96-9.14-.93-1.694-.05-3.41-.02-4.995.16-1.598.15-3.115.21-4.37.51l-4.272.8 4.04-1.65c1.202-.56 2.685-.95 4.276-1.42 1.57-.53 3.31-.92 5.06-1.24 3.5-.74 7.12-.96 9.87-1.01 2.71 0 4.78.3 4.68.27 1.54.36 2.5 1.9 2.15 3.45-.36 1.55-1.9 2.51-3.45 2.16l.01-.04v-.01z"/><path fill="#fdb" d="M136.664 183.19s.465-.116 1.346-.358c.914-.25 2.316-.696 4.082-1.298 3.533-1.24 8.62-3.192 14.28-6.25 5.66-3.03 11.9-7.16 17.407-12.54 2.67-2.72 5.34-5.635 7.42-8.93 2.14-3.267 3.98-6.754 5.22-10.46 1.41-3.647 2.02-7.546 2.54-11.388.27-3.91.27-7.79-.16-11.6-.39-3.82-1.21-7.51-2.02-11.01-1.09-3.48-1.95-6.79-3.23-9.79-1.07-3.03-2.3-5.75-3.45-8.15-1.06-2.43-2.09-4.5-3.06-6.19-1.82-3.4-2.85-5.33-2.85-5.33l-.28-.5c-2.63-4.91-.78-11.01 4.13-13.65 4.9-2.63 11.01-.78 13.64 4.13.02.05.07.15.1.2 0 0 1.12 2.21 3.07 6.08 1.02 1.9 2.15 4.29 3.32 7.13 1.25 2.77 2.56 5.95 3.77 9.57 1.37 3.52 2.38 7.59 3.55 11.82.91 4.35 1.81 8.97 2.2 13.9.43 4.92.32 10.12-.2 15.39-.79 5.25-1.86 10.63-3.92 15.69-1.87 5.118-4.52 9.93-7.56 14.26-2.98 4.41-6.55 8.17-10.1 11.58-7.24 6.72-14.94 11.48-21.72 14.9-6.8 3.438-12.73 5.56-16.94 6.938-2.13.66-3.81 1.14-5.01 1.43-1.25.312-1.91.47-1.91.47-4.45 1.08-8.92-1.64-10.01-6.068-1.07-4.37 1.55-8.77 5.85-9.96l.39-.12.06.062.01.04h.01z"/><path fill="#DDB99B" d="M129.207 198.704l-2.242 7.45 4.668.27-2.426-7.72z"/><path fill="#39B54A" d="M109.37 203.38h-.064.064zm36.208 0h.064-.064zm-27.843 2.634c-.094 0-.188-.008-.287-.02-1.195-.155-2.043-1.25-1.89-2.455l2.69-20.82c.16-1.2 1.21-2.06 2.454-1.89 1.195.14 2.04 1.25 1.89 2.45L119.9 204.1c-.144 1.102-1.085 1.91-2.165 1.91v.004zm22.954 0c-1.07 0-1.98-.75-2.15-1.813l-3.5-20c-.21-1.18.59-2.32 1.77-2.53 1.17-.22 2.32.59 2.53 1.78l3.5 20.01c.21 1.19-.58 2.32-1.78 2.53-.12.02-.25.04-.38.04v-.01h.01z"/><path fill="#F4D1B0" d="M70.364 56.347s6.098-13.995 11.844-11.843c5.742 2.156.598 5.15-7.535 17.942m5.737-6.1s6.54-13.994 12.69-11.842c6.156 2.156.646 5.15-8.078 17.942m1.538-.36s6.54-13.994 12.696-11.834c6.148 2.15.64 5.142-8.084 17.935"/><path fill="#fdb" d="M105.17 50.252c-3.828-1.44-7.814 4.302-10.046 8.29-7.037.18-11.898.607-15.07-5.423 0 0-5.024-5.39-8.25-.36-3.23 5.02-8.616 14.35 7.17 22.61 0 0 13.28 12.55 24.76-7.18 0 0 .384-1.31.448-2.96 7.234-5.12 5.646-13.24.988-14.98z"/><path fill="#fff" d="M101.846 53.475s4.936.626 5.656 4.843c0 0 2.33-3.403-1.256-6.096-3.585-2.69-4.4 1.253-4.4 1.253z"/><path fill="#F4D1B0" d="M187.385 56.347s-6.098-13.995-11.84-11.843c-5.748 2.156-.605 5.15 7.533 17.942m-5.742-6.1s-6.536-13.993-12.686-11.84c-6.156 2.155-.646 5.15 8.076 17.94m-1.54-.36s-6.535-13.993-12.688-11.833c-6.15 2.15-.64 5.142 8.08 17.935"/><path fill="#fdb" d="M185.947 52.758c-3.23-5.024-8.25.36-8.25.36h-.012c-3.172 6.03-8.03 5.604-15.063 5.423-2.23-3.98-6.217-9.73-10.043-8.29-4.66 1.75-6.25 9.86.97 14.97.06 1.66.45 2.97.45 2.97 11.49 19.74 24.76 7.18 24.76 7.18 15.78-8.25 10.4-17.58 7.17-22.61z"/><path fill="#fff" d="M155.9 53.475s-4.938.626-5.65 4.843c0 0-2.338-3.403 1.252-6.096 3.59-2.69 4.398 1.253 4.398 1.253z"/><path fill="#39B54A" d="M147.11 211.38c.015 0 .51.58.51.173v.004c0-.756.028-1.537.028-2.354 0-5.68-4.52-10.287-9.938-10.287-3.74 0-7.03 2.23-8.67 5.46-1.65-3.23-4.89-5.46-8.64-5.46-5.42 0-9.82 3.9-9.82 9.582 0 1.28.29 2.885.7 2.885h35.85v-.003h-.02z"/></svg>