<svg xmlns="http://www.w3.org/2000/svg" width="256" height="256" viewBox="0 0 256 256"><path fill="#0071BC" d="M129.06 222.246c-8.54 0-17.03-.915-25.24-2.72-22.568-4.43-43.138-15.26-57.83-30.48-15.07-15.61-23.37-35.29-23.37-55.416 0-1.796.07-3.61.212-5.545l.274-3.705H34.13c2.112-7.7 5.573-15.03 10.326-21.875-2.077-1.342-4.01-2.906-5.782-4.677-12.87-12.874-14.403-55.182-14.536-59.963l-.117-4.226 4.23.11c4.78.13 47.1 1.66 59.97 14.53 4.96 4.95 8.28 11.21 9.61 18 10.04-2.8 20.53-4.21 31.25-4.21 10.14 0 20.08 1.27 29.63 3.78 1.39-6.63 4.68-12.74 9.51-17.58 12.87-12.87 55.18-14.41 59.97-14.54l4.23-.12-.11 4.22c-.13 4.78-1.66 47.09-14.53 59.96-1.43 1.44-2.99 2.74-4.64 3.9 5.04 7.07 8.68 14.66 10.88 22.65h9.17l.28 3.7c.15 1.93.21 3.75.21 5.55 0 32.73-21.46 62.59-56.01 77.96-14.7 6.97-31.48 10.65-48.55 10.65z"/><path fill="#333" d="M228.27 37.754S227.02 82.88 214.907 95c-2.315 2.316-4.908 4.186-7.67 5.616 6.633 8.278 11.342 17.672 13.607 27.764h8.573c.13 1.737.202 3.486.202 5.25 0 32.177-21.74 60.136-53.68 74.326-13.78 6.54-29.79 10.29-46.89 10.29-8.44 0-16.61-.92-24.38-2.628-44.76-8.783-78.06-42.155-78.06-81.988 0-1.764.07-3.513.2-5.25h10.44c2.21-9.85 6.74-19.035 13.12-27.166-3.21-1.49-6.23-3.564-8.88-6.214-12.11-12.12-13.36-57.246-13.36-57.246s45.13 1.248 57.24 13.366c5.66 5.658 8.67 12.963 9.05 20.376 10.71-3.49 22.39-5.41 34.63-5.41 11.6 0 22.71 1.73 32.95 4.885.48-7.23 3.48-14.32 9.01-19.85 12.12-12.11 57.24-13.36 57.24-13.36m8.23-8.23l-8.45.24c-.48.02-11.89.35-24.99 2.22-19 2.71-31.33 7.13-37.7 13.49-4.4 4.4-7.65 9.75-9.54 15.59-8.69-1.97-17.66-2.96-26.78-2.96-9.68 0-19.19 1.12-28.36 3.33-1.86-5.97-5.15-11.45-9.66-15.95-6.36-6.36-18.69-10.77-37.69-13.48-13.1-1.87-24.51-2.2-24.99-2.21l-8.45-.23.23 8.45c.01.48.34 11.89 2.21 24.99 2.71 19 7.12 31.33 13.49 37.7 1.01 1.01 2.06 1.96 3.16 2.84-3.36 5.38-5.99 11.02-7.87 16.88h-11.7l-.55 7.41c-.15 2.04-.23 3.94-.23 5.84 0 21.17 8.7 41.84 24.49 58.2 15.24 15.79 36.52 27.02 59.94 31.63 8.46 1.86 17.21 2.8 26.01 2.8 17.63 0 35-3.81 50.22-11.02 35.98-16.02 58.33-47.28 58.33-81.6 0-1.9-.07-3.81-.23-5.84l-.55-7.4h-9.9c-1.99-6.2-4.81-12.15-8.45-17.8.71-.61 1.4-1.25 2.06-1.92 6.36-6.37 10.77-18.7 13.49-37.7 1.87-13.09 2.2-24.5 2.21-24.98l.23-8.45z"/><path fill="#0071BC" d="M26.82 128.38c-.127 1.738-.2 3.487-.2 5.25 0 46.53 45.442 84.25 101.5 84.25s101.5-37.72 101.5-84.25c0-1.763-.074-3.512-.203-5.25H26.82zm58.562-77.26C97.5 63.23 97.5 82.88 85.382 95c-12.116 12.116-31.767 12.116-43.88 0-12.115-12.12-13.365-57.246-13.365-57.246s45.13 1.248 57.245 13.367z"/><path fill="#29ABE2" d="M84.496 64.727c8.116 8.117 8.116 21.278 0 29.387-8.113 8.118-21.27 8.118-29.39 0-8.114-8.11-8.944-38.333-8.944-38.333s30.22.83 38.334 8.95z"/><path fill="#0071BC" d="M171.025 51.12c-12.117 12.11-12.117 31.762 0 43.88 12.12 12.117 31.766 12.117 43.88 0 12.116-12.118 13.366-57.245 13.366-57.245s-45.12 1.247-57.24 13.365z"/><path fill="#29ABE2" d="M171.912 64.727c-8.117 8.117-8.117 21.278 0 29.387 8.113 8.118 21.268 8.118 29.387 0 8.11-8.11 8.94-38.333 8.94-38.333s-30.22.83-38.34 8.95z"/><path fill="#0071BC" d="M222.375 142.164c0 42.018-41.777 76.082-93.316 76.082-51.56 0-93.34-34.064-93.34-76.082 0-42.018 41.78-76.08 93.34-76.08 51.53 0 93.31 34.062 93.31 76.08z"/><path fill="#B3B3B3" d="M203.643 140.006c0 34.275-33.87 62.07-75.646 62.07-41.77 0-75.64-27.795-75.64-62.07 0-34.29 33.87-62.09 75.64-62.09 41.774 0 75.646 27.8 75.646 62.09z"/><path fill="#999898" d="M127.997 204.986c-43.312 0-78.55-29.152-78.55-64.98 0-35.843 35.238-65 78.55-65 43.315 0 78.556 29.156 78.556 65 0 35.828-35.24 64.98-78.556 64.98zm0-124.16c-40.104 0-72.73 26.548-72.73 59.18 0 32.623 32.626 59.164 72.73 59.164 40.108 0 72.737-26.54 72.737-59.164 0-32.632-32.63-59.18-72.737-59.18z"/><path fill="#333" d="M128.12 167.304c-3.216 0-5.5-2.602-5.5-5.815v-34.91c0-3.22 2.284-5.82 5.5-5.82s5.5 2.6 5.5 5.81v34.9c0 3.21-2.284 5.81-5.5 5.81z"/><path fill="#2974A7" d="M139.52 127.35c0 3.863-5.158 6.998-11.52 6.998-6.355 0-11.52-3.135-11.52-7 0-3.856 5.164-6.99 11.52-6.99 6.36-.002 11.52 3.133 11.52 6.99z"/><path fill="#C1272D" d="M117.298 150.062c-.07-.07.286.307.233.285.01.024.01.058.02.098l.35.39c.54.608 1.5 1.558 2.76 2.55.63.52 1.33 1.028 2.11 1.523.75.57 1.61.93 2.47 1.467.89.328 1.79.923 2.74 1.156l1.44.51 1.48.33c1 .32 2 .28 3.02.42 1.02.15 2.03-.06 3.05-.02 1.01-.03 1.99-.34 2.95-.45.97-.07 1.86-.55 2.72-.77.85-.29 1.66-.44 2.34-.84.7-.33 1.3-.62 1.81-.86 1.02-.47 1.6-.74 1.6-.74l1.53-.7c5.16-2.39 11.28-.15 13.67 5.01 2.08 4.48.66 9.68-3.12 12.54 0 0-.79.59-2.17 1.63-.69.52-1.55 1.15-2.52 1.87-.93.77-2.22 1.41-3.55 2.19-1.38.72-2.74 1.69-4.49 2.32-1.71.67-3.46 1.5-5.43 2.05-1.98.48-4.02 1.17-6.2 1.42-2.16.27-4.4.63-6.64.55l-3.36-.03c-1.11-.11-2.21-.23-3.3-.35-2.22-.18-4.25-.78-6.31-1.2-1.95-.6-3.92-1.12-5.64-1.84-1.76-.67-3.38-1.39-4.84-2.13-2.94-1.45-5.26-2.91-6.93-4.09-.42-.3-.79-.57-1.12-.8-.41-.33-.75-.61-1.03-.83l-.63-.5c-6.1-5.82-6.34-15.48-.52-21.58 5.81-6.09 15.47-6.33 21.58-.51z"/><path fill="#fff" d="M190.073 122.23s-12.6 25.686-2.42 29.564c10.18 3.882 15.024-10.158 2.42-29.564z"/><path fill="#333" d="M100.304 124.567c-.21.11-.423.215-.637.32-7.88 3.823-17.15 3.186-27.546-1.886-2.16-1.05-3.06-3.66-2-5.83s3.67-3.05 5.84-2c7.85 3.83 14.54 4.46 19.88 1.9 9.64-4.53 12.48-17.75 12.51-17.88.53-2.35 2.86-3.83 5.2-3.32 2.35.52 3.84 2.84 3.33 5.19-.14.69-3.8 16.88-16.55 23.53zm54.68-.344c-.22-.098-.436-.2-.65-.302-7.893-3.79-13.154-11.45-15.645-22.75-.52-2.35.96-4.68 3.32-5.19 2.35-.52 4.67.98 5.2 3.33 1.88 8.53 5.53 14.16 10.87 16.75 9.5 4.72 21.66-1.25 21.78-1.31 2.17-1.05 4.77-.14 5.83 2.01 1.05 2.16.16 4.77-2 5.83-.64.31-15.59 7.51-28.72 1.66z"/></svg>