<?xml version="1.0" encoding="utf-8"?>
<!-- Generator: Adobe Illustrator 16.0.0, SVG Export Plug-In . SVG Version: 6.00 Build 0)  -->
<!DOCTYPE svg PUBLIC "-//W3C//DTD SVG 1.1//EN" "http://www.w3.org/Graphics/SVG/1.1/DTD/svg11.dtd">
<svg version="1.1" id="Layer_1" xmlns="http://www.w3.org/2000/svg" xmlns:xlink="http://www.w3.org/1999/xlink" x="0px" y="0px"
	 width="256px" height="256px" viewBox="0 0 256 256" enable-background="new 0 0 256 256" xml:space="preserve">
<path fill="#A67C52" d="M128.45,212.48c-25.415,0-49.518-10.268-65.438-27.67c-1.672,1.64-3.73,3.33-5.986,4.467
	c-2.63,1.328-7.686,2.748-13.98,2.748c-6.496,0-16.307-1.549-26.164-8.926c-0.478-0.356-0.87-0.815-1.146-1.345
	c-1.36-2.576-3.538-5.321-4.61-5.84c-0.105,0.01-0.212,0.015-0.317,0.015c-1.44,0-2.78-0.771-3.5-2.051
	c-0.83-1.48-0.64-3.311,0.47-4.58l0.56-0.65c-1.14-0.51-2-1.529-2.29-2.779c-0.36-1.57,0.26-3.2,1.57-4.13
	c0.23-0.171,1.52-1.06,3.39-1.82c-1.47-1.74-3.55-4.3-1.04-6.899c0.88-0.94,2.35-2.03,4.6-2.53c0.1-0.4,0.19-0.82,0.29-1.261
	l-1.18-2.069c-0.8-1.39-0.68-3.12,0.28-4.39c0.57-0.761,1.38-1.28,2.27-1.49c0.21-1.771,0.32-3.43,0.35-4.971
	c0.07-2.18-0.03-4.16-0.3-5.76c-0.02-0.119-0.03-0.23-0.04-0.34c-0.03-0.32-0.12-0.66-0.23-1.09c-0.09-0.34-0.18-0.68-0.26-1.02
	c-0.01-0.04-0.02-0.09-0.02-0.13c-0.04-0.11-0.09-0.21-0.14-0.3c-0.12-0.25-0.26-0.57-0.4-0.96c-0.14-0.2-0.3-0.42-0.45-0.7
	l-0.02-0.01c-0.6-0.6-0.95-1.09-1.07-1.27l-1.49-2.26c-3.49-5.27-2.03-12.4,3.24-15.89l0.06-0.04c-2-7.05,1.98-14.49,9.01-16.71
	c1.33-0.42,2.71-0.63,4.1-0.63c2.31,0,4.55,0.58,6.53,1.67c0.88-0.52,1.82-0.95,2.79-1.26c1.36-0.44,2.76-0.66,4.17-0.66
	c4.92,0,9.35,2.61,11.76,6.73c1.47,0.21,2.91,0.65,4.24,1.32c9.58-12.91,23.23-22.72,39.27-28.33c-0.29-0.93-0.41-2.09-0.15-3.49
	c0.44-2.42,1.57-4.35,3.24-5.66c-0.58-1.87-0.5-3.78-0.07-5.21c0.18-0.59,0.49-1.13,0.91-1.58c3.14-3.37,7.48-5.07,12.91-5.07
	c3.27,0,6.59,0.64,9.54,1.49c0.06-0.43,0.17-0.85,0.32-1.28c1.07-2.94,4.02-4.2,6.22-4.39c0.11-0.01,0.22-0.01,0.33-0.01
	c0.26,0,0.521,0.03,0.78,0.08c12.649,2.53,18.229,14.37,19.93,22.68c19.18,4.81,36.109,15.74,47.199,30.45
	c1.131-0.5,2.33-0.84,3.561-1.01c2.4-4.12,6.83-6.73,11.75-6.73c0.87,0,1.75,0.08,2.62,0.25c1.55,0.3,3.021,0.87,4.351,1.66
	c1.979-1.09,4.219-1.67,6.52-1.67c0.859,0,1.72,0.08,2.57,0.24c7.39,1.43,12.24,8.59,10.81,15.97c-0.08,0.41-0.17,0.78-0.271,1.14
	c0.461,0.3,0.91,0.64,1.33,1.01c4.25,3.77,5.101,10.18,1.961,14.91l-1.49,2.26c-0.12,0.17-0.471,0.67-1.07,1.26
	c-0.17,0.3-0.33,0.54-0.46,0.71c-0.14,0.39-0.28,0.71-0.399,0.96c-0.051,0.1-0.101,0.2-0.141,0.32c-0.09,0.45-0.18,0.79-0.279,1.141
	c-0.121,0.43-0.211,0.76-0.23,1.069c-0.01,0.11-0.02,0.22-0.04,0.34c-0.271,1.62-0.38,3.601-0.31,5.71
	c0.029,1.57,0.149,3.25,0.359,5.021c0.891,0.21,1.7,0.72,2.27,1.479c0.961,1.271,1.07,3,0.281,4.391l-1.181,2.06
	c0.101,0.44,0.19,0.86,0.29,1.25c2.25,0.511,3.73,1.61,4.63,2.57c2.5,2.53,0.33,5.21-1.069,6.86c1.869,0.76,3.159,1.649,3.399,1.819
	c1.31,0.931,1.931,2.56,1.569,4.13c-0.279,1.25-1.149,2.27-2.289,2.78l0.56,0.649c1.11,1.271,1.3,3.101,0.479,4.57
	c-0.719,1.28-2.06,2.051-3.489,2.051c-0.11,0-0.21,0-0.32-0.011c-1.069,0.521-3.25,3.261-4.61,5.841
	c-0.279,0.52-0.67,0.979-1.14,1.34c-9.86,7.369-19.67,8.92-26.159,8.92c-6.301,0-11.351-1.42-13.98-2.75
	c-2.03-1.021-3.9-2.49-5.51-4.01c-15.92,17.109-39.881,27.199-65.021,27.199L128.45,212.48z"/>
<path fill="#333333" d="M130.646,47.52c14.838,2.97,17.054,20.85,17.185,22.038c20.84,4.55,38.45,16.252,49.271,31.984
	c0.439-0.075,0.89-0.136,1.34-0.188c1.6-1.128,3.52-1.77,5.55-1.77c0.25,0,0.5,0.01,0.75,0.03c1.3-3.97,5.021-6.633,9.14-6.633
	c0.61,0,1.23,0.06,1.86,0.18c1.989,0.39,3.71,1.37,5.03,2.72c1.76-1.66,4.109-2.65,6.619-2.65c0.601,0,1.211,0.06,1.82,0.18
	c5.23,1.01,8.65,6.06,7.641,11.29c-0.07,0.36-0.16,0.72-0.271,1.07l-0.38,1.21l-0.59,1.89c1.289,0.24,2.529,0.81,3.59,1.74
	c2.82,2.5,3.31,6.66,1.279,9.71l-1.489,2.27c0,0-0.16,0.26-0.53,0.62c-0.189,0.18-0.45,0.37-0.63,0.8
	c-0.181,0.43-0.57,0.68-0.75,1.33c-0.181,0.64-0.57,1.14-0.72,1.99c-0.17,0.82-0.48,1.601-0.561,2.62
	c-0.32,1.91-0.43,4.17-0.359,6.5c0.06,3.23,0.479,6.57,0.99,9.52c1.459-0.5,2.439-0.74,2.439-0.74l-1.93,3.4
	c0.07,0.34,0.14,0.689,0.209,1.01c0.391,1.811,0.781,3.311,1.061,4.34l0.08,0.291c0.15,0,0.3-0.011,0.46-0.011
	c1.64,0,3.29,0.38,4.44,1.601c0.119,0.119-6.641,7.75-6.53,7.75h0.01c0.99-0.541,2.04-0.75,3.06-0.75
	c3.32,0,6.381,2.189,6.381,2.189c-3.44,0.62-4.82,2.35-4.82,2.35l3.99,4.591c-0.141-0.021-0.29-0.03-0.43-0.03
	c-3.84,0-8.031,8.01-8.031,8.01c-8.409,6.29-16.979,8.12-23.76,8.12c-5.709,0-10.149-1.29-12.18-2.319
	c-3.16-1.59-6.02-4.721-7.41-6.381c-14.57,17.66-38.209,29.16-64.92,29.16c-26.99,0-50.84-11.74-65.37-29.72
	c-1.11,1.399-4.3,5.149-7.86,6.95c-2.02,1.02-6.47,2.32-12.18,2.32c-6.79,0-15.36-1.83-23.77-8.131c0,0-4.2-8-8.04-8
	c-0.15,0-0.29,0.01-0.44,0.03l3.99-4.58c0,0-1.38-1.729-4.82-2.351c0,0,3.05-2.189,6.37-2.189c1.02,0,2.07,0.21,3.06,0.75
	c0.11,0-6.66-7.63-6.54-7.75c1.15-1.22,2.81-1.6,4.44-1.6c0.15,0,0.3,0.01,0.46,0.01l0.08-0.28c0.27-1.03,0.67-2.53,1.06-4.34
	c0.07-0.319,0.14-0.66,0.21-1l-1.94-3.39c0,0,0.98,0.24,2.44,0.74c0.51-2.951,0.93-6.291,0.99-9.521c0.08-2.32-0.04-4.58-0.35-6.49
	c-0.08-1.02-0.38-1.8-0.56-2.62c-0.15-0.85-0.54-1.36-0.73-1.99c-0.18-0.65-0.57-0.9-0.75-1.32c-0.19-0.43-0.45-0.62-0.64-0.79
	c-0.37-0.36-0.53-0.61-0.53-0.61l-1.5-2.26c-2.27-3.44-1.33-8.07,2.11-10.34c0.86-0.57,1.8-0.93,2.76-1.1l-0.59-1.88l-0.38-1.2
	c-1.61-5.08,1.21-10.48,6.28-12.08c0.96-0.31,1.94-0.45,2.9-0.45c2.48,0,4.85,0.97,6.62,2.64c1.06-1.08,2.39-1.93,3.93-2.43
	c0.98-0.31,1.97-0.46,2.94-0.46c4.05,0,7.82,2.58,9.15,6.63c0.25-0.02,0.49-0.03,0.74-0.03c2.1,0,4.13,0.69,5.79,1.94
	c0.61,0.1,1.2,0.23,1.78,0.37c10.57-15.59,27.78-27.28,48.2-32.05c-4.04-0.23-7.22-0.55-6.61-3.91c0.65-3.54,3.31-4.38,5.7-4.38
	c0.26,0,0.52,0.01,0.77,0.03c-4.69-1.75-3.39-6.09-3.39-6.09c2.63-2.82,6.24-3.8,9.98-3.8c8.48,0,17.65,5.03,17.65,5.03
	c-8.6-8.6-1.23-9.21-1.23-9.21 M130.73,39.651c-0.219,0-0.439,0.01-0.66,0.03c-2.829,0.23-6.489,1.68-8.609,4.93
	c-2.29-0.47-4.71-0.77-7.14-0.77c-8.19,0-13.13,3.45-15.83,6.35c-0.84,0.9-1.46,1.98-1.81,3.16c-0.47,1.58-0.63,3.32-0.43,5.06
	c-1.42,1.7-2.4,3.82-2.85,6.24c-0.09,0.51-0.15,1.01-0.18,1.51c-14.54,5.6-27.05,14.61-36.36,26.2l-0.47-0.12
	c-3.26-4.41-8.46-7.13-14.17-7.13c-1.82,0-3.63,0.29-5.38,0.85c-0.56,0.18-1.12,0.39-1.66,0.63c-2.03-0.8-4.22-1.22-6.46-1.22
	c-1.79,0-3.58,0.27-5.3,0.82c-8.21,2.59-13.2,10.67-12.2,18.92c-5.33,5.07-6.44,13.4-2.25,19.74l1.48,2.23
	c0.23,0.35,0.63,0.9,1.22,1.53l0.07,0.109c0.1,0.25,0.2,0.471,0.27,0.641c0.08,0.359,0.17,0.67,0.24,0.93
	c0.04,0.15,0.09,0.35,0.11,0.439c0.02,0.2,0.05,0.4,0.08,0.601c0.22,1.33,0.31,3.08,0.25,4.92v0.11
	c-0.01,0.789-0.05,1.609-0.12,2.459c-0.64,0.461-1.21,1.021-1.7,1.671c-1.69,2.25-2.06,5.2-1.04,7.78
	c-1.13,0.67-2.02,1.439-2.69,2.159c-1.44,1.53-2.99,4.62-1.71,8.15c-0.01,0.01-0.02,0.021-0.04,0.021
	c-2.61,1.869-3.85,5.119-3.14,8.26c0.21,0.93,0.58,1.789,1.08,2.569c-0.73,2.11-0.55,4.48,0.58,6.511c1.22,2.189,3.37,3.629,5.76,4
	c0.78,0.85,1.9,2.439,2.62,3.789c0.56,1.041,1.34,1.971,2.28,2.67c10.74,8.041,21.46,9.73,28.57,9.73c5.94,0,11.85-1.189,15.79-3.18
	c1.4-0.7,2.72-1.58,3.94-2.521c16.63,16.511,40.55,26.15,65.689,26.15c14.021,0,27.971-3,40.351-8.681
	c9.351-4.299,17.851-10.119,24.94-17.08c1.08,0.801,2.229,1.521,3.43,2.131c3.939,1.99,9.84,3.18,15.779,3.18
	c7.101,0,17.82-1.689,28.561-9.72c0.949-0.71,1.74-1.63,2.29-2.69c0.71-1.33,1.83-2.93,2.61-3.779c2.39-0.371,4.539-1.811,5.77-4
	c1.13-2.021,1.311-4.391,0.58-6.5c0.5-0.771,0.87-1.641,1.08-2.57c0.71-3.141-0.53-6.391-3.141-8.26l-0.029-0.03
	c1.279-3.521-0.26-6.601-1.711-8.15c-0.68-0.72-1.569-1.479-2.699-2.159c1.029-2.57,0.66-5.521-1.04-7.781
	c-0.49-0.649-1.069-1.209-1.71-1.67c-0.061-0.85-0.1-1.67-0.12-2.449v-0.11c-0.06-1.819,0.03-3.569,0.25-4.92
	c0.03-0.2,0.06-0.399,0.08-0.601l0.11-0.42c0.07-0.27,0.16-0.59,0.24-0.949c0.08-0.18,0.17-0.391,0.279-0.641l0.07-0.119
	c0.59-0.63,0.99-1.17,1.23-1.541l1.479-2.25c4.13-6.21,3.14-14.6-2.25-19.73c1.11-9.1-5.03-17.66-14.171-19.42
	c-1.1-0.21-2.219-0.32-3.329-0.32c-2.229,0-4.41,0.42-6.44,1.22c-1.16-0.51-2.39-0.89-3.65-1.14c-1.119-0.22-2.26-0.33-3.389-0.33
	c-5.621,0-10.75,2.64-14.011,6.93c-11.14-13.63-27.14-23.87-45.181-28.89c-2.489-9.15-9.029-20.65-22.459-23.34
	c-0.51-0.1-1.041-0.16-1.57-0.16L130.73,39.651z"/>
<path fill="#C69C6D" d="M221.534,135.592c0,17.4-15.388,27.107-29.306,28.576c-17.31,1.822-13.189-14.105-13.189-31.504
	c0-17.395,5.311-31.5,22.71-31.5s19.78,17.036,19.78,34.428H221.534z"/>
<path fill="#A67C52" d="M179.005,126.75c2.863-3.886,5.767-7.53,9.037-11.044c1.67-1.727,3.401-3.42,5.467-4.883
	c2.06-1.36,4.511-2.87,7.761-2.63c0.779,0.06,1.59,0.286,2.31,0.56c0.489,0.16,1.2,0.46,1.83,0.782c1.21,0.62,2.38,1.42,3.42,2.392
	c2.11,1.918,3.58,4.51,4.45,7.18c1.67,5.415,1.38,11.01,0.199,16.435l-0.09,0.39c-0.68,3.106-3.74,5.07-6.84,4.396
	c-3.109-0.676-5.07-3.738-4.4-6.84c0.181-0.83,0.541-1.6,1.021-2.24c2.31-3.07,3.82-7.006,3.55-10.703
	c-0.119-1.834-0.689-3.578-1.76-5.033c-0.55-0.72-1.21-1.37-1.98-1.927c-0.369-0.275-0.689-0.495-1.26-0.8
	c-0.34-0.176-0.65-0.298-1.01-0.363c-1.43-0.293-3.439,0.357-5.18,1.492c-1.78,1.137-3.461,2.588-5,4.21
	c-3.08,3.214-5.74,7.015-7.84,10.935l-0.021,0.039c-0.58,1.072-1.92,1.479-2.979,0.902c-1.08-0.574-1.49-1.91-0.91-2.982
	c0.05-0.1,0.109-0.19,0.18-0.27L179.005,126.75z"/>
<path fill="#C69C6D" d="M33.503,135.592c0,17.4,15.39,27.107,29.31,28.576c17.3,1.822,13.185-14.105,13.185-31.504
	c0-17.395-5.314-31.5-22.707-31.5S33.51,118.2,33.51,135.592H33.503z"/>
<path fill="#A67C52" d="M76.034,126.75c-2.86-3.886-5.764-7.53-9.035-11.044c-1.67-1.727-3.41-3.42-5.47-4.883
	c-2.07-1.36-4.52-2.87-7.77-2.63c-0.79,0.06-1.59,0.286-2.32,0.56c-0.49,0.16-1.21,0.46-1.83,0.782c-1.22,0.62-2.39,1.42-3.43,2.392
	c-2.12,1.918-3.59,4.51-4.46,7.18c-1.67,5.415-1.38,11.01-0.2,16.435l0.08,0.39c0.67,3.106,3.74,5.07,6.84,4.396
	c3.1-0.676,5.07-3.738,4.39-6.84c-0.18-0.83-0.55-1.6-1.03-2.24c-2.32-3.07-3.83-7.006-3.55-10.703
	c0.12-1.834,0.68-3.578,1.75-5.033c0.54-0.72,1.21-1.37,1.97-1.927c0.37-0.275,0.68-0.495,1.26-0.8
	c0.34-0.176,0.65-0.298,1.01-0.363c1.43-0.293,3.43,0.357,5.18,1.492c1.77,1.137,3.46,2.588,4.99,4.21
	c3.07,3.214,5.73,7.015,7.84,10.935l0.02,0.039c0.58,1.072,1.91,1.479,2.98,0.902c1.08-0.574,1.48-1.91,0.91-2.982
	c-0.06-0.1-0.12-0.19-0.18-0.27L76.034,126.75z"/>
<path fill="#082031" d="M208.618,137.975c0,38.945-35.89,70.506-80.168,70.506c-44.27,0-80.162-31.56-80.162-70.5
	c0-38.939,35.89-70.5,80.162-70.5c44.278,0,80.168,31.56,80.168,70.51V137.975z"/>
<path fill="#082031" d="M147.838,69.625c0,0-1.843-19.033-17.189-22.105c0,0-7.371,0.614,1.227,9.212c0,0-19.03-10.44-27.625-1.228
	c0,0-1.844,6.138,6.752,6.75c0,0-8.596-3.066-9.822,3.686c-1.23,6.75,12.893,1.23,18.418,7.365"/>
<path fill="none" d="M206.366,121.194"/>
<path fill="#B3B3B3" d="M192.6,139.936c0,28.943-28.593,52.412-63.865,52.412c-35.269,0-63.863-23.47-63.863-52.412
	c0-28.95,28.6-52.417,63.87-52.417c35.28,0,63.87,23.47,63.87,52.417H192.6z"/>
<path fill="#999898" d="M128.732,194.803c-36.567,0-66.319-24.615-66.319-54.867c0-30.258,29.752-54.875,66.319-54.875
	c36.572,0,66.324,24.62,66.324,54.88c0,30.25-29.75,54.869-66.324,54.869V194.803z M128.732,89.973
	c-33.859,0-61.407,22.412-61.407,49.962c0,27.547,27.547,49.955,61.407,49.955c33.863,0,61.412-22.408,61.412-49.955
	c0-27.551-27.547-49.96-61.412-49.96V89.973z"/>
<path fill="#333333" d="M128.12,177.676c-2.716,0-4.5-2.199-4.5-4.914v-34.377c0-2.715,1.784-4.914,4.5-4.914
	c2.712,0,4.5,2.2,4.5,4.92v34.381c0,2.72-1.788,4.92-4.5,4.92V177.676z M152.559,177.38h-49.114c-2.715,0-4.912-1.786-4.912-4.5
	s2.197-4.5,4.912-4.5h49.114c2.717,0,4.909,1.786,4.909,4.5S155.273,177.38,152.559,177.38z"/>
<path fill="#FFFFFF" d="M181.361,121.26c0,14.148-11.467,25.62-25.614,25.62c-14.149,0-25.617-11.472-25.617-25.62
	c0-14.148,11.468-25.615,25.617-25.615S181.361,107.112,181.361,121.26L181.361,121.26z M127.765,121.26
	c0,14.148-11.47,25.62-25.617,25.62s-25.62-11.472-25.62-25.62c0-14.148,11.472-25.615,25.62-25.615S127.765,107.112,127.765,121.26
	L127.765,121.26z"/>
<path fill="#2974A7" d="M119.097,120.108c0,9.392-7.617,17.013-17.014,17.013c-9.395,0-17.01-7.62-17.01-17.01
	c0-9.39,7.615-17.01,17.01-17.01c9.396,0,17.014,7.63,17.014,17.02V120.108z"/>
<path fill="#FFFFFF" d="M99.485,115.2c0,3.2-2.602,5.797-5.805,5.797c-3.203,0-5.803-2.596-5.803-5.798c0-3.21,2.6-5.81,5.803-5.81
	c3.203,0,5.805,2.59,5.805,5.8V115.2z M105.875,121.457c0,1.502-1.224,2.726-2.726,2.726c-1.51,0-2.73-1.224-2.73-2.726
	c0-1.51,1.22-2.722,2.73-2.722c1.5,0,2.72,1.212,2.72,2.722H105.875z"/>
<path fill="#2974A7" d="M172.695,120.108c0,9.392-7.616,17.013-17.014,17.013c-9.395,0-17.012-7.62-17.012-17.01
	c0-9.39,7.617-17.01,17.012-17.01c9.397,0,17.014,7.63,17.014,17.02V120.108z"/>
<path fill="#FFFFFF" d="M153.083,115.2c0,3.2-2.597,5.797-5.804,5.797c-3.202,0-5.799-2.596-5.799-5.798
	c0-3.21,2.597-5.81,5.799-5.81c3.207,0,5.804,2.59,5.804,5.8V115.2z M159.479,121.457c0,1.502-1.23,2.726-2.73,2.726
	c-1.498,0-2.727-1.224-2.727-2.726c0-1.51,1.229-2.722,2.729-2.722s2.729,1.212,2.729,2.722H159.479z"/>
<path fill="#2974A7" d="M137.729,134.12c0,3.26-4.355,5.903-9.73,5.903c-5.366,0-9.726-2.644-9.726-5.902c0-3.26,4.36-5.9,9.727-5.9
	c5.37,0,9.72,2.64,9.72,5.91L137.729,134.12z"/>
<path fill="#C69C6D" d="M225.71,159.762c0,0-0.233-0.71-0.644-1.934c-0.383-1.213-0.899-2.916-1.438-4.99
	c-1.09-4.14-2.3-9.73-2.689-15.727c-0.211-2.98-0.221-6.07,0.14-9.11c0.08-1.48,0.479-3.02,0.76-4.44c0.24-1.41,0.89-2.85,1.31-4.11
	c0.4-1.27,1.221-2.47,1.75-3.49c0.531-1.05,1.23-1.89,1.82-2.58l1.881-2.13c2.729-3.09,7.449-3.37,10.529-0.64
	c2.82,2.5,3.301,6.65,1.28,9.71l-1.5,2.27c0,0-0.171,0.26-0.54,0.62c-0.189,0.17-0.45,0.37-0.641,0.79
	c-0.18,0.43-0.569,0.68-0.76,1.33c-0.189,0.64-0.58,1.14-0.729,1.99c-0.171,0.82-0.48,1.6-0.56,2.621
	c-0.32,1.91-0.44,4.17-0.361,6.49c0.091,4.659,0.91,9.579,1.711,13.189c0.39,1.811,0.779,3.311,1.06,4.34l0.44,1.561l0.08,0.27
	c1.029,3.609-1.061,7.359-4.66,8.391c-3.51,1-7.15-0.961-8.301-4.381L225.71,159.762z M219.966,153.542c0,0-0.2-0.76-0.547-2.101
	c-0.36-1.422-0.83-3.437-1.28-5.767c-0.529-2.354-0.91-5.135-1.39-8.112c-0.271-1.488-0.351-3.063-0.54-4.641
	c-0.15-1.59-0.3-3.207-0.46-4.825l-0.149-4.91c-0.021-1.625-0.181-3.2-0.021-4.796l0.28-4.56c0.13-1.45,0.1-2.81,0.359-4.11
	l1.66-8.67c1-5.22,6.051-8.64,11.27-7.64c5.23,1.01,8.641,6.06,7.641,11.29c-0.08,0.36-0.16,0.72-0.27,1.07l-0.391,1.21l-1.92,6.08
	c-0.32,0.91-0.41,2.04-0.65,3.16l-0.67,3.59c-0.3,1.23-0.289,2.61-0.439,3.97c-0.12,1.37-0.25,2.76-0.37,4.16l-0.09,4.23
	c0,1.399-0.101,2.78-0.011,4.12c0.131,2.68,0.17,5.21,0.4,7.35c0.16,2.18,0.36,3.9,0.51,5.08c0.12,1.17,0.271,2,0.271,2
	c0.68,3.69-1.75,7.23-5.44,7.91c-3.529,0.65-6.91-1.54-7.81-4.939l-0.021-0.101L219.966,153.542z"/>
<path fill="#FFFFFF" d="M234.857,105.82c1.136-3.342-1.676-6.81-5.199-7.47c-3.52-0.66-6.9,1.61-7.561,5.082
	c0,0-0.354,2.976,6.375,2.816C228.473,106.248,233.945,108.496,234.857,105.82z"/>
<path fill="#C69C6D" d="M205.77,152.293c0,0-0.185-0.756-0.5-2.074c-0.334-1.41-0.752-3.4-1.16-5.699
	c-0.484-2.33-0.801-5.061-1.232-7.99c-0.34-2.95-0.602-6.12-0.816-9.311c-0.01-3.229-0.229-6.44-0.02-9.52
	c0.109-1.55,0.221-3.04,0.33-4.47c0.15-1.43,0.12-2.76,0.41-4.02c0.99-5.08,1.66-8.45,1.66-8.45c1.02-5.23,6.09-8.63,11.31-7.61
	s8.63,6.09,7.61,11.31c-0.061,0.35-0.16,0.7-0.26,1.04l-0.371,1.17l-1.93,6.02c-0.35,0.88-0.42,2-0.68,3.1
	c-0.221,1.12-0.45,2.3-0.689,3.53c-0.48,2.46-0.591,5.24-0.92,7.96c-0.141,2.76-0.24,5.56-0.25,8.18
	c0.079,2.63,0.069,5.109,0.25,7.21c0.119,2.14,0.279,3.84,0.409,4.99c0.101,1.14,0.229,1.96,0.229,1.96
	c0.621,3.689-1.879,7.189-5.58,7.811c-3.529,0.59-6.879-1.66-7.709-5.08l-0.021-0.11L205.77,152.293z"/>
<path fill="#FFFFFF" d="M220.2,104.122c1.137-3.344-1.679-6.815-5.205-7.475c-3.517-0.66-6.899,1.616-7.554,5.083
	c0,0-0.354,2.98,6.371,2.82C213.813,104.55,219.29,106.793,220.2,104.122z"/>
<path fill="#C69C6D" d="M191.443,151.613c0,0-0.063-0.687-0.18-1.887c-0.125-1.301-0.223-3.041-0.318-5.104
	c-0.178-4.14-0.194-9.656,0.201-15.194c0.232-2.77,0.371-5.552,0.804-8.147c0.409-2.604,0.6-5.057,1.12-7.136
	c0.902-4.175,1.503-6.962,1.503-6.962c1.122-5.204,6.25-8.516,11.45-7.39c5.205,1.12,8.517,6.246,7.394,11.453
	c-0.09,0.41-0.2,0.81-0.34,1.195l-0.238,0.66l-2.021,5.583c-0.689,1.65-1.109,3.735-1.77,5.903c-0.689,2.164-1.119,4.57-1.66,6.957
	c-1.01,4.79-1.66,9.703-2,13.37c-0.16,1.847-0.289,3.368-0.33,4.345l-0.07,1.7l-0.02,0.271c-0.15,3.75-3.31,6.666-7.06,6.52
	c-3.431-0.141-6.171-2.805-6.49-6.135H191.443z"/>
<path fill="#FFFFFF" d="M210.021,112.225c1.141-3.346-1.674-6.813-5.199-7.48c-3.521-0.657-6.9,1.62-7.559,5.09
	c0,0-0.354,2.976,6.381,2.815C203.645,112.65,209.109,114.9,210.021,112.225L210.021,112.225z"/>
<path fill="#082031" d="M241.198,167.344c0,0,1.383-1.729,4.825-2.35c0,0-5.223-3.744-9.43-1.44c-0.24,0.136,6.648-7.626,6.527-7.75
	c-3.17-3.355-10.12-0.417-10.12-0.417l5.819-10.199c0,0-14.159,3.427-14.879,11.68l4.24-16.864l-10.391,6.192l-6.29-9.17
	c0,0-6.931,5.259-4.54,9.781c0,0-2.609-5.469-7.25-5.254l-0.391,7.977c0,0-4.059-2.821-8.699-2.604l1.939,6.021l-7.31-0.938
	l3.31,7.99l-4.819,2.348l3.93,8.05l-5.739,2.274l10.609,5.54c0,0,3.859,5.26,8.29,7.49c4.43,2.24,20.45,5.779,35.94-5.811
	c0,0,4.529-8.619,8.47-7.97l-3.99-4.59L241.198,167.344z"/>
<path fill="#A67C52" d="M211.997,111.37l-0.92,25.884l3.377,4.098c0,0,3.687-22.516-2.457-29.979V111.37z M222.537,109.12
	l0.82,33.151l4.81-2.27l-3.79,14.141c0,0,3.277-4.301,8.189-6.756C232.566,147.387,227.447,111.989,222.537,109.12L222.537,109.12z
	 M235.223,109.12c0,0-2.861,10.64,0.207,19.85c0,0,2.459-6.754,3.889-7.16c0,0,2.65-7.168-3.489-6.96c0-0.002-0.82-2.66-0.62-5.73
	H235.223z"/>
<path fill="#C69C6D" d="M17.403,155.482c0,0,0.164-0.563,0.447-1.558c0.277-1.03,0.672-2.526,1.06-4.34
	c0.802-3.61,1.622-8.524,1.712-13.185c0.076-2.319-0.037-4.58-0.355-6.489c-0.082-1.021-0.387-1.79-0.56-2.61
	c-0.153-0.85-0.542-1.35-0.73-1.99s-0.57-0.9-0.752-1.32c-0.188-0.43-0.45-0.62-0.64-0.79c-0.368-0.36-0.536-0.61-0.536-0.61
	l-1.5-2.26c-2.28-3.44-1.33-8.07,2.11-10.34c3.14-2.07,7.28-1.46,9.71,1.28l1.88,2.13c0.59,0.69,1.3,1.53,1.82,2.58
	c0.53,1.02,1.35,2.22,1.76,3.5c0.41,1.26,1.06,2.7,1.3,4.12c0.28,1.42,0.68,2.97,0.76,4.45c0.36,3.03,0.35,6.12,0.14,9.11
	c-0.39,6-1.6,11.59-2.69,15.729c-0.54,2.08-1.06,3.78-1.44,4.99l-0.64,1.939c-1.18,3.551-5.02,5.48-8.58,4.291
	c-3.46-1.141-5.38-4.811-4.39-8.28l0.08-0.29L17.403,155.482z M22.767,150.678c0,0,0.154-0.828,0.273-1.996
	c0.152-1.182,0.352-2.904,0.514-5.084c0.23-2.14,0.27-4.668,0.393-7.346c0.096-1.342-0.016-2.72-0.004-4.12
	c-0.03-1.396-0.06-2.81-0.086-4.226c-0.12-1.396-0.244-2.784-0.367-4.152c-0.148-1.353-0.143-2.734-0.44-3.964
	c-0.23-1.244-0.45-2.447-0.66-3.59c-0.24-1.12-0.323-2.253-0.644-3.156c-1.152-3.647-1.918-6.08-1.918-6.08l-0.38-1.207
	c-1.603-5.075,1.214-10.478,6.288-12.08c5.076-1.6,10.484,1.22,12.082,6.288c0.117,0.354,0.21,0.717,0.273,1.08
	c0,0,0.67,3.467,1.67,8.67c0.27,1.3,0.23,2.66,0.37,4.118l0.29,4.56c0.16,1.596,0,3.17-0.01,4.796l-0.15,4.91
	c-0.16,1.61-0.31,3.23-0.46,4.82c-0.18,1.57-0.27,3.149-0.54,4.64c-0.48,2.98-0.86,5.75-1.39,8.11c-0.45,2.33-0.92,4.34-1.27,5.771
	l-0.54,2.1l-0.02,0.08c-0.94,3.62-4.65,5.8-8.28,4.859c-3.46-0.899-5.6-4.34-4.97-7.81L22.767,150.678z"/>
<path fill="#FFFFFF" d="M21.14,105.82c-1.135-3.342,1.674-6.81,5.2-7.47c3.52-0.66,6.9,1.61,7.56,5.082c0,0,0.355,2.976-6.375,2.816
	C27.525,106.248,22.052,108.496,21.14,105.82z"/>
<path fill="#C69C6D" d="M36.915,149.666c0-0.006,0.133-0.822,0.23-1.967c0.13-1.15,0.283-2.85,0.408-4.99
	c0.188-2.1,0.168-4.58,0.25-7.22c-0.01-2.63-0.117-5.421-0.254-8.19c-0.34-2.72-0.45-5.5-0.93-7.96c-0.24-1.23-0.47-2.41-0.69-3.53
	c-0.26-1.11-0.33-2.22-0.69-3.11c-1.17-3.62-1.94-6.02-1.94-6.02l-0.36-1.12c-1.63-5.07,1.16-10.5,6.22-12.13
	c5.06-1.62,10.49,1.16,12.11,6.23c0.11,0.34,0.21,0.74,0.28,1.09l1.65,8.44c0.29,1.26,0.25,2.6,0.4,4.02l0.32,4.46
	c0.21,3.08-0.02,6.29-0.03,9.52c-0.21,3.19-0.47,6.36-0.81,9.31c-0.44,2.93-0.75,5.66-1.24,7.99c-0.41,2.3-0.83,4.28-1.16,5.69
	l-0.5,2.069l-0.02,0.08c-0.88,3.64-4.55,5.88-8.19,5.01c-3.49-0.84-5.67-4.25-5.11-7.72L36.915,149.666z"/>
<path fill="#FFFFFF" d="M35.8,104.122c-1.137-3.344,1.678-6.815,5.203-7.475c3.516-0.66,6.902,1.616,7.555,5.083
	c0,0,0.354,2.98-6.375,2.82C42.183,104.55,36.71,106.793,35.8,104.122z"/>
<path fill="#C69C6D" d="M51,150.96l-0.07-1.7c-0.04-0.977-0.16-2.498-0.325-4.344c-0.346-3.668-0.992-8.58-1.998-13.37
	c-0.543-2.387-0.975-4.793-1.66-6.958c-0.664-2.168-1.086-4.254-1.77-5.903l-2.017-5.583l-0.217-0.61
	c-1.813-5.007,0.78-10.53,5.787-12.34c5.006-1.812,10.533,0.78,12.342,5.788c0.14,0.393,0.268,0.848,0.354,1.243l1.502,6.962
	c0.525,2.08,0.71,4.533,1.123,7.136c0.43,2.6,0.57,5.38,0.81,8.15c0.4,5.539,0.38,11.06,0.2,15.199c-0.09,2.07-0.19,3.811-0.31,5.11
	l-0.18,1.89c-0.36,3.74-3.68,6.471-7.41,6.11c-3.42-0.33-6-3.14-6.13-6.479l-0.01-0.271L51,150.96z"/>
<path fill="#FFFFFF" d="M45.978,112.225c-1.143-3.346,1.674-6.813,5.197-7.48c3.52-0.657,6.904,1.62,7.56,5.09
	c0,0,0.355,2.976-6.378,2.815C52.357,112.65,46.887,114.9,45.978,112.225L45.978,112.225z"/>
<path fill="#082031" d="M14.8,167.344c0,0-1.383-1.729-4.824-2.35c0,0,5.22-3.744,9.43-1.44c0.24,0.136-6.648-7.626-6.53-7.75
	c3.173-3.355,10.132-0.417,10.132-0.417l-5.818-10.199c0,0,14.164,3.427,14.883,11.68l-4.24-16.864l10.398,6.192l6.29-9.17
	c0,0,6.94,5.259,4.55,9.781c0,0,2.61-5.469,7.25-5.254l0.39,7.977c0,0,4.07-2.821,8.71-2.604l-1.94,6.021l7.32-0.938l-3.31,7.99
	l4.83,2.348l-3.92,8.05l5.75,2.274l-10.61,5.54c0,0-3.85,5.26-8.28,7.49c-4.43,2.24-20.45,5.779-35.94-5.811
	c0,0-4.52-8.619-8.47-7.97l3.99-4.59L14.8,167.344z"/>
<path fill="#A67C52" d="M44,111.37l0.92,25.884l-3.376,4.098c0,0-3.684-22.516,2.456-29.979V111.37z M33.462,109.12l-0.818,33.151
	l-4.813-2.27l3.8,14.141c0,0-3.27-4.301-8.19-6.756c0,0,5.12-35.397,10.03-38.267H33.462z M20.776,109.12
	c0,0,2.865,10.64-0.205,19.85c0,0-2.46-6.754-3.89-7.16c0,0-2.65-7.168,3.49-6.96c0-0.002,0.82-2.66,0.62-5.73H20.776z"/>
</svg>
