<svg xmlns="http://www.w3.org/2000/svg" width="256" height="256" viewBox="0 0 256 256"><path fill="#F4D1B0" d="M52.097 215.38c-1.438 0-2.766-.77-3.477-2.02-.71-1.253-.696-2.787.04-4.023l22.97-38.614c-1.42-3.887-2.297-8.188-2.62-12.853-15.783-1.013-19.184-12.706-19.184-22.587 0-8.368 3.44-15.878 8.73-19.788-3.8-8.273-7.01-18.26-5.783-26.75-.224.04-.45.058-.675.058-.966 0-1.922-.35-2.672-1.02-1.223-1.09-1.65-2.83-1.078-4.37.164-.44 4.142-10.92 15.223-21.37C73.71 52.48 92 41.09 121.58 41.09c3 0 6.098.117 9.21.35.106.006.206.02.308.032 6 .9 36.113 6.11 39.91 19.55 18.346 1.24 25.076 17.77 25.076 29.02 0 1.44 0 5.79-7.83 25.41l-.03.19c5.19 3.96 8.49 11.36 8.49 19.62 0 9.65-3.24 21.03-18.1 22.5-.2 2.76-.6 5.4-1.21 7.91 4.98 7.31 20.4 29.95 29.81 43.39.86 1.22.96 2.81.27 4.14-.68 1.32-2.038 2.15-3.538 2.15H52.1l-.003.03v-.002z"/><path fill="#082031" d="M52.097 211.38l25.725-43.24 15.063 8.294 75.967-7.598 4.027-2.637s19.81 29.18 31.02 45.18H52.09h.007z"/><path fill="#F4D1B0" d="M166.525 135.282c0 10.306 1.494 18.657 8.72 18.657s17.444-1.94 17.444-18.66c0-10.32-5.86-18.66-13.08-18.66-7.23 0-13.09 8.35-13.09 18.65v.01z"/><path fill="#C69C6D" d="M168.693 135.207c.03-2.89.627-6.172 2.04-8.967.72-1.428 1.628-2.8 2.91-4 1.27-1.168 3.095-2.176 5.208-2.206.81.082.64.007 1.39.167.61.13 1.13.31 1.53.51.9.4 1.62.96 2.29 1.53 1.28 1.2 2.5 2.58 3.22 4 1.42 2.87 2.35 5.96 2.35 9.05v.36c0 2.03-1.9 3.68-3.93 3.71-2.01.03-3.83-1.6-3.85-3.61 0-.14-.07-.31-.06-.44.23-2.02.02-4.25-.65-6.1-.61-1.95-1.9-3.17-2.25-3.29-.21-.12-.82-.09-1.54.39-.71.5-1.44 1.31-2.04 2.25-1.24 1.98-1.98 4.19-2.25 6.86l-.02.11c-.13 1.19-1.19 2.06-2.38 1.93-1.11-.12-1.94-1.07-1.94-2.18l-.01-.04-.01-.01v-.02z"/><path fill="#F4D1B0" d="M79.995 135.282c0 10.306-1.5 18.657-8.725 18.657-7.23 0-17.445-1.94-17.445-18.66 0-10.32 5.85-18.66 13.078-18.66 7.223 0 13.092 8.35 13.092 18.65v.01z"/><path fill="#C69C6D" d="M77.82 135.207c-.028-2.89-.624-6.172-2.036-8.967-.72-1.428-1.623-2.8-2.908-4-1.27-1.168-3.1-2.176-5.21-2.206-.798.082-.634.007-1.386.167-.604.13-1.123.31-1.525.51-.9.4-1.62.96-2.29 1.53-1.278 1.2-2.143 2.58-2.858 4-1.418 2.87-1.988 5.96-1.988 9.05v.36c0 2.03 1.54 3.68 3.56 3.71 2.02.03 3.65-1.6 3.68-3.61 0-.14-.03-.31-.04-.44-.23-2.02-.06-4.25.6-6.1.62-1.95 1.87-3.17 2.23-3.29.21-.12.79-.09 1.52.39.7.5 1.44 1.31 2.04 2.25 1.24 1.98 1.97 4.19 2.25 6.86v.11c.13 1.19 1.2 2.06 2.38 1.93 1.12-.12 1.94-1.07 1.94-2.18l.04-.04v-.03z"/><path fill="#fdb" d="M174.734 153.707c0 36.66-35.226 39.818-50.937 39.818-17.88 0-50.93-3.158-50.93-39.818 0-36.658-3.79-83.72 50.94-83.72 55.27 0 50.94 47.062 50.94 83.72h-.02.007z"/><path opacity=".61" fill="#D3BD8D" enable-background="new" d="M114.73 130.6s-10.94-1.06-11.42 25.606c-.483 26.666-13.06 30.46-13.06 30.46s13.25 8.085 33.552 6.857c3.506-.717 22.455-.692 34.79-8.1 0 0-15.77-14.06-15.77-23.336 0-9.27-.07-33.26-14.82-33.51l-13.27 2.02h-.002v.003z"/><path fill="#333" d="M117.284 135.227c0-1.603-1.3-2.91-2.906-2.91s-2.91 1.308-2.91 2.91c0 6.754-5.5 12.256-12.256 12.256s-12.258-5.502-12.258-12.256c0-1.603-1.3-2.91-2.91-2.91-1.606 0-2.906 1.308-2.906 2.91 0 9.965 8.104 18.07 18.074 18.07 9.97 0 18.072-8.106 18.072-18.07zm33.946 18.07h.002-.032.03zm15.14-20.98c-1.61 0-2.91 1.306-2.91 2.91 0 6.753-5.5 12.255-12.25 12.255-6.76 0-12.26-5.502-12.26-12.256 0-1.604-1.302-2.91-2.9-2.91-1.598 0-2.89 1.307-2.89 2.91 0 9.963 8.098 18.064 18.064 18.07 9.957-.017 18.055-8.115 18.055-18.07 0-1.602-1.31-2.91-2.91-2.91zM120.8 164.56c-1.146.355-1.768 1.573-1.414 2.71.295.93 1.154 1.52 2.07 1.52v.003l.014.01c.22 0 1.32-.04 1.54-.11 9.58-3.04 9.61-9.83 9.61-9.83v-26.01c0-1.2-1.85-2.17-3.05-2.17-1.208 0-3.057.97-3.057 2.16l.017 26.252c.002.15.235 3.563-5.73 5.465zm23.145 4.83c-23.89 12.195-40.4.67-41.09.175-.977-.7-2.323-.48-3.023.48-.704.973-.487 2.32.48 3.02.512.377 8.8 6.24 22 6.24l-.003.018c6.72 0 14.72-1.52 23.61-6.06 1.06-.54 1.49-1.85.94-2.92-.56-1.07-1.86-1.48-2.92-.95v-.002zm48.128-79.345c0-6.306-3.56-25.837-24.488-25.072-.05-1.003-.187-1.964-.435-2.855-3.256-11.65-36.666-16.7-36.666-16.7-62.046-4.6-78.39 39.38-78.39 39.38 8.67-4.337 6.14-.455 6.14-.455-6.06 12.124 5.65 33.336 8.19 37.678l6.622 19.14 10.597-24.73c4.678-1.55 9.804-1.99 14.96-1.5 2.916.25 5.847 1.04 8.73 1.85 2.842.81 5.75 3.61 8.31 3.61h.006l.03.01h.1c.99 0 2.2-.21 2.8-1.17.63-1.01.33-2.79-.69-3.43-2.9-1.82-5.79-3.22-8.88-4.44-3.07-1.18-6.26-2.18-9.55-2.79-.51-.09-1.01-.16-1.52-.22 15.79-6.95 31.46-17.39 31.46-17.39l-15.9 16.25c23-1.53 37.31-11.19 43.72-16.72.44 5.14 1.39 12.09 3.44 18.12-3.67-.41-7.34-.7-10.88-.03-3.29.61-6.48 1.69-9.55 2.86-3.09 1.21-5.98 2.58-8.88 4.41l.02.01h.01l.04.02c-.93.58-1.29 1.81-.78 2.81.54 1.06 1.85 1.49 2.91.95l.1-.06c2.55-1.28 5.46-2.38 8.31-3.19 2.88-.81 5.82-1.38 8.73-1.64 4.6-.42 9.18-.06 13.43 1.13.05.08.11.15.16.22l10.76 25.1 9.28-26.37-.09-.02c3.05-7.59 7.86-20.28 7.86-24.71l-.03-.05z"/><path fill="#fdb" d="M122.29 152.59l.84-6.814c.028-.234.05-.482.058-.726.14-4.4-3.316-8.083-7.72-8.223-4.405-.14-8.084 3.32-8.218 7.72l-.866 27.393c-4.192 7.96-10.83 21.51-10.83 27.4 0 8.61 3.638 11.15 9.454 11.52 1.453.09 3.133-.38 4.807-1.44.26.08.53.15.807.19 3.166.5 6.15-1.66 6.656-4.83l7.5-47.13h-.01c.336-2.09-.71-4.09-2.48-5.07l.002.01z"/><path fill="#fff" d="M109.62 142.333s3.694-3.093 4.604 0c.908 3.088.427 7.997.427 7.997l-5.03-.727v-7.27zm6 12.754s2.56-2.042 3.16 0c.6 2.04.223 5.292.223 5.292l-3.384-.48v-4.82z"/><path fill="#F4D1B0" d="M113.372 156.206s-1.275 17.85-4.365 24.076c0 0-4.357-.782-1.092-7.534 3.27-6.754 5.457-16.542 5.457-16.542z"/><path fill="#D3BD8D" d="M116.665 137.573s4.943 1.135 3.25 14.94c-1.69 13.805 1.998 22.453 1.998 22.453l1.455-33.93s-4.316-4.42-6.703-3.47v.007z"/><path fill="#fdb" d="M137.31 144.547l1.488 47.143c.103 3.22-2.418 5.9-5.63 5.998-3.025.1-5.59-2.154-5.958-5.103l-5.785-46.81c-.54-4.37 2.563-8.35 6.936-8.89 4.38-.545 8.36 2.564 8.92 6.935.04.236.05.492.06.727h-.03zm-7.805 11.387l9.226 46.822c.65 3.146-1.43 6.206-4.58 6.828-3.13.617-6.18-1.434-6.83-4.584-.01-.064-.02-.148-.04-.21l-7.5-47.13c-.43-2.693 1.41-5.23 4.1-5.66 2.64-.414 5.12 1.34 5.64 3.934zm5.318 9.836S149 190.735 149 199.346c0 8.614-3.634 11.155-9.45 11.52-5.817.367-15.27-8.322-13.453-27.43 0 0-.364-17.312 8.726-17.666z"/><path fill="#fff" d="M137.62 142.333s-5.034-3.093-5.944 0c-.91 3.088.245 7.997.245 7.997l5.7-.727v-7.27zm-6 12.754s-3.9-2.042-4.505 0c-.594 2.04.45 5.292.45 5.292l4.055-.48v-4.82z"/><path fill="#F4D1B0" d="M131.186 156.206s1.274 17.85 4.362 24.076c0 0 4.356-.782 1.095-7.534-3.27-6.754-5.457-16.542-5.457-16.542z"/><path fill="#333" d="M210.46 206.8c-8.85-12.64-23.02-33.43-28.8-41.91.24-1.17.44-2.368.61-3.59 3.55-.72 6.59-2.04 9.21-3.99 6.13-4.56 9.24-11.97 9.24-22.01 0-8.25-2.95-15.82-7.77-20.76 7.16-18.3 7.16-22.74 7.16-24.47 0-4.93-1.41-12.51-5.36-19.02-4.66-7.67-11.96-12.42-20.87-13.71-3.15-6.44-11-11.55-23.86-15.54-9.23-2.87-17.92-4.2-18.28-4.25-.2-.03-.4-.05-.6-.07-3.21-.23-6.41-.35-9.51-.35l-.05-.09-.01-.01v-.01h-.003c-30.89 0-50.09 11.98-60.75 22.03C49.07 70.2 44.77 81.53 44.593 82.01c-1.148 3.08-.29 6.546 2.153 8.74.546.49 1.146.893 1.78 1.21-.124 7.44 2.21 15.394 5.166 22.416-4.898 4.896-7.875 12.452-7.875 20.9 0 10.046 3.11 17.452 9.24 22.015 2.873 2.15 6.27 3.53 10.284 4.19.4 3.08 1.03 6.02 1.91 8.78l-22.03 37.03c-1.47 2.47-1.5 5.55-.08 8.05 1.43 2.5 4.08 4.05 6.96 4.05h151.8c2.99 0 5.72-1.66 7.1-4.31 1.38-2.64 1.17-5.84-.54-8.28zM52.1 211.36l23.98-40.32c-2.025-4.73-3.2-10.42-3.208-17.32-.51.1-1.03.17-1.6.17-7.23 0-17.45-1.94-17.45-18.66 0-8.78 4.25-16.12 9.98-18.11-.72-1.426-1.502-3.068-2.28-4.854l5.728.734L73 92l9-19.75 61.5-8 27 14.75 4.25 26.75 11.052 4.912c-.564 1.458-1.113 2.845-1.612 4.087l.09.02-.93 2.63c5.39 2.3 9.32 9.42 9.32 17.86 0 16.72-10.22 18.66-17.44 18.66-.18 0-.34-.03-.51-.04-.01 4.71-.62 8.86-1.69 12.53 1.82 2.67 20.22 29.75 30.87 44.95H52.1z"/></svg>