<svg xmlns="http://www.w3.org/2000/svg" xmlns:xlink="http://www.w3.org/1999/xlink" width="256" height="256" viewBox="0 0 256 256"><path d="M154.62 227.015c-.78 0-1.53-.366-2.01-1.012-.77-1.04-1.3-1.755-1.627-2.326-.01-.014-.02-.028-.028-.043-.518-.818-3.037-5.07-1.814-8.402.17-.676-.73-3.02-1.85-4.797-.69-1.095-.43-2.54.6-3.325.03-.02.47-.353 1.18-.857-.04-.612-.13-1.276-.22-2.003-.06-.47-.12-.956-.18-1.46-.08-.564-.15-1.235-.23-1.924-.12-1.13-.24-2.297-.5-3.432l-1.28-6.163-1.85-6.29c-.31-.79-.61-1.59-.92-2.4-.48-1.28-.97-2.61-1.53-3.86-.36-.73-.7-1.47-1.04-2.22-.62-1.35-1.2-2.63-1.91-3.78-.02-.03-1.14-2.04-1.69-3l-1.78-2.72c-.77-1.26-1.64-2.39-2.48-3.5-.37-.48-.73-.95-1.08-1.43-.31-.36-.61-.72-.9-1.08-.36-.43-.71-.85-1.05-1.25-.25 1.68-.55 3.29-.91 4.86-1.17 5.25-2.79 9.74-4.96 13.71-1.14 2.19-2.64 4.41-4.45 6.58-2.06 2.36-4.01 4.15-6.01 5.52-1.82 1.33-4.02 2.53-6.66 3.61-2.29.86-4.46 1.46-6.53 1.8-1.16.2-2.34.35-3.59.45-.26.11-.54.18-.82.2-.05.01-1.59.15-1.9 1.01.4 1.52 1.41 5.8 1.21 9.95 1.59 2.94 1.51 6.54 1.43 9.48-.02.76-.04 1.49-.02 2.17.02.9-.45 1.74-1.23 2.2l-3.17 1.88c-.39.23-.83.35-1.27.35-.21 0-.43-.03-.64-.08-.65-.17-1.2-.6-1.53-1.18L71.99 191.6c-.5-.88-.42-1.97.202-2.768.77-1 1.31-1.69 1.76-2.156.02-.026.05-.054.07-.08.61-.67 3.81-4.027 7.2-4.027.14 0 .27 0 .405.01.694-.03 2.712-1.53 4.124-3.09.49-.55 1.17-.83 1.85-.83.53 0 1.06.16 1.51.5.02.01.33.25.83.64l2.63.24c.24.03.55.03.83.03h.93c.23 0 .48 0 .72.01 1.11-.04 2.13-.13 3.11-.29 1.03-.16 2.13-.45 3.38-.89 1.04-.44 2.22-.98 3.25-1.73l.1-.07c.9-.59 1.83-1.44 3.01-2.74 1.04-1.24 1.89-2.48 2.55-3.73 2.85-5.14 4.09-11.5 4.63-16.32-.77-.82-1.39-1.77-1.83-2.82l-1.47.11c-.06.01-.13.01-.19.01-.68 0-1.33-.28-1.81-.78-.52-.54-.76-1.29-.67-2.04l3.39-26.7c-.9.76-1.45 1.4-1.46 1.41-.47.48-1.11.84-1.78.84h-.03c-.68 0-1.33-.38-1.79-.88l-1.96-2.13-.55.32c-.98.62-2 1.24-2.93 1.91-.42.34-.86.66-1.3.98-.78.58-1.53 1.13-2.1 1.71l-.38.35c-.99.9-1.94 1.74-2.65 2.63l-.12.14c-.79.84-1.69 1.85-2.32 2.85-.02.03-.04.07-.06.1-.16.23-.33.46-.49.69-.52.72-1.01 1.41-1.28 2.01-.02.05-.05.1-.08.15l-1.01 1.87c2.35 1.8 4.06 3.26 4.15 3.34 4.65 3.76 1.29 8.06-.72 10.63-.47.6-.95 1.22-1.38 1.84-1.76 2.54-3.7 3.08-5.02 3.08-.59 0-1.12-.11-1.58-.26-1.22.76-2.23 1.18-3 1.25-.12.01-.25.02-.39.02-2.59 0-6.15-2.11-6.19-2.13-1.23-.73-3.25-2.68-4.56-4-2.56-.08-4.51-2.58-5.76-4.48-.86-1.3-1.14-2.84-.81-4.45 1.07-5.19 8.47-10.24 9.94-11.2.29-.2.62-.36.99-.46l1.53-2.81c.66-1.33 1.55-2.55 2.41-3.73l.45-.62c1.09-1.64 2.48-3.19 3.58-4.35 1.3-1.52 2.8-2.84 4.24-4.12 1.06-1.01 2.22-1.86 3.34-2.68.48-.34.95-.69 1.41-1.05l.09-.06c.57-.4 1.15-.78 1.72-1.15-.53-.93-.41-2.13.35-2.95 6.04-6.43 11.27-9.61 15.47-11.06-4.02-3.01-6.36-7.42-6.88-13.05-5.59-.61-8.64-4.38-8.64-10.77 0-3.73 1.46-7.11 3.75-9.07-1.52-3.45-2.77-7.48-2.5-11.08-.43-.08-.84-.28-1.18-.59-.76-.69-1.03-1.77-.67-2.73.3-.79 7.51-19.41 33.44-19.41 1.36 0 2.77.05 4.18.15.07 0 .13.01.19.02 3.78.57 16.03 2.86 18.29 8.79 8.34.82 11.41 8.44 11.41 13.65 0 .67 0 2.67-3.4 11.24 2.26 1.97 3.68 5.32 3.68 9.02 0 6.2-2.87 9.93-8.15 10.7-.58 6.13-3.36 10.8-8.19 13.83 3.85 1.69 8.45 4.81 13.65 10.35.91.97.91 2.46 0 3.43l-.03.03c.97.9 1.91 1.83 2.8 2.77.93.91 1.76 1.94 2.57 2.94.37.45.73.9 1.11 1.34l.09.11c.78 1.03 1.49 2.07 2.17 3.07.32.46.63.93.95 1.38l.07.11c.64 1.03 1.19 2.04 1.73 3.02.26.47.52.94.77 1.4.55.9.96 1.85 1.32 2.7l.2-.14c1.12-.78 2.31-1.2 3.49-1.2 3.02 0 4.88 2.56 6.52 4.81.45.62.91 1.25 1.38 1.83 1.79 2.18 1.9 4.04 1.69 5.22-.14.78-.44 1.41-.79 1.91.4 1.39.53 2.47.37 3.24-.5 2.58-3.69 5.61-3.83 5.74-1.05.98-3.48 2.39-5.1 3.28l-.06.15c-.66 1.78-2.51 3.1-5.83 4.15-.56.18-1.13.27-1.71.27-6.22 0-9.86-10.23-10.82-13.36-.63-1.93.45-3.84 1.77-5.44l-.09-.34c-.11-.46-.33-1-.58-1.62-.13-.31-.26-.63-.38-.96-.17-.4-.33-.81-.49-1.24-.25-.68-.49-1.31-.81-1.87-.28-.53-.52-1.01-.76-1.5-.35-.69-.7-1.41-1.09-2.09-.3-.46-.59-.92-.89-1.4-.43-.69-.88-1.41-1.35-2.07-.36-.44-.7-.9-1.05-1.36-.53-.72-1.04-1.39-1.58-1.96-.65-.74-1.31-1.44-1.98-2.11l-2.27 2.49c-.47.5-1.12.88-1.8.88h-.02c-.37 0-.72-.17-1.04-.32l3.12 22.19c.1.68-.1 1.35-.53 1.89s-1.07.86-1.75.92l-2.55.19c.49.57.99 1.16 1.51 1.77l.89 1.05.1.12c.36.49.74.98 1.12 1.47 1.1 1.42 2.23 2.88 3.27 4.52l2.07 3.15.08.13 1.94 3.39c.96 1.56 1.76 3.27 2.54 4.93.36.77.72 1.54 1.1 2.3.01.03.03.06.04.09.76 1.68 1.41 3.38 2.04 5.03.32.82.63 1.64.95 2.45.03.07.05.14.07.2l2.22 7.35c.02.07.03.13.05.2l1.51 7c.36 1.56.54 3.1.69 4.47.08.69.16 1.36.26 2.02l.06.45c.62.44 1.12 1.02 1.47 1.72.25.51.33 1.08.21 1.63-.01.05-.29 1.57.45 2.1 1.53.03 5.96.21 9.9 1.52.74-.17 1.53-.25 2.36-.25 2.48 0 4.95.75 7.13 1.42.72.22 1.43.43 2.09.6.87.23 1.56.91 1.79 1.78l.95 3.56c.17.65.08 1.34-.27 1.92s-.9.99-1.55 1.15l-34.13 8.48c-.21.04-.41.07-.61.07zm-26.93-195.53c1.282 0 2.615.05 3.997.15 0 0 14.958 2.26 16.416 7.48.11.397.16.83.184 1.275.185-.007.365-.01.544-.01 8.9 0 10.44 8.46 10.44 11.228 0 1.99-2.15 7.667-3.52 11.066l.04.012-.41 1.18c2.41 1.035 4.17 4.223 4.17 7.998 0 7.486-4.57 8.352-7.81 8.352-.08 0-.15-.012-.23-.018-.03 10.898-7.05 15.29-13.8 16.913l.02.28h.15c4.01 0 10.78 1.75 19.66 11.22l-1.79 1.84c1.58 1.35 3.12 2.76 4.58 4.3 1.31 1.3 2.41 2.79 3.59 4.17 1.1 1.44 2.06 2.94 3.06 4.36.91 1.47 1.67 2.95 2.45 4.33.83 1.37 1.29 2.78 1.89 4.02.18.43.36.84.54 1.24 1.57-1.12 2.66-1.84 2.66-1.84.78-.55 1.48-.78 2.11-.78 2.31 0 3.85 3.14 5.98 5.74 2.72 3.32-.02 4.89-.02 4.89s.94 2.54.77 3.4c-.26 1.33-2.12 3.49-3.1 4.41-1.24 1.17-5.8 3.57-5.8 3.57s1.12 1.77-4.22 3.46c-.32.1-.64.15-.95.15-4.86 0-8.44-11.59-8.44-11.59-.32-.97.64-2.45 2.17-4.07l-.44-1.55c-.22-.92-.67-1.87-1.07-2.94-.46-1.04-.79-2.27-1.43-3.4-.61-1.15-1.19-2.41-1.89-3.65-.78-1.18-1.51-2.46-2.37-3.68-.94-1.14-1.77-2.43-2.81-3.53-1.23-1.39-2.54-2.71-3.89-3.93l-3.98 4.23s-1.8-1.84-4.38-3.55l3.99 28.41-7.74.6c.53.53 1.06 1.07 1.6 1.66 1.42 1.44 2.79 3.13 4.29 4.88 1.38 1.83 2.94 3.7 4.27 5.82l2.1 3.19c.64 1.12 1.29 2.25 1.94 3.39 1.38 2.25 2.38 4.73 3.58 7.11 1.1 2.43 1.97 4.94 2.94 7.38l2.22 7.35c.52 2.43 1.04 4.78 1.52 7.01.51 2.22.63 4.37.93 6.33.07.6.15 1.19.22 1.76.68.14 1.22.55 1.54 1.2 0 0-.85 4.17 2.36 5.17h.16c.97 0 6.07.03 10.19 1.59-.01 0-.08-.02-.09-.02l-.04-.02V211c1-.26 1.68-.38 2.52-.38 2.9 0 6.07 1.29 8.64 1.95l.97 3.56-34.12 8.48s-1.62-2.19-1.53-2.225l-.02.003s-2.44-3.86-1.58-6.2c.86-2.35-2.09-6.994-2.09-6.994s.88-.67 2.21-1.56c0-.09-.01-.17-.01-.27.01-1.45-.26-2.99-.46-4.75-.26-1.75-.33-3.657-.78-5.63-.41-1.98-.85-4.06-1.3-6.22-.62-2.115-1.26-4.29-1.92-6.5-.85-2.147-1.6-4.37-2.55-6.51-1.04-2.095-1.88-4.296-3.1-6.25-.56-1.01-1.12-2-1.67-2.986-.61-.943-1.22-1.87-1.82-2.79-1.15-1.865-2.51-3.49-3.69-5.11-1.29-1.52-2.46-3.013-3.68-4.25-.72-.793-1.42-1.51-2.1-2.17-.25 3.01-.66 6.36-1.47 9.945-.94 4.22-2.37 8.75-4.72 13.06-1.13 2.17-2.57 4.25-4.17 6.17-1.65 1.89-3.47 3.66-5.5 5.05-1.99 1.45-4.13 2.51-6.2 3.36-2.09.79-4.11 1.34-5.99 1.65-1.44.25-2.8.39-4.03.47-.04.05-.08.1-.13.15 0 0-4.13.27-4.3 3.65 0 0 1.65 5.55 1.21 10.42-.01-.01-.01-.016-.02-.02l.02.02c2.07 3.04 1.39 7.65 1.46 11.07l-3.17 1.88-17.34-30.6s1.6-2.073 1.71-2.073l-.01-.02s2.89-3.2 5.35-3.2c.07 0 .14 0 .21.01h.17c2.49 0 6.01-3.91 6.01-3.91s.85.64 2.04 1.65l.07-.51 2.51.23c.36.05.75.06 1.17.06.29 0 .6-.01.93-.01.23 0 .47 0 .72.01 1.07-.03 2.26-.13 3.52-.33 1.25-.2 2.55-.55 3.87-1.02 1.28-.54 2.6-1.15 3.82-2.04 1.26-.82 2.4-1.94 3.5-3.16 1.06-1.27 2.07-2.66 2.9-4.24 3.17-5.71 4.51-12.83 5.04-18.48-1.36-1.05-2.33-2.63-2.63-4.47l-3.48.27 4.09-32.21c-3.63 1.91-6.43 4.77-6.43 4.77l-3.3-3.51c-.48.27-.97.54-1.47.8-1.33.84-2.72 1.67-4 2.6-1.24.99-2.6 1.85-3.68 2.94-1.15 1.04-2.29 2.04-3.2 3.165-.99 1.065-1.91 2.12-2.61 3.23-.75 1.077-1.53 2.06-2 3.106-.54 1.01-1.03 1.93-1.47 2.75-.15.4-.29.78-.42 1.13 3.1 2.28 5.61 4.42 5.61 4.42 3.45 2.79-.1 5.62-2.53 9.15-1.08 1.56-2.13 2-2.97 2-1.04 0-1.74-.68-1.74-.68s-2.19 1.6-3.05 1.68c-.06 0-.13.01-.19.01-1.39 0-3.8-1.12-4.91-1.78-1.46-.87-5.02-4.6-5.02-4.6s-.23.25-.69.25c-.7 0-1.94-.56-3.8-3.35-3.1-4.66 8.41-12.17 8.41-12.17.24-.16.55-.24.91-.24.11 0 .22.01.34.02l.15-.39c.58-1.07 1.25-2.28 1.96-3.61.67-1.36 1.66-2.64 2.67-4.04.96-1.44 2.14-2.79 3.42-4.14 1.2-1.43 2.63-2.68 4.08-3.96 1.4-1.35 3.03-2.39 4.57-3.58 1.35-.95 2.75-1.8 4.14-2.64l-1.69-1.79c8.87-9.46 15.65-11.36 19.65-11.36.65 0 1.23.05 1.74.13l.06-.54c-6.38-1.83-12.31-6.2-12.32-16.56-.22.05-.45.08-.71.08-3.23 0-7.81-.87-7.81-8.35 0-3.93 1.91-7.21 4.47-8.1-1.84-3.65-4.63-10.43-2.49-14.7 0 0 .46-.71-.23-.71-.38 0-1.13.22-2.52.92 0 0 6.61-17.78 31.1-17.78m0-5c-27.65 0-35.46 20.18-35.78 21.04-.72 1.92-.18 4.09 1.34 5.46.11.09.22.19.34.27.1 3.01.96 6.12 2.07 8.95-2.06 2.44-3.29 5.87-3.29 9.65 0 6.9 3.25 11.5 8.9 12.9.67 3.98 2.24 7.39 4.64 10.14-3.77 1.94-8.09 5.1-12.81 10.13-.93.99-1.38 2.27-1.35 3.54l-.33.23c-.06.04-.12.09-.17.13-.44.35-.89.68-1.35 1.01-1.11.81-2.36 1.73-3.54 2.85-1.49 1.32-3.03 2.67-4.43 4.31-1.15 1.21-2.58 2.81-3.8 4.62l-.39.54c-.91 1.26-1.86 2.55-2.6 4.05l-.94 1.74-.14.25c-.22.12-.42.24-.6.36-2.3 1.51-9.76 6.79-10.99 12.77-.47 2.28-.07 4.47 1.17 6.34.82 1.24 3.14 4.75 6.68 5.46 1.45 1.43 3.19 3.03 4.44 3.77.42.26 4.25 2.48 7.46 2.48.21 0 .41-.01.61-.02.44-.03 1.43-.11 3.19-1.07.37.06.77.1 1.19.1 1.57 0 4.58-.54 7.08-4.16.38-.55.83-1.12 1.29-1.72 1.27-1.62 2.58-3.3 3.21-5.38.98-3.25-.07-6.43-2.87-8.73-.23-.19-1.17-.99-2.53-2.07l.01-.02c.05-.1.11-.21.15-.32.16-.37.6-.98 1.03-1.57.17-.23.34-.47.51-.71.04-.06.09-.13.13-.2.52-.83 1.32-1.72 2.03-2.48.08-.09.16-.18.24-.28.58-.73 1.45-1.51 2.37-2.34l.27-.24c.07-.07.14-.13.21-.2.44-.45 1.11-.94 1.81-1.46.43-.32.87-.65 1.33-1.01.49-.36 1.02-.7 1.56-1.05l.56.43c.94.99 2.23 1.41 3.59 1.41h.05c.05 0 .1.16.15.16l-2.77 21.9c-.19 1.49.3 3.03 1.34 4.12.95 1 2.26 1.57 3.62 1.57.07 0 .14.01.21.01.21.34.43.67.67.98-.57 4.42-1.74 9.89-4.18 14.27l-.05.1c-.56 1.06-1.29 2.14-2.25 3.29-.64.7-1.56 1.67-2.46 2.25l-.2.14c-.8.58-1.75 1.03-2.67 1.42-1.07.37-2.01.62-2.84.75-.89.14-1.78.23-2.75.27-.25-.01-.48-.01-.71-.01h-.93c-.34 0-.45-.01-.48-.02l-.24-.03c-.75-.07-1.34-.12-1.76-.16l-.29-.22c-.9-.68-1.96-1.01-3.01-1.01-1.37 0-2.73.73-3.72 1.82-.81.89-2.02 1.4-2.66 2.4h-.01c-4.34 0-8.03 3.55-9.06 4.69-.07.08-.13.07-.19.15-.55.58-1.11 1.26-1.76 2.1-1.24 1.59-1.4 3.76-.41 5.52l17.34 30.6c.66 1.17 1.77 2.02 3.07 2.36.42.11.85.17 1.28.17.89 0 1.77-.24 2.55-.7l3.17-1.88c1.55-.92 2.48-2.6 2.45-4.4-.01-.61 0-1.31.02-2.06.07-3.06.16-6.75-1.41-10.1.06-3.01-.4-5.95-.83-7.99.19-.04.37-.1.55-.16 1.13-.1 2.22-.25 3.31-.44 2.19-.37 4.52-1.01 6.89-1.9l.14-.06c2.79-1.15 5.14-2.43 7.18-3.9 2.15-1.48 4.24-3.39 6.39-5.84l.07-.09c1.91-2.29 3.51-4.65 4.74-7.02 2.21-4.07 3.88-8.63 5.09-13.92.7.91 1.35 1.79 1.92 2.71l.08.11.13.21c.53.8 1.06 1.62 1.6 2.45.53.94 1.06 1.88 1.59 2.83l.11.19c.63 1.02 1.18 2.23 1.77 3.51.33.73.68 1.48 1.05 2.24.51 1.16.97 2.38 1.45 3.67.29.79.59 1.57.9 2.35l.46 1.58 1.33 4.5.98 4.71.27 1.31.01.08c.22.99.34 2.04.45 3.15.07.65.14 1.33.24 2.02.06.49.12.96.18 1.41l.07.51-.06.04c-2.06 1.58-2.58 4.47-1.19 6.66.64 1.01 1.28 2.44 1.44 3.15-1.17 4.16 1.39 8.7 2.23 10.04l.13.19c.42.7.98 1.45 1.63 2.32.96 1.3 2.46 2.03 4.02 2.03.4 0 .8-.05 1.2-.15l34.13-8.47c1.3-.32 2.42-1.15 3.1-2.31s.87-2.53.53-3.83l-.95-3.56c-.47-1.75-1.84-3.11-3.59-3.56-.59-.15-1.27-.36-1.99-.57-2.35-.71-5-1.52-7.86-1.52-.76 0-1.5.06-2.22.18-2.88-.87-5.85-1.22-7.95-1.35.03-.83-.15-1.67-.52-2.43-.36-.71-.81-1.35-1.36-1.89-.06-.46-.12-.96-.18-1.47-.16-1.42-.35-3.03-.74-4.74l-.68-3.14c-.27-1.25-.54-2.53-.82-3.84-.03-.13-.06-.26-.1-.39l-1.54-5.11-.68-2.24c-.04-.14-.09-.27-.14-.41-.32-.79-.63-1.6-.93-2.41-.65-1.68-1.31-3.42-2.1-5.17l-.09-.18c-.36-.72-.7-1.46-1.07-2.24-.8-1.69-1.62-3.45-2.67-5.18l-1.5-2.62-.4-.7c-.05-.09-.1-.17-.16-.26l-1.9-2.9-.16-.25c-1.1-1.73-2.31-3.3-3.37-4.68-.31-.39-.6-.78-.9-1.16.59-.32 1.12-.75 1.55-1.28.86-1.08 1.24-2.46 1.05-3.83l-2.74-19.5c.68-.26 1.3-.68 1.82-1.22l.44-.47.05.06.12.13c.45.47.91 1.09 1.4 1.74.33.44.67.9 1.05 1.36.41.59.81 1.22 1.22 1.89.29.47.58.93.87 1.38.34.6.65 1.23.99 1.9.25.51.5 1 .75 1.48l.07.13c.22.38.42.93.64 1.51.16.42.32.85.51 1.3l.38.96.22.53c-1.18 1.73-2.2 4.09-1.37 6.69 1.41 4.56 5.51 15.09 13.21 15.09.83 0 1.65-.13 2.46-.38 2.39-.76 5.63-2.08 7.09-4.92 1.78-1 3.79-2.24 4.85-3.23.66-.62 3.96-3.86 4.59-7.1.08-.42.28-1.39-.16-3.35.26-.55.46-1.16.58-1.81.31-1.7.18-4.33-2.21-7.25-.43-.53-.85-1.11-1.3-1.72-1.79-2.47-4.25-5.85-8.55-5.85-.85 0-1.7.14-2.54.43-.1-.19-.21-.39-.33-.58-.24-.43-.48-.87-.73-1.32-.55-1.01-1.12-2.05-1.8-3.14l-.14-.21-.93-1.35c-.7-1.04-1.43-2.1-2.25-3.19-.06-.08-.12-.15-.18-.22-.36-.43-.71-.86-1.06-1.29-.8-.98-1.7-2.09-2.75-3.14-.49-.52-.99-1.03-1.51-1.53.4-1.6 0-3.36-1.21-4.64-3.93-4.2-7.59-7.09-10.88-9.06 3.1-2.95 5.08-6.77 5.86-11.34 5.34-1.55 8.41-6.08 8.41-12.77 0-3.77-1.21-7.18-3.26-9.62 2.98-7.75 2.98-9.74 2.98-10.64 0-5.88-3.34-14.34-12.28-15.96-3.68-5.93-14.63-8.22-19.54-8.96-.12-.02-.25-.03-.38-.04-1.47-.1-2.94-.16-4.37-.16z" fill="#333"/><path d="M128.604 141.104s.025.307.068.88c.022.54.06 1.325.106 2.33.063 1.988.078 4.796-.146 8.168-.226 3.38-.646 7.326-1.6 11.553-.944 4.22-2.367 8.747-4.717 13.063-1.132 2.166-2.57 4.244-4.175 6.17-1.65 1.89-3.467 3.66-5.504 5.05-1.99 1.446-4.135 2.51-6.206 3.36-2.093.784-4.116 1.335-5.99 1.647-1.87.323-3.588.465-5.082.525-1.483-.018-2.81.058-3.846-.053-2.088-.18-3.28-.286-3.28-.286l1.452-11.2s.913.09 2.51.23c.803.11 1.73.03 2.82.07 1.067-.03 2.262-.12 3.513-.33 1.257-.19 2.552-.55 3.87-1.01 1.282-.53 2.605-1.15 3.823-2.04 1.26-.82 2.396-1.94 3.497-3.15 1.06-1.26 2.07-2.66 2.902-4.24 3.47-6.25 4.75-14.22 5.17-20.07.22-2.94.22-5.42.18-7.13-.03-.84-.06-1.5-.08-1.96l-.04-.63 10.74-.91zm-.446-1.308s.292.197.832.572c.637.435 1.388 1.018 2.34 1.764 1.846 1.538 4.455 3.723 7.18 6.68 1.42 1.436 2.792 3.125 4.283 4.877 1.38 1.83 2.94 3.7 4.275 5.82.688 1.04 1.39 2.1 2.098 3.18.64 1.11 1.29 2.24 1.94 3.38 1.382 2.24 2.382 4.72 3.577 7.11 1.095 2.42 1.97 4.94 2.94 7.37l2.22 7.35c.522 2.43 1.034 4.78 1.514 7 .508 2.22.624 4.37.922 6.33.23 1.96.53 3.77.54 5.37l.18 4.14.15 3.61h-11.3l-.13-3.26c-.04-1.04-.08-2.3-.14-3.74.01-1.45-.27-3.06-.46-4.82-.26-1.75-.34-3.69-.78-5.66-.42-1.98-.85-4.07-1.3-6.24-.63-2.11-1.27-4.3-1.92-6.51-.86-2.14-1.6-4.38-2.55-6.51-1.05-2.1-1.89-4.3-3.1-6.26-.57-1.01-1.12-2-1.68-2.98-.62-.95-1.22-1.88-1.82-2.8-1.15-1.87-2.51-3.49-3.7-5.11-1.29-1.52-2.47-3.02-3.69-4.25-2.35-2.59-4.55-4.44-6.05-5.72-.77-.61-1.38-1.09-1.71-1.32-.42-.3-.64-.46-.64-.46l5.95-8.99zm-34.98 68.19l.015.023c.44-4.87-1.21-10.42-1.21-10.42.168-3.39 4.296-3.65 4.296-3.65 3.75-3.39-8.7-12.78-8.7-12.78s-3.69 4.08-6.18 3.9c-2.5-.2-5.56 3.19-5.56 3.19l.01.02c-.06-.08-1.73 2.07-1.73 2.07l17.34 30.6 3.17-1.88c-.07-3.43.61-8.06-1.48-11.1zm83.55 2.934l.024-.008c-4.57-1.73-10.353-1.637-10.353-1.637-3.22-1.065-2.36-5.114-2.36-5.114-2.26-4.52-14.65 4.94-14.65 4.94s2.94 4.65 2.09 7c-.86 2.35 1.58 6.21 1.58 6.21h.02c-.09.04 1.53 2.23 1.53 2.23l34.13-8.47-.95-3.56c-3.33-.85-7.6-2.75-11.08-1.56z"/><ellipse cx="121.512" cy="147.661" rx="6.59" ry="7.013"/><path fill="#F2C49C" d="M174.466 130.985s-14.802 9.79-13.67 13.226c0 0 4.05 13.13 9.388 11.45 5.33-1.68 4.217-3.45 4.217-3.45s4.57-2.4 5.81-3.56c.98-.92 2.84-3.09 3.1-4.41.17-.85-.77-3.4-.77-3.4s2.74-1.57.02-4.89c-2.71-3.31-4.45-7.49-8.08-4.95zm-50.373-19.367l-.58.108c-.35.075-.86.187-1.51.332-1.363.306-3.345.85-5.676 1.613-2.32.81-5.02 1.79-7.75 3.15-1.41.61-2.724 1.45-4.14 2.18-1.33.84-2.713 1.67-4 2.6-1.232.99-2.596 1.85-3.676 2.94-1.14 1.04-2.28 2.04-3.19 3.17-.99 1.06-1.91 2.12-2.61 3.23-.75 1.08-1.53 2.06-2 3.11-.54 1.01-1.03 1.93-1.47 2.75l-.83 2.25c-.47 1.25-.75 1.95-.75 1.95l-10.45-3.23.99-2.58c.33-.81.71-1.8 1.16-2.94.58-1.08 1.25-2.29 1.96-3.61.67-1.36 1.66-2.65 2.66-4.04.96-1.44 2.14-2.79 3.42-4.14 1.21-1.42 2.63-2.68 4.08-3.96 1.4-1.35 3.03-2.39 4.57-3.58 1.58-1.11 3.24-2.09 4.86-3.08 1.67-.85 3.27-1.82 4.91-2.52 3.22-1.55 6.34-2.65 9.02-3.55 2.71-.85 5-1.45 6.64-1.81.8-.18 1.51-.32 2-.41l.67-.12 1.72 10.23zm11.085-12.05s.23.052.666.16c.522.12 1.162.313 1.947.56 1.57.517 3.77 1.28 6.25 2.5 1.27.556 2.55 1.323 3.94 2.072 1.34.85 2.79 1.67 4.17 2.715 2.84 1.973 5.61 4.433 8.15 7.112 1.32 1.3 2.41 2.802 3.59 4.184 1.1 1.45 2.07 2.95 3.06 4.37.92 1.47 1.67 2.95 2.46 4.33.82 1.37 1.29 2.78 1.89 4.02.53 1.27 1.11 2.41 1.41 3.48.35 1.06.66 1.97.91 2.73l.78 2.38-10.58 2.78-.59-2.02c-.19-.65-.41-1.43-.67-2.33-.22-.92-.67-1.86-1.08-2.93-.45-1.04-.79-2.27-1.43-3.4-.61-1.16-1.19-2.42-1.89-3.65-.78-1.18-1.51-2.46-2.37-3.68-.94-1.14-1.77-2.43-2.81-3.53-2-2.26-4.2-4.38-6.48-6.09-1.1-.91-2.29-1.62-3.35-2.37-1.13-.65-2.17-1.34-3.2-1.82-2.01-1.09-3.77-1.77-4.98-2.22l-1.31-.44c-.33-.09-.5-.14-.5-.14l2.08-8.74z"/><path fill="#082031" d="M133.75 97.94s8.957-5.26 23.76 10.514l-12.464 13.242s-7.593-7.79-14.022-6.23"/><path fill="#082031" d="M144.654 146.795l-33.108 2.71 7.014-55.124h18.697z"/><path fill="#F2C49C" d="M92.675 142.323s-13.496-11.54-16.483-9.502c0 0-11.508 7.51-8.415 12.18 3.09 4.67 4.488 3.11 4.488 3.11s3.56 3.73 5.024 4.6c1.15.69 3.75 1.88 5.09 1.77.86-.07 3.05-1.67 3.05-1.67s2.27 2.2 4.7-1.32 5.98-6.35 2.53-9.14z"/><path fill="#082031" d="M120.508 97.94s-8.962-5.26-23.76 10.514l12.464 13.242s7.597-7.79 14.02-6.23"/><path fill="#C69C6D" d="M134.918 95.21l-7.01 10.128-7.79-10.907"/><path fill="#E2B593" d="M147.824 71.864c0 4.613.668 8.352 3.904 8.352 3.233 0 7.81-.865 7.81-8.352 0-4.613-2.624-8.354-5.858-8.354-3.233 0-5.856 3.74-5.856 8.354z"/><path fill="#C69C6D" d="M148.793 71.83c.015-1.29.28-2.76.913-4.014.322-.636.73-1.257 1.304-1.792.573-.523 1.384-.973 2.33-.986.36.034.285.003.622.072.272.06.503.14.682.23.403.174.727.426 1.03.684.567.535.348 1.156.666 1.792.633 1.28.28 2.664.28 4.048v.158c0 .907-.082 1.65-.99 1.662-.905.01-1.333-.716-1.34-1.623 0-.06.163-.13.166-.19.1-.91.106-1.9-.19-2.74-.278-.87-.81-1.42-.962-1.47-.1-.05-.342-.04-.67.18-.315.22-1.186.58-1.453 1.01-.55.88-1.56 1.88-1.56 3.07v.05c0 .54.02.92-.51.87-.49-.05-.31-.48-.31-.97z"/><path fill="#E2B593" d="M109.083 71.864c0 4.613-.672 8.352-3.903 8.352-3.235 0-7.813-.865-7.813-8.352 0-4.613 2.622-8.354 5.856-8.354 3.236 0 5.86 3.74 5.86 8.354z"/><path fill="#C69C6D" d="M108.11 71.83c-.012-1.29-.28-2.76-.912-4.014-.32-.636-.73-1.257-1.303-1.792-.57-.523-1.385-.973-2.33-.986-.358.034-.286.003-.62.072-.275.06-.506.14-.685.23-.403.174-.727.426-1.024.684-.575.535-.685 1.156-1.007 1.792-.64 1.28-.61 2.664-.61 4.048v.158c0 .907.41 1.65 1.32 1.662.9.01 1.49-.716 1.51-1.623 0-.06-.09-.13-.09-.19-.11-.91-.06-1.9.24-2.74.27-.87.82-1.42.98-1.47.1-.05.35-.04.67.18.31.22.64.58.91 1.01.56.88.88 1.88 1.01 3.07v.05c.05.54.53.92 1.06.87.5-.05.87-.48.86-.97z"/><path fill="#F2C49C" d="M151.498 80.113c0 16.407-15.768 17.827-22.803 17.827-8.006 0-22.805-1.42-22.805-17.827 0-16.412-1.695-37.48 22.805-37.48 24.744-.002 22.803 21.068 22.803 37.48z"/><path fill="#333" d="M101.604 61.88l4.373 12.613 6.303-14.72m43.503 2.913l-4.152 11.807-6.3-14.72"/><path fill="#F5F5F5" d="M124.474 71.837c0 3.75-3.035 6.792-6.79 6.792-3.744 0-6.784-3.05-6.784-6.8s3.04-6.79 6.785-6.79c3.753 0 6.79 3.03 6.79 6.78z"/><path fill="#333" d="M122.46 71.676c0 2.607-2.103 4.72-4.71 4.72-2.602 0-4.714-2.112-4.714-4.72 0-2.602 2.112-4.707 4.714-4.707 2.606 0 4.71 2.1 4.71 4.7z"/><path fill="#F5F5F5" d="M147.764 71.837c0 3.75-3.04 6.792-6.788 6.792-3.752 0-6.792-3.05-6.792-6.8s3.04-6.79 6.792-6.79c3.75 0 6.788 3.03 6.788 6.78z"/><path fill="#333" d="M145.75 71.676c0 2.607-2.107 4.72-4.712 4.72-2.604 0-4.713-2.112-4.713-4.72 0-2.602 2.11-4.707 4.713-4.707 2.605 0 4.712 2.1 4.712 4.7z"/><defs><path id="a" d="M131.62 71.38v11.035s-.492 2.184-3.647 3.154l.425-3.16-.488-11.99"/></defs><clipPath id="b"><use xlink:href="#a" overflow="visible"/></clipPath><path fill="#FF595E" d="M127.62 84.38h3v1h-3z" clip-path="url(#b)"/><path fill="#FF5B5F" d="M127.62 81.38h3v3h-3z" clip-path="url(#b)"/><path fill="#FF5C60" d="M127.62 80.38h3v1h-3z" clip-path="url(#b)"/><path fill="#FF5D61" d="M127.62 78.38h3v2h-3z" clip-path="url(#b)"/><path fill="#FF5E62" d="M127.62 75.38h3v3h-3z" clip-path="url(#b)"/><path fill="#FF5F63" d="M127.62 73.38h3v2h-3z" clip-path="url(#b)"/><path fill="#FF6064" d="M127.62 71.38h3v2h-3zm0-1h3v1h-3z" clip-path="url(#b)"/><path fill="#333" d="M126.235 87.206c-.66 0-1.277-.424-1.486-1.086-.27-.82.19-1.693 1.01-1.957 1.7-.543 2.15-1.287 2.15-1.607l-.01-12.27c0-.86.99-1.56 1.85-1.56.86 0 1.85.7 1.85 1.56v12.13-.002s.08 3.223-4.62 4.722c-.15.045-.61.07-.77.07zm1.805 4.954c-6.114 0-9.97-2.73-10.206-2.9-.7-.51-.852-1.48-.346-2.18.507-.692 1.48-.85 2.17-.347.3.207 7.452 5.154 17.788-.123.77-.385 1.705-.088 2.1.68.39.768.085 1.7-.682 2.094-4.068 2.075-7.734 2.775-10.824 2.775zm17.395-42.087s-6.79 8.247-21.344 9.22l7.12-7.28s-15.76 10.512-23.85 10.512l-1.94.242-2.18 3.518s-6.91-11.16-3.88-17.223c0 0 1.14-1.737-2.74.203 0 0 7.32-19.69 35.09-17.627 0 0 14.96 2.26 16.42 7.478 1.11 3.986-2.67 10.957-2.67 10.957zm-1.942-1.617s0 11.16 3.88 15.525l7.27 1.36s4.62-10.82 4.62-13.73-1.7-12.13-11.892-11.15c-10.18.97-3.87 8.01-3.87 8.01zM131.8 62.63c-.05.04.958-.683 2.482-1.403.75-.414 1.683-.727 2.677-1.147.5-.178 1.03-.32 1.58-.486.55-.144 1.09-.358 1.67-.423 1.15-.14 2.3-.48 3.43-.42 1.12.03 2.19-.1 3.08.1l3.03.55c1.53.28 2.55 1.75 2.27 3.28-.28 1.54-1.75 2.56-3.29 2.28-.13-.02-.26-.06-.39-.1l-.48-.16-2.08-.7c-.62-.27-1.43-.24-2.27-.41-.84-.2-1.79-.04-2.73-.08-.48-.02-.94.1-1.41.15l-1.38.2c-.88.24-1.74.37-2.42.63-1.42.43-2.21.85-2.27.86-.74.43-1.7.17-2.12-.58-.43-.75-.17-1.69.57-2.12zm-7.033 2.702c-.06-.017-.845-.434-2.268-.862-.68-.263-1.54-.398-2.41-.633-.45-.065-.91-.133-1.38-.2-.47-.05-.94-.17-1.42-.144-.94.04-1.88-.125-2.73.08-.84.17-1.65.143-2.27.413l-2.08.7-.46.158c-1.48.498-3.08-.297-3.58-1.77-.5-1.48.29-3.082 1.77-3.584.12-.04.27-.074.4-.1l3.03-.55c.9-.2 1.97-.065 3.08-.093 1.13-.064 2.27.274 3.43.422.58.06 1.12.27 1.67.42.54.16 1.08.31 1.58.48.98.42 1.93.73 2.67 1.14 1.52.72 2.53 1.44 2.48 1.4.75.42 1.01 1.37.58 2.12-.43.75-1.38 1.01-2.13.58z"/></svg>