<?xml version="1.0" encoding="utf-8"?>
<!-- Generator: Adobe Illustrator 16.0.0, SVG Export Plug-In . SVG Version: 6.00 Build 0)  -->
<!DOCTYPE svg PUBLIC "-//W3C//DTD SVG 1.1//EN" "http://www.w3.org/Graphics/SVG/1.1/DTD/svg11.dtd">
<svg version="1.1" id="Layer_1" xmlns="http://www.w3.org/2000/svg" xmlns:xlink="http://www.w3.org/1999/xlink" x="0px" y="0px"
	 width="256px" height="256px" viewBox="0 0 256 256" enable-background="new 0 0 256 256" xml:space="preserve">
<path fill="#333333" d="M154.62,227.016c-0.78,0-1.53-0.367-2.011-1.013c-0.77-1.04-1.299-1.755-1.627-2.326
	c-0.01-0.014-0.02-0.028-0.027-0.043c-0.518-0.817-3.037-5.069-1.814-8.401c0.17-0.676-0.729-3.021-1.85-4.797
	c-0.689-1.096-0.43-2.541,0.6-3.326c0.03-0.02,0.471-0.353,1.18-0.856c-0.039-0.612-0.129-1.276-0.219-2.003
	c-0.061-0.47-0.121-0.956-0.181-1.46c-0.08-0.563-0.149-1.235-0.229-1.924c-0.121-1.13-0.24-2.298-0.5-3.433l-1.28-6.162
	l-1.851-6.291c-0.31-0.789-0.609-1.59-0.92-2.399c-0.479-1.28-0.97-2.61-1.529-3.86c-0.36-0.729-0.7-1.47-1.041-2.22
	c-0.619-1.351-1.199-2.63-1.909-3.78c-0.021-0.029-1.14-2.039-1.69-3l-1.779-2.72c-0.771-1.26-1.641-2.39-2.48-3.5
	c-0.37-0.479-0.73-0.95-1.08-1.43c-0.311-0.36-0.609-0.72-0.9-1.08c-0.359-0.431-0.709-0.851-1.049-1.25
	c-0.25,1.68-0.551,3.29-0.91,4.86c-1.17,5.25-2.791,9.739-4.96,13.709c-1.14,2.19-2.64,4.41-4.45,6.58
	c-2.06,2.36-4.01,4.15-6.01,5.521c-1.82,1.33-4.02,2.53-6.66,3.61c-2.29,0.859-4.46,1.459-6.53,1.8c-1.16,0.2-2.34,0.35-3.59,0.45
	c-0.26,0.109-0.54,0.18-0.82,0.199c-0.05,0.01-1.59,0.15-1.9,1.01c0.4,1.521,1.41,5.801,1.21,9.951
	c1.59,2.939,1.51,6.539,1.43,9.479c-0.02,0.76-0.04,1.489-0.02,2.17c0.02,0.899-0.45,1.74-1.23,2.2l-3.17,1.88
	c-0.39,0.229-0.83,0.35-1.27,0.35c-0.21,0-0.43-0.03-0.64-0.079c-0.65-0.171-1.2-0.601-1.53-1.181L71.99,191.6
	c-0.5-0.88-0.42-1.97,0.202-2.768c0.77-1,1.31-1.689,1.76-2.156c0.02-0.025,0.05-0.054,0.07-0.08c0.61-0.67,3.81-4.027,7.2-4.027
	c0.14,0,0.27,0,0.405,0.011c0.694-0.03,2.712-1.53,4.124-3.09c0.49-0.55,1.17-0.83,1.85-0.83c0.53,0,1.06,0.159,1.51,0.5
	c0.02,0.01,0.33,0.25,0.83,0.64l2.63,0.24c0.24,0.029,0.55,0.029,0.83,0.029h0.93c0.23,0,0.48,0,0.72,0.011
	c1.11-0.04,2.13-0.13,3.11-0.29c1.03-0.16,2.13-0.45,3.38-0.891c1.04-0.439,2.22-0.979,3.25-1.729l0.1-0.069
	c0.9-0.591,1.83-1.44,3.01-2.74c1.04-1.24,1.89-2.48,2.55-3.73c2.85-5.14,4.09-11.5,4.63-16.32c-0.77-0.819-1.39-1.77-1.83-2.819
	l-1.47,0.11c-0.06,0.01-0.13,0.01-0.19,0.01c-0.68,0-1.33-0.28-1.81-0.78c-0.52-0.54-0.76-1.29-0.67-2.04l3.39-26.7
	c-0.9,0.76-1.45,1.4-1.46,1.41c-0.47,0.48-1.11,0.84-1.78,0.84h-0.03c-0.68,0-1.33-0.38-1.79-0.88l-1.96-2.13l-0.55,0.32
	c-0.98,0.62-2,1.24-2.93,1.91c-0.42,0.34-0.86,0.66-1.3,0.98c-0.78,0.58-1.53,1.13-2.1,1.71l-0.38,0.35
	c-0.99,0.9-1.94,1.74-2.65,2.629l-0.12,0.141c-0.79,0.84-1.69,1.85-2.32,2.85c-0.02,0.03-0.04,0.07-0.06,0.1
	c-0.16,0.23-0.33,0.461-0.49,0.69c-0.52,0.72-1.01,1.41-1.28,2.011c-0.02,0.049-0.05,0.1-0.08,0.149l-1.01,1.87
	c2.35,1.8,4.06,3.26,4.15,3.34c4.65,3.76,1.29,8.061-0.72,10.63c-0.47,0.601-0.95,1.22-1.38,1.841c-1.76,2.539-3.7,3.08-5.02,3.08
	c-0.59,0-1.12-0.111-1.58-0.261c-1.22,0.761-2.23,1.181-3,1.25c-0.12,0.011-0.25,0.021-0.39,0.021c-2.59,0-6.15-2.11-6.19-2.131
	c-1.23-0.729-3.25-2.68-4.56-4c-2.56-0.08-4.51-2.58-5.76-4.479c-0.86-1.3-1.14-2.84-0.81-4.45c1.07-5.189,8.47-10.24,9.94-11.199
	c0.29-0.201,0.62-0.361,0.99-0.461l1.53-2.81c0.66-1.33,1.55-2.55,2.41-3.73l0.45-0.62c1.09-1.64,2.48-3.19,3.58-4.35
	c1.3-1.52,2.8-2.84,4.24-4.12c1.06-1.01,2.22-1.86,3.34-2.68c0.48-0.34,0.95-0.69,1.41-1.05l0.09-0.06c0.57-0.4,1.15-0.78,1.72-1.15
	c-0.53-0.93-0.41-2.13,0.35-2.95c6.04-6.43,11.27-9.61,15.47-11.06c-4.02-3.01-6.36-7.42-6.88-13.05
	c-5.59-0.61-8.64-4.38-8.64-10.77c0-3.73,1.46-7.11,3.75-9.07c-1.52-3.45-2.77-7.48-2.5-11.08c-0.43-0.08-0.84-0.28-1.18-0.59
	c-0.76-0.69-1.03-1.77-0.67-2.73c0.3-0.79,7.51-19.41,33.44-19.41c1.359,0,2.77,0.05,4.18,0.15c0.07,0,0.131,0.01,0.19,0.02
	c3.78,0.57,16.03,2.86,18.29,8.79c8.34,0.82,11.41,8.44,11.41,13.65c0,0.67,0,2.67-3.4,11.24c2.26,1.97,3.68,5.32,3.68,9.02
	c0,6.2-2.869,9.93-8.149,10.7c-0.58,6.13-3.36,10.8-8.19,13.83c3.85,1.69,8.45,4.81,13.65,10.35c0.91,0.97,0.91,2.46,0,3.43
	l-0.03,0.03c0.97,0.9,1.91,1.83,2.8,2.77c0.93,0.91,1.76,1.94,2.57,2.94c0.37,0.45,0.73,0.9,1.109,1.34l0.091,0.11
	c0.78,1.03,1.489,2.07,2.17,3.07c0.319,0.46,0.63,0.93,0.95,1.38l0.07,0.11c0.639,1.03,1.189,2.04,1.729,3.02
	c0.26,0.47,0.521,0.94,0.771,1.4c0.549,0.9,0.959,1.85,1.319,2.7l0.2-0.14c1.119-0.781,2.311-1.201,3.49-1.201
	c3.02,0,4.879,2.56,6.52,4.81c0.45,0.62,0.91,1.25,1.38,1.83c1.79,2.18,1.9,4.04,1.69,5.22c-0.141,0.78-0.44,1.41-0.79,1.91
	c0.399,1.39,0.53,2.47,0.37,3.24c-0.5,2.58-3.69,5.61-3.83,5.739c-1.051,0.98-3.48,2.391-5.1,3.281l-0.061,0.149
	c-0.66,1.78-2.51,3.101-5.83,4.149c-0.561,0.181-1.13,0.271-1.71,0.271c-6.22,0-9.86-10.229-10.819-13.36
	c-0.631-1.93,0.449-3.84,1.77-5.439l-0.09-0.34c-0.11-0.461-0.33-1-0.58-1.62c-0.131-0.31-0.26-0.63-0.381-0.96
	c-0.17-0.4-0.33-0.811-0.489-1.24c-0.25-0.68-0.49-1.311-0.81-1.87c-0.281-0.53-0.521-1.01-0.761-1.5
	c-0.351-0.69-0.7-1.41-1.09-2.09c-0.3-0.46-0.59-0.92-0.89-1.4c-0.43-0.69-0.881-1.41-1.351-2.07c-0.36-0.44-0.7-0.9-1.05-1.36
	c-0.529-0.72-1.04-1.39-1.58-1.96c-0.65-0.74-1.311-1.44-1.98-2.11l-2.27,2.49c-0.47,0.5-1.12,0.88-1.8,0.88h-0.021
	c-0.369,0-0.72-0.17-1.039-0.32l3.119,22.19c0.1,0.681-0.1,1.351-0.529,1.89c-0.43,0.541-1.07,0.86-1.75,0.92l-2.551,0.19
	c0.49,0.57,0.99,1.16,1.51,1.771l0.891,1.05l0.1,0.12c0.36,0.49,0.74,0.979,1.121,1.47c1.1,1.42,2.229,2.88,3.27,4.521l2.07,3.149
	l0.08,0.13l1.939,3.391c0.96,1.56,1.76,3.27,2.54,4.93c0.36,0.77,0.72,1.54,1.101,2.3c0.01,0.03,0.029,0.06,0.039,0.09
	c0.76,1.681,1.41,3.38,2.04,5.03c0.32,0.82,0.63,1.64,0.95,2.449c0.029,0.07,0.05,0.141,0.07,0.201l2.22,7.35
	c0.021,0.07,0.03,0.13,0.05,0.199l1.51,7c0.36,1.561,0.541,3.101,0.69,4.471c0.08,0.689,0.16,1.359,0.26,2.02l0.06,0.45
	c0.621,0.44,1.121,1.021,1.471,1.72c0.25,0.511,0.33,1.08,0.21,1.631c-0.011,0.05-0.29,1.57,0.45,2.1c1.529,0.03,5.96,0.21,9.9,1.52
	c0.739-0.17,1.529-0.25,2.359-0.25c2.48,0,4.95,0.75,7.13,1.42c0.72,0.221,1.431,0.431,2.091,0.601
	c0.869,0.229,1.559,0.91,1.789,1.78l0.95,3.56c0.17,0.65,0.08,1.341-0.271,1.92c-0.35,0.58-0.899,0.99-1.549,1.15l-34.131,8.479
	c-0.21,0.04-0.41,0.07-0.609,0.07L154.62,227.016z"/>
<path fill="#333333" d="M127.69,31.485c1.283,0,2.615,0.05,3.998,0.15c0,0,14.957,2.26,16.416,7.48
	c0.109,0.397,0.16,0.83,0.184,1.275c0.186-0.007,0.365-0.01,0.544-0.01c8.899,0,10.44,8.46,10.44,11.228
	c0,1.99-2.15,7.667-3.521,11.066l0.04,0.012l-0.41,1.18c2.41,1.035,4.17,4.223,4.17,7.998c0,7.486-4.57,8.352-7.81,8.352
	c-0.08,0-0.15-0.012-0.229-0.018c-0.031,10.898-7.051,15.29-13.801,16.913l0.02,0.28h0.15c4.01,0,10.78,1.75,19.66,11.22l-1.79,1.84
	c1.58,1.35,3.12,2.76,4.58,4.3c1.31,1.3,2.41,2.79,3.59,4.17c1.101,1.44,2.06,2.94,3.06,4.36c0.91,1.47,1.67,2.95,2.451,4.33
	c0.83,1.37,1.289,2.78,1.889,4.02c0.181,0.43,0.361,0.84,0.541,1.24c1.57-1.12,2.66-1.84,2.66-1.84
	c0.779-0.551,1.479-0.78,2.109-0.78c2.311,0,3.85,3.14,5.98,5.74c2.72,3.319-0.021,4.89-0.021,4.89s0.94,2.54,0.771,3.4
	c-0.26,1.33-2.12,3.49-3.101,4.41c-1.239,1.17-5.8,3.57-5.8,3.57s1.12,1.77-4.22,3.459c-0.32,0.101-0.64,0.15-0.95,0.15
	c-4.859,0-8.439-11.59-8.439-11.59c-0.32-0.971,0.64-2.45,2.17-4.07l-0.44-1.55c-0.22-0.92-0.67-1.87-1.07-2.94
	c-0.46-1.039-0.79-2.27-1.43-3.399c-0.61-1.15-1.19-2.41-1.89-3.65c-0.78-1.18-1.51-2.46-2.371-3.68
	c-0.939-1.14-1.77-2.43-2.81-3.53c-1.229-1.39-2.54-2.71-3.89-3.93l-3.98,4.23c0,0-1.8-1.84-4.38-3.55l3.99,28.41l-7.74,0.6
	c0.53,0.53,1.06,1.07,1.601,1.66c1.42,1.44,2.789,3.131,4.289,4.881c1.381,1.829,2.94,3.699,4.271,5.819l2.101,3.19
	c0.64,1.119,1.289,2.25,1.939,3.39c1.38,2.25,2.38,4.729,3.58,7.11c1.1,2.43,1.971,4.939,2.939,7.379l2.221,7.351
	c0.52,2.431,1.04,4.78,1.52,7.011c0.51,2.219,0.631,4.369,0.93,6.329c0.07,0.601,0.15,1.19,0.221,1.761
	c0.68,0.14,1.22,0.549,1.54,1.199c0,0-0.851,4.17,2.36,5.17h0.16c0.969,0,6.069,0.03,10.189,1.59c-0.01,0-0.08-0.02-0.09-0.02
	l-0.04-0.02V211c1-0.26,1.68-0.38,2.521-0.38c2.899,0,6.069,1.29,8.639,1.95l0.971,3.56l-34.12,8.479c0,0-1.62-2.189-1.53-2.225
	l-0.02,0.004c0,0-2.439-3.861-1.58-6.201c0.859-2.35-2.09-6.994-2.09-6.994s0.88-0.67,2.21-1.56c0-0.09-0.011-0.17-0.011-0.27
	c0.011-1.45-0.26-2.99-0.459-4.75c-0.26-1.75-0.33-3.657-0.78-5.63c-0.41-1.98-0.851-4.061-1.3-6.221
	c-0.621-2.115-1.26-4.289-1.92-6.5c-0.851-2.146-1.601-4.369-2.551-6.51c-1.039-2.095-1.88-4.296-3.1-6.25
	c-0.561-1.01-1.12-2-1.67-2.986c-0.61-0.942-1.221-1.869-1.82-2.789c-1.15-1.865-2.51-3.49-3.689-5.11
	c-1.291-1.521-2.461-3.013-3.68-4.25c-0.721-0.793-1.421-1.511-2.101-2.17c-0.25,3.01-0.66,6.36-1.47,9.944
	c-0.94,4.221-2.37,8.75-4.72,13.061c-1.13,2.17-2.57,4.25-4.17,6.17c-1.65,1.89-3.47,3.66-5.5,5.05c-1.99,1.45-4.13,2.511-6.2,3.36
	c-2.09,0.79-4.11,1.34-5.99,1.65c-1.44,0.25-2.8,0.39-4.03,0.469c-0.04,0.051-0.08,0.101-0.13,0.15c0,0-4.13,0.271-4.3,3.65
	c0,0,1.65,5.55,1.21,10.42c-0.01-0.01-0.01-0.016-0.02-0.02l0.02,0.02c2.07,3.04,1.39,7.65,1.46,11.07l-3.17,1.88l-17.34-30.601
	c0,0,1.6-2.072,1.71-2.072l-0.01-0.021c0,0,2.89-3.2,5.35-3.2c0.07,0,0.14,0,0.21,0.01h0.17c2.49,0,6.01-3.91,6.01-3.91
	s0.85,0.641,2.04,1.65l0.07-0.51l2.51,0.23c0.36,0.05,0.75,0.06,1.17,0.06c0.29,0,0.6-0.01,0.93-0.01c0.23,0,0.47,0,0.72,0.01
	c1.07-0.03,2.26-0.13,3.52-0.33c1.25-0.2,2.55-0.55,3.87-1.021c1.28-0.539,2.6-1.149,3.82-2.039c1.26-0.82,2.4-1.94,3.5-3.16
	c1.06-1.27,2.07-2.66,2.9-4.24c3.17-5.71,4.51-12.83,5.04-18.48c-1.36-1.049-2.33-2.629-2.63-4.47l-3.48,0.271l4.09-32.21
	c-3.63,1.91-6.43,4.77-6.43,4.77l-3.3-3.51c-0.48,0.27-0.97,0.54-1.47,0.8c-1.33,0.84-2.72,1.67-4,2.6
	c-1.24,0.99-2.6,1.85-3.68,2.94c-1.15,1.04-2.29,2.04-3.2,3.165c-0.99,1.064-1.91,2.12-2.61,3.23c-0.75,1.076-1.53,2.06-2,3.105
	c-0.54,1.01-1.03,1.93-1.47,2.75c-0.15,0.4-0.29,0.78-0.42,1.13c3.1,2.28,5.61,4.421,5.61,4.421c3.45,2.789-0.1,5.619-2.53,9.149
	c-1.08,1.56-2.13,2-2.97,2c-1.04,0-1.74-0.681-1.74-0.681s-2.19,1.601-3.05,1.681c-0.06,0-0.13,0.01-0.19,0.01
	c-1.39,0-3.8-1.12-4.91-1.78c-1.46-0.869-5.02-4.6-5.02-4.6s-0.23,0.25-0.69,0.25c-0.7,0-1.94-0.561-3.8-3.35
	c-3.1-4.66,8.41-12.17,8.41-12.17c0.24-0.16,0.55-0.24,0.91-0.24c0.11,0,0.22,0.01,0.34,0.02l0.15-0.39
	c0.58-1.07,1.25-2.28,1.96-3.61c0.67-1.36,1.66-2.64,2.67-4.04c0.96-1.44,2.14-2.79,3.42-4.14c1.2-1.43,2.63-2.68,4.08-3.96
	c1.4-1.35,3.03-2.39,4.57-3.58c1.35-0.95,2.75-1.8,4.14-2.64l-1.69-1.79c8.87-9.46,15.65-11.36,19.65-11.36
	c0.65,0,1.23,0.05,1.74,0.13l0.06-0.54c-6.38-1.83-12.31-6.2-12.32-16.56c-0.22,0.05-0.45,0.08-0.71,0.08
	c-3.23,0-7.81-0.87-7.81-8.35c0-3.93,1.91-7.21,4.47-8.1c-1.84-3.65-4.63-10.43-2.49-14.7c0,0,0.46-0.71-0.23-0.71
	c-0.38,0-1.13,0.22-2.52,0.92c0,0,6.61-17.78,31.1-17.78"/>
<path fill="#333333" d="M127.851,26.601c-27.65,0-35.46,20.18-35.78,21.04c-0.72,1.92-0.18,4.09,1.34,5.46
	c0.11,0.09,0.22,0.19,0.34,0.27c0.1,3.01,0.96,6.12,2.07,8.95c-2.06,2.44-3.29,5.87-3.29,9.65c0,6.9,3.25,11.5,8.9,12.9
	c0.67,3.98,2.24,7.39,4.64,10.14c-3.77,1.94-8.09,5.1-12.81,10.13c-0.93,0.99-1.38,2.27-1.35,3.54l-0.33,0.23
	c-0.06,0.04-0.12,0.09-0.17,0.13c-0.44,0.35-0.89,0.68-1.35,1.01c-1.11,0.81-2.36,1.73-3.54,2.85c-1.49,1.32-3.03,2.67-4.43,4.31
	c-1.15,1.21-2.58,2.81-3.8,4.62l-0.39,0.54c-0.91,1.26-1.86,2.55-2.6,4.05l-0.94,1.74l-0.14,0.25c-0.22,0.12-0.42,0.239-0.6,0.36
	c-2.3,1.51-9.76,6.789-10.99,12.77c-0.47,2.279-0.07,4.47,1.17,6.34c0.82,1.24,3.14,4.75,6.68,5.46c1.45,1.431,3.19,3.03,4.44,3.771
	c0.42,0.26,4.25,2.479,7.46,2.479c0.21,0,0.41-0.01,0.61-0.021c0.44-0.029,1.43-0.109,3.19-1.069c0.37,0.06,0.77,0.101,1.19,0.101
	c1.57,0,4.58-0.541,7.08-4.16c0.38-0.551,0.83-1.121,1.29-1.721c1.27-1.619,2.58-3.3,3.21-5.38c0.98-3.25-0.07-6.43-2.87-8.729
	c-0.23-0.19-1.17-0.99-2.53-2.07l0.01-0.02c0.05-0.101,0.11-0.211,0.15-0.32c0.16-0.37,0.6-0.98,1.03-1.57
	c0.17-0.23,0.34-0.47,0.51-0.71c0.04-0.06,0.09-0.13,0.13-0.2c0.52-0.83,1.32-1.72,2.03-2.48c0.08-0.09,0.16-0.18,0.24-0.279
	c0.58-0.73,1.45-1.51,2.37-2.34l0.27-0.24c0.07-0.07,0.14-0.13,0.21-0.2c0.44-0.45,1.11-0.94,1.81-1.46
	c0.43-0.32,0.87-0.65,1.33-1.01c0.49-0.36,1.02-0.7,1.56-1.05l0.56,0.43c0.94,0.99,2.23,1.41,3.59,1.41h0.05
	c0.05,0,0.1,0.16,0.15,0.16l-2.77,21.899c-0.19,1.49,0.3,3.03,1.34,4.12c0.95,1,2.26,1.57,3.62,1.57c0.07,0,0.14,0.01,0.21,0.01
	c0.21,0.341,0.43,0.67,0.67,0.979c-0.57,4.421-1.74,9.891-4.18,14.271l-0.05,0.101c-0.56,1.06-1.29,2.14-2.25,3.289
	c-0.64,0.701-1.56,1.67-2.46,2.25l-0.2,0.141c-0.8,0.58-1.75,1.029-2.67,1.42c-1.07,0.37-2.01,0.62-2.84,0.75
	c-0.89,0.141-1.78,0.23-2.75,0.27c-0.25-0.01-0.48-0.01-0.71-0.01h-0.93c-0.34,0-0.45-0.01-0.48-0.02l-0.24-0.03
	c-0.75-0.069-1.34-0.12-1.76-0.16l-0.29-0.22c-0.9-0.68-1.96-1.01-3.01-1.01c-1.37,0-2.73,0.729-3.72,1.82
	c-0.81,0.889-2.02,1.399-2.66,2.399h-0.01c-4.34,0-8.03,3.55-9.06,4.69c-0.07,0.08-0.13,0.069-0.19,0.149
	c-0.55,0.58-1.11,1.261-1.76,2.101c-1.24,1.59-1.4,3.76-0.41,5.52l17.34,30.6c0.66,1.17,1.77,2.021,3.07,2.36
	c0.42,0.11,0.85,0.17,1.28,0.17c0.89,0,1.77-0.239,2.55-0.7l3.17-1.88c1.55-0.92,2.48-2.6,2.45-4.399c-0.01-0.61,0-1.311,0.02-2.061
	c0.07-3.06,0.16-6.75-1.41-10.1c0.06-3.01-0.4-5.95-0.83-7.99c0.19-0.04,0.37-0.1,0.55-0.16c1.13-0.1,2.22-0.25,3.31-0.439
	c2.19-0.371,4.52-1.01,6.89-1.9l0.14-0.061c2.79-1.149,5.14-2.43,7.18-3.899c2.15-1.479,4.24-3.39,6.39-5.84l0.07-0.091
	c1.91-2.289,3.51-4.649,4.74-7.02c2.21-4.07,3.88-8.63,5.09-13.92c0.7,0.91,1.35,1.79,1.92,2.71l0.08,0.11l0.13,0.21
	c0.529,0.8,1.061,1.62,1.6,2.45c0.53,0.939,1.061,1.88,1.59,2.83l0.11,0.189c0.63,1.02,1.181,2.23,1.771,3.51
	c0.33,0.73,0.68,1.48,1.05,2.24c0.51,1.16,0.97,2.38,1.45,3.67c0.289,0.79,0.59,1.57,0.899,2.35l0.46,1.58l1.33,4.5l0.98,4.711
	l0.27,1.31l0.01,0.08c0.221,0.989,0.34,2.04,0.45,3.149c0.07,0.65,0.14,1.33,0.24,2.021c0.06,0.49,0.12,0.96,0.18,1.41l0.07,0.51
	l-0.06,0.04c-2.061,1.58-2.58,4.471-1.19,6.66c0.64,1.01,1.28,2.439,1.44,3.15c-1.17,4.16,1.39,8.699,2.229,10.039l0.13,0.19
	c0.42,0.7,0.98,1.45,1.631,2.319c0.959,1.301,2.459,2.031,4.02,2.031c0.4,0,0.8-0.051,1.199-0.15l34.131-8.471
	c1.3-0.319,2.42-1.149,3.1-2.31s0.87-2.53,0.53-3.83l-0.95-3.56c-0.471-1.75-1.84-3.11-3.59-3.561c-0.59-0.15-1.27-0.359-1.99-0.57
	c-2.35-0.709-5-1.52-7.859-1.52c-0.761,0-1.5,0.061-2.221,0.18c-2.88-0.869-5.85-1.22-7.949-1.35c0.029-0.83-0.15-1.67-0.521-2.43
	c-0.36-0.711-0.81-1.351-1.36-1.891c-0.06-0.46-0.119-0.96-0.18-1.47c-0.16-1.42-0.35-3.03-0.74-4.74l-0.68-3.14
	c-0.27-1.25-0.54-2.53-0.82-3.84c-0.029-0.131-0.061-0.26-0.1-0.391l-1.54-5.109l-0.681-2.24c-0.039-0.141-0.09-0.27-0.14-0.41
	c-0.319-0.79-0.63-1.6-0.93-2.41c-0.65-1.68-1.31-3.42-2.101-5.17l-0.09-0.18c-0.359-0.721-0.699-1.46-1.07-2.24
	c-0.799-1.689-1.619-3.449-2.67-5.18l-1.5-2.62l-0.399-0.7c-0.05-0.09-0.101-0.17-0.16-0.26l-1.899-2.9l-0.16-0.25
	c-1.101-1.729-2.311-3.3-3.371-4.68c-0.309-0.391-0.6-0.779-0.899-1.16c0.591-0.32,1.12-0.75,1.55-1.279
	c0.86-1.08,1.24-2.461,1.051-3.83l-2.74-19.5c0.68-0.26,1.3-0.68,1.82-1.22l0.439-0.47l0.05,0.06l0.12,0.13
	c0.45,0.47,0.91,1.09,1.4,1.74c0.33,0.44,0.67,0.9,1.05,1.36c0.41,0.59,0.81,1.22,1.22,1.891c0.29,0.469,0.58,0.93,0.87,1.379
	c0.34,0.601,0.649,1.23,0.99,1.9c0.25,0.51,0.5,1,0.75,1.48l0.069,0.129c0.221,0.381,0.42,0.931,0.641,1.511
	c0.16,0.42,0.32,0.851,0.51,1.3l0.38,0.96l0.22,0.53c-1.18,1.73-2.199,4.09-1.369,6.689c1.41,4.561,5.51,15.09,13.209,15.09
	c0.83,0,1.65-0.129,2.461-0.379c2.39-0.761,5.63-2.08,7.09-4.92c1.779-1,3.79-2.24,4.85-3.23c0.66-0.62,3.961-3.86,4.59-7.1
	c0.08-0.42,0.28-1.391-0.16-3.351c0.261-0.55,0.461-1.16,0.58-1.81c0.311-1.7,0.181-4.33-2.209-7.25
	c-0.431-0.53-0.851-1.11-1.301-1.721c-1.789-2.47-4.25-5.85-8.55-5.85c-0.851,0-1.7,0.14-2.54,0.43c-0.1-0.19-0.21-0.39-0.33-0.58
	c-0.24-0.43-0.48-0.87-0.73-1.32c-0.549-1.01-1.119-2.05-1.799-3.14l-0.141-0.21l-0.93-1.35c-0.7-1.04-1.43-2.1-2.25-3.19
	c-0.061-0.08-0.12-0.15-0.18-0.22c-0.36-0.43-0.711-0.86-1.061-1.29c-0.8-0.98-1.699-2.09-2.75-3.14c-0.49-0.52-0.99-1.03-1.51-1.53
	c0.4-1.6,0-3.36-1.21-4.64c-3.931-4.2-7.591-7.09-10.88-9.06c3.1-2.95,5.08-6.77,5.859-11.34c5.34-1.55,8.41-6.08,8.41-12.77
	c0-3.77-1.21-7.18-3.26-9.62c2.98-7.75,2.98-9.74,2.98-10.64c0-5.88-3.34-14.34-12.281-15.96c-3.68-5.93-14.629-8.22-19.539-8.96
	c-0.12-0.02-0.25-0.03-0.381-0.04c-1.469-0.1-2.939-0.16-4.37-0.16L127.851,26.601z"/>
<path d="M128.604,141.104c0,0,0.025,0.308,0.068,0.881c0.021,0.539,0.061,1.324,0.105,2.33c0.063,1.987,0.078,4.795-0.146,8.168
	c-0.226,3.379-0.646,7.326-1.6,11.553c-0.944,4.22-2.367,8.747-4.717,13.063c-1.132,2.166-2.57,4.244-4.175,6.17
	c-1.65,1.891-3.467,3.66-5.504,5.051c-1.99,1.445-4.135,2.51-6.206,3.359c-2.093,0.784-4.116,1.336-5.99,1.647
	c-1.87,0.323-3.588,0.465-5.082,0.524c-1.483-0.018-2.81,0.059-3.846-0.053c-2.088-0.18-3.28-0.286-3.28-0.286l1.452-11.2
	c0,0,0.913,0.09,2.51,0.23c0.803,0.109,1.73,0.03,2.82,0.07c1.067-0.03,2.262-0.12,3.513-0.33c1.257-0.19,2.552-0.551,3.87-1.01
	c1.282-0.53,2.605-1.15,3.823-2.041c1.26-0.819,2.396-1.939,3.497-3.149c1.06-1.26,2.07-2.66,2.902-4.24
	c3.47-6.25,4.75-14.22,5.17-20.069c0.22-2.94,0.22-5.42,0.18-7.131c-0.03-0.84-0.06-1.5-0.08-1.959l-0.04-0.631l10.74-0.91
	L128.604,141.104z"/>
<path d="M128.158,139.796c0,0,0.292,0.197,0.832,0.572c0.637,0.435,1.388,1.018,2.34,1.764c1.846,1.538,4.455,3.724,7.18,6.681
	c1.42,1.436,2.792,3.125,4.283,4.877c1.38,1.83,2.939,3.699,4.275,5.819c0.688,1.04,1.39,2.101,2.098,3.181
	c0.641,1.109,1.29,2.24,1.939,3.379c1.383,2.24,2.383,4.721,3.578,7.111c1.094,2.42,1.969,4.939,2.939,7.369l2.22,7.35
	c0.522,2.431,1.034,4.781,1.515,7c0.508,2.221,0.623,4.371,0.922,6.33c0.229,1.961,0.529,3.771,0.539,5.371l0.181,4.14l0.149,3.61
	H151.85l-0.131-3.261c-0.039-1.04-0.08-2.3-0.14-3.739c0.01-1.451-0.271-3.061-0.46-4.82c-0.26-1.75-0.34-3.69-0.78-5.66
	c-0.42-1.98-0.851-4.07-1.3-6.24c-0.63-2.109-1.27-4.3-1.92-6.51c-0.86-2.141-1.6-4.38-2.551-6.51
	c-1.049-2.101-1.889-4.301-3.1-6.26c-0.57-1.011-1.119-2-1.68-2.98c-0.62-0.95-1.221-1.88-1.82-2.801
	c-1.15-1.869-2.51-3.489-3.699-5.109c-1.291-1.52-2.471-3.02-3.69-4.25c-2.35-2.59-4.55-4.439-6.05-5.72
	c-0.77-0.61-1.38-1.091-1.71-1.32c-0.42-0.3-0.64-0.46-0.64-0.46l5.95-8.99L128.158,139.796z"/>
<path d="M93.178,207.986l0.015,0.022c0.44-4.87-1.21-10.42-1.21-10.42c0.168-3.39,4.296-3.649,4.296-3.649
	c3.75-3.391-8.7-12.78-8.7-12.78s-3.69,4.08-6.18,3.899c-2.5-0.199-5.56,3.19-5.56,3.19l0.01,0.021
	c-0.06-0.08-1.73,2.069-1.73,2.069l17.34,30.601l3.17-1.881c-0.07-3.43,0.61-8.06-1.48-11.1L93.178,207.986z"/>
<path d="M176.729,210.92l0.023-0.008c-4.57-1.73-10.354-1.637-10.354-1.637c-3.219-1.065-2.359-5.114-2.359-5.114
	c-2.26-4.521-14.65,4.94-14.65,4.94s2.94,4.649,2.09,7c-0.859,2.35,1.58,6.209,1.58,6.209h0.021c-0.09,0.041,1.53,2.23,1.53,2.23
	l34.13-8.47l-0.95-3.56c-3.33-0.851-7.6-2.75-11.08-1.561L176.729,210.92z"/>
<ellipse cx="121.512" cy="147.661" rx="6.59" ry="7.013"/>
<path fill="#F2C49C" d="M174.466,130.984c0,0-14.802,9.791-13.67,13.227c0,0,4.05,13.13,9.388,11.45
	c5.33-1.681,4.217-3.45,4.217-3.45s4.57-2.4,5.811-3.561c0.98-0.92,2.84-3.09,3.1-4.409c0.17-0.851-0.77-3.4-0.77-3.4
	s2.74-1.569,0.02-4.89c-2.709-3.311-4.449-7.49-8.08-4.95L174.466,130.984z"/>
<path fill="#F2C49C" d="M124.093,111.618l-0.58,0.108c-0.35,0.075-0.86,0.187-1.51,0.332c-1.363,0.306-3.345,0.85-5.676,1.613
	c-2.32,0.81-5.02,1.79-7.75,3.15c-1.41,0.61-2.724,1.45-4.14,2.18c-1.33,0.84-2.713,1.67-4,2.6c-1.232,0.99-2.596,1.85-3.676,2.94
	c-1.14,1.04-2.28,2.04-3.19,3.17c-0.99,1.061-1.91,2.12-2.61,3.23c-0.75,1.08-1.53,2.06-2,3.109c-0.54,1.01-1.03,1.93-1.47,2.75
	l-0.83,2.25c-0.47,1.25-0.75,1.95-0.75,1.95l-10.45-3.229l0.99-2.58c0.33-0.811,0.71-1.801,1.16-2.94c0.58-1.08,1.25-2.29,1.96-3.61
	c0.67-1.359,1.66-2.649,2.66-4.04c0.96-1.44,2.14-2.79,3.42-4.14c1.21-1.42,2.63-2.68,4.08-3.96c1.4-1.35,3.03-2.39,4.57-3.58
	c1.58-1.11,3.24-2.09,4.86-3.08c1.67-0.85,3.27-1.82,4.91-2.52c3.22-1.55,6.34-2.65,9.02-3.55c2.71-0.85,5-1.45,6.64-1.81
	c0.8-0.18,1.51-0.32,2-0.41l0.67-0.12l1.72,10.23L124.093,111.618z"/>
<path fill="#F2C49C" d="M135.178,99.568c0,0,0.23,0.052,0.666,0.16c0.522,0.12,1.162,0.313,1.947,0.56
	c1.57,0.517,3.77,1.28,6.25,2.5c1.27,0.556,2.55,1.323,3.939,2.072c1.34,0.85,2.791,1.67,4.17,2.715
	c2.841,1.973,5.611,4.433,8.15,7.112c1.32,1.3,2.41,2.802,3.59,4.184c1.101,1.45,2.07,2.95,3.061,4.37
	c0.92,1.47,1.67,2.95,2.46,4.33c0.819,1.371,1.29,2.781,1.89,4.02c0.53,1.271,1.11,2.41,1.41,3.479c0.35,1.061,0.66,1.971,0.91,2.73
	l0.779,2.381l-10.58,2.779l-0.59-2.02c-0.189-0.65-0.41-1.431-0.67-2.33c-0.22-0.92-0.67-1.86-1.08-2.93
	c-0.449-1.041-0.789-2.271-1.43-3.4c-0.609-1.16-1.189-2.42-1.89-3.65c-0.78-1.18-1.511-2.46-2.37-3.68
	c-0.939-1.14-1.77-2.43-2.811-3.53c-2-2.26-4.199-4.38-6.479-6.09c-1.101-0.91-2.29-1.62-3.351-2.37
	c-1.129-0.65-2.17-1.34-3.199-1.82c-2.01-1.09-3.77-1.77-4.98-2.22l-1.31-0.44c-0.33-0.09-0.5-0.14-0.5-0.14l2.08-8.74
	L135.178,99.568z"/>
<path fill="#082031" d="M133.75,97.94c0,0,8.957-5.26,23.76,10.514l-12.464,13.242c0,0-7.593-7.79-14.022-6.23"/>
<path fill="#082031" d="M144.654,146.795l-33.108,2.71l7.014-55.124h18.697L144.654,146.795z"/>
<path fill="#F2C49C" d="M92.675,142.323c0,0-13.496-11.54-16.483-9.503c0,0-11.508,7.511-8.415,12.181
	c3.09,4.67,4.488,3.11,4.488,3.11s3.56,3.729,5.024,4.6c1.15,0.689,3.75,1.88,5.09,1.77c0.86-0.069,3.05-1.67,3.05-1.67
	s2.27,2.2,4.7-1.319c2.43-3.521,5.98-6.351,2.53-9.14L92.675,142.323z"/>
<path fill="#082031" d="M120.508,97.94c0,0-8.962-5.26-23.76,10.514l12.464,13.242c0,0,7.597-7.79,14.02-6.23"/>
<path fill="#C69C6D" d="M134.918,95.21l-7.01,10.128l-7.79-10.907"/>
<path fill="#E2B593" d="M147.824,71.864c0,4.613,0.668,8.352,3.904,8.352c3.232,0,7.81-0.865,7.81-8.352
	c0-4.613-2.624-8.354-5.858-8.354C150.447,63.51,147.824,67.25,147.824,71.864z"/>
<path fill="#C69C6D" d="M148.793,71.83c0.016-1.29,0.28-2.76,0.913-4.014c0.321-0.636,0.729-1.257,1.304-1.792
	c0.573-0.523,1.385-0.973,2.33-0.986c0.36,0.034,0.285,0.003,0.622,0.072c0.272,0.06,0.503,0.14,0.683,0.23
	c0.402,0.174,0.727,0.426,1.029,0.684c0.567,0.535,0.348,1.156,0.666,1.792c0.633,1.28,0.28,2.664,0.28,4.048v0.158
	c0,0.907-0.082,1.65-0.99,1.662c-0.905,0.01-1.333-0.716-1.34-1.623c0-0.06,0.163-0.13,0.166-0.19c0.101-0.91,0.106-1.9-0.19-2.74
	c-0.277-0.87-0.81-1.42-0.961-1.47c-0.101-0.05-0.343-0.04-0.671,0.18c-0.315,0.22-1.187,0.58-1.452,1.01
	c-0.551,0.88-1.561,1.88-1.561,3.07v0.05c0,0.54,0.02,0.92-0.51,0.87c-0.49-0.05-0.311-0.48-0.311-0.97L148.793,71.83z"/>
<path fill="#E2B593" d="M109.083,71.864c0,4.613-0.672,8.352-3.903,8.352c-3.235,0-7.813-0.865-7.813-8.352
	c0-4.613,2.622-8.354,5.856-8.354C106.459,63.51,109.083,67.25,109.083,71.864z"/>
<path fill="#C69C6D" d="M108.11,71.83c-0.012-1.29-0.28-2.76-0.912-4.014c-0.32-0.636-0.73-1.257-1.303-1.792
	c-0.57-0.523-1.385-0.973-2.33-0.986c-0.358,0.034-0.286,0.003-0.62,0.072c-0.275,0.06-0.506,0.14-0.685,0.23
	c-0.403,0.174-0.727,0.426-1.024,0.684c-0.575,0.535-0.685,1.156-1.007,1.792c-0.64,1.28-0.61,2.664-0.61,4.048v0.158
	c0,0.907,0.41,1.65,1.32,1.662c0.9,0.01,1.49-0.716,1.51-1.623c0-0.06-0.09-0.13-0.09-0.19c-0.11-0.91-0.06-1.9,0.24-2.74
	c0.27-0.87,0.82-1.42,0.98-1.47c0.1-0.05,0.35-0.04,0.67,0.18c0.31,0.22,0.64,0.58,0.91,1.01c0.56,0.88,0.88,1.88,1.01,3.07v0.05
	c0.05,0.54,0.53,0.92,1.06,0.87c0.5-0.05,0.87-0.48,0.86-0.97L108.11,71.83z"/>
<path fill="#F2C49C" d="M151.498,80.113c0,16.407-15.768,17.827-22.803,17.827c-8.006,0-22.805-1.42-22.805-17.827
	c0-16.412-1.695-37.48,22.805-37.48C153.439,42.631,151.498,63.701,151.498,80.113L151.498,80.113z"/>
<path fill="#333333" d="M101.604,61.88l4.373,12.613l6.303-14.72 M155.783,62.686l-4.152,11.807l-6.3-14.72"/>
<path fill="#F5F5F5" d="M124.474,71.837c0,3.75-3.035,6.792-6.79,6.792c-3.744,0-6.784-3.05-6.784-6.8s3.04-6.79,6.785-6.79
	c3.753,0,6.79,3.03,6.79,6.78L124.474,71.837z"/>
<path fill="#333333" d="M122.46,71.676c0,2.607-2.103,4.72-4.71,4.72c-2.602,0-4.714-2.112-4.714-4.72
	c0-2.602,2.112-4.707,4.714-4.707c2.606,0,4.71,2.1,4.71,4.7V71.676z"/>
<path fill="#F5F5F5" d="M147.764,71.837c0,3.75-3.039,6.792-6.787,6.792c-3.752,0-6.793-3.05-6.793-6.8s3.041-6.79,6.793-6.79
	c3.75,0,6.787,3.03,6.787,6.78V71.837z"/>
<path fill="#333333" d="M145.75,71.676c0,2.607-2.107,4.72-4.712,4.72s-4.713-2.112-4.713-4.72c0-2.602,2.11-4.707,4.713-4.707
	c2.604,0,4.712,2.1,4.712,4.7V71.676z"/>
<g>
	<defs>
		<path id="SVGID_1_" d="M131.62,71.38v11.035c0,0-0.492,2.184-3.647,3.154l0.425-3.16l-0.488-11.99"/>
	</defs>
	<clipPath id="SVGID_2_">
		<use xlink:href="#SVGID_1_"  overflow="visible"/>
	</clipPath>
	<path clip-path="url(#SVGID_2_)" fill="#FF595E" d="M127.62,84.38h3v1h-3V84.38z"/>
</g>
<g>
	<defs>
		<path id="SVGID_3_" d="M131.62,71.38v11.035c0,0-0.492,2.184-3.647,3.154l0.425-3.16l-0.488-11.99"/>
	</defs>
	<clipPath id="SVGID_4_">
		<use xlink:href="#SVGID_3_"  overflow="visible"/>
	</clipPath>
	<path clip-path="url(#SVGID_4_)" fill="#FF5B5F" d="M127.62,81.38h3v3h-3V81.38z"/>
</g>
<g>
	<defs>
		<path id="SVGID_5_" d="M131.62,71.38v11.035c0,0-0.492,2.184-3.647,3.154l0.425-3.16l-0.488-11.99"/>
	</defs>
	<clipPath id="SVGID_6_">
		<use xlink:href="#SVGID_5_"  overflow="visible"/>
	</clipPath>
	<path clip-path="url(#SVGID_6_)" fill="#FF5C60" d="M127.62,80.38h3v1h-3V80.38z"/>
</g>
<g>
	<defs>
		<path id="SVGID_7_" d="M131.62,71.38v11.035c0,0-0.492,2.184-3.647,3.154l0.425-3.16l-0.488-11.99"/>
	</defs>
	<clipPath id="SVGID_8_">
		<use xlink:href="#SVGID_7_"  overflow="visible"/>
	</clipPath>
	<path clip-path="url(#SVGID_8_)" fill="#FF5D61" d="M127.62,78.38h3v2h-3V78.38z"/>
</g>
<g>
	<defs>
		<path id="SVGID_9_" d="M131.62,71.38v11.035c0,0-0.492,2.184-3.647,3.154l0.425-3.16l-0.488-11.99"/>
	</defs>
	<clipPath id="SVGID_10_">
		<use xlink:href="#SVGID_9_"  overflow="visible"/>
	</clipPath>
	<path clip-path="url(#SVGID_10_)" fill="#FF5E62" d="M127.62,75.38h3v3h-3V75.38z"/>
</g>
<g>
	<defs>
		<path id="SVGID_11_" d="M131.62,71.38v11.035c0,0-0.492,2.184-3.647,3.154l0.425-3.16l-0.488-11.99"/>
	</defs>
	<clipPath id="SVGID_12_">
		<use xlink:href="#SVGID_11_"  overflow="visible"/>
	</clipPath>
	<path clip-path="url(#SVGID_12_)" fill="#FF5F63" d="M127.62,73.38h3v2h-3V73.38z"/>
</g>
<g>
	<defs>
		<path id="SVGID_13_" d="M131.62,71.38v11.035c0,0-0.492,2.184-3.647,3.154l0.425-3.16l-0.488-11.99"/>
	</defs>
	<clipPath id="SVGID_14_">
		<use xlink:href="#SVGID_13_"  overflow="visible"/>
	</clipPath>
	<path clip-path="url(#SVGID_14_)" fill="#FF6064" d="M127.62,71.38h3v2h-3V71.38z M127.62,70.38h3v1h-3V70.38z"/>
</g>
<path fill="#333333" d="M126.235,87.206c-0.66,0-1.277-0.424-1.486-1.086c-0.27-0.82,0.19-1.693,1.01-1.957
	c1.7-0.543,2.15-1.287,2.15-1.607l-0.01-12.27c0-0.86,0.99-1.56,1.85-1.56s1.851,0.7,1.851,1.56v12.13v-0.002
	c0,0,0.08,3.223-4.621,4.722c-0.15,0.045-0.61,0.07-0.77,0.07H126.235z"/>
<path fill="#333333" d="M128.04,92.16c-6.114,0-9.97-2.73-10.206-2.9c-0.7-0.51-0.852-1.479-0.346-2.18
	c0.507-0.692,1.48-0.85,2.17-0.347c0.3,0.207,7.452,5.154,17.787-0.123c0.771-0.385,1.705-0.088,2.101,0.68
	c0.39,0.768,0.085,1.7-0.683,2.094C134.796,91.459,131.13,92.159,128.04,92.16L128.04,92.16z"/>
<path fill="#333333" d="M145.436,50.073c0,0-6.791,8.247-21.345,9.22l7.12-7.28c0,0-15.76,10.512-23.85,10.512l-1.94,0.242
	l-2.18,3.518c0,0-6.91-11.16-3.88-17.223c0,0,1.14-1.737-2.74,0.203c0,0,7.32-19.69,35.09-17.627c0,0,14.96,2.26,16.42,7.478
	c1.11,3.986-2.67,10.957-2.67,10.957H145.436z"/>
<path fill="#333333" d="M143.493,48.456c0,0,0,11.16,3.88,15.525l7.27,1.36c0,0,4.621-10.82,4.621-13.73
	c0-2.91-1.701-12.13-11.893-11.15c-10.18,0.97-3.87,8.01-3.87,8.01L143.493,48.456z"/>
<path fill="#333333" d="M131.8,62.63c-0.05,0.04,0.958-0.683,2.482-1.403c0.75-0.414,1.683-0.727,2.677-1.147
	c0.5-0.178,1.029-0.32,1.58-0.486c0.55-0.144,1.09-0.358,1.67-0.423c1.15-0.14,2.3-0.48,3.43-0.42c1.12,0.03,2.19-0.1,3.08,0.1
	l3.03,0.55c1.53,0.28,2.55,1.75,2.271,3.28c-0.281,1.54-1.75,2.56-3.291,2.28c-0.129-0.02-0.26-0.06-0.39-0.1l-0.479-0.16l-2.08-0.7
	c-0.62-0.27-1.43-0.24-2.271-0.41c-0.84-0.2-1.79-0.04-2.729-0.08c-0.48-0.02-0.94,0.1-1.41,0.15l-1.381,0.2
	c-0.879,0.24-1.739,0.37-2.42,0.63c-1.42,0.43-2.209,0.85-2.27,0.86c-0.74,0.43-1.699,0.17-2.119-0.58
	c-0.431-0.75-0.171-1.69,0.569-2.12L131.8,62.63z"/>
<path fill="#333333" d="M124.767,65.332c-0.06-0.017-0.845-0.434-2.268-0.862c-0.68-0.263-1.54-0.397-2.41-0.633
	c-0.45-0.065-0.91-0.133-1.38-0.2c-0.47-0.05-0.94-0.17-1.42-0.144c-0.94,0.04-1.88-0.125-2.73,0.08
	c-0.84,0.17-1.65,0.143-2.27,0.413l-2.08,0.7l-0.46,0.158c-1.48,0.498-3.08-0.297-3.58-1.77c-0.5-1.48,0.29-3.082,1.77-3.584
	c0.12-0.04,0.27-0.074,0.4-0.1l3.03-0.55c0.9-0.2,1.97-0.065,3.08-0.093c1.13-0.064,2.27,0.274,3.43,0.422
	c0.58,0.06,1.12,0.27,1.67,0.42c0.54,0.16,1.08,0.31,1.58,0.48c0.98,0.42,1.93,0.73,2.67,1.14c1.52,0.72,2.53,1.44,2.48,1.4
	c0.75,0.42,1.01,1.37,0.58,2.12c-0.43,0.75-1.38,1.01-2.13,0.58L124.767,65.332z"/>
</svg>
