<svg xmlns="http://www.w3.org/2000/svg" xmlns:xlink="http://www.w3.org/1999/xlink" width="256" height="256" viewBox="0 0 256 256"><path fill="#333" d="M154.62 227.016c-.78 0-1.53-.367-2.01-1.013-.77-1.04-1.3-1.755-1.628-2.326-.01-.014-.02-.028-.027-.043-.518-.817-3.037-5.07-1.814-8.4.17-.677-.72-3.02-1.85-4.798-.68-1.096-.43-2.54.6-3.326.03-.02.48-.353 1.18-.854-.02-.61-.1-1.274-.19-2.003-.06-.47-.12-.95-.18-1.46-.08-.56-.15-1.23-.23-1.92-.12-1.13-.24-2.3-.5-3.43l-1.28-6.16-1.85-6.29c-.31-.79-.61-1.59-.92-2.4-.48-1.28-.97-2.61-1.53-3.86-.36-.73-.7-1.47-1.04-2.22-.62-1.35-1.2-2.63-1.91-3.78-.02-.03-1.14-2.04-1.69-3l-1.78-2.72c-.77-1.26-1.64-2.39-2.48-3.5-.37-.48-.73-.95-1.08-1.43-.31-.36-.61-.72-.9-1.08-.36-.43-.71-.85-1.05-1.25-.25 1.68-.55 3.29-.91 4.86-1.17 5.25-2.79 9.74-4.96 13.71-1.14 2.19-2.64 4.41-4.45 6.58-2.06 2.36-4.01 4.15-6.01 5.52-1.82 1.33-4.02 2.53-6.66 3.61-2.29.86-4.46 1.46-6.53 1.8-1.16.2-2.34.35-3.59.45-.26.11-.54.18-.82.2-.05.01-1.59.15-1.9 1.01.4 1.52 1.41 5.8 1.21 9.95 1.59 2.94 1.51 6.54 1.43 9.48-.02.76-.04 1.49-.02 2.17.02.9-.45 1.74-1.23 2.2l-3.17 1.88c-.39.228-.83.35-1.27.35-.21 0-.43-.03-.64-.08-.65-.17-1.2-.6-1.53-1.18L72 191.603c-.5-.88-.42-1.97.21-2.76.77-1 1.31-1.69 1.76-2.15.02-.02.05-.05.07-.08.61-.67 3.81-4.02 7.2-4.02.14 0 .27 0 .41.01.7-.03 2.71-1.53 4.13-3.09.49-.55 1.17-.83 1.85-.83.53 0 1.06.16 1.51.5.02.01.33.25.83.64l2.63.24c.24.03.55.03.83.03h.93c.23 0 .48 0 .72.01 1.11-.04 2.13-.13 3.11-.29 1.03-.16 2.13-.45 3.38-.89 1.04-.44 2.22-.98 3.25-1.73l.1-.07c.9-.59 1.83-1.44 3.01-2.74 1.04-1.24 1.89-2.48 2.55-3.73 2.85-5.14 4.09-11.5 4.63-16.32-.77-.82-1.39-1.77-1.83-2.82l-1.47.11c-.06.01-.13.01-.19.01-.68 0-1.33-.278-1.81-.778-.52-.54-.76-1.29-.67-2.04l3.39-26.7c-.9.76-1.45 1.4-1.46 1.41-.47.48-1.11.84-1.78.84h-.03c-.68 0-1.33-.38-1.79-.88l-1.96-2.13-.55.32c-.98.62-2 1.24-2.93 1.91-.42.34-.86.66-1.3.98-.78.58-1.53 1.13-2.1 1.71l-.38.35c-.99.9-1.94 1.74-2.65 2.63l-.12.142c-.79.84-1.69 1.85-2.32 2.85-.02.03-.04.07-.06.1-.16.23-.33.46-.49.69-.52.72-1.01 1.41-1.28 2.01-.02.05-.05.1-.08.15l-1.01 1.87c2.35 1.8 4.06 3.26 4.15 3.34 4.65 3.76 1.29 8.06-.72 10.63-.47.6-.95 1.22-1.38 1.84-1.76 2.54-3.7 3.08-5.02 3.08-.59 0-1.12-.11-1.58-.26-1.22.76-2.23 1.18-3 1.25-.12.01-.25.02-.39.02-2.59 0-6.15-2.108-6.19-2.13-1.23-.73-3.25-2.68-4.56-4-2.56-.08-4.51-2.58-5.76-4.48-.86-1.298-1.14-2.84-.81-4.448 1.07-5.19 8.47-10.24 9.94-11.2.29-.2.62-.36.99-.46l1.53-2.81c.66-1.33 1.55-2.55 2.41-3.73l.45-.62c1.09-1.64 2.48-3.19 3.58-4.35 1.3-1.52 2.8-2.84 4.24-4.12 1.06-1.01 2.22-1.86 3.34-2.68.48-.34.95-.69 1.41-1.05l.09-.06c.57-.4 1.15-.78 1.72-1.15-.53-.93-.41-2.13.35-2.95 6.04-6.43 11.27-9.61 15.47-11.06-4.02-3.01-6.36-7.42-6.88-13.05-5.59-.61-8.64-4.38-8.64-10.77 0-3.73 1.46-7.11 3.75-9.07-1.52-3.45-2.77-7.48-2.5-11.08-.43-.08-.84-.28-1.18-.59-.76-.69-1.03-1.77-.67-2.73.3-.79 7.51-19.41 33.44-19.41 1.36 0 2.77.05 4.18.15.07 0 .14.01.19.02 3.78.57 16.03 2.86 18.29 8.79 8.34.82 11.41 8.44 11.41 13.65 0 .67 0 2.67-3.4 11.24 2.26 1.97 3.68 5.32 3.68 9.02 0 6.2-2.86 9.93-8.14 10.7-.58 6.13-3.36 10.8-8.19 13.83 3.85 1.68 8.45 4.81 13.65 10.35.91.97.91 2.46 0 3.43l-.03.03c.97.9 1.91 1.83 2.8 2.77.93.91 1.76 1.94 2.57 2.94.37.45.73.9 1.11 1.34l.09.11c.78 1.03 1.49 2.07 2.17 3.07.32.46.63.93.95 1.38l.07.11c.64 1.03 1.187 2.04 1.73 3.02.26.47.52.94.77 1.4.55.9.96 1.85 1.32 2.7l.195-.14c1.12-.78 2.31-1.2 3.49-1.2 3.02 0 4.88 2.56 6.52 4.81.45.62.91 1.25 1.38 1.83 1.79 2.18 1.9 4.04 1.69 5.22-.14.78-.44 1.41-.79 1.91.4 1.39.53 2.47.37 3.24-.5 2.58-3.69 5.61-3.83 5.74-1.05.97-3.48 2.39-5.1 3.28l-.06.14c-.66 1.78-2.51 3.1-5.83 4.15-.56.18-1.13.27-1.71.27-6.22 0-9.86-10.23-10.82-13.36-.63-1.93.45-3.84 1.77-5.44l-.09-.34c-.11-.46-.33-1-.58-1.62-.13-.31-.26-.63-.38-.96-.17-.4-.33-.81-.49-1.24-.25-.68-.49-1.31-.81-1.87-.28-.53-.52-1.01-.76-1.5-.35-.69-.7-1.41-1.09-2.09-.3-.46-.59-.92-.89-1.4-.43-.69-.88-1.41-1.35-2.07-.36-.44-.7-.9-1.053-1.36-.53-.72-1.04-1.39-1.58-1.96-.65-.74-1.31-1.44-1.978-2.11l-2.27 2.49c-.47.5-1.12.88-1.8.88h-.022c-.37 0-.72-.17-1.04-.32l3.12 22.19c.1.68-.1 1.35-.53 1.89-.43.54-1.07.86-1.75.92l-2.55.19c.49.57.99 1.16 1.51 1.77l.89 1.05.1.12c.36.49.74.98 1.12 1.47 1.102 1.42 2.23 2.88 3.272 4.52l2.07 3.15.08.13 1.94 3.39c.96 1.56 1.76 3.27 2.538 4.93.36.77.72 1.54 1.1 2.3.012.03.03.06.04.09.76 1.68 1.41 3.38 2.04 5.03.32.82.63 1.64.95 2.45.03.07.05.14.07.2l2.22 7.35c.022.07.03.13.05.2l1.51 7c.36 1.56.54 3.1.69 4.47.08.69.16 1.36.26 2.02l.064.45c.62.44 1.12 1.02 1.47 1.72.25.51.33 1.08.21 1.63-.01.05-.29 1.57.45 2.1 1.53.03 5.96.21 9.9 1.52.74-.17 1.53-.25 2.35-.25 2.48 0 4.95.75 7.13 1.42.72.22 1.43.43 2.09.6.87.23 1.56.91 1.79 1.78l.95 3.56c.17.65.08 1.34-.27 1.92-.35.58-.9.99-1.55 1.15l-34.13 8.48c-.21.04-.41.06-.61.06l-.07.05-.026-.03zm-26.93-195.53c1.283 0 2.615.05 3.998.15 0 0 14.957 2.26 16.416 7.48.11.396.16.83.186 1.274.18-.007.36-.01.54-.01 8.9 0 10.44 8.46 10.44 11.228 0 1.99-2.15 7.667-3.52 11.066l.04.012-.41 1.18c2.41 1.035 4.17 4.223 4.17 7.998 0 7.486-4.57 8.352-7.812 8.352-.08 0-.15-.012-.23-.018-.03 10.898-7.05 15.29-13.8 16.913l.02.28h.15c4.01 0 10.78 1.75 19.66 11.22l-1.79 1.84c1.58 1.35 3.12 2.76 4.58 4.3 1.31 1.3 2.41 2.79 3.59 4.17 1.102 1.44 2.06 2.94 3.06 4.36.91 1.47 1.67 2.95 2.45 4.33.83 1.37 1.29 2.78 1.89 4.02.182.43.36.84.542 1.24 1.57-1.12 2.66-1.84 2.66-1.84.78-.55 1.48-.78 2.11-.78 2.31 0 3.85 3.14 5.98 5.74 2.72 3.32-.022 4.89-.022 4.89s.94 2.54.77 3.4c-.26 1.33-2.12 3.49-3.1 4.41-1.24 1.17-5.8 3.57-5.8 3.57s1.12 1.77-4.22 3.46c-.32.1-.64.15-.95.15-4.86 0-8.44-11.59-8.44-11.59-.32-.97.64-2.45 2.17-4.07l-.44-1.55c-.22-.92-.67-1.87-1.07-2.94-.46-1.04-.79-2.27-1.43-3.4-.61-1.15-1.19-2.41-1.89-3.65-.78-1.18-1.51-2.46-2.37-3.68-.94-1.14-1.77-2.43-2.81-3.53-1.23-1.39-2.54-2.71-3.89-3.93l-3.98 4.23s-1.8-1.84-4.38-3.55l3.99 28.41-7.74.6c.53.53 1.06 1.07 1.6 1.66 1.42 1.44 2.79 3.14 4.29 4.89 1.38 1.83 2.94 3.7 4.27 5.82l2.102 3.19c.64 1.12 1.29 2.25 1.94 3.39 1.38 2.25 2.38 4.73 3.58 7.11 1.1 2.43 1.97 4.94 2.938 7.38l2.22 7.35c.52 2.44 1.04 4.78 1.52 7.02.51 2.22.632 4.37.93 6.33.07.6.15 1.19.222 1.76.68.15 1.22.55 1.54 1.2 0 0-.85 4.17 2.36 5.17h.16c.97 0 6.07.03 10.19 1.59-.01 0-.08-.02-.09-.02l-.042-.02V211c1-.26 1.68-.38 2.52-.38 2.9 0 6.07 1.29 8.64 1.95l.972 3.56-34.12 8.48s-1.62-2.19-1.53-2.228l-.02.004s-2.44-3.86-1.58-6.2c.86-2.35-2.09-6.993-2.09-6.993s.88-.67 2.21-1.56c0-.09-.01-.17-.01-.27.01-1.45-.26-2.99-.46-4.75-.26-1.75-.33-3.66-.78-5.634-.41-1.97-.85-4.06-1.3-6.22-.62-2.11-1.26-4.29-1.92-6.5-.85-2.14-1.6-4.37-2.55-6.51-1.04-2.09-1.88-4.29-3.1-6.25l-1.67-2.98c-.61-.94-1.23-1.87-1.82-2.79-1.15-1.86-2.51-3.49-3.69-5.11-1.29-1.52-2.46-3.01-3.68-4.25-.72-.79-1.42-1.51-2.1-2.17-.25 3.01-.66 6.36-1.47 9.95-.94 4.23-2.37 8.75-4.72 13.07-1.13 2.17-2.57 4.25-4.17 6.17-1.65 1.89-3.47 3.66-5.5 5.05-1.99 1.45-4.13 2.51-6.2 3.36-2.09.79-4.11 1.34-5.99 1.65-1.44.25-2.8.39-4.03.47-.04.05-.08.1-.13.14 0 0-4.13.27-4.3 3.65 0 0 1.65 5.55 1.21 10.42l-.02-.02.02.02c2.07 3.04 1.39 7.65 1.46 11.07l-3.17 1.88-17.34-30.6s1.6-2.07 1.71-2.07l-.01-.02s2.89-3.2 5.35-3.2c.07 0 .14 0 .21.01h.17c2.49 0 6.01-3.91 6.01-3.91s.85.64 2.04 1.65l.07-.51 2.51.23c.36.05.75.06 1.17.06.29 0 .6-.01.93-.01.23 0 .47 0 .72.01 1.07-.03 2.26-.13 3.52-.33 1.25-.2 2.55-.55 3.87-1.02 1.28-.54 2.6-1.15 3.82-2.04 1.26-.82 2.4-1.94 3.5-3.16 1.06-1.27 2.07-2.66 2.9-4.24 3.17-5.71 4.51-12.83 5.04-18.48-1.36-1.05-2.33-2.63-2.63-4.47l-3.48.27 4.09-32.21c-3.63 1.91-6.43 4.77-6.43 4.77l-3.3-3.51c-.48.27-.97.54-1.47.8-1.33.84-2.72 1.67-4 2.6-1.24.99-2.6 1.85-3.68 2.94-1.15 1.04-2.29 2.04-3.2 3.17-.99 1.07-1.91 2.12-2.61 3.23-.75 1.08-1.53 2.06-2 3.11-.54 1.01-1.03 1.93-1.47 2.75-.15.4-.29.78-.42 1.13 3.1 2.28 5.61 4.42 5.61 4.42 3.45 2.79-.1 5.62-2.53 9.15-1.08 1.56-2.13 2-2.97 2-1.04 0-1.74-.68-1.74-.68s-2.19 1.6-3.05 1.68c-.06 0-.13.01-.19.01-1.39 0-3.8-1.12-4.91-1.78-1.46-.87-5.02-4.6-5.02-4.6s-.23.25-.69.25c-.7 0-1.94-.56-3.8-3.35-3.1-4.66 8.41-12.17 8.41-12.17.24-.16.55-.24.91-.24.11 0 .22.01.34.02l.15-.39c.58-1.07 1.25-2.28 1.96-3.61.67-1.36 1.66-2.64 2.67-4.04.96-1.44 2.14-2.79 3.42-4.14 1.2-1.43 2.63-2.68 4.08-3.96 1.4-1.35 3.03-2.39 4.57-3.58 1.35-.95 2.75-1.8 4.14-2.64l-1.69-1.79c8.87-9.46 15.65-11.36 19.65-11.36.65 0 1.23.05 1.74.13l.06-.54c-6.38-1.83-12.31-6.2-12.32-16.56-.22.05-.45.08-.71.08-3.23 0-7.81-.87-7.81-8.35 0-3.93 1.91-7.21 4.47-8.1-1.84-3.65-4.63-10.43-2.49-14.7 0 0 .46-.71-.23-.71-.38 0-1.13.22-2.52.92 0 0 6.61-17.78 31.1-17.78"/><path fill="#333" d="M127.85 26.6c-27.65 0-35.46 20.18-35.78 21.04-.72 1.92-.18 4.09 1.34 5.46.11.09.22.19.34.27.1 3.01.96 6.12 2.07 8.95-2.06 2.44-3.29 5.87-3.29 9.65 0 6.9 3.25 11.5 8.9 12.9.67 3.98 2.24 7.39 4.64 10.14-3.77 1.94-8.09 5.1-12.81 10.13-.93.99-1.38 2.27-1.35 3.54l-.33.23c-.06.04-.12.09-.17.13-.44.35-.89.68-1.35 1.01-1.11.81-2.36 1.73-3.54 2.85-1.49 1.32-3.03 2.67-4.43 4.31-1.15 1.21-2.58 2.81-3.8 4.62l-.39.54c-.91 1.26-1.86 2.55-2.6 4.05l-.94 1.74-.14.25c-.22.12-.42.24-.6.36-2.3 1.51-9.76 6.79-10.99 12.77-.47 2.28-.07 4.47 1.17 6.34.82 1.24 3.14 4.75 6.68 5.46 1.45 1.432 3.19 3.03 4.44 3.772.42.26 4.25 2.48 7.46 2.48.21 0 .41-.01.61-.022.44-.03 1.43-.11 3.19-1.07.37.06.77.102 1.19.102 1.57 0 4.58-.54 7.08-4.16.38-.55.83-1.12 1.29-1.72 1.27-1.62 2.58-3.3 3.21-5.38.98-3.25-.07-6.43-2.87-8.73-.23-.19-1.17-.99-2.53-2.07l.01-.02c.05-.1.11-.21.15-.32.16-.37.6-.98 1.03-1.57.17-.227.34-.47.51-.71.04-.06.09-.13.13-.2.52-.826 1.32-1.72 2.03-2.477.08-.09.16-.18.24-.28.58-.73 1.45-1.51 2.37-2.34l.27-.24c.07-.07.14-.13.21-.2.44-.45 1.11-.94 1.81-1.46.43-.32.87-.65 1.33-1.01.49-.36 1.02-.7 1.56-1.05l.56.43c.94.99 2.23 1.41 3.59 1.41h.05c.05 0 .1.16.15.16l-2.77 21.9c-.19 1.49.3 3.03 1.34 4.12.95 1 2.26 1.57 3.62 1.57.07 0 .14.01.21.01.21.34.43.67.67.98-.57 4.42-1.74 9.89-4.18 14.27l-.05.1c-.56 1.06-1.29 2.14-2.25 3.29-.64.7-1.56 1.67-2.46 2.25l-.2.14c-.8.58-1.75 1.03-2.67 1.42-1.07.37-2.01.62-2.84.75-.89.142-1.78.23-2.75.27-.25-.01-.48-.01-.71-.01h-.93c-.34 0-.45-.01-.48-.02l-.24-.03c-.75-.068-1.34-.12-1.76-.16l-.29-.22c-.9-.68-1.96-1.01-3.01-1.01-1.37 0-2.73.73-3.72 1.82-.81.89-2.02 1.4-2.66 2.4h-.01c-4.34 0-8.03 3.55-9.06 4.687-.07.08-.13.07-.19.15-.55.58-1.11 1.26-1.76 2.1-1.24 1.59-1.4 3.76-.41 5.52l17.34 30.604c.66 1.17 1.77 2.02 3.07 2.36.42.11.85.17 1.28.17.89 0 1.77-.24 2.55-.7l3.17-1.88c1.55-.92 2.48-2.6 2.45-4.4-.01-.61 0-1.31.02-2.06.07-3.06.16-6.75-1.41-10.1.06-3.014-.4-5.95-.83-7.99.19-.04.37-.104.55-.16 1.13-.1 2.22-.25 3.31-.44 2.19-.37 4.52-1.01 6.89-1.9l.14-.06c2.79-1.15 5.14-2.43 7.18-3.9 2.15-1.48 4.24-3.39 6.39-5.84l.07-.09c1.91-2.29 3.51-4.65 4.74-7.02 2.21-4.07 3.88-8.63 5.09-13.92.7.91 1.35 1.79 1.92 2.71l.08.11.13.21c.53.8 1.062 1.62 1.6 2.45.53.937 1.063 1.88 1.59 2.826l.11.19c.63 1.02 1.182 2.23 1.77 3.51.33.73.683 1.48 1.053 2.24.51 1.16.97 2.38 1.45 3.67.29.79.59 1.57.9 2.35l.46 1.58 1.33 4.5.977 4.71.27 1.31.014.08c.22.99.34 2.04.45 3.15.07.65.14 1.33.24 2.02.06.49.12.96.18 1.41l.07.51-.064.04c-2.062 1.58-2.58 4.47-1.19 6.66.644 1.01 1.28 2.44 1.44 3.15-1.17 4.16 1.39 8.7 2.23 10.04l.13.19c.42.7.978 1.45 1.63 2.318.96 1.3 2.46 2.03 4.02 2.03.4 0 .8-.05 1.2-.15l34.13-8.47c1.3-.32 2.42-1.15 3.1-2.31s.87-2.53.53-3.83l-.95-3.56c-.47-1.75-1.84-3.11-3.59-3.564-.59-.15-1.27-.36-1.99-.57-2.35-.71-5-1.52-7.857-1.52-.76 0-1.5.06-2.22.18-2.88-.87-5.85-1.22-7.95-1.35.03-.83-.15-1.67-.52-2.43-.36-.712-.81-1.354-1.36-1.894-.06-.46-.12-.96-.18-1.47-.16-1.42-.35-3.03-.74-4.74l-.68-3.14c-.27-1.25-.54-2.53-.82-3.84-.03-.13-.062-.26-.1-.39l-1.54-5.11-.682-2.24c-.04-.14-.09-.27-.14-.41-.32-.79-.63-1.6-.93-2.41-.65-1.68-1.31-3.42-2.1-5.17l-.09-.18c-.36-.72-.7-1.46-1.07-2.24-.8-1.69-1.62-3.45-2.67-5.18l-1.5-2.62-.4-.7c-.05-.09-.1-.17-.16-.26l-1.9-2.9-.16-.25c-1.1-1.73-2.31-3.3-3.36-4.68-.31-.39-.6-.78-.9-1.16.6-.32 1.12-.75 1.55-1.28.86-1.08 1.24-2.46 1.05-3.83l-2.74-19.5c.68-.26 1.3-.68 1.82-1.22l.44-.47.05.06.12.13c.45.47.91 1.09 1.4 1.74.33.44.67.9 1.05 1.36.41.59.81 1.22 1.22 1.893.29.47.58.93.87 1.38.34.6.65 1.23.99 1.9.25.51.5 1 .75 1.48l.07.127c.22.38.42.93.64 1.51.16.42.32.853.51 1.3l.38.96.22.53c-1.18 1.73-2.2 4.09-1.37 6.69 1.41 4.56 5.51 15.09 13.21 15.09.83 0 1.65-.13 2.46-.38 2.39-.76 5.63-2.08 7.09-4.92 1.78-1 3.79-2.24 4.85-3.23.66-.62 3.96-3.86 4.59-7.1.08-.42.28-1.39-.16-3.35.26-.55.46-1.16.58-1.812.31-1.7.18-4.33-2.21-7.25-.43-.53-.85-1.11-1.3-1.72-1.79-2.47-4.25-5.85-8.55-5.85-.85 0-1.7.14-2.54.43-.1-.19-.21-.39-.33-.58-.24-.43-.48-.87-.73-1.32-.55-1.01-1.12-2.05-1.8-3.14l-.14-.21-.93-1.35c-.7-1.04-1.43-2.102-2.25-3.19-.06-.08-.12-.15-.18-.22-.36-.43-.71-.86-1.06-1.29-.8-.98-1.7-2.09-2.75-3.14-.49-.52-.99-1.03-1.51-1.53.4-1.6 0-3.36-1.21-4.64-3.93-4.2-7.59-7.09-10.88-9.06 3.1-2.95 5.08-6.77 5.86-11.34 5.34-1.55 8.41-6.08 8.41-12.77 0-3.77-1.21-7.18-3.26-9.62 2.97-7.75 2.97-9.74 2.97-10.64 0-5.88-3.34-14.34-12.28-15.96-3.68-5.93-14.63-8.22-19.54-8.96-.12-.02-.25-.03-.38-.04-1.47-.1-2.94-.16-4.37-.16l-.01.046h.01z"/><path d="M187.78 212.51c-3.33-.85-7.6-2.75-11.08-1.56l.02-.03h.01l.02-.008c-4.57-1.73-10.353-1.637-10.353-1.637-3.22-1.065-2.36-5.114-2.36-5.114-.324-.65-.863-1-1.54-1.14-.073-.58-.148-1.17-.217-1.78-.3-1.96-.414-4.11-.922-6.33-.482-2.22-.994-4.57-1.515-7l-2.22-7.35c-.97-2.43-1.846-4.95-2.94-7.37-1.194-2.39-2.194-4.87-3.577-7.11-.65-1.14-1.3-2.27-1.94-3.38-.707-1.08-1.41-2.14-2.097-3.18-1.34-2.12-2.9-3.99-4.28-5.82-1.49-1.75-2.87-3.44-4.29-4.87-2.73-2.95-5.34-5.14-7.18-6.68-.95-.74-1.71-1.33-2.34-1.76l-.83-.57h-.02l-.03-.07-1.02 1.53-9.2.78.04.63c.02.46.05 1.12.08 1.96.04 1.71.04 4.19-.18 7.13-.42 5.85-1.7 13.82-5.17 20.07-.84 1.58-1.85 2.98-2.91 4.24-1.1 1.21-2.24 2.33-3.5 3.15-1.22.89-2.55 1.51-3.83 2.04-1.32.46-2.61.82-3.87 1.01-1.26.21-2.45.3-3.52.33-1.09-.04-2.01.04-2.82-.07-1.59-.14-2.51-.23-2.51-.23l-.07.54c-1.2-1.02-2.06-1.67-2.06-1.67s-3.69 4.08-6.18 3.9c-2.5-.2-5.56 3.19-5.56 3.19l.01.02c-.06-.08-1.73 2.07-1.73 2.07l17.34 30.6 3.17-1.88c-.07-3.43.61-8.06-1.48-11.1l.02.03h.01l.01.02c.44-4.86-1.21-10.42-1.21-10.42.16-3.39 4.29-3.65 4.29-3.65.05-.04.09-.1.13-.15 1.23-.07 2.59-.21 4.04-.46 1.87-.31 3.9-.86 5.99-1.64 2.07-.85 4.21-1.92 6.2-3.36 2.04-1.39 3.85-3.16 5.5-5.05 1.6-1.93 3.04-4.01 4.17-6.17 2.35-4.31 3.77-8.84 4.71-13.06.81-3.58 1.23-6.94 1.47-9.95.66.65 1.35 1.35 2.05 2.13 1.22 1.23 2.4 2.73 3.69 4.25 1.19 1.62 2.55 3.24 3.7 5.11.6.92 1.2 1.85 1.82 2.8.56.98 1.11 1.97 1.68 2.98 1.21 1.96 2.05 4.16 3.1 6.26.97 2.13 1.71 4.37 2.57 6.51.65 2.21 1.29 4.4 1.92 6.51.44 2.17.88 4.27 1.3 6.24.44 1.97.52 3.91.78 5.66.18 1.76.47 3.37.46 4.82v.19c-1.32.9-2.2 1.56-2.2 1.56s2.94 4.65 2.09 7c-.86 2.35 1.58 6.21 1.58 6.21h.02c-.09.04 1.52 2.23 1.52 2.23l34.13-8.47-.95-3.55z"/><ellipse cx="121.512" cy="147.661" rx="6.59" ry="7.013"/><path d="M182.57 135.95c-2.7-3.31-4.44-7.49-8.07-4.95l-.01-.01h-.01l-.015-.006s-1.084.718-2.637 1.827c-.175-.39-.353-.79-.528-1.22-.6-1.23-1.07-2.64-1.89-4.02-.79-1.38-1.54-2.86-2.46-4.33-.99-1.42-1.96-2.92-3.06-4.37-1.18-1.38-2.27-2.88-3.59-4.18-2.54-2.68-5.31-5.14-8.15-7.11-1.38-1.04-2.83-1.86-4.17-2.71-1.39-.75-2.67-1.51-3.94-2.07-2.48-1.22-4.68-1.98-6.25-2.5-.785-.24-1.425-.44-1.947-.56l-.666-.16.004.01.06.03-2.08 8.74s.17.05.5.14l1.31.44c1.22.45 2.98 1.13 4.98 2.22 1.03.48 2.07 1.17 3.2 1.82 1.06.75 2.25 1.46 3.35 2.37 2.28 1.71 4.48 3.83 6.48 6.09 1.04 1.1 1.87 2.39 2.81 3.53.86 1.22 1.59 2.5 2.37 3.68.7 1.23 1.28 2.49 1.89 3.65.65 1.13.98 2.36 1.43 3.4.41 1.07.86 2.01 1.08 2.93.16.55.3 1.04.43 1.5-1.54 1.64-2.51 3.13-2.19 4.11 0 0 4.05 13.13 9.39 11.45 5.33-1.68 4.22-3.45 4.22-3.45s4.57-2.4 5.82-3.56c.98-.92 2.84-3.09 3.1-4.41.18-.85-.77-3.4-.77-3.4s2.74-1.56.02-4.89zm-60.84-34.4c-.49.09-1.2.23-2 .41-1.64.36-3.93.96-6.64 1.81-2.68.9-5.8 2-9.02 3.55-1.64.7-3.24 1.67-4.91 2.52-1.62.99-3.28 1.97-4.86 3.08-1.54 1.19-3.17 2.23-4.57 3.58-1.45 1.28-2.87 2.54-4.08 3.96-1.28 1.35-2.46 2.7-3.42 4.14-1 1.4-1.99 2.69-2.66 4.04-.71 1.32-1.38 2.53-1.96 3.61-.45 1.14-.83 2.13-1.16 2.94l-.99 2.58L85.91 141s.28-.7.75-1.95l.83-2.25c.44-.82.93-1.74 1.47-2.75.47-1.05 1.25-2.03 2-3.11.7-1.11 1.62-2.16 2.61-3.23.91-1.13 2.05-2.13 3.19-3.17 1.08-1.09 2.445-1.95 3.677-2.94 1.287-.93 2.67-1.76 4-2.6 1.416-.73 2.73-1.57 4.14-2.18 2.73-1.36 5.43-2.34 7.75-3.15 2.33-.762 4.313-1.306 5.676-1.612.65-.145 1.16-.257 1.51-.332l.58-.108.008.003.02.04-1.72-10.23-.67.12z" fill="#F2C49C"/><path fill="#082031" d="M133.75 97.94s8.957-5.26 23.76 10.514l-12.464 13.242s-7.593-7.79-14.022-6.23"/><path fill="#082031" d="M144.654 146.795l-33.108 2.71 7.014-55.124h18.697l7.397 52.42z"/><path fill="#F2C49C" d="M92.675 142.323s-13.496-11.54-16.483-9.503c0 0-11.508 7.51-8.415 12.18 3.09 4.67 4.488 3.11 4.488 3.11s3.56 3.73 5.024 4.6c1.15.69 3.75 1.88 5.09 1.77.86-.066 3.05-1.67 3.05-1.67s2.27 2.2 4.7-1.316c2.43-3.52 5.98-6.35 2.53-9.14l.01-.03z"/><path fill="#082031" d="M120.508 97.94s-8.962-5.26-23.76 10.514l12.464 13.242s7.597-7.79 14.02-6.23"/><path fill="#C69C6D" d="M134.918 95.21l-7.01 10.128-7.79-10.907"/><path fill="#E2B593" d="M147.824 71.864c0 4.613.668 8.352 3.904 8.352 3.23 0 7.81-.865 7.81-8.352 0-4.613-2.624-8.354-5.858-8.354-3.233 0-5.856 3.74-5.856 8.354z"/><path fill="#C69C6D" d="M148.793 71.83c.016-1.29.28-2.76.913-4.014.32-.636.73-1.257 1.304-1.792.573-.523 1.385-.973 2.33-.986.36.034.285.003.622.072.272.06.503.14.683.23.402.174.73.426 1.03.684.566.535.347 1.156.665 1.792.633 1.28.28 2.664.28 4.048v.158c0 .907-.082 1.65-.99 1.662-.905.01-1.333-.716-1.34-1.623 0-.06.163-.13.166-.19.1-.91.106-1.9-.19-2.74-.277-.87-.81-1.42-.96-1.47-.102-.05-.344-.04-.672.18-.315.22-1.187.58-1.452 1.01-.55.88-1.56 1.88-1.56 3.07v.05c0 .54.02.92-.51.87-.49-.05-.314-.48-.314-.97l-.01-.04h.005z"/><path fill="#E2B593" d="M109.083 71.864c0 4.613-.672 8.352-3.903 8.352-3.235 0-7.813-.865-7.813-8.352 0-4.613 2.622-8.354 5.856-8.354 3.236 0 5.86 3.74 5.86 8.354z"/><path fill="#C69C6D" d="M108.11 71.83c-.012-1.29-.28-2.76-.912-4.014-.32-.636-.73-1.257-1.303-1.792-.57-.523-1.385-.973-2.33-.986-.358.034-.286.003-.62.072-.275.06-.506.14-.685.23-.403.174-.727.426-1.024.684-.575.535-.685 1.156-1.007 1.792-.64 1.28-.61 2.664-.61 4.048v.158c0 .907.41 1.65 1.32 1.662.9.01 1.49-.716 1.51-1.623 0-.06-.09-.13-.09-.19-.11-.91-.06-1.9.24-2.74.27-.87.82-1.42.98-1.47.1-.05.35-.04.67.18.31.22.64.58.91 1.01.56.88.88 1.88 1.01 3.07v.05c.05.54.53.92 1.06.87.5-.05.87-.48.86-.97l.02-.04z"/><path fill="#F2C49C" d="M151.498 80.113c0 16.407-15.768 17.827-22.803 17.827-8.006 0-22.805-1.42-22.805-17.827 0-16.412-1.695-37.48 22.805-37.48 24.744-.002 22.803 21.068 22.803 37.48z"/><path fill="#333" d="M101.604 61.88l4.373 12.613 6.303-14.72m43.503 2.913l-4.152 11.807-6.3-14.72"/><path fill="#F5F5F5" d="M124.474 71.837c0 3.75-3.035 6.792-6.79 6.792-3.744 0-6.784-3.05-6.784-6.8s3.04-6.79 6.785-6.79c3.753 0 6.79 3.03 6.79 6.78v.01z"/><path fill="#333" d="M122.46 71.676c0 2.607-2.103 4.72-4.71 4.72-2.602 0-4.714-2.112-4.714-4.72 0-2.602 2.112-4.707 4.714-4.707 2.606 0 4.71 2.1 4.71 4.7z"/><path fill="#F5F5F5" d="M147.764 71.837c0 3.75-3.04 6.792-6.787 6.792-3.752 0-6.793-3.05-6.793-6.8s3.04-6.79 6.793-6.79c3.75 0 6.787 3.03 6.787 6.78v.01z"/><path fill="#333" d="M145.75 71.676c0 2.607-2.107 4.72-4.712 4.72s-4.713-2.112-4.713-4.72c0-2.602 2.11-4.707 4.713-4.707 2.604 0 4.712 2.1 4.712 4.7z"/><defs><path id="a" d="M131.62 71.38v11.035s-.492 2.184-3.647 3.154l.425-3.16-.488-11.99"/></defs><clipPath id="b"><use xlink:href="#a" overflow="visible"/></clipPath><path clip-path="url(#b)" fill="#FF595E" d="M127.62 84.38h3v1h-3v-1z"/><defs><path id="c" d="M131.62 71.38v11.035s-.492 2.184-3.647 3.154l.425-3.16-.488-11.99"/></defs><clipPath id="d"><use xlink:href="#c" overflow="visible"/></clipPath><path clip-path="url(#d)" fill="#FF5B5F" d="M127.62 81.38h3v3h-3v-3z"/><defs><path id="e" d="M131.62 71.38v11.035s-.492 2.184-3.647 3.154l.425-3.16-.488-11.99"/></defs><clipPath id="f"><use xlink:href="#e" overflow="visible"/></clipPath><path clip-path="url(#f)" fill="#FF5C60" d="M127.62 80.38h3v1h-3v-1z"/><defs><path id="g" d="M131.62 71.38v11.035s-.492 2.184-3.647 3.154l.425-3.16-.488-11.99"/></defs><clipPath id="h"><use xlink:href="#g" overflow="visible"/></clipPath><path clip-path="url(#h)" fill="#FF5D61" d="M127.62 78.38h3v2h-3v-2z"/><defs><path id="i" d="M131.62 71.38v11.035s-.492 2.184-3.647 3.154l.425-3.16-.488-11.99"/></defs><clipPath id="j"><use xlink:href="#i" overflow="visible"/></clipPath><path clip-path="url(#j)" fill="#FF5E62" d="M127.62 75.38h3v3h-3v-3z"/><defs><path id="k" d="M131.62 71.38v11.035s-.492 2.184-3.647 3.154l.425-3.16-.488-11.99"/></defs><clipPath id="l"><use xlink:href="#k" overflow="visible"/></clipPath><path clip-path="url(#l)" fill="#FF5F63" d="M127.62 73.38h3v2h-3v-2z"/><defs><path id="m" d="M131.62 71.38v11.035s-.492 2.184-3.647 3.154l.425-3.16-.488-11.99"/></defs><clipPath id="n"><use xlink:href="#m" overflow="visible"/></clipPath><path clip-path="url(#n)" fill="#FF6064" d="M127.62 71.38h3v2h-3v-2zm0-1h3v1h-3v-1z"/><path d="M126.23 87.206h.005-.024.02zm-.47-3.043c-.82.264-1.28 1.137-1.01 1.957.207.66.823 1.083 1.48 1.085.174 0 .604-.026.75-.07 4.7-1.5 4.62-4.722 4.62-4.722V70.286c0-.86-.99-1.56-1.85-1.56s-1.85.7-1.85 1.56l.01 12.27c0 .32-.45 1.064-2.15 1.607zm11.685 2.447c-10.335 5.277-17.487.33-17.787.123-.69-.503-1.663-.345-2.17.347-.506.7-.354 1.67.346 2.18.236.17 4.092 2.9 10.206 2.9 3.09 0 6.756-.7 10.823-2.776.768-.394 1.072-1.326.682-2.094-.395-.768-1.33-1.065-2.1-.68zm21.82-35c0-2.816-1.597-11.55-10.95-11.21-.02-.45-.07-.884-.184-1.283-1.46-5.218-16.42-7.478-16.42-7.478-27.77-2.07-35.09 17.62-35.09 17.62 3.88-1.94 2.74-.21 2.74-.21-3.03 6.06 3.88 17.22 3.88 17.22l2.18-3.52.66-.08c.03.13.05.26.09.39.5 1.47 2.1 2.26 3.58 1.77l.46-.16 2.08-.7c.62-.27 1.43-.24 2.27-.41.85-.21 1.79-.04 2.73-.08.48-.03.95.09 1.42.14.47.06.93.13 1.38.2.87.23 1.73.37 2.41.63 1.39.41 2.17.82 2.26.85l-.02-.02c.75.43 1.7.17 2.13-.58.43-.75.17-1.7-.58-2.12.05.04-.96-.68-2.48-1.4-.74-.41-1.69-.72-2.67-1.14-.5-.17-1.04-.32-1.58-.48-.4-.11-.81-.24-1.22-.33 6.64-3.08 12.88-7.24 12.88-7.24l-7.12 7.28c10.32-.69 16.71-5.02 19.57-7.49.17 1.97.51 4.54 1.18 6.94-.39.01-.79.02-1.2 0-1.13-.06-2.28.28-3.43.42-.58.06-1.12.28-1.67.42-.56.16-1.08.31-1.58.48-.99.42-1.92.73-2.67 1.15-1.52.72-2.53 1.44-2.48 1.4l-.05.02c-.74.43-1 1.37-.57 2.12.42.75 1.38 1.01 2.12.58.06-.01.85-.43 2.27-.86.68-.26 1.54-.39 2.42-.63l1.38-.2c.47-.05.93-.17 1.41-.15.94.04 1.89-.12 2.73.08.84.17 1.65.14 2.27.41l2.08.7.48.16c.13.04.26.08.39.1.7.13 1.38-.02 1.95-.36l3.96.74s4.62-10.82 4.62-13.73zm-34.498 13.722l-.01-.005.002.002z" fill="#333"/><path fill="#fff" stroke="#000" stroke-miterlimit="10" d="M496.5 202.5"/></svg>