<svg xmlns="http://www.w3.org/2000/svg" width="256" height="256" viewBox="0 0 256 256"><path fill="#fff" d="M115.28 242.188c-31.614 0-42.89-24.25-44.243-27.465l-4.323-7.824c-.842-1.53-1.792-3.05-2.897-4.65-2.537-2.45-4.892-5.31-7.008-8.51-.38-.38-.59-.59-.6-.59-.35-.33-.64-.73-.85-1.17-9.26-19.22-5.83-33.4-4.96-36.27 1.6-14.33 8.96-17.44 12.13-18.11 2.19-1.36 4.51-2.05 6.89-2.05 2.05 0 4.09.51 6.11 1.52 2.28-7.85 6.09-9.83 8.79-10.15 2.32-1.4 4.78-2.11 7.33-2.11 4.03 0 8.13 1.79 12.23 5.34 1.84-12.73 6.7-15.6 10.02-15.98 2.32-1.4 4.78-2.11 7.33-2.11 3.65 0 7.37 1.47 11.06 4.37 2.45 1.22 4.75 1.86 6.68 1.86.44 0 .85-.03 1.24-.1l-10.9-80.35c-.03-.22-.06-.46-.07-.64-1.17-11.64 7.39-22.14 19.1-23.33.72-.07 1.45-.11 2.17-.11 10.99 0 20.12 8.26 21.23 19.21l11.39 112.24 5.18 8.86c6.79.21 11.16 1.94 13.32 5.27 8.33 11.13 6.76 26.56-4.54 44.66-13.01 25.68-44.71 30.59-49.58 31.2-11.64 4.62-22.5 6.96-32.29 6.96l.04-.02.01.04z"/><path fill="#333" d="M150.57 17.812c8.798 0 16.342 6.666 17.25 15.608l11.402 112.373c.02.22.02.438.03.656l6.81 11.64c.3-.01.597-.01.883-.01 7.525 0 10.4 1.85 11.45 3.56 9.435 12.43 2.305 29.19-4.736 40.41-12.94 25.77-47.08 29.25-47.08 29.25-12.3 4.93-22.64 6.86-31.31 6.86-31.3 0-40.63-25.21-40.63-25.21l-4.43-8.03c-1.06-1.91-2.2-3.7-3.35-5.33-2.33-2.21-4.68-4.96-6.92-8.4 0 0 .72 1.09 2.22 2.41-1.88-2.15-3.21-3.4-3.21-3.4-9.57-19.86-4.63-33.71-4.63-33.71 1.55-15.05 9.68-15.1 9.68-15.1 1.82-1.28 3.63-1.86 5.41-1.86 2.83 0 5.59 1.46 8.22 3.88.18.06.37.19.58.37 1.64-11.98 5.72-12.92 6.96-12.92.23 0 .36.03.36.03 2.02-1.44 4.07-2.09 6.11-2.09 4.96 0 9.9 3.83 14.45 9.46l1.47-.52c-.15-1.57-.19-3.04-.06-4.38 1.39-14.19 5.91-15.25 7.23-15.25.24 0 .37.04.37.04 2.02-1.44 4.07-2.09 6.11-2.09 3 0 5.99 1.4 8.89 3.75 2.43 1.26 5.64 2.48 8.88 2.48 1.91 0 3.84-.42 5.62-1.53l-11.29-83.3c-.02-.17-.06-.41-.07-.58-.96-9.54 5.98-18.05 15.52-19.02.6-.06 1.19-.09 1.77-.09m0-8c-.85 0-1.73.05-2.57.13-13.9 1.41-24.06 13.86-22.67 27.76.02.22.05.48.08.72l.01.1.01.06 10.16 74.98c-.37-.14-.75-.31-1.14-.49-4.31-3.29-8.74-4.96-13.19-4.96-3.05 0-5.97.77-8.73 2.29-2.99.63-5.76 2.52-7.83 5.39-1.45 2.02-2.61 4.55-3.48 7.64-3.15-1.72-6.33-2.59-9.54-2.59-3.05 0-5.98.78-8.73 2.3-2.14.45-4.88 1.67-7.33 4.75-.94 1.17-1.76 2.54-2.47 4.1-1.23-.28-2.47-.42-3.72-.42-2.88 0-5.66.74-8.29 2.22-5.62 1.36-12.98 6.86-14.69 21.17-1.14 4.12-4.14 19.17 5.29 38.76.42.87 1 1.67 1.71 2.33l.22.22c2.13 3.18 4.5 6.05 7.04 8.55.93 1.37 1.74 2.68 2.46 3.99l4.2 7.59c.87 2.11 3.85 8.46 10.14 14.8 6.77 6.83 18.81 14.97 37.73 14.97 10.16 0 21.35-2.38 33.3-7.06 6.68-.92 38.51-6.64 52.05-33.13 4.8-7.73 7.97-15.15 9.4-22.06 2.13-10.24.35-19.52-5.07-26.86-3.43-5.17-9.82-6.52-14.25-6.87l-3.65-6.23-11.3-111.37c-1.3-13-12.14-22.8-25.19-22.8l.04.02z"/><path fill="#FAC283" d="M54.34 156.553s-4.936 13.854 4.63 33.71c0 0 6.534 6.17 11.245 14.7l4.432 8.02s15.23 41.093 71.936 18.343c0 0 52.502-5.347 51.95-51.88l-35.702-61.11-108.49 38.217zm9.684-15.123s-8.137.06-9.685 15.123c-1.56 15.066 18.61 46.622 18.61 46.622s12.69 9.953 23.69-4.407c0 0 3.4-1.455 2.33-9.467-1.07-8-17.54-60.14-34.96-47.85h.01v-.01z"/><path fill="#E2AB74" d="M100.297 196.282s-6.754 5.86-11.59-2.646c-2.522-4.428-15.38-42.65-12.043-49.666 3.33-7.014 23.633 52.312 23.633 52.312z"/><path fill="#FAC283" d="M85.564 130.936s-5.948-1.473-7.6 15.215c-1.65 16.69 20.476 51.69 20.476 51.69s13.9 11.07 25.883-4.81c0 0 3.715-1.6 2.525-10.48-1.203-8.85-22.278-65.16-41.284-51.6v-.01z"/><path fill="#E2AB74" d="M131.59 205.52s-6.57-14.09-1.527-19.61c5.03-5.52 44.73-26.664 53.818-22.99 9.1 3.68-4.85 14.958-4.85 14.958l-47.44 27.642zm-.41-1.07s9.867 13.97 17.125 12.185c7.254-1.78 44.813-26.518 45.937-36.26 1.12-9.75-15.46-2.88-15.46-2.88l-47.6 26.955h-.002z"/><path fill="#FAC283" d="M166.186 195.954s2.486 18.653 18.44 18.29c0 0 29.5-32.383 13.604-52.813"/><path fill="#E2AB74" d="M118.576 159.425c-4.395-9.547-10.164-19.58-16.448-25.452.08 13.28 14.864 49.44 16.463 52.148 2.41 4.05 5.85 4.22 7.89 3.89.35-1.02.59-2.36.6-4.14-1.62-5.39-4.84-15.9-8.49-26.43h-.01v-.01zM59.95 191.247s8.692 13.233 29.144 3.446l7.248-.32s3.912 2.327 10.64.41c6.725-1.924 10.135-.766 13.406-7.875l6.677-1.04s3.02 14.78-20.365 15.485c-23.382.693-20.843 7.153-20.843 7.153s-14.327.48-25.907-17.26z"/><path d="M179.223 145.79v.003L167.82 33.42c-.97-9.537-9.484-16.484-19.02-15.52-9.54.97-16.48 9.484-15.516 19.02.014.168.05.41.07.578l11.29 83.305c-7.776 4.8-18.235-3.223-18.69-3.578l21.572 27.484.152-1.52.846 6.24c1.146 8.46 8.934 14.39 17.392 13.23 8.28-1.12 14.13-8.63 13.307-16.88zm-53.296-28.59v.003l.028.022-.028-.036v.01z" fill="#FAC283"/><path fill="#E2AB74" d="M159.76 164.916c8.723-2.948-31.182 31.178-31.182 31.178l-10.188-.266s4.705-17.934-10.63-52.39c0 0 20.77.163 24.03-14.878 0 0 1.89 20.9-8.874 27.22"/><path fill="#E2AB74" d="M147.404 126.355s6.658 7.713 22.996 1.165l1.67 6.625s-21.775 11.928-29.953 5.37c0 0-9.55-7.942-7.54-13.13 0 0 9.546.28 11.457-1.52l1.37 1.49zm22.116 18.825s-.024 15.26-21.03 29.23l27.485-14.252s3.555-7.477-6.453-14.977h-.002zm-39.357 57.036s-1.67 28.388-24.694 30.494c0 0 28.95 3.33 33.31-12.913 4.37-16.243-8.63-17.58-8.63-17.58h.01zm9.94-128.39s15.7 13.21 30.738-.21c0 0-.2 12.876-16.39 11.45-16.18-1.43-14.34-11.24-14.34-11.24z"/><path fill="#FAC283" d="M115.15 118.19s-5.956-1.47-7.6 15.215c-1.65 16.683 20.473 51.688 20.473 51.688s13.902 11.07 25.885-4.813c0 0 3.717-1.604 2.52-10.48-1.2-8.87-22.278-65.156-41.278-51.61z"/><path fill="#E2AB74" d="M156.408 160.92c-4.39-9.548-18.413-33.82-24.693-39.69.076 13.282 14.855 49.44 16.46 52.146 2.397 4.047 5.85 4.218 7.884 3.896.34-1.02.58-2.37.58-4.146-1.62-5.39 3.41-1.662-.24-12.206zm-7.875 8.755s-.3 5.34-23.73 12.435l1.438 8.557 8.24.323 19.44-10.71-5.37-10.6-.01-.01v.005z"/><path fill="#FAC283" d="M198.86 164.467s2.273-7.133-14.472-6.313c-16.738.835-48.113 27.873-48.113 27.873s-8.887 15.375 8.582 24.882c0 0 2.135 3.44 10.735.95 8.606-2.5 59.464-30.61 43.267-47.4z"/><path fill="#fff" d="M144.418 187.912s-6.495-.743-6.217 4.988c.28 5.726 3.74 13.003 8.84 10.804 0 0 3.74.584 4.04-4.66.3-5.247-6.64-11.132-6.64-11.132h-.02z"/><path fill="#333" d="M134.965 201.13s.094.042.276.12c.17.08.43.196.76.328.61.29 1.53.646 2.49 1.068l3.17 1.314c1.1.45 2.22.87 3.29 1.36 1.08.5 2.21 1.03 3.53 1.35 1.32.34 2.81.48 4.43.45 1.62-.02 3.37-.25 5.18-.66.89-.18 1.86-.45 2.74-.7l3.24-.98c2.17-.62 4.34-1.28 6.49-1.83 2.15-.56 4.3-1.09 6.31-1.65 2.01-.59 4-.99 5.86-1.46l2.73-.648 2.57-.53c1.65-.35 3.15-.73 4.51-.96 1.36-.25 2.53-.49 3.52-.64.97-.16 1.74-.29 2.26-.37.53-.07.81-.11.81-.11l2.58 7.57-3.04.85-7.97 2.14c-3.31.85-7.2 1.75-11.34 2.77-2.07.5-4.21.94-6.39 1.44l-6.59 1.46c-1.1.25-2.21.49-3.31.73-1.16.24-2.29.51-3.45.66-2.3.35-4.61.5-6.84.36-4.47-.25-8.6-1.74-11.42-3.95-1.41-1.09-2.56-2.26-3.41-3.4-.85-1.15-1.47-2.22-1.9-3.14-.83-1.85-1.03-2.98-1.03-2.98l-.05.05v-.012z"/></svg>