<svg xmlns="http://www.w3.org/2000/svg" width="256" height="256" viewBox="0 0 256 256"><path fill="#fff" d="M148.097 205.38c-13.842 0-25.138-3.522-27.752-4.445-24.122-2.116-41.877-9.823-52.774-23.07-12.11-14.724-11.32-30.98-11.11-33.59l-.4-10.064c-.16-.02-.33-.04-.49-.07-.06-.01-.12-.01-.17-.02-.43-.08-.85-.19-1.31-.34l-.32-.1c-.36-.12-.72-.27-1.07-.43l-.16-.07c-.38-.18-.76-.39-1.14-.64l-.21-.14c-.33-.22-.63-.44-.92-.67l-.15-.12c-.33-.27-.65-.57-.95-.88-.03-.02-.12-.12-.14-.14-.27-.28-.52-.56-.75-.86l-.14-.17c-.24-.31-.49-.65-.73-1.02-.02-.03-.07-.1-.08-.13-.19-.3-.39-.64-.59-.99l-.07-.14c-.4-.74-.77-1.54-1.1-2.39l-.05-.13c-.3-.78-.58-1.64-.82-2.53l-.03-.12c-.22-.8-.43-1.71-.6-2.64-2.25-11.97.5-27.78.71-28.98.17-1.02 1.98-11.43 9.29-22.38 3.5-5.24 8.92-8.01 15.67-8.01 4.72 0 9.46 1.36 13.23 2.84 3.71-3.94 8.76-6 14.81-6 4.03 0 8.46.89 13.21 2.64 4.39-4.35 10.17-6.55 17.21-6.55 7.74 0 15.54 2.68 21.48 5.41 4.36-5.36 10.55-8.08 18.41-8.08 13.98 0 29.24 8.75 34.15 11.82 5.12 1.9 8.38 4.53 9.69 7.81 2.03 5.07.53 33.52-.21 45.52-.04.68-.25 1.33-.62 1.91l-2.94 4.6c2.6 7.93 4.67 20.48 1.57 37.8-.08 3.83-.96 7.66-2.63 11.37l-.08.26c-.09.34-.18.67-.28 1.01-.23.8-.71 1.5-1.34 2-4.3 7.36-11.7 14.12-22 20.41-9.58 7.11-21.43 10.55-35.22 10.55h-.01z"/><path fill="#333" d="M168.012 54.295c13.57 0 29.146 9.39 32.376 11.434 2.86 1.02 6.608 2.85 7.748 5.68 1.916 4.77-.49 43.78-.49 43.78l-3.982 6.24c2.74 7.37 5.28 19.91 1.998 37.93-.02 3.68-.908 7.15-2.407 10.38-.143.51-.27 1-.422 1.52l-.402.11c-4.65 8.64-13.55 15.52-21.34 20.26-10.37 7.76-22.42 10.03-32.98 10.03-14.93 0-26.88-4.55-26.88-4.55-65.97-5.54-60.75-52.74-60.75-52.74l-.39-9.91c-.05-1.37-.08-2.78-.1-4.2l-1.58.06h-.28c-.25 0-.49-.01-.72-.03l-.25-.02c-.29-.03-.58-.07-.86-.12l-.08-.01c-.3-.06-.59-.14-.87-.23l-.21-.07c-.24-.09-.48-.19-.71-.29-.03-.02-.07-.04-.11-.05-.26-.13-.51-.27-.75-.43-.05-.03-.1-.07-.16-.1-.21-.14-.41-.29-.61-.45-.03-.03-.07-.06-.1-.09-.22-.19-.44-.39-.65-.6l-.1-.12c-.18-.2-.36-.4-.53-.61-.03-.04-.06-.07-.09-.11-.19-.25-.38-.5-.55-.77l-.05-.08c-.16-.26-.32-.52-.47-.79l-.06-.12c-.33-.6-.62-1.24-.89-1.92l-.04-.1c-.26-.69-.5-1.42-.7-2.17l-.02-.07c-.21-.77-.39-1.56-.54-2.38v-.02c-2.17-11.58.74-27.55.74-27.55s1.54-10.16 8.67-20.83c3.09-4.64 7.64-6.2 12.32-6.2 5.25 0 10.68 1.97 14.45 3.71l.01-.03c3.43-5.13 8.42-6.85 13.57-6.85 5.09 0 10.33 1.67 14.34 3.38 4.25-5.44 10.09-7.3 16.09-7.3 8.69 0 17.72 3.9 22.74 6.48.42-.63.86-1.25 1.31-1.86 3.98-5.37 9.7-7.29 15.83-7.29m0-8c-7.84 0-14.47 2.5-19.42 7.27-5.93-2.47-13.18-4.61-20.47-4.61-7.08 0-13.24 2.06-18.12 6.01-4.35-1.39-8.47-2.1-12.3-2.1-6.21 0-11.56 1.84-15.76 5.38-4.34-1.46-8.45-2.2-12.28-2.2-8.15 0-14.72 3.38-18.99 9.78-7.62 11.41-9.65 22.42-9.9 23.91-.25 1.42-3.07 17.77-.72 30.34l.02.07c.19 1.02.42 2.02.67 2.96l.04.15c.28 1.01.6 1.98.95 2.89l.05.13c.39 1 .83 1.96 1.31 2.83l.08.16c.23.43.47.83.72 1.21l.14.22c.27.42.59.86.92 1.27.06.08.12.16.19.24.29.36.6.72.92 1.06l.22.23c.37.38.79.77 1.21 1.12.09.08.17.14.26.21.37.3.76.58 1.15.85l.3.2c.53.34 1.03.62 1.55.87.1.05.21.1.32.15.36.16.71.31 1.07.44l.28 6.92c-.26 3.75-.62 20.85 12.02 36.23 11.53 14.02 30.04 22.28 55.03 24.55 3.55 1.21 14.91 4.67 28.59 4.67 14.6 0 27.2-3.83 37.46-11.39 10.55-6.46 18.24-13.63 22.9-21.33.95-.94 1.66-2.12 2.05-3.44l.3-1.05c1.77-4.02 2.72-8.15 2.84-12.32 2.94-16.69 1.25-29.22-1.2-37.61l1.94-3.04c.73-1.14 1.16-2.46 1.24-3.81.01-.1.61-9.98.97-20.31.78-22.39-.32-25.13-1.04-26.94-1.72-4.28-5.62-7.62-11.62-9.93-5.5-3.4-21.21-12.22-35.92-12.22z"/><path fill="#E2AB74" d="M196.888 64.705s9.33 1.935 11.248 6.712c1.916 4.777-.49 43.783-.49 43.783l-8.48 13.293-14.688-9.414-14.402-37.61 26.812-16.77z"/><path fill="#FAC283" d="M68.23 79.9s-7.35 6.844-7.746 30.718c0 0-.836 13.332-.414 23.89l.396 9.91s-5.224 47.2 60.747 52.735c0 0 53.443 20.34 75.528-24.983l-4.86-76.544L68.23 79.9zm89.154 92.527s-6.656 19.27 8.966 26.677c0 0 44.313-17.025 38.85-44.53"/><path fill="#E2AB74" d="M126.34 93.172s20.036 10.252 30.505-2.73c0 0-8.336 21.155-21.83 22.05 0 0-8.132 21.23 31.247 26.752 9.865 1.388-45.36 15.04-45.36 15.04l-9.735-5.224s13.272-15.07 15.172-55.888zm46.698 2.73s2.693 10.706 21.7 12.3l-1.605 7.23s-18.567-.205-23.298-10.54c0 0-1.535-11.11-7.364-15.095 0 0 7.24 4.802 9.96 3.995l.61 2.11zm12.26 28.978s-7.44 14.768-34.576 18.083l33.55-.445s7.07-5.51 1.025-17.64zM94.225 94.3s14.654 10.33 30.28-1.14c0 0-27.886 3.833-29.767-7.573 0 0-3.245-.552-.515 8.714zM61.83 86.094s18.475 9.565 28.307-.77l3.09 4.434s-9.453 2.27-12.27 7.226c0 0-13.727-1.923-16.69 19.68 0 0-2.017-11.196.474-16.398 2.49-5.205-2.91-14.172-2.91-14.172zm3.187 25.436s-6.228 21.737 18.328 22.2l7.172 3.213s2.654 4.16 10.104 5.57c7.45 1.403 10.19 4.185 16.82-1.102l6.97 2.24s-4.25 15.78-27.24 5.1c-22.98-10.69-23.66-3.2-23.66-3.2s-15.81-13.76-8.48-34zm66.566 39.498c-4.28-.618-8.068-28.79-17.125-30.208-23.323-3.65-44.212-5.08-54.488 8.28.01 1.833.032 3.654.1 5.406l.396 9.912s-5.224 47.198 60.747 52.734c0 0 24.07 9.13 46.58 1.452-48.57-17.43-38.51-42.977-36.21-47.576zm.39-.743s-.152.276-.39.743c-.872-.606.39-.743.39-.743zm-7.46-26.452l2.313-.526s-8.685 20.902-.71 23.794c7.968 2.9 13.754.2 36.115 1.1 22.37.9 27.53-3.85 31.54-14.89 4.01-11.03 13.79-50.72 13.79-50.72"/><path fill="#FAC283" d="M89.072 70.353s-22.34-14.15-31.736-.086c-7.127 10.67-8.67 20.828-8.67 20.828s-7.26 39.843 9.715 39.274c16.98-.57 19.41-3.4 19.41-3.4s1.88-58.59 11.29-56.62z"/><path fill="#E2AB74" d="M47.93 118.643c1.26 6.705 4.224 11.935 10.45 11.727 16.975-.568 19.402-3.4 19.402-3.4s.875-27.264 4.42-43.97l3.417-17.62s-21.5 31.5-19.31 47.596c.88 6.5-11.96 7.156-18.38 5.667z"/><path fill="#FAC283" d="M119.013 67.813s-24.545-15.548-34.87-.093c-7.83 11.722-9.523 22.883-9.523 22.883s-7.978 43.777 10.672 43.15c18.65-.623 21.317-3.734 21.317-3.734s2.06-64.38 12.4-62.21z"/><path fill="#E2AB74" d="M106.61 130.02s1.304-40.68 7.033-56.274l-2.024-9.365s-27 25-19.7 57.97c1.5 6.8-13.78 1.08-17.85-.17 1.52 6.73 4.78 11.8 11.21 11.58 18.65-.62 21.32-3.73 21.32-3.73z"/><path fill="#FAC283" d="M154.825 65.655s-30.773-19.492-43.715-.117c-9.817 14.696-11.94 28.69-11.94 28.69s-10.002 54.88 13.38 54.096c23.38-.783 26.725-4.684 26.725-4.684s2.583-80.702 15.55-77.985z"/><path fill="#E2AB74" d="M139.274 143.64s1.652-51.58 8.94-70.876l2.404-9.382s-27 29-25.775 51.024c.883 15.883-27.49 11.742-27.49 11.742 1.02 11.913 4.82 22.525 15.194 22.177 23.383-.784 26.727-4.684 26.727-4.684z"/><path fill="#FAC283" d="M200.993 66.12s-34.914-23.254-48.816-4.54C141.63 75.772 140.36 93.145 140.36 93.145s-10.124 53.42 15.523 53.018 29.257-4.156 29.257-4.156 1.58-78.744 15.853-75.89z"/><path fill="#E2AB74" d="M139.735 108.22l-1.105-.43c-.682 10.76-.223 24.803 5.463 32.57l41.047 1.647s.34-16.82 2.11-34.63c-12.85 9.462-47.515.844-47.515.844z"/><path fill="#FAC283" d="M70.642 146.533s30.176-3.497 35.367 11.27 3.09 29.37 3.09 29.37-42.02-2.534-38.46-40.64z"/><path fill="none" stroke="#333" stroke-width="5" stroke-miterlimit="10" d="M55.703 132.798s9.583.583 15.25-3.083c0 0 12.417 9.417 21.917 6.417 0 0 7.25 13 40.5-2.5"/><path fill="#FAC283" d="M167.203 146.127l-9.305 1.85s-32.25-.04-35.127-29.13c0 0 .88-6.945 10.68-4.7s66.11-.724 66.11-.724 14.8 18.5 3.28 57.866l-33.5 9.88s-7.24-10.49-5.24-22.34 3.12-12.71 3.12-12.71z"/><path fill="#E2AB74" d="M167.203 146.127s5.765 2.24 14.782-17.285c0 0 9.473 12.788-2.882 22.82s-9.556 3.832-9.556 3.832l-2.344-9.367z"/><path fill="#fff" d="M133.444 114.146s-.82 12.813 5.93 13.813 17.75 1 14.5-13.25l-20.43-.57z"/><path fill="#333" d="M122.62 121.38c.28 1.216.674 2.4 1.113 3.56.447 1.16.937 2.3 1.504 3.402.552 1.108 1.174 2.178 1.836 3.218.677 1.03 1.384 2.038 2.167 2.983.387.477.775.95 1.2 1.392.408.456.827.9 1.275 1.315.434.43.876.85 1.35 1.233.46.398.92.794 1.417 1.146.958.74 1.98 1.39 3.022 2.01.532.28 1.052.59 1.592.86l1.642.75c1.124.43 2.24.89 3.405 1.19 1.14.37 2.335.57 3.503.84 1.197.14 2.372.38 3.58.43.6.04 1.198.1 1.8.12l1.807.01c1.2.04 2.41-.11 3.61-.16 1.2-.1 2.4-.28 3.598-.41l3.58-.65 3.54-.83 2.69-.64-.1 2.86-.38 10.52-4.99-.36c-.03-1.77-.08-3.53-.06-5.28 0-1.76.02-3.52.06-5.28l3.96 3.41-3.8.94-3.88.68c-1.31.14-2.63.33-3.96.42-1.34.02-2.66.15-4.02.07l-2.02-.06c-.67-.04-1.35-.12-2.03-.18-1.35-.08-2.7-.4-4.05-.64-1.33-.36-2.68-.65-3.99-1.13-1.32-.42-2.6-.99-3.87-1.55-.62-.32-1.25-.63-1.86-.97-.61-.35-1.19-.74-1.78-1.11-1.16-.77-2.29-1.6-3.34-2.52-.54-.44-1.04-.92-1.54-1.41-.51-.47-.98-.98-1.45-1.49-.48-.5-.92-1.03-1.35-1.57-.45-.52-.84-1.09-1.23-1.66-.78-1.13-1.43-2.34-2-3.58-.29-.62-.51-1.27-.75-1.9-.2-.65-.4-1.3-.55-1.96-.17-.65-.31-1.31-.39-1.99-.08-.68-.19-1.33-.19-2.02-.03-1.35.01-2.72.38-4.07zm44.734-7.5l32.06-5.21 1.764-.288 1.604 1.547c.65.62.86.9 1.218 1.31.327.39.593.76.89 1.14.532.75 1.04 1.51 1.482 2.28.483.76.842 1.54 1.263 2.31.367.78.727 1.56 1.07 2.35l.915 2.37.77 2.4c.246.8.43 1.6.646 2.41.225.8.384 1.61.54 2.42.152.8.345 1.61.46 2.42l.344 2.42c.24 1.61.313 3.22.474 4.84.08 1.6.125 3.21.176 4.82l-.075 4.79-5.584-.27.11-4.52c-.03-1.51-.06-3.01-.12-4.52-.14-1.5-.19-3.01-.4-4.5l-.3-2.24c-.09-.75-.27-1.48-.4-2.22-.13-.74-.27-1.48-.47-2.2-.19-.73-.35-1.46-.56-2.18l-.67-2.15-.79-2.1-.91-2.05c-.35-.66-.65-1.34-1.05-1.97-.36-.65-.77-1.27-1.19-1.88-.43-.59-.89-1.2-1.38-1.68l.36.13-32.2.46-.01-.5z"/></svg>