<svg xmlns="http://www.w3.org/2000/svg" width="256" height="256" viewBox="0 0 256 256"><path fill="#fff" d="M108.858 240.194c-36.06 0-46.218-27.874-47.353-31.39l-3.622-8.145c-3.856-8.67-7.507-19.7-7.896-20.89-1.287-3.41-2.345-6.72-3.147-9.86l-35.557-57.43c-4.94-7.98-2.467-18.5 5.51-23.45 2.694-1.67 5.78-2.55 8.935-2.55 5.618 0 10.873 2.75 14.057 7.36l18.53 26.93-.555-1.42-12.55-33.07-5.59-15.09c-3.887-10.48 1.484-22.18 11.976-26.07 2.272-.84 4.64-1.27 7.04-1.27 4.218 0 8.247 1.33 11.587 3.66-.42-9.38 5.207-18.38 14.47-21.78 2.46-.91 5.027-1.37 7.63-1.37 9.236 0 17.58 5.83 20.763 14.5.188.5.38 1.09.546 1.69l4.544 16.27L128.49 92.5l7.9 26.17c.616.124 1.208.186 1.77.186.18 0 .354-.006.527-.02l-3.873-80.688c-.274-5.687 1.686-11.14 5.517-15.357 3.84-4.21 9.08-6.68 14.77-6.95.35-.01.69-.02 1.04-.02 11.4 0 20.75 8.92 21.29 20.31.01.12.02.64.02.64l1.47 103c.76-.91 1.52-1.8 2.29-2.66l.08-.08c.6-.64 1.19-1.29 1.78-1.94 1.23-1.35 2.49-2.75 3.86-4.1.65-.62 1.25-1.21 1.84-1.8 1.31-1.3 2.66-2.65 4.17-3.91.55-.47 1.11-.96 1.67-1.45 1.38-1.21 2.8-2.46 4.37-3.59.6-.44 1.21-.91 1.81-1.37 1.26-.96 2.56-1.96 3.95-2.83 4.04-2.66 7.17-4.51 9.57-5.64 2.28-1.16 3.59-1.83 3.59-1.83 2.85-1.44 6.01-2.2 9.17-2.2 7.66 0 14.57 4.24 18.04 11.06 5.05 9.94 1.08 22.14-8.86 27.2l-3.91 1.96-.12.05c-1.27.53-3.4 1.83-5.32 3.03l-.13.08c-.55.31-1.21.81-1.92 1.34-.53.4-1.08.81-1.65 1.2-.77.51-1.56 1.19-2.39 1.9-.52.44-1.04.89-1.58 1.33-.84.65-1.66 1.46-2.54 2.3-.54.53-1.08 1.05-1.64 1.56-.81.76-1.65 1.65-2.54 2.6-.53.57-1.06 1.14-1.61 1.69-4.34 4.76-8.12 9.84-10.73 13.6.75 11.82-6.11 23.74-12.2 31.86-15.05 24.31-47.46 26.59-52.03 26.79-9.68 2.9-18.76 4.37-27 4.37z"/><path fill="#333" d="M156.128 19.806c9.185 0 16.85 7.22 17.29 16.494.01.166.014.416.02.585l1.61 112.734c.003.21-.018.42-.023.63l.285.6c2.683-3.68 5.663-7.47 8.888-11.14 1.85-1.99 3.588-4.03 5.516-5.92 1.954-1.88 3.73-3.81 5.758-5.49 2-1.7 3.8-3.43 5.806-4.87 1.98-1.46 3.725-2.93 5.59-4.09 3.626-2.4 6.764-4.29 9.162-5.41l3.662-1.87c2.355-1.2 4.865-1.77 7.338-1.77 5.91 0 11.61 3.24 14.476 8.87 4.058 7.98.88 17.75-7.11 21.81l-.096.04-1.425.71-2.245 1.12c-1.45.6-3.47 1.8-5.9 3.32-1.23.7-2.486 1.77-3.86 2.72-1.397.92-2.753 2.22-4.22 3.4-1.485 1.15-2.883 2.66-4.375 4.02-1.494 1.39-2.893 3-4.36 4.5-4.522 4.95-8.66 10.45-11.94 15.26 1.333 10.91-5.19 22.22-11.393 30.44-14.687 23.94-47.667 24.84-49.306 24.84h-.007c-.04 0-.07.23-.07.23-10.13 3.07-18.85 4.46-26.35 4.46-35.69 0-43.61-28.75-43.61-28.75s0 .03-3.71-8.32c-3.96-8.9-7.78-20.58-7.78-20.58-1.43-3.77-2.46-7.13-3.2-10.1l-35.87-57.94c-3.79-6.12-1.9-14.15 4.21-17.94 2.13-1.32 4.49-1.94 6.82-1.94 4.17 0 8.25 2 10.76 5.63l33.23 48.29 1.93-.5c-3.05-7.79-6.61-16.91-10.17-26.02L48.92 84.84l-5.58-15.06c-3.13-8.44 1.18-17.81 9.61-20.94 1.87-.69 3.77-1.02 5.65-1.02 6.57 0 12.76 4.01 15.23 10.49l5.722 15.01c3.352 9.03 7.836 21.08 12.314 33.12l10.63 29.493 2.045-.53c-3.13-9.12-7.04-20.47-10.95-31.83L87.87 87.5c-.143-.33-.245-.625-.318-.89L81.13 68.6c-3.497-9.52-5.83-15.86-5.83-15.86-3.45-9.397 1.367-19.81 10.76-23.26 2.06-.76 4.173-1.12 6.25-1.12 7.38 0 14.316 4.55 17.007 11.88.17.44.324.93.45 1.38 0 0 1.82 6.505 4.545 16.27l10.325 35.7c3 9.926 5.99 19.84 8.544 28.305 1.58.57 3.27.944 4.97.944 1.57 0 3.15-.32 4.68-1.09l-4.02-83.82c-.46-9.55 6.92-17.67 16.47-18.13.28-.01.56-.02.84-.02m0-8.43c-.4 0-.81.22-1.22.24-6.75.32-12.98 3.36-17.53 8.37-4.55 5.01-6.87 11.54-6.55 18.29l2.74 57.13c-.41-1.36-.82-2.72-1.24-4.09l-8.67-30-1.63-5.62-4.53-16.24c-.19-.69-.42-1.39-.65-2.02-3.77-10.22-13.61-17.09-24.5-17.09-3.07 0-6.11.54-9.01 1.61-8.79 3.23-14.8 10.72-16.57 19.28-2.56-.92-5.3-1.41-8.1-1.41-2.88 0-5.71.51-8.43 1.51-12.57 4.68-19 18.69-14.35 31.24 0 0 2.24 6.02 5.58 15.05l.01.03.01.03 1.32 3.45c-3.96-5.44-10.29-8.67-17.05-8.67-3.89 0-7.71 1.08-11.03 3.14C4.85 91.7 1.8 104.69 7.9 114.54l35.23 56.93c.81 3.07 1.85 6.29 3.097 9.6.52 1.58 4.16 12.51 8.01 21.18l3.51 7.89c.73 2.33 3.42 9.62 9.97 16.94 6.96 7.79 19.75 17.07 41.14 17.07 8.48 0 17.78-1.48 27.66-4.39 7.09-.35 38.95-3.31 54.67-28.51 8.82-11.79 13.17-22.85 12.95-32.93 2.47-3.5 5.81-7.89 9.58-12.03.54-.56 1.08-1.14 1.62-1.71.83-.88 1.61-1.72 2.35-2.41.6-.55 1.15-1.09 1.69-1.61.79-.77 1.55-1.5 2.16-1.98l.06-.04.05-.04c.6-.48 1.15-.95 1.67-1.4.74-.63 1.44-1.23 1.94-1.56l.06-.04.07-.04c.65-.45 1.25-.9 1.78-1.29.55-.42 1.17-.88 1.51-1.07l.14-.08.13-.09c.98-.61 3.6-2.25 4.74-2.73l.25-.107.24-.12 2.25-1.12 1.36-.68.01-.01.1-.05.09-.05c11.9-6.057 16.664-20.668 10.614-32.57-4.16-8.176-12.44-13.25-21.6-13.25-3.78 0-7.57.91-10.96 2.63l-3.56 1.81c-2.56 1.21-5.82 3.13-9.97 5.866-1.53.96-2.89 2.01-4.21 3.02-.56.44-1.14.88-1.75 1.32-1.71 1.23-3.2 2.54-4.64 3.81-.53.47-1.06.94-1.62 1.41-1.63 1.37-3.03 2.77-4.39 4.12-.57.57-1.15 1.15-1.74 1.72l-.04.04-.03.03c-.46.45-.82.91-1.25 1.36l-1.23-92.68v-.08l-.1-.08-.05-.15c-.01-.2-.04-.64-.04-.8-.64-13.47-11.77-24.28-25.3-24.28z"/><path fill="#FAC283" d="M49.936 149.512s-3.96 8.36 3.826 28.932c0 0 3.822 11.697 7.778 20.59l3.712 8.352s11.594 42.182 69.95 24.464c0 0 52.672-.78 56.147-47.095l-30.22-63.867-111.2 28.624zm107.812 48.858s.862 18.76 16.756 19.784c0 0 32.138-29.66 18.1-51.344"/><path fill="#FAC283" d="M111.06 154.778l-5.335-16.026c-3.298-9.582-7.69-22.36-12.09-35.135-4.542-12.723-9.084-25.455-12.492-34.998-3.496-9.53-5.83-15.87-5.83-15.87-3.45-9.4 1.368-19.81 10.76-23.26 9.392-3.46 19.81 1.36 23.258 10.76.17.44.33.93.45 1.38l4.55 16.27 10.33 35.7c3.91 12.94 7.81 25.87 10.74 35.57l5.04 16.11c2.54 8.13-1.99 16.78-10.11 19.33-8.04 2.51-16.58-1.9-19.24-9.85zm33.157-4.2L138.81 37.956c-.46-9.552 6.92-17.672 16.474-18.13 9.556-.458 17.68 6.916 18.135 16.475 0 .17.01.42.02.59l1.61 112.74c.12 8.53-6.69 15.53-15.21 15.65-8.34.12-15.22-6.43-15.63-14.69zm-19.69-34.005s17.145 16.165 25.25-3.326l-6.154 32.56-19.096-29.234z"/><path fill="#E2AB74" d="M104.194 141.094s20.643 1.955 25.187-12.72c0 0 .07 20.944-11.18 26.305 0 0 .27 20.94 35.86 12.26 8.92-2.17-33.71 28.31-33.71 28.31l-10.11-1.16s6.23-17.42-6.04-53.01zm40.906-13.557s12.593 6.943 29.404 1.84l.217 8.902s-21.73 5.27-29.3-1.96c0 0-5.09-8.99-11.44-10.42 0 0 7.83 1.64 9.89.03l1.24 1.6zm30.164 22.25s-11.147 13.556-33.246 25.63l28.565-11.802s13.982-5.505 4.68-13.828zM90.75 92.01s16.068 3.848 25.532-11.283c0 0-22.563 12.772-28.062 3.652 0 0-2.955.62 2.53 7.63z"/><path fill="#FAC283" d="M80.336 165.726l-5.978-14.907-12.872-32.92C56.93 105.89 52.37 93.88 48.95 84.86l-5.58-15.05c-3.13-8.437 1.18-17.81 9.613-20.94 8.39-3.104 17.704 1.14 20.882 9.476l5.722 15.01c3.353 9.03 7.837 21.076 12.315 33.116 4.36 12.086 8.716 24.172 11.984 33.242 3.193 9.09 5.32 15.157 5.32 15.157 2.824 8.04-1.407 16.85-9.445 19.67-7.82 2.75-16.37-1.2-19.43-8.82zM66.91 194.73l-52.225-84.35c-3.79-6.12-1.896-14.148 4.218-17.94 5.932-3.668 13.674-1.98 17.593 3.69l56.242 81.727c4.835 7.024 3.058 16.63-3.963 21.458-7.02 4.83-16.624 3.06-21.458-3.96-.13-.19-.29-.43-.408-.624z"/><path fill="#E2AB74" d="M61.92 107.21s16.065 3.85 25.53-11.28c0 0-22.562 12.766-28.06 3.652 0 0-2.962.628 2.53 7.63zm15.17 45.782s16.06 3.853 25.533-11.287c0 0-22.566 12.775-28.06 3.653.002 0-2.964.63 2.528 7.634zm66.068-80.907s12 11.988 28.122-.058c0 0-1.323 12.79-17.295 9.97-15.975-2.825-10.827-9.912-10.827-9.912zm-.776 2.575s14.463 14.505 30.582 2.457c0 0-1.32 12.785-17.295 9.958-15.98-2.813-13.29-12.414-13.29-12.414zm-98.264 83.92s21.52.313 26.417-11.882l4.154 2.745s-7.32 5.16-8.05 10.36c0 0-14.32 9.24-9.5 28.74 0 0-3.85-14.884-6.52-19.977-1.2-2.278-6.52-9.986-6.52-9.986zm13.834 19.1s2.07 20.73 23.246 12.768l7.233.31s3.69 2.656 10.55 1.327c6.85-1.332 10.15.115 14.02-6.667l6.72-.46s1.73 14.96-21.58 13.637c-23.31-1.33-16.13 24.147-16.13 24.147s-32.02-29.204-24.05-45.06zm101.622-9.516"/><path fill="#FAC283" d="M160.452 174.994s.64-1.255 1.774-3.444c1.116-2.102 2.742-4.97 4.8-8.343 4.13-6.724 10.064-15.4 17.17-23.496 1.85-1.98 3.59-4.02 5.517-5.92 1.954-1.87 3.73-3.8 5.758-5.49 2-1.7 3.8-3.43 5.81-4.86 1.98-1.45 3.73-2.92 5.59-4.09 3.63-2.39 6.77-4.28 9.16-5.41 2.33-1.18 3.66-1.86 3.66-1.86 7.99-4.05 17.75-.87 21.82 7.11 4.06 7.99.88 17.76-7.11 21.82l-.09.05-1.42.72-2.24 1.12c-1.45.61-3.47 1.81-5.9 3.33-1.23.7-2.49 1.78-3.86 2.72-1.4.92-2.75 2.23-4.22 3.4-1.48 1.16-2.88 2.66-4.37 4.02-1.49 1.39-2.89 3.01-4.36 4.5-5.72 6.27-10.83 13.42-14.35 18.92-1.75 2.75-3.14 5.09-4.02 6.69l-1.31 2.41-.35.67c-4.09 7.53-13.51 10.32-21.04 6.23-7.43-4.03-10.24-13.27-6.38-20.75z"/><path fill="#E2AB74" d="M128.38 188.835c-3.875.928-9.577 2.256-17.812 4.124-21.207 4.81-38.705 3.76-50.954 1.48.633 1.56 1.272 3.11 1.926 4.59l3.712 8.35s11.594 42.18 69.95 24.46c0 0 23.712-.38 40.368-14.62-47.51 1.61-47.595-23.68-47.19-28.4zm.082-.77s-.04.288-.082.77c-1.103.144.082-.77.082-.77z"/><path fill="#fff" d="M227.494 143.723s-1.572-6.886-6.233-8.167c0 0 5.53-7.824 11.35-6.227 5.83 1.59 5.87 7.05 5.87 7.05s-3.66 4.92-10.98 7.34z"/></svg>