<svg xmlns="http://www.w3.org/2000/svg" width="256" height="256" viewBox="0 0 256 256"><path fill="#fff" d="M131.98 246.13c-11.645 0-20.878-2.39-23.21-3.052-26.042-.736-44.755-7.414-55.63-19.85-10.04-11.484-9.695-23.91-9.53-26.243-.07-1.234-.532-7.688-2.764-15.763-2.743-9.922-4.914-19.547-4.936-19.643-.053-.24-.084-.48-.094-.71-.956-22.76 8.286-35.24 10.47-37.87 6.137-12.32 18.008-12.63 19.358-12.63h.37c5.193 0 9.66 1.6 13.17 4.78 4.842-5.4 9.81-6.11 12-6.11.195 0 .37-.01.52 0 .53-.04 1.06-.07 1.576-.07 2.722 0 5.947.58 9.117 2.55L100.5 94.58l-3.918-40.355-1.945-18.262c-.67-6.288 1.15-12.46 5.123-17.38 3.973-4.922 9.624-8 15.912-8.67.845-.09 1.71-.136 2.57-.136 12.515 0 23.706 9.397 25.01 20.973l.043.154c.13.457.325 1.146.325 1.986v.148c0 .123-.006.247-.017.37-.007.07-.66 7.294-.384 17.926.18 5.153.3 11.172.42 17.544.14 7.408.29 15.067.57 22.862 0 .212 0 .425-.03.636l-.18 1.38c-.02.185-.06.367-.11.547l1.38 18.48.6 7.962c1.59 1.535 3.66 3.055 5.93 3.535l23.65-84.787c2.74-9.823 11.77-16.683 21.95-16.683 2.06 0 4.13.284 6.14.843 5.87 1.637 10.75 5.46 13.74 10.766 2.99 5.3 3.74 11.46 2.1 17.33l-.22.73-36.82 116.63 1.38 11.31c6.66 3.07 10.26 6.61 10.98 10.76 3.5 14.51-4.63 29.09-23.54 42.18-4.44 3.7-9.56 6.66-15.21 8.77-.15.05-.3.1-.46.14-7.08 2.55-15.01 3.84-23.57 3.84z"/><path fill="#333" d="M118.24 13.776c10.103 0 19.974 7.435 21.046 17.522.057.51.333 1.087.333 1.592v.148s-.69 7.364-.4 18.4c.39 11.028.48 25.736 1 40.443l-.17 1.38-.1.35c0-.01-.01-.01-.01-.01-.01 0-.02.15-.03.15-.01 0-.03-.07-.04-.31l-.02.17.04.69.2 2.74c.13 1.83.27 3.65.4 5.46.27 3.61.53 7.16.79 10.6.24 3.26.48 6.41.7 9.41 2.73 2.96 6.63 5.94 11.25 5.94.52 0 1.04-.04 1.58-.11l24.48-87.75c2.32-8.31 9.87-13.76 18.1-13.76 1.67 0 3.37.23 5.06.7 10 2.79 15.85 13.16 13.06 23.17-.05.18-.13.43-.18.61L178.5 168.03c-.07.223-.162.43-.24.65l1.78 14.523c8.19 3.35 10.42 6.57 10.75 8.8 4.07 16.42-10.214 30.036-22.037 38.194-4.43 3.727-9.25 6.207-14.18 8.207h-.026c-7.67 2.84-15.58 3.75-22.59 3.75-12.78 0-22.59-3.033-22.59-3.033-66.172-1.67-61.77-42.05-61.77-42.05s-.274-7.32-2.92-16.89c-2.75-9.94-4.89-19.45-4.89-19.45-1.005-23.85 9.84-35.53 9.84-35.53 4.99-10.55 14.736-10.89 15.987-10.89H66c6.294 0 10.564 2.84 13.383 7.3 4.73-7.87 10.1-8.53 11.785-8.53.346 0 .537.03.537.03.535-.05 1.055-.07 1.564-.07 7 0 11.64 4.8 14.63 11.88l-3.44-30.74c-1.43-14.65-2.85-29.31-3.92-40.3l-1.95-18.3c-1.15-10.8 6.67-20.49 17.48-21.64.71-.08 1.43-.11 2.15-.11m0-8c-1.01 0-2.01.05-3 .16-7.35.78-13.96 4.38-18.6 10.13-4.65 5.75-6.77 12.97-5.99 20.32l1.94 18.26.13 1.32 3.8 38.92.01.11 1.16 10.43c-1.65-.34-3.15-.45-4.41-.45-.54 0-1.09.02-1.64.06h-.46c-2.36 0-7.26.65-12.3 4.86-3.67-2.35-8.01-3.51-12.88-3.51h-.37c-7.13 0-17.23 3.78-22.75 14.47-2.97 3.75-12.05 17.19-11.08 40.22.02.48.08.94.19 1.41.09.4 2.21 9.81 4.98 19.83 2.03 7.34 2.52 13.25 2.61 14.72-.17 3.44-.08 16.73 10.53 28.85 11.57 13.23 31.09 20.36 58.04 21.2 3.15.86 12.41 3.07 23.81 3.07 8.96 0 17.28-1.35 24.74-4.02.23-.06.46-.13.68-.22 6.02-2.25 11.48-5.39 16.23-9.33 8.05-5.59 14.33-11.57 18.68-17.78 6.4-9.13 8.6-18.95 6.35-28.4-1.16-6.33-6.79-10.32-11.19-12.61l-1.01-8.27L223 53.7l.06-.2.05-.16.15-.528c1.917-6.89 1.04-14.11-2.476-20.34-3.516-6.24-9.25-10.73-16.147-12.656-2.357-.65-4.785-.99-7.214-.99-11.97 0-22.584 8.06-25.808 19.61l-21.985 78.8-.355-4.73c-.125-1.65-.25-3.31-.375-5-.138-1.85-.277-3.73-.42-5.61l-.137-1.81-.27-3.62-.136-1.87c.02-.1.034-.21.047-.31l.17-1.38c.054-.42.07-.84.058-1.27-.273-7.76-.424-15.4-.57-22.8-.124-6.37-.242-12.39-.43-17.61-.265-10.33.363-17.35.37-17.41.02-.242.033-.49.033-.734v-.15c0-1.28-.263-2.31-.435-2.92-.835-6.7-4.38-12.89-10.012-17.44-5.393-4.36-12.117-6.76-18.93-6.76z"/><path fill="#FAC283" d="M49.656 125.17s-10.846 11.677-9.844 35.532c0 0 2.14 9.512 4.89 19.455 2.644 9.57 2.917 16.892 2.917 16.892s-4.41 40.4 61.77 42.07c0 0 54.54 17.18 73.93-29.35L174 133.64l-124.348-8.477zm16.12-10.895s-10.782-.395-16.12 10.896c-7.015 14.84-1.46 54.38-1.46 54.38s8.36 15.35 25.468 5.78c0 0 4.014.01 6.385-8.42 2.36-8.42 13.57-62.93-14.28-62.62z"/><path fill="#E2AB74" d="M78.36 184.408s-9.235 2.94-10.4-7.604c-.608-5.487 2.98-49.04 9.312-54.588 6.314-5.55 1.09 62.192 1.09 62.192z"/><path fill="#FAC283" d="M91.717 113.066s-8.098-1.186-14.088 11.877c-7.58 16.51-1.79 60.217-1.79 60.217s9.09 16.977 27.82 6.308c0 0 4.38 0 7-9.343 2.61-9.347 7.57-71.62-18.95-69.06z"/><path fill="#E2AB74" d="M105.54 207.016s-.497-16.84 6.884-20.167c7.375-3.35 55.945-7.37 63.416.18 7.475 7.56-11.262 12.79-11.262 12.79l-59.04 7.18zm.048-1.24s3.832 18.13 11.818 19.468c7.982 1.34 55.967-7.18 61.256-16.392 5.293-9.23-14.156-9.496-14.156-9.496l-58.918 6.42z"/><path fill="#FAC283" d="M144.066 212.326s-5.52 19.628 10.51 26.11c0 0 43.24-19.58 36.182-46.727"/><path fill="#E2AB74" d="M112.35 155.563c-.28-11.378-1.72-23.843-5.453-32.372-5.617 13.26-6.408 55.57-5.977 58.96.654 5.06 4.01 6.7 6.174 7.25.783-.87 1.598-2.11 2.367-3.87.71-6.05 2-17.9 2.89-29.95zM40.367 162.1s2.977 16.898 27.523 15.925l7.346 2.79s2.898 3.993 10.414 4.968c7.514.97 10.42 3.582 16.725-2.087l7.086 1.82s1.82 12.614-23.5 11.366c-16.6-.818-27.21-6.492-27.21-6.492s-14.46-5.672-18.38-28.29z"/><path fill="#FAC283" d="M110.902 152.988s-.756-7.315-1.893-18.292c-1.24-11.065-2.89-25.817-4.54-40.563-1.43-14.655-2.85-29.308-3.91-40.297l-1.95-18.3c-1.15-10.803 6.67-20.497 17.48-21.647 10.81-1.16 22.25 7.06 23.4 17.86.06.51.12.63.12 1.13v.14s-.69 7.36-.4 18.4c.39 11.03.48 25.73 1 40.44l-.17 1.38-.11.34c-.01-.1-.03.46-.08-.18l-.02.16.04.69.2 2.74.4 5.46c.27 3.6.53 7.16.8 10.6.51 6.87 1 13.29 1.41 18.79.93 11 1.54 18.33 1.54 18.33.78 9.21-6.06 17.31-15.27 18.09-9.11.77-17.13-5.9-18.07-14.95l-.03-.37zm35.538 5.472l32.887-117.89c2.795-10.007 13.158-15.852 23.166-13.062 10.004 2.79 15.855 13.16 13.06 23.167-.046.173-.124.43-.175.606l-36.845 116.73c-2.78 8.82-12.182 13.72-21.006 10.93-8.63-2.72-13.49-11.82-11.09-20.47zm-8.674-41.76s12.14 22.505 27.148 5.192l-17.45 31.45-9.698-36.643z"/><path fill="#E2AB74" d="M108.44 135.02s20.603 9.068 30.296-4.502c0 0-7.084 21.604-20.508 23.286 0 0-5.61 26.744 41.224 23.41 9.943-.708-52.868 19.133-52.868 19.133l-10.02-4.637s12.368-15.827 11.877-56.69zm46.78 0s9.315 11.53 28.38 12.013l-1.18 7.31s-25.306 3.408-30.634-6.627c0 0-1.42-14.532-7.476-18.17 0 0 7.51 4.368 10.182 3.397l.727 2.078zm19.4 31.36s-5.168 10.334-38.925 16.92l33.457-2.4s12.21-2.768 5.467-14.52zm-69.087 36.74S91.7 230.645 67.89 222.876c0 0 27.39 15.72 38.693 1.433 11.306-14.3-1.05-21.19-1.05-21.19zm0-123.266s15.24 9.456 30.162-2.906c0 0-27.61 5.452-30.162-5.82 0 0-3.267-.36 0 8.726zm65.837-2.724s9.054 16.54 29.776 9.635c0 0-5.725 12.726-21.223 4.362-15.497-8.365-8.554-13.996-8.554-13.996zm-.9 2.48s9.954 19.88 30.677 12.97c0 0-5.53 15.415-21.027 7.05-15.5-8.362-9.65-20.02-9.65-20.02z"/><path fill="#FAC283" d="M190.082 195s5.32-6.122-11.695-12.48c-17.018-6.354-59.828 7.108-59.828 7.108s-15.44 11.49-2.13 28.44c0 0 .64 4.34 10.27 5.55 9.62 1.21 72.29-4.957 63.37-28.618z"/><path fill="#fff" d="M125.854 194.987s-6.146-3.516-8.326 2.3c-2.182 5.82-1.855 14.543 4.162 14.543 0 0 3.47 2.183 6.016-2.907 2.546-5.086-1.852-13.936-1.852-13.936z"/><path fill="#333" d="M111.62 209.714s.042.33.194.933c.15.603.42 1.476.884 2.53.916 2.087 2.744 4.968 5.98 7.1 1.594 1.08 3.51 1.94 5.627 2.512 2.116.58 4.43.88 6.833.92 2.4.06 4.877-.24 7.514-.47 2.58-.28 5.166-.59 7.787-.97 10.44-1.49 20.81-3.6 28.55-5.31 3.87-.85 7.08-1.61 9.32-2.15l3.5-.86 1.6 7.83-3.56 1.1c-1.13.35-2.52.7-4.1 1.13-1.58.43-3.38.86-5.34 1.31-3.92.95-8.54 1.82-13.51 2.71-2.5.38-5.08.77-7.72 1.12-2.63.39-5.33.65-8.04.87-2.68.23-5.5.41-8.2.54-.65.03-1.3.03-1.95.04l-2.03.02-2.16-.06-2.15-.16c-2.86-.28-5.68-.86-8.31-1.81-1.33-.44-2.56-1.09-3.73-1.74-1.14-.74-2.22-1.49-3.12-2.4-1.85-1.74-3.1-3.76-3.83-5.62-.72-1.88-.98-3.58-.95-4.98-.03-1.38.23-2.46.43-3.16.22-.71.42-1.06.42-1.06z"/></svg>