<svg xmlns="http://www.w3.org/2000/svg" width="256" height="256" viewBox="0 0 256 256"><path fill="#ff0" d="M117.17 237.685c-1.9 0-3.54-1.34-3.918-3.202L99.74 168.06l-66.423-13.51c-1.863-.38-3.203-2.02-3.203-3.92 0-1.902 1.338-3.54 3.202-3.92l66.423-13.525 13.51-66.415c.38-1.864 2.02-3.203 3.92-3.203s3.54 1.338 3.92 3.202l13.52 66.41 66.41 13.52c1.86.38 3.2 2.02 3.2 3.92s-1.34 3.54-3.2 3.92l-66.42 13.51-13.53 66.42c-.38 1.86-2.02 3.2-3.92 3.2z"/><path fill="#F7931E" d="M117.172 67.567l14.05 69.01 69.008 14.052-69.007 14.04-14.05 69.01-14.04-69.02-69.02-14.04 69.02-14.06 14.04-69.01m0-8c-3.805 0-7.082 2.68-7.84 6.4L96.35 129.79l-63.83 12.998c-3.73.76-6.406 4.036-6.406 7.84 0 3.803 2.678 7.08 6.405 7.84l63.83 12.983 12.98 63.83c.76 3.73 4.03 6.41 7.84 6.41s7.08-2.67 7.84-6.4L138 171.46l63.813-12.984c3.73-.76 6.406-4.035 6.406-7.84 0-3.802-2.68-7.08-6.41-7.84l-63.82-13L125 65.976c-.76-3.724-4.04-6.402-7.84-6.402z"/><path fill="#ff0" d="M180 108.65c-1.9 0-3.54-1.34-3.92-3.205l-6.212-30.587-30.59-6.23c-1.864-.378-3.203-2.017-3.203-3.918s1.34-3.54 3.2-3.92l30.593-6.23 6.213-30.585c.38-1.864 2.02-3.203 3.92-3.204 1.91 0 3.54 1.34 3.92 3.21l6.23 30.58 30.59 6.23c1.87.38 3.21 2.02 3.21 3.92s-1.34 3.54-3.2 3.92l-30.59 6.23-6.23 30.61c-.38 1.87-2.01 3.2-3.92 3.2z"/><path fill="#F7931E" d="M180 24.77l6.76 33.17 33.183 6.758-33.183 6.752-6.76 33.2-6.74-33.182-33.185-6.758 33.186-6.76L180 24.77m0-8.39c-3.805 0-7.082 2.876-7.84 6.603l-5.686 28.088-27.996 5.76c-3.727.76-6.403 4.06-6.403 7.87 0 3.81 2.678 7.09 6.403 7.85l27.996 5.71 5.687 27.86c.76 3.73 4.04 6.28 7.84 6.28 3.81 0 7.08-2.54 7.84-6.27l5.71-27.94 28-5.66c3.73-.76 6.41-4.02 6.41-7.82s-2.67-7.07-6.4-7.83l-27.99-5.7L187.86 23c-.76-3.725-4.032-6.594-7.84-6.594z"/></svg>